<?xml version="1.0" encoding="utf-8" standalone="no"?>
<!DOCTYPE svg PUBLIC "-//W3C//DTD SVG 1.1//EN"
  "http://www.w3.org/Graphics/SVG/1.1/DTD/svg11.dtd">
<svg height="207.754687pt" version="1.1" viewBox="0 0 1803.333637 207.754687" width="1803.333637pt" xmlns="http://www.w3.org/2000/svg" xmlns:xlink="http://www.w3.org/1999/xlink">
 <metadata>
  <rdf:RDF xmlns:cc="http://creativecommons.org/ns#" xmlns:dc="http://purl.org/dc/elements/1.1/" xmlns:rdf="http://www.w3.org/1999/02/22-rdf-syntax-ns#">
   <cc:Work>
    <dc:type rdf:resource="http://purl.org/dc/dcmitype/StillImage"/>
    <dc:date>2021-11-08T15:44:37.437595</dc:date>
    <dc:format>image/svg+xml</dc:format>
    <dc:creator>
     <cc:Agent>
      <dc:title>Matplotlib v3.4.2, https://matplotlib.org/</dc:title>
     </cc:Agent>
    </dc:creator>
   </cc:Work>
  </rdf:RDF>
 </metadata>
 <defs>
  <style type="text/css">*{stroke-linecap:butt;stroke-linejoin:round;}</style>
 </defs>
 <g id="figure_1">
  <g id="patch_1">
   <path d="M 0 207.754687 
L 1803.333637 207.754687 
L 1803.333637 0 
L 0 0 
z
" style="fill:#ffffff;"/>
  </g>
  <g id="axes_1">
   <g id="patch_2">
    <path d="M 53.328125 170.198437 
L 433.541746 170.198437 
L 433.541746 20.798438 
L 53.328125 20.798438 
z
" style="fill:#ffffff;"/>
   </g>
   <g id="matplotlib.axis_1">
    <g id="xtick_1">
     <g id="line2d_1">
      <defs>
       <path d="M 0 0 
L 0 3.5 
" id="m84f70375fc" style="stroke:#000000;stroke-width:0.8;"/>
      </defs>
      <g>
       <use style="stroke:#000000;stroke-width:0.8;" x="76.133586" xlink:href="#m84f70375fc" y="170.198437"/>
      </g>
     </g>
     <g id="text_1">
      <!-- Jan -->
      <g transform="translate(68.425773 184.796875)scale(0.1 -0.1)">
       <defs>
        <path d="M 628 4666 
L 1259 4666 
L 1259 325 
Q 1259 -519 939 -900 
Q 619 -1281 -91 -1281 
L -331 -1281 
L -331 -750 
L -134 -750 
Q 284 -750 456 -515 
Q 628 -281 628 325 
L 628 4666 
z
" id="DejaVuSans-4a" transform="scale(0.015625)"/>
        <path d="M 2194 1759 
Q 1497 1759 1228 1600 
Q 959 1441 959 1056 
Q 959 750 1161 570 
Q 1363 391 1709 391 
Q 2188 391 2477 730 
Q 2766 1069 2766 1631 
L 2766 1759 
L 2194 1759 
z
M 3341 1997 
L 3341 0 
L 2766 0 
L 2766 531 
Q 2569 213 2275 61 
Q 1981 -91 1556 -91 
Q 1019 -91 701 211 
Q 384 513 384 1019 
Q 384 1609 779 1909 
Q 1175 2209 1959 2209 
L 2766 2209 
L 2766 2266 
Q 2766 2663 2505 2880 
Q 2244 3097 1772 3097 
Q 1472 3097 1187 3025 
Q 903 2953 641 2809 
L 641 3341 
Q 956 3463 1253 3523 
Q 1550 3584 1831 3584 
Q 2591 3584 2966 3190 
Q 3341 2797 3341 1997 
z
" id="DejaVuSans-61" transform="scale(0.015625)"/>
        <path d="M 3513 2113 
L 3513 0 
L 2938 0 
L 2938 2094 
Q 2938 2591 2744 2837 
Q 2550 3084 2163 3084 
Q 1697 3084 1428 2787 
Q 1159 2491 1159 1978 
L 1159 0 
L 581 0 
L 581 3500 
L 1159 3500 
L 1159 2956 
Q 1366 3272 1645 3428 
Q 1925 3584 2291 3584 
Q 2894 3584 3203 3211 
Q 3513 2838 3513 2113 
z
" id="DejaVuSans-6e" transform="scale(0.015625)"/>
       </defs>
       <use xlink:href="#DejaVuSans-4a"/>
       <use x="29.492188" xlink:href="#DejaVuSans-61"/>
       <use x="90.771484" xlink:href="#DejaVuSans-6e"/>
      </g>
     </g>
    </g>
    <g id="xtick_2">
     <g id="line2d_2">
      <g>
       <use style="stroke:#000000;stroke-width:0.8;" x="108.625237" xlink:href="#m84f70375fc" y="170.198437"/>
      </g>
     </g>
     <g id="text_2">
      <!-- Feb -->
      <g transform="translate(99.773674 184.796875)scale(0.1 -0.1)">
       <defs>
        <path d="M 628 4666 
L 3309 4666 
L 3309 4134 
L 1259 4134 
L 1259 2759 
L 3109 2759 
L 3109 2228 
L 1259 2228 
L 1259 0 
L 628 0 
L 628 4666 
z
" id="DejaVuSans-46" transform="scale(0.015625)"/>
        <path d="M 3597 1894 
L 3597 1613 
L 953 1613 
Q 991 1019 1311 708 
Q 1631 397 2203 397 
Q 2534 397 2845 478 
Q 3156 559 3463 722 
L 3463 178 
Q 3153 47 2828 -22 
Q 2503 -91 2169 -91 
Q 1331 -91 842 396 
Q 353 884 353 1716 
Q 353 2575 817 3079 
Q 1281 3584 2069 3584 
Q 2775 3584 3186 3129 
Q 3597 2675 3597 1894 
z
M 3022 2063 
Q 3016 2534 2758 2815 
Q 2500 3097 2075 3097 
Q 1594 3097 1305 2825 
Q 1016 2553 972 2059 
L 3022 2063 
z
" id="DejaVuSans-65" transform="scale(0.015625)"/>
        <path d="M 3116 1747 
Q 3116 2381 2855 2742 
Q 2594 3103 2138 3103 
Q 1681 3103 1420 2742 
Q 1159 2381 1159 1747 
Q 1159 1113 1420 752 
Q 1681 391 2138 391 
Q 2594 391 2855 752 
Q 3116 1113 3116 1747 
z
M 1159 2969 
Q 1341 3281 1617 3432 
Q 1894 3584 2278 3584 
Q 2916 3584 3314 3078 
Q 3713 2572 3713 1747 
Q 3713 922 3314 415 
Q 2916 -91 2278 -91 
Q 1894 -91 1617 61 
Q 1341 213 1159 525 
L 1159 0 
L 581 0 
L 581 4863 
L 1159 4863 
L 1159 2969 
z
" id="DejaVuSans-62" transform="scale(0.015625)"/>
       </defs>
       <use xlink:href="#DejaVuSans-46"/>
       <use x="52.019531" xlink:href="#DejaVuSans-65"/>
       <use x="113.542969" xlink:href="#DejaVuSans-62"/>
      </g>
     </g>
    </g>
    <g id="xtick_3">
     <g id="line2d_3">
      <g>
       <use style="stroke:#000000;stroke-width:0.8;" x="141.116888" xlink:href="#m84f70375fc" y="170.198437"/>
      </g>
     </g>
     <g id="text_3">
      <!-- Mar -->
      <g transform="translate(131.683294 184.796875)scale(0.1 -0.1)">
       <defs>
        <path d="M 628 4666 
L 1569 4666 
L 2759 1491 
L 3956 4666 
L 4897 4666 
L 4897 0 
L 4281 0 
L 4281 4097 
L 3078 897 
L 2444 897 
L 1241 4097 
L 1241 0 
L 628 0 
L 628 4666 
z
" id="DejaVuSans-4d" transform="scale(0.015625)"/>
        <path d="M 2631 2963 
Q 2534 3019 2420 3045 
Q 2306 3072 2169 3072 
Q 1681 3072 1420 2755 
Q 1159 2438 1159 1844 
L 1159 0 
L 581 0 
L 581 3500 
L 1159 3500 
L 1159 2956 
Q 1341 3275 1631 3429 
Q 1922 3584 2338 3584 
Q 2397 3584 2469 3576 
Q 2541 3569 2628 3553 
L 2631 2963 
z
" id="DejaVuSans-72" transform="scale(0.015625)"/>
       </defs>
       <use xlink:href="#DejaVuSans-4d"/>
       <use x="86.279297" xlink:href="#DejaVuSans-61"/>
       <use x="147.558594" xlink:href="#DejaVuSans-72"/>
      </g>
     </g>
    </g>
    <g id="xtick_4">
     <g id="line2d_4">
      <g>
       <use style="stroke:#000000;stroke-width:0.8;" x="173.608539" xlink:href="#m84f70375fc" y="170.198437"/>
      </g>
     </g>
     <g id="text_4">
      <!-- Apr -->
      <g transform="translate(164.958539 184.796875)scale(0.1 -0.1)">
       <defs>
        <path d="M 2188 4044 
L 1331 1722 
L 3047 1722 
L 2188 4044 
z
M 1831 4666 
L 2547 4666 
L 4325 0 
L 3669 0 
L 3244 1197 
L 1141 1197 
L 716 0 
L 50 0 
L 1831 4666 
z
" id="DejaVuSans-41" transform="scale(0.015625)"/>
        <path d="M 1159 525 
L 1159 -1331 
L 581 -1331 
L 581 3500 
L 1159 3500 
L 1159 2969 
Q 1341 3281 1617 3432 
Q 1894 3584 2278 3584 
Q 2916 3584 3314 3078 
Q 3713 2572 3713 1747 
Q 3713 922 3314 415 
Q 2916 -91 2278 -91 
Q 1894 -91 1617 61 
Q 1341 213 1159 525 
z
M 3116 1747 
Q 3116 2381 2855 2742 
Q 2594 3103 2138 3103 
Q 1681 3103 1420 2742 
Q 1159 2381 1159 1747 
Q 1159 1113 1420 752 
Q 1681 391 2138 391 
Q 2594 391 2855 752 
Q 3116 1113 3116 1747 
z
" id="DejaVuSans-70" transform="scale(0.015625)"/>
       </defs>
       <use xlink:href="#DejaVuSans-41"/>
       <use x="68.408203" xlink:href="#DejaVuSans-70"/>
       <use x="131.884766" xlink:href="#DejaVuSans-72"/>
      </g>
     </g>
    </g>
    <g id="xtick_5">
     <g id="line2d_5">
      <g>
       <use style="stroke:#000000;stroke-width:0.8;" x="206.100189" xlink:href="#m84f70375fc" y="170.198437"/>
      </g>
     </g>
     <g id="text_5">
      <!-- May -->
      <g transform="translate(195.762689 184.796875)scale(0.1 -0.1)">
       <defs>
        <path d="M 2059 -325 
Q 1816 -950 1584 -1140 
Q 1353 -1331 966 -1331 
L 506 -1331 
L 506 -850 
L 844 -850 
Q 1081 -850 1212 -737 
Q 1344 -625 1503 -206 
L 1606 56 
L 191 3500 
L 800 3500 
L 1894 763 
L 2988 3500 
L 3597 3500 
L 2059 -325 
z
" id="DejaVuSans-79" transform="scale(0.015625)"/>
       </defs>
       <use xlink:href="#DejaVuSans-4d"/>
       <use x="86.279297" xlink:href="#DejaVuSans-61"/>
       <use x="147.558594" xlink:href="#DejaVuSans-79"/>
      </g>
     </g>
    </g>
    <g id="xtick_6">
     <g id="line2d_6">
      <g>
       <use style="stroke:#000000;stroke-width:0.8;" x="238.59184" xlink:href="#m84f70375fc" y="170.198437"/>
      </g>
     </g>
     <g id="text_6">
      <!-- Jun -->
      <g transform="translate(230.77934 184.796875)scale(0.1 -0.1)">
       <defs>
        <path d="M 544 1381 
L 544 3500 
L 1119 3500 
L 1119 1403 
Q 1119 906 1312 657 
Q 1506 409 1894 409 
Q 2359 409 2629 706 
Q 2900 1003 2900 1516 
L 2900 3500 
L 3475 3500 
L 3475 0 
L 2900 0 
L 2900 538 
Q 2691 219 2414 64 
Q 2138 -91 1772 -91 
Q 1169 -91 856 284 
Q 544 659 544 1381 
z
M 1991 3584 
L 1991 3584 
z
" id="DejaVuSans-75" transform="scale(0.015625)"/>
       </defs>
       <use xlink:href="#DejaVuSans-4a"/>
       <use x="29.492188" xlink:href="#DejaVuSans-75"/>
       <use x="92.871094" xlink:href="#DejaVuSans-6e"/>
      </g>
     </g>
    </g>
    <g id="xtick_7">
     <g id="line2d_7">
      <g>
       <use style="stroke:#000000;stroke-width:0.8;" x="271.083491" xlink:href="#m84f70375fc" y="170.198437"/>
      </g>
     </g>
     <g id="text_7">
      <!-- Jul -->
      <g transform="translate(265.050679 184.796875)scale(0.1 -0.1)">
       <defs>
        <path d="M 603 4863 
L 1178 4863 
L 1178 0 
L 603 0 
L 603 4863 
z
" id="DejaVuSans-6c" transform="scale(0.015625)"/>
       </defs>
       <use xlink:href="#DejaVuSans-4a"/>
       <use x="29.492188" xlink:href="#DejaVuSans-75"/>
       <use x="92.871094" xlink:href="#DejaVuSans-6c"/>
      </g>
     </g>
    </g>
    <g id="xtick_8">
     <g id="line2d_8">
      <g>
       <use style="stroke:#000000;stroke-width:0.8;" x="303.575142" xlink:href="#m84f70375fc" y="170.198437"/>
      </g>
     </g>
     <g id="text_8">
      <!-- Aug -->
      <g transform="translate(293.811861 184.796875)scale(0.1 -0.1)">
       <defs>
        <path d="M 2906 1791 
Q 2906 2416 2648 2759 
Q 2391 3103 1925 3103 
Q 1463 3103 1205 2759 
Q 947 2416 947 1791 
Q 947 1169 1205 825 
Q 1463 481 1925 481 
Q 2391 481 2648 825 
Q 2906 1169 2906 1791 
z
M 3481 434 
Q 3481 -459 3084 -895 
Q 2688 -1331 1869 -1331 
Q 1566 -1331 1297 -1286 
Q 1028 -1241 775 -1147 
L 775 -588 
Q 1028 -725 1275 -790 
Q 1522 -856 1778 -856 
Q 2344 -856 2625 -561 
Q 2906 -266 2906 331 
L 2906 616 
Q 2728 306 2450 153 
Q 2172 0 1784 0 
Q 1141 0 747 490 
Q 353 981 353 1791 
Q 353 2603 747 3093 
Q 1141 3584 1784 3584 
Q 2172 3584 2450 3431 
Q 2728 3278 2906 2969 
L 2906 3500 
L 3481 3500 
L 3481 434 
z
" id="DejaVuSans-67" transform="scale(0.015625)"/>
       </defs>
       <use xlink:href="#DejaVuSans-41"/>
       <use x="68.408203" xlink:href="#DejaVuSans-75"/>
       <use x="131.787109" xlink:href="#DejaVuSans-67"/>
      </g>
     </g>
    </g>
    <g id="xtick_9">
     <g id="line2d_9">
      <g>
       <use style="stroke:#000000;stroke-width:0.8;" x="336.066793" xlink:href="#m84f70375fc" y="170.198437"/>
      </g>
     </g>
     <g id="text_9">
      <!-- Sept -->
      <g transform="translate(324.681637 184.796875)scale(0.1 -0.1)">
       <defs>
        <path d="M 3425 4513 
L 3425 3897 
Q 3066 4069 2747 4153 
Q 2428 4238 2131 4238 
Q 1616 4238 1336 4038 
Q 1056 3838 1056 3469 
Q 1056 3159 1242 3001 
Q 1428 2844 1947 2747 
L 2328 2669 
Q 3034 2534 3370 2195 
Q 3706 1856 3706 1288 
Q 3706 609 3251 259 
Q 2797 -91 1919 -91 
Q 1588 -91 1214 -16 
Q 841 59 441 206 
L 441 856 
Q 825 641 1194 531 
Q 1563 422 1919 422 
Q 2459 422 2753 634 
Q 3047 847 3047 1241 
Q 3047 1584 2836 1778 
Q 2625 1972 2144 2069 
L 1759 2144 
Q 1053 2284 737 2584 
Q 422 2884 422 3419 
Q 422 4038 858 4394 
Q 1294 4750 2059 4750 
Q 2388 4750 2728 4690 
Q 3069 4631 3425 4513 
z
" id="DejaVuSans-53" transform="scale(0.015625)"/>
        <path d="M 1172 4494 
L 1172 3500 
L 2356 3500 
L 2356 3053 
L 1172 3053 
L 1172 1153 
Q 1172 725 1289 603 
Q 1406 481 1766 481 
L 2356 481 
L 2356 0 
L 1766 0 
Q 1100 0 847 248 
Q 594 497 594 1153 
L 594 3053 
L 172 3053 
L 172 3500 
L 594 3500 
L 594 4494 
L 1172 4494 
z
" id="DejaVuSans-74" transform="scale(0.015625)"/>
       </defs>
       <use xlink:href="#DejaVuSans-53"/>
       <use x="63.476562" xlink:href="#DejaVuSans-65"/>
       <use x="125" xlink:href="#DejaVuSans-70"/>
       <use x="188.476562" xlink:href="#DejaVuSans-74"/>
      </g>
     </g>
    </g>
    <g id="xtick_10">
     <g id="line2d_10">
      <g>
       <use style="stroke:#000000;stroke-width:0.8;" x="368.558444" xlink:href="#m84f70375fc" y="170.198437"/>
      </g>
     </g>
     <g id="text_10">
      <!-- Oct -->
      <g transform="translate(359.913132 184.796875)scale(0.1 -0.1)">
       <defs>
        <path d="M 2522 4238 
Q 1834 4238 1429 3725 
Q 1025 3213 1025 2328 
Q 1025 1447 1429 934 
Q 1834 422 2522 422 
Q 3209 422 3611 934 
Q 4013 1447 4013 2328 
Q 4013 3213 3611 3725 
Q 3209 4238 2522 4238 
z
M 2522 4750 
Q 3503 4750 4090 4092 
Q 4678 3434 4678 2328 
Q 4678 1225 4090 567 
Q 3503 -91 2522 -91 
Q 1538 -91 948 565 
Q 359 1222 359 2328 
Q 359 3434 948 4092 
Q 1538 4750 2522 4750 
z
" id="DejaVuSans-4f" transform="scale(0.015625)"/>
        <path d="M 3122 3366 
L 3122 2828 
Q 2878 2963 2633 3030 
Q 2388 3097 2138 3097 
Q 1578 3097 1268 2742 
Q 959 2388 959 1747 
Q 959 1106 1268 751 
Q 1578 397 2138 397 
Q 2388 397 2633 464 
Q 2878 531 3122 666 
L 3122 134 
Q 2881 22 2623 -34 
Q 2366 -91 2075 -91 
Q 1284 -91 818 406 
Q 353 903 353 1747 
Q 353 2603 823 3093 
Q 1294 3584 2113 3584 
Q 2378 3584 2631 3529 
Q 2884 3475 3122 3366 
z
" id="DejaVuSans-63" transform="scale(0.015625)"/>
       </defs>
       <use xlink:href="#DejaVuSans-4f"/>
       <use x="78.710938" xlink:href="#DejaVuSans-63"/>
       <use x="133.691406" xlink:href="#DejaVuSans-74"/>
      </g>
     </g>
    </g>
    <g id="xtick_11">
     <g id="line2d_11">
      <g>
       <use style="stroke:#000000;stroke-width:0.8;" x="401.050095" xlink:href="#m84f70375fc" y="170.198437"/>
      </g>
     </g>
     <g id="text_11">
      <!-- Nov -->
      <g transform="translate(391.29072 184.796875)scale(0.1 -0.1)">
       <defs>
        <path d="M 628 4666 
L 1478 4666 
L 3547 763 
L 3547 4666 
L 4159 4666 
L 4159 0 
L 3309 0 
L 1241 3903 
L 1241 0 
L 628 0 
L 628 4666 
z
" id="DejaVuSans-4e" transform="scale(0.015625)"/>
        <path d="M 1959 3097 
Q 1497 3097 1228 2736 
Q 959 2375 959 1747 
Q 959 1119 1226 758 
Q 1494 397 1959 397 
Q 2419 397 2687 759 
Q 2956 1122 2956 1747 
Q 2956 2369 2687 2733 
Q 2419 3097 1959 3097 
z
M 1959 3584 
Q 2709 3584 3137 3096 
Q 3566 2609 3566 1747 
Q 3566 888 3137 398 
Q 2709 -91 1959 -91 
Q 1206 -91 779 398 
Q 353 888 353 1747 
Q 353 2609 779 3096 
Q 1206 3584 1959 3584 
z
" id="DejaVuSans-6f" transform="scale(0.015625)"/>
        <path d="M 191 3500 
L 800 3500 
L 1894 563 
L 2988 3500 
L 3597 3500 
L 2284 0 
L 1503 0 
L 191 3500 
z
" id="DejaVuSans-76" transform="scale(0.015625)"/>
       </defs>
       <use xlink:href="#DejaVuSans-4e"/>
       <use x="74.804688" xlink:href="#DejaVuSans-6f"/>
       <use x="135.986328" xlink:href="#DejaVuSans-76"/>
      </g>
     </g>
    </g>
    <g id="xtick_12">
     <g id="line2d_12">
      <g>
       <use style="stroke:#000000;stroke-width:0.8;" x="433.541746" xlink:href="#m84f70375fc" y="170.198437"/>
      </g>
     </g>
     <g id="text_12">
      <!-- Dec -->
      <g transform="translate(423.865965 184.796875)scale(0.1 -0.1)">
       <defs>
        <path d="M 1259 4147 
L 1259 519 
L 2022 519 
Q 2988 519 3436 956 
Q 3884 1394 3884 2338 
Q 3884 3275 3436 3711 
Q 2988 4147 2022 4147 
L 1259 4147 
z
M 628 4666 
L 1925 4666 
Q 3281 4666 3915 4102 
Q 4550 3538 4550 2338 
Q 4550 1131 3912 565 
Q 3275 0 1925 0 
L 628 0 
L 628 4666 
z
" id="DejaVuSans-44" transform="scale(0.015625)"/>
       </defs>
       <use xlink:href="#DejaVuSans-44"/>
       <use x="77.001953" xlink:href="#DejaVuSans-65"/>
       <use x="138.525391" xlink:href="#DejaVuSans-63"/>
      </g>
     </g>
    </g>
    <g id="text_13">
     <!-- month -->
     <g transform="translate(227.207592 198.475)scale(0.1 -0.1)">
      <defs>
       <path d="M 3328 2828 
Q 3544 3216 3844 3400 
Q 4144 3584 4550 3584 
Q 5097 3584 5394 3201 
Q 5691 2819 5691 2113 
L 5691 0 
L 5113 0 
L 5113 2094 
Q 5113 2597 4934 2840 
Q 4756 3084 4391 3084 
Q 3944 3084 3684 2787 
Q 3425 2491 3425 1978 
L 3425 0 
L 2847 0 
L 2847 2094 
Q 2847 2600 2669 2842 
Q 2491 3084 2119 3084 
Q 1678 3084 1418 2786 
Q 1159 2488 1159 1978 
L 1159 0 
L 581 0 
L 581 3500 
L 1159 3500 
L 1159 2956 
Q 1356 3278 1631 3431 
Q 1906 3584 2284 3584 
Q 2666 3584 2933 3390 
Q 3200 3197 3328 2828 
z
" id="DejaVuSans-6d" transform="scale(0.015625)"/>
       <path d="M 3513 2113 
L 3513 0 
L 2938 0 
L 2938 2094 
Q 2938 2591 2744 2837 
Q 2550 3084 2163 3084 
Q 1697 3084 1428 2787 
Q 1159 2491 1159 1978 
L 1159 0 
L 581 0 
L 581 4863 
L 1159 4863 
L 1159 2956 
Q 1366 3272 1645 3428 
Q 1925 3584 2291 3584 
Q 2894 3584 3203 3211 
Q 3513 2838 3513 2113 
z
" id="DejaVuSans-68" transform="scale(0.015625)"/>
      </defs>
      <use xlink:href="#DejaVuSans-6d"/>
      <use x="97.412109" xlink:href="#DejaVuSans-6f"/>
      <use x="158.59375" xlink:href="#DejaVuSans-6e"/>
      <use x="221.972656" xlink:href="#DejaVuSans-74"/>
      <use x="261.181641" xlink:href="#DejaVuSans-68"/>
     </g>
    </g>
   </g>
   <g id="matplotlib.axis_2">
    <g id="ytick_1">
     <g id="line2d_13">
      <defs>
       <path d="M 0 0 
L -3.5 0 
" id="mf7ad9e228b" style="stroke:#000000;stroke-width:0.8;"/>
      </defs>
      <g>
       <use style="stroke:#000000;stroke-width:0.8;" x="53.328125" xlink:href="#mf7ad9e228b" y="150.963454"/>
      </g>
     </g>
     <g id="text_14">
      <!-- 1400 -->
      <g transform="translate(20.878125 154.762673)scale(0.1 -0.1)">
       <defs>
        <path d="M 794 531 
L 1825 531 
L 1825 4091 
L 703 3866 
L 703 4441 
L 1819 4666 
L 2450 4666 
L 2450 531 
L 3481 531 
L 3481 0 
L 794 0 
L 794 531 
z
" id="DejaVuSans-31" transform="scale(0.015625)"/>
        <path d="M 2419 4116 
L 825 1625 
L 2419 1625 
L 2419 4116 
z
M 2253 4666 
L 3047 4666 
L 3047 1625 
L 3713 1625 
L 3713 1100 
L 3047 1100 
L 3047 0 
L 2419 0 
L 2419 1100 
L 313 1100 
L 313 1709 
L 2253 4666 
z
" id="DejaVuSans-34" transform="scale(0.015625)"/>
        <path d="M 2034 4250 
Q 1547 4250 1301 3770 
Q 1056 3291 1056 2328 
Q 1056 1369 1301 889 
Q 1547 409 2034 409 
Q 2525 409 2770 889 
Q 3016 1369 3016 2328 
Q 3016 3291 2770 3770 
Q 2525 4250 2034 4250 
z
M 2034 4750 
Q 2819 4750 3233 4129 
Q 3647 3509 3647 2328 
Q 3647 1150 3233 529 
Q 2819 -91 2034 -91 
Q 1250 -91 836 529 
Q 422 1150 422 2328 
Q 422 3509 836 4129 
Q 1250 4750 2034 4750 
z
" id="DejaVuSans-30" transform="scale(0.015625)"/>
       </defs>
       <use xlink:href="#DejaVuSans-31"/>
       <use x="63.623047" xlink:href="#DejaVuSans-34"/>
       <use x="127.246094" xlink:href="#DejaVuSans-30"/>
       <use x="190.869141" xlink:href="#DejaVuSans-30"/>
      </g>
     </g>
    </g>
    <g id="ytick_2">
     <g id="line2d_14">
      <g>
       <use style="stroke:#000000;stroke-width:0.8;" x="53.328125" xlink:href="#mf7ad9e228b" y="115.408956"/>
      </g>
     </g>
     <g id="text_15">
      <!-- 1600 -->
      <g transform="translate(20.878125 119.208175)scale(0.1 -0.1)">
       <defs>
        <path d="M 2113 2584 
Q 1688 2584 1439 2293 
Q 1191 2003 1191 1497 
Q 1191 994 1439 701 
Q 1688 409 2113 409 
Q 2538 409 2786 701 
Q 3034 994 3034 1497 
Q 3034 2003 2786 2293 
Q 2538 2584 2113 2584 
z
M 3366 4563 
L 3366 3988 
Q 3128 4100 2886 4159 
Q 2644 4219 2406 4219 
Q 1781 4219 1451 3797 
Q 1122 3375 1075 2522 
Q 1259 2794 1537 2939 
Q 1816 3084 2150 3084 
Q 2853 3084 3261 2657 
Q 3669 2231 3669 1497 
Q 3669 778 3244 343 
Q 2819 -91 2113 -91 
Q 1303 -91 875 529 
Q 447 1150 447 2328 
Q 447 3434 972 4092 
Q 1497 4750 2381 4750 
Q 2619 4750 2861 4703 
Q 3103 4656 3366 4563 
z
" id="DejaVuSans-36" transform="scale(0.015625)"/>
       </defs>
       <use xlink:href="#DejaVuSans-31"/>
       <use x="63.623047" xlink:href="#DejaVuSans-36"/>
       <use x="127.246094" xlink:href="#DejaVuSans-30"/>
       <use x="190.869141" xlink:href="#DejaVuSans-30"/>
      </g>
     </g>
    </g>
    <g id="ytick_3">
     <g id="line2d_15">
      <g>
       <use style="stroke:#000000;stroke-width:0.8;" x="53.328125" xlink:href="#mf7ad9e228b" y="79.854458"/>
      </g>
     </g>
     <g id="text_16">
      <!-- 1800 -->
      <g transform="translate(20.878125 83.653677)scale(0.1 -0.1)">
       <defs>
        <path d="M 2034 2216 
Q 1584 2216 1326 1975 
Q 1069 1734 1069 1313 
Q 1069 891 1326 650 
Q 1584 409 2034 409 
Q 2484 409 2743 651 
Q 3003 894 3003 1313 
Q 3003 1734 2745 1975 
Q 2488 2216 2034 2216 
z
M 1403 2484 
Q 997 2584 770 2862 
Q 544 3141 544 3541 
Q 544 4100 942 4425 
Q 1341 4750 2034 4750 
Q 2731 4750 3128 4425 
Q 3525 4100 3525 3541 
Q 3525 3141 3298 2862 
Q 3072 2584 2669 2484 
Q 3125 2378 3379 2068 
Q 3634 1759 3634 1313 
Q 3634 634 3220 271 
Q 2806 -91 2034 -91 
Q 1263 -91 848 271 
Q 434 634 434 1313 
Q 434 1759 690 2068 
Q 947 2378 1403 2484 
z
M 1172 3481 
Q 1172 3119 1398 2916 
Q 1625 2713 2034 2713 
Q 2441 2713 2670 2916 
Q 2900 3119 2900 3481 
Q 2900 3844 2670 4047 
Q 2441 4250 2034 4250 
Q 1625 4250 1398 4047 
Q 1172 3844 1172 3481 
z
" id="DejaVuSans-38" transform="scale(0.015625)"/>
       </defs>
       <use xlink:href="#DejaVuSans-31"/>
       <use x="63.623047" xlink:href="#DejaVuSans-38"/>
       <use x="127.246094" xlink:href="#DejaVuSans-30"/>
       <use x="190.869141" xlink:href="#DejaVuSans-30"/>
      </g>
     </g>
    </g>
    <g id="ytick_4">
     <g id="line2d_16">
      <g>
       <use style="stroke:#000000;stroke-width:0.8;" x="53.328125" xlink:href="#mf7ad9e228b" y="44.299961"/>
      </g>
     </g>
     <g id="text_17">
      <!-- 2000 -->
      <g transform="translate(20.878125 48.099179)scale(0.1 -0.1)">
       <defs>
        <path d="M 1228 531 
L 3431 531 
L 3431 0 
L 469 0 
L 469 531 
Q 828 903 1448 1529 
Q 2069 2156 2228 2338 
Q 2531 2678 2651 2914 
Q 2772 3150 2772 3378 
Q 2772 3750 2511 3984 
Q 2250 4219 1831 4219 
Q 1534 4219 1204 4116 
Q 875 4013 500 3803 
L 500 4441 
Q 881 4594 1212 4672 
Q 1544 4750 1819 4750 
Q 2544 4750 2975 4387 
Q 3406 4025 3406 3419 
Q 3406 3131 3298 2873 
Q 3191 2616 2906 2266 
Q 2828 2175 2409 1742 
Q 1991 1309 1228 531 
z
" id="DejaVuSans-32" transform="scale(0.015625)"/>
       </defs>
       <use xlink:href="#DejaVuSans-32"/>
       <use x="63.623047" xlink:href="#DejaVuSans-30"/>
       <use x="127.246094" xlink:href="#DejaVuSans-30"/>
       <use x="190.869141" xlink:href="#DejaVuSans-30"/>
      </g>
     </g>
    </g>
    <g id="text_18">
     <!-- deaths per week -->
     <g transform="translate(14.798438 137.16875)rotate(-90)scale(0.1 -0.1)">
      <defs>
       <path d="M 2906 2969 
L 2906 4863 
L 3481 4863 
L 3481 0 
L 2906 0 
L 2906 525 
Q 2725 213 2448 61 
Q 2172 -91 1784 -91 
Q 1150 -91 751 415 
Q 353 922 353 1747 
Q 353 2572 751 3078 
Q 1150 3584 1784 3584 
Q 2172 3584 2448 3432 
Q 2725 3281 2906 2969 
z
M 947 1747 
Q 947 1113 1208 752 
Q 1469 391 1925 391 
Q 2381 391 2643 752 
Q 2906 1113 2906 1747 
Q 2906 2381 2643 2742 
Q 2381 3103 1925 3103 
Q 1469 3103 1208 2742 
Q 947 2381 947 1747 
z
" id="DejaVuSans-64" transform="scale(0.015625)"/>
       <path d="M 2834 3397 
L 2834 2853 
Q 2591 2978 2328 3040 
Q 2066 3103 1784 3103 
Q 1356 3103 1142 2972 
Q 928 2841 928 2578 
Q 928 2378 1081 2264 
Q 1234 2150 1697 2047 
L 1894 2003 
Q 2506 1872 2764 1633 
Q 3022 1394 3022 966 
Q 3022 478 2636 193 
Q 2250 -91 1575 -91 
Q 1294 -91 989 -36 
Q 684 19 347 128 
L 347 722 
Q 666 556 975 473 
Q 1284 391 1588 391 
Q 1994 391 2212 530 
Q 2431 669 2431 922 
Q 2431 1156 2273 1281 
Q 2116 1406 1581 1522 
L 1381 1569 
Q 847 1681 609 1914 
Q 372 2147 372 2553 
Q 372 3047 722 3315 
Q 1072 3584 1716 3584 
Q 2034 3584 2315 3537 
Q 2597 3491 2834 3397 
z
" id="DejaVuSans-73" transform="scale(0.015625)"/>
       <path id="DejaVuSans-20" transform="scale(0.015625)"/>
       <path d="M 269 3500 
L 844 3500 
L 1563 769 
L 2278 3500 
L 2956 3500 
L 3675 769 
L 4391 3500 
L 4966 3500 
L 4050 0 
L 3372 0 
L 2619 2869 
L 1863 0 
L 1184 0 
L 269 3500 
z
" id="DejaVuSans-77" transform="scale(0.015625)"/>
       <path d="M 581 4863 
L 1159 4863 
L 1159 1991 
L 2875 3500 
L 3609 3500 
L 1753 1863 
L 3688 0 
L 2938 0 
L 1159 1709 
L 1159 0 
L 581 0 
L 581 4863 
z
" id="DejaVuSans-6b" transform="scale(0.015625)"/>
      </defs>
      <use xlink:href="#DejaVuSans-64"/>
      <use x="63.476562" xlink:href="#DejaVuSans-65"/>
      <use x="125" xlink:href="#DejaVuSans-61"/>
      <use x="186.279297" xlink:href="#DejaVuSans-74"/>
      <use x="225.488281" xlink:href="#DejaVuSans-68"/>
      <use x="288.867188" xlink:href="#DejaVuSans-73"/>
      <use x="340.966797" xlink:href="#DejaVuSans-20"/>
      <use x="372.753906" xlink:href="#DejaVuSans-70"/>
      <use x="436.230469" xlink:href="#DejaVuSans-65"/>
      <use x="497.753906" xlink:href="#DejaVuSans-72"/>
      <use x="538.867188" xlink:href="#DejaVuSans-20"/>
      <use x="570.654297" xlink:href="#DejaVuSans-77"/>
      <use x="652.441406" xlink:href="#DejaVuSans-65"/>
      <use x="713.964844" xlink:href="#DejaVuSans-65"/>
      <use x="775.488281" xlink:href="#DejaVuSans-6b"/>
     </g>
    </g>
   </g>
   <g id="line2d_17">
    <path clip-path="url(#p63602e2c91)" d="M 68.776985 27.589347 
L 76.133586 53.721903 
L 83.490186 62.07721 
L 90.846786 67.410384 
L 98.203386 67.410384 
L 105.559987 83.054363 
L 112.916587 98.52057 
L 120.273187 110.786872 
L 127.629787 123.942036 
L 134.986387 111.497962 
L 142.342988 123.230946 
L 149.699588 122.697628 
L 157.056188 109.009147 
L 164.412788 105.809242 
L 171.769388 117.186681 
L 179.125989 111.853507 
L 186.482589 127.675258 
L 193.839189 129.27521 
L 201.195789 120.919903 
L 208.55239 135.852793 
L 215.90899 149.185729 
L 223.26559 136.563883 
L 230.62219 146.519142 
L 237.97879 147.052459 
L 245.335391 161.096486 
L 252.691991 149.541274 
L 260.048591 147.408004 
L 267.405191 150.430137 
L 274.761791 160.385396 
L 282.118392 136.38611 
L 289.474992 146.874687 
L 296.831592 151.318999 
L 304.188192 146.519142 
L 311.544793 140.474877 
L 318.901393 142.430375 
L 326.257993 134.430613 
L 333.614593 143.141465 
L 340.971193 148.119094 
L 348.327794 125.719761 
L 355.684394 132.83066 
L 363.040994 127.853031 
L 370.397594 120.742131 
L 377.754194 97.80948 
" style="fill:none;stroke:#1f77b4;stroke-linecap:square;stroke-opacity:0.7;stroke-width:1.5;"/>
   </g>
   <g id="line2d_18">
    <path clip-path="url(#p63602e2c91)" d="M 68.776985 35.411336 
L 76.133586 61.188347 
L 83.490186 51.055315 
L 90.846786 71.676924 
L 98.203386 82.698818 
L 105.559987 85.543178 
L 112.916587 73.987966 
L 120.273187 118.786634 
L 127.629787 123.764263 
L 134.986387 111.320189 
L 142.342988 135.497248 
L 149.699588 135.852793 
L 157.056188 125.719761 
L 164.412788 131.764025 
L 171.769388 124.830898 
L 179.125989 128.919665 
L 186.482589 116.831136 
L 193.839189 137.0972 
L 201.195789 142.78592 
L 208.55239 132.652888 
L 215.90899 151.674544 
L 223.26559 128.208576 
L 230.62219 140.65265 
L 237.97879 142.608147 
L 245.335391 163.407528 
L 252.691991 153.985586 
L 260.048591 148.119094 
L 267.405191 138.874925 
L 274.761791 145.985824 
L 282.118392 146.519142 
L 289.474992 127.497486 
L 296.831592 144.91919 
L 304.188192 139.408242 
L 311.544793 139.763787 
L 318.901393 150.074592 
L 326.257993 117.897771 
L 333.614593 140.830422 
L 340.971193 140.119332 
L 348.327794 130.519618 
L 355.684394 124.119808 
L 363.040994 132.475115 
L 370.397594 106.342559 
L 377.754194 104.387062 
" style="fill:none;stroke:#ff7f0e;stroke-linecap:square;stroke-opacity:0.7;stroke-width:1.5;"/>
   </g>
   <g id="patch_3">
    <path d="M 53.328125 170.198437 
L 53.328125 20.798437 
" style="fill:none;stroke:#000000;stroke-linecap:square;stroke-linejoin:miter;stroke-width:0.8;"/>
   </g>
   <g id="patch_4">
    <path d="M 53.328125 170.198437 
L 433.541746 170.198437 
" style="fill:none;stroke:#000000;stroke-linecap:square;stroke-linejoin:miter;stroke-width:0.8;"/>
   </g>
   <g id="text_19">
    <!-- age = Totaal leeftijd -->
    <g transform="translate(193.295092 14.798438)scale(0.1 -0.1)">
     <defs>
      <path d="M 678 2906 
L 4684 2906 
L 4684 2381 
L 678 2381 
L 678 2906 
z
M 678 1631 
L 4684 1631 
L 4684 1100 
L 678 1100 
L 678 1631 
z
" id="DejaVuSans-3d" transform="scale(0.015625)"/>
      <path d="M -19 4666 
L 3928 4666 
L 3928 4134 
L 2272 4134 
L 2272 0 
L 1638 0 
L 1638 4134 
L -19 4134 
L -19 4666 
z
" id="DejaVuSans-54" transform="scale(0.015625)"/>
      <path d="M 2375 4863 
L 2375 4384 
L 1825 4384 
Q 1516 4384 1395 4259 
Q 1275 4134 1275 3809 
L 1275 3500 
L 2222 3500 
L 2222 3053 
L 1275 3053 
L 1275 0 
L 697 0 
L 697 3053 
L 147 3053 
L 147 3500 
L 697 3500 
L 697 3744 
Q 697 4328 969 4595 
Q 1241 4863 1831 4863 
L 2375 4863 
z
" id="DejaVuSans-66" transform="scale(0.015625)"/>
      <path d="M 603 3500 
L 1178 3500 
L 1178 0 
L 603 0 
L 603 3500 
z
M 603 4863 
L 1178 4863 
L 1178 4134 
L 603 4134 
L 603 4863 
z
" id="DejaVuSans-69" transform="scale(0.015625)"/>
      <path d="M 603 3500 
L 1178 3500 
L 1178 -63 
Q 1178 -731 923 -1031 
Q 669 -1331 103 -1331 
L -116 -1331 
L -116 -844 
L 38 -844 
Q 366 -844 484 -692 
Q 603 -541 603 -63 
L 603 3500 
z
M 603 4863 
L 1178 4863 
L 1178 4134 
L 603 4134 
L 603 4863 
z
" id="DejaVuSans-6a" transform="scale(0.015625)"/>
     </defs>
     <use xlink:href="#DejaVuSans-61"/>
     <use x="61.279297" xlink:href="#DejaVuSans-67"/>
     <use x="124.755859" xlink:href="#DejaVuSans-65"/>
     <use x="186.279297" xlink:href="#DejaVuSans-20"/>
     <use x="218.066406" xlink:href="#DejaVuSans-3d"/>
     <use x="301.855469" xlink:href="#DejaVuSans-20"/>
     <use x="333.642578" xlink:href="#DejaVuSans-54"/>
     <use x="377.726562" xlink:href="#DejaVuSans-6f"/>
     <use x="438.908203" xlink:href="#DejaVuSans-74"/>
     <use x="478.117188" xlink:href="#DejaVuSans-61"/>
     <use x="539.396484" xlink:href="#DejaVuSans-61"/>
     <use x="600.675781" xlink:href="#DejaVuSans-6c"/>
     <use x="628.458984" xlink:href="#DejaVuSans-20"/>
     <use x="660.246094" xlink:href="#DejaVuSans-6c"/>
     <use x="688.029297" xlink:href="#DejaVuSans-65"/>
     <use x="749.552734" xlink:href="#DejaVuSans-65"/>
     <use x="811.076172" xlink:href="#DejaVuSans-66"/>
     <use x="844.53125" xlink:href="#DejaVuSans-74"/>
     <use x="883.740234" xlink:href="#DejaVuSans-69"/>
     <use x="911.523438" xlink:href="#DejaVuSans-6a"/>
     <use x="939.306641" xlink:href="#DejaVuSans-64"/>
    </g>
   </g>
  </g>
  <g id="axes_2">
   <g id="patch_5">
    <path d="M 476.582922 170.198437 
L 856.796543 170.198437 
L 856.796543 20.798438 
L 476.582922 20.798438 
z
" style="fill:#ffffff;"/>
   </g>
   <g id="matplotlib.axis_3">
    <g id="xtick_13">
     <g id="line2d_19">
      <g>
       <use style="stroke:#000000;stroke-width:0.8;" x="499.388383" xlink:href="#m84f70375fc" y="170.198437"/>
      </g>
     </g>
     <g id="text_20">
      <!-- Jan -->
      <g transform="translate(491.68057 184.796875)scale(0.1 -0.1)">
       <use xlink:href="#DejaVuSans-4a"/>
       <use x="29.492188" xlink:href="#DejaVuSans-61"/>
       <use x="90.771484" xlink:href="#DejaVuSans-6e"/>
      </g>
     </g>
    </g>
    <g id="xtick_14">
     <g id="line2d_20">
      <g>
       <use style="stroke:#000000;stroke-width:0.8;" x="531.880034" xlink:href="#m84f70375fc" y="170.198437"/>
      </g>
     </g>
     <g id="text_21">
      <!-- Feb -->
      <g transform="translate(523.028471 184.796875)scale(0.1 -0.1)">
       <use xlink:href="#DejaVuSans-46"/>
       <use x="52.019531" xlink:href="#DejaVuSans-65"/>
       <use x="113.542969" xlink:href="#DejaVuSans-62"/>
      </g>
     </g>
    </g>
    <g id="xtick_15">
     <g id="line2d_21">
      <g>
       <use style="stroke:#000000;stroke-width:0.8;" x="564.371685" xlink:href="#m84f70375fc" y="170.198437"/>
      </g>
     </g>
     <g id="text_22">
      <!-- Mar -->
      <g transform="translate(554.938091 184.796875)scale(0.1 -0.1)">
       <use xlink:href="#DejaVuSans-4d"/>
       <use x="86.279297" xlink:href="#DejaVuSans-61"/>
       <use x="147.558594" xlink:href="#DejaVuSans-72"/>
      </g>
     </g>
    </g>
    <g id="xtick_16">
     <g id="line2d_22">
      <g>
       <use style="stroke:#000000;stroke-width:0.8;" x="596.863336" xlink:href="#m84f70375fc" y="170.198437"/>
      </g>
     </g>
     <g id="text_23">
      <!-- Apr -->
      <g transform="translate(588.213336 184.796875)scale(0.1 -0.1)">
       <use xlink:href="#DejaVuSans-41"/>
       <use x="68.408203" xlink:href="#DejaVuSans-70"/>
       <use x="131.884766" xlink:href="#DejaVuSans-72"/>
      </g>
     </g>
    </g>
    <g id="xtick_17">
     <g id="line2d_23">
      <g>
       <use style="stroke:#000000;stroke-width:0.8;" x="629.354986" xlink:href="#m84f70375fc" y="170.198437"/>
      </g>
     </g>
     <g id="text_24">
      <!-- May -->
      <g transform="translate(619.017486 184.796875)scale(0.1 -0.1)">
       <use xlink:href="#DejaVuSans-4d"/>
       <use x="86.279297" xlink:href="#DejaVuSans-61"/>
       <use x="147.558594" xlink:href="#DejaVuSans-79"/>
      </g>
     </g>
    </g>
    <g id="xtick_18">
     <g id="line2d_24">
      <g>
       <use style="stroke:#000000;stroke-width:0.8;" x="661.846637" xlink:href="#m84f70375fc" y="170.198437"/>
      </g>
     </g>
     <g id="text_25">
      <!-- Jun -->
      <g transform="translate(654.034137 184.796875)scale(0.1 -0.1)">
       <use xlink:href="#DejaVuSans-4a"/>
       <use x="29.492188" xlink:href="#DejaVuSans-75"/>
       <use x="92.871094" xlink:href="#DejaVuSans-6e"/>
      </g>
     </g>
    </g>
    <g id="xtick_19">
     <g id="line2d_25">
      <g>
       <use style="stroke:#000000;stroke-width:0.8;" x="694.338288" xlink:href="#m84f70375fc" y="170.198437"/>
      </g>
     </g>
     <g id="text_26">
      <!-- Jul -->
      <g transform="translate(688.305476 184.796875)scale(0.1 -0.1)">
       <use xlink:href="#DejaVuSans-4a"/>
       <use x="29.492188" xlink:href="#DejaVuSans-75"/>
       <use x="92.871094" xlink:href="#DejaVuSans-6c"/>
      </g>
     </g>
    </g>
    <g id="xtick_20">
     <g id="line2d_26">
      <g>
       <use style="stroke:#000000;stroke-width:0.8;" x="726.829939" xlink:href="#m84f70375fc" y="170.198437"/>
      </g>
     </g>
     <g id="text_27">
      <!-- Aug -->
      <g transform="translate(717.066658 184.796875)scale(0.1 -0.1)">
       <use xlink:href="#DejaVuSans-41"/>
       <use x="68.408203" xlink:href="#DejaVuSans-75"/>
       <use x="131.787109" xlink:href="#DejaVuSans-67"/>
      </g>
     </g>
    </g>
    <g id="xtick_21">
     <g id="line2d_27">
      <g>
       <use style="stroke:#000000;stroke-width:0.8;" x="759.32159" xlink:href="#m84f70375fc" y="170.198437"/>
      </g>
     </g>
     <g id="text_28">
      <!-- Sept -->
      <g transform="translate(747.936434 184.796875)scale(0.1 -0.1)">
       <use xlink:href="#DejaVuSans-53"/>
       <use x="63.476562" xlink:href="#DejaVuSans-65"/>
       <use x="125" xlink:href="#DejaVuSans-70"/>
       <use x="188.476562" xlink:href="#DejaVuSans-74"/>
      </g>
     </g>
    </g>
    <g id="xtick_22">
     <g id="line2d_28">
      <g>
       <use style="stroke:#000000;stroke-width:0.8;" x="791.813241" xlink:href="#m84f70375fc" y="170.198437"/>
      </g>
     </g>
     <g id="text_29">
      <!-- Oct -->
      <g transform="translate(783.167929 184.796875)scale(0.1 -0.1)">
       <use xlink:href="#DejaVuSans-4f"/>
       <use x="78.710938" xlink:href="#DejaVuSans-63"/>
       <use x="133.691406" xlink:href="#DejaVuSans-74"/>
      </g>
     </g>
    </g>
    <g id="xtick_23">
     <g id="line2d_29">
      <g>
       <use style="stroke:#000000;stroke-width:0.8;" x="824.304892" xlink:href="#m84f70375fc" y="170.198437"/>
      </g>
     </g>
     <g id="text_30">
      <!-- Nov -->
      <g transform="translate(814.545517 184.796875)scale(0.1 -0.1)">
       <use xlink:href="#DejaVuSans-4e"/>
       <use x="74.804688" xlink:href="#DejaVuSans-6f"/>
       <use x="135.986328" xlink:href="#DejaVuSans-76"/>
      </g>
     </g>
    </g>
    <g id="xtick_24">
     <g id="line2d_30">
      <g>
       <use style="stroke:#000000;stroke-width:0.8;" x="856.796543" xlink:href="#m84f70375fc" y="170.198437"/>
      </g>
     </g>
     <g id="text_31">
      <!-- Dec -->
      <g transform="translate(847.120762 184.796875)scale(0.1 -0.1)">
       <use xlink:href="#DejaVuSans-44"/>
       <use x="77.001953" xlink:href="#DejaVuSans-65"/>
       <use x="138.525391" xlink:href="#DejaVuSans-63"/>
      </g>
     </g>
    </g>
    <g id="text_32">
     <!-- month -->
     <g transform="translate(650.462389 198.475)scale(0.1 -0.1)">
      <use xlink:href="#DejaVuSans-6d"/>
      <use x="97.412109" xlink:href="#DejaVuSans-6f"/>
      <use x="158.59375" xlink:href="#DejaVuSans-6e"/>
      <use x="221.972656" xlink:href="#DejaVuSans-74"/>
      <use x="261.181641" xlink:href="#DejaVuSans-68"/>
     </g>
    </g>
   </g>
   <g id="matplotlib.axis_4">
    <g id="ytick_5">
     <g id="line2d_31">
      <g>
       <use style="stroke:#000000;stroke-width:0.8;" x="476.582922" xlink:href="#mf7ad9e228b" y="166.07063"/>
      </g>
     </g>
     <g id="text_33">
      <!-- 150 -->
      <g transform="translate(450.495422 169.869849)scale(0.1 -0.1)">
       <defs>
        <path d="M 691 4666 
L 3169 4666 
L 3169 4134 
L 1269 4134 
L 1269 2991 
Q 1406 3038 1543 3061 
Q 1681 3084 1819 3084 
Q 2600 3084 3056 2656 
Q 3513 2228 3513 1497 
Q 3513 744 3044 326 
Q 2575 -91 1722 -91 
Q 1428 -91 1123 -41 
Q 819 9 494 109 
L 494 744 
Q 775 591 1075 516 
Q 1375 441 1709 441 
Q 2250 441 2565 725 
Q 2881 1009 2881 1497 
Q 2881 1984 2565 2268 
Q 2250 2553 1709 2553 
Q 1456 2553 1204 2497 
Q 953 2441 691 2322 
L 691 4666 
z
" id="DejaVuSans-35" transform="scale(0.015625)"/>
       </defs>
       <use xlink:href="#DejaVuSans-31"/>
       <use x="63.623047" xlink:href="#DejaVuSans-35"/>
       <use x="127.246094" xlink:href="#DejaVuSans-30"/>
      </g>
     </g>
    </g>
    <g id="ytick_6">
     <g id="line2d_32">
      <g>
       <use style="stroke:#000000;stroke-width:0.8;" x="476.582922" xlink:href="#mf7ad9e228b" y="143.878117"/>
      </g>
     </g>
     <g id="text_34">
      <!-- 175 -->
      <g transform="translate(450.495422 147.677335)scale(0.1 -0.1)">
       <defs>
        <path d="M 525 4666 
L 3525 4666 
L 3525 4397 
L 1831 0 
L 1172 0 
L 2766 4134 
L 525 4134 
L 525 4666 
z
" id="DejaVuSans-37" transform="scale(0.015625)"/>
       </defs>
       <use xlink:href="#DejaVuSans-31"/>
       <use x="63.623047" xlink:href="#DejaVuSans-37"/>
       <use x="127.246094" xlink:href="#DejaVuSans-35"/>
      </g>
     </g>
    </g>
    <g id="ytick_7">
     <g id="line2d_33">
      <g>
       <use style="stroke:#000000;stroke-width:0.8;" x="476.582922" xlink:href="#mf7ad9e228b" y="121.685603"/>
      </g>
     </g>
     <g id="text_35">
      <!-- 200 -->
      <g transform="translate(450.495422 125.484822)scale(0.1 -0.1)">
       <use xlink:href="#DejaVuSans-32"/>
       <use x="63.623047" xlink:href="#DejaVuSans-30"/>
       <use x="127.246094" xlink:href="#DejaVuSans-30"/>
      </g>
     </g>
    </g>
    <g id="ytick_8">
     <g id="line2d_34">
      <g>
       <use style="stroke:#000000;stroke-width:0.8;" x="476.582922" xlink:href="#mf7ad9e228b" y="99.49309"/>
      </g>
     </g>
     <g id="text_36">
      <!-- 225 -->
      <g transform="translate(450.495422 103.292309)scale(0.1 -0.1)">
       <use xlink:href="#DejaVuSans-32"/>
       <use x="63.623047" xlink:href="#DejaVuSans-32"/>
       <use x="127.246094" xlink:href="#DejaVuSans-35"/>
      </g>
     </g>
    </g>
    <g id="ytick_9">
     <g id="line2d_35">
      <g>
       <use style="stroke:#000000;stroke-width:0.8;" x="476.582922" xlink:href="#mf7ad9e228b" y="77.300577"/>
      </g>
     </g>
     <g id="text_37">
      <!-- 250 -->
      <g transform="translate(450.495422 81.099795)scale(0.1 -0.1)">
       <use xlink:href="#DejaVuSans-32"/>
       <use x="63.623047" xlink:href="#DejaVuSans-35"/>
       <use x="127.246094" xlink:href="#DejaVuSans-30"/>
      </g>
     </g>
    </g>
    <g id="ytick_10">
     <g id="line2d_36">
      <g>
       <use style="stroke:#000000;stroke-width:0.8;" x="476.582922" xlink:href="#mf7ad9e228b" y="55.108063"/>
      </g>
     </g>
     <g id="text_38">
      <!-- 275 -->
      <g transform="translate(450.495422 58.907282)scale(0.1 -0.1)">
       <use xlink:href="#DejaVuSans-32"/>
       <use x="63.623047" xlink:href="#DejaVuSans-37"/>
       <use x="127.246094" xlink:href="#DejaVuSans-35"/>
      </g>
     </g>
    </g>
    <g id="ytick_11">
     <g id="line2d_37">
      <g>
       <use style="stroke:#000000;stroke-width:0.8;" x="476.582922" xlink:href="#mf7ad9e228b" y="32.91555"/>
      </g>
     </g>
     <g id="text_39">
      <!-- 300 -->
      <g transform="translate(450.495422 36.714769)scale(0.1 -0.1)">
       <defs>
        <path d="M 2597 2516 
Q 3050 2419 3304 2112 
Q 3559 1806 3559 1356 
Q 3559 666 3084 287 
Q 2609 -91 1734 -91 
Q 1441 -91 1130 -33 
Q 819 25 488 141 
L 488 750 
Q 750 597 1062 519 
Q 1375 441 1716 441 
Q 2309 441 2620 675 
Q 2931 909 2931 1356 
Q 2931 1769 2642 2001 
Q 2353 2234 1838 2234 
L 1294 2234 
L 1294 2753 
L 1863 2753 
Q 2328 2753 2575 2939 
Q 2822 3125 2822 3475 
Q 2822 3834 2567 4026 
Q 2313 4219 1838 4219 
Q 1578 4219 1281 4162 
Q 984 4106 628 3988 
L 628 4550 
Q 988 4650 1302 4700 
Q 1616 4750 1894 4750 
Q 2613 4750 3031 4423 
Q 3450 4097 3450 3541 
Q 3450 3153 3228 2886 
Q 3006 2619 2597 2516 
z
" id="DejaVuSans-33" transform="scale(0.015625)"/>
       </defs>
       <use xlink:href="#DejaVuSans-33"/>
       <use x="63.623047" xlink:href="#DejaVuSans-30"/>
       <use x="127.246094" xlink:href="#DejaVuSans-30"/>
      </g>
     </g>
    </g>
    <g id="text_40">
     <!-- deaths per week -->
     <g transform="translate(444.415735 137.16875)rotate(-90)scale(0.1 -0.1)">
      <use xlink:href="#DejaVuSans-64"/>
      <use x="63.476562" xlink:href="#DejaVuSans-65"/>
      <use x="125" xlink:href="#DejaVuSans-61"/>
      <use x="186.279297" xlink:href="#DejaVuSans-74"/>
      <use x="225.488281" xlink:href="#DejaVuSans-68"/>
      <use x="288.867188" xlink:href="#DejaVuSans-73"/>
      <use x="340.966797" xlink:href="#DejaVuSans-20"/>
      <use x="372.753906" xlink:href="#DejaVuSans-70"/>
      <use x="436.230469" xlink:href="#DejaVuSans-65"/>
      <use x="497.753906" xlink:href="#DejaVuSans-72"/>
      <use x="538.867188" xlink:href="#DejaVuSans-20"/>
      <use x="570.654297" xlink:href="#DejaVuSans-77"/>
      <use x="652.441406" xlink:href="#DejaVuSans-65"/>
      <use x="713.964844" xlink:href="#DejaVuSans-65"/>
      <use x="775.488281" xlink:href="#DejaVuSans-6b"/>
     </g>
    </g>
   </g>
   <g id="line2d_38">
    <path clip-path="url(#p9c6ec0274a)" d="M 492.031782 72.862074 
L 499.388383 83.51448 
L 506.744983 87.065282 
L 514.101583 87.065282 
L 521.458183 109.257796 
L 528.814784 90.616085 
L 536.171384 71.974373 
L 543.527984 86.177582 
L 550.884584 86.177582 
L 558.241184 78.188277 
L 565.597785 79.075978 
L 572.954385 109.257796 
L 580.310985 85.289881 
L 587.667585 58.658865 
L 595.024185 86.177582 
L 602.380786 52.444962 
L 609.737386 69.311272 
L 617.093986 88.840683 
L 624.450586 27.589347 
L 631.807187 91.503785 
L 639.163787 90.616085 
L 646.520387 76.412876 
L 653.876987 81.739079 
L 661.233587 103.931593 
L 668.590188 102.156192 
L 675.946788 66.64817 
L 683.303388 74.637475 
L 690.659988 91.503785 
L 698.016588 99.49309 
L 705.373189 87.065282 
L 712.729789 95.054587 
L 720.086389 84.402181 
L 727.442989 87.065282 
L 734.79959 65.76047 
L 742.15619 63.097368 
L 749.51279 76.412876 
L 756.86939 103.931593 
L 764.22599 79.075978 
L 771.582591 74.637475 
L 778.939191 79.075978 
L 786.295791 89.728384 
L 793.652391 76.412876 
" style="fill:none;stroke:#1f77b4;stroke-linecap:square;stroke-opacity:0.7;stroke-width:1.5;"/>
   </g>
   <g id="line2d_39">
    <path clip-path="url(#p9c6ec0274a)" d="M 492.031782 143.878117 
L 499.388383 150.979721 
L 506.744983 133.22571 
L 514.101583 153.642823 
L 521.458183 151.867421 
L 528.814784 143.878117 
L 536.171384 102.156192 
L 543.527984 154.530523 
L 550.884584 142.990416 
L 558.241184 150.979721 
L 565.597785 150.979721 
L 572.954385 144.765817 
L 580.310985 145.653518 
L 587.667585 142.990416 
L 595.024185 121.685603 
L 602.380786 142.990416 
L 609.737386 142.990416 
L 617.093986 145.653518 
L 624.450586 131.450309 
L 631.807187 138.551913 
L 639.163787 155.418224 
L 646.520387 133.22571 
L 653.876987 158.081325 
L 661.233587 130.562609 
L 668.590188 140.327315 
L 675.946788 155.418224 
L 683.303388 156.305924 
L 690.659988 144.765817 
L 698.016588 163.407528 
L 705.373189 158.969026 
L 712.729789 136.776512 
L 720.086389 149.20432 
L 727.442989 152.755122 
L 734.79959 138.551913 
L 742.15619 157.193625 
L 749.51279 137.664213 
L 756.86939 122.573304 
L 764.22599 132.33801 
L 771.582591 138.551913 
L 778.939191 138.551913 
L 786.295791 121.685603 
L 793.652391 142.102716 
" style="fill:none;stroke:#ff7f0e;stroke-linecap:square;stroke-opacity:0.7;stroke-width:1.5;"/>
   </g>
   <g id="patch_6">
    <path d="M 476.582922 170.198437 
L 476.582922 20.798438 
" style="fill:none;stroke:#000000;stroke-linecap:square;stroke-linejoin:miter;stroke-width:0.8;"/>
   </g>
   <g id="patch_7">
    <path d="M 476.582922 170.198437 
L 856.796543 170.198437 
" style="fill:none;stroke:#000000;stroke-linecap:square;stroke-linejoin:miter;stroke-width:0.8;"/>
   </g>
   <g id="text_41">
    <!-- age = 0 tot 65 jaar -->
    <g transform="translate(619.143639 14.798438)scale(0.1 -0.1)">
     <use xlink:href="#DejaVuSans-61"/>
     <use x="61.279297" xlink:href="#DejaVuSans-67"/>
     <use x="124.755859" xlink:href="#DejaVuSans-65"/>
     <use x="186.279297" xlink:href="#DejaVuSans-20"/>
     <use x="218.066406" xlink:href="#DejaVuSans-3d"/>
     <use x="301.855469" xlink:href="#DejaVuSans-20"/>
     <use x="333.642578" xlink:href="#DejaVuSans-30"/>
     <use x="397.265625" xlink:href="#DejaVuSans-20"/>
     <use x="429.052734" xlink:href="#DejaVuSans-74"/>
     <use x="468.261719" xlink:href="#DejaVuSans-6f"/>
     <use x="529.443359" xlink:href="#DejaVuSans-74"/>
     <use x="568.652344" xlink:href="#DejaVuSans-20"/>
     <use x="600.439453" xlink:href="#DejaVuSans-36"/>
     <use x="664.0625" xlink:href="#DejaVuSans-35"/>
     <use x="727.685547" xlink:href="#DejaVuSans-20"/>
     <use x="759.472656" xlink:href="#DejaVuSans-6a"/>
     <use x="787.255859" xlink:href="#DejaVuSans-61"/>
     <use x="848.535156" xlink:href="#DejaVuSans-61"/>
     <use x="909.814453" xlink:href="#DejaVuSans-72"/>
    </g>
   </g>
  </g>
  <g id="axes_3">
   <g id="patch_8">
    <path d="M 899.837719 170.198437 
L 1280.05134 170.198437 
L 1280.05134 20.798438 
L 899.837719 20.798438 
z
" style="fill:#ffffff;"/>
   </g>
   <g id="matplotlib.axis_5">
    <g id="xtick_25">
     <g id="line2d_40">
      <g>
       <use style="stroke:#000000;stroke-width:0.8;" x="922.64318" xlink:href="#m84f70375fc" y="170.198437"/>
      </g>
     </g>
     <g id="text_42">
      <!-- Jan -->
      <g transform="translate(914.935367 184.796875)scale(0.1 -0.1)">
       <use xlink:href="#DejaVuSans-4a"/>
       <use x="29.492188" xlink:href="#DejaVuSans-61"/>
       <use x="90.771484" xlink:href="#DejaVuSans-6e"/>
      </g>
     </g>
    </g>
    <g id="xtick_26">
     <g id="line2d_41">
      <g>
       <use style="stroke:#000000;stroke-width:0.8;" x="955.134831" xlink:href="#m84f70375fc" y="170.198437"/>
      </g>
     </g>
     <g id="text_43">
      <!-- Feb -->
      <g transform="translate(946.283268 184.796875)scale(0.1 -0.1)">
       <use xlink:href="#DejaVuSans-46"/>
       <use x="52.019531" xlink:href="#DejaVuSans-65"/>
       <use x="113.542969" xlink:href="#DejaVuSans-62"/>
      </g>
     </g>
    </g>
    <g id="xtick_27">
     <g id="line2d_42">
      <g>
       <use style="stroke:#000000;stroke-width:0.8;" x="987.626482" xlink:href="#m84f70375fc" y="170.198437"/>
      </g>
     </g>
     <g id="text_44">
      <!-- Mar -->
      <g transform="translate(978.192888 184.796875)scale(0.1 -0.1)">
       <use xlink:href="#DejaVuSans-4d"/>
       <use x="86.279297" xlink:href="#DejaVuSans-61"/>
       <use x="147.558594" xlink:href="#DejaVuSans-72"/>
      </g>
     </g>
    </g>
    <g id="xtick_28">
     <g id="line2d_43">
      <g>
       <use style="stroke:#000000;stroke-width:0.8;" x="1020.118133" xlink:href="#m84f70375fc" y="170.198437"/>
      </g>
     </g>
     <g id="text_45">
      <!-- Apr -->
      <g transform="translate(1011.468133 184.796875)scale(0.1 -0.1)">
       <use xlink:href="#DejaVuSans-41"/>
       <use x="68.408203" xlink:href="#DejaVuSans-70"/>
       <use x="131.884766" xlink:href="#DejaVuSans-72"/>
      </g>
     </g>
    </g>
    <g id="xtick_29">
     <g id="line2d_44">
      <g>
       <use style="stroke:#000000;stroke-width:0.8;" x="1052.609783" xlink:href="#m84f70375fc" y="170.198437"/>
      </g>
     </g>
     <g id="text_46">
      <!-- May -->
      <g transform="translate(1042.272283 184.796875)scale(0.1 -0.1)">
       <use xlink:href="#DejaVuSans-4d"/>
       <use x="86.279297" xlink:href="#DejaVuSans-61"/>
       <use x="147.558594" xlink:href="#DejaVuSans-79"/>
      </g>
     </g>
    </g>
    <g id="xtick_30">
     <g id="line2d_45">
      <g>
       <use style="stroke:#000000;stroke-width:0.8;" x="1085.101434" xlink:href="#m84f70375fc" y="170.198437"/>
      </g>
     </g>
     <g id="text_47">
      <!-- Jun -->
      <g transform="translate(1077.288934 184.796875)scale(0.1 -0.1)">
       <use xlink:href="#DejaVuSans-4a"/>
       <use x="29.492188" xlink:href="#DejaVuSans-75"/>
       <use x="92.871094" xlink:href="#DejaVuSans-6e"/>
      </g>
     </g>
    </g>
    <g id="xtick_31">
     <g id="line2d_46">
      <g>
       <use style="stroke:#000000;stroke-width:0.8;" x="1117.593085" xlink:href="#m84f70375fc" y="170.198437"/>
      </g>
     </g>
     <g id="text_48">
      <!-- Jul -->
      <g transform="translate(1111.560273 184.796875)scale(0.1 -0.1)">
       <use xlink:href="#DejaVuSans-4a"/>
       <use x="29.492188" xlink:href="#DejaVuSans-75"/>
       <use x="92.871094" xlink:href="#DejaVuSans-6c"/>
      </g>
     </g>
    </g>
    <g id="xtick_32">
     <g id="line2d_47">
      <g>
       <use style="stroke:#000000;stroke-width:0.8;" x="1150.084736" xlink:href="#m84f70375fc" y="170.198437"/>
      </g>
     </g>
     <g id="text_49">
      <!-- Aug -->
      <g transform="translate(1140.321455 184.796875)scale(0.1 -0.1)">
       <use xlink:href="#DejaVuSans-41"/>
       <use x="68.408203" xlink:href="#DejaVuSans-75"/>
       <use x="131.787109" xlink:href="#DejaVuSans-67"/>
      </g>
     </g>
    </g>
    <g id="xtick_33">
     <g id="line2d_48">
      <g>
       <use style="stroke:#000000;stroke-width:0.8;" x="1182.576387" xlink:href="#m84f70375fc" y="170.198437"/>
      </g>
     </g>
     <g id="text_50">
      <!-- Sept -->
      <g transform="translate(1171.191231 184.796875)scale(0.1 -0.1)">
       <use xlink:href="#DejaVuSans-53"/>
       <use x="63.476562" xlink:href="#DejaVuSans-65"/>
       <use x="125" xlink:href="#DejaVuSans-70"/>
       <use x="188.476562" xlink:href="#DejaVuSans-74"/>
      </g>
     </g>
    </g>
    <g id="xtick_34">
     <g id="line2d_49">
      <g>
       <use style="stroke:#000000;stroke-width:0.8;" x="1215.068038" xlink:href="#m84f70375fc" y="170.198437"/>
      </g>
     </g>
     <g id="text_51">
      <!-- Oct -->
      <g transform="translate(1206.422726 184.796875)scale(0.1 -0.1)">
       <use xlink:href="#DejaVuSans-4f"/>
       <use x="78.710938" xlink:href="#DejaVuSans-63"/>
       <use x="133.691406" xlink:href="#DejaVuSans-74"/>
      </g>
     </g>
    </g>
    <g id="xtick_35">
     <g id="line2d_50">
      <g>
       <use style="stroke:#000000;stroke-width:0.8;" x="1247.559689" xlink:href="#m84f70375fc" y="170.198437"/>
      </g>
     </g>
     <g id="text_52">
      <!-- Nov -->
      <g transform="translate(1237.800314 184.796875)scale(0.1 -0.1)">
       <use xlink:href="#DejaVuSans-4e"/>
       <use x="74.804688" xlink:href="#DejaVuSans-6f"/>
       <use x="135.986328" xlink:href="#DejaVuSans-76"/>
      </g>
     </g>
    </g>
    <g id="xtick_36">
     <g id="line2d_51">
      <g>
       <use style="stroke:#000000;stroke-width:0.8;" x="1280.05134" xlink:href="#m84f70375fc" y="170.198437"/>
      </g>
     </g>
     <g id="text_53">
      <!-- Dec -->
      <g transform="translate(1270.375559 184.796875)scale(0.1 -0.1)">
       <use xlink:href="#DejaVuSans-44"/>
       <use x="77.001953" xlink:href="#DejaVuSans-65"/>
       <use x="138.525391" xlink:href="#DejaVuSans-63"/>
      </g>
     </g>
    </g>
    <g id="text_54">
     <!-- month -->
     <g transform="translate(1073.717186 198.475)scale(0.1 -0.1)">
      <use xlink:href="#DejaVuSans-6d"/>
      <use x="97.412109" xlink:href="#DejaVuSans-6f"/>
      <use x="158.59375" xlink:href="#DejaVuSans-6e"/>
      <use x="221.972656" xlink:href="#DejaVuSans-74"/>
      <use x="261.181641" xlink:href="#DejaVuSans-68"/>
     </g>
    </g>
   </g>
   <g id="matplotlib.axis_6">
    <g id="ytick_12">
     <g id="line2d_52">
      <g>
       <use style="stroke:#000000;stroke-width:0.8;" x="899.837719" xlink:href="#mf7ad9e228b" y="136.695365"/>
      </g>
     </g>
     <g id="text_55">
      <!-- 400 -->
      <g transform="translate(873.750219 140.494584)scale(0.1 -0.1)">
       <use xlink:href="#DejaVuSans-34"/>
       <use x="63.623047" xlink:href="#DejaVuSans-30"/>
       <use x="127.246094" xlink:href="#DejaVuSans-30"/>
      </g>
     </g>
    </g>
    <g id="ytick_13">
     <g id="line2d_53">
      <g>
       <use style="stroke:#000000;stroke-width:0.8;" x="899.837719" xlink:href="#mf7ad9e228b" y="99.0726"/>
      </g>
     </g>
     <g id="text_56">
      <!-- 500 -->
      <g transform="translate(873.750219 102.871819)scale(0.1 -0.1)">
       <use xlink:href="#DejaVuSans-35"/>
       <use x="63.623047" xlink:href="#DejaVuSans-30"/>
       <use x="127.246094" xlink:href="#DejaVuSans-30"/>
      </g>
     </g>
    </g>
    <g id="ytick_14">
     <g id="line2d_54">
      <g>
       <use style="stroke:#000000;stroke-width:0.8;" x="899.837719" xlink:href="#mf7ad9e228b" y="61.449835"/>
      </g>
     </g>
     <g id="text_57">
      <!-- 600 -->
      <g transform="translate(873.750219 65.249054)scale(0.1 -0.1)">
       <use xlink:href="#DejaVuSans-36"/>
       <use x="63.623047" xlink:href="#DejaVuSans-30"/>
       <use x="127.246094" xlink:href="#DejaVuSans-30"/>
      </g>
     </g>
    </g>
    <g id="ytick_15">
     <g id="line2d_55">
      <g>
       <use style="stroke:#000000;stroke-width:0.8;" x="899.837719" xlink:href="#mf7ad9e228b" y="23.82707"/>
      </g>
     </g>
     <g id="text_58">
      <!-- 700 -->
      <g transform="translate(873.750219 27.626289)scale(0.1 -0.1)">
       <use xlink:href="#DejaVuSans-37"/>
       <use x="63.623047" xlink:href="#DejaVuSans-30"/>
       <use x="127.246094" xlink:href="#DejaVuSans-30"/>
      </g>
     </g>
    </g>
    <g id="text_59">
     <!-- deaths per week -->
     <g transform="translate(867.670532 137.16875)rotate(-90)scale(0.1 -0.1)">
      <use xlink:href="#DejaVuSans-64"/>
      <use x="63.476562" xlink:href="#DejaVuSans-65"/>
      <use x="125" xlink:href="#DejaVuSans-61"/>
      <use x="186.279297" xlink:href="#DejaVuSans-74"/>
      <use x="225.488281" xlink:href="#DejaVuSans-68"/>
      <use x="288.867188" xlink:href="#DejaVuSans-73"/>
      <use x="340.966797" xlink:href="#DejaVuSans-20"/>
      <use x="372.753906" xlink:href="#DejaVuSans-70"/>
      <use x="436.230469" xlink:href="#DejaVuSans-65"/>
      <use x="497.753906" xlink:href="#DejaVuSans-72"/>
      <use x="538.867188" xlink:href="#DejaVuSans-20"/>
      <use x="570.654297" xlink:href="#DejaVuSans-77"/>
      <use x="652.441406" xlink:href="#DejaVuSans-65"/>
      <use x="713.964844" xlink:href="#DejaVuSans-65"/>
      <use x="775.488281" xlink:href="#DejaVuSans-6b"/>
     </g>
    </g>
   </g>
   <g id="line2d_56">
    <path clip-path="url(#p7c675f369e)" d="M 915.286579 27.589347 
L 922.64318 41.50977 
L 929.99978 49.41055 
L 937.35638 38.876176 
L 944.71298 42.262225 
L 952.069581 44.519591 
L 959.426181 59.568697 
L 966.782781 66.340795 
L 974.139381 71.607982 
L 981.495981 68.221933 
L 988.852582 73.865348 
L 996.209182 52.044144 
L 1003.565782 61.826063 
L 1010.922382 44.519591 
L 1018.278982 49.034323 
L 1025.635583 55.430193 
L 1032.992183 61.826063 
L 1040.348783 63.330973 
L 1047.705383 74.241575 
L 1055.061984 57.687559 
L 1062.418584 98.320145 
L 1069.775184 91.548047 
L 1077.131784 92.67673 
L 1084.488384 91.924275 
L 1091.844985 92.300502 
L 1099.201585 99.448828 
L 1106.558185 94.181641 
L 1113.914785 94.557868 
L 1121.271386 95.686551 
L 1128.627986 85.152177 
L 1135.984586 105.092243 
L 1143.341186 96.815234 
L 1150.697786 91.548047 
L 1158.054387 81.766128 
L 1165.410987 91.548047 
L 1172.767587 72.736665 
L 1180.124187 82.894811 
L 1187.480787 95.686551 
L 1194.837388 80.637445 
L 1202.193988 79.508762 
L 1209.550588 68.59816 
L 1216.907188 81.013673 
" style="fill:none;stroke:#1f77b4;stroke-linecap:square;stroke-opacity:0.7;stroke-width:1.5;"/>
   </g>
   <g id="line2d_57">
    <path clip-path="url(#p7c675f369e)" d="M 915.286579 103.211104 
L 922.64318 114.874161 
L 929.99978 116.002844 
L 937.35638 119.388893 
L 944.71298 117.883983 
L 952.069581 117.131527 
L 959.426181 123.903625 
L 966.782781 137.447821 
L 974.139381 138.200276 
L 981.495981 133.685544 
L 988.852582 129.923268 
L 996.209182 143.091235 
L 1003.565782 120.893804 
L 1010.922382 135.94291 
L 1018.278982 120.141349 
L 1025.635583 135.566682 
L 1032.992183 119.012666 
L 1040.348783 126.160991 
L 1047.705383 148.358422 
L 1055.061984 130.675723 
L 1062.418584 149.863333 
L 1069.775184 126.913446 
L 1077.131784 132.933089 
L 1084.488384 144.972374 
L 1091.844985 163.407528 
L 1099.201585 149.487105 
L 1106.558185 143.091235 
L 1113.914785 141.210097 
L 1121.271386 137.071593 
L 1128.627986 135.190455 
L 1135.984586 122.774942 
L 1143.341186 145.724829 
L 1150.697786 138.576503 
L 1158.054387 137.824048 
L 1165.410987 151.368244 
L 1172.767587 119.012666 
L 1180.124187 142.33878 
L 1187.480787 131.804406 
L 1194.837388 125.032308 
L 1202.193988 120.141349 
L 1209.550588 146.101056 
L 1216.907188 121.270032 
" style="fill:none;stroke:#ff7f0e;stroke-linecap:square;stroke-opacity:0.7;stroke-width:1.5;"/>
   </g>
   <g id="patch_9">
    <path d="M 899.837719 170.198437 
L 899.837719 20.798437 
" style="fill:none;stroke:#000000;stroke-linecap:square;stroke-linejoin:miter;stroke-width:0.8;"/>
   </g>
   <g id="patch_10">
    <path d="M 899.837719 170.198437 
L 1280.05134 170.198437 
" style="fill:none;stroke:#000000;stroke-linecap:square;stroke-linejoin:miter;stroke-width:0.8;"/>
   </g>
   <g id="text_60">
    <!-- age = 65 tot 80 jaar -->
    <g transform="translate(1039.217186 14.798438)scale(0.1 -0.1)">
     <use xlink:href="#DejaVuSans-61"/>
     <use x="61.279297" xlink:href="#DejaVuSans-67"/>
     <use x="124.755859" xlink:href="#DejaVuSans-65"/>
     <use x="186.279297" xlink:href="#DejaVuSans-20"/>
     <use x="218.066406" xlink:href="#DejaVuSans-3d"/>
     <use x="301.855469" xlink:href="#DejaVuSans-20"/>
     <use x="333.642578" xlink:href="#DejaVuSans-36"/>
     <use x="397.265625" xlink:href="#DejaVuSans-35"/>
     <use x="460.888672" xlink:href="#DejaVuSans-20"/>
     <use x="492.675781" xlink:href="#DejaVuSans-74"/>
     <use x="531.884766" xlink:href="#DejaVuSans-6f"/>
     <use x="593.066406" xlink:href="#DejaVuSans-74"/>
     <use x="632.275391" xlink:href="#DejaVuSans-20"/>
     <use x="664.0625" xlink:href="#DejaVuSans-38"/>
     <use x="727.685547" xlink:href="#DejaVuSans-30"/>
     <use x="791.308594" xlink:href="#DejaVuSans-20"/>
     <use x="823.095703" xlink:href="#DejaVuSans-6a"/>
     <use x="850.878906" xlink:href="#DejaVuSans-61"/>
     <use x="912.158203" xlink:href="#DejaVuSans-61"/>
     <use x="973.4375" xlink:href="#DejaVuSans-72"/>
    </g>
   </g>
  </g>
  <g id="axes_4">
   <g id="patch_11">
    <path d="M 1323.092516 170.198437 
L 1703.306137 170.198437 
L 1703.306137 20.798438 
L 1323.092516 20.798438 
z
" style="fill:#ffffff;"/>
   </g>
   <g id="matplotlib.axis_7">
    <g id="xtick_37">
     <g id="line2d_58">
      <g>
       <use style="stroke:#000000;stroke-width:0.8;" x="1345.897977" xlink:href="#m84f70375fc" y="170.198437"/>
      </g>
     </g>
     <g id="text_61">
      <!-- Jan -->
      <g transform="translate(1338.190164 184.796875)scale(0.1 -0.1)">
       <use xlink:href="#DejaVuSans-4a"/>
       <use x="29.492188" xlink:href="#DejaVuSans-61"/>
       <use x="90.771484" xlink:href="#DejaVuSans-6e"/>
      </g>
     </g>
    </g>
    <g id="xtick_38">
     <g id="line2d_59">
      <g>
       <use style="stroke:#000000;stroke-width:0.8;" x="1378.389628" xlink:href="#m84f70375fc" y="170.198437"/>
      </g>
     </g>
     <g id="text_62">
      <!-- Feb -->
      <g transform="translate(1369.538065 184.796875)scale(0.1 -0.1)">
       <use xlink:href="#DejaVuSans-46"/>
       <use x="52.019531" xlink:href="#DejaVuSans-65"/>
       <use x="113.542969" xlink:href="#DejaVuSans-62"/>
      </g>
     </g>
    </g>
    <g id="xtick_39">
     <g id="line2d_60">
      <g>
       <use style="stroke:#000000;stroke-width:0.8;" x="1410.881279" xlink:href="#m84f70375fc" y="170.198437"/>
      </g>
     </g>
     <g id="text_63">
      <!-- Mar -->
      <g transform="translate(1401.447685 184.796875)scale(0.1 -0.1)">
       <use xlink:href="#DejaVuSans-4d"/>
       <use x="86.279297" xlink:href="#DejaVuSans-61"/>
       <use x="147.558594" xlink:href="#DejaVuSans-72"/>
      </g>
     </g>
    </g>
    <g id="xtick_40">
     <g id="line2d_61">
      <g>
       <use style="stroke:#000000;stroke-width:0.8;" x="1443.37293" xlink:href="#m84f70375fc" y="170.198437"/>
      </g>
     </g>
     <g id="text_64">
      <!-- Apr -->
      <g transform="translate(1434.72293 184.796875)scale(0.1 -0.1)">
       <use xlink:href="#DejaVuSans-41"/>
       <use x="68.408203" xlink:href="#DejaVuSans-70"/>
       <use x="131.884766" xlink:href="#DejaVuSans-72"/>
      </g>
     </g>
    </g>
    <g id="xtick_41">
     <g id="line2d_62">
      <g>
       <use style="stroke:#000000;stroke-width:0.8;" x="1475.864581" xlink:href="#m84f70375fc" y="170.198437"/>
      </g>
     </g>
     <g id="text_65">
      <!-- May -->
      <g transform="translate(1465.527081 184.796875)scale(0.1 -0.1)">
       <use xlink:href="#DejaVuSans-4d"/>
       <use x="86.279297" xlink:href="#DejaVuSans-61"/>
       <use x="147.558594" xlink:href="#DejaVuSans-79"/>
      </g>
     </g>
    </g>
    <g id="xtick_42">
     <g id="line2d_63">
      <g>
       <use style="stroke:#000000;stroke-width:0.8;" x="1508.356231" xlink:href="#m84f70375fc" y="170.198437"/>
      </g>
     </g>
     <g id="text_66">
      <!-- Jun -->
      <g transform="translate(1500.543731 184.796875)scale(0.1 -0.1)">
       <use xlink:href="#DejaVuSans-4a"/>
       <use x="29.492188" xlink:href="#DejaVuSans-75"/>
       <use x="92.871094" xlink:href="#DejaVuSans-6e"/>
      </g>
     </g>
    </g>
    <g id="xtick_43">
     <g id="line2d_64">
      <g>
       <use style="stroke:#000000;stroke-width:0.8;" x="1540.847882" xlink:href="#m84f70375fc" y="170.198437"/>
      </g>
     </g>
     <g id="text_67">
      <!-- Jul -->
      <g transform="translate(1534.81507 184.796875)scale(0.1 -0.1)">
       <use xlink:href="#DejaVuSans-4a"/>
       <use x="29.492188" xlink:href="#DejaVuSans-75"/>
       <use x="92.871094" xlink:href="#DejaVuSans-6c"/>
      </g>
     </g>
    </g>
    <g id="xtick_44">
     <g id="line2d_65">
      <g>
       <use style="stroke:#000000;stroke-width:0.8;" x="1573.339533" xlink:href="#m84f70375fc" y="170.198437"/>
      </g>
     </g>
     <g id="text_68">
      <!-- Aug -->
      <g transform="translate(1563.576252 184.796875)scale(0.1 -0.1)">
       <use xlink:href="#DejaVuSans-41"/>
       <use x="68.408203" xlink:href="#DejaVuSans-75"/>
       <use x="131.787109" xlink:href="#DejaVuSans-67"/>
      </g>
     </g>
    </g>
    <g id="xtick_45">
     <g id="line2d_66">
      <g>
       <use style="stroke:#000000;stroke-width:0.8;" x="1605.831184" xlink:href="#m84f70375fc" y="170.198437"/>
      </g>
     </g>
     <g id="text_69">
      <!-- Sept -->
      <g transform="translate(1594.446028 184.796875)scale(0.1 -0.1)">
       <use xlink:href="#DejaVuSans-53"/>
       <use x="63.476562" xlink:href="#DejaVuSans-65"/>
       <use x="125" xlink:href="#DejaVuSans-70"/>
       <use x="188.476562" xlink:href="#DejaVuSans-74"/>
      </g>
     </g>
    </g>
    <g id="xtick_46">
     <g id="line2d_67">
      <g>
       <use style="stroke:#000000;stroke-width:0.8;" x="1638.322835" xlink:href="#m84f70375fc" y="170.198437"/>
      </g>
     </g>
     <g id="text_70">
      <!-- Oct -->
      <g transform="translate(1629.677523 184.796875)scale(0.1 -0.1)">
       <use xlink:href="#DejaVuSans-4f"/>
       <use x="78.710938" xlink:href="#DejaVuSans-63"/>
       <use x="133.691406" xlink:href="#DejaVuSans-74"/>
      </g>
     </g>
    </g>
    <g id="xtick_47">
     <g id="line2d_68">
      <g>
       <use style="stroke:#000000;stroke-width:0.8;" x="1670.814486" xlink:href="#m84f70375fc" y="170.198437"/>
      </g>
     </g>
     <g id="text_71">
      <!-- Nov -->
      <g transform="translate(1661.055111 184.796875)scale(0.1 -0.1)">
       <use xlink:href="#DejaVuSans-4e"/>
       <use x="74.804688" xlink:href="#DejaVuSans-6f"/>
       <use x="135.986328" xlink:href="#DejaVuSans-76"/>
      </g>
     </g>
    </g>
    <g id="xtick_48">
     <g id="line2d_69">
      <g>
       <use style="stroke:#000000;stroke-width:0.8;" x="1703.306137" xlink:href="#m84f70375fc" y="170.198437"/>
      </g>
     </g>
     <g id="text_72">
      <!-- Dec -->
      <g transform="translate(1693.630356 184.796875)scale(0.1 -0.1)">
       <use xlink:href="#DejaVuSans-44"/>
       <use x="77.001953" xlink:href="#DejaVuSans-65"/>
       <use x="138.525391" xlink:href="#DejaVuSans-63"/>
      </g>
     </g>
    </g>
    <g id="text_73">
     <!-- month -->
     <g transform="translate(1496.971983 198.475)scale(0.1 -0.1)">
      <use xlink:href="#DejaVuSans-6d"/>
      <use x="97.412109" xlink:href="#DejaVuSans-6f"/>
      <use x="158.59375" xlink:href="#DejaVuSans-6e"/>
      <use x="221.972656" xlink:href="#DejaVuSans-74"/>
      <use x="261.181641" xlink:href="#DejaVuSans-68"/>
     </g>
    </g>
   </g>
   <g id="matplotlib.axis_8">
    <g id="ytick_16">
     <g id="line2d_70">
      <g>
       <use style="stroke:#000000;stroke-width:0.8;" x="1323.092516" xlink:href="#mf7ad9e228b" y="163.927905"/>
      </g>
     </g>
     <g id="text_74">
      <!-- 600 -->
      <g transform="translate(1297.005016 167.727123)scale(0.1 -0.1)">
       <use xlink:href="#DejaVuSans-36"/>
       <use x="63.623047" xlink:href="#DejaVuSans-30"/>
       <use x="127.246094" xlink:href="#DejaVuSans-30"/>
      </g>
     </g>
    </g>
    <g id="ytick_17">
     <g id="line2d_71">
      <g>
       <use style="stroke:#000000;stroke-width:0.8;" x="1323.092516" xlink:href="#mf7ad9e228b" y="129.23616"/>
      </g>
     </g>
     <g id="text_75">
      <!-- 800 -->
      <g transform="translate(1297.005016 133.035378)scale(0.1 -0.1)">
       <use xlink:href="#DejaVuSans-38"/>
       <use x="63.623047" xlink:href="#DejaVuSans-30"/>
       <use x="127.246094" xlink:href="#DejaVuSans-30"/>
      </g>
     </g>
    </g>
    <g id="ytick_18">
     <g id="line2d_72">
      <g>
       <use style="stroke:#000000;stroke-width:0.8;" x="1323.092516" xlink:href="#mf7ad9e228b" y="94.544415"/>
      </g>
     </g>
     <g id="text_76">
      <!-- 1000 -->
      <g transform="translate(1290.642516 98.343633)scale(0.1 -0.1)">
       <use xlink:href="#DejaVuSans-31"/>
       <use x="63.623047" xlink:href="#DejaVuSans-30"/>
       <use x="127.246094" xlink:href="#DejaVuSans-30"/>
       <use x="190.869141" xlink:href="#DejaVuSans-30"/>
      </g>
     </g>
    </g>
    <g id="ytick_19">
     <g id="line2d_73">
      <g>
       <use style="stroke:#000000;stroke-width:0.8;" x="1323.092516" xlink:href="#mf7ad9e228b" y="59.852669"/>
      </g>
     </g>
     <g id="text_77">
      <!-- 1200 -->
      <g transform="translate(1290.642516 63.651888)scale(0.1 -0.1)">
       <use xlink:href="#DejaVuSans-31"/>
       <use x="63.623047" xlink:href="#DejaVuSans-32"/>
       <use x="127.246094" xlink:href="#DejaVuSans-30"/>
       <use x="190.869141" xlink:href="#DejaVuSans-30"/>
      </g>
     </g>
    </g>
    <g id="ytick_20">
     <g id="line2d_74">
      <g>
       <use style="stroke:#000000;stroke-width:0.8;" x="1323.092516" xlink:href="#mf7ad9e228b" y="25.160924"/>
      </g>
     </g>
     <g id="text_78">
      <!-- 1400 -->
      <g transform="translate(1290.642516 28.960143)scale(0.1 -0.1)">
       <use xlink:href="#DejaVuSans-31"/>
       <use x="63.623047" xlink:href="#DejaVuSans-34"/>
       <use x="127.246094" xlink:href="#DejaVuSans-30"/>
       <use x="190.869141" xlink:href="#DejaVuSans-30"/>
      </g>
     </g>
    </g>
    <g id="text_79">
     <!-- deaths per week -->
     <g transform="translate(1284.562829 137.16875)rotate(-90)scale(0.1 -0.1)">
      <use xlink:href="#DejaVuSans-64"/>
      <use x="63.476562" xlink:href="#DejaVuSans-65"/>
      <use x="125" xlink:href="#DejaVuSans-61"/>
      <use x="186.279297" xlink:href="#DejaVuSans-74"/>
      <use x="225.488281" xlink:href="#DejaVuSans-68"/>
      <use x="288.867188" xlink:href="#DejaVuSans-73"/>
      <use x="340.966797" xlink:href="#DejaVuSans-20"/>
      <use x="372.753906" xlink:href="#DejaVuSans-70"/>
      <use x="436.230469" xlink:href="#DejaVuSans-65"/>
      <use x="497.753906" xlink:href="#DejaVuSans-72"/>
      <use x="538.867188" xlink:href="#DejaVuSans-20"/>
      <use x="570.654297" xlink:href="#DejaVuSans-77"/>
      <use x="652.441406" xlink:href="#DejaVuSans-65"/>
      <use x="713.964844" xlink:href="#DejaVuSans-65"/>
      <use x="775.488281" xlink:href="#DejaVuSans-6b"/>
     </g>
    </g>
   </g>
   <g id="line2d_75">
    <path clip-path="url(#p81534ed127)" d="M 1338.541377 68.699064 
L 1345.897977 85.69802 
L 1353.254577 89.514111 
L 1360.611177 99.574718 
L 1367.967777 93.677121 
L 1375.324378 111.54337 
L 1382.680978 123.338563 
L 1390.037578 129.409618 
L 1397.394178 139.817142 
L 1404.750778 130.797288 
L 1412.107379 139.470224 
L 1419.463979 143.112858 
L 1426.820579 129.929994 
L 1434.177179 139.990601 
L 1441.53378 143.633234 
L 1448.89038 142.072105 
L 1456.24698 151.265418 
L 1463.60358 148.316619 
L 1470.96018 147.102408 
L 1478.316781 156.816097 
L 1485.673381 151.265418 
L 1493.029981 144.847445 
L 1500.386581 153.000005 
L 1507.743181 149.53083 
L 1515.099782 163.407528 
L 1522.456382 155.775345 
L 1529.812982 154.561133 
L 1537.169582 154.040757 
L 1544.526183 161.672941 
L 1551.882783 145.54128 
L 1559.239383 145.020904 
L 1566.595983 155.254968 
L 1573.952583 152.479629 
L 1581.309184 155.254968 
L 1588.665784 153.173464 
L 1596.022384 151.438876 
L 1603.378984 149.877748 
L 1610.735584 153.69384 
L 1618.092185 139.643683 
L 1625.448785 146.235115 
L 1632.805385 144.327069 
L 1640.161985 134.266463 
" style="fill:none;stroke:#1f77b4;stroke-linecap:square;stroke-opacity:0.7;stroke-width:1.5;"/>
   </g>
   <g id="line2d_76">
    <path clip-path="url(#p81534ed127)" d="M 1338.541377 27.589347 
L 1345.897977 45.975971 
L 1353.254577 39.037622 
L 1360.611177 53.608155 
L 1367.967777 65.403349 
L 1375.324378 70.086734 
L 1382.680978 63.84222 
L 1390.037578 91.07524 
L 1397.394178 97.84013 
L 1404.750778 86.218396 
L 1412.107379 111.54337 
L 1419.463979 107.033443 
L 1426.820579 107.206901 
L 1434.177179 106.686525 
L 1441.53378 111.369911 
L 1448.89038 104.084644 
L 1456.24698 99.921635 
L 1463.60358 115.879838 
L 1470.96018 113.971792 
L 1478.316781 110.849535 
L 1485.673381 117.267508 
L 1493.029981 109.288406 
L 1500.386581 113.798333 
L 1507.743181 115.53292 
L 1515.099782 125.420068 
L 1522.456382 119.69593 
L 1529.812982 116.747131 
L 1537.169582 110.849535 
L 1544.526183 116.053296 
L 1551.882783 118.30826 
L 1559.239383 109.808782 
L 1566.595983 113.798333 
L 1573.952583 111.022993 
L 1581.309184 114.492168 
L 1588.665784 114.665627 
L 1596.022384 102.00314 
L 1603.378984 116.573673 
L 1610.735584 118.828636 
L 1618.092185 111.369911 
L 1625.448785 107.38036 
L 1632.805385 106.859984 
L 1640.161985 88.820277 
" style="fill:none;stroke:#ff7f0e;stroke-linecap:square;stroke-opacity:0.7;stroke-width:1.5;"/>
   </g>
   <g id="patch_12">
    <path d="M 1323.092516 170.198438 
L 1323.092516 20.798438 
" style="fill:none;stroke:#000000;stroke-linecap:square;stroke-linejoin:miter;stroke-width:0.8;"/>
   </g>
   <g id="patch_13">
    <path d="M 1323.092516 170.198437 
L 1703.306137 170.198437 
" style="fill:none;stroke:#000000;stroke-linecap:square;stroke-linejoin:miter;stroke-width:0.8;"/>
   </g>
   <g id="text_80">
    <!-- age = 80 jaar of ouder -->
    <g transform="translate(1456.460264 14.798438)scale(0.1 -0.1)">
     <use xlink:href="#DejaVuSans-61"/>
     <use x="61.279297" xlink:href="#DejaVuSans-67"/>
     <use x="124.755859" xlink:href="#DejaVuSans-65"/>
     <use x="186.279297" xlink:href="#DejaVuSans-20"/>
     <use x="218.066406" xlink:href="#DejaVuSans-3d"/>
     <use x="301.855469" xlink:href="#DejaVuSans-20"/>
     <use x="333.642578" xlink:href="#DejaVuSans-38"/>
     <use x="397.265625" xlink:href="#DejaVuSans-30"/>
     <use x="460.888672" xlink:href="#DejaVuSans-20"/>
     <use x="492.675781" xlink:href="#DejaVuSans-6a"/>
     <use x="520.458984" xlink:href="#DejaVuSans-61"/>
     <use x="581.738281" xlink:href="#DejaVuSans-61"/>
     <use x="643.017578" xlink:href="#DejaVuSans-72"/>
     <use x="684.130859" xlink:href="#DejaVuSans-20"/>
     <use x="715.917969" xlink:href="#DejaVuSans-6f"/>
     <use x="777.099609" xlink:href="#DejaVuSans-66"/>
     <use x="812.304688" xlink:href="#DejaVuSans-20"/>
     <use x="844.091797" xlink:href="#DejaVuSans-6f"/>
     <use x="905.273438" xlink:href="#DejaVuSans-75"/>
     <use x="968.652344" xlink:href="#DejaVuSans-64"/>
     <use x="1032.128906" xlink:href="#DejaVuSans-65"/>
     <use x="1093.652344" xlink:href="#DejaVuSans-72"/>
    </g>
   </g>
  </g>
  <g id="legend_1">
   <g id="line2d_77">
    <path d="M 1722.482075 95.797656 
L 1742.482075 95.797656 
" style="fill:none;stroke:#1f77b4;stroke-linecap:square;stroke-opacity:0.7;stroke-width:1.5;"/>
   </g>
   <g id="line2d_78"/>
   <g id="text_81">
    <!-- Mannen -->
    <g transform="translate(1750.482075 99.297656)scale(0.1 -0.1)">
     <use xlink:href="#DejaVuSans-4d"/>
     <use x="86.279297" xlink:href="#DejaVuSans-61"/>
     <use x="147.558594" xlink:href="#DejaVuSans-6e"/>
     <use x="210.9375" xlink:href="#DejaVuSans-6e"/>
     <use x="274.316406" xlink:href="#DejaVuSans-65"/>
     <use x="335.839844" xlink:href="#DejaVuSans-6e"/>
    </g>
   </g>
   <g id="line2d_79">
    <path d="M 1722.482075 110.475781 
L 1742.482075 110.475781 
" style="fill:none;stroke:#ff7f0e;stroke-linecap:square;stroke-opacity:0.7;stroke-width:1.5;"/>
   </g>
   <g id="line2d_80"/>
   <g id="text_82">
    <!-- Vrouwen -->
    <g transform="translate(1750.482075 113.975781)scale(0.1 -0.1)">
     <defs>
      <path d="M 1831 0 
L 50 4666 
L 709 4666 
L 2188 738 
L 3669 4666 
L 4325 4666 
L 2547 0 
L 1831 0 
z
" id="DejaVuSans-56" transform="scale(0.015625)"/>
     </defs>
     <use xlink:href="#DejaVuSans-56"/>
     <use x="68.408203" xlink:href="#DejaVuSans-72"/>
     <use x="107.271484" xlink:href="#DejaVuSans-6f"/>
     <use x="168.453125" xlink:href="#DejaVuSans-75"/>
     <use x="231.832031" xlink:href="#DejaVuSans-77"/>
     <use x="313.619141" xlink:href="#DejaVuSans-65"/>
     <use x="375.142578" xlink:href="#DejaVuSans-6e"/>
    </g>
   </g>
  </g>
 </g>
 <defs>
  <clipPath id="p63602e2c91">
   <rect height="149.4" width="380.213621" x="53.328125" y="20.798438"/>
  </clipPath>
  <clipPath id="p9c6ec0274a">
   <rect height="149.4" width="380.213621" x="476.582922" y="20.798438"/>
  </clipPath>
  <clipPath id="p7c675f369e">
   <rect height="149.4" width="380.213621" x="899.837719" y="20.798438"/>
  </clipPath>
  <clipPath id="p81534ed127">
   <rect height="149.4" width="380.213621" x="1323.092516" y="20.798438"/>
  </clipPath>
 </defs>
</svg>
