<?xml version="1.0" encoding="utf-8" standalone="no"?>
<!DOCTYPE svg PUBLIC "-//W3C//DTD SVG 1.1//EN"
  "http://www.w3.org/Graphics/SVG/1.1/DTD/svg11.dtd">
<svg xmlns:xlink="http://www.w3.org/1999/xlink" width="1803.595175pt" height="207.754687pt" viewBox="0 0 1803.595175 207.754687" xmlns="http://www.w3.org/2000/svg" version="1.1">
 <metadata>
  <rdf:RDF xmlns:dc="http://purl.org/dc/elements/1.1/" xmlns:cc="http://creativecommons.org/ns#" xmlns:rdf="http://www.w3.org/1999/02/22-rdf-syntax-ns#">
   <cc:Work>
    <dc:type rdf:resource="http://purl.org/dc/dcmitype/StillImage"/>
    <dc:date>2022-01-14T07:56:05.898749</dc:date>
    <dc:format>image/svg+xml</dc:format>
    <dc:creator>
     <cc:Agent>
      <dc:title>Matplotlib v3.5.1, https://matplotlib.org/</dc:title>
     </cc:Agent>
    </dc:creator>
   </cc:Work>
  </rdf:RDF>
 </metadata>
 <defs>
  <style type="text/css">*{stroke-linejoin: round; stroke-linecap: butt}</style>
 </defs>
 <g id="figure_1">
  <g id="patch_1">
   <path d="M 0 207.754687 
L 1803.595175 207.754687 
L 1803.595175 0 
L 0 0 
z
" style="fill: #ffffff"/>
  </g>
  <g id="axes_1">
   <g id="patch_2">
    <path d="M 53.328125 170.198437 
L 433.793256 170.198437 
L 433.793256 20.798438 
L 53.328125 20.798438 
z
" style="fill: #ffffff"/>
   </g>
   <g id="matplotlib.axis_1">
    <g id="xtick_1">
     <g id="line2d_1">
      <defs>
       <path id="mf317efcec9" d="M 0 0 
L 0 3.5 
" style="stroke: #000000; stroke-width: 0.8"/>
      </defs>
      <g>
       <use xlink:href="#mf317efcec9" x="77.403904" y="170.198437" style="stroke: #000000; stroke-width: 0.8"/>
      </g>
     </g>
     <g id="text_1">
      <!-- Jan -->
      <g transform="translate(69.696092 184.796875)scale(0.1 -0.1)">
       <defs>
        <path id="DejaVuSans-4a" d="M 628 4666 
L 1259 4666 
L 1259 325 
Q 1259 -519 939 -900 
Q 619 -1281 -91 -1281 
L -331 -1281 
L -331 -750 
L -134 -750 
Q 284 -750 456 -515 
Q 628 -281 628 325 
L 628 4666 
z
" transform="scale(0.015625)"/>
        <path id="DejaVuSans-61" d="M 2194 1759 
Q 1497 1759 1228 1600 
Q 959 1441 959 1056 
Q 959 750 1161 570 
Q 1363 391 1709 391 
Q 2188 391 2477 730 
Q 2766 1069 2766 1631 
L 2766 1759 
L 2194 1759 
z
M 3341 1997 
L 3341 0 
L 2766 0 
L 2766 531 
Q 2569 213 2275 61 
Q 1981 -91 1556 -91 
Q 1019 -91 701 211 
Q 384 513 384 1019 
Q 384 1609 779 1909 
Q 1175 2209 1959 2209 
L 2766 2209 
L 2766 2266 
Q 2766 2663 2505 2880 
Q 2244 3097 1772 3097 
Q 1472 3097 1187 3025 
Q 903 2953 641 2809 
L 641 3341 
Q 956 3463 1253 3523 
Q 1550 3584 1831 3584 
Q 2591 3584 2966 3190 
Q 3341 2797 3341 1997 
z
" transform="scale(0.015625)"/>
        <path id="DejaVuSans-6e" d="M 3513 2113 
L 3513 0 
L 2938 0 
L 2938 2094 
Q 2938 2591 2744 2837 
Q 2550 3084 2163 3084 
Q 1697 3084 1428 2787 
Q 1159 2491 1159 1978 
L 1159 0 
L 581 0 
L 581 3500 
L 1159 3500 
L 1159 2956 
Q 1366 3272 1645 3428 
Q 1925 3584 2291 3584 
Q 2894 3584 3203 3211 
Q 3513 2838 3513 2113 
z
" transform="scale(0.015625)"/>
       </defs>
       <use xlink:href="#DejaVuSans-4a"/>
       <use xlink:href="#DejaVuSans-61" x="29.492188"/>
       <use xlink:href="#DejaVuSans-6e" x="90.771484"/>
      </g>
     </g>
    </g>
    <g id="xtick_2">
     <g id="line2d_2">
      <g>
       <use xlink:href="#mf317efcec9" x="107.357339" y="170.198437" style="stroke: #000000; stroke-width: 0.8"/>
      </g>
     </g>
     <g id="text_2">
      <!-- Feb -->
      <g transform="translate(98.505776 184.796875)scale(0.1 -0.1)">
       <defs>
        <path id="DejaVuSans-46" d="M 628 4666 
L 3309 4666 
L 3309 4134 
L 1259 4134 
L 1259 2759 
L 3109 2759 
L 3109 2228 
L 1259 2228 
L 1259 0 
L 628 0 
L 628 4666 
z
" transform="scale(0.015625)"/>
        <path id="DejaVuSans-65" d="M 3597 1894 
L 3597 1613 
L 953 1613 
Q 991 1019 1311 708 
Q 1631 397 2203 397 
Q 2534 397 2845 478 
Q 3156 559 3463 722 
L 3463 178 
Q 3153 47 2828 -22 
Q 2503 -91 2169 -91 
Q 1331 -91 842 396 
Q 353 884 353 1716 
Q 353 2575 817 3079 
Q 1281 3584 2069 3584 
Q 2775 3584 3186 3129 
Q 3597 2675 3597 1894 
z
M 3022 2063 
Q 3016 2534 2758 2815 
Q 2500 3097 2075 3097 
Q 1594 3097 1305 2825 
Q 1016 2553 972 2059 
L 3022 2063 
z
" transform="scale(0.015625)"/>
        <path id="DejaVuSans-62" d="M 3116 1747 
Q 3116 2381 2855 2742 
Q 2594 3103 2138 3103 
Q 1681 3103 1420 2742 
Q 1159 2381 1159 1747 
Q 1159 1113 1420 752 
Q 1681 391 2138 391 
Q 2594 391 2855 752 
Q 3116 1113 3116 1747 
z
M 1159 2969 
Q 1341 3281 1617 3432 
Q 1894 3584 2278 3584 
Q 2916 3584 3314 3078 
Q 3713 2572 3713 1747 
Q 3713 922 3314 415 
Q 2916 -91 2278 -91 
Q 1894 -91 1617 61 
Q 1341 213 1159 525 
L 1159 0 
L 581 0 
L 581 4863 
L 1159 4863 
L 1159 2969 
z
" transform="scale(0.015625)"/>
       </defs>
       <use xlink:href="#DejaVuSans-46"/>
       <use xlink:href="#DejaVuSans-65" x="52.019531"/>
       <use xlink:href="#DejaVuSans-62" x="113.542969"/>
      </g>
     </g>
    </g>
    <g id="xtick_3">
     <g id="line2d_3">
      <g>
       <use xlink:href="#mf317efcec9" x="137.310773" y="170.198437" style="stroke: #000000; stroke-width: 0.8"/>
      </g>
     </g>
     <g id="text_3">
      <!-- Mar -->
      <g transform="translate(127.877179 184.796875)scale(0.1 -0.1)">
       <defs>
        <path id="DejaVuSans-4d" d="M 628 4666 
L 1569 4666 
L 2759 1491 
L 3956 4666 
L 4897 4666 
L 4897 0 
L 4281 0 
L 4281 4097 
L 3078 897 
L 2444 897 
L 1241 4097 
L 1241 0 
L 628 0 
L 628 4666 
z
" transform="scale(0.015625)"/>
        <path id="DejaVuSans-72" d="M 2631 2963 
Q 2534 3019 2420 3045 
Q 2306 3072 2169 3072 
Q 1681 3072 1420 2755 
Q 1159 2438 1159 1844 
L 1159 0 
L 581 0 
L 581 3500 
L 1159 3500 
L 1159 2956 
Q 1341 3275 1631 3429 
Q 1922 3584 2338 3584 
Q 2397 3584 2469 3576 
Q 2541 3569 2628 3553 
L 2631 2963 
z
" transform="scale(0.015625)"/>
       </defs>
       <use xlink:href="#DejaVuSans-4d"/>
       <use xlink:href="#DejaVuSans-61" x="86.279297"/>
       <use xlink:href="#DejaVuSans-72" x="147.558594"/>
      </g>
     </g>
    </g>
    <g id="xtick_4">
     <g id="line2d_4">
      <g>
       <use xlink:href="#mf317efcec9" x="167.264207" y="170.198437" style="stroke: #000000; stroke-width: 0.8"/>
      </g>
     </g>
     <g id="text_4">
      <!-- Apr -->
      <g transform="translate(158.614207 184.796875)scale(0.1 -0.1)">
       <defs>
        <path id="DejaVuSans-41" d="M 2188 4044 
L 1331 1722 
L 3047 1722 
L 2188 4044 
z
M 1831 4666 
L 2547 4666 
L 4325 0 
L 3669 0 
L 3244 1197 
L 1141 1197 
L 716 0 
L 50 0 
L 1831 4666 
z
" transform="scale(0.015625)"/>
        <path id="DejaVuSans-70" d="M 1159 525 
L 1159 -1331 
L 581 -1331 
L 581 3500 
L 1159 3500 
L 1159 2969 
Q 1341 3281 1617 3432 
Q 1894 3584 2278 3584 
Q 2916 3584 3314 3078 
Q 3713 2572 3713 1747 
Q 3713 922 3314 415 
Q 2916 -91 2278 -91 
Q 1894 -91 1617 61 
Q 1341 213 1159 525 
z
M 3116 1747 
Q 3116 2381 2855 2742 
Q 2594 3103 2138 3103 
Q 1681 3103 1420 2742 
Q 1159 2381 1159 1747 
Q 1159 1113 1420 752 
Q 1681 391 2138 391 
Q 2594 391 2855 752 
Q 3116 1113 3116 1747 
z
" transform="scale(0.015625)"/>
       </defs>
       <use xlink:href="#DejaVuSans-41"/>
       <use xlink:href="#DejaVuSans-70" x="68.408203"/>
       <use xlink:href="#DejaVuSans-72" x="131.884766"/>
      </g>
     </g>
    </g>
    <g id="xtick_5">
     <g id="line2d_5">
      <g>
       <use xlink:href="#mf317efcec9" x="197.217641" y="170.198437" style="stroke: #000000; stroke-width: 0.8"/>
      </g>
     </g>
     <g id="text_5">
      <!-- May -->
      <g transform="translate(186.880141 184.796875)scale(0.1 -0.1)">
       <defs>
        <path id="DejaVuSans-79" d="M 2059 -325 
Q 1816 -950 1584 -1140 
Q 1353 -1331 966 -1331 
L 506 -1331 
L 506 -850 
L 844 -850 
Q 1081 -850 1212 -737 
Q 1344 -625 1503 -206 
L 1606 56 
L 191 3500 
L 800 3500 
L 1894 763 
L 2988 3500 
L 3597 3500 
L 2059 -325 
z
" transform="scale(0.015625)"/>
       </defs>
       <use xlink:href="#DejaVuSans-4d"/>
       <use xlink:href="#DejaVuSans-61" x="86.279297"/>
       <use xlink:href="#DejaVuSans-79" x="147.558594"/>
      </g>
     </g>
    </g>
    <g id="xtick_6">
     <g id="line2d_6">
      <g>
       <use xlink:href="#mf317efcec9" x="227.171076" y="170.198437" style="stroke: #000000; stroke-width: 0.8"/>
      </g>
     </g>
     <g id="text_6">
      <!-- Jun -->
      <g transform="translate(219.358576 184.796875)scale(0.1 -0.1)">
       <defs>
        <path id="DejaVuSans-75" d="M 544 1381 
L 544 3500 
L 1119 3500 
L 1119 1403 
Q 1119 906 1312 657 
Q 1506 409 1894 409 
Q 2359 409 2629 706 
Q 2900 1003 2900 1516 
L 2900 3500 
L 3475 3500 
L 3475 0 
L 2900 0 
L 2900 538 
Q 2691 219 2414 64 
Q 2138 -91 1772 -91 
Q 1169 -91 856 284 
Q 544 659 544 1381 
z
M 1991 3584 
L 1991 3584 
z
" transform="scale(0.015625)"/>
       </defs>
       <use xlink:href="#DejaVuSans-4a"/>
       <use xlink:href="#DejaVuSans-75" x="29.492188"/>
       <use xlink:href="#DejaVuSans-6e" x="92.871094"/>
      </g>
     </g>
    </g>
    <g id="xtick_7">
     <g id="line2d_7">
      <g>
       <use xlink:href="#mf317efcec9" x="257.12451" y="170.198437" style="stroke: #000000; stroke-width: 0.8"/>
      </g>
     </g>
     <g id="text_7">
      <!-- Jul -->
      <g transform="translate(251.091697 184.796875)scale(0.1 -0.1)">
       <defs>
        <path id="DejaVuSans-6c" d="M 603 4863 
L 1178 4863 
L 1178 0 
L 603 0 
L 603 4863 
z
" transform="scale(0.015625)"/>
       </defs>
       <use xlink:href="#DejaVuSans-4a"/>
       <use xlink:href="#DejaVuSans-75" x="29.492188"/>
       <use xlink:href="#DejaVuSans-6c" x="92.871094"/>
      </g>
     </g>
    </g>
    <g id="xtick_8">
     <g id="line2d_8">
      <g>
       <use xlink:href="#mf317efcec9" x="287.077944" y="170.198437" style="stroke: #000000; stroke-width: 0.8"/>
      </g>
     </g>
     <g id="text_8">
      <!-- Aug -->
      <g transform="translate(277.314663 184.796875)scale(0.1 -0.1)">
       <defs>
        <path id="DejaVuSans-67" d="M 2906 1791 
Q 2906 2416 2648 2759 
Q 2391 3103 1925 3103 
Q 1463 3103 1205 2759 
Q 947 2416 947 1791 
Q 947 1169 1205 825 
Q 1463 481 1925 481 
Q 2391 481 2648 825 
Q 2906 1169 2906 1791 
z
M 3481 434 
Q 3481 -459 3084 -895 
Q 2688 -1331 1869 -1331 
Q 1566 -1331 1297 -1286 
Q 1028 -1241 775 -1147 
L 775 -588 
Q 1028 -725 1275 -790 
Q 1522 -856 1778 -856 
Q 2344 -856 2625 -561 
Q 2906 -266 2906 331 
L 2906 616 
Q 2728 306 2450 153 
Q 2172 0 1784 0 
Q 1141 0 747 490 
Q 353 981 353 1791 
Q 353 2603 747 3093 
Q 1141 3584 1784 3584 
Q 2172 3584 2450 3431 
Q 2728 3278 2906 2969 
L 2906 3500 
L 3481 3500 
L 3481 434 
z
" transform="scale(0.015625)"/>
       </defs>
       <use xlink:href="#DejaVuSans-41"/>
       <use xlink:href="#DejaVuSans-75" x="68.408203"/>
       <use xlink:href="#DejaVuSans-67" x="131.787109"/>
      </g>
     </g>
    </g>
    <g id="xtick_9">
     <g id="line2d_9">
      <g>
       <use xlink:href="#mf317efcec9" x="317.031379" y="170.198437" style="stroke: #000000; stroke-width: 0.8"/>
      </g>
     </g>
     <g id="text_9">
      <!-- Sept -->
      <g transform="translate(305.646222 184.796875)scale(0.1 -0.1)">
       <defs>
        <path id="DejaVuSans-53" d="M 3425 4513 
L 3425 3897 
Q 3066 4069 2747 4153 
Q 2428 4238 2131 4238 
Q 1616 4238 1336 4038 
Q 1056 3838 1056 3469 
Q 1056 3159 1242 3001 
Q 1428 2844 1947 2747 
L 2328 2669 
Q 3034 2534 3370 2195 
Q 3706 1856 3706 1288 
Q 3706 609 3251 259 
Q 2797 -91 1919 -91 
Q 1588 -91 1214 -16 
Q 841 59 441 206 
L 441 856 
Q 825 641 1194 531 
Q 1563 422 1919 422 
Q 2459 422 2753 634 
Q 3047 847 3047 1241 
Q 3047 1584 2836 1778 
Q 2625 1972 2144 2069 
L 1759 2144 
Q 1053 2284 737 2584 
Q 422 2884 422 3419 
Q 422 4038 858 4394 
Q 1294 4750 2059 4750 
Q 2388 4750 2728 4690 
Q 3069 4631 3425 4513 
z
" transform="scale(0.015625)"/>
        <path id="DejaVuSans-74" d="M 1172 4494 
L 1172 3500 
L 2356 3500 
L 2356 3053 
L 1172 3053 
L 1172 1153 
Q 1172 725 1289 603 
Q 1406 481 1766 481 
L 2356 481 
L 2356 0 
L 1766 0 
Q 1100 0 847 248 
Q 594 497 594 1153 
L 594 3053 
L 172 3053 
L 172 3500 
L 594 3500 
L 594 4494 
L 1172 4494 
z
" transform="scale(0.015625)"/>
       </defs>
       <use xlink:href="#DejaVuSans-53"/>
       <use xlink:href="#DejaVuSans-65" x="63.476562"/>
       <use xlink:href="#DejaVuSans-70" x="125"/>
       <use xlink:href="#DejaVuSans-74" x="188.476562"/>
      </g>
     </g>
    </g>
    <g id="xtick_10">
     <g id="line2d_10">
      <g>
       <use xlink:href="#mf317efcec9" x="346.984813" y="170.198437" style="stroke: #000000; stroke-width: 0.8"/>
      </g>
     </g>
     <g id="text_10">
      <!-- Oct -->
      <g transform="translate(338.3395 184.796875)scale(0.1 -0.1)">
       <defs>
        <path id="DejaVuSans-4f" d="M 2522 4238 
Q 1834 4238 1429 3725 
Q 1025 3213 1025 2328 
Q 1025 1447 1429 934 
Q 1834 422 2522 422 
Q 3209 422 3611 934 
Q 4013 1447 4013 2328 
Q 4013 3213 3611 3725 
Q 3209 4238 2522 4238 
z
M 2522 4750 
Q 3503 4750 4090 4092 
Q 4678 3434 4678 2328 
Q 4678 1225 4090 567 
Q 3503 -91 2522 -91 
Q 1538 -91 948 565 
Q 359 1222 359 2328 
Q 359 3434 948 4092 
Q 1538 4750 2522 4750 
z
" transform="scale(0.015625)"/>
        <path id="DejaVuSans-63" d="M 3122 3366 
L 3122 2828 
Q 2878 2963 2633 3030 
Q 2388 3097 2138 3097 
Q 1578 3097 1268 2742 
Q 959 2388 959 1747 
Q 959 1106 1268 751 
Q 1578 397 2138 397 
Q 2388 397 2633 464 
Q 2878 531 3122 666 
L 3122 134 
Q 2881 22 2623 -34 
Q 2366 -91 2075 -91 
Q 1284 -91 818 406 
Q 353 903 353 1747 
Q 353 2603 823 3093 
Q 1294 3584 2113 3584 
Q 2378 3584 2631 3529 
Q 2884 3475 3122 3366 
z
" transform="scale(0.015625)"/>
       </defs>
       <use xlink:href="#DejaVuSans-4f"/>
       <use xlink:href="#DejaVuSans-63" x="78.710938"/>
       <use xlink:href="#DejaVuSans-74" x="133.691406"/>
      </g>
     </g>
    </g>
    <g id="xtick_11">
     <g id="line2d_11">
      <g>
       <use xlink:href="#mf317efcec9" x="376.938247" y="170.198437" style="stroke: #000000; stroke-width: 0.8"/>
      </g>
     </g>
     <g id="text_11">
      <!-- Nov -->
      <g transform="translate(367.178872 184.796875)scale(0.1 -0.1)">
       <defs>
        <path id="DejaVuSans-4e" d="M 628 4666 
L 1478 4666 
L 3547 763 
L 3547 4666 
L 4159 4666 
L 4159 0 
L 3309 0 
L 1241 3903 
L 1241 0 
L 628 0 
L 628 4666 
z
" transform="scale(0.015625)"/>
        <path id="DejaVuSans-6f" d="M 1959 3097 
Q 1497 3097 1228 2736 
Q 959 2375 959 1747 
Q 959 1119 1226 758 
Q 1494 397 1959 397 
Q 2419 397 2687 759 
Q 2956 1122 2956 1747 
Q 2956 2369 2687 2733 
Q 2419 3097 1959 3097 
z
M 1959 3584 
Q 2709 3584 3137 3096 
Q 3566 2609 3566 1747 
Q 3566 888 3137 398 
Q 2709 -91 1959 -91 
Q 1206 -91 779 398 
Q 353 888 353 1747 
Q 353 2609 779 3096 
Q 1206 3584 1959 3584 
z
" transform="scale(0.015625)"/>
        <path id="DejaVuSans-76" d="M 191 3500 
L 800 3500 
L 1894 563 
L 2988 3500 
L 3597 3500 
L 2284 0 
L 1503 0 
L 191 3500 
z
" transform="scale(0.015625)"/>
       </defs>
       <use xlink:href="#DejaVuSans-4e"/>
       <use xlink:href="#DejaVuSans-6f" x="74.804688"/>
       <use xlink:href="#DejaVuSans-76" x="135.986328"/>
      </g>
     </g>
    </g>
    <g id="xtick_12">
     <g id="line2d_12">
      <g>
       <use xlink:href="#mf317efcec9" x="406.891681" y="170.198437" style="stroke: #000000; stroke-width: 0.8"/>
      </g>
     </g>
     <g id="text_12">
      <!-- Dec -->
      <g transform="translate(397.2159 184.796875)scale(0.1 -0.1)">
       <defs>
        <path id="DejaVuSans-44" d="M 1259 4147 
L 1259 519 
L 2022 519 
Q 2988 519 3436 956 
Q 3884 1394 3884 2338 
Q 3884 3275 3436 3711 
Q 2988 4147 2022 4147 
L 1259 4147 
z
M 628 4666 
L 1925 4666 
Q 3281 4666 3915 4102 
Q 4550 3538 4550 2338 
Q 4550 1131 3912 565 
Q 3275 0 1925 0 
L 628 0 
L 628 4666 
z
" transform="scale(0.015625)"/>
       </defs>
       <use xlink:href="#DejaVuSans-44"/>
       <use xlink:href="#DejaVuSans-65" x="77.001953"/>
       <use xlink:href="#DejaVuSans-63" x="138.525391"/>
      </g>
     </g>
    </g>
    <g id="text_13">
     <!-- month -->
     <g transform="translate(227.333347 198.475)scale(0.1 -0.1)">
      <defs>
       <path id="DejaVuSans-6d" d="M 3328 2828 
Q 3544 3216 3844 3400 
Q 4144 3584 4550 3584 
Q 5097 3584 5394 3201 
Q 5691 2819 5691 2113 
L 5691 0 
L 5113 0 
L 5113 2094 
Q 5113 2597 4934 2840 
Q 4756 3084 4391 3084 
Q 3944 3084 3684 2787 
Q 3425 2491 3425 1978 
L 3425 0 
L 2847 0 
L 2847 2094 
Q 2847 2600 2669 2842 
Q 2491 3084 2119 3084 
Q 1678 3084 1418 2786 
Q 1159 2488 1159 1978 
L 1159 0 
L 581 0 
L 581 3500 
L 1159 3500 
L 1159 2956 
Q 1356 3278 1631 3431 
Q 1906 3584 2284 3584 
Q 2666 3584 2933 3390 
Q 3200 3197 3328 2828 
z
" transform="scale(0.015625)"/>
       <path id="DejaVuSans-68" d="M 3513 2113 
L 3513 0 
L 2938 0 
L 2938 2094 
Q 2938 2591 2744 2837 
Q 2550 3084 2163 3084 
Q 1697 3084 1428 2787 
Q 1159 2491 1159 1978 
L 1159 0 
L 581 0 
L 581 4863 
L 1159 4863 
L 1159 2956 
Q 1366 3272 1645 3428 
Q 1925 3584 2291 3584 
Q 2894 3584 3203 3211 
Q 3513 2838 3513 2113 
z
" transform="scale(0.015625)"/>
      </defs>
      <use xlink:href="#DejaVuSans-6d"/>
      <use xlink:href="#DejaVuSans-6f" x="97.412109"/>
      <use xlink:href="#DejaVuSans-6e" x="158.59375"/>
      <use xlink:href="#DejaVuSans-74" x="221.972656"/>
      <use xlink:href="#DejaVuSans-68" x="261.181641"/>
     </g>
    </g>
   </g>
   <g id="matplotlib.axis_2">
    <g id="ytick_1">
     <g id="line2d_13">
      <defs>
       <path id="m6568c98444" d="M 0 0 
L -3.5 0 
" style="stroke: #000000; stroke-width: 0.8"/>
      </defs>
      <g>
       <use xlink:href="#m6568c98444" x="53.328125" y="152.902255" style="stroke: #000000; stroke-width: 0.8"/>
      </g>
     </g>
     <g id="text_14">
      <!-- 1400 -->
      <g transform="translate(20.878125 156.701473)scale(0.1 -0.1)">
       <defs>
        <path id="DejaVuSans-31" d="M 794 531 
L 1825 531 
L 1825 4091 
L 703 3866 
L 703 4441 
L 1819 4666 
L 2450 4666 
L 2450 531 
L 3481 531 
L 3481 0 
L 794 0 
L 794 531 
z
" transform="scale(0.015625)"/>
        <path id="DejaVuSans-34" d="M 2419 4116 
L 825 1625 
L 2419 1625 
L 2419 4116 
z
M 2253 4666 
L 3047 4666 
L 3047 1625 
L 3713 1625 
L 3713 1100 
L 3047 1100 
L 3047 0 
L 2419 0 
L 2419 1100 
L 313 1100 
L 313 1709 
L 2253 4666 
z
" transform="scale(0.015625)"/>
        <path id="DejaVuSans-30" d="M 2034 4250 
Q 1547 4250 1301 3770 
Q 1056 3291 1056 2328 
Q 1056 1369 1301 889 
Q 1547 409 2034 409 
Q 2525 409 2770 889 
Q 3016 1369 3016 2328 
Q 3016 3291 2770 3770 
Q 2525 4250 2034 4250 
z
M 2034 4750 
Q 2819 4750 3233 4129 
Q 3647 3509 3647 2328 
Q 3647 1150 3233 529 
Q 2819 -91 2034 -91 
Q 1250 -91 836 529 
Q 422 1150 422 2328 
Q 422 3509 836 4129 
Q 1250 4750 2034 4750 
z
" transform="scale(0.015625)"/>
       </defs>
       <use xlink:href="#DejaVuSans-31"/>
       <use xlink:href="#DejaVuSans-34" x="63.623047"/>
       <use xlink:href="#DejaVuSans-30" x="127.246094"/>
       <use xlink:href="#DejaVuSans-30" x="190.869141"/>
      </g>
     </g>
    </g>
    <g id="ytick_2">
     <g id="line2d_14">
      <g>
       <use xlink:href="#m6568c98444" x="53.328125" y="122.887187" style="stroke: #000000; stroke-width: 0.8"/>
      </g>
     </g>
     <g id="text_15">
      <!-- 1600 -->
      <g transform="translate(20.878125 126.686406)scale(0.1 -0.1)">
       <defs>
        <path id="DejaVuSans-36" d="M 2113 2584 
Q 1688 2584 1439 2293 
Q 1191 2003 1191 1497 
Q 1191 994 1439 701 
Q 1688 409 2113 409 
Q 2538 409 2786 701 
Q 3034 994 3034 1497 
Q 3034 2003 2786 2293 
Q 2538 2584 2113 2584 
z
M 3366 4563 
L 3366 3988 
Q 3128 4100 2886 4159 
Q 2644 4219 2406 4219 
Q 1781 4219 1451 3797 
Q 1122 3375 1075 2522 
Q 1259 2794 1537 2939 
Q 1816 3084 2150 3084 
Q 2853 3084 3261 2657 
Q 3669 2231 3669 1497 
Q 3669 778 3244 343 
Q 2819 -91 2113 -91 
Q 1303 -91 875 529 
Q 447 1150 447 2328 
Q 447 3434 972 4092 
Q 1497 4750 2381 4750 
Q 2619 4750 2861 4703 
Q 3103 4656 3366 4563 
z
" transform="scale(0.015625)"/>
       </defs>
       <use xlink:href="#DejaVuSans-31"/>
       <use xlink:href="#DejaVuSans-36" x="63.623047"/>
       <use xlink:href="#DejaVuSans-30" x="127.246094"/>
       <use xlink:href="#DejaVuSans-30" x="190.869141"/>
      </g>
     </g>
    </g>
    <g id="ytick_3">
     <g id="line2d_15">
      <g>
       <use xlink:href="#m6568c98444" x="53.328125" y="92.872119" style="stroke: #000000; stroke-width: 0.8"/>
      </g>
     </g>
     <g id="text_16">
      <!-- 1800 -->
      <g transform="translate(20.878125 96.671338)scale(0.1 -0.1)">
       <defs>
        <path id="DejaVuSans-38" d="M 2034 2216 
Q 1584 2216 1326 1975 
Q 1069 1734 1069 1313 
Q 1069 891 1326 650 
Q 1584 409 2034 409 
Q 2484 409 2743 651 
Q 3003 894 3003 1313 
Q 3003 1734 2745 1975 
Q 2488 2216 2034 2216 
z
M 1403 2484 
Q 997 2584 770 2862 
Q 544 3141 544 3541 
Q 544 4100 942 4425 
Q 1341 4750 2034 4750 
Q 2731 4750 3128 4425 
Q 3525 4100 3525 3541 
Q 3525 3141 3298 2862 
Q 3072 2584 2669 2484 
Q 3125 2378 3379 2068 
Q 3634 1759 3634 1313 
Q 3634 634 3220 271 
Q 2806 -91 2034 -91 
Q 1263 -91 848 271 
Q 434 634 434 1313 
Q 434 1759 690 2068 
Q 947 2378 1403 2484 
z
M 1172 3481 
Q 1172 3119 1398 2916 
Q 1625 2713 2034 2713 
Q 2441 2713 2670 2916 
Q 2900 3119 2900 3481 
Q 2900 3844 2670 4047 
Q 2441 4250 2034 4250 
Q 1625 4250 1398 4047 
Q 1172 3844 1172 3481 
z
" transform="scale(0.015625)"/>
       </defs>
       <use xlink:href="#DejaVuSans-31"/>
       <use xlink:href="#DejaVuSans-38" x="63.623047"/>
       <use xlink:href="#DejaVuSans-30" x="127.246094"/>
       <use xlink:href="#DejaVuSans-30" x="190.869141"/>
      </g>
     </g>
    </g>
    <g id="ytick_4">
     <g id="line2d_16">
      <g>
       <use xlink:href="#m6568c98444" x="53.328125" y="62.857051" style="stroke: #000000; stroke-width: 0.8"/>
      </g>
     </g>
     <g id="text_17">
      <!-- 2000 -->
      <g transform="translate(20.878125 66.65627)scale(0.1 -0.1)">
       <defs>
        <path id="DejaVuSans-32" d="M 1228 531 
L 3431 531 
L 3431 0 
L 469 0 
L 469 531 
Q 828 903 1448 1529 
Q 2069 2156 2228 2338 
Q 2531 2678 2651 2914 
Q 2772 3150 2772 3378 
Q 2772 3750 2511 3984 
Q 2250 4219 1831 4219 
Q 1534 4219 1204 4116 
Q 875 4013 500 3803 
L 500 4441 
Q 881 4594 1212 4672 
Q 1544 4750 1819 4750 
Q 2544 4750 2975 4387 
Q 3406 4025 3406 3419 
Q 3406 3131 3298 2873 
Q 3191 2616 2906 2266 
Q 2828 2175 2409 1742 
Q 1991 1309 1228 531 
z
" transform="scale(0.015625)"/>
       </defs>
       <use xlink:href="#DejaVuSans-32"/>
       <use xlink:href="#DejaVuSans-30" x="63.623047"/>
       <use xlink:href="#DejaVuSans-30" x="127.246094"/>
       <use xlink:href="#DejaVuSans-30" x="190.869141"/>
      </g>
     </g>
    </g>
    <g id="ytick_5">
     <g id="line2d_17">
      <g>
       <use xlink:href="#m6568c98444" x="53.328125" y="32.841983" style="stroke: #000000; stroke-width: 0.8"/>
      </g>
     </g>
     <g id="text_18">
      <!-- 2200 -->
      <g transform="translate(20.878125 36.641202)scale(0.1 -0.1)">
       <use xlink:href="#DejaVuSans-32"/>
       <use xlink:href="#DejaVuSans-32" x="63.623047"/>
       <use xlink:href="#DejaVuSans-30" x="127.246094"/>
       <use xlink:href="#DejaVuSans-30" x="190.869141"/>
      </g>
     </g>
    </g>
    <g id="text_19">
     <!-- deaths per week -->
     <g transform="translate(14.798438 137.16875)rotate(-90)scale(0.1 -0.1)">
      <defs>
       <path id="DejaVuSans-64" d="M 2906 2969 
L 2906 4863 
L 3481 4863 
L 3481 0 
L 2906 0 
L 2906 525 
Q 2725 213 2448 61 
Q 2172 -91 1784 -91 
Q 1150 -91 751 415 
Q 353 922 353 1747 
Q 353 2572 751 3078 
Q 1150 3584 1784 3584 
Q 2172 3584 2448 3432 
Q 2725 3281 2906 2969 
z
M 947 1747 
Q 947 1113 1208 752 
Q 1469 391 1925 391 
Q 2381 391 2643 752 
Q 2906 1113 2906 1747 
Q 2906 2381 2643 2742 
Q 2381 3103 1925 3103 
Q 1469 3103 1208 2742 
Q 947 2381 947 1747 
z
" transform="scale(0.015625)"/>
       <path id="DejaVuSans-73" d="M 2834 3397 
L 2834 2853 
Q 2591 2978 2328 3040 
Q 2066 3103 1784 3103 
Q 1356 3103 1142 2972 
Q 928 2841 928 2578 
Q 928 2378 1081 2264 
Q 1234 2150 1697 2047 
L 1894 2003 
Q 2506 1872 2764 1633 
Q 3022 1394 3022 966 
Q 3022 478 2636 193 
Q 2250 -91 1575 -91 
Q 1294 -91 989 -36 
Q 684 19 347 128 
L 347 722 
Q 666 556 975 473 
Q 1284 391 1588 391 
Q 1994 391 2212 530 
Q 2431 669 2431 922 
Q 2431 1156 2273 1281 
Q 2116 1406 1581 1522 
L 1381 1569 
Q 847 1681 609 1914 
Q 372 2147 372 2553 
Q 372 3047 722 3315 
Q 1072 3584 1716 3584 
Q 2034 3584 2315 3537 
Q 2597 3491 2834 3397 
z
" transform="scale(0.015625)"/>
       <path id="DejaVuSans-20" transform="scale(0.015625)"/>
       <path id="DejaVuSans-77" d="M 269 3500 
L 844 3500 
L 1563 769 
L 2278 3500 
L 2956 3500 
L 3675 769 
L 4391 3500 
L 4966 3500 
L 4050 0 
L 3372 0 
L 2619 2869 
L 1863 0 
L 1184 0 
L 269 3500 
z
" transform="scale(0.015625)"/>
       <path id="DejaVuSans-6b" d="M 581 4863 
L 1159 4863 
L 1159 1991 
L 2875 3500 
L 3609 3500 
L 1753 1863 
L 3688 0 
L 2938 0 
L 1159 1709 
L 1159 0 
L 581 0 
L 581 4863 
z
" transform="scale(0.015625)"/>
      </defs>
      <use xlink:href="#DejaVuSans-64"/>
      <use xlink:href="#DejaVuSans-65" x="63.476562"/>
      <use xlink:href="#DejaVuSans-61" x="125"/>
      <use xlink:href="#DejaVuSans-74" x="186.279297"/>
      <use xlink:href="#DejaVuSans-68" x="225.488281"/>
      <use xlink:href="#DejaVuSans-73" x="288.867188"/>
      <use xlink:href="#DejaVuSans-20" x="340.966797"/>
      <use xlink:href="#DejaVuSans-70" x="372.753906"/>
      <use xlink:href="#DejaVuSans-65" x="436.230469"/>
      <use xlink:href="#DejaVuSans-72" x="497.753906"/>
      <use xlink:href="#DejaVuSans-20" x="538.867188"/>
      <use xlink:href="#DejaVuSans-77" x="570.654297"/>
      <use xlink:href="#DejaVuSans-65" x="652.441406"/>
      <use xlink:href="#DejaVuSans-65" x="713.964844"/>
      <use xlink:href="#DejaVuSans-6b" x="775.488281"/>
     </g>
    </g>
   </g>
   <g id="line2d_18">
    <path d="M 70.621995 48.599894 
L 77.403904 70.811044 
L 84.185814 77.864585 
L 90.967724 82.366845 
L 97.749633 82.366845 
L 104.531543 95.573475 
L 111.313453 108.63003 
L 118.095362 118.985228 
L 124.877272 130.090803 
L 131.659181 119.585529 
L 138.441091 129.490502 
L 145.223001 128.8902 
L 152.00491 117.484475 
L 158.78682 114.633043 
L 165.56873 123.937714 
L 172.350639 119.88568 
L 179.132549 132.942235 
L 185.914459 134.442988 
L 192.696368 127.389447 
L 199.478278 140.145851 
L 206.260188 151.401501 
L 213.042097 140.746152 
L 219.824007 149.000296 
L 226.605917 149.450522 
L 233.387826 161.156398 
L 240.169736 151.551577 
L 246.951645 149.750673 
L 253.733555 152.452029 
L 260.515465 160.706172 
L 267.297374 140.145851 
L 274.079284 149.150371 
L 280.861194 152.752179 
L 287.643103 148.55007 
L 294.425013 143.747659 
L 301.206923 145.248412 
L 307.988832 137.59457 
L 314.770742 144.34796 
L 321.552652 149.300447 
L 328.334561 130.390954 
L 335.116471 136.093817 
L 341.898381 130.84118 
L 348.68029 123.337413 
L 355.4622 105.628523 
L 362.24411 108.329879 
L 369.026019 73.812551 
L 375.807929 58.354791 
L 382.589838 38.244696 
L 389.371748 30.140627 
L 396.153658 27.589347 
L 402.935567 67.359311 
L 409.717477 87.319332 
L 416.499387 91.071215 
" clip-path="url(#p8fbe5a613f)" style="fill: none; stroke: #1f77b4; stroke-opacity: 0.7; stroke-width: 1.5; stroke-linecap: square"/>
   </g>
   <g id="line2d_19">
    <path d="M 70.621995 55.203209 
L 77.403904 77.114208 
L 84.185814 68.559914 
L 90.967724 85.968653 
L 97.749633 95.273324 
L 104.531543 97.67453 
L 111.313453 87.919633 
L 118.095362 125.738618 
L 124.877272 129.940728 
L 131.659181 119.435454 
L 138.441091 139.8457 
L 145.223001 140.145851 
L 152.00491 131.591557 
L 158.78682 136.694118 
L 165.56873 130.691105 
L 172.350639 134.292913 
L 179.132549 124.08779 
L 185.914459 141.046303 
L 192.696368 145.698638 
L 199.478278 137.294419 
L 206.260188 153.502556 
L 213.042097 133.692611 
L 219.824007 144.197885 
L 226.605917 145.698638 
L 233.387826 163.407528 
L 240.169736 155.453535 
L 246.951645 150.350974 
L 253.733555 142.697132 
L 260.515465 148.700145 
L 267.297374 149.000296 
L 274.079284 132.792159 
L 280.861194 147.199392 
L 287.643103 142.396981 
L 294.425013 143.147358 
L 301.206923 151.701652 
L 307.988832 124.688091 
L 314.770742 143.747659 
L 321.552652 143.147358 
L 328.334561 134.743139 
L 335.116471 129.340426 
L 341.898381 135.643591 
L 348.68029 111.631536 
L 355.4622 112.381913 
L 362.24411 91.071215 
L 369.026019 84.617975 
L 375.807929 68.259763 
L 382.589838 59.405318 
L 389.371748 37.644394 
L 396.153658 43.797483 
L 402.935567 53.852531 
L 409.717477 78.464887 
L 416.499387 91.521441 
" clip-path="url(#p8fbe5a613f)" style="fill: none; stroke: #ff7f0e; stroke-opacity: 0.7; stroke-width: 1.5; stroke-linecap: square"/>
   </g>
   <g id="patch_3">
    <path d="M 53.328125 170.198437 
L 53.328125 20.798437 
" style="fill: none; stroke: #000000; stroke-width: 0.8; stroke-linejoin: miter; stroke-linecap: square"/>
   </g>
   <g id="patch_4">
    <path d="M 53.328125 170.198437 
L 433.793256 170.198437 
" style="fill: none; stroke: #000000; stroke-width: 0.8; stroke-linejoin: miter; stroke-linecap: square"/>
   </g>
   <g id="text_20">
    <!-- age = Totaal leeftijd -->
    <g transform="translate(193.420847 14.798438)scale(0.1 -0.1)">
     <defs>
      <path id="DejaVuSans-3d" d="M 678 2906 
L 4684 2906 
L 4684 2381 
L 678 2381 
L 678 2906 
z
M 678 1631 
L 4684 1631 
L 4684 1100 
L 678 1100 
L 678 1631 
z
" transform="scale(0.015625)"/>
      <path id="DejaVuSans-54" d="M -19 4666 
L 3928 4666 
L 3928 4134 
L 2272 4134 
L 2272 0 
L 1638 0 
L 1638 4134 
L -19 4134 
L -19 4666 
z
" transform="scale(0.015625)"/>
      <path id="DejaVuSans-66" d="M 2375 4863 
L 2375 4384 
L 1825 4384 
Q 1516 4384 1395 4259 
Q 1275 4134 1275 3809 
L 1275 3500 
L 2222 3500 
L 2222 3053 
L 1275 3053 
L 1275 0 
L 697 0 
L 697 3053 
L 147 3053 
L 147 3500 
L 697 3500 
L 697 3744 
Q 697 4328 969 4595 
Q 1241 4863 1831 4863 
L 2375 4863 
z
" transform="scale(0.015625)"/>
      <path id="DejaVuSans-69" d="M 603 3500 
L 1178 3500 
L 1178 0 
L 603 0 
L 603 3500 
z
M 603 4863 
L 1178 4863 
L 1178 4134 
L 603 4134 
L 603 4863 
z
" transform="scale(0.015625)"/>
      <path id="DejaVuSans-6a" d="M 603 3500 
L 1178 3500 
L 1178 -63 
Q 1178 -731 923 -1031 
Q 669 -1331 103 -1331 
L -116 -1331 
L -116 -844 
L 38 -844 
Q 366 -844 484 -692 
Q 603 -541 603 -63 
L 603 3500 
z
M 603 4863 
L 1178 4863 
L 1178 4134 
L 603 4134 
L 603 4863 
z
" transform="scale(0.015625)"/>
     </defs>
     <use xlink:href="#DejaVuSans-61"/>
     <use xlink:href="#DejaVuSans-67" x="61.279297"/>
     <use xlink:href="#DejaVuSans-65" x="124.755859"/>
     <use xlink:href="#DejaVuSans-20" x="186.279297"/>
     <use xlink:href="#DejaVuSans-3d" x="218.066406"/>
     <use xlink:href="#DejaVuSans-20" x="301.855469"/>
     <use xlink:href="#DejaVuSans-54" x="333.642578"/>
     <use xlink:href="#DejaVuSans-6f" x="377.726562"/>
     <use xlink:href="#DejaVuSans-74" x="438.908203"/>
     <use xlink:href="#DejaVuSans-61" x="478.117188"/>
     <use xlink:href="#DejaVuSans-61" x="539.396484"/>
     <use xlink:href="#DejaVuSans-6c" x="600.675781"/>
     <use xlink:href="#DejaVuSans-20" x="628.458984"/>
     <use xlink:href="#DejaVuSans-6c" x="660.246094"/>
     <use xlink:href="#DejaVuSans-65" x="688.029297"/>
     <use xlink:href="#DejaVuSans-65" x="749.552734"/>
     <use xlink:href="#DejaVuSans-66" x="811.076172"/>
     <use xlink:href="#DejaVuSans-74" x="844.53125"/>
     <use xlink:href="#DejaVuSans-69" x="883.740234"/>
     <use xlink:href="#DejaVuSans-6a" x="911.523438"/>
     <use xlink:href="#DejaVuSans-64" x="939.306641"/>
    </g>
   </g>
  </g>
  <g id="axes_2">
   <g id="patch_5">
    <path d="M 476.586265 170.198437 
L 857.051396 170.198437 
L 857.051396 20.798438 
L 476.586265 20.798438 
z
" style="fill: #ffffff"/>
   </g>
   <g id="matplotlib.axis_3">
    <g id="xtick_13">
     <g id="line2d_20">
      <g>
       <use xlink:href="#mf317efcec9" x="500.662044" y="170.198437" style="stroke: #000000; stroke-width: 0.8"/>
      </g>
     </g>
     <g id="text_21">
      <!-- Jan -->
      <g transform="translate(492.954231 184.796875)scale(0.1 -0.1)">
       <use xlink:href="#DejaVuSans-4a"/>
       <use xlink:href="#DejaVuSans-61" x="29.492188"/>
       <use xlink:href="#DejaVuSans-6e" x="90.771484"/>
      </g>
     </g>
    </g>
    <g id="xtick_14">
     <g id="line2d_21">
      <g>
       <use xlink:href="#mf317efcec9" x="530.615478" y="170.198437" style="stroke: #000000; stroke-width: 0.8"/>
      </g>
     </g>
     <g id="text_22">
      <!-- Feb -->
      <g transform="translate(521.763916 184.796875)scale(0.1 -0.1)">
       <use xlink:href="#DejaVuSans-46"/>
       <use xlink:href="#DejaVuSans-65" x="52.019531"/>
       <use xlink:href="#DejaVuSans-62" x="113.542969"/>
      </g>
     </g>
    </g>
    <g id="xtick_15">
     <g id="line2d_22">
      <g>
       <use xlink:href="#mf317efcec9" x="560.568912" y="170.198437" style="stroke: #000000; stroke-width: 0.8"/>
      </g>
     </g>
     <g id="text_23">
      <!-- Mar -->
      <g transform="translate(551.135319 184.796875)scale(0.1 -0.1)">
       <use xlink:href="#DejaVuSans-4d"/>
       <use xlink:href="#DejaVuSans-61" x="86.279297"/>
       <use xlink:href="#DejaVuSans-72" x="147.558594"/>
      </g>
     </g>
    </g>
    <g id="xtick_16">
     <g id="line2d_23">
      <g>
       <use xlink:href="#mf317efcec9" x="590.522347" y="170.198437" style="stroke: #000000; stroke-width: 0.8"/>
      </g>
     </g>
     <g id="text_24">
      <!-- Apr -->
      <g transform="translate(581.872347 184.796875)scale(0.1 -0.1)">
       <use xlink:href="#DejaVuSans-41"/>
       <use xlink:href="#DejaVuSans-70" x="68.408203"/>
       <use xlink:href="#DejaVuSans-72" x="131.884766"/>
      </g>
     </g>
    </g>
    <g id="xtick_17">
     <g id="line2d_24">
      <g>
       <use xlink:href="#mf317efcec9" x="620.475781" y="170.198437" style="stroke: #000000; stroke-width: 0.8"/>
      </g>
     </g>
     <g id="text_25">
      <!-- May -->
      <g transform="translate(610.138281 184.796875)scale(0.1 -0.1)">
       <use xlink:href="#DejaVuSans-4d"/>
       <use xlink:href="#DejaVuSans-61" x="86.279297"/>
       <use xlink:href="#DejaVuSans-79" x="147.558594"/>
      </g>
     </g>
    </g>
    <g id="xtick_18">
     <g id="line2d_25">
      <g>
       <use xlink:href="#mf317efcec9" x="650.429215" y="170.198437" style="stroke: #000000; stroke-width: 0.8"/>
      </g>
     </g>
     <g id="text_26">
      <!-- Jun -->
      <g transform="translate(642.616715 184.796875)scale(0.1 -0.1)">
       <use xlink:href="#DejaVuSans-4a"/>
       <use xlink:href="#DejaVuSans-75" x="29.492188"/>
       <use xlink:href="#DejaVuSans-6e" x="92.871094"/>
      </g>
     </g>
    </g>
    <g id="xtick_19">
     <g id="line2d_26">
      <g>
       <use xlink:href="#mf317efcec9" x="680.38265" y="170.198437" style="stroke: #000000; stroke-width: 0.8"/>
      </g>
     </g>
     <g id="text_27">
      <!-- Jul -->
      <g transform="translate(674.349837 184.796875)scale(0.1 -0.1)">
       <use xlink:href="#DejaVuSans-4a"/>
       <use xlink:href="#DejaVuSans-75" x="29.492188"/>
       <use xlink:href="#DejaVuSans-6c" x="92.871094"/>
      </g>
     </g>
    </g>
    <g id="xtick_20">
     <g id="line2d_27">
      <g>
       <use xlink:href="#mf317efcec9" x="710.336084" y="170.198437" style="stroke: #000000; stroke-width: 0.8"/>
      </g>
     </g>
     <g id="text_28">
      <!-- Aug -->
      <g transform="translate(700.572803 184.796875)scale(0.1 -0.1)">
       <use xlink:href="#DejaVuSans-41"/>
       <use xlink:href="#DejaVuSans-75" x="68.408203"/>
       <use xlink:href="#DejaVuSans-67" x="131.787109"/>
      </g>
     </g>
    </g>
    <g id="xtick_21">
     <g id="line2d_28">
      <g>
       <use xlink:href="#mf317efcec9" x="740.289518" y="170.198437" style="stroke: #000000; stroke-width: 0.8"/>
      </g>
     </g>
     <g id="text_29">
      <!-- Sept -->
      <g transform="translate(728.904362 184.796875)scale(0.1 -0.1)">
       <use xlink:href="#DejaVuSans-53"/>
       <use xlink:href="#DejaVuSans-65" x="63.476562"/>
       <use xlink:href="#DejaVuSans-70" x="125"/>
       <use xlink:href="#DejaVuSans-74" x="188.476562"/>
      </g>
     </g>
    </g>
    <g id="xtick_22">
     <g id="line2d_29">
      <g>
       <use xlink:href="#mf317efcec9" x="770.242952" y="170.198437" style="stroke: #000000; stroke-width: 0.8"/>
      </g>
     </g>
     <g id="text_30">
      <!-- Oct -->
      <g transform="translate(761.59764 184.796875)scale(0.1 -0.1)">
       <use xlink:href="#DejaVuSans-4f"/>
       <use xlink:href="#DejaVuSans-63" x="78.710938"/>
       <use xlink:href="#DejaVuSans-74" x="133.691406"/>
      </g>
     </g>
    </g>
    <g id="xtick_23">
     <g id="line2d_30">
      <g>
       <use xlink:href="#mf317efcec9" x="800.196387" y="170.198437" style="stroke: #000000; stroke-width: 0.8"/>
      </g>
     </g>
     <g id="text_31">
      <!-- Nov -->
      <g transform="translate(790.437012 184.796875)scale(0.1 -0.1)">
       <use xlink:href="#DejaVuSans-4e"/>
       <use xlink:href="#DejaVuSans-6f" x="74.804688"/>
       <use xlink:href="#DejaVuSans-76" x="135.986328"/>
      </g>
     </g>
    </g>
    <g id="xtick_24">
     <g id="line2d_31">
      <g>
       <use xlink:href="#mf317efcec9" x="830.149821" y="170.198437" style="stroke: #000000; stroke-width: 0.8"/>
      </g>
     </g>
     <g id="text_32">
      <!-- Dec -->
      <g transform="translate(820.47404 184.796875)scale(0.1 -0.1)">
       <use xlink:href="#DejaVuSans-44"/>
       <use xlink:href="#DejaVuSans-65" x="77.001953"/>
       <use xlink:href="#DejaVuSans-63" x="138.525391"/>
      </g>
     </g>
    </g>
    <g id="text_33">
     <!-- month -->
     <g transform="translate(650.591486 198.475)scale(0.1 -0.1)">
      <use xlink:href="#DejaVuSans-6d"/>
      <use xlink:href="#DejaVuSans-6f" x="97.412109"/>
      <use xlink:href="#DejaVuSans-6e" x="158.59375"/>
      <use xlink:href="#DejaVuSans-74" x="221.972656"/>
      <use xlink:href="#DejaVuSans-68" x="261.181641"/>
     </g>
    </g>
   </g>
   <g id="matplotlib.axis_4">
    <g id="ytick_6">
     <g id="line2d_32">
      <g>
       <use xlink:href="#m6568c98444" x="476.586265" y="165.954119" style="stroke: #000000; stroke-width: 0.8"/>
      </g>
     </g>
     <g id="text_34">
      <!-- 150 -->
      <g transform="translate(450.498765 169.753338)scale(0.1 -0.1)">
       <defs>
        <path id="DejaVuSans-35" d="M 691 4666 
L 3169 4666 
L 3169 4134 
L 1269 4134 
L 1269 2991 
Q 1406 3038 1543 3061 
Q 1681 3084 1819 3084 
Q 2600 3084 3056 2656 
Q 3513 2228 3513 1497 
Q 3513 744 3044 326 
Q 2575 -91 1722 -91 
Q 1428 -91 1123 -41 
Q 819 9 494 109 
L 494 744 
Q 775 591 1075 516 
Q 1375 441 1709 441 
Q 2250 441 2565 725 
Q 2881 1009 2881 1497 
Q 2881 1984 2565 2268 
Q 2250 2553 1709 2553 
Q 1456 2553 1204 2497 
Q 953 2441 691 2322 
L 691 4666 
z
" transform="scale(0.015625)"/>
       </defs>
       <use xlink:href="#DejaVuSans-31"/>
       <use xlink:href="#DejaVuSans-35" x="63.623047"/>
       <use xlink:href="#DejaVuSans-30" x="127.246094"/>
      </g>
     </g>
    </g>
    <g id="ytick_7">
     <g id="line2d_33">
      <g>
       <use xlink:href="#m6568c98444" x="476.586265" y="123.510937" style="stroke: #000000; stroke-width: 0.8"/>
      </g>
     </g>
     <g id="text_35">
      <!-- 200 -->
      <g transform="translate(450.498765 127.310156)scale(0.1 -0.1)">
       <use xlink:href="#DejaVuSans-32"/>
       <use xlink:href="#DejaVuSans-30" x="63.623047"/>
       <use xlink:href="#DejaVuSans-30" x="127.246094"/>
      </g>
     </g>
    </g>
    <g id="ytick_8">
     <g id="line2d_34">
      <g>
       <use xlink:href="#m6568c98444" x="476.586265" y="81.067756" style="stroke: #000000; stroke-width: 0.8"/>
      </g>
     </g>
     <g id="text_36">
      <!-- 250 -->
      <g transform="translate(450.498765 84.866974)scale(0.1 -0.1)">
       <use xlink:href="#DejaVuSans-32"/>
       <use xlink:href="#DejaVuSans-35" x="63.623047"/>
       <use xlink:href="#DejaVuSans-30" x="127.246094"/>
      </g>
     </g>
    </g>
    <g id="ytick_9">
     <g id="line2d_35">
      <g>
       <use xlink:href="#m6568c98444" x="476.586265" y="38.624574" style="stroke: #000000; stroke-width: 0.8"/>
      </g>
     </g>
     <g id="text_37">
      <!-- 300 -->
      <g transform="translate(450.498765 42.423793)scale(0.1 -0.1)">
       <defs>
        <path id="DejaVuSans-33" d="M 2597 2516 
Q 3050 2419 3304 2112 
Q 3559 1806 3559 1356 
Q 3559 666 3084 287 
Q 2609 -91 1734 -91 
Q 1441 -91 1130 -33 
Q 819 25 488 141 
L 488 750 
Q 750 597 1062 519 
Q 1375 441 1716 441 
Q 2309 441 2620 675 
Q 2931 909 2931 1356 
Q 2931 1769 2642 2001 
Q 2353 2234 1838 2234 
L 1294 2234 
L 1294 2753 
L 1863 2753 
Q 2328 2753 2575 2939 
Q 2822 3125 2822 3475 
Q 2822 3834 2567 4026 
Q 2313 4219 1838 4219 
Q 1578 4219 1281 4162 
Q 984 4106 628 3988 
L 628 4550 
Q 988 4650 1302 4700 
Q 1616 4750 1894 4750 
Q 2613 4750 3031 4423 
Q 3450 4097 3450 3541 
Q 3450 3153 3228 2886 
Q 3006 2619 2597 2516 
z
" transform="scale(0.015625)"/>
       </defs>
       <use xlink:href="#DejaVuSans-33"/>
       <use xlink:href="#DejaVuSans-30" x="63.623047"/>
       <use xlink:href="#DejaVuSans-30" x="127.246094"/>
      </g>
     </g>
    </g>
    <g id="text_38">
     <!-- deaths per week -->
     <g transform="translate(444.419077 137.16875)rotate(-90)scale(0.1 -0.1)">
      <use xlink:href="#DejaVuSans-64"/>
      <use xlink:href="#DejaVuSans-65" x="63.476562"/>
      <use xlink:href="#DejaVuSans-61" x="125"/>
      <use xlink:href="#DejaVuSans-74" x="186.279297"/>
      <use xlink:href="#DejaVuSans-68" x="225.488281"/>
      <use xlink:href="#DejaVuSans-73" x="288.867188"/>
      <use xlink:href="#DejaVuSans-20" x="340.966797"/>
      <use xlink:href="#DejaVuSans-70" x="372.753906"/>
      <use xlink:href="#DejaVuSans-65" x="436.230469"/>
      <use xlink:href="#DejaVuSans-72" x="497.753906"/>
      <use xlink:href="#DejaVuSans-20" x="538.867188"/>
      <use xlink:href="#DejaVuSans-77" x="570.654297"/>
      <use xlink:href="#DejaVuSans-65" x="652.441406"/>
      <use xlink:href="#DejaVuSans-65" x="713.964844"/>
      <use xlink:href="#DejaVuSans-6b" x="775.488281"/>
     </g>
    </g>
   </g>
   <g id="line2d_36">
    <path d="M 493.880134 75.974574 
L 500.662044 87.009801 
L 507.443953 90.405256 
L 514.225863 90.405256 
L 521.007773 111.626847 
L 527.789682 93.80071 
L 534.571592 75.974574 
L 541.353502 89.556392 
L 548.135411 89.556392 
L 554.917321 81.916619 
L 561.699231 82.765483 
L 568.48114 110.777983 
L 575.26305 88.707528 
L 582.04496 62.392756 
L 588.826869 89.556392 
L 595.608779 57.299574 
L 602.390689 71.730256 
L 609.172598 92.102983 
L 615.954508 32.682528 
L 622.736418 94.649574 
L 629.518327 93.80071 
L 636.300237 80.218892 
L 643.082146 85.312074 
L 649.864056 106.533665 
L 656.645966 104.835937 
L 663.427875 70.032528 
L 670.209785 78.521165 
L 676.991695 94.649574 
L 683.773604 102.289347 
L 690.555514 89.556392 
L 697.337424 96.347301 
L 704.119333 86.160937 
L 710.901243 89.556392 
L 717.683153 69.183665 
L 724.465062 67.485937 
L 731.246972 79.370028 
L 738.028882 101.440483 
L 744.810791 81.916619 
L 751.592701 75.974574 
L 758.374611 81.916619 
L 765.15652 88.707528 
L 771.93843 70.032528 
L 778.720339 78.521165 
L 785.502249 78.521165 
L 792.284159 42.868892 
L 799.066068 63.241619 
L 805.847978 35.229119 
L 812.629888 60.695028 
L 819.411797 27.589347 
L 826.193707 72.579119 
L 832.975617 59.846165 
L 839.757526 56.45071 
" clip-path="url(#p474df214ee)" style="fill: none; stroke: #1f77b4; stroke-opacity: 0.7; stroke-width: 1.5; stroke-linecap: square"/>
   </g>
   <g id="line2d_37">
    <path d="M 493.880134 143.883665 
L 500.662044 151.523437 
L 507.443953 134.546165 
L 514.225863 154.070028 
L 521.007773 152.372301 
L 527.789682 144.732528 
L 534.571592 104.835937 
L 541.353502 154.918892 
L 548.135411 143.883665 
L 554.917321 151.523437 
L 561.699231 151.523437 
L 568.48114 145.581392 
L 575.26305 146.430256 
L 582.04496 143.883665 
L 588.826869 123.510937 
L 595.608779 143.883665 
L 602.390689 143.883665 
L 609.172598 146.430256 
L 615.954508 132.848437 
L 622.736418 138.790483 
L 629.518327 155.767756 
L 636.300237 134.546165 
L 643.082146 158.314347 
L 649.864056 131.15071 
L 656.645966 141.337074 
L 663.427875 155.767756 
L 670.209785 156.616619 
L 676.991695 145.581392 
L 683.773604 163.407528 
L 690.555514 159.16321 
L 697.337424 137.092756 
L 704.119333 148.127983 
L 710.901243 150.674574 
L 717.683153 139.639347 
L 724.465062 156.616619 
L 731.246972 137.941619 
L 738.028882 121.81321 
L 744.810791 131.999574 
L 751.592701 138.790483 
L 758.374611 138.790483 
L 765.15652 120.115483 
L 771.93843 140.48821 
L 778.720339 131.15071 
L 785.502249 123.510937 
L 792.284159 141.337074 
L 799.066068 148.976847 
L 805.847978 131.999574 
L 812.629888 107.382528 
L 819.411797 108.231392 
L 826.193707 111.626847 
L 832.975617 108.231392 
L 839.757526 120.964347 
" clip-path="url(#p474df214ee)" style="fill: none; stroke: #ff7f0e; stroke-opacity: 0.7; stroke-width: 1.5; stroke-linecap: square"/>
   </g>
   <g id="patch_6">
    <path d="M 476.586265 170.198437 
L 476.586265 20.798437 
" style="fill: none; stroke: #000000; stroke-width: 0.8; stroke-linejoin: miter; stroke-linecap: square"/>
   </g>
   <g id="patch_7">
    <path d="M 476.586265 170.198437 
L 857.051396 170.198437 
" style="fill: none; stroke: #000000; stroke-width: 0.8; stroke-linejoin: miter; stroke-linecap: square"/>
   </g>
   <g id="text_39">
    <!-- age = 0 tot 65 jaar -->
    <g transform="translate(619.272736 14.798438)scale(0.1 -0.1)">
     <use xlink:href="#DejaVuSans-61"/>
     <use xlink:href="#DejaVuSans-67" x="61.279297"/>
     <use xlink:href="#DejaVuSans-65" x="124.755859"/>
     <use xlink:href="#DejaVuSans-20" x="186.279297"/>
     <use xlink:href="#DejaVuSans-3d" x="218.066406"/>
     <use xlink:href="#DejaVuSans-20" x="301.855469"/>
     <use xlink:href="#DejaVuSans-30" x="333.642578"/>
     <use xlink:href="#DejaVuSans-20" x="397.265625"/>
     <use xlink:href="#DejaVuSans-74" x="429.052734"/>
     <use xlink:href="#DejaVuSans-6f" x="468.261719"/>
     <use xlink:href="#DejaVuSans-74" x="529.443359"/>
     <use xlink:href="#DejaVuSans-20" x="568.652344"/>
     <use xlink:href="#DejaVuSans-36" x="600.439453"/>
     <use xlink:href="#DejaVuSans-35" x="664.0625"/>
     <use xlink:href="#DejaVuSans-20" x="727.685547"/>
     <use xlink:href="#DejaVuSans-6a" x="759.472656"/>
     <use xlink:href="#DejaVuSans-61" x="787.255859"/>
     <use xlink:href="#DejaVuSans-61" x="848.535156"/>
     <use xlink:href="#DejaVuSans-72" x="909.814453"/>
    </g>
   </g>
  </g>
  <g id="axes_3">
   <g id="patch_8">
    <path d="M 899.844404 170.198437 
L 1280.309535 170.198437 
L 1280.309535 20.798438 
L 899.844404 20.798438 
z
" style="fill: #ffffff"/>
   </g>
   <g id="matplotlib.axis_5">
    <g id="xtick_25">
     <g id="line2d_38">
      <g>
       <use xlink:href="#mf317efcec9" x="923.920183" y="170.198437" style="stroke: #000000; stroke-width: 0.8"/>
      </g>
     </g>
     <g id="text_40">
      <!-- Jan -->
      <g transform="translate(916.212371 184.796875)scale(0.1 -0.1)">
       <use xlink:href="#DejaVuSans-4a"/>
       <use xlink:href="#DejaVuSans-61" x="29.492188"/>
       <use xlink:href="#DejaVuSans-6e" x="90.771484"/>
      </g>
     </g>
    </g>
    <g id="xtick_26">
     <g id="line2d_39">
      <g>
       <use xlink:href="#mf317efcec9" x="953.873618" y="170.198437" style="stroke: #000000; stroke-width: 0.8"/>
      </g>
     </g>
     <g id="text_41">
      <!-- Feb -->
      <g transform="translate(945.022055 184.796875)scale(0.1 -0.1)">
       <use xlink:href="#DejaVuSans-46"/>
       <use xlink:href="#DejaVuSans-65" x="52.019531"/>
       <use xlink:href="#DejaVuSans-62" x="113.542969"/>
      </g>
     </g>
    </g>
    <g id="xtick_27">
     <g id="line2d_40">
      <g>
       <use xlink:href="#mf317efcec9" x="983.827052" y="170.198437" style="stroke: #000000; stroke-width: 0.8"/>
      </g>
     </g>
     <g id="text_42">
      <!-- Mar -->
      <g transform="translate(974.393458 184.796875)scale(0.1 -0.1)">
       <use xlink:href="#DejaVuSans-4d"/>
       <use xlink:href="#DejaVuSans-61" x="86.279297"/>
       <use xlink:href="#DejaVuSans-72" x="147.558594"/>
      </g>
     </g>
    </g>
    <g id="xtick_28">
     <g id="line2d_41">
      <g>
       <use xlink:href="#mf317efcec9" x="1013.780486" y="170.198437" style="stroke: #000000; stroke-width: 0.8"/>
      </g>
     </g>
     <g id="text_43">
      <!-- Apr -->
      <g transform="translate(1005.130486 184.796875)scale(0.1 -0.1)">
       <use xlink:href="#DejaVuSans-41"/>
       <use xlink:href="#DejaVuSans-70" x="68.408203"/>
       <use xlink:href="#DejaVuSans-72" x="131.884766"/>
      </g>
     </g>
    </g>
    <g id="xtick_29">
     <g id="line2d_42">
      <g>
       <use xlink:href="#mf317efcec9" x="1043.733921" y="170.198437" style="stroke: #000000; stroke-width: 0.8"/>
      </g>
     </g>
     <g id="text_44">
      <!-- May -->
      <g transform="translate(1033.396421 184.796875)scale(0.1 -0.1)">
       <use xlink:href="#DejaVuSans-4d"/>
       <use xlink:href="#DejaVuSans-61" x="86.279297"/>
       <use xlink:href="#DejaVuSans-79" x="147.558594"/>
      </g>
     </g>
    </g>
    <g id="xtick_30">
     <g id="line2d_43">
      <g>
       <use xlink:href="#mf317efcec9" x="1073.687355" y="170.198437" style="stroke: #000000; stroke-width: 0.8"/>
      </g>
     </g>
     <g id="text_45">
      <!-- Jun -->
      <g transform="translate(1065.874855 184.796875)scale(0.1 -0.1)">
       <use xlink:href="#DejaVuSans-4a"/>
       <use xlink:href="#DejaVuSans-75" x="29.492188"/>
       <use xlink:href="#DejaVuSans-6e" x="92.871094"/>
      </g>
     </g>
    </g>
    <g id="xtick_31">
     <g id="line2d_44">
      <g>
       <use xlink:href="#mf317efcec9" x="1103.640789" y="170.198437" style="stroke: #000000; stroke-width: 0.8"/>
      </g>
     </g>
     <g id="text_46">
      <!-- Jul -->
      <g transform="translate(1097.607977 184.796875)scale(0.1 -0.1)">
       <use xlink:href="#DejaVuSans-4a"/>
       <use xlink:href="#DejaVuSans-75" x="29.492188"/>
       <use xlink:href="#DejaVuSans-6c" x="92.871094"/>
      </g>
     </g>
    </g>
    <g id="xtick_32">
     <g id="line2d_45">
      <g>
       <use xlink:href="#mf317efcec9" x="1133.594223" y="170.198437" style="stroke: #000000; stroke-width: 0.8"/>
      </g>
     </g>
     <g id="text_47">
      <!-- Aug -->
      <g transform="translate(1123.830942 184.796875)scale(0.1 -0.1)">
       <use xlink:href="#DejaVuSans-41"/>
       <use xlink:href="#DejaVuSans-75" x="68.408203"/>
       <use xlink:href="#DejaVuSans-67" x="131.787109"/>
      </g>
     </g>
    </g>
    <g id="xtick_33">
     <g id="line2d_46">
      <g>
       <use xlink:href="#mf317efcec9" x="1163.547658" y="170.198437" style="stroke: #000000; stroke-width: 0.8"/>
      </g>
     </g>
     <g id="text_48">
      <!-- Sept -->
      <g transform="translate(1152.162501 184.796875)scale(0.1 -0.1)">
       <use xlink:href="#DejaVuSans-53"/>
       <use xlink:href="#DejaVuSans-65" x="63.476562"/>
       <use xlink:href="#DejaVuSans-70" x="125"/>
       <use xlink:href="#DejaVuSans-74" x="188.476562"/>
      </g>
     </g>
    </g>
    <g id="xtick_34">
     <g id="line2d_47">
      <g>
       <use xlink:href="#mf317efcec9" x="1193.501092" y="170.198437" style="stroke: #000000; stroke-width: 0.8"/>
      </g>
     </g>
     <g id="text_49">
      <!-- Oct -->
      <g transform="translate(1184.855779 184.796875)scale(0.1 -0.1)">
       <use xlink:href="#DejaVuSans-4f"/>
       <use xlink:href="#DejaVuSans-63" x="78.710938"/>
       <use xlink:href="#DejaVuSans-74" x="133.691406"/>
      </g>
     </g>
    </g>
    <g id="xtick_35">
     <g id="line2d_48">
      <g>
       <use xlink:href="#mf317efcec9" x="1223.454526" y="170.198437" style="stroke: #000000; stroke-width: 0.8"/>
      </g>
     </g>
     <g id="text_50">
      <!-- Nov -->
      <g transform="translate(1213.695151 184.796875)scale(0.1 -0.1)">
       <use xlink:href="#DejaVuSans-4e"/>
       <use xlink:href="#DejaVuSans-6f" x="74.804688"/>
       <use xlink:href="#DejaVuSans-76" x="135.986328"/>
      </g>
     </g>
    </g>
    <g id="xtick_36">
     <g id="line2d_49">
      <g>
       <use xlink:href="#mf317efcec9" x="1253.407961" y="170.198437" style="stroke: #000000; stroke-width: 0.8"/>
      </g>
     </g>
     <g id="text_51">
      <!-- Dec -->
      <g transform="translate(1243.732179 184.796875)scale(0.1 -0.1)">
       <use xlink:href="#DejaVuSans-44"/>
       <use xlink:href="#DejaVuSans-65" x="77.001953"/>
       <use xlink:href="#DejaVuSans-63" x="138.525391"/>
      </g>
     </g>
    </g>
    <g id="text_52">
     <!-- month -->
     <g transform="translate(1073.849626 198.475)scale(0.1 -0.1)">
      <use xlink:href="#DejaVuSans-6d"/>
      <use xlink:href="#DejaVuSans-6f" x="97.412109"/>
      <use xlink:href="#DejaVuSans-6e" x="158.59375"/>
      <use xlink:href="#DejaVuSans-74" x="221.972656"/>
      <use xlink:href="#DejaVuSans-68" x="261.181641"/>
     </g>
    </g>
   </g>
   <g id="matplotlib.axis_6">
    <g id="ytick_10">
     <g id="line2d_50">
      <g>
       <use xlink:href="#m6568c98444" x="899.844404" y="142.977251" style="stroke: #000000; stroke-width: 0.8"/>
      </g>
     </g>
     <g id="text_53">
      <!-- 400 -->
      <g transform="translate(873.756904 146.77647)scale(0.1 -0.1)">
       <use xlink:href="#DejaVuSans-34"/>
       <use xlink:href="#DejaVuSans-30" x="63.623047"/>
       <use xlink:href="#DejaVuSans-30" x="127.246094"/>
      </g>
     </g>
    </g>
    <g id="ytick_11">
     <g id="line2d_51">
      <g>
       <use xlink:href="#m6568c98444" x="899.844404" y="114.202213" style="stroke: #000000; stroke-width: 0.8"/>
      </g>
     </g>
     <g id="text_54">
      <!-- 500 -->
      <g transform="translate(873.756904 118.001431)scale(0.1 -0.1)">
       <use xlink:href="#DejaVuSans-35"/>
       <use xlink:href="#DejaVuSans-30" x="63.623047"/>
       <use xlink:href="#DejaVuSans-30" x="127.246094"/>
      </g>
     </g>
    </g>
    <g id="ytick_12">
     <g id="line2d_52">
      <g>
       <use xlink:href="#m6568c98444" x="899.844404" y="85.427174" style="stroke: #000000; stroke-width: 0.8"/>
      </g>
     </g>
     <g id="text_55">
      <!-- 600 -->
      <g transform="translate(873.756904 89.226393)scale(0.1 -0.1)">
       <use xlink:href="#DejaVuSans-36"/>
       <use xlink:href="#DejaVuSans-30" x="63.623047"/>
       <use xlink:href="#DejaVuSans-30" x="127.246094"/>
      </g>
     </g>
    </g>
    <g id="ytick_13">
     <g id="line2d_53">
      <g>
       <use xlink:href="#m6568c98444" x="899.844404" y="56.652135" style="stroke: #000000; stroke-width: 0.8"/>
      </g>
     </g>
     <g id="text_56">
      <!-- 700 -->
      <g transform="translate(873.756904 60.451354)scale(0.1 -0.1)">
       <defs>
        <path id="DejaVuSans-37" d="M 525 4666 
L 3525 4666 
L 3525 4397 
L 1831 0 
L 1172 0 
L 2766 4134 
L 525 4134 
L 525 4666 
z
" transform="scale(0.015625)"/>
       </defs>
       <use xlink:href="#DejaVuSans-37"/>
       <use xlink:href="#DejaVuSans-30" x="63.623047"/>
       <use xlink:href="#DejaVuSans-30" x="127.246094"/>
      </g>
     </g>
    </g>
    <g id="ytick_14">
     <g id="line2d_54">
      <g>
       <use xlink:href="#m6568c98444" x="899.844404" y="27.877097" style="stroke: #000000; stroke-width: 0.8"/>
      </g>
     </g>
     <g id="text_57">
      <!-- 800 -->
      <g transform="translate(873.756904 31.676316)scale(0.1 -0.1)">
       <use xlink:href="#DejaVuSans-38"/>
       <use xlink:href="#DejaVuSans-30" x="63.623047"/>
       <use xlink:href="#DejaVuSans-30" x="127.246094"/>
      </g>
     </g>
    </g>
    <g id="text_58">
     <!-- deaths per week -->
     <g transform="translate(867.677217 137.16875)rotate(-90)scale(0.1 -0.1)">
      <use xlink:href="#DejaVuSans-64"/>
      <use xlink:href="#DejaVuSans-65" x="63.476562"/>
      <use xlink:href="#DejaVuSans-61" x="125"/>
      <use xlink:href="#DejaVuSans-74" x="186.279297"/>
      <use xlink:href="#DejaVuSans-68" x="225.488281"/>
      <use xlink:href="#DejaVuSans-73" x="288.867188"/>
      <use xlink:href="#DejaVuSans-20" x="340.966797"/>
      <use xlink:href="#DejaVuSans-70" x="372.753906"/>
      <use xlink:href="#DejaVuSans-65" x="436.230469"/>
      <use xlink:href="#DejaVuSans-72" x="497.753906"/>
      <use xlink:href="#DejaVuSans-20" x="538.867188"/>
      <use xlink:href="#DejaVuSans-77" x="570.654297"/>
      <use xlink:href="#DejaVuSans-65" x="652.441406"/>
      <use xlink:href="#DejaVuSans-65" x="713.964844"/>
      <use xlink:href="#DejaVuSans-6b" x="775.488281"/>
     </g>
    </g>
   </g>
   <g id="line2d_55">
    <path d="M 917.138274 59.529639 
L 923.920183 70.176404 
L 930.702093 76.219162 
L 937.484003 68.162151 
L 944.265912 70.751904 
L 951.047822 72.478407 
L 957.829732 83.988422 
L 964.611641 89.167929 
L 971.393551 93.196434 
L 978.175461 90.606681 
L 984.95737 94.922937 
L 991.73928 78.233414 
L 998.52119 85.714924 
L 1005.303099 72.478407 
L 1012.085009 75.355911 
L 1018.866918 80.823168 
L 1025.648828 85.714924 
L 1032.430738 86.865926 
L 1039.212647 95.210687 
L 1045.994557 82.54967 
L 1052.776467 113.626712 
L 1059.558376 108.447205 
L 1066.340286 109.022706 
L 1073.122196 108.734955 
L 1079.904105 108.447205 
L 1086.686015 114.489963 
L 1093.467925 110.461458 
L 1100.249834 110.749208 
L 1107.031744 111.324709 
L 1113.813654 103.267698 
L 1120.595563 118.806219 
L 1127.377473 112.18796 
L 1134.159383 107.583954 
L 1140.941292 100.677944 
L 1147.723202 107.583954 
L 1154.505111 92.620934 
L 1161.287021 100.677944 
L 1168.068931 110.749208 
L 1174.85084 99.239193 
L 1181.63275 97.22494 
L 1188.41466 88.880179 
L 1195.196569 97.800441 
L 1201.978479 79.672166 
L 1208.760389 70.464154 
L 1215.542298 64.421396 
L 1222.324208 50.897128 
L 1229.106118 38.523861 
L 1235.888027 38.523861 
L 1242.669937 27.589347 
L 1249.451847 50.033877 
L 1256.233756 70.751904 
L 1263.015666 64.709146 
" clip-path="url(#p8098cddd32)" style="fill: none; stroke: #1f77b4; stroke-opacity: 0.7; stroke-width: 1.5; stroke-linecap: square"/>
   </g>
   <g id="line2d_56">
    <path d="M 917.138274 117.367467 
L 923.920183 126.287729 
L 930.702093 127.15098 
L 937.484003 129.740733 
L 944.265912 128.589732 
L 951.047822 128.014231 
L 957.829732 133.193738 
L 964.611641 143.552752 
L 971.393551 144.128253 
L 978.175461 140.675248 
L 984.95737 137.797744 
L 991.73928 147.869008 
L 998.52119 130.891735 
L 1005.303099 142.40175 
L 1012.085009 130.316234 
L 1018.866918 142.114 
L 1025.648828 129.452983 
L 1032.430738 134.92024 
L 1039.212647 151.322012 
L 1045.994557 138.373245 
L 1052.776467 153.048515 
L 1059.558376 135.495741 
L 1066.340286 140.099747 
L 1073.122196 149.30776 
L 1079.904105 163.407528 
L 1086.686015 152.760764 
L 1093.467925 147.869008 
L 1100.249834 146.430256 
L 1107.031744 143.265001 
L 1113.813654 141.82625 
L 1120.595563 132.042736 
L 1127.377473 149.59551 
L 1134.159383 143.840502 
L 1140.941292 143.840502 
L 1147.723202 153.911766 
L 1154.505111 129.165233 
L 1161.287021 147.293507 
L 1168.068931 138.948746 
L 1174.85084 133.193738 
L 1181.63275 129.452983 
L 1188.41466 148.732259 
L 1195.196569 128.014231 
L 1201.978479 136.071242 
L 1208.760389 119.093969 
L 1215.542298 111.036958 
L 1222.324208 115.353214 
L 1229.106118 112.18796 
L 1235.888027 95.210687 
L 1242.669937 111.036958 
L 1249.451847 109.885957 
L 1256.233756 117.367467 
L 1263.015666 124.848977 
" clip-path="url(#p8098cddd32)" style="fill: none; stroke: #ff7f0e; stroke-opacity: 0.7; stroke-width: 1.5; stroke-linecap: square"/>
   </g>
   <g id="patch_9">
    <path d="M 899.844404 170.198437 
L 899.844404 20.798437 
" style="fill: none; stroke: #000000; stroke-width: 0.8; stroke-linejoin: miter; stroke-linecap: square"/>
   </g>
   <g id="patch_10">
    <path d="M 899.844404 170.198437 
L 1280.309535 170.198437 
" style="fill: none; stroke: #000000; stroke-width: 0.8; stroke-linejoin: miter; stroke-linecap: square"/>
   </g>
   <g id="text_59">
    <!-- age = 65 tot 80 jaar -->
    <g transform="translate(1039.349626 14.798438)scale(0.1 -0.1)">
     <use xlink:href="#DejaVuSans-61"/>
     <use xlink:href="#DejaVuSans-67" x="61.279297"/>
     <use xlink:href="#DejaVuSans-65" x="124.755859"/>
     <use xlink:href="#DejaVuSans-20" x="186.279297"/>
     <use xlink:href="#DejaVuSans-3d" x="218.066406"/>
     <use xlink:href="#DejaVuSans-20" x="301.855469"/>
     <use xlink:href="#DejaVuSans-36" x="333.642578"/>
     <use xlink:href="#DejaVuSans-35" x="397.265625"/>
     <use xlink:href="#DejaVuSans-20" x="460.888672"/>
     <use xlink:href="#DejaVuSans-74" x="492.675781"/>
     <use xlink:href="#DejaVuSans-6f" x="531.884766"/>
     <use xlink:href="#DejaVuSans-74" x="593.066406"/>
     <use xlink:href="#DejaVuSans-20" x="632.275391"/>
     <use xlink:href="#DejaVuSans-38" x="664.0625"/>
     <use xlink:href="#DejaVuSans-30" x="727.685547"/>
     <use xlink:href="#DejaVuSans-20" x="791.308594"/>
     <use xlink:href="#DejaVuSans-6a" x="823.095703"/>
     <use xlink:href="#DejaVuSans-61" x="850.878906"/>
     <use xlink:href="#DejaVuSans-61" x="912.158203"/>
     <use xlink:href="#DejaVuSans-72" x="973.4375"/>
    </g>
   </g>
  </g>
  <g id="axes_4">
   <g id="patch_11">
    <path d="M 1323.102544 170.198437 
L 1703.567675 170.198437 
L 1703.567675 20.798438 
L 1323.102544 20.798438 
z
" style="fill: #ffffff"/>
   </g>
   <g id="matplotlib.axis_7">
    <g id="xtick_37">
     <g id="line2d_57">
      <g>
       <use xlink:href="#mf317efcec9" x="1347.178323" y="170.198437" style="stroke: #000000; stroke-width: 0.8"/>
      </g>
     </g>
     <g id="text_60">
      <!-- Jan -->
      <g transform="translate(1339.47051 184.796875)scale(0.1 -0.1)">
       <use xlink:href="#DejaVuSans-4a"/>
       <use xlink:href="#DejaVuSans-61" x="29.492188"/>
       <use xlink:href="#DejaVuSans-6e" x="90.771484"/>
      </g>
     </g>
    </g>
    <g id="xtick_38">
     <g id="line2d_58">
      <g>
       <use xlink:href="#mf317efcec9" x="1377.131757" y="170.198437" style="stroke: #000000; stroke-width: 0.8"/>
      </g>
     </g>
     <g id="text_61">
      <!-- Feb -->
      <g transform="translate(1368.280195 184.796875)scale(0.1 -0.1)">
       <use xlink:href="#DejaVuSans-46"/>
       <use xlink:href="#DejaVuSans-65" x="52.019531"/>
       <use xlink:href="#DejaVuSans-62" x="113.542969"/>
      </g>
     </g>
    </g>
    <g id="xtick_39">
     <g id="line2d_59">
      <g>
       <use xlink:href="#mf317efcec9" x="1407.085192" y="170.198437" style="stroke: #000000; stroke-width: 0.8"/>
      </g>
     </g>
     <g id="text_62">
      <!-- Mar -->
      <g transform="translate(1397.651598 184.796875)scale(0.1 -0.1)">
       <use xlink:href="#DejaVuSans-4d"/>
       <use xlink:href="#DejaVuSans-61" x="86.279297"/>
       <use xlink:href="#DejaVuSans-72" x="147.558594"/>
      </g>
     </g>
    </g>
    <g id="xtick_40">
     <g id="line2d_60">
      <g>
       <use xlink:href="#mf317efcec9" x="1437.038626" y="170.198437" style="stroke: #000000; stroke-width: 0.8"/>
      </g>
     </g>
     <g id="text_63">
      <!-- Apr -->
      <g transform="translate(1428.388626 184.796875)scale(0.1 -0.1)">
       <use xlink:href="#DejaVuSans-41"/>
       <use xlink:href="#DejaVuSans-70" x="68.408203"/>
       <use xlink:href="#DejaVuSans-72" x="131.884766"/>
      </g>
     </g>
    </g>
    <g id="xtick_41">
     <g id="line2d_61">
      <g>
       <use xlink:href="#mf317efcec9" x="1466.99206" y="170.198437" style="stroke: #000000; stroke-width: 0.8"/>
      </g>
     </g>
     <g id="text_64">
      <!-- May -->
      <g transform="translate(1456.65456 184.796875)scale(0.1 -0.1)">
       <use xlink:href="#DejaVuSans-4d"/>
       <use xlink:href="#DejaVuSans-61" x="86.279297"/>
       <use xlink:href="#DejaVuSans-79" x="147.558594"/>
      </g>
     </g>
    </g>
    <g id="xtick_42">
     <g id="line2d_62">
      <g>
       <use xlink:href="#mf317efcec9" x="1496.945494" y="170.198437" style="stroke: #000000; stroke-width: 0.8"/>
      </g>
     </g>
     <g id="text_65">
      <!-- Jun -->
      <g transform="translate(1489.132994 184.796875)scale(0.1 -0.1)">
       <use xlink:href="#DejaVuSans-4a"/>
       <use xlink:href="#DejaVuSans-75" x="29.492188"/>
       <use xlink:href="#DejaVuSans-6e" x="92.871094"/>
      </g>
     </g>
    </g>
    <g id="xtick_43">
     <g id="line2d_63">
      <g>
       <use xlink:href="#mf317efcec9" x="1526.898929" y="170.198437" style="stroke: #000000; stroke-width: 0.8"/>
      </g>
     </g>
     <g id="text_66">
      <!-- Jul -->
      <g transform="translate(1520.866116 184.796875)scale(0.1 -0.1)">
       <use xlink:href="#DejaVuSans-4a"/>
       <use xlink:href="#DejaVuSans-75" x="29.492188"/>
       <use xlink:href="#DejaVuSans-6c" x="92.871094"/>
      </g>
     </g>
    </g>
    <g id="xtick_44">
     <g id="line2d_64">
      <g>
       <use xlink:href="#mf317efcec9" x="1556.852363" y="170.198437" style="stroke: #000000; stroke-width: 0.8"/>
      </g>
     </g>
     <g id="text_67">
      <!-- Aug -->
      <g transform="translate(1547.089082 184.796875)scale(0.1 -0.1)">
       <use xlink:href="#DejaVuSans-41"/>
       <use xlink:href="#DejaVuSans-75" x="68.408203"/>
       <use xlink:href="#DejaVuSans-67" x="131.787109"/>
      </g>
     </g>
    </g>
    <g id="xtick_45">
     <g id="line2d_65">
      <g>
       <use xlink:href="#mf317efcec9" x="1586.805797" y="170.198437" style="stroke: #000000; stroke-width: 0.8"/>
      </g>
     </g>
     <g id="text_68">
      <!-- Sept -->
      <g transform="translate(1575.420641 184.796875)scale(0.1 -0.1)">
       <use xlink:href="#DejaVuSans-53"/>
       <use xlink:href="#DejaVuSans-65" x="63.476562"/>
       <use xlink:href="#DejaVuSans-70" x="125"/>
       <use xlink:href="#DejaVuSans-74" x="188.476562"/>
      </g>
     </g>
    </g>
    <g id="xtick_46">
     <g id="line2d_66">
      <g>
       <use xlink:href="#mf317efcec9" x="1616.759232" y="170.198437" style="stroke: #000000; stroke-width: 0.8"/>
      </g>
     </g>
     <g id="text_69">
      <!-- Oct -->
      <g transform="translate(1608.113919 184.796875)scale(0.1 -0.1)">
       <use xlink:href="#DejaVuSans-4f"/>
       <use xlink:href="#DejaVuSans-63" x="78.710938"/>
       <use xlink:href="#DejaVuSans-74" x="133.691406"/>
      </g>
     </g>
    </g>
    <g id="xtick_47">
     <g id="line2d_67">
      <g>
       <use xlink:href="#mf317efcec9" x="1646.712666" y="170.198437" style="stroke: #000000; stroke-width: 0.8"/>
      </g>
     </g>
     <g id="text_70">
      <!-- Nov -->
      <g transform="translate(1636.953291 184.796875)scale(0.1 -0.1)">
       <use xlink:href="#DejaVuSans-4e"/>
       <use xlink:href="#DejaVuSans-6f" x="74.804688"/>
       <use xlink:href="#DejaVuSans-76" x="135.986328"/>
      </g>
     </g>
    </g>
    <g id="xtick_48">
     <g id="line2d_68">
      <g>
       <use xlink:href="#mf317efcec9" x="1676.6661" y="170.198437" style="stroke: #000000; stroke-width: 0.8"/>
      </g>
     </g>
     <g id="text_71">
      <!-- Dec -->
      <g transform="translate(1666.990319 184.796875)scale(0.1 -0.1)">
       <use xlink:href="#DejaVuSans-44"/>
       <use xlink:href="#DejaVuSans-65" x="77.001953"/>
       <use xlink:href="#DejaVuSans-63" x="138.525391"/>
      </g>
     </g>
    </g>
    <g id="text_72">
     <!-- month -->
     <g transform="translate(1497.107766 198.475)scale(0.1 -0.1)">
      <use xlink:href="#DejaVuSans-6d"/>
      <use xlink:href="#DejaVuSans-6f" x="97.412109"/>
      <use xlink:href="#DejaVuSans-6e" x="158.59375"/>
      <use xlink:href="#DejaVuSans-74" x="221.972656"/>
      <use xlink:href="#DejaVuSans-68" x="261.181641"/>
     </g>
    </g>
   </g>
   <g id="matplotlib.axis_8">
    <g id="ytick_15">
     <g id="line2d_69">
      <g>
       <use xlink:href="#m6568c98444" x="1323.102544" y="163.92005" style="stroke: #000000; stroke-width: 0.8"/>
      </g>
     </g>
     <g id="text_73">
      <!-- 600 -->
      <g transform="translate(1297.015044 167.719269)scale(0.1 -0.1)">
       <use xlink:href="#DejaVuSans-36"/>
       <use xlink:href="#DejaVuSans-30" x="63.623047"/>
       <use xlink:href="#DejaVuSans-30" x="127.246094"/>
      </g>
     </g>
    </g>
    <g id="ytick_16">
     <g id="line2d_70">
      <g>
       <use xlink:href="#m6568c98444" x="1323.102544" y="129.751954" style="stroke: #000000; stroke-width: 0.8"/>
      </g>
     </g>
     <g id="text_74">
      <!-- 800 -->
      <g transform="translate(1297.015044 133.551173)scale(0.1 -0.1)">
       <use xlink:href="#DejaVuSans-38"/>
       <use xlink:href="#DejaVuSans-30" x="63.623047"/>
       <use xlink:href="#DejaVuSans-30" x="127.246094"/>
      </g>
     </g>
    </g>
    <g id="ytick_17">
     <g id="line2d_71">
      <g>
       <use xlink:href="#m6568c98444" x="1323.102544" y="95.583858" style="stroke: #000000; stroke-width: 0.8"/>
      </g>
     </g>
     <g id="text_75">
      <!-- 1000 -->
      <g transform="translate(1290.652544 99.383076)scale(0.1 -0.1)">
       <use xlink:href="#DejaVuSans-31"/>
       <use xlink:href="#DejaVuSans-30" x="63.623047"/>
       <use xlink:href="#DejaVuSans-30" x="127.246094"/>
       <use xlink:href="#DejaVuSans-30" x="190.869141"/>
      </g>
     </g>
    </g>
    <g id="ytick_18">
     <g id="line2d_72">
      <g>
       <use xlink:href="#m6568c98444" x="1323.102544" y="61.415762" style="stroke: #000000; stroke-width: 0.8"/>
      </g>
     </g>
     <g id="text_76">
      <!-- 1200 -->
      <g transform="translate(1290.652544 65.21498)scale(0.1 -0.1)">
       <use xlink:href="#DejaVuSans-31"/>
       <use xlink:href="#DejaVuSans-32" x="63.623047"/>
       <use xlink:href="#DejaVuSans-30" x="127.246094"/>
       <use xlink:href="#DejaVuSans-30" x="190.869141"/>
      </g>
     </g>
    </g>
    <g id="ytick_19">
     <g id="line2d_73">
      <g>
       <use xlink:href="#m6568c98444" x="1323.102544" y="27.247666" style="stroke: #000000; stroke-width: 0.8"/>
      </g>
     </g>
     <g id="text_77">
      <!-- 1400 -->
      <g transform="translate(1290.652544 31.046884)scale(0.1 -0.1)">
       <use xlink:href="#DejaVuSans-31"/>
       <use xlink:href="#DejaVuSans-34" x="63.623047"/>
       <use xlink:href="#DejaVuSans-30" x="127.246094"/>
       <use xlink:href="#DejaVuSans-30" x="190.869141"/>
      </g>
     </g>
    </g>
    <g id="text_78">
     <!-- deaths per week -->
     <g transform="translate(1284.572856 137.16875)rotate(-90)scale(0.1 -0.1)">
      <use xlink:href="#DejaVuSans-64"/>
      <use xlink:href="#DejaVuSans-65" x="63.476562"/>
      <use xlink:href="#DejaVuSans-61" x="125"/>
      <use xlink:href="#DejaVuSans-74" x="186.279297"/>
      <use xlink:href="#DejaVuSans-68" x="225.488281"/>
      <use xlink:href="#DejaVuSans-73" x="288.867188"/>
      <use xlink:href="#DejaVuSans-20" x="340.966797"/>
      <use xlink:href="#DejaVuSans-70" x="372.753906"/>
      <use xlink:href="#DejaVuSans-65" x="436.230469"/>
      <use xlink:href="#DejaVuSans-72" x="497.753906"/>
      <use xlink:href="#DejaVuSans-20" x="538.867188"/>
      <use xlink:href="#DejaVuSans-77" x="570.654297"/>
      <use xlink:href="#DejaVuSans-65" x="652.441406"/>
      <use xlink:href="#DejaVuSans-65" x="713.964844"/>
      <use xlink:href="#DejaVuSans-6b" x="775.488281"/>
     </g>
    </g>
   </g>
   <g id="line2d_74">
    <path d="M 1340.396413 70.128626 
L 1347.178323 86.870993 
L 1353.960233 90.629484 
L 1360.742142 100.538232 
L 1367.524052 94.729655 
L 1374.305962 112.326225 
L 1381.087871 123.943377 
L 1387.869781 129.922794 
L 1394.651691 140.173223 
L 1401.4336 131.289518 
L 1408.21551 139.831542 
L 1414.997419 143.419192 
L 1421.779329 130.435316 
L 1428.561239 140.344064 
L 1435.343148 143.760873 
L 1442.125058 142.394149 
L 1448.906968 151.448695 
L 1455.688877 148.373566 
L 1462.470787 147.348523 
L 1469.252697 156.91559 
L 1476.034606 151.448695 
L 1482.816516 145.127597 
L 1489.598426 153.1571 
L 1496.380335 149.56945 
L 1503.162245 163.407528 
L 1509.944155 155.890547 
L 1516.726064 154.523823 
L 1523.507974 154.182142 
L 1530.289884 161.699124 
L 1537.071793 145.640118 
L 1543.853703 145.298437 
L 1550.635612 155.378026 
L 1557.417522 152.644578 
L 1564.199432 155.378026 
L 1570.981341 153.32794 
L 1577.763251 151.107014 
L 1584.545161 149.56945 
L 1591.32707 153.1571 
L 1598.10898 139.660702 
L 1604.89089 146.15264 
L 1611.672799 143.760873 
L 1618.454709 133.681285 
L 1625.236619 122.576654 
L 1632.018528 131.118678 
L 1638.800438 102.588317 
L 1645.582348 88.921079 
L 1652.364257 79.012331 
L 1659.146167 64.661731 
L 1665.928077 74.91216 
L 1672.709986 97.804784 
L 1679.491896 110.78866 
L 1686.273805 119.330684 
" clip-path="url(#p42e2661eda)" style="fill: none; stroke: #1f77b4; stroke-opacity: 0.7; stroke-width: 1.5; stroke-linecap: square"/>
   </g>
   <g id="line2d_75">
    <path d="M 1340.396413 29.639432 
L 1347.178323 47.748523 
L 1353.960233 40.914904 
L 1360.742142 55.265504 
L 1367.524052 66.882657 
L 1374.305962 71.49535 
L 1381.087871 65.345093 
L 1387.869781 92.167048 
L 1394.651691 98.829827 
L 1401.4336 87.383515 
L 1408.21551 112.326225 
L 1414.997419 107.884372 
L 1421.779329 108.055213 
L 1428.561239 107.542691 
L 1435.343148 111.984544 
L 1442.125058 104.980084 
L 1448.906968 100.879913 
L 1455.688877 116.426396 
L 1462.470787 114.717992 
L 1469.252697 111.642863 
L 1476.034606 117.963961 
L 1482.816516 110.105299 
L 1489.598426 114.547151 
L 1496.380335 116.255556 
L 1503.162245 125.993463 
L 1509.944155 120.355727 
L 1516.726064 117.280599 
L 1523.507974 111.642863 
L 1530.289884 116.768077 
L 1537.071793 118.818163 
L 1543.853703 110.61782 
L 1550.635612 114.376311 
L 1557.417522 111.813703 
L 1564.199432 114.888832 
L 1570.981341 115.230513 
L 1577.763251 102.929998 
L 1584.545161 117.109758 
L 1591.32707 119.330684 
L 1598.10898 111.813703 
L 1604.89089 107.884372 
L 1611.672799 107.371851 
L 1618.454709 88.237717 
L 1625.236619 86.187631 
L 1632.018528 73.545436 
L 1638.800438 67.395178 
L 1645.582348 44.673395 
L 1652.364257 39.889861 
L 1659.146167 30.151954 
L 1665.928077 27.589347 
L 1672.709986 39.035659 
L 1679.491896 63.295007 
L 1686.273805 71.153669 
" clip-path="url(#p42e2661eda)" style="fill: none; stroke: #ff7f0e; stroke-opacity: 0.7; stroke-width: 1.5; stroke-linecap: square"/>
   </g>
   <g id="patch_12">
    <path d="M 1323.102544 170.198437 
L 1323.102544 20.798437 
" style="fill: none; stroke: #000000; stroke-width: 0.8; stroke-linejoin: miter; stroke-linecap: square"/>
   </g>
   <g id="patch_13">
    <path d="M 1323.102544 170.198437 
L 1703.567675 170.198437 
" style="fill: none; stroke: #000000; stroke-width: 0.8; stroke-linejoin: miter; stroke-linecap: square"/>
   </g>
   <g id="text_79">
    <!-- age = 80 jaar of ouder -->
    <g transform="translate(1456.596047 14.798438)scale(0.1 -0.1)">
     <use xlink:href="#DejaVuSans-61"/>
     <use xlink:href="#DejaVuSans-67" x="61.279297"/>
     <use xlink:href="#DejaVuSans-65" x="124.755859"/>
     <use xlink:href="#DejaVuSans-20" x="186.279297"/>
     <use xlink:href="#DejaVuSans-3d" x="218.066406"/>
     <use xlink:href="#DejaVuSans-20" x="301.855469"/>
     <use xlink:href="#DejaVuSans-38" x="333.642578"/>
     <use xlink:href="#DejaVuSans-30" x="397.265625"/>
     <use xlink:href="#DejaVuSans-20" x="460.888672"/>
     <use xlink:href="#DejaVuSans-6a" x="492.675781"/>
     <use xlink:href="#DejaVuSans-61" x="520.458984"/>
     <use xlink:href="#DejaVuSans-61" x="581.738281"/>
     <use xlink:href="#DejaVuSans-72" x="643.017578"/>
     <use xlink:href="#DejaVuSans-20" x="684.130859"/>
     <use xlink:href="#DejaVuSans-6f" x="715.917969"/>
     <use xlink:href="#DejaVuSans-66" x="777.099609"/>
     <use xlink:href="#DejaVuSans-20" x="812.304688"/>
     <use xlink:href="#DejaVuSans-6f" x="844.091797"/>
     <use xlink:href="#DejaVuSans-75" x="905.273438"/>
     <use xlink:href="#DejaVuSans-64" x="968.652344"/>
     <use xlink:href="#DejaVuSans-65" x="1032.128906"/>
     <use xlink:href="#DejaVuSans-72" x="1093.652344"/>
    </g>
   </g>
  </g>
  <g id="legend_1">
   <g id="line2d_76">
    <path d="M 1722.743613 95.797656 
L 1732.743613 95.797656 
L 1742.743613 95.797656 
" style="fill: none; stroke: #1f77b4; stroke-opacity: 0.7; stroke-width: 1.5; stroke-linecap: square"/>
   </g>
   <g id="text_80">
    <!-- Mannen -->
    <g transform="translate(1750.743613 99.297656)scale(0.1 -0.1)">
     <use xlink:href="#DejaVuSans-4d"/>
     <use xlink:href="#DejaVuSans-61" x="86.279297"/>
     <use xlink:href="#DejaVuSans-6e" x="147.558594"/>
     <use xlink:href="#DejaVuSans-6e" x="210.9375"/>
     <use xlink:href="#DejaVuSans-65" x="274.316406"/>
     <use xlink:href="#DejaVuSans-6e" x="335.839844"/>
    </g>
   </g>
   <g id="line2d_77">
    <path d="M 1722.743613 110.475781 
L 1732.743613 110.475781 
L 1742.743613 110.475781 
" style="fill: none; stroke: #ff7f0e; stroke-opacity: 0.7; stroke-width: 1.5; stroke-linecap: square"/>
   </g>
   <g id="text_81">
    <!-- Vrouwen -->
    <g transform="translate(1750.743613 113.975781)scale(0.1 -0.1)">
     <defs>
      <path id="DejaVuSans-56" d="M 1831 0 
L 50 4666 
L 709 4666 
L 2188 738 
L 3669 4666 
L 4325 4666 
L 2547 0 
L 1831 0 
z
" transform="scale(0.015625)"/>
     </defs>
     <use xlink:href="#DejaVuSans-56"/>
     <use xlink:href="#DejaVuSans-72" x="68.408203"/>
     <use xlink:href="#DejaVuSans-6f" x="107.271484"/>
     <use xlink:href="#DejaVuSans-75" x="168.453125"/>
     <use xlink:href="#DejaVuSans-77" x="231.832031"/>
     <use xlink:href="#DejaVuSans-65" x="313.619141"/>
     <use xlink:href="#DejaVuSans-6e" x="375.142578"/>
    </g>
   </g>
  </g>
 </g>
 <defs>
  <clipPath id="p8fbe5a613f">
   <rect x="53.328125" y="20.798438" width="380.465131" height="149.4"/>
  </clipPath>
  <clipPath id="p474df214ee">
   <rect x="476.586265" y="20.798438" width="380.465131" height="149.4"/>
  </clipPath>
  <clipPath id="p8098cddd32">
   <rect x="899.844404" y="20.798438" width="380.465131" height="149.4"/>
  </clipPath>
  <clipPath id="p42e2661eda">
   <rect x="1323.102544" y="20.798438" width="380.465131" height="149.4"/>
  </clipPath>
 </defs>
</svg>
