<?xml version="1.0" encoding="utf-8" standalone="no"?>
<!DOCTYPE svg PUBLIC "-//W3C//DTD SVG 1.1//EN"
  "http://www.w3.org/Graphics/SVG/1.1/DTD/svg11.dtd">
<svg height="439.526562pt" version="1.1" viewBox="0 0 970.535069 439.526562" width="970.535069pt" xmlns="http://www.w3.org/2000/svg" xmlns:xlink="http://www.w3.org/1999/xlink">
 <metadata>
  <rdf:RDF xmlns:cc="http://creativecommons.org/ns#" xmlns:dc="http://purl.org/dc/elements/1.1/" xmlns:rdf="http://www.w3.org/1999/02/22-rdf-syntax-ns#">
   <cc:Work>
    <dc:type rdf:resource="http://purl.org/dc/dcmitype/StillImage"/>
    <dc:date>2021-11-08T15:44:39.382854</dc:date>
    <dc:format>image/svg+xml</dc:format>
    <dc:creator>
     <cc:Agent>
      <dc:title>Matplotlib v3.4.2, https://matplotlib.org/</dc:title>
     </cc:Agent>
    </dc:creator>
   </cc:Work>
  </rdf:RDF>
 </metadata>
 <defs>
  <style type="text/css">*{stroke-linecap:butt;stroke-linejoin:round;}</style>
 </defs>
 <g id="figure_1">
  <g id="patch_1">
   <path d="M 0 439.526562 
L 970.535069 439.526562 
L 970.535069 0 
L 0 0 
z
" style="fill:#ffffff;"/>
  </g>
  <g id="axes_1">
   <g id="patch_2">
    <path d="M 53.328125 182.598437 
L 426.463661 182.598437 
L 426.463661 20.798437 
L 53.328125 20.798437 
z
" style="fill:#ffffff;"/>
   </g>
   <g id="PolyCollection_1">
    <defs>
     <path d="M 70.288831 -366.984743 
L 70.288831 -352.468485 
L 101.126479 -353.416899 
L 131.964126 -355.179654 
L 162.801774 -352.518923 
L 193.639422 -355.662346 
L 224.477069 -357.031275 
L 255.314717 -360.230124 
L 286.152364 -357.651354 
L 316.990012 -357.145079 
L 347.82766 -363.816425 
L 378.665307 -361.215943 
L 409.502955 -367.502867 
L 409.502955 -395.542209 
L 409.502955 -395.542209 
L 378.665307 -411.37358 
L 347.82766 -381.567776 
L 316.990012 -390.579154 
L 286.152364 -384.876824 
L 255.314717 -379.765759 
L 224.477069 -380.847566 
L 193.639422 -368.63363 
L 162.801774 -375.425137 
L 131.964126 -371.342968 
L 101.126479 -365.420098 
L 70.288831 -366.984743 
z
" id="m191ef53ef2" style="stroke:#1f77b4;stroke-opacity:0.2;"/>
    </defs>
    <g clip-path="url(#p8d12daa936)">
     <use style="fill:#1f77b4;fill-opacity:0.2;stroke:#1f77b4;stroke-opacity:0.2;" x="0" xlink:href="#m191ef53ef2" y="439.526562"/>
    </g>
   </g>
   <g id="PolyCollection_2">
    <defs>
     <path d="M 70.288831 -269.268759 
L 70.288831 -267.063815 
L 101.126479 -266.471078 
L 131.964126 -266.113851 
L 162.801774 -265.814099 
L 193.639422 -264.844194 
L 224.477069 -265.247525 
L 255.314717 -265.28678 
L 286.152364 -264.992968 
L 316.990012 -264.724661 
L 347.82766 -264.28267 
L 378.665307 -264.384606 
L 409.502955 -265.247132 
L 409.502955 -267.226368 
L 409.502955 -267.226368 
L 378.665307 -267.514737 
L 347.82766 -266.497256 
L 316.990012 -267.064241 
L 286.152364 -267.01449 
L 255.314717 -267.601476 
L 224.477069 -267.488588 
L 193.639422 -267.927389 
L 162.801774 -268.002611 
L 131.964126 -268.544219 
L 101.126479 -268.681619 
L 70.288831 -269.268759 
z
" id="md4fc5d3154" style="stroke:#ff7f0e;stroke-opacity:0.2;"/>
    </defs>
    <g clip-path="url(#p8d12daa936)">
     <use style="fill:#ff7f0e;fill-opacity:0.2;stroke:#ff7f0e;stroke-opacity:0.2;" x="0" xlink:href="#md4fc5d3154" y="439.526562"/>
    </g>
   </g>
   <g id="PolyCollection_3">
    <defs>
     <path d="M 70.288831 -282.990792 
L 70.288831 -279.752593 
L 101.126479 -279.542013 
L 131.964126 -279.90919 
L 162.801774 -280.114379 
L 193.639422 -280.064116 
L 224.477069 -281.835083 
L 255.314717 -281.835645 
L 286.152364 -281.861598 
L 316.990012 -282.218729 
L 347.82766 -283.457713 
L 378.665307 -282.908384 
L 409.502955 -286.820644 
L 409.502955 -293.55289 
L 409.502955 -293.55289 
L 378.665307 -297.444678 
L 347.82766 -288.289208 
L 316.990012 -289.552841 
L 286.152364 -287.385893 
L 255.314717 -287.099622 
L 224.477069 -286.256623 
L 193.639422 -284.049764 
L 162.801774 -284.535211 
L 131.964126 -284.188258 
L 101.126479 -282.672234 
L 70.288831 -282.990792 
z
" id="ma5a35c11b7" style="stroke:#2ca02c;stroke-opacity:0.2;"/>
    </defs>
    <g clip-path="url(#p8d12daa936)">
     <use style="fill:#2ca02c;fill-opacity:0.2;stroke:#2ca02c;stroke-opacity:0.2;" x="0" xlink:href="#ma5a35c11b7" y="439.526562"/>
    </g>
   </g>
   <g id="PolyCollection_4">
    <defs>
     <path d="M 70.288831 -312.157757 
L 70.288831 -301.129663 
L 101.126479 -302.745228 
L 131.964126 -304.187748 
L 162.801774 -302.330184 
L 193.639422 -305.637741 
L 224.477069 -305.421674 
L 255.314717 -308.786805 
L 286.152364 -306.294099 
L 316.990012 -305.880032 
L 347.82766 -311.431808 
L 378.665307 -309.798002 
L 409.502955 -310.493884 
L 409.502955 -332.614307 
L 409.502955 -332.614307 
L 378.665307 -343.449266 
L 347.82766 -324.335695 
L 316.990012 -331.193879 
L 286.152364 -327.889281 
L 255.314717 -322.295703 
L 224.477069 -324.539497 
L 193.639422 -314.682921 
L 162.801774 -320.057725 
L 131.964126 -316.489506 
L 101.126479 -311.634974 
L 70.288831 -312.157757 
z
" id="m56442994e8" style="stroke:#d62728;stroke-opacity:0.2;"/>
    </defs>
    <g clip-path="url(#p8d12daa936)">
     <use style="fill:#d62728;fill-opacity:0.2;stroke:#d62728;stroke-opacity:0.2;" x="0" xlink:href="#m56442994e8" y="439.526562"/>
    </g>
   </g>
   <g id="matplotlib.axis_1">
    <g id="xtick_1">
     <g id="line2d_1">
      <defs>
       <path d="M 0 0 
L 0 3.5 
" id="mc2d5301b69" style="stroke:#000000;stroke-width:0.8;"/>
      </defs>
      <g>
       <use style="stroke:#000000;stroke-width:0.8;" x="70.288831" xlink:href="#mc2d5301b69" y="182.598437"/>
      </g>
     </g>
    </g>
    <g id="xtick_2">
     <g id="line2d_2">
      <g>
       <use style="stroke:#000000;stroke-width:0.8;" x="101.126479" xlink:href="#mc2d5301b69" y="182.598437"/>
      </g>
     </g>
    </g>
    <g id="xtick_3">
     <g id="line2d_3">
      <g>
       <use style="stroke:#000000;stroke-width:0.8;" x="131.964126" xlink:href="#mc2d5301b69" y="182.598437"/>
      </g>
     </g>
    </g>
    <g id="xtick_4">
     <g id="line2d_4">
      <g>
       <use style="stroke:#000000;stroke-width:0.8;" x="162.801774" xlink:href="#mc2d5301b69" y="182.598437"/>
      </g>
     </g>
    </g>
    <g id="xtick_5">
     <g id="line2d_5">
      <g>
       <use style="stroke:#000000;stroke-width:0.8;" x="193.639422" xlink:href="#mc2d5301b69" y="182.598437"/>
      </g>
     </g>
    </g>
    <g id="xtick_6">
     <g id="line2d_6">
      <g>
       <use style="stroke:#000000;stroke-width:0.8;" x="224.477069" xlink:href="#mc2d5301b69" y="182.598437"/>
      </g>
     </g>
    </g>
    <g id="xtick_7">
     <g id="line2d_7">
      <g>
       <use style="stroke:#000000;stroke-width:0.8;" x="255.314717" xlink:href="#mc2d5301b69" y="182.598437"/>
      </g>
     </g>
    </g>
    <g id="xtick_8">
     <g id="line2d_8">
      <g>
       <use style="stroke:#000000;stroke-width:0.8;" x="286.152364" xlink:href="#mc2d5301b69" y="182.598437"/>
      </g>
     </g>
    </g>
    <g id="xtick_9">
     <g id="line2d_9">
      <g>
       <use style="stroke:#000000;stroke-width:0.8;" x="316.990012" xlink:href="#mc2d5301b69" y="182.598437"/>
      </g>
     </g>
    </g>
    <g id="xtick_10">
     <g id="line2d_10">
      <g>
       <use style="stroke:#000000;stroke-width:0.8;" x="347.82766" xlink:href="#mc2d5301b69" y="182.598437"/>
      </g>
     </g>
    </g>
    <g id="xtick_11">
     <g id="line2d_11">
      <g>
       <use style="stroke:#000000;stroke-width:0.8;" x="378.665307" xlink:href="#mc2d5301b69" y="182.598437"/>
      </g>
     </g>
    </g>
    <g id="xtick_12">
     <g id="line2d_12">
      <g>
       <use style="stroke:#000000;stroke-width:0.8;" x="409.502955" xlink:href="#mc2d5301b69" y="182.598437"/>
      </g>
     </g>
    </g>
   </g>
   <g id="matplotlib.axis_2">
    <g id="ytick_1">
     <g id="line2d_13">
      <defs>
       <path d="M 0 0 
L -3.5 0 
" id="m6e17e07f65" style="stroke:#000000;stroke-width:0.8;"/>
      </defs>
      <g>
       <use style="stroke:#000000;stroke-width:0.8;" x="53.328125" xlink:href="#m6e17e07f65" y="169.936373"/>
      </g>
     </g>
     <g id="text_1">
      <!-- 500 -->
      <g transform="translate(27.240625 173.735592)scale(0.1 -0.1)">
       <defs>
        <path d="M 691 4666 
L 3169 4666 
L 3169 4134 
L 1269 4134 
L 1269 2991 
Q 1406 3038 1543 3061 
Q 1681 3084 1819 3084 
Q 2600 3084 3056 2656 
Q 3513 2228 3513 1497 
Q 3513 744 3044 326 
Q 2575 -91 1722 -91 
Q 1428 -91 1123 -41 
Q 819 9 494 109 
L 494 744 
Q 775 591 1075 516 
Q 1375 441 1709 441 
Q 2250 441 2565 725 
Q 2881 1009 2881 1497 
Q 2881 1984 2565 2268 
Q 2250 2553 1709 2553 
Q 1456 2553 1204 2497 
Q 953 2441 691 2322 
L 691 4666 
z
" id="DejaVuSans-35" transform="scale(0.015625)"/>
        <path d="M 2034 4250 
Q 1547 4250 1301 3770 
Q 1056 3291 1056 2328 
Q 1056 1369 1301 889 
Q 1547 409 2034 409 
Q 2525 409 2770 889 
Q 3016 1369 3016 2328 
Q 3016 3291 2770 3770 
Q 2525 4250 2034 4250 
z
M 2034 4750 
Q 2819 4750 3233 4129 
Q 3647 3509 3647 2328 
Q 3647 1150 3233 529 
Q 2819 -91 2034 -91 
Q 1250 -91 836 529 
Q 422 1150 422 2328 
Q 422 3509 836 4129 
Q 1250 4750 2034 4750 
z
" id="DejaVuSans-30" transform="scale(0.015625)"/>
       </defs>
       <use xlink:href="#DejaVuSans-35"/>
       <use x="63.623047" xlink:href="#DejaVuSans-30"/>
       <use x="127.246094" xlink:href="#DejaVuSans-30"/>
      </g>
     </g>
    </g>
    <g id="ytick_2">
     <g id="line2d_14">
      <g>
       <use style="stroke:#000000;stroke-width:0.8;" x="53.328125" xlink:href="#m6e17e07f65" y="148.573721"/>
      </g>
     </g>
     <g id="text_2">
      <!-- 1000 -->
      <g transform="translate(20.878125 152.37294)scale(0.1 -0.1)">
       <defs>
        <path d="M 794 531 
L 1825 531 
L 1825 4091 
L 703 3866 
L 703 4441 
L 1819 4666 
L 2450 4666 
L 2450 531 
L 3481 531 
L 3481 0 
L 794 0 
L 794 531 
z
" id="DejaVuSans-31" transform="scale(0.015625)"/>
       </defs>
       <use xlink:href="#DejaVuSans-31"/>
       <use x="63.623047" xlink:href="#DejaVuSans-30"/>
       <use x="127.246094" xlink:href="#DejaVuSans-30"/>
       <use x="190.869141" xlink:href="#DejaVuSans-30"/>
      </g>
     </g>
    </g>
    <g id="ytick_3">
     <g id="line2d_15">
      <g>
       <use style="stroke:#000000;stroke-width:0.8;" x="53.328125" xlink:href="#m6e17e07f65" y="127.211069"/>
      </g>
     </g>
     <g id="text_3">
      <!-- 1500 -->
      <g transform="translate(20.878125 131.010287)scale(0.1 -0.1)">
       <use xlink:href="#DejaVuSans-31"/>
       <use x="63.623047" xlink:href="#DejaVuSans-35"/>
       <use x="127.246094" xlink:href="#DejaVuSans-30"/>
       <use x="190.869141" xlink:href="#DejaVuSans-30"/>
      </g>
     </g>
    </g>
    <g id="ytick_4">
     <g id="line2d_16">
      <g>
       <use style="stroke:#000000;stroke-width:0.8;" x="53.328125" xlink:href="#m6e17e07f65" y="105.848416"/>
      </g>
     </g>
     <g id="text_4">
      <!-- 2000 -->
      <g transform="translate(20.878125 109.647635)scale(0.1 -0.1)">
       <defs>
        <path d="M 1228 531 
L 3431 531 
L 3431 0 
L 469 0 
L 469 531 
Q 828 903 1448 1529 
Q 2069 2156 2228 2338 
Q 2531 2678 2651 2914 
Q 2772 3150 2772 3378 
Q 2772 3750 2511 3984 
Q 2250 4219 1831 4219 
Q 1534 4219 1204 4116 
Q 875 4013 500 3803 
L 500 4441 
Q 881 4594 1212 4672 
Q 1544 4750 1819 4750 
Q 2544 4750 2975 4387 
Q 3406 4025 3406 3419 
Q 3406 3131 3298 2873 
Q 3191 2616 2906 2266 
Q 2828 2175 2409 1742 
Q 1991 1309 1228 531 
z
" id="DejaVuSans-32" transform="scale(0.015625)"/>
       </defs>
       <use xlink:href="#DejaVuSans-32"/>
       <use x="63.623047" xlink:href="#DejaVuSans-30"/>
       <use x="127.246094" xlink:href="#DejaVuSans-30"/>
       <use x="190.869141" xlink:href="#DejaVuSans-30"/>
      </g>
     </g>
    </g>
    <g id="ytick_5">
     <g id="line2d_17">
      <g>
       <use style="stroke:#000000;stroke-width:0.8;" x="53.328125" xlink:href="#m6e17e07f65" y="84.485764"/>
      </g>
     </g>
     <g id="text_5">
      <!-- 2500 -->
      <g transform="translate(20.878125 88.284983)scale(0.1 -0.1)">
       <use xlink:href="#DejaVuSans-32"/>
       <use x="63.623047" xlink:href="#DejaVuSans-35"/>
       <use x="127.246094" xlink:href="#DejaVuSans-30"/>
       <use x="190.869141" xlink:href="#DejaVuSans-30"/>
      </g>
     </g>
    </g>
    <g id="ytick_6">
     <g id="line2d_18">
      <g>
       <use style="stroke:#000000;stroke-width:0.8;" x="53.328125" xlink:href="#m6e17e07f65" y="63.123112"/>
      </g>
     </g>
     <g id="text_6">
      <!-- 3000 -->
      <g transform="translate(20.878125 66.922331)scale(0.1 -0.1)">
       <defs>
        <path d="M 2597 2516 
Q 3050 2419 3304 2112 
Q 3559 1806 3559 1356 
Q 3559 666 3084 287 
Q 2609 -91 1734 -91 
Q 1441 -91 1130 -33 
Q 819 25 488 141 
L 488 750 
Q 750 597 1062 519 
Q 1375 441 1716 441 
Q 2309 441 2620 675 
Q 2931 909 2931 1356 
Q 2931 1769 2642 2001 
Q 2353 2234 1838 2234 
L 1294 2234 
L 1294 2753 
L 1863 2753 
Q 2328 2753 2575 2939 
Q 2822 3125 2822 3475 
Q 2822 3834 2567 4026 
Q 2313 4219 1838 4219 
Q 1578 4219 1281 4162 
Q 984 4106 628 3988 
L 628 4550 
Q 988 4650 1302 4700 
Q 1616 4750 1894 4750 
Q 2613 4750 3031 4423 
Q 3450 4097 3450 3541 
Q 3450 3153 3228 2886 
Q 3006 2619 2597 2516 
z
" id="DejaVuSans-33" transform="scale(0.015625)"/>
       </defs>
       <use xlink:href="#DejaVuSans-33"/>
       <use x="63.623047" xlink:href="#DejaVuSans-30"/>
       <use x="127.246094" xlink:href="#DejaVuSans-30"/>
       <use x="190.869141" xlink:href="#DejaVuSans-30"/>
      </g>
     </g>
    </g>
    <g id="ytick_7">
     <g id="line2d_19">
      <g>
       <use style="stroke:#000000;stroke-width:0.8;" x="53.328125" xlink:href="#m6e17e07f65" y="41.76046"/>
      </g>
     </g>
     <g id="text_7">
      <!-- 3500 -->
      <g transform="translate(20.878125 45.559679)scale(0.1 -0.1)">
       <use xlink:href="#DejaVuSans-33"/>
       <use x="63.623047" xlink:href="#DejaVuSans-35"/>
       <use x="127.246094" xlink:href="#DejaVuSans-30"/>
       <use x="190.869141" xlink:href="#DejaVuSans-30"/>
      </g>
     </g>
    </g>
    <g id="text_8">
     <!-- mean deaths per week -->
     <g transform="translate(14.798438 159.1375)rotate(-90)scale(0.1 -0.1)">
      <defs>
       <path d="M 3328 2828 
Q 3544 3216 3844 3400 
Q 4144 3584 4550 3584 
Q 5097 3584 5394 3201 
Q 5691 2819 5691 2113 
L 5691 0 
L 5113 0 
L 5113 2094 
Q 5113 2597 4934 2840 
Q 4756 3084 4391 3084 
Q 3944 3084 3684 2787 
Q 3425 2491 3425 1978 
L 3425 0 
L 2847 0 
L 2847 2094 
Q 2847 2600 2669 2842 
Q 2491 3084 2119 3084 
Q 1678 3084 1418 2786 
Q 1159 2488 1159 1978 
L 1159 0 
L 581 0 
L 581 3500 
L 1159 3500 
L 1159 2956 
Q 1356 3278 1631 3431 
Q 1906 3584 2284 3584 
Q 2666 3584 2933 3390 
Q 3200 3197 3328 2828 
z
" id="DejaVuSans-6d" transform="scale(0.015625)"/>
       <path d="M 3597 1894 
L 3597 1613 
L 953 1613 
Q 991 1019 1311 708 
Q 1631 397 2203 397 
Q 2534 397 2845 478 
Q 3156 559 3463 722 
L 3463 178 
Q 3153 47 2828 -22 
Q 2503 -91 2169 -91 
Q 1331 -91 842 396 
Q 353 884 353 1716 
Q 353 2575 817 3079 
Q 1281 3584 2069 3584 
Q 2775 3584 3186 3129 
Q 3597 2675 3597 1894 
z
M 3022 2063 
Q 3016 2534 2758 2815 
Q 2500 3097 2075 3097 
Q 1594 3097 1305 2825 
Q 1016 2553 972 2059 
L 3022 2063 
z
" id="DejaVuSans-65" transform="scale(0.015625)"/>
       <path d="M 2194 1759 
Q 1497 1759 1228 1600 
Q 959 1441 959 1056 
Q 959 750 1161 570 
Q 1363 391 1709 391 
Q 2188 391 2477 730 
Q 2766 1069 2766 1631 
L 2766 1759 
L 2194 1759 
z
M 3341 1997 
L 3341 0 
L 2766 0 
L 2766 531 
Q 2569 213 2275 61 
Q 1981 -91 1556 -91 
Q 1019 -91 701 211 
Q 384 513 384 1019 
Q 384 1609 779 1909 
Q 1175 2209 1959 2209 
L 2766 2209 
L 2766 2266 
Q 2766 2663 2505 2880 
Q 2244 3097 1772 3097 
Q 1472 3097 1187 3025 
Q 903 2953 641 2809 
L 641 3341 
Q 956 3463 1253 3523 
Q 1550 3584 1831 3584 
Q 2591 3584 2966 3190 
Q 3341 2797 3341 1997 
z
" id="DejaVuSans-61" transform="scale(0.015625)"/>
       <path d="M 3513 2113 
L 3513 0 
L 2938 0 
L 2938 2094 
Q 2938 2591 2744 2837 
Q 2550 3084 2163 3084 
Q 1697 3084 1428 2787 
Q 1159 2491 1159 1978 
L 1159 0 
L 581 0 
L 581 3500 
L 1159 3500 
L 1159 2956 
Q 1366 3272 1645 3428 
Q 1925 3584 2291 3584 
Q 2894 3584 3203 3211 
Q 3513 2838 3513 2113 
z
" id="DejaVuSans-6e" transform="scale(0.015625)"/>
       <path id="DejaVuSans-20" transform="scale(0.015625)"/>
       <path d="M 2906 2969 
L 2906 4863 
L 3481 4863 
L 3481 0 
L 2906 0 
L 2906 525 
Q 2725 213 2448 61 
Q 2172 -91 1784 -91 
Q 1150 -91 751 415 
Q 353 922 353 1747 
Q 353 2572 751 3078 
Q 1150 3584 1784 3584 
Q 2172 3584 2448 3432 
Q 2725 3281 2906 2969 
z
M 947 1747 
Q 947 1113 1208 752 
Q 1469 391 1925 391 
Q 2381 391 2643 752 
Q 2906 1113 2906 1747 
Q 2906 2381 2643 2742 
Q 2381 3103 1925 3103 
Q 1469 3103 1208 2742 
Q 947 2381 947 1747 
z
" id="DejaVuSans-64" transform="scale(0.015625)"/>
       <path d="M 1172 4494 
L 1172 3500 
L 2356 3500 
L 2356 3053 
L 1172 3053 
L 1172 1153 
Q 1172 725 1289 603 
Q 1406 481 1766 481 
L 2356 481 
L 2356 0 
L 1766 0 
Q 1100 0 847 248 
Q 594 497 594 1153 
L 594 3053 
L 172 3053 
L 172 3500 
L 594 3500 
L 594 4494 
L 1172 4494 
z
" id="DejaVuSans-74" transform="scale(0.015625)"/>
       <path d="M 3513 2113 
L 3513 0 
L 2938 0 
L 2938 2094 
Q 2938 2591 2744 2837 
Q 2550 3084 2163 3084 
Q 1697 3084 1428 2787 
Q 1159 2491 1159 1978 
L 1159 0 
L 581 0 
L 581 4863 
L 1159 4863 
L 1159 2956 
Q 1366 3272 1645 3428 
Q 1925 3584 2291 3584 
Q 2894 3584 3203 3211 
Q 3513 2838 3513 2113 
z
" id="DejaVuSans-68" transform="scale(0.015625)"/>
       <path d="M 2834 3397 
L 2834 2853 
Q 2591 2978 2328 3040 
Q 2066 3103 1784 3103 
Q 1356 3103 1142 2972 
Q 928 2841 928 2578 
Q 928 2378 1081 2264 
Q 1234 2150 1697 2047 
L 1894 2003 
Q 2506 1872 2764 1633 
Q 3022 1394 3022 966 
Q 3022 478 2636 193 
Q 2250 -91 1575 -91 
Q 1294 -91 989 -36 
Q 684 19 347 128 
L 347 722 
Q 666 556 975 473 
Q 1284 391 1588 391 
Q 1994 391 2212 530 
Q 2431 669 2431 922 
Q 2431 1156 2273 1281 
Q 2116 1406 1581 1522 
L 1381 1569 
Q 847 1681 609 1914 
Q 372 2147 372 2553 
Q 372 3047 722 3315 
Q 1072 3584 1716 3584 
Q 2034 3584 2315 3537 
Q 2597 3491 2834 3397 
z
" id="DejaVuSans-73" transform="scale(0.015625)"/>
       <path d="M 1159 525 
L 1159 -1331 
L 581 -1331 
L 581 3500 
L 1159 3500 
L 1159 2969 
Q 1341 3281 1617 3432 
Q 1894 3584 2278 3584 
Q 2916 3584 3314 3078 
Q 3713 2572 3713 1747 
Q 3713 922 3314 415 
Q 2916 -91 2278 -91 
Q 1894 -91 1617 61 
Q 1341 213 1159 525 
z
M 3116 1747 
Q 3116 2381 2855 2742 
Q 2594 3103 2138 3103 
Q 1681 3103 1420 2742 
Q 1159 2381 1159 1747 
Q 1159 1113 1420 752 
Q 1681 391 2138 391 
Q 2594 391 2855 752 
Q 3116 1113 3116 1747 
z
" id="DejaVuSans-70" transform="scale(0.015625)"/>
       <path d="M 2631 2963 
Q 2534 3019 2420 3045 
Q 2306 3072 2169 3072 
Q 1681 3072 1420 2755 
Q 1159 2438 1159 1844 
L 1159 0 
L 581 0 
L 581 3500 
L 1159 3500 
L 1159 2956 
Q 1341 3275 1631 3429 
Q 1922 3584 2338 3584 
Q 2397 3584 2469 3576 
Q 2541 3569 2628 3553 
L 2631 2963 
z
" id="DejaVuSans-72" transform="scale(0.015625)"/>
       <path d="M 269 3500 
L 844 3500 
L 1563 769 
L 2278 3500 
L 2956 3500 
L 3675 769 
L 4391 3500 
L 4966 3500 
L 4050 0 
L 3372 0 
L 2619 2869 
L 1863 0 
L 1184 0 
L 269 3500 
z
" id="DejaVuSans-77" transform="scale(0.015625)"/>
       <path d="M 581 4863 
L 1159 4863 
L 1159 1991 
L 2875 3500 
L 3609 3500 
L 1753 1863 
L 3688 0 
L 2938 0 
L 1159 1709 
L 1159 0 
L 581 0 
L 581 4863 
z
" id="DejaVuSans-6b" transform="scale(0.015625)"/>
      </defs>
      <use xlink:href="#DejaVuSans-6d"/>
      <use x="97.412109" xlink:href="#DejaVuSans-65"/>
      <use x="158.935547" xlink:href="#DejaVuSans-61"/>
      <use x="220.214844" xlink:href="#DejaVuSans-6e"/>
      <use x="283.59375" xlink:href="#DejaVuSans-20"/>
      <use x="315.380859" xlink:href="#DejaVuSans-64"/>
      <use x="378.857422" xlink:href="#DejaVuSans-65"/>
      <use x="440.380859" xlink:href="#DejaVuSans-61"/>
      <use x="501.660156" xlink:href="#DejaVuSans-74"/>
      <use x="540.869141" xlink:href="#DejaVuSans-68"/>
      <use x="604.248047" xlink:href="#DejaVuSans-73"/>
      <use x="656.347656" xlink:href="#DejaVuSans-20"/>
      <use x="688.134766" xlink:href="#DejaVuSans-70"/>
      <use x="751.611328" xlink:href="#DejaVuSans-65"/>
      <use x="813.134766" xlink:href="#DejaVuSans-72"/>
      <use x="854.248047" xlink:href="#DejaVuSans-20"/>
      <use x="886.035156" xlink:href="#DejaVuSans-77"/>
      <use x="967.822266" xlink:href="#DejaVuSans-65"/>
      <use x="1029.345703" xlink:href="#DejaVuSans-65"/>
      <use x="1090.869141" xlink:href="#DejaVuSans-6b"/>
     </g>
    </g>
   </g>
   <g id="line2d_20">
    <path clip-path="url(#p8d12daa936)" d="M 70.288831 79.799949 
L 101.126479 80.108064 
L 131.964126 76.265251 
L 162.801774 75.554532 
L 193.639422 77.378574 
L 224.477069 70.587142 
L 255.314717 69.528621 
L 286.152364 68.262473 
L 316.990012 65.664446 
L 347.82766 66.834462 
L 378.665307 53.231801 
L 409.502955 58.004024 
" style="fill:none;stroke:#1f77b4;stroke-linecap:square;stroke-opacity:0.7;stroke-width:1.5;"/>
   </g>
   <g id="line2d_21">
    <path clip-path="url(#p8d12daa936)" d="M 70.288831 171.360276 
L 101.126479 171.950214 
L 131.964126 172.197528 
L 162.801774 172.618207 
L 193.639422 173.140771 
L 224.477069 173.158506 
L 255.314717 173.082434 
L 286.152364 173.522834 
L 316.990012 173.632112 
L 347.82766 174.136599 
L 378.665307 173.576891 
L 409.502955 173.289813 
" style="fill:none;stroke:#ff7f0e;stroke-linecap:square;stroke-opacity:0.7;stroke-width:1.5;"/>
   </g>
   <g id="line2d_22">
    <path clip-path="url(#p8d12daa936)" d="M 70.288831 158.15487 
L 101.126479 158.419439 
L 131.964126 157.477839 
L 162.801774 157.201767 
L 193.639422 157.469622 
L 224.477069 155.48071 
L 255.314717 155.058929 
L 286.152364 154.902817 
L 316.990012 153.640778 
L 347.82766 153.653102 
L 378.665307 149.350032 
L 409.502955 149.339795 
" style="fill:none;stroke:#2ca02c;stroke-linecap:square;stroke-opacity:0.7;stroke-width:1.5;"/>
   </g>
   <g id="line2d_23">
    <path clip-path="url(#p8d12daa936)" d="M 70.288831 132.882853 
L 101.126479 132.336462 
L 131.964126 129.187936 
L 162.801774 128.332608 
L 193.639422 129.366232 
L 224.477069 124.545977 
L 255.314717 123.985308 
L 286.152364 122.434873 
L 316.990012 120.989607 
L 347.82766 121.642811 
L 378.665307 112.902928 
L 409.502955 117.972467 
" style="fill:none;stroke:#d62728;stroke-linecap:square;stroke-opacity:0.7;stroke-width:1.5;"/>
   </g>
   <g id="patch_3">
    <path d="M 53.328125 182.598437 
L 53.328125 20.798437 
" style="fill:none;stroke:#000000;stroke-linecap:square;stroke-linejoin:miter;stroke-width:0.8;"/>
   </g>
   <g id="patch_4">
    <path d="M 53.328125 182.598437 
L 426.463661 182.598437 
" style="fill:none;stroke:#000000;stroke-linecap:square;stroke-linejoin:miter;stroke-width:0.8;"/>
   </g>
   <g id="text_9">
    <!-- gender = Totaal mannen en vrouwen -->
    <g transform="translate(147.066987 14.798437)scale(0.1 -0.1)">
     <defs>
      <path d="M 2906 1791 
Q 2906 2416 2648 2759 
Q 2391 3103 1925 3103 
Q 1463 3103 1205 2759 
Q 947 2416 947 1791 
Q 947 1169 1205 825 
Q 1463 481 1925 481 
Q 2391 481 2648 825 
Q 2906 1169 2906 1791 
z
M 3481 434 
Q 3481 -459 3084 -895 
Q 2688 -1331 1869 -1331 
Q 1566 -1331 1297 -1286 
Q 1028 -1241 775 -1147 
L 775 -588 
Q 1028 -725 1275 -790 
Q 1522 -856 1778 -856 
Q 2344 -856 2625 -561 
Q 2906 -266 2906 331 
L 2906 616 
Q 2728 306 2450 153 
Q 2172 0 1784 0 
Q 1141 0 747 490 
Q 353 981 353 1791 
Q 353 2603 747 3093 
Q 1141 3584 1784 3584 
Q 2172 3584 2450 3431 
Q 2728 3278 2906 2969 
L 2906 3500 
L 3481 3500 
L 3481 434 
z
" id="DejaVuSans-67" transform="scale(0.015625)"/>
      <path d="M 678 2906 
L 4684 2906 
L 4684 2381 
L 678 2381 
L 678 2906 
z
M 678 1631 
L 4684 1631 
L 4684 1100 
L 678 1100 
L 678 1631 
z
" id="DejaVuSans-3d" transform="scale(0.015625)"/>
      <path d="M -19 4666 
L 3928 4666 
L 3928 4134 
L 2272 4134 
L 2272 0 
L 1638 0 
L 1638 4134 
L -19 4134 
L -19 4666 
z
" id="DejaVuSans-54" transform="scale(0.015625)"/>
      <path d="M 1959 3097 
Q 1497 3097 1228 2736 
Q 959 2375 959 1747 
Q 959 1119 1226 758 
Q 1494 397 1959 397 
Q 2419 397 2687 759 
Q 2956 1122 2956 1747 
Q 2956 2369 2687 2733 
Q 2419 3097 1959 3097 
z
M 1959 3584 
Q 2709 3584 3137 3096 
Q 3566 2609 3566 1747 
Q 3566 888 3137 398 
Q 2709 -91 1959 -91 
Q 1206 -91 779 398 
Q 353 888 353 1747 
Q 353 2609 779 3096 
Q 1206 3584 1959 3584 
z
" id="DejaVuSans-6f" transform="scale(0.015625)"/>
      <path d="M 603 4863 
L 1178 4863 
L 1178 0 
L 603 0 
L 603 4863 
z
" id="DejaVuSans-6c" transform="scale(0.015625)"/>
      <path d="M 191 3500 
L 800 3500 
L 1894 563 
L 2988 3500 
L 3597 3500 
L 2284 0 
L 1503 0 
L 191 3500 
z
" id="DejaVuSans-76" transform="scale(0.015625)"/>
      <path d="M 544 1381 
L 544 3500 
L 1119 3500 
L 1119 1403 
Q 1119 906 1312 657 
Q 1506 409 1894 409 
Q 2359 409 2629 706 
Q 2900 1003 2900 1516 
L 2900 3500 
L 3475 3500 
L 3475 0 
L 2900 0 
L 2900 538 
Q 2691 219 2414 64 
Q 2138 -91 1772 -91 
Q 1169 -91 856 284 
Q 544 659 544 1381 
z
M 1991 3584 
L 1991 3584 
z
" id="DejaVuSans-75" transform="scale(0.015625)"/>
     </defs>
     <use xlink:href="#DejaVuSans-67"/>
     <use x="63.476562" xlink:href="#DejaVuSans-65"/>
     <use x="125" xlink:href="#DejaVuSans-6e"/>
     <use x="188.378906" xlink:href="#DejaVuSans-64"/>
     <use x="251.855469" xlink:href="#DejaVuSans-65"/>
     <use x="313.378906" xlink:href="#DejaVuSans-72"/>
     <use x="354.492188" xlink:href="#DejaVuSans-20"/>
     <use x="386.279297" xlink:href="#DejaVuSans-3d"/>
     <use x="470.068359" xlink:href="#DejaVuSans-20"/>
     <use x="501.855469" xlink:href="#DejaVuSans-54"/>
     <use x="545.939453" xlink:href="#DejaVuSans-6f"/>
     <use x="607.121094" xlink:href="#DejaVuSans-74"/>
     <use x="646.330078" xlink:href="#DejaVuSans-61"/>
     <use x="707.609375" xlink:href="#DejaVuSans-61"/>
     <use x="768.888672" xlink:href="#DejaVuSans-6c"/>
     <use x="796.671875" xlink:href="#DejaVuSans-20"/>
     <use x="828.458984" xlink:href="#DejaVuSans-6d"/>
     <use x="925.871094" xlink:href="#DejaVuSans-61"/>
     <use x="987.150391" xlink:href="#DejaVuSans-6e"/>
     <use x="1050.529297" xlink:href="#DejaVuSans-6e"/>
     <use x="1113.908203" xlink:href="#DejaVuSans-65"/>
     <use x="1175.431641" xlink:href="#DejaVuSans-6e"/>
     <use x="1238.810547" xlink:href="#DejaVuSans-20"/>
     <use x="1270.597656" xlink:href="#DejaVuSans-65"/>
     <use x="1332.121094" xlink:href="#DejaVuSans-6e"/>
     <use x="1395.5" xlink:href="#DejaVuSans-20"/>
     <use x="1427.287109" xlink:href="#DejaVuSans-76"/>
     <use x="1486.466797" xlink:href="#DejaVuSans-72"/>
     <use x="1525.330078" xlink:href="#DejaVuSans-6f"/>
     <use x="1586.511719" xlink:href="#DejaVuSans-75"/>
     <use x="1649.890625" xlink:href="#DejaVuSans-77"/>
     <use x="1731.677734" xlink:href="#DejaVuSans-65"/>
     <use x="1793.201172" xlink:href="#DejaVuSans-6e"/>
    </g>
   </g>
  </g>
  <g id="axes_2">
   <g id="patch_5">
    <path d="M 469.399533 182.598437 
L 842.535069 182.598437 
L 842.535069 20.798437 
L 469.399533 20.798437 
z
" style="fill:#ffffff;"/>
   </g>
   <g id="PolyCollection_5">
    <defs>
     <path d="M 486.36024 -360.951098 
L 486.36024 -347.357227 
L 517.197887 -346.936565 
L 548.035535 -349.452701 
L 578.873182 -347.449381 
L 609.71083 -348.942965 
L 640.548478 -352.399821 
L 671.386125 -354.636657 
L 702.223773 -353.25735 
L 733.06142 -353.672603 
L 763.899068 -359.281468 
L 794.736716 -356.620877 
L 825.574363 -364.84587 
L 825.574363 -394.030559 
L 825.574363 -394.030559 
L 794.736716 -411.37358 
L 763.899068 -376.613932 
L 733.06142 -382.472454 
L 702.223773 -376.748121 
L 671.386125 -373.108763 
L 640.548478 -372.648463 
L 609.71083 -362.791571 
L 578.873182 -368.526035 
L 548.035535 -364.443338 
L 517.197887 -358.783213 
L 486.36024 -360.951098 
z
" id="m371b444ecc" style="stroke:#1f77b4;stroke-opacity:0.2;"/>
    </defs>
    <g clip-path="url(#p764a3fc0d4)">
     <use style="fill:#1f77b4;fill-opacity:0.2;stroke:#1f77b4;stroke-opacity:0.2;" x="0" xlink:href="#m371b444ecc" y="439.526562"/>
    </g>
   </g>
   <g id="PolyCollection_6">
    <defs>
     <path d="M 486.36024 -270.786014 
L 486.36024 -267.919945 
L 517.197887 -266.58842 
L 548.035535 -266.476444 
L 578.873182 -266.200664 
L 609.71083 -264.997588 
L 640.548478 -265.542264 
L 671.386125 -265.188921 
L 702.223773 -264.982966 
L 733.06142 -264.780387 
L 763.899068 -264.28267 
L 794.736716 -264.747265 
L 825.574363 -265.423478 
L 825.574363 -268.392743 
L 825.574363 -268.392743 
L 794.736716 -269.075325 
L 763.899068 -267.34749 
L 733.06142 -268.048782 
L 702.223773 -268.184554 
L 671.386125 -268.481197 
L 640.548478 -268.177191 
L 609.71083 -268.955037 
L 578.873182 -269.102078 
L 548.035535 -269.769081 
L 517.197887 -269.933042 
L 486.36024 -270.786014 
z
" id="m7d1e711a62" style="stroke:#ff7f0e;stroke-opacity:0.2;"/>
    </defs>
    <g clip-path="url(#p764a3fc0d4)">
     <use style="fill:#ff7f0e;fill-opacity:0.2;stroke:#ff7f0e;stroke-opacity:0.2;" x="0" xlink:href="#m7d1e711a62" y="439.526562"/>
    </g>
   </g>
   <g id="PolyCollection_7">
    <defs>
     <path d="M 486.36024 -287.842906 
L 486.36024 -283.265876 
L 517.197887 -282.718814 
L 548.035535 -283.297341 
L 578.873182 -283.33238 
L 609.71083 -283.071864 
L 640.548478 -285.532744 
L 671.386125 -284.9576 
L 702.223773 -285.320564 
L 733.06142 -285.530256 
L 763.899068 -286.269925 
L 794.736716 -285.720325 
L 825.574363 -290.010796 
L 825.574363 -299.264271 
L 825.574363 -299.264271 
L 794.736716 -304.775099 
L 763.899068 -292.571647 
L 733.06142 -293.945313 
L 702.223773 -291.39564 
L 671.386125 -291.68962 
L 640.548478 -290.849263 
L 609.71083 -287.935084 
L 578.873182 -289.556849 
L 548.035535 -288.438868 
L 517.197887 -286.520827 
L 486.36024 -287.842906 
z
" id="ma102499590" style="stroke:#2ca02c;stroke-opacity:0.2;"/>
    </defs>
    <g clip-path="url(#p764a3fc0d4)">
     <use style="fill:#2ca02c;fill-opacity:0.2;stroke:#2ca02c;stroke-opacity:0.2;" x="0" xlink:href="#ma102499590" y="439.526562"/>
    </g>
   </g>
   <g id="PolyCollection_8">
    <defs>
     <path d="M 486.36024 -296.095216 
L 486.36024 -286.484638 
L 517.197887 -288.013183 
L 548.035535 -289.586745 
L 578.873182 -288.541783 
L 609.71083 -291.266309 
L 640.548478 -292.133074 
L 671.386125 -295.110705 
L 702.223773 -293.326089 
L 733.06142 -294.156503 
L 763.899068 -298.865877 
L 794.736716 -297.459428 
L 825.574363 -298.868889 
L 825.574363 -320.445709 
L 825.574363 -320.445709 
L 794.736716 -330.303284 
L 763.899068 -310.644061 
L 733.06142 -313.770084 
L 702.223773 -310.881926 
L 671.386125 -306.403645 
L 640.548478 -306.900017 
L 609.71083 -299.594924 
L 578.873182 -303.327931 
L 548.035535 -300.413829 
L 517.197887 -296.031762 
L 486.36024 -296.095216 
z
" id="mae4ba6206c" style="stroke:#d62728;stroke-opacity:0.2;"/>
    </defs>
    <g clip-path="url(#p764a3fc0d4)">
     <use style="fill:#d62728;fill-opacity:0.2;stroke:#d62728;stroke-opacity:0.2;" x="0" xlink:href="#mae4ba6206c" y="439.526562"/>
    </g>
   </g>
   <g id="matplotlib.axis_3">
    <g id="xtick_13">
     <g id="line2d_24">
      <g>
       <use style="stroke:#000000;stroke-width:0.8;" x="486.36024" xlink:href="#mc2d5301b69" y="182.598437"/>
      </g>
     </g>
     <g id="text_10">
      <!-- 2010 -->
      <g transform="translate(489.119615 215.048437)rotate(-90)scale(0.1 -0.1)">
       <use xlink:href="#DejaVuSans-32"/>
       <use x="63.623047" xlink:href="#DejaVuSans-30"/>
       <use x="127.246094" xlink:href="#DejaVuSans-31"/>
       <use x="190.869141" xlink:href="#DejaVuSans-30"/>
      </g>
     </g>
    </g>
    <g id="xtick_14">
     <g id="line2d_25">
      <g>
       <use style="stroke:#000000;stroke-width:0.8;" x="517.197887" xlink:href="#mc2d5301b69" y="182.598437"/>
      </g>
     </g>
     <g id="text_11">
      <!-- 2011 -->
      <g transform="translate(519.957262 215.048437)rotate(-90)scale(0.1 -0.1)">
       <use xlink:href="#DejaVuSans-32"/>
       <use x="63.623047" xlink:href="#DejaVuSans-30"/>
       <use x="127.246094" xlink:href="#DejaVuSans-31"/>
       <use x="190.869141" xlink:href="#DejaVuSans-31"/>
      </g>
     </g>
    </g>
    <g id="xtick_15">
     <g id="line2d_26">
      <g>
       <use style="stroke:#000000;stroke-width:0.8;" x="548.035535" xlink:href="#mc2d5301b69" y="182.598437"/>
      </g>
     </g>
     <g id="text_12">
      <!-- 2012 -->
      <g transform="translate(550.79491 215.048437)rotate(-90)scale(0.1 -0.1)">
       <use xlink:href="#DejaVuSans-32"/>
       <use x="63.623047" xlink:href="#DejaVuSans-30"/>
       <use x="127.246094" xlink:href="#DejaVuSans-31"/>
       <use x="190.869141" xlink:href="#DejaVuSans-32"/>
      </g>
     </g>
    </g>
    <g id="xtick_16">
     <g id="line2d_27">
      <g>
       <use style="stroke:#000000;stroke-width:0.8;" x="578.873182" xlink:href="#mc2d5301b69" y="182.598437"/>
      </g>
     </g>
     <g id="text_13">
      <!-- 2013 -->
      <g transform="translate(581.632557 215.048437)rotate(-90)scale(0.1 -0.1)">
       <use xlink:href="#DejaVuSans-32"/>
       <use x="63.623047" xlink:href="#DejaVuSans-30"/>
       <use x="127.246094" xlink:href="#DejaVuSans-31"/>
       <use x="190.869141" xlink:href="#DejaVuSans-33"/>
      </g>
     </g>
    </g>
    <g id="xtick_17">
     <g id="line2d_28">
      <g>
       <use style="stroke:#000000;stroke-width:0.8;" x="609.71083" xlink:href="#mc2d5301b69" y="182.598437"/>
      </g>
     </g>
     <g id="text_14">
      <!-- 2014 -->
      <g transform="translate(612.470205 215.048437)rotate(-90)scale(0.1 -0.1)">
       <defs>
        <path d="M 2419 4116 
L 825 1625 
L 2419 1625 
L 2419 4116 
z
M 2253 4666 
L 3047 4666 
L 3047 1625 
L 3713 1625 
L 3713 1100 
L 3047 1100 
L 3047 0 
L 2419 0 
L 2419 1100 
L 313 1100 
L 313 1709 
L 2253 4666 
z
" id="DejaVuSans-34" transform="scale(0.015625)"/>
       </defs>
       <use xlink:href="#DejaVuSans-32"/>
       <use x="63.623047" xlink:href="#DejaVuSans-30"/>
       <use x="127.246094" xlink:href="#DejaVuSans-31"/>
       <use x="190.869141" xlink:href="#DejaVuSans-34"/>
      </g>
     </g>
    </g>
    <g id="xtick_18">
     <g id="line2d_29">
      <g>
       <use style="stroke:#000000;stroke-width:0.8;" x="640.548478" xlink:href="#mc2d5301b69" y="182.598437"/>
      </g>
     </g>
     <g id="text_15">
      <!-- 2015 -->
      <g transform="translate(643.307853 215.048437)rotate(-90)scale(0.1 -0.1)">
       <use xlink:href="#DejaVuSans-32"/>
       <use x="63.623047" xlink:href="#DejaVuSans-30"/>
       <use x="127.246094" xlink:href="#DejaVuSans-31"/>
       <use x="190.869141" xlink:href="#DejaVuSans-35"/>
      </g>
     </g>
    </g>
    <g id="xtick_19">
     <g id="line2d_30">
      <g>
       <use style="stroke:#000000;stroke-width:0.8;" x="671.386125" xlink:href="#mc2d5301b69" y="182.598437"/>
      </g>
     </g>
     <g id="text_16">
      <!-- 2016 -->
      <g transform="translate(674.1455 215.048437)rotate(-90)scale(0.1 -0.1)">
       <defs>
        <path d="M 2113 2584 
Q 1688 2584 1439 2293 
Q 1191 2003 1191 1497 
Q 1191 994 1439 701 
Q 1688 409 2113 409 
Q 2538 409 2786 701 
Q 3034 994 3034 1497 
Q 3034 2003 2786 2293 
Q 2538 2584 2113 2584 
z
M 3366 4563 
L 3366 3988 
Q 3128 4100 2886 4159 
Q 2644 4219 2406 4219 
Q 1781 4219 1451 3797 
Q 1122 3375 1075 2522 
Q 1259 2794 1537 2939 
Q 1816 3084 2150 3084 
Q 2853 3084 3261 2657 
Q 3669 2231 3669 1497 
Q 3669 778 3244 343 
Q 2819 -91 2113 -91 
Q 1303 -91 875 529 
Q 447 1150 447 2328 
Q 447 3434 972 4092 
Q 1497 4750 2381 4750 
Q 2619 4750 2861 4703 
Q 3103 4656 3366 4563 
z
" id="DejaVuSans-36" transform="scale(0.015625)"/>
       </defs>
       <use xlink:href="#DejaVuSans-32"/>
       <use x="63.623047" xlink:href="#DejaVuSans-30"/>
       <use x="127.246094" xlink:href="#DejaVuSans-31"/>
       <use x="190.869141" xlink:href="#DejaVuSans-36"/>
      </g>
     </g>
    </g>
    <g id="xtick_20">
     <g id="line2d_31">
      <g>
       <use style="stroke:#000000;stroke-width:0.8;" x="702.223773" xlink:href="#mc2d5301b69" y="182.598437"/>
      </g>
     </g>
     <g id="text_17">
      <!-- 2017 -->
      <g transform="translate(704.983148 215.048437)rotate(-90)scale(0.1 -0.1)">
       <defs>
        <path d="M 525 4666 
L 3525 4666 
L 3525 4397 
L 1831 0 
L 1172 0 
L 2766 4134 
L 525 4134 
L 525 4666 
z
" id="DejaVuSans-37" transform="scale(0.015625)"/>
       </defs>
       <use xlink:href="#DejaVuSans-32"/>
       <use x="63.623047" xlink:href="#DejaVuSans-30"/>
       <use x="127.246094" xlink:href="#DejaVuSans-31"/>
       <use x="190.869141" xlink:href="#DejaVuSans-37"/>
      </g>
     </g>
    </g>
    <g id="xtick_21">
     <g id="line2d_32">
      <g>
       <use style="stroke:#000000;stroke-width:0.8;" x="733.06142" xlink:href="#mc2d5301b69" y="182.598437"/>
      </g>
     </g>
     <g id="text_18">
      <!-- 2018 -->
      <g transform="translate(735.820795 215.048437)rotate(-90)scale(0.1 -0.1)">
       <defs>
        <path d="M 2034 2216 
Q 1584 2216 1326 1975 
Q 1069 1734 1069 1313 
Q 1069 891 1326 650 
Q 1584 409 2034 409 
Q 2484 409 2743 651 
Q 3003 894 3003 1313 
Q 3003 1734 2745 1975 
Q 2488 2216 2034 2216 
z
M 1403 2484 
Q 997 2584 770 2862 
Q 544 3141 544 3541 
Q 544 4100 942 4425 
Q 1341 4750 2034 4750 
Q 2731 4750 3128 4425 
Q 3525 4100 3525 3541 
Q 3525 3141 3298 2862 
Q 3072 2584 2669 2484 
Q 3125 2378 3379 2068 
Q 3634 1759 3634 1313 
Q 3634 634 3220 271 
Q 2806 -91 2034 -91 
Q 1263 -91 848 271 
Q 434 634 434 1313 
Q 434 1759 690 2068 
Q 947 2378 1403 2484 
z
M 1172 3481 
Q 1172 3119 1398 2916 
Q 1625 2713 2034 2713 
Q 2441 2713 2670 2916 
Q 2900 3119 2900 3481 
Q 2900 3844 2670 4047 
Q 2441 4250 2034 4250 
Q 1625 4250 1398 4047 
Q 1172 3844 1172 3481 
z
" id="DejaVuSans-38" transform="scale(0.015625)"/>
       </defs>
       <use xlink:href="#DejaVuSans-32"/>
       <use x="63.623047" xlink:href="#DejaVuSans-30"/>
       <use x="127.246094" xlink:href="#DejaVuSans-31"/>
       <use x="190.869141" xlink:href="#DejaVuSans-38"/>
      </g>
     </g>
    </g>
    <g id="xtick_22">
     <g id="line2d_33">
      <g>
       <use style="stroke:#000000;stroke-width:0.8;" x="763.899068" xlink:href="#mc2d5301b69" y="182.598437"/>
      </g>
     </g>
     <g id="text_19">
      <!-- 2019 -->
      <g transform="translate(766.658443 215.048437)rotate(-90)scale(0.1 -0.1)">
       <defs>
        <path d="M 703 97 
L 703 672 
Q 941 559 1184 500 
Q 1428 441 1663 441 
Q 2288 441 2617 861 
Q 2947 1281 2994 2138 
Q 2813 1869 2534 1725 
Q 2256 1581 1919 1581 
Q 1219 1581 811 2004 
Q 403 2428 403 3163 
Q 403 3881 828 4315 
Q 1253 4750 1959 4750 
Q 2769 4750 3195 4129 
Q 3622 3509 3622 2328 
Q 3622 1225 3098 567 
Q 2575 -91 1691 -91 
Q 1453 -91 1209 -44 
Q 966 3 703 97 
z
M 1959 2075 
Q 2384 2075 2632 2365 
Q 2881 2656 2881 3163 
Q 2881 3666 2632 3958 
Q 2384 4250 1959 4250 
Q 1534 4250 1286 3958 
Q 1038 3666 1038 3163 
Q 1038 2656 1286 2365 
Q 1534 2075 1959 2075 
z
" id="DejaVuSans-39" transform="scale(0.015625)"/>
       </defs>
       <use xlink:href="#DejaVuSans-32"/>
       <use x="63.623047" xlink:href="#DejaVuSans-30"/>
       <use x="127.246094" xlink:href="#DejaVuSans-31"/>
       <use x="190.869141" xlink:href="#DejaVuSans-39"/>
      </g>
     </g>
    </g>
    <g id="xtick_23">
     <g id="line2d_34">
      <g>
       <use style="stroke:#000000;stroke-width:0.8;" x="794.736716" xlink:href="#mc2d5301b69" y="182.598437"/>
      </g>
     </g>
     <g id="text_20">
      <!-- 2020 -->
      <g transform="translate(797.496091 215.048437)rotate(-90)scale(0.1 -0.1)">
       <use xlink:href="#DejaVuSans-32"/>
       <use x="63.623047" xlink:href="#DejaVuSans-30"/>
       <use x="127.246094" xlink:href="#DejaVuSans-32"/>
       <use x="190.869141" xlink:href="#DejaVuSans-30"/>
      </g>
     </g>
    </g>
    <g id="xtick_24">
     <g id="line2d_35">
      <g>
       <use style="stroke:#000000;stroke-width:0.8;" x="825.574363" xlink:href="#mc2d5301b69" y="182.598437"/>
      </g>
     </g>
     <g id="text_21">
      <!-- 2021 -->
      <g transform="translate(828.333738 215.048437)rotate(-90)scale(0.1 -0.1)">
       <use xlink:href="#DejaVuSans-32"/>
       <use x="63.623047" xlink:href="#DejaVuSans-30"/>
       <use x="127.246094" xlink:href="#DejaVuSans-32"/>
       <use x="190.869141" xlink:href="#DejaVuSans-31"/>
      </g>
     </g>
    </g>
    <g id="text_22">
     <!-- year -->
     <g transform="translate(644.811833 226.646875)scale(0.1 -0.1)">
      <defs>
       <path d="M 2059 -325 
Q 1816 -950 1584 -1140 
Q 1353 -1331 966 -1331 
L 506 -1331 
L 506 -850 
L 844 -850 
Q 1081 -850 1212 -737 
Q 1344 -625 1503 -206 
L 1606 56 
L 191 3500 
L 800 3500 
L 1894 763 
L 2988 3500 
L 3597 3500 
L 2059 -325 
z
" id="DejaVuSans-79" transform="scale(0.015625)"/>
      </defs>
      <use xlink:href="#DejaVuSans-79"/>
      <use x="59.179688" xlink:href="#DejaVuSans-65"/>
      <use x="120.703125" xlink:href="#DejaVuSans-61"/>
      <use x="181.982422" xlink:href="#DejaVuSans-72"/>
     </g>
    </g>
   </g>
   <g id="matplotlib.axis_4">
    <g id="ytick_8">
     <g id="line2d_36">
      <g>
       <use style="stroke:#000000;stroke-width:0.8;" x="469.399533" xlink:href="#m6e17e07f65" y="172.15277"/>
      </g>
     </g>
     <g id="text_23">
      <!-- 250 -->
      <g transform="translate(443.312033 175.951989)scale(0.1 -0.1)">
       <use xlink:href="#DejaVuSans-32"/>
       <use x="63.623047" xlink:href="#DejaVuSans-35"/>
       <use x="127.246094" xlink:href="#DejaVuSans-30"/>
      </g>
     </g>
    </g>
    <g id="ytick_9">
     <g id="line2d_37">
      <g>
       <use style="stroke:#000000;stroke-width:0.8;" x="469.399533" xlink:href="#m6e17e07f65" y="150.800545"/>
      </g>
     </g>
     <g id="text_24">
      <!-- 500 -->
      <g transform="translate(443.312033 154.599764)scale(0.1 -0.1)">
       <use xlink:href="#DejaVuSans-35"/>
       <use x="63.623047" xlink:href="#DejaVuSans-30"/>
       <use x="127.246094" xlink:href="#DejaVuSans-30"/>
      </g>
     </g>
    </g>
    <g id="ytick_10">
     <g id="line2d_38">
      <g>
       <use style="stroke:#000000;stroke-width:0.8;" x="469.399533" xlink:href="#m6e17e07f65" y="129.44832"/>
      </g>
     </g>
     <g id="text_25">
      <!-- 750 -->
      <g transform="translate(443.312033 133.247539)scale(0.1 -0.1)">
       <use xlink:href="#DejaVuSans-37"/>
       <use x="63.623047" xlink:href="#DejaVuSans-35"/>
       <use x="127.246094" xlink:href="#DejaVuSans-30"/>
      </g>
     </g>
    </g>
    <g id="ytick_11">
     <g id="line2d_39">
      <g>
       <use style="stroke:#000000;stroke-width:0.8;" x="469.399533" xlink:href="#m6e17e07f65" y="108.096095"/>
      </g>
     </g>
     <g id="text_26">
      <!-- 1000 -->
      <g transform="translate(436.949533 111.895314)scale(0.1 -0.1)">
       <use xlink:href="#DejaVuSans-31"/>
       <use x="63.623047" xlink:href="#DejaVuSans-30"/>
       <use x="127.246094" xlink:href="#DejaVuSans-30"/>
       <use x="190.869141" xlink:href="#DejaVuSans-30"/>
      </g>
     </g>
    </g>
    <g id="ytick_12">
     <g id="line2d_40">
      <g>
       <use style="stroke:#000000;stroke-width:0.8;" x="469.399533" xlink:href="#m6e17e07f65" y="86.74387"/>
      </g>
     </g>
     <g id="text_27">
      <!-- 1250 -->
      <g transform="translate(436.949533 90.543089)scale(0.1 -0.1)">
       <use xlink:href="#DejaVuSans-31"/>
       <use x="63.623047" xlink:href="#DejaVuSans-32"/>
       <use x="127.246094" xlink:href="#DejaVuSans-35"/>
       <use x="190.869141" xlink:href="#DejaVuSans-30"/>
      </g>
     </g>
    </g>
    <g id="ytick_13">
     <g id="line2d_41">
      <g>
       <use style="stroke:#000000;stroke-width:0.8;" x="469.399533" xlink:href="#m6e17e07f65" y="65.391645"/>
      </g>
     </g>
     <g id="text_28">
      <!-- 1500 -->
      <g transform="translate(436.949533 69.190863)scale(0.1 -0.1)">
       <use xlink:href="#DejaVuSans-31"/>
       <use x="63.623047" xlink:href="#DejaVuSans-35"/>
       <use x="127.246094" xlink:href="#DejaVuSans-30"/>
       <use x="190.869141" xlink:href="#DejaVuSans-30"/>
      </g>
     </g>
    </g>
    <g id="ytick_14">
     <g id="line2d_42">
      <g>
       <use style="stroke:#000000;stroke-width:0.8;" x="469.399533" xlink:href="#m6e17e07f65" y="44.03942"/>
      </g>
     </g>
     <g id="text_29">
      <!-- 1750 -->
      <g transform="translate(436.949533 47.838638)scale(0.1 -0.1)">
       <use xlink:href="#DejaVuSans-31"/>
       <use x="63.623047" xlink:href="#DejaVuSans-37"/>
       <use x="127.246094" xlink:href="#DejaVuSans-35"/>
       <use x="190.869141" xlink:href="#DejaVuSans-30"/>
      </g>
     </g>
    </g>
    <g id="ytick_15">
     <g id="line2d_43">
      <g>
       <use style="stroke:#000000;stroke-width:0.8;" x="469.399533" xlink:href="#m6e17e07f65" y="22.687195"/>
      </g>
     </g>
     <g id="text_30">
      <!-- 2000 -->
      <g transform="translate(436.949533 26.486413)scale(0.1 -0.1)">
       <use xlink:href="#DejaVuSans-32"/>
       <use x="63.623047" xlink:href="#DejaVuSans-30"/>
       <use x="127.246094" xlink:href="#DejaVuSans-30"/>
       <use x="190.869141" xlink:href="#DejaVuSans-30"/>
      </g>
     </g>
    </g>
    <g id="text_31">
     <!-- mean deaths per week -->
     <g transform="translate(430.869846 159.1375)rotate(-90)scale(0.1 -0.1)">
      <use xlink:href="#DejaVuSans-6d"/>
      <use x="97.412109" xlink:href="#DejaVuSans-65"/>
      <use x="158.935547" xlink:href="#DejaVuSans-61"/>
      <use x="220.214844" xlink:href="#DejaVuSans-6e"/>
      <use x="283.59375" xlink:href="#DejaVuSans-20"/>
      <use x="315.380859" xlink:href="#DejaVuSans-64"/>
      <use x="378.857422" xlink:href="#DejaVuSans-65"/>
      <use x="440.380859" xlink:href="#DejaVuSans-61"/>
      <use x="501.660156" xlink:href="#DejaVuSans-74"/>
      <use x="540.869141" xlink:href="#DejaVuSans-68"/>
      <use x="604.248047" xlink:href="#DejaVuSans-73"/>
      <use x="656.347656" xlink:href="#DejaVuSans-20"/>
      <use x="688.134766" xlink:href="#DejaVuSans-70"/>
      <use x="751.611328" xlink:href="#DejaVuSans-65"/>
      <use x="813.134766" xlink:href="#DejaVuSans-72"/>
      <use x="854.248047" xlink:href="#DejaVuSans-20"/>
      <use x="886.035156" xlink:href="#DejaVuSans-77"/>
      <use x="967.822266" xlink:href="#DejaVuSans-65"/>
      <use x="1029.345703" xlink:href="#DejaVuSans-65"/>
      <use x="1090.869141" xlink:href="#DejaVuSans-6b"/>
     </g>
    </g>
   </g>
   <g id="line2d_44">
    <path clip-path="url(#p764a3fc0d4)" d="M 486.36024 85.3724 
L 517.197887 86.666673 
L 548.035535 82.578543 
L 578.873182 81.538854 
L 609.71083 83.659295 
L 640.548478 77.002421 
L 671.386125 75.653853 
L 702.223773 74.523827 
L 733.06142 71.454034 
L 763.899068 71.578863 
L 794.736716 55.529334 
L 825.574363 60.088348 
" style="fill:none;stroke:#1f77b4;stroke-linecap:square;stroke-opacity:0.7;stroke-width:1.5;"/>
   </g>
   <g id="line2d_45">
    <path clip-path="url(#p764a3fc0d4)" d="M 486.36024 170.173583 
L 517.197887 171.265831 
L 548.035535 171.4038 
L 578.873182 171.875191 
L 609.71083 172.55025 
L 640.548478 172.666835 
L 671.386125 172.691503 
L 702.223773 172.942802 
L 733.06142 173.111978 
L 763.899068 173.711482 
L 794.736716 172.615267 
L 825.574363 172.618452 
" style="fill:none;stroke:#ff7f0e;stroke-linecap:square;stroke-opacity:0.7;stroke-width:1.5;"/>
   </g>
   <g id="line2d_46">
    <path clip-path="url(#p764a3fc0d4)" d="M 486.36024 153.972172 
L 517.197887 154.906742 
L 548.035535 153.658458 
L 578.873182 153.081948 
L 609.71083 154.023088 
L 640.548478 151.335559 
L 671.386125 151.202952 
L 702.223773 151.16846 
L 733.06142 149.788778 
L 763.899068 150.105776 
L 794.736716 144.27885 
L 825.574363 144.889029 
" style="fill:none;stroke:#2ca02c;stroke-linecap:square;stroke-opacity:0.7;stroke-width:1.5;"/>
   </g>
   <g id="line2d_47">
    <path clip-path="url(#p764a3fc0d4)" d="M 486.36024 148.236635 
L 517.197887 147.50409 
L 548.035535 144.526276 
L 578.873182 143.591705 
L 609.71083 144.095946 
L 640.548478 140.010017 
L 671.386125 138.769387 
L 702.223773 137.422555 
L 733.06142 135.563269 
L 763.899068 134.771594 
L 794.736716 125.645207 
L 825.574363 129.869264 
" style="fill:none;stroke:#d62728;stroke-linecap:square;stroke-opacity:0.7;stroke-width:1.5;"/>
   </g>
   <g id="patch_6">
    <path d="M 469.399533 182.598437 
L 469.399533 20.798437 
" style="fill:none;stroke:#000000;stroke-linecap:square;stroke-linejoin:miter;stroke-width:0.8;"/>
   </g>
   <g id="patch_7">
    <path d="M 469.399533 182.598437 
L 842.535069 182.598437 
" style="fill:none;stroke:#000000;stroke-linecap:square;stroke-linejoin:miter;stroke-width:0.8;"/>
   </g>
   <g id="text_32">
    <!-- gender = Mannen -->
    <g transform="translate(610.912614 14.798437)scale(0.1 -0.1)">
     <defs>
      <path d="M 628 4666 
L 1569 4666 
L 2759 1491 
L 3956 4666 
L 4897 4666 
L 4897 0 
L 4281 0 
L 4281 4097 
L 3078 897 
L 2444 897 
L 1241 4097 
L 1241 0 
L 628 0 
L 628 4666 
z
" id="DejaVuSans-4d" transform="scale(0.015625)"/>
     </defs>
     <use xlink:href="#DejaVuSans-67"/>
     <use x="63.476562" xlink:href="#DejaVuSans-65"/>
     <use x="125" xlink:href="#DejaVuSans-6e"/>
     <use x="188.378906" xlink:href="#DejaVuSans-64"/>
     <use x="251.855469" xlink:href="#DejaVuSans-65"/>
     <use x="313.378906" xlink:href="#DejaVuSans-72"/>
     <use x="354.492188" xlink:href="#DejaVuSans-20"/>
     <use x="386.279297" xlink:href="#DejaVuSans-3d"/>
     <use x="470.068359" xlink:href="#DejaVuSans-20"/>
     <use x="501.855469" xlink:href="#DejaVuSans-4d"/>
     <use x="588.134766" xlink:href="#DejaVuSans-61"/>
     <use x="649.414062" xlink:href="#DejaVuSans-6e"/>
     <use x="712.792969" xlink:href="#DejaVuSans-6e"/>
     <use x="776.171875" xlink:href="#DejaVuSans-65"/>
     <use x="837.695312" xlink:href="#DejaVuSans-6e"/>
    </g>
   </g>
  </g>
  <g id="axes_3">
   <g id="patch_8">
    <path d="M 53.328125 386.198437 
L 426.463661 386.198437 
L 426.463661 224.398437 
L 53.328125 224.398437 
z
" style="fill:#ffffff;"/>
   </g>
   <g id="PolyCollection_9">
    <defs>
     <path d="M 70.288831 -169.97916 
L 70.288831 -153.298615 
L 101.126479 -155.384317 
L 131.964126 -156.720038 
L 162.801774 -153.462973 
L 193.639422 -158.022018 
L 224.477069 -157.588211 
L 255.314717 -161.591599 
L 286.152364 -158.062392 
L 316.990012 -156.670871 
L 347.82766 -164.075638 
L 378.665307 -161.725269 
L 409.502955 -165.958406 
L 409.502955 -193.646007 
L 409.502955 -193.646007 
L 378.665307 -207.77358 
L 347.82766 -183.288321 
L 316.990012 -195.091377 
L 286.152364 -189.481022 
L 255.314717 -183.168625 
L 224.477069 -185.647472 
L 193.639422 -171.468178 
L 162.801774 -179.058389 
L 131.964126 -175.044348 
L 101.126479 -169.241006 
L 70.288831 -169.97916 
z
" id="m79b94c5c60" style="stroke:#1f77b4;stroke-opacity:0.2;"/>
    </defs>
    <g clip-path="url(#p7c39887059)">
     <use style="fill:#1f77b4;fill-opacity:0.2;stroke:#1f77b4;stroke-opacity:0.2;" x="0" xlink:href="#m79b94c5c60" y="439.526562"/>
    </g>
   </g>
   <g id="PolyCollection_10">
    <defs>
     <path d="M 70.288831 -65.48859 
L 70.288831 -62.652602 
L 101.126479 -62.845166 
L 131.964126 -62.373117 
L 162.801774 -61.738773 
L 193.639422 -61.321218 
L 224.477069 -61.476875 
L 255.314717 -61.867663 
L 286.152364 -61.331495 
L 316.990012 -61.166024 
L 347.82766 -60.706755 
L 378.665307 -60.68267 
L 409.502955 -61.442282 
L 409.502955 -63.753976 
L 409.502955 -63.753976 
L 378.665307 -63.506562 
L 347.82766 -63.437475 
L 316.990012 -63.79065 
L 286.152364 -63.723064 
L 255.314717 -64.436558 
L 224.477069 -64.476254 
L 193.639422 -64.47074 
L 162.801774 -64.78732 
L 131.964126 -64.887112 
L 101.126479 -65.123096 
L 70.288831 -65.48859 
z
" id="md58d09f83e" style="stroke:#ff7f0e;stroke-opacity:0.2;"/>
    </defs>
    <g clip-path="url(#p7c39887059)">
     <use style="fill:#ff7f0e;fill-opacity:0.2;stroke:#ff7f0e;stroke-opacity:0.2;" x="0" xlink:href="#md58d09f83e" y="439.526562"/>
    </g>
   </g>
   <g id="PolyCollection_11">
    <defs>
     <path d="M 70.288831 -76.11434 
L 70.288831 -72.282477 
L 101.126479 -72.760762 
L 131.964126 -73.059763 
L 162.801774 -73.313812 
L 193.639422 -73.569804 
L 224.477069 -74.600483 
L 255.314717 -75.225511 
L 286.152364 -74.872028 
L 316.990012 -75.436236 
L 347.82766 -76.967521 
L 378.665307 -76.832025 
L 409.502955 -79.727485 
L 409.502955 -85.421304 
L 409.502955 -85.421304 
L 378.665307 -87.273761 
L 347.82766 -81.625628 
L 316.990012 -82.57613 
L 286.152364 -80.869411 
L 255.314717 -79.96451 
L 224.477069 -79.178027 
L 193.639422 -77.649358 
L 162.801774 -77.099432 
L 131.964126 -77.402423 
L 101.126479 -76.441973 
L 70.288831 -76.11434 
z
" id="m77f834eff0" style="stroke:#2ca02c;stroke-opacity:0.2;"/>
    </defs>
    <g clip-path="url(#p7c39887059)">
     <use style="fill:#2ca02c;fill-opacity:0.2;stroke:#2ca02c;stroke-opacity:0.2;" x="0" xlink:href="#m77f834eff0" y="439.526562"/>
    </g>
   </g>
   <g id="PolyCollection_12">
    <defs>
     <path d="M 70.288831 -125.277316 
L 70.288831 -112.08372 
L 101.126479 -113.52585 
L 131.964126 -115.049723 
L 162.801774 -112.585075 
L 193.639422 -116.245499 
L 224.477069 -115.085735 
L 255.314717 -118.746641 
L 286.152364 -115.752365 
L 316.990012 -113.942918 
L 347.82766 -120.225206 
L 378.665307 -118.444924 
L 409.502955 -118.056706 
L 409.502955 -141.402675 
L 409.502955 -141.402675 
L 378.665307 -153.380176 
L 347.82766 -135.022643 
L 316.990012 -145.47156 
L 286.152364 -141.616322 
L 255.314717 -135.14061 
L 224.477069 -139.039579 
L 193.639422 -126.854848 
L 162.801774 -133.61822 
L 131.964126 -129.613518 
L 101.126479 -124.549745 
L 70.288831 -125.277316 
z
" id="m98ffef1f3b" style="stroke:#d62728;stroke-opacity:0.2;"/>
    </defs>
    <g clip-path="url(#p7c39887059)">
     <use style="fill:#d62728;fill-opacity:0.2;stroke:#d62728;stroke-opacity:0.2;" x="0" xlink:href="#m98ffef1f3b" y="439.526562"/>
    </g>
   </g>
   <g id="matplotlib.axis_5">
    <g id="xtick_25">
     <g id="line2d_48">
      <g>
       <use style="stroke:#000000;stroke-width:0.8;" x="70.288831" xlink:href="#mc2d5301b69" y="386.198437"/>
      </g>
     </g>
     <g id="text_33">
      <!-- 2010 -->
      <g transform="translate(73.048206 418.648437)rotate(-90)scale(0.1 -0.1)">
       <use xlink:href="#DejaVuSans-32"/>
       <use x="63.623047" xlink:href="#DejaVuSans-30"/>
       <use x="127.246094" xlink:href="#DejaVuSans-31"/>
       <use x="190.869141" xlink:href="#DejaVuSans-30"/>
      </g>
     </g>
    </g>
    <g id="xtick_26">
     <g id="line2d_49">
      <g>
       <use style="stroke:#000000;stroke-width:0.8;" x="101.126479" xlink:href="#mc2d5301b69" y="386.198437"/>
      </g>
     </g>
     <g id="text_34">
      <!-- 2011 -->
      <g transform="translate(103.885854 418.648437)rotate(-90)scale(0.1 -0.1)">
       <use xlink:href="#DejaVuSans-32"/>
       <use x="63.623047" xlink:href="#DejaVuSans-30"/>
       <use x="127.246094" xlink:href="#DejaVuSans-31"/>
       <use x="190.869141" xlink:href="#DejaVuSans-31"/>
      </g>
     </g>
    </g>
    <g id="xtick_27">
     <g id="line2d_50">
      <g>
       <use style="stroke:#000000;stroke-width:0.8;" x="131.964126" xlink:href="#mc2d5301b69" y="386.198437"/>
      </g>
     </g>
     <g id="text_35">
      <!-- 2012 -->
      <g transform="translate(134.723501 418.648437)rotate(-90)scale(0.1 -0.1)">
       <use xlink:href="#DejaVuSans-32"/>
       <use x="63.623047" xlink:href="#DejaVuSans-30"/>
       <use x="127.246094" xlink:href="#DejaVuSans-31"/>
       <use x="190.869141" xlink:href="#DejaVuSans-32"/>
      </g>
     </g>
    </g>
    <g id="xtick_28">
     <g id="line2d_51">
      <g>
       <use style="stroke:#000000;stroke-width:0.8;" x="162.801774" xlink:href="#mc2d5301b69" y="386.198437"/>
      </g>
     </g>
     <g id="text_36">
      <!-- 2013 -->
      <g transform="translate(165.561149 418.648437)rotate(-90)scale(0.1 -0.1)">
       <use xlink:href="#DejaVuSans-32"/>
       <use x="63.623047" xlink:href="#DejaVuSans-30"/>
       <use x="127.246094" xlink:href="#DejaVuSans-31"/>
       <use x="190.869141" xlink:href="#DejaVuSans-33"/>
      </g>
     </g>
    </g>
    <g id="xtick_29">
     <g id="line2d_52">
      <g>
       <use style="stroke:#000000;stroke-width:0.8;" x="193.639422" xlink:href="#mc2d5301b69" y="386.198437"/>
      </g>
     </g>
     <g id="text_37">
      <!-- 2014 -->
      <g transform="translate(196.398797 418.648437)rotate(-90)scale(0.1 -0.1)">
       <use xlink:href="#DejaVuSans-32"/>
       <use x="63.623047" xlink:href="#DejaVuSans-30"/>
       <use x="127.246094" xlink:href="#DejaVuSans-31"/>
       <use x="190.869141" xlink:href="#DejaVuSans-34"/>
      </g>
     </g>
    </g>
    <g id="xtick_30">
     <g id="line2d_53">
      <g>
       <use style="stroke:#000000;stroke-width:0.8;" x="224.477069" xlink:href="#mc2d5301b69" y="386.198437"/>
      </g>
     </g>
     <g id="text_38">
      <!-- 2015 -->
      <g transform="translate(227.236444 418.648437)rotate(-90)scale(0.1 -0.1)">
       <use xlink:href="#DejaVuSans-32"/>
       <use x="63.623047" xlink:href="#DejaVuSans-30"/>
       <use x="127.246094" xlink:href="#DejaVuSans-31"/>
       <use x="190.869141" xlink:href="#DejaVuSans-35"/>
      </g>
     </g>
    </g>
    <g id="xtick_31">
     <g id="line2d_54">
      <g>
       <use style="stroke:#000000;stroke-width:0.8;" x="255.314717" xlink:href="#mc2d5301b69" y="386.198437"/>
      </g>
     </g>
     <g id="text_39">
      <!-- 2016 -->
      <g transform="translate(258.074092 418.648437)rotate(-90)scale(0.1 -0.1)">
       <use xlink:href="#DejaVuSans-32"/>
       <use x="63.623047" xlink:href="#DejaVuSans-30"/>
       <use x="127.246094" xlink:href="#DejaVuSans-31"/>
       <use x="190.869141" xlink:href="#DejaVuSans-36"/>
      </g>
     </g>
    </g>
    <g id="xtick_32">
     <g id="line2d_55">
      <g>
       <use style="stroke:#000000;stroke-width:0.8;" x="286.152364" xlink:href="#mc2d5301b69" y="386.198437"/>
      </g>
     </g>
     <g id="text_40">
      <!-- 2017 -->
      <g transform="translate(288.911739 418.648437)rotate(-90)scale(0.1 -0.1)">
       <use xlink:href="#DejaVuSans-32"/>
       <use x="63.623047" xlink:href="#DejaVuSans-30"/>
       <use x="127.246094" xlink:href="#DejaVuSans-31"/>
       <use x="190.869141" xlink:href="#DejaVuSans-37"/>
      </g>
     </g>
    </g>
    <g id="xtick_33">
     <g id="line2d_56">
      <g>
       <use style="stroke:#000000;stroke-width:0.8;" x="316.990012" xlink:href="#mc2d5301b69" y="386.198437"/>
      </g>
     </g>
     <g id="text_41">
      <!-- 2018 -->
      <g transform="translate(319.749387 418.648437)rotate(-90)scale(0.1 -0.1)">
       <use xlink:href="#DejaVuSans-32"/>
       <use x="63.623047" xlink:href="#DejaVuSans-30"/>
       <use x="127.246094" xlink:href="#DejaVuSans-31"/>
       <use x="190.869141" xlink:href="#DejaVuSans-38"/>
      </g>
     </g>
    </g>
    <g id="xtick_34">
     <g id="line2d_57">
      <g>
       <use style="stroke:#000000;stroke-width:0.8;" x="347.82766" xlink:href="#mc2d5301b69" y="386.198437"/>
      </g>
     </g>
     <g id="text_42">
      <!-- 2019 -->
      <g transform="translate(350.587035 418.648437)rotate(-90)scale(0.1 -0.1)">
       <use xlink:href="#DejaVuSans-32"/>
       <use x="63.623047" xlink:href="#DejaVuSans-30"/>
       <use x="127.246094" xlink:href="#DejaVuSans-31"/>
       <use x="190.869141" xlink:href="#DejaVuSans-39"/>
      </g>
     </g>
    </g>
    <g id="xtick_35">
     <g id="line2d_58">
      <g>
       <use style="stroke:#000000;stroke-width:0.8;" x="378.665307" xlink:href="#mc2d5301b69" y="386.198437"/>
      </g>
     </g>
     <g id="text_43">
      <!-- 2020 -->
      <g transform="translate(381.424682 418.648437)rotate(-90)scale(0.1 -0.1)">
       <use xlink:href="#DejaVuSans-32"/>
       <use x="63.623047" xlink:href="#DejaVuSans-30"/>
       <use x="127.246094" xlink:href="#DejaVuSans-32"/>
       <use x="190.869141" xlink:href="#DejaVuSans-30"/>
      </g>
     </g>
    </g>
    <g id="xtick_36">
     <g id="line2d_59">
      <g>
       <use style="stroke:#000000;stroke-width:0.8;" x="409.502955" xlink:href="#mc2d5301b69" y="386.198437"/>
      </g>
     </g>
     <g id="text_44">
      <!-- 2021 -->
      <g transform="translate(412.26233 418.648437)rotate(-90)scale(0.1 -0.1)">
       <use xlink:href="#DejaVuSans-32"/>
       <use x="63.623047" xlink:href="#DejaVuSans-30"/>
       <use x="127.246094" xlink:href="#DejaVuSans-32"/>
       <use x="190.869141" xlink:href="#DejaVuSans-31"/>
      </g>
     </g>
    </g>
    <g id="text_45">
     <!-- year -->
     <g transform="translate(228.740424 430.246875)scale(0.1 -0.1)">
      <use xlink:href="#DejaVuSans-79"/>
      <use x="59.179688" xlink:href="#DejaVuSans-65"/>
      <use x="120.703125" xlink:href="#DejaVuSans-61"/>
      <use x="181.982422" xlink:href="#DejaVuSans-72"/>
     </g>
    </g>
   </g>
   <g id="matplotlib.axis_6">
    <g id="ytick_16">
     <g id="line2d_60">
      <g>
       <use style="stroke:#000000;stroke-width:0.8;" x="53.328125" xlink:href="#m6e17e07f65" y="370.662875"/>
      </g>
     </g>
     <g id="text_46">
      <!-- 250 -->
      <g transform="translate(27.240625 374.462094)scale(0.1 -0.1)">
       <use xlink:href="#DejaVuSans-32"/>
       <use x="63.623047" xlink:href="#DejaVuSans-35"/>
       <use x="127.246094" xlink:href="#DejaVuSans-30"/>
      </g>
     </g>
    </g>
    <g id="ytick_17">
     <g id="line2d_61">
      <g>
       <use style="stroke:#000000;stroke-width:0.8;" x="53.328125" xlink:href="#m6e17e07f65" y="349.454505"/>
      </g>
     </g>
     <g id="text_47">
      <!-- 500 -->
      <g transform="translate(27.240625 353.253723)scale(0.1 -0.1)">
       <use xlink:href="#DejaVuSans-35"/>
       <use x="63.623047" xlink:href="#DejaVuSans-30"/>
       <use x="127.246094" xlink:href="#DejaVuSans-30"/>
      </g>
     </g>
    </g>
    <g id="ytick_18">
     <g id="line2d_62">
      <g>
       <use style="stroke:#000000;stroke-width:0.8;" x="53.328125" xlink:href="#m6e17e07f65" y="328.246134"/>
      </g>
     </g>
     <g id="text_48">
      <!-- 750 -->
      <g transform="translate(27.240625 332.045353)scale(0.1 -0.1)">
       <use xlink:href="#DejaVuSans-37"/>
       <use x="63.623047" xlink:href="#DejaVuSans-35"/>
       <use x="127.246094" xlink:href="#DejaVuSans-30"/>
      </g>
     </g>
    </g>
    <g id="ytick_19">
     <g id="line2d_63">
      <g>
       <use style="stroke:#000000;stroke-width:0.8;" x="53.328125" xlink:href="#m6e17e07f65" y="307.037764"/>
      </g>
     </g>
     <g id="text_49">
      <!-- 1000 -->
      <g transform="translate(20.878125 310.836983)scale(0.1 -0.1)">
       <use xlink:href="#DejaVuSans-31"/>
       <use x="63.623047" xlink:href="#DejaVuSans-30"/>
       <use x="127.246094" xlink:href="#DejaVuSans-30"/>
       <use x="190.869141" xlink:href="#DejaVuSans-30"/>
      </g>
     </g>
    </g>
    <g id="ytick_20">
     <g id="line2d_64">
      <g>
       <use style="stroke:#000000;stroke-width:0.8;" x="53.328125" xlink:href="#m6e17e07f65" y="285.829394"/>
      </g>
     </g>
     <g id="text_50">
      <!-- 1250 -->
      <g transform="translate(20.878125 289.628612)scale(0.1 -0.1)">
       <use xlink:href="#DejaVuSans-31"/>
       <use x="63.623047" xlink:href="#DejaVuSans-32"/>
       <use x="127.246094" xlink:href="#DejaVuSans-35"/>
       <use x="190.869141" xlink:href="#DejaVuSans-30"/>
      </g>
     </g>
    </g>
    <g id="ytick_21">
     <g id="line2d_65">
      <g>
       <use style="stroke:#000000;stroke-width:0.8;" x="53.328125" xlink:href="#m6e17e07f65" y="264.621023"/>
      </g>
     </g>
     <g id="text_51">
      <!-- 1500 -->
      <g transform="translate(20.878125 268.420242)scale(0.1 -0.1)">
       <use xlink:href="#DejaVuSans-31"/>
       <use x="63.623047" xlink:href="#DejaVuSans-35"/>
       <use x="127.246094" xlink:href="#DejaVuSans-30"/>
       <use x="190.869141" xlink:href="#DejaVuSans-30"/>
      </g>
     </g>
    </g>
    <g id="ytick_22">
     <g id="line2d_66">
      <g>
       <use style="stroke:#000000;stroke-width:0.8;" x="53.328125" xlink:href="#m6e17e07f65" y="243.412653"/>
      </g>
     </g>
     <g id="text_52">
      <!-- 1750 -->
      <g transform="translate(20.878125 247.211872)scale(0.1 -0.1)">
       <use xlink:href="#DejaVuSans-31"/>
       <use x="63.623047" xlink:href="#DejaVuSans-37"/>
       <use x="127.246094" xlink:href="#DejaVuSans-35"/>
       <use x="190.869141" xlink:href="#DejaVuSans-30"/>
      </g>
     </g>
    </g>
    <g id="text_53">
     <!-- mean deaths per week -->
     <g transform="translate(14.798438 362.7375)rotate(-90)scale(0.1 -0.1)">
      <use xlink:href="#DejaVuSans-6d"/>
      <use x="97.412109" xlink:href="#DejaVuSans-65"/>
      <use x="158.935547" xlink:href="#DejaVuSans-61"/>
      <use x="220.214844" xlink:href="#DejaVuSans-6e"/>
      <use x="283.59375" xlink:href="#DejaVuSans-20"/>
      <use x="315.380859" xlink:href="#DejaVuSans-64"/>
      <use x="378.857422" xlink:href="#DejaVuSans-65"/>
      <use x="440.380859" xlink:href="#DejaVuSans-61"/>
      <use x="501.660156" xlink:href="#DejaVuSans-74"/>
      <use x="540.869141" xlink:href="#DejaVuSans-68"/>
      <use x="604.248047" xlink:href="#DejaVuSans-73"/>
      <use x="656.347656" xlink:href="#DejaVuSans-20"/>
      <use x="688.134766" xlink:href="#DejaVuSans-70"/>
      <use x="751.611328" xlink:href="#DejaVuSans-65"/>
      <use x="813.134766" xlink:href="#DejaVuSans-72"/>
      <use x="854.248047" xlink:href="#DejaVuSans-20"/>
      <use x="886.035156" xlink:href="#DejaVuSans-77"/>
      <use x="967.822266" xlink:href="#DejaVuSans-65"/>
      <use x="1029.345703" xlink:href="#DejaVuSans-65"/>
      <use x="1090.869141" xlink:href="#DejaVuSans-6b"/>
     </g>
    </g>
   </g>
   <g id="line2d_67">
    <path clip-path="url(#p7c39887059)" d="M 70.288831 277.887675 
L 101.126479 277.213901 
L 131.964126 273.644369 
L 162.801774 273.265881 
L 193.639422 274.781464 
L 224.477069 267.908721 
L 255.314717 267.146451 
L 286.152364 265.754856 
L 316.990012 263.645438 
L 347.82766 265.844583 
L 378.665307 254.777138 
L 409.502955 259.724356 
" style="fill:none;stroke:#1f77b4;stroke-linecap:square;stroke-opacity:0.7;stroke-width:1.5;"/>
   </g>
   <g id="line2d_68">
    <path clip-path="url(#p7c39887059)" d="M 70.288831 375.455967 
L 101.126479 375.542431 
L 131.964126 375.896448 
L 162.801774 376.263516 
L 193.639422 376.630584 
L 224.477069 376.549998 
L 255.314717 376.374452 
L 286.152364 376.999283 
L 316.990012 377.048226 
L 347.82766 377.454448 
L 378.665307 377.431946 
L 409.502955 376.928433 
" style="fill:none;stroke:#ff7f0e;stroke-linecap:square;stroke-opacity:0.7;stroke-width:1.5;"/>
   </g>
   <g id="line2d_69">
    <path clip-path="url(#p7c39887059)" d="M 70.288831 365.328154 
L 101.126479 364.925195 
L 131.964126 364.29547 
L 162.801774 364.319941 
L 193.639422 363.916982 
L 224.477069 362.637307 
L 255.314717 361.931552 
L 286.152364 361.655843 
L 316.990012 360.52038 
L 347.82766 360.229988 
L 378.665307 357.473669 
L 409.502955 356.952168 
" style="fill:none;stroke:#2ca02c;stroke-linecap:square;stroke-opacity:0.7;stroke-width:1.5;"/>
   </g>
   <g id="line2d_70">
    <path clip-path="url(#p7c39887059)" d="M 70.288831 320.846044 
L 101.126479 320.488765 
L 131.964126 317.194942 
L 162.801774 316.424915 
L 193.639422 317.976389 
L 224.477069 312.463906 
L 255.314717 312.582937 
L 286.152364 310.842219 
L 316.990012 309.819323 
L 347.82766 311.902638 
L 378.665307 303.614013 
L 409.502955 309.796872 
" style="fill:none;stroke:#d62728;stroke-linecap:square;stroke-opacity:0.7;stroke-width:1.5;"/>
   </g>
   <g id="patch_9">
    <path d="M 53.328125 386.198437 
L 53.328125 224.398438 
" style="fill:none;stroke:#000000;stroke-linecap:square;stroke-linejoin:miter;stroke-width:0.8;"/>
   </g>
   <g id="patch_10">
    <path d="M 53.328125 386.198437 
L 426.463661 386.198437 
" style="fill:none;stroke:#000000;stroke-linecap:square;stroke-linejoin:miter;stroke-width:0.8;"/>
   </g>
   <g id="text_54">
    <!-- gender = Vrouwen -->
    <g transform="translate(192.876362 218.398437)scale(0.1 -0.1)">
     <defs>
      <path d="M 1831 0 
L 50 4666 
L 709 4666 
L 2188 738 
L 3669 4666 
L 4325 4666 
L 2547 0 
L 1831 0 
z
" id="DejaVuSans-56" transform="scale(0.015625)"/>
     </defs>
     <use xlink:href="#DejaVuSans-67"/>
     <use x="63.476562" xlink:href="#DejaVuSans-65"/>
     <use x="125" xlink:href="#DejaVuSans-6e"/>
     <use x="188.378906" xlink:href="#DejaVuSans-64"/>
     <use x="251.855469" xlink:href="#DejaVuSans-65"/>
     <use x="313.378906" xlink:href="#DejaVuSans-72"/>
     <use x="354.492188" xlink:href="#DejaVuSans-20"/>
     <use x="386.279297" xlink:href="#DejaVuSans-3d"/>
     <use x="470.068359" xlink:href="#DejaVuSans-20"/>
     <use x="501.855469" xlink:href="#DejaVuSans-56"/>
     <use x="570.263672" xlink:href="#DejaVuSans-72"/>
     <use x="609.126953" xlink:href="#DejaVuSans-6f"/>
     <use x="670.308594" xlink:href="#DejaVuSans-75"/>
     <use x="733.6875" xlink:href="#DejaVuSans-77"/>
     <use x="815.474609" xlink:href="#DejaVuSans-65"/>
     <use x="876.998047" xlink:href="#DejaVuSans-6e"/>
    </g>
   </g>
  </g>
  <g id="legend_1">
   <g id="line2d_71">
    <path d="M 853.422569 197.005469 
L 873.422569 197.005469 
" style="fill:none;stroke:#1f77b4;stroke-linecap:square;stroke-opacity:0.7;stroke-width:1.5;"/>
   </g>
   <g id="line2d_72"/>
   <g id="text_55">
    <!-- Totaal leeftijd -->
    <g transform="translate(881.422569 200.505469)scale(0.1 -0.1)">
     <defs>
      <path d="M 2375 4863 
L 2375 4384 
L 1825 4384 
Q 1516 4384 1395 4259 
Q 1275 4134 1275 3809 
L 1275 3500 
L 2222 3500 
L 2222 3053 
L 1275 3053 
L 1275 0 
L 697 0 
L 697 3053 
L 147 3053 
L 147 3500 
L 697 3500 
L 697 3744 
Q 697 4328 969 4595 
Q 1241 4863 1831 4863 
L 2375 4863 
z
" id="DejaVuSans-66" transform="scale(0.015625)"/>
      <path d="M 603 3500 
L 1178 3500 
L 1178 0 
L 603 0 
L 603 3500 
z
M 603 4863 
L 1178 4863 
L 1178 4134 
L 603 4134 
L 603 4863 
z
" id="DejaVuSans-69" transform="scale(0.015625)"/>
      <path d="M 603 3500 
L 1178 3500 
L 1178 -63 
Q 1178 -731 923 -1031 
Q 669 -1331 103 -1331 
L -116 -1331 
L -116 -844 
L 38 -844 
Q 366 -844 484 -692 
Q 603 -541 603 -63 
L 603 3500 
z
M 603 4863 
L 1178 4863 
L 1178 4134 
L 603 4134 
L 603 4863 
z
" id="DejaVuSans-6a" transform="scale(0.015625)"/>
     </defs>
     <use xlink:href="#DejaVuSans-54"/>
     <use x="44.083984" xlink:href="#DejaVuSans-6f"/>
     <use x="105.265625" xlink:href="#DejaVuSans-74"/>
     <use x="144.474609" xlink:href="#DejaVuSans-61"/>
     <use x="205.753906" xlink:href="#DejaVuSans-61"/>
     <use x="267.033203" xlink:href="#DejaVuSans-6c"/>
     <use x="294.816406" xlink:href="#DejaVuSans-20"/>
     <use x="326.603516" xlink:href="#DejaVuSans-6c"/>
     <use x="354.386719" xlink:href="#DejaVuSans-65"/>
     <use x="415.910156" xlink:href="#DejaVuSans-65"/>
     <use x="477.433594" xlink:href="#DejaVuSans-66"/>
     <use x="510.888672" xlink:href="#DejaVuSans-74"/>
     <use x="550.097656" xlink:href="#DejaVuSans-69"/>
     <use x="577.880859" xlink:href="#DejaVuSans-6a"/>
     <use x="605.664062" xlink:href="#DejaVuSans-64"/>
    </g>
   </g>
   <g id="line2d_73">
    <path d="M 853.422569 211.683594 
L 873.422569 211.683594 
" style="fill:none;stroke:#ff7f0e;stroke-linecap:square;stroke-opacity:0.7;stroke-width:1.5;"/>
   </g>
   <g id="line2d_74"/>
   <g id="text_56">
    <!-- 0 tot 65 jaar -->
    <g transform="translate(881.422569 215.183594)scale(0.1 -0.1)">
     <use xlink:href="#DejaVuSans-30"/>
     <use x="63.623047" xlink:href="#DejaVuSans-20"/>
     <use x="95.410156" xlink:href="#DejaVuSans-74"/>
     <use x="134.619141" xlink:href="#DejaVuSans-6f"/>
     <use x="195.800781" xlink:href="#DejaVuSans-74"/>
     <use x="235.009766" xlink:href="#DejaVuSans-20"/>
     <use x="266.796875" xlink:href="#DejaVuSans-36"/>
     <use x="330.419922" xlink:href="#DejaVuSans-35"/>
     <use x="394.042969" xlink:href="#DejaVuSans-20"/>
     <use x="425.830078" xlink:href="#DejaVuSans-6a"/>
     <use x="453.613281" xlink:href="#DejaVuSans-61"/>
     <use x="514.892578" xlink:href="#DejaVuSans-61"/>
     <use x="576.171875" xlink:href="#DejaVuSans-72"/>
    </g>
   </g>
   <g id="line2d_75">
    <path d="M 853.422569 226.361719 
L 873.422569 226.361719 
" style="fill:none;stroke:#2ca02c;stroke-linecap:square;stroke-opacity:0.7;stroke-width:1.5;"/>
   </g>
   <g id="line2d_76"/>
   <g id="text_57">
    <!-- 65 tot 80 jaar -->
    <g transform="translate(881.422569 229.861719)scale(0.1 -0.1)">
     <use xlink:href="#DejaVuSans-36"/>
     <use x="63.623047" xlink:href="#DejaVuSans-35"/>
     <use x="127.246094" xlink:href="#DejaVuSans-20"/>
     <use x="159.033203" xlink:href="#DejaVuSans-74"/>
     <use x="198.242188" xlink:href="#DejaVuSans-6f"/>
     <use x="259.423828" xlink:href="#DejaVuSans-74"/>
     <use x="298.632812" xlink:href="#DejaVuSans-20"/>
     <use x="330.419922" xlink:href="#DejaVuSans-38"/>
     <use x="394.042969" xlink:href="#DejaVuSans-30"/>
     <use x="457.666016" xlink:href="#DejaVuSans-20"/>
     <use x="489.453125" xlink:href="#DejaVuSans-6a"/>
     <use x="517.236328" xlink:href="#DejaVuSans-61"/>
     <use x="578.515625" xlink:href="#DejaVuSans-61"/>
     <use x="639.794922" xlink:href="#DejaVuSans-72"/>
    </g>
   </g>
   <g id="line2d_77">
    <path d="M 853.422569 241.039844 
L 873.422569 241.039844 
" style="fill:none;stroke:#d62728;stroke-linecap:square;stroke-opacity:0.7;stroke-width:1.5;"/>
   </g>
   <g id="line2d_78"/>
   <g id="text_58">
    <!-- 80 jaar of ouder -->
    <g transform="translate(881.422569 244.539844)scale(0.1 -0.1)">
     <use xlink:href="#DejaVuSans-38"/>
     <use x="63.623047" xlink:href="#DejaVuSans-30"/>
     <use x="127.246094" xlink:href="#DejaVuSans-20"/>
     <use x="159.033203" xlink:href="#DejaVuSans-6a"/>
     <use x="186.816406" xlink:href="#DejaVuSans-61"/>
     <use x="248.095703" xlink:href="#DejaVuSans-61"/>
     <use x="309.375" xlink:href="#DejaVuSans-72"/>
     <use x="350.488281" xlink:href="#DejaVuSans-20"/>
     <use x="382.275391" xlink:href="#DejaVuSans-6f"/>
     <use x="443.457031" xlink:href="#DejaVuSans-66"/>
     <use x="478.662109" xlink:href="#DejaVuSans-20"/>
     <use x="510.449219" xlink:href="#DejaVuSans-6f"/>
     <use x="571.630859" xlink:href="#DejaVuSans-75"/>
     <use x="635.009766" xlink:href="#DejaVuSans-64"/>
     <use x="698.486328" xlink:href="#DejaVuSans-65"/>
     <use x="760.009766" xlink:href="#DejaVuSans-72"/>
    </g>
   </g>
  </g>
 </g>
 <defs>
  <clipPath id="p8d12daa936">
   <rect height="161.8" width="373.135536" x="53.328125" y="20.798437"/>
  </clipPath>
  <clipPath id="p764a3fc0d4">
   <rect height="161.8" width="373.135536" x="469.399533" y="20.798437"/>
  </clipPath>
  <clipPath id="p7c39887059">
   <rect height="161.8" width="373.135536" x="53.328125" y="224.398437"/>
  </clipPath>
 </defs>
</svg>
