<?xml version="1.0" encoding="utf-8" standalone="no"?>
<!DOCTYPE svg PUBLIC "-//W3C//DTD SVG 1.1//EN"
  "http://www.w3.org/Graphics/SVG/1.1/DTD/svg11.dtd">
<svg xmlns:xlink="http://www.w3.org/1999/xlink" width="971.028041pt" height="413.996562pt" viewBox="0 0 971.028041 413.996562" xmlns="http://www.w3.org/2000/svg" version="1.1">
 <metadata>
  <rdf:RDF xmlns:dc="http://purl.org/dc/elements/1.1/" xmlns:cc="http://creativecommons.org/ns#" xmlns:rdf="http://www.w3.org/1999/02/22-rdf-syntax-ns#">
   <cc:Work>
    <dc:type rdf:resource="http://purl.org/dc/dcmitype/StillImage"/>
    <dc:date>2022-12-23T11:14:30.198661</dc:date>
    <dc:format>image/svg+xml</dc:format>
    <dc:creator>
     <cc:Agent>
      <dc:title>Matplotlib v3.6.0, https://matplotlib.org/</dc:title>
     </cc:Agent>
    </dc:creator>
   </cc:Work>
  </rdf:RDF>
 </metadata>
 <defs>
  <style type="text/css">*{stroke-linejoin: round; stroke-linecap: butt}</style>
 </defs>
 <g id="figure_1">
  <g id="patch_1">
   <path d="M 0 413.996562 
L 971.028041 413.996562 
L 971.028041 0 
L 0 0 
z
" style="fill: #ffffff"/>
  </g>
  <g id="axes_1">
   <g id="patch_2">
    <path d="M 53.328125 182.478437 
L 426.627675 182.478437 
L 426.627675 20.798437 
L 53.328125 20.798437 
z
" style="fill: #ffffff"/>
   </g>
   <g id="PolyCollection_1">
    <defs>
     <path id="md3aa2f63a1" d="M 99.990569 -341.483202 
L 99.990569 -326.979112 
L 123.321791 -327.926731 
L 146.653012 -329.688009 
L 169.984234 -327.029508 
L 193.315456 -330.170296 
L 216.646678 -331.538077 
L 239.9779 -334.734245 
L 263.309122 -332.157637 
L 286.640343 -331.651786 
L 309.971565 -338.31754 
L 333.302787 -335.716312 
L 356.634009 -343.046338 
L 379.965231 -350.604527 
L 379.965231 -370.137637 
L 379.965231 -370.137637 
L 356.634009 -382.032093 
L 333.302787 -385.849034 
L 309.971565 -356.054012 
L 286.640343 -365.057837 
L 263.309122 -359.360286 
L 239.9779 -354.253505 
L 216.646678 -355.334405 
L 193.315456 -343.130707 
L 169.984234 -349.916522 
L 146.653012 -345.837774 
L 123.321791 -339.919869 
L 99.990569 -341.483202 
z
" style="stroke: #1f77b4; stroke-opacity: 0.2"/>
    </defs>
    <g clip-path="url(#p1208e1ad1e)">
     <use xlink:href="#md3aa2f63a1" x="0" y="413.996562" style="fill: #1f77b4; fill-opacity: 0.2; stroke: #1f77b4; stroke-opacity: 0.2"/>
    </g>
   </g>
   <g id="PolyCollection_2">
    <defs>
     <path id="mdaa9400f1f" d="M 99.990569 -243.849125 
L 99.990569 -241.646029 
L 123.321791 -241.053789 
L 146.653012 -240.696862 
L 169.984234 -240.39736 
L 193.315456 -239.428269 
L 216.646678 -239.831262 
L 239.9779 -239.870484 
L 263.309122 -239.576918 
L 286.640343 -239.308836 
L 309.971565 -238.867216 
L 333.302787 -238.968518 
L 356.634009 -239.89094 
L 379.965231 -239.353819 
L 379.965231 -241.896883 
L 379.965231 -241.896883 
L 356.634009 -242.849099 
L 333.302787 -242.100342 
L 309.971565 -241.079946 
L 286.640343 -241.646455 
L 263.309122 -241.596746 
L 239.9779 -242.18324 
L 216.646678 -242.070446 
L 193.315456 -242.50888 
L 169.984234 -242.584039 
L 146.653012 -243.125192 
L 123.321791 -243.262477 
L 99.990569 -243.849125 
z
" style="stroke: #ff7f0e; stroke-opacity: 0.2"/>
    </defs>
    <g clip-path="url(#p1208e1ad1e)">
     <use xlink:href="#mdaa9400f1f" x="0" y="413.996562" style="fill: #ff7f0e; fill-opacity: 0.2; stroke: #ff7f0e; stroke-opacity: 0.2"/>
    </g>
   </g>
   <g id="PolyCollection_3">
    <defs>
     <path id="m1e8b76818b" d="M 99.990569 -257.559656 
L 99.990569 -254.324171 
L 123.321791 -254.113768 
L 146.653012 -254.480637 
L 169.984234 -254.685654 
L 193.315456 -254.635434 
L 216.646678 -256.404916 
L 239.9779 -256.405478 
L 263.309122 -256.431408 
L 286.640343 -256.78824 
L 309.971565 -258.026185 
L 333.302787 -257.476682 
L 356.634009 -261.512135 
L 379.965231 -262.7551 
L 379.965231 -268.625018 
L 379.965231 -268.625018 
L 356.634009 -271.736141 
L 333.302787 -272.003673 
L 309.971565 -262.853631 
L 286.640343 -264.116204 
L 263.309122 -261.951073 
L 239.9779 -261.665042 
L 216.646678 -260.822749 
L 193.315456 -258.617741 
L 169.984234 -259.102781 
L 146.653012 -258.756119 
L 123.321791 -257.241366 
L 99.990569 -257.559656 
z
" style="stroke: #2ca02c; stroke-opacity: 0.2"/>
    </defs>
    <g clip-path="url(#p1208e1ad1e)">
     <use xlink:href="#m1e8b76818b" x="0" y="413.996562" style="fill: #2ca02c; fill-opacity: 0.2; stroke: #2ca02c; stroke-opacity: 0.2"/>
    </g>
   </g>
   <g id="PolyCollection_4">
    <defs>
     <path id="m5351f21062" d="M 99.990569 -286.702173 
L 99.990569 -275.683323 
L 123.321791 -277.297533 
L 146.653012 -278.738844 
L 169.984234 -276.882838 
L 193.315456 -280.187622 
L 216.646678 -279.971736 
L 239.9779 -283.334047 
L 263.309122 -280.84343 
L 286.640343 -280.42971 
L 309.971565 -285.976832 
L 333.302787 -284.343215 
L 356.634009 -286.27615 
L 379.965231 -292.836771 
L 379.965231 -306.576735 
L 379.965231 -306.576735 
L 356.634009 -314.116128 
L 333.302787 -317.975078 
L 309.971565 -298.869903 
L 286.640343 -305.722339 
L 263.309122 -302.42051 
L 239.9779 -296.831622 
L 216.646678 -299.073534 
L 193.315456 -289.22522 
L 169.984234 -294.595519 
L 146.653012 -291.030291 
L 123.321791 -286.179828 
L 99.990569 -286.702173 
z
" style="stroke: #d62728; stroke-opacity: 0.2"/>
    </defs>
    <g clip-path="url(#p1208e1ad1e)">
     <use xlink:href="#m5351f21062" x="0" y="413.996562" style="fill: #d62728; fill-opacity: 0.2; stroke: #d62728; stroke-opacity: 0.2"/>
    </g>
   </g>
   <g id="matplotlib.axis_1">
    <g id="xtick_1">
     <g id="line2d_1">
      <defs>
       <path id="m226c2fe8d1" d="M 0 0 
L 0 3.5 
" style="stroke: #000000; stroke-width: 0.8"/>
      </defs>
      <g>
       <use xlink:href="#m226c2fe8d1" x="53.328125" y="182.478437" style="stroke: #000000; stroke-width: 0.8"/>
      </g>
     </g>
    </g>
    <g id="xtick_2">
     <g id="line2d_2">
      <g>
       <use xlink:href="#m226c2fe8d1" x="99.990569" y="182.478437" style="stroke: #000000; stroke-width: 0.8"/>
      </g>
     </g>
    </g>
    <g id="xtick_3">
     <g id="line2d_3">
      <g>
       <use xlink:href="#m226c2fe8d1" x="146.653012" y="182.478437" style="stroke: #000000; stroke-width: 0.8"/>
      </g>
     </g>
    </g>
    <g id="xtick_4">
     <g id="line2d_4">
      <g>
       <use xlink:href="#m226c2fe8d1" x="193.315456" y="182.478437" style="stroke: #000000; stroke-width: 0.8"/>
      </g>
     </g>
    </g>
    <g id="xtick_5">
     <g id="line2d_5">
      <g>
       <use xlink:href="#m226c2fe8d1" x="239.9779" y="182.478437" style="stroke: #000000; stroke-width: 0.8"/>
      </g>
     </g>
    </g>
    <g id="xtick_6">
     <g id="line2d_6">
      <g>
       <use xlink:href="#m226c2fe8d1" x="286.640343" y="182.478437" style="stroke: #000000; stroke-width: 0.8"/>
      </g>
     </g>
    </g>
    <g id="xtick_7">
     <g id="line2d_7">
      <g>
       <use xlink:href="#m226c2fe8d1" x="333.302787" y="182.478437" style="stroke: #000000; stroke-width: 0.8"/>
      </g>
     </g>
    </g>
    <g id="xtick_8">
     <g id="line2d_8">
      <g>
       <use xlink:href="#m226c2fe8d1" x="379.965231" y="182.478437" style="stroke: #000000; stroke-width: 0.8"/>
      </g>
     </g>
    </g>
    <g id="xtick_9">
     <g id="line2d_9">
      <g>
       <use xlink:href="#m226c2fe8d1" x="426.627675" y="182.478437" style="stroke: #000000; stroke-width: 0.8"/>
      </g>
     </g>
    </g>
   </g>
   <g id="matplotlib.axis_2">
    <g id="ytick_1">
     <g id="line2d_10">
      <defs>
       <path id="m2050ac8636" d="M 0 0 
L -3.5 0 
" style="stroke: #000000; stroke-width: 0.8"/>
      </defs>
      <g>
       <use xlink:href="#m2050ac8636" x="53.328125" y="169.826276" style="stroke: #000000; stroke-width: 0.8"/>
      </g>
     </g>
     <g id="text_1">
      <!-- 500 -->
      <g transform="translate(27.240625 173.625495) scale(0.1 -0.1)">
       <defs>
        <path id="DejaVuSans-35" d="M 691 4666 
L 3169 4666 
L 3169 4134 
L 1269 4134 
L 1269 2991 
Q 1406 3038 1543 3061 
Q 1681 3084 1819 3084 
Q 2600 3084 3056 2656 
Q 3513 2228 3513 1497 
Q 3513 744 3044 326 
Q 2575 -91 1722 -91 
Q 1428 -91 1123 -41 
Q 819 9 494 109 
L 494 744 
Q 775 591 1075 516 
Q 1375 441 1709 441 
Q 2250 441 2565 725 
Q 2881 1009 2881 1497 
Q 2881 1984 2565 2268 
Q 2250 2553 1709 2553 
Q 1456 2553 1204 2497 
Q 953 2441 691 2322 
L 691 4666 
z
" transform="scale(0.015625)"/>
        <path id="DejaVuSans-30" d="M 2034 4250 
Q 1547 4250 1301 3770 
Q 1056 3291 1056 2328 
Q 1056 1369 1301 889 
Q 1547 409 2034 409 
Q 2525 409 2770 889 
Q 3016 1369 3016 2328 
Q 3016 3291 2770 3770 
Q 2525 4250 2034 4250 
z
M 2034 4750 
Q 2819 4750 3233 4129 
Q 3647 3509 3647 2328 
Q 3647 1150 3233 529 
Q 2819 -91 2034 -91 
Q 1250 -91 836 529 
Q 422 1150 422 2328 
Q 422 3509 836 4129 
Q 1250 4750 2034 4750 
z
" transform="scale(0.015625)"/>
       </defs>
       <use xlink:href="#DejaVuSans-35"/>
       <use xlink:href="#DejaVuSans-30" x="63.623047"/>
       <use xlink:href="#DejaVuSans-30" x="127.246094"/>
      </g>
     </g>
    </g>
    <g id="ytick_2">
     <g id="line2d_11">
      <g>
       <use xlink:href="#m2050ac8636" x="53.328125" y="148.481531" style="stroke: #000000; stroke-width: 0.8"/>
      </g>
     </g>
     <g id="text_2">
      <!-- 1000 -->
      <g transform="translate(20.878125 152.280749) scale(0.1 -0.1)">
       <defs>
        <path id="DejaVuSans-31" d="M 794 531 
L 1825 531 
L 1825 4091 
L 703 3866 
L 703 4441 
L 1819 4666 
L 2450 4666 
L 2450 531 
L 3481 531 
L 3481 0 
L 794 0 
L 794 531 
z
" transform="scale(0.015625)"/>
       </defs>
       <use xlink:href="#DejaVuSans-31"/>
       <use xlink:href="#DejaVuSans-30" x="63.623047"/>
       <use xlink:href="#DejaVuSans-30" x="127.246094"/>
       <use xlink:href="#DejaVuSans-30" x="190.869141"/>
      </g>
     </g>
    </g>
    <g id="ytick_3">
     <g id="line2d_12">
      <g>
       <use xlink:href="#m2050ac8636" x="53.328125" y="127.136785" style="stroke: #000000; stroke-width: 0.8"/>
      </g>
     </g>
     <g id="text_3">
      <!-- 1500 -->
      <g transform="translate(20.878125 130.936004) scale(0.1 -0.1)">
       <use xlink:href="#DejaVuSans-31"/>
       <use xlink:href="#DejaVuSans-35" x="63.623047"/>
       <use xlink:href="#DejaVuSans-30" x="127.246094"/>
       <use xlink:href="#DejaVuSans-30" x="190.869141"/>
      </g>
     </g>
    </g>
    <g id="ytick_4">
     <g id="line2d_13">
      <g>
       <use xlink:href="#m2050ac8636" x="53.328125" y="105.792039" style="stroke: #000000; stroke-width: 0.8"/>
      </g>
     </g>
     <g id="text_4">
      <!-- 2000 -->
      <g transform="translate(20.878125 109.591258) scale(0.1 -0.1)">
       <defs>
        <path id="DejaVuSans-32" d="M 1228 531 
L 3431 531 
L 3431 0 
L 469 0 
L 469 531 
Q 828 903 1448 1529 
Q 2069 2156 2228 2338 
Q 2531 2678 2651 2914 
Q 2772 3150 2772 3378 
Q 2772 3750 2511 3984 
Q 2250 4219 1831 4219 
Q 1534 4219 1204 4116 
Q 875 4013 500 3803 
L 500 4441 
Q 881 4594 1212 4672 
Q 1544 4750 1819 4750 
Q 2544 4750 2975 4387 
Q 3406 4025 3406 3419 
Q 3406 3131 3298 2873 
Q 3191 2616 2906 2266 
Q 2828 2175 2409 1742 
Q 1991 1309 1228 531 
z
" transform="scale(0.015625)"/>
       </defs>
       <use xlink:href="#DejaVuSans-32"/>
       <use xlink:href="#DejaVuSans-30" x="63.623047"/>
       <use xlink:href="#DejaVuSans-30" x="127.246094"/>
       <use xlink:href="#DejaVuSans-30" x="190.869141"/>
      </g>
     </g>
    </g>
    <g id="ytick_5">
     <g id="line2d_14">
      <g>
       <use xlink:href="#m2050ac8636" x="53.328125" y="84.447293" style="stroke: #000000; stroke-width: 0.8"/>
      </g>
     </g>
     <g id="text_5">
      <!-- 2500 -->
      <g transform="translate(20.878125 88.246512) scale(0.1 -0.1)">
       <use xlink:href="#DejaVuSans-32"/>
       <use xlink:href="#DejaVuSans-35" x="63.623047"/>
       <use xlink:href="#DejaVuSans-30" x="127.246094"/>
       <use xlink:href="#DejaVuSans-30" x="190.869141"/>
      </g>
     </g>
    </g>
    <g id="ytick_6">
     <g id="line2d_15">
      <g>
       <use xlink:href="#m2050ac8636" x="53.328125" y="63.102548" style="stroke: #000000; stroke-width: 0.8"/>
      </g>
     </g>
     <g id="text_6">
      <!-- 3000 -->
      <g transform="translate(20.878125 66.901766) scale(0.1 -0.1)">
       <defs>
        <path id="DejaVuSans-33" d="M 2597 2516 
Q 3050 2419 3304 2112 
Q 3559 1806 3559 1356 
Q 3559 666 3084 287 
Q 2609 -91 1734 -91 
Q 1441 -91 1130 -33 
Q 819 25 488 141 
L 488 750 
Q 750 597 1062 519 
Q 1375 441 1716 441 
Q 2309 441 2620 675 
Q 2931 909 2931 1356 
Q 2931 1769 2642 2001 
Q 2353 2234 1838 2234 
L 1294 2234 
L 1294 2753 
L 1863 2753 
Q 2328 2753 2575 2939 
Q 2822 3125 2822 3475 
Q 2822 3834 2567 4026 
Q 2313 4219 1838 4219 
Q 1578 4219 1281 4162 
Q 984 4106 628 3988 
L 628 4550 
Q 988 4650 1302 4700 
Q 1616 4750 1894 4750 
Q 2613 4750 3031 4423 
Q 3450 4097 3450 3541 
Q 3450 3153 3228 2886 
Q 3006 2619 2597 2516 
z
" transform="scale(0.015625)"/>
       </defs>
       <use xlink:href="#DejaVuSans-33"/>
       <use xlink:href="#DejaVuSans-30" x="63.623047"/>
       <use xlink:href="#DejaVuSans-30" x="127.246094"/>
       <use xlink:href="#DejaVuSans-30" x="190.869141"/>
      </g>
     </g>
    </g>
    <g id="ytick_7">
     <g id="line2d_16">
      <g>
       <use xlink:href="#m2050ac8636" x="53.328125" y="41.757802" style="stroke: #000000; stroke-width: 0.8"/>
      </g>
     </g>
     <g id="text_7">
      <!-- 3500 -->
      <g transform="translate(20.878125 45.557021) scale(0.1 -0.1)">
       <use xlink:href="#DejaVuSans-33"/>
       <use xlink:href="#DejaVuSans-35" x="63.623047"/>
       <use xlink:href="#DejaVuSans-30" x="127.246094"/>
       <use xlink:href="#DejaVuSans-30" x="190.869141"/>
      </g>
     </g>
    </g>
    <g id="text_8">
     <!-- mean deaths per week -->
     <g transform="translate(14.798438 159.0775) rotate(-90) scale(0.1 -0.1)">
      <defs>
       <path id="DejaVuSans-6d" d="M 3328 2828 
Q 3544 3216 3844 3400 
Q 4144 3584 4550 3584 
Q 5097 3584 5394 3201 
Q 5691 2819 5691 2113 
L 5691 0 
L 5113 0 
L 5113 2094 
Q 5113 2597 4934 2840 
Q 4756 3084 4391 3084 
Q 3944 3084 3684 2787 
Q 3425 2491 3425 1978 
L 3425 0 
L 2847 0 
L 2847 2094 
Q 2847 2600 2669 2842 
Q 2491 3084 2119 3084 
Q 1678 3084 1418 2786 
Q 1159 2488 1159 1978 
L 1159 0 
L 581 0 
L 581 3500 
L 1159 3500 
L 1159 2956 
Q 1356 3278 1631 3431 
Q 1906 3584 2284 3584 
Q 2666 3584 2933 3390 
Q 3200 3197 3328 2828 
z
" transform="scale(0.015625)"/>
       <path id="DejaVuSans-65" d="M 3597 1894 
L 3597 1613 
L 953 1613 
Q 991 1019 1311 708 
Q 1631 397 2203 397 
Q 2534 397 2845 478 
Q 3156 559 3463 722 
L 3463 178 
Q 3153 47 2828 -22 
Q 2503 -91 2169 -91 
Q 1331 -91 842 396 
Q 353 884 353 1716 
Q 353 2575 817 3079 
Q 1281 3584 2069 3584 
Q 2775 3584 3186 3129 
Q 3597 2675 3597 1894 
z
M 3022 2063 
Q 3016 2534 2758 2815 
Q 2500 3097 2075 3097 
Q 1594 3097 1305 2825 
Q 1016 2553 972 2059 
L 3022 2063 
z
" transform="scale(0.015625)"/>
       <path id="DejaVuSans-61" d="M 2194 1759 
Q 1497 1759 1228 1600 
Q 959 1441 959 1056 
Q 959 750 1161 570 
Q 1363 391 1709 391 
Q 2188 391 2477 730 
Q 2766 1069 2766 1631 
L 2766 1759 
L 2194 1759 
z
M 3341 1997 
L 3341 0 
L 2766 0 
L 2766 531 
Q 2569 213 2275 61 
Q 1981 -91 1556 -91 
Q 1019 -91 701 211 
Q 384 513 384 1019 
Q 384 1609 779 1909 
Q 1175 2209 1959 2209 
L 2766 2209 
L 2766 2266 
Q 2766 2663 2505 2880 
Q 2244 3097 1772 3097 
Q 1472 3097 1187 3025 
Q 903 2953 641 2809 
L 641 3341 
Q 956 3463 1253 3523 
Q 1550 3584 1831 3584 
Q 2591 3584 2966 3190 
Q 3341 2797 3341 1997 
z
" transform="scale(0.015625)"/>
       <path id="DejaVuSans-6e" d="M 3513 2113 
L 3513 0 
L 2938 0 
L 2938 2094 
Q 2938 2591 2744 2837 
Q 2550 3084 2163 3084 
Q 1697 3084 1428 2787 
Q 1159 2491 1159 1978 
L 1159 0 
L 581 0 
L 581 3500 
L 1159 3500 
L 1159 2956 
Q 1366 3272 1645 3428 
Q 1925 3584 2291 3584 
Q 2894 3584 3203 3211 
Q 3513 2838 3513 2113 
z
" transform="scale(0.015625)"/>
       <path id="DejaVuSans-20" transform="scale(0.015625)"/>
       <path id="DejaVuSans-64" d="M 2906 2969 
L 2906 4863 
L 3481 4863 
L 3481 0 
L 2906 0 
L 2906 525 
Q 2725 213 2448 61 
Q 2172 -91 1784 -91 
Q 1150 -91 751 415 
Q 353 922 353 1747 
Q 353 2572 751 3078 
Q 1150 3584 1784 3584 
Q 2172 3584 2448 3432 
Q 2725 3281 2906 2969 
z
M 947 1747 
Q 947 1113 1208 752 
Q 1469 391 1925 391 
Q 2381 391 2643 752 
Q 2906 1113 2906 1747 
Q 2906 2381 2643 2742 
Q 2381 3103 1925 3103 
Q 1469 3103 1208 2742 
Q 947 2381 947 1747 
z
" transform="scale(0.015625)"/>
       <path id="DejaVuSans-74" d="M 1172 4494 
L 1172 3500 
L 2356 3500 
L 2356 3053 
L 1172 3053 
L 1172 1153 
Q 1172 725 1289 603 
Q 1406 481 1766 481 
L 2356 481 
L 2356 0 
L 1766 0 
Q 1100 0 847 248 
Q 594 497 594 1153 
L 594 3053 
L 172 3053 
L 172 3500 
L 594 3500 
L 594 4494 
L 1172 4494 
z
" transform="scale(0.015625)"/>
       <path id="DejaVuSans-68" d="M 3513 2113 
L 3513 0 
L 2938 0 
L 2938 2094 
Q 2938 2591 2744 2837 
Q 2550 3084 2163 3084 
Q 1697 3084 1428 2787 
Q 1159 2491 1159 1978 
L 1159 0 
L 581 0 
L 581 4863 
L 1159 4863 
L 1159 2956 
Q 1366 3272 1645 3428 
Q 1925 3584 2291 3584 
Q 2894 3584 3203 3211 
Q 3513 2838 3513 2113 
z
" transform="scale(0.015625)"/>
       <path id="DejaVuSans-73" d="M 2834 3397 
L 2834 2853 
Q 2591 2978 2328 3040 
Q 2066 3103 1784 3103 
Q 1356 3103 1142 2972 
Q 928 2841 928 2578 
Q 928 2378 1081 2264 
Q 1234 2150 1697 2047 
L 1894 2003 
Q 2506 1872 2764 1633 
Q 3022 1394 3022 966 
Q 3022 478 2636 193 
Q 2250 -91 1575 -91 
Q 1294 -91 989 -36 
Q 684 19 347 128 
L 347 722 
Q 666 556 975 473 
Q 1284 391 1588 391 
Q 1994 391 2212 530 
Q 2431 669 2431 922 
Q 2431 1156 2273 1281 
Q 2116 1406 1581 1522 
L 1381 1569 
Q 847 1681 609 1914 
Q 372 2147 372 2553 
Q 372 3047 722 3315 
Q 1072 3584 1716 3584 
Q 2034 3584 2315 3537 
Q 2597 3491 2834 3397 
z
" transform="scale(0.015625)"/>
       <path id="DejaVuSans-70" d="M 1159 525 
L 1159 -1331 
L 581 -1331 
L 581 3500 
L 1159 3500 
L 1159 2969 
Q 1341 3281 1617 3432 
Q 1894 3584 2278 3584 
Q 2916 3584 3314 3078 
Q 3713 2572 3713 1747 
Q 3713 922 3314 415 
Q 2916 -91 2278 -91 
Q 1894 -91 1617 61 
Q 1341 213 1159 525 
z
M 3116 1747 
Q 3116 2381 2855 2742 
Q 2594 3103 2138 3103 
Q 1681 3103 1420 2742 
Q 1159 2381 1159 1747 
Q 1159 1113 1420 752 
Q 1681 391 2138 391 
Q 2594 391 2855 752 
Q 3116 1113 3116 1747 
z
" transform="scale(0.015625)"/>
       <path id="DejaVuSans-72" d="M 2631 2963 
Q 2534 3019 2420 3045 
Q 2306 3072 2169 3072 
Q 1681 3072 1420 2755 
Q 1159 2438 1159 1844 
L 1159 0 
L 581 0 
L 581 3500 
L 1159 3500 
L 1159 2956 
Q 1341 3275 1631 3429 
Q 1922 3584 2338 3584 
Q 2397 3584 2469 3576 
Q 2541 3569 2628 3553 
L 2631 2963 
z
" transform="scale(0.015625)"/>
       <path id="DejaVuSans-77" d="M 269 3500 
L 844 3500 
L 1563 769 
L 2278 3500 
L 2956 3500 
L 3675 769 
L 4391 3500 
L 4966 3500 
L 4050 0 
L 3372 0 
L 2619 2869 
L 1863 0 
L 1184 0 
L 269 3500 
z
" transform="scale(0.015625)"/>
       <path id="DejaVuSans-6b" d="M 581 4863 
L 1159 4863 
L 1159 1991 
L 2875 3500 
L 3609 3500 
L 1753 1863 
L 3688 0 
L 2938 0 
L 1159 1709 
L 1159 0 
L 581 0 
L 581 4863 
z
" transform="scale(0.015625)"/>
      </defs>
      <use xlink:href="#DejaVuSans-6d"/>
      <use xlink:href="#DejaVuSans-65" x="97.412109"/>
      <use xlink:href="#DejaVuSans-61" x="158.935547"/>
      <use xlink:href="#DejaVuSans-6e" x="220.214844"/>
      <use xlink:href="#DejaVuSans-20" x="283.59375"/>
      <use xlink:href="#DejaVuSans-64" x="315.380859"/>
      <use xlink:href="#DejaVuSans-65" x="378.857422"/>
      <use xlink:href="#DejaVuSans-61" x="440.380859"/>
      <use xlink:href="#DejaVuSans-74" x="501.660156"/>
      <use xlink:href="#DejaVuSans-68" x="540.869141"/>
      <use xlink:href="#DejaVuSans-73" x="604.248047"/>
      <use xlink:href="#DejaVuSans-20" x="656.347656"/>
      <use xlink:href="#DejaVuSans-70" x="688.134766"/>
      <use xlink:href="#DejaVuSans-65" x="751.611328"/>
      <use xlink:href="#DejaVuSans-72" x="813.134766"/>
      <use xlink:href="#DejaVuSans-20" x="854.248047"/>
      <use xlink:href="#DejaVuSans-77" x="886.035156"/>
      <use xlink:href="#DejaVuSans-65" x="967.822266"/>
      <use xlink:href="#DejaVuSans-65" x="1029.345703"/>
      <use xlink:href="#DejaVuSans-6b" x="1090.869141"/>
     </g>
    </g>
   </g>
   <g id="line2d_17">
    <path d="M 99.990569 79.765406 
L 123.321791 80.073262 
L 146.653012 76.233671 
L 169.984234 75.523548 
L 193.315456 77.346061 
L 216.646678 70.560321 
L 239.9779 69.502688 
L 263.309122 68.237601 
L 286.640343 65.641751 
L 309.971565 66.810787 
L 333.302787 53.213889 
L 356.634009 51.457347 
L 379.965231 53.625481 
" clip-path="url(#p1208e1ad1e)" style="fill: none; stroke: #1f77b4; stroke-opacity: 0.7; stroke-width: 1.5; stroke-linecap: square"/>
   </g>
   <g id="line2d_18">
    <path d="M 99.990569 171.248986 
L 123.321791 171.838429 
L 146.653012 172.085536 
L 169.984234 172.505863 
L 193.315456 173.027988 
L 216.646678 173.045708 
L 239.9779 172.969701 
L 263.309122 173.409731 
L 286.640343 173.518917 
L 309.971565 174.022982 
L 333.302787 173.462132 
L 356.634009 172.626543 
L 379.965231 173.371212 
" clip-path="url(#p1208e1ad1e)" style="fill: none; stroke: #ff7f0e; stroke-opacity: 0.7; stroke-width: 1.5; stroke-linecap: square"/>
   </g>
   <g id="line2d_19">
    <path d="M 99.990569 158.054649 
L 123.321791 158.318996 
L 146.653012 157.378185 
L 169.984234 157.102345 
L 193.315456 157.369975 
L 216.646678 155.38273 
L 239.9779 154.961303 
L 263.309122 154.805322 
L 286.640343 153.54434 
L 309.971565 153.556654 
L 333.302787 149.256385 
L 356.634009 147.372425 
L 379.965231 148.306504 
" clip-path="url(#p1208e1ad1e)" style="fill: none; stroke: #2ca02c; stroke-opacity: 0.7; stroke-width: 1.5; stroke-linecap: square"/>
   </g>
   <g id="line2d_20">
    <path d="M 99.990569 132.803815 
L 123.321791 132.257882 
L 146.653012 129.111995 
L 169.984234 128.257384 
L 193.315456 129.290141 
L 216.646678 124.473927 
L 239.9779 123.913728 
L 263.309122 122.364592 
L 286.640343 120.920538 
L 309.971565 121.573195 
L 333.302787 112.837416 
L 356.634009 113.800424 
L 379.965231 114.289809 
" clip-path="url(#p1208e1ad1e)" style="fill: none; stroke: #d62728; stroke-opacity: 0.7; stroke-width: 1.5; stroke-linecap: square"/>
   </g>
   <g id="patch_3">
    <path d="M 53.328125 182.478437 
L 53.328125 20.798437 
" style="fill: none; stroke: #000000; stroke-width: 0.8; stroke-linejoin: miter; stroke-linecap: square"/>
   </g>
   <g id="patch_4">
    <path d="M 53.328125 182.478437 
L 426.627675 182.478437 
" style="fill: none; stroke: #000000; stroke-width: 0.8; stroke-linejoin: miter; stroke-linecap: square"/>
   </g>
   <g id="text_9">
    <!-- gender = Totaal mannen en vrouwen -->
    <g transform="translate(147.148994 14.798437) scale(0.1 -0.1)">
     <defs>
      <path id="DejaVuSans-67" d="M 2906 1791 
Q 2906 2416 2648 2759 
Q 2391 3103 1925 3103 
Q 1463 3103 1205 2759 
Q 947 2416 947 1791 
Q 947 1169 1205 825 
Q 1463 481 1925 481 
Q 2391 481 2648 825 
Q 2906 1169 2906 1791 
z
M 3481 434 
Q 3481 -459 3084 -895 
Q 2688 -1331 1869 -1331 
Q 1566 -1331 1297 -1286 
Q 1028 -1241 775 -1147 
L 775 -588 
Q 1028 -725 1275 -790 
Q 1522 -856 1778 -856 
Q 2344 -856 2625 -561 
Q 2906 -266 2906 331 
L 2906 616 
Q 2728 306 2450 153 
Q 2172 0 1784 0 
Q 1141 0 747 490 
Q 353 981 353 1791 
Q 353 2603 747 3093 
Q 1141 3584 1784 3584 
Q 2172 3584 2450 3431 
Q 2728 3278 2906 2969 
L 2906 3500 
L 3481 3500 
L 3481 434 
z
" transform="scale(0.015625)"/>
      <path id="DejaVuSans-3d" d="M 678 2906 
L 4684 2906 
L 4684 2381 
L 678 2381 
L 678 2906 
z
M 678 1631 
L 4684 1631 
L 4684 1100 
L 678 1100 
L 678 1631 
z
" transform="scale(0.015625)"/>
      <path id="DejaVuSans-54" d="M -19 4666 
L 3928 4666 
L 3928 4134 
L 2272 4134 
L 2272 0 
L 1638 0 
L 1638 4134 
L -19 4134 
L -19 4666 
z
" transform="scale(0.015625)"/>
      <path id="DejaVuSans-6f" d="M 1959 3097 
Q 1497 3097 1228 2736 
Q 959 2375 959 1747 
Q 959 1119 1226 758 
Q 1494 397 1959 397 
Q 2419 397 2687 759 
Q 2956 1122 2956 1747 
Q 2956 2369 2687 2733 
Q 2419 3097 1959 3097 
z
M 1959 3584 
Q 2709 3584 3137 3096 
Q 3566 2609 3566 1747 
Q 3566 888 3137 398 
Q 2709 -91 1959 -91 
Q 1206 -91 779 398 
Q 353 888 353 1747 
Q 353 2609 779 3096 
Q 1206 3584 1959 3584 
z
" transform="scale(0.015625)"/>
      <path id="DejaVuSans-6c" d="M 603 4863 
L 1178 4863 
L 1178 0 
L 603 0 
L 603 4863 
z
" transform="scale(0.015625)"/>
      <path id="DejaVuSans-76" d="M 191 3500 
L 800 3500 
L 1894 563 
L 2988 3500 
L 3597 3500 
L 2284 0 
L 1503 0 
L 191 3500 
z
" transform="scale(0.015625)"/>
      <path id="DejaVuSans-75" d="M 544 1381 
L 544 3500 
L 1119 3500 
L 1119 1403 
Q 1119 906 1312 657 
Q 1506 409 1894 409 
Q 2359 409 2629 706 
Q 2900 1003 2900 1516 
L 2900 3500 
L 3475 3500 
L 3475 0 
L 2900 0 
L 2900 538 
Q 2691 219 2414 64 
Q 2138 -91 1772 -91 
Q 1169 -91 856 284 
Q 544 659 544 1381 
z
M 1991 3584 
L 1991 3584 
z
" transform="scale(0.015625)"/>
     </defs>
     <use xlink:href="#DejaVuSans-67"/>
     <use xlink:href="#DejaVuSans-65" x="63.476562"/>
     <use xlink:href="#DejaVuSans-6e" x="125"/>
     <use xlink:href="#DejaVuSans-64" x="188.378906"/>
     <use xlink:href="#DejaVuSans-65" x="251.855469"/>
     <use xlink:href="#DejaVuSans-72" x="313.378906"/>
     <use xlink:href="#DejaVuSans-20" x="354.492188"/>
     <use xlink:href="#DejaVuSans-3d" x="386.279297"/>
     <use xlink:href="#DejaVuSans-20" x="470.068359"/>
     <use xlink:href="#DejaVuSans-54" x="501.855469"/>
     <use xlink:href="#DejaVuSans-6f" x="545.939453"/>
     <use xlink:href="#DejaVuSans-74" x="607.121094"/>
     <use xlink:href="#DejaVuSans-61" x="646.330078"/>
     <use xlink:href="#DejaVuSans-61" x="707.609375"/>
     <use xlink:href="#DejaVuSans-6c" x="768.888672"/>
     <use xlink:href="#DejaVuSans-20" x="796.671875"/>
     <use xlink:href="#DejaVuSans-6d" x="828.458984"/>
     <use xlink:href="#DejaVuSans-61" x="925.871094"/>
     <use xlink:href="#DejaVuSans-6e" x="987.150391"/>
     <use xlink:href="#DejaVuSans-6e" x="1050.529297"/>
     <use xlink:href="#DejaVuSans-65" x="1113.908203"/>
     <use xlink:href="#DejaVuSans-6e" x="1175.431641"/>
     <use xlink:href="#DejaVuSans-20" x="1238.810547"/>
     <use xlink:href="#DejaVuSans-65" x="1270.597656"/>
     <use xlink:href="#DejaVuSans-6e" x="1332.121094"/>
     <use xlink:href="#DejaVuSans-20" x="1395.5"/>
     <use xlink:href="#DejaVuSans-76" x="1427.287109"/>
     <use xlink:href="#DejaVuSans-72" x="1486.466797"/>
     <use xlink:href="#DejaVuSans-6f" x="1525.330078"/>
     <use xlink:href="#DejaVuSans-75" x="1586.511719"/>
     <use xlink:href="#DejaVuSans-77" x="1649.890625"/>
     <use xlink:href="#DejaVuSans-65" x="1731.677734"/>
     <use xlink:href="#DejaVuSans-6e" x="1793.201172"/>
    </g>
   </g>
  </g>
  <g id="axes_2">
   <g id="patch_5">
    <path d="M 469.354791 182.478437 
L 842.654341 182.478437 
L 842.654341 20.798437 
L 469.354791 20.798437 
z
" style="fill: #ffffff"/>
   </g>
   <g id="PolyCollection_5">
    <defs>
     <path id="m390dfe5c9b" d="M 516.017235 -335.455758 
L 516.017235 -321.873121 
L 539.348457 -321.452806 
L 562.679678 -323.966863 
L 586.0109 -321.965199 
L 609.342122 -323.457548 
L 632.673344 -326.911547 
L 656.004566 -329.146535 
L 679.335788 -327.768367 
L 702.66701 -328.183277 
L 725.998231 -333.787508 
L 749.329453 -331.126313 
L 772.660675 -340.327505 
L 795.991897 -345.421895 
L 795.991897 -366.622894 
L 795.991897 -366.622894 
L 772.660675 -381.011677 
L 749.329453 -385.849034 
L 725.998231 -351.105648 
L 702.66701 -356.959329 
L 679.335788 -351.239727 
L 656.004566 -347.603376 
L 632.673344 -347.143456 
L 609.342122 -337.29471 
L 586.0109 -343.024435 
L 562.679678 -338.945111 
L 539.348457 -333.289665 
L 516.017235 -335.455758 
z
" style="stroke: #1f77b4; stroke-opacity: 0.2"/>
    </defs>
    <g clip-path="url(#p6f5f250375)">
     <use xlink:href="#m390dfe5c9b" x="0" y="413.996562" style="fill: #1f77b4; fill-opacity: 0.2; stroke: #1f77b4; stroke-opacity: 0.2"/>
    </g>
   </g>
   <g id="PolyCollection_6">
    <defs>
     <path id="mbd58c9bc21" d="M 516.017235 -245.365185 
L 516.017235 -242.501485 
L 539.348457 -241.17106 
L 562.679678 -241.059177 
L 586.0109 -240.783625 
L 609.342122 -239.581543 
L 632.673344 -240.125768 
L 656.004566 -239.772718 
L 679.335788 -239.566933 
L 702.66701 -239.364522 
L 725.998231 -238.867216 
L 749.329453 -239.331427 
L 772.660675 -240.191228 
L 795.991897 -239.797457 
L 795.991897 -242.790495 
L 795.991897 -242.790495 
L 772.660675 -244.156878 
L 749.329453 -243.65591 
L 725.998231 -241.929502 
L 702.66701 -242.630215 
L 679.335788 -242.765875 
L 656.004566 -243.062273 
L 632.673344 -242.758518 
L 609.342122 -243.535721 
L 586.0109 -243.682641 
L 562.679678 -244.349093 
L 539.348457 -244.512918 
L 516.017235 -245.365185 
z
" style="stroke: #ff7f0e; stroke-opacity: 0.2"/>
    </defs>
    <g clip-path="url(#p6f5f250375)">
     <use xlink:href="#mbd58c9bc21" x="0" y="413.996562" style="fill: #ff7f0e; fill-opacity: 0.2; stroke: #ff7f0e; stroke-opacity: 0.2"/>
    </g>
   </g>
   <g id="PolyCollection_7">
    <defs>
     <path id="md30f640758" d="M 516.017235 -262.407982 
L 516.017235 -257.834733 
L 539.348457 -257.288124 
L 562.679678 -257.866173 
L 586.0109 -257.901183 
L 609.342122 -257.640882 
L 632.673344 -260.099729 
L 656.004566 -259.52506 
L 679.335788 -259.887724 
L 702.66701 -260.097243 
L 725.998231 -260.836301 
L 749.329453 -260.285645 
L 772.660675 -265.01202 
L 795.991897 -265.963406 
L 795.991897 -272.818958 
L 795.991897 -272.818958 
L 772.660675 -278.180139 
L 749.329453 -279.330913 
L 725.998231 -267.132815 
L 702.66701 -268.505346 
L 679.335788 -265.95778 
L 656.004566 -266.251517 
L 632.673344 -265.411854 
L 609.342122 -262.500084 
L 586.0109 -264.120508 
L 562.679678 -263.003451 
L 539.348457 -261.086995 
L 516.017235 -262.407982 
z
" style="stroke: #2ca02c; stroke-opacity: 0.2"/>
    </defs>
    <g clip-path="url(#p6f5f250375)">
     <use xlink:href="#md30f640758" x="0" y="413.996562" style="fill: #2ca02c; fill-opacity: 0.2; stroke: #2ca02c; stroke-opacity: 0.2"/>
    </g>
   </g>
   <g id="PolyCollection_8">
    <defs>
     <path id="m84d0274e7a" d="M 516.017235 -270.653472 
L 516.017235 -261.050836 
L 539.348457 -262.578118 
L 562.679678 -264.150379 
L 586.0109 -263.106281 
L 609.342122 -265.828555 
L 632.673344 -266.694604 
L 656.004566 -269.669775 
L 679.335788 -267.886633 
L 702.66701 -268.716361 
L 725.998231 -273.421843 
L 749.329453 -272.015433 
L 772.660675 -274.777805 
L 795.991897 -279.539107 
L 795.991897 -292.222164 
L 795.991897 -292.222164 
L 772.660675 -301.505928 
L 749.329453 -304.840834 
L 725.998231 -285.190294 
L 702.66701 -288.313734 
L 679.335788 -285.427963 
L 656.004566 -280.953382 
L 632.673344 -281.449344 
L 609.342122 -274.150288 
L 586.0109 -277.88021 
L 562.679678 -274.968516 
L 539.348457 -270.590071 
L 516.017235 -270.653472 
z
" style="stroke: #d62728; stroke-opacity: 0.2"/>
    </defs>
    <g clip-path="url(#p6f5f250375)">
     <use xlink:href="#m84d0274e7a" x="0" y="413.996562" style="fill: #d62728; fill-opacity: 0.2; stroke: #d62728; stroke-opacity: 0.2"/>
    </g>
   </g>
   <g id="matplotlib.axis_3">
    <g id="xtick_10">
     <g id="line2d_21">
      <g>
       <use xlink:href="#m226c2fe8d1" x="469.354791" y="182.478437" style="stroke: #000000; stroke-width: 0.8"/>
      </g>
     </g>
    </g>
    <g id="xtick_11">
     <g id="line2d_22">
      <g>
       <use xlink:href="#m226c2fe8d1" x="516.017235" y="182.478437" style="stroke: #000000; stroke-width: 0.8"/>
      </g>
     </g>
    </g>
    <g id="xtick_12">
     <g id="line2d_23">
      <g>
       <use xlink:href="#m226c2fe8d1" x="562.679678" y="182.478437" style="stroke: #000000; stroke-width: 0.8"/>
      </g>
     </g>
    </g>
    <g id="xtick_13">
     <g id="line2d_24">
      <g>
       <use xlink:href="#m226c2fe8d1" x="609.342122" y="182.478437" style="stroke: #000000; stroke-width: 0.8"/>
      </g>
     </g>
    </g>
    <g id="xtick_14">
     <g id="line2d_25">
      <g>
       <use xlink:href="#m226c2fe8d1" x="656.004566" y="182.478437" style="stroke: #000000; stroke-width: 0.8"/>
      </g>
     </g>
    </g>
    <g id="xtick_15">
     <g id="line2d_26">
      <g>
       <use xlink:href="#m226c2fe8d1" x="702.66701" y="182.478437" style="stroke: #000000; stroke-width: 0.8"/>
      </g>
     </g>
    </g>
    <g id="xtick_16">
     <g id="line2d_27">
      <g>
       <use xlink:href="#m226c2fe8d1" x="749.329453" y="182.478437" style="stroke: #000000; stroke-width: 0.8"/>
      </g>
     </g>
    </g>
    <g id="xtick_17">
     <g id="line2d_28">
      <g>
       <use xlink:href="#m226c2fe8d1" x="795.991897" y="182.478437" style="stroke: #000000; stroke-width: 0.8"/>
      </g>
     </g>
    </g>
    <g id="xtick_18">
     <g id="line2d_29">
      <g>
       <use xlink:href="#m226c2fe8d1" x="842.654341" y="182.478437" style="stroke: #000000; stroke-width: 0.8"/>
      </g>
     </g>
    </g>
    <g id="text_10">
     <!-- year -->
     <g transform="translate(644.849097 201.076875) scale(0.1 -0.1)">
      <defs>
       <path id="DejaVuSans-79" d="M 2059 -325 
Q 1816 -950 1584 -1140 
Q 1353 -1331 966 -1331 
L 506 -1331 
L 506 -850 
L 844 -850 
Q 1081 -850 1212 -737 
Q 1344 -625 1503 -206 
L 1606 56 
L 191 3500 
L 800 3500 
L 1894 763 
L 2988 3500 
L 3597 3500 
L 2059 -325 
z
" transform="scale(0.015625)"/>
      </defs>
      <use xlink:href="#DejaVuSans-79"/>
      <use xlink:href="#DejaVuSans-65" x="59.179688"/>
      <use xlink:href="#DejaVuSans-61" x="120.703125"/>
      <use xlink:href="#DejaVuSans-72" x="181.982422"/>
     </g>
    </g>
   </g>
   <g id="matplotlib.axis_4">
    <g id="ytick_8">
     <g id="line2d_30">
      <g>
       <use xlink:href="#m2050ac8636" x="469.354791" y="172.040779" style="stroke: #000000; stroke-width: 0.8"/>
      </g>
     </g>
     <g id="text_11">
      <!-- 250 -->
      <g transform="translate(443.267291 175.839998) scale(0.1 -0.1)">
       <use xlink:href="#DejaVuSans-32"/>
       <use xlink:href="#DejaVuSans-35" x="63.623047"/>
       <use xlink:href="#DejaVuSans-30" x="127.246094"/>
      </g>
     </g>
    </g>
    <g id="ytick_9">
     <g id="line2d_31">
      <g>
       <use xlink:href="#m2050ac8636" x="469.354791" y="150.706199" style="stroke: #000000; stroke-width: 0.8"/>
      </g>
     </g>
     <g id="text_12">
      <!-- 500 -->
      <g transform="translate(443.267291 154.505418) scale(0.1 -0.1)">
       <use xlink:href="#DejaVuSans-35"/>
       <use xlink:href="#DejaVuSans-30" x="63.623047"/>
       <use xlink:href="#DejaVuSans-30" x="127.246094"/>
      </g>
     </g>
    </g>
    <g id="ytick_10">
     <g id="line2d_32">
      <g>
       <use xlink:href="#m2050ac8636" x="469.354791" y="129.371619" style="stroke: #000000; stroke-width: 0.8"/>
      </g>
     </g>
     <g id="text_13">
      <!-- 750 -->
      <g transform="translate(443.267291 133.170838) scale(0.1 -0.1)">
       <defs>
        <path id="DejaVuSans-37" d="M 525 4666 
L 3525 4666 
L 3525 4397 
L 1831 0 
L 1172 0 
L 2766 4134 
L 525 4134 
L 525 4666 
z
" transform="scale(0.015625)"/>
       </defs>
       <use xlink:href="#DejaVuSans-37"/>
       <use xlink:href="#DejaVuSans-35" x="63.623047"/>
       <use xlink:href="#DejaVuSans-30" x="127.246094"/>
      </g>
     </g>
    </g>
    <g id="ytick_11">
     <g id="line2d_33">
      <g>
       <use xlink:href="#m2050ac8636" x="469.354791" y="108.03704" style="stroke: #000000; stroke-width: 0.8"/>
      </g>
     </g>
     <g id="text_14">
      <!-- 1000 -->
      <g transform="translate(436.904791 111.836258) scale(0.1 -0.1)">
       <use xlink:href="#DejaVuSans-31"/>
       <use xlink:href="#DejaVuSans-30" x="63.623047"/>
       <use xlink:href="#DejaVuSans-30" x="127.246094"/>
       <use xlink:href="#DejaVuSans-30" x="190.869141"/>
      </g>
     </g>
    </g>
    <g id="ytick_12">
     <g id="line2d_34">
      <g>
       <use xlink:href="#m2050ac8636" x="469.354791" y="86.70246" style="stroke: #000000; stroke-width: 0.8"/>
      </g>
     </g>
     <g id="text_15">
      <!-- 1250 -->
      <g transform="translate(436.904791 90.501678) scale(0.1 -0.1)">
       <use xlink:href="#DejaVuSans-31"/>
       <use xlink:href="#DejaVuSans-32" x="63.623047"/>
       <use xlink:href="#DejaVuSans-35" x="127.246094"/>
       <use xlink:href="#DejaVuSans-30" x="190.869141"/>
      </g>
     </g>
    </g>
    <g id="ytick_13">
     <g id="line2d_35">
      <g>
       <use xlink:href="#m2050ac8636" x="469.354791" y="65.36788" style="stroke: #000000; stroke-width: 0.8"/>
      </g>
     </g>
     <g id="text_16">
      <!-- 1500 -->
      <g transform="translate(436.904791 69.167099) scale(0.1 -0.1)">
       <use xlink:href="#DejaVuSans-31"/>
       <use xlink:href="#DejaVuSans-35" x="63.623047"/>
       <use xlink:href="#DejaVuSans-30" x="127.246094"/>
       <use xlink:href="#DejaVuSans-30" x="190.869141"/>
      </g>
     </g>
    </g>
    <g id="ytick_14">
     <g id="line2d_36">
      <g>
       <use xlink:href="#m2050ac8636" x="469.354791" y="44.0333" style="stroke: #000000; stroke-width: 0.8"/>
      </g>
     </g>
     <g id="text_17">
      <!-- 1750 -->
      <g transform="translate(436.904791 47.832519) scale(0.1 -0.1)">
       <use xlink:href="#DejaVuSans-31"/>
       <use xlink:href="#DejaVuSans-37" x="63.623047"/>
       <use xlink:href="#DejaVuSans-35" x="127.246094"/>
       <use xlink:href="#DejaVuSans-30" x="190.869141"/>
      </g>
     </g>
    </g>
    <g id="ytick_15">
     <g id="line2d_37">
      <g>
       <use xlink:href="#m2050ac8636" x="469.354791" y="22.69872" style="stroke: #000000; stroke-width: 0.8"/>
      </g>
     </g>
     <g id="text_18">
      <!-- 2000 -->
      <g transform="translate(436.904791 26.497939) scale(0.1 -0.1)">
       <use xlink:href="#DejaVuSans-32"/>
       <use xlink:href="#DejaVuSans-30" x="63.623047"/>
       <use xlink:href="#DejaVuSans-30" x="127.246094"/>
       <use xlink:href="#DejaVuSans-30" x="190.869141"/>
      </g>
     </g>
    </g>
    <g id="text_19">
     <!-- mean deaths per week -->
     <g transform="translate(430.825104 159.0775) rotate(-90) scale(0.1 -0.1)">
      <use xlink:href="#DejaVuSans-6d"/>
      <use xlink:href="#DejaVuSans-65" x="97.412109"/>
      <use xlink:href="#DejaVuSans-61" x="158.935547"/>
      <use xlink:href="#DejaVuSans-6e" x="220.214844"/>
      <use xlink:href="#DejaVuSans-20" x="283.59375"/>
      <use xlink:href="#DejaVuSans-64" x="315.380859"/>
      <use xlink:href="#DejaVuSans-65" x="378.857422"/>
      <use xlink:href="#DejaVuSans-61" x="440.380859"/>
      <use xlink:href="#DejaVuSans-74" x="501.660156"/>
      <use xlink:href="#DejaVuSans-68" x="540.869141"/>
      <use xlink:href="#DejaVuSans-73" x="604.248047"/>
      <use xlink:href="#DejaVuSans-20" x="656.347656"/>
      <use xlink:href="#DejaVuSans-70" x="688.134766"/>
      <use xlink:href="#DejaVuSans-65" x="751.611328"/>
      <use xlink:href="#DejaVuSans-72" x="813.134766"/>
      <use xlink:href="#DejaVuSans-20" x="854.248047"/>
      <use xlink:href="#DejaVuSans-77" x="886.035156"/>
      <use xlink:href="#DejaVuSans-65" x="967.822266"/>
      <use xlink:href="#DejaVuSans-65" x="1029.345703"/>
      <use xlink:href="#DejaVuSans-6b" x="1090.869141"/>
     </g>
    </g>
   </g>
   <g id="line2d_38">
    <path d="M 516.017235 85.332123 
L 539.348457 86.625327 
L 562.679678 82.540576 
L 586.0109 81.501746 
L 609.342122 83.620433 
L 632.673344 76.969061 
L 656.004566 75.621607 
L 679.335788 74.492516 
L 702.66701 71.425259 
L 725.998231 71.549985 
L 749.329453 55.508889 
L 772.660675 53.326971 
L 795.991897 57.974168 
" clip-path="url(#p6f5f250375)" style="fill: none; stroke: #1f77b4; stroke-opacity: 0.7; stroke-width: 1.5; stroke-linecap: square"/>
   </g>
   <g id="line2d_39">
    <path d="M 516.017235 170.063228 
L 539.348457 171.154573 
L 562.679678 171.292428 
L 586.0109 171.76343 
L 609.342122 172.43793 
L 632.673344 172.554419 
L 656.004566 172.579067 
L 679.335788 172.830158 
L 702.66701 172.999194 
L 725.998231 173.598203 
L 749.329453 172.502894 
L 772.660675 171.82251 
L 795.991897 172.702586 
" clip-path="url(#p6f5f250375)" style="fill: none; stroke: #ff7f0e; stroke-opacity: 0.7; stroke-width: 1.5; stroke-linecap: square"/>
   </g>
   <g id="line2d_40">
    <path d="M 516.017235 153.875205 
L 539.348457 154.809003 
L 562.679678 153.561751 
L 586.0109 152.985717 
L 609.342122 153.92608 
L 632.673344 151.240771 
L 656.004566 151.108274 
L 679.335788 151.07381 
L 702.66701 149.695268 
L 725.998231 150.012005 
L 749.329453 144.188284 
L 772.660675 142.400483 
L 795.991897 144.60538 
" clip-path="url(#p6f5f250375)" style="fill: none; stroke: #2ca02c; stroke-opacity: 0.7; stroke-width: 1.5; stroke-linecap: square"/>
   </g>
   <g id="line2d_41">
    <path d="M 516.017235 148.144409 
L 539.348457 147.412468 
L 562.679678 144.437115 
L 586.0109 143.503317 
L 609.342122 144.007141 
L 632.673344 139.924588 
L 656.004566 138.684984 
L 679.335788 137.339264 
L 702.66701 135.481515 
L 725.998231 134.690494 
L 749.329453 125.568429 
L 772.660675 125.854696 
L 795.991897 128.115927 
" clip-path="url(#p6f5f250375)" style="fill: none; stroke: #d62728; stroke-opacity: 0.7; stroke-width: 1.5; stroke-linecap: square"/>
   </g>
   <g id="patch_6">
    <path d="M 469.354791 182.478437 
L 469.354791 20.798437 
" style="fill: none; stroke: #000000; stroke-width: 0.8; stroke-linejoin: miter; stroke-linecap: square"/>
   </g>
   <g id="patch_7">
    <path d="M 469.354791 182.478437 
L 842.654341 182.478437 
" style="fill: none; stroke: #000000; stroke-width: 0.8; stroke-linejoin: miter; stroke-linecap: square"/>
   </g>
   <g id="text_20">
    <!-- gender = Mannen -->
    <g transform="translate(610.949878 14.798437) scale(0.1 -0.1)">
     <defs>
      <path id="DejaVuSans-4d" d="M 628 4666 
L 1569 4666 
L 2759 1491 
L 3956 4666 
L 4897 4666 
L 4897 0 
L 4281 0 
L 4281 4097 
L 3078 897 
L 2444 897 
L 1241 4097 
L 1241 0 
L 628 0 
L 628 4666 
z
" transform="scale(0.015625)"/>
     </defs>
     <use xlink:href="#DejaVuSans-67"/>
     <use xlink:href="#DejaVuSans-65" x="63.476562"/>
     <use xlink:href="#DejaVuSans-6e" x="125"/>
     <use xlink:href="#DejaVuSans-64" x="188.378906"/>
     <use xlink:href="#DejaVuSans-65" x="251.855469"/>
     <use xlink:href="#DejaVuSans-72" x="313.378906"/>
     <use xlink:href="#DejaVuSans-20" x="354.492188"/>
     <use xlink:href="#DejaVuSans-3d" x="386.279297"/>
     <use xlink:href="#DejaVuSans-20" x="470.068359"/>
     <use xlink:href="#DejaVuSans-4d" x="501.855469"/>
     <use xlink:href="#DejaVuSans-61" x="588.134766"/>
     <use xlink:href="#DejaVuSans-6e" x="649.414062"/>
     <use xlink:href="#DejaVuSans-6e" x="712.792969"/>
     <use xlink:href="#DejaVuSans-65" x="776.171875"/>
     <use xlink:href="#DejaVuSans-6e" x="837.695312"/>
    </g>
   </g>
  </g>
  <g id="axes_3">
   <g id="patch_8">
    <path d="M 53.328125 386.118437 
L 426.627675 386.118437 
L 426.627675 224.438437 
L 53.328125 224.438437 
z
" style="fill: #ffffff"/>
   </g>
   <g id="PolyCollection_9">
    <defs>
     <path id="m1b7b1bd82b" d="M 99.990569 -144.431219 
L 99.990569 -127.764831 
L 123.321791 -129.848763 
L 146.653012 -131.18335 
L 169.984234 -127.92905 
L 193.315456 -132.484225 
L 216.646678 -132.050786 
L 239.9779 -136.050776 
L 263.309122 -132.524565 
L 286.640343 -131.134225 
L 309.971565 -138.532707 
L 333.302787 -136.181652 
L 356.634009 -141.616694 
L 379.965231 -151.038132 
L 379.965231 -170.615327 
L 379.965231 -170.615327 
L 356.634009 -179.415007 
L 333.302787 -182.209034 
L 309.971565 -157.729083 
L 286.640343 -169.522121 
L 263.309122 -163.916528 
L 239.9779 -157.609488 
L 216.646678 -160.086232 
L 193.315456 -145.918973 
L 169.984234 -153.502741 
L 146.653012 -149.492107 
L 123.321791 -143.69369 
L 99.990569 -144.431219 
z
" style="stroke: #1f77b4; stroke-opacity: 0.2"/>
    </defs>
    <g clip-path="url(#p97550948e1)">
     <use xlink:href="#m1b7b1bd82b" x="0" y="413.996562" style="fill: #1f77b4; fill-opacity: 0.2; stroke: #1f77b4; stroke-opacity: 0.2"/>
    </g>
   </g>
   <g id="PolyCollection_10">
    <defs>
     <path id="md8d552e354" d="M 99.990569 -40.029335 
L 99.990569 -37.195754 
L 123.321791 -37.388155 
L 146.653012 -36.916506 
L 169.984234 -36.282701 
L 193.315456 -35.8655 
L 216.646678 -36.021025 
L 239.9779 -36.411481 
L 263.309122 -35.875768 
L 286.640343 -35.710438 
L 309.971565 -35.251558 
L 333.302787 -35.227216 
L 356.634009 -36.096606 
L 379.965231 -35.507977 
L 379.965231 -38.25919 
L 379.965231 -38.25919 
L 356.634009 -39.152888 
L 333.302787 -38.055665 
L 309.971565 -37.979961 
L 286.640343 -38.332836 
L 263.309122 -38.265307 
L 239.9779 -38.978195 
L 216.646678 -39.017858 
L 193.315456 -39.012348 
L 169.984234 -39.32866 
L 146.653012 -39.428368 
L 123.321791 -39.664151 
L 99.990569 -40.029335 
z
" style="stroke: #ff7f0e; stroke-opacity: 0.2"/>
    </defs>
    <g clip-path="url(#p97550948e1)">
     <use xlink:href="#md8d552e354" x="0" y="413.996562" style="fill: #ff7f0e; fill-opacity: 0.2; stroke: #ff7f0e; stroke-opacity: 0.2"/>
    </g>
   </g>
   <g id="PolyCollection_11">
    <defs>
     <path id="mf2ca39a9b5" d="M 99.990569 -50.646066 
L 99.990569 -46.817456 
L 123.321791 -47.295335 
L 146.653012 -47.594082 
L 169.984234 -47.847915 
L 193.315456 -48.10369 
L 216.646678 -49.133495 
L 239.9779 -49.757992 
L 263.309122 -49.404808 
L 286.640343 -49.968538 
L 309.971565 -51.498523 
L 333.302787 -51.363142 
L 356.634009 -54.470172 
L 379.965231 -55.968269 
L 379.965231 -60.906164 
L 379.965231 -60.906164 
L 356.634009 -62.618892 
L 333.302787 -61.796016 
L 309.971565 -56.152676 
L 286.640343 -57.102371 
L 263.309122 -55.397101 
L 239.9779 -54.492968 
L 216.646678 -53.707153 
L 193.315456 -52.179781 
L 169.984234 -51.630322 
L 146.653012 -51.933056 
L 123.321791 -50.973421 
L 99.990569 -50.646066 
z
" style="stroke: #2ca02c; stroke-opacity: 0.2"/>
    </defs>
    <g clip-path="url(#p97550948e1)">
     <use xlink:href="#mf2ca39a9b5" x="0" y="413.996562" style="fill: #2ca02c; fill-opacity: 0.2; stroke: #2ca02c; stroke-opacity: 0.2"/>
    </g>
   </g>
   <g id="PolyCollection_12">
    <defs>
     <path id="m51eb81ba33" d="M 99.990569 -99.767315 
L 99.990569 -86.584917 
L 123.321791 -88.025823 
L 146.653012 -89.548403 
L 169.984234 -87.085846 
L 193.315456 -90.743164 
L 216.646678 -89.584384 
L 239.9779 -93.242183 
L 263.309122 -90.250448 
L 286.640343 -88.442537 
L 309.971565 -94.719493 
L 333.302787 -92.939589 
L 356.634009 -94.163763 
L 379.965231 -102.296397 
L 379.965231 -116.28489 
L 379.965231 -116.28489 
L 356.634009 -123.374173 
L 333.302787 -127.853853 
L 309.971565 -109.504371 
L 286.640343 -119.94442 
L 263.309122 -116.092453 
L 239.9779 -109.622238 
L 216.646678 -113.517897 
L 193.315456 -101.343508 
L 169.984234 -108.10114 
L 146.653012 -104.099836 
L 123.321791 -99.040361 
L 99.990569 -99.767315 
z
" style="stroke: #d62728; stroke-opacity: 0.2"/>
    </defs>
    <g clip-path="url(#p97550948e1)">
     <use xlink:href="#m51eb81ba33" x="0" y="413.996562" style="fill: #d62728; fill-opacity: 0.2; stroke: #d62728; stroke-opacity: 0.2"/>
    </g>
   </g>
   <g id="matplotlib.axis_5">
    <g id="xtick_19">
     <g id="line2d_42">
      <g>
       <use xlink:href="#m226c2fe8d1" x="53.328125" y="386.118437" style="stroke: #000000; stroke-width: 0.8"/>
      </g>
     </g>
    </g>
    <g id="xtick_20">
     <g id="line2d_43">
      <g>
       <use xlink:href="#m226c2fe8d1" x="99.990569" y="386.118437" style="stroke: #000000; stroke-width: 0.8"/>
      </g>
     </g>
    </g>
    <g id="xtick_21">
     <g id="line2d_44">
      <g>
       <use xlink:href="#m226c2fe8d1" x="146.653012" y="386.118437" style="stroke: #000000; stroke-width: 0.8"/>
      </g>
     </g>
    </g>
    <g id="xtick_22">
     <g id="line2d_45">
      <g>
       <use xlink:href="#m226c2fe8d1" x="193.315456" y="386.118437" style="stroke: #000000; stroke-width: 0.8"/>
      </g>
     </g>
    </g>
    <g id="xtick_23">
     <g id="line2d_46">
      <g>
       <use xlink:href="#m226c2fe8d1" x="239.9779" y="386.118437" style="stroke: #000000; stroke-width: 0.8"/>
      </g>
     </g>
    </g>
    <g id="xtick_24">
     <g id="line2d_47">
      <g>
       <use xlink:href="#m226c2fe8d1" x="286.640343" y="386.118437" style="stroke: #000000; stroke-width: 0.8"/>
      </g>
     </g>
    </g>
    <g id="xtick_25">
     <g id="line2d_48">
      <g>
       <use xlink:href="#m226c2fe8d1" x="333.302787" y="386.118437" style="stroke: #000000; stroke-width: 0.8"/>
      </g>
     </g>
    </g>
    <g id="xtick_26">
     <g id="line2d_49">
      <g>
       <use xlink:href="#m226c2fe8d1" x="379.965231" y="386.118437" style="stroke: #000000; stroke-width: 0.8"/>
      </g>
     </g>
    </g>
    <g id="xtick_27">
     <g id="line2d_50">
      <g>
       <use xlink:href="#m226c2fe8d1" x="426.627675" y="386.118437" style="stroke: #000000; stroke-width: 0.8"/>
      </g>
     </g>
    </g>
    <g id="text_21">
     <!-- year -->
     <g transform="translate(228.822431 404.716875) scale(0.1 -0.1)">
      <use xlink:href="#DejaVuSans-79"/>
      <use xlink:href="#DejaVuSans-65" x="59.179688"/>
      <use xlink:href="#DejaVuSans-61" x="120.703125"/>
      <use xlink:href="#DejaVuSans-72" x="181.982422"/>
     </g>
    </g>
   </g>
   <g id="matplotlib.axis_6">
    <g id="ytick_16">
     <g id="line2d_51">
      <g>
       <use xlink:href="#m2050ac8636" x="53.328125" y="370.594995" style="stroke: #000000; stroke-width: 0.8"/>
      </g>
     </g>
     <g id="text_22">
      <!-- 250 -->
      <g transform="translate(27.240625 374.394213) scale(0.1 -0.1)">
       <use xlink:href="#DejaVuSans-32"/>
       <use xlink:href="#DejaVuSans-35" x="63.623047"/>
       <use xlink:href="#DejaVuSans-30" x="127.246094"/>
      </g>
     </g>
    </g>
    <g id="ytick_17">
     <g id="line2d_52">
      <g>
       <use xlink:href="#m2050ac8636" x="53.328125" y="349.404625" style="stroke: #000000; stroke-width: 0.8"/>
      </g>
     </g>
     <g id="text_23">
      <!-- 500 -->
      <g transform="translate(27.240625 353.203844) scale(0.1 -0.1)">
       <use xlink:href="#DejaVuSans-35"/>
       <use xlink:href="#DejaVuSans-30" x="63.623047"/>
       <use xlink:href="#DejaVuSans-30" x="127.246094"/>
      </g>
     </g>
    </g>
    <g id="ytick_18">
     <g id="line2d_53">
      <g>
       <use xlink:href="#m2050ac8636" x="53.328125" y="328.214255" style="stroke: #000000; stroke-width: 0.8"/>
      </g>
     </g>
     <g id="text_24">
      <!-- 750 -->
      <g transform="translate(27.240625 332.013474) scale(0.1 -0.1)">
       <use xlink:href="#DejaVuSans-37"/>
       <use xlink:href="#DejaVuSans-35" x="63.623047"/>
       <use xlink:href="#DejaVuSans-30" x="127.246094"/>
      </g>
     </g>
    </g>
    <g id="ytick_19">
     <g id="line2d_54">
      <g>
       <use xlink:href="#m2050ac8636" x="53.328125" y="307.023886" style="stroke: #000000; stroke-width: 0.8"/>
      </g>
     </g>
     <g id="text_25">
      <!-- 1000 -->
      <g transform="translate(20.878125 310.823104) scale(0.1 -0.1)">
       <use xlink:href="#DejaVuSans-31"/>
       <use xlink:href="#DejaVuSans-30" x="63.623047"/>
       <use xlink:href="#DejaVuSans-30" x="127.246094"/>
       <use xlink:href="#DejaVuSans-30" x="190.869141"/>
      </g>
     </g>
    </g>
    <g id="ytick_20">
     <g id="line2d_55">
      <g>
       <use xlink:href="#m2050ac8636" x="53.328125" y="285.833516" style="stroke: #000000; stroke-width: 0.8"/>
      </g>
     </g>
     <g id="text_26">
      <!-- 1250 -->
      <g transform="translate(20.878125 289.632735) scale(0.1 -0.1)">
       <use xlink:href="#DejaVuSans-31"/>
       <use xlink:href="#DejaVuSans-32" x="63.623047"/>
       <use xlink:href="#DejaVuSans-35" x="127.246094"/>
       <use xlink:href="#DejaVuSans-30" x="190.869141"/>
      </g>
     </g>
    </g>
    <g id="ytick_21">
     <g id="line2d_56">
      <g>
       <use xlink:href="#m2050ac8636" x="53.328125" y="264.643146" style="stroke: #000000; stroke-width: 0.8"/>
      </g>
     </g>
     <g id="text_27">
      <!-- 1500 -->
      <g transform="translate(20.878125 268.442365) scale(0.1 -0.1)">
       <use xlink:href="#DejaVuSans-31"/>
       <use xlink:href="#DejaVuSans-35" x="63.623047"/>
       <use xlink:href="#DejaVuSans-30" x="127.246094"/>
       <use xlink:href="#DejaVuSans-30" x="190.869141"/>
      </g>
     </g>
    </g>
    <g id="ytick_22">
     <g id="line2d_57">
      <g>
       <use xlink:href="#m2050ac8636" x="53.328125" y="243.452777" style="stroke: #000000; stroke-width: 0.8"/>
      </g>
     </g>
     <g id="text_28">
      <!-- 1750 -->
      <g transform="translate(20.878125 247.251996) scale(0.1 -0.1)">
       <use xlink:href="#DejaVuSans-31"/>
       <use xlink:href="#DejaVuSans-37" x="63.623047"/>
       <use xlink:href="#DejaVuSans-35" x="127.246094"/>
       <use xlink:href="#DejaVuSans-30" x="190.869141"/>
      </g>
     </g>
    </g>
    <g id="text_29">
     <!-- mean deaths per week -->
     <g transform="translate(14.798438 362.7175) rotate(-90) scale(0.1 -0.1)">
      <use xlink:href="#DejaVuSans-6d"/>
      <use xlink:href="#DejaVuSans-65" x="97.412109"/>
      <use xlink:href="#DejaVuSans-61" x="158.935547"/>
      <use xlink:href="#DejaVuSans-6e" x="220.214844"/>
      <use xlink:href="#DejaVuSans-20" x="283.59375"/>
      <use xlink:href="#DejaVuSans-64" x="315.380859"/>
      <use xlink:href="#DejaVuSans-65" x="378.857422"/>
      <use xlink:href="#DejaVuSans-61" x="440.380859"/>
      <use xlink:href="#DejaVuSans-74" x="501.660156"/>
      <use xlink:href="#DejaVuSans-68" x="540.869141"/>
      <use xlink:href="#DejaVuSans-73" x="604.248047"/>
      <use xlink:href="#DejaVuSans-20" x="656.347656"/>
      <use xlink:href="#DejaVuSans-70" x="688.134766"/>
      <use xlink:href="#DejaVuSans-65" x="751.611328"/>
      <use xlink:href="#DejaVuSans-72" x="813.134766"/>
      <use xlink:href="#DejaVuSans-20" x="854.248047"/>
      <use xlink:href="#DejaVuSans-77" x="886.035156"/>
      <use xlink:href="#DejaVuSans-65" x="967.822266"/>
      <use xlink:href="#DejaVuSans-65" x="1029.345703"/>
      <use xlink:href="#DejaVuSans-6b" x="1090.869141"/>
     </g>
    </g>
   </g>
   <g id="line2d_58">
    <path d="M 99.990569 277.898538 
L 123.321791 277.225336 
L 146.653012 273.658834 
L 169.984234 273.280667 
L 193.315456 274.794964 
L 216.646678 267.928054 
L 239.9779 267.16643 
L 263.309122 265.776016 
L 286.640343 263.668389 
L 309.971565 265.865668 
L 333.302787 254.801219 
L 356.634009 253.480712 
L 379.965231 253.169833 
" clip-path="url(#p97550948e1)" style="fill: none; stroke: #1f77b4; stroke-opacity: 0.7; stroke-width: 1.5; stroke-linecap: square"/>
   </g>
   <g id="line2d_59">
    <path d="M 99.990569 375.384018 
L 123.321791 375.47041 
L 146.653012 375.824126 
L 169.984234 376.190882 
L 193.315456 376.557639 
L 216.646678 376.477121 
L 239.9779 376.301724 
L 263.309122 376.926025 
L 286.640343 376.974926 
L 309.971565 377.380803 
L 333.302787 377.355122 
L 356.634009 376.371815 
L 379.965231 377.112979 
" clip-path="url(#p97550948e1)" style="fill: none; stroke: #ff7f0e; stroke-opacity: 0.7; stroke-width: 1.5; stroke-linecap: square"/>
   </g>
   <g id="line2d_60">
    <path d="M 99.990569 365.264802 
L 123.321791 364.862185 
L 146.653012 364.232994 
L 169.984234 364.257444 
L 193.315456 363.854827 
L 216.646678 362.576239 
L 239.9779 361.871082 
L 263.309122 361.595608 
L 286.640343 360.461108 
L 309.971565 360.170963 
L 333.302787 357.416984 
L 356.634009 355.45203 
L 379.965231 355.559346 
" clip-path="url(#p97550948e1)" style="fill: none; stroke: #2ca02c; stroke-opacity: 0.7; stroke-width: 1.5; stroke-linecap: square"/>
   </g>
   <g id="line2d_61">
    <path d="M 99.990569 320.820446 
L 123.321791 320.46347 
L 146.653012 317.172443 
L 169.984234 316.403069 
L 193.315456 317.953226 
L 216.646678 312.445422 
L 239.9779 312.564352 
L 263.309122 310.825112 
L 286.640343 309.803084 
L 309.971565 311.88463 
L 333.302787 303.599842 
L 356.634009 305.227594 
L 379.965231 304.705919 
" clip-path="url(#p97550948e1)" style="fill: none; stroke: #d62728; stroke-opacity: 0.7; stroke-width: 1.5; stroke-linecap: square"/>
   </g>
   <g id="patch_9">
    <path d="M 53.328125 386.118437 
L 53.328125 224.438437 
" style="fill: none; stroke: #000000; stroke-width: 0.8; stroke-linejoin: miter; stroke-linecap: square"/>
   </g>
   <g id="patch_10">
    <path d="M 53.328125 386.118437 
L 426.627675 386.118437 
" style="fill: none; stroke: #000000; stroke-width: 0.8; stroke-linejoin: miter; stroke-linecap: square"/>
   </g>
   <g id="text_30">
    <!-- gender = Vrouwen -->
    <g transform="translate(192.958369 218.438437) scale(0.1 -0.1)">
     <defs>
      <path id="DejaVuSans-56" d="M 1831 0 
L 50 4666 
L 709 4666 
L 2188 738 
L 3669 4666 
L 4325 4666 
L 2547 0 
L 1831 0 
z
" transform="scale(0.015625)"/>
     </defs>
     <use xlink:href="#DejaVuSans-67"/>
     <use xlink:href="#DejaVuSans-65" x="63.476562"/>
     <use xlink:href="#DejaVuSans-6e" x="125"/>
     <use xlink:href="#DejaVuSans-64" x="188.378906"/>
     <use xlink:href="#DejaVuSans-65" x="251.855469"/>
     <use xlink:href="#DejaVuSans-72" x="313.378906"/>
     <use xlink:href="#DejaVuSans-20" x="354.492188"/>
     <use xlink:href="#DejaVuSans-3d" x="386.279297"/>
     <use xlink:href="#DejaVuSans-20" x="470.068359"/>
     <use xlink:href="#DejaVuSans-56" x="501.855469"/>
     <use xlink:href="#DejaVuSans-72" x="570.263672"/>
     <use xlink:href="#DejaVuSans-6f" x="609.126953"/>
     <use xlink:href="#DejaVuSans-75" x="670.308594"/>
     <use xlink:href="#DejaVuSans-77" x="733.6875"/>
     <use xlink:href="#DejaVuSans-65" x="815.474609"/>
     <use xlink:href="#DejaVuSans-6e" x="876.998047"/>
    </g>
   </g>
  </g>
  <g id="legend_1">
   <g id="line2d_62">
    <path d="M 853.915541 184.240469 
L 863.915541 184.240469 
L 873.915541 184.240469 
" style="fill: none; stroke: #1f77b4; stroke-opacity: 0.7; stroke-width: 1.5; stroke-linecap: square"/>
   </g>
   <g id="text_31">
    <!-- Totaal leeftijd -->
    <g transform="translate(881.915541 187.740469) scale(0.1 -0.1)">
     <defs>
      <path id="DejaVuSans-66" d="M 2375 4863 
L 2375 4384 
L 1825 4384 
Q 1516 4384 1395 4259 
Q 1275 4134 1275 3809 
L 1275 3500 
L 2222 3500 
L 2222 3053 
L 1275 3053 
L 1275 0 
L 697 0 
L 697 3053 
L 147 3053 
L 147 3500 
L 697 3500 
L 697 3744 
Q 697 4328 969 4595 
Q 1241 4863 1831 4863 
L 2375 4863 
z
" transform="scale(0.015625)"/>
      <path id="DejaVuSans-69" d="M 603 3500 
L 1178 3500 
L 1178 0 
L 603 0 
L 603 3500 
z
M 603 4863 
L 1178 4863 
L 1178 4134 
L 603 4134 
L 603 4863 
z
" transform="scale(0.015625)"/>
      <path id="DejaVuSans-6a" d="M 603 3500 
L 1178 3500 
L 1178 -63 
Q 1178 -731 923 -1031 
Q 669 -1331 103 -1331 
L -116 -1331 
L -116 -844 
L 38 -844 
Q 366 -844 484 -692 
Q 603 -541 603 -63 
L 603 3500 
z
M 603 4863 
L 1178 4863 
L 1178 4134 
L 603 4134 
L 603 4863 
z
" transform="scale(0.015625)"/>
     </defs>
     <use xlink:href="#DejaVuSans-54"/>
     <use xlink:href="#DejaVuSans-6f" x="44.083984"/>
     <use xlink:href="#DejaVuSans-74" x="105.265625"/>
     <use xlink:href="#DejaVuSans-61" x="144.474609"/>
     <use xlink:href="#DejaVuSans-61" x="205.753906"/>
     <use xlink:href="#DejaVuSans-6c" x="267.033203"/>
     <use xlink:href="#DejaVuSans-20" x="294.816406"/>
     <use xlink:href="#DejaVuSans-6c" x="326.603516"/>
     <use xlink:href="#DejaVuSans-65" x="354.386719"/>
     <use xlink:href="#DejaVuSans-65" x="415.910156"/>
     <use xlink:href="#DejaVuSans-66" x="477.433594"/>
     <use xlink:href="#DejaVuSans-74" x="510.888672"/>
     <use xlink:href="#DejaVuSans-69" x="550.097656"/>
     <use xlink:href="#DejaVuSans-6a" x="577.880859"/>
     <use xlink:href="#DejaVuSans-64" x="605.664062"/>
    </g>
   </g>
   <g id="line2d_63">
    <path d="M 853.915541 198.918594 
L 863.915541 198.918594 
L 873.915541 198.918594 
" style="fill: none; stroke: #ff7f0e; stroke-opacity: 0.7; stroke-width: 1.5; stroke-linecap: square"/>
   </g>
   <g id="text_32">
    <!-- 0 tot 65 jaar -->
    <g transform="translate(881.915541 202.418594) scale(0.1 -0.1)">
     <defs>
      <path id="DejaVuSans-36" d="M 2113 2584 
Q 1688 2584 1439 2293 
Q 1191 2003 1191 1497 
Q 1191 994 1439 701 
Q 1688 409 2113 409 
Q 2538 409 2786 701 
Q 3034 994 3034 1497 
Q 3034 2003 2786 2293 
Q 2538 2584 2113 2584 
z
M 3366 4563 
L 3366 3988 
Q 3128 4100 2886 4159 
Q 2644 4219 2406 4219 
Q 1781 4219 1451 3797 
Q 1122 3375 1075 2522 
Q 1259 2794 1537 2939 
Q 1816 3084 2150 3084 
Q 2853 3084 3261 2657 
Q 3669 2231 3669 1497 
Q 3669 778 3244 343 
Q 2819 -91 2113 -91 
Q 1303 -91 875 529 
Q 447 1150 447 2328 
Q 447 3434 972 4092 
Q 1497 4750 2381 4750 
Q 2619 4750 2861 4703 
Q 3103 4656 3366 4563 
z
" transform="scale(0.015625)"/>
     </defs>
     <use xlink:href="#DejaVuSans-30"/>
     <use xlink:href="#DejaVuSans-20" x="63.623047"/>
     <use xlink:href="#DejaVuSans-74" x="95.410156"/>
     <use xlink:href="#DejaVuSans-6f" x="134.619141"/>
     <use xlink:href="#DejaVuSans-74" x="195.800781"/>
     <use xlink:href="#DejaVuSans-20" x="235.009766"/>
     <use xlink:href="#DejaVuSans-36" x="266.796875"/>
     <use xlink:href="#DejaVuSans-35" x="330.419922"/>
     <use xlink:href="#DejaVuSans-20" x="394.042969"/>
     <use xlink:href="#DejaVuSans-6a" x="425.830078"/>
     <use xlink:href="#DejaVuSans-61" x="453.613281"/>
     <use xlink:href="#DejaVuSans-61" x="514.892578"/>
     <use xlink:href="#DejaVuSans-72" x="576.171875"/>
    </g>
   </g>
   <g id="line2d_64">
    <path d="M 853.915541 213.596719 
L 863.915541 213.596719 
L 873.915541 213.596719 
" style="fill: none; stroke: #2ca02c; stroke-opacity: 0.7; stroke-width: 1.5; stroke-linecap: square"/>
   </g>
   <g id="text_33">
    <!-- 65 tot 80 jaar -->
    <g transform="translate(881.915541 217.096719) scale(0.1 -0.1)">
     <defs>
      <path id="DejaVuSans-38" d="M 2034 2216 
Q 1584 2216 1326 1975 
Q 1069 1734 1069 1313 
Q 1069 891 1326 650 
Q 1584 409 2034 409 
Q 2484 409 2743 651 
Q 3003 894 3003 1313 
Q 3003 1734 2745 1975 
Q 2488 2216 2034 2216 
z
M 1403 2484 
Q 997 2584 770 2862 
Q 544 3141 544 3541 
Q 544 4100 942 4425 
Q 1341 4750 2034 4750 
Q 2731 4750 3128 4425 
Q 3525 4100 3525 3541 
Q 3525 3141 3298 2862 
Q 3072 2584 2669 2484 
Q 3125 2378 3379 2068 
Q 3634 1759 3634 1313 
Q 3634 634 3220 271 
Q 2806 -91 2034 -91 
Q 1263 -91 848 271 
Q 434 634 434 1313 
Q 434 1759 690 2068 
Q 947 2378 1403 2484 
z
M 1172 3481 
Q 1172 3119 1398 2916 
Q 1625 2713 2034 2713 
Q 2441 2713 2670 2916 
Q 2900 3119 2900 3481 
Q 2900 3844 2670 4047 
Q 2441 4250 2034 4250 
Q 1625 4250 1398 4047 
Q 1172 3844 1172 3481 
z
" transform="scale(0.015625)"/>
     </defs>
     <use xlink:href="#DejaVuSans-36"/>
     <use xlink:href="#DejaVuSans-35" x="63.623047"/>
     <use xlink:href="#DejaVuSans-20" x="127.246094"/>
     <use xlink:href="#DejaVuSans-74" x="159.033203"/>
     <use xlink:href="#DejaVuSans-6f" x="198.242188"/>
     <use xlink:href="#DejaVuSans-74" x="259.423828"/>
     <use xlink:href="#DejaVuSans-20" x="298.632812"/>
     <use xlink:href="#DejaVuSans-38" x="330.419922"/>
     <use xlink:href="#DejaVuSans-30" x="394.042969"/>
     <use xlink:href="#DejaVuSans-20" x="457.666016"/>
     <use xlink:href="#DejaVuSans-6a" x="489.453125"/>
     <use xlink:href="#DejaVuSans-61" x="517.236328"/>
     <use xlink:href="#DejaVuSans-61" x="578.515625"/>
     <use xlink:href="#DejaVuSans-72" x="639.794922"/>
    </g>
   </g>
   <g id="line2d_65">
    <path d="M 853.915541 228.274844 
L 863.915541 228.274844 
L 873.915541 228.274844 
" style="fill: none; stroke: #d62728; stroke-opacity: 0.7; stroke-width: 1.5; stroke-linecap: square"/>
   </g>
   <g id="text_34">
    <!-- 80 jaar of ouder -->
    <g transform="translate(881.915541 231.774844) scale(0.1 -0.1)">
     <use xlink:href="#DejaVuSans-38"/>
     <use xlink:href="#DejaVuSans-30" x="63.623047"/>
     <use xlink:href="#DejaVuSans-20" x="127.246094"/>
     <use xlink:href="#DejaVuSans-6a" x="159.033203"/>
     <use xlink:href="#DejaVuSans-61" x="186.816406"/>
     <use xlink:href="#DejaVuSans-61" x="248.095703"/>
     <use xlink:href="#DejaVuSans-72" x="309.375"/>
     <use xlink:href="#DejaVuSans-20" x="350.488281"/>
     <use xlink:href="#DejaVuSans-6f" x="382.275391"/>
     <use xlink:href="#DejaVuSans-66" x="443.457031"/>
     <use xlink:href="#DejaVuSans-20" x="478.662109"/>
     <use xlink:href="#DejaVuSans-6f" x="510.449219"/>
     <use xlink:href="#DejaVuSans-75" x="571.630859"/>
     <use xlink:href="#DejaVuSans-64" x="635.009766"/>
     <use xlink:href="#DejaVuSans-65" x="698.486328"/>
     <use xlink:href="#DejaVuSans-72" x="760.009766"/>
    </g>
   </g>
  </g>
 </g>
 <defs>
  <clipPath id="p1208e1ad1e">
   <rect x="53.328125" y="20.798437" width="373.29955" height="161.68"/>
  </clipPath>
  <clipPath id="p6f5f250375">
   <rect x="469.354791" y="20.798437" width="373.29955" height="161.68"/>
  </clipPath>
  <clipPath id="p97550948e1">
   <rect x="53.328125" y="224.438437" width="373.29955" height="161.68"/>
  </clipPath>
 </defs>
</svg>
