<?xml version="1.0" encoding="utf-8" standalone="no"?>
<!DOCTYPE svg PUBLIC "-//W3C//DTD SVG 1.1//EN"
  "http://www.w3.org/Graphics/SVG/1.1/DTD/svg11.dtd">
<svg xmlns:xlink="http://www.w3.org/1999/xlink" width="1022.463453pt" height="413.996562pt" viewBox="0 0 1022.463453 413.996562" xmlns="http://www.w3.org/2000/svg" version="1.1">
 <metadata>
  <rdf:RDF xmlns:dc="http://purl.org/dc/elements/1.1/" xmlns:cc="http://creativecommons.org/ns#" xmlns:rdf="http://www.w3.org/1999/02/22-rdf-syntax-ns#">
   <cc:Work>
    <dc:type rdf:resource="http://purl.org/dc/dcmitype/StillImage"/>
    <dc:date>2022-12-23T11:14:30.703709</dc:date>
    <dc:format>image/svg+xml</dc:format>
    <dc:creator>
     <cc:Agent>
      <dc:title>Matplotlib v3.6.0, https://matplotlib.org/</dc:title>
     </cc:Agent>
    </dc:creator>
   </cc:Work>
  </rdf:RDF>
 </metadata>
 <defs>
  <style type="text/css">*{stroke-linejoin: round; stroke-linecap: butt}</style>
 </defs>
 <g id="figure_1">
  <g id="patch_1">
   <path d="M 0 413.996562 
L 1022.463453 413.996562 
L 1022.463453 0 
L 0 0 
z
" style="fill: #ffffff"/>
  </g>
  <g id="axes_1">
   <g id="patch_2">
    <path d="M 53.328125 189.348437 
L 424.643531 189.348437 
L 424.643531 20.798437 
L 53.328125 20.798437 
z
" style="fill: #ffffff"/>
   </g>
   <g id="PolyCollection_1">
    <defs>
     <path id="m96c59041e9" d="M 99.742551 -325.15451 
L 99.742551 -305.414327 
L 122.949764 -306.704044 
L 146.156977 -309.101158 
L 169.364189 -305.482917 
L 192.571402 -309.757555 
L 215.778615 -311.619115 
L 238.985828 -315.969125 
L 262.193041 -312.462341 
L 285.400254 -311.773873 
L 308.607467 -320.846018 
L 331.81468 -317.305727 
L 355.021893 -327.281951 
L 378.229105 -337.568706 
L 378.229105 -364.153424 
L 378.229105 -364.153424 
L 355.021893 -380.341874 
L 331.81468 -385.536761 
L 308.607467 -344.985498 
L 285.400254 -357.239776 
L 262.193041 -349.485364 
L 238.985828 -342.534994 
L 215.778615 -344.006108 
L 192.571402 -327.396778 
L 169.364189 -336.632325 
L 146.156977 -331.081117 
L 122.949764 -323.026801 
L 99.742551 -325.15451 
z
" style="stroke: #1f77b4; stroke-opacity: 0.2"/>
    </defs>
    <g clip-path="url(#pedd372a524)">
     <use xlink:href="#m96c59041e9" x="0" y="413.996562" style="fill: #1f77b4; fill-opacity: 0.2; stroke: #1f77b4; stroke-opacity: 0.2"/>
    </g>
   </g>
   <g id="PolyCollection_2">
    <defs>
     <path id="m098651ee19" d="M 99.742551 -241.843094 
L 99.742551 -232.595651 
L 122.949764 -232.309489 
L 146.156977 -234.021129 
L 169.364189 -232.65834 
L 192.571402 -233.674373 
L 215.778615 -236.025954 
L 238.985828 -237.547597 
L 262.193041 -236.609301 
L 285.400254 -236.891783 
L 308.607467 -240.707302 
L 331.81468 -238.895486 
L 355.021893 -245.159917 
L 378.229105 -248.628321 
L 378.229105 -263.062561 
L 378.229105 -263.062561 
L 355.021893 -272.858851 
L 331.81468 -276.15226 
L 308.607467 -252.497981 
L 285.400254 -256.483332 
L 262.193041 -252.589265 
L 238.985828 -250.113535 
L 215.778615 -249.800409 
L 192.571402 -243.095104 
L 169.364189 -246.996063 
L 146.156977 -244.218744 
L 122.949764 -240.368356 
L 99.742551 -241.843094 
z
" style="stroke: #ff7f0e; stroke-opacity: 0.2"/>
    </defs>
    <g clip-path="url(#pedd372a524)">
     <use xlink:href="#m098651ee19" x="0" y="413.996562" style="fill: #ff7f0e; fill-opacity: 0.2; stroke: #ff7f0e; stroke-opacity: 0.2"/>
    </g>
   </g>
   <g id="PolyCollection_3">
    <defs>
     <path id="mb1572876d6" d="M 99.742551 -247.437616 
L 99.742551 -236.013447 
L 122.949764 -237.441902 
L 146.156977 -238.356711 
L 169.364189 -236.126013 
L 192.571402 -239.24841 
L 215.778615 -238.951305 
L 238.985828 -241.693144 
L 262.193041 -239.276062 
L 285.400254 -238.323037 
L 308.607467 -243.394412 
L 331.81468 -241.782855 
L 355.021893 -245.508367 
L 378.229105 -251.966401 
L 378.229105 -265.385817 
L 378.229105 -265.385817 
L 355.021893 -271.41766 
L 331.81468 -273.332858 
L 308.607467 -256.552791 
L 285.400254 -264.636466 
L 262.193041 -260.794047 
L 238.985828 -256.470814 
L 215.778615 -258.168526 
L 192.571402 -248.457414 
L 169.364189 -253.655796 
L 146.156977 -250.906661 
L 122.949764 -246.932068 
L 99.742551 -247.437616 
z
" style="stroke: #2ca02c; stroke-opacity: 0.2"/>
    </defs>
    <g clip-path="url(#pedd372a524)">
     <use xlink:href="#mb1572876d6" x="0" y="413.996562" style="fill: #2ca02c; fill-opacity: 0.2; stroke: #2ca02c; stroke-opacity: 0.2"/>
    </g>
   </g>
   <g id="matplotlib.axis_1">
    <g id="xtick_1">
     <g id="line2d_1">
      <defs>
       <path id="me66cf7ff4a" d="M 0 0 
L 0 3.5 
" style="stroke: #000000; stroke-width: 0.8"/>
      </defs>
      <g>
       <use xlink:href="#me66cf7ff4a" x="53.328125" y="189.348437" style="stroke: #000000; stroke-width: 0.8"/>
      </g>
     </g>
    </g>
    <g id="xtick_2">
     <g id="line2d_2">
      <g>
       <use xlink:href="#me66cf7ff4a" x="99.742551" y="189.348437" style="stroke: #000000; stroke-width: 0.8"/>
      </g>
     </g>
    </g>
    <g id="xtick_3">
     <g id="line2d_3">
      <g>
       <use xlink:href="#me66cf7ff4a" x="146.156977" y="189.348437" style="stroke: #000000; stroke-width: 0.8"/>
      </g>
     </g>
    </g>
    <g id="xtick_4">
     <g id="line2d_4">
      <g>
       <use xlink:href="#me66cf7ff4a" x="192.571402" y="189.348437" style="stroke: #000000; stroke-width: 0.8"/>
      </g>
     </g>
    </g>
    <g id="xtick_5">
     <g id="line2d_5">
      <g>
       <use xlink:href="#me66cf7ff4a" x="238.985828" y="189.348437" style="stroke: #000000; stroke-width: 0.8"/>
      </g>
     </g>
    </g>
    <g id="xtick_6">
     <g id="line2d_6">
      <g>
       <use xlink:href="#me66cf7ff4a" x="285.400254" y="189.348437" style="stroke: #000000; stroke-width: 0.8"/>
      </g>
     </g>
    </g>
    <g id="xtick_7">
     <g id="line2d_7">
      <g>
       <use xlink:href="#me66cf7ff4a" x="331.81468" y="189.348437" style="stroke: #000000; stroke-width: 0.8"/>
      </g>
     </g>
    </g>
    <g id="xtick_8">
     <g id="line2d_8">
      <g>
       <use xlink:href="#me66cf7ff4a" x="378.229105" y="189.348437" style="stroke: #000000; stroke-width: 0.8"/>
      </g>
     </g>
    </g>
    <g id="xtick_9">
     <g id="line2d_9">
      <g>
       <use xlink:href="#me66cf7ff4a" x="424.643531" y="189.348437" style="stroke: #000000; stroke-width: 0.8"/>
      </g>
     </g>
    </g>
   </g>
   <g id="matplotlib.axis_2">
    <g id="ytick_1">
     <g id="line2d_10">
      <defs>
       <path id="m60309a8984" d="M 0 0 
L -3.5 0 
" style="stroke: #000000; stroke-width: 0.8"/>
      </defs>
      <g>
       <use xlink:href="#m60309a8984" x="53.328125" y="163.184969" style="stroke: #000000; stroke-width: 0.8"/>
      </g>
     </g>
     <g id="text_1">
      <!-- 1500 -->
      <g transform="translate(20.878125 166.984188) scale(0.1 -0.1)">
       <defs>
        <path id="DejaVuSans-31" d="M 794 531 
L 1825 531 
L 1825 4091 
L 703 3866 
L 703 4441 
L 1819 4666 
L 2450 4666 
L 2450 531 
L 3481 531 
L 3481 0 
L 794 0 
L 794 531 
z
" transform="scale(0.015625)"/>
        <path id="DejaVuSans-35" d="M 691 4666 
L 3169 4666 
L 3169 4134 
L 1269 4134 
L 1269 2991 
Q 1406 3038 1543 3061 
Q 1681 3084 1819 3084 
Q 2600 3084 3056 2656 
Q 3513 2228 3513 1497 
Q 3513 744 3044 326 
Q 2575 -91 1722 -91 
Q 1428 -91 1123 -41 
Q 819 9 494 109 
L 494 744 
Q 775 591 1075 516 
Q 1375 441 1709 441 
Q 2250 441 2565 725 
Q 2881 1009 2881 1497 
Q 2881 1984 2565 2268 
Q 2250 2553 1709 2553 
Q 1456 2553 1204 2497 
Q 953 2441 691 2322 
L 691 4666 
z
" transform="scale(0.015625)"/>
        <path id="DejaVuSans-30" d="M 2034 4250 
Q 1547 4250 1301 3770 
Q 1056 3291 1056 2328 
Q 1056 1369 1301 889 
Q 1547 409 2034 409 
Q 2525 409 2770 889 
Q 3016 1369 3016 2328 
Q 3016 3291 2770 3770 
Q 2525 4250 2034 4250 
z
M 2034 4750 
Q 2819 4750 3233 4129 
Q 3647 3509 3647 2328 
Q 3647 1150 3233 529 
Q 2819 -91 2034 -91 
Q 1250 -91 836 529 
Q 422 1150 422 2328 
Q 422 3509 836 4129 
Q 1250 4750 2034 4750 
z
" transform="scale(0.015625)"/>
       </defs>
       <use xlink:href="#DejaVuSans-31"/>
       <use xlink:href="#DejaVuSans-35" x="63.623047"/>
       <use xlink:href="#DejaVuSans-30" x="127.246094"/>
       <use xlink:href="#DejaVuSans-30" x="190.869141"/>
      </g>
     </g>
    </g>
    <g id="ytick_2">
     <g id="line2d_11">
      <g>
       <use xlink:href="#m60309a8984" x="53.328125" y="134.1346" style="stroke: #000000; stroke-width: 0.8"/>
      </g>
     </g>
     <g id="text_2">
      <!-- 2000 -->
      <g transform="translate(20.878125 137.933819) scale(0.1 -0.1)">
       <defs>
        <path id="DejaVuSans-32" d="M 1228 531 
L 3431 531 
L 3431 0 
L 469 0 
L 469 531 
Q 828 903 1448 1529 
Q 2069 2156 2228 2338 
Q 2531 2678 2651 2914 
Q 2772 3150 2772 3378 
Q 2772 3750 2511 3984 
Q 2250 4219 1831 4219 
Q 1534 4219 1204 4116 
Q 875 4013 500 3803 
L 500 4441 
Q 881 4594 1212 4672 
Q 1544 4750 1819 4750 
Q 2544 4750 2975 4387 
Q 3406 4025 3406 3419 
Q 3406 3131 3298 2873 
Q 3191 2616 2906 2266 
Q 2828 2175 2409 1742 
Q 1991 1309 1228 531 
z
" transform="scale(0.015625)"/>
       </defs>
       <use xlink:href="#DejaVuSans-32"/>
       <use xlink:href="#DejaVuSans-30" x="63.623047"/>
       <use xlink:href="#DejaVuSans-30" x="127.246094"/>
       <use xlink:href="#DejaVuSans-30" x="190.869141"/>
      </g>
     </g>
    </g>
    <g id="ytick_3">
     <g id="line2d_12">
      <g>
       <use xlink:href="#m60309a8984" x="53.328125" y="105.084231" style="stroke: #000000; stroke-width: 0.8"/>
      </g>
     </g>
     <g id="text_3">
      <!-- 2500 -->
      <g transform="translate(20.878125 108.883449) scale(0.1 -0.1)">
       <use xlink:href="#DejaVuSans-32"/>
       <use xlink:href="#DejaVuSans-35" x="63.623047"/>
       <use xlink:href="#DejaVuSans-30" x="127.246094"/>
       <use xlink:href="#DejaVuSans-30" x="190.869141"/>
      </g>
     </g>
    </g>
    <g id="ytick_4">
     <g id="line2d_13">
      <g>
       <use xlink:href="#m60309a8984" x="53.328125" y="76.033861" style="stroke: #000000; stroke-width: 0.8"/>
      </g>
     </g>
     <g id="text_4">
      <!-- 3000 -->
      <g transform="translate(20.878125 79.83308) scale(0.1 -0.1)">
       <defs>
        <path id="DejaVuSans-33" d="M 2597 2516 
Q 3050 2419 3304 2112 
Q 3559 1806 3559 1356 
Q 3559 666 3084 287 
Q 2609 -91 1734 -91 
Q 1441 -91 1130 -33 
Q 819 25 488 141 
L 488 750 
Q 750 597 1062 519 
Q 1375 441 1716 441 
Q 2309 441 2620 675 
Q 2931 909 2931 1356 
Q 2931 1769 2642 2001 
Q 2353 2234 1838 2234 
L 1294 2234 
L 1294 2753 
L 1863 2753 
Q 2328 2753 2575 2939 
Q 2822 3125 2822 3475 
Q 2822 3834 2567 4026 
Q 2313 4219 1838 4219 
Q 1578 4219 1281 4162 
Q 984 4106 628 3988 
L 628 4550 
Q 988 4650 1302 4700 
Q 1616 4750 1894 4750 
Q 2613 4750 3031 4423 
Q 3450 4097 3450 3541 
Q 3450 3153 3228 2886 
Q 3006 2619 2597 2516 
z
" transform="scale(0.015625)"/>
       </defs>
       <use xlink:href="#DejaVuSans-33"/>
       <use xlink:href="#DejaVuSans-30" x="63.623047"/>
       <use xlink:href="#DejaVuSans-30" x="127.246094"/>
       <use xlink:href="#DejaVuSans-30" x="190.869141"/>
      </g>
     </g>
    </g>
    <g id="ytick_5">
     <g id="line2d_14">
      <g>
       <use xlink:href="#m60309a8984" x="53.328125" y="46.983492" style="stroke: #000000; stroke-width: 0.8"/>
      </g>
     </g>
     <g id="text_5">
      <!-- 3500 -->
      <g transform="translate(20.878125 50.782711) scale(0.1 -0.1)">
       <use xlink:href="#DejaVuSans-33"/>
       <use xlink:href="#DejaVuSans-35" x="63.623047"/>
       <use xlink:href="#DejaVuSans-30" x="127.246094"/>
       <use xlink:href="#DejaVuSans-30" x="190.869141"/>
      </g>
     </g>
    </g>
    <g id="text_6">
     <!-- mean deaths per week -->
     <g transform="translate(14.798438 162.5125) rotate(-90) scale(0.1 -0.1)">
      <defs>
       <path id="DejaVuSans-6d" d="M 3328 2828 
Q 3544 3216 3844 3400 
Q 4144 3584 4550 3584 
Q 5097 3584 5394 3201 
Q 5691 2819 5691 2113 
L 5691 0 
L 5113 0 
L 5113 2094 
Q 5113 2597 4934 2840 
Q 4756 3084 4391 3084 
Q 3944 3084 3684 2787 
Q 3425 2491 3425 1978 
L 3425 0 
L 2847 0 
L 2847 2094 
Q 2847 2600 2669 2842 
Q 2491 3084 2119 3084 
Q 1678 3084 1418 2786 
Q 1159 2488 1159 1978 
L 1159 0 
L 581 0 
L 581 3500 
L 1159 3500 
L 1159 2956 
Q 1356 3278 1631 3431 
Q 1906 3584 2284 3584 
Q 2666 3584 2933 3390 
Q 3200 3197 3328 2828 
z
" transform="scale(0.015625)"/>
       <path id="DejaVuSans-65" d="M 3597 1894 
L 3597 1613 
L 953 1613 
Q 991 1019 1311 708 
Q 1631 397 2203 397 
Q 2534 397 2845 478 
Q 3156 559 3463 722 
L 3463 178 
Q 3153 47 2828 -22 
Q 2503 -91 2169 -91 
Q 1331 -91 842 396 
Q 353 884 353 1716 
Q 353 2575 817 3079 
Q 1281 3584 2069 3584 
Q 2775 3584 3186 3129 
Q 3597 2675 3597 1894 
z
M 3022 2063 
Q 3016 2534 2758 2815 
Q 2500 3097 2075 3097 
Q 1594 3097 1305 2825 
Q 1016 2553 972 2059 
L 3022 2063 
z
" transform="scale(0.015625)"/>
       <path id="DejaVuSans-61" d="M 2194 1759 
Q 1497 1759 1228 1600 
Q 959 1441 959 1056 
Q 959 750 1161 570 
Q 1363 391 1709 391 
Q 2188 391 2477 730 
Q 2766 1069 2766 1631 
L 2766 1759 
L 2194 1759 
z
M 3341 1997 
L 3341 0 
L 2766 0 
L 2766 531 
Q 2569 213 2275 61 
Q 1981 -91 1556 -91 
Q 1019 -91 701 211 
Q 384 513 384 1019 
Q 384 1609 779 1909 
Q 1175 2209 1959 2209 
L 2766 2209 
L 2766 2266 
Q 2766 2663 2505 2880 
Q 2244 3097 1772 3097 
Q 1472 3097 1187 3025 
Q 903 2953 641 2809 
L 641 3341 
Q 956 3463 1253 3523 
Q 1550 3584 1831 3584 
Q 2591 3584 2966 3190 
Q 3341 2797 3341 1997 
z
" transform="scale(0.015625)"/>
       <path id="DejaVuSans-6e" d="M 3513 2113 
L 3513 0 
L 2938 0 
L 2938 2094 
Q 2938 2591 2744 2837 
Q 2550 3084 2163 3084 
Q 1697 3084 1428 2787 
Q 1159 2491 1159 1978 
L 1159 0 
L 581 0 
L 581 3500 
L 1159 3500 
L 1159 2956 
Q 1366 3272 1645 3428 
Q 1925 3584 2291 3584 
Q 2894 3584 3203 3211 
Q 3513 2838 3513 2113 
z
" transform="scale(0.015625)"/>
       <path id="DejaVuSans-20" transform="scale(0.015625)"/>
       <path id="DejaVuSans-64" d="M 2906 2969 
L 2906 4863 
L 3481 4863 
L 3481 0 
L 2906 0 
L 2906 525 
Q 2725 213 2448 61 
Q 2172 -91 1784 -91 
Q 1150 -91 751 415 
Q 353 922 353 1747 
Q 353 2572 751 3078 
Q 1150 3584 1784 3584 
Q 2172 3584 2448 3432 
Q 2725 3281 2906 2969 
z
M 947 1747 
Q 947 1113 1208 752 
Q 1469 391 1925 391 
Q 2381 391 2643 752 
Q 2906 1113 2906 1747 
Q 2906 2381 2643 2742 
Q 2381 3103 1925 3103 
Q 1469 3103 1208 2742 
Q 947 2381 947 1747 
z
" transform="scale(0.015625)"/>
       <path id="DejaVuSans-74" d="M 1172 4494 
L 1172 3500 
L 2356 3500 
L 2356 3053 
L 1172 3053 
L 1172 1153 
Q 1172 725 1289 603 
Q 1406 481 1766 481 
L 2356 481 
L 2356 0 
L 1766 0 
Q 1100 0 847 248 
Q 594 497 594 1153 
L 594 3053 
L 172 3053 
L 172 3500 
L 594 3500 
L 594 4494 
L 1172 4494 
z
" transform="scale(0.015625)"/>
       <path id="DejaVuSans-68" d="M 3513 2113 
L 3513 0 
L 2938 0 
L 2938 2094 
Q 2938 2591 2744 2837 
Q 2550 3084 2163 3084 
Q 1697 3084 1428 2787 
Q 1159 2491 1159 1978 
L 1159 0 
L 581 0 
L 581 4863 
L 1159 4863 
L 1159 2956 
Q 1366 3272 1645 3428 
Q 1925 3584 2291 3584 
Q 2894 3584 3203 3211 
Q 3513 2838 3513 2113 
z
" transform="scale(0.015625)"/>
       <path id="DejaVuSans-73" d="M 2834 3397 
L 2834 2853 
Q 2591 2978 2328 3040 
Q 2066 3103 1784 3103 
Q 1356 3103 1142 2972 
Q 928 2841 928 2578 
Q 928 2378 1081 2264 
Q 1234 2150 1697 2047 
L 1894 2003 
Q 2506 1872 2764 1633 
Q 3022 1394 3022 966 
Q 3022 478 2636 193 
Q 2250 -91 1575 -91 
Q 1294 -91 989 -36 
Q 684 19 347 128 
L 347 722 
Q 666 556 975 473 
Q 1284 391 1588 391 
Q 1994 391 2212 530 
Q 2431 669 2431 922 
Q 2431 1156 2273 1281 
Q 2116 1406 1581 1522 
L 1381 1569 
Q 847 1681 609 1914 
Q 372 2147 372 2553 
Q 372 3047 722 3315 
Q 1072 3584 1716 3584 
Q 2034 3584 2315 3537 
Q 2597 3491 2834 3397 
z
" transform="scale(0.015625)"/>
       <path id="DejaVuSans-70" d="M 1159 525 
L 1159 -1331 
L 581 -1331 
L 581 3500 
L 1159 3500 
L 1159 2969 
Q 1341 3281 1617 3432 
Q 1894 3584 2278 3584 
Q 2916 3584 3314 3078 
Q 3713 2572 3713 1747 
Q 3713 922 3314 415 
Q 2916 -91 2278 -91 
Q 1894 -91 1617 61 
Q 1341 213 1159 525 
z
M 3116 1747 
Q 3116 2381 2855 2742 
Q 2594 3103 2138 3103 
Q 1681 3103 1420 2742 
Q 1159 2381 1159 1747 
Q 1159 1113 1420 752 
Q 1681 391 2138 391 
Q 2594 391 2855 752 
Q 3116 1113 3116 1747 
z
" transform="scale(0.015625)"/>
       <path id="DejaVuSans-72" d="M 2631 2963 
Q 2534 3019 2420 3045 
Q 2306 3072 2169 3072 
Q 1681 3072 1420 2755 
Q 1159 2438 1159 1844 
L 1159 0 
L 581 0 
L 581 3500 
L 1159 3500 
L 1159 2956 
Q 1341 3275 1631 3429 
Q 1922 3584 2338 3584 
Q 2397 3584 2469 3576 
Q 2541 3569 2628 3553 
L 2631 2963 
z
" transform="scale(0.015625)"/>
       <path id="DejaVuSans-77" d="M 269 3500 
L 844 3500 
L 1563 769 
L 2278 3500 
L 2956 3500 
L 3675 769 
L 4391 3500 
L 4966 3500 
L 4050 0 
L 3372 0 
L 2619 2869 
L 1863 0 
L 1184 0 
L 269 3500 
z
" transform="scale(0.015625)"/>
       <path id="DejaVuSans-6b" d="M 581 4863 
L 1159 4863 
L 1159 1991 
L 2875 3500 
L 3609 3500 
L 1753 1863 
L 3688 0 
L 2938 0 
L 1159 1709 
L 1159 0 
L 581 0 
L 581 4863 
z
" transform="scale(0.015625)"/>
      </defs>
      <use xlink:href="#DejaVuSans-6d"/>
      <use xlink:href="#DejaVuSans-65" x="97.412109"/>
      <use xlink:href="#DejaVuSans-61" x="158.935547"/>
      <use xlink:href="#DejaVuSans-6e" x="220.214844"/>
      <use xlink:href="#DejaVuSans-20" x="283.59375"/>
      <use xlink:href="#DejaVuSans-64" x="315.380859"/>
      <use xlink:href="#DejaVuSans-65" x="378.857422"/>
      <use xlink:href="#DejaVuSans-61" x="440.380859"/>
      <use xlink:href="#DejaVuSans-74" x="501.660156"/>
      <use xlink:href="#DejaVuSans-68" x="540.869141"/>
      <use xlink:href="#DejaVuSans-73" x="604.248047"/>
      <use xlink:href="#DejaVuSans-20" x="656.347656"/>
      <use xlink:href="#DejaVuSans-70" x="688.134766"/>
      <use xlink:href="#DejaVuSans-65" x="751.611328"/>
      <use xlink:href="#DejaVuSans-72" x="813.134766"/>
      <use xlink:href="#DejaVuSans-20" x="854.248047"/>
      <use xlink:href="#DejaVuSans-77" x="886.035156"/>
      <use xlink:href="#DejaVuSans-65" x="967.822266"/>
      <use xlink:href="#DejaVuSans-65" x="1029.345703"/>
      <use xlink:href="#DejaVuSans-6b" x="1090.869141"/>
     </g>
    </g>
   </g>
   <g id="line2d_15">
    <path d="M 99.742551 98.712144 
L 122.949764 99.13114 
L 146.156977 93.905425 
L 169.364189 92.938942 
L 192.571402 95.419396 
L 215.778615 86.183951 
L 238.985828 84.744503 
L 262.193041 83.02271 
L 285.400254 79.489738 
L 308.607467 81.080804 
L 331.81468 62.575319 
L 355.021893 60.18465 
L 378.229105 63.135497 
" clip-path="url(#pedd372a524)" style="fill: none; stroke: #1f77b4; stroke-opacity: 0.7; stroke-width: 1.5; stroke-linecap: square"/>
   </g>
   <g id="line2d_16">
    <path d="M 99.742551 176.77719 
L 122.949764 177.65764 
L 146.156977 174.876626 
L 169.364189 174.169361 
L 192.571402 175.611824 
L 215.778615 171.083381 
L 238.985828 170.165997 
L 262.193041 169.397279 
L 285.400254 167.309005 
L 308.607467 167.393921 
L 331.81468 156.47269 
L 355.021893 154.987179 
L 378.229105 158.151121 
" clip-path="url(#pedd372a524)" style="fill: none; stroke: #ff7f0e; stroke-opacity: 0.7; stroke-width: 1.5; stroke-linecap: square"/>
   </g>
   <g id="line2d_17">
    <path d="M 99.742551 172.271031 
L 122.949764 171.809577 
L 146.156977 169.364877 
L 169.364189 169.105658 
L 192.571402 170.14365 
L 215.778615 165.436647 
L 238.985828 164.914584 
L 262.193041 163.961508 
L 285.400254 162.516811 
L 308.607467 164.022961 
L 331.81468 156.438706 
L 355.021893 155.533549 
L 378.229105 155.320453 
" clip-path="url(#pedd372a524)" style="fill: none; stroke: #2ca02c; stroke-opacity: 0.7; stroke-width: 1.5; stroke-linecap: square"/>
   </g>
   <g id="patch_3">
    <path d="M 53.328125 189.348437 
L 53.328125 20.798437 
" style="fill: none; stroke: #000000; stroke-width: 0.8; stroke-linejoin: miter; stroke-linecap: square"/>
   </g>
   <g id="patch_4">
    <path d="M 53.328125 189.348437 
L 424.643531 189.348437 
" style="fill: none; stroke: #000000; stroke-width: 0.8; stroke-linejoin: miter; stroke-linecap: square"/>
   </g>
   <g id="text_7">
    <!-- age = Totaal leeftijd -->
    <g transform="translate(188.845984 14.798437) scale(0.1 -0.1)">
     <defs>
      <path id="DejaVuSans-67" d="M 2906 1791 
Q 2906 2416 2648 2759 
Q 2391 3103 1925 3103 
Q 1463 3103 1205 2759 
Q 947 2416 947 1791 
Q 947 1169 1205 825 
Q 1463 481 1925 481 
Q 2391 481 2648 825 
Q 2906 1169 2906 1791 
z
M 3481 434 
Q 3481 -459 3084 -895 
Q 2688 -1331 1869 -1331 
Q 1566 -1331 1297 -1286 
Q 1028 -1241 775 -1147 
L 775 -588 
Q 1028 -725 1275 -790 
Q 1522 -856 1778 -856 
Q 2344 -856 2625 -561 
Q 2906 -266 2906 331 
L 2906 616 
Q 2728 306 2450 153 
Q 2172 0 1784 0 
Q 1141 0 747 490 
Q 353 981 353 1791 
Q 353 2603 747 3093 
Q 1141 3584 1784 3584 
Q 2172 3584 2450 3431 
Q 2728 3278 2906 2969 
L 2906 3500 
L 3481 3500 
L 3481 434 
z
" transform="scale(0.015625)"/>
      <path id="DejaVuSans-3d" d="M 678 2906 
L 4684 2906 
L 4684 2381 
L 678 2381 
L 678 2906 
z
M 678 1631 
L 4684 1631 
L 4684 1100 
L 678 1100 
L 678 1631 
z
" transform="scale(0.015625)"/>
      <path id="DejaVuSans-54" d="M -19 4666 
L 3928 4666 
L 3928 4134 
L 2272 4134 
L 2272 0 
L 1638 0 
L 1638 4134 
L -19 4134 
L -19 4666 
z
" transform="scale(0.015625)"/>
      <path id="DejaVuSans-6f" d="M 1959 3097 
Q 1497 3097 1228 2736 
Q 959 2375 959 1747 
Q 959 1119 1226 758 
Q 1494 397 1959 397 
Q 2419 397 2687 759 
Q 2956 1122 2956 1747 
Q 2956 2369 2687 2733 
Q 2419 3097 1959 3097 
z
M 1959 3584 
Q 2709 3584 3137 3096 
Q 3566 2609 3566 1747 
Q 3566 888 3137 398 
Q 2709 -91 1959 -91 
Q 1206 -91 779 398 
Q 353 888 353 1747 
Q 353 2609 779 3096 
Q 1206 3584 1959 3584 
z
" transform="scale(0.015625)"/>
      <path id="DejaVuSans-6c" d="M 603 4863 
L 1178 4863 
L 1178 0 
L 603 0 
L 603 4863 
z
" transform="scale(0.015625)"/>
      <path id="DejaVuSans-66" d="M 2375 4863 
L 2375 4384 
L 1825 4384 
Q 1516 4384 1395 4259 
Q 1275 4134 1275 3809 
L 1275 3500 
L 2222 3500 
L 2222 3053 
L 1275 3053 
L 1275 0 
L 697 0 
L 697 3053 
L 147 3053 
L 147 3500 
L 697 3500 
L 697 3744 
Q 697 4328 969 4595 
Q 1241 4863 1831 4863 
L 2375 4863 
z
" transform="scale(0.015625)"/>
      <path id="DejaVuSans-69" d="M 603 3500 
L 1178 3500 
L 1178 0 
L 603 0 
L 603 3500 
z
M 603 4863 
L 1178 4863 
L 1178 4134 
L 603 4134 
L 603 4863 
z
" transform="scale(0.015625)"/>
      <path id="DejaVuSans-6a" d="M 603 3500 
L 1178 3500 
L 1178 -63 
Q 1178 -731 923 -1031 
Q 669 -1331 103 -1331 
L -116 -1331 
L -116 -844 
L 38 -844 
Q 366 -844 484 -692 
Q 603 -541 603 -63 
L 603 3500 
z
M 603 4863 
L 1178 4863 
L 1178 4134 
L 603 4134 
L 603 4863 
z
" transform="scale(0.015625)"/>
     </defs>
     <use xlink:href="#DejaVuSans-61"/>
     <use xlink:href="#DejaVuSans-67" x="61.279297"/>
     <use xlink:href="#DejaVuSans-65" x="124.755859"/>
     <use xlink:href="#DejaVuSans-20" x="186.279297"/>
     <use xlink:href="#DejaVuSans-3d" x="218.066406"/>
     <use xlink:href="#DejaVuSans-20" x="301.855469"/>
     <use xlink:href="#DejaVuSans-54" x="333.642578"/>
     <use xlink:href="#DejaVuSans-6f" x="377.726562"/>
     <use xlink:href="#DejaVuSans-74" x="438.908203"/>
     <use xlink:href="#DejaVuSans-61" x="478.117188"/>
     <use xlink:href="#DejaVuSans-61" x="539.396484"/>
     <use xlink:href="#DejaVuSans-6c" x="600.675781"/>
     <use xlink:href="#DejaVuSans-20" x="628.458984"/>
     <use xlink:href="#DejaVuSans-6c" x="660.246094"/>
     <use xlink:href="#DejaVuSans-65" x="688.029297"/>
     <use xlink:href="#DejaVuSans-65" x="749.552734"/>
     <use xlink:href="#DejaVuSans-66" x="811.076172"/>
     <use xlink:href="#DejaVuSans-74" x="844.53125"/>
     <use xlink:href="#DejaVuSans-69" x="883.740234"/>
     <use xlink:href="#DejaVuSans-6a" x="911.523438"/>
     <use xlink:href="#DejaVuSans-64" x="939.306641"/>
    </g>
   </g>
  </g>
  <g id="axes_2">
   <g id="patch_5">
    <path d="M 467.143547 189.348437 
L 838.458953 189.348437 
L 838.458953 20.798437 
L 467.143547 20.798437 
z
" style="fill: #ffffff"/>
   </g>
   <g id="PolyCollection_4">
    <defs>
     <path id="m25bc0ee0d6" d="M 513.557973 -385.536761 
L 513.557973 -362.204542 
L 536.765186 -355.93234 
L 559.972398 -352.152242 
L 583.179611 -348.98033 
L 606.386824 -338.717019 
L 629.594037 -342.984981 
L 652.80125 -343.400367 
L 676.008463 -340.291308 
L 699.215676 -337.452144 
L 722.422889 -332.775103 
L 745.630102 -333.847959 
L 768.837314 -343.617011 
L 792.044527 -337.928543 
L 792.044527 -364.86125 
L 792.044527 -364.86125 
L 768.837314 -374.94584 
L 745.630102 -367.016018 
L 722.422889 -356.209352 
L 699.215676 -362.209051 
L 676.008463 -361.682601 
L 652.80125 -367.893954 
L 629.594037 -366.699397 
L 606.386824 -371.342695 
L 583.179611 -372.138679 
L 559.972398 -377.869846 
L 536.765186 -379.323786 
L 513.557973 -385.536761 
z
" style="stroke: #1f77b4; stroke-opacity: 0.2"/>
    </defs>
    <g clip-path="url(#p6e39459530)">
     <use xlink:href="#m25bc0ee0d6" x="0" y="413.996562" style="fill: #1f77b4; fill-opacity: 0.2; stroke: #1f77b4; stroke-opacity: 0.2"/>
    </g>
   </g>
   <g id="PolyCollection_5">
    <defs>
     <path id="m16f4ff9cc8" d="M 513.557973 -293.973185 
L 513.557973 -278.801735 
L 536.765186 -271.753345 
L 559.972398 -271.160605 
L 583.179611 -269.700772 
L 606.386824 -263.332322 
L 629.594037 -266.215548 
L 652.80125 -264.34514 
L 676.008463 -263.25492 
L 699.215676 -262.182577 
L 722.422889 -259.547927 
L 745.630102 -262.007246 
L 768.837314 -266.562341 
L 792.044527 -264.476204 
L 792.044527 -280.332868 
L 792.044527 -280.332868 
L 768.837314 -287.571756 
L 745.630102 -284.917705 
L 722.422889 -275.771458 
L 699.215676 -279.48373 
L 676.008463 -280.202436 
L 652.80125 -281.772707 
L 629.594037 -280.163459 
L 606.386824 -284.280964 
L 583.179611 -285.059323 
L 559.972398 -288.590082 
L 536.765186 -289.458004 
L 513.557973 -293.973185 
z
" style="stroke: #ff7f0e; stroke-opacity: 0.2"/>
    </defs>
    <g clip-path="url(#p6e39459530)">
     <use xlink:href="#m16f4ff9cc8" x="0" y="413.996562" style="fill: #ff7f0e; fill-opacity: 0.2; stroke: #ff7f0e; stroke-opacity: 0.2"/>
    </g>
   </g>
   <g id="PolyCollection_6">
    <defs>
     <path id="m72f938e87a" d="M 513.557973 -257.923527 
L 513.557973 -242.80948 
L 536.765186 -243.835727 
L 559.972398 -241.319997 
L 583.179611 -237.939343 
L 606.386824 -235.714032 
L 629.594037 -236.543587 
L 652.80125 -238.626246 
L 676.008463 -235.768803 
L 699.215676 -234.886946 
L 722.422889 -232.439329 
L 745.630102 -232.309489 
L 768.837314 -236.946733 
L 792.044527 -233.80704 
L 792.044527 -248.481743 
L 792.044527 -248.481743 
L 768.837314 -253.248644 
L 745.630102 -247.39616 
L 722.422889 -246.992364 
L 699.215676 -248.874564 
L 676.008463 -248.514372 
L 652.80125 -252.31685 
L 629.594037 -252.528406 
L 606.386824 -252.499019 
L 583.179611 -254.186193 
L 559.972398 -254.718026 
L 536.765186 -255.975672 
L 513.557973 -257.923527 
z
" style="stroke: #2ca02c; stroke-opacity: 0.2"/>
    </defs>
    <g clip-path="url(#p6e39459530)">
     <use xlink:href="#m72f938e87a" x="0" y="413.996562" style="fill: #2ca02c; fill-opacity: 0.2; stroke: #2ca02c; stroke-opacity: 0.2"/>
    </g>
   </g>
   <g id="matplotlib.axis_3">
    <g id="xtick_10">
     <g id="line2d_18">
      <g>
       <use xlink:href="#me66cf7ff4a" x="467.143547" y="189.348437" style="stroke: #000000; stroke-width: 0.8"/>
      </g>
     </g>
    </g>
    <g id="xtick_11">
     <g id="line2d_19">
      <g>
       <use xlink:href="#me66cf7ff4a" x="513.557973" y="189.348437" style="stroke: #000000; stroke-width: 0.8"/>
      </g>
     </g>
    </g>
    <g id="xtick_12">
     <g id="line2d_20">
      <g>
       <use xlink:href="#me66cf7ff4a" x="559.972398" y="189.348437" style="stroke: #000000; stroke-width: 0.8"/>
      </g>
     </g>
    </g>
    <g id="xtick_13">
     <g id="line2d_21">
      <g>
       <use xlink:href="#me66cf7ff4a" x="606.386824" y="189.348437" style="stroke: #000000; stroke-width: 0.8"/>
      </g>
     </g>
    </g>
    <g id="xtick_14">
     <g id="line2d_22">
      <g>
       <use xlink:href="#me66cf7ff4a" x="652.80125" y="189.348437" style="stroke: #000000; stroke-width: 0.8"/>
      </g>
     </g>
    </g>
    <g id="xtick_15">
     <g id="line2d_23">
      <g>
       <use xlink:href="#me66cf7ff4a" x="699.215676" y="189.348437" style="stroke: #000000; stroke-width: 0.8"/>
      </g>
     </g>
    </g>
    <g id="xtick_16">
     <g id="line2d_24">
      <g>
       <use xlink:href="#me66cf7ff4a" x="745.630102" y="189.348437" style="stroke: #000000; stroke-width: 0.8"/>
      </g>
     </g>
    </g>
    <g id="xtick_17">
     <g id="line2d_25">
      <g>
       <use xlink:href="#me66cf7ff4a" x="792.044527" y="189.348437" style="stroke: #000000; stroke-width: 0.8"/>
      </g>
     </g>
    </g>
    <g id="xtick_18">
     <g id="line2d_26">
      <g>
       <use xlink:href="#me66cf7ff4a" x="838.458953" y="189.348437" style="stroke: #000000; stroke-width: 0.8"/>
      </g>
     </g>
    </g>
   </g>
   <g id="matplotlib.axis_4">
    <g id="ytick_6">
     <g id="line2d_27">
      <g>
       <use xlink:href="#m60309a8984" x="467.143547" y="183.296823" style="stroke: #000000; stroke-width: 0.8"/>
      </g>
     </g>
     <g id="text_8">
      <!-- 150 -->
      <g transform="translate(441.056047 187.096042) scale(0.1 -0.1)">
       <use xlink:href="#DejaVuSans-31"/>
       <use xlink:href="#DejaVuSans-35" x="63.623047"/>
       <use xlink:href="#DejaVuSans-30" x="127.246094"/>
      </g>
     </g>
    </g>
    <g id="ytick_7">
     <g id="line2d_28">
      <g>
       <use xlink:href="#m60309a8984" x="467.143547" y="160.691347" style="stroke: #000000; stroke-width: 0.8"/>
      </g>
     </g>
     <g id="text_9">
      <!-- 200 -->
      <g transform="translate(441.056047 164.490566) scale(0.1 -0.1)">
       <use xlink:href="#DejaVuSans-32"/>
       <use xlink:href="#DejaVuSans-30" x="63.623047"/>
       <use xlink:href="#DejaVuSans-30" x="127.246094"/>
      </g>
     </g>
    </g>
    <g id="ytick_8">
     <g id="line2d_29">
      <g>
       <use xlink:href="#m60309a8984" x="467.143547" y="138.085871" style="stroke: #000000; stroke-width: 0.8"/>
      </g>
     </g>
     <g id="text_10">
      <!-- 250 -->
      <g transform="translate(441.056047 141.88509) scale(0.1 -0.1)">
       <use xlink:href="#DejaVuSans-32"/>
       <use xlink:href="#DejaVuSans-35" x="63.623047"/>
       <use xlink:href="#DejaVuSans-30" x="127.246094"/>
      </g>
     </g>
    </g>
    <g id="ytick_9">
     <g id="line2d_30">
      <g>
       <use xlink:href="#m60309a8984" x="467.143547" y="115.480395" style="stroke: #000000; stroke-width: 0.8"/>
      </g>
     </g>
     <g id="text_11">
      <!-- 300 -->
      <g transform="translate(441.056047 119.279614) scale(0.1 -0.1)">
       <use xlink:href="#DejaVuSans-33"/>
       <use xlink:href="#DejaVuSans-30" x="63.623047"/>
       <use xlink:href="#DejaVuSans-30" x="127.246094"/>
      </g>
     </g>
    </g>
    <g id="ytick_10">
     <g id="line2d_31">
      <g>
       <use xlink:href="#m60309a8984" x="467.143547" y="92.874919" style="stroke: #000000; stroke-width: 0.8"/>
      </g>
     </g>
     <g id="text_12">
      <!-- 350 -->
      <g transform="translate(441.056047 96.674138) scale(0.1 -0.1)">
       <use xlink:href="#DejaVuSans-33"/>
       <use xlink:href="#DejaVuSans-35" x="63.623047"/>
       <use xlink:href="#DejaVuSans-30" x="127.246094"/>
      </g>
     </g>
    </g>
    <g id="ytick_11">
     <g id="line2d_32">
      <g>
       <use xlink:href="#m60309a8984" x="467.143547" y="70.269443" style="stroke: #000000; stroke-width: 0.8"/>
      </g>
     </g>
     <g id="text_13">
      <!-- 400 -->
      <g transform="translate(441.056047 74.068662) scale(0.1 -0.1)">
       <defs>
        <path id="DejaVuSans-34" d="M 2419 4116 
L 825 1625 
L 2419 1625 
L 2419 4116 
z
M 2253 4666 
L 3047 4666 
L 3047 1625 
L 3713 1625 
L 3713 1100 
L 3047 1100 
L 3047 0 
L 2419 0 
L 2419 1100 
L 313 1100 
L 313 1709 
L 2253 4666 
z
" transform="scale(0.015625)"/>
       </defs>
       <use xlink:href="#DejaVuSans-34"/>
       <use xlink:href="#DejaVuSans-30" x="63.623047"/>
       <use xlink:href="#DejaVuSans-30" x="127.246094"/>
      </g>
     </g>
    </g>
    <g id="ytick_12">
     <g id="line2d_33">
      <g>
       <use xlink:href="#m60309a8984" x="467.143547" y="47.663967" style="stroke: #000000; stroke-width: 0.8"/>
      </g>
     </g>
     <g id="text_14">
      <!-- 450 -->
      <g transform="translate(441.056047 51.463186) scale(0.1 -0.1)">
       <use xlink:href="#DejaVuSans-34"/>
       <use xlink:href="#DejaVuSans-35" x="63.623047"/>
       <use xlink:href="#DejaVuSans-30" x="127.246094"/>
      </g>
     </g>
    </g>
    <g id="ytick_13">
     <g id="line2d_34">
      <g>
       <use xlink:href="#m60309a8984" x="467.143547" y="25.058491" style="stroke: #000000; stroke-width: 0.8"/>
      </g>
     </g>
     <g id="text_15">
      <!-- 500 -->
      <g transform="translate(441.056047 28.85771) scale(0.1 -0.1)">
       <use xlink:href="#DejaVuSans-35"/>
       <use xlink:href="#DejaVuSans-30" x="63.623047"/>
       <use xlink:href="#DejaVuSans-30" x="127.246094"/>
      </g>
     </g>
    </g>
    <g id="text_16">
     <!-- mean deaths per week -->
     <g transform="translate(434.976359 162.5125) rotate(-90) scale(0.1 -0.1)">
      <use xlink:href="#DejaVuSans-6d"/>
      <use xlink:href="#DejaVuSans-65" x="97.412109"/>
      <use xlink:href="#DejaVuSans-61" x="158.935547"/>
      <use xlink:href="#DejaVuSans-6e" x="220.214844"/>
      <use xlink:href="#DejaVuSans-20" x="283.59375"/>
      <use xlink:href="#DejaVuSans-64" x="315.380859"/>
      <use xlink:href="#DejaVuSans-65" x="378.857422"/>
      <use xlink:href="#DejaVuSans-61" x="440.380859"/>
      <use xlink:href="#DejaVuSans-74" x="501.660156"/>
      <use xlink:href="#DejaVuSans-68" x="540.869141"/>
      <use xlink:href="#DejaVuSans-73" x="604.248047"/>
      <use xlink:href="#DejaVuSans-20" x="656.347656"/>
      <use xlink:href="#DejaVuSans-70" x="688.134766"/>
      <use xlink:href="#DejaVuSans-65" x="751.611328"/>
      <use xlink:href="#DejaVuSans-72" x="813.134766"/>
      <use xlink:href="#DejaVuSans-20" x="854.248047"/>
      <use xlink:href="#DejaVuSans-77" x="886.035156"/>
      <use xlink:href="#DejaVuSans-65" x="967.822266"/>
      <use xlink:href="#DejaVuSans-65" x="1029.345703"/>
      <use xlink:href="#DejaVuSans-6b" x="1090.869141"/>
     </g>
    </g>
   </g>
   <g id="line2d_35">
    <path d="M 513.557973 40.125911 
L 536.765186 46.3685 
L 559.972398 48.985518 
L 583.179611 53.437058 
L 606.386824 58.966705 
L 629.594037 59.154374 
L 652.80125 58.349402 
L 676.008463 63.009608 
L 699.215676 64.165965 
L 722.422889 69.504335 
L 745.630102 63.564574 
L 768.837314 54.715137 
L 792.044527 62.601666 
" clip-path="url(#p6e39459530)" style="fill: none; stroke: #1f77b4; stroke-opacity: 0.7; stroke-width: 1.5; stroke-linecap: square"/>
   </g>
   <g id="line2d_36">
    <path d="M 513.557973 127.609103 
L 536.765186 133.390888 
L 559.972398 134.121219 
L 583.179611 136.616515 
L 606.386824 140.18992 
L 629.594037 140.807059 
L 652.80125 140.937639 
L 676.008463 142.267884 
L 699.215676 143.163409 
L 722.422889 146.33687 
L 745.630102 140.534087 
L 768.837314 136.929514 
L 792.044527 141.592027 
" clip-path="url(#p6e39459530)" style="fill: none; stroke: #ff7f0e; stroke-opacity: 0.7; stroke-width: 1.5; stroke-linecap: square"/>
   </g>
   <g id="line2d_37">
    <path d="M 513.557973 163.630059 
L 536.765186 164.090863 
L 559.972398 165.977551 
L 583.179611 167.933794 
L 606.386824 169.890037 
L 629.594037 169.460566 
L 652.80125 168.525014 
L 676.008463 171.854975 
L 699.215676 172.115807 
L 722.422889 174.280716 
L 745.630102 174.143738 
L 768.837314 168.898874 
L 792.044527 172.852171 
" clip-path="url(#p6e39459530)" style="fill: none; stroke: #2ca02c; stroke-opacity: 0.7; stroke-width: 1.5; stroke-linecap: square"/>
   </g>
   <g id="patch_6">
    <path d="M 467.143547 189.348437 
L 467.143547 20.798437 
" style="fill: none; stroke: #000000; stroke-width: 0.8; stroke-linejoin: miter; stroke-linecap: square"/>
   </g>
   <g id="patch_7">
    <path d="M 467.143547 189.348437 
L 838.458953 189.348437 
" style="fill: none; stroke: #000000; stroke-width: 0.8; stroke-linejoin: miter; stroke-linecap: square"/>
   </g>
   <g id="text_17">
    <!-- age = 0 tot 65 jaar -->
    <g transform="translate(605.255156 14.798437) scale(0.1 -0.1)">
     <defs>
      <path id="DejaVuSans-36" d="M 2113 2584 
Q 1688 2584 1439 2293 
Q 1191 2003 1191 1497 
Q 1191 994 1439 701 
Q 1688 409 2113 409 
Q 2538 409 2786 701 
Q 3034 994 3034 1497 
Q 3034 2003 2786 2293 
Q 2538 2584 2113 2584 
z
M 3366 4563 
L 3366 3988 
Q 3128 4100 2886 4159 
Q 2644 4219 2406 4219 
Q 1781 4219 1451 3797 
Q 1122 3375 1075 2522 
Q 1259 2794 1537 2939 
Q 1816 3084 2150 3084 
Q 2853 3084 3261 2657 
Q 3669 2231 3669 1497 
Q 3669 778 3244 343 
Q 2819 -91 2113 -91 
Q 1303 -91 875 529 
Q 447 1150 447 2328 
Q 447 3434 972 4092 
Q 1497 4750 2381 4750 
Q 2619 4750 2861 4703 
Q 3103 4656 3366 4563 
z
" transform="scale(0.015625)"/>
     </defs>
     <use xlink:href="#DejaVuSans-61"/>
     <use xlink:href="#DejaVuSans-67" x="61.279297"/>
     <use xlink:href="#DejaVuSans-65" x="124.755859"/>
     <use xlink:href="#DejaVuSans-20" x="186.279297"/>
     <use xlink:href="#DejaVuSans-3d" x="218.066406"/>
     <use xlink:href="#DejaVuSans-20" x="301.855469"/>
     <use xlink:href="#DejaVuSans-30" x="333.642578"/>
     <use xlink:href="#DejaVuSans-20" x="397.265625"/>
     <use xlink:href="#DejaVuSans-74" x="429.052734"/>
     <use xlink:href="#DejaVuSans-6f" x="468.261719"/>
     <use xlink:href="#DejaVuSans-74" x="529.443359"/>
     <use xlink:href="#DejaVuSans-20" x="568.652344"/>
     <use xlink:href="#DejaVuSans-36" x="600.439453"/>
     <use xlink:href="#DejaVuSans-35" x="664.0625"/>
     <use xlink:href="#DejaVuSans-20" x="727.685547"/>
     <use xlink:href="#DejaVuSans-6a" x="759.472656"/>
     <use xlink:href="#DejaVuSans-61" x="787.255859"/>
     <use xlink:href="#DejaVuSans-61" x="848.535156"/>
     <use xlink:href="#DejaVuSans-72" x="909.814453"/>
    </g>
   </g>
  </g>
  <g id="axes_3">
   <g id="patch_8">
    <path d="M 53.328125 386.118437 
L 424.643531 386.118437 
L 424.643531 217.568437 
L 53.328125 217.568437 
z
" style="fill: #ffffff"/>
   </g>
   <g id="PolyCollection_7">
    <defs>
     <path id="ma6191a6d0e" d="M 99.742551 -128.601071 
L 99.742551 -115.123854 
L 122.949764 -114.247434 
L 146.156977 -115.775602 
L 169.364189 -116.629589 
L 192.571402 -116.420399 
L 215.778615 -123.791072 
L 238.985828 -123.793411 
L 262.193041 -123.901424 
L 285.400254 -125.387787 
L 308.607467 -130.544373 
L 331.81468 -128.255449 
L 355.021893 -145.064887 
L 378.229105 -150.242383 
L 378.229105 -174.693177 
L 378.229105 -174.693177 
L 355.021893 -187.652372 
L 331.81468 -188.766761 
L 308.607467 -150.652809 
L 285.400254 -155.911983 
L 262.193041 -146.893257 
L 238.985828 -145.701812 
L 215.778615 -142.193292 
L 192.571402 -133.008462 
L 169.364189 -135.028868 
L 146.156977 -133.584866 
L 122.949764 -127.275253 
L 99.742551 -128.601071 
z
" style="stroke: #1f77b4; stroke-opacity: 0.2"/>
    </defs>
    <g clip-path="url(#pcdf8198fb5)">
     <use xlink:href="#ma6191a6d0e" x="0" y="413.996562" style="fill: #1f77b4; fill-opacity: 0.2; stroke: #1f77b4; stroke-opacity: 0.2"/>
    </g>
   </g>
   <g id="PolyCollection_8">
    <defs>
     <path id="m9f220521b8" d="M 99.742551 -70.989823 
L 99.742551 -61.460489 
L 122.949764 -60.321511 
L 146.156977 -61.525999 
L 169.364189 -61.598951 
L 192.571402 -61.056558 
L 215.778615 -66.180087 
L 238.985828 -64.982644 
L 262.193041 -65.738331 
L 285.400254 -66.174907 
L 308.607467 -67.714892 
L 331.81468 -66.567483 
L 355.021893 -76.41589 
L 378.229105 -78.398306 
L 378.229105 -92.683306 
L 378.229105 -92.683306 
L 355.021893 -103.854465 
L 331.81468 -106.252346 
L 308.607467 -80.835017 
L 285.400254 -83.694977 
L 262.193041 -78.386582 
L 238.985828 -78.998645 
L 215.778615 -77.249029 
L 192.571402 -71.181737 
L 169.364189 -74.558235 
L 146.156977 -72.23061 
L 122.949764 -68.237267 
L 99.742551 -70.989823 
z
" style="stroke: #ff7f0e; stroke-opacity: 0.2"/>
    </defs>
    <g clip-path="url(#pcdf8198fb5)">
     <use xlink:href="#m9f220521b8" x="0" y="413.996562" style="fill: #ff7f0e; fill-opacity: 0.2; stroke: #ff7f0e; stroke-opacity: 0.2"/>
    </g>
   </g>
   <g id="PolyCollection_9">
    <defs>
     <path id="mb768fc9ff1" d="M 99.742551 -43.571505 
L 99.742551 -35.539489 
L 122.949764 -36.542028 
L 146.156977 -37.168768 
L 169.364189 -37.701283 
L 192.571402 -38.237871 
L 215.778615 -40.398291 
L 238.985828 -41.70842 
L 262.193041 -40.967479 
L 285.400254 -42.150123 
L 308.607467 -45.359869 
L 331.81468 -45.075853 
L 355.021893 -51.594071 
L 378.229105 -54.736918 
L 378.229105 -65.096093 
L 378.229105 -65.096093 
L 355.021893 -68.689214 
L 331.81468 -66.962908 
L 308.607467 -55.123784 
L 285.400254 -57.116143 
L 262.193041 -53.538669 
L 238.985828 -51.641894 
L 215.778615 -49.993337 
L 192.571402 -46.789074 
L 169.364189 -45.636368 
L 146.156977 -46.271472 
L 122.949764 -44.258261 
L 99.742551 -43.571505 
z
" style="stroke: #2ca02c; stroke-opacity: 0.2"/>
    </defs>
    <g clip-path="url(#pcdf8198fb5)">
     <use xlink:href="#mb768fc9ff1" x="0" y="413.996562" style="fill: #2ca02c; fill-opacity: 0.2; stroke: #2ca02c; stroke-opacity: 0.2"/>
    </g>
   </g>
   <g id="matplotlib.axis_5">
    <g id="xtick_19">
     <g id="line2d_38">
      <g>
       <use xlink:href="#me66cf7ff4a" x="53.328125" y="386.118437" style="stroke: #000000; stroke-width: 0.8"/>
      </g>
     </g>
    </g>
    <g id="xtick_20">
     <g id="line2d_39">
      <g>
       <use xlink:href="#me66cf7ff4a" x="99.742551" y="386.118437" style="stroke: #000000; stroke-width: 0.8"/>
      </g>
     </g>
    </g>
    <g id="xtick_21">
     <g id="line2d_40">
      <g>
       <use xlink:href="#me66cf7ff4a" x="146.156977" y="386.118437" style="stroke: #000000; stroke-width: 0.8"/>
      </g>
     </g>
    </g>
    <g id="xtick_22">
     <g id="line2d_41">
      <g>
       <use xlink:href="#me66cf7ff4a" x="192.571402" y="386.118437" style="stroke: #000000; stroke-width: 0.8"/>
      </g>
     </g>
    </g>
    <g id="xtick_23">
     <g id="line2d_42">
      <g>
       <use xlink:href="#me66cf7ff4a" x="238.985828" y="386.118437" style="stroke: #000000; stroke-width: 0.8"/>
      </g>
     </g>
    </g>
    <g id="xtick_24">
     <g id="line2d_43">
      <g>
       <use xlink:href="#me66cf7ff4a" x="285.400254" y="386.118437" style="stroke: #000000; stroke-width: 0.8"/>
      </g>
     </g>
    </g>
    <g id="xtick_25">
     <g id="line2d_44">
      <g>
       <use xlink:href="#me66cf7ff4a" x="331.81468" y="386.118437" style="stroke: #000000; stroke-width: 0.8"/>
      </g>
     </g>
    </g>
    <g id="xtick_26">
     <g id="line2d_45">
      <g>
       <use xlink:href="#me66cf7ff4a" x="378.229105" y="386.118437" style="stroke: #000000; stroke-width: 0.8"/>
      </g>
     </g>
    </g>
    <g id="xtick_27">
     <g id="line2d_46">
      <g>
       <use xlink:href="#me66cf7ff4a" x="424.643531" y="386.118437" style="stroke: #000000; stroke-width: 0.8"/>
      </g>
     </g>
    </g>
    <g id="text_18">
     <!-- year -->
     <g transform="translate(227.830359 404.716875) scale(0.1 -0.1)">
      <defs>
       <path id="DejaVuSans-79" d="M 2059 -325 
Q 1816 -950 1584 -1140 
Q 1353 -1331 966 -1331 
L 506 -1331 
L 506 -850 
L 844 -850 
Q 1081 -850 1212 -737 
Q 1344 -625 1503 -206 
L 1606 56 
L 191 3500 
L 800 3500 
L 1894 763 
L 2988 3500 
L 3597 3500 
L 2059 -325 
z
" transform="scale(0.015625)"/>
      </defs>
      <use xlink:href="#DejaVuSans-79"/>
      <use xlink:href="#DejaVuSans-65" x="59.179688"/>
      <use xlink:href="#DejaVuSans-61" x="120.703125"/>
      <use xlink:href="#DejaVuSans-72" x="181.982422"/>
     </g>
    </g>
   </g>
   <g id="matplotlib.axis_6">
    <g id="ytick_14">
     <g id="line2d_47">
      <g>
       <use xlink:href="#m60309a8984" x="53.328125" y="358.950162" style="stroke: #000000; stroke-width: 0.8"/>
      </g>
     </g>
     <g id="text_19">
      <!-- 400 -->
      <g transform="translate(27.240625 362.749381) scale(0.1 -0.1)">
       <use xlink:href="#DejaVuSans-34"/>
       <use xlink:href="#DejaVuSans-30" x="63.623047"/>
       <use xlink:href="#DejaVuSans-30" x="127.246094"/>
      </g>
     </g>
    </g>
    <g id="ytick_15">
     <g id="line2d_48">
      <g>
       <use xlink:href="#m60309a8984" x="53.328125" y="323.386057" style="stroke: #000000; stroke-width: 0.8"/>
      </g>
     </g>
     <g id="text_20">
      <!-- 600 -->
      <g transform="translate(27.240625 327.185276) scale(0.1 -0.1)">
       <use xlink:href="#DejaVuSans-36"/>
       <use xlink:href="#DejaVuSans-30" x="63.623047"/>
       <use xlink:href="#DejaVuSans-30" x="127.246094"/>
      </g>
     </g>
    </g>
    <g id="ytick_16">
     <g id="line2d_49">
      <g>
       <use xlink:href="#m60309a8984" x="53.328125" y="287.821952" style="stroke: #000000; stroke-width: 0.8"/>
      </g>
     </g>
     <g id="text_21">
      <!-- 800 -->
      <g transform="translate(27.240625 291.621171) scale(0.1 -0.1)">
       <defs>
        <path id="DejaVuSans-38" d="M 2034 2216 
Q 1584 2216 1326 1975 
Q 1069 1734 1069 1313 
Q 1069 891 1326 650 
Q 1584 409 2034 409 
Q 2484 409 2743 651 
Q 3003 894 3003 1313 
Q 3003 1734 2745 1975 
Q 2488 2216 2034 2216 
z
M 1403 2484 
Q 997 2584 770 2862 
Q 544 3141 544 3541 
Q 544 4100 942 4425 
Q 1341 4750 2034 4750 
Q 2731 4750 3128 4425 
Q 3525 4100 3525 3541 
Q 3525 3141 3298 2862 
Q 3072 2584 2669 2484 
Q 3125 2378 3379 2068 
Q 3634 1759 3634 1313 
Q 3634 634 3220 271 
Q 2806 -91 2034 -91 
Q 1263 -91 848 271 
Q 434 634 434 1313 
Q 434 1759 690 2068 
Q 947 2378 1403 2484 
z
M 1172 3481 
Q 1172 3119 1398 2916 
Q 1625 2713 2034 2713 
Q 2441 2713 2670 2916 
Q 2900 3119 2900 3481 
Q 2900 3844 2670 4047 
Q 2441 4250 2034 4250 
Q 1625 4250 1398 4047 
Q 1172 3844 1172 3481 
z
" transform="scale(0.015625)"/>
       </defs>
       <use xlink:href="#DejaVuSans-38"/>
       <use xlink:href="#DejaVuSans-30" x="63.623047"/>
       <use xlink:href="#DejaVuSans-30" x="127.246094"/>
      </g>
     </g>
    </g>
    <g id="ytick_17">
     <g id="line2d_50">
      <g>
       <use xlink:href="#m60309a8984" x="53.328125" y="252.257847" style="stroke: #000000; stroke-width: 0.8"/>
      </g>
     </g>
     <g id="text_22">
      <!-- 1000 -->
      <g transform="translate(20.878125 256.057066) scale(0.1 -0.1)">
       <use xlink:href="#DejaVuSans-31"/>
       <use xlink:href="#DejaVuSans-30" x="63.623047"/>
       <use xlink:href="#DejaVuSans-30" x="127.246094"/>
       <use xlink:href="#DejaVuSans-30" x="190.869141"/>
      </g>
     </g>
    </g>
    <g id="text_23">
     <!-- mean deaths per week -->
     <g transform="translate(14.798438 359.2825) rotate(-90) scale(0.1 -0.1)">
      <use xlink:href="#DejaVuSans-6d"/>
      <use xlink:href="#DejaVuSans-65" x="97.412109"/>
      <use xlink:href="#DejaVuSans-61" x="158.935547"/>
      <use xlink:href="#DejaVuSans-6e" x="220.214844"/>
      <use xlink:href="#DejaVuSans-20" x="283.59375"/>
      <use xlink:href="#DejaVuSans-64" x="315.380859"/>
      <use xlink:href="#DejaVuSans-65" x="378.857422"/>
      <use xlink:href="#DejaVuSans-61" x="440.380859"/>
      <use xlink:href="#DejaVuSans-74" x="501.660156"/>
      <use xlink:href="#DejaVuSans-68" x="540.869141"/>
      <use xlink:href="#DejaVuSans-73" x="604.248047"/>
      <use xlink:href="#DejaVuSans-20" x="656.347656"/>
      <use xlink:href="#DejaVuSans-70" x="688.134766"/>
      <use xlink:href="#DejaVuSans-65" x="751.611328"/>
      <use xlink:href="#DejaVuSans-72" x="813.134766"/>
      <use xlink:href="#DejaVuSans-20" x="854.248047"/>
      <use xlink:href="#DejaVuSans-77" x="886.035156"/>
      <use xlink:href="#DejaVuSans-65" x="967.822266"/>
      <use xlink:href="#DejaVuSans-65" x="1029.345703"/>
      <use xlink:href="#DejaVuSans-6b" x="1090.869141"/>
     </g>
    </g>
   </g>
   <g id="line2d_51">
    <path d="M 99.742551 292.1341 
L 122.949764 293.235219 
L 146.156977 289.316328 
L 169.364189 288.167334 
L 192.571402 289.282132 
L 215.778615 281.00438 
L 238.985828 279.248951 
L 262.193041 278.599222 
L 285.400254 273.346677 
L 308.607467 273.397972 
L 331.81468 255.485457 
L 355.021893 247.637933 
L 378.229105 251.528783 
" clip-path="url(#pcdf8198fb5)" style="fill: none; stroke: #1f77b4; stroke-opacity: 0.7; stroke-width: 1.5; stroke-linecap: square"/>
   </g>
   <g id="line2d_52">
    <path d="M 99.742551 347.771406 
L 122.949764 349.717173 
L 146.156977 347.118258 
L 169.364189 345.917969 
L 192.571402 347.877415 
L 215.778615 342.282004 
L 238.985828 342.005918 
L 262.193041 341.934106 
L 285.400254 339.06162 
L 308.607467 339.721608 
L 331.81468 327.586648 
L 355.021893 323.861385 
L 378.229105 328.455757 
" clip-path="url(#pcdf8198fb5)" style="fill: none; stroke: #ff7f0e; stroke-opacity: 0.7; stroke-width: 1.5; stroke-linecap: square"/>
   </g>
   <g id="line2d_53">
    <path d="M 99.742551 374.441066 
L 122.949764 373.596418 
L 146.156977 372.276443 
L 169.364189 372.327737 
L 192.571402 371.48309 
L 215.778615 368.800748 
L 238.985828 367.321405 
L 262.193041 366.743489 
L 285.400254 364.363429 
L 308.607467 363.754736 
L 331.81468 357.977182 
L 355.021893 353.85492 
L 378.229105 354.080057 
" clip-path="url(#pcdf8198fb5)" style="fill: none; stroke: #2ca02c; stroke-opacity: 0.7; stroke-width: 1.5; stroke-linecap: square"/>
   </g>
   <g id="patch_9">
    <path d="M 53.328125 386.118437 
L 53.328125 217.568437 
" style="fill: none; stroke: #000000; stroke-width: 0.8; stroke-linejoin: miter; stroke-linecap: square"/>
   </g>
   <g id="patch_10">
    <path d="M 53.328125 386.118437 
L 424.643531 386.118437 
" style="fill: none; stroke: #000000; stroke-width: 0.8; stroke-linejoin: miter; stroke-linecap: square"/>
   </g>
   <g id="text_24">
    <!-- age = 65 tot 80 jaar -->
    <g transform="translate(188.258484 211.568437) scale(0.1 -0.1)">
     <use xlink:href="#DejaVuSans-61"/>
     <use xlink:href="#DejaVuSans-67" x="61.279297"/>
     <use xlink:href="#DejaVuSans-65" x="124.755859"/>
     <use xlink:href="#DejaVuSans-20" x="186.279297"/>
     <use xlink:href="#DejaVuSans-3d" x="218.066406"/>
     <use xlink:href="#DejaVuSans-20" x="301.855469"/>
     <use xlink:href="#DejaVuSans-36" x="333.642578"/>
     <use xlink:href="#DejaVuSans-35" x="397.265625"/>
     <use xlink:href="#DejaVuSans-20" x="460.888672"/>
     <use xlink:href="#DejaVuSans-74" x="492.675781"/>
     <use xlink:href="#DejaVuSans-6f" x="531.884766"/>
     <use xlink:href="#DejaVuSans-74" x="593.066406"/>
     <use xlink:href="#DejaVuSans-20" x="632.275391"/>
     <use xlink:href="#DejaVuSans-38" x="664.0625"/>
     <use xlink:href="#DejaVuSans-30" x="727.685547"/>
     <use xlink:href="#DejaVuSans-20" x="791.308594"/>
     <use xlink:href="#DejaVuSans-6a" x="823.095703"/>
     <use xlink:href="#DejaVuSans-61" x="850.878906"/>
     <use xlink:href="#DejaVuSans-61" x="912.158203"/>
     <use xlink:href="#DejaVuSans-72" x="973.4375"/>
    </g>
   </g>
  </g>
  <g id="axes_4">
   <g id="patch_11">
    <path d="M 467.143547 386.118437 
L 838.458953 386.118437 
L 838.458953 217.568437 
L 467.143547 217.568437 
z
" style="fill: #ffffff"/>
   </g>
   <g id="PolyCollection_10">
    <defs>
     <path id="mbaf7ebce50" d="M 513.557973 -124.811389 
L 513.557973 -102.277037 
L 536.765186 -105.578215 
L 559.972398 -108.525801 
L 583.179611 -104.730133 
L 606.386824 -111.488658 
L 629.594037 -111.047156 
L 652.80125 -117.923326 
L 676.008463 -112.829833 
L 699.215676 -111.983746 
L 722.422889 -123.328014 
L 745.630102 -119.987148 
L 768.837314 -123.940141 
L 792.044527 -137.35709 
L 792.044527 -165.456319 
L 792.044527 -165.456319 
L 768.837314 -180.874928 
L 745.630102 -188.766761 
L 722.422889 -149.695286 
L 699.215676 -163.709016 
L 676.008463 -156.956536 
L 652.80125 -145.526851 
L 629.594037 -150.111726 
L 606.386824 -129.971206 
L 583.179611 -140.953859 
L 559.972398 -133.662707 
L 536.765186 -123.743156 
L 513.557973 -124.811389 
z
" style="stroke: #1f77b4; stroke-opacity: 0.2"/>
    </defs>
    <g clip-path="url(#pf0a495ce54)">
     <use xlink:href="#mbaf7ebce50" x="0" y="413.996562" style="fill: #1f77b4; fill-opacity: 0.2; stroke: #1f77b4; stroke-opacity: 0.2"/>
    </g>
   </g>
   <g id="PolyCollection_11">
    <defs>
     <path id="mc3aa65c8e3" d="M 513.557973 -45.363214 
L 513.557973 -35.539489 
L 536.765186 -37.101935 
L 559.972398 -38.710395 
L 583.179611 -37.642259 
L 606.386824 -40.427209 
L 629.594037 -41.313198 
L 652.80125 -44.356868 
L 676.008463 -42.532672 
L 699.215676 -43.381503 
L 722.422889 -48.195322 
L 745.630102 -46.756532 
L 768.837314 -49.582504 
L 792.044527 -54.453429 
L 792.044527 -67.428496 
L 792.044527 -67.428496 
L 768.837314 -76.926008 
L 745.630102 -80.337696 
L 722.422889 -60.234727 
L 699.215676 -63.43008 
L 676.008463 -60.477868 
L 652.80125 -55.900266 
L 629.594037 -56.407647 
L 606.386824 -48.940539 
L 583.179611 -52.756338 
L 559.972398 -49.777606 
L 536.765186 -45.298352 
L 513.557973 -45.363214 
z
" style="stroke: #ff7f0e; stroke-opacity: 0.2"/>
    </defs>
    <g clip-path="url(#pf0a495ce54)">
     <use xlink:href="#mc3aa65c8e3" x="0" y="413.996562" style="fill: #ff7f0e; fill-opacity: 0.2; stroke: #ff7f0e; stroke-opacity: 0.2"/>
    </g>
   </g>
   <g id="PolyCollection_12">
    <defs>
     <path id="mbbe0dd6da2" d="M 513.557973 -74.06072 
L 513.557973 -60.483036 
L 536.765186 -61.96715 
L 559.972398 -63.535385 
L 583.179611 -60.998986 
L 606.386824 -64.765972 
L 629.594037 -63.572445 
L 652.80125 -67.339926 
L 676.008463 -64.258482 
L 699.215676 -62.396359 
L 722.422889 -68.861535 
L 745.630102 -67.028258 
L 768.837314 -68.289141 
L 792.044527 -76.665639 
L 792.044527 -91.073589 
L 792.044527 -91.073589 
L 768.837314 -98.37545 
L 745.630102 -102.989456 
L 722.422889 -84.08975 
L 699.215676 -94.842852 
L 676.008463 -90.875381 
L 652.80125 -84.211151 
L 629.594037 -88.223625 
L 606.386824 -75.684177 
L 583.179611 -82.644442 
L 559.972398 -78.523156 
L 536.765186 -73.311968 
L 513.557973 -74.06072 
z
" style="stroke: #2ca02c; stroke-opacity: 0.2"/>
    </defs>
    <g clip-path="url(#pf0a495ce54)">
     <use xlink:href="#mbbe0dd6da2" x="0" y="413.996562" style="fill: #2ca02c; fill-opacity: 0.2; stroke: #2ca02c; stroke-opacity: 0.2"/>
    </g>
   </g>
   <g id="matplotlib.axis_7">
    <g id="xtick_28">
     <g id="line2d_54">
      <g>
       <use xlink:href="#me66cf7ff4a" x="467.143547" y="386.118437" style="stroke: #000000; stroke-width: 0.8"/>
      </g>
     </g>
    </g>
    <g id="xtick_29">
     <g id="line2d_55">
      <g>
       <use xlink:href="#me66cf7ff4a" x="513.557973" y="386.118437" style="stroke: #000000; stroke-width: 0.8"/>
      </g>
     </g>
    </g>
    <g id="xtick_30">
     <g id="line2d_56">
      <g>
       <use xlink:href="#me66cf7ff4a" x="559.972398" y="386.118437" style="stroke: #000000; stroke-width: 0.8"/>
      </g>
     </g>
    </g>
    <g id="xtick_31">
     <g id="line2d_57">
      <g>
       <use xlink:href="#me66cf7ff4a" x="606.386824" y="386.118437" style="stroke: #000000; stroke-width: 0.8"/>
      </g>
     </g>
    </g>
    <g id="xtick_32">
     <g id="line2d_58">
      <g>
       <use xlink:href="#me66cf7ff4a" x="652.80125" y="386.118437" style="stroke: #000000; stroke-width: 0.8"/>
      </g>
     </g>
    </g>
    <g id="xtick_33">
     <g id="line2d_59">
      <g>
       <use xlink:href="#me66cf7ff4a" x="699.215676" y="386.118437" style="stroke: #000000; stroke-width: 0.8"/>
      </g>
     </g>
    </g>
    <g id="xtick_34">
     <g id="line2d_60">
      <g>
       <use xlink:href="#me66cf7ff4a" x="745.630102" y="386.118437" style="stroke: #000000; stroke-width: 0.8"/>
      </g>
     </g>
    </g>
    <g id="xtick_35">
     <g id="line2d_61">
      <g>
       <use xlink:href="#me66cf7ff4a" x="792.044527" y="386.118437" style="stroke: #000000; stroke-width: 0.8"/>
      </g>
     </g>
    </g>
    <g id="xtick_36">
     <g id="line2d_62">
      <g>
       <use xlink:href="#me66cf7ff4a" x="838.458953" y="386.118437" style="stroke: #000000; stroke-width: 0.8"/>
      </g>
     </g>
    </g>
    <g id="text_25">
     <!-- year -->
     <g transform="translate(641.645781 404.716875) scale(0.1 -0.1)">
      <use xlink:href="#DejaVuSans-79"/>
      <use xlink:href="#DejaVuSans-65" x="59.179688"/>
      <use xlink:href="#DejaVuSans-61" x="120.703125"/>
      <use xlink:href="#DejaVuSans-72" x="181.982422"/>
     </g>
    </g>
   </g>
   <g id="matplotlib.axis_8">
    <g id="ytick_18">
     <g id="line2d_63">
      <g>
       <use xlink:href="#m60309a8984" x="467.143547" y="376.165984" style="stroke: #000000; stroke-width: 0.8"/>
      </g>
     </g>
     <g id="text_26">
      <!-- 500 -->
      <g transform="translate(441.056047 379.965203) scale(0.1 -0.1)">
       <use xlink:href="#DejaVuSans-35"/>
       <use xlink:href="#DejaVuSans-30" x="63.623047"/>
       <use xlink:href="#DejaVuSans-30" x="127.246094"/>
      </g>
     </g>
    </g>
    <g id="ytick_19">
     <g id="line2d_64">
      <g>
       <use xlink:href="#m60309a8984" x="467.143547" y="354.340203" style="stroke: #000000; stroke-width: 0.8"/>
      </g>
     </g>
     <g id="text_27">
      <!-- 750 -->
      <g transform="translate(441.056047 358.139422) scale(0.1 -0.1)">
       <defs>
        <path id="DejaVuSans-37" d="M 525 4666 
L 3525 4666 
L 3525 4397 
L 1831 0 
L 1172 0 
L 2766 4134 
L 525 4134 
L 525 4666 
z
" transform="scale(0.015625)"/>
       </defs>
       <use xlink:href="#DejaVuSans-37"/>
       <use xlink:href="#DejaVuSans-35" x="63.623047"/>
       <use xlink:href="#DejaVuSans-30" x="127.246094"/>
      </g>
     </g>
    </g>
    <g id="ytick_20">
     <g id="line2d_65">
      <g>
       <use xlink:href="#m60309a8984" x="467.143547" y="332.514422" style="stroke: #000000; stroke-width: 0.8"/>
      </g>
     </g>
     <g id="text_28">
      <!-- 1000 -->
      <g transform="translate(434.693547 336.313641) scale(0.1 -0.1)">
       <use xlink:href="#DejaVuSans-31"/>
       <use xlink:href="#DejaVuSans-30" x="63.623047"/>
       <use xlink:href="#DejaVuSans-30" x="127.246094"/>
       <use xlink:href="#DejaVuSans-30" x="190.869141"/>
      </g>
     </g>
    </g>
    <g id="ytick_21">
     <g id="line2d_66">
      <g>
       <use xlink:href="#m60309a8984" x="467.143547" y="310.688641" style="stroke: #000000; stroke-width: 0.8"/>
      </g>
     </g>
     <g id="text_29">
      <!-- 1250 -->
      <g transform="translate(434.693547 314.48786) scale(0.1 -0.1)">
       <use xlink:href="#DejaVuSans-31"/>
       <use xlink:href="#DejaVuSans-32" x="63.623047"/>
       <use xlink:href="#DejaVuSans-35" x="127.246094"/>
       <use xlink:href="#DejaVuSans-30" x="190.869141"/>
      </g>
     </g>
    </g>
    <g id="ytick_22">
     <g id="line2d_67">
      <g>
       <use xlink:href="#m60309a8984" x="467.143547" y="288.86286" style="stroke: #000000; stroke-width: 0.8"/>
      </g>
     </g>
     <g id="text_30">
      <!-- 1500 -->
      <g transform="translate(434.693547 292.662079) scale(0.1 -0.1)">
       <use xlink:href="#DejaVuSans-31"/>
       <use xlink:href="#DejaVuSans-35" x="63.623047"/>
       <use xlink:href="#DejaVuSans-30" x="127.246094"/>
       <use xlink:href="#DejaVuSans-30" x="190.869141"/>
      </g>
     </g>
    </g>
    <g id="ytick_23">
     <g id="line2d_68">
      <g>
       <use xlink:href="#m60309a8984" x="467.143547" y="267.037079" style="stroke: #000000; stroke-width: 0.8"/>
      </g>
     </g>
     <g id="text_31">
      <!-- 1750 -->
      <g transform="translate(434.693547 270.836298) scale(0.1 -0.1)">
       <use xlink:href="#DejaVuSans-31"/>
       <use xlink:href="#DejaVuSans-37" x="63.623047"/>
       <use xlink:href="#DejaVuSans-35" x="127.246094"/>
       <use xlink:href="#DejaVuSans-30" x="190.869141"/>
      </g>
     </g>
    </g>
    <g id="ytick_24">
     <g id="line2d_69">
      <g>
       <use xlink:href="#m60309a8984" x="467.143547" y="245.211298" style="stroke: #000000; stroke-width: 0.8"/>
      </g>
     </g>
     <g id="text_32">
      <!-- 2000 -->
      <g transform="translate(434.693547 249.010517) scale(0.1 -0.1)">
       <use xlink:href="#DejaVuSans-32"/>
       <use xlink:href="#DejaVuSans-30" x="63.623047"/>
       <use xlink:href="#DejaVuSans-30" x="127.246094"/>
       <use xlink:href="#DejaVuSans-30" x="190.869141"/>
      </g>
     </g>
    </g>
    <g id="ytick_25">
     <g id="line2d_70">
      <g>
       <use xlink:href="#m60309a8984" x="467.143547" y="223.385517" style="stroke: #000000; stroke-width: 0.8"/>
      </g>
     </g>
     <g id="text_33">
      <!-- 2250 -->
      <g transform="translate(434.693547 227.184736) scale(0.1 -0.1)">
       <use xlink:href="#DejaVuSans-32"/>
       <use xlink:href="#DejaVuSans-32" x="63.623047"/>
       <use xlink:href="#DejaVuSans-35" x="127.246094"/>
       <use xlink:href="#DejaVuSans-30" x="190.869141"/>
      </g>
     </g>
    </g>
    <g id="text_34">
     <!-- mean deaths per week -->
     <g transform="translate(428.613859 359.2825) rotate(-90) scale(0.1 -0.1)">
      <use xlink:href="#DejaVuSans-6d"/>
      <use xlink:href="#DejaVuSans-65" x="97.412109"/>
      <use xlink:href="#DejaVuSans-61" x="158.935547"/>
      <use xlink:href="#DejaVuSans-6e" x="220.214844"/>
      <use xlink:href="#DejaVuSans-20" x="283.59375"/>
      <use xlink:href="#DejaVuSans-64" x="315.380859"/>
      <use xlink:href="#DejaVuSans-65" x="378.857422"/>
      <use xlink:href="#DejaVuSans-61" x="440.380859"/>
      <use xlink:href="#DejaVuSans-74" x="501.660156"/>
      <use xlink:href="#DejaVuSans-68" x="540.869141"/>
      <use xlink:href="#DejaVuSans-73" x="604.248047"/>
      <use xlink:href="#DejaVuSans-20" x="656.347656"/>
      <use xlink:href="#DejaVuSans-70" x="688.134766"/>
      <use xlink:href="#DejaVuSans-65" x="751.611328"/>
      <use xlink:href="#DejaVuSans-72" x="813.134766"/>
      <use xlink:href="#DejaVuSans-20" x="854.248047"/>
      <use xlink:href="#DejaVuSans-77" x="886.035156"/>
      <use xlink:href="#DejaVuSans-65" x="967.822266"/>
      <use xlink:href="#DejaVuSans-65" x="1029.345703"/>
      <use xlink:href="#DejaVuSans-6b" x="1090.869141"/>
     </g>
    </g>
   </g>
   <g id="line2d_71">
    <path d="M 513.557973 300.45235 
L 536.765186 299.335877 
L 559.972398 292.902308 
L 583.179611 291.154567 
L 606.386824 293.266631 
L 629.594037 283.417122 
L 652.80125 282.271474 
L 676.008463 279.103378 
L 699.215676 276.150182 
L 722.422889 277.484912 
L 745.630102 259.619608 
L 768.837314 261.589028 
L 792.044527 262.589858 
" clip-path="url(#pf0a495ce54)" style="fill: none; stroke: #1f77b4; stroke-opacity: 0.7; stroke-width: 1.5; stroke-linecap: square"/>
   </g>
   <g id="line2d_72">
    <path d="M 513.557973 373.545211 
L 536.765186 372.796419 
L 559.972398 369.752562 
L 583.179611 368.797264 
L 606.386824 369.312689 
L 629.594037 365.13614 
L 652.80125 363.867996 
L 676.008463 362.491293 
L 699.215676 360.590771 
L 722.422889 359.781538 
L 745.630102 350.449449 
L 768.837314 350.742307 
L 792.044527 353.0556 
" clip-path="url(#pf0a495ce54)" style="fill: none; stroke: #ff7f0e; stroke-opacity: 0.7; stroke-width: 1.5; stroke-linecap: square"/>
   </g>
   <g id="line2d_73">
    <path d="M 513.557973 346.724684 
L 536.765186 346.357004 
L 559.972398 342.967292 
L 583.179611 342.174848 
L 606.386824 343.771488 
L 629.594037 338.098527 
L 652.80125 338.221024 
L 676.008463 336.429631 
L 699.215676 335.376957 
L 722.422889 337.52092 
L 745.630102 328.987705 
L 768.837314 330.664267 
L 792.044527 330.126949 
" clip-path="url(#pf0a495ce54)" style="fill: none; stroke: #2ca02c; stroke-opacity: 0.7; stroke-width: 1.5; stroke-linecap: square"/>
   </g>
   <g id="patch_12">
    <path d="M 467.143547 386.118437 
L 467.143547 217.568437 
" style="fill: none; stroke: #000000; stroke-width: 0.8; stroke-linejoin: miter; stroke-linecap: square"/>
   </g>
   <g id="patch_13">
    <path d="M 467.143547 386.118437 
L 838.458953 386.118437 
" style="fill: none; stroke: #000000; stroke-width: 0.8; stroke-linejoin: miter; stroke-linecap: square"/>
   </g>
   <g id="text_35">
    <!-- age = 80 jaar of ouder -->
    <g transform="translate(596.062187 211.568437) scale(0.1 -0.1)">
     <defs>
      <path id="DejaVuSans-75" d="M 544 1381 
L 544 3500 
L 1119 3500 
L 1119 1403 
Q 1119 906 1312 657 
Q 1506 409 1894 409 
Q 2359 409 2629 706 
Q 2900 1003 2900 1516 
L 2900 3500 
L 3475 3500 
L 3475 0 
L 2900 0 
L 2900 538 
Q 2691 219 2414 64 
Q 2138 -91 1772 -91 
Q 1169 -91 856 284 
Q 544 659 544 1381 
z
M 1991 3584 
L 1991 3584 
z
" transform="scale(0.015625)"/>
     </defs>
     <use xlink:href="#DejaVuSans-61"/>
     <use xlink:href="#DejaVuSans-67" x="61.279297"/>
     <use xlink:href="#DejaVuSans-65" x="124.755859"/>
     <use xlink:href="#DejaVuSans-20" x="186.279297"/>
     <use xlink:href="#DejaVuSans-3d" x="218.066406"/>
     <use xlink:href="#DejaVuSans-20" x="301.855469"/>
     <use xlink:href="#DejaVuSans-38" x="333.642578"/>
     <use xlink:href="#DejaVuSans-30" x="397.265625"/>
     <use xlink:href="#DejaVuSans-20" x="460.888672"/>
     <use xlink:href="#DejaVuSans-6a" x="492.675781"/>
     <use xlink:href="#DejaVuSans-61" x="520.458984"/>
     <use xlink:href="#DejaVuSans-61" x="581.738281"/>
     <use xlink:href="#DejaVuSans-72" x="643.017578"/>
     <use xlink:href="#DejaVuSans-20" x="684.130859"/>
     <use xlink:href="#DejaVuSans-6f" x="715.917969"/>
     <use xlink:href="#DejaVuSans-66" x="777.099609"/>
     <use xlink:href="#DejaVuSans-20" x="812.304688"/>
     <use xlink:href="#DejaVuSans-6f" x="844.091797"/>
     <use xlink:href="#DejaVuSans-75" x="905.273438"/>
     <use xlink:href="#DejaVuSans-64" x="968.652344"/>
     <use xlink:href="#DejaVuSans-65" x="1032.128906"/>
     <use xlink:href="#DejaVuSans-72" x="1093.652344"/>
    </g>
   </g>
  </g>
  <g id="legend_1">
   <g id="line2d_74">
    <path d="M 849.993141 191.579531 
L 859.993141 191.579531 
L 869.993141 191.579531 
" style="fill: none; stroke: #1f77b4; stroke-opacity: 0.7; stroke-width: 1.5; stroke-linecap: square"/>
   </g>
   <g id="text_36">
    <!-- Totaal mannen en vrouwen -->
    <g transform="translate(877.993141 195.079531) scale(0.1 -0.1)">
     <defs>
      <path id="DejaVuSans-76" d="M 191 3500 
L 800 3500 
L 1894 563 
L 2988 3500 
L 3597 3500 
L 2284 0 
L 1503 0 
L 191 3500 
z
" transform="scale(0.015625)"/>
     </defs>
     <use xlink:href="#DejaVuSans-54"/>
     <use xlink:href="#DejaVuSans-6f" x="44.083984"/>
     <use xlink:href="#DejaVuSans-74" x="105.265625"/>
     <use xlink:href="#DejaVuSans-61" x="144.474609"/>
     <use xlink:href="#DejaVuSans-61" x="205.753906"/>
     <use xlink:href="#DejaVuSans-6c" x="267.033203"/>
     <use xlink:href="#DejaVuSans-20" x="294.816406"/>
     <use xlink:href="#DejaVuSans-6d" x="326.603516"/>
     <use xlink:href="#DejaVuSans-61" x="424.015625"/>
     <use xlink:href="#DejaVuSans-6e" x="485.294922"/>
     <use xlink:href="#DejaVuSans-6e" x="548.673828"/>
     <use xlink:href="#DejaVuSans-65" x="612.052734"/>
     <use xlink:href="#DejaVuSans-6e" x="673.576172"/>
     <use xlink:href="#DejaVuSans-20" x="736.955078"/>
     <use xlink:href="#DejaVuSans-65" x="768.742188"/>
     <use xlink:href="#DejaVuSans-6e" x="830.265625"/>
     <use xlink:href="#DejaVuSans-20" x="893.644531"/>
     <use xlink:href="#DejaVuSans-76" x="925.431641"/>
     <use xlink:href="#DejaVuSans-72" x="984.611328"/>
     <use xlink:href="#DejaVuSans-6f" x="1023.474609"/>
     <use xlink:href="#DejaVuSans-75" x="1084.65625"/>
     <use xlink:href="#DejaVuSans-77" x="1148.035156"/>
     <use xlink:href="#DejaVuSans-65" x="1229.822266"/>
     <use xlink:href="#DejaVuSans-6e" x="1291.345703"/>
    </g>
   </g>
   <g id="line2d_75">
    <path d="M 849.993141 206.257656 
L 859.993141 206.257656 
L 869.993141 206.257656 
" style="fill: none; stroke: #ff7f0e; stroke-opacity: 0.7; stroke-width: 1.5; stroke-linecap: square"/>
   </g>
   <g id="text_37">
    <!-- Mannen -->
    <g transform="translate(877.993141 209.757656) scale(0.1 -0.1)">
     <defs>
      <path id="DejaVuSans-4d" d="M 628 4666 
L 1569 4666 
L 2759 1491 
L 3956 4666 
L 4897 4666 
L 4897 0 
L 4281 0 
L 4281 4097 
L 3078 897 
L 2444 897 
L 1241 4097 
L 1241 0 
L 628 0 
L 628 4666 
z
" transform="scale(0.015625)"/>
     </defs>
     <use xlink:href="#DejaVuSans-4d"/>
     <use xlink:href="#DejaVuSans-61" x="86.279297"/>
     <use xlink:href="#DejaVuSans-6e" x="147.558594"/>
     <use xlink:href="#DejaVuSans-6e" x="210.9375"/>
     <use xlink:href="#DejaVuSans-65" x="274.316406"/>
     <use xlink:href="#DejaVuSans-6e" x="335.839844"/>
    </g>
   </g>
   <g id="line2d_76">
    <path d="M 849.993141 220.935781 
L 859.993141 220.935781 
L 869.993141 220.935781 
" style="fill: none; stroke: #2ca02c; stroke-opacity: 0.7; stroke-width: 1.5; stroke-linecap: square"/>
   </g>
   <g id="text_38">
    <!-- Vrouwen -->
    <g transform="translate(877.993141 224.435781) scale(0.1 -0.1)">
     <defs>
      <path id="DejaVuSans-56" d="M 1831 0 
L 50 4666 
L 709 4666 
L 2188 738 
L 3669 4666 
L 4325 4666 
L 2547 0 
L 1831 0 
z
" transform="scale(0.015625)"/>
     </defs>
     <use xlink:href="#DejaVuSans-56"/>
     <use xlink:href="#DejaVuSans-72" x="68.408203"/>
     <use xlink:href="#DejaVuSans-6f" x="107.271484"/>
     <use xlink:href="#DejaVuSans-75" x="168.453125"/>
     <use xlink:href="#DejaVuSans-77" x="231.832031"/>
     <use xlink:href="#DejaVuSans-65" x="313.619141"/>
     <use xlink:href="#DejaVuSans-6e" x="375.142578"/>
    </g>
   </g>
  </g>
 </g>
 <defs>
  <clipPath id="pedd372a524">
   <rect x="53.328125" y="20.798437" width="371.315406" height="168.55"/>
  </clipPath>
  <clipPath id="p6e39459530">
   <rect x="467.143547" y="20.798437" width="371.315406" height="168.55"/>
  </clipPath>
  <clipPath id="pcdf8198fb5">
   <rect x="53.328125" y="217.568437" width="371.315406" height="168.55"/>
  </clipPath>
  <clipPath id="pf0a495ce54">
   <rect x="467.143547" y="217.568437" width="371.315406" height="168.55"/>
  </clipPath>
 </defs>
</svg>
