<?xml version="1.0" encoding="utf-8" standalone="no"?>
<!DOCTYPE svg PUBLIC "-//W3C//DTD SVG 1.1//EN"
  "http://www.w3.org/Graphics/SVG/1.1/DTD/svg11.dtd">
<svg height="439.526562pt" version="1.1" viewBox="0 0 1021.77079 439.526562" width="1021.77079pt" xmlns="http://www.w3.org/2000/svg" xmlns:xlink="http://www.w3.org/1999/xlink">
 <metadata>
  <rdf:RDF xmlns:cc="http://creativecommons.org/ns#" xmlns:dc="http://purl.org/dc/elements/1.1/" xmlns:rdf="http://www.w3.org/1999/02/22-rdf-syntax-ns#">
   <cc:Work>
    <dc:type rdf:resource="http://purl.org/dc/dcmitype/StillImage"/>
    <dc:date>2021-12-29T10:06:38.622915</dc:date>
    <dc:format>image/svg+xml</dc:format>
    <dc:creator>
     <cc:Agent>
      <dc:title>Matplotlib v3.4.2, https://matplotlib.org/</dc:title>
     </cc:Agent>
    </dc:creator>
   </cc:Work>
  </rdf:RDF>
 </metadata>
 <defs>
  <style type="text/css">*{stroke-linecap:butt;stroke-linejoin:round;}</style>
 </defs>
 <g id="figure_1">
  <g id="patch_1">
   <path d="M 0 439.526562 
L 1021.77079 439.526562 
L 1021.77079 0 
L 0 0 
z
" style="fill:#ffffff;"/>
  </g>
  <g id="axes_1">
   <g id="patch_2">
    <path d="M 53.328125 189.348437 
L 424.483569 189.348437 
L 424.483569 20.798437 
L 53.328125 20.798437 
z
" style="fill:#ffffff;"/>
   </g>
   <g id="PolyCollection_1">
    <defs>
     <path d="M 70.198827 -350.696224 
L 70.198827 -330.95355 
L 100.872831 -332.24343 
L 131.546834 -334.640846 
L 162.220838 -331.022149 
L 192.894841 -335.297326 
L 223.568845 -337.159122 
L 254.242849 -341.50968 
L 284.916852 -338.002454 
L 315.590856 -337.313899 
L 346.26486 -346.387189 
L 376.938863 -342.850433 
L 407.612867 -351.820317 
L 407.612867 -404.489834 
L 407.612867 -404.489834 
L 376.938863 -411.066761 
L 346.26486 -370.529714 
L 315.590856 -382.785538 
L 284.916852 -375.030148 
L 254.242849 -368.078901 
L 223.568845 -369.5502 
L 192.894841 -352.938775 
L 162.220838 -362.175487 
L 131.546834 -356.623579 
L 100.872831 -348.568247 
L 70.198827 -350.696224 
z
" id="m92a24137fd" style="stroke:#1f77b4;stroke-opacity:0.2;"/>
    </defs>
    <g clip-path="url(#pce6a1ed9d0)">
     <use style="fill:#1f77b4;fill-opacity:0.2;stroke:#1f77b4;stroke-opacity:0.2;" x="0" xlink:href="#m92a24137fd" y="439.526562"/>
    </g>
   </g>
   <g id="PolyCollection_2">
    <defs>
     <path d="M 70.198827 -267.374296 
L 70.198827 -258.125687 
L 100.872831 -257.839489 
L 131.546834 -259.551345 
L 162.220838 -258.188384 
L 192.894841 -259.204546 
L 223.568845 -261.556423 
L 254.242849 -263.078257 
L 284.916852 -262.139844 
L 315.590856 -262.422362 
L 346.26486 -266.238361 
L 376.938863 -264.428225 
L 407.612867 -270.203846 
L 407.612867 -297.636269 
L 407.612867 -297.636269 
L 376.938863 -301.679305 
L 346.26486 -278.030528 
L 315.590856 -282.016382 
L 284.916852 -278.121824 
L 254.242849 -275.645781 
L 223.568845 -275.332616 
L 192.894841 -268.626465 
L 162.220838 -272.527916 
L 131.546834 -269.750247 
L 100.872831 -265.899373 
L 70.198827 -267.374296 
z
" id="mbf83203279" style="stroke:#ff7f0e;stroke-opacity:0.2;"/>
    </defs>
    <g clip-path="url(#pce6a1ed9d0)">
     <use style="fill:#ff7f0e;fill-opacity:0.2;stroke:#ff7f0e;stroke-opacity:0.2;" x="0" xlink:href="#mbf83203279" y="439.526562"/>
    </g>
   </g>
   <g id="PolyCollection_3">
    <defs>
     <path d="M 70.198827 -272.969524 
L 70.198827 -261.543914 
L 100.872831 -262.97255 
L 131.546834 -263.887474 
L 162.220838 -261.656494 
L 192.894841 -264.779286 
L 223.568845 -264.482143 
L 254.242849 -267.224328 
L 284.916852 -264.806941 
L 315.590856 -263.853796 
L 346.26486 -268.925811 
L 376.938863 -267.315887 
L 407.612867 -270.51756 
L 407.612867 -296.316123 
L 407.612867 -296.316123 
L 376.938863 -298.857425 
L 346.26486 -282.08585 
L 315.590856 -290.170544 
L 284.916852 -286.327641 
L 254.242849 -282.003862 
L 223.568845 -283.701789 
L 192.894841 -273.989451 
L 162.220838 -279.188489 
L 131.546834 -276.439007 
L 100.872831 -272.463913 
L 70.198827 -272.969524 
z
" id="m28b304baa5" style="stroke:#2ca02c;stroke-opacity:0.2;"/>
    </defs>
    <g clip-path="url(#pce6a1ed9d0)">
     <use style="fill:#2ca02c;fill-opacity:0.2;stroke:#2ca02c;stroke-opacity:0.2;" x="0" xlink:href="#m28b304baa5" y="439.526562"/>
    </g>
   </g>
   <g id="matplotlib.axis_1">
    <g id="xtick_1">
     <g id="line2d_1">
      <defs>
       <path d="M 0 0 
L 0 3.5 
" id="me9dab9734e" style="stroke:#000000;stroke-width:0.8;"/>
      </defs>
      <g>
       <use style="stroke:#000000;stroke-width:0.8;" x="70.198827" xlink:href="#me9dab9734e" y="189.348437"/>
      </g>
     </g>
    </g>
    <g id="xtick_2">
     <g id="line2d_2">
      <g>
       <use style="stroke:#000000;stroke-width:0.8;" x="100.872831" xlink:href="#me9dab9734e" y="189.348437"/>
      </g>
     </g>
    </g>
    <g id="xtick_3">
     <g id="line2d_3">
      <g>
       <use style="stroke:#000000;stroke-width:0.8;" x="131.546834" xlink:href="#me9dab9734e" y="189.348437"/>
      </g>
     </g>
    </g>
    <g id="xtick_4">
     <g id="line2d_4">
      <g>
       <use style="stroke:#000000;stroke-width:0.8;" x="162.220838" xlink:href="#me9dab9734e" y="189.348437"/>
      </g>
     </g>
    </g>
    <g id="xtick_5">
     <g id="line2d_5">
      <g>
       <use style="stroke:#000000;stroke-width:0.8;" x="192.894841" xlink:href="#me9dab9734e" y="189.348437"/>
      </g>
     </g>
    </g>
    <g id="xtick_6">
     <g id="line2d_6">
      <g>
       <use style="stroke:#000000;stroke-width:0.8;" x="223.568845" xlink:href="#me9dab9734e" y="189.348437"/>
      </g>
     </g>
    </g>
    <g id="xtick_7">
     <g id="line2d_7">
      <g>
       <use style="stroke:#000000;stroke-width:0.8;" x="254.242849" xlink:href="#me9dab9734e" y="189.348437"/>
      </g>
     </g>
    </g>
    <g id="xtick_8">
     <g id="line2d_8">
      <g>
       <use style="stroke:#000000;stroke-width:0.8;" x="284.916852" xlink:href="#me9dab9734e" y="189.348437"/>
      </g>
     </g>
    </g>
    <g id="xtick_9">
     <g id="line2d_9">
      <g>
       <use style="stroke:#000000;stroke-width:0.8;" x="315.590856" xlink:href="#me9dab9734e" y="189.348437"/>
      </g>
     </g>
    </g>
    <g id="xtick_10">
     <g id="line2d_10">
      <g>
       <use style="stroke:#000000;stroke-width:0.8;" x="346.26486" xlink:href="#me9dab9734e" y="189.348437"/>
      </g>
     </g>
    </g>
    <g id="xtick_11">
     <g id="line2d_11">
      <g>
       <use style="stroke:#000000;stroke-width:0.8;" x="376.938863" xlink:href="#me9dab9734e" y="189.348437"/>
      </g>
     </g>
    </g>
    <g id="xtick_12">
     <g id="line2d_12">
      <g>
       <use style="stroke:#000000;stroke-width:0.8;" x="407.612867" xlink:href="#me9dab9734e" y="189.348437"/>
      </g>
     </g>
    </g>
   </g>
   <g id="matplotlib.axis_2">
    <g id="ytick_1">
     <g id="line2d_13">
      <defs>
       <path d="M 0 0 
L -3.5 0 
" id="mecc5da60bb" style="stroke:#000000;stroke-width:0.8;"/>
      </defs>
      <g>
       <use style="stroke:#000000;stroke-width:0.8;" x="53.328125" xlink:href="#mecc5da60bb" y="163.182635"/>
      </g>
     </g>
     <g id="text_1">
      <!-- 1500 -->
      <g transform="translate(20.878125 166.981854)scale(0.1 -0.1)">
       <defs>
        <path d="M 794 531 
L 1825 531 
L 1825 4091 
L 703 3866 
L 703 4441 
L 1819 4666 
L 2450 4666 
L 2450 531 
L 3481 531 
L 3481 0 
L 794 0 
L 794 531 
z
" id="DejaVuSans-31" transform="scale(0.015625)"/>
        <path d="M 691 4666 
L 3169 4666 
L 3169 4134 
L 1269 4134 
L 1269 2991 
Q 1406 3038 1543 3061 
Q 1681 3084 1819 3084 
Q 2600 3084 3056 2656 
Q 3513 2228 3513 1497 
Q 3513 744 3044 326 
Q 2575 -91 1722 -91 
Q 1428 -91 1123 -41 
Q 819 9 494 109 
L 494 744 
Q 775 591 1075 516 
Q 1375 441 1709 441 
Q 2250 441 2565 725 
Q 2881 1009 2881 1497 
Q 2881 1984 2565 2268 
Q 2250 2553 1709 2553 
Q 1456 2553 1204 2497 
Q 953 2441 691 2322 
L 691 4666 
z
" id="DejaVuSans-35" transform="scale(0.015625)"/>
        <path d="M 2034 4250 
Q 1547 4250 1301 3770 
Q 1056 3291 1056 2328 
Q 1056 1369 1301 889 
Q 1547 409 2034 409 
Q 2525 409 2770 889 
Q 3016 1369 3016 2328 
Q 3016 3291 2770 3770 
Q 2525 4250 2034 4250 
z
M 2034 4750 
Q 2819 4750 3233 4129 
Q 3647 3509 3647 2328 
Q 3647 1150 3233 529 
Q 2819 -91 2034 -91 
Q 1250 -91 836 529 
Q 422 1150 422 2328 
Q 422 3509 836 4129 
Q 1250 4750 2034 4750 
z
" id="DejaVuSans-30" transform="scale(0.015625)"/>
       </defs>
       <use xlink:href="#DejaVuSans-31"/>
       <use x="63.623047" xlink:href="#DejaVuSans-35"/>
       <use x="127.246094" xlink:href="#DejaVuSans-30"/>
       <use x="190.869141" xlink:href="#DejaVuSans-30"/>
      </g>
     </g>
    </g>
    <g id="ytick_2">
     <g id="line2d_14">
      <g>
       <use style="stroke:#000000;stroke-width:0.8;" x="53.328125" xlink:href="#mecc5da60bb" y="134.128601"/>
      </g>
     </g>
     <g id="text_2">
      <!-- 2000 -->
      <g transform="translate(20.878125 137.927819)scale(0.1 -0.1)">
       <defs>
        <path d="M 1228 531 
L 3431 531 
L 3431 0 
L 469 0 
L 469 531 
Q 828 903 1448 1529 
Q 2069 2156 2228 2338 
Q 2531 2678 2651 2914 
Q 2772 3150 2772 3378 
Q 2772 3750 2511 3984 
Q 2250 4219 1831 4219 
Q 1534 4219 1204 4116 
Q 875 4013 500 3803 
L 500 4441 
Q 881 4594 1212 4672 
Q 1544 4750 1819 4750 
Q 2544 4750 2975 4387 
Q 3406 4025 3406 3419 
Q 3406 3131 3298 2873 
Q 3191 2616 2906 2266 
Q 2828 2175 2409 1742 
Q 1991 1309 1228 531 
z
" id="DejaVuSans-32" transform="scale(0.015625)"/>
       </defs>
       <use xlink:href="#DejaVuSans-32"/>
       <use x="63.623047" xlink:href="#DejaVuSans-30"/>
       <use x="127.246094" xlink:href="#DejaVuSans-30"/>
       <use x="190.869141" xlink:href="#DejaVuSans-30"/>
      </g>
     </g>
    </g>
    <g id="ytick_3">
     <g id="line2d_15">
      <g>
       <use style="stroke:#000000;stroke-width:0.8;" x="53.328125" xlink:href="#mecc5da60bb" y="105.074566"/>
      </g>
     </g>
     <g id="text_3">
      <!-- 2500 -->
      <g transform="translate(20.878125 108.873785)scale(0.1 -0.1)">
       <use xlink:href="#DejaVuSans-32"/>
       <use x="63.623047" xlink:href="#DejaVuSans-35"/>
       <use x="127.246094" xlink:href="#DejaVuSans-30"/>
       <use x="190.869141" xlink:href="#DejaVuSans-30"/>
      </g>
     </g>
    </g>
    <g id="ytick_4">
     <g id="line2d_16">
      <g>
       <use style="stroke:#000000;stroke-width:0.8;" x="53.328125" xlink:href="#mecc5da60bb" y="76.020531"/>
      </g>
     </g>
     <g id="text_4">
      <!-- 3000 -->
      <g transform="translate(20.878125 79.81975)scale(0.1 -0.1)">
       <defs>
        <path d="M 2597 2516 
Q 3050 2419 3304 2112 
Q 3559 1806 3559 1356 
Q 3559 666 3084 287 
Q 2609 -91 1734 -91 
Q 1441 -91 1130 -33 
Q 819 25 488 141 
L 488 750 
Q 750 597 1062 519 
Q 1375 441 1716 441 
Q 2309 441 2620 675 
Q 2931 909 2931 1356 
Q 2931 1769 2642 2001 
Q 2353 2234 1838 2234 
L 1294 2234 
L 1294 2753 
L 1863 2753 
Q 2328 2753 2575 2939 
Q 2822 3125 2822 3475 
Q 2822 3834 2567 4026 
Q 2313 4219 1838 4219 
Q 1578 4219 1281 4162 
Q 984 4106 628 3988 
L 628 4550 
Q 988 4650 1302 4700 
Q 1616 4750 1894 4750 
Q 2613 4750 3031 4423 
Q 3450 4097 3450 3541 
Q 3450 3153 3228 2886 
Q 3006 2619 2597 2516 
z
" id="DejaVuSans-33" transform="scale(0.015625)"/>
       </defs>
       <use xlink:href="#DejaVuSans-33"/>
       <use x="63.623047" xlink:href="#DejaVuSans-30"/>
       <use x="127.246094" xlink:href="#DejaVuSans-30"/>
       <use x="190.869141" xlink:href="#DejaVuSans-30"/>
      </g>
     </g>
    </g>
    <g id="ytick_5">
     <g id="line2d_17">
      <g>
       <use style="stroke:#000000;stroke-width:0.8;" x="53.328125" xlink:href="#mecc5da60bb" y="46.966497"/>
      </g>
     </g>
     <g id="text_5">
      <!-- 3500 -->
      <g transform="translate(20.878125 50.765716)scale(0.1 -0.1)">
       <use xlink:href="#DejaVuSans-33"/>
       <use x="63.623047" xlink:href="#DejaVuSans-35"/>
       <use x="127.246094" xlink:href="#DejaVuSans-30"/>
       <use x="190.869141" xlink:href="#DejaVuSans-30"/>
      </g>
     </g>
    </g>
    <g id="text_6">
     <!-- mean deaths per week -->
     <g transform="translate(14.798438 162.5125)rotate(-90)scale(0.1 -0.1)">
      <defs>
       <path d="M 3328 2828 
Q 3544 3216 3844 3400 
Q 4144 3584 4550 3584 
Q 5097 3584 5394 3201 
Q 5691 2819 5691 2113 
L 5691 0 
L 5113 0 
L 5113 2094 
Q 5113 2597 4934 2840 
Q 4756 3084 4391 3084 
Q 3944 3084 3684 2787 
Q 3425 2491 3425 1978 
L 3425 0 
L 2847 0 
L 2847 2094 
Q 2847 2600 2669 2842 
Q 2491 3084 2119 3084 
Q 1678 3084 1418 2786 
Q 1159 2488 1159 1978 
L 1159 0 
L 581 0 
L 581 3500 
L 1159 3500 
L 1159 2956 
Q 1356 3278 1631 3431 
Q 1906 3584 2284 3584 
Q 2666 3584 2933 3390 
Q 3200 3197 3328 2828 
z
" id="DejaVuSans-6d" transform="scale(0.015625)"/>
       <path d="M 3597 1894 
L 3597 1613 
L 953 1613 
Q 991 1019 1311 708 
Q 1631 397 2203 397 
Q 2534 397 2845 478 
Q 3156 559 3463 722 
L 3463 178 
Q 3153 47 2828 -22 
Q 2503 -91 2169 -91 
Q 1331 -91 842 396 
Q 353 884 353 1716 
Q 353 2575 817 3079 
Q 1281 3584 2069 3584 
Q 2775 3584 3186 3129 
Q 3597 2675 3597 1894 
z
M 3022 2063 
Q 3016 2534 2758 2815 
Q 2500 3097 2075 3097 
Q 1594 3097 1305 2825 
Q 1016 2553 972 2059 
L 3022 2063 
z
" id="DejaVuSans-65" transform="scale(0.015625)"/>
       <path d="M 2194 1759 
Q 1497 1759 1228 1600 
Q 959 1441 959 1056 
Q 959 750 1161 570 
Q 1363 391 1709 391 
Q 2188 391 2477 730 
Q 2766 1069 2766 1631 
L 2766 1759 
L 2194 1759 
z
M 3341 1997 
L 3341 0 
L 2766 0 
L 2766 531 
Q 2569 213 2275 61 
Q 1981 -91 1556 -91 
Q 1019 -91 701 211 
Q 384 513 384 1019 
Q 384 1609 779 1909 
Q 1175 2209 1959 2209 
L 2766 2209 
L 2766 2266 
Q 2766 2663 2505 2880 
Q 2244 3097 1772 3097 
Q 1472 3097 1187 3025 
Q 903 2953 641 2809 
L 641 3341 
Q 956 3463 1253 3523 
Q 1550 3584 1831 3584 
Q 2591 3584 2966 3190 
Q 3341 2797 3341 1997 
z
" id="DejaVuSans-61" transform="scale(0.015625)"/>
       <path d="M 3513 2113 
L 3513 0 
L 2938 0 
L 2938 2094 
Q 2938 2591 2744 2837 
Q 2550 3084 2163 3084 
Q 1697 3084 1428 2787 
Q 1159 2491 1159 1978 
L 1159 0 
L 581 0 
L 581 3500 
L 1159 3500 
L 1159 2956 
Q 1366 3272 1645 3428 
Q 1925 3584 2291 3584 
Q 2894 3584 3203 3211 
Q 3513 2838 3513 2113 
z
" id="DejaVuSans-6e" transform="scale(0.015625)"/>
       <path id="DejaVuSans-20" transform="scale(0.015625)"/>
       <path d="M 2906 2969 
L 2906 4863 
L 3481 4863 
L 3481 0 
L 2906 0 
L 2906 525 
Q 2725 213 2448 61 
Q 2172 -91 1784 -91 
Q 1150 -91 751 415 
Q 353 922 353 1747 
Q 353 2572 751 3078 
Q 1150 3584 1784 3584 
Q 2172 3584 2448 3432 
Q 2725 3281 2906 2969 
z
M 947 1747 
Q 947 1113 1208 752 
Q 1469 391 1925 391 
Q 2381 391 2643 752 
Q 2906 1113 2906 1747 
Q 2906 2381 2643 2742 
Q 2381 3103 1925 3103 
Q 1469 3103 1208 2742 
Q 947 2381 947 1747 
z
" id="DejaVuSans-64" transform="scale(0.015625)"/>
       <path d="M 1172 4494 
L 1172 3500 
L 2356 3500 
L 2356 3053 
L 1172 3053 
L 1172 1153 
Q 1172 725 1289 603 
Q 1406 481 1766 481 
L 2356 481 
L 2356 0 
L 1766 0 
Q 1100 0 847 248 
Q 594 497 594 1153 
L 594 3053 
L 172 3053 
L 172 3500 
L 594 3500 
L 594 4494 
L 1172 4494 
z
" id="DejaVuSans-74" transform="scale(0.015625)"/>
       <path d="M 3513 2113 
L 3513 0 
L 2938 0 
L 2938 2094 
Q 2938 2591 2744 2837 
Q 2550 3084 2163 3084 
Q 1697 3084 1428 2787 
Q 1159 2491 1159 1978 
L 1159 0 
L 581 0 
L 581 4863 
L 1159 4863 
L 1159 2956 
Q 1366 3272 1645 3428 
Q 1925 3584 2291 3584 
Q 2894 3584 3203 3211 
Q 3513 2838 3513 2113 
z
" id="DejaVuSans-68" transform="scale(0.015625)"/>
       <path d="M 2834 3397 
L 2834 2853 
Q 2591 2978 2328 3040 
Q 2066 3103 1784 3103 
Q 1356 3103 1142 2972 
Q 928 2841 928 2578 
Q 928 2378 1081 2264 
Q 1234 2150 1697 2047 
L 1894 2003 
Q 2506 1872 2764 1633 
Q 3022 1394 3022 966 
Q 3022 478 2636 193 
Q 2250 -91 1575 -91 
Q 1294 -91 989 -36 
Q 684 19 347 128 
L 347 722 
Q 666 556 975 473 
Q 1284 391 1588 391 
Q 1994 391 2212 530 
Q 2431 669 2431 922 
Q 2431 1156 2273 1281 
Q 2116 1406 1581 1522 
L 1381 1569 
Q 847 1681 609 1914 
Q 372 2147 372 2553 
Q 372 3047 722 3315 
Q 1072 3584 1716 3584 
Q 2034 3584 2315 3537 
Q 2597 3491 2834 3397 
z
" id="DejaVuSans-73" transform="scale(0.015625)"/>
       <path d="M 1159 525 
L 1159 -1331 
L 581 -1331 
L 581 3500 
L 1159 3500 
L 1159 2969 
Q 1341 3281 1617 3432 
Q 1894 3584 2278 3584 
Q 2916 3584 3314 3078 
Q 3713 2572 3713 1747 
Q 3713 922 3314 415 
Q 2916 -91 2278 -91 
Q 1894 -91 1617 61 
Q 1341 213 1159 525 
z
M 3116 1747 
Q 3116 2381 2855 2742 
Q 2594 3103 2138 3103 
Q 1681 3103 1420 2742 
Q 1159 2381 1159 1747 
Q 1159 1113 1420 752 
Q 1681 391 2138 391 
Q 2594 391 2855 752 
Q 3116 1113 3116 1747 
z
" id="DejaVuSans-70" transform="scale(0.015625)"/>
       <path d="M 2631 2963 
Q 2534 3019 2420 3045 
Q 2306 3072 2169 3072 
Q 1681 3072 1420 2755 
Q 1159 2438 1159 1844 
L 1159 0 
L 581 0 
L 581 3500 
L 1159 3500 
L 1159 2956 
Q 1341 3275 1631 3429 
Q 1922 3584 2338 3584 
Q 2397 3584 2469 3576 
Q 2541 3569 2628 3553 
L 2631 2963 
z
" id="DejaVuSans-72" transform="scale(0.015625)"/>
       <path d="M 269 3500 
L 844 3500 
L 1563 769 
L 2278 3500 
L 2956 3500 
L 3675 769 
L 4391 3500 
L 4966 3500 
L 4050 0 
L 3372 0 
L 2619 2869 
L 1863 0 
L 1184 0 
L 269 3500 
z
" id="DejaVuSans-77" transform="scale(0.015625)"/>
       <path d="M 581 4863 
L 1159 4863 
L 1159 1991 
L 2875 3500 
L 3609 3500 
L 1753 1863 
L 3688 0 
L 2938 0 
L 1159 1709 
L 1159 0 
L 581 0 
L 581 4863 
z
" id="DejaVuSans-6b" transform="scale(0.015625)"/>
      </defs>
      <use xlink:href="#DejaVuSans-6d"/>
      <use x="97.412109" xlink:href="#DejaVuSans-65"/>
      <use x="158.935547" xlink:href="#DejaVuSans-61"/>
      <use x="220.214844" xlink:href="#DejaVuSans-6e"/>
      <use x="283.59375" xlink:href="#DejaVuSans-20"/>
      <use x="315.380859" xlink:href="#DejaVuSans-64"/>
      <use x="378.857422" xlink:href="#DejaVuSans-65"/>
      <use x="440.380859" xlink:href="#DejaVuSans-61"/>
      <use x="501.660156" xlink:href="#DejaVuSans-74"/>
      <use x="540.869141" xlink:href="#DejaVuSans-68"/>
      <use x="604.248047" xlink:href="#DejaVuSans-73"/>
      <use x="656.347656" xlink:href="#DejaVuSans-20"/>
      <use x="688.134766" xlink:href="#DejaVuSans-70"/>
      <use x="751.611328" xlink:href="#DejaVuSans-65"/>
      <use x="813.134766" xlink:href="#DejaVuSans-72"/>
      <use x="854.248047" xlink:href="#DejaVuSans-20"/>
      <use x="886.035156" xlink:href="#DejaVuSans-77"/>
      <use x="967.822266" xlink:href="#DejaVuSans-65"/>
      <use x="1029.345703" xlink:href="#DejaVuSans-65"/>
      <use x="1090.869141" xlink:href="#DejaVuSans-6b"/>
     </g>
    </g>
   </g>
   <g id="line2d_18">
    <path clip-path="url(#pce6a1ed9d0)" d="M 70.198827 98.701675 
L 100.872831 99.120724 
L 131.546834 93.89435 
L 162.220838 92.927745 
L 192.894841 95.408512 
L 223.568845 86.171902 
L 254.242849 84.732272 
L 284.916852 83.010262 
L 315.590856 79.476844 
L 346.26486 81.068111 
L 376.938863 62.567965 
L 407.612867 61.371487 
" style="fill:none;stroke:#1f77b4;stroke-linecap:square;stroke-opacity:0.7;stroke-width:1.5;"/>
   </g>
   <g id="line2d_19">
    <path clip-path="url(#pce6a1ed9d0)" d="M 70.198827 176.776571 
L 100.872831 177.657132 
L 131.546834 174.875767 
L 162.220838 174.168413 
L 192.894841 175.611057 
L 223.568845 171.082043 
L 254.242849 170.164543 
L 284.916852 169.395729 
L 315.590856 167.307191 
L 346.26486 167.392118 
L 376.938863 156.472798 
L 407.612867 155.606505 
" style="fill:none;stroke:#ff7f0e;stroke-linecap:square;stroke-opacity:0.7;stroke-width:1.5;"/>
   </g>
   <g id="line2d_20">
    <path clip-path="url(#pce6a1ed9d0)" d="M 70.198827 172.269843 
L 100.872831 171.808331 
L 131.546834 169.363322 
L 162.220838 169.104071 
L 192.894841 170.142194 
L 223.568845 165.434597 
L 254.242849 164.912468 
L 284.916852 163.959272 
L 315.590856 162.514392 
L 346.26486 164.020732 
L 376.938863 156.439906 
L 407.612867 156.109721 
" style="fill:none;stroke:#2ca02c;stroke-linecap:square;stroke-opacity:0.7;stroke-width:1.5;"/>
   </g>
   <g id="patch_3">
    <path d="M 53.328125 189.348437 
L 53.328125 20.798437 
" style="fill:none;stroke:#000000;stroke-linecap:square;stroke-linejoin:miter;stroke-width:0.8;"/>
   </g>
   <g id="patch_4">
    <path d="M 53.328125 189.348437 
L 424.483569 189.348437 
" style="fill:none;stroke:#000000;stroke-linecap:square;stroke-linejoin:miter;stroke-width:0.8;"/>
   </g>
   <g id="text_7">
    <!-- age = Totaal leeftijd -->
    <g transform="translate(188.766003 14.798437)scale(0.1 -0.1)">
     <defs>
      <path d="M 2906 1791 
Q 2906 2416 2648 2759 
Q 2391 3103 1925 3103 
Q 1463 3103 1205 2759 
Q 947 2416 947 1791 
Q 947 1169 1205 825 
Q 1463 481 1925 481 
Q 2391 481 2648 825 
Q 2906 1169 2906 1791 
z
M 3481 434 
Q 3481 -459 3084 -895 
Q 2688 -1331 1869 -1331 
Q 1566 -1331 1297 -1286 
Q 1028 -1241 775 -1147 
L 775 -588 
Q 1028 -725 1275 -790 
Q 1522 -856 1778 -856 
Q 2344 -856 2625 -561 
Q 2906 -266 2906 331 
L 2906 616 
Q 2728 306 2450 153 
Q 2172 0 1784 0 
Q 1141 0 747 490 
Q 353 981 353 1791 
Q 353 2603 747 3093 
Q 1141 3584 1784 3584 
Q 2172 3584 2450 3431 
Q 2728 3278 2906 2969 
L 2906 3500 
L 3481 3500 
L 3481 434 
z
" id="DejaVuSans-67" transform="scale(0.015625)"/>
      <path d="M 678 2906 
L 4684 2906 
L 4684 2381 
L 678 2381 
L 678 2906 
z
M 678 1631 
L 4684 1631 
L 4684 1100 
L 678 1100 
L 678 1631 
z
" id="DejaVuSans-3d" transform="scale(0.015625)"/>
      <path d="M -19 4666 
L 3928 4666 
L 3928 4134 
L 2272 4134 
L 2272 0 
L 1638 0 
L 1638 4134 
L -19 4134 
L -19 4666 
z
" id="DejaVuSans-54" transform="scale(0.015625)"/>
      <path d="M 1959 3097 
Q 1497 3097 1228 2736 
Q 959 2375 959 1747 
Q 959 1119 1226 758 
Q 1494 397 1959 397 
Q 2419 397 2687 759 
Q 2956 1122 2956 1747 
Q 2956 2369 2687 2733 
Q 2419 3097 1959 3097 
z
M 1959 3584 
Q 2709 3584 3137 3096 
Q 3566 2609 3566 1747 
Q 3566 888 3137 398 
Q 2709 -91 1959 -91 
Q 1206 -91 779 398 
Q 353 888 353 1747 
Q 353 2609 779 3096 
Q 1206 3584 1959 3584 
z
" id="DejaVuSans-6f" transform="scale(0.015625)"/>
      <path d="M 603 4863 
L 1178 4863 
L 1178 0 
L 603 0 
L 603 4863 
z
" id="DejaVuSans-6c" transform="scale(0.015625)"/>
      <path d="M 2375 4863 
L 2375 4384 
L 1825 4384 
Q 1516 4384 1395 4259 
Q 1275 4134 1275 3809 
L 1275 3500 
L 2222 3500 
L 2222 3053 
L 1275 3053 
L 1275 0 
L 697 0 
L 697 3053 
L 147 3053 
L 147 3500 
L 697 3500 
L 697 3744 
Q 697 4328 969 4595 
Q 1241 4863 1831 4863 
L 2375 4863 
z
" id="DejaVuSans-66" transform="scale(0.015625)"/>
      <path d="M 603 3500 
L 1178 3500 
L 1178 0 
L 603 0 
L 603 3500 
z
M 603 4863 
L 1178 4863 
L 1178 4134 
L 603 4134 
L 603 4863 
z
" id="DejaVuSans-69" transform="scale(0.015625)"/>
      <path d="M 603 3500 
L 1178 3500 
L 1178 -63 
Q 1178 -731 923 -1031 
Q 669 -1331 103 -1331 
L -116 -1331 
L -116 -844 
L 38 -844 
Q 366 -844 484 -692 
Q 603 -541 603 -63 
L 603 3500 
z
M 603 4863 
L 1178 4863 
L 1178 4134 
L 603 4134 
L 603 4863 
z
" id="DejaVuSans-6a" transform="scale(0.015625)"/>
     </defs>
     <use xlink:href="#DejaVuSans-61"/>
     <use x="61.279297" xlink:href="#DejaVuSans-67"/>
     <use x="124.755859" xlink:href="#DejaVuSans-65"/>
     <use x="186.279297" xlink:href="#DejaVuSans-20"/>
     <use x="218.066406" xlink:href="#DejaVuSans-3d"/>
     <use x="301.855469" xlink:href="#DejaVuSans-20"/>
     <use x="333.642578" xlink:href="#DejaVuSans-54"/>
     <use x="377.726562" xlink:href="#DejaVuSans-6f"/>
     <use x="438.908203" xlink:href="#DejaVuSans-74"/>
     <use x="478.117188" xlink:href="#DejaVuSans-61"/>
     <use x="539.396484" xlink:href="#DejaVuSans-61"/>
     <use x="600.675781" xlink:href="#DejaVuSans-6c"/>
     <use x="628.458984" xlink:href="#DejaVuSans-20"/>
     <use x="660.246094" xlink:href="#DejaVuSans-6c"/>
     <use x="688.029297" xlink:href="#DejaVuSans-65"/>
     <use x="749.552734" xlink:href="#DejaVuSans-65"/>
     <use x="811.076172" xlink:href="#DejaVuSans-66"/>
     <use x="844.53125" xlink:href="#DejaVuSans-74"/>
     <use x="883.740234" xlink:href="#DejaVuSans-69"/>
     <use x="911.523438" xlink:href="#DejaVuSans-6a"/>
     <use x="939.306641" xlink:href="#DejaVuSans-64"/>
    </g>
   </g>
  </g>
  <g id="axes_2">
   <g id="patch_5">
    <path d="M 467.191596 189.348437 
L 838.34704 189.348437 
L 838.34704 20.798437 
L 467.191596 20.798437 
z
" style="fill:#ffffff;"/>
   </g>
   <g id="PolyCollection_4">
    <defs>
     <path d="M 484.062298 -411.066761 
L 484.062298 -387.734316 
L 514.736302 -381.462053 
L 545.410305 -377.681919 
L 576.084309 -374.509975 
L 606.758313 -364.246565 
L 637.432316 -368.514568 
L 668.10632 -368.929958 
L 698.780323 -365.820869 
L 729.454327 -362.981678 
L 760.128331 -358.304592 
L 790.802334 -359.383256 
L 821.476338 -369.177363 
L 821.476338 -396.842675 
L 821.476338 -396.842675 
L 790.802334 -392.505918 
L 760.128331 -381.739067 
L 729.454327 -387.738825 
L 698.780323 -387.21237 
L 668.10632 -393.423783 
L 637.432316 -392.229214 
L 606.758313 -396.872557 
L 576.084309 -397.668549 
L 545.410305 -403.399772 
L 514.736302 -404.853725 
L 484.062298 -411.066761 
z
" id="m4af7850fd6" style="stroke:#1f77b4;stroke-opacity:0.2;"/>
    </defs>
    <g clip-path="url(#p8d10baab25)">
     <use style="fill:#1f77b4;fill-opacity:0.2;stroke:#1f77b4;stroke-opacity:0.2;" x="0" xlink:href="#m4af7850fd6" y="439.526562"/>
    </g>
   </g>
   <g id="PolyCollection_5">
    <defs>
     <path d="M 484.062298 -319.502297 
L 484.062298 -304.3307 
L 514.736302 -297.282242 
L 545.410305 -296.689496 
L 576.084309 -295.229648 
L 606.758313 -288.861137 
L 637.432316 -291.744391 
L 668.10632 -289.873965 
L 698.780323 -288.783734 
L 729.454327 -287.711381 
L 760.128331 -285.076705 
L 790.802334 -287.536048 
L 821.476338 -291.850675 
L 821.476338 -311.194664 
L 821.476338 -311.194664 
L 790.802334 -310.44673 
L 760.128331 -301.300394 
L 729.454327 -305.012701 
L 698.780323 -305.731415 
L 668.10632 -307.3017 
L 637.432316 -305.692437 
L 606.758313 -309.809982 
L 576.084309 -310.588348 
L 545.410305 -314.119142 
L 514.736302 -314.987073 
L 484.062298 -319.502297 
z
" id="m7793109820" style="stroke:#ff7f0e;stroke-opacity:0.2;"/>
    </defs>
    <g clip-path="url(#p8d10baab25)">
     <use style="fill:#ff7f0e;fill-opacity:0.2;stroke:#ff7f0e;stroke-opacity:0.2;" x="0" xlink:href="#m7793109820" y="439.526562"/>
    </g>
   </g>
   <g id="PolyCollection_6">
    <defs>
     <path d="M 484.062298 -283.452289 
L 484.062298 -268.338096 
L 514.736302 -269.364353 
L 545.410305 -266.848599 
L 576.084309 -263.467912 
L 606.758313 -261.242579 
L 637.432316 -262.072142 
L 668.10632 -264.154822 
L 698.780323 -261.297351 
L 729.454327 -260.415486 
L 760.128331 -257.967845 
L 790.802334 -257.839489 
L 821.476338 -262.349363 
L 821.476338 -276.403534 
L 821.476338 -276.403534 
L 790.802334 -272.889213 
L 760.128331 -272.52102 
L 729.454327 -274.403239 
L 698.780323 -274.043044 
L 668.10632 -277.845559 
L 637.432316 -278.057117 
L 606.758313 -278.027729 
L 576.084309 -279.71492 
L 545.410305 -280.246757 
L 514.736302 -281.504416 
L 484.062298 -283.452289 
z
" id="md72c046e27" style="stroke:#2ca02c;stroke-opacity:0.2;"/>
    </defs>
    <g clip-path="url(#p8d10baab25)">
     <use style="fill:#2ca02c;fill-opacity:0.2;stroke:#2ca02c;stroke-opacity:0.2;" x="0" xlink:href="#md72c046e27" y="439.526562"/>
    </g>
   </g>
   <g id="matplotlib.axis_3">
    <g id="xtick_13">
     <g id="line2d_21">
      <g>
       <use style="stroke:#000000;stroke-width:0.8;" x="484.062298" xlink:href="#me9dab9734e" y="189.348437"/>
      </g>
     </g>
    </g>
    <g id="xtick_14">
     <g id="line2d_22">
      <g>
       <use style="stroke:#000000;stroke-width:0.8;" x="514.736302" xlink:href="#me9dab9734e" y="189.348437"/>
      </g>
     </g>
    </g>
    <g id="xtick_15">
     <g id="line2d_23">
      <g>
       <use style="stroke:#000000;stroke-width:0.8;" x="545.410305" xlink:href="#me9dab9734e" y="189.348437"/>
      </g>
     </g>
    </g>
    <g id="xtick_16">
     <g id="line2d_24">
      <g>
       <use style="stroke:#000000;stroke-width:0.8;" x="576.084309" xlink:href="#me9dab9734e" y="189.348437"/>
      </g>
     </g>
    </g>
    <g id="xtick_17">
     <g id="line2d_25">
      <g>
       <use style="stroke:#000000;stroke-width:0.8;" x="606.758313" xlink:href="#me9dab9734e" y="189.348437"/>
      </g>
     </g>
    </g>
    <g id="xtick_18">
     <g id="line2d_26">
      <g>
       <use style="stroke:#000000;stroke-width:0.8;" x="637.432316" xlink:href="#me9dab9734e" y="189.348437"/>
      </g>
     </g>
    </g>
    <g id="xtick_19">
     <g id="line2d_27">
      <g>
       <use style="stroke:#000000;stroke-width:0.8;" x="668.10632" xlink:href="#me9dab9734e" y="189.348437"/>
      </g>
     </g>
    </g>
    <g id="xtick_20">
     <g id="line2d_28">
      <g>
       <use style="stroke:#000000;stroke-width:0.8;" x="698.780323" xlink:href="#me9dab9734e" y="189.348437"/>
      </g>
     </g>
    </g>
    <g id="xtick_21">
     <g id="line2d_29">
      <g>
       <use style="stroke:#000000;stroke-width:0.8;" x="729.454327" xlink:href="#me9dab9734e" y="189.348437"/>
      </g>
     </g>
    </g>
    <g id="xtick_22">
     <g id="line2d_30">
      <g>
       <use style="stroke:#000000;stroke-width:0.8;" x="760.128331" xlink:href="#me9dab9734e" y="189.348437"/>
      </g>
     </g>
    </g>
    <g id="xtick_23">
     <g id="line2d_31">
      <g>
       <use style="stroke:#000000;stroke-width:0.8;" x="790.802334" xlink:href="#me9dab9734e" y="189.348437"/>
      </g>
     </g>
    </g>
    <g id="xtick_24">
     <g id="line2d_32">
      <g>
       <use style="stroke:#000000;stroke-width:0.8;" x="821.476338" xlink:href="#me9dab9734e" y="189.348437"/>
      </g>
     </g>
    </g>
   </g>
   <g id="matplotlib.axis_4">
    <g id="ytick_6">
     <g id="line2d_33">
      <g>
       <use style="stroke:#000000;stroke-width:0.8;" x="467.191596" xlink:href="#mecc5da60bb" y="183.298325"/>
      </g>
     </g>
     <g id="text_8">
      <!-- 150 -->
      <g transform="translate(441.104096 187.097543)scale(0.1 -0.1)">
       <use xlink:href="#DejaVuSans-31"/>
       <use x="63.623047" xlink:href="#DejaVuSans-35"/>
       <use x="127.246094" xlink:href="#DejaVuSans-30"/>
      </g>
     </g>
    </g>
    <g id="ytick_7">
     <g id="line2d_34">
      <g>
       <use style="stroke:#000000;stroke-width:0.8;" x="467.191596" xlink:href="#mecc5da60bb" y="160.692629"/>
      </g>
     </g>
     <g id="text_9">
      <!-- 200 -->
      <g transform="translate(441.104096 164.491848)scale(0.1 -0.1)">
       <use xlink:href="#DejaVuSans-32"/>
       <use x="63.623047" xlink:href="#DejaVuSans-30"/>
       <use x="127.246094" xlink:href="#DejaVuSans-30"/>
      </g>
     </g>
    </g>
    <g id="ytick_8">
     <g id="line2d_35">
      <g>
       <use style="stroke:#000000;stroke-width:0.8;" x="467.191596" xlink:href="#mecc5da60bb" y="138.086934"/>
      </g>
     </g>
     <g id="text_10">
      <!-- 250 -->
      <g transform="translate(441.104096 141.886153)scale(0.1 -0.1)">
       <use xlink:href="#DejaVuSans-32"/>
       <use x="63.623047" xlink:href="#DejaVuSans-35"/>
       <use x="127.246094" xlink:href="#DejaVuSans-30"/>
      </g>
     </g>
    </g>
    <g id="ytick_9">
     <g id="line2d_36">
      <g>
       <use style="stroke:#000000;stroke-width:0.8;" x="467.191596" xlink:href="#mecc5da60bb" y="115.481239"/>
      </g>
     </g>
     <g id="text_11">
      <!-- 300 -->
      <g transform="translate(441.104096 119.280458)scale(0.1 -0.1)">
       <use xlink:href="#DejaVuSans-33"/>
       <use x="63.623047" xlink:href="#DejaVuSans-30"/>
       <use x="127.246094" xlink:href="#DejaVuSans-30"/>
      </g>
     </g>
    </g>
    <g id="ytick_10">
     <g id="line2d_37">
      <g>
       <use style="stroke:#000000;stroke-width:0.8;" x="467.191596" xlink:href="#mecc5da60bb" y="92.875544"/>
      </g>
     </g>
     <g id="text_12">
      <!-- 350 -->
      <g transform="translate(441.104096 96.674763)scale(0.1 -0.1)">
       <use xlink:href="#DejaVuSans-33"/>
       <use x="63.623047" xlink:href="#DejaVuSans-35"/>
       <use x="127.246094" xlink:href="#DejaVuSans-30"/>
      </g>
     </g>
    </g>
    <g id="ytick_11">
     <g id="line2d_38">
      <g>
       <use style="stroke:#000000;stroke-width:0.8;" x="467.191596" xlink:href="#mecc5da60bb" y="70.269849"/>
      </g>
     </g>
     <g id="text_13">
      <!-- 400 -->
      <g transform="translate(441.104096 74.069068)scale(0.1 -0.1)">
       <defs>
        <path d="M 2419 4116 
L 825 1625 
L 2419 1625 
L 2419 4116 
z
M 2253 4666 
L 3047 4666 
L 3047 1625 
L 3713 1625 
L 3713 1100 
L 3047 1100 
L 3047 0 
L 2419 0 
L 2419 1100 
L 313 1100 
L 313 1709 
L 2253 4666 
z
" id="DejaVuSans-34" transform="scale(0.015625)"/>
       </defs>
       <use xlink:href="#DejaVuSans-34"/>
       <use x="63.623047" xlink:href="#DejaVuSans-30"/>
       <use x="127.246094" xlink:href="#DejaVuSans-30"/>
      </g>
     </g>
    </g>
    <g id="ytick_12">
     <g id="line2d_39">
      <g>
       <use style="stroke:#000000;stroke-width:0.8;" x="467.191596" xlink:href="#mecc5da60bb" y="47.664154"/>
      </g>
     </g>
     <g id="text_14">
      <!-- 450 -->
      <g transform="translate(441.104096 51.463372)scale(0.1 -0.1)">
       <use xlink:href="#DejaVuSans-34"/>
       <use x="63.623047" xlink:href="#DejaVuSans-35"/>
       <use x="127.246094" xlink:href="#DejaVuSans-30"/>
      </g>
     </g>
    </g>
    <g id="ytick_13">
     <g id="line2d_40">
      <g>
       <use style="stroke:#000000;stroke-width:0.8;" x="467.191596" xlink:href="#mecc5da60bb" y="25.058458"/>
      </g>
     </g>
     <g id="text_15">
      <!-- 500 -->
      <g transform="translate(441.104096 28.857677)scale(0.1 -0.1)">
       <use xlink:href="#DejaVuSans-35"/>
       <use x="63.623047" xlink:href="#DejaVuSans-30"/>
       <use x="127.246094" xlink:href="#DejaVuSans-30"/>
      </g>
     </g>
    </g>
    <g id="text_16">
     <!-- mean deaths per week -->
     <g transform="translate(435.024409 162.5125)rotate(-90)scale(0.1 -0.1)">
      <use xlink:href="#DejaVuSans-6d"/>
      <use x="97.412109" xlink:href="#DejaVuSans-65"/>
      <use x="158.935547" xlink:href="#DejaVuSans-61"/>
      <use x="220.214844" xlink:href="#DejaVuSans-6e"/>
      <use x="283.59375" xlink:href="#DejaVuSans-20"/>
      <use x="315.380859" xlink:href="#DejaVuSans-64"/>
      <use x="378.857422" xlink:href="#DejaVuSans-65"/>
      <use x="440.380859" xlink:href="#DejaVuSans-61"/>
      <use x="501.660156" xlink:href="#DejaVuSans-74"/>
      <use x="540.869141" xlink:href="#DejaVuSans-68"/>
      <use x="604.248047" xlink:href="#DejaVuSans-73"/>
      <use x="656.347656" xlink:href="#DejaVuSans-20"/>
      <use x="688.134766" xlink:href="#DejaVuSans-70"/>
      <use x="751.611328" xlink:href="#DejaVuSans-65"/>
      <use x="813.134766" xlink:href="#DejaVuSans-72"/>
      <use x="854.248047" xlink:href="#DejaVuSans-20"/>
      <use x="886.035156" xlink:href="#DejaVuSans-77"/>
      <use x="967.822266" xlink:href="#DejaVuSans-65"/>
      <use x="1029.345703" xlink:href="#DejaVuSans-65"/>
      <use x="1090.869141" xlink:href="#DejaVuSans-6b"/>
     </g>
    </g>
   </g>
   <g id="line2d_41">
    <path clip-path="url(#p8d10baab25)" d="M 484.062298 40.126024 
L 514.736302 46.368673 
L 545.410305 48.985717 
L 576.084309 53.4373 
L 606.758313 58.967001 
L 637.432316 59.154671 
L 668.10632 58.349692 
L 698.780323 63.009943 
L 729.454327 64.166311 
L 760.128331 69.504733 
L 790.802334 63.581975 
L 821.476338 56.516544 
" style="fill:none;stroke:#1f77b4;stroke-linecap:square;stroke-opacity:0.7;stroke-width:1.5;"/>
   </g>
   <g id="line2d_42">
    <path clip-path="url(#p8d10baab25)" d="M 484.062298 127.610064 
L 514.736302 133.391905 
L 545.410305 134.122243 
L 576.084309 136.617564 
L 606.758313 140.191003 
L 637.432316 140.808148 
L 668.10632 140.93873 
L 698.780323 142.268988 
L 729.454327 143.164521 
L 760.128331 146.338013 
L 790.802334 140.535174 
L 821.476338 138.003893 
" style="fill:none;stroke:#ff7f0e;stroke-linecap:square;stroke-opacity:0.7;stroke-width:1.5;"/>
   </g>
   <g id="line2d_43">
    <path clip-path="url(#p8d10baab25)" d="M 484.062298 163.63137 
L 514.736302 164.092178 
L 545.410305 165.978884 
L 576.084309 167.935146 
L 606.758313 169.891408 
L 637.432316 169.461933 
L 668.10632 168.526372 
L 698.780323 171.856365 
L 729.454327 172.1172 
L 760.128331 174.28213 
L 790.802334 174.162212 
L 821.476338 170.150114 
" style="fill:none;stroke:#2ca02c;stroke-linecap:square;stroke-opacity:0.7;stroke-width:1.5;"/>
   </g>
   <g id="patch_6">
    <path d="M 467.191596 189.348437 
L 467.191596 20.798437 
" style="fill:none;stroke:#000000;stroke-linecap:square;stroke-linejoin:miter;stroke-width:0.8;"/>
   </g>
   <g id="patch_7">
    <path d="M 467.191596 189.348437 
L 838.34704 189.348437 
" style="fill:none;stroke:#000000;stroke-linecap:square;stroke-linejoin:miter;stroke-width:0.8;"/>
   </g>
   <g id="text_17">
    <!-- age = 0 tot 65 jaar -->
    <g transform="translate(605.223224 14.798437)scale(0.1 -0.1)">
     <defs>
      <path d="M 2113 2584 
Q 1688 2584 1439 2293 
Q 1191 2003 1191 1497 
Q 1191 994 1439 701 
Q 1688 409 2113 409 
Q 2538 409 2786 701 
Q 3034 994 3034 1497 
Q 3034 2003 2786 2293 
Q 2538 2584 2113 2584 
z
M 3366 4563 
L 3366 3988 
Q 3128 4100 2886 4159 
Q 2644 4219 2406 4219 
Q 1781 4219 1451 3797 
Q 1122 3375 1075 2522 
Q 1259 2794 1537 2939 
Q 1816 3084 2150 3084 
Q 2853 3084 3261 2657 
Q 3669 2231 3669 1497 
Q 3669 778 3244 343 
Q 2819 -91 2113 -91 
Q 1303 -91 875 529 
Q 447 1150 447 2328 
Q 447 3434 972 4092 
Q 1497 4750 2381 4750 
Q 2619 4750 2861 4703 
Q 3103 4656 3366 4563 
z
" id="DejaVuSans-36" transform="scale(0.015625)"/>
     </defs>
     <use xlink:href="#DejaVuSans-61"/>
     <use x="61.279297" xlink:href="#DejaVuSans-67"/>
     <use x="124.755859" xlink:href="#DejaVuSans-65"/>
     <use x="186.279297" xlink:href="#DejaVuSans-20"/>
     <use x="218.066406" xlink:href="#DejaVuSans-3d"/>
     <use x="301.855469" xlink:href="#DejaVuSans-20"/>
     <use x="333.642578" xlink:href="#DejaVuSans-30"/>
     <use x="397.265625" xlink:href="#DejaVuSans-20"/>
     <use x="429.052734" xlink:href="#DejaVuSans-74"/>
     <use x="468.261719" xlink:href="#DejaVuSans-6f"/>
     <use x="529.443359" xlink:href="#DejaVuSans-74"/>
     <use x="568.652344" xlink:href="#DejaVuSans-20"/>
     <use x="600.439453" xlink:href="#DejaVuSans-36"/>
     <use x="664.0625" xlink:href="#DejaVuSans-35"/>
     <use x="727.685547" xlink:href="#DejaVuSans-20"/>
     <use x="759.472656" xlink:href="#DejaVuSans-6a"/>
     <use x="787.255859" xlink:href="#DejaVuSans-61"/>
     <use x="848.535156" xlink:href="#DejaVuSans-61"/>
     <use x="909.814453" xlink:href="#DejaVuSans-72"/>
    </g>
   </g>
  </g>
  <g id="axes_3">
   <g id="patch_8">
    <path d="M 53.328125 386.198437 
L 424.483569 386.198437 
L 424.483569 217.648437 
L 53.328125 217.648437 
z
" style="fill:#ffffff;"/>
   </g>
   <g id="PolyCollection_7">
    <defs>
     <path d="M 70.198827 -154.056755 
L 70.198827 -140.578715 
L 100.872831 -139.702241 
L 131.546834 -141.230503 
L 162.220838 -142.084542 
L 192.894841 -141.875339 
L 223.568845 -149.246463 
L 254.242849 -149.248802 
L 284.916852 -149.356821 
L 315.590856 -150.843275 
L 346.26486 -156.000176 
L 376.938863 -153.71376 
L 407.612867 -169.876334 
L 407.612867 -211.43771 
L 407.612867 -211.43771 
L 376.938863 -214.216761 
L 346.26486 -176.109839 
L 315.590856 -181.369335 
L 284.916852 -172.350058 
L 254.242849 -171.15854 
L 223.568845 -167.649806 
L 192.894841 -158.464415 
L 162.220838 -160.484944 
L 131.546834 -159.040854 
L 100.872831 -152.730856 
L 70.198827 -154.056755 
z
" id="mfc2f509d20" style="stroke:#1f77b4;stroke-opacity:0.2;"/>
    </defs>
    <g clip-path="url(#pd5d869d1ef)">
     <use style="fill:#1f77b4;fill-opacity:0.2;stroke:#1f77b4;stroke-opacity:0.2;" x="0" xlink:href="#mfc2f509d20" y="439.526562"/>
    </g>
   </g>
   <g id="PolyCollection_8">
    <defs>
     <path d="M 70.198827 -96.441989 
L 70.198827 -86.912072 
L 100.872831 -85.773025 
L 131.546834 -86.977586 
L 162.220838 -87.050543 
L 192.894841 -86.508116 
L 223.568845 -91.631959 
L 254.242849 -90.434442 
L 284.916852 -91.190176 
L 315.590856 -91.626778 
L 346.26486 -93.166857 
L 376.938863 -92.022525 
L 407.612867 -101.28468 
L 407.612867 -127.366273 
L 407.612867 -127.366273 
L 376.938863 -131.696808 
L 346.26486 -106.287784 
L 315.590856 -109.147918 
L 284.916852 -103.839199 
L 254.242849 -104.4513 
L 223.568845 -102.701577 
L 192.894841 -96.633914 
L 162.220838 -100.010618 
L 131.546834 -97.682851 
L 100.872831 -93.689264 
L 70.198827 -96.441989 
z
" id="m146107a148" style="stroke:#ff7f0e;stroke-opacity:0.2;"/>
    </defs>
    <g clip-path="url(#pd5d869d1ef)">
     <use style="fill:#ff7f0e;fill-opacity:0.2;stroke:#ff7f0e;stroke-opacity:0.2;" x="0" xlink:href="#m146107a148" y="439.526562"/>
    </g>
   </g>
   <g id="PolyCollection_9">
    <defs>
     <path d="M 70.198827 -69.021996 
L 70.198827 -60.989489 
L 100.872831 -61.992089 
L 131.546834 -62.618867 
L 162.220838 -63.151415 
L 192.894841 -63.688036 
L 223.568845 -65.848588 
L 254.242849 -67.158797 
L 284.916852 -66.41781 
L 315.590856 -67.600527 
L 346.26486 -70.810468 
L 376.938863 -70.526435 
L 407.612867 -76.691777 
L 407.612867 -93.057066 
L 407.612867 -93.057066 
L 376.938863 -92.414827 
L 346.26486 -80.574981 
L 315.590856 -82.567461 
L 284.916852 -78.989768 
L 254.242849 -77.092878 
L 223.568845 -75.44422 
L 192.894841 -72.239762 
L 162.220838 -71.086984 
L 131.546834 -71.722127 
L 100.872831 -69.708793 
L 70.198827 -69.021996 
z
" id="m246667a1ad" style="stroke:#2ca02c;stroke-opacity:0.2;"/>
    </defs>
    <g clip-path="url(#pd5d869d1ef)">
     <use style="fill:#2ca02c;fill-opacity:0.2;stroke:#2ca02c;stroke-opacity:0.2;" x="0" xlink:href="#m246667a1ad" y="439.526562"/>
    </g>
   </g>
   <g id="matplotlib.axis_5">
    <g id="xtick_25">
     <g id="line2d_44">
      <g>
       <use style="stroke:#000000;stroke-width:0.8;" x="70.198827" xlink:href="#me9dab9734e" y="386.198437"/>
      </g>
     </g>
     <g id="text_18">
      <!-- 2010 -->
      <g transform="translate(72.958202 418.648437)rotate(-90)scale(0.1 -0.1)">
       <use xlink:href="#DejaVuSans-32"/>
       <use x="63.623047" xlink:href="#DejaVuSans-30"/>
       <use x="127.246094" xlink:href="#DejaVuSans-31"/>
       <use x="190.869141" xlink:href="#DejaVuSans-30"/>
      </g>
     </g>
    </g>
    <g id="xtick_26">
     <g id="line2d_45">
      <g>
       <use style="stroke:#000000;stroke-width:0.8;" x="100.872831" xlink:href="#me9dab9734e" y="386.198437"/>
      </g>
     </g>
     <g id="text_19">
      <!-- 2011 -->
      <g transform="translate(103.632206 418.648437)rotate(-90)scale(0.1 -0.1)">
       <use xlink:href="#DejaVuSans-32"/>
       <use x="63.623047" xlink:href="#DejaVuSans-30"/>
       <use x="127.246094" xlink:href="#DejaVuSans-31"/>
       <use x="190.869141" xlink:href="#DejaVuSans-31"/>
      </g>
     </g>
    </g>
    <g id="xtick_27">
     <g id="line2d_46">
      <g>
       <use style="stroke:#000000;stroke-width:0.8;" x="131.546834" xlink:href="#me9dab9734e" y="386.198437"/>
      </g>
     </g>
     <g id="text_20">
      <!-- 2012 -->
      <g transform="translate(134.306209 418.648437)rotate(-90)scale(0.1 -0.1)">
       <use xlink:href="#DejaVuSans-32"/>
       <use x="63.623047" xlink:href="#DejaVuSans-30"/>
       <use x="127.246094" xlink:href="#DejaVuSans-31"/>
       <use x="190.869141" xlink:href="#DejaVuSans-32"/>
      </g>
     </g>
    </g>
    <g id="xtick_28">
     <g id="line2d_47">
      <g>
       <use style="stroke:#000000;stroke-width:0.8;" x="162.220838" xlink:href="#me9dab9734e" y="386.198437"/>
      </g>
     </g>
     <g id="text_21">
      <!-- 2013 -->
      <g transform="translate(164.980213 418.648437)rotate(-90)scale(0.1 -0.1)">
       <use xlink:href="#DejaVuSans-32"/>
       <use x="63.623047" xlink:href="#DejaVuSans-30"/>
       <use x="127.246094" xlink:href="#DejaVuSans-31"/>
       <use x="190.869141" xlink:href="#DejaVuSans-33"/>
      </g>
     </g>
    </g>
    <g id="xtick_29">
     <g id="line2d_48">
      <g>
       <use style="stroke:#000000;stroke-width:0.8;" x="192.894841" xlink:href="#me9dab9734e" y="386.198437"/>
      </g>
     </g>
     <g id="text_22">
      <!-- 2014 -->
      <g transform="translate(195.654216 418.648437)rotate(-90)scale(0.1 -0.1)">
       <use xlink:href="#DejaVuSans-32"/>
       <use x="63.623047" xlink:href="#DejaVuSans-30"/>
       <use x="127.246094" xlink:href="#DejaVuSans-31"/>
       <use x="190.869141" xlink:href="#DejaVuSans-34"/>
      </g>
     </g>
    </g>
    <g id="xtick_30">
     <g id="line2d_49">
      <g>
       <use style="stroke:#000000;stroke-width:0.8;" x="223.568845" xlink:href="#me9dab9734e" y="386.198437"/>
      </g>
     </g>
     <g id="text_23">
      <!-- 2015 -->
      <g transform="translate(226.32822 418.648437)rotate(-90)scale(0.1 -0.1)">
       <use xlink:href="#DejaVuSans-32"/>
       <use x="63.623047" xlink:href="#DejaVuSans-30"/>
       <use x="127.246094" xlink:href="#DejaVuSans-31"/>
       <use x="190.869141" xlink:href="#DejaVuSans-35"/>
      </g>
     </g>
    </g>
    <g id="xtick_31">
     <g id="line2d_50">
      <g>
       <use style="stroke:#000000;stroke-width:0.8;" x="254.242849" xlink:href="#me9dab9734e" y="386.198437"/>
      </g>
     </g>
     <g id="text_24">
      <!-- 2016 -->
      <g transform="translate(257.002224 418.648437)rotate(-90)scale(0.1 -0.1)">
       <use xlink:href="#DejaVuSans-32"/>
       <use x="63.623047" xlink:href="#DejaVuSans-30"/>
       <use x="127.246094" xlink:href="#DejaVuSans-31"/>
       <use x="190.869141" xlink:href="#DejaVuSans-36"/>
      </g>
     </g>
    </g>
    <g id="xtick_32">
     <g id="line2d_51">
      <g>
       <use style="stroke:#000000;stroke-width:0.8;" x="284.916852" xlink:href="#me9dab9734e" y="386.198437"/>
      </g>
     </g>
     <g id="text_25">
      <!-- 2017 -->
      <g transform="translate(287.676227 418.648437)rotate(-90)scale(0.1 -0.1)">
       <defs>
        <path d="M 525 4666 
L 3525 4666 
L 3525 4397 
L 1831 0 
L 1172 0 
L 2766 4134 
L 525 4134 
L 525 4666 
z
" id="DejaVuSans-37" transform="scale(0.015625)"/>
       </defs>
       <use xlink:href="#DejaVuSans-32"/>
       <use x="63.623047" xlink:href="#DejaVuSans-30"/>
       <use x="127.246094" xlink:href="#DejaVuSans-31"/>
       <use x="190.869141" xlink:href="#DejaVuSans-37"/>
      </g>
     </g>
    </g>
    <g id="xtick_33">
     <g id="line2d_52">
      <g>
       <use style="stroke:#000000;stroke-width:0.8;" x="315.590856" xlink:href="#me9dab9734e" y="386.198437"/>
      </g>
     </g>
     <g id="text_26">
      <!-- 2018 -->
      <g transform="translate(318.350231 418.648437)rotate(-90)scale(0.1 -0.1)">
       <defs>
        <path d="M 2034 2216 
Q 1584 2216 1326 1975 
Q 1069 1734 1069 1313 
Q 1069 891 1326 650 
Q 1584 409 2034 409 
Q 2484 409 2743 651 
Q 3003 894 3003 1313 
Q 3003 1734 2745 1975 
Q 2488 2216 2034 2216 
z
M 1403 2484 
Q 997 2584 770 2862 
Q 544 3141 544 3541 
Q 544 4100 942 4425 
Q 1341 4750 2034 4750 
Q 2731 4750 3128 4425 
Q 3525 4100 3525 3541 
Q 3525 3141 3298 2862 
Q 3072 2584 2669 2484 
Q 3125 2378 3379 2068 
Q 3634 1759 3634 1313 
Q 3634 634 3220 271 
Q 2806 -91 2034 -91 
Q 1263 -91 848 271 
Q 434 634 434 1313 
Q 434 1759 690 2068 
Q 947 2378 1403 2484 
z
M 1172 3481 
Q 1172 3119 1398 2916 
Q 1625 2713 2034 2713 
Q 2441 2713 2670 2916 
Q 2900 3119 2900 3481 
Q 2900 3844 2670 4047 
Q 2441 4250 2034 4250 
Q 1625 4250 1398 4047 
Q 1172 3844 1172 3481 
z
" id="DejaVuSans-38" transform="scale(0.015625)"/>
       </defs>
       <use xlink:href="#DejaVuSans-32"/>
       <use x="63.623047" xlink:href="#DejaVuSans-30"/>
       <use x="127.246094" xlink:href="#DejaVuSans-31"/>
       <use x="190.869141" xlink:href="#DejaVuSans-38"/>
      </g>
     </g>
    </g>
    <g id="xtick_34">
     <g id="line2d_53">
      <g>
       <use style="stroke:#000000;stroke-width:0.8;" x="346.26486" xlink:href="#me9dab9734e" y="386.198437"/>
      </g>
     </g>
     <g id="text_27">
      <!-- 2019 -->
      <g transform="translate(349.024235 418.648437)rotate(-90)scale(0.1 -0.1)">
       <defs>
        <path d="M 703 97 
L 703 672 
Q 941 559 1184 500 
Q 1428 441 1663 441 
Q 2288 441 2617 861 
Q 2947 1281 2994 2138 
Q 2813 1869 2534 1725 
Q 2256 1581 1919 1581 
Q 1219 1581 811 2004 
Q 403 2428 403 3163 
Q 403 3881 828 4315 
Q 1253 4750 1959 4750 
Q 2769 4750 3195 4129 
Q 3622 3509 3622 2328 
Q 3622 1225 3098 567 
Q 2575 -91 1691 -91 
Q 1453 -91 1209 -44 
Q 966 3 703 97 
z
M 1959 2075 
Q 2384 2075 2632 2365 
Q 2881 2656 2881 3163 
Q 2881 3666 2632 3958 
Q 2384 4250 1959 4250 
Q 1534 4250 1286 3958 
Q 1038 3666 1038 3163 
Q 1038 2656 1286 2365 
Q 1534 2075 1959 2075 
z
" id="DejaVuSans-39" transform="scale(0.015625)"/>
       </defs>
       <use xlink:href="#DejaVuSans-32"/>
       <use x="63.623047" xlink:href="#DejaVuSans-30"/>
       <use x="127.246094" xlink:href="#DejaVuSans-31"/>
       <use x="190.869141" xlink:href="#DejaVuSans-39"/>
      </g>
     </g>
    </g>
    <g id="xtick_35">
     <g id="line2d_54">
      <g>
       <use style="stroke:#000000;stroke-width:0.8;" x="376.938863" xlink:href="#me9dab9734e" y="386.198437"/>
      </g>
     </g>
     <g id="text_28">
      <!-- 2020 -->
      <g transform="translate(379.698238 418.648437)rotate(-90)scale(0.1 -0.1)">
       <use xlink:href="#DejaVuSans-32"/>
       <use x="63.623047" xlink:href="#DejaVuSans-30"/>
       <use x="127.246094" xlink:href="#DejaVuSans-32"/>
       <use x="190.869141" xlink:href="#DejaVuSans-30"/>
      </g>
     </g>
    </g>
    <g id="xtick_36">
     <g id="line2d_55">
      <g>
       <use style="stroke:#000000;stroke-width:0.8;" x="407.612867" xlink:href="#me9dab9734e" y="386.198437"/>
      </g>
     </g>
     <g id="text_29">
      <!-- 2021 -->
      <g transform="translate(410.372242 418.648437)rotate(-90)scale(0.1 -0.1)">
       <use xlink:href="#DejaVuSans-32"/>
       <use x="63.623047" xlink:href="#DejaVuSans-30"/>
       <use x="127.246094" xlink:href="#DejaVuSans-32"/>
       <use x="190.869141" xlink:href="#DejaVuSans-31"/>
      </g>
     </g>
    </g>
    <g id="text_30">
     <!-- year -->
     <g transform="translate(227.750378 430.246875)scale(0.1 -0.1)">
      <defs>
       <path d="M 2059 -325 
Q 1816 -950 1584 -1140 
Q 1353 -1331 966 -1331 
L 506 -1331 
L 506 -850 
L 844 -850 
Q 1081 -850 1212 -737 
Q 1344 -625 1503 -206 
L 1606 56 
L 191 3500 
L 800 3500 
L 1894 763 
L 2988 3500 
L 3597 3500 
L 2059 -325 
z
" id="DejaVuSans-79" transform="scale(0.015625)"/>
      </defs>
      <use xlink:href="#DejaVuSans-79"/>
      <use x="59.179688" xlink:href="#DejaVuSans-65"/>
      <use x="120.703125" xlink:href="#DejaVuSans-61"/>
      <use x="181.982422" xlink:href="#DejaVuSans-72"/>
     </g>
    </g>
   </g>
   <g id="matplotlib.axis_6">
    <g id="ytick_14">
     <g id="line2d_56">
      <g>
       <use style="stroke:#000000;stroke-width:0.8;" x="53.328125" xlink:href="#mecc5da60bb" y="359.028971"/>
      </g>
     </g>
     <g id="text_31">
      <!-- 400 -->
      <g transform="translate(27.240625 362.82819)scale(0.1 -0.1)">
       <use xlink:href="#DejaVuSans-34"/>
       <use x="63.623047" xlink:href="#DejaVuSans-30"/>
       <use x="127.246094" xlink:href="#DejaVuSans-30"/>
      </g>
     </g>
    </g>
    <g id="ytick_15">
     <g id="line2d_57">
      <g>
       <use style="stroke:#000000;stroke-width:0.8;" x="53.328125" xlink:href="#mecc5da60bb" y="323.462694"/>
      </g>
     </g>
     <g id="text_32">
      <!-- 600 -->
      <g transform="translate(27.240625 327.261912)scale(0.1 -0.1)">
       <use xlink:href="#DejaVuSans-36"/>
       <use x="63.623047" xlink:href="#DejaVuSans-30"/>
       <use x="127.246094" xlink:href="#DejaVuSans-30"/>
      </g>
     </g>
    </g>
    <g id="ytick_16">
     <g id="line2d_58">
      <g>
       <use style="stroke:#000000;stroke-width:0.8;" x="53.328125" xlink:href="#mecc5da60bb" y="287.896416"/>
      </g>
     </g>
     <g id="text_33">
      <!-- 800 -->
      <g transform="translate(27.240625 291.695635)scale(0.1 -0.1)">
       <use xlink:href="#DejaVuSans-38"/>
       <use x="63.623047" xlink:href="#DejaVuSans-30"/>
       <use x="127.246094" xlink:href="#DejaVuSans-30"/>
      </g>
     </g>
    </g>
    <g id="ytick_17">
     <g id="line2d_59">
      <g>
       <use style="stroke:#000000;stroke-width:0.8;" x="53.328125" xlink:href="#mecc5da60bb" y="252.330139"/>
      </g>
     </g>
     <g id="text_34">
      <!-- 1000 -->
      <g transform="translate(20.878125 256.129358)scale(0.1 -0.1)">
       <use xlink:href="#DejaVuSans-31"/>
       <use x="63.623047" xlink:href="#DejaVuSans-30"/>
       <use x="127.246094" xlink:href="#DejaVuSans-30"/>
       <use x="190.869141" xlink:href="#DejaVuSans-30"/>
      </g>
     </g>
    </g>
    <g id="text_35">
     <!-- mean deaths per week -->
     <g transform="translate(14.798438 359.3625)rotate(-90)scale(0.1 -0.1)">
      <use xlink:href="#DejaVuSans-6d"/>
      <use x="97.412109" xlink:href="#DejaVuSans-65"/>
      <use x="158.935547" xlink:href="#DejaVuSans-61"/>
      <use x="220.214844" xlink:href="#DejaVuSans-6e"/>
      <use x="283.59375" xlink:href="#DejaVuSans-20"/>
      <use x="315.380859" xlink:href="#DejaVuSans-64"/>
      <use x="378.857422" xlink:href="#DejaVuSans-65"/>
      <use x="440.380859" xlink:href="#DejaVuSans-61"/>
      <use x="501.660156" xlink:href="#DejaVuSans-74"/>
      <use x="540.869141" xlink:href="#DejaVuSans-68"/>
      <use x="604.248047" xlink:href="#DejaVuSans-73"/>
      <use x="656.347656" xlink:href="#DejaVuSans-20"/>
      <use x="688.134766" xlink:href="#DejaVuSans-70"/>
      <use x="751.611328" xlink:href="#DejaVuSans-65"/>
      <use x="813.134766" xlink:href="#DejaVuSans-72"/>
      <use x="854.248047" xlink:href="#DejaVuSans-20"/>
      <use x="886.035156" xlink:href="#DejaVuSans-77"/>
      <use x="967.822266" xlink:href="#DejaVuSans-65"/>
      <use x="1029.345703" xlink:href="#DejaVuSans-65"/>
      <use x="1090.869141" xlink:href="#DejaVuSans-6b"/>
     </g>
    </g>
   </g>
   <g id="line2d_60">
    <path clip-path="url(#pd5d869d1ef)" d="M 70.198827 292.208827 
L 100.872831 293.310014 
L 131.546834 289.390884 
L 162.220838 288.24182 
L 192.894841 289.356686 
L 223.568845 281.078428 
L 254.242849 279.322892 
L 284.916852 278.673123 
L 315.590856 273.420257 
L 346.26486 273.471555 
L 376.938863 255.561302 
L 407.612867 248.86954 
" style="fill:none;stroke:#1f77b4;stroke-linecap:square;stroke-opacity:0.7;stroke-width:1.5;"/>
   </g>
   <g id="line2d_61">
    <path clip-path="url(#pd5d869d1ef)" d="M 70.198827 347.849532 
L 100.872831 349.795418 
L 131.546834 347.196344 
L 162.220838 345.995982 
L 192.894841 347.955547 
L 223.568845 342.359795 
L 254.242849 342.083692 
L 284.916852 342.011875 
L 315.590856 339.139214 
L 346.26486 339.799242 
L 376.938863 327.666896 
L 407.612867 325.201086 
" style="fill:none;stroke:#ff7f0e;stroke-linecap:square;stroke-opacity:0.7;stroke-width:1.5;"/>
   </g>
   <g id="line2d_62">
    <path clip-path="url(#pd5d869d1ef)" d="M 70.198827 374.52082 
L 100.872831 373.676121 
L 131.546834 372.356065 
L 162.220838 372.407363 
L 192.894841 371.562664 
L 223.568845 368.880159 
L 254.242849 367.400725 
L 284.916852 366.822773 
L 315.590856 364.442569 
L 346.26486 363.833838 
L 376.938863 358.055931 
L 407.612867 354.652141 
" style="fill:none;stroke:#2ca02c;stroke-linecap:square;stroke-opacity:0.7;stroke-width:1.5;"/>
   </g>
   <g id="patch_9">
    <path d="M 53.328125 386.198437 
L 53.328125 217.648437 
" style="fill:none;stroke:#000000;stroke-linecap:square;stroke-linejoin:miter;stroke-width:0.8;"/>
   </g>
   <g id="patch_10">
    <path d="M 53.328125 386.198437 
L 424.483569 386.198437 
" style="fill:none;stroke:#000000;stroke-linecap:square;stroke-linejoin:miter;stroke-width:0.8;"/>
   </g>
   <g id="text_36">
    <!-- age = 65 tot 80 jaar -->
    <g transform="translate(188.178503 211.648437)scale(0.1 -0.1)">
     <use xlink:href="#DejaVuSans-61"/>
     <use x="61.279297" xlink:href="#DejaVuSans-67"/>
     <use x="124.755859" xlink:href="#DejaVuSans-65"/>
     <use x="186.279297" xlink:href="#DejaVuSans-20"/>
     <use x="218.066406" xlink:href="#DejaVuSans-3d"/>
     <use x="301.855469" xlink:href="#DejaVuSans-20"/>
     <use x="333.642578" xlink:href="#DejaVuSans-36"/>
     <use x="397.265625" xlink:href="#DejaVuSans-35"/>
     <use x="460.888672" xlink:href="#DejaVuSans-20"/>
     <use x="492.675781" xlink:href="#DejaVuSans-74"/>
     <use x="531.884766" xlink:href="#DejaVuSans-6f"/>
     <use x="593.066406" xlink:href="#DejaVuSans-74"/>
     <use x="632.275391" xlink:href="#DejaVuSans-20"/>
     <use x="664.0625" xlink:href="#DejaVuSans-38"/>
     <use x="727.685547" xlink:href="#DejaVuSans-30"/>
     <use x="791.308594" xlink:href="#DejaVuSans-20"/>
     <use x="823.095703" xlink:href="#DejaVuSans-6a"/>
     <use x="850.878906" xlink:href="#DejaVuSans-61"/>
     <use x="912.158203" xlink:href="#DejaVuSans-61"/>
     <use x="973.4375" xlink:href="#DejaVuSans-72"/>
    </g>
   </g>
  </g>
  <g id="axes_4">
   <g id="patch_11">
    <path d="M 467.191596 386.198437 
L 838.34704 386.198437 
L 838.34704 217.648437 
L 467.191596 217.648437 
z
" style="fill:#ffffff;"/>
   </g>
   <g id="PolyCollection_10">
    <defs>
     <path d="M 484.062298 -150.270474 
L 484.062298 -127.733829 
L 514.736302 -131.035344 
L 545.410305 -133.983229 
L 576.084309 -130.187175 
L 606.758313 -136.946387 
L 637.432316 -136.504841 
L 668.10632 -143.381711 
L 698.780323 -138.287699 
L 729.454327 -137.441526 
L 760.128331 -148.786949 
L 790.802334 -145.448158 
L 821.476338 -148.262743 
L 821.476338 -205.69777 
L 821.476338 -205.69777 
L 790.802334 -214.216761 
L 760.128331 -175.156904 
L 729.454327 -189.17206 
L 698.780323 -182.418893 
L 668.10632 -170.988045 
L 637.432316 -175.573387 
L 606.758313 -155.430816 
L 576.084309 -166.414587 
L 545.410305 -159.122694 
L 514.736302 -149.202133 
L 484.062298 -150.270474 
z
" id="m09012d1141" style="stroke:#1f77b4;stroke-opacity:0.2;"/>
    </defs>
    <g clip-path="url(#p22d9289cee)">
     <use style="fill:#1f77b4;fill-opacity:0.2;stroke:#1f77b4;stroke-opacity:0.2;" x="0" xlink:href="#m09012d1141" y="439.526562"/>
    </g>
   </g>
   <g id="PolyCollection_11">
    <defs>
     <path d="M 484.062298 -70.814214 
L 484.062298 -60.989489 
L 514.736302 -62.552094 
L 545.410305 -64.160718 
L 576.084309 -63.092473 
L 606.758313 -65.877706 
L 637.432316 -66.763785 
L 668.10632 -69.807765 
L 698.780323 -67.983384 
L 729.454327 -68.832302 
L 760.128331 -73.646611 
L 790.802334 -72.208823 
L 821.476338 -74.283552 
L 821.476338 -101.600447 
L 821.476338 -101.600447 
L 790.802334 -105.784517 
L 760.128331 -85.68724 
L 729.454327 -88.882919 
L 698.780323 -85.930406 
L 668.10632 -81.352338 
L 637.432316 -81.859771 
L 606.758313 -74.391903 
L 576.084309 -78.20809 
L 545.410305 -75.229055 
L 514.736302 -70.749345 
L 484.062298 -70.814214 
z
" id="m833458af7f" style="stroke:#ff7f0e;stroke-opacity:0.2;"/>
    </defs>
    <g clip-path="url(#p22d9289cee)">
     <use style="fill:#ff7f0e;fill-opacity:0.2;stroke:#ff7f0e;stroke-opacity:0.2;" x="0" xlink:href="#m833458af7f" y="439.526562"/>
    </g>
   </g>
   <g id="PolyCollection_12">
    <defs>
     <path d="M 484.062298 -99.514641 
L 484.062298 -85.935575 
L 514.736302 -87.419839 
L 545.410305 -88.988234 
L 576.084309 -86.451578 
L 606.758313 -90.218946 
L 637.432316 -89.025298 
L 668.10632 -92.793162 
L 698.780323 -89.711404 
L 729.454327 -87.849092 
L 760.128331 -94.314926 
L 790.802334 -92.48263 
L 821.476338 -92.975643 
L 821.476338 -122.330619 
L 821.476338 -122.330619 
L 790.802334 -128.438564 
L 760.128331 -109.544691 
L 729.454327 -120.298888 
L 698.780323 -116.331013 
L 668.10632 -109.666104 
L 637.432316 -113.678987 
L 606.758313 -101.138262 
L 576.084309 -108.099236 
L 545.410305 -103.97753 
L 514.736302 -98.765812 
L 484.062298 -99.514641 
z
" id="m566756a263" style="stroke:#2ca02c;stroke-opacity:0.2;"/>
    </defs>
    <g clip-path="url(#p22d9289cee)">
     <use style="fill:#2ca02c;fill-opacity:0.2;stroke:#2ca02c;stroke-opacity:0.2;" x="0" xlink:href="#m566756a263" y="439.526562"/>
    </g>
   </g>
   <g id="matplotlib.axis_7">
    <g id="xtick_37">
     <g id="line2d_63">
      <g>
       <use style="stroke:#000000;stroke-width:0.8;" x="484.062298" xlink:href="#me9dab9734e" y="386.198437"/>
      </g>
     </g>
     <g id="text_37">
      <!-- 2010 -->
      <g transform="translate(486.821673 418.648437)rotate(-90)scale(0.1 -0.1)">
       <use xlink:href="#DejaVuSans-32"/>
       <use x="63.623047" xlink:href="#DejaVuSans-30"/>
       <use x="127.246094" xlink:href="#DejaVuSans-31"/>
       <use x="190.869141" xlink:href="#DejaVuSans-30"/>
      </g>
     </g>
    </g>
    <g id="xtick_38">
     <g id="line2d_64">
      <g>
       <use style="stroke:#000000;stroke-width:0.8;" x="514.736302" xlink:href="#me9dab9734e" y="386.198437"/>
      </g>
     </g>
     <g id="text_38">
      <!-- 2011 -->
      <g transform="translate(517.495677 418.648437)rotate(-90)scale(0.1 -0.1)">
       <use xlink:href="#DejaVuSans-32"/>
       <use x="63.623047" xlink:href="#DejaVuSans-30"/>
       <use x="127.246094" xlink:href="#DejaVuSans-31"/>
       <use x="190.869141" xlink:href="#DejaVuSans-31"/>
      </g>
     </g>
    </g>
    <g id="xtick_39">
     <g id="line2d_65">
      <g>
       <use style="stroke:#000000;stroke-width:0.8;" x="545.410305" xlink:href="#me9dab9734e" y="386.198437"/>
      </g>
     </g>
     <g id="text_39">
      <!-- 2012 -->
      <g transform="translate(548.16968 418.648437)rotate(-90)scale(0.1 -0.1)">
       <use xlink:href="#DejaVuSans-32"/>
       <use x="63.623047" xlink:href="#DejaVuSans-30"/>
       <use x="127.246094" xlink:href="#DejaVuSans-31"/>
       <use x="190.869141" xlink:href="#DejaVuSans-32"/>
      </g>
     </g>
    </g>
    <g id="xtick_40">
     <g id="line2d_66">
      <g>
       <use style="stroke:#000000;stroke-width:0.8;" x="576.084309" xlink:href="#me9dab9734e" y="386.198437"/>
      </g>
     </g>
     <g id="text_40">
      <!-- 2013 -->
      <g transform="translate(578.843684 418.648437)rotate(-90)scale(0.1 -0.1)">
       <use xlink:href="#DejaVuSans-32"/>
       <use x="63.623047" xlink:href="#DejaVuSans-30"/>
       <use x="127.246094" xlink:href="#DejaVuSans-31"/>
       <use x="190.869141" xlink:href="#DejaVuSans-33"/>
      </g>
     </g>
    </g>
    <g id="xtick_41">
     <g id="line2d_67">
      <g>
       <use style="stroke:#000000;stroke-width:0.8;" x="606.758313" xlink:href="#me9dab9734e" y="386.198437"/>
      </g>
     </g>
     <g id="text_41">
      <!-- 2014 -->
      <g transform="translate(609.517688 418.648437)rotate(-90)scale(0.1 -0.1)">
       <use xlink:href="#DejaVuSans-32"/>
       <use x="63.623047" xlink:href="#DejaVuSans-30"/>
       <use x="127.246094" xlink:href="#DejaVuSans-31"/>
       <use x="190.869141" xlink:href="#DejaVuSans-34"/>
      </g>
     </g>
    </g>
    <g id="xtick_42">
     <g id="line2d_68">
      <g>
       <use style="stroke:#000000;stroke-width:0.8;" x="637.432316" xlink:href="#me9dab9734e" y="386.198437"/>
      </g>
     </g>
     <g id="text_42">
      <!-- 2015 -->
      <g transform="translate(640.191691 418.648437)rotate(-90)scale(0.1 -0.1)">
       <use xlink:href="#DejaVuSans-32"/>
       <use x="63.623047" xlink:href="#DejaVuSans-30"/>
       <use x="127.246094" xlink:href="#DejaVuSans-31"/>
       <use x="190.869141" xlink:href="#DejaVuSans-35"/>
      </g>
     </g>
    </g>
    <g id="xtick_43">
     <g id="line2d_69">
      <g>
       <use style="stroke:#000000;stroke-width:0.8;" x="668.10632" xlink:href="#me9dab9734e" y="386.198437"/>
      </g>
     </g>
     <g id="text_43">
      <!-- 2016 -->
      <g transform="translate(670.865695 418.648437)rotate(-90)scale(0.1 -0.1)">
       <use xlink:href="#DejaVuSans-32"/>
       <use x="63.623047" xlink:href="#DejaVuSans-30"/>
       <use x="127.246094" xlink:href="#DejaVuSans-31"/>
       <use x="190.869141" xlink:href="#DejaVuSans-36"/>
      </g>
     </g>
    </g>
    <g id="xtick_44">
     <g id="line2d_70">
      <g>
       <use style="stroke:#000000;stroke-width:0.8;" x="698.780323" xlink:href="#me9dab9734e" y="386.198437"/>
      </g>
     </g>
     <g id="text_44">
      <!-- 2017 -->
      <g transform="translate(701.539698 418.648437)rotate(-90)scale(0.1 -0.1)">
       <use xlink:href="#DejaVuSans-32"/>
       <use x="63.623047" xlink:href="#DejaVuSans-30"/>
       <use x="127.246094" xlink:href="#DejaVuSans-31"/>
       <use x="190.869141" xlink:href="#DejaVuSans-37"/>
      </g>
     </g>
    </g>
    <g id="xtick_45">
     <g id="line2d_71">
      <g>
       <use style="stroke:#000000;stroke-width:0.8;" x="729.454327" xlink:href="#me9dab9734e" y="386.198437"/>
      </g>
     </g>
     <g id="text_45">
      <!-- 2018 -->
      <g transform="translate(732.213702 418.648437)rotate(-90)scale(0.1 -0.1)">
       <use xlink:href="#DejaVuSans-32"/>
       <use x="63.623047" xlink:href="#DejaVuSans-30"/>
       <use x="127.246094" xlink:href="#DejaVuSans-31"/>
       <use x="190.869141" xlink:href="#DejaVuSans-38"/>
      </g>
     </g>
    </g>
    <g id="xtick_46">
     <g id="line2d_72">
      <g>
       <use style="stroke:#000000;stroke-width:0.8;" x="760.128331" xlink:href="#me9dab9734e" y="386.198437"/>
      </g>
     </g>
     <g id="text_46">
      <!-- 2019 -->
      <g transform="translate(762.887706 418.648437)rotate(-90)scale(0.1 -0.1)">
       <use xlink:href="#DejaVuSans-32"/>
       <use x="63.623047" xlink:href="#DejaVuSans-30"/>
       <use x="127.246094" xlink:href="#DejaVuSans-31"/>
       <use x="190.869141" xlink:href="#DejaVuSans-39"/>
      </g>
     </g>
    </g>
    <g id="xtick_47">
     <g id="line2d_73">
      <g>
       <use style="stroke:#000000;stroke-width:0.8;" x="790.802334" xlink:href="#me9dab9734e" y="386.198437"/>
      </g>
     </g>
     <g id="text_47">
      <!-- 2020 -->
      <g transform="translate(793.561709 418.648437)rotate(-90)scale(0.1 -0.1)">
       <use xlink:href="#DejaVuSans-32"/>
       <use x="63.623047" xlink:href="#DejaVuSans-30"/>
       <use x="127.246094" xlink:href="#DejaVuSans-32"/>
       <use x="190.869141" xlink:href="#DejaVuSans-30"/>
      </g>
     </g>
    </g>
    <g id="xtick_48">
     <g id="line2d_74">
      <g>
       <use style="stroke:#000000;stroke-width:0.8;" x="821.476338" xlink:href="#me9dab9734e" y="386.198437"/>
      </g>
     </g>
     <g id="text_48">
      <!-- 2021 -->
      <g transform="translate(824.235713 418.648437)rotate(-90)scale(0.1 -0.1)">
       <use xlink:href="#DejaVuSans-32"/>
       <use x="63.623047" xlink:href="#DejaVuSans-30"/>
       <use x="127.246094" xlink:href="#DejaVuSans-32"/>
       <use x="190.869141" xlink:href="#DejaVuSans-31"/>
      </g>
     </g>
    </g>
    <g id="text_49">
     <!-- year -->
     <g transform="translate(641.613849 430.246875)scale(0.1 -0.1)">
      <use xlink:href="#DejaVuSans-79"/>
      <use x="59.179688" xlink:href="#DejaVuSans-65"/>
      <use x="120.703125" xlink:href="#DejaVuSans-61"/>
      <use x="181.982422" xlink:href="#DejaVuSans-72"/>
     </g>
    </g>
   </g>
   <g id="matplotlib.axis_8">
    <g id="ytick_18">
     <g id="line2d_75">
      <g>
       <use style="stroke:#000000;stroke-width:0.8;" x="467.191596" xlink:href="#mecc5da60bb" y="376.245751"/>
      </g>
     </g>
     <g id="text_50">
      <!-- 500 -->
      <g transform="translate(441.104096 380.044969)scale(0.1 -0.1)">
       <use xlink:href="#DejaVuSans-35"/>
       <use x="63.623047" xlink:href="#DejaVuSans-30"/>
       <use x="127.246094" xlink:href="#DejaVuSans-30"/>
      </g>
     </g>
    </g>
    <g id="ytick_19">
     <g id="line2d_76">
      <g>
       <use style="stroke:#000000;stroke-width:0.8;" x="467.191596" xlink:href="#mecc5da60bb" y="354.417748"/>
      </g>
     </g>
     <g id="text_51">
      <!-- 750 -->
      <g transform="translate(441.104096 358.216967)scale(0.1 -0.1)">
       <use xlink:href="#DejaVuSans-37"/>
       <use x="63.623047" xlink:href="#DejaVuSans-35"/>
       <use x="127.246094" xlink:href="#DejaVuSans-30"/>
      </g>
     </g>
    </g>
    <g id="ytick_20">
     <g id="line2d_77">
      <g>
       <use style="stroke:#000000;stroke-width:0.8;" x="467.191596" xlink:href="#mecc5da60bb" y="332.589746"/>
      </g>
     </g>
     <g id="text_52">
      <!-- 1000 -->
      <g transform="translate(434.741596 336.388965)scale(0.1 -0.1)">
       <use xlink:href="#DejaVuSans-31"/>
       <use x="63.623047" xlink:href="#DejaVuSans-30"/>
       <use x="127.246094" xlink:href="#DejaVuSans-30"/>
       <use x="190.869141" xlink:href="#DejaVuSans-30"/>
      </g>
     </g>
    </g>
    <g id="ytick_21">
     <g id="line2d_78">
      <g>
       <use style="stroke:#000000;stroke-width:0.8;" x="467.191596" xlink:href="#mecc5da60bb" y="310.761744"/>
      </g>
     </g>
     <g id="text_53">
      <!-- 1250 -->
      <g transform="translate(434.741596 314.560963)scale(0.1 -0.1)">
       <use xlink:href="#DejaVuSans-31"/>
       <use x="63.623047" xlink:href="#DejaVuSans-32"/>
       <use x="127.246094" xlink:href="#DejaVuSans-35"/>
       <use x="190.869141" xlink:href="#DejaVuSans-30"/>
      </g>
     </g>
    </g>
    <g id="ytick_22">
     <g id="line2d_79">
      <g>
       <use style="stroke:#000000;stroke-width:0.8;" x="467.191596" xlink:href="#mecc5da60bb" y="288.933741"/>
      </g>
     </g>
     <g id="text_54">
      <!-- 1500 -->
      <g transform="translate(434.741596 292.73296)scale(0.1 -0.1)">
       <use xlink:href="#DejaVuSans-31"/>
       <use x="63.623047" xlink:href="#DejaVuSans-35"/>
       <use x="127.246094" xlink:href="#DejaVuSans-30"/>
       <use x="190.869141" xlink:href="#DejaVuSans-30"/>
      </g>
     </g>
    </g>
    <g id="ytick_23">
     <g id="line2d_80">
      <g>
       <use style="stroke:#000000;stroke-width:0.8;" x="467.191596" xlink:href="#mecc5da60bb" y="267.105739"/>
      </g>
     </g>
     <g id="text_55">
      <!-- 1750 -->
      <g transform="translate(434.741596 270.904958)scale(0.1 -0.1)">
       <use xlink:href="#DejaVuSans-31"/>
       <use x="63.623047" xlink:href="#DejaVuSans-37"/>
       <use x="127.246094" xlink:href="#DejaVuSans-35"/>
       <use x="190.869141" xlink:href="#DejaVuSans-30"/>
      </g>
     </g>
    </g>
    <g id="ytick_24">
     <g id="line2d_81">
      <g>
       <use style="stroke:#000000;stroke-width:0.8;" x="467.191596" xlink:href="#mecc5da60bb" y="245.277737"/>
      </g>
     </g>
     <g id="text_56">
      <!-- 2000 -->
      <g transform="translate(434.741596 249.076956)scale(0.1 -0.1)">
       <use xlink:href="#DejaVuSans-32"/>
       <use x="63.623047" xlink:href="#DejaVuSans-30"/>
       <use x="127.246094" xlink:href="#DejaVuSans-30"/>
       <use x="190.869141" xlink:href="#DejaVuSans-30"/>
      </g>
     </g>
    </g>
    <g id="ytick_25">
     <g id="line2d_82">
      <g>
       <use style="stroke:#000000;stroke-width:0.8;" x="467.191596" xlink:href="#mecc5da60bb" y="223.449735"/>
      </g>
     </g>
     <g id="text_57">
      <!-- 2250 -->
      <g transform="translate(434.741596 227.248953)scale(0.1 -0.1)">
       <use xlink:href="#DejaVuSans-32"/>
       <use x="63.623047" xlink:href="#DejaVuSans-32"/>
       <use x="127.246094" xlink:href="#DejaVuSans-35"/>
       <use x="190.869141" xlink:href="#DejaVuSans-30"/>
      </g>
     </g>
    </g>
    <g id="text_58">
     <!-- mean deaths per week -->
     <g transform="translate(428.661909 359.3625)rotate(-90)scale(0.1 -0.1)">
      <use xlink:href="#DejaVuSans-6d"/>
      <use x="97.412109" xlink:href="#DejaVuSans-65"/>
      <use x="158.935547" xlink:href="#DejaVuSans-61"/>
      <use x="220.214844" xlink:href="#DejaVuSans-6e"/>
      <use x="283.59375" xlink:href="#DejaVuSans-20"/>
      <use x="315.380859" xlink:href="#DejaVuSans-64"/>
      <use x="378.857422" xlink:href="#DejaVuSans-65"/>
      <use x="440.380859" xlink:href="#DejaVuSans-61"/>
      <use x="501.660156" xlink:href="#DejaVuSans-74"/>
      <use x="540.869141" xlink:href="#DejaVuSans-68"/>
      <use x="604.248047" xlink:href="#DejaVuSans-73"/>
      <use x="656.347656" xlink:href="#DejaVuSans-20"/>
      <use x="688.134766" xlink:href="#DejaVuSans-70"/>
      <use x="751.611328" xlink:href="#DejaVuSans-65"/>
      <use x="813.134766" xlink:href="#DejaVuSans-72"/>
      <use x="854.248047" xlink:href="#DejaVuSans-20"/>
      <use x="886.035156" xlink:href="#DejaVuSans-77"/>
      <use x="967.822266" xlink:href="#DejaVuSans-65"/>
      <use x="1029.345703" xlink:href="#DejaVuSans-65"/>
      <use x="1090.869141" xlink:href="#DejaVuSans-6b"/>
     </g>
    </g>
   </g>
   <g id="line2d_83">
    <path clip-path="url(#p22d9289cee)" d="M 484.062298 300.524411 
L 514.736302 299.407824 
L 545.410305 292.973601 
L 576.084309 291.225682 
L 606.758313 293.337961 
L 637.432316 283.487449 
L 668.10632 282.341685 
L 698.780323 279.173266 
L 729.454327 276.21977 
L 760.128331 277.554636 
L 790.802334 259.694103 
L 821.476338 262.546306 
" style="fill:none;stroke:#1f77b4;stroke-linecap:square;stroke-opacity:0.7;stroke-width:1.5;"/>
   </g>
   <g id="line2d_84">
    <path clip-path="url(#p22d9289cee)" d="M 484.062298 373.624711 
L 514.736302 372.875843 
L 545.410305 369.831676 
L 576.084309 368.876281 
L 606.758313 369.391758 
L 637.432316 365.214784 
L 668.10632 363.946511 
L 698.780323 362.569668 
L 729.454327 360.668952 
L 760.128331 359.859637 
L 790.802334 350.529893 
L 821.476338 351.584563 
" style="fill:none;stroke:#ff7f0e;stroke-linecap:square;stroke-opacity:0.7;stroke-width:1.5;"/>
   </g>
   <g id="line2d_85">
    <path clip-path="url(#p22d9289cee)" d="M 484.062298 346.801455 
L 514.736302 346.433737 
L 545.410305 343.04368 
L 576.084309 342.251156 
L 606.758313 343.847958 
L 637.432316 338.17442 
L 668.10632 338.296929 
L 698.780323 336.505354 
L 729.454327 335.452573 
L 760.128331 337.596754 
L 790.802334 329.065965 
L 821.476338 331.873431 
" style="fill:none;stroke:#2ca02c;stroke-linecap:square;stroke-opacity:0.7;stroke-width:1.5;"/>
   </g>
   <g id="patch_12">
    <path d="M 467.191596 386.198437 
L 467.191596 217.648437 
" style="fill:none;stroke:#000000;stroke-linecap:square;stroke-linejoin:miter;stroke-width:0.8;"/>
   </g>
   <g id="patch_13">
    <path d="M 467.191596 386.198437 
L 838.34704 386.198437 
" style="fill:none;stroke:#000000;stroke-linecap:square;stroke-linejoin:miter;stroke-width:0.8;"/>
   </g>
   <g id="text_59">
    <!-- age = 80 jaar of ouder -->
    <g transform="translate(596.030256 211.648437)scale(0.1 -0.1)">
     <defs>
      <path d="M 544 1381 
L 544 3500 
L 1119 3500 
L 1119 1403 
Q 1119 906 1312 657 
Q 1506 409 1894 409 
Q 2359 409 2629 706 
Q 2900 1003 2900 1516 
L 2900 3500 
L 3475 3500 
L 3475 0 
L 2900 0 
L 2900 538 
Q 2691 219 2414 64 
Q 2138 -91 1772 -91 
Q 1169 -91 856 284 
Q 544 659 544 1381 
z
M 1991 3584 
L 1991 3584 
z
" id="DejaVuSans-75" transform="scale(0.015625)"/>
     </defs>
     <use xlink:href="#DejaVuSans-61"/>
     <use x="61.279297" xlink:href="#DejaVuSans-67"/>
     <use x="124.755859" xlink:href="#DejaVuSans-65"/>
     <use x="186.279297" xlink:href="#DejaVuSans-20"/>
     <use x="218.066406" xlink:href="#DejaVuSans-3d"/>
     <use x="301.855469" xlink:href="#DejaVuSans-20"/>
     <use x="333.642578" xlink:href="#DejaVuSans-38"/>
     <use x="397.265625" xlink:href="#DejaVuSans-30"/>
     <use x="460.888672" xlink:href="#DejaVuSans-20"/>
     <use x="492.675781" xlink:href="#DejaVuSans-6a"/>
     <use x="520.458984" xlink:href="#DejaVuSans-61"/>
     <use x="581.738281" xlink:href="#DejaVuSans-61"/>
     <use x="643.017578" xlink:href="#DejaVuSans-72"/>
     <use x="684.130859" xlink:href="#DejaVuSans-20"/>
     <use x="715.917969" xlink:href="#DejaVuSans-6f"/>
     <use x="777.099609" xlink:href="#DejaVuSans-66"/>
     <use x="812.304688" xlink:href="#DejaVuSans-20"/>
     <use x="844.091797" xlink:href="#DejaVuSans-6f"/>
     <use x="905.273438" xlink:href="#DejaVuSans-75"/>
     <use x="968.652344" xlink:href="#DejaVuSans-64"/>
     <use x="1032.128906" xlink:href="#DejaVuSans-65"/>
     <use x="1093.652344" xlink:href="#DejaVuSans-72"/>
    </g>
   </g>
  </g>
  <g id="legend_1">
   <g id="line2d_86">
    <path d="M 849.300477 204.344531 
L 869.300477 204.344531 
" style="fill:none;stroke:#1f77b4;stroke-linecap:square;stroke-opacity:0.7;stroke-width:1.5;"/>
   </g>
   <g id="line2d_87"/>
   <g id="text_60">
    <!-- Totaal mannen en vrouwen -->
    <g transform="translate(877.300477 207.844531)scale(0.1 -0.1)">
     <defs>
      <path d="M 191 3500 
L 800 3500 
L 1894 563 
L 2988 3500 
L 3597 3500 
L 2284 0 
L 1503 0 
L 191 3500 
z
" id="DejaVuSans-76" transform="scale(0.015625)"/>
     </defs>
     <use xlink:href="#DejaVuSans-54"/>
     <use x="44.083984" xlink:href="#DejaVuSans-6f"/>
     <use x="105.265625" xlink:href="#DejaVuSans-74"/>
     <use x="144.474609" xlink:href="#DejaVuSans-61"/>
     <use x="205.753906" xlink:href="#DejaVuSans-61"/>
     <use x="267.033203" xlink:href="#DejaVuSans-6c"/>
     <use x="294.816406" xlink:href="#DejaVuSans-20"/>
     <use x="326.603516" xlink:href="#DejaVuSans-6d"/>
     <use x="424.015625" xlink:href="#DejaVuSans-61"/>
     <use x="485.294922" xlink:href="#DejaVuSans-6e"/>
     <use x="548.673828" xlink:href="#DejaVuSans-6e"/>
     <use x="612.052734" xlink:href="#DejaVuSans-65"/>
     <use x="673.576172" xlink:href="#DejaVuSans-6e"/>
     <use x="736.955078" xlink:href="#DejaVuSans-20"/>
     <use x="768.742188" xlink:href="#DejaVuSans-65"/>
     <use x="830.265625" xlink:href="#DejaVuSans-6e"/>
     <use x="893.644531" xlink:href="#DejaVuSans-20"/>
     <use x="925.431641" xlink:href="#DejaVuSans-76"/>
     <use x="984.611328" xlink:href="#DejaVuSans-72"/>
     <use x="1023.474609" xlink:href="#DejaVuSans-6f"/>
     <use x="1084.65625" xlink:href="#DejaVuSans-75"/>
     <use x="1148.035156" xlink:href="#DejaVuSans-77"/>
     <use x="1229.822266" xlink:href="#DejaVuSans-65"/>
     <use x="1291.345703" xlink:href="#DejaVuSans-6e"/>
    </g>
   </g>
   <g id="line2d_88">
    <path d="M 849.300477 219.022656 
L 869.300477 219.022656 
" style="fill:none;stroke:#ff7f0e;stroke-linecap:square;stroke-opacity:0.7;stroke-width:1.5;"/>
   </g>
   <g id="line2d_89"/>
   <g id="text_61">
    <!-- Mannen -->
    <g transform="translate(877.300477 222.522656)scale(0.1 -0.1)">
     <defs>
      <path d="M 628 4666 
L 1569 4666 
L 2759 1491 
L 3956 4666 
L 4897 4666 
L 4897 0 
L 4281 0 
L 4281 4097 
L 3078 897 
L 2444 897 
L 1241 4097 
L 1241 0 
L 628 0 
L 628 4666 
z
" id="DejaVuSans-4d" transform="scale(0.015625)"/>
     </defs>
     <use xlink:href="#DejaVuSans-4d"/>
     <use x="86.279297" xlink:href="#DejaVuSans-61"/>
     <use x="147.558594" xlink:href="#DejaVuSans-6e"/>
     <use x="210.9375" xlink:href="#DejaVuSans-6e"/>
     <use x="274.316406" xlink:href="#DejaVuSans-65"/>
     <use x="335.839844" xlink:href="#DejaVuSans-6e"/>
    </g>
   </g>
   <g id="line2d_90">
    <path d="M 849.300477 233.700781 
L 869.300477 233.700781 
" style="fill:none;stroke:#2ca02c;stroke-linecap:square;stroke-opacity:0.7;stroke-width:1.5;"/>
   </g>
   <g id="line2d_91"/>
   <g id="text_62">
    <!-- Vrouwen -->
    <g transform="translate(877.300477 237.200781)scale(0.1 -0.1)">
     <defs>
      <path d="M 1831 0 
L 50 4666 
L 709 4666 
L 2188 738 
L 3669 4666 
L 4325 4666 
L 2547 0 
L 1831 0 
z
" id="DejaVuSans-56" transform="scale(0.015625)"/>
     </defs>
     <use xlink:href="#DejaVuSans-56"/>
     <use x="68.408203" xlink:href="#DejaVuSans-72"/>
     <use x="107.271484" xlink:href="#DejaVuSans-6f"/>
     <use x="168.453125" xlink:href="#DejaVuSans-75"/>
     <use x="231.832031" xlink:href="#DejaVuSans-77"/>
     <use x="313.619141" xlink:href="#DejaVuSans-65"/>
     <use x="375.142578" xlink:href="#DejaVuSans-6e"/>
    </g>
   </g>
  </g>
 </g>
 <defs>
  <clipPath id="pce6a1ed9d0">
   <rect height="168.55" width="371.155444" x="53.328125" y="20.798437"/>
  </clipPath>
  <clipPath id="p8d10baab25">
   <rect height="168.55" width="371.155444" x="467.191596" y="20.798437"/>
  </clipPath>
  <clipPath id="pd5d869d1ef">
   <rect height="168.55" width="371.155444" x="53.328125" y="217.648437"/>
  </clipPath>
  <clipPath id="p22d9289cee">
   <rect height="168.55" width="371.155444" x="467.191596" y="217.648437"/>
  </clipPath>
 </defs>
</svg>
