<?xml version="1.0" encoding="utf-8" standalone="no"?>
<!DOCTYPE svg PUBLIC "-//W3C//DTD SVG 1.1//EN"
  "http://www.w3.org/Graphics/SVG/1.1/DTD/svg11.dtd">
<svg xmlns:xlink="http://www.w3.org/1999/xlink" width="1022.070233pt" height="439.526562pt" viewBox="0 0 1022.070233 439.526562" xmlns="http://www.w3.org/2000/svg" version="1.1">
 <metadata>
  <rdf:RDF xmlns:dc="http://purl.org/dc/elements/1.1/" xmlns:cc="http://creativecommons.org/ns#" xmlns:rdf="http://www.w3.org/1999/02/22-rdf-syntax-ns#">
   <cc:Work>
    <dc:type rdf:resource="http://purl.org/dc/dcmitype/StillImage"/>
    <dc:date>2022-01-14T07:56:19.379642</dc:date>
    <dc:format>image/svg+xml</dc:format>
    <dc:creator>
     <cc:Agent>
      <dc:title>Matplotlib v3.5.1, https://matplotlib.org/</dc:title>
     </cc:Agent>
    </dc:creator>
   </cc:Work>
  </rdf:RDF>
 </metadata>
 <defs>
  <style type="text/css">*{stroke-linejoin: round; stroke-linecap: butt}</style>
 </defs>
 <g id="figure_1">
  <g id="patch_1">
   <path d="M 0 439.526562 
L 1022.070233 439.526562 
L 1022.070233 0 
L 0 0 
z
" style="fill: #ffffff"/>
  </g>
  <g id="axes_1">
   <g id="patch_2">
    <path d="M 53.328125 189.348437 
L 424.693502 189.348437 
L 424.693502 20.798437 
L 53.328125 20.798437 
z
" style="fill: #ffffff"/>
   </g>
   <g id="PolyCollection_1">
    <defs>
     <path id="m27fafff4a6" d="M 70.208369 -350.696224 
L 70.208369 -330.95355 
L 98.34211 -332.24343 
L 126.475851 -334.640846 
L 154.609592 -331.022149 
L 182.743332 -335.297326 
L 210.877073 -337.159122 
L 239.010814 -341.50968 
L 267.144554 -338.002454 
L 295.278295 -337.313899 
L 323.412036 -346.387189 
L 351.545777 -342.850433 
L 379.679517 -352.8399 
L 379.679517 -405.434303 
L 379.679517 -405.434303 
L 351.545777 -411.066761 
L 323.412036 -370.529714 
L 295.278295 -382.785538 
L 267.144554 -375.030148 
L 239.010814 -368.078901 
L 210.877073 -369.5502 
L 182.743332 -352.938775 
L 154.609592 -362.175487 
L 126.475851 -356.623579 
L 98.34211 -348.568247 
L 70.208369 -350.696224 
z
" style="stroke: #1f77b4; stroke-opacity: 0.2"/>
    </defs>
    <g clip-path="url(#p3dee729350)">
     <use xlink:href="#m27fafff4a6" x="0" y="439.526562" style="fill: #1f77b4; fill-opacity: 0.2; stroke: #1f77b4; stroke-opacity: 0.2"/>
    </g>
   </g>
   <g id="PolyCollection_2">
    <defs>
     <path id="m6c2f6823ec" d="M 70.208369 -267.374296 
L 70.208369 -258.125687 
L 98.34211 -257.839489 
L 126.475851 -259.551345 
L 154.609592 -258.188384 
L 182.743332 -259.204546 
L 210.877073 -261.556423 
L 239.010814 -263.078257 
L 267.144554 -262.139844 
L 295.278295 -262.422362 
L 323.412036 -266.238361 
L 351.545777 -264.428225 
L 379.679517 -270.693184 
L 379.679517 -298.090606 
L 379.679517 -298.090606 
L 351.545777 -301.679305 
L 323.412036 -278.030528 
L 295.278295 -282.016382 
L 267.144554 -278.121824 
L 239.010814 -275.645781 
L 210.877073 -275.332616 
L 182.743332 -268.626465 
L 154.609592 -272.527916 
L 126.475851 -269.750247 
L 98.34211 -265.899373 
L 70.208369 -267.374296 
z
" style="stroke: #ff7f0e; stroke-opacity: 0.2"/>
    </defs>
    <g clip-path="url(#p3dee729350)">
     <use xlink:href="#m6c2f6823ec" x="0" y="439.526562" style="fill: #ff7f0e; fill-opacity: 0.2; stroke: #ff7f0e; stroke-opacity: 0.2"/>
    </g>
   </g>
   <g id="PolyCollection_3">
    <defs>
     <path id="m6edaab8346" d="M 70.208369 -272.969524 
L 70.208369 -261.543914 
L 98.34211 -262.97255 
L 126.475851 -263.887474 
L 154.609592 -261.656494 
L 182.743332 -264.779286 
L 210.877073 -264.482143 
L 239.010814 -267.224328 
L 267.144554 -264.806941 
L 295.278295 -263.853796 
L 323.412036 -268.925811 
L 351.545777 -267.315887 
L 379.679517 -271.051397 
L 379.679517 -296.802664 
L 379.679517 -296.802664 
L 351.545777 -298.857425 
L 323.412036 -282.08585 
L 295.278295 -290.170544 
L 267.144554 -286.327641 
L 239.010814 -282.003862 
L 210.877073 -283.701789 
L 182.743332 -273.989451 
L 154.609592 -279.188489 
L 126.475851 -276.439007 
L 98.34211 -272.463913 
L 70.208369 -272.969524 
z
" style="stroke: #2ca02c; stroke-opacity: 0.2"/>
    </defs>
    <g clip-path="url(#p3dee729350)">
     <use xlink:href="#m6edaab8346" x="0" y="439.526562" style="fill: #2ca02c; fill-opacity: 0.2; stroke: #2ca02c; stroke-opacity: 0.2"/>
    </g>
   </g>
   <g id="matplotlib.axis_1">
    <g id="xtick_1">
     <g id="line2d_1">
      <defs>
       <path id="m1a2d36cc12" d="M 0 0 
L 0 3.5 
" style="stroke: #000000; stroke-width: 0.8"/>
      </defs>
      <g>
       <use xlink:href="#m1a2d36cc12" x="70.208369" y="189.348437" style="stroke: #000000; stroke-width: 0.8"/>
      </g>
     </g>
    </g>
    <g id="xtick_2">
     <g id="line2d_2">
      <g>
       <use xlink:href="#m1a2d36cc12" x="98.34211" y="189.348437" style="stroke: #000000; stroke-width: 0.8"/>
      </g>
     </g>
    </g>
    <g id="xtick_3">
     <g id="line2d_3">
      <g>
       <use xlink:href="#m1a2d36cc12" x="126.475851" y="189.348437" style="stroke: #000000; stroke-width: 0.8"/>
      </g>
     </g>
    </g>
    <g id="xtick_4">
     <g id="line2d_4">
      <g>
       <use xlink:href="#m1a2d36cc12" x="154.609592" y="189.348437" style="stroke: #000000; stroke-width: 0.8"/>
      </g>
     </g>
    </g>
    <g id="xtick_5">
     <g id="line2d_5">
      <g>
       <use xlink:href="#m1a2d36cc12" x="182.743332" y="189.348437" style="stroke: #000000; stroke-width: 0.8"/>
      </g>
     </g>
    </g>
    <g id="xtick_6">
     <g id="line2d_6">
      <g>
       <use xlink:href="#m1a2d36cc12" x="210.877073" y="189.348437" style="stroke: #000000; stroke-width: 0.8"/>
      </g>
     </g>
    </g>
    <g id="xtick_7">
     <g id="line2d_7">
      <g>
       <use xlink:href="#m1a2d36cc12" x="239.010814" y="189.348437" style="stroke: #000000; stroke-width: 0.8"/>
      </g>
     </g>
    </g>
    <g id="xtick_8">
     <g id="line2d_8">
      <g>
       <use xlink:href="#m1a2d36cc12" x="267.144554" y="189.348437" style="stroke: #000000; stroke-width: 0.8"/>
      </g>
     </g>
    </g>
    <g id="xtick_9">
     <g id="line2d_9">
      <g>
       <use xlink:href="#m1a2d36cc12" x="295.278295" y="189.348437" style="stroke: #000000; stroke-width: 0.8"/>
      </g>
     </g>
    </g>
    <g id="xtick_10">
     <g id="line2d_10">
      <g>
       <use xlink:href="#m1a2d36cc12" x="323.412036" y="189.348437" style="stroke: #000000; stroke-width: 0.8"/>
      </g>
     </g>
    </g>
    <g id="xtick_11">
     <g id="line2d_11">
      <g>
       <use xlink:href="#m1a2d36cc12" x="351.545777" y="189.348437" style="stroke: #000000; stroke-width: 0.8"/>
      </g>
     </g>
    </g>
    <g id="xtick_12">
     <g id="line2d_12">
      <g>
       <use xlink:href="#m1a2d36cc12" x="379.679517" y="189.348437" style="stroke: #000000; stroke-width: 0.8"/>
      </g>
     </g>
    </g>
    <g id="xtick_13">
     <g id="line2d_13">
      <g>
       <use xlink:href="#m1a2d36cc12" x="407.813258" y="189.348437" style="stroke: #000000; stroke-width: 0.8"/>
      </g>
     </g>
    </g>
   </g>
   <g id="matplotlib.axis_2">
    <g id="ytick_1">
     <g id="line2d_14">
      <defs>
       <path id="m39e9079217" d="M 0 0 
L -3.5 0 
" style="stroke: #000000; stroke-width: 0.8"/>
      </defs>
      <g>
       <use xlink:href="#m39e9079217" x="53.328125" y="163.182635" style="stroke: #000000; stroke-width: 0.8"/>
      </g>
     </g>
     <g id="text_1">
      <!-- 1500 -->
      <g transform="translate(20.878125 166.981854)scale(0.1 -0.1)">
       <defs>
        <path id="DejaVuSans-31" d="M 794 531 
L 1825 531 
L 1825 4091 
L 703 3866 
L 703 4441 
L 1819 4666 
L 2450 4666 
L 2450 531 
L 3481 531 
L 3481 0 
L 794 0 
L 794 531 
z
" transform="scale(0.015625)"/>
        <path id="DejaVuSans-35" d="M 691 4666 
L 3169 4666 
L 3169 4134 
L 1269 4134 
L 1269 2991 
Q 1406 3038 1543 3061 
Q 1681 3084 1819 3084 
Q 2600 3084 3056 2656 
Q 3513 2228 3513 1497 
Q 3513 744 3044 326 
Q 2575 -91 1722 -91 
Q 1428 -91 1123 -41 
Q 819 9 494 109 
L 494 744 
Q 775 591 1075 516 
Q 1375 441 1709 441 
Q 2250 441 2565 725 
Q 2881 1009 2881 1497 
Q 2881 1984 2565 2268 
Q 2250 2553 1709 2553 
Q 1456 2553 1204 2497 
Q 953 2441 691 2322 
L 691 4666 
z
" transform="scale(0.015625)"/>
        <path id="DejaVuSans-30" d="M 2034 4250 
Q 1547 4250 1301 3770 
Q 1056 3291 1056 2328 
Q 1056 1369 1301 889 
Q 1547 409 2034 409 
Q 2525 409 2770 889 
Q 3016 1369 3016 2328 
Q 3016 3291 2770 3770 
Q 2525 4250 2034 4250 
z
M 2034 4750 
Q 2819 4750 3233 4129 
Q 3647 3509 3647 2328 
Q 3647 1150 3233 529 
Q 2819 -91 2034 -91 
Q 1250 -91 836 529 
Q 422 1150 422 2328 
Q 422 3509 836 4129 
Q 1250 4750 2034 4750 
z
" transform="scale(0.015625)"/>
       </defs>
       <use xlink:href="#DejaVuSans-31"/>
       <use xlink:href="#DejaVuSans-35" x="63.623047"/>
       <use xlink:href="#DejaVuSans-30" x="127.246094"/>
       <use xlink:href="#DejaVuSans-30" x="190.869141"/>
      </g>
     </g>
    </g>
    <g id="ytick_2">
     <g id="line2d_15">
      <g>
       <use xlink:href="#m39e9079217" x="53.328125" y="134.128601" style="stroke: #000000; stroke-width: 0.8"/>
      </g>
     </g>
     <g id="text_2">
      <!-- 2000 -->
      <g transform="translate(20.878125 137.927819)scale(0.1 -0.1)">
       <defs>
        <path id="DejaVuSans-32" d="M 1228 531 
L 3431 531 
L 3431 0 
L 469 0 
L 469 531 
Q 828 903 1448 1529 
Q 2069 2156 2228 2338 
Q 2531 2678 2651 2914 
Q 2772 3150 2772 3378 
Q 2772 3750 2511 3984 
Q 2250 4219 1831 4219 
Q 1534 4219 1204 4116 
Q 875 4013 500 3803 
L 500 4441 
Q 881 4594 1212 4672 
Q 1544 4750 1819 4750 
Q 2544 4750 2975 4387 
Q 3406 4025 3406 3419 
Q 3406 3131 3298 2873 
Q 3191 2616 2906 2266 
Q 2828 2175 2409 1742 
Q 1991 1309 1228 531 
z
" transform="scale(0.015625)"/>
       </defs>
       <use xlink:href="#DejaVuSans-32"/>
       <use xlink:href="#DejaVuSans-30" x="63.623047"/>
       <use xlink:href="#DejaVuSans-30" x="127.246094"/>
       <use xlink:href="#DejaVuSans-30" x="190.869141"/>
      </g>
     </g>
    </g>
    <g id="ytick_3">
     <g id="line2d_16">
      <g>
       <use xlink:href="#m39e9079217" x="53.328125" y="105.074566" style="stroke: #000000; stroke-width: 0.8"/>
      </g>
     </g>
     <g id="text_3">
      <!-- 2500 -->
      <g transform="translate(20.878125 108.873785)scale(0.1 -0.1)">
       <use xlink:href="#DejaVuSans-32"/>
       <use xlink:href="#DejaVuSans-35" x="63.623047"/>
       <use xlink:href="#DejaVuSans-30" x="127.246094"/>
       <use xlink:href="#DejaVuSans-30" x="190.869141"/>
      </g>
     </g>
    </g>
    <g id="ytick_4">
     <g id="line2d_17">
      <g>
       <use xlink:href="#m39e9079217" x="53.328125" y="76.020531" style="stroke: #000000; stroke-width: 0.8"/>
      </g>
     </g>
     <g id="text_4">
      <!-- 3000 -->
      <g transform="translate(20.878125 79.81975)scale(0.1 -0.1)">
       <defs>
        <path id="DejaVuSans-33" d="M 2597 2516 
Q 3050 2419 3304 2112 
Q 3559 1806 3559 1356 
Q 3559 666 3084 287 
Q 2609 -91 1734 -91 
Q 1441 -91 1130 -33 
Q 819 25 488 141 
L 488 750 
Q 750 597 1062 519 
Q 1375 441 1716 441 
Q 2309 441 2620 675 
Q 2931 909 2931 1356 
Q 2931 1769 2642 2001 
Q 2353 2234 1838 2234 
L 1294 2234 
L 1294 2753 
L 1863 2753 
Q 2328 2753 2575 2939 
Q 2822 3125 2822 3475 
Q 2822 3834 2567 4026 
Q 2313 4219 1838 4219 
Q 1578 4219 1281 4162 
Q 984 4106 628 3988 
L 628 4550 
Q 988 4650 1302 4700 
Q 1616 4750 1894 4750 
Q 2613 4750 3031 4423 
Q 3450 4097 3450 3541 
Q 3450 3153 3228 2886 
Q 3006 2619 2597 2516 
z
" transform="scale(0.015625)"/>
       </defs>
       <use xlink:href="#DejaVuSans-33"/>
       <use xlink:href="#DejaVuSans-30" x="63.623047"/>
       <use xlink:href="#DejaVuSans-30" x="127.246094"/>
       <use xlink:href="#DejaVuSans-30" x="190.869141"/>
      </g>
     </g>
    </g>
    <g id="ytick_5">
     <g id="line2d_18">
      <g>
       <use xlink:href="#m39e9079217" x="53.328125" y="46.966497" style="stroke: #000000; stroke-width: 0.8"/>
      </g>
     </g>
     <g id="text_5">
      <!-- 3500 -->
      <g transform="translate(20.878125 50.765716)scale(0.1 -0.1)">
       <use xlink:href="#DejaVuSans-33"/>
       <use xlink:href="#DejaVuSans-35" x="63.623047"/>
       <use xlink:href="#DejaVuSans-30" x="127.246094"/>
       <use xlink:href="#DejaVuSans-30" x="190.869141"/>
      </g>
     </g>
    </g>
    <g id="text_6">
     <!-- mean deaths per week -->
     <g transform="translate(14.798438 162.5125)rotate(-90)scale(0.1 -0.1)">
      <defs>
       <path id="DejaVuSans-6d" d="M 3328 2828 
Q 3544 3216 3844 3400 
Q 4144 3584 4550 3584 
Q 5097 3584 5394 3201 
Q 5691 2819 5691 2113 
L 5691 0 
L 5113 0 
L 5113 2094 
Q 5113 2597 4934 2840 
Q 4756 3084 4391 3084 
Q 3944 3084 3684 2787 
Q 3425 2491 3425 1978 
L 3425 0 
L 2847 0 
L 2847 2094 
Q 2847 2600 2669 2842 
Q 2491 3084 2119 3084 
Q 1678 3084 1418 2786 
Q 1159 2488 1159 1978 
L 1159 0 
L 581 0 
L 581 3500 
L 1159 3500 
L 1159 2956 
Q 1356 3278 1631 3431 
Q 1906 3584 2284 3584 
Q 2666 3584 2933 3390 
Q 3200 3197 3328 2828 
z
" transform="scale(0.015625)"/>
       <path id="DejaVuSans-65" d="M 3597 1894 
L 3597 1613 
L 953 1613 
Q 991 1019 1311 708 
Q 1631 397 2203 397 
Q 2534 397 2845 478 
Q 3156 559 3463 722 
L 3463 178 
Q 3153 47 2828 -22 
Q 2503 -91 2169 -91 
Q 1331 -91 842 396 
Q 353 884 353 1716 
Q 353 2575 817 3079 
Q 1281 3584 2069 3584 
Q 2775 3584 3186 3129 
Q 3597 2675 3597 1894 
z
M 3022 2063 
Q 3016 2534 2758 2815 
Q 2500 3097 2075 3097 
Q 1594 3097 1305 2825 
Q 1016 2553 972 2059 
L 3022 2063 
z
" transform="scale(0.015625)"/>
       <path id="DejaVuSans-61" d="M 2194 1759 
Q 1497 1759 1228 1600 
Q 959 1441 959 1056 
Q 959 750 1161 570 
Q 1363 391 1709 391 
Q 2188 391 2477 730 
Q 2766 1069 2766 1631 
L 2766 1759 
L 2194 1759 
z
M 3341 1997 
L 3341 0 
L 2766 0 
L 2766 531 
Q 2569 213 2275 61 
Q 1981 -91 1556 -91 
Q 1019 -91 701 211 
Q 384 513 384 1019 
Q 384 1609 779 1909 
Q 1175 2209 1959 2209 
L 2766 2209 
L 2766 2266 
Q 2766 2663 2505 2880 
Q 2244 3097 1772 3097 
Q 1472 3097 1187 3025 
Q 903 2953 641 2809 
L 641 3341 
Q 956 3463 1253 3523 
Q 1550 3584 1831 3584 
Q 2591 3584 2966 3190 
Q 3341 2797 3341 1997 
z
" transform="scale(0.015625)"/>
       <path id="DejaVuSans-6e" d="M 3513 2113 
L 3513 0 
L 2938 0 
L 2938 2094 
Q 2938 2591 2744 2837 
Q 2550 3084 2163 3084 
Q 1697 3084 1428 2787 
Q 1159 2491 1159 1978 
L 1159 0 
L 581 0 
L 581 3500 
L 1159 3500 
L 1159 2956 
Q 1366 3272 1645 3428 
Q 1925 3584 2291 3584 
Q 2894 3584 3203 3211 
Q 3513 2838 3513 2113 
z
" transform="scale(0.015625)"/>
       <path id="DejaVuSans-20" transform="scale(0.015625)"/>
       <path id="DejaVuSans-64" d="M 2906 2969 
L 2906 4863 
L 3481 4863 
L 3481 0 
L 2906 0 
L 2906 525 
Q 2725 213 2448 61 
Q 2172 -91 1784 -91 
Q 1150 -91 751 415 
Q 353 922 353 1747 
Q 353 2572 751 3078 
Q 1150 3584 1784 3584 
Q 2172 3584 2448 3432 
Q 2725 3281 2906 2969 
z
M 947 1747 
Q 947 1113 1208 752 
Q 1469 391 1925 391 
Q 2381 391 2643 752 
Q 2906 1113 2906 1747 
Q 2906 2381 2643 2742 
Q 2381 3103 1925 3103 
Q 1469 3103 1208 2742 
Q 947 2381 947 1747 
z
" transform="scale(0.015625)"/>
       <path id="DejaVuSans-74" d="M 1172 4494 
L 1172 3500 
L 2356 3500 
L 2356 3053 
L 1172 3053 
L 1172 1153 
Q 1172 725 1289 603 
Q 1406 481 1766 481 
L 2356 481 
L 2356 0 
L 1766 0 
Q 1100 0 847 248 
Q 594 497 594 1153 
L 594 3053 
L 172 3053 
L 172 3500 
L 594 3500 
L 594 4494 
L 1172 4494 
z
" transform="scale(0.015625)"/>
       <path id="DejaVuSans-68" d="M 3513 2113 
L 3513 0 
L 2938 0 
L 2938 2094 
Q 2938 2591 2744 2837 
Q 2550 3084 2163 3084 
Q 1697 3084 1428 2787 
Q 1159 2491 1159 1978 
L 1159 0 
L 581 0 
L 581 4863 
L 1159 4863 
L 1159 2956 
Q 1366 3272 1645 3428 
Q 1925 3584 2291 3584 
Q 2894 3584 3203 3211 
Q 3513 2838 3513 2113 
z
" transform="scale(0.015625)"/>
       <path id="DejaVuSans-73" d="M 2834 3397 
L 2834 2853 
Q 2591 2978 2328 3040 
Q 2066 3103 1784 3103 
Q 1356 3103 1142 2972 
Q 928 2841 928 2578 
Q 928 2378 1081 2264 
Q 1234 2150 1697 2047 
L 1894 2003 
Q 2506 1872 2764 1633 
Q 3022 1394 3022 966 
Q 3022 478 2636 193 
Q 2250 -91 1575 -91 
Q 1294 -91 989 -36 
Q 684 19 347 128 
L 347 722 
Q 666 556 975 473 
Q 1284 391 1588 391 
Q 1994 391 2212 530 
Q 2431 669 2431 922 
Q 2431 1156 2273 1281 
Q 2116 1406 1581 1522 
L 1381 1569 
Q 847 1681 609 1914 
Q 372 2147 372 2553 
Q 372 3047 722 3315 
Q 1072 3584 1716 3584 
Q 2034 3584 2315 3537 
Q 2597 3491 2834 3397 
z
" transform="scale(0.015625)"/>
       <path id="DejaVuSans-70" d="M 1159 525 
L 1159 -1331 
L 581 -1331 
L 581 3500 
L 1159 3500 
L 1159 2969 
Q 1341 3281 1617 3432 
Q 1894 3584 2278 3584 
Q 2916 3584 3314 3078 
Q 3713 2572 3713 1747 
Q 3713 922 3314 415 
Q 2916 -91 2278 -91 
Q 1894 -91 1617 61 
Q 1341 213 1159 525 
z
M 3116 1747 
Q 3116 2381 2855 2742 
Q 2594 3103 2138 3103 
Q 1681 3103 1420 2742 
Q 1159 2381 1159 1747 
Q 1159 1113 1420 752 
Q 1681 391 2138 391 
Q 2594 391 2855 752 
Q 3116 1113 3116 1747 
z
" transform="scale(0.015625)"/>
       <path id="DejaVuSans-72" d="M 2631 2963 
Q 2534 3019 2420 3045 
Q 2306 3072 2169 3072 
Q 1681 3072 1420 2755 
Q 1159 2438 1159 1844 
L 1159 0 
L 581 0 
L 581 3500 
L 1159 3500 
L 1159 2956 
Q 1341 3275 1631 3429 
Q 1922 3584 2338 3584 
Q 2397 3584 2469 3576 
Q 2541 3569 2628 3553 
L 2631 2963 
z
" transform="scale(0.015625)"/>
       <path id="DejaVuSans-77" d="M 269 3500 
L 844 3500 
L 1563 769 
L 2278 3500 
L 2956 3500 
L 3675 769 
L 4391 3500 
L 4966 3500 
L 4050 0 
L 3372 0 
L 2619 2869 
L 1863 0 
L 1184 0 
L 269 3500 
z
" transform="scale(0.015625)"/>
       <path id="DejaVuSans-6b" d="M 581 4863 
L 1159 4863 
L 1159 1991 
L 2875 3500 
L 3609 3500 
L 1753 1863 
L 3688 0 
L 2938 0 
L 1159 1709 
L 1159 0 
L 581 0 
L 581 4863 
z
" transform="scale(0.015625)"/>
      </defs>
      <use xlink:href="#DejaVuSans-6d"/>
      <use xlink:href="#DejaVuSans-65" x="97.412109"/>
      <use xlink:href="#DejaVuSans-61" x="158.935547"/>
      <use xlink:href="#DejaVuSans-6e" x="220.214844"/>
      <use xlink:href="#DejaVuSans-20" x="283.59375"/>
      <use xlink:href="#DejaVuSans-64" x="315.380859"/>
      <use xlink:href="#DejaVuSans-65" x="378.857422"/>
      <use xlink:href="#DejaVuSans-61" x="440.380859"/>
      <use xlink:href="#DejaVuSans-74" x="501.660156"/>
      <use xlink:href="#DejaVuSans-68" x="540.869141"/>
      <use xlink:href="#DejaVuSans-73" x="604.248047"/>
      <use xlink:href="#DejaVuSans-20" x="656.347656"/>
      <use xlink:href="#DejaVuSans-70" x="688.134766"/>
      <use xlink:href="#DejaVuSans-65" x="751.611328"/>
      <use xlink:href="#DejaVuSans-72" x="813.134766"/>
      <use xlink:href="#DejaVuSans-20" x="854.248047"/>
      <use xlink:href="#DejaVuSans-77" x="886.035156"/>
      <use xlink:href="#DejaVuSans-65" x="967.822266"/>
      <use xlink:href="#DejaVuSans-65" x="1029.345703"/>
      <use xlink:href="#DejaVuSans-6b" x="1090.869141"/>
     </g>
    </g>
   </g>
   <g id="line2d_19">
    <path d="M 70.208369 98.701675 
L 98.34211 99.120724 
L 126.475851 93.89435 
L 154.609592 92.927745 
L 182.743332 95.408512 
L 210.877073 86.171902 
L 239.010814 84.732272 
L 267.144554 83.010262 
L 295.278295 79.476844 
L 323.412036 81.068111 
L 351.545777 62.567965 
L 379.679517 60.389461 
L 407.813258 49.232712 
" clip-path="url(#p3dee729350)" style="fill: none; stroke: #1f77b4; stroke-opacity: 0.7; stroke-width: 1.5; stroke-linecap: square"/>
   </g>
   <g id="line2d_20">
    <path d="M 70.208369 176.776571 
L 98.34211 177.657132 
L 126.475851 174.875767 
L 154.609592 174.168413 
L 182.743332 175.611057 
L 210.877073 171.082043 
L 239.010814 170.164543 
L 267.144554 169.395729 
L 295.278295 167.307191 
L 323.412036 167.392118 
L 351.545777 156.472798 
L 379.679517 155.134668 
L 407.813258 148.306969 
" clip-path="url(#p3dee729350)" style="fill: none; stroke: #ff7f0e; stroke-opacity: 0.7; stroke-width: 1.5; stroke-linecap: square"/>
   </g>
   <g id="line2d_21">
    <path d="M 70.208369 172.269843 
L 98.34211 171.808331 
L 126.475851 169.363322 
L 154.609592 169.104071 
L 182.743332 170.142194 
L 210.877073 165.434597 
L 239.010814 164.912468 
L 267.144554 163.959272 
L 295.278295 162.514392 
L 323.412036 164.020732 
L 351.545777 156.439906 
L 379.679517 155.599532 
L 407.813258 151.270481 
" clip-path="url(#p3dee729350)" style="fill: none; stroke: #2ca02c; stroke-opacity: 0.7; stroke-width: 1.5; stroke-linecap: square"/>
   </g>
   <g id="patch_3">
    <path d="M 53.328125 189.348437 
L 53.328125 20.798437 
" style="fill: none; stroke: #000000; stroke-width: 0.8; stroke-linejoin: miter; stroke-linecap: square"/>
   </g>
   <g id="patch_4">
    <path d="M 53.328125 189.348437 
L 424.693502 189.348437 
" style="fill: none; stroke: #000000; stroke-width: 0.8; stroke-linejoin: miter; stroke-linecap: square"/>
   </g>
   <g id="text_7">
    <!-- age = Totaal leeftijd -->
    <g transform="translate(188.87097 14.798437)scale(0.1 -0.1)">
     <defs>
      <path id="DejaVuSans-67" d="M 2906 1791 
Q 2906 2416 2648 2759 
Q 2391 3103 1925 3103 
Q 1463 3103 1205 2759 
Q 947 2416 947 1791 
Q 947 1169 1205 825 
Q 1463 481 1925 481 
Q 2391 481 2648 825 
Q 2906 1169 2906 1791 
z
M 3481 434 
Q 3481 -459 3084 -895 
Q 2688 -1331 1869 -1331 
Q 1566 -1331 1297 -1286 
Q 1028 -1241 775 -1147 
L 775 -588 
Q 1028 -725 1275 -790 
Q 1522 -856 1778 -856 
Q 2344 -856 2625 -561 
Q 2906 -266 2906 331 
L 2906 616 
Q 2728 306 2450 153 
Q 2172 0 1784 0 
Q 1141 0 747 490 
Q 353 981 353 1791 
Q 353 2603 747 3093 
Q 1141 3584 1784 3584 
Q 2172 3584 2450 3431 
Q 2728 3278 2906 2969 
L 2906 3500 
L 3481 3500 
L 3481 434 
z
" transform="scale(0.015625)"/>
      <path id="DejaVuSans-3d" d="M 678 2906 
L 4684 2906 
L 4684 2381 
L 678 2381 
L 678 2906 
z
M 678 1631 
L 4684 1631 
L 4684 1100 
L 678 1100 
L 678 1631 
z
" transform="scale(0.015625)"/>
      <path id="DejaVuSans-54" d="M -19 4666 
L 3928 4666 
L 3928 4134 
L 2272 4134 
L 2272 0 
L 1638 0 
L 1638 4134 
L -19 4134 
L -19 4666 
z
" transform="scale(0.015625)"/>
      <path id="DejaVuSans-6f" d="M 1959 3097 
Q 1497 3097 1228 2736 
Q 959 2375 959 1747 
Q 959 1119 1226 758 
Q 1494 397 1959 397 
Q 2419 397 2687 759 
Q 2956 1122 2956 1747 
Q 2956 2369 2687 2733 
Q 2419 3097 1959 3097 
z
M 1959 3584 
Q 2709 3584 3137 3096 
Q 3566 2609 3566 1747 
Q 3566 888 3137 398 
Q 2709 -91 1959 -91 
Q 1206 -91 779 398 
Q 353 888 353 1747 
Q 353 2609 779 3096 
Q 1206 3584 1959 3584 
z
" transform="scale(0.015625)"/>
      <path id="DejaVuSans-6c" d="M 603 4863 
L 1178 4863 
L 1178 0 
L 603 0 
L 603 4863 
z
" transform="scale(0.015625)"/>
      <path id="DejaVuSans-66" d="M 2375 4863 
L 2375 4384 
L 1825 4384 
Q 1516 4384 1395 4259 
Q 1275 4134 1275 3809 
L 1275 3500 
L 2222 3500 
L 2222 3053 
L 1275 3053 
L 1275 0 
L 697 0 
L 697 3053 
L 147 3053 
L 147 3500 
L 697 3500 
L 697 3744 
Q 697 4328 969 4595 
Q 1241 4863 1831 4863 
L 2375 4863 
z
" transform="scale(0.015625)"/>
      <path id="DejaVuSans-69" d="M 603 3500 
L 1178 3500 
L 1178 0 
L 603 0 
L 603 3500 
z
M 603 4863 
L 1178 4863 
L 1178 4134 
L 603 4134 
L 603 4863 
z
" transform="scale(0.015625)"/>
      <path id="DejaVuSans-6a" d="M 603 3500 
L 1178 3500 
L 1178 -63 
Q 1178 -731 923 -1031 
Q 669 -1331 103 -1331 
L -116 -1331 
L -116 -844 
L 38 -844 
Q 366 -844 484 -692 
Q 603 -541 603 -63 
L 603 3500 
z
M 603 4863 
L 1178 4863 
L 1178 4134 
L 603 4134 
L 603 4863 
z
" transform="scale(0.015625)"/>
     </defs>
     <use xlink:href="#DejaVuSans-61"/>
     <use xlink:href="#DejaVuSans-67" x="61.279297"/>
     <use xlink:href="#DejaVuSans-65" x="124.755859"/>
     <use xlink:href="#DejaVuSans-20" x="186.279297"/>
     <use xlink:href="#DejaVuSans-3d" x="218.066406"/>
     <use xlink:href="#DejaVuSans-20" x="301.855469"/>
     <use xlink:href="#DejaVuSans-54" x="333.642578"/>
     <use xlink:href="#DejaVuSans-6f" x="377.726562"/>
     <use xlink:href="#DejaVuSans-74" x="438.908203"/>
     <use xlink:href="#DejaVuSans-61" x="478.117188"/>
     <use xlink:href="#DejaVuSans-61" x="539.396484"/>
     <use xlink:href="#DejaVuSans-6c" x="600.675781"/>
     <use xlink:href="#DejaVuSans-20" x="628.458984"/>
     <use xlink:href="#DejaVuSans-6c" x="660.246094"/>
     <use xlink:href="#DejaVuSans-65" x="688.029297"/>
     <use xlink:href="#DejaVuSans-65" x="749.552734"/>
     <use xlink:href="#DejaVuSans-66" x="811.076172"/>
     <use xlink:href="#DejaVuSans-74" x="844.53125"/>
     <use xlink:href="#DejaVuSans-69" x="883.740234"/>
     <use xlink:href="#DejaVuSans-6a" x="911.523438"/>
     <use xlink:href="#DejaVuSans-64" x="939.306641"/>
    </g>
   </g>
  </g>
  <g id="axes_2">
   <g id="patch_5">
    <path d="M 467.281105 189.348437 
L 838.646483 189.348437 
L 838.646483 20.798437 
L 467.281105 20.798437 
z
" style="fill: #ffffff"/>
   </g>
   <g id="PolyCollection_4">
    <defs>
     <path id="m696a5f664a" d="M 484.16135 -411.066761 
L 484.16135 -387.734316 
L 512.295091 -381.462053 
L 540.428831 -377.681919 
L 568.562572 -374.509975 
L 596.696313 -364.246565 
L 624.830053 -368.514568 
L 652.963794 -368.929958 
L 681.097535 -365.820869 
L 709.231276 -362.981678 
L 737.365016 -358.304592 
L 765.498757 -359.383256 
L 793.632498 -369.456983 
L 793.632498 -398.895962 
L 793.632498 -398.895962 
L 765.498757 -392.505918 
L 737.365016 -381.739067 
L 709.231276 -387.738825 
L 681.097535 -387.21237 
L 652.963794 -393.423783 
L 624.830053 -392.229214 
L 596.696313 -396.872557 
L 568.562572 -397.668549 
L 540.428831 -403.399772 
L 512.295091 -404.853725 
L 484.16135 -411.066761 
z
" style="stroke: #1f77b4; stroke-opacity: 0.2"/>
    </defs>
    <g clip-path="url(#p0030114516)">
     <use xlink:href="#m696a5f664a" x="0" y="439.526562" style="fill: #1f77b4; fill-opacity: 0.2; stroke: #1f77b4; stroke-opacity: 0.2"/>
    </g>
   </g>
   <g id="PolyCollection_5">
    <defs>
     <path id="m36ee983871" d="M 484.16135 -319.502297 
L 484.16135 -304.3307 
L 512.295091 -297.282242 
L 540.428831 -296.689496 
L 568.562572 -295.229648 
L 596.696313 -288.861137 
L 624.830053 -291.744391 
L 652.963794 -289.873965 
L 681.097535 -288.783734 
L 709.231276 -287.711381 
L 737.365016 -285.076705 
L 765.498757 -287.536048 
L 793.632498 -292.264245 
L 793.632498 -312.19741 
L 793.632498 -312.19741 
L 765.498757 -310.44673 
L 737.365016 -301.300394 
L 709.231276 -305.012701 
L 681.097535 -305.731415 
L 652.963794 -307.3017 
L 624.830053 -305.692437 
L 596.696313 -309.809982 
L 568.562572 -310.588348 
L 540.428831 -314.119142 
L 512.295091 -314.987073 
L 484.16135 -319.502297 
z
" style="stroke: #ff7f0e; stroke-opacity: 0.2"/>
    </defs>
    <g clip-path="url(#p0030114516)">
     <use xlink:href="#m36ee983871" x="0" y="439.526562" style="fill: #ff7f0e; fill-opacity: 0.2; stroke: #ff7f0e; stroke-opacity: 0.2"/>
    </g>
   </g>
   <g id="PolyCollection_6">
    <defs>
     <path id="mbb719fb0a1" d="M 484.16135 -283.452289 
L 484.16135 -268.338096 
L 512.295091 -269.364353 
L 540.428831 -266.848599 
L 568.562572 -263.467912 
L 596.696313 -261.242579 
L 624.830053 -262.072142 
L 652.963794 -264.154822 
L 681.097535 -261.297351 
L 709.231276 -260.415486 
L 737.365016 -257.967845 
L 765.498757 -257.839489 
L 793.632498 -262.559358 
L 793.632498 -278.154236 
L 793.632498 -278.154236 
L 765.498757 -272.889213 
L 737.365016 -272.52102 
L 709.231276 -274.403239 
L 681.097535 -274.043044 
L 652.963794 -277.845559 
L 624.830053 -278.057117 
L 596.696313 -278.027729 
L 568.562572 -279.71492 
L 540.428831 -280.246757 
L 512.295091 -281.504416 
L 484.16135 -283.452289 
z
" style="stroke: #2ca02c; stroke-opacity: 0.2"/>
    </defs>
    <g clip-path="url(#p0030114516)">
     <use xlink:href="#mbb719fb0a1" x="0" y="439.526562" style="fill: #2ca02c; fill-opacity: 0.2; stroke: #2ca02c; stroke-opacity: 0.2"/>
    </g>
   </g>
   <g id="matplotlib.axis_3">
    <g id="xtick_14">
     <g id="line2d_22">
      <g>
       <use xlink:href="#m1a2d36cc12" x="484.16135" y="189.348437" style="stroke: #000000; stroke-width: 0.8"/>
      </g>
     </g>
    </g>
    <g id="xtick_15">
     <g id="line2d_23">
      <g>
       <use xlink:href="#m1a2d36cc12" x="512.295091" y="189.348437" style="stroke: #000000; stroke-width: 0.8"/>
      </g>
     </g>
    </g>
    <g id="xtick_16">
     <g id="line2d_24">
      <g>
       <use xlink:href="#m1a2d36cc12" x="540.428831" y="189.348437" style="stroke: #000000; stroke-width: 0.8"/>
      </g>
     </g>
    </g>
    <g id="xtick_17">
     <g id="line2d_25">
      <g>
       <use xlink:href="#m1a2d36cc12" x="568.562572" y="189.348437" style="stroke: #000000; stroke-width: 0.8"/>
      </g>
     </g>
    </g>
    <g id="xtick_18">
     <g id="line2d_26">
      <g>
       <use xlink:href="#m1a2d36cc12" x="596.696313" y="189.348437" style="stroke: #000000; stroke-width: 0.8"/>
      </g>
     </g>
    </g>
    <g id="xtick_19">
     <g id="line2d_27">
      <g>
       <use xlink:href="#m1a2d36cc12" x="624.830053" y="189.348437" style="stroke: #000000; stroke-width: 0.8"/>
      </g>
     </g>
    </g>
    <g id="xtick_20">
     <g id="line2d_28">
      <g>
       <use xlink:href="#m1a2d36cc12" x="652.963794" y="189.348437" style="stroke: #000000; stroke-width: 0.8"/>
      </g>
     </g>
    </g>
    <g id="xtick_21">
     <g id="line2d_29">
      <g>
       <use xlink:href="#m1a2d36cc12" x="681.097535" y="189.348437" style="stroke: #000000; stroke-width: 0.8"/>
      </g>
     </g>
    </g>
    <g id="xtick_22">
     <g id="line2d_30">
      <g>
       <use xlink:href="#m1a2d36cc12" x="709.231276" y="189.348437" style="stroke: #000000; stroke-width: 0.8"/>
      </g>
     </g>
    </g>
    <g id="xtick_23">
     <g id="line2d_31">
      <g>
       <use xlink:href="#m1a2d36cc12" x="737.365016" y="189.348437" style="stroke: #000000; stroke-width: 0.8"/>
      </g>
     </g>
    </g>
    <g id="xtick_24">
     <g id="line2d_32">
      <g>
       <use xlink:href="#m1a2d36cc12" x="765.498757" y="189.348437" style="stroke: #000000; stroke-width: 0.8"/>
      </g>
     </g>
    </g>
    <g id="xtick_25">
     <g id="line2d_33">
      <g>
       <use xlink:href="#m1a2d36cc12" x="793.632498" y="189.348437" style="stroke: #000000; stroke-width: 0.8"/>
      </g>
     </g>
    </g>
    <g id="xtick_26">
     <g id="line2d_34">
      <g>
       <use xlink:href="#m1a2d36cc12" x="821.766238" y="189.348437" style="stroke: #000000; stroke-width: 0.8"/>
      </g>
     </g>
    </g>
   </g>
   <g id="matplotlib.axis_4">
    <g id="ytick_6">
     <g id="line2d_35">
      <g>
       <use xlink:href="#m39e9079217" x="467.281105" y="183.298325" style="stroke: #000000; stroke-width: 0.8"/>
      </g>
     </g>
     <g id="text_8">
      <!-- 150 -->
      <g transform="translate(441.193605 187.097543)scale(0.1 -0.1)">
       <use xlink:href="#DejaVuSans-31"/>
       <use xlink:href="#DejaVuSans-35" x="63.623047"/>
       <use xlink:href="#DejaVuSans-30" x="127.246094"/>
      </g>
     </g>
    </g>
    <g id="ytick_7">
     <g id="line2d_36">
      <g>
       <use xlink:href="#m39e9079217" x="467.281105" y="160.692629" style="stroke: #000000; stroke-width: 0.8"/>
      </g>
     </g>
     <g id="text_9">
      <!-- 200 -->
      <g transform="translate(441.193605 164.491848)scale(0.1 -0.1)">
       <use xlink:href="#DejaVuSans-32"/>
       <use xlink:href="#DejaVuSans-30" x="63.623047"/>
       <use xlink:href="#DejaVuSans-30" x="127.246094"/>
      </g>
     </g>
    </g>
    <g id="ytick_8">
     <g id="line2d_37">
      <g>
       <use xlink:href="#m39e9079217" x="467.281105" y="138.086934" style="stroke: #000000; stroke-width: 0.8"/>
      </g>
     </g>
     <g id="text_10">
      <!-- 250 -->
      <g transform="translate(441.193605 141.886153)scale(0.1 -0.1)">
       <use xlink:href="#DejaVuSans-32"/>
       <use xlink:href="#DejaVuSans-35" x="63.623047"/>
       <use xlink:href="#DejaVuSans-30" x="127.246094"/>
      </g>
     </g>
    </g>
    <g id="ytick_9">
     <g id="line2d_38">
      <g>
       <use xlink:href="#m39e9079217" x="467.281105" y="115.481239" style="stroke: #000000; stroke-width: 0.8"/>
      </g>
     </g>
     <g id="text_11">
      <!-- 300 -->
      <g transform="translate(441.193605 119.280458)scale(0.1 -0.1)">
       <use xlink:href="#DejaVuSans-33"/>
       <use xlink:href="#DejaVuSans-30" x="63.623047"/>
       <use xlink:href="#DejaVuSans-30" x="127.246094"/>
      </g>
     </g>
    </g>
    <g id="ytick_10">
     <g id="line2d_39">
      <g>
       <use xlink:href="#m39e9079217" x="467.281105" y="92.875544" style="stroke: #000000; stroke-width: 0.8"/>
      </g>
     </g>
     <g id="text_12">
      <!-- 350 -->
      <g transform="translate(441.193605 96.674763)scale(0.1 -0.1)">
       <use xlink:href="#DejaVuSans-33"/>
       <use xlink:href="#DejaVuSans-35" x="63.623047"/>
       <use xlink:href="#DejaVuSans-30" x="127.246094"/>
      </g>
     </g>
    </g>
    <g id="ytick_11">
     <g id="line2d_40">
      <g>
       <use xlink:href="#m39e9079217" x="467.281105" y="70.269849" style="stroke: #000000; stroke-width: 0.8"/>
      </g>
     </g>
     <g id="text_13">
      <!-- 400 -->
      <g transform="translate(441.193605 74.069068)scale(0.1 -0.1)">
       <defs>
        <path id="DejaVuSans-34" d="M 2419 4116 
L 825 1625 
L 2419 1625 
L 2419 4116 
z
M 2253 4666 
L 3047 4666 
L 3047 1625 
L 3713 1625 
L 3713 1100 
L 3047 1100 
L 3047 0 
L 2419 0 
L 2419 1100 
L 313 1100 
L 313 1709 
L 2253 4666 
z
" transform="scale(0.015625)"/>
       </defs>
       <use xlink:href="#DejaVuSans-34"/>
       <use xlink:href="#DejaVuSans-30" x="63.623047"/>
       <use xlink:href="#DejaVuSans-30" x="127.246094"/>
      </g>
     </g>
    </g>
    <g id="ytick_12">
     <g id="line2d_41">
      <g>
       <use xlink:href="#m39e9079217" x="467.281105" y="47.664154" style="stroke: #000000; stroke-width: 0.8"/>
      </g>
     </g>
     <g id="text_14">
      <!-- 450 -->
      <g transform="translate(441.193605 51.463372)scale(0.1 -0.1)">
       <use xlink:href="#DejaVuSans-34"/>
       <use xlink:href="#DejaVuSans-35" x="63.623047"/>
       <use xlink:href="#DejaVuSans-30" x="127.246094"/>
      </g>
     </g>
    </g>
    <g id="ytick_13">
     <g id="line2d_42">
      <g>
       <use xlink:href="#m39e9079217" x="467.281105" y="25.058458" style="stroke: #000000; stroke-width: 0.8"/>
      </g>
     </g>
     <g id="text_15">
      <!-- 500 -->
      <g transform="translate(441.193605 28.857677)scale(0.1 -0.1)">
       <use xlink:href="#DejaVuSans-35"/>
       <use xlink:href="#DejaVuSans-30" x="63.623047"/>
       <use xlink:href="#DejaVuSans-30" x="127.246094"/>
      </g>
     </g>
    </g>
    <g id="text_16">
     <!-- mean deaths per week -->
     <g transform="translate(435.113918 162.5125)rotate(-90)scale(0.1 -0.1)">
      <use xlink:href="#DejaVuSans-6d"/>
      <use xlink:href="#DejaVuSans-65" x="97.412109"/>
      <use xlink:href="#DejaVuSans-61" x="158.935547"/>
      <use xlink:href="#DejaVuSans-6e" x="220.214844"/>
      <use xlink:href="#DejaVuSans-20" x="283.59375"/>
      <use xlink:href="#DejaVuSans-64" x="315.380859"/>
      <use xlink:href="#DejaVuSans-65" x="378.857422"/>
      <use xlink:href="#DejaVuSans-61" x="440.380859"/>
      <use xlink:href="#DejaVuSans-74" x="501.660156"/>
      <use xlink:href="#DejaVuSans-68" x="540.869141"/>
      <use xlink:href="#DejaVuSans-73" x="604.248047"/>
      <use xlink:href="#DejaVuSans-20" x="656.347656"/>
      <use xlink:href="#DejaVuSans-70" x="688.134766"/>
      <use xlink:href="#DejaVuSans-65" x="751.611328"/>
      <use xlink:href="#DejaVuSans-72" x="813.134766"/>
      <use xlink:href="#DejaVuSans-20" x="854.248047"/>
      <use xlink:href="#DejaVuSans-77" x="886.035156"/>
      <use xlink:href="#DejaVuSans-65" x="967.822266"/>
      <use xlink:href="#DejaVuSans-65" x="1029.345703"/>
      <use xlink:href="#DejaVuSans-6b" x="1090.869141"/>
     </g>
    </g>
   </g>
   <g id="line2d_43">
    <path d="M 484.16135 40.126024 
L 512.295091 46.368673 
L 540.428831 48.985717 
L 568.562572 53.4373 
L 596.696313 58.967001 
L 624.830053 59.154671 
L 652.963794 58.349692 
L 681.097535 63.009943 
L 709.231276 64.166311 
L 737.365016 69.504733 
L 765.498757 63.581975 
L 793.632498 55.35009 
L 821.766238 44.499356 
" clip-path="url(#p0030114516)" style="fill: none; stroke: #1f77b4; stroke-opacity: 0.7; stroke-width: 1.5; stroke-linecap: square"/>
   </g>
   <g id="line2d_44">
    <path d="M 484.16135 127.610064 
L 512.295091 133.391905 
L 540.428831 134.122243 
L 568.562572 136.617564 
L 596.696313 140.191003 
L 624.830053 140.808148 
L 652.963794 140.93873 
L 681.097535 142.268988 
L 709.231276 143.164521 
L 737.365016 146.338013 
L 765.498757 140.535174 
L 793.632498 137.295735 
" clip-path="url(#p0030114516)" style="fill: none; stroke: #ff7f0e; stroke-opacity: 0.7; stroke-width: 1.5; stroke-linecap: square"/>
   </g>
   <g id="line2d_45">
    <path d="M 484.16135 163.63137 
L 512.295091 164.092178 
L 540.428831 165.978884 
L 568.562572 167.935146 
L 596.696313 169.891408 
L 624.830053 169.461933 
L 652.963794 168.526372 
L 681.097535 171.856365 
L 709.231276 172.1172 
L 737.365016 174.28213 
L 765.498757 174.162212 
L 793.632498 169.169765 
" clip-path="url(#p0030114516)" style="fill: none; stroke: #2ca02c; stroke-opacity: 0.7; stroke-width: 1.5; stroke-linecap: square"/>
   </g>
   <g id="patch_6">
    <path d="M 467.281105 189.348437 
L 467.281105 20.798437 
" style="fill: none; stroke: #000000; stroke-width: 0.8; stroke-linejoin: miter; stroke-linecap: square"/>
   </g>
   <g id="patch_7">
    <path d="M 467.281105 189.348437 
L 838.646483 189.348437 
" style="fill: none; stroke: #000000; stroke-width: 0.8; stroke-linejoin: miter; stroke-linecap: square"/>
   </g>
   <g id="text_17">
    <!-- age = 0 tot 65 jaar -->
    <g transform="translate(605.4177 14.798437)scale(0.1 -0.1)">
     <defs>
      <path id="DejaVuSans-36" d="M 2113 2584 
Q 1688 2584 1439 2293 
Q 1191 2003 1191 1497 
Q 1191 994 1439 701 
Q 1688 409 2113 409 
Q 2538 409 2786 701 
Q 3034 994 3034 1497 
Q 3034 2003 2786 2293 
Q 2538 2584 2113 2584 
z
M 3366 4563 
L 3366 3988 
Q 3128 4100 2886 4159 
Q 2644 4219 2406 4219 
Q 1781 4219 1451 3797 
Q 1122 3375 1075 2522 
Q 1259 2794 1537 2939 
Q 1816 3084 2150 3084 
Q 2853 3084 3261 2657 
Q 3669 2231 3669 1497 
Q 3669 778 3244 343 
Q 2819 -91 2113 -91 
Q 1303 -91 875 529 
Q 447 1150 447 2328 
Q 447 3434 972 4092 
Q 1497 4750 2381 4750 
Q 2619 4750 2861 4703 
Q 3103 4656 3366 4563 
z
" transform="scale(0.015625)"/>
     </defs>
     <use xlink:href="#DejaVuSans-61"/>
     <use xlink:href="#DejaVuSans-67" x="61.279297"/>
     <use xlink:href="#DejaVuSans-65" x="124.755859"/>
     <use xlink:href="#DejaVuSans-20" x="186.279297"/>
     <use xlink:href="#DejaVuSans-3d" x="218.066406"/>
     <use xlink:href="#DejaVuSans-20" x="301.855469"/>
     <use xlink:href="#DejaVuSans-30" x="333.642578"/>
     <use xlink:href="#DejaVuSans-20" x="397.265625"/>
     <use xlink:href="#DejaVuSans-74" x="429.052734"/>
     <use xlink:href="#DejaVuSans-6f" x="468.261719"/>
     <use xlink:href="#DejaVuSans-74" x="529.443359"/>
     <use xlink:href="#DejaVuSans-20" x="568.652344"/>
     <use xlink:href="#DejaVuSans-36" x="600.439453"/>
     <use xlink:href="#DejaVuSans-35" x="664.0625"/>
     <use xlink:href="#DejaVuSans-20" x="727.685547"/>
     <use xlink:href="#DejaVuSans-6a" x="759.472656"/>
     <use xlink:href="#DejaVuSans-61" x="787.255859"/>
     <use xlink:href="#DejaVuSans-61" x="848.535156"/>
     <use xlink:href="#DejaVuSans-72" x="909.814453"/>
    </g>
   </g>
  </g>
  <g id="axes_3">
   <g id="patch_8">
    <path d="M 53.328125 386.198437 
L 424.693502 386.198437 
L 424.693502 217.648437 
L 53.328125 217.648437 
z
" style="fill: #ffffff"/>
   </g>
   <g id="PolyCollection_7">
    <defs>
     <path id="mb9ea85aba0" d="M 70.208369 -154.056755 
L 70.208369 -140.578715 
L 98.34211 -139.702241 
L 126.475851 -141.230503 
L 154.609592 -142.084542 
L 182.743332 -141.875339 
L 210.877073 -149.246463 
L 239.010814 -149.248802 
L 267.144554 -149.356821 
L 295.278295 -150.843275 
L 323.412036 -156.000176 
L 351.545777 -153.71376 
L 379.679517 -170.600925 
L 379.679517 -212.560377 
L 379.679517 -212.560377 
L 351.545777 -214.216761 
L 323.412036 -176.109839 
L 295.278295 -181.369335 
L 267.144554 -172.350058 
L 239.010814 -171.15854 
L 210.877073 -167.649806 
L 182.743332 -158.464415 
L 154.609592 -160.484944 
L 126.475851 -159.040854 
L 98.34211 -152.730856 
L 70.208369 -154.056755 
z
" style="stroke: #1f77b4; stroke-opacity: 0.2"/>
    </defs>
    <g clip-path="url(#p8f8c0fcd65)">
     <use xlink:href="#mb9ea85aba0" x="0" y="439.526562" style="fill: #1f77b4; fill-opacity: 0.2; stroke: #1f77b4; stroke-opacity: 0.2"/>
    </g>
   </g>
   <g id="PolyCollection_8">
    <defs>
     <path id="md31ac2cdd9" d="M 70.208369 -96.441989 
L 70.208369 -86.912072 
L 98.34211 -85.773025 
L 126.475851 -86.977586 
L 154.609592 -87.050543 
L 182.743332 -86.508116 
L 210.877073 -91.631959 
L 239.010814 -90.434442 
L 267.144554 -91.190176 
L 295.278295 -91.626778 
L 323.412036 -93.166857 
L 351.545777 -92.022525 
L 379.679517 -101.882921 
L 379.679517 -128.863204 
L 379.679517 -128.863204 
L 351.545777 -131.696808 
L 323.412036 -106.287784 
L 295.278295 -109.147918 
L 267.144554 -103.839199 
L 239.010814 -104.4513 
L 210.877073 -102.701577 
L 182.743332 -96.633914 
L 154.609592 -100.010618 
L 126.475851 -97.682851 
L 98.34211 -93.689264 
L 70.208369 -96.441989 
z
" style="stroke: #ff7f0e; stroke-opacity: 0.2"/>
    </defs>
    <g clip-path="url(#p8f8c0fcd65)">
     <use xlink:href="#md31ac2cdd9" x="0" y="439.526562" style="fill: #ff7f0e; fill-opacity: 0.2; stroke: #ff7f0e; stroke-opacity: 0.2"/>
    </g>
   </g>
   <g id="PolyCollection_9">
    <defs>
     <path id="m1d08f2914c" d="M 70.208369 -69.021996 
L 70.208369 -60.989489 
L 98.34211 -61.992089 
L 126.475851 -62.618867 
L 154.609592 -63.151415 
L 182.743332 -63.688036 
L 210.877073 -65.848588 
L 239.010814 -67.158797 
L 267.144554 -66.41781 
L 295.278295 -67.600527 
L 323.412036 -70.810468 
L 351.545777 -70.526435 
L 379.679517 -77.086446 
L 379.679517 -94.058806 
L 379.679517 -94.058806 
L 351.545777 -92.414827 
L 323.412036 -80.574981 
L 295.278295 -82.567461 
L 267.144554 -78.989768 
L 239.010814 -77.092878 
L 210.877073 -75.44422 
L 182.743332 -72.239762 
L 154.609592 -71.086984 
L 126.475851 -71.722127 
L 98.34211 -69.708793 
L 70.208369 -69.021996 
z
" style="stroke: #2ca02c; stroke-opacity: 0.2"/>
    </defs>
    <g clip-path="url(#p8f8c0fcd65)">
     <use xlink:href="#m1d08f2914c" x="0" y="439.526562" style="fill: #2ca02c; fill-opacity: 0.2; stroke: #2ca02c; stroke-opacity: 0.2"/>
    </g>
   </g>
   <g id="matplotlib.axis_5">
    <g id="xtick_27">
     <g id="line2d_46">
      <g>
       <use xlink:href="#m1a2d36cc12" x="70.208369" y="386.198437" style="stroke: #000000; stroke-width: 0.8"/>
      </g>
     </g>
     <g id="text_18">
      <!-- 2010 -->
      <g transform="translate(72.967744 418.648437)rotate(-90)scale(0.1 -0.1)">
       <use xlink:href="#DejaVuSans-32"/>
       <use xlink:href="#DejaVuSans-30" x="63.623047"/>
       <use xlink:href="#DejaVuSans-31" x="127.246094"/>
       <use xlink:href="#DejaVuSans-30" x="190.869141"/>
      </g>
     </g>
    </g>
    <g id="xtick_28">
     <g id="line2d_47">
      <g>
       <use xlink:href="#m1a2d36cc12" x="98.34211" y="386.198437" style="stroke: #000000; stroke-width: 0.8"/>
      </g>
     </g>
     <g id="text_19">
      <!-- 2011 -->
      <g transform="translate(101.101485 418.648437)rotate(-90)scale(0.1 -0.1)">
       <use xlink:href="#DejaVuSans-32"/>
       <use xlink:href="#DejaVuSans-30" x="63.623047"/>
       <use xlink:href="#DejaVuSans-31" x="127.246094"/>
       <use xlink:href="#DejaVuSans-31" x="190.869141"/>
      </g>
     </g>
    </g>
    <g id="xtick_29">
     <g id="line2d_48">
      <g>
       <use xlink:href="#m1a2d36cc12" x="126.475851" y="386.198437" style="stroke: #000000; stroke-width: 0.8"/>
      </g>
     </g>
     <g id="text_20">
      <!-- 2012 -->
      <g transform="translate(129.235226 418.648437)rotate(-90)scale(0.1 -0.1)">
       <use xlink:href="#DejaVuSans-32"/>
       <use xlink:href="#DejaVuSans-30" x="63.623047"/>
       <use xlink:href="#DejaVuSans-31" x="127.246094"/>
       <use xlink:href="#DejaVuSans-32" x="190.869141"/>
      </g>
     </g>
    </g>
    <g id="xtick_30">
     <g id="line2d_49">
      <g>
       <use xlink:href="#m1a2d36cc12" x="154.609592" y="386.198437" style="stroke: #000000; stroke-width: 0.8"/>
      </g>
     </g>
     <g id="text_21">
      <!-- 2013 -->
      <g transform="translate(157.368967 418.648437)rotate(-90)scale(0.1 -0.1)">
       <use xlink:href="#DejaVuSans-32"/>
       <use xlink:href="#DejaVuSans-30" x="63.623047"/>
       <use xlink:href="#DejaVuSans-31" x="127.246094"/>
       <use xlink:href="#DejaVuSans-33" x="190.869141"/>
      </g>
     </g>
    </g>
    <g id="xtick_31">
     <g id="line2d_50">
      <g>
       <use xlink:href="#m1a2d36cc12" x="182.743332" y="386.198437" style="stroke: #000000; stroke-width: 0.8"/>
      </g>
     </g>
     <g id="text_22">
      <!-- 2014 -->
      <g transform="translate(185.502707 418.648437)rotate(-90)scale(0.1 -0.1)">
       <use xlink:href="#DejaVuSans-32"/>
       <use xlink:href="#DejaVuSans-30" x="63.623047"/>
       <use xlink:href="#DejaVuSans-31" x="127.246094"/>
       <use xlink:href="#DejaVuSans-34" x="190.869141"/>
      </g>
     </g>
    </g>
    <g id="xtick_32">
     <g id="line2d_51">
      <g>
       <use xlink:href="#m1a2d36cc12" x="210.877073" y="386.198437" style="stroke: #000000; stroke-width: 0.8"/>
      </g>
     </g>
     <g id="text_23">
      <!-- 2015 -->
      <g transform="translate(213.636448 418.648437)rotate(-90)scale(0.1 -0.1)">
       <use xlink:href="#DejaVuSans-32"/>
       <use xlink:href="#DejaVuSans-30" x="63.623047"/>
       <use xlink:href="#DejaVuSans-31" x="127.246094"/>
       <use xlink:href="#DejaVuSans-35" x="190.869141"/>
      </g>
     </g>
    </g>
    <g id="xtick_33">
     <g id="line2d_52">
      <g>
       <use xlink:href="#m1a2d36cc12" x="239.010814" y="386.198437" style="stroke: #000000; stroke-width: 0.8"/>
      </g>
     </g>
     <g id="text_24">
      <!-- 2016 -->
      <g transform="translate(241.770189 418.648437)rotate(-90)scale(0.1 -0.1)">
       <use xlink:href="#DejaVuSans-32"/>
       <use xlink:href="#DejaVuSans-30" x="63.623047"/>
       <use xlink:href="#DejaVuSans-31" x="127.246094"/>
       <use xlink:href="#DejaVuSans-36" x="190.869141"/>
      </g>
     </g>
    </g>
    <g id="xtick_34">
     <g id="line2d_53">
      <g>
       <use xlink:href="#m1a2d36cc12" x="267.144554" y="386.198437" style="stroke: #000000; stroke-width: 0.8"/>
      </g>
     </g>
     <g id="text_25">
      <!-- 2017 -->
      <g transform="translate(269.903929 418.648437)rotate(-90)scale(0.1 -0.1)">
       <defs>
        <path id="DejaVuSans-37" d="M 525 4666 
L 3525 4666 
L 3525 4397 
L 1831 0 
L 1172 0 
L 2766 4134 
L 525 4134 
L 525 4666 
z
" transform="scale(0.015625)"/>
       </defs>
       <use xlink:href="#DejaVuSans-32"/>
       <use xlink:href="#DejaVuSans-30" x="63.623047"/>
       <use xlink:href="#DejaVuSans-31" x="127.246094"/>
       <use xlink:href="#DejaVuSans-37" x="190.869141"/>
      </g>
     </g>
    </g>
    <g id="xtick_35">
     <g id="line2d_54">
      <g>
       <use xlink:href="#m1a2d36cc12" x="295.278295" y="386.198437" style="stroke: #000000; stroke-width: 0.8"/>
      </g>
     </g>
     <g id="text_26">
      <!-- 2018 -->
      <g transform="translate(298.03767 418.648437)rotate(-90)scale(0.1 -0.1)">
       <defs>
        <path id="DejaVuSans-38" d="M 2034 2216 
Q 1584 2216 1326 1975 
Q 1069 1734 1069 1313 
Q 1069 891 1326 650 
Q 1584 409 2034 409 
Q 2484 409 2743 651 
Q 3003 894 3003 1313 
Q 3003 1734 2745 1975 
Q 2488 2216 2034 2216 
z
M 1403 2484 
Q 997 2584 770 2862 
Q 544 3141 544 3541 
Q 544 4100 942 4425 
Q 1341 4750 2034 4750 
Q 2731 4750 3128 4425 
Q 3525 4100 3525 3541 
Q 3525 3141 3298 2862 
Q 3072 2584 2669 2484 
Q 3125 2378 3379 2068 
Q 3634 1759 3634 1313 
Q 3634 634 3220 271 
Q 2806 -91 2034 -91 
Q 1263 -91 848 271 
Q 434 634 434 1313 
Q 434 1759 690 2068 
Q 947 2378 1403 2484 
z
M 1172 3481 
Q 1172 3119 1398 2916 
Q 1625 2713 2034 2713 
Q 2441 2713 2670 2916 
Q 2900 3119 2900 3481 
Q 2900 3844 2670 4047 
Q 2441 4250 2034 4250 
Q 1625 4250 1398 4047 
Q 1172 3844 1172 3481 
z
" transform="scale(0.015625)"/>
       </defs>
       <use xlink:href="#DejaVuSans-32"/>
       <use xlink:href="#DejaVuSans-30" x="63.623047"/>
       <use xlink:href="#DejaVuSans-31" x="127.246094"/>
       <use xlink:href="#DejaVuSans-38" x="190.869141"/>
      </g>
     </g>
    </g>
    <g id="xtick_36">
     <g id="line2d_55">
      <g>
       <use xlink:href="#m1a2d36cc12" x="323.412036" y="386.198437" style="stroke: #000000; stroke-width: 0.8"/>
      </g>
     </g>
     <g id="text_27">
      <!-- 2019 -->
      <g transform="translate(326.171411 418.648437)rotate(-90)scale(0.1 -0.1)">
       <defs>
        <path id="DejaVuSans-39" d="M 703 97 
L 703 672 
Q 941 559 1184 500 
Q 1428 441 1663 441 
Q 2288 441 2617 861 
Q 2947 1281 2994 2138 
Q 2813 1869 2534 1725 
Q 2256 1581 1919 1581 
Q 1219 1581 811 2004 
Q 403 2428 403 3163 
Q 403 3881 828 4315 
Q 1253 4750 1959 4750 
Q 2769 4750 3195 4129 
Q 3622 3509 3622 2328 
Q 3622 1225 3098 567 
Q 2575 -91 1691 -91 
Q 1453 -91 1209 -44 
Q 966 3 703 97 
z
M 1959 2075 
Q 2384 2075 2632 2365 
Q 2881 2656 2881 3163 
Q 2881 3666 2632 3958 
Q 2384 4250 1959 4250 
Q 1534 4250 1286 3958 
Q 1038 3666 1038 3163 
Q 1038 2656 1286 2365 
Q 1534 2075 1959 2075 
z
" transform="scale(0.015625)"/>
       </defs>
       <use xlink:href="#DejaVuSans-32"/>
       <use xlink:href="#DejaVuSans-30" x="63.623047"/>
       <use xlink:href="#DejaVuSans-31" x="127.246094"/>
       <use xlink:href="#DejaVuSans-39" x="190.869141"/>
      </g>
     </g>
    </g>
    <g id="xtick_37">
     <g id="line2d_56">
      <g>
       <use xlink:href="#m1a2d36cc12" x="351.545777" y="386.198437" style="stroke: #000000; stroke-width: 0.8"/>
      </g>
     </g>
     <g id="text_28">
      <!-- 2020 -->
      <g transform="translate(354.305152 418.648437)rotate(-90)scale(0.1 -0.1)">
       <use xlink:href="#DejaVuSans-32"/>
       <use xlink:href="#DejaVuSans-30" x="63.623047"/>
       <use xlink:href="#DejaVuSans-32" x="127.246094"/>
       <use xlink:href="#DejaVuSans-30" x="190.869141"/>
      </g>
     </g>
    </g>
    <g id="xtick_38">
     <g id="line2d_57">
      <g>
       <use xlink:href="#m1a2d36cc12" x="379.679517" y="386.198437" style="stroke: #000000; stroke-width: 0.8"/>
      </g>
     </g>
     <g id="text_29">
      <!-- 2021 -->
      <g transform="translate(382.438892 418.648437)rotate(-90)scale(0.1 -0.1)">
       <use xlink:href="#DejaVuSans-32"/>
       <use xlink:href="#DejaVuSans-30" x="63.623047"/>
       <use xlink:href="#DejaVuSans-32" x="127.246094"/>
       <use xlink:href="#DejaVuSans-31" x="190.869141"/>
      </g>
     </g>
    </g>
    <g id="xtick_39">
     <g id="line2d_58">
      <g>
       <use xlink:href="#m1a2d36cc12" x="407.813258" y="386.198437" style="stroke: #000000; stroke-width: 0.8"/>
      </g>
     </g>
     <g id="text_30">
      <!-- 2022 -->
      <g transform="translate(410.572633 418.648437)rotate(-90)scale(0.1 -0.1)">
       <use xlink:href="#DejaVuSans-32"/>
       <use xlink:href="#DejaVuSans-30" x="63.623047"/>
       <use xlink:href="#DejaVuSans-32" x="127.246094"/>
       <use xlink:href="#DejaVuSans-32" x="190.869141"/>
      </g>
     </g>
    </g>
    <g id="text_31">
     <!-- year -->
     <g transform="translate(227.855345 430.246875)scale(0.1 -0.1)">
      <defs>
       <path id="DejaVuSans-79" d="M 2059 -325 
Q 1816 -950 1584 -1140 
Q 1353 -1331 966 -1331 
L 506 -1331 
L 506 -850 
L 844 -850 
Q 1081 -850 1212 -737 
Q 1344 -625 1503 -206 
L 1606 56 
L 191 3500 
L 800 3500 
L 1894 763 
L 2988 3500 
L 3597 3500 
L 2059 -325 
z
" transform="scale(0.015625)"/>
      </defs>
      <use xlink:href="#DejaVuSans-79"/>
      <use xlink:href="#DejaVuSans-65" x="59.179688"/>
      <use xlink:href="#DejaVuSans-61" x="120.703125"/>
      <use xlink:href="#DejaVuSans-72" x="181.982422"/>
     </g>
    </g>
   </g>
   <g id="matplotlib.axis_6">
    <g id="ytick_14">
     <g id="line2d_59">
      <g>
       <use xlink:href="#m39e9079217" x="53.328125" y="359.028971" style="stroke: #000000; stroke-width: 0.8"/>
      </g>
     </g>
     <g id="text_32">
      <!-- 400 -->
      <g transform="translate(27.240625 362.82819)scale(0.1 -0.1)">
       <use xlink:href="#DejaVuSans-34"/>
       <use xlink:href="#DejaVuSans-30" x="63.623047"/>
       <use xlink:href="#DejaVuSans-30" x="127.246094"/>
      </g>
     </g>
    </g>
    <g id="ytick_15">
     <g id="line2d_60">
      <g>
       <use xlink:href="#m39e9079217" x="53.328125" y="323.462694" style="stroke: #000000; stroke-width: 0.8"/>
      </g>
     </g>
     <g id="text_33">
      <!-- 600 -->
      <g transform="translate(27.240625 327.261912)scale(0.1 -0.1)">
       <use xlink:href="#DejaVuSans-36"/>
       <use xlink:href="#DejaVuSans-30" x="63.623047"/>
       <use xlink:href="#DejaVuSans-30" x="127.246094"/>
      </g>
     </g>
    </g>
    <g id="ytick_16">
     <g id="line2d_61">
      <g>
       <use xlink:href="#m39e9079217" x="53.328125" y="287.896416" style="stroke: #000000; stroke-width: 0.8"/>
      </g>
     </g>
     <g id="text_34">
      <!-- 800 -->
      <g transform="translate(27.240625 291.695635)scale(0.1 -0.1)">
       <use xlink:href="#DejaVuSans-38"/>
       <use xlink:href="#DejaVuSans-30" x="63.623047"/>
       <use xlink:href="#DejaVuSans-30" x="127.246094"/>
      </g>
     </g>
    </g>
    <g id="ytick_17">
     <g id="line2d_62">
      <g>
       <use xlink:href="#m39e9079217" x="53.328125" y="252.330139" style="stroke: #000000; stroke-width: 0.8"/>
      </g>
     </g>
     <g id="text_35">
      <!-- 1000 -->
      <g transform="translate(20.878125 256.129358)scale(0.1 -0.1)">
       <use xlink:href="#DejaVuSans-31"/>
       <use xlink:href="#DejaVuSans-30" x="63.623047"/>
       <use xlink:href="#DejaVuSans-30" x="127.246094"/>
       <use xlink:href="#DejaVuSans-30" x="190.869141"/>
      </g>
     </g>
    </g>
    <g id="text_36">
     <!-- mean deaths per week -->
     <g transform="translate(14.798438 359.3625)rotate(-90)scale(0.1 -0.1)">
      <use xlink:href="#DejaVuSans-6d"/>
      <use xlink:href="#DejaVuSans-65" x="97.412109"/>
      <use xlink:href="#DejaVuSans-61" x="158.935547"/>
      <use xlink:href="#DejaVuSans-6e" x="220.214844"/>
      <use xlink:href="#DejaVuSans-20" x="283.59375"/>
      <use xlink:href="#DejaVuSans-64" x="315.380859"/>
      <use xlink:href="#DejaVuSans-65" x="378.857422"/>
      <use xlink:href="#DejaVuSans-61" x="440.380859"/>
      <use xlink:href="#DejaVuSans-74" x="501.660156"/>
      <use xlink:href="#DejaVuSans-68" x="540.869141"/>
      <use xlink:href="#DejaVuSans-73" x="604.248047"/>
      <use xlink:href="#DejaVuSans-20" x="656.347656"/>
      <use xlink:href="#DejaVuSans-70" x="688.134766"/>
      <use xlink:href="#DejaVuSans-65" x="751.611328"/>
      <use xlink:href="#DejaVuSans-72" x="813.134766"/>
      <use xlink:href="#DejaVuSans-20" x="854.248047"/>
      <use xlink:href="#DejaVuSans-77" x="886.035156"/>
      <use xlink:href="#DejaVuSans-65" x="967.822266"/>
      <use xlink:href="#DejaVuSans-65" x="1029.345703"/>
      <use xlink:href="#DejaVuSans-6b" x="1090.869141"/>
     </g>
    </g>
   </g>
   <g id="line2d_63">
    <path d="M 70.208369 292.208827 
L 98.34211 293.310014 
L 126.475851 289.390884 
L 154.609592 288.24182 
L 182.743332 289.356686 
L 210.877073 281.078428 
L 239.010814 279.322892 
L 267.144554 278.673123 
L 295.278295 273.420257 
L 323.412036 273.471555 
L 351.545777 255.561302 
L 379.679517 247.945911 
L 407.813258 227.611576 
" clip-path="url(#p8f8c0fcd65)" style="fill: none; stroke: #1f77b4; stroke-opacity: 0.7; stroke-width: 1.5; stroke-linecap: square"/>
   </g>
   <g id="line2d_64">
    <path d="M 70.208369 347.849532 
L 98.34211 349.795418 
L 126.475851 347.196344 
L 154.609592 345.995982 
L 182.743332 347.955547 
L 210.877073 342.359795 
L 239.010814 342.083692 
L 267.144554 342.011875 
L 295.278295 339.139214 
L 323.412036 339.799242 
L 351.545777 327.666896 
L 379.679517 324.1535 
" clip-path="url(#p8f8c0fcd65)" style="fill: none; stroke: #ff7f0e; stroke-opacity: 0.7; stroke-width: 1.5; stroke-linecap: square"/>
   </g>
   <g id="line2d_65">
    <path d="M 70.208369 374.52082 
L 98.34211 373.676121 
L 126.475851 372.356065 
L 154.609592 372.407363 
L 182.743332 371.562664 
L 210.877073 368.880159 
L 239.010814 367.400725 
L 267.144554 366.822773 
L 295.278295 364.442569 
L 323.412036 363.833838 
L 351.545777 358.055931 
L 379.679517 353.953937 
" clip-path="url(#p8f8c0fcd65)" style="fill: none; stroke: #2ca02c; stroke-opacity: 0.7; stroke-width: 1.5; stroke-linecap: square"/>
   </g>
   <g id="patch_9">
    <path d="M 53.328125 386.198437 
L 53.328125 217.648437 
" style="fill: none; stroke: #000000; stroke-width: 0.8; stroke-linejoin: miter; stroke-linecap: square"/>
   </g>
   <g id="patch_10">
    <path d="M 53.328125 386.198437 
L 424.693502 386.198437 
" style="fill: none; stroke: #000000; stroke-width: 0.8; stroke-linejoin: miter; stroke-linecap: square"/>
   </g>
   <g id="text_37">
    <!-- age = 65 tot 80 jaar -->
    <g transform="translate(188.28347 211.648437)scale(0.1 -0.1)">
     <use xlink:href="#DejaVuSans-61"/>
     <use xlink:href="#DejaVuSans-67" x="61.279297"/>
     <use xlink:href="#DejaVuSans-65" x="124.755859"/>
     <use xlink:href="#DejaVuSans-20" x="186.279297"/>
     <use xlink:href="#DejaVuSans-3d" x="218.066406"/>
     <use xlink:href="#DejaVuSans-20" x="301.855469"/>
     <use xlink:href="#DejaVuSans-36" x="333.642578"/>
     <use xlink:href="#DejaVuSans-35" x="397.265625"/>
     <use xlink:href="#DejaVuSans-20" x="460.888672"/>
     <use xlink:href="#DejaVuSans-74" x="492.675781"/>
     <use xlink:href="#DejaVuSans-6f" x="531.884766"/>
     <use xlink:href="#DejaVuSans-74" x="593.066406"/>
     <use xlink:href="#DejaVuSans-20" x="632.275391"/>
     <use xlink:href="#DejaVuSans-38" x="664.0625"/>
     <use xlink:href="#DejaVuSans-30" x="727.685547"/>
     <use xlink:href="#DejaVuSans-20" x="791.308594"/>
     <use xlink:href="#DejaVuSans-6a" x="823.095703"/>
     <use xlink:href="#DejaVuSans-61" x="850.878906"/>
     <use xlink:href="#DejaVuSans-61" x="912.158203"/>
     <use xlink:href="#DejaVuSans-72" x="973.4375"/>
    </g>
   </g>
  </g>
  <g id="axes_4">
   <g id="patch_11">
    <path d="M 467.281105 386.198437 
L 838.646483 386.198437 
L 838.646483 217.648437 
L 467.281105 217.648437 
z
" style="fill: #ffffff"/>
   </g>
   <g id="PolyCollection_10">
    <defs>
     <path id="ma412f6cd9f" d="M 484.16135 -150.270474 
L 484.16135 -127.733829 
L 512.295091 -131.035344 
L 540.428831 -133.983229 
L 568.562572 -130.187175 
L 596.696313 -136.946387 
L 624.830053 -136.504841 
L 652.963794 -143.381711 
L 681.097535 -138.287699 
L 709.231276 -137.441526 
L 737.365016 -148.786949 
L 765.498757 -145.448158 
L 793.632498 -149.381133 
L 793.632498 -206.173026 
L 793.632498 -206.173026 
L 765.498757 -214.216761 
L 737.365016 -175.156904 
L 709.231276 -189.17206 
L 681.097535 -182.418893 
L 652.963794 -170.988045 
L 624.830053 -175.573387 
L 596.696313 -155.430816 
L 568.562572 -166.414587 
L 540.428831 -159.122694 
L 512.295091 -149.202133 
L 484.16135 -150.270474 
z
" style="stroke: #1f77b4; stroke-opacity: 0.2"/>
    </defs>
    <g clip-path="url(#p17c356d8a1)">
     <use xlink:href="#ma412f6cd9f" x="0" y="439.526562" style="fill: #1f77b4; fill-opacity: 0.2; stroke: #1f77b4; stroke-opacity: 0.2"/>
    </g>
   </g>
   <g id="PolyCollection_11">
    <defs>
     <path id="mb8ff4016a2" d="M 484.16135 -70.814214 
L 484.16135 -60.989489 
L 512.295091 -62.552094 
L 540.428831 -64.160718 
L 568.562572 -63.092473 
L 596.696313 -65.877706 
L 624.830053 -66.763785 
L 652.963794 -69.807765 
L 681.097535 -67.983384 
L 709.231276 -68.832302 
L 737.365016 -73.646611 
L 765.498757 -72.208823 
L 793.632498 -75.028372 
L 793.632498 -102.285036 
L 793.632498 -102.285036 
L 765.498757 -105.784517 
L 737.365016 -85.68724 
L 709.231276 -88.882919 
L 681.097535 -85.930406 
L 652.963794 -81.352338 
L 624.830053 -81.859771 
L 596.696313 -74.391903 
L 568.562572 -78.20809 
L 540.428831 -75.229055 
L 512.295091 -70.749345 
L 484.16135 -70.814214 
z
" style="stroke: #ff7f0e; stroke-opacity: 0.2"/>
    </defs>
    <g clip-path="url(#p17c356d8a1)">
     <use xlink:href="#mb8ff4016a2" x="0" y="439.526562" style="fill: #ff7f0e; fill-opacity: 0.2; stroke: #ff7f0e; stroke-opacity: 0.2"/>
    </g>
   </g>
   <g id="PolyCollection_12">
    <defs>
     <path id="m472f5c834b" d="M 484.16135 -99.514641 
L 484.16135 -85.935575 
L 512.295091 -87.419839 
L 540.428831 -88.988234 
L 568.562572 -86.451578 
L 596.696313 -90.218946 
L 624.830053 -89.025298 
L 652.963794 -92.793162 
L 681.097535 -89.711404 
L 709.231276 -87.849092 
L 737.365016 -94.314926 
L 765.498757 -92.48263 
L 793.632498 -93.728509 
L 793.632498 -123.761856 
L 793.632498 -123.761856 
L 765.498757 -128.438564 
L 737.365016 -109.544691 
L 709.231276 -120.298888 
L 681.097535 -116.331013 
L 652.963794 -109.666104 
L 624.830053 -113.678987 
L 596.696313 -101.138262 
L 568.562572 -108.099236 
L 540.428831 -103.97753 
L 512.295091 -98.765812 
L 484.16135 -99.514641 
z
" style="stroke: #2ca02c; stroke-opacity: 0.2"/>
    </defs>
    <g clip-path="url(#p17c356d8a1)">
     <use xlink:href="#m472f5c834b" x="0" y="439.526562" style="fill: #2ca02c; fill-opacity: 0.2; stroke: #2ca02c; stroke-opacity: 0.2"/>
    </g>
   </g>
   <g id="matplotlib.axis_7">
    <g id="xtick_40">
     <g id="line2d_66">
      <g>
       <use xlink:href="#m1a2d36cc12" x="484.16135" y="386.198437" style="stroke: #000000; stroke-width: 0.8"/>
      </g>
     </g>
     <g id="text_38">
      <!-- 2010 -->
      <g transform="translate(486.920725 418.648437)rotate(-90)scale(0.1 -0.1)">
       <use xlink:href="#DejaVuSans-32"/>
       <use xlink:href="#DejaVuSans-30" x="63.623047"/>
       <use xlink:href="#DejaVuSans-31" x="127.246094"/>
       <use xlink:href="#DejaVuSans-30" x="190.869141"/>
      </g>
     </g>
    </g>
    <g id="xtick_41">
     <g id="line2d_67">
      <g>
       <use xlink:href="#m1a2d36cc12" x="512.295091" y="386.198437" style="stroke: #000000; stroke-width: 0.8"/>
      </g>
     </g>
     <g id="text_39">
      <!-- 2011 -->
      <g transform="translate(515.054466 418.648437)rotate(-90)scale(0.1 -0.1)">
       <use xlink:href="#DejaVuSans-32"/>
       <use xlink:href="#DejaVuSans-30" x="63.623047"/>
       <use xlink:href="#DejaVuSans-31" x="127.246094"/>
       <use xlink:href="#DejaVuSans-31" x="190.869141"/>
      </g>
     </g>
    </g>
    <g id="xtick_42">
     <g id="line2d_68">
      <g>
       <use xlink:href="#m1a2d36cc12" x="540.428831" y="386.198437" style="stroke: #000000; stroke-width: 0.8"/>
      </g>
     </g>
     <g id="text_40">
      <!-- 2012 -->
      <g transform="translate(543.188206 418.648437)rotate(-90)scale(0.1 -0.1)">
       <use xlink:href="#DejaVuSans-32"/>
       <use xlink:href="#DejaVuSans-30" x="63.623047"/>
       <use xlink:href="#DejaVuSans-31" x="127.246094"/>
       <use xlink:href="#DejaVuSans-32" x="190.869141"/>
      </g>
     </g>
    </g>
    <g id="xtick_43">
     <g id="line2d_69">
      <g>
       <use xlink:href="#m1a2d36cc12" x="568.562572" y="386.198437" style="stroke: #000000; stroke-width: 0.8"/>
      </g>
     </g>
     <g id="text_41">
      <!-- 2013 -->
      <g transform="translate(571.321947 418.648437)rotate(-90)scale(0.1 -0.1)">
       <use xlink:href="#DejaVuSans-32"/>
       <use xlink:href="#DejaVuSans-30" x="63.623047"/>
       <use xlink:href="#DejaVuSans-31" x="127.246094"/>
       <use xlink:href="#DejaVuSans-33" x="190.869141"/>
      </g>
     </g>
    </g>
    <g id="xtick_44">
     <g id="line2d_70">
      <g>
       <use xlink:href="#m1a2d36cc12" x="596.696313" y="386.198437" style="stroke: #000000; stroke-width: 0.8"/>
      </g>
     </g>
     <g id="text_42">
      <!-- 2014 -->
      <g transform="translate(599.455688 418.648437)rotate(-90)scale(0.1 -0.1)">
       <use xlink:href="#DejaVuSans-32"/>
       <use xlink:href="#DejaVuSans-30" x="63.623047"/>
       <use xlink:href="#DejaVuSans-31" x="127.246094"/>
       <use xlink:href="#DejaVuSans-34" x="190.869141"/>
      </g>
     </g>
    </g>
    <g id="xtick_45">
     <g id="line2d_71">
      <g>
       <use xlink:href="#m1a2d36cc12" x="624.830053" y="386.198437" style="stroke: #000000; stroke-width: 0.8"/>
      </g>
     </g>
     <g id="text_43">
      <!-- 2015 -->
      <g transform="translate(627.589428 418.648437)rotate(-90)scale(0.1 -0.1)">
       <use xlink:href="#DejaVuSans-32"/>
       <use xlink:href="#DejaVuSans-30" x="63.623047"/>
       <use xlink:href="#DejaVuSans-31" x="127.246094"/>
       <use xlink:href="#DejaVuSans-35" x="190.869141"/>
      </g>
     </g>
    </g>
    <g id="xtick_46">
     <g id="line2d_72">
      <g>
       <use xlink:href="#m1a2d36cc12" x="652.963794" y="386.198437" style="stroke: #000000; stroke-width: 0.8"/>
      </g>
     </g>
     <g id="text_44">
      <!-- 2016 -->
      <g transform="translate(655.723169 418.648437)rotate(-90)scale(0.1 -0.1)">
       <use xlink:href="#DejaVuSans-32"/>
       <use xlink:href="#DejaVuSans-30" x="63.623047"/>
       <use xlink:href="#DejaVuSans-31" x="127.246094"/>
       <use xlink:href="#DejaVuSans-36" x="190.869141"/>
      </g>
     </g>
    </g>
    <g id="xtick_47">
     <g id="line2d_73">
      <g>
       <use xlink:href="#m1a2d36cc12" x="681.097535" y="386.198437" style="stroke: #000000; stroke-width: 0.8"/>
      </g>
     </g>
     <g id="text_45">
      <!-- 2017 -->
      <g transform="translate(683.85691 418.648437)rotate(-90)scale(0.1 -0.1)">
       <use xlink:href="#DejaVuSans-32"/>
       <use xlink:href="#DejaVuSans-30" x="63.623047"/>
       <use xlink:href="#DejaVuSans-31" x="127.246094"/>
       <use xlink:href="#DejaVuSans-37" x="190.869141"/>
      </g>
     </g>
    </g>
    <g id="xtick_48">
     <g id="line2d_74">
      <g>
       <use xlink:href="#m1a2d36cc12" x="709.231276" y="386.198437" style="stroke: #000000; stroke-width: 0.8"/>
      </g>
     </g>
     <g id="text_46">
      <!-- 2018 -->
      <g transform="translate(711.990651 418.648437)rotate(-90)scale(0.1 -0.1)">
       <use xlink:href="#DejaVuSans-32"/>
       <use xlink:href="#DejaVuSans-30" x="63.623047"/>
       <use xlink:href="#DejaVuSans-31" x="127.246094"/>
       <use xlink:href="#DejaVuSans-38" x="190.869141"/>
      </g>
     </g>
    </g>
    <g id="xtick_49">
     <g id="line2d_75">
      <g>
       <use xlink:href="#m1a2d36cc12" x="737.365016" y="386.198437" style="stroke: #000000; stroke-width: 0.8"/>
      </g>
     </g>
     <g id="text_47">
      <!-- 2019 -->
      <g transform="translate(740.124391 418.648437)rotate(-90)scale(0.1 -0.1)">
       <use xlink:href="#DejaVuSans-32"/>
       <use xlink:href="#DejaVuSans-30" x="63.623047"/>
       <use xlink:href="#DejaVuSans-31" x="127.246094"/>
       <use xlink:href="#DejaVuSans-39" x="190.869141"/>
      </g>
     </g>
    </g>
    <g id="xtick_50">
     <g id="line2d_76">
      <g>
       <use xlink:href="#m1a2d36cc12" x="765.498757" y="386.198437" style="stroke: #000000; stroke-width: 0.8"/>
      </g>
     </g>
     <g id="text_48">
      <!-- 2020 -->
      <g transform="translate(768.258132 418.648437)rotate(-90)scale(0.1 -0.1)">
       <use xlink:href="#DejaVuSans-32"/>
       <use xlink:href="#DejaVuSans-30" x="63.623047"/>
       <use xlink:href="#DejaVuSans-32" x="127.246094"/>
       <use xlink:href="#DejaVuSans-30" x="190.869141"/>
      </g>
     </g>
    </g>
    <g id="xtick_51">
     <g id="line2d_77">
      <g>
       <use xlink:href="#m1a2d36cc12" x="793.632498" y="386.198437" style="stroke: #000000; stroke-width: 0.8"/>
      </g>
     </g>
     <g id="text_49">
      <!-- 2021 -->
      <g transform="translate(796.391873 418.648437)rotate(-90)scale(0.1 -0.1)">
       <use xlink:href="#DejaVuSans-32"/>
       <use xlink:href="#DejaVuSans-30" x="63.623047"/>
       <use xlink:href="#DejaVuSans-32" x="127.246094"/>
       <use xlink:href="#DejaVuSans-31" x="190.869141"/>
      </g>
     </g>
    </g>
    <g id="xtick_52">
     <g id="line2d_78">
      <g>
       <use xlink:href="#m1a2d36cc12" x="821.766238" y="386.198437" style="stroke: #000000; stroke-width: 0.8"/>
      </g>
     </g>
     <g id="text_50">
      <!-- 2022 -->
      <g transform="translate(824.525613 418.648437)rotate(-90)scale(0.1 -0.1)">
       <use xlink:href="#DejaVuSans-32"/>
       <use xlink:href="#DejaVuSans-30" x="63.623047"/>
       <use xlink:href="#DejaVuSans-32" x="127.246094"/>
       <use xlink:href="#DejaVuSans-32" x="190.869141"/>
      </g>
     </g>
    </g>
    <g id="text_51">
     <!-- year -->
     <g transform="translate(641.808325 430.246875)scale(0.1 -0.1)">
      <use xlink:href="#DejaVuSans-79"/>
      <use xlink:href="#DejaVuSans-65" x="59.179688"/>
      <use xlink:href="#DejaVuSans-61" x="120.703125"/>
      <use xlink:href="#DejaVuSans-72" x="181.982422"/>
     </g>
    </g>
   </g>
   <g id="matplotlib.axis_8">
    <g id="ytick_18">
     <g id="line2d_79">
      <g>
       <use xlink:href="#m39e9079217" x="467.281105" y="376.245751" style="stroke: #000000; stroke-width: 0.8"/>
      </g>
     </g>
     <g id="text_52">
      <!-- 500 -->
      <g transform="translate(441.193605 380.044969)scale(0.1 -0.1)">
       <use xlink:href="#DejaVuSans-35"/>
       <use xlink:href="#DejaVuSans-30" x="63.623047"/>
       <use xlink:href="#DejaVuSans-30" x="127.246094"/>
      </g>
     </g>
    </g>
    <g id="ytick_19">
     <g id="line2d_80">
      <g>
       <use xlink:href="#m39e9079217" x="467.281105" y="354.417748" style="stroke: #000000; stroke-width: 0.8"/>
      </g>
     </g>
     <g id="text_53">
      <!-- 750 -->
      <g transform="translate(441.193605 358.216967)scale(0.1 -0.1)">
       <use xlink:href="#DejaVuSans-37"/>
       <use xlink:href="#DejaVuSans-35" x="63.623047"/>
       <use xlink:href="#DejaVuSans-30" x="127.246094"/>
      </g>
     </g>
    </g>
    <g id="ytick_20">
     <g id="line2d_81">
      <g>
       <use xlink:href="#m39e9079217" x="467.281105" y="332.589746" style="stroke: #000000; stroke-width: 0.8"/>
      </g>
     </g>
     <g id="text_54">
      <!-- 1000 -->
      <g transform="translate(434.831105 336.388965)scale(0.1 -0.1)">
       <use xlink:href="#DejaVuSans-31"/>
       <use xlink:href="#DejaVuSans-30" x="63.623047"/>
       <use xlink:href="#DejaVuSans-30" x="127.246094"/>
       <use xlink:href="#DejaVuSans-30" x="190.869141"/>
      </g>
     </g>
    </g>
    <g id="ytick_21">
     <g id="line2d_82">
      <g>
       <use xlink:href="#m39e9079217" x="467.281105" y="310.761744" style="stroke: #000000; stroke-width: 0.8"/>
      </g>
     </g>
     <g id="text_55">
      <!-- 1250 -->
      <g transform="translate(434.831105 314.560963)scale(0.1 -0.1)">
       <use xlink:href="#DejaVuSans-31"/>
       <use xlink:href="#DejaVuSans-32" x="63.623047"/>
       <use xlink:href="#DejaVuSans-35" x="127.246094"/>
       <use xlink:href="#DejaVuSans-30" x="190.869141"/>
      </g>
     </g>
    </g>
    <g id="ytick_22">
     <g id="line2d_83">
      <g>
       <use xlink:href="#m39e9079217" x="467.281105" y="288.933741" style="stroke: #000000; stroke-width: 0.8"/>
      </g>
     </g>
     <g id="text_56">
      <!-- 1500 -->
      <g transform="translate(434.831105 292.73296)scale(0.1 -0.1)">
       <use xlink:href="#DejaVuSans-31"/>
       <use xlink:href="#DejaVuSans-35" x="63.623047"/>
       <use xlink:href="#DejaVuSans-30" x="127.246094"/>
       <use xlink:href="#DejaVuSans-30" x="190.869141"/>
      </g>
     </g>
    </g>
    <g id="ytick_23">
     <g id="line2d_84">
      <g>
       <use xlink:href="#m39e9079217" x="467.281105" y="267.105739" style="stroke: #000000; stroke-width: 0.8"/>
      </g>
     </g>
     <g id="text_57">
      <!-- 1750 -->
      <g transform="translate(434.831105 270.904958)scale(0.1 -0.1)">
       <use xlink:href="#DejaVuSans-31"/>
       <use xlink:href="#DejaVuSans-37" x="63.623047"/>
       <use xlink:href="#DejaVuSans-35" x="127.246094"/>
       <use xlink:href="#DejaVuSans-30" x="190.869141"/>
      </g>
     </g>
    </g>
    <g id="ytick_24">
     <g id="line2d_85">
      <g>
       <use xlink:href="#m39e9079217" x="467.281105" y="245.277737" style="stroke: #000000; stroke-width: 0.8"/>
      </g>
     </g>
     <g id="text_58">
      <!-- 2000 -->
      <g transform="translate(434.831105 249.076956)scale(0.1 -0.1)">
       <use xlink:href="#DejaVuSans-32"/>
       <use xlink:href="#DejaVuSans-30" x="63.623047"/>
       <use xlink:href="#DejaVuSans-30" x="127.246094"/>
       <use xlink:href="#DejaVuSans-30" x="190.869141"/>
      </g>
     </g>
    </g>
    <g id="ytick_25">
     <g id="line2d_86">
      <g>
       <use xlink:href="#m39e9079217" x="467.281105" y="223.449735" style="stroke: #000000; stroke-width: 0.8"/>
      </g>
     </g>
     <g id="text_59">
      <!-- 2250 -->
      <g transform="translate(434.831105 227.248953)scale(0.1 -0.1)">
       <use xlink:href="#DejaVuSans-32"/>
       <use xlink:href="#DejaVuSans-32" x="63.623047"/>
       <use xlink:href="#DejaVuSans-35" x="127.246094"/>
       <use xlink:href="#DejaVuSans-30" x="190.869141"/>
      </g>
     </g>
    </g>
    <g id="text_60">
     <!-- mean deaths per week -->
     <g transform="translate(428.751418 359.3625)rotate(-90)scale(0.1 -0.1)">
      <use xlink:href="#DejaVuSans-6d"/>
      <use xlink:href="#DejaVuSans-65" x="97.412109"/>
      <use xlink:href="#DejaVuSans-61" x="158.935547"/>
      <use xlink:href="#DejaVuSans-6e" x="220.214844"/>
      <use xlink:href="#DejaVuSans-20" x="283.59375"/>
      <use xlink:href="#DejaVuSans-64" x="315.380859"/>
      <use xlink:href="#DejaVuSans-65" x="378.857422"/>
      <use xlink:href="#DejaVuSans-61" x="440.380859"/>
      <use xlink:href="#DejaVuSans-74" x="501.660156"/>
      <use xlink:href="#DejaVuSans-68" x="540.869141"/>
      <use xlink:href="#DejaVuSans-73" x="604.248047"/>
      <use xlink:href="#DejaVuSans-20" x="656.347656"/>
      <use xlink:href="#DejaVuSans-70" x="688.134766"/>
      <use xlink:href="#DejaVuSans-65" x="751.611328"/>
      <use xlink:href="#DejaVuSans-72" x="813.134766"/>
      <use xlink:href="#DejaVuSans-20" x="854.248047"/>
      <use xlink:href="#DejaVuSans-77" x="886.035156"/>
      <use xlink:href="#DejaVuSans-65" x="967.822266"/>
      <use xlink:href="#DejaVuSans-65" x="1029.345703"/>
      <use xlink:href="#DejaVuSans-6b" x="1090.869141"/>
     </g>
    </g>
   </g>
   <g id="line2d_87">
    <path d="M 484.16135 300.524411 
L 512.295091 299.407824 
L 540.428831 292.973601 
L 568.562572 291.225682 
L 596.696313 293.337961 
L 624.830053 283.487449 
L 652.963794 282.341685 
L 681.097535 279.173266 
L 709.231276 276.21977 
L 737.365016 277.554636 
L 765.498757 259.694103 
L 793.632498 261.749483 
L 821.766238 257.064858 
" clip-path="url(#p17c356d8a1)" style="fill: none; stroke: #1f77b4; stroke-opacity: 0.7; stroke-width: 1.5; stroke-linecap: square"/>
   </g>
   <g id="line2d_88">
    <path d="M 484.16135 373.624711 
L 512.295091 372.875843 
L 540.428831 369.831676 
L 568.562572 368.876281 
L 596.696313 369.391758 
L 624.830053 365.214784 
L 652.963794 363.946511 
L 681.097535 362.569668 
L 709.231276 360.668952 
L 737.365016 359.859637 
L 765.498757 350.529893 
L 793.632498 350.869858 
" clip-path="url(#p17c356d8a1)" style="fill: none; stroke: #ff7f0e; stroke-opacity: 0.7; stroke-width: 1.5; stroke-linecap: square"/>
   </g>
   <g id="line2d_89">
    <path d="M 484.16135 346.801455 
L 512.295091 346.433737 
L 540.428831 343.04368 
L 568.562572 342.251156 
L 596.696313 343.847958 
L 624.830053 338.17442 
L 652.963794 338.296929 
L 681.097535 336.505354 
L 709.231276 335.452573 
L 737.365016 337.596754 
L 765.498757 329.065965 
L 793.632498 330.78138 
" clip-path="url(#p17c356d8a1)" style="fill: none; stroke: #2ca02c; stroke-opacity: 0.7; stroke-width: 1.5; stroke-linecap: square"/>
   </g>
   <g id="patch_12">
    <path d="M 467.281105 386.198437 
L 467.281105 217.648437 
" style="fill: none; stroke: #000000; stroke-width: 0.8; stroke-linejoin: miter; stroke-linecap: square"/>
   </g>
   <g id="patch_13">
    <path d="M 467.281105 386.198437 
L 838.646483 386.198437 
" style="fill: none; stroke: #000000; stroke-width: 0.8; stroke-linejoin: miter; stroke-linecap: square"/>
   </g>
   <g id="text_61">
    <!-- age = 80 jaar of ouder -->
    <g transform="translate(596.224732 211.648437)scale(0.1 -0.1)">
     <defs>
      <path id="DejaVuSans-75" d="M 544 1381 
L 544 3500 
L 1119 3500 
L 1119 1403 
Q 1119 906 1312 657 
Q 1506 409 1894 409 
Q 2359 409 2629 706 
Q 2900 1003 2900 1516 
L 2900 3500 
L 3475 3500 
L 3475 0 
L 2900 0 
L 2900 538 
Q 2691 219 2414 64 
Q 2138 -91 1772 -91 
Q 1169 -91 856 284 
Q 544 659 544 1381 
z
M 1991 3584 
L 1991 3584 
z
" transform="scale(0.015625)"/>
     </defs>
     <use xlink:href="#DejaVuSans-61"/>
     <use xlink:href="#DejaVuSans-67" x="61.279297"/>
     <use xlink:href="#DejaVuSans-65" x="124.755859"/>
     <use xlink:href="#DejaVuSans-20" x="186.279297"/>
     <use xlink:href="#DejaVuSans-3d" x="218.066406"/>
     <use xlink:href="#DejaVuSans-20" x="301.855469"/>
     <use xlink:href="#DejaVuSans-38" x="333.642578"/>
     <use xlink:href="#DejaVuSans-30" x="397.265625"/>
     <use xlink:href="#DejaVuSans-20" x="460.888672"/>
     <use xlink:href="#DejaVuSans-6a" x="492.675781"/>
     <use xlink:href="#DejaVuSans-61" x="520.458984"/>
     <use xlink:href="#DejaVuSans-61" x="581.738281"/>
     <use xlink:href="#DejaVuSans-72" x="643.017578"/>
     <use xlink:href="#DejaVuSans-20" x="684.130859"/>
     <use xlink:href="#DejaVuSans-6f" x="715.917969"/>
     <use xlink:href="#DejaVuSans-66" x="777.099609"/>
     <use xlink:href="#DejaVuSans-20" x="812.304688"/>
     <use xlink:href="#DejaVuSans-6f" x="844.091797"/>
     <use xlink:href="#DejaVuSans-75" x="905.273438"/>
     <use xlink:href="#DejaVuSans-64" x="968.652344"/>
     <use xlink:href="#DejaVuSans-65" x="1032.128906"/>
     <use xlink:href="#DejaVuSans-72" x="1093.652344"/>
    </g>
   </g>
  </g>
  <g id="legend_1">
   <g id="line2d_90">
    <path d="M 849.59992 204.344531 
L 859.59992 204.344531 
L 869.59992 204.344531 
" style="fill: none; stroke: #1f77b4; stroke-opacity: 0.7; stroke-width: 1.5; stroke-linecap: square"/>
   </g>
   <g id="text_62">
    <!-- Totaal mannen en vrouwen -->
    <g transform="translate(877.59992 207.844531)scale(0.1 -0.1)">
     <defs>
      <path id="DejaVuSans-76" d="M 191 3500 
L 800 3500 
L 1894 563 
L 2988 3500 
L 3597 3500 
L 2284 0 
L 1503 0 
L 191 3500 
z
" transform="scale(0.015625)"/>
     </defs>
     <use xlink:href="#DejaVuSans-54"/>
     <use xlink:href="#DejaVuSans-6f" x="44.083984"/>
     <use xlink:href="#DejaVuSans-74" x="105.265625"/>
     <use xlink:href="#DejaVuSans-61" x="144.474609"/>
     <use xlink:href="#DejaVuSans-61" x="205.753906"/>
     <use xlink:href="#DejaVuSans-6c" x="267.033203"/>
     <use xlink:href="#DejaVuSans-20" x="294.816406"/>
     <use xlink:href="#DejaVuSans-6d" x="326.603516"/>
     <use xlink:href="#DejaVuSans-61" x="424.015625"/>
     <use xlink:href="#DejaVuSans-6e" x="485.294922"/>
     <use xlink:href="#DejaVuSans-6e" x="548.673828"/>
     <use xlink:href="#DejaVuSans-65" x="612.052734"/>
     <use xlink:href="#DejaVuSans-6e" x="673.576172"/>
     <use xlink:href="#DejaVuSans-20" x="736.955078"/>
     <use xlink:href="#DejaVuSans-65" x="768.742188"/>
     <use xlink:href="#DejaVuSans-6e" x="830.265625"/>
     <use xlink:href="#DejaVuSans-20" x="893.644531"/>
     <use xlink:href="#DejaVuSans-76" x="925.431641"/>
     <use xlink:href="#DejaVuSans-72" x="984.611328"/>
     <use xlink:href="#DejaVuSans-6f" x="1023.474609"/>
     <use xlink:href="#DejaVuSans-75" x="1084.65625"/>
     <use xlink:href="#DejaVuSans-77" x="1148.035156"/>
     <use xlink:href="#DejaVuSans-65" x="1229.822266"/>
     <use xlink:href="#DejaVuSans-6e" x="1291.345703"/>
    </g>
   </g>
   <g id="line2d_91">
    <path d="M 849.59992 219.022656 
L 859.59992 219.022656 
L 869.59992 219.022656 
" style="fill: none; stroke: #ff7f0e; stroke-opacity: 0.7; stroke-width: 1.5; stroke-linecap: square"/>
   </g>
   <g id="text_63">
    <!-- Mannen -->
    <g transform="translate(877.59992 222.522656)scale(0.1 -0.1)">
     <defs>
      <path id="DejaVuSans-4d" d="M 628 4666 
L 1569 4666 
L 2759 1491 
L 3956 4666 
L 4897 4666 
L 4897 0 
L 4281 0 
L 4281 4097 
L 3078 897 
L 2444 897 
L 1241 4097 
L 1241 0 
L 628 0 
L 628 4666 
z
" transform="scale(0.015625)"/>
     </defs>
     <use xlink:href="#DejaVuSans-4d"/>
     <use xlink:href="#DejaVuSans-61" x="86.279297"/>
     <use xlink:href="#DejaVuSans-6e" x="147.558594"/>
     <use xlink:href="#DejaVuSans-6e" x="210.9375"/>
     <use xlink:href="#DejaVuSans-65" x="274.316406"/>
     <use xlink:href="#DejaVuSans-6e" x="335.839844"/>
    </g>
   </g>
   <g id="line2d_92">
    <path d="M 849.59992 233.700781 
L 859.59992 233.700781 
L 869.59992 233.700781 
" style="fill: none; stroke: #2ca02c; stroke-opacity: 0.7; stroke-width: 1.5; stroke-linecap: square"/>
   </g>
   <g id="text_64">
    <!-- Vrouwen -->
    <g transform="translate(877.59992 237.200781)scale(0.1 -0.1)">
     <defs>
      <path id="DejaVuSans-56" d="M 1831 0 
L 50 4666 
L 709 4666 
L 2188 738 
L 3669 4666 
L 4325 4666 
L 2547 0 
L 1831 0 
z
" transform="scale(0.015625)"/>
     </defs>
     <use xlink:href="#DejaVuSans-56"/>
     <use xlink:href="#DejaVuSans-72" x="68.408203"/>
     <use xlink:href="#DejaVuSans-6f" x="107.271484"/>
     <use xlink:href="#DejaVuSans-75" x="168.453125"/>
     <use xlink:href="#DejaVuSans-77" x="231.832031"/>
     <use xlink:href="#DejaVuSans-65" x="313.619141"/>
     <use xlink:href="#DejaVuSans-6e" x="375.142578"/>
    </g>
   </g>
  </g>
 </g>
 <defs>
  <clipPath id="p3dee729350">
   <rect x="53.328125" y="20.798437" width="371.365377" height="168.55"/>
  </clipPath>
  <clipPath id="p0030114516">
   <rect x="467.281105" y="20.798437" width="371.365377" height="168.55"/>
  </clipPath>
  <clipPath id="p8f8c0fcd65">
   <rect x="53.328125" y="217.648437" width="371.365377" height="168.55"/>
  </clipPath>
  <clipPath id="p17c356d8a1">
   <rect x="467.281105" y="217.648437" width="371.365377" height="168.55"/>
  </clipPath>
 </defs>
</svg>
