<?xml version="1.0" encoding="utf-8" standalone="no"?>
<!DOCTYPE svg PUBLIC "-//W3C//DTD SVG 1.1//EN"
  "http://www.w3.org/Graphics/SVG/1.1/DTD/svg11.dtd">
<svg xmlns:xlink="http://www.w3.org/1999/xlink" width="415.229312pt" height="452.79976pt" viewBox="0 0 415.229312 452.79976" xmlns="http://www.w3.org/2000/svg" version="1.1">
 <metadata>
  <rdf:RDF xmlns:dc="http://purl.org/dc/elements/1.1/" xmlns:cc="http://creativecommons.org/ns#" xmlns:rdf="http://www.w3.org/1999/02/22-rdf-syntax-ns#">
   <cc:Work>
    <dc:type rdf:resource="http://purl.org/dc/dcmitype/StillImage"/>
    <dc:date>2022-09-23T04:22:40.640696</dc:date>
    <dc:format>image/svg+xml</dc:format>
    <dc:creator>
     <cc:Agent>
      <dc:title>Matplotlib v3.6.0, https://matplotlib.org/</dc:title>
     </cc:Agent>
    </dc:creator>
   </cc:Work>
  </rdf:RDF>
 </metadata>
 <defs>
  <style type="text/css">*{stroke-linejoin: round; stroke-linecap: butt}</style>
 </defs>
 <g id="figure_1">
  <g id="patch_1">
   <path d="M 0 452.79976 
L 415.229312 452.79976 
L 415.229312 0 
L 0 0 
z
" style="fill: #ffffff"/>
  </g>
  <g id="axes_1">
   <g id="patch_2">
    <path d="M 364.645312 251.95176 
C 364.645312 229.968993 360.315187 208.199982 351.902746 187.890553 
C 343.490306 167.581125 331.159151 149.126248 315.614988 133.582085 
C 300.070824 118.037922 281.615947 105.706767 261.306519 97.294326 
C 240.997091 88.881886 219.228079 84.55176 197.245313 84.55176 
C 175.262546 84.55176 153.493534 88.881886 133.184106 97.294326 
C 112.874678 105.706767 94.419801 118.037922 78.875637 133.582085 
C 63.331474 149.126248 51.000319 167.581125 42.587879 187.890553 
C 34.175438 208.199982 29.845312 229.968993 29.845312 251.95176 
C 29.845312 273.934527 34.175438 295.703538 42.587879 316.012967 
C 51.000319 336.322395 63.331474 354.777272 78.875637 370.321435 
C 94.419801 385.865598 112.874678 398.196753 133.184106 406.609194 
C 153.493534 415.021634 175.262546 419.35176 197.245312 419.35176 
C 219.228079 419.35176 240.997091 415.021634 261.306519 406.609194 
C 281.615947 398.196753 300.070824 385.865598 315.614988 370.321435 
C 331.159151 354.777272 343.490306 336.322395 351.902746 316.012967 
C 360.315187 295.703538 364.645312 273.934527 364.645312 251.95176 
M 197.245312 251.95176 
C 197.245312 251.95176 197.245312 251.95176 197.245312 251.95176 
C 197.245312 251.95176 197.245312 251.95176 197.245312 251.95176 
C 197.245312 251.95176 197.245312 251.95176 197.245312 251.95176 
C 197.245312 251.95176 197.245312 251.95176 197.245312 251.95176 
C 197.245312 251.95176 197.245312 251.95176 197.245312 251.95176 
C 197.245312 251.95176 197.245312 251.95176 197.245312 251.95176 
C 197.245312 251.95176 197.245312 251.95176 197.245312 251.95176 
C 197.245312 251.95176 197.245312 251.95176 197.245312 251.95176 
C 197.245312 251.95176 197.245312 251.95176 197.245312 251.95176 
C 197.245312 251.95176 197.245312 251.95176 197.245312 251.95176 
C 197.245312 251.95176 197.245312 251.95176 197.245312 251.95176 
C 197.245312 251.95176 197.245312 251.95176 197.245312 251.95176 
C 197.245312 251.95176 197.245312 251.95176 197.245312 251.95176 
C 197.245312 251.95176 197.245312 251.95176 197.245312 251.95176 
C 197.245312 251.95176 197.245312 251.95176 197.245312 251.95176 
C 197.245312 251.95176 197.245312 251.95176 197.245312 251.95176 
M 364.645312 251.95176 
z
" style="fill: #ffffff"/>
   </g>
   <g id="matplotlib.axis_1">
    <g id="xtick_1">
     <g id="line2d_1">
      <path d="M 197.245312 251.95176 
L 197.245312 84.55176 
" clip-path="url(#pd5c7e25520)" style="fill: none; stroke: #b0b0b0; stroke-width: 0.8; stroke-linecap: square"/>
     </g>
     <g id="text_1">
      <!-- Jan -->
      <g transform="translate(189.5375 73.311135) scale(0.1 -0.1)">
       <defs>
        <path id="DejaVuSans-4a" d="M 628 4666 
L 1259 4666 
L 1259 325 
Q 1259 -519 939 -900 
Q 619 -1281 -91 -1281 
L -331 -1281 
L -331 -750 
L -134 -750 
Q 284 -750 456 -515 
Q 628 -281 628 325 
L 628 4666 
z
" transform="scale(0.015625)"/>
        <path id="DejaVuSans-61" d="M 2194 1759 
Q 1497 1759 1228 1600 
Q 959 1441 959 1056 
Q 959 750 1161 570 
Q 1363 391 1709 391 
Q 2188 391 2477 730 
Q 2766 1069 2766 1631 
L 2766 1759 
L 2194 1759 
z
M 3341 1997 
L 3341 0 
L 2766 0 
L 2766 531 
Q 2569 213 2275 61 
Q 1981 -91 1556 -91 
Q 1019 -91 701 211 
Q 384 513 384 1019 
Q 384 1609 779 1909 
Q 1175 2209 1959 2209 
L 2766 2209 
L 2766 2266 
Q 2766 2663 2505 2880 
Q 2244 3097 1772 3097 
Q 1472 3097 1187 3025 
Q 903 2953 641 2809 
L 641 3341 
Q 956 3463 1253 3523 
Q 1550 3584 1831 3584 
Q 2591 3584 2966 3190 
Q 3341 2797 3341 1997 
z
" transform="scale(0.015625)"/>
        <path id="DejaVuSans-6e" d="M 3513 2113 
L 3513 0 
L 2938 0 
L 2938 2094 
Q 2938 2591 2744 2837 
Q 2550 3084 2163 3084 
Q 1697 3084 1428 2787 
Q 1159 2491 1159 1978 
L 1159 0 
L 581 0 
L 581 3500 
L 1159 3500 
L 1159 2956 
Q 1366 3272 1645 3428 
Q 1925 3584 2291 3584 
Q 2894 3584 3203 3211 
Q 3513 2838 3513 2113 
z
" transform="scale(0.015625)"/>
       </defs>
       <use xlink:href="#DejaVuSans-4a"/>
       <use xlink:href="#DejaVuSans-61" x="29.492188"/>
       <use xlink:href="#DejaVuSans-6e" x="90.771484"/>
      </g>
     </g>
    </g>
    <g id="xtick_2">
     <g id="line2d_2">
      <path d="M 197.245312 251.95176 
L 280.945312 106.979107 
" clip-path="url(#pd5c7e25520)" style="fill: none; stroke: #b0b0b0; stroke-width: 0.8; stroke-linecap: square"/>
     </g>
     <g id="text_2">
      <!-- Feb -->
      <g transform="translate(279.09375 97.614127) scale(0.1 -0.1)">
       <defs>
        <path id="DejaVuSans-46" d="M 628 4666 
L 3309 4666 
L 3309 4134 
L 1259 4134 
L 1259 2759 
L 3109 2759 
L 3109 2228 
L 1259 2228 
L 1259 0 
L 628 0 
L 628 4666 
z
" transform="scale(0.015625)"/>
        <path id="DejaVuSans-65" d="M 3597 1894 
L 3597 1613 
L 953 1613 
Q 991 1019 1311 708 
Q 1631 397 2203 397 
Q 2534 397 2845 478 
Q 3156 559 3463 722 
L 3463 178 
Q 3153 47 2828 -22 
Q 2503 -91 2169 -91 
Q 1331 -91 842 396 
Q 353 884 353 1716 
Q 353 2575 817 3079 
Q 1281 3584 2069 3584 
Q 2775 3584 3186 3129 
Q 3597 2675 3597 1894 
z
M 3022 2063 
Q 3016 2534 2758 2815 
Q 2500 3097 2075 3097 
Q 1594 3097 1305 2825 
Q 1016 2553 972 2059 
L 3022 2063 
z
" transform="scale(0.015625)"/>
        <path id="DejaVuSans-62" d="M 3116 1747 
Q 3116 2381 2855 2742 
Q 2594 3103 2138 3103 
Q 1681 3103 1420 2742 
Q 1159 2381 1159 1747 
Q 1159 1113 1420 752 
Q 1681 391 2138 391 
Q 2594 391 2855 752 
Q 3116 1113 3116 1747 
z
M 1159 2969 
Q 1341 3281 1617 3432 
Q 1894 3584 2278 3584 
Q 2916 3584 3314 3078 
Q 3713 2572 3713 1747 
Q 3713 922 3314 415 
Q 2916 -91 2278 -91 
Q 1894 -91 1617 61 
Q 1341 213 1159 525 
L 1159 0 
L 581 0 
L 581 4863 
L 1159 4863 
L 1159 2969 
z
" transform="scale(0.015625)"/>
       </defs>
       <use xlink:href="#DejaVuSans-46"/>
       <use xlink:href="#DejaVuSans-65" x="52.019531"/>
       <use xlink:href="#DejaVuSans-62" x="113.542969"/>
      </g>
     </g>
    </g>
    <g id="xtick_3">
     <g id="line2d_3">
      <path d="M 197.245312 251.95176 
L 342.217965 168.25176 
" clip-path="url(#pd5c7e25520)" style="fill: none; stroke: #b0b0b0; stroke-width: 0.8; stroke-linecap: square"/>
     </g>
     <g id="text_3">
      <!-- Mar -->
      <g transform="translate(344.908727 164.011135) scale(0.1 -0.1)">
       <defs>
        <path id="DejaVuSans-4d" d="M 628 4666 
L 1569 4666 
L 2759 1491 
L 3956 4666 
L 4897 4666 
L 4897 0 
L 4281 0 
L 4281 4097 
L 3078 897 
L 2444 897 
L 1241 4097 
L 1241 0 
L 628 0 
L 628 4666 
z
" transform="scale(0.015625)"/>
        <path id="DejaVuSans-72" d="M 2631 2963 
Q 2534 3019 2420 3045 
Q 2306 3072 2169 3072 
Q 1681 3072 1420 2755 
Q 1159 2438 1159 1844 
L 1159 0 
L 581 0 
L 581 3500 
L 1159 3500 
L 1159 2956 
Q 1341 3275 1631 3429 
Q 1922 3584 2338 3584 
Q 2397 3584 2469 3576 
Q 2541 3569 2628 3553 
L 2631 2963 
z
" transform="scale(0.015625)"/>
       </defs>
       <use xlink:href="#DejaVuSans-4d"/>
       <use xlink:href="#DejaVuSans-61" x="86.279297"/>
       <use xlink:href="#DejaVuSans-72" x="147.558594"/>
      </g>
     </g>
    </g>
    <g id="xtick_4">
     <g id="line2d_4">
      <path d="M 197.245312 251.95176 
L 364.645312 251.95176 
" clip-path="url(#pd5c7e25520)" style="fill: none; stroke: #b0b0b0; stroke-width: 0.8; stroke-linecap: square"/>
     </g>
     <g id="text_4">
      <!-- Apr -->
      <g transform="translate(369.995313 254.711135) scale(0.1 -0.1)">
       <defs>
        <path id="DejaVuSans-41" d="M 2188 4044 
L 1331 1722 
L 3047 1722 
L 2188 4044 
z
M 1831 4666 
L 2547 4666 
L 4325 0 
L 3669 0 
L 3244 1197 
L 1141 1197 
L 716 0 
L 50 0 
L 1831 4666 
z
" transform="scale(0.015625)"/>
        <path id="DejaVuSans-70" d="M 1159 525 
L 1159 -1331 
L 581 -1331 
L 581 3500 
L 1159 3500 
L 1159 2969 
Q 1341 3281 1617 3432 
Q 1894 3584 2278 3584 
Q 2916 3584 3314 3078 
Q 3713 2572 3713 1747 
Q 3713 922 3314 415 
Q 2916 -91 2278 -91 
Q 1894 -91 1617 61 
Q 1341 213 1159 525 
z
M 3116 1747 
Q 3116 2381 2855 2742 
Q 2594 3103 2138 3103 
Q 1681 3103 1420 2742 
Q 1159 2381 1159 1747 
Q 1159 1113 1420 752 
Q 1681 391 2138 391 
Q 2594 391 2855 752 
Q 3116 1113 3116 1747 
z
" transform="scale(0.015625)"/>
       </defs>
       <use xlink:href="#DejaVuSans-41"/>
       <use xlink:href="#DejaVuSans-70" x="68.408203"/>
       <use xlink:href="#DejaVuSans-72" x="131.884766"/>
      </g>
     </g>
    </g>
    <g id="xtick_5">
     <g id="line2d_5">
      <path d="M 197.245312 251.95176 
L 342.217965 335.65176 
" clip-path="url(#pd5c7e25520)" style="fill: none; stroke: #b0b0b0; stroke-width: 0.8; stroke-linecap: square"/>
     </g>
     <g id="text_5">
      <!-- May -->
      <g transform="translate(344.004821 345.411135) scale(0.1 -0.1)">
       <defs>
        <path id="DejaVuSans-79" d="M 2059 -325 
Q 1816 -950 1584 -1140 
Q 1353 -1331 966 -1331 
L 506 -1331 
L 506 -850 
L 844 -850 
Q 1081 -850 1212 -737 
Q 1344 -625 1503 -206 
L 1606 56 
L 191 3500 
L 800 3500 
L 1894 763 
L 2988 3500 
L 3597 3500 
L 2059 -325 
z
" transform="scale(0.015625)"/>
       </defs>
       <use xlink:href="#DejaVuSans-4d"/>
       <use xlink:href="#DejaVuSans-61" x="86.279297"/>
       <use xlink:href="#DejaVuSans-79" x="147.558594"/>
      </g>
     </g>
    </g>
    <g id="xtick_6">
     <g id="line2d_6">
      <path d="M 197.245312 251.95176 
L 280.945313 396.924413 
" clip-path="url(#pd5c7e25520)" style="fill: none; stroke: #b0b0b0; stroke-width: 0.8; stroke-linecap: square"/>
     </g>
     <g id="text_6">
      <!-- Jun -->
      <g transform="translate(280.132813 411.808143) scale(0.1 -0.1)">
       <defs>
        <path id="DejaVuSans-75" d="M 544 1381 
L 544 3500 
L 1119 3500 
L 1119 1403 
Q 1119 906 1312 657 
Q 1506 409 1894 409 
Q 2359 409 2629 706 
Q 2900 1003 2900 1516 
L 2900 3500 
L 3475 3500 
L 3475 0 
L 2900 0 
L 2900 538 
Q 2691 219 2414 64 
Q 2138 -91 1772 -91 
Q 1169 -91 856 284 
Q 544 659 544 1381 
z
M 1991 3584 
L 1991 3584 
z
" transform="scale(0.015625)"/>
       </defs>
       <use xlink:href="#DejaVuSans-4a"/>
       <use xlink:href="#DejaVuSans-75" x="29.492188"/>
       <use xlink:href="#DejaVuSans-6e" x="92.871094"/>
      </g>
     </g>
    </g>
    <g id="xtick_7">
     <g id="line2d_7">
      <path d="M 197.245312 251.95176 
L 197.245312 419.35176 
" clip-path="url(#pd5c7e25520)" style="fill: none; stroke: #b0b0b0; stroke-width: 0.8; stroke-linecap: square"/>
     </g>
     <g id="text_7">
      <!-- Jul -->
      <g transform="translate(191.2125 436.111135) scale(0.1 -0.1)">
       <defs>
        <path id="DejaVuSans-6c" d="M 603 4863 
L 1178 4863 
L 1178 0 
L 603 0 
L 603 4863 
z
" transform="scale(0.015625)"/>
       </defs>
       <use xlink:href="#DejaVuSans-4a"/>
       <use xlink:href="#DejaVuSans-75" x="29.492188"/>
       <use xlink:href="#DejaVuSans-6c" x="92.871094"/>
      </g>
     </g>
    </g>
    <g id="xtick_8">
     <g id="line2d_8">
      <path d="M 197.245312 251.95176 
L 113.545313 396.924413 
" clip-path="url(#pd5c7e25520)" style="fill: none; stroke: #b0b0b0; stroke-width: 0.8; stroke-linecap: square"/>
     </g>
     <g id="text_8">
      <!-- Aug -->
      <g transform="translate(96.782031 411.808143) scale(0.1 -0.1)">
       <defs>
        <path id="DejaVuSans-67" d="M 2906 1791 
Q 2906 2416 2648 2759 
Q 2391 3103 1925 3103 
Q 1463 3103 1205 2759 
Q 947 2416 947 1791 
Q 947 1169 1205 825 
Q 1463 481 1925 481 
Q 2391 481 2648 825 
Q 2906 1169 2906 1791 
z
M 3481 434 
Q 3481 -459 3084 -895 
Q 2688 -1331 1869 -1331 
Q 1566 -1331 1297 -1286 
Q 1028 -1241 775 -1147 
L 775 -588 
Q 1028 -725 1275 -790 
Q 1522 -856 1778 -856 
Q 2344 -856 2625 -561 
Q 2906 -266 2906 331 
L 2906 616 
Q 2728 306 2450 153 
Q 2172 0 1784 0 
Q 1141 0 747 490 
Q 353 981 353 1791 
Q 353 2603 747 3093 
Q 1141 3584 1784 3584 
Q 2172 3584 2450 3431 
Q 2728 3278 2906 2969 
L 2906 3500 
L 3481 3500 
L 3481 434 
z
" transform="scale(0.015625)"/>
       </defs>
       <use xlink:href="#DejaVuSans-41"/>
       <use xlink:href="#DejaVuSans-75" x="68.408203"/>
       <use xlink:href="#DejaVuSans-67" x="131.787109"/>
      </g>
     </g>
    </g>
    <g id="xtick_9">
     <g id="line2d_9">
      <path d="M 197.245312 251.95176 
L 52.27266 335.65176 
" clip-path="url(#pd5c7e25520)" style="fill: none; stroke: #b0b0b0; stroke-width: 0.8; stroke-linecap: square"/>
     </g>
     <g id="text_9">
      <!-- Sep -->
      <g transform="translate(30.723304 345.411135) scale(0.1 -0.1)">
       <defs>
        <path id="DejaVuSans-53" d="M 3425 4513 
L 3425 3897 
Q 3066 4069 2747 4153 
Q 2428 4238 2131 4238 
Q 1616 4238 1336 4038 
Q 1056 3838 1056 3469 
Q 1056 3159 1242 3001 
Q 1428 2844 1947 2747 
L 2328 2669 
Q 3034 2534 3370 2195 
Q 3706 1856 3706 1288 
Q 3706 609 3251 259 
Q 2797 -91 1919 -91 
Q 1588 -91 1214 -16 
Q 841 59 441 206 
L 441 856 
Q 825 641 1194 531 
Q 1563 422 1919 422 
Q 2459 422 2753 634 
Q 3047 847 3047 1241 
Q 3047 1584 2836 1778 
Q 2625 1972 2144 2069 
L 1759 2144 
Q 1053 2284 737 2584 
Q 422 2884 422 3419 
Q 422 4038 858 4394 
Q 1294 4750 2059 4750 
Q 2388 4750 2728 4690 
Q 3069 4631 3425 4513 
z
" transform="scale(0.015625)"/>
       </defs>
       <use xlink:href="#DejaVuSans-53"/>
       <use xlink:href="#DejaVuSans-65" x="63.476562"/>
       <use xlink:href="#DejaVuSans-70" x="125"/>
      </g>
     </g>
    </g>
    <g id="xtick_10">
     <g id="line2d_10">
      <path d="M 197.245312 251.95176 
L 29.845312 251.95176 
" clip-path="url(#pd5c7e25520)" style="fill: none; stroke: #b0b0b0; stroke-width: 0.8; stroke-linecap: square"/>
     </g>
     <g id="text_10">
      <!-- Oct -->
      <g transform="translate(7.2 254.711135) scale(0.1 -0.1)">
       <defs>
        <path id="DejaVuSans-4f" d="M 2522 4238 
Q 1834 4238 1429 3725 
Q 1025 3213 1025 2328 
Q 1025 1447 1429 934 
Q 1834 422 2522 422 
Q 3209 422 3611 934 
Q 4013 1447 4013 2328 
Q 4013 3213 3611 3725 
Q 3209 4238 2522 4238 
z
M 2522 4750 
Q 3503 4750 4090 4092 
Q 4678 3434 4678 2328 
Q 4678 1225 4090 567 
Q 3503 -91 2522 -91 
Q 1538 -91 948 565 
Q 359 1222 359 2328 
Q 359 3434 948 4092 
Q 1538 4750 2522 4750 
z
" transform="scale(0.015625)"/>
        <path id="DejaVuSans-63" d="M 3122 3366 
L 3122 2828 
Q 2878 2963 2633 3030 
Q 2388 3097 2138 3097 
Q 1578 3097 1268 2742 
Q 959 2388 959 1747 
Q 959 1106 1268 751 
Q 1578 397 2138 397 
Q 2388 397 2633 464 
Q 2878 531 3122 666 
L 3122 134 
Q 2881 22 2623 -34 
Q 2366 -91 2075 -91 
Q 1284 -91 818 406 
Q 353 903 353 1747 
Q 353 2603 823 3093 
Q 1294 3584 2113 3584 
Q 2378 3584 2631 3529 
Q 2884 3475 3122 3366 
z
" transform="scale(0.015625)"/>
        <path id="DejaVuSans-74" d="M 1172 4494 
L 1172 3500 
L 2356 3500 
L 2356 3053 
L 1172 3053 
L 1172 1153 
Q 1172 725 1289 603 
Q 1406 481 1766 481 
L 2356 481 
L 2356 0 
L 1766 0 
Q 1100 0 847 248 
Q 594 497 594 1153 
L 594 3053 
L 172 3053 
L 172 3500 
L 594 3500 
L 594 4494 
L 1172 4494 
z
" transform="scale(0.015625)"/>
       </defs>
       <use xlink:href="#DejaVuSans-4f"/>
       <use xlink:href="#DejaVuSans-63" x="78.710938"/>
       <use xlink:href="#DejaVuSans-74" x="133.691406"/>
      </g>
     </g>
    </g>
    <g id="xtick_11">
     <g id="line2d_11">
      <path d="M 197.245312 251.95176 
L 52.27266 168.25176 
" clip-path="url(#pd5c7e25520)" style="fill: none; stroke: #b0b0b0; stroke-width: 0.8; stroke-linecap: square"/>
     </g>
     <g id="text_11">
      <!-- Nov -->
      <g transform="translate(30.388929 164.011135) scale(0.1 -0.1)">
       <defs>
        <path id="DejaVuSans-4e" d="M 628 4666 
L 1478 4666 
L 3547 763 
L 3547 4666 
L 4159 4666 
L 4159 0 
L 3309 0 
L 1241 3903 
L 1241 0 
L 628 0 
L 628 4666 
z
" transform="scale(0.015625)"/>
        <path id="DejaVuSans-6f" d="M 1959 3097 
Q 1497 3097 1228 2736 
Q 959 2375 959 1747 
Q 959 1119 1226 758 
Q 1494 397 1959 397 
Q 2419 397 2687 759 
Q 2956 1122 2956 1747 
Q 2956 2369 2687 2733 
Q 2419 3097 1959 3097 
z
M 1959 3584 
Q 2709 3584 3137 3096 
Q 3566 2609 3566 1747 
Q 3566 888 3137 398 
Q 2709 -91 1959 -91 
Q 1206 -91 779 398 
Q 353 888 353 1747 
Q 353 2609 779 3096 
Q 1206 3584 1959 3584 
z
" transform="scale(0.015625)"/>
        <path id="DejaVuSans-76" d="M 191 3500 
L 800 3500 
L 1894 563 
L 2988 3500 
L 3597 3500 
L 2284 0 
L 1503 0 
L 191 3500 
z
" transform="scale(0.015625)"/>
       </defs>
       <use xlink:href="#DejaVuSans-4e"/>
       <use xlink:href="#DejaVuSans-6f" x="74.804688"/>
       <use xlink:href="#DejaVuSans-76" x="135.986328"/>
      </g>
     </g>
    </g>
    <g id="xtick_12">
     <g id="line2d_12">
      <path d="M 197.245312 251.95176 
L 113.545312 106.979107 
" clip-path="url(#pd5c7e25520)" style="fill: none; stroke: #b0b0b0; stroke-width: 0.8; stroke-linecap: square"/>
     </g>
     <g id="text_12">
      <!-- Dec -->
      <g transform="translate(96.869531 97.614127) scale(0.1 -0.1)">
       <defs>
        <path id="DejaVuSans-44" d="M 1259 4147 
L 1259 519 
L 2022 519 
Q 2988 519 3436 956 
Q 3884 1394 3884 2338 
Q 3884 3275 3436 3711 
Q 2988 4147 2022 4147 
L 1259 4147 
z
M 628 4666 
L 1925 4666 
Q 3281 4666 3915 4102 
Q 4550 3538 4550 2338 
Q 4550 1131 3912 565 
Q 3275 0 1925 0 
L 628 0 
L 628 4666 
z
" transform="scale(0.015625)"/>
       </defs>
       <use xlink:href="#DejaVuSans-44"/>
       <use xlink:href="#DejaVuSans-65" x="77.001953"/>
       <use xlink:href="#DejaVuSans-63" x="138.525391"/>
      </g>
     </g>
    </g>
   </g>
   <g id="matplotlib.axis_2">
    <g id="ytick_1">
     <g id="line2d_13">
      <path d="M 197.245312 221.515396 
C 201.242179 221.515396 205.200181 222.302692 208.892805 223.832227 
C 212.585428 225.361761 215.94086 227.603789 218.767072 230.430001 
C 221.593283 233.256212 223.835311 236.611645 225.364846 240.304268 
C 226.894381 243.996891 227.681676 247.954893 227.681676 251.95176 
C 227.681676 255.948627 226.894381 259.906629 225.364846 263.599252 
C 223.835311 267.291875 221.593283 270.647308 218.767072 273.473519 
C 215.94086 276.299731 212.585428 278.541759 208.892805 280.071293 
C 205.200181 281.600828 201.242179 282.388124 197.245312 282.388124 
C 193.248446 282.388124 189.290444 281.600828 185.59782 280.071293 
C 181.905197 278.541759 178.549765 276.299731 175.723553 273.473519 
C 172.897342 270.647308 170.655314 267.291875 169.125779 263.599252 
C 167.596244 259.906629 166.808949 255.948627 166.808949 251.95176 
C 166.808949 247.954893 167.596244 243.996891 169.125779 240.304268 
C 170.655314 236.611645 172.897342 233.256212 175.723553 230.430001 
C 178.549765 227.603789 181.905197 225.361761 185.59782 223.832227 
C 189.290444 222.302692 193.248446 221.515396 197.245312 221.515396 
" clip-path="url(#pd5c7e25520)" style="fill: none; stroke: #b0b0b0; stroke-width: 0.8; stroke-linecap: square"/>
     </g>
     <g id="text_13">
      <!-- 1000 -->
      <g transform="translate(197.245312 280.308436) scale(0.1 -0.1)">
       <defs>
        <path id="DejaVuSans-31" d="M 794 531 
L 1825 531 
L 1825 4091 
L 703 3866 
L 703 4441 
L 1819 4666 
L 2450 4666 
L 2450 531 
L 3481 531 
L 3481 0 
L 794 0 
L 794 531 
z
" transform="scale(0.015625)"/>
        <path id="DejaVuSans-30" d="M 2034 4250 
Q 1547 4250 1301 3770 
Q 1056 3291 1056 2328 
Q 1056 1369 1301 889 
Q 1547 409 2034 409 
Q 2525 409 2770 889 
Q 3016 1369 3016 2328 
Q 3016 3291 2770 3770 
Q 2525 4250 2034 4250 
z
M 2034 4750 
Q 2819 4750 3233 4129 
Q 3647 3509 3647 2328 
Q 3647 1150 3233 529 
Q 2819 -91 2034 -91 
Q 1250 -91 836 529 
Q 422 1150 422 2328 
Q 422 3509 836 4129 
Q 1250 4750 2034 4750 
z
" transform="scale(0.015625)"/>
       </defs>
       <use xlink:href="#DejaVuSans-31"/>
       <use xlink:href="#DejaVuSans-30" x="63.623047"/>
       <use xlink:href="#DejaVuSans-30" x="127.246094"/>
       <use xlink:href="#DejaVuSans-30" x="190.869141"/>
      </g>
     </g>
    </g>
    <g id="ytick_2">
     <g id="line2d_14">
      <path d="M 197.245312 191.079033 
C 205.239046 191.079033 213.15505 192.653624 220.540297 195.712693 
C 227.925543 198.771762 234.636408 203.255819 240.288831 208.908242 
C 245.941254 214.560665 250.42531 221.271529 253.484379 228.656776 
C 256.543449 236.042022 258.11804 243.958027 258.11804 251.95176 
C 258.11804 259.945493 256.543449 267.861498 253.484379 275.246744 
C 250.42531 282.631991 245.941254 289.342855 240.288831 294.995278 
C 234.636408 300.647701 227.925543 305.131758 220.540297 308.190827 
C 213.15505 311.249896 205.239046 312.824487 197.245312 312.824487 
C 189.251579 312.824487 181.335575 311.249896 173.950328 308.190827 
C 166.565082 305.131758 159.854217 300.647701 154.201794 294.995278 
C 148.549371 289.342855 144.065315 282.631991 141.006246 275.246744 
C 137.947176 267.861498 136.372585 259.945493 136.372585 251.95176 
C 136.372585 243.958027 137.947176 236.042022 141.006246 228.656776 
C 144.065315 221.271529 148.549371 214.560665 154.201794 208.908242 
C 159.854217 203.255819 166.565082 198.771762 173.950328 195.712693 
C 181.335575 192.653624 189.251579 191.079033 197.245312 191.079033 
" clip-path="url(#pd5c7e25520)" style="fill: none; stroke: #b0b0b0; stroke-width: 0.8; stroke-linecap: square"/>
     </g>
     <g id="text_14">
      <!-- 2000 -->
      <g transform="translate(197.245312 310.7448) scale(0.1 -0.1)">
       <defs>
        <path id="DejaVuSans-32" d="M 1228 531 
L 3431 531 
L 3431 0 
L 469 0 
L 469 531 
Q 828 903 1448 1529 
Q 2069 2156 2228 2338 
Q 2531 2678 2651 2914 
Q 2772 3150 2772 3378 
Q 2772 3750 2511 3984 
Q 2250 4219 1831 4219 
Q 1534 4219 1204 4116 
Q 875 4013 500 3803 
L 500 4441 
Q 881 4594 1212 4672 
Q 1544 4750 1819 4750 
Q 2544 4750 2975 4387 
Q 3406 4025 3406 3419 
Q 3406 3131 3298 2873 
Q 3191 2616 2906 2266 
Q 2828 2175 2409 1742 
Q 1991 1309 1228 531 
z
" transform="scale(0.015625)"/>
       </defs>
       <use xlink:href="#DejaVuSans-32"/>
       <use xlink:href="#DejaVuSans-30" x="63.623047"/>
       <use xlink:href="#DejaVuSans-30" x="127.246094"/>
       <use xlink:href="#DejaVuSans-30" x="190.869141"/>
      </g>
     </g>
    </g>
    <g id="ytick_3">
     <g id="line2d_15">
      <path d="M 197.245312 160.642669 
C 209.235912 160.642669 221.109919 163.004556 232.187789 167.59316 
C 243.265659 172.181764 253.331955 178.907848 261.81059 187.386483 
C 270.289224 195.865117 277.015309 205.931414 281.603913 217.009284 
C 286.192517 228.087154 288.554403 239.96116 288.554403 251.95176 
C 288.554403 263.94236 286.192517 275.816366 281.603913 286.894236 
C 277.015309 297.972106 270.289224 308.038403 261.81059 316.517037 
C 253.331955 324.995672 243.265659 331.721756 232.187789 336.31036 
C 221.109919 340.898964 209.235912 343.260851 197.245312 343.260851 
C 185.254713 343.260851 173.380706 340.898964 162.302836 336.31036 
C 151.224966 331.721756 141.15867 324.995672 132.680035 316.517037 
C 124.201401 308.038403 117.475316 297.972106 112.886712 286.894236 
C 108.298108 275.816366 105.936222 263.94236 105.936222 251.95176 
C 105.936222 239.96116 108.298108 228.087154 112.886712 217.009284 
C 117.475316 205.931414 124.201401 195.865117 132.680035 187.386483 
C 141.15867 178.907848 151.224966 172.181764 162.302836 167.59316 
C 173.380706 163.004556 185.254713 160.642669 197.245312 160.642669 
" clip-path="url(#pd5c7e25520)" style="fill: none; stroke: #b0b0b0; stroke-width: 0.8; stroke-linecap: square"/>
     </g>
     <g id="text_15">
      <!-- 3000 -->
      <g transform="translate(197.245312 341.181163) scale(0.1 -0.1)">
       <defs>
        <path id="DejaVuSans-33" d="M 2597 2516 
Q 3050 2419 3304 2112 
Q 3559 1806 3559 1356 
Q 3559 666 3084 287 
Q 2609 -91 1734 -91 
Q 1441 -91 1130 -33 
Q 819 25 488 141 
L 488 750 
Q 750 597 1062 519 
Q 1375 441 1716 441 
Q 2309 441 2620 675 
Q 2931 909 2931 1356 
Q 2931 1769 2642 2001 
Q 2353 2234 1838 2234 
L 1294 2234 
L 1294 2753 
L 1863 2753 
Q 2328 2753 2575 2939 
Q 2822 3125 2822 3475 
Q 2822 3834 2567 4026 
Q 2313 4219 1838 4219 
Q 1578 4219 1281 4162 
Q 984 4106 628 3988 
L 628 4550 
Q 988 4650 1302 4700 
Q 1616 4750 1894 4750 
Q 2613 4750 3031 4423 
Q 3450 4097 3450 3541 
Q 3450 3153 3228 2886 
Q 3006 2619 2597 2516 
z
" transform="scale(0.015625)"/>
       </defs>
       <use xlink:href="#DejaVuSans-33"/>
       <use xlink:href="#DejaVuSans-30" x="63.623047"/>
       <use xlink:href="#DejaVuSans-30" x="127.246094"/>
       <use xlink:href="#DejaVuSans-30" x="190.869141"/>
      </g>
     </g>
    </g>
    <g id="ytick_4">
     <g id="line2d_16">
      <path d="M 197.245312 130.206305 
C 213.232779 130.206305 229.064788 133.355488 243.835281 139.473626 
C 258.605774 145.591765 272.027503 154.559877 283.332349 165.864724 
C 294.637195 177.16957 303.605308 190.591298 309.723446 205.361792 
C 315.841585 220.132285 318.990767 235.964293 318.990767 251.95176 
C 318.990767 267.939227 315.841585 283.771235 309.723446 298.541728 
C 303.605308 313.312222 294.637195 326.73395 283.332349 338.038796 
C 272.027503 349.343643 258.605774 358.311755 243.835281 364.429894 
C 229.064788 370.548032 213.232779 373.697215 197.245312 373.697215 
C 181.257846 373.697215 165.425837 370.548032 150.655344 364.429894 
C 135.884851 358.311755 122.463122 349.343643 111.158276 338.038796 
C 99.85343 326.73395 90.885317 313.312222 84.767179 298.541728 
C 78.64904 283.771235 75.499858 267.939227 75.499858 251.95176 
C 75.499858 235.964293 78.64904 220.132285 84.767179 205.361792 
C 90.885317 190.591298 99.85343 177.16957 111.158276 165.864724 
C 122.463122 154.559877 135.884851 145.591765 150.655344 139.473626 
C 165.425837 133.355488 181.257846 130.206305 197.245312 130.206305 
" clip-path="url(#pd5c7e25520)" style="fill: none; stroke: #b0b0b0; stroke-width: 0.8; stroke-linecap: square"/>
     </g>
     <g id="text_16">
      <!-- 4000 -->
      <g transform="translate(197.245312 371.617527) scale(0.1 -0.1)">
       <defs>
        <path id="DejaVuSans-34" d="M 2419 4116 
L 825 1625 
L 2419 1625 
L 2419 4116 
z
M 2253 4666 
L 3047 4666 
L 3047 1625 
L 3713 1625 
L 3713 1100 
L 3047 1100 
L 3047 0 
L 2419 0 
L 2419 1100 
L 313 1100 
L 313 1709 
L 2253 4666 
z
" transform="scale(0.015625)"/>
       </defs>
       <use xlink:href="#DejaVuSans-34"/>
       <use xlink:href="#DejaVuSans-30" x="63.623047"/>
       <use xlink:href="#DejaVuSans-30" x="127.246094"/>
       <use xlink:href="#DejaVuSans-30" x="190.869141"/>
      </g>
     </g>
    </g>
    <g id="ytick_5">
     <g id="line2d_17">
      <path d="M 197.245312 99.769942 
C 217.229646 99.769942 237.019657 103.70642 255.482773 111.354093 
C 273.945889 119.001766 290.723051 130.211907 304.854108 144.342964 
C 318.985166 158.474022 330.195306 175.251183 337.84298 193.714299 
C 345.490653 212.177416 349.427131 231.967427 349.427131 251.95176 
C 349.427131 271.936093 345.490653 291.726104 337.84298 310.189221 
C 330.195306 328.652337 318.985166 345.429498 304.854108 359.560556 
C 290.723051 373.691613 273.945889 384.901754 255.482773 392.549427 
C 237.019657 400.1971 217.229646 404.133578 197.245312 404.133578 
C 177.260979 404.133578 157.470968 400.1971 139.007852 392.549427 
C 120.544736 384.901754 103.767574 373.691613 89.636517 359.560556 
C 75.505459 345.429498 64.295319 328.652337 56.647645 310.189221 
C 48.999972 291.726104 45.063494 271.936093 45.063494 251.95176 
C 45.063494 231.967427 48.999972 212.177416 56.647645 193.714299 
C 64.295319 175.251183 75.505459 158.474022 89.636517 144.342964 
C 103.767574 130.211907 120.544736 119.001766 139.007852 111.354093 
C 157.470968 103.70642 177.260979 99.769942 197.245312 99.769942 
" clip-path="url(#pd5c7e25520)" style="fill: none; stroke: #b0b0b0; stroke-width: 0.8; stroke-linecap: square"/>
     </g>
     <g id="text_17">
      <!-- 5000 -->
      <g transform="translate(197.245312 402.053891) scale(0.1 -0.1)">
       <defs>
        <path id="DejaVuSans-35" d="M 691 4666 
L 3169 4666 
L 3169 4134 
L 1269 4134 
L 1269 2991 
Q 1406 3038 1543 3061 
Q 1681 3084 1819 3084 
Q 2600 3084 3056 2656 
Q 3513 2228 3513 1497 
Q 3513 744 3044 326 
Q 2575 -91 1722 -91 
Q 1428 -91 1123 -41 
Q 819 9 494 109 
L 494 744 
Q 775 591 1075 516 
Q 1375 441 1709 441 
Q 2250 441 2565 725 
Q 2881 1009 2881 1497 
Q 2881 1984 2565 2268 
Q 2250 2553 1709 2553 
Q 1456 2553 1204 2497 
Q 953 2441 691 2322 
L 691 4666 
z
" transform="scale(0.015625)"/>
       </defs>
       <use xlink:href="#DejaVuSans-35"/>
       <use xlink:href="#DejaVuSans-30" x="63.623047"/>
       <use xlink:href="#DejaVuSans-30" x="127.246094"/>
       <use xlink:href="#DejaVuSans-30" x="190.869141"/>
      </g>
     </g>
    </g>
   </g>
   <g id="line2d_18">
    <path d="M 197.245312 167.734342 
L 207.627728 166.444871 
L 217.975288 167.846944 
L 228.166923 170.418174 
L 237.670246 174.928484 
L 246.192808 181.039071 
L 255.776135 185.884119 
L 263.97363 192.835629 
L 266.304403 204.283712 
L 271.627482 212.912986 
L 273.684828 222.962075 
L 276.651371 232.379925 
L 275.379876 242.464506 
L 272.484003 251.95176 
L 275.289232 261.428008 
L 273.518865 270.751502 
L 270.383643 279.68947 
L 265.590669 287.82217 
L 264.550998 298.40952 
L 254.769724 302.913942 
L 247.400173 308.564894 
L 241.628294 316.251609 
L 232.63481 319.380814 
L 222.846032 319.455309 
L 215.709995 326.865923 
L 206.710554 329.905037 
L 197.245312 332.699433 
L 188.077236 327.457666 
L 179.450748 324.147145 
L 172.270581 317.804716 
L 164.86859 313.640451 
L 156.078239 311.592563 
L 147.514296 308.086473 
L 145.370823 297.908547 
L 136.727807 293.723978 
L 131.675813 286.365288 
L 125.444531 279.182205 
L 120.587585 270.846193 
L 121.769621 261.116168 
L 118.17164 251.95176 
L 120.409971 242.62226 
L 122.997101 223.793127 
L 128.280105 215.756027 
L 133.571679 208.001024 
L 139.857592 201.110676 
L 145.940019 194.040055 
L 149.940351 183.418691 
L 157.188135 175.629186 
L 166.237359 170.190506 
L 176.63188 168.319775 
L 186.664787 164.813291 
L 197.245312 163.168887 
L 207.587373 166.77723 
L 216.358262 174.407474 
L 225.522667 177.390505 
L 235.831463 178.431992 
L 243.495595 184.946658 
L 250.145067 192.240281 
L 257.64025 198.446515 
L 264.525949 205.51129 
L 270.38778 213.563632 
L 274.851627 222.519567 
L 276.621819 232.387208 
L 280.002686 241.903196 
L 276.136367 251.95176 
L 277.374029 261.681148 
L 276.858234 271.574583 
L 270.981271 279.916121 
L 265.779319 287.921181 
L 262.522058 297.009044 
L 255.362055 303.438701 
L 248.550606 309.863465 
L 240.07221 313.997232 
L 232.309487 318.760963 
L 224.108799 322.784952 
L 214.82136 323.260587 
L 206.545463 328.545386 
L 197.245312 331.847215 
L 188.025874 327.880669 
L 180.048028 321.723886 
L 171.007813 321.13436 
L 162.082127 318.949613 
L 156.510484 310.966347 
L 148.503265 306.970158 
L 143.001501 300.007584 
L 135.675765 294.45015 
L 129.331157 287.595858 
L 129.514096 277.638822 
L 124.93172 269.77546 
L 118.899248 261.464695 
L 121.945749 251.95176 
L 120.591257 242.644273 
L 121.858318 233.370535 
L 121.602634 223.264276 
L 125.746799 214.426445 
L 132.945463 207.568779 
L 135.939098 197.639193 
L 141.943776 189.52923 
L 149.145019 182.266454 
L 157.838782 176.868888 
L 165.784058 168.995249 
L 176.755706 168.822158 
L 186.884909 166.626158 
L 197.245312 162.773215 
L 207.418613 168.167095 
L 217.53097 169.649612 
L 227.346664 172.581019 
L 237.062033 176.087337 
L 249.702642 175.954198 
L 259.59073 181.578331 
L 266.388517 190.696226 
L 273.919188 199.027605 
L 279.51882 220.749534 
L 280.493122 231.433018 
L 281.634267 241.705086 
L 282.619312 251.95176 
L 280.546546 262.066361 
L 279.577012 272.244701 
L 276.160717 281.880425 
L 267.558023 288.854717 
L 263.699344 297.821666 
L 255.043108 303.156138 
L 252.284469 314.078125 
L 241.472685 316.026171 
L 233.808802 321.617669 
L 224.853508 324.748589 
L 215.994067 328.018449 
L 206.640849 329.330962 
L 197.245312 332.273324 
L 188.257002 325.977158 
L 179.60371 323.526554 
L 169.626324 324.777047 
L 163.694598 315.877306 
L 156.458615 311.041493 
L 145.818921 310.000157 
L 139.515863 303.095589 
L 137.880045 292.928646 
L 128.792156 287.878748 
L 126.838997 278.653353 
L 126.61618 269.360278 
L 117.479169 261.637123 
L 120.454367 251.95176 
L 116.240377 242.11598 
L 118.459845 232.532886 
L 125.47299 224.732108 
L 125.93545 214.525457 
L 129.839432 205.42484 
L 135.073384 196.872237 
L 142.206156 189.825395 
L 158.036804 177.246189 
L 165.827229 169.109083 
L 176.413363 167.433217 
L 186.228212 161.217772 
L 197.245312 162.255796 
L 208.390818 160.160266 
L 219.177131 162.970874 
L 230.508979 164.24268 
L 242.394504 165.927163 
L 251.587233 173.223896 
L 258.46048 182.85412 
L 270.398139 187.144011 
L 276.649489 197.143014 
L 285.991865 205.373976 
L 283.730677 219.152188 
L 287.024101 229.823276 
L 289.913025 240.699863 
L 287.763058 251.95176 
L 289.67131 263.174308 
L 281.734304 272.776426 
L 274.851627 281.383953 
L 266.23747 288.161638 
L 263.674296 297.804376 
L 255.817694 303.842362 
L 247.682735 308.883841 
L 242.216148 317.103263 
L 233.695646 321.402069 
L 224.205935 323.041079 
L 215.739131 326.984131 
L 206.391377 327.27638 
L 197.245312 329.047069 
L 188.216646 326.309517 
L 179.122973 325.476982 
L 167.845498 329.472699 
L 162.082127 318.949613 
L 155.93992 311.792952 
L 147.958323 307.58527 
L 142.52308 300.431428 
L 136.226835 294.069774 
L 130.49001 286.987646 
L 131.477732 276.894113 
L 123.424571 270.146939 
L 125.667285 260.642906 
L 118.84124 251.95176 
L 118.566889 242.39847 
L 122.094734 233.428806 
L 121.005006 223.037626 
L 130.70561 217.02903 
L 134.548576 208.675328 
L 138.672931 200.061158 
L 145.475809 193.51607 
L 149.819322 183.243351 
L 160.497944 181.9355 
L 169.291745 178.24426 
L 176.945087 169.590508 
L 187.145386 168.771384 
L 207.587373 166.77723 
L 217.203195 170.979449 
L 226.494026 174.82924 
L 235.548574 178.970993 
L 246.607763 180.437904 
L 253.677099 188.253441 
L 259.964008 196.387844 
L 265.202263 205.044464 
L 271.708333 212.870552 
L 276.075342 222.055473 
L 275.912572 232.562022 
L 278.522178 242.082962 
L 279.636549 251.95176 
L 275.561162 261.461026 
L 274.346319 270.955451 
L 271.521983 280.121185 
L 265.375068 287.709014 
L 262.822642 297.216522 
L 256.934009 304.831331 
L 248.893718 310.250758 
L 232.592377 319.299964 
L 223.450433 321.048984 
L 215.032593 324.117593 
L 206.35469 326.974235 
L 197.245312 332.699433 
L 187.820427 329.572678 
L 176.784841 334.963154 
L 168.547036 327.622897 
L 161.869959 319.353864 
L 153.329156 315.575296 
L 148.341801 307.152414 
L 140.791652 301.965339 
L 130.165065 298.253912 
L 126.366651 289.151751 
L 125.27378 279.246962 
L 120.587585 270.846193 
L 122.222837 261.061138 
L 116.923749 251.95176 
L 118.23453 242.358114 
L 119.050884 232.678564 
L 124.33465 224.300393 
L 125.908499 214.511312 
L 130.866427 206.133723 
L 133.934286 195.863085 
L 141.197004 188.686298 
L 149.145019 182.266454 
L 156.678934 174.658983 
L 163.819753 163.815803 
L 174.453994 159.483745 
L 186.378628 162.456564 
L 197.245312 152.881396 
L 209.589045 148.318006 
L 221.387746 152.043746 
L 232.780378 156.285152 
L 243.414912 161.998887 
L 252.879705 169.353088 
L 263.033331 175.613716 
L 273.172301 182.492401 
L 276.551684 195.047472 
L 283.125103 204.606277 
L 284.286133 216.651546 
L 286.852031 227.466678 
L 290.082307 238.092805 
L 283.616201 249.391179 
L 284.798311 259.756939 
L 283.40956 270.088672 
L 278.814349 279.528427 
L 270.721172 286.953406 
L 267.790066 296.486548 
L 261.554957 304.133963 
L 251.645745 307.988868 
L 246.372294 316.303754 
L 237.410302 319.95902 
L 230.127871 326.599689 
L 219.992637 326.442633 
L 210.958097 328.25071 
L 202.380454 338.482285 
L 192.580772 330.552346 
L 183.42485 328.849838 
L 174.595768 326.12243 
L 166.69398 321.307485 
L 157.869693 318.622461 
L 150.537743 313.134539 
L 143.841302 306.962467 
L 137.520773 300.413512 
L 132.645775 292.733343 
L 125.830294 285.971685 
L 121.327578 277.617848 
L 117.335642 268.772131 
L 114.11847 259.362355 
L 115.40745 249.525566 
L 115.606555 239.764508 
L 114.097794 229.231658 
L 117.594218 219.648518 
L 125.492241 212.39433 
L 132.974262 205.835688 
L 134.231077 194.305217 
L 143.180318 189.21669 
L 150.33355 182.303307 
L 157.719021 174.942136 
L 166.712499 169.752089 
L 178.714905 175.267847 
L 186.733881 163.701378 
L 197.245312 155.377178 
L 208.52656 159.042332 
L 219.54861 161.463725 
L 231.793332 160.85612 
L 241.135645 168.325719 
L 249.737222 175.9041 
L 258.339382 182.990812 
L 272.858589 184.964242 
L 277.025219 196.883667 
L 282.164957 207.382493 
L 284.385222 218.903951 
L 289.006592 240.809923 
L 288.858767 251.95176 
L 280.848691 262.103048 
L 278.542695 271.989765 
L 275.278504 281.545846 
L 271.465782 290.905667 
L 271.188887 302.991324 
L 258.095888 305.860666 
L 252.001906 313.759178 
L 243.616624 319.132202 
L 233.837091 321.671569 
L 225.522667 326.513015 
L 206.816946 330.781256 
L 197.245312 333.916887 
L 187.607642 331.325116 
L 177.19274 333.308246 
L 169.809803 324.293253 
L 161.884104 319.326914 
L 153.01794 316.026171 
L 145.41526 310.455796 
L 135.711278 306.466157 
L 132.344296 296.749697 
L 127.606353 288.501105 
L 119.695915 281.362367 
L 123.365467 270.161506 
L 116.723808 261.728841 
L 115.584549 251.95176 
L 108.596121 241.187799 
L 116.154794 231.964742 
L 113.349671 220.13434 
L 123.644694 213.323176 
L 124.303684 201.603789 
L 131.132107 193.380571 
L 138.553025 185.701863 
L 146.257618 178.083332 
L 154.217794 169.969673 
L 163.474381 162.905131 
L 174.869176 161.168206 
L 185.032216 151.367862 
L 197.245312 143.354815 
L 210.588368 142.061812 
L 222.644267 148.904151 
L 236.380307 148.761259 
L 247.797696 155.63224 
L 256.82605 165.63416 
L 266.210768 174.105853 
L 273.063627 184.782595 
L 276.198614 197.454231 
L 279.550801 208.754508 
L 278.152812 221.267593 
L 279.340597 231.71709 
L 283.35649 241.49597 
L 281.371422 251.95176 
L 282.147912 262.260802 
L 277.419721 271.712977 
L 276.30301 281.93439 
L 267.431591 300.39785 
L 261.057541 308.484462 
L 253.192706 315.103312 
L 243.94513 319.608126 
L 234.360437 322.668722 
L 225.770903 327.167561 
L 216.380114 329.584702 
L 207.117779 333.25884 
L 197.245312 334.038633 
L 188.000193 328.09217 
L 177.768168 330.973643 
L 161.742659 319.596415 
L 151.306247 318.505986 
L 145.980385 309.817901 
L 139.265262 303.317603 
L 132.720026 296.49035 
L 127.983654 288.303082 
L 120.208168 281.168095 
L 117.0118 271.727545 
L 116.60295 261.743516 
L 116.862876 251.95176 
L 113.762792 241.815147 
L 117.277768 232.24153 
L 121.090382 223.070004 
L 123.779445 213.393898 
L 130.81316 193.098008 
L 138.371378 185.496826 
L 147.346877 179.661396 
L 154.429961 170.373924 
L 162.513814 160.372325 
L 174.818189 160.961342 
L 185.553171 155.658313 
L 197.245312 150.202996 
L 209.56847 150.461428 
L 221.748347 152.53904 
L 233.099271 157.412642 
L 245.37899 160.2407 
L 257.984468 163.955901 
L 271.115248 168.56984 
L 281.333473 177.456151 
L 295.861793 183.881718 
L 307.524964 194.072534 
L 303.480872 211.661927 
L 298.608461 226.967988 
L 294.686908 240.120208 
L 289.771858 251.95176 
L 283.658635 262.444237 
L 278.808662 272.05532 
L 273.030283 280.693208 
L 268.528225 289.363919 
L 263.398761 297.614188 
L 256.615062 304.548768 
L 251.214768 312.870682 
L 245.241867 321.486774 
L 235.138384 324.150975 
L 224.842715 324.72013 
L 216.190733 328.816351 
L 206.853633 331.0834 
L 197.245312 334.921287 
L 187.44622 332.654551 
L 177.549651 331.860201 
L 167.381404 330.696414 
L 158.206538 326.33393 
L 149.784742 320.710266 
L 144.668487 311.298728 
L 137.738871 304.669867 
L 133.947409 295.643148 
L 126.824802 288.911295 
L 124.989195 279.354891 
L 117.277768 271.66199 
L 115.78716 261.84257 
L 111.840876 251.95176 
L 113.853435 241.826153 
L 116.302554 232.001162 
L 121.232674 223.123969 
L 121.380889 212.135039 
L 127.159228 203.574829 
L 134.344361 196.22638 
L 139.541994 186.818178 
L 146.983791 179.135375 
L 155.264486 171.963977 
L 164.683184 166.092482 
L 175.094977 162.084316 
L 186.602419 164.299646 
L 197.245312 158.755615 
L 209.212606 153.39223 
L 220.204161 158.804051 
L 231.555888 161.482206 
L 241.644846 167.355517 
L 252.278826 172.221951 
L 262.920932 177.81931 
L 270.603176 186.962364 
L 274.019382 198.958446 
L 282.730908 207.085458 
L 289.023957 217.144711 
L 287.171861 229.786857 
L 288.281445 240.897972 
L 285.449894 251.95176 
L 284.927641 262.598322 
L 286.964997 274.065676 
L 281.368622 283.855523 
L 272.867185 291.641181 
L 266.680132 299.879155 
L 261.51318 308.888123 
L 255.231193 317.404289 
L 244.446535 320.334537 
L 235.91633 325.633228 
L 225.814075 327.281395 
L 216.853567 331.505578 
L 207.649741 337.639935 
L 197.245312 334.890851 
L 187.116037 335.373852 
L 178.409151 328.373072 
L 164.801905 337.497994 
L 158.616728 325.552378 
L 151.790362 317.804625 
L 144.507023 311.480983 
L 137.624962 304.770782 
L 127.534958 300.069344 
L 128.441805 288.062626 
L 122.05797 280.466558 
L 121.001312 270.744218 
L 114.125365 262.044349 
L 114.549712 251.95176 
L 109.260839 241.268511 
L 112.165282 230.981416 
L 115.654809 221.008564 
L 120.275937 211.555115 
L 121.723674 199.822937 
L 127.53256 190.19165 
L 136.231975 183.081939 
L 144.597795 175.678663 
L 154.557261 170.616474 
L 163.129008 161.994459 
L 173.55079 155.819305 
L 186.136494 160.462411 
L 197.245312 157.507724 
L 209.355057 150.282484 
L 219.814949 158.552411 
L 229.526795 165.044367 
L 241.219007 166.2772 
L 251.587463 171.271639 
L 260.788074 178.219031 
L 263.695463 191.161981 
L 273.856207 196.981544 
L 280.059872 206.296138 
L 288.009202 215.141621 
L 303.35235 222.957958 
L 331.443536 231.91829 
L 351.946253 247.365442 
L 348.280298 265.416234 
L 325.553497 278.959647 
L 309.983005 290.065852 
L 290.202991 296.233947 
L 274.172809 300.515963 
L 262.878493 305.207907 
L 255.970643 312.443884 
L 247.702046 318.045612 
L 238.756874 322.239032 
L 230.238297 326.850372 
L 221.21045 330.430617 
L 211.561094 331.605827 
L 202.001809 332.101875 
L 192.523074 331.524599 
L 183.634822 327.681539 
L 173.484625 329.761101 
L 164.534529 326.209737 
L 156.352864 321.19075 
L 137.978966 329.585425 
L 136.69674 314.321978 
L 132.604784 304.402449 
L 127.961665 295.690413 
L 121.900957 287.8435 
L 118.790259 278.475659 
L 111.140632 270.076133 
L 106.236275 260.065038 
L 105.307015 249.226125 
L 100.254133 237.472657 
L 96.012035 224.289715 
L 93.253249 209.776812 
L 101.583435 199.213418 
L 108.71497 188.429044 
L 122.351344 183.437426 
L 137.224101 162.840112 
L 147.00356 154.065055 
L 155.817763 140.421557 
L 169.599831 137.547173 
L 182.450113 127.736324 
L 197.245312 125.793033 
L 197.245312 125.793033 
" clip-path="url(#pd5c7e25520)" style="fill: none; stroke-dasharray: 0.5,0.825; stroke-dashoffset: 0; stroke: #1f77b4; stroke-width: 0.5"/>
   </g>
   <g id="line2d_19">
    <path d="M 197.245312 125.793033 
L 211.369801 135.626134 
L 225.383013 137.792623 
L 237.330081 146.256912 
L 248.9434 153.449285 
L 258.641482 163.004053 
L 268.511635 171.508711 
L 270.261447 187.265109 
L 275.021328 198.266853 
L 284.671312 206.067056 
L 283.872969 219.098223 
L 287.260516 229.765005 
L 293.2064 240.299974 
L 293.576403 251.95176 
L 292.11868 263.471472 
L 290.156606 274.852337 
L 286.064273 285.636349 
L 278.311098 294.498366 
L 272.817048 304.115163 
L 265.363329 312.299057 
L 253.858746 315.855117 
L 249.287686 327.348155 
L 238.038003 329.675738 
L 228.220888 333.627639 
L 216.715173 330.944091 
L 207.488318 336.3105 
L 197.245312 338.299724 
L 186.705142 338.75787 
L 177.02521 333.987941 
L 165.773265 334.93673 
L 155.40593 331.670042 
L 148.124919 323.114935 
L 138.754856 317.973838 
L 130.562559 311.027525 
L 125.606213 301.40066 
L 113.888772 295.700647 
L 114.174967 283.456186 
L 111.840211 273.002227 
L 104.426527 263.222001 
L 103.744803 251.95176 
L 104.668243 240.710869 
L 100.462715 228.096992 
L 100.827934 215.385471 
L 102.434996 202.191467 
L 102.361079 186.457902 
L 106.003622 171.118675 
L 112.637999 156.449845 
L 121.256531 141.863004 
L 135.391486 134.099141 
L 153.501757 136.609482 
L 169.770447 140.481849 
L 183.737166 140.702161 
L 197.245312 147.433287 
" clip-path="url(#pd5c7e25520)" style="fill: none; stroke: #ff7f0e; stroke-width: 1.5; stroke-linecap: square"/>
   </g>
   <g id="line2d_20">
    <path d="M 197.245312 147.433287 
L 209.251814 156.61724 
L 221.334248 157.832666 
L 233.017701 161.297201 
L 245.293209 164.235296 
L 255.306161 171.715577 
L 267.454155 176.84221 
L 275.657326 186.729248 
L 280.166079 198.971984 
L 290.370423 207.738164 
L 301.380974 217.675068 
L 305.684262 230.792635 
L 305.443687 244.645702 
L 305.812464 258.240351 
L 302.410079 271.429894 
L 291.060939 281.840253 
L 283.967236 292.113529 
L 277.933748 302.425155 
L 270.900182 312.034936 
L 261.387585 319.269098 
L 250.050885 323.475202 
L 241.280094 330.548458 
L 230.862299 334.814289 
L 220.785001 340.394884 
L 210.0525 346.352777 
L 198.146181 346.147998 
L 186.82228 341.622276 
L 174.84938 343.075234 
L 162.624933 342.205423 
L 152.351407 335.803659 
L 145.394786 325.067917 
L 136.191904 318.531911 
L 126.285067 312.133341 
L 120.391896 302.096395 
L 117.000079 290.995022 
L 113.643759 280.35853 
L 116.652993 268.478924 
" clip-path="url(#pd5c7e25520)" style="fill: none; stroke: #2ca02c; stroke-width: 3; stroke-linecap: square"/>
   </g>
   <g id="patch_3">
    <path d="M 197.245312 84.55176 
C 175.262546 84.55176 153.493534 88.881886 133.184106 97.294326 
C 112.874678 105.706767 94.419801 118.037922 78.875637 133.582085 
C 63.331474 149.126248 51.000319 167.581125 42.587879 187.890553 
C 34.175438 208.199982 29.845312 229.968993 29.845312 251.95176 
C 29.845312 273.934527 34.175438 295.703538 42.587879 316.012967 
C 51.000319 336.322395 63.331474 354.777272 78.875637 370.321435 
C 94.419801 385.865598 112.874678 398.196753 133.184106 406.609194 
C 153.493534 415.021634 175.262546 419.35176 197.245312 419.35176 
C 219.228079 419.35176 240.997091 415.021634 261.306519 406.609194 
C 281.615947 398.196753 300.070824 385.865598 315.614988 370.321435 
C 331.159151 354.777272 343.490306 336.322395 351.902746 316.012967 
C 360.315187 295.703538 364.645312 273.934527 364.645312 251.95176 
C 364.645312 229.968993 360.315187 208.199982 351.902746 187.890553 
C 343.490306 167.581125 331.159151 149.126248 315.614988 133.582085 
C 300.070824 118.037922 281.615947 105.706767 261.306519 97.294326 
C 240.997091 88.881886 219.228079 84.55176 197.245312 84.55176 
" style="fill: none; stroke: #000000; stroke-width: 0.8; stroke-linejoin: miter; stroke-linecap: square"/>
   </g>
   <g id="text_18">
    <!-- 2022 -->
    <g transform="translate(174.340312 251.190851) scale(0.18 -0.18)">
     <use xlink:href="#DejaVuSans-32"/>
     <use xlink:href="#DejaVuSans-30" x="63.623047"/>
     <use xlink:href="#DejaVuSans-32" x="127.246094"/>
     <use xlink:href="#DejaVuSans-32" x="190.869141"/>
    </g>
   </g>
   <g id="text_19">
    <!-- Totaal mannen en vrouwen, Totaal leeftijd -->
    <g transform="translate(92.875 45.07176) scale(0.1 -0.1)">
     <defs>
      <path id="DejaVuSans-54" d="M -19 4666 
L 3928 4666 
L 3928 4134 
L 2272 4134 
L 2272 0 
L 1638 0 
L 1638 4134 
L -19 4134 
L -19 4666 
z
" transform="scale(0.015625)"/>
      <path id="DejaVuSans-20" transform="scale(0.015625)"/>
      <path id="DejaVuSans-6d" d="M 3328 2828 
Q 3544 3216 3844 3400 
Q 4144 3584 4550 3584 
Q 5097 3584 5394 3201 
Q 5691 2819 5691 2113 
L 5691 0 
L 5113 0 
L 5113 2094 
Q 5113 2597 4934 2840 
Q 4756 3084 4391 3084 
Q 3944 3084 3684 2787 
Q 3425 2491 3425 1978 
L 3425 0 
L 2847 0 
L 2847 2094 
Q 2847 2600 2669 2842 
Q 2491 3084 2119 3084 
Q 1678 3084 1418 2786 
Q 1159 2488 1159 1978 
L 1159 0 
L 581 0 
L 581 3500 
L 1159 3500 
L 1159 2956 
Q 1356 3278 1631 3431 
Q 1906 3584 2284 3584 
Q 2666 3584 2933 3390 
Q 3200 3197 3328 2828 
z
" transform="scale(0.015625)"/>
      <path id="DejaVuSans-77" d="M 269 3500 
L 844 3500 
L 1563 769 
L 2278 3500 
L 2956 3500 
L 3675 769 
L 4391 3500 
L 4966 3500 
L 4050 0 
L 3372 0 
L 2619 2869 
L 1863 0 
L 1184 0 
L 269 3500 
z
" transform="scale(0.015625)"/>
      <path id="DejaVuSans-2c" d="M 750 794 
L 1409 794 
L 1409 256 
L 897 -744 
L 494 -744 
L 750 256 
L 750 794 
z
" transform="scale(0.015625)"/>
      <path id="DejaVuSans-66" d="M 2375 4863 
L 2375 4384 
L 1825 4384 
Q 1516 4384 1395 4259 
Q 1275 4134 1275 3809 
L 1275 3500 
L 2222 3500 
L 2222 3053 
L 1275 3053 
L 1275 0 
L 697 0 
L 697 3053 
L 147 3053 
L 147 3500 
L 697 3500 
L 697 3744 
Q 697 4328 969 4595 
Q 1241 4863 1831 4863 
L 2375 4863 
z
" transform="scale(0.015625)"/>
      <path id="DejaVuSans-69" d="M 603 3500 
L 1178 3500 
L 1178 0 
L 603 0 
L 603 3500 
z
M 603 4863 
L 1178 4863 
L 1178 4134 
L 603 4134 
L 603 4863 
z
" transform="scale(0.015625)"/>
      <path id="DejaVuSans-6a" d="M 603 3500 
L 1178 3500 
L 1178 -63 
Q 1178 -731 923 -1031 
Q 669 -1331 103 -1331 
L -116 -1331 
L -116 -844 
L 38 -844 
Q 366 -844 484 -692 
Q 603 -541 603 -63 
L 603 3500 
z
M 603 4863 
L 1178 4863 
L 1178 4134 
L 603 4134 
L 603 4863 
z
" transform="scale(0.015625)"/>
      <path id="DejaVuSans-64" d="M 2906 2969 
L 2906 4863 
L 3481 4863 
L 3481 0 
L 2906 0 
L 2906 525 
Q 2725 213 2448 61 
Q 2172 -91 1784 -91 
Q 1150 -91 751 415 
Q 353 922 353 1747 
Q 353 2572 751 3078 
Q 1150 3584 1784 3584 
Q 2172 3584 2448 3432 
Q 2725 3281 2906 2969 
z
M 947 1747 
Q 947 1113 1208 752 
Q 1469 391 1925 391 
Q 2381 391 2643 752 
Q 2906 1113 2906 1747 
Q 2906 2381 2643 2742 
Q 2381 3103 1925 3103 
Q 1469 3103 1208 2742 
Q 947 2381 947 1747 
z
" transform="scale(0.015625)"/>
     </defs>
     <use xlink:href="#DejaVuSans-54"/>
     <use xlink:href="#DejaVuSans-6f" x="44.083984"/>
     <use xlink:href="#DejaVuSans-74" x="105.265625"/>
     <use xlink:href="#DejaVuSans-61" x="144.474609"/>
     <use xlink:href="#DejaVuSans-61" x="205.753906"/>
     <use xlink:href="#DejaVuSans-6c" x="267.033203"/>
     <use xlink:href="#DejaVuSans-20" x="294.816406"/>
     <use xlink:href="#DejaVuSans-6d" x="326.603516"/>
     <use xlink:href="#DejaVuSans-61" x="424.015625"/>
     <use xlink:href="#DejaVuSans-6e" x="485.294922"/>
     <use xlink:href="#DejaVuSans-6e" x="548.673828"/>
     <use xlink:href="#DejaVuSans-65" x="612.052734"/>
     <use xlink:href="#DejaVuSans-6e" x="673.576172"/>
     <use xlink:href="#DejaVuSans-20" x="736.955078"/>
     <use xlink:href="#DejaVuSans-65" x="768.742188"/>
     <use xlink:href="#DejaVuSans-6e" x="830.265625"/>
     <use xlink:href="#DejaVuSans-20" x="893.644531"/>
     <use xlink:href="#DejaVuSans-76" x="925.431641"/>
     <use xlink:href="#DejaVuSans-72" x="984.611328"/>
     <use xlink:href="#DejaVuSans-6f" x="1023.474609"/>
     <use xlink:href="#DejaVuSans-75" x="1084.65625"/>
     <use xlink:href="#DejaVuSans-77" x="1148.035156"/>
     <use xlink:href="#DejaVuSans-65" x="1229.822266"/>
     <use xlink:href="#DejaVuSans-6e" x="1291.345703"/>
     <use xlink:href="#DejaVuSans-2c" x="1354.724609"/>
     <use xlink:href="#DejaVuSans-20" x="1386.511719"/>
     <use xlink:href="#DejaVuSans-54" x="1418.298828"/>
     <use xlink:href="#DejaVuSans-6f" x="1462.382812"/>
     <use xlink:href="#DejaVuSans-74" x="1523.564453"/>
     <use xlink:href="#DejaVuSans-61" x="1562.773438"/>
     <use xlink:href="#DejaVuSans-61" x="1624.052734"/>
     <use xlink:href="#DejaVuSans-6c" x="1685.332031"/>
     <use xlink:href="#DejaVuSans-20" x="1713.115234"/>
     <use xlink:href="#DejaVuSans-6c" x="1744.902344"/>
     <use xlink:href="#DejaVuSans-65" x="1772.685547"/>
     <use xlink:href="#DejaVuSans-65" x="1834.208984"/>
     <use xlink:href="#DejaVuSans-66" x="1895.732422"/>
     <use xlink:href="#DejaVuSans-74" x="1929.1875"/>
     <use xlink:href="#DejaVuSans-69" x="1968.396484"/>
     <use xlink:href="#DejaVuSans-6a" x="1996.179688"/>
     <use xlink:href="#DejaVuSans-64" x="2023.962891"/>
    </g>
   </g>
  </g>
  <g id="text_20">
   <!-- Deaths per week in the Netherlands (since 2010) -->
   <g transform="translate(24.6215 17.837812) scale(0.14 -0.14)">
    <defs>
     <path id="DejaVuSans-68" d="M 3513 2113 
L 3513 0 
L 2938 0 
L 2938 2094 
Q 2938 2591 2744 2837 
Q 2550 3084 2163 3084 
Q 1697 3084 1428 2787 
Q 1159 2491 1159 1978 
L 1159 0 
L 581 0 
L 581 4863 
L 1159 4863 
L 1159 2956 
Q 1366 3272 1645 3428 
Q 1925 3584 2291 3584 
Q 2894 3584 3203 3211 
Q 3513 2838 3513 2113 
z
" transform="scale(0.015625)"/>
     <path id="DejaVuSans-73" d="M 2834 3397 
L 2834 2853 
Q 2591 2978 2328 3040 
Q 2066 3103 1784 3103 
Q 1356 3103 1142 2972 
Q 928 2841 928 2578 
Q 928 2378 1081 2264 
Q 1234 2150 1697 2047 
L 1894 2003 
Q 2506 1872 2764 1633 
Q 3022 1394 3022 966 
Q 3022 478 2636 193 
Q 2250 -91 1575 -91 
Q 1294 -91 989 -36 
Q 684 19 347 128 
L 347 722 
Q 666 556 975 473 
Q 1284 391 1588 391 
Q 1994 391 2212 530 
Q 2431 669 2431 922 
Q 2431 1156 2273 1281 
Q 2116 1406 1581 1522 
L 1381 1569 
Q 847 1681 609 1914 
Q 372 2147 372 2553 
Q 372 3047 722 3315 
Q 1072 3584 1716 3584 
Q 2034 3584 2315 3537 
Q 2597 3491 2834 3397 
z
" transform="scale(0.015625)"/>
     <path id="DejaVuSans-6b" d="M 581 4863 
L 1159 4863 
L 1159 1991 
L 2875 3500 
L 3609 3500 
L 1753 1863 
L 3688 0 
L 2938 0 
L 1159 1709 
L 1159 0 
L 581 0 
L 581 4863 
z
" transform="scale(0.015625)"/>
     <path id="DejaVuSans-28" d="M 1984 4856 
Q 1566 4138 1362 3434 
Q 1159 2731 1159 2009 
Q 1159 1288 1364 580 
Q 1569 -128 1984 -844 
L 1484 -844 
Q 1016 -109 783 600 
Q 550 1309 550 2009 
Q 550 2706 781 3412 
Q 1013 4119 1484 4856 
L 1984 4856 
z
" transform="scale(0.015625)"/>
     <path id="DejaVuSans-29" d="M 513 4856 
L 1013 4856 
Q 1481 4119 1714 3412 
Q 1947 2706 1947 2009 
Q 1947 1309 1714 600 
Q 1481 -109 1013 -844 
L 513 -844 
Q 928 -128 1133 580 
Q 1338 1288 1338 2009 
Q 1338 2731 1133 3434 
Q 928 4138 513 4856 
z
" transform="scale(0.015625)"/>
    </defs>
    <use xlink:href="#DejaVuSans-44"/>
    <use xlink:href="#DejaVuSans-65" x="77.001953"/>
    <use xlink:href="#DejaVuSans-61" x="138.525391"/>
    <use xlink:href="#DejaVuSans-74" x="199.804688"/>
    <use xlink:href="#DejaVuSans-68" x="239.013672"/>
    <use xlink:href="#DejaVuSans-73" x="302.392578"/>
    <use xlink:href="#DejaVuSans-20" x="354.492188"/>
    <use xlink:href="#DejaVuSans-70" x="386.279297"/>
    <use xlink:href="#DejaVuSans-65" x="449.755859"/>
    <use xlink:href="#DejaVuSans-72" x="511.279297"/>
    <use xlink:href="#DejaVuSans-20" x="552.392578"/>
    <use xlink:href="#DejaVuSans-77" x="584.179688"/>
    <use xlink:href="#DejaVuSans-65" x="665.966797"/>
    <use xlink:href="#DejaVuSans-65" x="727.490234"/>
    <use xlink:href="#DejaVuSans-6b" x="789.013672"/>
    <use xlink:href="#DejaVuSans-20" x="846.923828"/>
    <use xlink:href="#DejaVuSans-69" x="878.710938"/>
    <use xlink:href="#DejaVuSans-6e" x="906.494141"/>
    <use xlink:href="#DejaVuSans-20" x="969.873047"/>
    <use xlink:href="#DejaVuSans-74" x="1001.660156"/>
    <use xlink:href="#DejaVuSans-68" x="1040.869141"/>
    <use xlink:href="#DejaVuSans-65" x="1104.248047"/>
    <use xlink:href="#DejaVuSans-20" x="1165.771484"/>
    <use xlink:href="#DejaVuSans-4e" x="1197.558594"/>
    <use xlink:href="#DejaVuSans-65" x="1272.363281"/>
    <use xlink:href="#DejaVuSans-74" x="1333.886719"/>
    <use xlink:href="#DejaVuSans-68" x="1373.095703"/>
    <use xlink:href="#DejaVuSans-65" x="1436.474609"/>
    <use xlink:href="#DejaVuSans-72" x="1497.998047"/>
    <use xlink:href="#DejaVuSans-6c" x="1539.111328"/>
    <use xlink:href="#DejaVuSans-61" x="1566.894531"/>
    <use xlink:href="#DejaVuSans-6e" x="1628.173828"/>
    <use xlink:href="#DejaVuSans-64" x="1691.552734"/>
    <use xlink:href="#DejaVuSans-73" x="1755.029297"/>
    <use xlink:href="#DejaVuSans-20" x="1807.128906"/>
    <use xlink:href="#DejaVuSans-28" x="1838.916016"/>
    <use xlink:href="#DejaVuSans-73" x="1877.929688"/>
    <use xlink:href="#DejaVuSans-69" x="1930.029297"/>
    <use xlink:href="#DejaVuSans-6e" x="1957.8125"/>
    <use xlink:href="#DejaVuSans-63" x="2021.191406"/>
    <use xlink:href="#DejaVuSans-65" x="2076.171875"/>
    <use xlink:href="#DejaVuSans-20" x="2137.695312"/>
    <use xlink:href="#DejaVuSans-32" x="2169.482422"/>
    <use xlink:href="#DejaVuSans-30" x="2233.105469"/>
    <use xlink:href="#DejaVuSans-31" x="2296.728516"/>
    <use xlink:href="#DejaVuSans-30" x="2360.351562"/>
    <use xlink:href="#DejaVuSans-29" x="2423.974609"/>
   </g>
  </g>
  <g id="legend_1">
   <g id="patch_4">
    <path d="M 321.7215 447.79976 
L 408.229312 447.79976 
Q 410.229312 447.79976 410.229312 445.79976 
L 410.229312 402.765385 
Q 410.229312 400.765385 408.229312 400.765385 
L 321.7215 400.765385 
Q 319.7215 400.765385 319.7215 402.765385 
L 319.7215 445.79976 
Q 319.7215 447.79976 321.7215 447.79976 
z
" style="fill: #ffffff; opacity: 0.8; stroke: #cccccc; stroke-linejoin: miter"/>
   </g>
   <g id="line2d_21">
    <path d="M 323.7215 408.863822 
L 333.7215 408.863822 
L 343.7215 408.863822 
" style="fill: none; stroke-dasharray: 0.5,0.825; stroke-dashoffset: 0; stroke: #1f77b4; stroke-width: 0.5"/>
   </g>
   <g id="text_21">
    <!-- 2010-2019 -->
    <g transform="translate(351.7215 412.363822) scale(0.1 -0.1)">
     <defs>
      <path id="DejaVuSans-2d" d="M 313 2009 
L 1997 2009 
L 1997 1497 
L 313 1497 
L 313 2009 
z
" transform="scale(0.015625)"/>
      <path id="DejaVuSans-39" d="M 703 97 
L 703 672 
Q 941 559 1184 500 
Q 1428 441 1663 441 
Q 2288 441 2617 861 
Q 2947 1281 2994 2138 
Q 2813 1869 2534 1725 
Q 2256 1581 1919 1581 
Q 1219 1581 811 2004 
Q 403 2428 403 3163 
Q 403 3881 828 4315 
Q 1253 4750 1959 4750 
Q 2769 4750 3195 4129 
Q 3622 3509 3622 2328 
Q 3622 1225 3098 567 
Q 2575 -91 1691 -91 
Q 1453 -91 1209 -44 
Q 966 3 703 97 
z
M 1959 2075 
Q 2384 2075 2632 2365 
Q 2881 2656 2881 3163 
Q 2881 3666 2632 3958 
Q 2384 4250 1959 4250 
Q 1534 4250 1286 3958 
Q 1038 3666 1038 3163 
Q 1038 2656 1286 2365 
Q 1534 2075 1959 2075 
z
" transform="scale(0.015625)"/>
     </defs>
     <use xlink:href="#DejaVuSans-32"/>
     <use xlink:href="#DejaVuSans-30" x="63.623047"/>
     <use xlink:href="#DejaVuSans-31" x="127.246094"/>
     <use xlink:href="#DejaVuSans-30" x="190.869141"/>
     <use xlink:href="#DejaVuSans-2d" x="254.492188"/>
     <use xlink:href="#DejaVuSans-32" x="290.576172"/>
     <use xlink:href="#DejaVuSans-30" x="354.199219"/>
     <use xlink:href="#DejaVuSans-31" x="417.822266"/>
     <use xlink:href="#DejaVuSans-39" x="481.445312"/>
    </g>
   </g>
   <g id="line2d_22">
    <path d="M 323.7215 423.541947 
L 333.7215 423.541947 
L 343.7215 423.541947 
" style="fill: none; stroke: #ff7f0e; stroke-width: 1.5; stroke-linecap: square"/>
   </g>
   <g id="text_22">
    <!-- 2021 -->
    <g transform="translate(351.7215 427.041947) scale(0.1 -0.1)">
     <use xlink:href="#DejaVuSans-32"/>
     <use xlink:href="#DejaVuSans-30" x="63.623047"/>
     <use xlink:href="#DejaVuSans-32" x="127.246094"/>
     <use xlink:href="#DejaVuSans-31" x="190.869141"/>
    </g>
   </g>
   <g id="line2d_23">
    <path d="M 323.7215 438.220073 
L 333.7215 438.220073 
L 343.7215 438.220073 
" style="fill: none; stroke: #2ca02c; stroke-width: 3; stroke-linecap: square"/>
   </g>
   <g id="text_23">
    <!-- 2022 -->
    <g transform="translate(351.7215 441.720073) scale(0.1 -0.1)">
     <use xlink:href="#DejaVuSans-32"/>
     <use xlink:href="#DejaVuSans-30" x="63.623047"/>
     <use xlink:href="#DejaVuSans-32" x="127.246094"/>
     <use xlink:href="#DejaVuSans-32" x="190.869141"/>
    </g>
   </g>
  </g>
 </g>
 <defs>
  <clipPath id="pd5c7e25520">
   <path d="M 364.645312 251.95176 
C 364.645312 229.968993 360.315187 208.199982 351.902746 187.890553 
C 343.490306 167.581125 331.159151 149.126248 315.614988 133.582085 
C 300.070824 118.037922 281.615947 105.706767 261.306519 97.294326 
C 240.997091 88.881886 219.228079 84.55176 197.245313 84.55176 
C 175.262546 84.55176 153.493534 88.881886 133.184106 97.294326 
C 112.874678 105.706767 94.419801 118.037922 78.875637 133.582085 
C 63.331474 149.126248 51.000319 167.581125 42.587879 187.890553 
C 34.175438 208.199982 29.845312 229.968993 29.845312 251.95176 
C 29.845312 273.934527 34.175438 295.703538 42.587879 316.012967 
C 51.000319 336.322395 63.331474 354.777272 78.875637 370.321435 
C 94.419801 385.865598 112.874678 398.196753 133.184106 406.609194 
C 153.493534 415.021634 175.262546 419.35176 197.245312 419.35176 
C 219.228079 419.35176 240.997091 415.021634 261.306519 406.609194 
C 281.615947 398.196753 300.070824 385.865598 315.614988 370.321435 
C 331.159151 354.777272 343.490306 336.322395 351.902746 316.012967 
C 360.315187 295.703538 364.645312 273.934527 364.645312 251.95176 
M 197.245312 251.95176 
C 197.245312 251.95176 197.245312 251.95176 197.245312 251.95176 
C 197.245312 251.95176 197.245312 251.95176 197.245312 251.95176 
C 197.245312 251.95176 197.245312 251.95176 197.245312 251.95176 
C 197.245312 251.95176 197.245312 251.95176 197.245312 251.95176 
C 197.245312 251.95176 197.245312 251.95176 197.245312 251.95176 
C 197.245312 251.95176 197.245312 251.95176 197.245312 251.95176 
C 197.245312 251.95176 197.245312 251.95176 197.245312 251.95176 
C 197.245312 251.95176 197.245312 251.95176 197.245312 251.95176 
C 197.245312 251.95176 197.245312 251.95176 197.245312 251.95176 
C 197.245312 251.95176 197.245312 251.95176 197.245312 251.95176 
C 197.245312 251.95176 197.245312 251.95176 197.245312 251.95176 
C 197.245312 251.95176 197.245312 251.95176 197.245312 251.95176 
C 197.245312 251.95176 197.245312 251.95176 197.245312 251.95176 
C 197.245312 251.95176 197.245312 251.95176 197.245312 251.95176 
C 197.245312 251.95176 197.245312 251.95176 197.245312 251.95176 
C 197.245312 251.95176 197.245312 251.95176 197.245312 251.95176 
M 364.645312 251.95176 
z
"/>
  </clipPath>
 </defs>
</svg>
