<?xml version="1.0" encoding="utf-8" standalone="no"?>
<!DOCTYPE svg PUBLIC "-//W3C//DTD SVG 1.1//EN"
  "http://www.w3.org/Graphics/SVG/1.1/DTD/svg11.dtd">
<svg xmlns:xlink="http://www.w3.org/1999/xlink" width="498.934569pt" height="460.67976pt" viewBox="0 0 498.934569 460.67976" xmlns="http://www.w3.org/2000/svg" version="1.1">
 <metadata>
  <rdf:RDF xmlns:dc="http://purl.org/dc/elements/1.1/" xmlns:cc="http://creativecommons.org/ns#" xmlns:rdf="http://www.w3.org/1999/02/22-rdf-syntax-ns#">
   <cc:Work>
    <dc:type rdf:resource="http://purl.org/dc/dcmitype/StillImage"/>
    <dc:date>2022-01-10T13:23:12.886470</dc:date>
    <dc:format>image/svg+xml</dc:format>
    <dc:creator>
     <cc:Agent>
      <dc:title>Matplotlib v3.5.1, https://matplotlib.org/</dc:title>
     </cc:Agent>
    </dc:creator>
   </cc:Work>
  </rdf:RDF>
 </metadata>
 <defs>
  <style type="text/css">*{stroke-linejoin: round; stroke-linecap: butt}</style>
 </defs>
 <g id="figure_1">
  <g id="patch_1">
   <path d="M 0 460.67976 
L 498.934569 460.67976 
L 498.934569 0 
L 0 0 
z
" style="fill: #ffffff"/>
  </g>
  <g id="axes_1">
   <g id="patch_2">
    <path d="M 387.623826 255.751441 
C 387.623826 232.259919 382.996508 208.996822 374.006692 187.293486 
C 365.016876 165.59015 351.83939 145.868649 335.228376 129.257634 
C 318.617361 112.64662 298.89586 99.469134 277.192524 90.479318 
C 255.489188 81.489502 232.226091 76.862184 208.734569 76.862184 
C 185.243047 76.862184 161.979951 81.489502 140.276614 90.479318 
C 118.573278 99.469134 98.851777 112.64662 82.240763 129.257634 
C 65.629748 145.868649 52.452263 165.59015 43.462446 187.293486 
C 34.47263 208.996822 29.845313 232.259919 29.845313 255.751441 
C 29.845313 279.242963 34.47263 302.506059 43.462446 324.209396 
C 52.452263 345.912732 65.629748 365.634233 82.240763 382.245247 
C 98.851777 398.856262 118.573278 412.033747 140.276614 421.023564 
C 161.979951 430.01338 185.243047 434.640697 208.734569 434.640697 
C 232.226091 434.640697 255.489188 430.01338 277.192524 421.023564 
C 298.89586 412.033747 318.617361 398.856262 335.228376 382.245247 
C 351.83939 365.634233 365.016876 345.912732 374.006692 324.209396 
C 382.996508 302.506059 387.623826 279.242963 387.623826 255.751441 
M 208.734569 255.751441 
C 208.734569 255.751441 208.734569 255.751441 208.734569 255.751441 
C 208.734569 255.751441 208.734569 255.751441 208.734569 255.751441 
C 208.734569 255.751441 208.734569 255.751441 208.734569 255.751441 
C 208.734569 255.751441 208.734569 255.751441 208.734569 255.751441 
C 208.734569 255.751441 208.734569 255.751441 208.734569 255.751441 
C 208.734569 255.751441 208.734569 255.751441 208.734569 255.751441 
C 208.734569 255.751441 208.734569 255.751441 208.734569 255.751441 
C 208.734569 255.751441 208.734569 255.751441 208.734569 255.751441 
C 208.734569 255.751441 208.734569 255.751441 208.734569 255.751441 
C 208.734569 255.751441 208.734569 255.751441 208.734569 255.751441 
C 208.734569 255.751441 208.734569 255.751441 208.734569 255.751441 
C 208.734569 255.751441 208.734569 255.751441 208.734569 255.751441 
C 208.734569 255.751441 208.734569 255.751441 208.734569 255.751441 
C 208.734569 255.751441 208.734569 255.751441 208.734569 255.751441 
C 208.734569 255.751441 208.734569 255.751441 208.734569 255.751441 
C 208.734569 255.751441 208.734569 255.751441 208.734569 255.751441 
M 387.623826 255.751441 
z
" style="fill: #ffffff"/>
   </g>
   <g id="PolyCollection_1">
    <defs>
     <path id="m2593069642" d="M 208.734569 -301.213664 
L 208.734569 -319.034871 
L 222.798345 -320.753932 
L 236.119349 -316.032737 
L 249.973029 -313.665201 
L 262.561363 -307.486707 
L 274.22488 -299.807414 
L 286.343818 -292.531051 
L 297.528163 -283.592579 
L 306.036302 -272.090856 
L 315.36689 -260.893278 
L 314.873899 -245.181657 
L 313.889427 -230.846664 
L 314.566695 -217.778666 
L 311.217572 -204.928319 
L 308.547534 -192.808831 
L 305.251717 -181.138979 
L 299.752894 -170.409622 
L 292.004529 -161.224873 
L 288.168513 -150.099026 
L 279.203384 -142.498397 
L 271.633277 -133.930355 
L 261.725712 -128.157395 
L 251.158128 -124.096981 
L 240.914958 -120.075608 
L 230.369538 -117.151801 
L 219.8758 -113.172027 
L 208.734569 -110.398152 
L 197.740759 -114.386145 
L 186.34891 -114.106131 
L 174.703063 -115.194612 
L 166.506167 -124.468821 
L 157.113832 -130.142771 
L 149.974644 -138.602075 
L 141.264954 -145.155456 
L 133.714614 -153.145783 
L 129.810835 -163.505948 
L 123.085763 -172.446011 
L 119.909716 -183.034959 
L 116.180486 -193.690219 
L 114.881618 -204.928319 
L 112.100484 -216.661821 
L 116.328313 -227.704416 
L 117.839663 -239.40021 
L 123.397885 -249.716466 
L 127.549128 -260.966583 
L 133.843304 -271.276191 
L 142.027361 -280.225192 
L 151.562751 -287.755997 
L 160.809769 -296.241397 
L 170.332663 -306.185823 
L 183.054451 -309.116655 
L 195.70849 -312.207734 
L 208.734569 -319.034871 
L 208.734569 -301.213664 
L 208.734569 -301.213664 
L 197.444717 -297.908615 
L 185.675329 -298.483336 
L 174.892874 -294.161536 
L 165.433768 -287.431103 
L 155.903858 -281.466818 
L 148.929683 -272.43408 
L 142.550322 -263.562446 
L 136.836745 -254.555804 
L 130.828635 -245.816508 
L 126.622544 -236.069303 
L 123.367923 -225.969308 
L 121.584847 -215.510211 
L 121.835903 -204.928319 
L 124.247459 -194.669727 
L 126.9929 -184.780807 
L 131.587593 -175.67033 
L 133.485392 -165.434505 
L 140.842249 -158.065634 
L 147.741264 -150.892966 
L 153.31851 -142.376519 
L 162.503541 -137.951112 
L 171.017271 -133.064012 
L 179.345638 -127.436077 
L 188.83357 -124.186792 
L 198.55273 -121.073329 
L 208.734569 -116.016033 
L 219.013278 -120.275538 
L 229.012664 -122.656856 
L 238.447438 -126.581923 
L 248.598603 -128.973749 
L 257.893077 -133.709925 
L 265.746298 -140.575381 
L 273.688407 -147.38424 
L 282.14159 -154.259111 
L 285.663783 -164.552753 
L 292.0996 -173.312133 
L 296.246048 -183.358677 
L 298.353711 -194.046585 
L 298.656627 -204.928319 
L 300.586095 -216.081114 
L 297.839537 -226.890721 
L 295.051366 -237.663962 
L 291.086833 -248.150121 
L 285.737126 -258.079347 
L 281.470311 -269.366563 
L 272.366284 -276.753678 
L 263.771745 -284.663434 
L 253.044503 -289.353845 
L 242.148235 -293.032915 
L 231.241066 -296.240765 
L 220.289054 -300.088066 
L 208.734569 -301.213664 
z
" style="stroke: #1f77b4; stroke-opacity: 0.3"/>
    </defs>
    <g clip-path="url(#p4e0dae44be)">
     <use xlink:href="#m2593069642" x="0" y="460.67976" style="fill: #1f77b4; fill-opacity: 0.3; stroke: #1f77b4; stroke-opacity: 0.3"/>
    </g>
   </g>
   <g id="PolyCollection_2">
    <path d="M 208.734569 133.60254 
L 208.734569 161.058655 
L 220.177409 161.511177 
L 230.232649 168.530301 
L 240.540692 171.885588 
L 251.817745 173.663308 
L 260.756485 180.384684 
L 268.235753 188.588488 
L 276.66627 195.569206 
L 284.411245 203.515603 
L 291.004581 212.572808 
L 294.713073 223.144095 
L 297.21882 233.942032 
L 296.619647 245.08026 
L 293.362395 255.751441 
L 296.517693 266.410242 
L 294.526399 276.897228 
L 290.999928 286.950576 
L 285.366327 295.97089 
L 282.157286 306.431483 
L 273.437528 313.07326 
L 265.14832 319.429402 
L 256.905891 325.539649 
L 248.174448 330.897852 
L 237.530036 331.678846 
L 228.503955 335.95899 
L 218.980718 340.136069 
L 208.734569 342.467575 
L 198.624595 339.014566 
L 189.391213 334.230522 
L 180.643208 329.822274 
L 172.317513 325.138345 
L 162.916388 322.130536 
L 153.909938 317.635657 
L 150.386594 307.443236 
L 141.961032 301.841886 
L 134.982565 294.459479 
L 134.759766 283.806383 
L 129.291535 275.33239 
L 128.224225 265.527166 
L 124.038274 255.751441 
L 122.514754 245.28246 
L 124.205851 234.916983 
L 128.005684 225.135013 
L 133.89129 216.470658 
L 138.213825 207.074485 
L 144.18536 198.565831 
L 151.02682 190.612858 
L 155.818071 179.088658 
L 167.401449 176.99776 
L 177.292639 172.845884 
L 185.901052 163.11222 
L 198.03863 167.662453 
L 208.734569 161.058655 
L 208.734569 133.60254 
L 208.734569 133.60254 
L 194.997384 142.615546 
L 182.083177 147.62249 
L 169.668881 152.743688 
L 160.33759 163.538701 
L 149.517098 169.960123 
L 140.107298 178.287265 
L 130.32227 186.284206 
L 123.788486 197.117393 
L 122.160084 210.313646 
L 114.36948 219.963483 
L 113.03729 232.16418 
L 109.022729 243.644231 
L 112.672401 255.751441 
L 115.241974 267.103497 
L 118.488611 277.995072 
L 121.507681 288.832236 
L 129.010866 297.593668 
L 130.324968 309.873681 
L 139.521622 317.068762 
L 149.414999 322.709394 
L 155.351332 333.090412 
L 164.824095 339.41586 
L 172.242507 351.973102 
L 185.720809 349.121936 
L 197.341248 349.583885 
L 208.734569 353.251461 
L 220.43738 352.132756 
L 230.789764 345.232884 
L 241.269076 341.537885 
L 252.231394 338.627717 
L 262.720677 333.963821 
L 273.956584 329.371877 
L 281.022509 319.792967 
L 291.905659 313.160299 
L 293.793395 300.393756 
L 303.355737 291.636516 
L 309.650491 280.624982 
L 312.694528 268.374465 
L 312.807624 255.751441 
L 318.33603 242.443414 
L 322.746958 227.649911 
L 328.227404 210.433786 
L 332.776164 190.64939 
L 319.65753 179.186849 
L 303.316201 171.959426 
L 291.822831 161.964181 
L 277.053444 156.774463 
L 265.595452 147.412081 
L 252.753271 139.683662 
L 237.303092 139.844386 
L 223.742722 132.148181 
L 208.734569 133.60254 
z
" clip-path="url(#p4e0dae44be)" style="fill: #1f77b4; fill-opacity: 0.2"/>
   </g>
   <g id="matplotlib.axis_1">
    <g id="xtick_1">
     <g id="line2d_1">
      <path d="M 208.734569 255.751441 
L 208.734569 76.862184 
" clip-path="url(#p4e0dae44be)" style="fill: none; stroke: #b0b0b0; stroke-width: 0.8; stroke-linecap: square"/>
     </g>
     <g id="text_1">
      <!-- Jan -->
      <g transform="translate(201.026757 65.621559)scale(0.1 -0.1)">
       <defs>
        <path id="DejaVuSans-4a" d="M 628 4666 
L 1259 4666 
L 1259 325 
Q 1259 -519 939 -900 
Q 619 -1281 -91 -1281 
L -331 -1281 
L -331 -750 
L -134 -750 
Q 284 -750 456 -515 
Q 628 -281 628 325 
L 628 4666 
z
" transform="scale(0.015625)"/>
        <path id="DejaVuSans-61" d="M 2194 1759 
Q 1497 1759 1228 1600 
Q 959 1441 959 1056 
Q 959 750 1161 570 
Q 1363 391 1709 391 
Q 2188 391 2477 730 
Q 2766 1069 2766 1631 
L 2766 1759 
L 2194 1759 
z
M 3341 1997 
L 3341 0 
L 2766 0 
L 2766 531 
Q 2569 213 2275 61 
Q 1981 -91 1556 -91 
Q 1019 -91 701 211 
Q 384 513 384 1019 
Q 384 1609 779 1909 
Q 1175 2209 1959 2209 
L 2766 2209 
L 2766 2266 
Q 2766 2663 2505 2880 
Q 2244 3097 1772 3097 
Q 1472 3097 1187 3025 
Q 903 2953 641 2809 
L 641 3341 
Q 956 3463 1253 3523 
Q 1550 3584 1831 3584 
Q 2591 3584 2966 3190 
Q 3341 2797 3341 1997 
z
" transform="scale(0.015625)"/>
        <path id="DejaVuSans-6e" d="M 3513 2113 
L 3513 0 
L 2938 0 
L 2938 2094 
Q 2938 2591 2744 2837 
Q 2550 3084 2163 3084 
Q 1697 3084 1428 2787 
Q 1159 2491 1159 1978 
L 1159 0 
L 581 0 
L 581 3500 
L 1159 3500 
L 1159 2956 
Q 1366 3272 1645 3428 
Q 1925 3584 2291 3584 
Q 2894 3584 3203 3211 
Q 3513 2838 3513 2113 
z
" transform="scale(0.015625)"/>
       </defs>
       <use xlink:href="#DejaVuSans-4a"/>
       <use xlink:href="#DejaVuSans-61" x="29.492188"/>
       <use xlink:href="#DejaVuSans-6e" x="90.771484"/>
      </g>
     </g>
    </g>
    <g id="xtick_2">
     <g id="line2d_2">
      <path d="M 208.734569 255.751441 
L 298.179198 100.8288 
" clip-path="url(#p4e0dae44be)" style="fill: none; stroke: #b0b0b0; stroke-width: 0.8; stroke-linecap: square"/>
     </g>
     <g id="text_2">
      <!-- Feb -->
      <g transform="translate(296.327635 91.463819)scale(0.1 -0.1)">
       <defs>
        <path id="DejaVuSans-46" d="M 628 4666 
L 3309 4666 
L 3309 4134 
L 1259 4134 
L 1259 2759 
L 3109 2759 
L 3109 2228 
L 1259 2228 
L 1259 0 
L 628 0 
L 628 4666 
z
" transform="scale(0.015625)"/>
        <path id="DejaVuSans-65" d="M 3597 1894 
L 3597 1613 
L 953 1613 
Q 991 1019 1311 708 
Q 1631 397 2203 397 
Q 2534 397 2845 478 
Q 3156 559 3463 722 
L 3463 178 
Q 3153 47 2828 -22 
Q 2503 -91 2169 -91 
Q 1331 -91 842 396 
Q 353 884 353 1716 
Q 353 2575 817 3079 
Q 1281 3584 2069 3584 
Q 2775 3584 3186 3129 
Q 3597 2675 3597 1894 
z
M 3022 2063 
Q 3016 2534 2758 2815 
Q 2500 3097 2075 3097 
Q 1594 3097 1305 2825 
Q 1016 2553 972 2059 
L 3022 2063 
z
" transform="scale(0.015625)"/>
        <path id="DejaVuSans-62" d="M 3116 1747 
Q 3116 2381 2855 2742 
Q 2594 3103 2138 3103 
Q 1681 3103 1420 2742 
Q 1159 2381 1159 1747 
Q 1159 1113 1420 752 
Q 1681 391 2138 391 
Q 2594 391 2855 752 
Q 3116 1113 3116 1747 
z
M 1159 2969 
Q 1341 3281 1617 3432 
Q 1894 3584 2278 3584 
Q 2916 3584 3314 3078 
Q 3713 2572 3713 1747 
Q 3713 922 3314 415 
Q 2916 -91 2278 -91 
Q 1894 -91 1617 61 
Q 1341 213 1159 525 
L 1159 0 
L 581 0 
L 581 4863 
L 1159 4863 
L 1159 2969 
z
" transform="scale(0.015625)"/>
       </defs>
       <use xlink:href="#DejaVuSans-46"/>
       <use xlink:href="#DejaVuSans-65" x="52.019531"/>
       <use xlink:href="#DejaVuSans-62" x="113.542969"/>
      </g>
     </g>
    </g>
    <g id="xtick_3">
     <g id="line2d_3">
      <path d="M 208.734569 255.751441 
L 363.65721 166.306812 
" clip-path="url(#p4e0dae44be)" style="fill: none; stroke: #b0b0b0; stroke-width: 0.8; stroke-linecap: square"/>
     </g>
     <g id="text_3">
      <!-- Mar -->
      <g transform="translate(366.347972 162.066187)scale(0.1 -0.1)">
       <defs>
        <path id="DejaVuSans-4d" d="M 628 4666 
L 1569 4666 
L 2759 1491 
L 3956 4666 
L 4897 4666 
L 4897 0 
L 4281 0 
L 4281 4097 
L 3078 897 
L 2444 897 
L 1241 4097 
L 1241 0 
L 628 0 
L 628 4666 
z
" transform="scale(0.015625)"/>
        <path id="DejaVuSans-72" d="M 2631 2963 
Q 2534 3019 2420 3045 
Q 2306 3072 2169 3072 
Q 1681 3072 1420 2755 
Q 1159 2438 1159 1844 
L 1159 0 
L 581 0 
L 581 3500 
L 1159 3500 
L 1159 2956 
Q 1341 3275 1631 3429 
Q 1922 3584 2338 3584 
Q 2397 3584 2469 3576 
Q 2541 3569 2628 3553 
L 2631 2963 
z
" transform="scale(0.015625)"/>
       </defs>
       <use xlink:href="#DejaVuSans-4d"/>
       <use xlink:href="#DejaVuSans-61" x="86.279297"/>
       <use xlink:href="#DejaVuSans-72" x="147.558594"/>
      </g>
     </g>
    </g>
    <g id="xtick_4">
     <g id="line2d_4">
      <path d="M 208.734569 255.751441 
L 387.623826 255.751441 
" clip-path="url(#p4e0dae44be)" style="fill: none; stroke: #b0b0b0; stroke-width: 0.8; stroke-linecap: square"/>
     </g>
     <g id="text_4">
      <!-- Apr -->
      <g transform="translate(392.973826 258.510816)scale(0.1 -0.1)">
       <defs>
        <path id="DejaVuSans-41" d="M 2188 4044 
L 1331 1722 
L 3047 1722 
L 2188 4044 
z
M 1831 4666 
L 2547 4666 
L 4325 0 
L 3669 0 
L 3244 1197 
L 1141 1197 
L 716 0 
L 50 0 
L 1831 4666 
z
" transform="scale(0.015625)"/>
        <path id="DejaVuSans-70" d="M 1159 525 
L 1159 -1331 
L 581 -1331 
L 581 3500 
L 1159 3500 
L 1159 2969 
Q 1341 3281 1617 3432 
Q 1894 3584 2278 3584 
Q 2916 3584 3314 3078 
Q 3713 2572 3713 1747 
Q 3713 922 3314 415 
Q 2916 -91 2278 -91 
Q 1894 -91 1617 61 
Q 1341 213 1159 525 
z
M 3116 1747 
Q 3116 2381 2855 2742 
Q 2594 3103 2138 3103 
Q 1681 3103 1420 2742 
Q 1159 2381 1159 1747 
Q 1159 1113 1420 752 
Q 1681 391 2138 391 
Q 2594 391 2855 752 
Q 3116 1113 3116 1747 
z
" transform="scale(0.015625)"/>
       </defs>
       <use xlink:href="#DejaVuSans-41"/>
       <use xlink:href="#DejaVuSans-70" x="68.408203"/>
       <use xlink:href="#DejaVuSans-72" x="131.884766"/>
      </g>
     </g>
    </g>
    <g id="xtick_5">
     <g id="line2d_5">
      <path d="M 208.734569 255.751441 
L 363.65721 345.196069 
" clip-path="url(#p4e0dae44be)" style="fill: none; stroke: #b0b0b0; stroke-width: 0.8; stroke-linecap: square"/>
     </g>
     <g id="text_5">
      <!-- May -->
      <g transform="translate(365.444066 354.955444)scale(0.1 -0.1)">
       <defs>
        <path id="DejaVuSans-79" d="M 2059 -325 
Q 1816 -950 1584 -1140 
Q 1353 -1331 966 -1331 
L 506 -1331 
L 506 -850 
L 844 -850 
Q 1081 -850 1212 -737 
Q 1344 -625 1503 -206 
L 1606 56 
L 191 3500 
L 800 3500 
L 1894 763 
L 2988 3500 
L 3597 3500 
L 2059 -325 
z
" transform="scale(0.015625)"/>
       </defs>
       <use xlink:href="#DejaVuSans-4d"/>
       <use xlink:href="#DejaVuSans-61" x="86.279297"/>
       <use xlink:href="#DejaVuSans-79" x="147.558594"/>
      </g>
     </g>
    </g>
    <g id="xtick_6">
     <g id="line2d_6">
      <path d="M 208.734569 255.751441 
L 298.179198 410.674082 
" clip-path="url(#p4e0dae44be)" style="fill: none; stroke: #b0b0b0; stroke-width: 0.8; stroke-linecap: square"/>
     </g>
     <g id="text_6">
      <!-- Jun -->
      <g transform="translate(297.366698 425.557812)scale(0.1 -0.1)">
       <defs>
        <path id="DejaVuSans-75" d="M 544 1381 
L 544 3500 
L 1119 3500 
L 1119 1403 
Q 1119 906 1312 657 
Q 1506 409 1894 409 
Q 2359 409 2629 706 
Q 2900 1003 2900 1516 
L 2900 3500 
L 3475 3500 
L 3475 0 
L 2900 0 
L 2900 538 
Q 2691 219 2414 64 
Q 2138 -91 1772 -91 
Q 1169 -91 856 284 
Q 544 659 544 1381 
z
M 1991 3584 
L 1991 3584 
z
" transform="scale(0.015625)"/>
       </defs>
       <use xlink:href="#DejaVuSans-4a"/>
       <use xlink:href="#DejaVuSans-75" x="29.492188"/>
       <use xlink:href="#DejaVuSans-6e" x="92.871094"/>
      </g>
     </g>
    </g>
    <g id="xtick_7">
     <g id="line2d_7">
      <path d="M 208.734569 255.751441 
L 208.734569 434.640697 
" clip-path="url(#p4e0dae44be)" style="fill: none; stroke: #b0b0b0; stroke-width: 0.8; stroke-linecap: square"/>
     </g>
     <g id="text_7">
      <!-- Jul -->
      <g transform="translate(202.701757 451.400072)scale(0.1 -0.1)">
       <defs>
        <path id="DejaVuSans-6c" d="M 603 4863 
L 1178 4863 
L 1178 0 
L 603 0 
L 603 4863 
z
" transform="scale(0.015625)"/>
       </defs>
       <use xlink:href="#DejaVuSans-4a"/>
       <use xlink:href="#DejaVuSans-75" x="29.492188"/>
       <use xlink:href="#DejaVuSans-6c" x="92.871094"/>
      </g>
     </g>
    </g>
    <g id="xtick_8">
     <g id="line2d_8">
      <path d="M 208.734569 255.751441 
L 119.289941 410.674082 
" clip-path="url(#p4e0dae44be)" style="fill: none; stroke: #b0b0b0; stroke-width: 0.8; stroke-linecap: square"/>
     </g>
     <g id="text_8">
      <!-- Aug -->
      <g transform="translate(102.52666 425.557812)scale(0.1 -0.1)">
       <defs>
        <path id="DejaVuSans-67" d="M 2906 1791 
Q 2906 2416 2648 2759 
Q 2391 3103 1925 3103 
Q 1463 3103 1205 2759 
Q 947 2416 947 1791 
Q 947 1169 1205 825 
Q 1463 481 1925 481 
Q 2391 481 2648 825 
Q 2906 1169 2906 1791 
z
M 3481 434 
Q 3481 -459 3084 -895 
Q 2688 -1331 1869 -1331 
Q 1566 -1331 1297 -1286 
Q 1028 -1241 775 -1147 
L 775 -588 
Q 1028 -725 1275 -790 
Q 1522 -856 1778 -856 
Q 2344 -856 2625 -561 
Q 2906 -266 2906 331 
L 2906 616 
Q 2728 306 2450 153 
Q 2172 0 1784 0 
Q 1141 0 747 490 
Q 353 981 353 1791 
Q 353 2603 747 3093 
Q 1141 3584 1784 3584 
Q 2172 3584 2450 3431 
Q 2728 3278 2906 2969 
L 2906 3500 
L 3481 3500 
L 3481 434 
z
" transform="scale(0.015625)"/>
       </defs>
       <use xlink:href="#DejaVuSans-41"/>
       <use xlink:href="#DejaVuSans-75" x="68.408203"/>
       <use xlink:href="#DejaVuSans-67" x="131.787109"/>
      </g>
     </g>
    </g>
    <g id="xtick_9">
     <g id="line2d_9">
      <path d="M 208.734569 255.751441 
L 53.811928 345.196069 
" clip-path="url(#p4e0dae44be)" style="fill: none; stroke: #b0b0b0; stroke-width: 0.8; stroke-linecap: square"/>
     </g>
     <g id="text_9">
      <!-- Sept -->
      <g transform="translate(30.302417 354.955444)scale(0.1 -0.1)">
       <defs>
        <path id="DejaVuSans-53" d="M 3425 4513 
L 3425 3897 
Q 3066 4069 2747 4153 
Q 2428 4238 2131 4238 
Q 1616 4238 1336 4038 
Q 1056 3838 1056 3469 
Q 1056 3159 1242 3001 
Q 1428 2844 1947 2747 
L 2328 2669 
Q 3034 2534 3370 2195 
Q 3706 1856 3706 1288 
Q 3706 609 3251 259 
Q 2797 -91 1919 -91 
Q 1588 -91 1214 -16 
Q 841 59 441 206 
L 441 856 
Q 825 641 1194 531 
Q 1563 422 1919 422 
Q 2459 422 2753 634 
Q 3047 847 3047 1241 
Q 3047 1584 2836 1778 
Q 2625 1972 2144 2069 
L 1759 2144 
Q 1053 2284 737 2584 
Q 422 2884 422 3419 
Q 422 4038 858 4394 
Q 1294 4750 2059 4750 
Q 2388 4750 2728 4690 
Q 3069 4631 3425 4513 
z
" transform="scale(0.015625)"/>
        <path id="DejaVuSans-74" d="M 1172 4494 
L 1172 3500 
L 2356 3500 
L 2356 3053 
L 1172 3053 
L 1172 1153 
Q 1172 725 1289 603 
Q 1406 481 1766 481 
L 2356 481 
L 2356 0 
L 1766 0 
Q 1100 0 847 248 
Q 594 497 594 1153 
L 594 3053 
L 172 3053 
L 172 3500 
L 594 3500 
L 594 4494 
L 1172 4494 
z
" transform="scale(0.015625)"/>
       </defs>
       <use xlink:href="#DejaVuSans-53"/>
       <use xlink:href="#DejaVuSans-65" x="63.476562"/>
       <use xlink:href="#DejaVuSans-70" x="125"/>
       <use xlink:href="#DejaVuSans-74" x="188.476562"/>
      </g>
     </g>
    </g>
    <g id="xtick_10">
     <g id="line2d_10">
      <path d="M 208.734569 255.751441 
L 29.845313 255.751441 
" clip-path="url(#p4e0dae44be)" style="fill: none; stroke: #b0b0b0; stroke-width: 0.8; stroke-linecap: square"/>
     </g>
     <g id="text_10">
      <!-- Oct -->
      <g transform="translate(7.2 258.510816)scale(0.1 -0.1)">
       <defs>
        <path id="DejaVuSans-4f" d="M 2522 4238 
Q 1834 4238 1429 3725 
Q 1025 3213 1025 2328 
Q 1025 1447 1429 934 
Q 1834 422 2522 422 
Q 3209 422 3611 934 
Q 4013 1447 4013 2328 
Q 4013 3213 3611 3725 
Q 3209 4238 2522 4238 
z
M 2522 4750 
Q 3503 4750 4090 4092 
Q 4678 3434 4678 2328 
Q 4678 1225 4090 567 
Q 3503 -91 2522 -91 
Q 1538 -91 948 565 
Q 359 1222 359 2328 
Q 359 3434 948 4092 
Q 1538 4750 2522 4750 
z
" transform="scale(0.015625)"/>
        <path id="DejaVuSans-63" d="M 3122 3366 
L 3122 2828 
Q 2878 2963 2633 3030 
Q 2388 3097 2138 3097 
Q 1578 3097 1268 2742 
Q 959 2388 959 1747 
Q 959 1106 1268 751 
Q 1578 397 2138 397 
Q 2388 397 2633 464 
Q 2878 531 3122 666 
L 3122 134 
Q 2881 22 2623 -34 
Q 2366 -91 2075 -91 
Q 1284 -91 818 406 
Q 353 903 353 1747 
Q 353 2603 823 3093 
Q 1294 3584 2113 3584 
Q 2378 3584 2631 3529 
Q 2884 3475 3122 3366 
z
" transform="scale(0.015625)"/>
       </defs>
       <use xlink:href="#DejaVuSans-4f"/>
       <use xlink:href="#DejaVuSans-63" x="78.710938"/>
       <use xlink:href="#DejaVuSans-74" x="133.691406"/>
      </g>
     </g>
    </g>
    <g id="xtick_11">
     <g id="line2d_11">
      <path d="M 208.734569 255.751441 
L 53.811928 166.306812 
" clip-path="url(#p4e0dae44be)" style="fill: none; stroke: #b0b0b0; stroke-width: 0.8; stroke-linecap: square"/>
     </g>
     <g id="text_11">
      <!-- Nov -->
      <g transform="translate(31.928198 162.066187)scale(0.1 -0.1)">
       <defs>
        <path id="DejaVuSans-4e" d="M 628 4666 
L 1478 4666 
L 3547 763 
L 3547 4666 
L 4159 4666 
L 4159 0 
L 3309 0 
L 1241 3903 
L 1241 0 
L 628 0 
L 628 4666 
z
" transform="scale(0.015625)"/>
        <path id="DejaVuSans-6f" d="M 1959 3097 
Q 1497 3097 1228 2736 
Q 959 2375 959 1747 
Q 959 1119 1226 758 
Q 1494 397 1959 397 
Q 2419 397 2687 759 
Q 2956 1122 2956 1747 
Q 2956 2369 2687 2733 
Q 2419 3097 1959 3097 
z
M 1959 3584 
Q 2709 3584 3137 3096 
Q 3566 2609 3566 1747 
Q 3566 888 3137 398 
Q 2709 -91 1959 -91 
Q 1206 -91 779 398 
Q 353 888 353 1747 
Q 353 2609 779 3096 
Q 1206 3584 1959 3584 
z
" transform="scale(0.015625)"/>
        <path id="DejaVuSans-76" d="M 191 3500 
L 800 3500 
L 1894 563 
L 2988 3500 
L 3597 3500 
L 2284 0 
L 1503 0 
L 191 3500 
z
" transform="scale(0.015625)"/>
       </defs>
       <use xlink:href="#DejaVuSans-4e"/>
       <use xlink:href="#DejaVuSans-6f" x="74.804688"/>
       <use xlink:href="#DejaVuSans-76" x="135.986328"/>
      </g>
     </g>
    </g>
    <g id="xtick_12">
     <g id="line2d_12">
      <path d="M 208.734569 255.751441 
L 119.289941 100.8288 
" clip-path="url(#p4e0dae44be)" style="fill: none; stroke: #b0b0b0; stroke-width: 0.8; stroke-linecap: square"/>
     </g>
     <g id="text_12">
      <!-- Dec -->
      <g transform="translate(102.61416 91.463819)scale(0.1 -0.1)">
       <defs>
        <path id="DejaVuSans-44" d="M 1259 4147 
L 1259 519 
L 2022 519 
Q 2988 519 3436 956 
Q 3884 1394 3884 2338 
Q 3884 3275 3436 3711 
Q 2988 4147 2022 4147 
L 1259 4147 
z
M 628 4666 
L 1925 4666 
Q 3281 4666 3915 4102 
Q 4550 3538 4550 2338 
Q 4550 1131 3912 565 
Q 3275 0 1925 0 
L 628 0 
L 628 4666 
z
" transform="scale(0.015625)"/>
       </defs>
       <use xlink:href="#DejaVuSans-44"/>
       <use xlink:href="#DejaVuSans-65" x="77.001953"/>
       <use xlink:href="#DejaVuSans-63" x="138.525391"/>
      </g>
     </g>
    </g>
   </g>
   <g id="matplotlib.axis_2">
    <g id="ytick_1">
     <g id="line2d_13">
      <path d="M 208.734569 221.516883 
C 213.23021 221.516883 217.682137 222.402427 221.835567 224.122834 
C 225.988998 225.843241 229.763159 228.365055 232.942057 231.543953 
C 236.120955 234.722851 238.642769 238.497012 240.363176 242.650443 
C 242.083583 246.803873 242.969127 251.2558 242.969127 255.751441 
C 242.969127 260.247082 242.083583 264.699008 240.363176 268.852439 
C 238.642769 273.005869 236.120955 276.78003 232.942057 279.958929 
C 229.763159 283.137827 225.988998 285.65964 221.835567 287.380048 
C 217.682137 289.100455 213.23021 289.985998 208.734569 289.985998 
C 204.238928 289.985998 199.787002 289.100455 195.633571 287.380048 
C 191.480141 285.65964 187.70598 283.137827 184.527081 279.958929 
C 181.348183 276.78003 178.82637 273.005869 177.105962 268.852439 
C 175.385555 264.699008 174.500012 260.247082 174.500012 255.751441 
C 174.500012 251.2558 175.385555 246.803873 177.105962 242.650443 
C 178.82637 238.497012 181.348183 234.722851 184.527081 231.543953 
C 187.70598 228.365055 191.480141 225.843241 195.633571 224.122834 
C 199.787002 222.402427 204.238928 221.516883 208.734569 221.516883 
" clip-path="url(#p4e0dae44be)" style="fill: none; stroke: #b0b0b0; stroke-width: 0.8; stroke-linecap: square"/>
     </g>
     <g id="text_13">
      <!-- 1000 -->
      <g transform="translate(208.734569 287.906311)scale(0.1 -0.1)">
       <defs>
        <path id="DejaVuSans-31" d="M 794 531 
L 1825 531 
L 1825 4091 
L 703 3866 
L 703 4441 
L 1819 4666 
L 2450 4666 
L 2450 531 
L 3481 531 
L 3481 0 
L 794 0 
L 794 531 
z
" transform="scale(0.015625)"/>
        <path id="DejaVuSans-30" d="M 2034 4250 
Q 1547 4250 1301 3770 
Q 1056 3291 1056 2328 
Q 1056 1369 1301 889 
Q 1547 409 2034 409 
Q 2525 409 2770 889 
Q 3016 1369 3016 2328 
Q 3016 3291 2770 3770 
Q 2525 4250 2034 4250 
z
M 2034 4750 
Q 2819 4750 3233 4129 
Q 3647 3509 3647 2328 
Q 3647 1150 3233 529 
Q 2819 -91 2034 -91 
Q 1250 -91 836 529 
Q 422 1150 422 2328 
Q 422 3509 836 4129 
Q 1250 4750 2034 4750 
z
" transform="scale(0.015625)"/>
       </defs>
       <use xlink:href="#DejaVuSans-31"/>
       <use xlink:href="#DejaVuSans-30" x="63.623047"/>
       <use xlink:href="#DejaVuSans-30" x="127.246094"/>
       <use xlink:href="#DejaVuSans-30" x="190.869141"/>
      </g>
     </g>
    </g>
    <g id="ytick_2">
     <g id="line2d_14">
      <path d="M 208.734569 187.282326 
C 217.725851 187.282326 226.629704 189.053412 234.936565 192.494227 
C 243.243426 195.935041 250.791748 200.978669 257.149545 207.336465 
C 263.507341 213.694262 268.550969 221.242584 271.991783 229.549445 
C 275.432598 237.856306 277.203684 246.760159 277.203684 255.751441 
C 277.203684 264.742723 275.432598 273.646576 271.991783 281.953437 
C 268.550969 290.260298 263.507341 297.80862 257.149545 304.166416 
C 250.791748 310.524213 243.243426 315.56784 234.936565 319.008655 
C 226.629704 322.449469 217.725851 324.220556 208.734569 324.220556 
C 199.743287 324.220556 190.839434 322.449469 182.532573 319.008655 
C 174.225712 315.56784 166.67739 310.524213 160.319594 304.166416 
C 153.961797 297.80862 148.91817 290.260298 145.477355 281.953437 
C 142.036541 273.646576 140.265454 264.742723 140.265454 255.751441 
C 140.265454 246.760159 142.036541 237.856306 145.477355 229.549445 
C 148.91817 221.242584 153.961797 213.694262 160.319594 207.336465 
C 166.67739 200.978669 174.225712 195.935041 182.532573 192.494227 
C 190.839434 189.053412 199.743287 187.282326 208.734569 187.282326 
" clip-path="url(#p4e0dae44be)" style="fill: none; stroke: #b0b0b0; stroke-width: 0.8; stroke-linecap: square"/>
     </g>
     <g id="text_14">
      <!-- 2000 -->
      <g transform="translate(208.734569 322.140868)scale(0.1 -0.1)">
       <defs>
        <path id="DejaVuSans-32" d="M 1228 531 
L 3431 531 
L 3431 0 
L 469 0 
L 469 531 
Q 828 903 1448 1529 
Q 2069 2156 2228 2338 
Q 2531 2678 2651 2914 
Q 2772 3150 2772 3378 
Q 2772 3750 2511 3984 
Q 2250 4219 1831 4219 
Q 1534 4219 1204 4116 
Q 875 4013 500 3803 
L 500 4441 
Q 881 4594 1212 4672 
Q 1544 4750 1819 4750 
Q 2544 4750 2975 4387 
Q 3406 4025 3406 3419 
Q 3406 3131 3298 2873 
Q 3191 2616 2906 2266 
Q 2828 2175 2409 1742 
Q 1991 1309 1228 531 
z
" transform="scale(0.015625)"/>
       </defs>
       <use xlink:href="#DejaVuSans-32"/>
       <use xlink:href="#DejaVuSans-30" x="63.623047"/>
       <use xlink:href="#DejaVuSans-30" x="127.246094"/>
       <use xlink:href="#DejaVuSans-30" x="190.869141"/>
      </g>
     </g>
    </g>
    <g id="ytick_3">
     <g id="line2d_15">
      <path d="M 208.734569 153.047768 
C 222.221492 153.047768 235.577271 155.704398 248.037563 160.86562 
C 260.497855 166.026842 271.820338 173.592283 281.357032 183.128978 
C 290.893727 192.665672 298.459168 203.988155 303.62039 216.448447 
C 308.781612 228.908739 311.438242 242.264518 311.438242 255.751441 
C 311.438242 269.238363 308.781612 282.594143 303.62039 295.054435 
C 298.459168 307.514727 290.893727 318.83721 281.357032 328.373904 
C 271.820338 337.910599 260.497855 345.47604 248.037563 350.637262 
C 235.577271 355.798484 222.221492 358.455113 208.734569 358.455113 
C 195.247647 358.455113 181.891867 355.798484 169.431575 350.637262 
C 156.971283 345.47604 145.6488 337.910599 136.112106 328.373904 
C 126.575411 318.83721 119.00997 307.514727 113.848748 295.054435 
C 108.687526 282.594143 106.030897 269.238363 106.030897 255.751441 
C 106.030897 242.264518 108.687526 228.908739 113.848748 216.448447 
C 119.00997 203.988155 126.575411 192.665672 136.112106 183.128978 
C 145.6488 173.592283 156.971283 166.026842 169.431575 160.86562 
C 181.891867 155.704398 195.247647 153.047768 208.734569 153.047768 
" clip-path="url(#p4e0dae44be)" style="fill: none; stroke: #b0b0b0; stroke-width: 0.8; stroke-linecap: square"/>
     </g>
     <g id="text_15">
      <!-- 3000 -->
      <g transform="translate(208.734569 356.375426)scale(0.1 -0.1)">
       <defs>
        <path id="DejaVuSans-33" d="M 2597 2516 
Q 3050 2419 3304 2112 
Q 3559 1806 3559 1356 
Q 3559 666 3084 287 
Q 2609 -91 1734 -91 
Q 1441 -91 1130 -33 
Q 819 25 488 141 
L 488 750 
Q 750 597 1062 519 
Q 1375 441 1716 441 
Q 2309 441 2620 675 
Q 2931 909 2931 1356 
Q 2931 1769 2642 2001 
Q 2353 2234 1838 2234 
L 1294 2234 
L 1294 2753 
L 1863 2753 
Q 2328 2753 2575 2939 
Q 2822 3125 2822 3475 
Q 2822 3834 2567 4026 
Q 2313 4219 1838 4219 
Q 1578 4219 1281 4162 
Q 984 4106 628 3988 
L 628 4550 
Q 988 4650 1302 4700 
Q 1616 4750 1894 4750 
Q 2613 4750 3031 4423 
Q 3450 4097 3450 3541 
Q 3450 3153 3228 2886 
Q 3006 2619 2597 2516 
z
" transform="scale(0.015625)"/>
       </defs>
       <use xlink:href="#DejaVuSans-33"/>
       <use xlink:href="#DejaVuSans-30" x="63.623047"/>
       <use xlink:href="#DejaVuSans-30" x="127.246094"/>
       <use xlink:href="#DejaVuSans-30" x="190.869141"/>
      </g>
     </g>
    </g>
    <g id="ytick_4">
     <g id="line2d_16">
      <path d="M 208.734569 118.813211 
C 226.717133 118.813211 244.524839 122.355384 261.138561 129.237013 
C 277.752284 136.118642 292.848928 146.205897 305.56452 158.92149 
C 318.280113 171.637082 328.367368 186.733726 335.248997 203.347449 
C 342.130626 219.961171 345.672799 237.768877 345.672799 255.751441 
C 345.672799 273.734004 342.130626 291.54171 335.248997 308.155433 
C 328.367368 324.769155 318.280113 339.865799 305.56452 352.581392 
C 292.848928 365.296984 277.752284 375.38424 261.138561 382.265869 
C 244.524839 389.147498 226.717133 392.689671 208.734569 392.689671 
C 190.752006 392.689671 172.9443 389.147498 156.330577 382.265869 
C 139.716855 375.38424 124.620211 365.296984 111.904618 352.581392 
C 99.189026 339.865799 89.10177 324.769155 82.220141 308.155433 
C 75.338512 291.54171 71.796339 273.734004 71.796339 255.751441 
C 71.796339 237.768877 75.338512 219.961171 82.220141 203.347449 
C 89.10177 186.733726 99.189026 171.637082 111.904618 158.92149 
C 124.620211 146.205897 139.716855 136.118642 156.330577 129.237013 
C 172.9443 122.355384 190.752006 118.813211 208.734569 118.813211 
" clip-path="url(#p4e0dae44be)" style="fill: none; stroke: #b0b0b0; stroke-width: 0.8; stroke-linecap: square"/>
     </g>
     <g id="text_16">
      <!-- 4000 -->
      <g transform="translate(208.734569 390.609983)scale(0.1 -0.1)">
       <defs>
        <path id="DejaVuSans-34" d="M 2419 4116 
L 825 1625 
L 2419 1625 
L 2419 4116 
z
M 2253 4666 
L 3047 4666 
L 3047 1625 
L 3713 1625 
L 3713 1100 
L 3047 1100 
L 3047 0 
L 2419 0 
L 2419 1100 
L 313 1100 
L 313 1709 
L 2253 4666 
z
" transform="scale(0.015625)"/>
       </defs>
       <use xlink:href="#DejaVuSans-34"/>
       <use xlink:href="#DejaVuSans-30" x="63.623047"/>
       <use xlink:href="#DejaVuSans-30" x="127.246094"/>
       <use xlink:href="#DejaVuSans-30" x="190.869141"/>
      </g>
     </g>
    </g>
    <g id="ytick_5">
     <g id="line2d_17">
      <path d="M 208.734569 84.578653 
C 231.212774 84.578653 253.472406 89.00637 274.239559 97.608406 
C 295.006712 106.210442 313.877517 118.819511 329.772008 134.714002 
C 345.666499 150.608493 358.275568 169.479298 366.877604 190.246451 
C 375.47964 211.013604 379.907357 233.273236 379.907357 255.751441 
C 379.907357 278.229645 375.47964 300.489278 366.877604 321.256431 
C 358.275568 342.023584 345.666499 360.894389 329.772008 376.78888 
C 313.877517 392.68337 295.006712 405.292439 274.239559 413.894476 
C 253.472406 422.496512 231.212774 426.924228 208.734569 426.924228 
C 186.256365 426.924228 163.996732 422.496512 143.229579 413.894476 
C 122.462426 405.292439 103.591621 392.68337 87.69713 376.78888 
C 71.80264 360.894389 59.193571 342.023584 50.591534 321.256431 
C 41.989498 300.489278 37.561782 278.229645 37.561782 255.751441 
C 37.561782 233.273236 41.989498 211.013604 50.591534 190.246451 
C 59.193571 169.479298 71.80264 150.608493 87.69713 134.714002 
C 103.591621 118.819511 122.462426 106.210442 143.229579 97.608406 
C 163.996732 89.00637 186.256365 84.578653 208.734569 84.578653 
" clip-path="url(#p4e0dae44be)" style="fill: none; stroke: #b0b0b0; stroke-width: 0.8; stroke-linecap: square"/>
     </g>
     <g id="text_17">
      <!-- 5000 -->
      <g transform="translate(208.734569 424.844541)scale(0.1 -0.1)">
       <defs>
        <path id="DejaVuSans-35" d="M 691 4666 
L 3169 4666 
L 3169 4134 
L 1269 4134 
L 1269 2991 
Q 1406 3038 1543 3061 
Q 1681 3084 1819 3084 
Q 2600 3084 3056 2656 
Q 3513 2228 3513 1497 
Q 3513 744 3044 326 
Q 2575 -91 1722 -91 
Q 1428 -91 1123 -41 
Q 819 9 494 109 
L 494 744 
Q 775 591 1075 516 
Q 1375 441 1709 441 
Q 2250 441 2565 725 
Q 2881 1009 2881 1497 
Q 2881 1984 2565 2268 
Q 2250 2553 1709 2553 
Q 1456 2553 1204 2497 
Q 953 2441 691 2322 
L 691 4666 
z
" transform="scale(0.015625)"/>
       </defs>
       <use xlink:href="#DejaVuSans-35"/>
       <use xlink:href="#DejaVuSans-30" x="63.623047"/>
       <use xlink:href="#DejaVuSans-30" x="127.246094"/>
       <use xlink:href="#DejaVuSans-30" x="190.869141"/>
      </g>
     </g>
    </g>
   </g>
   <g id="line2d_18">
    <path d="M 208.734569 152.893713 
L 221.347277 151.876444 
L 233.612206 154.818899 
L 246.73803 155.544551 
L 258.388406 161.143959 
L 268.817451 168.706359 
L 278.224506 177.313517 
L 291.131545 182.75409 
L 296.314967 195.299057 
L 302.781257 206.391931 
L 303.643826 219.757108 
L 305.877778 231.80779 
L 308.361447 243.654548 
L 305.34449 255.751441 
L 303.5016 267.258242 
L 300.326737 278.326883 
L 296.265551 288.947564 
L 288.367333 297.545939 
L 283.960453 307.67612 
L 275.692522 315.071011 
L 268.213051 322.888769 
L 259.891074 329.864433 
L 249.876774 334.141364 
L 239.781958 337.616676 
L 229.761559 341.061294 
L 219.341789 343.109752 
L 208.734569 347.260413 
L 198.234639 342.226144 
L 187.62565 341.393691 
L 177.596133 337.85675 
L 169.040137 331.382863 
L 159.299163 327.37099 
L 151.197083 320.697837 
L 143.993173 313.107313 
L 137.537637 304.895135 
L 131.542018 296.265217 
L 127.621565 286.513545 
L 122.743301 276.946385 
L 118.589492 266.697035 
L 118.355337 255.751441 
L 117.467989 244.669672 
L 119.452565 233.745403 
L 123.156189 223.295842 
L 127.207231 212.962593 
L 132.902933 203.408642 
L 138.394125 193.435245 
L 145.362744 184.219437 
L 154.631777 177.370014 
L 163.392232 169.358834 
L 172.728096 160.810174 
L 184.475493 157.328501 
L 196.637676 156.124563 
L 208.734569 152.893713 
" clip-path="url(#p4e0dae44be)" style="fill: none; stroke-dasharray: 5.55,2.4; stroke-dashoffset: 0; stroke: #1f77b4; stroke-width: 1.5"/>
   </g>
   <g id="line2d_19">
    <path d="M 208.734569 150.925226 
L 222.195277 144.892537 
L 234.558482 150.979706 
L 247.326807 153.992073 
L 258.674779 160.598321 
L 270.635787 166.072044 
L 282.605936 172.367905 
L 291.246857 182.651932 
L 295.089376 196.145021 
L 304.888024 205.286215 
L 311.966391 216.600775 
L 309.883169 230.82055 
L 311.131221 243.318236 
L 307.946317 255.751441 
L 307.358891 267.726602 
L 309.650491 280.624982 
L 303.355737 291.636516 
L 293.793395 300.393756 
L 286.834251 309.659759 
L 281.022509 319.792967 
L 273.956584 329.371877 
L 261.826095 332.667794 
L 252.231394 338.627717 
L 240.868465 340.48156 
L 230.789764 345.232884 
L 220.43738 352.132756 
L 208.734569 349.04061 
L 197.341248 349.583885 
L 187.547818 341.709469 
L 172.242507 351.973102 
L 165.285473 338.536777 
L 157.607236 329.822171 
L 149.414999 322.709394 
L 141.674116 315.161818 
L 130.324968 309.873681 
L 131.344982 296.36863 
L 124.1645 287.824638 
L 122.975979 276.889035 
L 115.241974 267.103497 
L 115.719277 255.751441 
L 109.770398 243.735015 
L 113.03729 232.16418 
L 116.96228 220.946802 
L 122.160084 210.313646 
L 123.788486 197.117393 
L 130.32227 186.284206 
L 140.107298 178.287265 
L 149.517098 169.960123 
L 160.71942 164.266218 
L 170.360847 154.56825 
L 182.083177 147.62249 
L 196.239467 152.845015 
L 208.734569 149.521609 
" clip-path="url(#p4e0dae44be)" style="fill: none; stroke-dasharray: 2,3.3; stroke-dashoffset: 0; stroke: #d62728; stroke-width: 2"/>
   </g>
   <g id="line2d_20">
    <path d="M 208.734569 149.521609 
L 222.355505 141.394722 
L 234.1207 150.696664 
L 245.0445 157.99876 
L 258.195799 159.38544 
L 269.858149 165.003141 
L 280.206915 172.817508 
L 283.477121 187.375625 
L 294.905838 193.921419 
L 301.883666 204.398394 
L 310.825003 214.347716 
L 328.082844 223.139464 
L 359.679566 233.217968 
L 382.740843 250.59279 
L 378.617409 270.896164 
L 353.054501 286.129677 
L 335.540946 298.621841 
L 313.292558 305.559661 
L 295.26195 310.376035 
L 282.558201 315.653493 
L 274.788311 323.792456 
L 265.487865 330.093232 
L 255.426413 334.809954 
L 245.844792 339.996749 
L 235.690348 344.023777 
L 224.836836 345.345644 
L 214.084635 345.903594 
L 203.423036 345.254279 
L 193.425607 340.931638 
L 182.008754 343.270712 
L 171.941764 339.276168 
L 162.739099 333.630856 
L 142.072297 343.073112 
L 140.630061 325.904921 
L 136.027464 314.74752 
L 130.804925 304.948298 
L 123.987893 296.122159 
L 120.489006 285.585292 
L 111.884773 276.137578 
L 106.368394 264.877185 
L 105.323171 252.685671 
L 99.639733 239.465472 
L 94.868258 224.637413 
L 91.7652 208.313426 
L 101.13492 196.431812 
L 109.156408 184.301642 
L 124.494484 178.687113 
L 132.635964 167.449364 
L 141.223232 155.519433 
L 152.223082 145.649325 
L 162.137222 130.303237 
L 177.639172 127.070154 
L 192.1214 116.272957 
L 208.734569 113.8492 
" clip-path="url(#p4e0dae44be)" style="fill: none; stroke: #ff7f0e; stroke-width: 2; stroke-linecap: square"/>
   </g>
   <g id="line2d_21">
    <path d="M 208.734569 113.8492 
L 225.028378 124.890414 
L 241.156429 127.5745 
L 254.930295 137.219725 
L 268.212672 145.703123 
L 279.287385 156.794419 
L 290.464064 166.824606 
L 292.446422 184.714694 
L 297.660888 197.515381 
L 308.478291 206.838956 
L 307.219888 221.79219 
L 310.728162 234.206928 
L 317.145647 246.590788 
L 316.933686 260.035744 
L 314.832109 273.249247 
L 311.955614 286.253495 
L 306.768268 298.499898 
L 297.142293 308.155519 
L 290.422972 319.012846 
L 281.276733 327.92116 
L 267.942329 331.397864 
L 261.716274 344.093766 
L 248.664219 346.049406 
L 237.072879 349.864968 
L 224.101296 346.030405 
L 213.007915 351.238751 
L 201.052412 352.604929 
L 188.916439 352.020115 
L 178.217854 345.753698 
L 165.332596 345.422638 
L 153.673771 340.780905 
L 146.2315 330.180155 
L 136.008976 323.284788 
L 127.527635 314.281889 
L 122.870127 302.731504 
L 110.369824 294.671837 
L 112.015672 280.746509 
L 110.686952 268.472423 
L 103.670104 256.292253 
L 104.442351 243.310586 
L 106.97807 230.569101 
L 104.221346 215.637632 
L 106.565919 201.209725 
L 110.590737 186.537599 
L 113.006339 168.67572 
L 119.752175 151.979395 
L 129.664385 136.35693 
L 142.006668 121.431426 
L 159.363501 114.926643 
L 179.5771 121.147616 
L 197.413575 129.521758 
L 212.879032 135.419853 
" clip-path="url(#p4e0dae44be)" style="fill: none; stroke: #2ca02c; stroke-width: 3; stroke-linecap: square"/>
   </g>
   <g id="patch_3">
    <path d="M 208.734569 76.862184 
C 185.243047 76.862184 161.979951 81.489502 140.276614 90.479318 
C 118.573278 99.469134 98.851777 112.64662 82.240763 129.257634 
C 65.629748 145.868649 52.452263 165.59015 43.462446 187.293486 
C 34.47263 208.996822 29.845313 232.259919 29.845313 255.751441 
C 29.845313 279.242963 34.47263 302.506059 43.462446 324.209396 
C 52.452263 345.912732 65.629748 365.634233 82.240763 382.245247 
C 98.851777 398.856262 118.573278 412.033747 140.276614 421.023564 
C 161.979951 430.01338 185.243047 434.640697 208.734569 434.640697 
C 232.226091 434.640697 255.489188 430.01338 277.192524 421.023564 
C 298.89586 412.033747 318.617361 398.856262 335.228376 382.245247 
C 351.83939 365.634233 365.016876 345.912732 374.006692 324.209396 
C 382.996508 302.506059 387.623826 279.242963 387.623826 255.751441 
C 387.623826 232.259919 382.996508 208.996822 374.006692 187.293486 
C 365.016876 165.59015 351.83939 145.868649 335.228376 129.257634 
C 318.617361 112.64662 298.89586 99.469134 277.192524 90.479318 
C 255.489188 81.489502 232.226091 76.862184 208.734569 76.862184 
" style="fill: none; stroke: #000000; stroke-width: 0.8; stroke-linejoin: miter; stroke-linecap: square"/>
   </g>
   <g id="text_18">
    <!-- Totaal mannen en vrouwen, Totaal leeftijd, median excludes 2020 &amp; 2021 -->
    <g transform="translate(24.714257 35.084333)scale(0.1 -0.1)">
     <defs>
      <path id="DejaVuSans-54" d="M -19 4666 
L 3928 4666 
L 3928 4134 
L 2272 4134 
L 2272 0 
L 1638 0 
L 1638 4134 
L -19 4134 
L -19 4666 
z
" transform="scale(0.015625)"/>
      <path id="DejaVuSans-20" transform="scale(0.015625)"/>
      <path id="DejaVuSans-6d" d="M 3328 2828 
Q 3544 3216 3844 3400 
Q 4144 3584 4550 3584 
Q 5097 3584 5394 3201 
Q 5691 2819 5691 2113 
L 5691 0 
L 5113 0 
L 5113 2094 
Q 5113 2597 4934 2840 
Q 4756 3084 4391 3084 
Q 3944 3084 3684 2787 
Q 3425 2491 3425 1978 
L 3425 0 
L 2847 0 
L 2847 2094 
Q 2847 2600 2669 2842 
Q 2491 3084 2119 3084 
Q 1678 3084 1418 2786 
Q 1159 2488 1159 1978 
L 1159 0 
L 581 0 
L 581 3500 
L 1159 3500 
L 1159 2956 
Q 1356 3278 1631 3431 
Q 1906 3584 2284 3584 
Q 2666 3584 2933 3390 
Q 3200 3197 3328 2828 
z
" transform="scale(0.015625)"/>
      <path id="DejaVuSans-77" d="M 269 3500 
L 844 3500 
L 1563 769 
L 2278 3500 
L 2956 3500 
L 3675 769 
L 4391 3500 
L 4966 3500 
L 4050 0 
L 3372 0 
L 2619 2869 
L 1863 0 
L 1184 0 
L 269 3500 
z
" transform="scale(0.015625)"/>
      <path id="DejaVuSans-2c" d="M 750 794 
L 1409 794 
L 1409 256 
L 897 -744 
L 494 -744 
L 750 256 
L 750 794 
z
" transform="scale(0.015625)"/>
      <path id="DejaVuSans-66" d="M 2375 4863 
L 2375 4384 
L 1825 4384 
Q 1516 4384 1395 4259 
Q 1275 4134 1275 3809 
L 1275 3500 
L 2222 3500 
L 2222 3053 
L 1275 3053 
L 1275 0 
L 697 0 
L 697 3053 
L 147 3053 
L 147 3500 
L 697 3500 
L 697 3744 
Q 697 4328 969 4595 
Q 1241 4863 1831 4863 
L 2375 4863 
z
" transform="scale(0.015625)"/>
      <path id="DejaVuSans-69" d="M 603 3500 
L 1178 3500 
L 1178 0 
L 603 0 
L 603 3500 
z
M 603 4863 
L 1178 4863 
L 1178 4134 
L 603 4134 
L 603 4863 
z
" transform="scale(0.015625)"/>
      <path id="DejaVuSans-6a" d="M 603 3500 
L 1178 3500 
L 1178 -63 
Q 1178 -731 923 -1031 
Q 669 -1331 103 -1331 
L -116 -1331 
L -116 -844 
L 38 -844 
Q 366 -844 484 -692 
Q 603 -541 603 -63 
L 603 3500 
z
M 603 4863 
L 1178 4863 
L 1178 4134 
L 603 4134 
L 603 4863 
z
" transform="scale(0.015625)"/>
      <path id="DejaVuSans-64" d="M 2906 2969 
L 2906 4863 
L 3481 4863 
L 3481 0 
L 2906 0 
L 2906 525 
Q 2725 213 2448 61 
Q 2172 -91 1784 -91 
Q 1150 -91 751 415 
Q 353 922 353 1747 
Q 353 2572 751 3078 
Q 1150 3584 1784 3584 
Q 2172 3584 2448 3432 
Q 2725 3281 2906 2969 
z
M 947 1747 
Q 947 1113 1208 752 
Q 1469 391 1925 391 
Q 2381 391 2643 752 
Q 2906 1113 2906 1747 
Q 2906 2381 2643 2742 
Q 2381 3103 1925 3103 
Q 1469 3103 1208 2742 
Q 947 2381 947 1747 
z
" transform="scale(0.015625)"/>
      <path id="DejaVuSans-78" d="M 3513 3500 
L 2247 1797 
L 3578 0 
L 2900 0 
L 1881 1375 
L 863 0 
L 184 0 
L 1544 1831 
L 300 3500 
L 978 3500 
L 1906 2253 
L 2834 3500 
L 3513 3500 
z
" transform="scale(0.015625)"/>
      <path id="DejaVuSans-73" d="M 2834 3397 
L 2834 2853 
Q 2591 2978 2328 3040 
Q 2066 3103 1784 3103 
Q 1356 3103 1142 2972 
Q 928 2841 928 2578 
Q 928 2378 1081 2264 
Q 1234 2150 1697 2047 
L 1894 2003 
Q 2506 1872 2764 1633 
Q 3022 1394 3022 966 
Q 3022 478 2636 193 
Q 2250 -91 1575 -91 
Q 1294 -91 989 -36 
Q 684 19 347 128 
L 347 722 
Q 666 556 975 473 
Q 1284 391 1588 391 
Q 1994 391 2212 530 
Q 2431 669 2431 922 
Q 2431 1156 2273 1281 
Q 2116 1406 1581 1522 
L 1381 1569 
Q 847 1681 609 1914 
Q 372 2147 372 2553 
Q 372 3047 722 3315 
Q 1072 3584 1716 3584 
Q 2034 3584 2315 3537 
Q 2597 3491 2834 3397 
z
" transform="scale(0.015625)"/>
      <path id="DejaVuSans-26" d="M 1556 2509 
Q 1272 2256 1139 2004 
Q 1006 1753 1006 1478 
Q 1006 1022 1337 719 
Q 1669 416 2169 416 
Q 2466 416 2725 514 
Q 2984 613 3213 813 
L 1556 2509 
z
M 1997 2859 
L 3584 1234 
Q 3769 1513 3872 1830 
Q 3975 2147 3994 2503 
L 4575 2503 
Q 4538 2091 4375 1687 
Q 4213 1284 3922 891 
L 4794 0 
L 4006 0 
L 3559 459 
Q 3234 181 2878 45 
Q 2522 -91 2113 -91 
Q 1359 -91 881 339 
Q 403 769 403 1441 
Q 403 1841 612 2192 
Q 822 2544 1241 2853 
Q 1091 3050 1012 3245 
Q 934 3441 934 3628 
Q 934 4134 1281 4442 
Q 1628 4750 2203 4750 
Q 2463 4750 2720 4694 
Q 2978 4638 3244 4525 
L 3244 3956 
Q 2972 4103 2725 4179 
Q 2478 4256 2266 4256 
Q 1938 4256 1733 4082 
Q 1528 3909 1528 3634 
Q 1528 3475 1620 3314 
Q 1713 3153 1997 2859 
z
" transform="scale(0.015625)"/>
     </defs>
     <use xlink:href="#DejaVuSans-54"/>
     <use xlink:href="#DejaVuSans-6f" x="44.083984"/>
     <use xlink:href="#DejaVuSans-74" x="105.265625"/>
     <use xlink:href="#DejaVuSans-61" x="144.474609"/>
     <use xlink:href="#DejaVuSans-61" x="205.753906"/>
     <use xlink:href="#DejaVuSans-6c" x="267.033203"/>
     <use xlink:href="#DejaVuSans-20" x="294.816406"/>
     <use xlink:href="#DejaVuSans-6d" x="326.603516"/>
     <use xlink:href="#DejaVuSans-61" x="424.015625"/>
     <use xlink:href="#DejaVuSans-6e" x="485.294922"/>
     <use xlink:href="#DejaVuSans-6e" x="548.673828"/>
     <use xlink:href="#DejaVuSans-65" x="612.052734"/>
     <use xlink:href="#DejaVuSans-6e" x="673.576172"/>
     <use xlink:href="#DejaVuSans-20" x="736.955078"/>
     <use xlink:href="#DejaVuSans-65" x="768.742188"/>
     <use xlink:href="#DejaVuSans-6e" x="830.265625"/>
     <use xlink:href="#DejaVuSans-20" x="893.644531"/>
     <use xlink:href="#DejaVuSans-76" x="925.431641"/>
     <use xlink:href="#DejaVuSans-72" x="984.611328"/>
     <use xlink:href="#DejaVuSans-6f" x="1023.474609"/>
     <use xlink:href="#DejaVuSans-75" x="1084.65625"/>
     <use xlink:href="#DejaVuSans-77" x="1148.035156"/>
     <use xlink:href="#DejaVuSans-65" x="1229.822266"/>
     <use xlink:href="#DejaVuSans-6e" x="1291.345703"/>
     <use xlink:href="#DejaVuSans-2c" x="1354.724609"/>
     <use xlink:href="#DejaVuSans-20" x="1386.511719"/>
     <use xlink:href="#DejaVuSans-54" x="1418.298828"/>
     <use xlink:href="#DejaVuSans-6f" x="1462.382812"/>
     <use xlink:href="#DejaVuSans-74" x="1523.564453"/>
     <use xlink:href="#DejaVuSans-61" x="1562.773438"/>
     <use xlink:href="#DejaVuSans-61" x="1624.052734"/>
     <use xlink:href="#DejaVuSans-6c" x="1685.332031"/>
     <use xlink:href="#DejaVuSans-20" x="1713.115234"/>
     <use xlink:href="#DejaVuSans-6c" x="1744.902344"/>
     <use xlink:href="#DejaVuSans-65" x="1772.685547"/>
     <use xlink:href="#DejaVuSans-65" x="1834.208984"/>
     <use xlink:href="#DejaVuSans-66" x="1895.732422"/>
     <use xlink:href="#DejaVuSans-74" x="1929.1875"/>
     <use xlink:href="#DejaVuSans-69" x="1968.396484"/>
     <use xlink:href="#DejaVuSans-6a" x="1996.179688"/>
     <use xlink:href="#DejaVuSans-64" x="2023.962891"/>
     <use xlink:href="#DejaVuSans-2c" x="2087.439453"/>
     <use xlink:href="#DejaVuSans-20" x="2119.226562"/>
     <use xlink:href="#DejaVuSans-6d" x="2151.013672"/>
     <use xlink:href="#DejaVuSans-65" x="2248.425781"/>
     <use xlink:href="#DejaVuSans-64" x="2309.949219"/>
     <use xlink:href="#DejaVuSans-69" x="2373.425781"/>
     <use xlink:href="#DejaVuSans-61" x="2401.208984"/>
     <use xlink:href="#DejaVuSans-6e" x="2462.488281"/>
     <use xlink:href="#DejaVuSans-20" x="2525.867188"/>
     <use xlink:href="#DejaVuSans-65" x="2557.654297"/>
     <use xlink:href="#DejaVuSans-78" x="2617.427734"/>
     <use xlink:href="#DejaVuSans-63" x="2674.857422"/>
     <use xlink:href="#DejaVuSans-6c" x="2729.837891"/>
     <use xlink:href="#DejaVuSans-75" x="2757.621094"/>
     <use xlink:href="#DejaVuSans-64" x="2821"/>
     <use xlink:href="#DejaVuSans-65" x="2884.476562"/>
     <use xlink:href="#DejaVuSans-73" x="2946"/>
     <use xlink:href="#DejaVuSans-20" x="2998.099609"/>
     <use xlink:href="#DejaVuSans-32" x="3029.886719"/>
     <use xlink:href="#DejaVuSans-30" x="3093.509766"/>
     <use xlink:href="#DejaVuSans-32" x="3157.132812"/>
     <use xlink:href="#DejaVuSans-30" x="3220.755859"/>
     <use xlink:href="#DejaVuSans-20" x="3284.378906"/>
     <use xlink:href="#DejaVuSans-26" x="3316.166016"/>
     <use xlink:href="#DejaVuSans-20" x="3394.144531"/>
     <use xlink:href="#DejaVuSans-32" x="3425.931641"/>
     <use xlink:href="#DejaVuSans-30" x="3489.554688"/>
     <use xlink:href="#DejaVuSans-32" x="3553.177734"/>
     <use xlink:href="#DejaVuSans-31" x="3616.800781"/>
    </g>
   </g>
  </g>
  <g id="text_19">
   <!-- Difference with the median (since 2010) -->
   <g transform="translate(67.382694 17.837812)scale(0.14 -0.14)">
    <defs>
     <path id="DejaVuSans-68" d="M 3513 2113 
L 3513 0 
L 2938 0 
L 2938 2094 
Q 2938 2591 2744 2837 
Q 2550 3084 2163 3084 
Q 1697 3084 1428 2787 
Q 1159 2491 1159 1978 
L 1159 0 
L 581 0 
L 581 4863 
L 1159 4863 
L 1159 2956 
Q 1366 3272 1645 3428 
Q 1925 3584 2291 3584 
Q 2894 3584 3203 3211 
Q 3513 2838 3513 2113 
z
" transform="scale(0.015625)"/>
     <path id="DejaVuSans-28" d="M 1984 4856 
Q 1566 4138 1362 3434 
Q 1159 2731 1159 2009 
Q 1159 1288 1364 580 
Q 1569 -128 1984 -844 
L 1484 -844 
Q 1016 -109 783 600 
Q 550 1309 550 2009 
Q 550 2706 781 3412 
Q 1013 4119 1484 4856 
L 1984 4856 
z
" transform="scale(0.015625)"/>
     <path id="DejaVuSans-29" d="M 513 4856 
L 1013 4856 
Q 1481 4119 1714 3412 
Q 1947 2706 1947 2009 
Q 1947 1309 1714 600 
Q 1481 -109 1013 -844 
L 513 -844 
Q 928 -128 1133 580 
Q 1338 1288 1338 2009 
Q 1338 2731 1133 3434 
Q 928 4138 513 4856 
z
" transform="scale(0.015625)"/>
    </defs>
    <use xlink:href="#DejaVuSans-44"/>
    <use xlink:href="#DejaVuSans-69" x="77.001953"/>
    <use xlink:href="#DejaVuSans-66" x="104.785156"/>
    <use xlink:href="#DejaVuSans-66" x="139.990234"/>
    <use xlink:href="#DejaVuSans-65" x="175.195312"/>
    <use xlink:href="#DejaVuSans-72" x="236.71875"/>
    <use xlink:href="#DejaVuSans-65" x="275.582031"/>
    <use xlink:href="#DejaVuSans-6e" x="337.105469"/>
    <use xlink:href="#DejaVuSans-63" x="400.484375"/>
    <use xlink:href="#DejaVuSans-65" x="455.464844"/>
    <use xlink:href="#DejaVuSans-20" x="516.988281"/>
    <use xlink:href="#DejaVuSans-77" x="548.775391"/>
    <use xlink:href="#DejaVuSans-69" x="630.5625"/>
    <use xlink:href="#DejaVuSans-74" x="658.345703"/>
    <use xlink:href="#DejaVuSans-68" x="697.554688"/>
    <use xlink:href="#DejaVuSans-20" x="760.933594"/>
    <use xlink:href="#DejaVuSans-74" x="792.720703"/>
    <use xlink:href="#DejaVuSans-68" x="831.929688"/>
    <use xlink:href="#DejaVuSans-65" x="895.308594"/>
    <use xlink:href="#DejaVuSans-20" x="956.832031"/>
    <use xlink:href="#DejaVuSans-6d" x="988.619141"/>
    <use xlink:href="#DejaVuSans-65" x="1086.03125"/>
    <use xlink:href="#DejaVuSans-64" x="1147.554688"/>
    <use xlink:href="#DejaVuSans-69" x="1211.03125"/>
    <use xlink:href="#DejaVuSans-61" x="1238.814453"/>
    <use xlink:href="#DejaVuSans-6e" x="1300.09375"/>
    <use xlink:href="#DejaVuSans-20" x="1363.472656"/>
    <use xlink:href="#DejaVuSans-28" x="1395.259766"/>
    <use xlink:href="#DejaVuSans-73" x="1434.273438"/>
    <use xlink:href="#DejaVuSans-69" x="1486.373047"/>
    <use xlink:href="#DejaVuSans-6e" x="1514.15625"/>
    <use xlink:href="#DejaVuSans-63" x="1577.535156"/>
    <use xlink:href="#DejaVuSans-65" x="1632.515625"/>
    <use xlink:href="#DejaVuSans-20" x="1694.039062"/>
    <use xlink:href="#DejaVuSans-32" x="1725.826172"/>
    <use xlink:href="#DejaVuSans-30" x="1789.449219"/>
    <use xlink:href="#DejaVuSans-31" x="1853.072266"/>
    <use xlink:href="#DejaVuSans-30" x="1916.695312"/>
    <use xlink:href="#DejaVuSans-29" x="1980.318359"/>
   </g>
  </g>
  <g id="legend_1">
   <g id="patch_4">
    <path d="M 418.147069 455.67976 
L 491.934569 455.67976 
Q 493.934569 455.67976 493.934569 453.67976 
L 493.934569 366.61101 
Q 493.934569 364.61101 491.934569 364.61101 
L 418.147069 364.61101 
Q 416.147069 364.61101 416.147069 366.61101 
L 416.147069 453.67976 
Q 416.147069 455.67976 418.147069 455.67976 
z
" style="fill: #ffffff; opacity: 0.8; stroke: #cccccc; stroke-linejoin: miter"/>
   </g>
   <g id="patch_5">
    <path d="M 420.147069 376.209448 
L 440.147069 376.209448 
L 440.147069 369.209448 
L 420.147069 369.209448 
z
" style="fill: #1f77b4; fill-opacity: 0.3; stroke: #1f77b4; stroke-opacity: 0.3; stroke-linejoin: miter"/>
   </g>
   <g id="text_20">
    <!-- SD -->
    <g transform="translate(448.147069 376.209448)scale(0.1 -0.1)">
     <use xlink:href="#DejaVuSans-53"/>
     <use xlink:href="#DejaVuSans-44" x="63.476562"/>
    </g>
   </g>
   <g id="patch_6">
    <path d="M 420.147069 390.887573 
L 440.147069 390.887573 
L 440.147069 383.887573 
L 420.147069 383.887573 
z
" style="fill: #1f77b4; fill-opacity: 0.2"/>
   </g>
   <g id="text_21">
    <!-- Min/Max -->
    <g transform="translate(448.147069 390.887573)scale(0.1 -0.1)">
     <defs>
      <path id="DejaVuSans-2f" d="M 1625 4666 
L 2156 4666 
L 531 -594 
L 0 -594 
L 1625 4666 
z
" transform="scale(0.015625)"/>
     </defs>
     <use xlink:href="#DejaVuSans-4d"/>
     <use xlink:href="#DejaVuSans-69" x="86.279297"/>
     <use xlink:href="#DejaVuSans-6e" x="114.0625"/>
     <use xlink:href="#DejaVuSans-2f" x="177.441406"/>
     <use xlink:href="#DejaVuSans-4d" x="211.132812"/>
     <use xlink:href="#DejaVuSans-61" x="297.412109"/>
     <use xlink:href="#DejaVuSans-78" x="358.691406"/>
    </g>
   </g>
   <g id="line2d_22">
    <path d="M 420.147069 402.065697 
L 430.147069 402.065697 
L 440.147069 402.065697 
" style="fill: none; stroke-dasharray: 5.55,2.4; stroke-dashoffset: 0; stroke: #1f77b4; stroke-width: 1.5"/>
   </g>
   <g id="text_22">
    <!-- Median -->
    <g transform="translate(448.147069 405.565697)scale(0.1 -0.1)">
     <use xlink:href="#DejaVuSans-4d"/>
     <use xlink:href="#DejaVuSans-65" x="86.279297"/>
     <use xlink:href="#DejaVuSans-64" x="147.802734"/>
     <use xlink:href="#DejaVuSans-69" x="211.279297"/>
     <use xlink:href="#DejaVuSans-61" x="239.0625"/>
     <use xlink:href="#DejaVuSans-6e" x="300.341797"/>
    </g>
   </g>
   <g id="line2d_23">
    <path d="M 420.147069 416.743823 
L 430.147069 416.743823 
L 440.147069 416.743823 
" style="fill: none; stroke-dasharray: 2,3.3; stroke-dashoffset: 0; stroke: #d62728; stroke-width: 2"/>
   </g>
   <g id="text_23">
    <!-- 2019 -->
    <g transform="translate(448.147069 420.243823)scale(0.1 -0.1)">
     <defs>
      <path id="DejaVuSans-39" d="M 703 97 
L 703 672 
Q 941 559 1184 500 
Q 1428 441 1663 441 
Q 2288 441 2617 861 
Q 2947 1281 2994 2138 
Q 2813 1869 2534 1725 
Q 2256 1581 1919 1581 
Q 1219 1581 811 2004 
Q 403 2428 403 3163 
Q 403 3881 828 4315 
Q 1253 4750 1959 4750 
Q 2769 4750 3195 4129 
Q 3622 3509 3622 2328 
Q 3622 1225 3098 567 
Q 2575 -91 1691 -91 
Q 1453 -91 1209 -44 
Q 966 3 703 97 
z
M 1959 2075 
Q 2384 2075 2632 2365 
Q 2881 2656 2881 3163 
Q 2881 3666 2632 3958 
Q 2384 4250 1959 4250 
Q 1534 4250 1286 3958 
Q 1038 3666 1038 3163 
Q 1038 2656 1286 2365 
Q 1534 2075 1959 2075 
z
" transform="scale(0.015625)"/>
     </defs>
     <use xlink:href="#DejaVuSans-32"/>
     <use xlink:href="#DejaVuSans-30" x="63.623047"/>
     <use xlink:href="#DejaVuSans-31" x="127.246094"/>
     <use xlink:href="#DejaVuSans-39" x="190.869141"/>
    </g>
   </g>
   <g id="line2d_24">
    <path d="M 420.147069 431.421947 
L 430.147069 431.421947 
L 440.147069 431.421947 
" style="fill: none; stroke: #ff7f0e; stroke-width: 2; stroke-linecap: square"/>
   </g>
   <g id="text_24">
    <!-- 2020 -->
    <g transform="translate(448.147069 434.921947)scale(0.1 -0.1)">
     <use xlink:href="#DejaVuSans-32"/>
     <use xlink:href="#DejaVuSans-30" x="63.623047"/>
     <use xlink:href="#DejaVuSans-32" x="127.246094"/>
     <use xlink:href="#DejaVuSans-30" x="190.869141"/>
    </g>
   </g>
   <g id="line2d_25">
    <path d="M 420.147069 446.100073 
L 430.147069 446.100073 
L 440.147069 446.100073 
" style="fill: none; stroke: #2ca02c; stroke-width: 3; stroke-linecap: square"/>
   </g>
   <g id="text_25">
    <!-- 2021 -->
    <g transform="translate(448.147069 449.600073)scale(0.1 -0.1)">
     <use xlink:href="#DejaVuSans-32"/>
     <use xlink:href="#DejaVuSans-30" x="63.623047"/>
     <use xlink:href="#DejaVuSans-32" x="127.246094"/>
     <use xlink:href="#DejaVuSans-31" x="190.869141"/>
    </g>
   </g>
  </g>
 </g>
 <defs>
  <clipPath id="p4e0dae44be">
   <path d="M 387.623826 255.751441 
C 387.623826 232.259919 382.996508 208.996822 374.006692 187.293486 
C 365.016876 165.59015 351.83939 145.868649 335.228376 129.257634 
C 318.617361 112.64662 298.89586 99.469134 277.192524 90.479318 
C 255.489188 81.489502 232.226091 76.862184 208.734569 76.862184 
C 185.243047 76.862184 161.979951 81.489502 140.276614 90.479318 
C 118.573278 99.469134 98.851777 112.64662 82.240763 129.257634 
C 65.629748 145.868649 52.452263 165.59015 43.462446 187.293486 
C 34.47263 208.996822 29.845313 232.259919 29.845313 255.751441 
C 29.845313 279.242963 34.47263 302.506059 43.462446 324.209396 
C 52.452263 345.912732 65.629748 365.634233 82.240763 382.245247 
C 98.851777 398.856262 118.573278 412.033747 140.276614 421.023564 
C 161.979951 430.01338 185.243047 434.640697 208.734569 434.640697 
C 232.226091 434.640697 255.489188 430.01338 277.192524 421.023564 
C 298.89586 412.033747 318.617361 398.856262 335.228376 382.245247 
C 351.83939 365.634233 365.016876 345.912732 374.006692 324.209396 
C 382.996508 302.506059 387.623826 279.242963 387.623826 255.751441 
M 208.734569 255.751441 
C 208.734569 255.751441 208.734569 255.751441 208.734569 255.751441 
C 208.734569 255.751441 208.734569 255.751441 208.734569 255.751441 
C 208.734569 255.751441 208.734569 255.751441 208.734569 255.751441 
C 208.734569 255.751441 208.734569 255.751441 208.734569 255.751441 
C 208.734569 255.751441 208.734569 255.751441 208.734569 255.751441 
C 208.734569 255.751441 208.734569 255.751441 208.734569 255.751441 
C 208.734569 255.751441 208.734569 255.751441 208.734569 255.751441 
C 208.734569 255.751441 208.734569 255.751441 208.734569 255.751441 
C 208.734569 255.751441 208.734569 255.751441 208.734569 255.751441 
C 208.734569 255.751441 208.734569 255.751441 208.734569 255.751441 
C 208.734569 255.751441 208.734569 255.751441 208.734569 255.751441 
C 208.734569 255.751441 208.734569 255.751441 208.734569 255.751441 
C 208.734569 255.751441 208.734569 255.751441 208.734569 255.751441 
C 208.734569 255.751441 208.734569 255.751441 208.734569 255.751441 
C 208.734569 255.751441 208.734569 255.751441 208.734569 255.751441 
C 208.734569 255.751441 208.734569 255.751441 208.734569 255.751441 
M 387.623826 255.751441 
z
"/>
  </clipPath>
 </defs>
</svg>
