<?xml version="1.0" encoding="utf-8" standalone="no"?>
<!DOCTYPE svg PUBLIC "-//W3C//DTD SVG 1.1//EN"
  "http://www.w3.org/Graphics/SVG/1.1/DTD/svg11.dtd">
<svg xmlns:xlink="http://www.w3.org/1999/xlink" width="498.933531pt" height="460.67976pt" viewBox="0 0 498.933531 460.67976" xmlns="http://www.w3.org/2000/svg" version="1.1">
 <metadata>
  <rdf:RDF xmlns:dc="http://purl.org/dc/elements/1.1/" xmlns:cc="http://creativecommons.org/ns#" xmlns:rdf="http://www.w3.org/1999/02/22-rdf-syntax-ns#">
   <cc:Work>
    <dc:type rdf:resource="http://purl.org/dc/dcmitype/StillImage"/>
    <dc:date>2025-02-11T02:49:58.776831</dc:date>
    <dc:format>image/svg+xml</dc:format>
    <dc:creator>
     <cc:Agent>
      <dc:title>Matplotlib v3.10.0, https://matplotlib.org/</dc:title>
     </cc:Agent>
    </dc:creator>
   </cc:Work>
  </rdf:RDF>
 </metadata>
 <defs>
  <style type="text/css">*{stroke-linejoin: round; stroke-linecap: butt}</style>
 </defs>
 <g id="figure_1">
  <g id="patch_1">
   <path d="M 0 460.67976 
L 498.933531 460.67976 
L 498.933531 0 
L 0 0 
z
" style="fill: #ffffff"/>
  </g>
  <g id="axes_1">
   <g id="patch_2">
    <path d="M 387.62175 255.752479 
C 387.62175 232.261093 382.994459 208.998131 374.004695 187.294921 
C 365.014931 165.591711 351.837522 145.870324 335.226604 129.259406 
C 318.615686 112.648488 298.894299 99.471079 277.191089 90.481315 
C 255.487879 81.491551 232.224917 76.86426 208.733531 76.86426 
C 185.242146 76.86426 161.979184 81.491551 140.275974 90.481315 
C 118.572763 99.471079 98.851377 112.648488 82.240459 129.259406 
C 65.629541 145.870324 52.452131 165.591711 43.462367 187.294921 
C 34.472603 208.998131 29.845313 232.261093 29.845313 255.752479 
C 29.845313 279.243864 34.472603 302.506826 43.462367 324.210036 
C 52.452131 345.913247 65.629541 365.634633 82.240459 382.245551 
C 98.851377 398.856469 118.572763 412.033879 140.275974 421.023643 
C 161.979184 430.013407 185.242146 434.640698 208.733531 434.640698 
C 232.224917 434.640698 255.487879 430.013407 277.191089 421.023643 
C 298.894299 412.033879 318.615686 398.856469 335.226604 382.245551 
C 351.837522 365.634633 365.014931 345.913247 374.004695 324.210036 
C 382.994459 302.506826 387.62175 279.243864 387.62175 255.752479 
M 208.733531 255.752479 
C 208.733531 255.752479 208.733531 255.752479 208.733531 255.752479 
C 208.733531 255.752479 208.733531 255.752479 208.733531 255.752479 
C 208.733531 255.752479 208.733531 255.752479 208.733531 255.752479 
C 208.733531 255.752479 208.733531 255.752479 208.733531 255.752479 
C 208.733531 255.752479 208.733531 255.752479 208.733531 255.752479 
C 208.733531 255.752479 208.733531 255.752479 208.733531 255.752479 
C 208.733531 255.752479 208.733531 255.752479 208.733531 255.752479 
C 208.733531 255.752479 208.733531 255.752479 208.733531 255.752479 
C 208.733531 255.752479 208.733531 255.752479 208.733531 255.752479 
C 208.733531 255.752479 208.733531 255.752479 208.733531 255.752479 
C 208.733531 255.752479 208.733531 255.752479 208.733531 255.752479 
C 208.733531 255.752479 208.733531 255.752479 208.733531 255.752479 
C 208.733531 255.752479 208.733531 255.752479 208.733531 255.752479 
C 208.733531 255.752479 208.733531 255.752479 208.733531 255.752479 
C 208.733531 255.752479 208.733531 255.752479 208.733531 255.752479 
C 208.733531 255.752479 208.733531 255.752479 208.733531 255.752479 
z
" style="fill: #ffffff"/>
   </g>
   <g id="FillBetweenPolyCollection_1">
    <defs>
     <path id="mc8e61c321a" d="M 208.733531 -309.913017 
L 208.733531 -335.550089 
L 223.985783 -330.540879 
L 238.768329 -326.783246 
L 252.762445 -321.021986 
L 267.184777 -316.296825 
L 277.823527 -305.02142 
L 289.311155 -295.880617 
L 297.957899 -283.973174 
L 308.356128 -273.691795 
L 320.012197 -263.33083 
L 322.378996 -248.027321 
L 325.643861 -233.74309 
L 335.611617 -220.33307 
L 343.37513 -204.927281 
L 339.683111 -189.027124 
L 326.800547 -175.826376 
L 316.44774 -164.07667 
L 304.417809 -154.708299 
L 294.030102 -146.05131 
L 285.679558 -136.75905 
L 275.570791 -129.483611 
L 265.368985 -122.876662 
L 255.273723 -116.252354 
L 244.968944 -109.382349 
L 233.068327 -106.197133 
L 220.913673 -104.61479 
L 208.733531 -105.8531 
L 196.501906 -104.19078 
L 184.750241 -107.623246 
L 172.535372 -109.48058 
L 162.602071 -117.031127 
L 152.798038 -123.890729 
L 140.032019 -127.379304 
L 133.579079 -138.346247 
L 127.380812 -148.773554 
L 118.785664 -157.718999 
L 117.055353 -170.158334 
L 110.432447 -180.69824 
L 104.266931 -192.24274 
L 101.649187 -204.927281 
L 100.780963 -218.035096 
L 100.550303 -231.592052 
L 101.630896 -245.545953 
L 105.121734 -259.306947 
L 110.433898 -272.778619 
L 117.775308 -285.509235 
L 127.426755 -296.703659 
L 136.607494 -309.419886 
L 148.839692 -319.045458 
L 163.044244 -325.40003 
L 176.969282 -333.799908 
L 193.202326 -332.838267 
L 208.733531 -335.550089 
L 208.733531 -309.913017 
L 208.733531 -309.913017 
L 196.966146 -301.840416 
L 184.404394 -303.634473 
L 172.882849 -299.457761 
L 163.750005 -290.63623 
L 155.319825 -282.310394 
L 146.023428 -275.712356 
L 139.024202 -266.684358 
L 131.437856 -258.280634 
L 126.703425 -247.980002 
L 121.252204 -238.104573 
L 119.034117 -227.036201 
L 115.851457 -216.205207 
L 117.756779 -204.927281 
L 119.215788 -194.057859 
L 123.925021 -184.023861 
L 126.069894 -173.577099 
L 133.101281 -165.232414 
L 137.368776 -155.667747 
L 143.49124 -147.127655 
L 151.686083 -140.534024 
L 159.132783 -133.068191 
L 168.804433 -128.84874 
L 177.65144 -122.970542 
L 188.07655 -121.118612 
L 198.271512 -118.764797 
L 208.733531 -114.748795 
L 219.278838 -118.078864 
L 229.32234 -121.395199 
L 239.622433 -123.479941 
L 249.602672 -127.057639 
L 260.182316 -130.390848 
L 268.376488 -137.604301 
L 276.392352 -144.986796 
L 285.302229 -152.075726 
L 289.322202 -162.631084 
L 293.123622 -172.922341 
L 296.306814 -183.342406 
L 295.052595 -194.446249 
L 297.692058 -204.927281 
L 305.108027 -216.629264 
L 305.746654 -228.838869 
L 303.234268 -240.766683 
L 299.791961 -252.718432 
L 292.985469 -263.082195 
L 288.344793 -275.456705 
L 280.373611 -285.792215 
L 269.195508 -292.521577 
L 258.086711 -298.961908 
L 246.242188 -303.829479 
L 234.029551 -307.557269 
L 221.733967 -311.9955 
L 208.733531 -309.913017 
z
" style="stroke: #1f77b4; stroke-opacity: 0.3"/>
    </defs>
    <g clip-path="url(#p9df9a2cdb9)">
     <use xlink:href="#mc8e61c321a" x="0" y="460.67976" style="fill: #1f77b4; fill-opacity: 0.3; stroke: #1f77b4; stroke-opacity: 0.3"/>
    </g>
   </g>
   <g id="FillBetweenPolyCollection_2">
    <path d="M 208.733531 115.541514 
L 208.733531 152.175645 
L 221.271344 152.494298 
L 233.52109 155.1854 
L 245.270462 159.412511 
L 257.512605 162.811719 
L 267.072272 171.234222 
L 276.632587 179.110289 
L 283.653994 189.378741 
L 294.05911 196.856484 
L 300.206647 207.743684 
L 298.652943 221.650544 
L 299.97303 233.263962 
L 304.436235 244.132067 
L 302.230059 255.752479 
L 301.649104 267.034472 
L 297.838197 277.714806 
L 292.95984 287.695304 
L 287.956319 297.331805 
L 282.255506 306.501034 
L 274.716203 314.208025 
L 266.291832 320.722369 
L 259.847184 329.803389 
L 249.401099 333.238055 
L 239.404881 336.626181 
L 229.449195 339.799231 
L 219.11851 341.280474 
L 208.733531 344.986864 
L 198.458641 340.373817 
L 188.268819 338.781079 
L 178.242107 336.151756 
L 169.590801 330.332721 
L 159.848895 326.574101 
L 152.005183 319.785547 
L 144.953658 312.256516 
L 138.385167 304.310449 
L 133.554251 295.209609 
L 128.429139 286.207917 
L 126.624551 275.990525 
L 119.243108 266.618583 
L 119.397667 255.752479 
L 118.403611 244.784441 
L 119.858771 233.846818 
L 124.254196 223.713693 
L 127.08464 212.899835 
L 133.791783 204.023925 
L 142.928096 197.453951 
L 145.791758 184.705903 
L 156.447723 180.003408 
L 165.362128 173.115174 
L 174.619601 165.801438 
L 185.411207 161.13009 
L 198.165072 168.713388 
L 208.733531 152.175645 
L 208.733531 115.541514 
L 208.733531 115.541514 
L 191.87374 116.899608 
L 174.749805 117.875079 
L 160.117583 127.562758 
L 139.990093 124.772801 
L 124.28071 133.401445 
L 114.7022 149.613047 
L 107.32885 165.91577 
L 103.280581 182.963563 
L 98.30086 197.792941 
L 99.678965 214.393537 
L 98.017782 228.463497 
L 96.442359 242.117862 
L 96.835372 255.752479 
L 101.042805 268.8285 
L 106.622804 280.920513 
L 115.588027 291.077909 
L 115.28359 304.798792 
L 125.468015 313.226515 
L 131.736868 323.96557 
L 136.752009 337.002821 
L 151.355574 338.878801 
L 161.432135 345.877759 
L 171.117046 354.938999 
L 182.958356 360.326476 
L 195.951078 361.025453 
L 208.733531 358.923394 
L 221.405897 360.118796 
L 234.192993 359.045576 
L 247.21366 357.21624 
L 257.323965 348.333815 
L 266.572665 339.54693 
L 278.808407 334.850662 
L 289.629401 327.419965 
L 295.812948 315.85906 
L 310.060824 308.933144 
L 332.400398 302.653135 
L 350.223726 290.626679 
L 376.028574 276.065774 
L 380.741434 255.752479 
L 358.432708 237.575708 
L 327.988614 226.358741 
L 326.802179 210.974947 
L 331.296724 191.426353 
L 318.334446 180.100429 
L 302.187883 172.959148 
L 290.831497 163.083032 
L 281.829898 149.854109 
L 271.943539 135.315871 
L 255.526232 132.370268 
L 240.00536 128.877682 
L 224.529137 125.663961 
L 208.733531 115.541514 
z
" clip-path="url(#p9df9a2cdb9)" style="fill: #1f77b4; fill-opacity: 0.2"/>
   </g>
   <g id="matplotlib.axis_1">
    <g id="xtick_1">
     <g id="line2d_1">
      <path d="M 208.733531 255.752479 
L 208.733531 76.86426 
" clip-path="url(#p9df9a2cdb9)" style="fill: none; stroke: #b0b0b0; stroke-width: 0.8; stroke-linecap: square"/>
     </g>
     <g id="text_1">
      <!-- Jan -->
      <g transform="translate(201.025719 65.623635) scale(0.1 -0.1)">
       <defs>
        <path id="DejaVuSans-4a" d="M 628 4666 
L 1259 4666 
L 1259 325 
Q 1259 -519 939 -900 
Q 619 -1281 -91 -1281 
L -331 -1281 
L -331 -750 
L -134 -750 
Q 284 -750 456 -515 
Q 628 -281 628 325 
L 628 4666 
z
" transform="scale(0.015625)"/>
        <path id="DejaVuSans-61" d="M 2194 1759 
Q 1497 1759 1228 1600 
Q 959 1441 959 1056 
Q 959 750 1161 570 
Q 1363 391 1709 391 
Q 2188 391 2477 730 
Q 2766 1069 2766 1631 
L 2766 1759 
L 2194 1759 
z
M 3341 1997 
L 3341 0 
L 2766 0 
L 2766 531 
Q 2569 213 2275 61 
Q 1981 -91 1556 -91 
Q 1019 -91 701 211 
Q 384 513 384 1019 
Q 384 1609 779 1909 
Q 1175 2209 1959 2209 
L 2766 2209 
L 2766 2266 
Q 2766 2663 2505 2880 
Q 2244 3097 1772 3097 
Q 1472 3097 1187 3025 
Q 903 2953 641 2809 
L 641 3341 
Q 956 3463 1253 3523 
Q 1550 3584 1831 3584 
Q 2591 3584 2966 3190 
Q 3341 2797 3341 1997 
z
" transform="scale(0.015625)"/>
        <path id="DejaVuSans-6e" d="M 3513 2113 
L 3513 0 
L 2938 0 
L 2938 2094 
Q 2938 2591 2744 2837 
Q 2550 3084 2163 3084 
Q 1697 3084 1428 2787 
Q 1159 2491 1159 1978 
L 1159 0 
L 581 0 
L 581 3500 
L 1159 3500 
L 1159 2956 
Q 1366 3272 1645 3428 
Q 1925 3584 2291 3584 
Q 2894 3584 3203 3211 
Q 3513 2838 3513 2113 
z
" transform="scale(0.015625)"/>
       </defs>
       <use xlink:href="#DejaVuSans-4a"/>
       <use xlink:href="#DejaVuSans-61" transform="translate(29.492188 0)"/>
       <use xlink:href="#DejaVuSans-6e" transform="translate(90.771484 0)"/>
      </g>
     </g>
    </g>
    <g id="xtick_2">
     <g id="line2d_2">
      <path d="M 208.733531 255.752479 
L 298.177641 100.830737 
" clip-path="url(#p9df9a2cdb9)" style="fill: none; stroke: #b0b0b0; stroke-width: 0.8; stroke-linecap: square"/>
     </g>
     <g id="text_2">
      <!-- Feb -->
      <g transform="translate(296.326078 91.465756) scale(0.1 -0.1)">
       <defs>
        <path id="DejaVuSans-46" d="M 628 4666 
L 3309 4666 
L 3309 4134 
L 1259 4134 
L 1259 2759 
L 3109 2759 
L 3109 2228 
L 1259 2228 
L 1259 0 
L 628 0 
L 628 4666 
z
" transform="scale(0.015625)"/>
        <path id="DejaVuSans-65" d="M 3597 1894 
L 3597 1613 
L 953 1613 
Q 991 1019 1311 708 
Q 1631 397 2203 397 
Q 2534 397 2845 478 
Q 3156 559 3463 722 
L 3463 178 
Q 3153 47 2828 -22 
Q 2503 -91 2169 -91 
Q 1331 -91 842 396 
Q 353 884 353 1716 
Q 353 2575 817 3079 
Q 1281 3584 2069 3584 
Q 2775 3584 3186 3129 
Q 3597 2675 3597 1894 
z
M 3022 2063 
Q 3016 2534 2758 2815 
Q 2500 3097 2075 3097 
Q 1594 3097 1305 2825 
Q 1016 2553 972 2059 
L 3022 2063 
z
" transform="scale(0.015625)"/>
        <path id="DejaVuSans-62" d="M 3116 1747 
Q 3116 2381 2855 2742 
Q 2594 3103 2138 3103 
Q 1681 3103 1420 2742 
Q 1159 2381 1159 1747 
Q 1159 1113 1420 752 
Q 1681 391 2138 391 
Q 2594 391 2855 752 
Q 3116 1113 3116 1747 
z
M 1159 2969 
Q 1341 3281 1617 3432 
Q 1894 3584 2278 3584 
Q 2916 3584 3314 3078 
Q 3713 2572 3713 1747 
Q 3713 922 3314 415 
Q 2916 -91 2278 -91 
Q 1894 -91 1617 61 
Q 1341 213 1159 525 
L 1159 0 
L 581 0 
L 581 4863 
L 1159 4863 
L 1159 2969 
z
" transform="scale(0.015625)"/>
       </defs>
       <use xlink:href="#DejaVuSans-46"/>
       <use xlink:href="#DejaVuSans-65" transform="translate(52.019531 0)"/>
       <use xlink:href="#DejaVuSans-62" transform="translate(113.542969 0)"/>
      </g>
     </g>
    </g>
    <g id="xtick_3">
     <g id="line2d_3">
      <path d="M 208.733531 255.752479 
L 363.655273 166.308369 
" clip-path="url(#p9df9a2cdb9)" style="fill: none; stroke: #b0b0b0; stroke-width: 0.8; stroke-linecap: square"/>
     </g>
     <g id="text_3">
      <!-- Mar -->
      <g transform="translate(366.346035 162.067744) scale(0.1 -0.1)">
       <defs>
        <path id="DejaVuSans-4d" d="M 628 4666 
L 1569 4666 
L 2759 1491 
L 3956 4666 
L 4897 4666 
L 4897 0 
L 4281 0 
L 4281 4097 
L 3078 897 
L 2444 897 
L 1241 4097 
L 1241 0 
L 628 0 
L 628 4666 
z
" transform="scale(0.015625)"/>
        <path id="DejaVuSans-72" d="M 2631 2963 
Q 2534 3019 2420 3045 
Q 2306 3072 2169 3072 
Q 1681 3072 1420 2755 
Q 1159 2438 1159 1844 
L 1159 0 
L 581 0 
L 581 3500 
L 1159 3500 
L 1159 2956 
Q 1341 3275 1631 3429 
Q 1922 3584 2338 3584 
Q 2397 3584 2469 3576 
Q 2541 3569 2628 3553 
L 2631 2963 
z
" transform="scale(0.015625)"/>
       </defs>
       <use xlink:href="#DejaVuSans-4d"/>
       <use xlink:href="#DejaVuSans-61" transform="translate(86.279297 0)"/>
       <use xlink:href="#DejaVuSans-72" transform="translate(147.558594 0)"/>
      </g>
     </g>
    </g>
    <g id="xtick_4">
     <g id="line2d_4">
      <path d="M 208.733531 255.752479 
L 387.62175 255.752479 
" clip-path="url(#p9df9a2cdb9)" style="fill: none; stroke: #b0b0b0; stroke-width: 0.8; stroke-linecap: square"/>
     </g>
     <g id="text_4">
      <!-- Apr -->
      <g transform="translate(392.97175 258.511854) scale(0.1 -0.1)">
       <defs>
        <path id="DejaVuSans-41" d="M 2188 4044 
L 1331 1722 
L 3047 1722 
L 2188 4044 
z
M 1831 4666 
L 2547 4666 
L 4325 0 
L 3669 0 
L 3244 1197 
L 1141 1197 
L 716 0 
L 50 0 
L 1831 4666 
z
" transform="scale(0.015625)"/>
        <path id="DejaVuSans-70" d="M 1159 525 
L 1159 -1331 
L 581 -1331 
L 581 3500 
L 1159 3500 
L 1159 2969 
Q 1341 3281 1617 3432 
Q 1894 3584 2278 3584 
Q 2916 3584 3314 3078 
Q 3713 2572 3713 1747 
Q 3713 922 3314 415 
Q 2916 -91 2278 -91 
Q 1894 -91 1617 61 
Q 1341 213 1159 525 
z
M 3116 1747 
Q 3116 2381 2855 2742 
Q 2594 3103 2138 3103 
Q 1681 3103 1420 2742 
Q 1159 2381 1159 1747 
Q 1159 1113 1420 752 
Q 1681 391 2138 391 
Q 2594 391 2855 752 
Q 3116 1113 3116 1747 
z
" transform="scale(0.015625)"/>
       </defs>
       <use xlink:href="#DejaVuSans-41"/>
       <use xlink:href="#DejaVuSans-70" transform="translate(68.408203 0)"/>
       <use xlink:href="#DejaVuSans-72" transform="translate(131.884766 0)"/>
      </g>
     </g>
    </g>
    <g id="xtick_5">
     <g id="line2d_5">
      <path d="M 208.733531 255.752479 
L 363.655273 345.196588 
" clip-path="url(#p9df9a2cdb9)" style="fill: none; stroke: #b0b0b0; stroke-width: 0.8; stroke-linecap: square"/>
     </g>
     <g id="text_5">
      <!-- May -->
      <g transform="translate(365.442129 354.955963) scale(0.1 -0.1)">
       <defs>
        <path id="DejaVuSans-79" d="M 2059 -325 
Q 1816 -950 1584 -1140 
Q 1353 -1331 966 -1331 
L 506 -1331 
L 506 -850 
L 844 -850 
Q 1081 -850 1212 -737 
Q 1344 -625 1503 -206 
L 1606 56 
L 191 3500 
L 800 3500 
L 1894 763 
L 2988 3500 
L 3597 3500 
L 2059 -325 
z
" transform="scale(0.015625)"/>
       </defs>
       <use xlink:href="#DejaVuSans-4d"/>
       <use xlink:href="#DejaVuSans-61" transform="translate(86.279297 0)"/>
       <use xlink:href="#DejaVuSans-79" transform="translate(147.558594 0)"/>
      </g>
     </g>
    </g>
    <g id="xtick_6">
     <g id="line2d_6">
      <path d="M 208.733531 255.752479 
L 298.177641 410.674221 
" clip-path="url(#p9df9a2cdb9)" style="fill: none; stroke: #b0b0b0; stroke-width: 0.8; stroke-linecap: square"/>
     </g>
     <g id="text_6">
      <!-- Jun -->
      <g transform="translate(297.365141 425.557951) scale(0.1 -0.1)">
       <defs>
        <path id="DejaVuSans-75" d="M 544 1381 
L 544 3500 
L 1119 3500 
L 1119 1403 
Q 1119 906 1312 657 
Q 1506 409 1894 409 
Q 2359 409 2629 706 
Q 2900 1003 2900 1516 
L 2900 3500 
L 3475 3500 
L 3475 0 
L 2900 0 
L 2900 538 
Q 2691 219 2414 64 
Q 2138 -91 1772 -91 
Q 1169 -91 856 284 
Q 544 659 544 1381 
z
M 1991 3584 
L 1991 3584 
z
" transform="scale(0.015625)"/>
       </defs>
       <use xlink:href="#DejaVuSans-4a"/>
       <use xlink:href="#DejaVuSans-75" transform="translate(29.492188 0)"/>
       <use xlink:href="#DejaVuSans-6e" transform="translate(92.871094 0)"/>
      </g>
     </g>
    </g>
    <g id="xtick_7">
     <g id="line2d_7">
      <path d="M 208.733531 255.752479 
L 208.733531 434.640698 
" clip-path="url(#p9df9a2cdb9)" style="fill: none; stroke: #b0b0b0; stroke-width: 0.8; stroke-linecap: square"/>
     </g>
     <g id="text_7">
      <!-- Jul -->
      <g transform="translate(202.700719 451.400073) scale(0.1 -0.1)">
       <defs>
        <path id="DejaVuSans-6c" d="M 603 4863 
L 1178 4863 
L 1178 0 
L 603 0 
L 603 4863 
z
" transform="scale(0.015625)"/>
       </defs>
       <use xlink:href="#DejaVuSans-4a"/>
       <use xlink:href="#DejaVuSans-75" transform="translate(29.492188 0)"/>
       <use xlink:href="#DejaVuSans-6c" transform="translate(92.871094 0)"/>
      </g>
     </g>
    </g>
    <g id="xtick_8">
     <g id="line2d_8">
      <path d="M 208.733531 255.752479 
L 119.289422 410.674221 
" clip-path="url(#p9df9a2cdb9)" style="fill: none; stroke: #b0b0b0; stroke-width: 0.8; stroke-linecap: square"/>
     </g>
     <g id="text_8">
      <!-- Aug -->
      <g transform="translate(102.526141 425.557951) scale(0.1 -0.1)">
       <defs>
        <path id="DejaVuSans-67" d="M 2906 1791 
Q 2906 2416 2648 2759 
Q 2391 3103 1925 3103 
Q 1463 3103 1205 2759 
Q 947 2416 947 1791 
Q 947 1169 1205 825 
Q 1463 481 1925 481 
Q 2391 481 2648 825 
Q 2906 1169 2906 1791 
z
M 3481 434 
Q 3481 -459 3084 -895 
Q 2688 -1331 1869 -1331 
Q 1566 -1331 1297 -1286 
Q 1028 -1241 775 -1147 
L 775 -588 
Q 1028 -725 1275 -790 
Q 1522 -856 1778 -856 
Q 2344 -856 2625 -561 
Q 2906 -266 2906 331 
L 2906 616 
Q 2728 306 2450 153 
Q 2172 0 1784 0 
Q 1141 0 747 490 
Q 353 981 353 1791 
Q 353 2603 747 3093 
Q 1141 3584 1784 3584 
Q 2172 3584 2450 3431 
Q 2728 3278 2906 2969 
L 2906 3500 
L 3481 3500 
L 3481 434 
z
" transform="scale(0.015625)"/>
       </defs>
       <use xlink:href="#DejaVuSans-41"/>
       <use xlink:href="#DejaVuSans-75" transform="translate(68.408203 0)"/>
       <use xlink:href="#DejaVuSans-67" transform="translate(131.787109 0)"/>
      </g>
     </g>
    </g>
    <g id="xtick_9">
     <g id="line2d_9">
      <path d="M 208.733531 255.752479 
L 53.811789 345.196588 
" clip-path="url(#p9df9a2cdb9)" style="fill: none; stroke: #b0b0b0; stroke-width: 0.8; stroke-linecap: square"/>
     </g>
     <g id="text_9">
      <!-- Sept -->
      <g transform="translate(30.302277 354.955963) scale(0.1 -0.1)">
       <defs>
        <path id="DejaVuSans-53" d="M 3425 4513 
L 3425 3897 
Q 3066 4069 2747 4153 
Q 2428 4238 2131 4238 
Q 1616 4238 1336 4038 
Q 1056 3838 1056 3469 
Q 1056 3159 1242 3001 
Q 1428 2844 1947 2747 
L 2328 2669 
Q 3034 2534 3370 2195 
Q 3706 1856 3706 1288 
Q 3706 609 3251 259 
Q 2797 -91 1919 -91 
Q 1588 -91 1214 -16 
Q 841 59 441 206 
L 441 856 
Q 825 641 1194 531 
Q 1563 422 1919 422 
Q 2459 422 2753 634 
Q 3047 847 3047 1241 
Q 3047 1584 2836 1778 
Q 2625 1972 2144 2069 
L 1759 2144 
Q 1053 2284 737 2584 
Q 422 2884 422 3419 
Q 422 4038 858 4394 
Q 1294 4750 2059 4750 
Q 2388 4750 2728 4690 
Q 3069 4631 3425 4513 
z
" transform="scale(0.015625)"/>
        <path id="DejaVuSans-74" d="M 1172 4494 
L 1172 3500 
L 2356 3500 
L 2356 3053 
L 1172 3053 
L 1172 1153 
Q 1172 725 1289 603 
Q 1406 481 1766 481 
L 2356 481 
L 2356 0 
L 1766 0 
Q 1100 0 847 248 
Q 594 497 594 1153 
L 594 3053 
L 172 3053 
L 172 3500 
L 594 3500 
L 594 4494 
L 1172 4494 
z
" transform="scale(0.015625)"/>
       </defs>
       <use xlink:href="#DejaVuSans-53"/>
       <use xlink:href="#DejaVuSans-65" transform="translate(63.476562 0)"/>
       <use xlink:href="#DejaVuSans-70" transform="translate(125 0)"/>
       <use xlink:href="#DejaVuSans-74" transform="translate(188.476562 0)"/>
      </g>
     </g>
    </g>
    <g id="xtick_10">
     <g id="line2d_10">
      <path d="M 208.733531 255.752479 
L 29.845313 255.752479 
" clip-path="url(#p9df9a2cdb9)" style="fill: none; stroke: #b0b0b0; stroke-width: 0.8; stroke-linecap: square"/>
     </g>
     <g id="text_10">
      <!-- Oct -->
      <g transform="translate(7.2 258.511854) scale(0.1 -0.1)">
       <defs>
        <path id="DejaVuSans-4f" d="M 2522 4238 
Q 1834 4238 1429 3725 
Q 1025 3213 1025 2328 
Q 1025 1447 1429 934 
Q 1834 422 2522 422 
Q 3209 422 3611 934 
Q 4013 1447 4013 2328 
Q 4013 3213 3611 3725 
Q 3209 4238 2522 4238 
z
M 2522 4750 
Q 3503 4750 4090 4092 
Q 4678 3434 4678 2328 
Q 4678 1225 4090 567 
Q 3503 -91 2522 -91 
Q 1538 -91 948 565 
Q 359 1222 359 2328 
Q 359 3434 948 4092 
Q 1538 4750 2522 4750 
z
" transform="scale(0.015625)"/>
        <path id="DejaVuSans-63" d="M 3122 3366 
L 3122 2828 
Q 2878 2963 2633 3030 
Q 2388 3097 2138 3097 
Q 1578 3097 1268 2742 
Q 959 2388 959 1747 
Q 959 1106 1268 751 
Q 1578 397 2138 397 
Q 2388 397 2633 464 
Q 2878 531 3122 666 
L 3122 134 
Q 2881 22 2623 -34 
Q 2366 -91 2075 -91 
Q 1284 -91 818 406 
Q 353 903 353 1747 
Q 353 2603 823 3093 
Q 1294 3584 2113 3584 
Q 2378 3584 2631 3529 
Q 2884 3475 3122 3366 
z
" transform="scale(0.015625)"/>
       </defs>
       <use xlink:href="#DejaVuSans-4f"/>
       <use xlink:href="#DejaVuSans-63" transform="translate(78.710938 0)"/>
       <use xlink:href="#DejaVuSans-74" transform="translate(133.691406 0)"/>
      </g>
     </g>
    </g>
    <g id="xtick_11">
     <g id="line2d_11">
      <path d="M 208.733531 255.752479 
L 53.811789 166.308369 
" clip-path="url(#p9df9a2cdb9)" style="fill: none; stroke: #b0b0b0; stroke-width: 0.8; stroke-linecap: square"/>
     </g>
     <g id="text_11">
      <!-- Nov -->
      <g transform="translate(31.928059 162.067744) scale(0.1 -0.1)">
       <defs>
        <path id="DejaVuSans-4e" d="M 628 4666 
L 1478 4666 
L 3547 763 
L 3547 4666 
L 4159 4666 
L 4159 0 
L 3309 0 
L 1241 3903 
L 1241 0 
L 628 0 
L 628 4666 
z
" transform="scale(0.015625)"/>
        <path id="DejaVuSans-6f" d="M 1959 3097 
Q 1497 3097 1228 2736 
Q 959 2375 959 1747 
Q 959 1119 1226 758 
Q 1494 397 1959 397 
Q 2419 397 2687 759 
Q 2956 1122 2956 1747 
Q 2956 2369 2687 2733 
Q 2419 3097 1959 3097 
z
M 1959 3584 
Q 2709 3584 3137 3096 
Q 3566 2609 3566 1747 
Q 3566 888 3137 398 
Q 2709 -91 1959 -91 
Q 1206 -91 779 398 
Q 353 888 353 1747 
Q 353 2609 779 3096 
Q 1206 3584 1959 3584 
z
" transform="scale(0.015625)"/>
        <path id="DejaVuSans-76" d="M 191 3500 
L 800 3500 
L 1894 563 
L 2988 3500 
L 3597 3500 
L 2284 0 
L 1503 0 
L 191 3500 
z
" transform="scale(0.015625)"/>
       </defs>
       <use xlink:href="#DejaVuSans-4e"/>
       <use xlink:href="#DejaVuSans-6f" transform="translate(74.804688 0)"/>
       <use xlink:href="#DejaVuSans-76" transform="translate(135.986328 0)"/>
      </g>
     </g>
    </g>
    <g id="xtick_12">
     <g id="line2d_12">
      <path d="M 208.733531 255.752479 
L 119.289422 100.830737 
" clip-path="url(#p9df9a2cdb9)" style="fill: none; stroke: #b0b0b0; stroke-width: 0.8; stroke-linecap: square"/>
     </g>
     <g id="text_12">
      <!-- Dec -->
      <g transform="translate(102.613641 91.465756) scale(0.1 -0.1)">
       <defs>
        <path id="DejaVuSans-44" d="M 1259 4147 
L 1259 519 
L 2022 519 
Q 2988 519 3436 956 
Q 3884 1394 3884 2338 
Q 3884 3275 3436 3711 
Q 2988 4147 2022 4147 
L 1259 4147 
z
M 628 4666 
L 1925 4666 
Q 3281 4666 3915 4102 
Q 4550 3538 4550 2338 
Q 4550 1131 3912 565 
Q 3275 0 1925 0 
L 628 0 
L 628 4666 
z
" transform="scale(0.015625)"/>
       </defs>
       <use xlink:href="#DejaVuSans-44"/>
       <use xlink:href="#DejaVuSans-65" transform="translate(77.001953 0)"/>
       <use xlink:href="#DejaVuSans-63" transform="translate(138.525391 0)"/>
      </g>
     </g>
    </g>
   </g>
   <g id="matplotlib.axis_2">
    <g id="ytick_1">
     <g id="line2d_13">
      <path d="M 208.733531 221.925949 
C 213.17559 221.925949 217.574456 222.800938 221.678384 224.50084 
C 225.782311 226.200743 229.51149 228.6925 232.6525 231.83351 
C 235.79351 234.97452 238.285267 238.703699 239.98517 242.807626 
C 241.685072 246.911554 242.560061 251.31042 242.560061 255.752479 
C 242.560061 260.194538 241.685072 264.593404 239.98517 268.697331 
C 238.285267 272.801259 235.79351 276.530437 232.6525 279.671447 
C 229.51149 282.812457 225.782311 285.304215 221.678384 287.004117 
C 217.574456 288.704019 213.17559 289.579008 208.733531 289.579008 
C 204.291472 289.579008 199.892606 288.704019 195.788679 287.004117 
C 191.684751 285.304215 187.955573 282.812457 184.814563 279.671447 
C 181.673553 276.530437 179.181795 272.801259 177.481893 268.697331 
C 175.781991 264.593404 174.907002 260.194538 174.907002 255.752479 
C 174.907002 251.31042 175.781991 246.911554 177.481893 242.807626 
C 179.181795 238.703699 181.673553 234.97452 184.814563 231.83351 
C 187.955573 228.6925 191.684751 226.200743 195.788679 224.50084 
C 199.892606 222.800938 204.291472 221.925949 208.733531 221.925949 
" clip-path="url(#p9df9a2cdb9)" style="fill: none; stroke: #b0b0b0; stroke-width: 0.8; stroke-linecap: square"/>
     </g>
     <g id="text_13">
      <!-- 1000 -->
      <g transform="translate(208.733531 287.499321) scale(0.1 -0.1)">
       <defs>
        <path id="DejaVuSans-31" d="M 794 531 
L 1825 531 
L 1825 4091 
L 703 3866 
L 703 4441 
L 1819 4666 
L 2450 4666 
L 2450 531 
L 3481 531 
L 3481 0 
L 794 0 
L 794 531 
z
" transform="scale(0.015625)"/>
        <path id="DejaVuSans-30" d="M 2034 4250 
Q 1547 4250 1301 3770 
Q 1056 3291 1056 2328 
Q 1056 1369 1301 889 
Q 1547 409 2034 409 
Q 2525 409 2770 889 
Q 3016 1369 3016 2328 
Q 3016 3291 2770 3770 
Q 2525 4250 2034 4250 
z
M 2034 4750 
Q 2819 4750 3233 4129 
Q 3647 3509 3647 2328 
Q 3647 1150 3233 529 
Q 2819 -91 2034 -91 
Q 1250 -91 836 529 
Q 422 1150 422 2328 
Q 422 3509 836 4129 
Q 1250 4750 2034 4750 
z
" transform="scale(0.015625)"/>
       </defs>
       <use xlink:href="#DejaVuSans-31"/>
       <use xlink:href="#DejaVuSans-30" transform="translate(63.623047 0)"/>
       <use xlink:href="#DejaVuSans-30" transform="translate(127.246094 0)"/>
       <use xlink:href="#DejaVuSans-30" transform="translate(190.869141 0)"/>
      </g>
     </g>
    </g>
    <g id="ytick_2">
     <g id="line2d_14">
      <path d="M 208.733531 188.09942 
C 217.61765 188.09942 226.415381 189.849397 234.623236 193.249202 
C 242.831091 196.649007 250.289448 201.632522 256.571468 207.914542 
C 262.853488 214.196562 267.837003 221.654919 271.236808 229.862774 
C 274.636613 238.070629 276.38659 246.86836 276.38659 255.752479 
C 276.38659 264.636597 274.636613 273.434328 271.236808 281.642184 
C 267.837003 289.850039 262.853488 297.308395 256.571468 303.590416 
C 250.289448 309.872436 242.831091 314.85595 234.623236 318.255755 
C 226.415381 321.65556 217.61765 323.405538 208.733531 323.405538 
C 199.849413 323.405538 191.051682 321.65556 182.843826 318.255755 
C 174.635971 314.85595 167.177615 309.872436 160.895594 303.590416 
C 154.613574 297.308395 149.63006 289.850039 146.230255 281.642184 
C 142.83045 273.434328 141.080472 264.636597 141.080472 255.752479 
C 141.080472 246.86836 142.83045 238.070629 146.230255 229.862774 
C 149.63006 221.654919 154.613574 214.196562 160.895594 207.914542 
C 167.177615 201.632522 174.635971 196.649007 182.843826 193.249202 
C 191.051682 189.849397 199.849413 188.09942 208.733531 188.09942 
" clip-path="url(#p9df9a2cdb9)" style="fill: none; stroke: #b0b0b0; stroke-width: 0.8; stroke-linecap: square"/>
     </g>
     <g id="text_14">
      <!-- 2000 -->
      <g transform="translate(208.733531 321.32585) scale(0.1 -0.1)">
       <defs>
        <path id="DejaVuSans-32" d="M 1228 531 
L 3431 531 
L 3431 0 
L 469 0 
L 469 531 
Q 828 903 1448 1529 
Q 2069 2156 2228 2338 
Q 2531 2678 2651 2914 
Q 2772 3150 2772 3378 
Q 2772 3750 2511 3984 
Q 2250 4219 1831 4219 
Q 1534 4219 1204 4116 
Q 875 4013 500 3803 
L 500 4441 
Q 881 4594 1212 4672 
Q 1544 4750 1819 4750 
Q 2544 4750 2975 4387 
Q 3406 4025 3406 3419 
Q 3406 3131 3298 2873 
Q 3191 2616 2906 2266 
Q 2828 2175 2409 1742 
Q 1991 1309 1228 531 
z
" transform="scale(0.015625)"/>
       </defs>
       <use xlink:href="#DejaVuSans-32"/>
       <use xlink:href="#DejaVuSans-30" transform="translate(63.623047 0)"/>
       <use xlink:href="#DejaVuSans-30" transform="translate(127.246094 0)"/>
       <use xlink:href="#DejaVuSans-30" transform="translate(190.869141 0)"/>
      </g>
     </g>
    </g>
    <g id="ytick_3">
     <g id="line2d_15">
      <path d="M 208.733531 154.27289 
C 222.059709 154.27289 235.256306 156.897856 247.568089 161.997564 
C 259.879871 167.097271 271.067406 174.572543 280.490437 183.995573 
C 289.913467 193.418604 297.388739 204.606139 302.488446 216.917921 
C 307.588154 229.229704 310.21312 242.426301 310.21312 255.752479 
C 310.21312 269.078656 307.588154 282.275253 302.488446 294.587036 
C 297.388739 306.898819 289.913467 318.086353 280.490437 327.509384 
C 271.067406 336.932414 259.879871 344.407686 247.568089 349.507394 
C 235.256306 354.607101 222.059709 357.232067 208.733531 357.232067 
C 195.407354 357.232067 182.210757 354.607101 169.898974 349.507394 
C 157.587191 344.407686 146.399657 336.932414 136.976626 327.509384 
C 127.553596 318.086353 120.078324 306.898819 114.978616 294.587036 
C 109.878909 282.275253 107.253943 269.078656 107.253943 255.752479 
C 107.253943 242.426301 109.878909 229.229704 114.978616 216.917921 
C 120.078324 204.606139 127.553596 193.418604 136.976626 183.995573 
C 146.399657 174.572543 157.587191 167.097271 169.898974 161.997564 
C 182.210757 156.897856 195.407354 154.27289 208.733531 154.27289 
" clip-path="url(#p9df9a2cdb9)" style="fill: none; stroke: #b0b0b0; stroke-width: 0.8; stroke-linecap: square"/>
     </g>
     <g id="text_15">
      <!-- 3000 -->
      <g transform="translate(208.733531 355.15238) scale(0.1 -0.1)">
       <defs>
        <path id="DejaVuSans-33" d="M 2597 2516 
Q 3050 2419 3304 2112 
Q 3559 1806 3559 1356 
Q 3559 666 3084 287 
Q 2609 -91 1734 -91 
Q 1441 -91 1130 -33 
Q 819 25 488 141 
L 488 750 
Q 750 597 1062 519 
Q 1375 441 1716 441 
Q 2309 441 2620 675 
Q 2931 909 2931 1356 
Q 2931 1769 2642 2001 
Q 2353 2234 1838 2234 
L 1294 2234 
L 1294 2753 
L 1863 2753 
Q 2328 2753 2575 2939 
Q 2822 3125 2822 3475 
Q 2822 3834 2567 4026 
Q 2313 4219 1838 4219 
Q 1578 4219 1281 4162 
Q 984 4106 628 3988 
L 628 4550 
Q 988 4650 1302 4700 
Q 1616 4750 1894 4750 
Q 2613 4750 3031 4423 
Q 3450 4097 3450 3541 
Q 3450 3153 3228 2886 
Q 3006 2619 2597 2516 
z
" transform="scale(0.015625)"/>
       </defs>
       <use xlink:href="#DejaVuSans-33"/>
       <use xlink:href="#DejaVuSans-30" transform="translate(63.623047 0)"/>
       <use xlink:href="#DejaVuSans-30" transform="translate(127.246094 0)"/>
       <use xlink:href="#DejaVuSans-30" transform="translate(190.869141 0)"/>
      </g>
     </g>
    </g>
    <g id="ytick_4">
     <g id="line2d_16">
      <path d="M 208.733531 120.44636 
C 226.501768 120.44636 244.097231 123.946316 260.512941 130.745925 
C 276.928651 137.545535 291.845364 147.512564 304.409405 160.076605 
C 316.973446 172.640646 326.940475 187.557359 333.740085 203.973069 
C 340.539694 220.388779 344.03965 237.984242 344.03965 255.752479 
C 344.03965 273.520715 340.539694 291.116178 333.740085 307.531888 
C 326.940475 323.947599 316.973446 338.864312 304.409405 351.428352 
C 291.845364 363.992393 276.928651 373.959422 260.512941 380.759032 
C 244.097231 387.558642 226.501768 391.058597 208.733531 391.058597 
C 190.965295 391.058597 173.369832 387.558642 156.954122 380.759032 
C 140.538411 373.959422 125.621698 363.992393 113.057658 351.428352 
C 100.493617 338.864312 90.526588 323.947599 83.726978 307.531888 
C 76.927368 291.116178 73.427413 273.520715 73.427413 255.752479 
C 73.427413 237.984242 76.927368 220.388779 83.726978 203.973069 
C 90.526588 187.557359 100.493617 172.640646 113.057658 160.076605 
C 125.621698 147.512564 140.538411 137.545535 156.954122 130.745925 
C 173.369832 123.946316 190.965295 120.44636 208.733531 120.44636 
" clip-path="url(#p9df9a2cdb9)" style="fill: none; stroke: #b0b0b0; stroke-width: 0.8; stroke-linecap: square"/>
     </g>
     <g id="text_16">
      <!-- 4000 -->
      <g transform="translate(208.733531 388.978909) scale(0.1 -0.1)">
       <defs>
        <path id="DejaVuSans-34" d="M 2419 4116 
L 825 1625 
L 2419 1625 
L 2419 4116 
z
M 2253 4666 
L 3047 4666 
L 3047 1625 
L 3713 1625 
L 3713 1100 
L 3047 1100 
L 3047 0 
L 2419 0 
L 2419 1100 
L 313 1100 
L 313 1709 
L 2253 4666 
z
" transform="scale(0.015625)"/>
       </defs>
       <use xlink:href="#DejaVuSans-34"/>
       <use xlink:href="#DejaVuSans-30" transform="translate(63.623047 0)"/>
       <use xlink:href="#DejaVuSans-30" transform="translate(127.246094 0)"/>
       <use xlink:href="#DejaVuSans-30" transform="translate(190.869141 0)"/>
      </g>
     </g>
    </g>
    <g id="ytick_5">
     <g id="line2d_17">
      <path d="M 208.733531 86.619831 
C 230.943827 86.619831 252.938156 90.994775 273.457793 99.494287 
C 293.977431 107.993799 312.623323 120.452586 328.328373 136.157637 
C 344.033424 151.862687 356.492211 170.508579 364.991723 191.028217 
C 373.491235 211.547854 377.866179 233.542183 377.866179 255.752479 
C 377.866179 277.962774 373.491235 299.957103 364.991723 320.476741 
C 356.492211 340.996379 344.033424 359.64227 328.328373 375.347321 
C 312.623323 391.052372 293.977431 403.511158 273.457793 412.01067 
C 252.938156 420.510182 230.943827 424.885126 208.733531 424.885126 
C 186.523236 424.885126 164.528907 420.510182 144.009269 412.01067 
C 123.489631 403.511158 104.84374 391.052372 89.138689 375.347321 
C 73.433638 359.64227 60.974852 340.996379 52.47534 320.476741 
C 43.975828 299.957103 39.600884 277.962774 39.600884 255.752479 
C 39.600884 233.542183 43.975828 211.547854 52.47534 191.028217 
C 60.974852 170.508579 73.433638 151.862687 89.138689 136.157637 
C 104.84374 120.452586 123.489631 107.993799 144.009269 99.494287 
C 164.528907 90.994775 186.523236 86.619831 208.733531 86.619831 
" clip-path="url(#p9df9a2cdb9)" style="fill: none; stroke: #b0b0b0; stroke-width: 0.8; stroke-linecap: square"/>
     </g>
     <g id="text_17">
      <!-- 5000 -->
      <g transform="translate(208.733531 422.805439) scale(0.1 -0.1)">
       <defs>
        <path id="DejaVuSans-35" d="M 691 4666 
L 3169 4666 
L 3169 4134 
L 1269 4134 
L 1269 2991 
Q 1406 3038 1543 3061 
Q 1681 3084 1819 3084 
Q 2600 3084 3056 2656 
Q 3513 2228 3513 1497 
Q 3513 744 3044 326 
Q 2575 -91 1722 -91 
Q 1428 -91 1123 -41 
Q 819 9 494 109 
L 494 744 
Q 775 591 1075 516 
Q 1375 441 1709 441 
Q 2250 441 2565 725 
Q 2881 1009 2881 1497 
Q 2881 1984 2565 2268 
Q 2250 2553 1709 2553 
Q 1456 2553 1204 2497 
Q 953 2441 691 2322 
L 691 4666 
z
" transform="scale(0.015625)"/>
       </defs>
       <use xlink:href="#DejaVuSans-35"/>
       <use xlink:href="#DejaVuSans-30" transform="translate(63.623047 0)"/>
       <use xlink:href="#DejaVuSans-30" transform="translate(127.246094 0)"/>
       <use xlink:href="#DejaVuSans-30" transform="translate(190.869141 0)"/>
      </g>
     </g>
    </g>
   </g>
   <g id="line2d_18">
    <path d="M 208.733531 141.148197 
L 222.582208 141.698362 
L 236.018465 145.053152 
L 248.76702 150.192845 
L 261.591938 155.0392 
L 273.27893 162.242325 
L 284.97697 169.691427 
L 293.300731 180.832477 
L 297.705978 194.339233 
L 305.568038 204.929809 
L 310.624276 217.110416 
L 314.177884 229.76278 
L 316.205989 242.70296 
L 313.680339 255.752479 
L 308.935941 267.919254 
L 310.220231 280.766703 
L 301.420424 290.903981 
L 295.803717 301.450438 
L 291.428354 312.832594 
L 279.906705 318.806408 
L 271.28276 326.355963 
L 261.653456 332.420226 
L 251.303216 336.862236 
L 240.93425 340.658796 
L 230.448955 343.855414 
L 219.911552 347.811764 
L 208.733531 348.995307 
L 197.659482 346.955476 
L 186.645728 345.36622 
L 174.649589 345.624448 
L 165.574348 337.985432 
L 156.832037 330.944775 
L 146.92453 325.520419 
L 138.383242 318.077396 
L 131.926591 308.768482 
L 129.286105 297.449705 
L 122.277424 288.540955 
L 119.464648 277.755282 
L 114.004645 267.254648 
L 110.50129 255.752479 
L 108.732601 243.610167 
L 109.923585 231.398014 
L 111.428899 218.849699 
L 119.117433 208.718322 
L 122.628469 196.318446 
L 129.331514 185.408429 
L 137.750195 175.628855 
L 147.041658 166.376371 
L 157.981601 159.052755 
L 169.527702 152.375202 
L 181.262408 144.297749 
L 195.241621 144.636603 
L 208.733531 141.148197 
" clip-path="url(#p9df9a2cdb9)" style="fill: none; stroke-dasharray: 5.55,2.4; stroke-dashoffset: 0; stroke: #1f77b4; stroke-width: 1.5"/>
   </g>
   <g id="line2d_19">
    <path d="M 208.733531 119.296258 
L 224.529137 125.663961 
L 238.540125 134.822373 
L 250.068483 146.761169 
L 265.68699 147.236729 
L 275.085202 159.625489 
L 288.31921 165.918818 
L 296.060559 178.387483 
L 306.391649 188.343947 
L 322.191345 196.205224 
L 325.062619 211.634675 
L 326.182217 226.803978 
L 322.30074 241.962923 
L 319.447763 255.752479 
L 311.689493 268.253596 
L 314.884021 281.916224 
L 300.613901 290.598107 
L 299.158331 303.211074 
L 292.193918 313.361024 
L 282.565254 321.161678 
L 275.398874 331.002095 
L 264.170707 336.067094 
L 257.323965 348.333815 
L 247.21366 357.21624 
L 233.189186 354.97297 
L 220.578197 353.302077 
L 208.733531 350.027016 
L 196.709463 354.779592 
L 186.228824 347.057665 
L 173.516057 348.613328 
L 164.921969 339.228436 
L 153.046552 336.428997 
L 143.07759 329.862716 
L 135.256282 320.847642 
L 129.003529 310.786126 
L 119.806327 302.425076 
L 116.252223 290.826013 
L 110.005694 280.086705 
L 105.005232 268.347374 
L 103.262412 255.752479 
L 104.635854 243.112732 
L 105.670339 230.349683 
L 100.754329 214.801369 
L 104.800423 201.204175 
L 110.769188 188.132575 
L 121.912894 178.836106 
L 134.576188 172.046142 
L 140.537158 156.952975 
L 152.047312 147.745911 
L 165.1675 140.878295 
L 177.105513 127.432564 
L 194.597402 139.330979 
L 208.733531 130.256054 
" clip-path="url(#p9df9a2cdb9)" style="fill: none; stroke-dasharray: 1.5,2.475; stroke-dashoffset: 0; stroke: #ff7f0e; stroke-width: 1.5"/>
   </g>
   <g id="line2d_20">
    <path d="M 208.733531 130.256054 
L 223.292337 133.521728 
L 239.235844 129.525537 
L 254.681276 132.053119 
L 270.842631 134.744457 
L 280.618029 149.027774 
L 288.297523 163.429292 
L 294.515343 177.277752 
L 305.860614 186.061389 
L 314.162051 197.629792 
L 315.625756 212.401344 
L 318.664924 225.713669 
L 324.256399 238.506916 
L 323.794659 252.341337 
L 323.929589 266.021982 
L 315.782715 278.285509 
L 315.250323 291.763424 
L 307.617251 302.85765 
L 295.45958 310.502492 
L 292.656939 323.849702 
L 282.340919 331.574397 
L 269.962419 335.956899 
L 259.995023 342.548308 
L 250.37869 350.292714 
L 239.803826 357.498657 
L 227.330511 359.227448 
L 214.845441 358.742198 
L 202.45129 361.612403 
L 190.663107 356.297655 
L 179.589694 351.190071 
L 167.702005 348.899685 
L 157.798874 341.994912 
L 145.924146 338.02721 
L 137.93001 328.686174 
L 130.168613 319.501711 
L 119.490367 312.091543 
L 118.797597 298.5952 
L 109.106363 289.434196 
L 104.100733 277.776878 
L 101.354229 265.325133 
L 95.667293 252.400478 
L 97.024625 239.076274 
L 104.153503 227.175932 
L 110.681074 215.986394 
L 112.25118 202.56181 
L 119.027024 191.385835 
L 125.297803 179.423991 
L 134.182314 169.245934 
L 144.199999 159.941526 
L 157.467652 155.870453 
L 167.108479 143.690562 
L 182.601177 147.609626 
L 204.664747 221.59236 
L 208.733531 134.349064 
" clip-path="url(#p9df9a2cdb9)" style="fill: none; stroke: #ff7f0e; stroke-width: 1.5; stroke-linecap: square"/>
   </g>
   <g id="line2d_21">
    <path d="M 208.733531 134.349064 
L 232.226173 125.078314 
L 252.45611 138.082686 
L 277.129658 139.987269 
" clip-path="url(#p9df9a2cdb9)" style="fill: none; stroke: #2ca02c; stroke-width: 2; stroke-linecap: square"/>
   </g>
   <g id="patch_3">
    <path d="M 208.733531 76.86426 
C 185.242146 76.86426 161.979184 81.491551 140.275974 90.481315 
C 118.572763 99.471079 98.851377 112.648488 82.240459 129.259406 
C 65.629541 145.870324 52.452131 165.591711 43.462367 187.294921 
C 34.472603 208.998131 29.845313 232.261093 29.845313 255.752479 
C 29.845313 279.243864 34.472603 302.506826 43.462367 324.210036 
C 52.452131 345.913247 65.629541 365.634633 82.240459 382.245551 
C 98.851377 398.856469 118.572763 412.033879 140.275974 421.023643 
C 161.979184 430.013407 185.242146 434.640698 208.733531 434.640698 
C 232.224917 434.640698 255.487879 430.013407 277.191089 421.023643 
C 298.894299 412.033879 318.615686 398.856469 335.226604 382.245551 
C 351.837522 365.634633 365.014931 345.913247 374.004695 324.210036 
C 382.994459 302.506826 387.62175 279.243864 387.62175 255.752479 
C 387.62175 232.261093 382.994459 208.998131 374.004695 187.294921 
C 365.014931 165.591711 351.837522 145.870324 335.226604 129.259406 
C 318.615686 112.648488 298.894299 99.471079 277.191089 90.481315 
C 255.487879 81.491551 232.224917 76.86426 208.733531 76.86426 
" style="fill: none; stroke: #000000; stroke-width: 0.8; stroke-linejoin: miter; stroke-linecap: square"/>
   </g>
   <g id="text_18">
    <!-- Totaal mannen en vrouwen, Totaal leeftijd, median -->
    <g transform="translate(82.442125 35.086616) scale(0.1 -0.1)">
     <defs>
      <path id="DejaVuSans-54" d="M -19 4666 
L 3928 4666 
L 3928 4134 
L 2272 4134 
L 2272 0 
L 1638 0 
L 1638 4134 
L -19 4134 
L -19 4666 
z
" transform="scale(0.015625)"/>
      <path id="DejaVuSans-20" transform="scale(0.015625)"/>
      <path id="DejaVuSans-6d" d="M 3328 2828 
Q 3544 3216 3844 3400 
Q 4144 3584 4550 3584 
Q 5097 3584 5394 3201 
Q 5691 2819 5691 2113 
L 5691 0 
L 5113 0 
L 5113 2094 
Q 5113 2597 4934 2840 
Q 4756 3084 4391 3084 
Q 3944 3084 3684 2787 
Q 3425 2491 3425 1978 
L 3425 0 
L 2847 0 
L 2847 2094 
Q 2847 2600 2669 2842 
Q 2491 3084 2119 3084 
Q 1678 3084 1418 2786 
Q 1159 2488 1159 1978 
L 1159 0 
L 581 0 
L 581 3500 
L 1159 3500 
L 1159 2956 
Q 1356 3278 1631 3431 
Q 1906 3584 2284 3584 
Q 2666 3584 2933 3390 
Q 3200 3197 3328 2828 
z
" transform="scale(0.015625)"/>
      <path id="DejaVuSans-77" d="M 269 3500 
L 844 3500 
L 1563 769 
L 2278 3500 
L 2956 3500 
L 3675 769 
L 4391 3500 
L 4966 3500 
L 4050 0 
L 3372 0 
L 2619 2869 
L 1863 0 
L 1184 0 
L 269 3500 
z
" transform="scale(0.015625)"/>
      <path id="DejaVuSans-2c" d="M 750 794 
L 1409 794 
L 1409 256 
L 897 -744 
L 494 -744 
L 750 256 
L 750 794 
z
" transform="scale(0.015625)"/>
      <path id="DejaVuSans-66" d="M 2375 4863 
L 2375 4384 
L 1825 4384 
Q 1516 4384 1395 4259 
Q 1275 4134 1275 3809 
L 1275 3500 
L 2222 3500 
L 2222 3053 
L 1275 3053 
L 1275 0 
L 697 0 
L 697 3053 
L 147 3053 
L 147 3500 
L 697 3500 
L 697 3744 
Q 697 4328 969 4595 
Q 1241 4863 1831 4863 
L 2375 4863 
z
" transform="scale(0.015625)"/>
      <path id="DejaVuSans-69" d="M 603 3500 
L 1178 3500 
L 1178 0 
L 603 0 
L 603 3500 
z
M 603 4863 
L 1178 4863 
L 1178 4134 
L 603 4134 
L 603 4863 
z
" transform="scale(0.015625)"/>
      <path id="DejaVuSans-6a" d="M 603 3500 
L 1178 3500 
L 1178 -63 
Q 1178 -731 923 -1031 
Q 669 -1331 103 -1331 
L -116 -1331 
L -116 -844 
L 38 -844 
Q 366 -844 484 -692 
Q 603 -541 603 -63 
L 603 3500 
z
M 603 4863 
L 1178 4863 
L 1178 4134 
L 603 4134 
L 603 4863 
z
" transform="scale(0.015625)"/>
      <path id="DejaVuSans-64" d="M 2906 2969 
L 2906 4863 
L 3481 4863 
L 3481 0 
L 2906 0 
L 2906 525 
Q 2725 213 2448 61 
Q 2172 -91 1784 -91 
Q 1150 -91 751 415 
Q 353 922 353 1747 
Q 353 2572 751 3078 
Q 1150 3584 1784 3584 
Q 2172 3584 2448 3432 
Q 2725 3281 2906 2969 
z
M 947 1747 
Q 947 1113 1208 752 
Q 1469 391 1925 391 
Q 2381 391 2643 752 
Q 2906 1113 2906 1747 
Q 2906 2381 2643 2742 
Q 2381 3103 1925 3103 
Q 1469 3103 1208 2742 
Q 947 2381 947 1747 
z
" transform="scale(0.015625)"/>
     </defs>
     <use xlink:href="#DejaVuSans-54"/>
     <use xlink:href="#DejaVuSans-6f" transform="translate(44.083984 0)"/>
     <use xlink:href="#DejaVuSans-74" transform="translate(105.265625 0)"/>
     <use xlink:href="#DejaVuSans-61" transform="translate(144.474609 0)"/>
     <use xlink:href="#DejaVuSans-61" transform="translate(205.753906 0)"/>
     <use xlink:href="#DejaVuSans-6c" transform="translate(267.033203 0)"/>
     <use xlink:href="#DejaVuSans-20" transform="translate(294.816406 0)"/>
     <use xlink:href="#DejaVuSans-6d" transform="translate(326.603516 0)"/>
     <use xlink:href="#DejaVuSans-61" transform="translate(424.015625 0)"/>
     <use xlink:href="#DejaVuSans-6e" transform="translate(485.294922 0)"/>
     <use xlink:href="#DejaVuSans-6e" transform="translate(548.673828 0)"/>
     <use xlink:href="#DejaVuSans-65" transform="translate(612.052734 0)"/>
     <use xlink:href="#DejaVuSans-6e" transform="translate(673.576172 0)"/>
     <use xlink:href="#DejaVuSans-20" transform="translate(736.955078 0)"/>
     <use xlink:href="#DejaVuSans-65" transform="translate(768.742188 0)"/>
     <use xlink:href="#DejaVuSans-6e" transform="translate(830.265625 0)"/>
     <use xlink:href="#DejaVuSans-20" transform="translate(893.644531 0)"/>
     <use xlink:href="#DejaVuSans-76" transform="translate(925.431641 0)"/>
     <use xlink:href="#DejaVuSans-72" transform="translate(984.611328 0)"/>
     <use xlink:href="#DejaVuSans-6f" transform="translate(1023.474609 0)"/>
     <use xlink:href="#DejaVuSans-75" transform="translate(1084.65625 0)"/>
     <use xlink:href="#DejaVuSans-77" transform="translate(1148.035156 0)"/>
     <use xlink:href="#DejaVuSans-65" transform="translate(1229.822266 0)"/>
     <use xlink:href="#DejaVuSans-6e" transform="translate(1291.345703 0)"/>
     <use xlink:href="#DejaVuSans-2c" transform="translate(1354.724609 0)"/>
     <use xlink:href="#DejaVuSans-20" transform="translate(1386.511719 0)"/>
     <use xlink:href="#DejaVuSans-54" transform="translate(1418.298828 0)"/>
     <use xlink:href="#DejaVuSans-6f" transform="translate(1462.382812 0)"/>
     <use xlink:href="#DejaVuSans-74" transform="translate(1523.564453 0)"/>
     <use xlink:href="#DejaVuSans-61" transform="translate(1562.773438 0)"/>
     <use xlink:href="#DejaVuSans-61" transform="translate(1624.052734 0)"/>
     <use xlink:href="#DejaVuSans-6c" transform="translate(1685.332031 0)"/>
     <use xlink:href="#DejaVuSans-20" transform="translate(1713.115234 0)"/>
     <use xlink:href="#DejaVuSans-6c" transform="translate(1744.902344 0)"/>
     <use xlink:href="#DejaVuSans-65" transform="translate(1772.685547 0)"/>
     <use xlink:href="#DejaVuSans-65" transform="translate(1834.208984 0)"/>
     <use xlink:href="#DejaVuSans-66" transform="translate(1895.732422 0)"/>
     <use xlink:href="#DejaVuSans-74" transform="translate(1929.1875 0)"/>
     <use xlink:href="#DejaVuSans-69" transform="translate(1968.396484 0)"/>
     <use xlink:href="#DejaVuSans-6a" transform="translate(1996.179688 0)"/>
     <use xlink:href="#DejaVuSans-64" transform="translate(2023.962891 0)"/>
     <use xlink:href="#DejaVuSans-2c" transform="translate(2087.439453 0)"/>
     <use xlink:href="#DejaVuSans-20" transform="translate(2119.226562 0)"/>
     <use xlink:href="#DejaVuSans-6d" transform="translate(2151.013672 0)"/>
     <use xlink:href="#DejaVuSans-65" transform="translate(2248.425781 0)"/>
     <use xlink:href="#DejaVuSans-64" transform="translate(2309.949219 0)"/>
     <use xlink:href="#DejaVuSans-69" transform="translate(2373.425781 0)"/>
     <use xlink:href="#DejaVuSans-61" transform="translate(2401.208984 0)"/>
     <use xlink:href="#DejaVuSans-6e" transform="translate(2462.488281 0)"/>
    </g>
   </g>
  </g>
  <g id="text_19">
   <!-- Deaths per week in the Netherlands (since 2015) -->
   <g transform="translate(36.325719 17.837812) scale(0.14 -0.14)">
    <defs>
     <path id="DejaVuSans-68" d="M 3513 2113 
L 3513 0 
L 2938 0 
L 2938 2094 
Q 2938 2591 2744 2837 
Q 2550 3084 2163 3084 
Q 1697 3084 1428 2787 
Q 1159 2491 1159 1978 
L 1159 0 
L 581 0 
L 581 4863 
L 1159 4863 
L 1159 2956 
Q 1366 3272 1645 3428 
Q 1925 3584 2291 3584 
Q 2894 3584 3203 3211 
Q 3513 2838 3513 2113 
z
" transform="scale(0.015625)"/>
     <path id="DejaVuSans-73" d="M 2834 3397 
L 2834 2853 
Q 2591 2978 2328 3040 
Q 2066 3103 1784 3103 
Q 1356 3103 1142 2972 
Q 928 2841 928 2578 
Q 928 2378 1081 2264 
Q 1234 2150 1697 2047 
L 1894 2003 
Q 2506 1872 2764 1633 
Q 3022 1394 3022 966 
Q 3022 478 2636 193 
Q 2250 -91 1575 -91 
Q 1294 -91 989 -36 
Q 684 19 347 128 
L 347 722 
Q 666 556 975 473 
Q 1284 391 1588 391 
Q 1994 391 2212 530 
Q 2431 669 2431 922 
Q 2431 1156 2273 1281 
Q 2116 1406 1581 1522 
L 1381 1569 
Q 847 1681 609 1914 
Q 372 2147 372 2553 
Q 372 3047 722 3315 
Q 1072 3584 1716 3584 
Q 2034 3584 2315 3537 
Q 2597 3491 2834 3397 
z
" transform="scale(0.015625)"/>
     <path id="DejaVuSans-6b" d="M 581 4863 
L 1159 4863 
L 1159 1991 
L 2875 3500 
L 3609 3500 
L 1753 1863 
L 3688 0 
L 2938 0 
L 1159 1709 
L 1159 0 
L 581 0 
L 581 4863 
z
" transform="scale(0.015625)"/>
     <path id="DejaVuSans-28" d="M 1984 4856 
Q 1566 4138 1362 3434 
Q 1159 2731 1159 2009 
Q 1159 1288 1364 580 
Q 1569 -128 1984 -844 
L 1484 -844 
Q 1016 -109 783 600 
Q 550 1309 550 2009 
Q 550 2706 781 3412 
Q 1013 4119 1484 4856 
L 1984 4856 
z
" transform="scale(0.015625)"/>
     <path id="DejaVuSans-29" d="M 513 4856 
L 1013 4856 
Q 1481 4119 1714 3412 
Q 1947 2706 1947 2009 
Q 1947 1309 1714 600 
Q 1481 -109 1013 -844 
L 513 -844 
Q 928 -128 1133 580 
Q 1338 1288 1338 2009 
Q 1338 2731 1133 3434 
Q 928 4138 513 4856 
z
" transform="scale(0.015625)"/>
    </defs>
    <use xlink:href="#DejaVuSans-44"/>
    <use xlink:href="#DejaVuSans-65" transform="translate(77.001953 0)"/>
    <use xlink:href="#DejaVuSans-61" transform="translate(138.525391 0)"/>
    <use xlink:href="#DejaVuSans-74" transform="translate(199.804688 0)"/>
    <use xlink:href="#DejaVuSans-68" transform="translate(239.013672 0)"/>
    <use xlink:href="#DejaVuSans-73" transform="translate(302.392578 0)"/>
    <use xlink:href="#DejaVuSans-20" transform="translate(354.492188 0)"/>
    <use xlink:href="#DejaVuSans-70" transform="translate(386.279297 0)"/>
    <use xlink:href="#DejaVuSans-65" transform="translate(449.755859 0)"/>
    <use xlink:href="#DejaVuSans-72" transform="translate(511.279297 0)"/>
    <use xlink:href="#DejaVuSans-20" transform="translate(552.392578 0)"/>
    <use xlink:href="#DejaVuSans-77" transform="translate(584.179688 0)"/>
    <use xlink:href="#DejaVuSans-65" transform="translate(665.966797 0)"/>
    <use xlink:href="#DejaVuSans-65" transform="translate(727.490234 0)"/>
    <use xlink:href="#DejaVuSans-6b" transform="translate(789.013672 0)"/>
    <use xlink:href="#DejaVuSans-20" transform="translate(846.923828 0)"/>
    <use xlink:href="#DejaVuSans-69" transform="translate(878.710938 0)"/>
    <use xlink:href="#DejaVuSans-6e" transform="translate(906.494141 0)"/>
    <use xlink:href="#DejaVuSans-20" transform="translate(969.873047 0)"/>
    <use xlink:href="#DejaVuSans-74" transform="translate(1001.660156 0)"/>
    <use xlink:href="#DejaVuSans-68" transform="translate(1040.869141 0)"/>
    <use xlink:href="#DejaVuSans-65" transform="translate(1104.248047 0)"/>
    <use xlink:href="#DejaVuSans-20" transform="translate(1165.771484 0)"/>
    <use xlink:href="#DejaVuSans-4e" transform="translate(1197.558594 0)"/>
    <use xlink:href="#DejaVuSans-65" transform="translate(1272.363281 0)"/>
    <use xlink:href="#DejaVuSans-74" transform="translate(1333.886719 0)"/>
    <use xlink:href="#DejaVuSans-68" transform="translate(1373.095703 0)"/>
    <use xlink:href="#DejaVuSans-65" transform="translate(1436.474609 0)"/>
    <use xlink:href="#DejaVuSans-72" transform="translate(1497.998047 0)"/>
    <use xlink:href="#DejaVuSans-6c" transform="translate(1539.111328 0)"/>
    <use xlink:href="#DejaVuSans-61" transform="translate(1566.894531 0)"/>
    <use xlink:href="#DejaVuSans-6e" transform="translate(1628.173828 0)"/>
    <use xlink:href="#DejaVuSans-64" transform="translate(1691.552734 0)"/>
    <use xlink:href="#DejaVuSans-73" transform="translate(1755.029297 0)"/>
    <use xlink:href="#DejaVuSans-20" transform="translate(1807.128906 0)"/>
    <use xlink:href="#DejaVuSans-28" transform="translate(1838.916016 0)"/>
    <use xlink:href="#DejaVuSans-73" transform="translate(1877.929688 0)"/>
    <use xlink:href="#DejaVuSans-69" transform="translate(1930.029297 0)"/>
    <use xlink:href="#DejaVuSans-6e" transform="translate(1957.8125 0)"/>
    <use xlink:href="#DejaVuSans-63" transform="translate(2021.191406 0)"/>
    <use xlink:href="#DejaVuSans-65" transform="translate(2076.171875 0)"/>
    <use xlink:href="#DejaVuSans-20" transform="translate(2137.695312 0)"/>
    <use xlink:href="#DejaVuSans-32" transform="translate(2169.482422 0)"/>
    <use xlink:href="#DejaVuSans-30" transform="translate(2233.105469 0)"/>
    <use xlink:href="#DejaVuSans-31" transform="translate(2296.728516 0)"/>
    <use xlink:href="#DejaVuSans-35" transform="translate(2360.351562 0)"/>
    <use xlink:href="#DejaVuSans-29" transform="translate(2423.974609 0)"/>
   </g>
  </g>
  <g id="legend_1">
   <g id="patch_4">
    <path d="M 418.146031 455.67976 
L 491.933531 455.67976 
Q 493.933531 455.67976 493.933531 453.67976 
L 493.933531 366.61101 
Q 493.933531 364.61101 491.933531 364.61101 
L 418.146031 364.61101 
Q 416.146031 364.61101 416.146031 366.61101 
L 416.146031 453.67976 
Q 416.146031 455.67976 418.146031 455.67976 
z
" style="fill: #ffffff; opacity: 0.8; stroke: #cccccc; stroke-linejoin: miter"/>
   </g>
   <g id="patch_5">
    <path d="M 420.146031 376.209448 
L 440.146031 376.209448 
L 440.146031 369.209448 
L 420.146031 369.209448 
z
" style="fill: #1f77b4; fill-opacity: 0.3; stroke: #1f77b4; stroke-opacity: 0.3; stroke-linejoin: miter"/>
   </g>
   <g id="text_20">
    <!-- SD -->
    <g transform="translate(448.146031 376.209448) scale(0.1 -0.1)">
     <use xlink:href="#DejaVuSans-53"/>
     <use xlink:href="#DejaVuSans-44" transform="translate(63.476562 0)"/>
    </g>
   </g>
   <g id="patch_6">
    <path d="M 420.146031 390.887573 
L 440.146031 390.887573 
L 440.146031 383.887573 
L 420.146031 383.887573 
z
" style="fill: #1f77b4; fill-opacity: 0.2"/>
   </g>
   <g id="text_21">
    <!-- Min/Max -->
    <g transform="translate(448.146031 390.887573) scale(0.1 -0.1)">
     <defs>
      <path id="DejaVuSans-2f" d="M 1625 4666 
L 2156 4666 
L 531 -594 
L 0 -594 
L 1625 4666 
z
" transform="scale(0.015625)"/>
      <path id="DejaVuSans-78" d="M 3513 3500 
L 2247 1797 
L 3578 0 
L 2900 0 
L 1881 1375 
L 863 0 
L 184 0 
L 1544 1831 
L 300 3500 
L 978 3500 
L 1906 2253 
L 2834 3500 
L 3513 3500 
z
" transform="scale(0.015625)"/>
     </defs>
     <use xlink:href="#DejaVuSans-4d"/>
     <use xlink:href="#DejaVuSans-69" transform="translate(86.279297 0)"/>
     <use xlink:href="#DejaVuSans-6e" transform="translate(114.0625 0)"/>
     <use xlink:href="#DejaVuSans-2f" transform="translate(177.441406 0)"/>
     <use xlink:href="#DejaVuSans-4d" transform="translate(211.132812 0)"/>
     <use xlink:href="#DejaVuSans-61" transform="translate(297.412109 0)"/>
     <use xlink:href="#DejaVuSans-78" transform="translate(358.691406 0)"/>
    </g>
   </g>
   <g id="line2d_22">
    <path d="M 420.146031 402.065698 
L 430.146031 402.065698 
L 440.146031 402.065698 
" style="fill: none; stroke-dasharray: 5.55,2.4; stroke-dashoffset: 0; stroke: #1f77b4; stroke-width: 1.5"/>
   </g>
   <g id="text_22">
    <!-- Median -->
    <g transform="translate(448.146031 405.565698) scale(0.1 -0.1)">
     <use xlink:href="#DejaVuSans-4d"/>
     <use xlink:href="#DejaVuSans-65" transform="translate(86.279297 0)"/>
     <use xlink:href="#DejaVuSans-64" transform="translate(147.802734 0)"/>
     <use xlink:href="#DejaVuSans-69" transform="translate(211.279297 0)"/>
     <use xlink:href="#DejaVuSans-61" transform="translate(239.0625 0)"/>
     <use xlink:href="#DejaVuSans-6e" transform="translate(300.341797 0)"/>
    </g>
   </g>
   <g id="line2d_23">
    <path d="M 420.146031 416.743823 
L 430.146031 416.743823 
L 440.146031 416.743823 
" style="fill: none; stroke-dasharray: 1.5,2.475; stroke-dashoffset: 0; stroke: #ff7f0e; stroke-width: 1.5"/>
   </g>
   <g id="text_23">
    <!-- 2023 -->
    <g transform="translate(448.146031 420.243823) scale(0.1 -0.1)">
     <use xlink:href="#DejaVuSans-32"/>
     <use xlink:href="#DejaVuSans-30" transform="translate(63.623047 0)"/>
     <use xlink:href="#DejaVuSans-32" transform="translate(127.246094 0)"/>
     <use xlink:href="#DejaVuSans-33" transform="translate(190.869141 0)"/>
    </g>
   </g>
   <g id="line2d_24">
    <path d="M 420.146031 431.421948 
L 430.146031 431.421948 
L 440.146031 431.421948 
" style="fill: none; stroke: #ff7f0e; stroke-width: 1.5; stroke-linecap: square"/>
   </g>
   <g id="text_24">
    <!-- 2024 -->
    <g transform="translate(448.146031 434.921948) scale(0.1 -0.1)">
     <use xlink:href="#DejaVuSans-32"/>
     <use xlink:href="#DejaVuSans-30" transform="translate(63.623047 0)"/>
     <use xlink:href="#DejaVuSans-32" transform="translate(127.246094 0)"/>
     <use xlink:href="#DejaVuSans-34" transform="translate(190.869141 0)"/>
    </g>
   </g>
   <g id="line2d_25">
    <path d="M 420.146031 446.100073 
L 430.146031 446.100073 
L 440.146031 446.100073 
" style="fill: none; stroke: #2ca02c; stroke-width: 2; stroke-linecap: square"/>
   </g>
   <g id="text_25">
    <!-- 2025 -->
    <g transform="translate(448.146031 449.600073) scale(0.1 -0.1)">
     <use xlink:href="#DejaVuSans-32"/>
     <use xlink:href="#DejaVuSans-30" transform="translate(63.623047 0)"/>
     <use xlink:href="#DejaVuSans-32" transform="translate(127.246094 0)"/>
     <use xlink:href="#DejaVuSans-35" transform="translate(190.869141 0)"/>
    </g>
   </g>
  </g>
 </g>
 <defs>
  <clipPath id="p9df9a2cdb9">
   <path d="M 387.62175 255.752479 
C 387.62175 232.261093 382.994459 208.998131 374.004695 187.294921 
C 365.014931 165.591711 351.837522 145.870324 335.226604 129.259406 
C 318.615686 112.648488 298.894299 99.471079 277.191089 90.481315 
C 255.487879 81.491551 232.224917 76.86426 208.733531 76.86426 
C 185.242146 76.86426 161.979184 81.491551 140.275974 90.481315 
C 118.572763 99.471079 98.851377 112.648488 82.240459 129.259406 
C 65.629541 145.870324 52.452131 165.591711 43.462367 187.294921 
C 34.472603 208.998131 29.845313 232.261093 29.845313 255.752479 
C 29.845313 279.243864 34.472603 302.506826 43.462367 324.210036 
C 52.452131 345.913247 65.629541 365.634633 82.240459 382.245551 
C 98.851377 398.856469 118.572763 412.033879 140.275974 421.023643 
C 161.979184 430.013407 185.242146 434.640698 208.733531 434.640698 
C 232.224917 434.640698 255.487879 430.013407 277.191089 421.023643 
C 298.894299 412.033879 318.615686 398.856469 335.226604 382.245551 
C 351.837522 365.634633 365.014931 345.913247 374.004695 324.210036 
C 382.994459 302.506826 387.62175 279.243864 387.62175 255.752479 
M 208.733531 255.752479 
C 208.733531 255.752479 208.733531 255.752479 208.733531 255.752479 
C 208.733531 255.752479 208.733531 255.752479 208.733531 255.752479 
C 208.733531 255.752479 208.733531 255.752479 208.733531 255.752479 
C 208.733531 255.752479 208.733531 255.752479 208.733531 255.752479 
C 208.733531 255.752479 208.733531 255.752479 208.733531 255.752479 
C 208.733531 255.752479 208.733531 255.752479 208.733531 255.752479 
C 208.733531 255.752479 208.733531 255.752479 208.733531 255.752479 
C 208.733531 255.752479 208.733531 255.752479 208.733531 255.752479 
C 208.733531 255.752479 208.733531 255.752479 208.733531 255.752479 
C 208.733531 255.752479 208.733531 255.752479 208.733531 255.752479 
C 208.733531 255.752479 208.733531 255.752479 208.733531 255.752479 
C 208.733531 255.752479 208.733531 255.752479 208.733531 255.752479 
C 208.733531 255.752479 208.733531 255.752479 208.733531 255.752479 
C 208.733531 255.752479 208.733531 255.752479 208.733531 255.752479 
C 208.733531 255.752479 208.733531 255.752479 208.733531 255.752479 
C 208.733531 255.752479 208.733531 255.752479 208.733531 255.752479 
z
"/>
  </clipPath>
 </defs>
</svg>
