<?xml version="1.0" encoding="utf-8" standalone="no"?>
<!DOCTYPE svg PUBLIC "-//W3C//DTD SVG 1.1//EN"
  "http://www.w3.org/Graphics/SVG/1.1/DTD/svg11.dtd">
<svg xmlns:xlink="http://www.w3.org/1999/xlink" width="498.933531pt" height="460.67976pt" viewBox="0 0 498.933531 460.67976" xmlns="http://www.w3.org/2000/svg" version="1.1">
 <metadata>
  <rdf:RDF xmlns:dc="http://purl.org/dc/elements/1.1/" xmlns:cc="http://creativecommons.org/ns#" xmlns:rdf="http://www.w3.org/1999/02/22-rdf-syntax-ns#">
   <cc:Work>
    <dc:type rdf:resource="http://purl.org/dc/dcmitype/StillImage"/>
    <dc:date>2025-06-10T03:20:14.818354</dc:date>
    <dc:format>image/svg+xml</dc:format>
    <dc:creator>
     <cc:Agent>
      <dc:title>Matplotlib v3.10.3, https://matplotlib.org/</dc:title>
     </cc:Agent>
    </dc:creator>
   </cc:Work>
  </rdf:RDF>
 </metadata>
 <defs>
  <style type="text/css">*{stroke-linejoin: round; stroke-linecap: butt}</style>
 </defs>
 <g id="figure_1">
  <g id="patch_1">
   <path d="M 0 460.67976 
L 498.933531 460.67976 
L 498.933531 0 
L 0 0 
z
" style="fill: #ffffff"/>
  </g>
  <g id="axes_1">
   <g id="patch_2">
    <path d="M 387.62175 255.752479 
C 387.62175 232.261093 382.994459 208.998131 374.004695 187.294921 
C 365.014931 165.591711 351.837522 145.870324 335.226604 129.259406 
C 318.615686 112.648488 298.894299 99.471079 277.191089 90.481315 
C 255.487879 81.491551 232.224917 76.86426 208.733531 76.86426 
C 185.242146 76.86426 161.979184 81.491551 140.275974 90.481315 
C 118.572763 99.471079 98.851377 112.648488 82.240459 129.259406 
C 65.629541 145.870324 52.452131 165.591711 43.462367 187.294921 
C 34.472603 208.998131 29.845312 232.261093 29.845312 255.752479 
C 29.845312 279.243864 34.472603 302.506826 43.462367 324.210036 
C 52.452131 345.913247 65.629541 365.634633 82.240459 382.245551 
C 98.851377 398.856469 118.572763 412.033879 140.275974 421.023643 
C 161.979184 430.013407 185.242146 434.640697 208.733531 434.640697 
C 232.224917 434.640697 255.487879 430.013407 277.191089 421.023643 
C 298.894299 412.033879 318.615686 398.856469 335.226604 382.245551 
C 351.837522 365.634633 365.014931 345.913247 374.004695 324.210036 
C 382.994459 302.506826 387.62175 279.243864 387.62175 255.752479 
M 208.733531 255.752479 
C 208.733531 255.752479 208.733531 255.752479 208.733531 255.752479 
C 208.733531 255.752479 208.733531 255.752479 208.733531 255.752479 
C 208.733531 255.752479 208.733531 255.752479 208.733531 255.752479 
C 208.733531 255.752479 208.733531 255.752479 208.733531 255.752479 
C 208.733531 255.752479 208.733531 255.752479 208.733531 255.752479 
C 208.733531 255.752479 208.733531 255.752479 208.733531 255.752479 
C 208.733531 255.752479 208.733531 255.752479 208.733531 255.752479 
C 208.733531 255.752479 208.733531 255.752479 208.733531 255.752479 
C 208.733531 255.752479 208.733531 255.752479 208.733531 255.752479 
C 208.733531 255.752479 208.733531 255.752479 208.733531 255.752479 
C 208.733531 255.752479 208.733531 255.752479 208.733531 255.752479 
C 208.733531 255.752479 208.733531 255.752479 208.733531 255.752479 
C 208.733531 255.752479 208.733531 255.752479 208.733531 255.752479 
C 208.733531 255.752479 208.733531 255.752479 208.733531 255.752479 
C 208.733531 255.752479 208.733531 255.752479 208.733531 255.752479 
C 208.733531 255.752479 208.733531 255.752479 208.733531 255.752479 
z
" style="fill: #ffffff"/>
   </g>
   <g id="FillBetweenPolyCollection_1">
    <defs>
     <path id="m3dd5750463" d="M 208.733531 -309.915133 
L 208.733531 -335.556966 
L 223.985928 -330.542067 
L 238.766509 -326.775862 
L 252.770191 -321.04241 
L 267.185329 -316.297878 
L 277.830222 -305.03112 
L 289.316792 -295.88698 
L 297.962806 -283.977521 
L 308.362453 -273.69616 
L 320.018036 -263.333895 
L 322.38007 -248.027728 
L 325.649609 -233.744506 
L 335.617236 -220.333752 
L 343.380333 -204.927281 
L 339.688742 -189.02644 
L 326.801664 -175.8261 
L 316.460573 -164.071803 
L 304.425615 -154.704202 
L 294.030908 -146.050753 
L 285.695778 -136.74468 
L 275.585396 -129.467126 
L 265.374146 -122.869184 
L 255.277674 -116.244827 
L 244.974757 -109.367023 
L 233.070808 -106.18707 
L 220.913788 -104.613841 
L 208.733531 -105.841553 
L 196.502932 -104.199234 
L 184.750014 -107.622326 
L 172.53503 -109.479678 
L 162.593667 -117.015115 
L 152.797509 -123.889963 
L 140.021936 -127.367924 
L 133.5666 -138.335191 
L 127.365895 -148.763257 
L 118.784814 -157.718553 
L 117.038809 -170.15206 
L 110.413507 -180.693572 
L 104.234135 -192.238757 
L 101.640691 -204.927281 
L 100.761447 -218.037466 
L 100.52668 -231.597875 
L 101.629883 -245.546337 
L 105.110928 -259.312619 
L 110.425694 -272.784282 
L 117.761827 -285.521179 
L 127.413777 -296.718308 
L 136.592334 -309.441849 
L 148.82411 -319.075146 
L 163.035236 -325.423784 
L 176.959439 -333.839842 
L 193.194261 -332.904689 
L 208.733531 -335.556966 
L 208.733531 -309.915133 
L 208.733531 -309.915133 
L 196.956013 -301.923872 
L 184.397516 -303.662378 
L 172.869496 -299.492972 
L 163.739443 -290.656355 
L 155.31074 -282.323557 
L 146.017099 -275.719499 
L 139.015909 -266.691705 
L 131.433265 -258.283803 
L 126.694505 -247.984684 
L 121.251377 -238.104886 
L 119.036163 -227.035697 
L 115.855642 -216.204699 
L 117.756638 -204.927281 
L 119.219886 -194.058357 
L 123.929093 -184.024865 
L 126.072138 -173.57795 
L 133.100565 -165.232039 
L 137.371113 -155.66936 
L 143.492264 -147.128562 
L 151.686004 -140.533935 
L 159.132314 -133.067512 
L 168.805734 -128.85122 
L 177.651146 -122.969767 
L 188.076354 -121.11782 
L 198.271086 -118.761292 
L 208.733531 -114.751787 
L 219.278938 -118.078043 
L 229.321904 -121.396971 
L 239.622053 -123.480943 
L 249.602692 -127.057601 
L 260.18202 -130.391278 
L 268.372051 -137.609309 
L 276.387628 -144.990982 
L 285.302952 -152.075226 
L 289.322053 -162.631162 
L 293.125257 -172.921721 
L 296.307642 -183.342202 
L 295.055735 -194.445868 
L 297.695734 -204.927281 
L 305.111234 -216.629653 
L 305.749497 -228.839569 
L 303.235162 -240.767022 
L 299.794025 -252.719515 
L 292.986451 -263.082873 
L 288.346546 -275.458258 
L 280.373899 -285.79254 
L 269.193881 -292.51922 
L 258.087177 -298.962797 
L 246.240011 -303.82374 
L 234.030275 -307.560206 
L 221.73409 -311.996512 
L 208.733531 -309.915133 
z
" style="stroke: #1f77b4; stroke-opacity: 0.3"/>
    </defs>
    <g clip-path="url(#p3231d5d7f5)">
     <use xlink:href="#m3dd5750463" x="0" y="460.67976" style="fill: #1f77b4; fill-opacity: 0.3; stroke: #1f77b4; stroke-opacity: 0.3"/>
    </g>
   </g>
   <g id="FillBetweenPolyCollection_2">
    <path d="M 208.733531 115.540188 
L 208.733531 152.174666 
L 221.271463 152.493322 
L 233.521324 155.184449 
L 245.270807 159.4116 
L 257.513066 162.810841 
L 267.072823 171.233423 
L 276.633229 179.109564 
L 283.654702 189.378113 
L 294.059917 196.855927 
L 300.207512 207.74323 
L 298.653794 221.650221 
L 299.973893 233.263749 
L 304.43714 244.131957 
L 302.230943 255.752479 
L 301.649982 267.034578 
L 297.839039 277.715014 
L 292.960636 287.695606 
L 287.957068 297.332198 
L 282.256202 306.501514 
L 274.716827 314.208577 
L 266.292376 320.722984 
L 259.847667 329.804089 
L 249.401484 333.238788 
L 239.405171 336.626946 
L 229.449391 339.800025 
L 219.118608 341.281283 
L 208.733531 344.987707 
L 198.458544 340.374617 
L 188.268626 338.781864 
L 178.241819 336.152516 
L 169.590431 330.333426 
L 159.848433 326.574771 
L 152.004647 319.786153 
L 144.953055 312.25705 
L 138.384502 304.310908 
L 133.55354 295.209982 
L 128.42838 286.208205 
L 126.623775 275.990716 
L 119.242262 266.618686 
L 119.396822 255.752479 
L 118.402757 244.784337 
L 119.857931 233.846611 
L 124.253398 223.71339 
L 127.083868 212.89943 
L 133.791075 204.023436 
L 142.927474 197.453399 
L 145.791162 184.705231 
L 156.447229 180.002692 
L 165.361718 173.114393 
L 174.619279 165.800588 
L 185.410987 161.129195 
L 198.164972 168.712565 
L 208.733531 152.174666 
L 208.733531 115.540188 
L 208.733531 115.540188 
L 191.873581 116.898296 
L 174.749483 117.873776 
L 160.117123 127.561546 
L 139.989443 124.771562 
L 124.279912 133.400288 
L 114.701311 149.612043 
L 107.327891 165.914921 
L 103.279584 182.962874 
L 98.299816 197.792394 
L 99.677934 214.393146 
L 98.016736 228.463239 
L 96.374137 242.109578 
L 96.834314 255.752479 
L 101.041786 268.828624 
L 106.55615 280.936941 
L 115.523889 291.102233 
L 115.282706 304.799255 
L 125.41155 313.26549 
L 131.73614 323.966215 
L 136.751328 337.00359 
L 151.355031 338.879587 
L 161.400248 345.938516 
L 171.11669 354.939936 
L 182.958112 360.327465 
L 195.955035 360.992868 
L 208.733531 358.958196 
L 221.406016 360.119782 
L 234.201329 359.079396 
L 247.214024 357.217199 
L 257.324425 348.334691 
L 266.573212 339.547722 
L 278.853932 334.902049 
L 289.680805 327.465505 
L 295.813771 315.859628 
L 310.061782 308.933647 
L 332.401567 302.653578 
L 350.225064 290.627009 
L 376.030155 276.065967 
L 380.74306 255.752479 
L 358.434123 237.575536 
L 327.989742 226.358463 
L 326.803295 210.974524 
L 331.297883 191.425745 
L 318.335482 180.099714 
L 302.188767 172.958365 
L 290.832273 163.082156 
L 281.849805 149.825269 
L 271.944137 135.314732 
L 255.550665 132.305844 
L 240.005656 128.876483 
L 224.529286 125.662731 
L 208.733531 115.540188 
z
" clip-path="url(#p3231d5d7f5)" style="fill: #1f77b4; fill-opacity: 0.2"/>
   </g>
   <g id="matplotlib.axis_1">
    <g id="xtick_1">
     <g id="line2d_1">
      <path d="M 208.733531 255.752479 
L 208.733531 76.86426 
" clip-path="url(#p3231d5d7f5)" style="fill: none; stroke: #b0b0b0; stroke-width: 0.8; stroke-linecap: square"/>
     </g>
     <g id="text_1">
      <!-- Jan -->
      <g transform="translate(201.025719 65.623635) scale(0.1 -0.1)">
       <defs>
        <path id="DejaVuSans-4a" d="M 628 4666 
L 1259 4666 
L 1259 325 
Q 1259 -519 939 -900 
Q 619 -1281 -91 -1281 
L -331 -1281 
L -331 -750 
L -134 -750 
Q 284 -750 456 -515 
Q 628 -281 628 325 
L 628 4666 
z
" transform="scale(0.015625)"/>
        <path id="DejaVuSans-61" d="M 2194 1759 
Q 1497 1759 1228 1600 
Q 959 1441 959 1056 
Q 959 750 1161 570 
Q 1363 391 1709 391 
Q 2188 391 2477 730 
Q 2766 1069 2766 1631 
L 2766 1759 
L 2194 1759 
z
M 3341 1997 
L 3341 0 
L 2766 0 
L 2766 531 
Q 2569 213 2275 61 
Q 1981 -91 1556 -91 
Q 1019 -91 701 211 
Q 384 513 384 1019 
Q 384 1609 779 1909 
Q 1175 2209 1959 2209 
L 2766 2209 
L 2766 2266 
Q 2766 2663 2505 2880 
Q 2244 3097 1772 3097 
Q 1472 3097 1187 3025 
Q 903 2953 641 2809 
L 641 3341 
Q 956 3463 1253 3523 
Q 1550 3584 1831 3584 
Q 2591 3584 2966 3190 
Q 3341 2797 3341 1997 
z
" transform="scale(0.015625)"/>
        <path id="DejaVuSans-6e" d="M 3513 2113 
L 3513 0 
L 2938 0 
L 2938 2094 
Q 2938 2591 2744 2837 
Q 2550 3084 2163 3084 
Q 1697 3084 1428 2787 
Q 1159 2491 1159 1978 
L 1159 0 
L 581 0 
L 581 3500 
L 1159 3500 
L 1159 2956 
Q 1366 3272 1645 3428 
Q 1925 3584 2291 3584 
Q 2894 3584 3203 3211 
Q 3513 2838 3513 2113 
z
" transform="scale(0.015625)"/>
       </defs>
       <use xlink:href="#DejaVuSans-4a"/>
       <use xlink:href="#DejaVuSans-61" transform="translate(29.492188 0)"/>
       <use xlink:href="#DejaVuSans-6e" transform="translate(90.771484 0)"/>
      </g>
     </g>
    </g>
    <g id="xtick_2">
     <g id="line2d_2">
      <path d="M 208.733531 255.752479 
L 298.177641 100.830737 
" clip-path="url(#p3231d5d7f5)" style="fill: none; stroke: #b0b0b0; stroke-width: 0.8; stroke-linecap: square"/>
     </g>
     <g id="text_2">
      <!-- Feb -->
      <g transform="translate(296.326078 91.465756) scale(0.1 -0.1)">
       <defs>
        <path id="DejaVuSans-46" d="M 628 4666 
L 3309 4666 
L 3309 4134 
L 1259 4134 
L 1259 2759 
L 3109 2759 
L 3109 2228 
L 1259 2228 
L 1259 0 
L 628 0 
L 628 4666 
z
" transform="scale(0.015625)"/>
        <path id="DejaVuSans-65" d="M 3597 1894 
L 3597 1613 
L 953 1613 
Q 991 1019 1311 708 
Q 1631 397 2203 397 
Q 2534 397 2845 478 
Q 3156 559 3463 722 
L 3463 178 
Q 3153 47 2828 -22 
Q 2503 -91 2169 -91 
Q 1331 -91 842 396 
Q 353 884 353 1716 
Q 353 2575 817 3079 
Q 1281 3584 2069 3584 
Q 2775 3584 3186 3129 
Q 3597 2675 3597 1894 
z
M 3022 2063 
Q 3016 2534 2758 2815 
Q 2500 3097 2075 3097 
Q 1594 3097 1305 2825 
Q 1016 2553 972 2059 
L 3022 2063 
z
" transform="scale(0.015625)"/>
        <path id="DejaVuSans-62" d="M 3116 1747 
Q 3116 2381 2855 2742 
Q 2594 3103 2138 3103 
Q 1681 3103 1420 2742 
Q 1159 2381 1159 1747 
Q 1159 1113 1420 752 
Q 1681 391 2138 391 
Q 2594 391 2855 752 
Q 3116 1113 3116 1747 
z
M 1159 2969 
Q 1341 3281 1617 3432 
Q 1894 3584 2278 3584 
Q 2916 3584 3314 3078 
Q 3713 2572 3713 1747 
Q 3713 922 3314 415 
Q 2916 -91 2278 -91 
Q 1894 -91 1617 61 
Q 1341 213 1159 525 
L 1159 0 
L 581 0 
L 581 4863 
L 1159 4863 
L 1159 2969 
z
" transform="scale(0.015625)"/>
       </defs>
       <use xlink:href="#DejaVuSans-46"/>
       <use xlink:href="#DejaVuSans-65" transform="translate(52.019531 0)"/>
       <use xlink:href="#DejaVuSans-62" transform="translate(113.542969 0)"/>
      </g>
     </g>
    </g>
    <g id="xtick_3">
     <g id="line2d_3">
      <path d="M 208.733531 255.752479 
L 363.655273 166.308369 
" clip-path="url(#p3231d5d7f5)" style="fill: none; stroke: #b0b0b0; stroke-width: 0.8; stroke-linecap: square"/>
     </g>
     <g id="text_3">
      <!-- Mar -->
      <g transform="translate(366.346035 162.067744) scale(0.1 -0.1)">
       <defs>
        <path id="DejaVuSans-4d" d="M 628 4666 
L 1569 4666 
L 2759 1491 
L 3956 4666 
L 4897 4666 
L 4897 0 
L 4281 0 
L 4281 4097 
L 3078 897 
L 2444 897 
L 1241 4097 
L 1241 0 
L 628 0 
L 628 4666 
z
" transform="scale(0.015625)"/>
        <path id="DejaVuSans-72" d="M 2631 2963 
Q 2534 3019 2420 3045 
Q 2306 3072 2169 3072 
Q 1681 3072 1420 2755 
Q 1159 2438 1159 1844 
L 1159 0 
L 581 0 
L 581 3500 
L 1159 3500 
L 1159 2956 
Q 1341 3275 1631 3429 
Q 1922 3584 2338 3584 
Q 2397 3584 2469 3576 
Q 2541 3569 2628 3553 
L 2631 2963 
z
" transform="scale(0.015625)"/>
       </defs>
       <use xlink:href="#DejaVuSans-4d"/>
       <use xlink:href="#DejaVuSans-61" transform="translate(86.279297 0)"/>
       <use xlink:href="#DejaVuSans-72" transform="translate(147.558594 0)"/>
      </g>
     </g>
    </g>
    <g id="xtick_4">
     <g id="line2d_4">
      <path d="M 208.733531 255.752479 
L 387.62175 255.752479 
" clip-path="url(#p3231d5d7f5)" style="fill: none; stroke: #b0b0b0; stroke-width: 0.8; stroke-linecap: square"/>
     </g>
     <g id="text_4">
      <!-- Apr -->
      <g transform="translate(392.97175 258.511854) scale(0.1 -0.1)">
       <defs>
        <path id="DejaVuSans-41" d="M 2188 4044 
L 1331 1722 
L 3047 1722 
L 2188 4044 
z
M 1831 4666 
L 2547 4666 
L 4325 0 
L 3669 0 
L 3244 1197 
L 1141 1197 
L 716 0 
L 50 0 
L 1831 4666 
z
" transform="scale(0.015625)"/>
        <path id="DejaVuSans-70" d="M 1159 525 
L 1159 -1331 
L 581 -1331 
L 581 3500 
L 1159 3500 
L 1159 2969 
Q 1341 3281 1617 3432 
Q 1894 3584 2278 3584 
Q 2916 3584 3314 3078 
Q 3713 2572 3713 1747 
Q 3713 922 3314 415 
Q 2916 -91 2278 -91 
Q 1894 -91 1617 61 
Q 1341 213 1159 525 
z
M 3116 1747 
Q 3116 2381 2855 2742 
Q 2594 3103 2138 3103 
Q 1681 3103 1420 2742 
Q 1159 2381 1159 1747 
Q 1159 1113 1420 752 
Q 1681 391 2138 391 
Q 2594 391 2855 752 
Q 3116 1113 3116 1747 
z
" transform="scale(0.015625)"/>
       </defs>
       <use xlink:href="#DejaVuSans-41"/>
       <use xlink:href="#DejaVuSans-70" transform="translate(68.408203 0)"/>
       <use xlink:href="#DejaVuSans-72" transform="translate(131.884766 0)"/>
      </g>
     </g>
    </g>
    <g id="xtick_5">
     <g id="line2d_5">
      <path d="M 208.733531 255.752479 
L 363.655273 345.196588 
" clip-path="url(#p3231d5d7f5)" style="fill: none; stroke: #b0b0b0; stroke-width: 0.8; stroke-linecap: square"/>
     </g>
     <g id="text_5">
      <!-- May -->
      <g transform="translate(365.442129 354.955963) scale(0.1 -0.1)">
       <defs>
        <path id="DejaVuSans-79" d="M 2059 -325 
Q 1816 -950 1584 -1140 
Q 1353 -1331 966 -1331 
L 506 -1331 
L 506 -850 
L 844 -850 
Q 1081 -850 1212 -737 
Q 1344 -625 1503 -206 
L 1606 56 
L 191 3500 
L 800 3500 
L 1894 763 
L 2988 3500 
L 3597 3500 
L 2059 -325 
z
" transform="scale(0.015625)"/>
       </defs>
       <use xlink:href="#DejaVuSans-4d"/>
       <use xlink:href="#DejaVuSans-61" transform="translate(86.279297 0)"/>
       <use xlink:href="#DejaVuSans-79" transform="translate(147.558594 0)"/>
      </g>
     </g>
    </g>
    <g id="xtick_6">
     <g id="line2d_6">
      <path d="M 208.733531 255.752479 
L 298.177641 410.674221 
" clip-path="url(#p3231d5d7f5)" style="fill: none; stroke: #b0b0b0; stroke-width: 0.8; stroke-linecap: square"/>
     </g>
     <g id="text_6">
      <!-- Jun -->
      <g transform="translate(297.365141 425.557951) scale(0.1 -0.1)">
       <defs>
        <path id="DejaVuSans-75" d="M 544 1381 
L 544 3500 
L 1119 3500 
L 1119 1403 
Q 1119 906 1312 657 
Q 1506 409 1894 409 
Q 2359 409 2629 706 
Q 2900 1003 2900 1516 
L 2900 3500 
L 3475 3500 
L 3475 0 
L 2900 0 
L 2900 538 
Q 2691 219 2414 64 
Q 2138 -91 1772 -91 
Q 1169 -91 856 284 
Q 544 659 544 1381 
z
M 1991 3584 
L 1991 3584 
z
" transform="scale(0.015625)"/>
       </defs>
       <use xlink:href="#DejaVuSans-4a"/>
       <use xlink:href="#DejaVuSans-75" transform="translate(29.492188 0)"/>
       <use xlink:href="#DejaVuSans-6e" transform="translate(92.871094 0)"/>
      </g>
     </g>
    </g>
    <g id="xtick_7">
     <g id="line2d_7">
      <path d="M 208.733531 255.752479 
L 208.733531 434.640697 
" clip-path="url(#p3231d5d7f5)" style="fill: none; stroke: #b0b0b0; stroke-width: 0.8; stroke-linecap: square"/>
     </g>
     <g id="text_7">
      <!-- Jul -->
      <g transform="translate(202.700719 451.400072) scale(0.1 -0.1)">
       <defs>
        <path id="DejaVuSans-6c" d="M 603 4863 
L 1178 4863 
L 1178 0 
L 603 0 
L 603 4863 
z
" transform="scale(0.015625)"/>
       </defs>
       <use xlink:href="#DejaVuSans-4a"/>
       <use xlink:href="#DejaVuSans-75" transform="translate(29.492188 0)"/>
       <use xlink:href="#DejaVuSans-6c" transform="translate(92.871094 0)"/>
      </g>
     </g>
    </g>
    <g id="xtick_8">
     <g id="line2d_8">
      <path d="M 208.733531 255.752479 
L 119.289422 410.674221 
" clip-path="url(#p3231d5d7f5)" style="fill: none; stroke: #b0b0b0; stroke-width: 0.8; stroke-linecap: square"/>
     </g>
     <g id="text_8">
      <!-- Aug -->
      <g transform="translate(102.526141 425.557951) scale(0.1 -0.1)">
       <defs>
        <path id="DejaVuSans-67" d="M 2906 1791 
Q 2906 2416 2648 2759 
Q 2391 3103 1925 3103 
Q 1463 3103 1205 2759 
Q 947 2416 947 1791 
Q 947 1169 1205 825 
Q 1463 481 1925 481 
Q 2391 481 2648 825 
Q 2906 1169 2906 1791 
z
M 3481 434 
Q 3481 -459 3084 -895 
Q 2688 -1331 1869 -1331 
Q 1566 -1331 1297 -1286 
Q 1028 -1241 775 -1147 
L 775 -588 
Q 1028 -725 1275 -790 
Q 1522 -856 1778 -856 
Q 2344 -856 2625 -561 
Q 2906 -266 2906 331 
L 2906 616 
Q 2728 306 2450 153 
Q 2172 0 1784 0 
Q 1141 0 747 490 
Q 353 981 353 1791 
Q 353 2603 747 3093 
Q 1141 3584 1784 3584 
Q 2172 3584 2450 3431 
Q 2728 3278 2906 2969 
L 2906 3500 
L 3481 3500 
L 3481 434 
z
" transform="scale(0.015625)"/>
       </defs>
       <use xlink:href="#DejaVuSans-41"/>
       <use xlink:href="#DejaVuSans-75" transform="translate(68.408203 0)"/>
       <use xlink:href="#DejaVuSans-67" transform="translate(131.787109 0)"/>
      </g>
     </g>
    </g>
    <g id="xtick_9">
     <g id="line2d_9">
      <path d="M 208.733531 255.752479 
L 53.811789 345.196588 
" clip-path="url(#p3231d5d7f5)" style="fill: none; stroke: #b0b0b0; stroke-width: 0.8; stroke-linecap: square"/>
     </g>
     <g id="text_9">
      <!-- Sept -->
      <g transform="translate(30.302277 354.955963) scale(0.1 -0.1)">
       <defs>
        <path id="DejaVuSans-53" d="M 3425 4513 
L 3425 3897 
Q 3066 4069 2747 4153 
Q 2428 4238 2131 4238 
Q 1616 4238 1336 4038 
Q 1056 3838 1056 3469 
Q 1056 3159 1242 3001 
Q 1428 2844 1947 2747 
L 2328 2669 
Q 3034 2534 3370 2195 
Q 3706 1856 3706 1288 
Q 3706 609 3251 259 
Q 2797 -91 1919 -91 
Q 1588 -91 1214 -16 
Q 841 59 441 206 
L 441 856 
Q 825 641 1194 531 
Q 1563 422 1919 422 
Q 2459 422 2753 634 
Q 3047 847 3047 1241 
Q 3047 1584 2836 1778 
Q 2625 1972 2144 2069 
L 1759 2144 
Q 1053 2284 737 2584 
Q 422 2884 422 3419 
Q 422 4038 858 4394 
Q 1294 4750 2059 4750 
Q 2388 4750 2728 4690 
Q 3069 4631 3425 4513 
z
" transform="scale(0.015625)"/>
        <path id="DejaVuSans-74" d="M 1172 4494 
L 1172 3500 
L 2356 3500 
L 2356 3053 
L 1172 3053 
L 1172 1153 
Q 1172 725 1289 603 
Q 1406 481 1766 481 
L 2356 481 
L 2356 0 
L 1766 0 
Q 1100 0 847 248 
Q 594 497 594 1153 
L 594 3053 
L 172 3053 
L 172 3500 
L 594 3500 
L 594 4494 
L 1172 4494 
z
" transform="scale(0.015625)"/>
       </defs>
       <use xlink:href="#DejaVuSans-53"/>
       <use xlink:href="#DejaVuSans-65" transform="translate(63.476562 0)"/>
       <use xlink:href="#DejaVuSans-70" transform="translate(125 0)"/>
       <use xlink:href="#DejaVuSans-74" transform="translate(188.476562 0)"/>
      </g>
     </g>
    </g>
    <g id="xtick_10">
     <g id="line2d_10">
      <path d="M 208.733531 255.752479 
L 29.845313 255.752479 
" clip-path="url(#p3231d5d7f5)" style="fill: none; stroke: #b0b0b0; stroke-width: 0.8; stroke-linecap: square"/>
     </g>
     <g id="text_10">
      <!-- Oct -->
      <g transform="translate(7.2 258.511854) scale(0.1 -0.1)">
       <defs>
        <path id="DejaVuSans-4f" d="M 2522 4238 
Q 1834 4238 1429 3725 
Q 1025 3213 1025 2328 
Q 1025 1447 1429 934 
Q 1834 422 2522 422 
Q 3209 422 3611 934 
Q 4013 1447 4013 2328 
Q 4013 3213 3611 3725 
Q 3209 4238 2522 4238 
z
M 2522 4750 
Q 3503 4750 4090 4092 
Q 4678 3434 4678 2328 
Q 4678 1225 4090 567 
Q 3503 -91 2522 -91 
Q 1538 -91 948 565 
Q 359 1222 359 2328 
Q 359 3434 948 4092 
Q 1538 4750 2522 4750 
z
" transform="scale(0.015625)"/>
        <path id="DejaVuSans-63" d="M 3122 3366 
L 3122 2828 
Q 2878 2963 2633 3030 
Q 2388 3097 2138 3097 
Q 1578 3097 1268 2742 
Q 959 2388 959 1747 
Q 959 1106 1268 751 
Q 1578 397 2138 397 
Q 2388 397 2633 464 
Q 2878 531 3122 666 
L 3122 134 
Q 2881 22 2623 -34 
Q 2366 -91 2075 -91 
Q 1284 -91 818 406 
Q 353 903 353 1747 
Q 353 2603 823 3093 
Q 1294 3584 2113 3584 
Q 2378 3584 2631 3529 
Q 2884 3475 3122 3366 
z
" transform="scale(0.015625)"/>
       </defs>
       <use xlink:href="#DejaVuSans-4f"/>
       <use xlink:href="#DejaVuSans-63" transform="translate(78.710938 0)"/>
       <use xlink:href="#DejaVuSans-74" transform="translate(133.691406 0)"/>
      </g>
     </g>
    </g>
    <g id="xtick_11">
     <g id="line2d_11">
      <path d="M 208.733531 255.752479 
L 53.811789 166.308369 
" clip-path="url(#p3231d5d7f5)" style="fill: none; stroke: #b0b0b0; stroke-width: 0.8; stroke-linecap: square"/>
     </g>
     <g id="text_11">
      <!-- Nov -->
      <g transform="translate(31.928059 162.067744) scale(0.1 -0.1)">
       <defs>
        <path id="DejaVuSans-4e" d="M 628 4666 
L 1478 4666 
L 3547 763 
L 3547 4666 
L 4159 4666 
L 4159 0 
L 3309 0 
L 1241 3903 
L 1241 0 
L 628 0 
L 628 4666 
z
" transform="scale(0.015625)"/>
        <path id="DejaVuSans-6f" d="M 1959 3097 
Q 1497 3097 1228 2736 
Q 959 2375 959 1747 
Q 959 1119 1226 758 
Q 1494 397 1959 397 
Q 2419 397 2687 759 
Q 2956 1122 2956 1747 
Q 2956 2369 2687 2733 
Q 2419 3097 1959 3097 
z
M 1959 3584 
Q 2709 3584 3137 3096 
Q 3566 2609 3566 1747 
Q 3566 888 3137 398 
Q 2709 -91 1959 -91 
Q 1206 -91 779 398 
Q 353 888 353 1747 
Q 353 2609 779 3096 
Q 1206 3584 1959 3584 
z
" transform="scale(0.015625)"/>
        <path id="DejaVuSans-76" d="M 191 3500 
L 800 3500 
L 1894 563 
L 2988 3500 
L 3597 3500 
L 2284 0 
L 1503 0 
L 191 3500 
z
" transform="scale(0.015625)"/>
       </defs>
       <use xlink:href="#DejaVuSans-4e"/>
       <use xlink:href="#DejaVuSans-6f" transform="translate(74.804688 0)"/>
       <use xlink:href="#DejaVuSans-76" transform="translate(135.986328 0)"/>
      </g>
     </g>
    </g>
    <g id="xtick_12">
     <g id="line2d_12">
      <path d="M 208.733531 255.752479 
L 119.289422 100.830737 
" clip-path="url(#p3231d5d7f5)" style="fill: none; stroke: #b0b0b0; stroke-width: 0.8; stroke-linecap: square"/>
     </g>
     <g id="text_12">
      <!-- Dec -->
      <g transform="translate(102.613641 91.465756) scale(0.1 -0.1)">
       <defs>
        <path id="DejaVuSans-44" d="M 1259 4147 
L 1259 519 
L 2022 519 
Q 2988 519 3436 956 
Q 3884 1394 3884 2338 
Q 3884 3275 3436 3711 
Q 2988 4147 2022 4147 
L 1259 4147 
z
M 628 4666 
L 1925 4666 
Q 3281 4666 3915 4102 
Q 4550 3538 4550 2338 
Q 4550 1131 3912 565 
Q 3275 0 1925 0 
L 628 0 
L 628 4666 
z
" transform="scale(0.015625)"/>
       </defs>
       <use xlink:href="#DejaVuSans-44"/>
       <use xlink:href="#DejaVuSans-65" transform="translate(77.001953 0)"/>
       <use xlink:href="#DejaVuSans-63" transform="translate(138.525391 0)"/>
      </g>
     </g>
    </g>
   </g>
   <g id="matplotlib.axis_2">
    <g id="ytick_1">
     <g id="line2d_13">
      <path d="M 208.733531 221.925629 
C 213.175632 221.925629 217.57454 222.800626 221.678506 224.500545 
C 225.782473 226.200463 229.511686 228.692244 232.652726 231.833284 
C 235.793766 234.974324 238.285547 238.703537 239.985465 242.807504 
C 241.685384 246.91147 242.560381 251.310378 242.560381 255.752479 
C 242.560381 260.19458 241.685384 264.593487 239.985465 268.697453 
C 238.285547 272.80142 235.793766 276.530633 232.652726 279.671673 
C 229.511686 282.812713 225.782473 285.304494 221.678506 287.004412 
C 217.57454 288.704331 213.175632 289.579328 208.733531 289.579328 
C 204.29143 289.579328 199.892523 288.704331 195.788557 287.004412 
C 191.68459 285.304494 187.955377 282.812713 184.814337 279.671673 
C 181.673297 276.530633 179.181516 272.80142 177.481598 268.697453 
C 175.781679 264.593487 174.906682 260.19458 174.906682 255.752479 
C 174.906682 251.310378 175.781679 246.91147 177.481598 242.807504 
C 179.181516 238.703537 181.673297 234.974324 184.814337 231.833284 
C 187.955377 228.692244 191.68459 226.200463 195.788557 224.500545 
C 199.892523 222.800626 204.29143 221.925629 208.733531 221.925629 
" clip-path="url(#p3231d5d7f5)" style="fill: none; stroke: #b0b0b0; stroke-width: 0.8; stroke-linecap: square"/>
     </g>
     <g id="text_13">
      <!-- 1000 -->
      <g transform="translate(208.733531 287.499641) scale(0.1 -0.1)">
       <defs>
        <path id="DejaVuSans-31" d="M 794 531 
L 1825 531 
L 1825 4091 
L 703 3866 
L 703 4441 
L 1819 4666 
L 2450 4666 
L 2450 531 
L 3481 531 
L 3481 0 
L 794 0 
L 794 531 
z
" transform="scale(0.015625)"/>
        <path id="DejaVuSans-30" d="M 2034 4250 
Q 1547 4250 1301 3770 
Q 1056 3291 1056 2328 
Q 1056 1369 1301 889 
Q 1547 409 2034 409 
Q 2525 409 2770 889 
Q 3016 1369 3016 2328 
Q 3016 3291 2770 3770 
Q 2525 4250 2034 4250 
z
M 2034 4750 
Q 2819 4750 3233 4129 
Q 3647 3509 3647 2328 
Q 3647 1150 3233 529 
Q 2819 -91 2034 -91 
Q 1250 -91 836 529 
Q 422 1150 422 2328 
Q 422 3509 836 4129 
Q 1250 4750 2034 4750 
z
" transform="scale(0.015625)"/>
       </defs>
       <use xlink:href="#DejaVuSans-31"/>
       <use xlink:href="#DejaVuSans-30" transform="translate(63.623047 0)"/>
       <use xlink:href="#DejaVuSans-30" transform="translate(127.246094 0)"/>
       <use xlink:href="#DejaVuSans-30" transform="translate(190.869141 0)"/>
      </g>
     </g>
    </g>
    <g id="ytick_2">
     <g id="line2d_14">
      <path d="M 208.733531 188.09878 
C 217.617734 188.09878 226.415548 189.848774 234.623481 193.248611 
C 242.831414 196.648448 250.289841 201.63201 256.57192 207.91409 
C 262.854 214.196169 267.837562 221.654596 271.237399 229.862529 
C 274.637236 238.070462 276.38723 246.868276 276.38723 255.752479 
C 276.38723 264.636681 274.637236 273.434496 271.237399 281.642428 
C 267.837562 289.850361 262.854 297.308788 256.57192 303.590868 
C 250.289841 309.872948 242.831414 314.856509 234.623481 318.256346 
C 226.415548 321.656183 217.617734 323.406177 208.733531 323.406177 
C 199.849329 323.406177 191.051514 321.656183 182.843582 318.256346 
C 174.635649 314.856509 167.177222 309.872948 160.895142 303.590868 
C 154.613062 297.308788 149.629501 289.850361 146.229664 281.642428 
C 142.829827 273.434496 141.079833 264.636681 141.079833 255.752479 
C 141.079833 246.868276 142.829827 238.070462 146.229664 229.862529 
C 149.629501 221.654596 154.613062 214.196169 160.895142 207.91409 
C 167.177222 201.63201 174.635649 196.648448 182.843582 193.248611 
C 191.051514 189.848774 199.849329 188.09878 208.733531 188.09878 
" clip-path="url(#p3231d5d7f5)" style="fill: none; stroke: #b0b0b0; stroke-width: 0.8; stroke-linecap: square"/>
     </g>
     <g id="text_14">
      <!-- 2000 -->
      <g transform="translate(208.733531 321.32649) scale(0.1 -0.1)">
       <defs>
        <path id="DejaVuSans-32" d="M 1228 531 
L 3431 531 
L 3431 0 
L 469 0 
L 469 531 
Q 828 903 1448 1529 
Q 2069 2156 2228 2338 
Q 2531 2678 2651 2914 
Q 2772 3150 2772 3378 
Q 2772 3750 2511 3984 
Q 2250 4219 1831 4219 
Q 1534 4219 1204 4116 
Q 875 4013 500 3803 
L 500 4441 
Q 881 4594 1212 4672 
Q 1544 4750 1819 4750 
Q 2544 4750 2975 4387 
Q 3406 4025 3406 3419 
Q 3406 3131 3298 2873 
Q 3191 2616 2906 2266 
Q 2828 2175 2409 1742 
Q 1991 1309 1228 531 
z
" transform="scale(0.015625)"/>
       </defs>
       <use xlink:href="#DejaVuSans-32"/>
       <use xlink:href="#DejaVuSans-30" transform="translate(63.623047 0)"/>
       <use xlink:href="#DejaVuSans-30" transform="translate(127.246094 0)"/>
       <use xlink:href="#DejaVuSans-30" transform="translate(190.869141 0)"/>
      </g>
     </g>
    </g>
    <g id="ytick_3">
     <g id="line2d_15">
      <path d="M 208.733531 154.271931 
C 222.059835 154.271931 235.256557 156.896922 247.568456 161.996677 
C 259.880355 167.096433 271.067996 174.571775 280.491115 183.994895 
C 289.914235 193.418014 297.389577 204.605655 302.489333 216.917554 
C 307.589088 229.229453 310.214079 242.426175 310.214079 255.752479 
C 310.214079 269.078782 307.589088 282.275504 302.489333 294.587403 
C 297.389577 306.899302 289.914235 318.086943 280.491115 327.510062 
C 271.067996 336.933182 259.880355 344.408524 247.568456 349.50828 
C 235.256557 354.608036 222.059835 357.233027 208.733531 357.233027 
C 195.407228 357.233027 182.210506 354.608036 169.898607 349.50828 
C 157.586708 344.408524 146.399067 336.933182 136.975948 327.510062 
C 127.552828 318.086943 120.077486 306.899302 114.97773 294.587403 
C 109.877974 282.275504 107.252983 269.078782 107.252983 255.752479 
C 107.252983 242.426175 109.877974 229.229453 114.97773 216.917554 
C 120.077486 204.605655 127.552828 193.418014 136.975948 183.994895 
C 146.399067 174.571775 157.586708 167.096433 169.898607 161.996677 
C 182.210506 156.896922 195.407228 154.271931 208.733531 154.271931 
" clip-path="url(#p3231d5d7f5)" style="fill: none; stroke: #b0b0b0; stroke-width: 0.8; stroke-linecap: square"/>
     </g>
     <g id="text_15">
      <!-- 3000 -->
      <g transform="translate(208.733531 355.153339) scale(0.1 -0.1)">
       <defs>
        <path id="DejaVuSans-33" d="M 2597 2516 
Q 3050 2419 3304 2112 
Q 3559 1806 3559 1356 
Q 3559 666 3084 287 
Q 2609 -91 1734 -91 
Q 1441 -91 1130 -33 
Q 819 25 488 141 
L 488 750 
Q 750 597 1062 519 
Q 1375 441 1716 441 
Q 2309 441 2620 675 
Q 2931 909 2931 1356 
Q 2931 1769 2642 2001 
Q 2353 2234 1838 2234 
L 1294 2234 
L 1294 2753 
L 1863 2753 
Q 2328 2753 2575 2939 
Q 2822 3125 2822 3475 
Q 2822 3834 2567 4026 
Q 2313 4219 1838 4219 
Q 1578 4219 1281 4162 
Q 984 4106 628 3988 
L 628 4550 
Q 988 4650 1302 4700 
Q 1616 4750 1894 4750 
Q 2613 4750 3031 4423 
Q 3450 4097 3450 3541 
Q 3450 3153 3228 2886 
Q 3006 2619 2597 2516 
z
" transform="scale(0.015625)"/>
       </defs>
       <use xlink:href="#DejaVuSans-33"/>
       <use xlink:href="#DejaVuSans-30" transform="translate(63.623047 0)"/>
       <use xlink:href="#DejaVuSans-30" transform="translate(127.246094 0)"/>
       <use xlink:href="#DejaVuSans-30" transform="translate(190.869141 0)"/>
      </g>
     </g>
    </g>
    <g id="ytick_4">
     <g id="line2d_16">
      <path d="M 208.733531 120.445081 
C 226.501936 120.445081 244.097565 123.945069 260.513431 130.744744 
C 276.929296 137.544418 291.84615 147.511541 304.41031 160.0757 
C 316.974469 172.63986 326.941592 187.556714 333.741266 203.972579 
C 340.540941 220.388445 344.040929 237.984074 344.040929 255.752479 
C 344.040929 273.520883 340.540941 291.116513 333.741266 307.532378 
C 326.941592 323.948243 316.974469 338.865098 304.41031 351.429257 
C 291.84615 363.993416 276.929296 373.96054 260.513431 380.760214 
C 244.097565 387.559888 226.501936 391.059876 208.733531 391.059876 
C 190.965127 391.059876 173.369497 387.559888 156.953632 380.760214 
C 140.537767 373.96054 125.620912 363.993416 113.056753 351.429257 
C 100.492594 338.865098 90.52547 323.948243 83.725796 307.532378 
C 76.926122 291.116513 73.426134 273.520883 73.426134 255.752479 
C 73.426134 237.984074 76.926122 220.388445 83.725796 203.972579 
C 90.52547 187.556714 100.492594 172.63986 113.056753 160.0757 
C 125.620912 147.511541 140.537767 137.544418 156.953632 130.744744 
C 173.369497 123.945069 190.965127 120.445081 208.733531 120.445081 
" clip-path="url(#p3231d5d7f5)" style="fill: none; stroke: #b0b0b0; stroke-width: 0.8; stroke-linecap: square"/>
     </g>
     <g id="text_16">
      <!-- 4000 -->
      <g transform="translate(208.733531 388.980189) scale(0.1 -0.1)">
       <defs>
        <path id="DejaVuSans-34" d="M 2419 4116 
L 825 1625 
L 2419 1625 
L 2419 4116 
z
M 2253 4666 
L 3047 4666 
L 3047 1625 
L 3713 1625 
L 3713 1100 
L 3047 1100 
L 3047 0 
L 2419 0 
L 2419 1100 
L 313 1100 
L 313 1709 
L 2253 4666 
z
" transform="scale(0.015625)"/>
       </defs>
       <use xlink:href="#DejaVuSans-34"/>
       <use xlink:href="#DejaVuSans-30" transform="translate(63.623047 0)"/>
       <use xlink:href="#DejaVuSans-30" transform="translate(127.246094 0)"/>
       <use xlink:href="#DejaVuSans-30" transform="translate(190.869141 0)"/>
      </g>
     </g>
    </g>
    <g id="ytick_5">
     <g id="line2d_17">
      <path d="M 208.733531 86.618232 
C 230.944037 86.618232 252.938574 90.993217 273.458405 99.49281 
C 293.978237 107.992402 312.624305 120.451307 328.329504 136.156506 
C 344.034703 151.861705 356.493608 170.507773 364.9932 191.027605 
C 373.492793 211.547436 377.867778 233.541973 377.867778 255.752479 
C 377.867778 277.962984 373.492793 299.957521 364.9932 320.477353 
C 356.493608 340.997184 344.034703 359.643252 328.329504 375.348452 
C 312.624305 391.053651 293.978237 403.512555 273.458405 412.012148 
C 252.938574 420.51174 230.944037 424.886725 208.733531 424.886725 
C 186.523026 424.886725 164.528489 420.51174 144.008657 412.012148 
C 123.488826 403.512555 104.842758 391.053651 89.137558 375.348452 
C 73.432359 359.643252 60.973455 340.997184 52.473862 320.477353 
C 43.97427 299.957521 39.599285 277.962984 39.599285 255.752479 
C 39.599285 233.541973 43.97427 211.547436 52.473862 191.027605 
C 60.973455 170.507773 73.432359 151.861705 89.137558 136.156506 
C 104.842758 120.451307 123.488826 107.992402 144.008657 99.49281 
C 164.528489 90.993217 186.523026 86.618232 208.733531 86.618232 
" clip-path="url(#p3231d5d7f5)" style="fill: none; stroke: #b0b0b0; stroke-width: 0.8; stroke-linecap: square"/>
     </g>
     <g id="text_17">
      <!-- 5000 -->
      <g transform="translate(208.733531 422.807038) scale(0.1 -0.1)">
       <defs>
        <path id="DejaVuSans-35" d="M 691 4666 
L 3169 4666 
L 3169 4134 
L 1269 4134 
L 1269 2991 
Q 1406 3038 1543 3061 
Q 1681 3084 1819 3084 
Q 2600 3084 3056 2656 
Q 3513 2228 3513 1497 
Q 3513 744 3044 326 
Q 2575 -91 1722 -91 
Q 1428 -91 1123 -41 
Q 819 9 494 109 
L 494 744 
Q 775 591 1075 516 
Q 1375 441 1709 441 
Q 2250 441 2565 725 
Q 2881 1009 2881 1497 
Q 2881 1984 2565 2268 
Q 2250 2553 1709 2553 
Q 1456 2553 1204 2497 
Q 953 2441 691 2322 
L 691 4666 
z
" transform="scale(0.015625)"/>
       </defs>
       <use xlink:href="#DejaVuSans-35"/>
       <use xlink:href="#DejaVuSans-30" transform="translate(63.623047 0)"/>
       <use xlink:href="#DejaVuSans-30" transform="translate(127.246094 0)"/>
       <use xlink:href="#DejaVuSans-30" transform="translate(190.869141 0)"/>
      </g>
     </g>
    </g>
   </g>
   <g id="line2d_18">
    <path d="M 208.733531 141.147113 
L 222.582339 141.697283 
L 236.018723 145.052105 
L 248.767398 150.191847 
L 261.592437 155.038248 
L 273.27954 162.241441 
L 284.977691 169.690613 
L 293.301531 180.831769 
L 297.70682 194.338652 
L 305.568954 204.929328 
L 310.625239 217.110051 
L 314.195303 229.758487 
L 316.207005 242.702836 
L 313.681331 255.752479 
L 308.936889 267.919369 
L 310.22119 280.76694 
L 301.421301 290.904313 
L 295.804541 301.45087 
L 291.429136 312.833133 
L 279.907378 318.807004 
L 271.283352 326.35663 
L 261.653956 332.42095 
L 251.303618 336.863003 
L 240.934555 340.659599 
L 230.44916 343.856247 
L 219.911658 347.812634 
L 208.733531 348.996189 
L 197.659378 346.956339 
L 186.645519 345.367067 
L 174.649267 345.625298 
L 165.57394 337.98621 
L 156.831546 330.945486 
L 146.923946 325.521078 
L 138.382577 318.077985 
L 131.925865 308.768983 
L 129.285354 297.450099 
L 122.276607 288.541265 
L 119.463804 277.75549 
L 114.003749 267.254757 
L 110.500361 255.752479 
L 108.731655 243.610053 
L 109.92265 231.397784 
L 111.427979 218.84935 
L 119.071658 208.694297 
L 122.627655 196.317884 
L 129.330763 185.407764 
L 137.749523 175.628097 
L 146.983428 166.292009 
L 157.918241 158.932032 
L 169.473353 152.231895 
L 181.221672 144.132476 
L 195.196643 144.26617 
L 208.733531 141.147113 
" clip-path="url(#p3231d5d7f5)" style="fill: none; stroke-dasharray: 5.55,2.4; stroke-dashoffset: 0; stroke: #1f77b4; stroke-width: 1.5"/>
   </g>
   <g id="line2d_19">
    <path d="M 208.733531 119.294968 
L 224.529286 125.662731 
L 238.540407 134.821229 
L 250.068874 146.760138 
L 265.687529 147.235703 
L 275.085829 159.62458 
L 288.319962 165.917969 
L 296.061385 178.386752 
L 306.392572 188.34331 
L 322.192418 196.204661 
L 325.063719 211.634258 
L 326.183327 226.803704 
L 322.301814 241.962793 
L 319.448809 255.752479 
L 311.690466 268.253714 
L 314.885025 281.916472 
L 300.61477 290.598436 
L 299.159186 303.211523 
L 292.194707 313.361569 
L 282.565952 321.162296 
L 275.399504 331.002806 
L 264.171232 336.067853 
L 257.324425 348.334691 
L 247.214024 357.217199 
L 233.189417 354.973908 
L 220.578309 353.302999 
L 208.733531 350.027908 
L 196.709349 354.780528 
L 186.228611 347.058528 
L 173.515724 348.614206 
L 164.921555 339.229225 
L 153.046025 336.429759 
L 143.076969 329.863417 
L 135.255587 320.848257 
L 129.002775 310.786646 
L 119.805486 302.425517 
L 116.251348 290.826344 
L 110.00476 280.086935 
L 105.004252 268.347494 
L 103.261415 255.752479 
L 104.634869 243.112613 
L 105.669365 230.349443 
L 100.753308 214.800982 
L 104.79944 201.20366 
L 110.768262 188.131936 
L 121.912073 178.835379 
L 134.575487 172.045351 
L 140.536513 156.952041 
L 152.046776 147.74489 
L 165.167088 140.877209 
L 177.105214 127.431351 
L 194.597268 139.329878 
L 208.733531 130.221041 
" clip-path="url(#p3231d5d7f5)" style="fill: none; stroke-dasharray: 1.5,2.475; stroke-dashoffset: 0; stroke: #ff7f0e; stroke-width: 1.5"/>
   </g>
   <g id="line2d_20">
    <path d="M 208.733531 130.221041 
L 223.292474 133.520572 
L 239.228187 129.557224 
L 254.705268 131.988529 
L 270.843218 134.743313 
L 280.637606 148.998709 
L 288.320359 163.402795 
L 294.541113 177.254178 
L 305.889016 186.04101 
L 314.192671 197.612911 
L 315.626766 212.400934 
L 318.698594 225.704469 
L 324.290947 238.501759 
L 323.829558 252.340302 
L 323.964371 266.025083 
L 315.783728 278.285722 
L 315.31542 291.785432 
L 307.648725 302.872644 
L 295.4604 310.50301 
L 292.710268 323.892974 
L 282.38874 331.623656 
L 269.983525 335.984544 
L 260.01271 342.578255 
L 250.406356 350.355521 
L 239.813999 357.531971 
L 227.330687 359.228426 
L 214.847503 358.776939 
L 202.453234 361.579637 
L 190.662936 356.298606 
L 179.589418 351.190973 
L 167.674344 348.962479 
L 157.798393 341.995727 
L 145.882499 338.081763 
L 137.882216 328.735405 
L 130.115336 319.544941 
L 119.489524 312.092075 
L 118.735669 298.6247 
L 109.041331 289.456182 
L 103.967337 277.804957 
L 101.319521 265.328228 
L 95.5986 252.398441 
L 96.9232 239.061133 
L 104.152514 227.175662 
L 110.586106 215.947878 
L 112.191021 202.528644 
L 118.91624 191.306345 
L 125.19718 179.331939 
L 134.049111 169.091371 
L 144.04821 159.71617 
L 157.32815 155.59866 
L 166.9903 143.372403 
L 182.42613 146.885234 
L 204.660708 221.558447 
L 208.733531 134.077301 
" clip-path="url(#p3231d5d7f5)" style="fill: none; stroke: #ff7f0e; stroke-width: 1.5; stroke-linecap: square"/>
   </g>
   <g id="line2d_21">
    <path d="M 208.733531 134.077301 
L 225.983267 123.356904 
L 241.167037 133.398149 
L 260.459102 129.441947 
L 275.305696 139.005258 
L 289.525002 148.989289 
L 303.424368 159.526476 
L 318.073482 170.21147 
L 323.143297 188.052251 
L 323.375382 206.638091 
L 325.960367 222.651675 
L 329.321352 238.06468 
L 321.091794 253.945412 
L 320.585232 268.499935 
L 313.6341 281.76136 
L 309.67819 295.207085 
L 300.799299 306.306337 
L 294.8339 318.756111 
L 283.449993 326.948479 
L 273.582911 335.952343 
" clip-path="url(#p3231d5d7f5)" style="fill: none; stroke: #2ca02c; stroke-width: 2; stroke-linecap: square"/>
   </g>
   <g id="patch_3">
    <path d="M 208.733531 76.86426 
C 185.242146 76.86426 161.979184 81.491551 140.275974 90.481315 
C 118.572763 99.471079 98.851377 112.648488 82.240459 129.259406 
C 65.629541 145.870324 52.452131 165.591711 43.462367 187.294921 
C 34.472603 208.998131 29.845312 232.261093 29.845312 255.752479 
C 29.845312 279.243864 34.472603 302.506826 43.462367 324.210036 
C 52.452131 345.913247 65.629541 365.634633 82.240459 382.245551 
C 98.851377 398.856469 118.572763 412.033879 140.275974 421.023643 
C 161.979184 430.013407 185.242146 434.640697 208.733531 434.640697 
C 232.224917 434.640697 255.487879 430.013407 277.191089 421.023643 
C 298.894299 412.033879 318.615686 398.856469 335.226604 382.245551 
C 351.837522 365.634633 365.014931 345.913247 374.004695 324.210036 
C 382.994459 302.506826 387.62175 279.243864 387.62175 255.752479 
C 387.62175 232.261093 382.994459 208.998131 374.004695 187.294921 
C 365.014931 165.591711 351.837522 145.870324 335.226604 129.259406 
C 318.615686 112.648488 298.894299 99.471079 277.191089 90.481315 
C 255.487879 81.491551 232.224917 76.86426 208.733531 76.86426 
" style="fill: none; stroke: #000000; stroke-width: 0.8; stroke-linejoin: miter; stroke-linecap: square"/>
   </g>
   <g id="text_18">
    <!-- Totaal mannen en vrouwen, Totaal leeftijd, median -->
    <g transform="translate(82.442125 35.086616) scale(0.1 -0.1)">
     <defs>
      <path id="DejaVuSans-54" d="M -19 4666 
L 3928 4666 
L 3928 4134 
L 2272 4134 
L 2272 0 
L 1638 0 
L 1638 4134 
L -19 4134 
L -19 4666 
z
" transform="scale(0.015625)"/>
      <path id="DejaVuSans-20" transform="scale(0.015625)"/>
      <path id="DejaVuSans-6d" d="M 3328 2828 
Q 3544 3216 3844 3400 
Q 4144 3584 4550 3584 
Q 5097 3584 5394 3201 
Q 5691 2819 5691 2113 
L 5691 0 
L 5113 0 
L 5113 2094 
Q 5113 2597 4934 2840 
Q 4756 3084 4391 3084 
Q 3944 3084 3684 2787 
Q 3425 2491 3425 1978 
L 3425 0 
L 2847 0 
L 2847 2094 
Q 2847 2600 2669 2842 
Q 2491 3084 2119 3084 
Q 1678 3084 1418 2786 
Q 1159 2488 1159 1978 
L 1159 0 
L 581 0 
L 581 3500 
L 1159 3500 
L 1159 2956 
Q 1356 3278 1631 3431 
Q 1906 3584 2284 3584 
Q 2666 3584 2933 3390 
Q 3200 3197 3328 2828 
z
" transform="scale(0.015625)"/>
      <path id="DejaVuSans-77" d="M 269 3500 
L 844 3500 
L 1563 769 
L 2278 3500 
L 2956 3500 
L 3675 769 
L 4391 3500 
L 4966 3500 
L 4050 0 
L 3372 0 
L 2619 2869 
L 1863 0 
L 1184 0 
L 269 3500 
z
" transform="scale(0.015625)"/>
      <path id="DejaVuSans-2c" d="M 750 794 
L 1409 794 
L 1409 256 
L 897 -744 
L 494 -744 
L 750 256 
L 750 794 
z
" transform="scale(0.015625)"/>
      <path id="DejaVuSans-66" d="M 2375 4863 
L 2375 4384 
L 1825 4384 
Q 1516 4384 1395 4259 
Q 1275 4134 1275 3809 
L 1275 3500 
L 2222 3500 
L 2222 3053 
L 1275 3053 
L 1275 0 
L 697 0 
L 697 3053 
L 147 3053 
L 147 3500 
L 697 3500 
L 697 3744 
Q 697 4328 969 4595 
Q 1241 4863 1831 4863 
L 2375 4863 
z
" transform="scale(0.015625)"/>
      <path id="DejaVuSans-69" d="M 603 3500 
L 1178 3500 
L 1178 0 
L 603 0 
L 603 3500 
z
M 603 4863 
L 1178 4863 
L 1178 4134 
L 603 4134 
L 603 4863 
z
" transform="scale(0.015625)"/>
      <path id="DejaVuSans-6a" d="M 603 3500 
L 1178 3500 
L 1178 -63 
Q 1178 -731 923 -1031 
Q 669 -1331 103 -1331 
L -116 -1331 
L -116 -844 
L 38 -844 
Q 366 -844 484 -692 
Q 603 -541 603 -63 
L 603 3500 
z
M 603 4863 
L 1178 4863 
L 1178 4134 
L 603 4134 
L 603 4863 
z
" transform="scale(0.015625)"/>
      <path id="DejaVuSans-64" d="M 2906 2969 
L 2906 4863 
L 3481 4863 
L 3481 0 
L 2906 0 
L 2906 525 
Q 2725 213 2448 61 
Q 2172 -91 1784 -91 
Q 1150 -91 751 415 
Q 353 922 353 1747 
Q 353 2572 751 3078 
Q 1150 3584 1784 3584 
Q 2172 3584 2448 3432 
Q 2725 3281 2906 2969 
z
M 947 1747 
Q 947 1113 1208 752 
Q 1469 391 1925 391 
Q 2381 391 2643 752 
Q 2906 1113 2906 1747 
Q 2906 2381 2643 2742 
Q 2381 3103 1925 3103 
Q 1469 3103 1208 2742 
Q 947 2381 947 1747 
z
" transform="scale(0.015625)"/>
     </defs>
     <use xlink:href="#DejaVuSans-54"/>
     <use xlink:href="#DejaVuSans-6f" transform="translate(44.083984 0)"/>
     <use xlink:href="#DejaVuSans-74" transform="translate(105.265625 0)"/>
     <use xlink:href="#DejaVuSans-61" transform="translate(144.474609 0)"/>
     <use xlink:href="#DejaVuSans-61" transform="translate(205.753906 0)"/>
     <use xlink:href="#DejaVuSans-6c" transform="translate(267.033203 0)"/>
     <use xlink:href="#DejaVuSans-20" transform="translate(294.816406 0)"/>
     <use xlink:href="#DejaVuSans-6d" transform="translate(326.603516 0)"/>
     <use xlink:href="#DejaVuSans-61" transform="translate(424.015625 0)"/>
     <use xlink:href="#DejaVuSans-6e" transform="translate(485.294922 0)"/>
     <use xlink:href="#DejaVuSans-6e" transform="translate(548.673828 0)"/>
     <use xlink:href="#DejaVuSans-65" transform="translate(612.052734 0)"/>
     <use xlink:href="#DejaVuSans-6e" transform="translate(673.576172 0)"/>
     <use xlink:href="#DejaVuSans-20" transform="translate(736.955078 0)"/>
     <use xlink:href="#DejaVuSans-65" transform="translate(768.742188 0)"/>
     <use xlink:href="#DejaVuSans-6e" transform="translate(830.265625 0)"/>
     <use xlink:href="#DejaVuSans-20" transform="translate(893.644531 0)"/>
     <use xlink:href="#DejaVuSans-76" transform="translate(925.431641 0)"/>
     <use xlink:href="#DejaVuSans-72" transform="translate(984.611328 0)"/>
     <use xlink:href="#DejaVuSans-6f" transform="translate(1023.474609 0)"/>
     <use xlink:href="#DejaVuSans-75" transform="translate(1084.65625 0)"/>
     <use xlink:href="#DejaVuSans-77" transform="translate(1148.035156 0)"/>
     <use xlink:href="#DejaVuSans-65" transform="translate(1229.822266 0)"/>
     <use xlink:href="#DejaVuSans-6e" transform="translate(1291.345703 0)"/>
     <use xlink:href="#DejaVuSans-2c" transform="translate(1354.724609 0)"/>
     <use xlink:href="#DejaVuSans-20" transform="translate(1386.511719 0)"/>
     <use xlink:href="#DejaVuSans-54" transform="translate(1418.298828 0)"/>
     <use xlink:href="#DejaVuSans-6f" transform="translate(1462.382812 0)"/>
     <use xlink:href="#DejaVuSans-74" transform="translate(1523.564453 0)"/>
     <use xlink:href="#DejaVuSans-61" transform="translate(1562.773438 0)"/>
     <use xlink:href="#DejaVuSans-61" transform="translate(1624.052734 0)"/>
     <use xlink:href="#DejaVuSans-6c" transform="translate(1685.332031 0)"/>
     <use xlink:href="#DejaVuSans-20" transform="translate(1713.115234 0)"/>
     <use xlink:href="#DejaVuSans-6c" transform="translate(1744.902344 0)"/>
     <use xlink:href="#DejaVuSans-65" transform="translate(1772.685547 0)"/>
     <use xlink:href="#DejaVuSans-65" transform="translate(1834.208984 0)"/>
     <use xlink:href="#DejaVuSans-66" transform="translate(1895.732422 0)"/>
     <use xlink:href="#DejaVuSans-74" transform="translate(1929.1875 0)"/>
     <use xlink:href="#DejaVuSans-69" transform="translate(1968.396484 0)"/>
     <use xlink:href="#DejaVuSans-6a" transform="translate(1996.179688 0)"/>
     <use xlink:href="#DejaVuSans-64" transform="translate(2023.962891 0)"/>
     <use xlink:href="#DejaVuSans-2c" transform="translate(2087.439453 0)"/>
     <use xlink:href="#DejaVuSans-20" transform="translate(2119.226562 0)"/>
     <use xlink:href="#DejaVuSans-6d" transform="translate(2151.013672 0)"/>
     <use xlink:href="#DejaVuSans-65" transform="translate(2248.425781 0)"/>
     <use xlink:href="#DejaVuSans-64" transform="translate(2309.949219 0)"/>
     <use xlink:href="#DejaVuSans-69" transform="translate(2373.425781 0)"/>
     <use xlink:href="#DejaVuSans-61" transform="translate(2401.208984 0)"/>
     <use xlink:href="#DejaVuSans-6e" transform="translate(2462.488281 0)"/>
    </g>
   </g>
  </g>
  <g id="text_19">
   <!-- Deaths per week in the Netherlands (since 2015) -->
   <g transform="translate(36.325719 17.837812) scale(0.14 -0.14)">
    <defs>
     <path id="DejaVuSans-68" d="M 3513 2113 
L 3513 0 
L 2938 0 
L 2938 2094 
Q 2938 2591 2744 2837 
Q 2550 3084 2163 3084 
Q 1697 3084 1428 2787 
Q 1159 2491 1159 1978 
L 1159 0 
L 581 0 
L 581 4863 
L 1159 4863 
L 1159 2956 
Q 1366 3272 1645 3428 
Q 1925 3584 2291 3584 
Q 2894 3584 3203 3211 
Q 3513 2838 3513 2113 
z
" transform="scale(0.015625)"/>
     <path id="DejaVuSans-73" d="M 2834 3397 
L 2834 2853 
Q 2591 2978 2328 3040 
Q 2066 3103 1784 3103 
Q 1356 3103 1142 2972 
Q 928 2841 928 2578 
Q 928 2378 1081 2264 
Q 1234 2150 1697 2047 
L 1894 2003 
Q 2506 1872 2764 1633 
Q 3022 1394 3022 966 
Q 3022 478 2636 193 
Q 2250 -91 1575 -91 
Q 1294 -91 989 -36 
Q 684 19 347 128 
L 347 722 
Q 666 556 975 473 
Q 1284 391 1588 391 
Q 1994 391 2212 530 
Q 2431 669 2431 922 
Q 2431 1156 2273 1281 
Q 2116 1406 1581 1522 
L 1381 1569 
Q 847 1681 609 1914 
Q 372 2147 372 2553 
Q 372 3047 722 3315 
Q 1072 3584 1716 3584 
Q 2034 3584 2315 3537 
Q 2597 3491 2834 3397 
z
" transform="scale(0.015625)"/>
     <path id="DejaVuSans-6b" d="M 581 4863 
L 1159 4863 
L 1159 1991 
L 2875 3500 
L 3609 3500 
L 1753 1863 
L 3688 0 
L 2938 0 
L 1159 1709 
L 1159 0 
L 581 0 
L 581 4863 
z
" transform="scale(0.015625)"/>
     <path id="DejaVuSans-28" d="M 1984 4856 
Q 1566 4138 1362 3434 
Q 1159 2731 1159 2009 
Q 1159 1288 1364 580 
Q 1569 -128 1984 -844 
L 1484 -844 
Q 1016 -109 783 600 
Q 550 1309 550 2009 
Q 550 2706 781 3412 
Q 1013 4119 1484 4856 
L 1984 4856 
z
" transform="scale(0.015625)"/>
     <path id="DejaVuSans-29" d="M 513 4856 
L 1013 4856 
Q 1481 4119 1714 3412 
Q 1947 2706 1947 2009 
Q 1947 1309 1714 600 
Q 1481 -109 1013 -844 
L 513 -844 
Q 928 -128 1133 580 
Q 1338 1288 1338 2009 
Q 1338 2731 1133 3434 
Q 928 4138 513 4856 
z
" transform="scale(0.015625)"/>
    </defs>
    <use xlink:href="#DejaVuSans-44"/>
    <use xlink:href="#DejaVuSans-65" transform="translate(77.001953 0)"/>
    <use xlink:href="#DejaVuSans-61" transform="translate(138.525391 0)"/>
    <use xlink:href="#DejaVuSans-74" transform="translate(199.804688 0)"/>
    <use xlink:href="#DejaVuSans-68" transform="translate(239.013672 0)"/>
    <use xlink:href="#DejaVuSans-73" transform="translate(302.392578 0)"/>
    <use xlink:href="#DejaVuSans-20" transform="translate(354.492188 0)"/>
    <use xlink:href="#DejaVuSans-70" transform="translate(386.279297 0)"/>
    <use xlink:href="#DejaVuSans-65" transform="translate(449.755859 0)"/>
    <use xlink:href="#DejaVuSans-72" transform="translate(511.279297 0)"/>
    <use xlink:href="#DejaVuSans-20" transform="translate(552.392578 0)"/>
    <use xlink:href="#DejaVuSans-77" transform="translate(584.179688 0)"/>
    <use xlink:href="#DejaVuSans-65" transform="translate(665.966797 0)"/>
    <use xlink:href="#DejaVuSans-65" transform="translate(727.490234 0)"/>
    <use xlink:href="#DejaVuSans-6b" transform="translate(789.013672 0)"/>
    <use xlink:href="#DejaVuSans-20" transform="translate(846.923828 0)"/>
    <use xlink:href="#DejaVuSans-69" transform="translate(878.710938 0)"/>
    <use xlink:href="#DejaVuSans-6e" transform="translate(906.494141 0)"/>
    <use xlink:href="#DejaVuSans-20" transform="translate(969.873047 0)"/>
    <use xlink:href="#DejaVuSans-74" transform="translate(1001.660156 0)"/>
    <use xlink:href="#DejaVuSans-68" transform="translate(1040.869141 0)"/>
    <use xlink:href="#DejaVuSans-65" transform="translate(1104.248047 0)"/>
    <use xlink:href="#DejaVuSans-20" transform="translate(1165.771484 0)"/>
    <use xlink:href="#DejaVuSans-4e" transform="translate(1197.558594 0)"/>
    <use xlink:href="#DejaVuSans-65" transform="translate(1272.363281 0)"/>
    <use xlink:href="#DejaVuSans-74" transform="translate(1333.886719 0)"/>
    <use xlink:href="#DejaVuSans-68" transform="translate(1373.095703 0)"/>
    <use xlink:href="#DejaVuSans-65" transform="translate(1436.474609 0)"/>
    <use xlink:href="#DejaVuSans-72" transform="translate(1497.998047 0)"/>
    <use xlink:href="#DejaVuSans-6c" transform="translate(1539.111328 0)"/>
    <use xlink:href="#DejaVuSans-61" transform="translate(1566.894531 0)"/>
    <use xlink:href="#DejaVuSans-6e" transform="translate(1628.173828 0)"/>
    <use xlink:href="#DejaVuSans-64" transform="translate(1691.552734 0)"/>
    <use xlink:href="#DejaVuSans-73" transform="translate(1755.029297 0)"/>
    <use xlink:href="#DejaVuSans-20" transform="translate(1807.128906 0)"/>
    <use xlink:href="#DejaVuSans-28" transform="translate(1838.916016 0)"/>
    <use xlink:href="#DejaVuSans-73" transform="translate(1877.929688 0)"/>
    <use xlink:href="#DejaVuSans-69" transform="translate(1930.029297 0)"/>
    <use xlink:href="#DejaVuSans-6e" transform="translate(1957.8125 0)"/>
    <use xlink:href="#DejaVuSans-63" transform="translate(2021.191406 0)"/>
    <use xlink:href="#DejaVuSans-65" transform="translate(2076.171875 0)"/>
    <use xlink:href="#DejaVuSans-20" transform="translate(2137.695312 0)"/>
    <use xlink:href="#DejaVuSans-32" transform="translate(2169.482422 0)"/>
    <use xlink:href="#DejaVuSans-30" transform="translate(2233.105469 0)"/>
    <use xlink:href="#DejaVuSans-31" transform="translate(2296.728516 0)"/>
    <use xlink:href="#DejaVuSans-35" transform="translate(2360.351562 0)"/>
    <use xlink:href="#DejaVuSans-29" transform="translate(2423.974609 0)"/>
   </g>
  </g>
  <g id="legend_1">
   <g id="patch_4">
    <path d="M 418.146031 455.67976 
L 491.933531 455.67976 
Q 493.933531 455.67976 493.933531 453.67976 
L 493.933531 366.61101 
Q 493.933531 364.61101 491.933531 364.61101 
L 418.146031 364.61101 
Q 416.146031 364.61101 416.146031 366.61101 
L 416.146031 453.67976 
Q 416.146031 455.67976 418.146031 455.67976 
z
" style="fill: #ffffff; opacity: 0.8; stroke: #cccccc; stroke-linejoin: miter"/>
   </g>
   <g id="patch_5">
    <path d="M 420.146031 376.209448 
L 440.146031 376.209448 
L 440.146031 369.209448 
L 420.146031 369.209448 
z
" style="fill: #1f77b4; fill-opacity: 0.3; stroke: #1f77b4; stroke-opacity: 0.3; stroke-linejoin: miter"/>
   </g>
   <g id="text_20">
    <!-- SD -->
    <g transform="translate(448.146031 376.209448) scale(0.1 -0.1)">
     <use xlink:href="#DejaVuSans-53"/>
     <use xlink:href="#DejaVuSans-44" transform="translate(63.476562 0)"/>
    </g>
   </g>
   <g id="patch_6">
    <path d="M 420.146031 390.887573 
L 440.146031 390.887573 
L 440.146031 383.887573 
L 420.146031 383.887573 
z
" style="fill: #1f77b4; fill-opacity: 0.2"/>
   </g>
   <g id="text_21">
    <!-- Min/Max -->
    <g transform="translate(448.146031 390.887573) scale(0.1 -0.1)">
     <defs>
      <path id="DejaVuSans-2f" d="M 1625 4666 
L 2156 4666 
L 531 -594 
L 0 -594 
L 1625 4666 
z
" transform="scale(0.015625)"/>
      <path id="DejaVuSans-78" d="M 3513 3500 
L 2247 1797 
L 3578 0 
L 2900 0 
L 1881 1375 
L 863 0 
L 184 0 
L 1544 1831 
L 300 3500 
L 978 3500 
L 1906 2253 
L 2834 3500 
L 3513 3500 
z
" transform="scale(0.015625)"/>
     </defs>
     <use xlink:href="#DejaVuSans-4d"/>
     <use xlink:href="#DejaVuSans-69" transform="translate(86.279297 0)"/>
     <use xlink:href="#DejaVuSans-6e" transform="translate(114.0625 0)"/>
     <use xlink:href="#DejaVuSans-2f" transform="translate(177.441406 0)"/>
     <use xlink:href="#DejaVuSans-4d" transform="translate(211.132812 0)"/>
     <use xlink:href="#DejaVuSans-61" transform="translate(297.412109 0)"/>
     <use xlink:href="#DejaVuSans-78" transform="translate(358.691406 0)"/>
    </g>
   </g>
   <g id="line2d_22">
    <path d="M 420.146031 402.065697 
L 430.146031 402.065697 
L 440.146031 402.065697 
" style="fill: none; stroke-dasharray: 5.55,2.4; stroke-dashoffset: 0; stroke: #1f77b4; stroke-width: 1.5"/>
   </g>
   <g id="text_22">
    <!-- Median -->
    <g transform="translate(448.146031 405.565697) scale(0.1 -0.1)">
     <use xlink:href="#DejaVuSans-4d"/>
     <use xlink:href="#DejaVuSans-65" transform="translate(86.279297 0)"/>
     <use xlink:href="#DejaVuSans-64" transform="translate(147.802734 0)"/>
     <use xlink:href="#DejaVuSans-69" transform="translate(211.279297 0)"/>
     <use xlink:href="#DejaVuSans-61" transform="translate(239.0625 0)"/>
     <use xlink:href="#DejaVuSans-6e" transform="translate(300.341797 0)"/>
    </g>
   </g>
   <g id="line2d_23">
    <path d="M 420.146031 416.743823 
L 430.146031 416.743823 
L 440.146031 416.743823 
" style="fill: none; stroke-dasharray: 1.5,2.475; stroke-dashoffset: 0; stroke: #ff7f0e; stroke-width: 1.5"/>
   </g>
   <g id="text_23">
    <!-- 2023 -->
    <g transform="translate(448.146031 420.243823) scale(0.1 -0.1)">
     <use xlink:href="#DejaVuSans-32"/>
     <use xlink:href="#DejaVuSans-30" transform="translate(63.623047 0)"/>
     <use xlink:href="#DejaVuSans-32" transform="translate(127.246094 0)"/>
     <use xlink:href="#DejaVuSans-33" transform="translate(190.869141 0)"/>
    </g>
   </g>
   <g id="line2d_24">
    <path d="M 420.146031 431.421947 
L 430.146031 431.421947 
L 440.146031 431.421947 
" style="fill: none; stroke: #ff7f0e; stroke-width: 1.5; stroke-linecap: square"/>
   </g>
   <g id="text_24">
    <!-- 2024 -->
    <g transform="translate(448.146031 434.921947) scale(0.1 -0.1)">
     <use xlink:href="#DejaVuSans-32"/>
     <use xlink:href="#DejaVuSans-30" transform="translate(63.623047 0)"/>
     <use xlink:href="#DejaVuSans-32" transform="translate(127.246094 0)"/>
     <use xlink:href="#DejaVuSans-34" transform="translate(190.869141 0)"/>
    </g>
   </g>
   <g id="line2d_25">
    <path d="M 420.146031 446.100073 
L 430.146031 446.100073 
L 440.146031 446.100073 
" style="fill: none; stroke: #2ca02c; stroke-width: 2; stroke-linecap: square"/>
   </g>
   <g id="text_25">
    <!-- 2025 -->
    <g transform="translate(448.146031 449.600073) scale(0.1 -0.1)">
     <use xlink:href="#DejaVuSans-32"/>
     <use xlink:href="#DejaVuSans-30" transform="translate(63.623047 0)"/>
     <use xlink:href="#DejaVuSans-32" transform="translate(127.246094 0)"/>
     <use xlink:href="#DejaVuSans-35" transform="translate(190.869141 0)"/>
    </g>
   </g>
  </g>
 </g>
 <defs>
  <clipPath id="p3231d5d7f5">
   <path d="M 387.62175 255.752479 
C 387.62175 232.261093 382.994459 208.998131 374.004695 187.294921 
C 365.014931 165.591711 351.837522 145.870324 335.226604 129.259406 
C 318.615686 112.648488 298.894299 99.471079 277.191089 90.481315 
C 255.487879 81.491551 232.224917 76.86426 208.733531 76.86426 
C 185.242146 76.86426 161.979184 81.491551 140.275974 90.481315 
C 118.572763 99.471079 98.851377 112.648488 82.240459 129.259406 
C 65.629541 145.870324 52.452131 165.591711 43.462367 187.294921 
C 34.472603 208.998131 29.845312 232.261093 29.845312 255.752479 
C 29.845312 279.243864 34.472603 302.506826 43.462367 324.210036 
C 52.452131 345.913247 65.629541 365.634633 82.240459 382.245551 
C 98.851377 398.856469 118.572763 412.033879 140.275974 421.023643 
C 161.979184 430.013407 185.242146 434.640697 208.733531 434.640697 
C 232.224917 434.640697 255.487879 430.013407 277.191089 421.023643 
C 298.894299 412.033879 318.615686 398.856469 335.226604 382.245551 
C 351.837522 365.634633 365.014931 345.913247 374.004695 324.210036 
C 382.994459 302.506826 387.62175 279.243864 387.62175 255.752479 
M 208.733531 255.752479 
C 208.733531 255.752479 208.733531 255.752479 208.733531 255.752479 
C 208.733531 255.752479 208.733531 255.752479 208.733531 255.752479 
C 208.733531 255.752479 208.733531 255.752479 208.733531 255.752479 
C 208.733531 255.752479 208.733531 255.752479 208.733531 255.752479 
C 208.733531 255.752479 208.733531 255.752479 208.733531 255.752479 
C 208.733531 255.752479 208.733531 255.752479 208.733531 255.752479 
C 208.733531 255.752479 208.733531 255.752479 208.733531 255.752479 
C 208.733531 255.752479 208.733531 255.752479 208.733531 255.752479 
C 208.733531 255.752479 208.733531 255.752479 208.733531 255.752479 
C 208.733531 255.752479 208.733531 255.752479 208.733531 255.752479 
C 208.733531 255.752479 208.733531 255.752479 208.733531 255.752479 
C 208.733531 255.752479 208.733531 255.752479 208.733531 255.752479 
C 208.733531 255.752479 208.733531 255.752479 208.733531 255.752479 
C 208.733531 255.752479 208.733531 255.752479 208.733531 255.752479 
C 208.733531 255.752479 208.733531 255.752479 208.733531 255.752479 
C 208.733531 255.752479 208.733531 255.752479 208.733531 255.752479 
z
"/>
  </clipPath>
 </defs>
</svg>
