<?xml version="1.0" encoding="utf-8" standalone="no"?>
<!DOCTYPE svg PUBLIC "-//W3C//DTD SVG 1.1//EN"
  "http://www.w3.org/Graphics/SVG/1.1/DTD/svg11.dtd">
<svg xmlns:xlink="http://www.w3.org/1999/xlink" width="498.933531pt" height="460.67976pt" viewBox="0 0 498.933531 460.67976" xmlns="http://www.w3.org/2000/svg" version="1.1">
 <metadata>
  <rdf:RDF xmlns:dc="http://purl.org/dc/elements/1.1/" xmlns:cc="http://creativecommons.org/ns#" xmlns:rdf="http://www.w3.org/1999/02/22-rdf-syntax-ns#">
   <cc:Work>
    <dc:type rdf:resource="http://purl.org/dc/dcmitype/StillImage"/>
    <dc:date>2022-03-15T02:42:13.127897</dc:date>
    <dc:format>image/svg+xml</dc:format>
    <dc:creator>
     <cc:Agent>
      <dc:title>Matplotlib v3.5.1, https://matplotlib.org/</dc:title>
     </cc:Agent>
    </dc:creator>
   </cc:Work>
  </rdf:RDF>
 </metadata>
 <defs>
  <style type="text/css">*{stroke-linejoin: round; stroke-linecap: butt}</style>
 </defs>
 <g id="figure_1">
  <g id="patch_1">
   <path d="M 0 460.67976 
L 498.933531 460.67976 
L 498.933531 0 
L 0 0 
z
" style="fill: #ffffff"/>
  </g>
  <g id="axes_1">
   <g id="patch_2">
    <path d="M 387.62175 255.752479 
C 387.62175 232.261093 382.994459 208.998131 374.004695 187.294921 
C 365.014931 165.591711 351.837522 145.870324 335.226604 129.259406 
C 318.615686 112.648488 298.894299 99.471079 277.191089 90.481315 
C 255.487879 81.491551 232.224917 76.86426 208.733531 76.86426 
C 185.242146 76.86426 161.979184 81.491551 140.275974 90.481315 
C 118.572763 99.471079 98.851377 112.648488 82.240459 129.259406 
C 65.629541 145.870324 52.452131 165.591711 43.462367 187.294921 
C 34.472603 208.998131 29.845313 232.261093 29.845313 255.752479 
C 29.845313 279.243864 34.472603 302.506826 43.462367 324.210036 
C 52.452131 345.913247 65.629541 365.634633 82.240459 382.245551 
C 98.851377 398.856469 118.572763 412.033879 140.275974 421.023643 
C 161.979184 430.013407 185.242146 434.640697 208.733531 434.640697 
C 232.224917 434.640697 255.487879 430.013407 277.191089 421.023643 
C 298.894299 412.033879 318.615686 398.856469 335.226604 382.245551 
C 351.837522 365.634633 365.014931 345.913247 374.004695 324.210036 
C 382.994459 302.506826 387.62175 279.243864 387.62175 255.752479 
M 208.733531 255.752479 
C 208.733531 255.752479 208.733531 255.752479 208.733531 255.752479 
C 208.733531 255.752479 208.733531 255.752479 208.733531 255.752479 
C 208.733531 255.752479 208.733531 255.752479 208.733531 255.752479 
C 208.733531 255.752479 208.733531 255.752479 208.733531 255.752479 
C 208.733531 255.752479 208.733531 255.752479 208.733531 255.752479 
C 208.733531 255.752479 208.733531 255.752479 208.733531 255.752479 
C 208.733531 255.752479 208.733531 255.752479 208.733531 255.752479 
C 208.733531 255.752479 208.733531 255.752479 208.733531 255.752479 
C 208.733531 255.752479 208.733531 255.752479 208.733531 255.752479 
C 208.733531 255.752479 208.733531 255.752479 208.733531 255.752479 
C 208.733531 255.752479 208.733531 255.752479 208.733531 255.752479 
C 208.733531 255.752479 208.733531 255.752479 208.733531 255.752479 
C 208.733531 255.752479 208.733531 255.752479 208.733531 255.752479 
C 208.733531 255.752479 208.733531 255.752479 208.733531 255.752479 
C 208.733531 255.752479 208.733531 255.752479 208.733531 255.752479 
C 208.733531 255.752479 208.733531 255.752479 208.733531 255.752479 
M 387.62175 255.752479 
z
" style="fill: #ffffff"/>
   </g>
   <g id="PolyCollection_1">
    <defs>
     <path id="m6a4ff1610c" d="M 208.733531 -301.212068 
L 208.733531 -319.033171 
L 222.797225 -320.752223 
L 236.118152 -316.031055 
L 249.971752 -313.663532 
L 262.560013 -307.485074 
L 274.223462 -299.805826 
L 286.34233 -292.529505 
L 297.52661 -283.591085 
L 306.0347 -272.089429 
L 315.365233 -260.891916 
L 314.872245 -245.180386 
L 313.887779 -230.845476 
L 314.565043 -217.777553 
L 311.215939 -204.927281 
L 308.545917 -192.807864 
L 305.250119 -181.138079 
L 299.751328 -170.408784 
L 292.003008 -161.224088 
L 288.167015 -150.098307 
L 279.201937 -142.497721 
L 271.631874 -133.929729 
L 261.724367 -128.156803 
L 251.156844 -124.096412 
L 240.913733 -120.075063 
L 230.368375 -117.151272 
L 219.874698 -113.171522 
L 208.733531 -110.397663 
L 197.739785 -114.385632 
L 186.348002 -114.10562 
L 174.702223 -115.194095 
L 166.505374 -124.46825 
L 157.113094 -130.142167 
L 149.973947 -138.601422 
L 141.264307 -145.154765 
L 133.714012 -153.145046 
L 129.810255 -163.505151 
L 123.085222 -172.445162 
L 119.909193 -183.034048 
L 116.179985 -193.689246 
L 114.881125 -204.927281 
L 112.100007 -216.660716 
L 116.327811 -227.703246 
L 117.839153 -239.398972 
L 123.397342 -249.715169 
L 127.548561 -260.96522 
L 133.842701 -271.274768 
L 142.02671 -280.223717 
L 151.562045 -287.754478 
L 160.809009 -296.239829 
L 170.331848 -306.184198 
L 183.053562 -309.115013 
L 195.707528 -312.206074 
L 208.733531 -319.033171 
L 208.733531 -301.212068 
L 208.733531 -301.212068 
L 197.443745 -297.907037 
L 185.674424 -298.481755 
L 174.892033 -294.15998 
L 165.432981 -287.429586 
L 155.903127 -281.465336 
L 148.928993 -272.432651 
L 142.549668 -263.561068 
L 136.836124 -254.554478 
L 130.828049 -245.815233 
L 126.621983 -236.068084 
L 123.36738 -225.968148 
L 121.584315 -215.509112 
L 121.83537 -204.927281 
L 124.246912 -194.668748 
L 126.992337 -184.779886 
L 131.587002 -175.669462 
L 133.484791 -165.433696 
L 140.841605 -158.064868 
L 147.74058 -150.892242 
L 153.317794 -142.375844 
L 162.502771 -137.950462 
L 171.016452 -133.063391 
L 179.344771 -127.435489 
L 188.832648 -124.186222 
L 198.551751 -121.072778 
L 208.733531 -116.015511 
L 219.01218 -120.274991 
L 229.011508 -122.656295 
L 238.446228 -126.581339 
L 248.597334 -128.973152 
L 257.891754 -133.709301 
L 265.744929 -140.574717 
L 273.686992 -147.383536 
L 282.140126 -154.258367 
L 285.662299 -164.551949 
L 292.098078 -173.311279 
L 296.244503 -183.357764 
L 298.352153 -194.045611 
L 298.655067 -204.927281 
L 300.584524 -216.080011 
L 297.837982 -226.889556 
L 295.049827 -237.662734 
L 291.085317 -248.148833 
L 285.735642 -258.078 
L 281.468851 -269.365152 
L 272.364877 -276.752223 
L 263.770388 -284.661934 
L 253.043208 -289.352318 
L 242.147003 -293.031366 
L 231.239897 -296.239197 
L 220.28795 -300.086477 
L 208.733531 -301.212068 
z
" style="stroke: #1f77b4; stroke-opacity: 0.3"/>
    </defs>
    <g clip-path="url(#p494bfa0275)">
     <use xlink:href="#m6a4ff1610c" x="0" y="460.67976" style="fill: #1f77b4; fill-opacity: 0.3; stroke: #1f77b4; stroke-opacity: 0.3"/>
    </g>
   </g>
   <g id="PolyCollection_2">
    <path d="M 208.733531 133.604286 
L 208.733531 161.060242 
L 220.176305 161.512762 
L 230.231487 168.531845 
L 240.539469 171.887113 
L 251.816457 173.664822 
L 260.755146 180.386159 
L 268.23437 188.589916 
L 276.664838 195.570593 
L 284.409768 203.516944 
L 291.003066 212.574096 
L 294.711536 223.145322 
L 297.217268 233.943196 
L 296.6181 245.08136 
L 293.360866 255.752479 
L 296.516145 266.411218 
L 294.524863 276.898143 
L 290.998413 286.951433 
L 285.364844 295.971694 
L 282.155822 306.432227 
L 273.436115 313.073966 
L 265.146955 319.430071 
L 256.904574 325.540282 
L 248.173181 330.898454 
L 237.528831 331.679443 
L 228.502802 335.959563 
L 218.979621 340.136618 
L 208.733531 342.46811 
L 198.623616 339.015121 
L 189.390287 334.231105 
L 180.642333 329.822882 
L 172.316686 325.13898 
L 162.915616 322.131188 
L 153.909218 317.636336 
L 150.385895 307.443974 
L 141.960381 301.842656 
L 134.981955 294.460292 
L 134.759157 283.807258 
L 129.290958 275.333314 
L 128.223654 265.528148 
L 124.037727 255.752479 
L 122.514216 245.283558 
L 124.205303 234.918142 
L 128.005114 225.136228 
L 133.890687 216.471924 
L 138.213196 207.075806 
L 144.184696 198.567201 
L 151.026117 190.614274 
L 155.81734 179.09014 
L 167.400651 176.999254 
L 177.291784 172.847403 
L 185.900147 163.113795 
L 198.037654 167.664002 
L 208.733531 161.060242 
L 208.733531 133.604286 
L 208.733531 133.604286 
L 194.996426 142.61724 
L 182.082293 147.624155 
L 169.66807 152.745323 
L 160.336833 163.540274 
L 149.516404 169.961659 
L 140.106658 178.288752 
L 130.321687 186.285647 
L 123.787941 197.118771 
L 122.159548 210.314947 
L 114.36899 219.964729 
L 113.036808 232.165355 
L 109.022269 243.645339 
L 112.67192 255.752479 
L 115.241479 267.104469 
L 118.488097 277.99598 
L 121.507149 288.833082 
L 129.01029 297.594463 
L 130.324385 309.874405 
L 139.520986 317.069444 
L 149.414305 322.710043 
L 155.350604 333.091001 
L 164.823312 339.416412 
L 172.24168 351.973582 
L 185.719905 349.122433 
L 197.340276 349.584379 
L 208.733531 353.251933 
L 220.436274 352.133235 
L 230.788598 345.233403 
L 241.26785 341.538425 
L 252.230104 338.628274 
L 262.719326 333.964405 
L 273.955168 329.372488 
L 281.021051 319.793633 
L 291.904139 313.161004 
L 293.791864 300.394535 
L 303.35415 291.637346 
L 309.648868 280.625875 
L 312.692887 268.37543 
L 312.805982 255.752479 
L 318.334356 242.444529 
L 322.745259 227.651112 
L 328.225673 210.435087 
L 332.774407 190.650805 
L 319.655849 179.188331 
L 303.314615 171.96095 
L 291.821311 161.965763 
L 277.05201 156.776075 
L 265.594084 147.413748 
L 252.751978 139.685373 
L 237.301889 139.846096 
L 223.741597 132.149936 
L 208.733531 133.604286 
z
" clip-path="url(#p494bfa0275)" style="fill: #1f77b4; fill-opacity: 0.2"/>
   </g>
   <g id="matplotlib.axis_1">
    <g id="xtick_1">
     <g id="line2d_1">
      <path d="M 208.733531 255.752479 
L 208.733531 76.86426 
" clip-path="url(#p494bfa0275)" style="fill: none; stroke: #b0b0b0; stroke-width: 0.8; stroke-linecap: square"/>
     </g>
     <g id="text_1">
      <!-- Jan -->
      <g transform="translate(201.025719 65.623635)scale(0.1 -0.1)">
       <defs>
        <path id="DejaVuSans-4a" d="M 628 4666 
L 1259 4666 
L 1259 325 
Q 1259 -519 939 -900 
Q 619 -1281 -91 -1281 
L -331 -1281 
L -331 -750 
L -134 -750 
Q 284 -750 456 -515 
Q 628 -281 628 325 
L 628 4666 
z
" transform="scale(0.015625)"/>
        <path id="DejaVuSans-61" d="M 2194 1759 
Q 1497 1759 1228 1600 
Q 959 1441 959 1056 
Q 959 750 1161 570 
Q 1363 391 1709 391 
Q 2188 391 2477 730 
Q 2766 1069 2766 1631 
L 2766 1759 
L 2194 1759 
z
M 3341 1997 
L 3341 0 
L 2766 0 
L 2766 531 
Q 2569 213 2275 61 
Q 1981 -91 1556 -91 
Q 1019 -91 701 211 
Q 384 513 384 1019 
Q 384 1609 779 1909 
Q 1175 2209 1959 2209 
L 2766 2209 
L 2766 2266 
Q 2766 2663 2505 2880 
Q 2244 3097 1772 3097 
Q 1472 3097 1187 3025 
Q 903 2953 641 2809 
L 641 3341 
Q 956 3463 1253 3523 
Q 1550 3584 1831 3584 
Q 2591 3584 2966 3190 
Q 3341 2797 3341 1997 
z
" transform="scale(0.015625)"/>
        <path id="DejaVuSans-6e" d="M 3513 2113 
L 3513 0 
L 2938 0 
L 2938 2094 
Q 2938 2591 2744 2837 
Q 2550 3084 2163 3084 
Q 1697 3084 1428 2787 
Q 1159 2491 1159 1978 
L 1159 0 
L 581 0 
L 581 3500 
L 1159 3500 
L 1159 2956 
Q 1366 3272 1645 3428 
Q 1925 3584 2291 3584 
Q 2894 3584 3203 3211 
Q 3513 2838 3513 2113 
z
" transform="scale(0.015625)"/>
       </defs>
       <use xlink:href="#DejaVuSans-4a"/>
       <use xlink:href="#DejaVuSans-61" x="29.492188"/>
       <use xlink:href="#DejaVuSans-6e" x="90.771484"/>
      </g>
     </g>
    </g>
    <g id="xtick_2">
     <g id="line2d_2">
      <path d="M 208.733531 255.752479 
L 298.177641 100.830737 
" clip-path="url(#p494bfa0275)" style="fill: none; stroke: #b0b0b0; stroke-width: 0.8; stroke-linecap: square"/>
     </g>
     <g id="text_2">
      <!-- Feb -->
      <g transform="translate(296.326078 91.465756)scale(0.1 -0.1)">
       <defs>
        <path id="DejaVuSans-46" d="M 628 4666 
L 3309 4666 
L 3309 4134 
L 1259 4134 
L 1259 2759 
L 3109 2759 
L 3109 2228 
L 1259 2228 
L 1259 0 
L 628 0 
L 628 4666 
z
" transform="scale(0.015625)"/>
        <path id="DejaVuSans-65" d="M 3597 1894 
L 3597 1613 
L 953 1613 
Q 991 1019 1311 708 
Q 1631 397 2203 397 
Q 2534 397 2845 478 
Q 3156 559 3463 722 
L 3463 178 
Q 3153 47 2828 -22 
Q 2503 -91 2169 -91 
Q 1331 -91 842 396 
Q 353 884 353 1716 
Q 353 2575 817 3079 
Q 1281 3584 2069 3584 
Q 2775 3584 3186 3129 
Q 3597 2675 3597 1894 
z
M 3022 2063 
Q 3016 2534 2758 2815 
Q 2500 3097 2075 3097 
Q 1594 3097 1305 2825 
Q 1016 2553 972 2059 
L 3022 2063 
z
" transform="scale(0.015625)"/>
        <path id="DejaVuSans-62" d="M 3116 1747 
Q 3116 2381 2855 2742 
Q 2594 3103 2138 3103 
Q 1681 3103 1420 2742 
Q 1159 2381 1159 1747 
Q 1159 1113 1420 752 
Q 1681 391 2138 391 
Q 2594 391 2855 752 
Q 3116 1113 3116 1747 
z
M 1159 2969 
Q 1341 3281 1617 3432 
Q 1894 3584 2278 3584 
Q 2916 3584 3314 3078 
Q 3713 2572 3713 1747 
Q 3713 922 3314 415 
Q 2916 -91 2278 -91 
Q 1894 -91 1617 61 
Q 1341 213 1159 525 
L 1159 0 
L 581 0 
L 581 4863 
L 1159 4863 
L 1159 2969 
z
" transform="scale(0.015625)"/>
       </defs>
       <use xlink:href="#DejaVuSans-46"/>
       <use xlink:href="#DejaVuSans-65" x="52.019531"/>
       <use xlink:href="#DejaVuSans-62" x="113.542969"/>
      </g>
     </g>
    </g>
    <g id="xtick_3">
     <g id="line2d_3">
      <path d="M 208.733531 255.752479 
L 363.655273 166.308369 
" clip-path="url(#p494bfa0275)" style="fill: none; stroke: #b0b0b0; stroke-width: 0.8; stroke-linecap: square"/>
     </g>
     <g id="text_3">
      <!-- Mar -->
      <g transform="translate(366.346035 162.067744)scale(0.1 -0.1)">
       <defs>
        <path id="DejaVuSans-4d" d="M 628 4666 
L 1569 4666 
L 2759 1491 
L 3956 4666 
L 4897 4666 
L 4897 0 
L 4281 0 
L 4281 4097 
L 3078 897 
L 2444 897 
L 1241 4097 
L 1241 0 
L 628 0 
L 628 4666 
z
" transform="scale(0.015625)"/>
        <path id="DejaVuSans-72" d="M 2631 2963 
Q 2534 3019 2420 3045 
Q 2306 3072 2169 3072 
Q 1681 3072 1420 2755 
Q 1159 2438 1159 1844 
L 1159 0 
L 581 0 
L 581 3500 
L 1159 3500 
L 1159 2956 
Q 1341 3275 1631 3429 
Q 1922 3584 2338 3584 
Q 2397 3584 2469 3576 
Q 2541 3569 2628 3553 
L 2631 2963 
z
" transform="scale(0.015625)"/>
       </defs>
       <use xlink:href="#DejaVuSans-4d"/>
       <use xlink:href="#DejaVuSans-61" x="86.279297"/>
       <use xlink:href="#DejaVuSans-72" x="147.558594"/>
      </g>
     </g>
    </g>
    <g id="xtick_4">
     <g id="line2d_4">
      <path d="M 208.733531 255.752479 
L 387.62175 255.752479 
" clip-path="url(#p494bfa0275)" style="fill: none; stroke: #b0b0b0; stroke-width: 0.8; stroke-linecap: square"/>
     </g>
     <g id="text_4">
      <!-- Apr -->
      <g transform="translate(392.97175 258.511854)scale(0.1 -0.1)">
       <defs>
        <path id="DejaVuSans-41" d="M 2188 4044 
L 1331 1722 
L 3047 1722 
L 2188 4044 
z
M 1831 4666 
L 2547 4666 
L 4325 0 
L 3669 0 
L 3244 1197 
L 1141 1197 
L 716 0 
L 50 0 
L 1831 4666 
z
" transform="scale(0.015625)"/>
        <path id="DejaVuSans-70" d="M 1159 525 
L 1159 -1331 
L 581 -1331 
L 581 3500 
L 1159 3500 
L 1159 2969 
Q 1341 3281 1617 3432 
Q 1894 3584 2278 3584 
Q 2916 3584 3314 3078 
Q 3713 2572 3713 1747 
Q 3713 922 3314 415 
Q 2916 -91 2278 -91 
Q 1894 -91 1617 61 
Q 1341 213 1159 525 
z
M 3116 1747 
Q 3116 2381 2855 2742 
Q 2594 3103 2138 3103 
Q 1681 3103 1420 2742 
Q 1159 2381 1159 1747 
Q 1159 1113 1420 752 
Q 1681 391 2138 391 
Q 2594 391 2855 752 
Q 3116 1113 3116 1747 
z
" transform="scale(0.015625)"/>
       </defs>
       <use xlink:href="#DejaVuSans-41"/>
       <use xlink:href="#DejaVuSans-70" x="68.408203"/>
       <use xlink:href="#DejaVuSans-72" x="131.884766"/>
      </g>
     </g>
    </g>
    <g id="xtick_5">
     <g id="line2d_5">
      <path d="M 208.733531 255.752479 
L 363.655273 345.196588 
" clip-path="url(#p494bfa0275)" style="fill: none; stroke: #b0b0b0; stroke-width: 0.8; stroke-linecap: square"/>
     </g>
     <g id="text_5">
      <!-- May -->
      <g transform="translate(365.442129 354.955963)scale(0.1 -0.1)">
       <defs>
        <path id="DejaVuSans-79" d="M 2059 -325 
Q 1816 -950 1584 -1140 
Q 1353 -1331 966 -1331 
L 506 -1331 
L 506 -850 
L 844 -850 
Q 1081 -850 1212 -737 
Q 1344 -625 1503 -206 
L 1606 56 
L 191 3500 
L 800 3500 
L 1894 763 
L 2988 3500 
L 3597 3500 
L 2059 -325 
z
" transform="scale(0.015625)"/>
       </defs>
       <use xlink:href="#DejaVuSans-4d"/>
       <use xlink:href="#DejaVuSans-61" x="86.279297"/>
       <use xlink:href="#DejaVuSans-79" x="147.558594"/>
      </g>
     </g>
    </g>
    <g id="xtick_6">
     <g id="line2d_6">
      <path d="M 208.733531 255.752479 
L 298.177641 410.674221 
" clip-path="url(#p494bfa0275)" style="fill: none; stroke: #b0b0b0; stroke-width: 0.8; stroke-linecap: square"/>
     </g>
     <g id="text_6">
      <!-- Jun -->
      <g transform="translate(297.365141 425.557951)scale(0.1 -0.1)">
       <defs>
        <path id="DejaVuSans-75" d="M 544 1381 
L 544 3500 
L 1119 3500 
L 1119 1403 
Q 1119 906 1312 657 
Q 1506 409 1894 409 
Q 2359 409 2629 706 
Q 2900 1003 2900 1516 
L 2900 3500 
L 3475 3500 
L 3475 0 
L 2900 0 
L 2900 538 
Q 2691 219 2414 64 
Q 2138 -91 1772 -91 
Q 1169 -91 856 284 
Q 544 659 544 1381 
z
M 1991 3584 
L 1991 3584 
z
" transform="scale(0.015625)"/>
       </defs>
       <use xlink:href="#DejaVuSans-4a"/>
       <use xlink:href="#DejaVuSans-75" x="29.492188"/>
       <use xlink:href="#DejaVuSans-6e" x="92.871094"/>
      </g>
     </g>
    </g>
    <g id="xtick_7">
     <g id="line2d_7">
      <path d="M 208.733531 255.752479 
L 208.733531 434.640697 
" clip-path="url(#p494bfa0275)" style="fill: none; stroke: #b0b0b0; stroke-width: 0.8; stroke-linecap: square"/>
     </g>
     <g id="text_7">
      <!-- Jul -->
      <g transform="translate(202.700719 451.400072)scale(0.1 -0.1)">
       <defs>
        <path id="DejaVuSans-6c" d="M 603 4863 
L 1178 4863 
L 1178 0 
L 603 0 
L 603 4863 
z
" transform="scale(0.015625)"/>
       </defs>
       <use xlink:href="#DejaVuSans-4a"/>
       <use xlink:href="#DejaVuSans-75" x="29.492188"/>
       <use xlink:href="#DejaVuSans-6c" x="92.871094"/>
      </g>
     </g>
    </g>
    <g id="xtick_8">
     <g id="line2d_8">
      <path d="M 208.733531 255.752479 
L 119.289422 410.674221 
" clip-path="url(#p494bfa0275)" style="fill: none; stroke: #b0b0b0; stroke-width: 0.8; stroke-linecap: square"/>
     </g>
     <g id="text_8">
      <!-- Aug -->
      <g transform="translate(102.526141 425.557951)scale(0.1 -0.1)">
       <defs>
        <path id="DejaVuSans-67" d="M 2906 1791 
Q 2906 2416 2648 2759 
Q 2391 3103 1925 3103 
Q 1463 3103 1205 2759 
Q 947 2416 947 1791 
Q 947 1169 1205 825 
Q 1463 481 1925 481 
Q 2391 481 2648 825 
Q 2906 1169 2906 1791 
z
M 3481 434 
Q 3481 -459 3084 -895 
Q 2688 -1331 1869 -1331 
Q 1566 -1331 1297 -1286 
Q 1028 -1241 775 -1147 
L 775 -588 
Q 1028 -725 1275 -790 
Q 1522 -856 1778 -856 
Q 2344 -856 2625 -561 
Q 2906 -266 2906 331 
L 2906 616 
Q 2728 306 2450 153 
Q 2172 0 1784 0 
Q 1141 0 747 490 
Q 353 981 353 1791 
Q 353 2603 747 3093 
Q 1141 3584 1784 3584 
Q 2172 3584 2450 3431 
Q 2728 3278 2906 2969 
L 2906 3500 
L 3481 3500 
L 3481 434 
z
" transform="scale(0.015625)"/>
       </defs>
       <use xlink:href="#DejaVuSans-41"/>
       <use xlink:href="#DejaVuSans-75" x="68.408203"/>
       <use xlink:href="#DejaVuSans-67" x="131.787109"/>
      </g>
     </g>
    </g>
    <g id="xtick_9">
     <g id="line2d_9">
      <path d="M 208.733531 255.752479 
L 53.811789 345.196588 
" clip-path="url(#p494bfa0275)" style="fill: none; stroke: #b0b0b0; stroke-width: 0.8; stroke-linecap: square"/>
     </g>
     <g id="text_9">
      <!-- Sept -->
      <g transform="translate(30.302277 354.955963)scale(0.1 -0.1)">
       <defs>
        <path id="DejaVuSans-53" d="M 3425 4513 
L 3425 3897 
Q 3066 4069 2747 4153 
Q 2428 4238 2131 4238 
Q 1616 4238 1336 4038 
Q 1056 3838 1056 3469 
Q 1056 3159 1242 3001 
Q 1428 2844 1947 2747 
L 2328 2669 
Q 3034 2534 3370 2195 
Q 3706 1856 3706 1288 
Q 3706 609 3251 259 
Q 2797 -91 1919 -91 
Q 1588 -91 1214 -16 
Q 841 59 441 206 
L 441 856 
Q 825 641 1194 531 
Q 1563 422 1919 422 
Q 2459 422 2753 634 
Q 3047 847 3047 1241 
Q 3047 1584 2836 1778 
Q 2625 1972 2144 2069 
L 1759 2144 
Q 1053 2284 737 2584 
Q 422 2884 422 3419 
Q 422 4038 858 4394 
Q 1294 4750 2059 4750 
Q 2388 4750 2728 4690 
Q 3069 4631 3425 4513 
z
" transform="scale(0.015625)"/>
        <path id="DejaVuSans-74" d="M 1172 4494 
L 1172 3500 
L 2356 3500 
L 2356 3053 
L 1172 3053 
L 1172 1153 
Q 1172 725 1289 603 
Q 1406 481 1766 481 
L 2356 481 
L 2356 0 
L 1766 0 
Q 1100 0 847 248 
Q 594 497 594 1153 
L 594 3053 
L 172 3053 
L 172 3500 
L 594 3500 
L 594 4494 
L 1172 4494 
z
" transform="scale(0.015625)"/>
       </defs>
       <use xlink:href="#DejaVuSans-53"/>
       <use xlink:href="#DejaVuSans-65" x="63.476562"/>
       <use xlink:href="#DejaVuSans-70" x="125"/>
       <use xlink:href="#DejaVuSans-74" x="188.476562"/>
      </g>
     </g>
    </g>
    <g id="xtick_10">
     <g id="line2d_10">
      <path d="M 208.733531 255.752479 
L 29.845313 255.752479 
" clip-path="url(#p494bfa0275)" style="fill: none; stroke: #b0b0b0; stroke-width: 0.8; stroke-linecap: square"/>
     </g>
     <g id="text_10">
      <!-- Oct -->
      <g transform="translate(7.2 258.511854)scale(0.1 -0.1)">
       <defs>
        <path id="DejaVuSans-4f" d="M 2522 4238 
Q 1834 4238 1429 3725 
Q 1025 3213 1025 2328 
Q 1025 1447 1429 934 
Q 1834 422 2522 422 
Q 3209 422 3611 934 
Q 4013 1447 4013 2328 
Q 4013 3213 3611 3725 
Q 3209 4238 2522 4238 
z
M 2522 4750 
Q 3503 4750 4090 4092 
Q 4678 3434 4678 2328 
Q 4678 1225 4090 567 
Q 3503 -91 2522 -91 
Q 1538 -91 948 565 
Q 359 1222 359 2328 
Q 359 3434 948 4092 
Q 1538 4750 2522 4750 
z
" transform="scale(0.015625)"/>
        <path id="DejaVuSans-63" d="M 3122 3366 
L 3122 2828 
Q 2878 2963 2633 3030 
Q 2388 3097 2138 3097 
Q 1578 3097 1268 2742 
Q 959 2388 959 1747 
Q 959 1106 1268 751 
Q 1578 397 2138 397 
Q 2388 397 2633 464 
Q 2878 531 3122 666 
L 3122 134 
Q 2881 22 2623 -34 
Q 2366 -91 2075 -91 
Q 1284 -91 818 406 
Q 353 903 353 1747 
Q 353 2603 823 3093 
Q 1294 3584 2113 3584 
Q 2378 3584 2631 3529 
Q 2884 3475 3122 3366 
z
" transform="scale(0.015625)"/>
       </defs>
       <use xlink:href="#DejaVuSans-4f"/>
       <use xlink:href="#DejaVuSans-63" x="78.710938"/>
       <use xlink:href="#DejaVuSans-74" x="133.691406"/>
      </g>
     </g>
    </g>
    <g id="xtick_11">
     <g id="line2d_11">
      <path d="M 208.733531 255.752479 
L 53.811789 166.308369 
" clip-path="url(#p494bfa0275)" style="fill: none; stroke: #b0b0b0; stroke-width: 0.8; stroke-linecap: square"/>
     </g>
     <g id="text_11">
      <!-- Nov -->
      <g transform="translate(31.928059 162.067744)scale(0.1 -0.1)">
       <defs>
        <path id="DejaVuSans-4e" d="M 628 4666 
L 1478 4666 
L 3547 763 
L 3547 4666 
L 4159 4666 
L 4159 0 
L 3309 0 
L 1241 3903 
L 1241 0 
L 628 0 
L 628 4666 
z
" transform="scale(0.015625)"/>
        <path id="DejaVuSans-6f" d="M 1959 3097 
Q 1497 3097 1228 2736 
Q 959 2375 959 1747 
Q 959 1119 1226 758 
Q 1494 397 1959 397 
Q 2419 397 2687 759 
Q 2956 1122 2956 1747 
Q 2956 2369 2687 2733 
Q 2419 3097 1959 3097 
z
M 1959 3584 
Q 2709 3584 3137 3096 
Q 3566 2609 3566 1747 
Q 3566 888 3137 398 
Q 2709 -91 1959 -91 
Q 1206 -91 779 398 
Q 353 888 353 1747 
Q 353 2609 779 3096 
Q 1206 3584 1959 3584 
z
" transform="scale(0.015625)"/>
        <path id="DejaVuSans-76" d="M 191 3500 
L 800 3500 
L 1894 563 
L 2988 3500 
L 3597 3500 
L 2284 0 
L 1503 0 
L 191 3500 
z
" transform="scale(0.015625)"/>
       </defs>
       <use xlink:href="#DejaVuSans-4e"/>
       <use xlink:href="#DejaVuSans-6f" x="74.804688"/>
       <use xlink:href="#DejaVuSans-76" x="135.986328"/>
      </g>
     </g>
    </g>
    <g id="xtick_12">
     <g id="line2d_12">
      <path d="M 208.733531 255.752479 
L 119.289422 100.830737 
" clip-path="url(#p494bfa0275)" style="fill: none; stroke: #b0b0b0; stroke-width: 0.8; stroke-linecap: square"/>
     </g>
     <g id="text_12">
      <!-- Dec -->
      <g transform="translate(102.613641 91.465756)scale(0.1 -0.1)">
       <defs>
        <path id="DejaVuSans-44" d="M 1259 4147 
L 1259 519 
L 2022 519 
Q 2988 519 3436 956 
Q 3884 1394 3884 2338 
Q 3884 3275 3436 3711 
Q 2988 4147 2022 4147 
L 1259 4147 
z
M 628 4666 
L 1925 4666 
Q 3281 4666 3915 4102 
Q 4550 3538 4550 2338 
Q 4550 1131 3912 565 
Q 3275 0 1925 0 
L 628 0 
L 628 4666 
z
" transform="scale(0.015625)"/>
       </defs>
       <use xlink:href="#DejaVuSans-44"/>
       <use xlink:href="#DejaVuSans-65" x="77.001953"/>
       <use xlink:href="#DejaVuSans-63" x="138.525391"/>
      </g>
     </g>
    </g>
   </g>
   <g id="matplotlib.axis_2">
    <g id="ytick_1">
     <g id="line2d_13">
      <path d="M 208.733531 221.51812 
C 213.229146 221.51812 217.681047 222.403658 221.834453 224.124055 
C 225.98786 225.844452 229.761999 228.366252 232.940879 231.545131 
C 236.119758 234.724011 238.641558 238.49815 240.361955 242.651557 
C 242.082352 246.804963 242.96789 251.256864 242.96789 255.752479 
C 242.96789 260.248093 242.082352 264.699994 240.361955 268.853401 
C 238.641558 273.006807 236.119758 276.780946 232.940879 279.959826 
C 229.761999 283.138706 225.98786 285.660505 221.834453 287.380902 
C 217.681047 289.101299 213.229146 289.986838 208.733531 289.986838 
C 204.237917 289.986838 199.786016 289.101299 195.632609 287.380902 
C 191.479203 285.660505 187.705064 283.138706 184.526184 279.959826 
C 181.347304 276.780946 178.825505 273.006807 177.105108 268.853401 
C 175.384711 264.699994 174.499172 260.248093 174.499172 255.752479 
C 174.499172 251.256864 175.384711 246.804963 177.105108 242.651557 
C 178.825505 238.49815 181.347304 234.724011 184.526184 231.545131 
C 187.705064 228.366252 191.479203 225.844452 195.632609 224.124055 
C 199.786016 222.403658 204.237917 221.51812 208.733531 221.51812 
" clip-path="url(#p494bfa0275)" style="fill: none; stroke: #b0b0b0; stroke-width: 0.8; stroke-linecap: square"/>
     </g>
     <g id="text_13">
      <!-- 1000 -->
      <g transform="translate(208.733531 287.90715)scale(0.1 -0.1)">
       <defs>
        <path id="DejaVuSans-31" d="M 794 531 
L 1825 531 
L 1825 4091 
L 703 3866 
L 703 4441 
L 1819 4666 
L 2450 4666 
L 2450 531 
L 3481 531 
L 3481 0 
L 794 0 
L 794 531 
z
" transform="scale(0.015625)"/>
        <path id="DejaVuSans-30" d="M 2034 4250 
Q 1547 4250 1301 3770 
Q 1056 3291 1056 2328 
Q 1056 1369 1301 889 
Q 1547 409 2034 409 
Q 2525 409 2770 889 
Q 3016 1369 3016 2328 
Q 3016 3291 2770 3770 
Q 2525 4250 2034 4250 
z
M 2034 4750 
Q 2819 4750 3233 4129 
Q 3647 3509 3647 2328 
Q 3647 1150 3233 529 
Q 2819 -91 2034 -91 
Q 1250 -91 836 529 
Q 422 1150 422 2328 
Q 422 3509 836 4129 
Q 1250 4750 2034 4750 
z
" transform="scale(0.015625)"/>
       </defs>
       <use xlink:href="#DejaVuSans-31"/>
       <use xlink:href="#DejaVuSans-30" x="63.623047"/>
       <use xlink:href="#DejaVuSans-30" x="127.246094"/>
       <use xlink:href="#DejaVuSans-30" x="190.869141"/>
      </g>
     </g>
    </g>
    <g id="ytick_2">
     <g id="line2d_14">
      <path d="M 208.733531 187.283761 
C 217.724761 187.283761 226.628562 189.054837 234.935375 192.495632 
C 243.242188 195.936426 250.790467 200.980025 257.148226 207.337784 
C 263.505985 213.695543 268.549584 221.243822 271.990378 229.550635 
C 275.431173 237.857448 277.202249 246.761249 277.202249 255.752479 
C 277.202249 264.743708 275.431173 273.64751 271.990378 281.954323 
C 268.549584 290.261136 263.505985 297.809414 257.148226 304.167173 
C 250.790467 310.524933 243.242188 315.568531 234.935375 319.009326 
C 226.628562 322.45012 217.724761 324.221196 208.733531 324.221196 
C 199.742302 324.221196 190.8385 322.45012 182.531687 319.009326 
C 174.224874 315.568531 166.676596 310.524933 160.318837 304.167173 
C 153.961077 297.809414 148.917479 290.261136 145.476684 281.954323 
C 142.03589 273.64751 140.264814 264.743708 140.264814 255.752479 
C 140.264814 246.761249 142.03589 237.857448 145.476684 229.550635 
C 148.917479 221.243822 153.961077 213.695543 160.318837 207.337784 
C 166.676596 200.980025 174.224874 195.936426 182.531687 192.495632 
C 190.8385 189.054837 199.742302 187.283761 208.733531 187.283761 
" clip-path="url(#p494bfa0275)" style="fill: none; stroke: #b0b0b0; stroke-width: 0.8; stroke-linecap: square"/>
     </g>
     <g id="text_14">
      <!-- 2000 -->
      <g transform="translate(208.733531 322.141509)scale(0.1 -0.1)">
       <defs>
        <path id="DejaVuSans-32" d="M 1228 531 
L 3431 531 
L 3431 0 
L 469 0 
L 469 531 
Q 828 903 1448 1529 
Q 2069 2156 2228 2338 
Q 2531 2678 2651 2914 
Q 2772 3150 2772 3378 
Q 2772 3750 2511 3984 
Q 2250 4219 1831 4219 
Q 1534 4219 1204 4116 
Q 875 4013 500 3803 
L 500 4441 
Q 881 4594 1212 4672 
Q 1544 4750 1819 4750 
Q 2544 4750 2975 4387 
Q 3406 4025 3406 3419 
Q 3406 3131 3298 2873 
Q 3191 2616 2906 2266 
Q 2828 2175 2409 1742 
Q 1991 1309 1228 531 
z
" transform="scale(0.015625)"/>
       </defs>
       <use xlink:href="#DejaVuSans-32"/>
       <use xlink:href="#DejaVuSans-30" x="63.623047"/>
       <use xlink:href="#DejaVuSans-30" x="127.246094"/>
       <use xlink:href="#DejaVuSans-30" x="190.869141"/>
      </g>
     </g>
    </g>
    <g id="ytick_3">
     <g id="line2d_15">
      <path d="M 208.733531 153.049402 
C 222.220376 153.049402 235.576078 155.706016 248.036297 160.867208 
C 260.496517 166.0284 271.818934 173.593798 281.355573 183.130437 
C 290.892212 192.667076 298.45761 203.989493 303.618802 216.449713 
C 308.779994 228.909932 311.436608 242.265634 311.436608 255.752479 
C 311.436608 269.239323 308.779994 282.595025 303.618802 295.055245 
C 298.45761 307.515464 290.892212 318.837881 281.355573 328.374521 
C 271.818934 337.91116 260.496517 345.476557 248.036297 350.637749 
C 235.576078 355.798941 222.220376 358.455555 208.733531 358.455555 
C 195.246687 358.455555 181.890985 355.798941 169.430765 350.637749 
C 156.970546 345.476557 145.648129 337.91116 136.111489 328.374521 
C 126.57485 318.837881 119.009453 307.515464 113.848261 295.055245 
C 108.687069 282.595025 106.030455 269.239323 106.030455 255.752479 
C 106.030455 242.265634 108.687069 228.909932 113.848261 216.449713 
C 119.009453 203.989493 126.57485 192.667076 136.111489 183.130437 
C 145.648129 173.593798 156.970546 166.0284 169.430765 160.867208 
C 181.890985 155.706016 195.246687 153.049402 208.733531 153.049402 
" clip-path="url(#p494bfa0275)" style="fill: none; stroke: #b0b0b0; stroke-width: 0.8; stroke-linecap: square"/>
     </g>
     <g id="text_15">
      <!-- 3000 -->
      <g transform="translate(208.733531 356.375868)scale(0.1 -0.1)">
       <defs>
        <path id="DejaVuSans-33" d="M 2597 2516 
Q 3050 2419 3304 2112 
Q 3559 1806 3559 1356 
Q 3559 666 3084 287 
Q 2609 -91 1734 -91 
Q 1441 -91 1130 -33 
Q 819 25 488 141 
L 488 750 
Q 750 597 1062 519 
Q 1375 441 1716 441 
Q 2309 441 2620 675 
Q 2931 909 2931 1356 
Q 2931 1769 2642 2001 
Q 2353 2234 1838 2234 
L 1294 2234 
L 1294 2753 
L 1863 2753 
Q 2328 2753 2575 2939 
Q 2822 3125 2822 3475 
Q 2822 3834 2567 4026 
Q 2313 4219 1838 4219 
Q 1578 4219 1281 4162 
Q 984 4106 628 3988 
L 628 4550 
Q 988 4650 1302 4700 
Q 1616 4750 1894 4750 
Q 2613 4750 3031 4423 
Q 3450 4097 3450 3541 
Q 3450 3153 3228 2886 
Q 3006 2619 2597 2516 
z
" transform="scale(0.015625)"/>
       </defs>
       <use xlink:href="#DejaVuSans-33"/>
       <use xlink:href="#DejaVuSans-30" x="63.623047"/>
       <use xlink:href="#DejaVuSans-30" x="127.246094"/>
       <use xlink:href="#DejaVuSans-30" x="190.869141"/>
      </g>
     </g>
    </g>
    <g id="ytick_4">
     <g id="line2d_16">
      <path d="M 208.733531 118.815043 
C 226.715991 118.815043 244.523593 122.357196 261.137219 129.238785 
C 277.750845 136.120374 292.847402 146.207571 305.562921 158.923089 
C 318.278439 171.638608 328.365636 186.735165 335.247225 203.348791 
C 342.128814 219.962417 345.670967 237.770019 345.670967 255.752479 
C 345.670967 273.734938 342.128814 291.54254 335.247225 308.156166 
C 328.365636 324.769793 318.278439 339.866349 305.562921 352.581868 
C 292.847402 365.297387 277.750845 375.384583 261.137219 382.266173 
C 244.523593 389.147762 226.715991 392.689914 208.733531 392.689914 
C 190.751072 392.689914 172.94347 389.147762 156.329844 382.266173 
C 139.716217 375.384583 124.619661 365.297387 111.904142 352.581868 
C 99.188623 339.866349 89.101427 324.769793 82.219837 308.156166 
C 75.338248 291.54254 71.796096 273.734938 71.796096 255.752479 
C 71.796096 237.770019 75.338248 219.962417 82.219837 203.348791 
C 89.101427 186.735165 99.188623 171.638608 111.904142 158.923089 
C 124.619661 146.207571 139.716217 136.120374 156.329844 129.238785 
C 172.94347 122.357196 190.751072 118.815043 208.733531 118.815043 
" clip-path="url(#p494bfa0275)" style="fill: none; stroke: #b0b0b0; stroke-width: 0.8; stroke-linecap: square"/>
     </g>
     <g id="text_16">
      <!-- 4000 -->
      <g transform="translate(208.733531 390.610227)scale(0.1 -0.1)">
       <defs>
        <path id="DejaVuSans-34" d="M 2419 4116 
L 825 1625 
L 2419 1625 
L 2419 4116 
z
M 2253 4666 
L 3047 4666 
L 3047 1625 
L 3713 1625 
L 3713 1100 
L 3047 1100 
L 3047 0 
L 2419 0 
L 2419 1100 
L 313 1100 
L 313 1709 
L 2253 4666 
z
" transform="scale(0.015625)"/>
       </defs>
       <use xlink:href="#DejaVuSans-34"/>
       <use xlink:href="#DejaVuSans-30" x="63.623047"/>
       <use xlink:href="#DejaVuSans-30" x="127.246094"/>
       <use xlink:href="#DejaVuSans-30" x="190.869141"/>
      </g>
     </g>
    </g>
    <g id="ytick_5">
     <g id="line2d_17">
      <path d="M 208.733531 84.580684 
C 231.211605 84.580684 253.471109 89.008375 274.238141 97.610361 
C 295.005174 106.212348 313.875869 118.821344 329.770268 134.715742 
C 345.664666 150.610141 358.273662 169.480836 366.875649 190.247869 
C 375.477635 211.014901 379.905326 233.274405 379.905326 255.752479 
C 379.905326 278.230553 375.477635 300.490056 366.875649 321.257088 
C 358.273662 342.024121 345.664666 360.894817 329.770268 376.789215 
C 313.875869 392.683614 295.005174 405.292609 274.238141 413.894596 
C 253.471109 422.496583 231.211605 426.924273 208.733531 426.924273 
C 186.255457 426.924273 163.995954 422.496583 143.228922 413.894596 
C 122.461889 405.292609 103.591193 392.683614 87.696795 376.789215 
C 71.802396 360.894817 59.193401 342.024121 50.591414 321.257088 
C 41.989427 300.490056 37.561737 278.230553 37.561737 255.752479 
C 37.561737 233.274405 41.989427 211.014901 50.591414 190.247869 
C 59.193401 169.480836 71.802396 150.610141 87.696795 134.715742 
C 103.591193 118.821344 122.461889 106.212348 143.228922 97.610361 
C 163.995954 89.008375 186.255457 84.580684 208.733531 84.580684 
" clip-path="url(#p494bfa0275)" style="fill: none; stroke: #b0b0b0; stroke-width: 0.8; stroke-linecap: square"/>
     </g>
     <g id="text_17">
      <!-- 5000 -->
      <g transform="translate(208.733531 424.844586)scale(0.1 -0.1)">
       <defs>
        <path id="DejaVuSans-35" d="M 691 4666 
L 3169 4666 
L 3169 4134 
L 1269 4134 
L 1269 2991 
Q 1406 3038 1543 3061 
Q 1681 3084 1819 3084 
Q 2600 3084 3056 2656 
Q 3513 2228 3513 1497 
Q 3513 744 3044 326 
Q 2575 -91 1722 -91 
Q 1428 -91 1123 -41 
Q 819 9 494 109 
L 494 744 
Q 775 591 1075 516 
Q 1375 441 1709 441 
Q 2250 441 2565 725 
Q 2881 1009 2881 1497 
Q 2881 1984 2565 2268 
Q 2250 2553 1709 2553 
Q 1456 2553 1204 2497 
Q 953 2441 691 2322 
L 691 4666 
z
" transform="scale(0.015625)"/>
       </defs>
       <use xlink:href="#DejaVuSans-35"/>
       <use xlink:href="#DejaVuSans-30" x="63.623047"/>
       <use xlink:href="#DejaVuSans-30" x="127.246094"/>
       <use xlink:href="#DejaVuSans-30" x="190.869141"/>
      </g>
     </g>
    </g>
   </g>
   <g id="line2d_18">
    <path d="M 208.733531 152.895347 
L 221.346166 151.878085 
L 233.611024 154.820522 
L 246.736771 155.54617 
L 258.38708 161.145545 
L 268.816065 168.707902 
L 278.223065 177.31501 
L 291.130029 182.755551 
L 296.313421 195.300446 
L 302.779674 206.393255 
L 303.642237 219.758354 
L 305.876176 231.808967 
L 308.359831 243.655656 
L 305.342892 255.752479 
L 303.500012 267.259213 
L 300.325168 278.32779 
L 296.264006 288.948409 
L 288.365833 297.546735 
L 283.958979 307.676856 
L 275.691096 315.071705 
L 268.211668 322.889417 
L 259.889739 329.865041 
L 249.875498 334.141947 
L 239.78074 337.617239 
L 229.7604 341.061837 
L 219.340689 343.110283 
L 208.733531 347.26092 
L 198.233662 342.22668 
L 187.624735 341.394232 
L 177.595275 337.857312 
L 169.039329 331.383462 
L 159.298412 327.371613 
L 151.196379 320.698498 
L 143.992511 313.108018 
L 137.537012 304.895888 
L 131.541428 296.26602 
L 127.620998 286.514405 
L 122.742762 276.9473 
L 118.588977 266.698009 
L 118.354824 255.752479 
L 117.46748 244.670774 
L 119.452045 233.746569 
L 123.155648 223.297068 
L 127.206666 212.963879 
L 132.902336 203.409984 
L 138.393495 193.436644 
L 145.362073 184.22089 
L 154.631053 177.371506 
L 163.391457 169.360374 
L 172.727267 160.811763 
L 184.474596 157.33011 
L 196.636708 156.126179 
L 208.733531 152.895347 
" clip-path="url(#p494bfa0275)" style="fill: none; stroke-dasharray: 5.55,2.4; stroke-dashoffset: 0; stroke: #1f77b4; stroke-width: 1.5"/>
   </g>
   <g id="line2d_19">
    <path d="M 208.733531 149.523263 
L 222.354388 141.396423 
L 234.119515 150.698312 
L 245.043252 158.000365 
L 258.194474 159.387037 
L 269.856756 165.004705 
L 280.205463 172.819027 
L 283.47565 187.37706 
L 294.9043 193.922816 
L 301.882088 204.399729 
L 310.823373 214.348995 
L 328.081113 223.140691 
L 359.677652 233.219137 
L 382.738796 250.593858 
L 378.615386 270.897114 
L 353.052626 286.130539 
L 335.539173 298.62263 
L 313.290914 305.56041 
L 295.26041 310.376756 
L 282.556734 315.654183 
L 274.78689 323.793099 
L 265.486498 330.093838 
L 255.425104 334.810533 
L 245.843539 339.997298 
L 235.689154 344.024303 
L 224.835705 345.346162 
L 214.083567 345.904108 
L 203.422029 345.254798 
L 193.424658 340.932182 
L 182.007871 343.271242 
L 171.940939 339.276722 
L 162.738328 333.631442 
L 142.071646 343.073644 
L 140.629418 325.905552 
L 136.026848 314.748216 
L 130.804339 304.949051 
L 123.987347 296.122962 
L 120.48848 285.586157 
L 111.884297 276.138498 
L 106.36795 264.87817 
L 105.322733 252.686726 
L 99.639328 239.466604 
L 94.86788 224.638631 
L 91.764841 208.314739 
L 101.134506 196.433194 
L 109.155948 184.303094 
L 124.493935 178.688598 
L 132.635368 167.450914 
L 141.222585 155.521052 
L 152.222372 145.651002 
L 162.136454 130.305003 
L 177.638315 127.071939 
L 192.120459 116.274805 
L 208.733531 113.885296 
" clip-path="url(#p494bfa0275)" style="fill: none; stroke-dasharray: 2,3.3; stroke-dashoffset: 0; stroke: #d62728; stroke-width: 2"/>
   </g>
   <g id="line2d_20">
    <path d="M 208.733531 113.885296 
L 224.628794 124.843215 
L 240.374196 127.381257 
L 253.844549 136.804502 
L 266.866844 144.988706 
L 277.771561 155.733625 
L 288.824702 165.348235 
L 290.912219 182.948515 
L 296.21481 195.368512 
L 307.099279 204.126152 
L 306.138992 218.81146 
L 309.948024 230.805347 
L 316.737073 242.638474 
L 317.051043 255.752479 
L 315.479637 268.713802 
L 313.271981 281.518892 
L 308.763786 293.68895 
L 299.763528 303.528707 
L 293.763644 314.444528 
L 285.326015 323.607498 
L 272.434162 327.655627 
L 267.250555 340.529023 
L 254.616529 343.175226 
L 243.586527 347.652275 
L 230.64932 344.66833 
L 220.258835 350.671891 
L 208.733531 352.909589 
L 196.882235 353.356686 
L 185.990268 348.025527 
L 173.37067 348.996681 
L 161.657321 345.448703 
L 153.503107 335.767562 
L 142.921654 330.038732 
L 133.678534 322.245404 
L 128.154962 311.371849 
L 115.066302 304.912833 
L 115.32928 291.176039 
L 112.704412 279.421531 
L 104.332374 268.429074 
L 103.63405 255.752479 
L 104.672221 243.117148 
L 99.940417 228.937384 
L 100.380759 214.659692 
L 102.183268 199.830587 
L 102.121886 182.163773 
L 106.388138 165.082372 
L 113.613915 148.384627 
L 123.418084 132.151715 
L 139.304474 123.466462 
L 159.737819 126.561404 
L 178.092391 131.436485 
L 193.663568 131.640165 
L 208.733531 138.397096 
" clip-path="url(#p494bfa0275)" style="fill: none; stroke: #ff7f0e; stroke-width: 2; stroke-linecap: square"/>
   </g>
   <g id="line2d_21">
    <path d="M 208.733531 138.397096 
L 223.996986 148.99991 
L 239.260104 151.18343 
L 253.894995 156.24518 
L 268.998085 161.330532 
L 280.907822 171.797473 
L 295.388175 179.950606 
L 304.068182 193.74417 
L 311.574564 208.006295 
" clip-path="url(#p494bfa0275)" style="fill: none; stroke: #2ca02c; stroke-width: 3; stroke-linecap: square"/>
   </g>
   <g id="patch_3">
    <path d="M 208.733531 76.86426 
C 185.242146 76.86426 161.979184 81.491551 140.275974 90.481315 
C 118.572763 99.471079 98.851377 112.648488 82.240459 129.259406 
C 65.629541 145.870324 52.452131 165.591711 43.462367 187.294921 
C 34.472603 208.998131 29.845313 232.261093 29.845313 255.752479 
C 29.845313 279.243864 34.472603 302.506826 43.462367 324.210036 
C 52.452131 345.913247 65.629541 365.634633 82.240459 382.245551 
C 98.851377 398.856469 118.572763 412.033879 140.275974 421.023643 
C 161.979184 430.013407 185.242146 434.640697 208.733531 434.640697 
C 232.224917 434.640697 255.487879 430.013407 277.191089 421.023643 
C 298.894299 412.033879 318.615686 398.856469 335.226604 382.245551 
C 351.837522 365.634633 365.014931 345.913247 374.004695 324.210036 
C 382.994459 302.506826 387.62175 279.243864 387.62175 255.752479 
C 387.62175 232.261093 382.994459 208.998131 374.004695 187.294921 
C 365.014931 165.591711 351.837522 145.870324 335.226604 129.259406 
C 318.615686 112.648488 298.894299 99.471079 277.191089 90.481315 
C 255.487879 81.491551 232.224917 76.86426 208.733531 76.86426 
" style="fill: none; stroke: #000000; stroke-width: 0.8; stroke-linejoin: miter; stroke-linecap: square"/>
   </g>
   <g id="text_18">
    <!-- Totaal mannen en vrouwen, Totaal leeftijd, median excludes 2020-2022 -->
    <g transform="translate(29.986656 35.086616)scale(0.1 -0.1)">
     <defs>
      <path id="DejaVuSans-54" d="M -19 4666 
L 3928 4666 
L 3928 4134 
L 2272 4134 
L 2272 0 
L 1638 0 
L 1638 4134 
L -19 4134 
L -19 4666 
z
" transform="scale(0.015625)"/>
      <path id="DejaVuSans-20" transform="scale(0.015625)"/>
      <path id="DejaVuSans-6d" d="M 3328 2828 
Q 3544 3216 3844 3400 
Q 4144 3584 4550 3584 
Q 5097 3584 5394 3201 
Q 5691 2819 5691 2113 
L 5691 0 
L 5113 0 
L 5113 2094 
Q 5113 2597 4934 2840 
Q 4756 3084 4391 3084 
Q 3944 3084 3684 2787 
Q 3425 2491 3425 1978 
L 3425 0 
L 2847 0 
L 2847 2094 
Q 2847 2600 2669 2842 
Q 2491 3084 2119 3084 
Q 1678 3084 1418 2786 
Q 1159 2488 1159 1978 
L 1159 0 
L 581 0 
L 581 3500 
L 1159 3500 
L 1159 2956 
Q 1356 3278 1631 3431 
Q 1906 3584 2284 3584 
Q 2666 3584 2933 3390 
Q 3200 3197 3328 2828 
z
" transform="scale(0.015625)"/>
      <path id="DejaVuSans-77" d="M 269 3500 
L 844 3500 
L 1563 769 
L 2278 3500 
L 2956 3500 
L 3675 769 
L 4391 3500 
L 4966 3500 
L 4050 0 
L 3372 0 
L 2619 2869 
L 1863 0 
L 1184 0 
L 269 3500 
z
" transform="scale(0.015625)"/>
      <path id="DejaVuSans-2c" d="M 750 794 
L 1409 794 
L 1409 256 
L 897 -744 
L 494 -744 
L 750 256 
L 750 794 
z
" transform="scale(0.015625)"/>
      <path id="DejaVuSans-66" d="M 2375 4863 
L 2375 4384 
L 1825 4384 
Q 1516 4384 1395 4259 
Q 1275 4134 1275 3809 
L 1275 3500 
L 2222 3500 
L 2222 3053 
L 1275 3053 
L 1275 0 
L 697 0 
L 697 3053 
L 147 3053 
L 147 3500 
L 697 3500 
L 697 3744 
Q 697 4328 969 4595 
Q 1241 4863 1831 4863 
L 2375 4863 
z
" transform="scale(0.015625)"/>
      <path id="DejaVuSans-69" d="M 603 3500 
L 1178 3500 
L 1178 0 
L 603 0 
L 603 3500 
z
M 603 4863 
L 1178 4863 
L 1178 4134 
L 603 4134 
L 603 4863 
z
" transform="scale(0.015625)"/>
      <path id="DejaVuSans-6a" d="M 603 3500 
L 1178 3500 
L 1178 -63 
Q 1178 -731 923 -1031 
Q 669 -1331 103 -1331 
L -116 -1331 
L -116 -844 
L 38 -844 
Q 366 -844 484 -692 
Q 603 -541 603 -63 
L 603 3500 
z
M 603 4863 
L 1178 4863 
L 1178 4134 
L 603 4134 
L 603 4863 
z
" transform="scale(0.015625)"/>
      <path id="DejaVuSans-64" d="M 2906 2969 
L 2906 4863 
L 3481 4863 
L 3481 0 
L 2906 0 
L 2906 525 
Q 2725 213 2448 61 
Q 2172 -91 1784 -91 
Q 1150 -91 751 415 
Q 353 922 353 1747 
Q 353 2572 751 3078 
Q 1150 3584 1784 3584 
Q 2172 3584 2448 3432 
Q 2725 3281 2906 2969 
z
M 947 1747 
Q 947 1113 1208 752 
Q 1469 391 1925 391 
Q 2381 391 2643 752 
Q 2906 1113 2906 1747 
Q 2906 2381 2643 2742 
Q 2381 3103 1925 3103 
Q 1469 3103 1208 2742 
Q 947 2381 947 1747 
z
" transform="scale(0.015625)"/>
      <path id="DejaVuSans-78" d="M 3513 3500 
L 2247 1797 
L 3578 0 
L 2900 0 
L 1881 1375 
L 863 0 
L 184 0 
L 1544 1831 
L 300 3500 
L 978 3500 
L 1906 2253 
L 2834 3500 
L 3513 3500 
z
" transform="scale(0.015625)"/>
      <path id="DejaVuSans-73" d="M 2834 3397 
L 2834 2853 
Q 2591 2978 2328 3040 
Q 2066 3103 1784 3103 
Q 1356 3103 1142 2972 
Q 928 2841 928 2578 
Q 928 2378 1081 2264 
Q 1234 2150 1697 2047 
L 1894 2003 
Q 2506 1872 2764 1633 
Q 3022 1394 3022 966 
Q 3022 478 2636 193 
Q 2250 -91 1575 -91 
Q 1294 -91 989 -36 
Q 684 19 347 128 
L 347 722 
Q 666 556 975 473 
Q 1284 391 1588 391 
Q 1994 391 2212 530 
Q 2431 669 2431 922 
Q 2431 1156 2273 1281 
Q 2116 1406 1581 1522 
L 1381 1569 
Q 847 1681 609 1914 
Q 372 2147 372 2553 
Q 372 3047 722 3315 
Q 1072 3584 1716 3584 
Q 2034 3584 2315 3537 
Q 2597 3491 2834 3397 
z
" transform="scale(0.015625)"/>
      <path id="DejaVuSans-2d" d="M 313 2009 
L 1997 2009 
L 1997 1497 
L 313 1497 
L 313 2009 
z
" transform="scale(0.015625)"/>
     </defs>
     <use xlink:href="#DejaVuSans-54"/>
     <use xlink:href="#DejaVuSans-6f" x="44.083984"/>
     <use xlink:href="#DejaVuSans-74" x="105.265625"/>
     <use xlink:href="#DejaVuSans-61" x="144.474609"/>
     <use xlink:href="#DejaVuSans-61" x="205.753906"/>
     <use xlink:href="#DejaVuSans-6c" x="267.033203"/>
     <use xlink:href="#DejaVuSans-20" x="294.816406"/>
     <use xlink:href="#DejaVuSans-6d" x="326.603516"/>
     <use xlink:href="#DejaVuSans-61" x="424.015625"/>
     <use xlink:href="#DejaVuSans-6e" x="485.294922"/>
     <use xlink:href="#DejaVuSans-6e" x="548.673828"/>
     <use xlink:href="#DejaVuSans-65" x="612.052734"/>
     <use xlink:href="#DejaVuSans-6e" x="673.576172"/>
     <use xlink:href="#DejaVuSans-20" x="736.955078"/>
     <use xlink:href="#DejaVuSans-65" x="768.742188"/>
     <use xlink:href="#DejaVuSans-6e" x="830.265625"/>
     <use xlink:href="#DejaVuSans-20" x="893.644531"/>
     <use xlink:href="#DejaVuSans-76" x="925.431641"/>
     <use xlink:href="#DejaVuSans-72" x="984.611328"/>
     <use xlink:href="#DejaVuSans-6f" x="1023.474609"/>
     <use xlink:href="#DejaVuSans-75" x="1084.65625"/>
     <use xlink:href="#DejaVuSans-77" x="1148.035156"/>
     <use xlink:href="#DejaVuSans-65" x="1229.822266"/>
     <use xlink:href="#DejaVuSans-6e" x="1291.345703"/>
     <use xlink:href="#DejaVuSans-2c" x="1354.724609"/>
     <use xlink:href="#DejaVuSans-20" x="1386.511719"/>
     <use xlink:href="#DejaVuSans-54" x="1418.298828"/>
     <use xlink:href="#DejaVuSans-6f" x="1462.382812"/>
     <use xlink:href="#DejaVuSans-74" x="1523.564453"/>
     <use xlink:href="#DejaVuSans-61" x="1562.773438"/>
     <use xlink:href="#DejaVuSans-61" x="1624.052734"/>
     <use xlink:href="#DejaVuSans-6c" x="1685.332031"/>
     <use xlink:href="#DejaVuSans-20" x="1713.115234"/>
     <use xlink:href="#DejaVuSans-6c" x="1744.902344"/>
     <use xlink:href="#DejaVuSans-65" x="1772.685547"/>
     <use xlink:href="#DejaVuSans-65" x="1834.208984"/>
     <use xlink:href="#DejaVuSans-66" x="1895.732422"/>
     <use xlink:href="#DejaVuSans-74" x="1929.1875"/>
     <use xlink:href="#DejaVuSans-69" x="1968.396484"/>
     <use xlink:href="#DejaVuSans-6a" x="1996.179688"/>
     <use xlink:href="#DejaVuSans-64" x="2023.962891"/>
     <use xlink:href="#DejaVuSans-2c" x="2087.439453"/>
     <use xlink:href="#DejaVuSans-20" x="2119.226562"/>
     <use xlink:href="#DejaVuSans-6d" x="2151.013672"/>
     <use xlink:href="#DejaVuSans-65" x="2248.425781"/>
     <use xlink:href="#DejaVuSans-64" x="2309.949219"/>
     <use xlink:href="#DejaVuSans-69" x="2373.425781"/>
     <use xlink:href="#DejaVuSans-61" x="2401.208984"/>
     <use xlink:href="#DejaVuSans-6e" x="2462.488281"/>
     <use xlink:href="#DejaVuSans-20" x="2525.867188"/>
     <use xlink:href="#DejaVuSans-65" x="2557.654297"/>
     <use xlink:href="#DejaVuSans-78" x="2617.427734"/>
     <use xlink:href="#DejaVuSans-63" x="2674.857422"/>
     <use xlink:href="#DejaVuSans-6c" x="2729.837891"/>
     <use xlink:href="#DejaVuSans-75" x="2757.621094"/>
     <use xlink:href="#DejaVuSans-64" x="2821"/>
     <use xlink:href="#DejaVuSans-65" x="2884.476562"/>
     <use xlink:href="#DejaVuSans-73" x="2946"/>
     <use xlink:href="#DejaVuSans-20" x="2998.099609"/>
     <use xlink:href="#DejaVuSans-32" x="3029.886719"/>
     <use xlink:href="#DejaVuSans-30" x="3093.509766"/>
     <use xlink:href="#DejaVuSans-32" x="3157.132812"/>
     <use xlink:href="#DejaVuSans-30" x="3220.755859"/>
     <use xlink:href="#DejaVuSans-2d" x="3284.378906"/>
     <use xlink:href="#DejaVuSans-32" x="3320.462891"/>
     <use xlink:href="#DejaVuSans-30" x="3384.085938"/>
     <use xlink:href="#DejaVuSans-32" x="3447.708984"/>
     <use xlink:href="#DejaVuSans-32" x="3511.332031"/>
    </g>
   </g>
  </g>
  <g id="text_19">
   <!-- Deaths per week in the Netherlands (since 2010) -->
   <g transform="translate(36.325719 17.837812)scale(0.14 -0.14)">
    <defs>
     <path id="DejaVuSans-68" d="M 3513 2113 
L 3513 0 
L 2938 0 
L 2938 2094 
Q 2938 2591 2744 2837 
Q 2550 3084 2163 3084 
Q 1697 3084 1428 2787 
Q 1159 2491 1159 1978 
L 1159 0 
L 581 0 
L 581 4863 
L 1159 4863 
L 1159 2956 
Q 1366 3272 1645 3428 
Q 1925 3584 2291 3584 
Q 2894 3584 3203 3211 
Q 3513 2838 3513 2113 
z
" transform="scale(0.015625)"/>
     <path id="DejaVuSans-6b" d="M 581 4863 
L 1159 4863 
L 1159 1991 
L 2875 3500 
L 3609 3500 
L 1753 1863 
L 3688 0 
L 2938 0 
L 1159 1709 
L 1159 0 
L 581 0 
L 581 4863 
z
" transform="scale(0.015625)"/>
     <path id="DejaVuSans-28" d="M 1984 4856 
Q 1566 4138 1362 3434 
Q 1159 2731 1159 2009 
Q 1159 1288 1364 580 
Q 1569 -128 1984 -844 
L 1484 -844 
Q 1016 -109 783 600 
Q 550 1309 550 2009 
Q 550 2706 781 3412 
Q 1013 4119 1484 4856 
L 1984 4856 
z
" transform="scale(0.015625)"/>
     <path id="DejaVuSans-29" d="M 513 4856 
L 1013 4856 
Q 1481 4119 1714 3412 
Q 1947 2706 1947 2009 
Q 1947 1309 1714 600 
Q 1481 -109 1013 -844 
L 513 -844 
Q 928 -128 1133 580 
Q 1338 1288 1338 2009 
Q 1338 2731 1133 3434 
Q 928 4138 513 4856 
z
" transform="scale(0.015625)"/>
    </defs>
    <use xlink:href="#DejaVuSans-44"/>
    <use xlink:href="#DejaVuSans-65" x="77.001953"/>
    <use xlink:href="#DejaVuSans-61" x="138.525391"/>
    <use xlink:href="#DejaVuSans-74" x="199.804688"/>
    <use xlink:href="#DejaVuSans-68" x="239.013672"/>
    <use xlink:href="#DejaVuSans-73" x="302.392578"/>
    <use xlink:href="#DejaVuSans-20" x="354.492188"/>
    <use xlink:href="#DejaVuSans-70" x="386.279297"/>
    <use xlink:href="#DejaVuSans-65" x="449.755859"/>
    <use xlink:href="#DejaVuSans-72" x="511.279297"/>
    <use xlink:href="#DejaVuSans-20" x="552.392578"/>
    <use xlink:href="#DejaVuSans-77" x="584.179688"/>
    <use xlink:href="#DejaVuSans-65" x="665.966797"/>
    <use xlink:href="#DejaVuSans-65" x="727.490234"/>
    <use xlink:href="#DejaVuSans-6b" x="789.013672"/>
    <use xlink:href="#DejaVuSans-20" x="846.923828"/>
    <use xlink:href="#DejaVuSans-69" x="878.710938"/>
    <use xlink:href="#DejaVuSans-6e" x="906.494141"/>
    <use xlink:href="#DejaVuSans-20" x="969.873047"/>
    <use xlink:href="#DejaVuSans-74" x="1001.660156"/>
    <use xlink:href="#DejaVuSans-68" x="1040.869141"/>
    <use xlink:href="#DejaVuSans-65" x="1104.248047"/>
    <use xlink:href="#DejaVuSans-20" x="1165.771484"/>
    <use xlink:href="#DejaVuSans-4e" x="1197.558594"/>
    <use xlink:href="#DejaVuSans-65" x="1272.363281"/>
    <use xlink:href="#DejaVuSans-74" x="1333.886719"/>
    <use xlink:href="#DejaVuSans-68" x="1373.095703"/>
    <use xlink:href="#DejaVuSans-65" x="1436.474609"/>
    <use xlink:href="#DejaVuSans-72" x="1497.998047"/>
    <use xlink:href="#DejaVuSans-6c" x="1539.111328"/>
    <use xlink:href="#DejaVuSans-61" x="1566.894531"/>
    <use xlink:href="#DejaVuSans-6e" x="1628.173828"/>
    <use xlink:href="#DejaVuSans-64" x="1691.552734"/>
    <use xlink:href="#DejaVuSans-73" x="1755.029297"/>
    <use xlink:href="#DejaVuSans-20" x="1807.128906"/>
    <use xlink:href="#DejaVuSans-28" x="1838.916016"/>
    <use xlink:href="#DejaVuSans-73" x="1877.929688"/>
    <use xlink:href="#DejaVuSans-69" x="1930.029297"/>
    <use xlink:href="#DejaVuSans-6e" x="1957.8125"/>
    <use xlink:href="#DejaVuSans-63" x="2021.191406"/>
    <use xlink:href="#DejaVuSans-65" x="2076.171875"/>
    <use xlink:href="#DejaVuSans-20" x="2137.695312"/>
    <use xlink:href="#DejaVuSans-32" x="2169.482422"/>
    <use xlink:href="#DejaVuSans-30" x="2233.105469"/>
    <use xlink:href="#DejaVuSans-31" x="2296.728516"/>
    <use xlink:href="#DejaVuSans-30" x="2360.351562"/>
    <use xlink:href="#DejaVuSans-29" x="2423.974609"/>
   </g>
  </g>
  <g id="legend_1">
   <g id="patch_4">
    <path d="M 418.146031 455.67976 
L 491.933531 455.67976 
Q 493.933531 455.67976 493.933531 453.67976 
L 493.933531 366.61101 
Q 493.933531 364.61101 491.933531 364.61101 
L 418.146031 364.61101 
Q 416.146031 364.61101 416.146031 366.61101 
L 416.146031 453.67976 
Q 416.146031 455.67976 418.146031 455.67976 
z
" style="fill: #ffffff; opacity: 0.8; stroke: #cccccc; stroke-linejoin: miter"/>
   </g>
   <g id="patch_5">
    <path d="M 420.146031 376.209448 
L 440.146031 376.209448 
L 440.146031 369.209448 
L 420.146031 369.209448 
z
" style="fill: #1f77b4; fill-opacity: 0.3; stroke: #1f77b4; stroke-opacity: 0.3; stroke-linejoin: miter"/>
   </g>
   <g id="text_20">
    <!-- SD -->
    <g transform="translate(448.146031 376.209448)scale(0.1 -0.1)">
     <use xlink:href="#DejaVuSans-53"/>
     <use xlink:href="#DejaVuSans-44" x="63.476562"/>
    </g>
   </g>
   <g id="patch_6">
    <path d="M 420.146031 390.887573 
L 440.146031 390.887573 
L 440.146031 383.887573 
L 420.146031 383.887573 
z
" style="fill: #1f77b4; fill-opacity: 0.2"/>
   </g>
   <g id="text_21">
    <!-- Min/Max -->
    <g transform="translate(448.146031 390.887573)scale(0.1 -0.1)">
     <defs>
      <path id="DejaVuSans-2f" d="M 1625 4666 
L 2156 4666 
L 531 -594 
L 0 -594 
L 1625 4666 
z
" transform="scale(0.015625)"/>
     </defs>
     <use xlink:href="#DejaVuSans-4d"/>
     <use xlink:href="#DejaVuSans-69" x="86.279297"/>
     <use xlink:href="#DejaVuSans-6e" x="114.0625"/>
     <use xlink:href="#DejaVuSans-2f" x="177.441406"/>
     <use xlink:href="#DejaVuSans-4d" x="211.132812"/>
     <use xlink:href="#DejaVuSans-61" x="297.412109"/>
     <use xlink:href="#DejaVuSans-78" x="358.691406"/>
    </g>
   </g>
   <g id="line2d_22">
    <path d="M 420.146031 402.065697 
L 430.146031 402.065697 
L 440.146031 402.065697 
" style="fill: none; stroke-dasharray: 5.55,2.4; stroke-dashoffset: 0; stroke: #1f77b4; stroke-width: 1.5"/>
   </g>
   <g id="text_22">
    <!-- Median -->
    <g transform="translate(448.146031 405.565697)scale(0.1 -0.1)">
     <use xlink:href="#DejaVuSans-4d"/>
     <use xlink:href="#DejaVuSans-65" x="86.279297"/>
     <use xlink:href="#DejaVuSans-64" x="147.802734"/>
     <use xlink:href="#DejaVuSans-69" x="211.279297"/>
     <use xlink:href="#DejaVuSans-61" x="239.0625"/>
     <use xlink:href="#DejaVuSans-6e" x="300.341797"/>
    </g>
   </g>
   <g id="line2d_23">
    <path d="M 420.146031 416.743823 
L 430.146031 416.743823 
L 440.146031 416.743823 
" style="fill: none; stroke-dasharray: 2,3.3; stroke-dashoffset: 0; stroke: #d62728; stroke-width: 2"/>
   </g>
   <g id="text_23">
    <!-- 2020 -->
    <g transform="translate(448.146031 420.243823)scale(0.1 -0.1)">
     <use xlink:href="#DejaVuSans-32"/>
     <use xlink:href="#DejaVuSans-30" x="63.623047"/>
     <use xlink:href="#DejaVuSans-32" x="127.246094"/>
     <use xlink:href="#DejaVuSans-30" x="190.869141"/>
    </g>
   </g>
   <g id="line2d_24">
    <path d="M 420.146031 431.421947 
L 430.146031 431.421947 
L 440.146031 431.421947 
" style="fill: none; stroke: #ff7f0e; stroke-width: 2; stroke-linecap: square"/>
   </g>
   <g id="text_24">
    <!-- 2021 -->
    <g transform="translate(448.146031 434.921947)scale(0.1 -0.1)">
     <use xlink:href="#DejaVuSans-32"/>
     <use xlink:href="#DejaVuSans-30" x="63.623047"/>
     <use xlink:href="#DejaVuSans-32" x="127.246094"/>
     <use xlink:href="#DejaVuSans-31" x="190.869141"/>
    </g>
   </g>
   <g id="line2d_25">
    <path d="M 420.146031 446.100073 
L 430.146031 446.100073 
L 440.146031 446.100073 
" style="fill: none; stroke: #2ca02c; stroke-width: 3; stroke-linecap: square"/>
   </g>
   <g id="text_25">
    <!-- 2022 -->
    <g transform="translate(448.146031 449.600073)scale(0.1 -0.1)">
     <use xlink:href="#DejaVuSans-32"/>
     <use xlink:href="#DejaVuSans-30" x="63.623047"/>
     <use xlink:href="#DejaVuSans-32" x="127.246094"/>
     <use xlink:href="#DejaVuSans-32" x="190.869141"/>
    </g>
   </g>
  </g>
 </g>
 <defs>
  <clipPath id="p494bfa0275">
   <path d="M 387.62175 255.752479 
C 387.62175 232.261093 382.994459 208.998131 374.004695 187.294921 
C 365.014931 165.591711 351.837522 145.870324 335.226604 129.259406 
C 318.615686 112.648488 298.894299 99.471079 277.191089 90.481315 
C 255.487879 81.491551 232.224917 76.86426 208.733531 76.86426 
C 185.242146 76.86426 161.979184 81.491551 140.275974 90.481315 
C 118.572763 99.471079 98.851377 112.648488 82.240459 129.259406 
C 65.629541 145.870324 52.452131 165.591711 43.462367 187.294921 
C 34.472603 208.998131 29.845313 232.261093 29.845313 255.752479 
C 29.845313 279.243864 34.472603 302.506826 43.462367 324.210036 
C 52.452131 345.913247 65.629541 365.634633 82.240459 382.245551 
C 98.851377 398.856469 118.572763 412.033879 140.275974 421.023643 
C 161.979184 430.013407 185.242146 434.640697 208.733531 434.640697 
C 232.224917 434.640697 255.487879 430.013407 277.191089 421.023643 
C 298.894299 412.033879 318.615686 398.856469 335.226604 382.245551 
C 351.837522 365.634633 365.014931 345.913247 374.004695 324.210036 
C 382.994459 302.506826 387.62175 279.243864 387.62175 255.752479 
M 208.733531 255.752479 
C 208.733531 255.752479 208.733531 255.752479 208.733531 255.752479 
C 208.733531 255.752479 208.733531 255.752479 208.733531 255.752479 
C 208.733531 255.752479 208.733531 255.752479 208.733531 255.752479 
C 208.733531 255.752479 208.733531 255.752479 208.733531 255.752479 
C 208.733531 255.752479 208.733531 255.752479 208.733531 255.752479 
C 208.733531 255.752479 208.733531 255.752479 208.733531 255.752479 
C 208.733531 255.752479 208.733531 255.752479 208.733531 255.752479 
C 208.733531 255.752479 208.733531 255.752479 208.733531 255.752479 
C 208.733531 255.752479 208.733531 255.752479 208.733531 255.752479 
C 208.733531 255.752479 208.733531 255.752479 208.733531 255.752479 
C 208.733531 255.752479 208.733531 255.752479 208.733531 255.752479 
C 208.733531 255.752479 208.733531 255.752479 208.733531 255.752479 
C 208.733531 255.752479 208.733531 255.752479 208.733531 255.752479 
C 208.733531 255.752479 208.733531 255.752479 208.733531 255.752479 
C 208.733531 255.752479 208.733531 255.752479 208.733531 255.752479 
C 208.733531 255.752479 208.733531 255.752479 208.733531 255.752479 
M 387.62175 255.752479 
z
"/>
  </clipPath>
 </defs>
</svg>
