<?xml version="1.0" encoding="utf-8" standalone="no"?>
<!DOCTYPE svg PUBLIC "-//W3C//DTD SVG 1.1//EN"
  "http://www.w3.org/Graphics/SVG/1.1/DTD/svg11.dtd">
<svg xmlns:xlink="http://www.w3.org/1999/xlink" width="498.576296pt" height="460.478822pt" viewBox="0 0 498.576296 460.478822" xmlns="http://www.w3.org/2000/svg" version="1.1">
 <metadata>
  <rdf:RDF xmlns:dc="http://purl.org/dc/elements/1.1/" xmlns:cc="http://creativecommons.org/ns#" xmlns:rdf="http://www.w3.org/1999/02/22-rdf-syntax-ns#">
   <cc:Work>
    <dc:type rdf:resource="http://purl.org/dc/dcmitype/StillImage"/>
    <dc:date>2022-10-07T03:55:50.287852</dc:date>
    <dc:format>image/svg+xml</dc:format>
    <dc:creator>
     <cc:Agent>
      <dc:title>Matplotlib v3.6.0, https://matplotlib.org/</dc:title>
     </cc:Agent>
    </dc:creator>
   </cc:Work>
  </rdf:RDF>
 </metadata>
 <defs>
  <style type="text/css">*{stroke-linejoin: round; stroke-linecap: butt}</style>
 </defs>
 <g id="figure_1">
  <g id="patch_1">
   <path d="M 0 460.478822 
L 498.576296 460.478822 
L 498.576296 0 
L 0 0 
z
" style="fill: #ffffff"/>
  </g>
  <g id="axes_1">
   <g id="patch_2">
    <path d="M 386.90728 255.908776 
C 386.90728 232.464302 382.28923 209.247796 373.317419 187.587926 
C 364.345607 165.928057 351.194512 146.246053 334.616766 129.668307 
C 318.039019 113.09056 298.357016 99.939466 276.697146 90.967654 
C 255.037277 81.995842 231.820771 77.377792 208.376296 77.377792 
C 184.931822 77.377792 161.715316 81.995842 140.055447 90.967654 
C 118.395577 99.939466 98.713574 113.09056 82.135827 129.668307 
C 65.558081 146.246053 52.406986 165.928057 43.435174 187.587926 
C 34.463363 209.247796 29.845312 232.464302 29.845312 255.908776 
C 29.845312 279.35325 34.463363 302.569756 43.435174 324.229626 
C 52.406986 345.889495 65.558081 365.571499 82.135827 382.149245 
C 98.713574 398.726992 118.395577 411.878086 140.055447 420.849898 
C 161.715316 429.82171 184.931822 434.43976 208.376296 434.43976 
C 231.820771 434.43976 255.037277 429.82171 276.697146 420.849898 
C 298.357016 411.878086 318.039019 398.726992 334.616766 382.149245 
C 351.194512 365.571499 364.345607 345.889495 373.317419 324.229626 
C 382.28923 302.569756 386.90728 279.35325 386.90728 255.908776 
M 208.376296 255.908776 
C 208.376296 255.908776 208.376296 255.908776 208.376296 255.908776 
C 208.376296 255.908776 208.376296 255.908776 208.376296 255.908776 
C 208.376296 255.908776 208.376296 255.908776 208.376296 255.908776 
C 208.376296 255.908776 208.376296 255.908776 208.376296 255.908776 
C 208.376296 255.908776 208.376296 255.908776 208.376296 255.908776 
C 208.376296 255.908776 208.376296 255.908776 208.376296 255.908776 
C 208.376296 255.908776 208.376296 255.908776 208.376296 255.908776 
C 208.376296 255.908776 208.376296 255.908776 208.376296 255.908776 
C 208.376296 255.908776 208.376296 255.908776 208.376296 255.908776 
C 208.376296 255.908776 208.376296 255.908776 208.376296 255.908776 
C 208.376296 255.908776 208.376296 255.908776 208.376296 255.908776 
C 208.376296 255.908776 208.376296 255.908776 208.376296 255.908776 
C 208.376296 255.908776 208.376296 255.908776 208.376296 255.908776 
C 208.376296 255.908776 208.376296 255.908776 208.376296 255.908776 
C 208.376296 255.908776 208.376296 255.908776 208.376296 255.908776 
C 208.376296 255.908776 208.376296 255.908776 208.376296 255.908776 
M 386.90728 255.908776 
z
" style="fill: #ffffff"/>
   </g>
   <g id="matplotlib.axis_1">
    <g id="xtick_1">
     <g id="line2d_1">
      <path d="M 208.376296 255.908776 
L 208.376296 77.377792 
" clip-path="url(#pdab23f910a)" style="fill: none; stroke: #b0b0b0; stroke-width: 0.8; stroke-linecap: square"/>
     </g>
     <g id="text_1">
      <!-- Jan -->
      <g transform="translate(200.668484 66.137167) scale(0.1 -0.1)">
       <defs>
        <path id="DejaVuSans-4a" d="M 628 4666 
L 1259 4666 
L 1259 325 
Q 1259 -519 939 -900 
Q 619 -1281 -91 -1281 
L -331 -1281 
L -331 -750 
L -134 -750 
Q 284 -750 456 -515 
Q 628 -281 628 325 
L 628 4666 
z
" transform="scale(0.015625)"/>
        <path id="DejaVuSans-61" d="M 2194 1759 
Q 1497 1759 1228 1600 
Q 959 1441 959 1056 
Q 959 750 1161 570 
Q 1363 391 1709 391 
Q 2188 391 2477 730 
Q 2766 1069 2766 1631 
L 2766 1759 
L 2194 1759 
z
M 3341 1997 
L 3341 0 
L 2766 0 
L 2766 531 
Q 2569 213 2275 61 
Q 1981 -91 1556 -91 
Q 1019 -91 701 211 
Q 384 513 384 1019 
Q 384 1609 779 1909 
Q 1175 2209 1959 2209 
L 2766 2209 
L 2766 2266 
Q 2766 2663 2505 2880 
Q 2244 3097 1772 3097 
Q 1472 3097 1187 3025 
Q 903 2953 641 2809 
L 641 3341 
Q 956 3463 1253 3523 
Q 1550 3584 1831 3584 
Q 2591 3584 2966 3190 
Q 3341 2797 3341 1997 
z
" transform="scale(0.015625)"/>
        <path id="DejaVuSans-6e" d="M 3513 2113 
L 3513 0 
L 2938 0 
L 2938 2094 
Q 2938 2591 2744 2837 
Q 2550 3084 2163 3084 
Q 1697 3084 1428 2787 
Q 1159 2491 1159 1978 
L 1159 0 
L 581 0 
L 581 3500 
L 1159 3500 
L 1159 2956 
Q 1366 3272 1645 3428 
Q 1925 3584 2291 3584 
Q 2894 3584 3203 3211 
Q 3513 2838 3513 2113 
z
" transform="scale(0.015625)"/>
       </defs>
       <use xlink:href="#DejaVuSans-4a"/>
       <use xlink:href="#DejaVuSans-61" x="29.492188"/>
       <use xlink:href="#DejaVuSans-6e" x="90.771484"/>
      </g>
     </g>
    </g>
    <g id="xtick_2">
     <g id="line2d_2">
      <path d="M 208.376296 255.908776 
L 297.641788 101.296408 
" clip-path="url(#pdab23f910a)" style="fill: none; stroke: #b0b0b0; stroke-width: 0.8; stroke-linecap: square"/>
     </g>
     <g id="text_2">
      <!-- Feb -->
      <g transform="translate(295.790226 91.931428) scale(0.1 -0.1)">
       <defs>
        <path id="DejaVuSans-46" d="M 628 4666 
L 3309 4666 
L 3309 4134 
L 1259 4134 
L 1259 2759 
L 3109 2759 
L 3109 2228 
L 1259 2228 
L 1259 0 
L 628 0 
L 628 4666 
z
" transform="scale(0.015625)"/>
        <path id="DejaVuSans-65" d="M 3597 1894 
L 3597 1613 
L 953 1613 
Q 991 1019 1311 708 
Q 1631 397 2203 397 
Q 2534 397 2845 478 
Q 3156 559 3463 722 
L 3463 178 
Q 3153 47 2828 -22 
Q 2503 -91 2169 -91 
Q 1331 -91 842 396 
Q 353 884 353 1716 
Q 353 2575 817 3079 
Q 1281 3584 2069 3584 
Q 2775 3584 3186 3129 
Q 3597 2675 3597 1894 
z
M 3022 2063 
Q 3016 2534 2758 2815 
Q 2500 3097 2075 3097 
Q 1594 3097 1305 2825 
Q 1016 2553 972 2059 
L 3022 2063 
z
" transform="scale(0.015625)"/>
        <path id="DejaVuSans-62" d="M 3116 1747 
Q 3116 2381 2855 2742 
Q 2594 3103 2138 3103 
Q 1681 3103 1420 2742 
Q 1159 2381 1159 1747 
Q 1159 1113 1420 752 
Q 1681 391 2138 391 
Q 2594 391 2855 752 
Q 3116 1113 3116 1747 
z
M 1159 2969 
Q 1341 3281 1617 3432 
Q 1894 3584 2278 3584 
Q 2916 3584 3314 3078 
Q 3713 2572 3713 1747 
Q 3713 922 3314 415 
Q 2916 -91 2278 -91 
Q 1894 -91 1617 61 
Q 1341 213 1159 525 
L 1159 0 
L 581 0 
L 581 4863 
L 1159 4863 
L 1159 2969 
z
" transform="scale(0.015625)"/>
       </defs>
       <use xlink:href="#DejaVuSans-46"/>
       <use xlink:href="#DejaVuSans-65" x="52.019531"/>
       <use xlink:href="#DejaVuSans-62" x="113.542969"/>
      </g>
     </g>
    </g>
    <g id="xtick_3">
     <g id="line2d_3">
      <path d="M 208.376296 255.908776 
L 362.988664 166.643284 
" clip-path="url(#pdab23f910a)" style="fill: none; stroke: #b0b0b0; stroke-width: 0.8; stroke-linecap: square"/>
     </g>
     <g id="text_3">
      <!-- Mar -->
      <g transform="translate(365.679426 162.402659) scale(0.1 -0.1)">
       <defs>
        <path id="DejaVuSans-4d" d="M 628 4666 
L 1569 4666 
L 2759 1491 
L 3956 4666 
L 4897 4666 
L 4897 0 
L 4281 0 
L 4281 4097 
L 3078 897 
L 2444 897 
L 1241 4097 
L 1241 0 
L 628 0 
L 628 4666 
z
" transform="scale(0.015625)"/>
        <path id="DejaVuSans-72" d="M 2631 2963 
Q 2534 3019 2420 3045 
Q 2306 3072 2169 3072 
Q 1681 3072 1420 2755 
Q 1159 2438 1159 1844 
L 1159 0 
L 581 0 
L 581 3500 
L 1159 3500 
L 1159 2956 
Q 1341 3275 1631 3429 
Q 1922 3584 2338 3584 
Q 2397 3584 2469 3576 
Q 2541 3569 2628 3553 
L 2631 2963 
z
" transform="scale(0.015625)"/>
       </defs>
       <use xlink:href="#DejaVuSans-4d"/>
       <use xlink:href="#DejaVuSans-61" x="86.279297"/>
       <use xlink:href="#DejaVuSans-72" x="147.558594"/>
      </g>
     </g>
    </g>
    <g id="xtick_4">
     <g id="line2d_4">
      <path d="M 208.376296 255.908776 
L 386.90728 255.908776 
" clip-path="url(#pdab23f910a)" style="fill: none; stroke: #b0b0b0; stroke-width: 0.8; stroke-linecap: square"/>
     </g>
     <g id="text_4">
      <!-- Apr -->
      <g transform="translate(392.25728 258.668151) scale(0.1 -0.1)">
       <defs>
        <path id="DejaVuSans-41" d="M 2188 4044 
L 1331 1722 
L 3047 1722 
L 2188 4044 
z
M 1831 4666 
L 2547 4666 
L 4325 0 
L 3669 0 
L 3244 1197 
L 1141 1197 
L 716 0 
L 50 0 
L 1831 4666 
z
" transform="scale(0.015625)"/>
        <path id="DejaVuSans-70" d="M 1159 525 
L 1159 -1331 
L 581 -1331 
L 581 3500 
L 1159 3500 
L 1159 2969 
Q 1341 3281 1617 3432 
Q 1894 3584 2278 3584 
Q 2916 3584 3314 3078 
Q 3713 2572 3713 1747 
Q 3713 922 3314 415 
Q 2916 -91 2278 -91 
Q 1894 -91 1617 61 
Q 1341 213 1159 525 
z
M 3116 1747 
Q 3116 2381 2855 2742 
Q 2594 3103 2138 3103 
Q 1681 3103 1420 2742 
Q 1159 2381 1159 1747 
Q 1159 1113 1420 752 
Q 1681 391 2138 391 
Q 2594 391 2855 752 
Q 3116 1113 3116 1747 
z
" transform="scale(0.015625)"/>
       </defs>
       <use xlink:href="#DejaVuSans-41"/>
       <use xlink:href="#DejaVuSans-70" x="68.408203"/>
       <use xlink:href="#DejaVuSans-72" x="131.884766"/>
      </g>
     </g>
    </g>
    <g id="xtick_5">
     <g id="line2d_5">
      <path d="M 208.376296 255.908776 
L 362.988664 345.174268 
" clip-path="url(#pdab23f910a)" style="fill: none; stroke: #b0b0b0; stroke-width: 0.8; stroke-linecap: square"/>
     </g>
     <g id="text_5">
      <!-- May -->
      <g transform="translate(364.77552 354.933643) scale(0.1 -0.1)">
       <defs>
        <path id="DejaVuSans-79" d="M 2059 -325 
Q 1816 -950 1584 -1140 
Q 1353 -1331 966 -1331 
L 506 -1331 
L 506 -850 
L 844 -850 
Q 1081 -850 1212 -737 
Q 1344 -625 1503 -206 
L 1606 56 
L 191 3500 
L 800 3500 
L 1894 763 
L 2988 3500 
L 3597 3500 
L 2059 -325 
z
" transform="scale(0.015625)"/>
       </defs>
       <use xlink:href="#DejaVuSans-4d"/>
       <use xlink:href="#DejaVuSans-61" x="86.279297"/>
       <use xlink:href="#DejaVuSans-79" x="147.558594"/>
      </g>
     </g>
    </g>
    <g id="xtick_6">
     <g id="line2d_6">
      <path d="M 208.376296 255.908776 
L 297.641789 410.521144 
" clip-path="url(#pdab23f910a)" style="fill: none; stroke: #b0b0b0; stroke-width: 0.8; stroke-linecap: square"/>
     </g>
     <g id="text_6">
      <!-- Jun -->
      <g transform="translate(296.829289 425.404874) scale(0.1 -0.1)">
       <defs>
        <path id="DejaVuSans-75" d="M 544 1381 
L 544 3500 
L 1119 3500 
L 1119 1403 
Q 1119 906 1312 657 
Q 1506 409 1894 409 
Q 2359 409 2629 706 
Q 2900 1003 2900 1516 
L 2900 3500 
L 3475 3500 
L 3475 0 
L 2900 0 
L 2900 538 
Q 2691 219 2414 64 
Q 2138 -91 1772 -91 
Q 1169 -91 856 284 
Q 544 659 544 1381 
z
M 1991 3584 
L 1991 3584 
z
" transform="scale(0.015625)"/>
       </defs>
       <use xlink:href="#DejaVuSans-4a"/>
       <use xlink:href="#DejaVuSans-75" x="29.492188"/>
       <use xlink:href="#DejaVuSans-6e" x="92.871094"/>
      </g>
     </g>
    </g>
    <g id="xtick_7">
     <g id="line2d_7">
      <path d="M 208.376296 255.908776 
L 208.376296 434.43976 
" clip-path="url(#pdab23f910a)" style="fill: none; stroke: #b0b0b0; stroke-width: 0.8; stroke-linecap: square"/>
     </g>
     <g id="text_7">
      <!-- Jul -->
      <g transform="translate(202.343484 451.199135) scale(0.1 -0.1)">
       <defs>
        <path id="DejaVuSans-6c" d="M 603 4863 
L 1178 4863 
L 1178 0 
L 603 0 
L 603 4863 
z
" transform="scale(0.015625)"/>
       </defs>
       <use xlink:href="#DejaVuSans-4a"/>
       <use xlink:href="#DejaVuSans-75" x="29.492188"/>
       <use xlink:href="#DejaVuSans-6c" x="92.871094"/>
      </g>
     </g>
    </g>
    <g id="xtick_8">
     <g id="line2d_8">
      <path d="M 208.376296 255.908776 
L 119.110805 410.521144 
" clip-path="url(#pdab23f910a)" style="fill: none; stroke: #b0b0b0; stroke-width: 0.8; stroke-linecap: square"/>
     </g>
     <g id="text_8">
      <!-- Aug -->
      <g transform="translate(102.347523 425.404874) scale(0.1 -0.1)">
       <defs>
        <path id="DejaVuSans-67" d="M 2906 1791 
Q 2906 2416 2648 2759 
Q 2391 3103 1925 3103 
Q 1463 3103 1205 2759 
Q 947 2416 947 1791 
Q 947 1169 1205 825 
Q 1463 481 1925 481 
Q 2391 481 2648 825 
Q 2906 1169 2906 1791 
z
M 3481 434 
Q 3481 -459 3084 -895 
Q 2688 -1331 1869 -1331 
Q 1566 -1331 1297 -1286 
Q 1028 -1241 775 -1147 
L 775 -588 
Q 1028 -725 1275 -790 
Q 1522 -856 1778 -856 
Q 2344 -856 2625 -561 
Q 2906 -266 2906 331 
L 2906 616 
Q 2728 306 2450 153 
Q 2172 0 1784 0 
Q 1141 0 747 490 
Q 353 981 353 1791 
Q 353 2603 747 3093 
Q 1141 3584 1784 3584 
Q 2172 3584 2450 3431 
Q 2728 3278 2906 2969 
L 2906 3500 
L 3481 3500 
L 3481 434 
z
" transform="scale(0.015625)"/>
       </defs>
       <use xlink:href="#DejaVuSans-41"/>
       <use xlink:href="#DejaVuSans-75" x="68.408203"/>
       <use xlink:href="#DejaVuSans-67" x="131.787109"/>
      </g>
     </g>
    </g>
    <g id="xtick_9">
     <g id="line2d_9">
      <path d="M 208.376296 255.908776 
L 53.763929 345.174268 
" clip-path="url(#pdab23f910a)" style="fill: none; stroke: #b0b0b0; stroke-width: 0.8; stroke-linecap: square"/>
     </g>
     <g id="text_9">
      <!-- Sept -->
      <g transform="translate(30.254417 354.933643) scale(0.1 -0.1)">
       <defs>
        <path id="DejaVuSans-53" d="M 3425 4513 
L 3425 3897 
Q 3066 4069 2747 4153 
Q 2428 4238 2131 4238 
Q 1616 4238 1336 4038 
Q 1056 3838 1056 3469 
Q 1056 3159 1242 3001 
Q 1428 2844 1947 2747 
L 2328 2669 
Q 3034 2534 3370 2195 
Q 3706 1856 3706 1288 
Q 3706 609 3251 259 
Q 2797 -91 1919 -91 
Q 1588 -91 1214 -16 
Q 841 59 441 206 
L 441 856 
Q 825 641 1194 531 
Q 1563 422 1919 422 
Q 2459 422 2753 634 
Q 3047 847 3047 1241 
Q 3047 1584 2836 1778 
Q 2625 1972 2144 2069 
L 1759 2144 
Q 1053 2284 737 2584 
Q 422 2884 422 3419 
Q 422 4038 858 4394 
Q 1294 4750 2059 4750 
Q 2388 4750 2728 4690 
Q 3069 4631 3425 4513 
z
" transform="scale(0.015625)"/>
        <path id="DejaVuSans-74" d="M 1172 4494 
L 1172 3500 
L 2356 3500 
L 2356 3053 
L 1172 3053 
L 1172 1153 
Q 1172 725 1289 603 
Q 1406 481 1766 481 
L 2356 481 
L 2356 0 
L 1766 0 
Q 1100 0 847 248 
Q 594 497 594 1153 
L 594 3053 
L 172 3053 
L 172 3500 
L 594 3500 
L 594 4494 
L 1172 4494 
z
" transform="scale(0.015625)"/>
       </defs>
       <use xlink:href="#DejaVuSans-53"/>
       <use xlink:href="#DejaVuSans-65" x="63.476562"/>
       <use xlink:href="#DejaVuSans-70" x="125"/>
       <use xlink:href="#DejaVuSans-74" x="188.476562"/>
      </g>
     </g>
    </g>
    <g id="xtick_10">
     <g id="line2d_10">
      <path d="M 208.376296 255.908776 
L 29.845313 255.908776 
" clip-path="url(#pdab23f910a)" style="fill: none; stroke: #b0b0b0; stroke-width: 0.8; stroke-linecap: square"/>
     </g>
     <g id="text_10">
      <!-- Oct -->
      <g transform="translate(7.2 258.668151) scale(0.1 -0.1)">
       <defs>
        <path id="DejaVuSans-4f" d="M 2522 4238 
Q 1834 4238 1429 3725 
Q 1025 3213 1025 2328 
Q 1025 1447 1429 934 
Q 1834 422 2522 422 
Q 3209 422 3611 934 
Q 4013 1447 4013 2328 
Q 4013 3213 3611 3725 
Q 3209 4238 2522 4238 
z
M 2522 4750 
Q 3503 4750 4090 4092 
Q 4678 3434 4678 2328 
Q 4678 1225 4090 567 
Q 3503 -91 2522 -91 
Q 1538 -91 948 565 
Q 359 1222 359 2328 
Q 359 3434 948 4092 
Q 1538 4750 2522 4750 
z
" transform="scale(0.015625)"/>
        <path id="DejaVuSans-63" d="M 3122 3366 
L 3122 2828 
Q 2878 2963 2633 3030 
Q 2388 3097 2138 3097 
Q 1578 3097 1268 2742 
Q 959 2388 959 1747 
Q 959 1106 1268 751 
Q 1578 397 2138 397 
Q 2388 397 2633 464 
Q 2878 531 3122 666 
L 3122 134 
Q 2881 22 2623 -34 
Q 2366 -91 2075 -91 
Q 1284 -91 818 406 
Q 353 903 353 1747 
Q 353 2603 823 3093 
Q 1294 3584 2113 3584 
Q 2378 3584 2631 3529 
Q 2884 3475 3122 3366 
z
" transform="scale(0.015625)"/>
       </defs>
       <use xlink:href="#DejaVuSans-4f"/>
       <use xlink:href="#DejaVuSans-63" x="78.710938"/>
       <use xlink:href="#DejaVuSans-74" x="133.691406"/>
      </g>
     </g>
    </g>
    <g id="xtick_11">
     <g id="line2d_11">
      <path d="M 208.376296 255.908776 
L 53.763929 166.643284 
" clip-path="url(#pdab23f910a)" style="fill: none; stroke: #b0b0b0; stroke-width: 0.8; stroke-linecap: square"/>
     </g>
     <g id="text_11">
      <!-- Nov -->
      <g transform="translate(31.880198 162.402659) scale(0.1 -0.1)">
       <defs>
        <path id="DejaVuSans-4e" d="M 628 4666 
L 1478 4666 
L 3547 763 
L 3547 4666 
L 4159 4666 
L 4159 0 
L 3309 0 
L 1241 3903 
L 1241 0 
L 628 0 
L 628 4666 
z
" transform="scale(0.015625)"/>
        <path id="DejaVuSans-6f" d="M 1959 3097 
Q 1497 3097 1228 2736 
Q 959 2375 959 1747 
Q 959 1119 1226 758 
Q 1494 397 1959 397 
Q 2419 397 2687 759 
Q 2956 1122 2956 1747 
Q 2956 2369 2687 2733 
Q 2419 3097 1959 3097 
z
M 1959 3584 
Q 2709 3584 3137 3096 
Q 3566 2609 3566 1747 
Q 3566 888 3137 398 
Q 2709 -91 1959 -91 
Q 1206 -91 779 398 
Q 353 888 353 1747 
Q 353 2609 779 3096 
Q 1206 3584 1959 3584 
z
" transform="scale(0.015625)"/>
        <path id="DejaVuSans-76" d="M 191 3500 
L 800 3500 
L 1894 563 
L 2988 3500 
L 3597 3500 
L 2284 0 
L 1503 0 
L 191 3500 
z
" transform="scale(0.015625)"/>
       </defs>
       <use xlink:href="#DejaVuSans-4e"/>
       <use xlink:href="#DejaVuSans-6f" x="74.804688"/>
       <use xlink:href="#DejaVuSans-76" x="135.986328"/>
      </g>
     </g>
    </g>
    <g id="xtick_12">
     <g id="line2d_12">
      <path d="M 208.376296 255.908776 
L 119.110804 101.296408 
" clip-path="url(#pdab23f910a)" style="fill: none; stroke: #b0b0b0; stroke-width: 0.8; stroke-linecap: square"/>
     </g>
     <g id="text_12">
      <!-- Dec -->
      <g transform="translate(102.435023 91.931428) scale(0.1 -0.1)">
       <defs>
        <path id="DejaVuSans-44" d="M 1259 4147 
L 1259 519 
L 2022 519 
Q 2988 519 3436 956 
Q 3884 1394 3884 2338 
Q 3884 3275 3436 3711 
Q 2988 4147 2022 4147 
L 1259 4147 
z
M 628 4666 
L 1925 4666 
Q 3281 4666 3915 4102 
Q 4550 3538 4550 2338 
Q 4550 1131 3912 565 
Q 3275 0 1925 0 
L 628 0 
L 628 4666 
z
" transform="scale(0.015625)"/>
       </defs>
       <use xlink:href="#DejaVuSans-44"/>
       <use xlink:href="#DejaVuSans-65" x="77.001953"/>
       <use xlink:href="#DejaVuSans-63" x="138.525391"/>
      </g>
     </g>
    </g>
   </g>
   <g id="matplotlib.axis_2">
    <g id="ytick_1">
     <g id="line2d_13">
      <path d="M 208.376296 221.731663 
C 212.864394 221.731663 217.30885 222.615721 221.455311 224.333241 
C 225.601773 226.050762 229.369601 228.568344 232.543165 231.741908 
C 235.716729 234.915472 238.234311 238.6833 239.951831 242.829761 
C 241.669352 246.976222 242.553409 251.420679 242.553409 255.908776 
C 242.553409 260.396873 241.669352 264.84133 239.951831 268.987791 
C 238.234311 273.134252 235.716729 276.90208 232.543165 280.075644 
C 229.369601 283.249208 225.601773 285.76679 221.455311 287.484311 
C 217.30885 289.201831 212.864394 290.085889 208.376296 290.085889 
C 203.888199 290.085889 199.443743 289.201831 195.297282 287.484311 
C 191.15082 285.76679 187.382992 283.249208 184.209428 280.075644 
C 181.035864 276.90208 178.518282 273.134252 176.800762 268.987791 
C 175.083241 264.84133 174.199184 260.396873 174.199184 255.908776 
C 174.199184 251.420679 175.083241 246.976222 176.800762 242.829761 
C 178.518282 238.6833 181.035864 234.915472 184.209428 231.741908 
C 187.382992 228.568344 191.15082 226.050762 195.297282 224.333241 
C 199.443743 222.615721 203.888199 221.731663 208.376296 221.731663 
" clip-path="url(#pdab23f910a)" style="fill: none; stroke: #b0b0b0; stroke-width: 0.8; stroke-linecap: square"/>
     </g>
     <g id="text_13">
      <!-- 1000 -->
      <g transform="translate(208.376296 288.006201) scale(0.1 -0.1)">
       <defs>
        <path id="DejaVuSans-31" d="M 794 531 
L 1825 531 
L 1825 4091 
L 703 3866 
L 703 4441 
L 1819 4666 
L 2450 4666 
L 2450 531 
L 3481 531 
L 3481 0 
L 794 0 
L 794 531 
z
" transform="scale(0.015625)"/>
        <path id="DejaVuSans-30" d="M 2034 4250 
Q 1547 4250 1301 3770 
Q 1056 3291 1056 2328 
Q 1056 1369 1301 889 
Q 1547 409 2034 409 
Q 2525 409 2770 889 
Q 3016 1369 3016 2328 
Q 3016 3291 2770 3770 
Q 2525 4250 2034 4250 
z
M 2034 4750 
Q 2819 4750 3233 4129 
Q 3647 3509 3647 2328 
Q 3647 1150 3233 529 
Q 2819 -91 2034 -91 
Q 1250 -91 836 529 
Q 422 1150 422 2328 
Q 422 3509 836 4129 
Q 1250 4750 2034 4750 
z
" transform="scale(0.015625)"/>
       </defs>
       <use xlink:href="#DejaVuSans-31"/>
       <use xlink:href="#DejaVuSans-30" x="63.623047"/>
       <use xlink:href="#DejaVuSans-30" x="127.246094"/>
       <use xlink:href="#DejaVuSans-30" x="190.869141"/>
      </g>
     </g>
    </g>
    <g id="ytick_2">
     <g id="line2d_14">
      <path d="M 208.376296 187.55455 
C 217.352491 187.55455 226.241404 189.322665 234.534326 192.757706 
C 242.827249 196.192747 250.362905 201.227911 256.710033 207.57504 
C 263.057161 213.922168 268.092325 221.457824 271.527366 229.750746 
C 274.962407 238.043669 276.730522 246.932581 276.730522 255.908776 
C 276.730522 264.884971 274.962407 273.773883 271.527366 282.066806 
C 268.092325 290.359728 263.057161 297.895384 256.710033 304.242512 
C 250.362905 310.589641 242.827249 315.624805 234.534326 319.059846 
C 226.241404 322.494887 217.352491 324.263002 208.376296 324.263002 
C 199.400102 324.263002 190.511189 322.494887 182.218267 319.059846 
C 173.925344 315.624805 166.389688 310.589641 160.04256 304.242512 
C 153.695432 297.895384 148.660268 290.359728 145.225227 282.066806 
C 141.790186 273.773883 140.022071 264.884971 140.022071 255.908776 
C 140.022071 246.932581 141.790186 238.043669 145.225227 229.750746 
C 148.660268 221.457824 153.695432 213.922168 160.04256 207.57504 
C 166.389688 201.227911 173.925344 196.192747 182.218267 192.757706 
C 190.511189 189.322665 199.400102 187.55455 208.376296 187.55455 
" clip-path="url(#pdab23f910a)" style="fill: none; stroke: #b0b0b0; stroke-width: 0.8; stroke-linecap: square"/>
     </g>
     <g id="text_14">
      <!-- 2000 -->
      <g transform="translate(208.376296 322.183314) scale(0.1 -0.1)">
       <defs>
        <path id="DejaVuSans-32" d="M 1228 531 
L 3431 531 
L 3431 0 
L 469 0 
L 469 531 
Q 828 903 1448 1529 
Q 2069 2156 2228 2338 
Q 2531 2678 2651 2914 
Q 2772 3150 2772 3378 
Q 2772 3750 2511 3984 
Q 2250 4219 1831 4219 
Q 1534 4219 1204 4116 
Q 875 4013 500 3803 
L 500 4441 
Q 881 4594 1212 4672 
Q 1544 4750 1819 4750 
Q 2544 4750 2975 4387 
Q 3406 4025 3406 3419 
Q 3406 3131 3298 2873 
Q 3191 2616 2906 2266 
Q 2828 2175 2409 1742 
Q 1991 1309 1228 531 
z
" transform="scale(0.015625)"/>
       </defs>
       <use xlink:href="#DejaVuSans-32"/>
       <use xlink:href="#DejaVuSans-30" x="63.623047"/>
       <use xlink:href="#DejaVuSans-30" x="127.246094"/>
       <use xlink:href="#DejaVuSans-30" x="190.869141"/>
      </g>
     </g>
    </g>
    <g id="ytick_3">
     <g id="line2d_15">
      <path d="M 208.376296 153.377438 
C 221.840588 153.377438 235.173957 156.02961 247.613341 161.182171 
C 260.052725 166.334733 271.356209 173.887479 280.876901 183.408171 
C 290.397593 192.928864 297.95034 204.232348 303.102901 216.671732 
C 308.255463 229.111115 310.907635 242.444484 310.907635 255.908776 
C 310.907635 269.373068 308.255463 282.706437 303.102901 295.14582 
C 297.95034 307.585204 290.397593 318.888688 280.876901 328.409381 
C 271.356209 337.930073 260.052725 345.482819 247.613341 350.635381 
C 235.173957 355.787942 221.840588 358.440114 208.376296 358.440114 
C 194.912005 358.440114 181.578636 355.787942 169.139252 350.635381 
C 156.699868 345.482819 145.396384 337.930073 135.875692 328.409381 
C 126.355 318.888688 118.802253 307.585204 113.649692 295.14582 
C 108.49713 282.706437 105.844958 269.373068 105.844958 255.908776 
C 105.844958 242.444484 108.49713 229.111115 113.649692 216.671732 
C 118.802253 204.232348 126.355 192.928864 135.875692 183.408171 
C 145.396384 173.887479 156.699868 166.334733 169.139252 161.182171 
C 181.578636 156.02961 194.912005 153.377438 208.376296 153.377438 
" clip-path="url(#pdab23f910a)" style="fill: none; stroke: #b0b0b0; stroke-width: 0.8; stroke-linecap: square"/>
     </g>
     <g id="text_15">
      <!-- 3000 -->
      <g transform="translate(208.376296 356.360427) scale(0.1 -0.1)">
       <defs>
        <path id="DejaVuSans-33" d="M 2597 2516 
Q 3050 2419 3304 2112 
Q 3559 1806 3559 1356 
Q 3559 666 3084 287 
Q 2609 -91 1734 -91 
Q 1441 -91 1130 -33 
Q 819 25 488 141 
L 488 750 
Q 750 597 1062 519 
Q 1375 441 1716 441 
Q 2309 441 2620 675 
Q 2931 909 2931 1356 
Q 2931 1769 2642 2001 
Q 2353 2234 1838 2234 
L 1294 2234 
L 1294 2753 
L 1863 2753 
Q 2328 2753 2575 2939 
Q 2822 3125 2822 3475 
Q 2822 3834 2567 4026 
Q 2313 4219 1838 4219 
Q 1578 4219 1281 4162 
Q 984 4106 628 3988 
L 628 4550 
Q 988 4650 1302 4700 
Q 1616 4750 1894 4750 
Q 2613 4750 3031 4423 
Q 3450 4097 3450 3541 
Q 3450 3153 3228 2886 
Q 3006 2619 2597 2516 
z
" transform="scale(0.015625)"/>
       </defs>
       <use xlink:href="#DejaVuSans-33"/>
       <use xlink:href="#DejaVuSans-30" x="63.623047"/>
       <use xlink:href="#DejaVuSans-30" x="127.246094"/>
       <use xlink:href="#DejaVuSans-30" x="190.869141"/>
      </g>
     </g>
    </g>
    <g id="ytick_4">
     <g id="line2d_16">
      <path d="M 208.376296 119.200325 
C 226.328686 119.200325 244.106511 122.736554 260.692356 129.606636 
C 277.278201 136.476718 292.349513 146.547047 305.043769 159.241303 
C 317.738026 171.935559 327.808354 187.006872 334.678436 203.592717 
C 341.548518 220.178562 345.084748 237.956387 345.084748 255.908776 
C 345.084748 273.861165 341.548518 291.63899 334.678436 308.224835 
C 327.808354 324.81068 317.738026 339.881993 305.043769 352.576249 
C 292.349513 365.270505 277.278201 375.340834 260.692356 382.210916 
C 244.106511 389.080998 226.328686 392.617227 208.376296 392.617227 
C 190.423907 392.617227 172.646082 389.080998 156.060237 382.210916 
C 139.474392 375.340834 124.40308 365.270505 111.708824 352.576249 
C 99.014567 339.881993 88.944239 324.81068 82.074157 308.224835 
C 75.204075 291.63899 71.667845 273.861165 71.667845 255.908776 
C 71.667845 237.956387 75.204075 220.178562 82.074157 203.592717 
C 88.944239 187.006872 99.014567 171.935559 111.708824 159.241303 
C 124.40308 146.547047 139.474392 136.476718 156.060237 129.606636 
C 172.646082 122.736554 190.423907 119.200325 208.376296 119.200325 
" clip-path="url(#pdab23f910a)" style="fill: none; stroke: #b0b0b0; stroke-width: 0.8; stroke-linecap: square"/>
     </g>
     <g id="text_16">
      <!-- 4000 -->
      <g transform="translate(208.376296 390.53754) scale(0.1 -0.1)">
       <defs>
        <path id="DejaVuSans-34" d="M 2419 4116 
L 825 1625 
L 2419 1625 
L 2419 4116 
z
M 2253 4666 
L 3047 4666 
L 3047 1625 
L 3713 1625 
L 3713 1100 
L 3047 1100 
L 3047 0 
L 2419 0 
L 2419 1100 
L 313 1100 
L 313 1709 
L 2253 4666 
z
" transform="scale(0.015625)"/>
       </defs>
       <use xlink:href="#DejaVuSans-34"/>
       <use xlink:href="#DejaVuSans-30" x="63.623047"/>
       <use xlink:href="#DejaVuSans-30" x="127.246094"/>
       <use xlink:href="#DejaVuSans-30" x="190.869141"/>
      </g>
     </g>
    </g>
    <g id="ytick_5">
     <g id="line2d_17">
      <path d="M 208.376296 85.023212 
C 230.816783 85.023212 253.039064 89.443499 273.771371 98.031101 
C 294.503677 106.618704 313.342817 119.206615 329.210638 135.074435 
C 345.078458 150.942255 357.666369 169.781396 366.253971 190.513702 
C 374.841574 211.246008 379.26186 233.468289 379.26186 255.908776 
C 379.26186 278.349263 374.841574 300.571544 366.253971 321.30385 
C 357.666369 342.036156 345.078458 360.875297 329.210638 376.743117 
C 313.342817 392.610937 294.503677 405.198848 273.771371 413.786451 
C 253.039064 422.374053 230.816783 426.79434 208.376296 426.79434 
C 185.93581 426.79434 163.713529 422.374053 142.981222 413.786451 
C 122.248916 405.198848 103.409776 392.610937 87.541955 376.743117 
C 71.674135 360.875297 59.086224 342.036156 50.498622 321.30385 
C 41.911019 300.571544 37.490733 278.349263 37.490733 255.908776 
C 37.490733 233.468289 41.911019 211.246008 50.498622 190.513702 
C 59.086224 169.781396 71.674135 150.942255 87.541955 135.074435 
C 103.409776 119.206615 122.248916 106.618704 142.981222 98.031101 
C 163.713529 89.443499 185.93581 85.023212 208.376296 85.023212 
" clip-path="url(#pdab23f910a)" style="fill: none; stroke: #b0b0b0; stroke-width: 0.8; stroke-linecap: square"/>
     </g>
     <g id="text_17">
      <!-- 5000 -->
      <g transform="translate(208.376296 424.714652) scale(0.1 -0.1)">
       <defs>
        <path id="DejaVuSans-35" d="M 691 4666 
L 3169 4666 
L 3169 4134 
L 1269 4134 
L 1269 2991 
Q 1406 3038 1543 3061 
Q 1681 3084 1819 3084 
Q 2600 3084 3056 2656 
Q 3513 2228 3513 1497 
Q 3513 744 3044 326 
Q 2575 -91 1722 -91 
Q 1428 -91 1123 -41 
Q 819 9 494 109 
L 494 744 
Q 775 591 1075 516 
Q 1375 441 1709 441 
Q 2250 441 2565 725 
Q 2881 1009 2881 1497 
Q 2881 1984 2565 2268 
Q 2250 2553 1709 2553 
Q 1456 2553 1204 2497 
Q 953 2441 691 2322 
L 691 4666 
z
" transform="scale(0.015625)"/>
       </defs>
       <use xlink:href="#DejaVuSans-35"/>
       <use xlink:href="#DejaVuSans-30" x="63.623047"/>
       <use xlink:href="#DejaVuSans-30" x="127.246094"/>
       <use xlink:href="#DejaVuSans-30" x="190.869141"/>
      </g>
     </g>
    </g>
   </g>
   <g id="line2d_18">
    <path d="M 208.376296 155.769836 
L 219.799935 161.826645 
L 231.155141 163.491369 
L 242.177223 166.783058 
L 253.086649 170.720316 
L 267.280839 170.570814 
L 278.384212 176.886175 
L 286.017473 187.124696 
L 294.473694 196.480034 
L 297.680434 209.038349 
L 300.761542 220.871674 
L 301.855591 232.868199 
L 303.136986 244.402745 
L 304.243098 255.908776 
L 301.915581 267.266501 
L 300.826887 278.6958 
L 296.990716 289.515792 
L 287.330717 297.347252 
L 282.997791 307.416275 
L 273.277669 313.406375 
L 270.179982 325.670716 
L 258.039388 327.858185 
L 249.433583 334.1369 
L 239.377648 337.652622 
L 229.429347 341.324361 
L 218.926581 342.798187 
L 208.376296 346.102177 
L 198.283287 339.032188 
L 188.566472 336.280395 
L 177.362826 337.684578 
L 170.702067 327.691024 
L 162.576753 322.26087 
L 150.629398 321.09155 
L 143.55167 313.338384 
L 141.714803 301.921883 
L 131.509977 296.251333 
L 129.316768 285.8921 
L 129.066565 275.456869 
L 118.806579 266.784509 
L 122.147441 255.908776 
L 117.415535 244.86414 
L 119.907785 234.103246 
L 127.782872 225.343722 
L 128.30217 213.882632 
L 132.685968 203.663514 
L 138.563192 194.059763 
L 146.572611 186.146836 
L 155.354442 179.093359 
L 164.348908 172.021596 
L 173.096807 162.884407 
L 184.984018 161.00257 
L 196.005151 154.023223 
L 208.376296 155.188825 
" clip-path="url(#pdab23f910a)" style="fill: none; stroke-dasharray: 0.5,0.825; stroke-dashoffset: 0; stroke: #1f77b4; stroke-width: 0.5"/>
   </g>
   <g id="line2d_19">
    <path d="M 208.376296 155.188825 
L 220.891628 152.835745 
L 233.003622 155.991788 
L 245.728199 157.419905 
L 259.074501 159.311417 
L 269.397053 167.504947 
L 277.11505 178.318763 
L 290.519894 183.135899 
L 297.53956 194.363819 
L 308.030151 203.606399 
L 305.491053 219.078007 
L 309.189252 231.060614 
L 312.433237 243.273976 
L 310.01903 255.908776 
L 312.161813 268.510619 
L 303.249318 279.292876 
L 295.520733 288.958301 
L 285.847862 296.56899 
L 282.969664 307.39686 
L 274.147455 314.176938 
L 265.012678 319.838035 
L 258.874225 329.067655 
L 249.30652 333.894802 
L 238.650486 335.735253 
L 229.143078 340.162922 
L 218.646449 340.491088 
L 208.376296 342.479403 
L 198.237971 339.405395 
L 188.02665 338.470538 
L 175.363129 342.957344 
L 168.891416 331.140929 
L 161.994308 323.104686 
L 153.031742 318.379864 
L 146.928486 310.346786 
L 139.858407 303.20326 
L 133.416504 295.25071 
L 134.525621 283.916643 
L 125.482694 276.340214 
L 128.001047 265.668098 
L 120.336054 255.908776 
L 120.027985 245.181349 
L 123.989415 235.109278 
L 122.765756 223.440981 
L 133.658603 216.693905 
L 137.973884 207.313499 
L 142.605138 197.640614 
L 150.244117 190.29111 
L 155.121465 178.755832 
L 167.112532 177.287242 
L 176.987125 173.142333 
L 185.581093 163.425001 
L 197.035049 162.505204 
L 208.376296 161.374882 
" clip-path="url(#pdab23f910a)" style="fill: none; stroke-dasharray: 0.5,0.825; stroke-dashoffset: 0; stroke: #ff7f0e; stroke-width: 0.5"/>
   </g>
   <g id="line2d_20">
    <path d="M 208.376296 161.374882 
L 219.989437 160.265961 
L 230.787081 164.984649 
L 241.219792 169.307594 
L 251.38718 173.958385 
L 263.805587 175.605585 
L 271.743772 184.381682 
L 278.803367 193.515836 
L 284.685424 203.236389 
L 291.991116 212.024334 
L 296.894847 222.338118 
L 296.712073 234.135963 
L 299.64241 244.827064 
L 300.893741 255.908776 
L 296.317473 266.586768 
L 294.953321 277.248096 
L 291.781863 287.540335 
L 284.879468 296.060738 
L 282.013339 306.736756 
L 275.400969 315.287455 
L 266.372495 321.372951 
L 257.126892 326.536206 
L 248.067654 331.53434 
L 237.80213 333.498322 
L 228.349704 336.944075 
L 218.605253 340.151809 
L 208.376296 346.580656 
L 197.793055 343.069611 
L 185.401153 349.122598 
L 176.150888 340.880194 
L 168.653173 331.594864 
L 159.062672 327.351895 
L 153.46235 317.893808 
L 144.984258 312.069221 
L 133.051622 307.901645 
L 128.786367 297.680793 
L 127.559179 286.558666 
L 122.297032 277.125409 
L 124.133263 266.137732 
L 118.182896 255.908776 
L 119.654777 245.136033 
L 120.571464 234.266829 
L 126.504626 224.858947 
L 128.271908 213.86675 
L 133.839184 204.459522 
L 137.284096 192.926582 
L 145.43943 184.867739 
L 154.364287 177.658871 
L 162.82415 169.116412 
L 170.842604 156.940562 
L 182.783835 152.076078 
L 196.174054 155.414268 
L 208.376296 144.662274 
" clip-path="url(#pdab23f910a)" style="fill: none; stroke-dasharray: 0.5,0.825; stroke-dashoffset: 0; stroke: #2ca02c; stroke-width: 0.5"/>
   </g>
   <g id="line2d_21">
    <path d="M 208.376296 144.662274 
L 222.237122 139.538025 
L 235.48593 143.721673 
L 248.278762 148.484365 
L 260.220322 154.900341 
L 270.848375 163.158401 
L 282.249922 170.188485 
L 293.635011 177.912588 
L 297.429734 192.010727 
L 304.811053 202.744347 
L 306.114778 216.270027 
L 308.996034 228.414381 
L 312.623324 240.346501 
L 305.362508 253.033489 
L 306.689904 264.673242 
L 305.13047 276.274786 
L 299.970489 286.874724 
L 290.882629 295.212263 
L 287.591279 305.917065 
L 280.589851 314.504377 
L 269.462757 318.833066 
L 263.541177 328.169883 
L 253.477722 332.274396 
L 245.300251 339.73123 
L 233.919357 339.554871 
L 223.774437 341.585168 
L 214.142567 353.074244 
L 203.138466 344.169684 
L 192.857244 342.257931 
L 182.943034 339.195314 
L 174.070085 333.788593 
L 164.161258 330.773569 
L 155.928182 324.61116 
L 148.408723 317.680516 
L 141.311375 310.326668 
L 135.837221 301.702576 
L 128.184091 294.109884 
L 123.127972 284.729328 
L 118.645412 274.796437 
L 115.032837 264.230163 
L 116.480238 253.184394 
L 116.703813 242.223663 
L 115.00962 230.396284 
L 118.935768 219.635339 
L 127.804489 211.489582 
L 136.20608 204.124857 
L 137.617363 191.177246 
L 147.666501 185.463318 
L 155.698893 177.700254 
L 163.992068 169.434366 
L 174.090879 163.606441 
L 187.568428 169.800108 
L 196.572969 156.812073 
L 208.376296 147.464797 
" clip-path="url(#pdab23f910a)" style="fill: none; stroke-dasharray: 0.5,0.825; stroke-dashoffset: 0; stroke: #d62728; stroke-width: 0.5"/>
   </g>
   <g id="line2d_22">
    <path d="M 208.376296 147.464797 
L 221.044053 151.580412 
L 233.420757 154.299405 
L 247.170404 153.617122 
L 257.660924 162.004765 
L 267.319669 170.514559 
L 276.979068 178.472255 
L 293.282743 180.688228 
L 297.961468 194.072597 
L 303.7329 205.86177 
L 306.226045 218.799261 
L 308.857412 231.142405 
L 311.415399 243.397564 
L 311.249406 255.908776 
L 302.25486 267.307697 
L 299.665447 278.409531 
L 296.000075 289.140092 
L 291.718755 299.650272 
L 291.407827 313.221304 
L 276.705648 316.443299 
L 269.862692 325.312569 
L 260.446825 331.34596 
L 249.465349 334.197425 
L 240.129049 339.633904 
L 229.617467 342.087593 
L 219.124322 344.426727 
L 208.376296 347.947741 
L 197.554119 345.03743 
L 185.859183 347.264295 
L 177.568855 337.141323 
L 168.669056 331.564602 
L 158.713205 327.858185 
L 150.176126 321.603188 
L 139.279487 317.123208 
L 135.498689 306.212556 
L 130.178435 296.95018 
L 121.295773 288.934063 
L 125.416327 276.356572 
L 117.958381 266.887499 
L 116.679103 255.908776 
L 108.83177 243.821882 
L 117.319433 233.465275 
L 114.16955 220.18087 
L 125.729872 212.532586 
L 126.469854 199.372841 
L 134.137517 190.138957 
L 142.470496 181.516505 
L 151.122013 172.961627 
L 160.060526 163.850767 
L 170.454784 155.917965 
L 183.250045 153.967565 
L 194.662162 142.96272 
L 208.376296 133.964838 
" clip-path="url(#pdab23f910a)" style="fill: none; stroke: #9467bd; stroke-width: 0.5; stroke-linecap: square"/>
   </g>
   <g id="line2d_23">
    <path d="M 208.376296 133.964838 
L 223.359266 132.51292 
L 236.896883 140.19621 
L 252.321137 140.035756 
L 265.141768 147.751207 
L 275.279742 158.982402 
L 285.817879 168.4953 
L 293.51298 180.484256 
L 297.03327 194.713286 
L 300.797454 207.402411 
L 299.227647 221.453404 
L 300.561415 233.187185 
L 305.070877 244.167928 
L 302.841836 255.908776 
L 303.713761 267.48484 
L 298.404456 278.098724 
L 297.150497 289.576389 
L 292.17269 299.888516 
L 287.188746 310.309082 
L 280.0313 319.38957 
L 271.199845 326.821903 
L 260.815706 331.880377 
L 250.053016 335.317131 
L 240.407795 340.368895 
L 229.862841 343.083112 
L 219.462129 347.208817 
L 208.376296 348.084449 
L 197.994915 341.407142 
L 186.505334 344.64276 
L 177.217393 338.068052 
L 168.510227 331.867225 
L 156.791139 330.642779 
L 150.810707 320.886894 
L 143.270269 313.587683 
L 135.920597 305.921334 
L 130.602107 296.727819 
L 121.870983 288.715914 
L 118.281769 278.115083 
L 117.82267 266.903977 
L 118.114542 255.908776 
L 114.633445 244.526333 
L 118.580425 233.776081 
L 122.861624 223.477339 
L 125.881184 212.612001 
L 129.704483 201.605544 
L 133.77937 189.821666 
L 142.266523 181.286268 
L 152.345146 174.733641 
L 160.29877 164.304702 
L 169.37616 153.073867 
L 183.192791 153.735277 
L 195.247145 147.780485 
L 208.376296 141.654688 
" clip-path="url(#pdab23f910a)" style="fill: none; stroke: #8c564b; stroke-width: 0.5; stroke-linecap: square"/>
   </g>
   <g id="line2d_24">
    <path d="M 208.376296 141.654688 
L 222.214019 141.944882 
L 235.890851 144.27784 
L 248.636848 149.750427 
L 262.425792 152.926065 
L 276.580534 157.097879 
L 291.325138 162.278889 
L 302.799223 172.257362 
L 319.113132 179.472658 
L 332.209753 190.915965 
L 327.668625 210.667163 
L 322.197375 227.8544 
L 317.793849 242.62308 
L 312.274719 255.908776 
L 305.410157 267.69082 
L 299.964103 278.483143 
L 293.475539 288.182662 
L 288.420161 297.919037 
L 282.660264 307.183297 
L 275.042822 314.970164 
L 268.978811 324.314874 
L 262.271817 333.989918 
L 250.926576 336.981559 
L 239.365529 337.620666 
L 229.650184 342.220329 
L 219.165518 344.766007 
L 208.376296 349.075585 
L 197.372856 346.530259 
L 186.25996 345.63828 
L 174.841996 344.331458 
L 164.539503 339.432808 
L 155.082635 333.117974 
L 149.337572 322.54972 
L 141.556279 315.106146 
L 137.298831 304.970008 
L 129.300827 297.410784 
L 127.239618 286.67986 
L 118.580425 278.041471 
L 116.906616 267.015206 
L 112.475318 255.908776 
L 114.735229 244.538692 
L 117.485353 233.506171 
L 123.021405 223.537935 
L 123.187836 211.198423 
L 129.676356 201.586129 
L 137.744571 193.334527 
L 143.581013 182.77002 
L 151.937435 174.14297 
L 161.23586 166.090179 
L 171.812154 159.497055 
L 183.503597 154.996269 
L 196.425349 157.483871 
L 208.376296 151.258457 
" clip-path="url(#pdab23f910a)" style="fill: none; stroke: #e377c2; stroke-width: 0.5; stroke-linecap: square"/>
   </g>
   <g id="line2d_25">
    <path d="M 208.376296 151.258457 
L 221.814418 145.235891 
L 234.156878 151.312846 
L 246.903778 154.320157 
L 258.232708 160.915321 
L 270.173646 166.379859 
L 282.123709 172.665155 
L 290.750131 182.931926 
L 294.586202 196.402374 
L 304.368409 205.528229 
L 311.434898 216.823804 
L 309.355172 231.019719 
L 310.601129 243.496434 
L 307.421569 255.908776 
L 306.835129 267.863843 
L 309.122884 280.74058 
L 302.838692 291.733637 
L 293.292396 300.476183 
L 286.344929 309.726637 
L 280.542939 319.842842 
L 273.488871 329.405679 
L 261.378736 332.696066 
L 251.800135 338.645987 
L 240.456272 340.49672 
L 230.394483 345.240072 
L 220.05947 352.128366 
L 208.376296 349.041408 
L 197.002093 349.583772 
L 187.225096 341.722569 
L 171.945467 351.96898 
L 165.000107 338.5552 
L 157.334753 329.855217 
L 149.156263 322.754375 
L 141.428369 315.219464 
L 130.098264 309.9402 
L 131.116567 296.45781 
L 123.948133 287.928155 
L 122.761607 277.010902 
L 115.04058 267.241784 
L 115.517081 255.908776 
L 109.578184 243.912513 
L 112.839595 232.361094 
L 116.757998 221.162539 
L 121.947081 210.547224 
L 123.572751 197.373115 
L 130.095572 186.558105 
L 139.86418 178.574583 
L 149.258191 170.261414 
L 160.441716 164.577063 
L 170.066964 154.895368 
L 181.769624 147.961263 
L 195.902161 153.175025 
L 208.376296 149.857195 
" clip-path="url(#pdab23f910a)" style="fill: none; stroke: #7f7f7f; stroke-width: 0.5; stroke-linecap: square"/>
   </g>
   <g id="line2d_26">
    <path d="M 208.376296 149.857195 
L 221.974377 141.743945 
L 233.71983 151.030279 
L 244.6253 158.320122 
L 257.754531 159.704474 
L 269.397312 165.312749 
L 279.728714 173.114004 
L 282.993433 187.647693 
L 294.402972 194.182503 
L 301.369092 204.641898 
L 310.295426 214.574526 
L 327.524308 223.351521 
L 359.068011 233.413114 
L 382.090592 250.758782 
L 377.974078 271.028086 
L 352.454063 286.236038 
L 334.969896 298.707241 
L 312.75884 305.633419 
L 294.758486 310.441711 
L 282.076054 315.710314 
L 274.319202 323.83562 
L 265.034362 330.125823 
L 254.989793 334.834631 
L 245.424249 340.012723 
L 235.286844 344.032994 
L 224.451544 345.352642 
L 213.717386 345.909656 
L 203.073676 345.261431 
L 193.093023 340.946043 
L 181.695327 343.281192 
L 171.645228 339.293351 
L 162.458005 333.657511 
L 141.825882 343.083924 
L 140.386066 325.94454 
L 135.791192 314.805861 
L 130.577416 305.023082 
L 123.771823 296.211753 
L 120.278807 285.692567 
L 111.689011 276.260706 
L 106.181889 265.019208 
L 105.13842 252.84815 
L 99.464519 239.650135 
L 94.70105 224.846957 
L 91.603199 208.550361 
L 100.957197 196.688684 
L 108.965225 184.578868 
L 124.277564 178.973761 
L 132.405383 167.754868 
L 140.978241 155.844954 
L 151.959634 145.991409 
L 161.857138 130.671071 
L 177.333077 127.443414 
L 191.762709 116.426773 
L 208.376296 114.244644 
" clip-path="url(#pdab23f910a)" style="fill: none; stroke-dasharray: 2,3.3; stroke-dashoffset: 0; stroke: #d62728; stroke-width: 2"/>
   </g>
   <g id="line2d_27">
    <path d="M 208.376296 114.244644 
L 224.23674 125.286272 
L 239.972231 127.71903 
L 253.387641 137.223614 
L 266.428282 145.299958 
L 277.318297 156.029045 
L 288.401531 165.578959 
L 290.366402 183.271881 
L 295.711291 195.625782 
L 306.547296 204.384661 
L 305.650834 219.01741 
L 309.454724 230.995181 
L 316.13138 242.82494 
L 316.546858 255.908776 
L 314.909975 268.844307 
L 312.706755 281.623924 
L 308.111458 293.733334 
L 299.405386 303.684528 
L 293.236096 314.483267 
L 284.866286 323.672993 
L 271.947745 327.666107 
L 266.814883 340.571685 
L 254.182569 343.185337 
L 243.158892 347.622942 
L 230.23908 344.609576 
L 219.878208 350.635537 
L 208.376296 352.869245 
L 196.540698 353.383699 
L 185.671064 348.027527 
L 173.03621 349.092926 
L 161.394689 345.424749 
L 153.218813 335.818186 
L 142.697132 330.045227 
L 133.497969 322.245186 
L 127.932469 311.435141 
L 114.774908 305.034574 
L 115.096278 291.285221 
L 112.474571 279.546428 
L 104.149717 268.564174 
L 103.384206 255.908776 
L 104.42114 243.286335 
L 99.698736 229.122163 
L 100.108841 214.848346 
L 101.913418 200.032747 
L 101.830416 182.365465 
L 105.920642 165.140986 
L 113.37041 148.669299 
L 123.048194 132.289678 
L 138.920391 123.571605 
L 159.256485 126.390477 
L 177.524662 130.738773 
L 193.207945 130.986163 
L 208.376296 138.510394 
" clip-path="url(#pdab23f910a)" style="fill: none; stroke: #ff7f0e; stroke-width: 2; stroke-linecap: square"/>
   </g>
   <g id="line2d_28">
    <path d="M 208.376296 138.510394 
L 221.831502 148.853877 
L 235.372658 150.208472 
L 248.468384 154.082115 
L 262.230286 157.357349 
L 273.459626 165.72928 
L 287.086637 171.449016 
L 296.296296 182.515158 
L 301.368387 196.230229 
L 312.834129 206.024427 
L 325.213405 217.125177 
L 330.110104 231.80547 
L 329.847348 247.337889 
L 330.309229 262.571367 
L 326.542558 277.36464 
L 313.84818 289.072759 
L 305.968563 300.628335 
L 299.252366 312.215389 
L 291.441584 323.044018 
L 280.786232 331.179041 
L 268.075381 335.923256 
L 258.305737 343.932485 
L 246.665584 348.808205 
L 235.392506 355.100218 
L 223.402339 361.857092 
L 210.054985 361.776163 
L 197.320171 356.776501 
L 183.90782 358.466694 
L 170.167996 357.654379 
L 158.589646 350.552808 
L 150.676875 338.588579 
L 140.267138 331.35669 
L 129.03448 324.304944 
L 122.206298 313.158111 
L 118.126788 300.778685 
L 114.203678 288.83555 
L 115.310539 275.874188 
L 107.282058 264.654681 
L 102.814071 251.818098 
" clip-path="url(#pdab23f910a)" style="fill: none; stroke: #2ca02c; stroke-width: 3; stroke-linecap: square"/>
   </g>
   <g id="patch_3">
    <path d="M 208.376296 77.377792 
C 184.931822 77.377792 161.715316 81.995842 140.055447 90.967654 
C 118.395577 99.939466 98.713574 113.09056 82.135827 129.668307 
C 65.558081 146.246053 52.406986 165.928057 43.435174 187.587926 
C 34.463363 209.247796 29.845312 232.464302 29.845312 255.908776 
C 29.845312 279.35325 34.463363 302.569756 43.435174 324.229626 
C 52.406986 345.889495 65.558081 365.571499 82.135827 382.149245 
C 98.713574 398.726992 118.395577 411.878086 140.055447 420.849898 
C 161.715316 429.82171 184.931822 434.43976 208.376296 434.43976 
C 231.820771 434.43976 255.037277 429.82171 276.697146 420.849898 
C 298.357016 411.878086 318.039019 398.726992 334.616766 382.149245 
C 351.194512 365.571499 364.345607 345.889495 373.317419 324.229626 
C 382.28923 302.569756 386.90728 279.35325 386.90728 255.908776 
C 386.90728 232.464302 382.28923 209.247796 373.317419 187.587926 
C 364.345607 165.928057 351.194512 146.246053 334.616766 129.668307 
C 318.039019 113.09056 298.357016 99.939466 276.697146 90.967654 
C 255.037277 81.995842 231.820771 77.377792 208.376296 77.377792 
" style="fill: none; stroke: #000000; stroke-width: 0.8; stroke-linejoin: miter; stroke-linecap: square"/>
   </g>
   <g id="text_18">
    <!-- Totaal mannen en vrouwen, Totaal leeftijd -->
    <g transform="translate(104.005984 35.671595) scale(0.1 -0.1)">
     <defs>
      <path id="DejaVuSans-54" d="M -19 4666 
L 3928 4666 
L 3928 4134 
L 2272 4134 
L 2272 0 
L 1638 0 
L 1638 4134 
L -19 4134 
L -19 4666 
z
" transform="scale(0.015625)"/>
      <path id="DejaVuSans-20" transform="scale(0.015625)"/>
      <path id="DejaVuSans-6d" d="M 3328 2828 
Q 3544 3216 3844 3400 
Q 4144 3584 4550 3584 
Q 5097 3584 5394 3201 
Q 5691 2819 5691 2113 
L 5691 0 
L 5113 0 
L 5113 2094 
Q 5113 2597 4934 2840 
Q 4756 3084 4391 3084 
Q 3944 3084 3684 2787 
Q 3425 2491 3425 1978 
L 3425 0 
L 2847 0 
L 2847 2094 
Q 2847 2600 2669 2842 
Q 2491 3084 2119 3084 
Q 1678 3084 1418 2786 
Q 1159 2488 1159 1978 
L 1159 0 
L 581 0 
L 581 3500 
L 1159 3500 
L 1159 2956 
Q 1356 3278 1631 3431 
Q 1906 3584 2284 3584 
Q 2666 3584 2933 3390 
Q 3200 3197 3328 2828 
z
" transform="scale(0.015625)"/>
      <path id="DejaVuSans-77" d="M 269 3500 
L 844 3500 
L 1563 769 
L 2278 3500 
L 2956 3500 
L 3675 769 
L 4391 3500 
L 4966 3500 
L 4050 0 
L 3372 0 
L 2619 2869 
L 1863 0 
L 1184 0 
L 269 3500 
z
" transform="scale(0.015625)"/>
      <path id="DejaVuSans-2c" d="M 750 794 
L 1409 794 
L 1409 256 
L 897 -744 
L 494 -744 
L 750 256 
L 750 794 
z
" transform="scale(0.015625)"/>
      <path id="DejaVuSans-66" d="M 2375 4863 
L 2375 4384 
L 1825 4384 
Q 1516 4384 1395 4259 
Q 1275 4134 1275 3809 
L 1275 3500 
L 2222 3500 
L 2222 3053 
L 1275 3053 
L 1275 0 
L 697 0 
L 697 3053 
L 147 3053 
L 147 3500 
L 697 3500 
L 697 3744 
Q 697 4328 969 4595 
Q 1241 4863 1831 4863 
L 2375 4863 
z
" transform="scale(0.015625)"/>
      <path id="DejaVuSans-69" d="M 603 3500 
L 1178 3500 
L 1178 0 
L 603 0 
L 603 3500 
z
M 603 4863 
L 1178 4863 
L 1178 4134 
L 603 4134 
L 603 4863 
z
" transform="scale(0.015625)"/>
      <path id="DejaVuSans-6a" d="M 603 3500 
L 1178 3500 
L 1178 -63 
Q 1178 -731 923 -1031 
Q 669 -1331 103 -1331 
L -116 -1331 
L -116 -844 
L 38 -844 
Q 366 -844 484 -692 
Q 603 -541 603 -63 
L 603 3500 
z
M 603 4863 
L 1178 4863 
L 1178 4134 
L 603 4134 
L 603 4863 
z
" transform="scale(0.015625)"/>
      <path id="DejaVuSans-64" d="M 2906 2969 
L 2906 4863 
L 3481 4863 
L 3481 0 
L 2906 0 
L 2906 525 
Q 2725 213 2448 61 
Q 2172 -91 1784 -91 
Q 1150 -91 751 415 
Q 353 922 353 1747 
Q 353 2572 751 3078 
Q 1150 3584 1784 3584 
Q 2172 3584 2448 3432 
Q 2725 3281 2906 2969 
z
M 947 1747 
Q 947 1113 1208 752 
Q 1469 391 1925 391 
Q 2381 391 2643 752 
Q 2906 1113 2906 1747 
Q 2906 2381 2643 2742 
Q 2381 3103 1925 3103 
Q 1469 3103 1208 2742 
Q 947 2381 947 1747 
z
" transform="scale(0.015625)"/>
     </defs>
     <use xlink:href="#DejaVuSans-54"/>
     <use xlink:href="#DejaVuSans-6f" x="44.083984"/>
     <use xlink:href="#DejaVuSans-74" x="105.265625"/>
     <use xlink:href="#DejaVuSans-61" x="144.474609"/>
     <use xlink:href="#DejaVuSans-61" x="205.753906"/>
     <use xlink:href="#DejaVuSans-6c" x="267.033203"/>
     <use xlink:href="#DejaVuSans-20" x="294.816406"/>
     <use xlink:href="#DejaVuSans-6d" x="326.603516"/>
     <use xlink:href="#DejaVuSans-61" x="424.015625"/>
     <use xlink:href="#DejaVuSans-6e" x="485.294922"/>
     <use xlink:href="#DejaVuSans-6e" x="548.673828"/>
     <use xlink:href="#DejaVuSans-65" x="612.052734"/>
     <use xlink:href="#DejaVuSans-6e" x="673.576172"/>
     <use xlink:href="#DejaVuSans-20" x="736.955078"/>
     <use xlink:href="#DejaVuSans-65" x="768.742188"/>
     <use xlink:href="#DejaVuSans-6e" x="830.265625"/>
     <use xlink:href="#DejaVuSans-20" x="893.644531"/>
     <use xlink:href="#DejaVuSans-76" x="925.431641"/>
     <use xlink:href="#DejaVuSans-72" x="984.611328"/>
     <use xlink:href="#DejaVuSans-6f" x="1023.474609"/>
     <use xlink:href="#DejaVuSans-75" x="1084.65625"/>
     <use xlink:href="#DejaVuSans-77" x="1148.035156"/>
     <use xlink:href="#DejaVuSans-65" x="1229.822266"/>
     <use xlink:href="#DejaVuSans-6e" x="1291.345703"/>
     <use xlink:href="#DejaVuSans-2c" x="1354.724609"/>
     <use xlink:href="#DejaVuSans-20" x="1386.511719"/>
     <use xlink:href="#DejaVuSans-54" x="1418.298828"/>
     <use xlink:href="#DejaVuSans-6f" x="1462.382812"/>
     <use xlink:href="#DejaVuSans-74" x="1523.564453"/>
     <use xlink:href="#DejaVuSans-61" x="1562.773438"/>
     <use xlink:href="#DejaVuSans-61" x="1624.052734"/>
     <use xlink:href="#DejaVuSans-6c" x="1685.332031"/>
     <use xlink:href="#DejaVuSans-20" x="1713.115234"/>
     <use xlink:href="#DejaVuSans-6c" x="1744.902344"/>
     <use xlink:href="#DejaVuSans-65" x="1772.685547"/>
     <use xlink:href="#DejaVuSans-65" x="1834.208984"/>
     <use xlink:href="#DejaVuSans-66" x="1895.732422"/>
     <use xlink:href="#DejaVuSans-74" x="1929.1875"/>
     <use xlink:href="#DejaVuSans-69" x="1968.396484"/>
     <use xlink:href="#DejaVuSans-6a" x="1996.179688"/>
     <use xlink:href="#DejaVuSans-64" x="2023.962891"/>
    </g>
   </g>
  </g>
  <g id="text_19">
   <!-- Deaths in the Netherlands per week (2012-2022) -->
   <g transform="translate(36.036296 17.837812) scale(0.14 -0.14)">
    <defs>
     <path id="DejaVuSans-68" d="M 3513 2113 
L 3513 0 
L 2938 0 
L 2938 2094 
Q 2938 2591 2744 2837 
Q 2550 3084 2163 3084 
Q 1697 3084 1428 2787 
Q 1159 2491 1159 1978 
L 1159 0 
L 581 0 
L 581 4863 
L 1159 4863 
L 1159 2956 
Q 1366 3272 1645 3428 
Q 1925 3584 2291 3584 
Q 2894 3584 3203 3211 
Q 3513 2838 3513 2113 
z
" transform="scale(0.015625)"/>
     <path id="DejaVuSans-73" d="M 2834 3397 
L 2834 2853 
Q 2591 2978 2328 3040 
Q 2066 3103 1784 3103 
Q 1356 3103 1142 2972 
Q 928 2841 928 2578 
Q 928 2378 1081 2264 
Q 1234 2150 1697 2047 
L 1894 2003 
Q 2506 1872 2764 1633 
Q 3022 1394 3022 966 
Q 3022 478 2636 193 
Q 2250 -91 1575 -91 
Q 1294 -91 989 -36 
Q 684 19 347 128 
L 347 722 
Q 666 556 975 473 
Q 1284 391 1588 391 
Q 1994 391 2212 530 
Q 2431 669 2431 922 
Q 2431 1156 2273 1281 
Q 2116 1406 1581 1522 
L 1381 1569 
Q 847 1681 609 1914 
Q 372 2147 372 2553 
Q 372 3047 722 3315 
Q 1072 3584 1716 3584 
Q 2034 3584 2315 3537 
Q 2597 3491 2834 3397 
z
" transform="scale(0.015625)"/>
     <path id="DejaVuSans-6b" d="M 581 4863 
L 1159 4863 
L 1159 1991 
L 2875 3500 
L 3609 3500 
L 1753 1863 
L 3688 0 
L 2938 0 
L 1159 1709 
L 1159 0 
L 581 0 
L 581 4863 
z
" transform="scale(0.015625)"/>
     <path id="DejaVuSans-28" d="M 1984 4856 
Q 1566 4138 1362 3434 
Q 1159 2731 1159 2009 
Q 1159 1288 1364 580 
Q 1569 -128 1984 -844 
L 1484 -844 
Q 1016 -109 783 600 
Q 550 1309 550 2009 
Q 550 2706 781 3412 
Q 1013 4119 1484 4856 
L 1984 4856 
z
" transform="scale(0.015625)"/>
     <path id="DejaVuSans-2d" d="M 313 2009 
L 1997 2009 
L 1997 1497 
L 313 1497 
L 313 2009 
z
" transform="scale(0.015625)"/>
     <path id="DejaVuSans-29" d="M 513 4856 
L 1013 4856 
Q 1481 4119 1714 3412 
Q 1947 2706 1947 2009 
Q 1947 1309 1714 600 
Q 1481 -109 1013 -844 
L 513 -844 
Q 928 -128 1133 580 
Q 1338 1288 1338 2009 
Q 1338 2731 1133 3434 
Q 928 4138 513 4856 
z
" transform="scale(0.015625)"/>
    </defs>
    <use xlink:href="#DejaVuSans-44"/>
    <use xlink:href="#DejaVuSans-65" x="77.001953"/>
    <use xlink:href="#DejaVuSans-61" x="138.525391"/>
    <use xlink:href="#DejaVuSans-74" x="199.804688"/>
    <use xlink:href="#DejaVuSans-68" x="239.013672"/>
    <use xlink:href="#DejaVuSans-73" x="302.392578"/>
    <use xlink:href="#DejaVuSans-20" x="354.492188"/>
    <use xlink:href="#DejaVuSans-69" x="386.279297"/>
    <use xlink:href="#DejaVuSans-6e" x="414.0625"/>
    <use xlink:href="#DejaVuSans-20" x="477.441406"/>
    <use xlink:href="#DejaVuSans-74" x="509.228516"/>
    <use xlink:href="#DejaVuSans-68" x="548.4375"/>
    <use xlink:href="#DejaVuSans-65" x="611.816406"/>
    <use xlink:href="#DejaVuSans-20" x="673.339844"/>
    <use xlink:href="#DejaVuSans-4e" x="705.126953"/>
    <use xlink:href="#DejaVuSans-65" x="779.931641"/>
    <use xlink:href="#DejaVuSans-74" x="841.455078"/>
    <use xlink:href="#DejaVuSans-68" x="880.664062"/>
    <use xlink:href="#DejaVuSans-65" x="944.042969"/>
    <use xlink:href="#DejaVuSans-72" x="1005.566406"/>
    <use xlink:href="#DejaVuSans-6c" x="1046.679688"/>
    <use xlink:href="#DejaVuSans-61" x="1074.462891"/>
    <use xlink:href="#DejaVuSans-6e" x="1135.742188"/>
    <use xlink:href="#DejaVuSans-64" x="1199.121094"/>
    <use xlink:href="#DejaVuSans-73" x="1262.597656"/>
    <use xlink:href="#DejaVuSans-20" x="1314.697266"/>
    <use xlink:href="#DejaVuSans-70" x="1346.484375"/>
    <use xlink:href="#DejaVuSans-65" x="1409.960938"/>
    <use xlink:href="#DejaVuSans-72" x="1471.484375"/>
    <use xlink:href="#DejaVuSans-20" x="1512.597656"/>
    <use xlink:href="#DejaVuSans-77" x="1544.384766"/>
    <use xlink:href="#DejaVuSans-65" x="1626.171875"/>
    <use xlink:href="#DejaVuSans-65" x="1687.695312"/>
    <use xlink:href="#DejaVuSans-6b" x="1749.21875"/>
    <use xlink:href="#DejaVuSans-20" x="1807.128906"/>
    <use xlink:href="#DejaVuSans-28" x="1838.916016"/>
    <use xlink:href="#DejaVuSans-32" x="1877.929688"/>
    <use xlink:href="#DejaVuSans-30" x="1941.552734"/>
    <use xlink:href="#DejaVuSans-31" x="2005.175781"/>
    <use xlink:href="#DejaVuSans-32" x="2068.798828"/>
    <use xlink:href="#DejaVuSans-2d" x="2132.421875"/>
    <use xlink:href="#DejaVuSans-32" x="2168.505859"/>
    <use xlink:href="#DejaVuSans-30" x="2232.128906"/>
    <use xlink:href="#DejaVuSans-32" x="2295.751953"/>
    <use xlink:href="#DejaVuSans-32" x="2359.375"/>
    <use xlink:href="#DejaVuSans-29" x="2422.998047"/>
   </g>
  </g>
  <g id="legend_1">
   <g id="patch_4">
    <path d="M 434.126296 455.478822 
L 491.576296 455.478822 
Q 493.576296 455.478822 493.576296 453.478822 
L 493.576296 293.019448 
Q 493.576296 291.019448 491.576296 291.019448 
L 434.126296 291.019448 
Q 432.126296 291.019448 432.126296 293.019448 
L 432.126296 453.478822 
Q 432.126296 455.478822 434.126296 455.478822 
z
" style="fill: #ffffff; opacity: 0.8; stroke: #cccccc; stroke-linejoin: miter"/>
   </g>
   <g id="line2d_29">
    <path d="M 436.126296 299.117885 
L 446.126296 299.117885 
L 456.126296 299.117885 
" style="fill: none; stroke-dasharray: 0.5,0.825; stroke-dashoffset: 0; stroke: #1f77b4; stroke-width: 0.5"/>
   </g>
   <g id="text_20">
    <!-- 2012 -->
    <g transform="translate(464.126296 302.617885) scale(0.1 -0.1)">
     <use xlink:href="#DejaVuSans-32"/>
     <use xlink:href="#DejaVuSans-30" x="63.623047"/>
     <use xlink:href="#DejaVuSans-31" x="127.246094"/>
     <use xlink:href="#DejaVuSans-32" x="190.869141"/>
    </g>
   </g>
   <g id="line2d_30">
    <path d="M 436.126296 313.79601 
L 446.126296 313.79601 
L 456.126296 313.79601 
" style="fill: none; stroke-dasharray: 0.5,0.825; stroke-dashoffset: 0; stroke: #ff7f0e; stroke-width: 0.5"/>
   </g>
   <g id="text_21">
    <!-- 2013 -->
    <g transform="translate(464.126296 317.29601) scale(0.1 -0.1)">
     <use xlink:href="#DejaVuSans-32"/>
     <use xlink:href="#DejaVuSans-30" x="63.623047"/>
     <use xlink:href="#DejaVuSans-31" x="127.246094"/>
     <use xlink:href="#DejaVuSans-33" x="190.869141"/>
    </g>
   </g>
   <g id="line2d_31">
    <path d="M 436.126296 328.474135 
L 446.126296 328.474135 
L 456.126296 328.474135 
" style="fill: none; stroke-dasharray: 0.5,0.825; stroke-dashoffset: 0; stroke: #2ca02c; stroke-width: 0.5"/>
   </g>
   <g id="text_22">
    <!-- 2014 -->
    <g transform="translate(464.126296 331.974135) scale(0.1 -0.1)">
     <use xlink:href="#DejaVuSans-32"/>
     <use xlink:href="#DejaVuSans-30" x="63.623047"/>
     <use xlink:href="#DejaVuSans-31" x="127.246094"/>
     <use xlink:href="#DejaVuSans-34" x="190.869141"/>
    </g>
   </g>
   <g id="line2d_32">
    <path d="M 436.126296 343.15226 
L 446.126296 343.15226 
L 456.126296 343.15226 
" style="fill: none; stroke-dasharray: 0.5,0.825; stroke-dashoffset: 0; stroke: #d62728; stroke-width: 0.5"/>
   </g>
   <g id="text_23">
    <!-- 2015 -->
    <g transform="translate(464.126296 346.65226) scale(0.1 -0.1)">
     <use xlink:href="#DejaVuSans-32"/>
     <use xlink:href="#DejaVuSans-30" x="63.623047"/>
     <use xlink:href="#DejaVuSans-31" x="127.246094"/>
     <use xlink:href="#DejaVuSans-35" x="190.869141"/>
    </g>
   </g>
   <g id="line2d_33">
    <path d="M 436.126296 357.830385 
L 446.126296 357.830385 
L 456.126296 357.830385 
" style="fill: none; stroke: #9467bd; stroke-width: 0.5; stroke-linecap: square"/>
   </g>
   <g id="text_24">
    <!-- 2016 -->
    <g transform="translate(464.126296 361.330385) scale(0.1 -0.1)">
     <defs>
      <path id="DejaVuSans-36" d="M 2113 2584 
Q 1688 2584 1439 2293 
Q 1191 2003 1191 1497 
Q 1191 994 1439 701 
Q 1688 409 2113 409 
Q 2538 409 2786 701 
Q 3034 994 3034 1497 
Q 3034 2003 2786 2293 
Q 2538 2584 2113 2584 
z
M 3366 4563 
L 3366 3988 
Q 3128 4100 2886 4159 
Q 2644 4219 2406 4219 
Q 1781 4219 1451 3797 
Q 1122 3375 1075 2522 
Q 1259 2794 1537 2939 
Q 1816 3084 2150 3084 
Q 2853 3084 3261 2657 
Q 3669 2231 3669 1497 
Q 3669 778 3244 343 
Q 2819 -91 2113 -91 
Q 1303 -91 875 529 
Q 447 1150 447 2328 
Q 447 3434 972 4092 
Q 1497 4750 2381 4750 
Q 2619 4750 2861 4703 
Q 3103 4656 3366 4563 
z
" transform="scale(0.015625)"/>
     </defs>
     <use xlink:href="#DejaVuSans-32"/>
     <use xlink:href="#DejaVuSans-30" x="63.623047"/>
     <use xlink:href="#DejaVuSans-31" x="127.246094"/>
     <use xlink:href="#DejaVuSans-36" x="190.869141"/>
    </g>
   </g>
   <g id="line2d_34">
    <path d="M 436.126296 372.50851 
L 446.126296 372.50851 
L 456.126296 372.50851 
" style="fill: none; stroke: #8c564b; stroke-width: 0.5; stroke-linecap: square"/>
   </g>
   <g id="text_25">
    <!-- 2017 -->
    <g transform="translate(464.126296 376.00851) scale(0.1 -0.1)">
     <defs>
      <path id="DejaVuSans-37" d="M 525 4666 
L 3525 4666 
L 3525 4397 
L 1831 0 
L 1172 0 
L 2766 4134 
L 525 4134 
L 525 4666 
z
" transform="scale(0.015625)"/>
     </defs>
     <use xlink:href="#DejaVuSans-32"/>
     <use xlink:href="#DejaVuSans-30" x="63.623047"/>
     <use xlink:href="#DejaVuSans-31" x="127.246094"/>
     <use xlink:href="#DejaVuSans-37" x="190.869141"/>
    </g>
   </g>
   <g id="line2d_35">
    <path d="M 436.126296 387.186635 
L 446.126296 387.186635 
L 456.126296 387.186635 
" style="fill: none; stroke: #e377c2; stroke-width: 0.5; stroke-linecap: square"/>
   </g>
   <g id="text_26">
    <!-- 2018 -->
    <g transform="translate(464.126296 390.686635) scale(0.1 -0.1)">
     <defs>
      <path id="DejaVuSans-38" d="M 2034 2216 
Q 1584 2216 1326 1975 
Q 1069 1734 1069 1313 
Q 1069 891 1326 650 
Q 1584 409 2034 409 
Q 2484 409 2743 651 
Q 3003 894 3003 1313 
Q 3003 1734 2745 1975 
Q 2488 2216 2034 2216 
z
M 1403 2484 
Q 997 2584 770 2862 
Q 544 3141 544 3541 
Q 544 4100 942 4425 
Q 1341 4750 2034 4750 
Q 2731 4750 3128 4425 
Q 3525 4100 3525 3541 
Q 3525 3141 3298 2862 
Q 3072 2584 2669 2484 
Q 3125 2378 3379 2068 
Q 3634 1759 3634 1313 
Q 3634 634 3220 271 
Q 2806 -91 2034 -91 
Q 1263 -91 848 271 
Q 434 634 434 1313 
Q 434 1759 690 2068 
Q 947 2378 1403 2484 
z
M 1172 3481 
Q 1172 3119 1398 2916 
Q 1625 2713 2034 2713 
Q 2441 2713 2670 2916 
Q 2900 3119 2900 3481 
Q 2900 3844 2670 4047 
Q 2441 4250 2034 4250 
Q 1625 4250 1398 4047 
Q 1172 3844 1172 3481 
z
" transform="scale(0.015625)"/>
     </defs>
     <use xlink:href="#DejaVuSans-32"/>
     <use xlink:href="#DejaVuSans-30" x="63.623047"/>
     <use xlink:href="#DejaVuSans-31" x="127.246094"/>
     <use xlink:href="#DejaVuSans-38" x="190.869141"/>
    </g>
   </g>
   <g id="line2d_36">
    <path d="M 436.126296 401.86476 
L 446.126296 401.86476 
L 456.126296 401.86476 
" style="fill: none; stroke: #7f7f7f; stroke-width: 0.5; stroke-linecap: square"/>
   </g>
   <g id="text_27">
    <!-- 2019 -->
    <g transform="translate(464.126296 405.36476) scale(0.1 -0.1)">
     <defs>
      <path id="DejaVuSans-39" d="M 703 97 
L 703 672 
Q 941 559 1184 500 
Q 1428 441 1663 441 
Q 2288 441 2617 861 
Q 2947 1281 2994 2138 
Q 2813 1869 2534 1725 
Q 2256 1581 1919 1581 
Q 1219 1581 811 2004 
Q 403 2428 403 3163 
Q 403 3881 828 4315 
Q 1253 4750 1959 4750 
Q 2769 4750 3195 4129 
Q 3622 3509 3622 2328 
Q 3622 1225 3098 567 
Q 2575 -91 1691 -91 
Q 1453 -91 1209 -44 
Q 966 3 703 97 
z
M 1959 2075 
Q 2384 2075 2632 2365 
Q 2881 2656 2881 3163 
Q 2881 3666 2632 3958 
Q 2384 4250 1959 4250 
Q 1534 4250 1286 3958 
Q 1038 3666 1038 3163 
Q 1038 2656 1286 2365 
Q 1534 2075 1959 2075 
z
" transform="scale(0.015625)"/>
     </defs>
     <use xlink:href="#DejaVuSans-32"/>
     <use xlink:href="#DejaVuSans-30" x="63.623047"/>
     <use xlink:href="#DejaVuSans-31" x="127.246094"/>
     <use xlink:href="#DejaVuSans-39" x="190.869141"/>
    </g>
   </g>
   <g id="line2d_37">
    <path d="M 436.126296 416.542885 
L 446.126296 416.542885 
L 456.126296 416.542885 
" style="fill: none; stroke-dasharray: 2,3.3; stroke-dashoffset: 0; stroke: #d62728; stroke-width: 2"/>
   </g>
   <g id="text_28">
    <!-- 2020 -->
    <g transform="translate(464.126296 420.042885) scale(0.1 -0.1)">
     <use xlink:href="#DejaVuSans-32"/>
     <use xlink:href="#DejaVuSans-30" x="63.623047"/>
     <use xlink:href="#DejaVuSans-32" x="127.246094"/>
     <use xlink:href="#DejaVuSans-30" x="190.869141"/>
    </g>
   </g>
   <g id="line2d_38">
    <path d="M 436.126296 431.22101 
L 446.126296 431.22101 
L 456.126296 431.22101 
" style="fill: none; stroke: #ff7f0e; stroke-width: 2; stroke-linecap: square"/>
   </g>
   <g id="text_29">
    <!-- 2021 -->
    <g transform="translate(464.126296 434.72101) scale(0.1 -0.1)">
     <use xlink:href="#DejaVuSans-32"/>
     <use xlink:href="#DejaVuSans-30" x="63.623047"/>
     <use xlink:href="#DejaVuSans-32" x="127.246094"/>
     <use xlink:href="#DejaVuSans-31" x="190.869141"/>
    </g>
   </g>
   <g id="line2d_39">
    <path d="M 436.126296 445.899135 
L 446.126296 445.899135 
L 456.126296 445.899135 
" style="fill: none; stroke: #2ca02c; stroke-width: 3; stroke-linecap: square"/>
   </g>
   <g id="text_30">
    <!-- 2022 -->
    <g transform="translate(464.126296 449.399135) scale(0.1 -0.1)">
     <use xlink:href="#DejaVuSans-32"/>
     <use xlink:href="#DejaVuSans-30" x="63.623047"/>
     <use xlink:href="#DejaVuSans-32" x="127.246094"/>
     <use xlink:href="#DejaVuSans-32" x="190.869141"/>
    </g>
   </g>
  </g>
 </g>
 <defs>
  <clipPath id="pdab23f910a">
   <path d="M 386.90728 255.908776 
C 386.90728 232.464302 382.28923 209.247796 373.317419 187.587926 
C 364.345607 165.928057 351.194512 146.246053 334.616766 129.668307 
C 318.039019 113.09056 298.357016 99.939466 276.697146 90.967654 
C 255.037277 81.995842 231.820771 77.377792 208.376296 77.377792 
C 184.931822 77.377792 161.715316 81.995842 140.055447 90.967654 
C 118.395577 99.939466 98.713574 113.09056 82.135827 129.668307 
C 65.558081 146.246053 52.406986 165.928057 43.435174 187.587926 
C 34.463363 209.247796 29.845312 232.464302 29.845312 255.908776 
C 29.845312 279.35325 34.463363 302.569756 43.435174 324.229626 
C 52.406986 345.889495 65.558081 365.571499 82.135827 382.149245 
C 98.713574 398.726992 118.395577 411.878086 140.055447 420.849898 
C 161.715316 429.82171 184.931822 434.43976 208.376296 434.43976 
C 231.820771 434.43976 255.037277 429.82171 276.697146 420.849898 
C 298.357016 411.878086 318.039019 398.726992 334.616766 382.149245 
C 351.194512 365.571499 364.345607 345.889495 373.317419 324.229626 
C 382.28923 302.569756 386.90728 279.35325 386.90728 255.908776 
M 208.376296 255.908776 
C 208.376296 255.908776 208.376296 255.908776 208.376296 255.908776 
C 208.376296 255.908776 208.376296 255.908776 208.376296 255.908776 
C 208.376296 255.908776 208.376296 255.908776 208.376296 255.908776 
C 208.376296 255.908776 208.376296 255.908776 208.376296 255.908776 
C 208.376296 255.908776 208.376296 255.908776 208.376296 255.908776 
C 208.376296 255.908776 208.376296 255.908776 208.376296 255.908776 
C 208.376296 255.908776 208.376296 255.908776 208.376296 255.908776 
C 208.376296 255.908776 208.376296 255.908776 208.376296 255.908776 
C 208.376296 255.908776 208.376296 255.908776 208.376296 255.908776 
C 208.376296 255.908776 208.376296 255.908776 208.376296 255.908776 
C 208.376296 255.908776 208.376296 255.908776 208.376296 255.908776 
C 208.376296 255.908776 208.376296 255.908776 208.376296 255.908776 
C 208.376296 255.908776 208.376296 255.908776 208.376296 255.908776 
C 208.376296 255.908776 208.376296 255.908776 208.376296 255.908776 
C 208.376296 255.908776 208.376296 255.908776 208.376296 255.908776 
C 208.376296 255.908776 208.376296 255.908776 208.376296 255.908776 
M 386.90728 255.908776 
z
"/>
  </clipPath>
 </defs>
</svg>
