<?xml version="1.0" encoding="utf-8" standalone="no"?>
<!DOCTYPE svg PUBLIC "-//W3C//DTD SVG 1.1//EN"
  "http://www.w3.org/Graphics/SVG/1.1/DTD/svg11.dtd">
<svg height="460.478822pt" version="1.1" viewBox="0 0 498.543896 460.478822" width="498.543896pt" xmlns="http://www.w3.org/2000/svg" xmlns:xlink="http://www.w3.org/1999/xlink">
 <metadata>
  <rdf:RDF xmlns:cc="http://creativecommons.org/ns#" xmlns:dc="http://purl.org/dc/elements/1.1/" xmlns:rdf="http://www.w3.org/1999/02/22-rdf-syntax-ns#">
   <cc:Work>
    <dc:type rdf:resource="http://purl.org/dc/dcmitype/StillImage"/>
    <dc:date>2021-11-19T12:53:25.719499</dc:date>
    <dc:format>image/svg+xml</dc:format>
    <dc:creator>
     <cc:Agent>
      <dc:title>Matplotlib v3.4.2, https://matplotlib.org/</dc:title>
     </cc:Agent>
    </dc:creator>
   </cc:Work>
  </rdf:RDF>
 </metadata>
 <defs>
  <style type="text/css">*{stroke-linecap:butt;stroke-linejoin:round;}</style>
 </defs>
 <g id="figure_1">
  <g id="patch_1">
   <path d="M 0 460.478822 
L 498.543896 460.478822 
L 498.543896 0 
L 0 0 
z
" style="fill:#ffffff;"/>
  </g>
  <g id="axes_1">
   <g id="patch_2">
    <path d="M 386.84248 255.941176 
C 386.84248 232.500957 382.225268 209.288664 373.255085 187.632725 
C 364.284901 165.976786 351.136194 146.298355 334.561456 129.723617 
C 317.986718 113.148879 298.308286 100.000171 276.652347 91.029988 
C 254.996408 82.059804 231.784116 77.442592 208.343896 77.442592 
C 184.903677 77.442592 161.691385 82.059804 140.035446 91.029988 
C 118.379507 100.000171 98.701075 113.148879 82.126337 129.723617 
C 65.551599 146.298355 52.402892 165.976786 43.432708 187.632725 
C 34.462525 209.288664 29.845313 232.500957 29.845313 255.941176 
C 29.845313 279.381395 34.462525 302.593688 43.432708 324.249627 
C 52.402892 345.905566 65.551599 365.583997 82.126337 382.158735 
C 98.701075 398.733473 118.379507 411.882181 140.035446 420.852364 
C 161.691385 429.822548 184.903677 434.43976 208.343896 434.43976 
C 231.784116 434.43976 254.996408 429.822548 276.652347 420.852364 
C 298.308286 411.882181 317.986718 398.733473 334.561456 382.158735 
C 351.136194 365.583997 364.284901 345.905566 373.255085 324.249627 
C 382.225268 302.593688 386.84248 279.381395 386.84248 255.941176 
M 208.343896 255.941176 
C 208.343896 255.941176 208.343896 255.941176 208.343896 255.941176 
C 208.343896 255.941176 208.343896 255.941176 208.343896 255.941176 
C 208.343896 255.941176 208.343896 255.941176 208.343896 255.941176 
C 208.343896 255.941176 208.343896 255.941176 208.343896 255.941176 
C 208.343896 255.941176 208.343896 255.941176 208.343896 255.941176 
C 208.343896 255.941176 208.343896 255.941176 208.343896 255.941176 
C 208.343896 255.941176 208.343896 255.941176 208.343896 255.941176 
C 208.343896 255.941176 208.343896 255.941176 208.343896 255.941176 
C 208.343896 255.941176 208.343896 255.941176 208.343896 255.941176 
C 208.343896 255.941176 208.343896 255.941176 208.343896 255.941176 
C 208.343896 255.941176 208.343896 255.941176 208.343896 255.941176 
C 208.343896 255.941176 208.343896 255.941176 208.343896 255.941176 
C 208.343896 255.941176 208.343896 255.941176 208.343896 255.941176 
C 208.343896 255.941176 208.343896 255.941176 208.343896 255.941176 
C 208.343896 255.941176 208.343896 255.941176 208.343896 255.941176 
C 208.343896 255.941176 208.343896 255.941176 208.343896 255.941176 
M 386.84248 255.941176 
z
" style="fill:#ffffff;"/>
   </g>
   <g id="matplotlib.axis_1">
    <g id="xtick_1">
     <g id="line2d_1">
      <path clip-path="url(#p0173a94aa3)" d="M 208.343896 255.941176 
L 208.343896 77.442592 
" style="fill:none;stroke:#b0b0b0;stroke-linecap:square;stroke-width:0.8;"/>
     </g>
     <g id="text_1">
      <!-- Jan -->
      <g transform="translate(200.636084 66.201967)scale(0.1 -0.1)">
       <defs>
        <path d="M 628 4666 
L 1259 4666 
L 1259 325 
Q 1259 -519 939 -900 
Q 619 -1281 -91 -1281 
L -331 -1281 
L -331 -750 
L -134 -750 
Q 284 -750 456 -515 
Q 628 -281 628 325 
L 628 4666 
z
" id="DejaVuSans-4a" transform="scale(0.015625)"/>
        <path d="M 2194 1759 
Q 1497 1759 1228 1600 
Q 959 1441 959 1056 
Q 959 750 1161 570 
Q 1363 391 1709 391 
Q 2188 391 2477 730 
Q 2766 1069 2766 1631 
L 2766 1759 
L 2194 1759 
z
M 3341 1997 
L 3341 0 
L 2766 0 
L 2766 531 
Q 2569 213 2275 61 
Q 1981 -91 1556 -91 
Q 1019 -91 701 211 
Q 384 513 384 1019 
Q 384 1609 779 1909 
Q 1175 2209 1959 2209 
L 2766 2209 
L 2766 2266 
Q 2766 2663 2505 2880 
Q 2244 3097 1772 3097 
Q 1472 3097 1187 3025 
Q 903 2953 641 2809 
L 641 3341 
Q 956 3463 1253 3523 
Q 1550 3584 1831 3584 
Q 2591 3584 2966 3190 
Q 3341 2797 3341 1997 
z
" id="DejaVuSans-61" transform="scale(0.015625)"/>
        <path d="M 3513 2113 
L 3513 0 
L 2938 0 
L 2938 2094 
Q 2938 2591 2744 2837 
Q 2550 3084 2163 3084 
Q 1697 3084 1428 2787 
Q 1159 2491 1159 1978 
L 1159 0 
L 581 0 
L 581 3500 
L 1159 3500 
L 1159 2956 
Q 1366 3272 1645 3428 
Q 1925 3584 2291 3584 
Q 2894 3584 3203 3211 
Q 3513 2838 3513 2113 
z
" id="DejaVuSans-6e" transform="scale(0.015625)"/>
       </defs>
       <use xlink:href="#DejaVuSans-4a"/>
       <use x="29.492188" xlink:href="#DejaVuSans-61"/>
       <use x="90.771484" xlink:href="#DejaVuSans-6e"/>
      </g>
     </g>
    </g>
    <g id="xtick_2">
     <g id="line2d_2">
      <path clip-path="url(#p0173a94aa3)" d="M 208.343896 255.941176 
L 297.593188 101.356868 
" style="fill:none;stroke:#b0b0b0;stroke-linecap:square;stroke-width:0.8;"/>
     </g>
     <g id="text_2">
      <!-- Feb -->
      <g transform="translate(295.741626 91.991887)scale(0.1 -0.1)">
       <defs>
        <path d="M 628 4666 
L 3309 4666 
L 3309 4134 
L 1259 4134 
L 1259 2759 
L 3109 2759 
L 3109 2228 
L 1259 2228 
L 1259 0 
L 628 0 
L 628 4666 
z
" id="DejaVuSans-46" transform="scale(0.015625)"/>
        <path d="M 3597 1894 
L 3597 1613 
L 953 1613 
Q 991 1019 1311 708 
Q 1631 397 2203 397 
Q 2534 397 2845 478 
Q 3156 559 3463 722 
L 3463 178 
Q 3153 47 2828 -22 
Q 2503 -91 2169 -91 
Q 1331 -91 842 396 
Q 353 884 353 1716 
Q 353 2575 817 3079 
Q 1281 3584 2069 3584 
Q 2775 3584 3186 3129 
Q 3597 2675 3597 1894 
z
M 3022 2063 
Q 3016 2534 2758 2815 
Q 2500 3097 2075 3097 
Q 1594 3097 1305 2825 
Q 1016 2553 972 2059 
L 3022 2063 
z
" id="DejaVuSans-65" transform="scale(0.015625)"/>
        <path d="M 3116 1747 
Q 3116 2381 2855 2742 
Q 2594 3103 2138 3103 
Q 1681 3103 1420 2742 
Q 1159 2381 1159 1747 
Q 1159 1113 1420 752 
Q 1681 391 2138 391 
Q 2594 391 2855 752 
Q 3116 1113 3116 1747 
z
M 1159 2969 
Q 1341 3281 1617 3432 
Q 1894 3584 2278 3584 
Q 2916 3584 3314 3078 
Q 3713 2572 3713 1747 
Q 3713 922 3314 415 
Q 2916 -91 2278 -91 
Q 1894 -91 1617 61 
Q 1341 213 1159 525 
L 1159 0 
L 581 0 
L 581 4863 
L 1159 4863 
L 1159 2969 
z
" id="DejaVuSans-62" transform="scale(0.015625)"/>
       </defs>
       <use xlink:href="#DejaVuSans-46"/>
       <use x="52.019531" xlink:href="#DejaVuSans-65"/>
       <use x="113.542969" xlink:href="#DejaVuSans-62"/>
      </g>
     </g>
    </g>
    <g id="xtick_3">
     <g id="line2d_3">
      <path clip-path="url(#p0173a94aa3)" d="M 208.343896 255.941176 
L 362.928205 166.691884 
" style="fill:none;stroke:#b0b0b0;stroke-linecap:square;stroke-width:0.8;"/>
     </g>
     <g id="text_3">
      <!-- Mar -->
      <g transform="translate(365.618967 162.451259)scale(0.1 -0.1)">
       <defs>
        <path d="M 628 4666 
L 1569 4666 
L 2759 1491 
L 3956 4666 
L 4897 4666 
L 4897 0 
L 4281 0 
L 4281 4097 
L 3078 897 
L 2444 897 
L 1241 4097 
L 1241 0 
L 628 0 
L 628 4666 
z
" id="DejaVuSans-4d" transform="scale(0.015625)"/>
        <path d="M 2631 2963 
Q 2534 3019 2420 3045 
Q 2306 3072 2169 3072 
Q 1681 3072 1420 2755 
Q 1159 2438 1159 1844 
L 1159 0 
L 581 0 
L 581 3500 
L 1159 3500 
L 1159 2956 
Q 1341 3275 1631 3429 
Q 1922 3584 2338 3584 
Q 2397 3584 2469 3576 
Q 2541 3569 2628 3553 
L 2631 2963 
z
" id="DejaVuSans-72" transform="scale(0.015625)"/>
       </defs>
       <use xlink:href="#DejaVuSans-4d"/>
       <use x="86.279297" xlink:href="#DejaVuSans-61"/>
       <use x="147.558594" xlink:href="#DejaVuSans-72"/>
      </g>
     </g>
    </g>
    <g id="xtick_4">
     <g id="line2d_4">
      <path clip-path="url(#p0173a94aa3)" d="M 208.343896 255.941176 
L 386.84248 255.941176 
" style="fill:none;stroke:#b0b0b0;stroke-linecap:square;stroke-width:0.8;"/>
     </g>
     <g id="text_4">
      <!-- Apr -->
      <g transform="translate(392.19248 258.700551)scale(0.1 -0.1)">
       <defs>
        <path d="M 2188 4044 
L 1331 1722 
L 3047 1722 
L 2188 4044 
z
M 1831 4666 
L 2547 4666 
L 4325 0 
L 3669 0 
L 3244 1197 
L 1141 1197 
L 716 0 
L 50 0 
L 1831 4666 
z
" id="DejaVuSans-41" transform="scale(0.015625)"/>
        <path d="M 1159 525 
L 1159 -1331 
L 581 -1331 
L 581 3500 
L 1159 3500 
L 1159 2969 
Q 1341 3281 1617 3432 
Q 1894 3584 2278 3584 
Q 2916 3584 3314 3078 
Q 3713 2572 3713 1747 
Q 3713 922 3314 415 
Q 2916 -91 2278 -91 
Q 1894 -91 1617 61 
Q 1341 213 1159 525 
z
M 3116 1747 
Q 3116 2381 2855 2742 
Q 2594 3103 2138 3103 
Q 1681 3103 1420 2742 
Q 1159 2381 1159 1747 
Q 1159 1113 1420 752 
Q 1681 391 2138 391 
Q 2594 391 2855 752 
Q 3116 1113 3116 1747 
z
" id="DejaVuSans-70" transform="scale(0.015625)"/>
       </defs>
       <use xlink:href="#DejaVuSans-41"/>
       <use x="68.408203" xlink:href="#DejaVuSans-70"/>
       <use x="131.884766" xlink:href="#DejaVuSans-72"/>
      </g>
     </g>
    </g>
    <g id="xtick_5">
     <g id="line2d_5">
      <path clip-path="url(#p0173a94aa3)" d="M 208.343896 255.941176 
L 362.928205 345.190468 
" style="fill:none;stroke:#b0b0b0;stroke-linecap:square;stroke-width:0.8;"/>
     </g>
     <g id="text_5">
      <!-- May -->
      <g transform="translate(364.71506 354.949843)scale(0.1 -0.1)">
       <defs>
        <path d="M 2059 -325 
Q 1816 -950 1584 -1140 
Q 1353 -1331 966 -1331 
L 506 -1331 
L 506 -850 
L 844 -850 
Q 1081 -850 1212 -737 
Q 1344 -625 1503 -206 
L 1606 56 
L 191 3500 
L 800 3500 
L 1894 763 
L 2988 3500 
L 3597 3500 
L 2059 -325 
z
" id="DejaVuSans-79" transform="scale(0.015625)"/>
       </defs>
       <use xlink:href="#DejaVuSans-4d"/>
       <use x="86.279297" xlink:href="#DejaVuSans-61"/>
       <use x="147.558594" xlink:href="#DejaVuSans-79"/>
      </g>
     </g>
    </g>
    <g id="xtick_6">
     <g id="line2d_6">
      <path clip-path="url(#p0173a94aa3)" d="M 208.343896 255.941176 
L 297.593189 410.525484 
" style="fill:none;stroke:#b0b0b0;stroke-linecap:square;stroke-width:0.8;"/>
     </g>
     <g id="text_6">
      <!-- Jun -->
      <g transform="translate(296.780689 425.409215)scale(0.1 -0.1)">
       <defs>
        <path d="M 544 1381 
L 544 3500 
L 1119 3500 
L 1119 1403 
Q 1119 906 1312 657 
Q 1506 409 1894 409 
Q 2359 409 2629 706 
Q 2900 1003 2900 1516 
L 2900 3500 
L 3475 3500 
L 3475 0 
L 2900 0 
L 2900 538 
Q 2691 219 2414 64 
Q 2138 -91 1772 -91 
Q 1169 -91 856 284 
Q 544 659 544 1381 
z
M 1991 3584 
L 1991 3584 
z
" id="DejaVuSans-75" transform="scale(0.015625)"/>
       </defs>
       <use xlink:href="#DejaVuSans-4a"/>
       <use x="29.492188" xlink:href="#DejaVuSans-75"/>
       <use x="92.871094" xlink:href="#DejaVuSans-6e"/>
      </g>
     </g>
    </g>
    <g id="xtick_7">
     <g id="line2d_7">
      <path clip-path="url(#p0173a94aa3)" d="M 208.343896 255.941176 
L 208.343896 434.43976 
" style="fill:none;stroke:#b0b0b0;stroke-linecap:square;stroke-width:0.8;"/>
     </g>
     <g id="text_7">
      <!-- Jul -->
      <g transform="translate(202.311084 451.199135)scale(0.1 -0.1)">
       <defs>
        <path d="M 603 4863 
L 1178 4863 
L 1178 0 
L 603 0 
L 603 4863 
z
" id="DejaVuSans-6c" transform="scale(0.015625)"/>
       </defs>
       <use xlink:href="#DejaVuSans-4a"/>
       <use x="29.492188" xlink:href="#DejaVuSans-75"/>
       <use x="92.871094" xlink:href="#DejaVuSans-6c"/>
      </g>
     </g>
    </g>
    <g id="xtick_8">
     <g id="line2d_8">
      <path clip-path="url(#p0173a94aa3)" d="M 208.343896 255.941176 
L 119.094605 410.525484 
" style="fill:none;stroke:#b0b0b0;stroke-linecap:square;stroke-width:0.8;"/>
     </g>
     <g id="text_8">
      <!-- Aug -->
      <g transform="translate(102.331323 425.409215)scale(0.1 -0.1)">
       <defs>
        <path d="M 2906 1791 
Q 2906 2416 2648 2759 
Q 2391 3103 1925 3103 
Q 1463 3103 1205 2759 
Q 947 2416 947 1791 
Q 947 1169 1205 825 
Q 1463 481 1925 481 
Q 2391 481 2648 825 
Q 2906 1169 2906 1791 
z
M 3481 434 
Q 3481 -459 3084 -895 
Q 2688 -1331 1869 -1331 
Q 1566 -1331 1297 -1286 
Q 1028 -1241 775 -1147 
L 775 -588 
Q 1028 -725 1275 -790 
Q 1522 -856 1778 -856 
Q 2344 -856 2625 -561 
Q 2906 -266 2906 331 
L 2906 616 
Q 2728 306 2450 153 
Q 2172 0 1784 0 
Q 1141 0 747 490 
Q 353 981 353 1791 
Q 353 2603 747 3093 
Q 1141 3584 1784 3584 
Q 2172 3584 2450 3431 
Q 2728 3278 2906 2969 
L 2906 3500 
L 3481 3500 
L 3481 434 
z
" id="DejaVuSans-67" transform="scale(0.015625)"/>
       </defs>
       <use xlink:href="#DejaVuSans-41"/>
       <use x="68.408203" xlink:href="#DejaVuSans-75"/>
       <use x="131.787109" xlink:href="#DejaVuSans-67"/>
      </g>
     </g>
    </g>
    <g id="xtick_9">
     <g id="line2d_9">
      <path clip-path="url(#p0173a94aa3)" d="M 208.343896 255.941176 
L 53.759588 345.190468 
" style="fill:none;stroke:#b0b0b0;stroke-linecap:square;stroke-width:0.8;"/>
     </g>
     <g id="text_9">
      <!-- Sept -->
      <g transform="translate(30.250076 354.949843)scale(0.1 -0.1)">
       <defs>
        <path d="M 3425 4513 
L 3425 3897 
Q 3066 4069 2747 4153 
Q 2428 4238 2131 4238 
Q 1616 4238 1336 4038 
Q 1056 3838 1056 3469 
Q 1056 3159 1242 3001 
Q 1428 2844 1947 2747 
L 2328 2669 
Q 3034 2534 3370 2195 
Q 3706 1856 3706 1288 
Q 3706 609 3251 259 
Q 2797 -91 1919 -91 
Q 1588 -91 1214 -16 
Q 841 59 441 206 
L 441 856 
Q 825 641 1194 531 
Q 1563 422 1919 422 
Q 2459 422 2753 634 
Q 3047 847 3047 1241 
Q 3047 1584 2836 1778 
Q 2625 1972 2144 2069 
L 1759 2144 
Q 1053 2284 737 2584 
Q 422 2884 422 3419 
Q 422 4038 858 4394 
Q 1294 4750 2059 4750 
Q 2388 4750 2728 4690 
Q 3069 4631 3425 4513 
z
" id="DejaVuSans-53" transform="scale(0.015625)"/>
        <path d="M 1172 4494 
L 1172 3500 
L 2356 3500 
L 2356 3053 
L 1172 3053 
L 1172 1153 
Q 1172 725 1289 603 
Q 1406 481 1766 481 
L 2356 481 
L 2356 0 
L 1766 0 
Q 1100 0 847 248 
Q 594 497 594 1153 
L 594 3053 
L 172 3053 
L 172 3500 
L 594 3500 
L 594 4494 
L 1172 4494 
z
" id="DejaVuSans-74" transform="scale(0.015625)"/>
       </defs>
       <use xlink:href="#DejaVuSans-53"/>
       <use x="63.476562" xlink:href="#DejaVuSans-65"/>
       <use x="125" xlink:href="#DejaVuSans-70"/>
       <use x="188.476562" xlink:href="#DejaVuSans-74"/>
      </g>
     </g>
    </g>
    <g id="xtick_10">
     <g id="line2d_10">
      <path clip-path="url(#p0173a94aa3)" d="M 208.343896 255.941176 
L 29.845313 255.941176 
" style="fill:none;stroke:#b0b0b0;stroke-linecap:square;stroke-width:0.8;"/>
     </g>
     <g id="text_10">
      <!-- Oct -->
      <g transform="translate(7.2 258.700551)scale(0.1 -0.1)">
       <defs>
        <path d="M 2522 4238 
Q 1834 4238 1429 3725 
Q 1025 3213 1025 2328 
Q 1025 1447 1429 934 
Q 1834 422 2522 422 
Q 3209 422 3611 934 
Q 4013 1447 4013 2328 
Q 4013 3213 3611 3725 
Q 3209 4238 2522 4238 
z
M 2522 4750 
Q 3503 4750 4090 4092 
Q 4678 3434 4678 2328 
Q 4678 1225 4090 567 
Q 3503 -91 2522 -91 
Q 1538 -91 948 565 
Q 359 1222 359 2328 
Q 359 3434 948 4092 
Q 1538 4750 2522 4750 
z
" id="DejaVuSans-4f" transform="scale(0.015625)"/>
        <path d="M 3122 3366 
L 3122 2828 
Q 2878 2963 2633 3030 
Q 2388 3097 2138 3097 
Q 1578 3097 1268 2742 
Q 959 2388 959 1747 
Q 959 1106 1268 751 
Q 1578 397 2138 397 
Q 2388 397 2633 464 
Q 2878 531 3122 666 
L 3122 134 
Q 2881 22 2623 -34 
Q 2366 -91 2075 -91 
Q 1284 -91 818 406 
Q 353 903 353 1747 
Q 353 2603 823 3093 
Q 1294 3584 2113 3584 
Q 2378 3584 2631 3529 
Q 2884 3475 3122 3366 
z
" id="DejaVuSans-63" transform="scale(0.015625)"/>
       </defs>
       <use xlink:href="#DejaVuSans-4f"/>
       <use x="78.710938" xlink:href="#DejaVuSans-63"/>
       <use x="133.691406" xlink:href="#DejaVuSans-74"/>
      </g>
     </g>
    </g>
    <g id="xtick_11">
     <g id="line2d_11">
      <path clip-path="url(#p0173a94aa3)" d="M 208.343896 255.941176 
L 53.759588 166.691884 
" style="fill:none;stroke:#b0b0b0;stroke-linecap:square;stroke-width:0.8;"/>
     </g>
     <g id="text_11">
      <!-- Nov -->
      <g transform="translate(31.875858 162.451259)scale(0.1 -0.1)">
       <defs>
        <path d="M 628 4666 
L 1478 4666 
L 3547 763 
L 3547 4666 
L 4159 4666 
L 4159 0 
L 3309 0 
L 1241 3903 
L 1241 0 
L 628 0 
L 628 4666 
z
" id="DejaVuSans-4e" transform="scale(0.015625)"/>
        <path d="M 1959 3097 
Q 1497 3097 1228 2736 
Q 959 2375 959 1747 
Q 959 1119 1226 758 
Q 1494 397 1959 397 
Q 2419 397 2687 759 
Q 2956 1122 2956 1747 
Q 2956 2369 2687 2733 
Q 2419 3097 1959 3097 
z
M 1959 3584 
Q 2709 3584 3137 3096 
Q 3566 2609 3566 1747 
Q 3566 888 3137 398 
Q 2709 -91 1959 -91 
Q 1206 -91 779 398 
Q 353 888 353 1747 
Q 353 2609 779 3096 
Q 1206 3584 1959 3584 
z
" id="DejaVuSans-6f" transform="scale(0.015625)"/>
        <path d="M 191 3500 
L 800 3500 
L 1894 563 
L 2988 3500 
L 3597 3500 
L 2284 0 
L 1503 0 
L 191 3500 
z
" id="DejaVuSans-76" transform="scale(0.015625)"/>
       </defs>
       <use xlink:href="#DejaVuSans-4e"/>
       <use x="74.804688" xlink:href="#DejaVuSans-6f"/>
       <use x="135.986328" xlink:href="#DejaVuSans-76"/>
      </g>
     </g>
    </g>
    <g id="xtick_12">
     <g id="line2d_12">
      <path clip-path="url(#p0173a94aa3)" d="M 208.343896 255.941176 
L 119.094604 101.356868 
" style="fill:none;stroke:#b0b0b0;stroke-linecap:square;stroke-width:0.8;"/>
     </g>
     <g id="text_12">
      <!-- Dec -->
      <g transform="translate(102.418823 91.991887)scale(0.1 -0.1)">
       <defs>
        <path d="M 1259 4147 
L 1259 519 
L 2022 519 
Q 2988 519 3436 956 
Q 3884 1394 3884 2338 
Q 3884 3275 3436 3711 
Q 2988 4147 2022 4147 
L 1259 4147 
z
M 628 4666 
L 1925 4666 
Q 3281 4666 3915 4102 
Q 4550 3538 4550 2338 
Q 4550 1131 3912 565 
Q 3275 0 1925 0 
L 628 0 
L 628 4666 
z
" id="DejaVuSans-44" transform="scale(0.015625)"/>
       </defs>
       <use xlink:href="#DejaVuSans-44"/>
       <use x="77.001953" xlink:href="#DejaVuSans-65"/>
       <use x="138.525391" xlink:href="#DejaVuSans-63"/>
      </g>
     </g>
    </g>
   </g>
   <g id="matplotlib.axis_2">
    <g id="ytick_1">
     <g id="line2d_13">
      <path clip-path="url(#p0173a94aa3)" d="M 208.343896 221.781383 
C 212.829719 221.781383 217.271923 222.664992 221.416283 224.381642 
C 225.560643 226.098292 229.326562 228.614599 232.498518 231.786555 
C 235.670474 234.95851 238.18678 238.724429 239.90343 242.868789 
C 241.620081 247.013149 242.50369 251.455353 242.50369 255.941176 
C 242.50369 260.426999 241.620081 264.869203 239.90343 269.013563 
C 238.18678 273.157923 235.670474 276.923842 232.498518 280.095797 
C 229.326562 283.267753 225.560643 285.78406 221.416283 287.50071 
C 217.271923 289.21736 212.829719 290.100969 208.343896 290.100969 
C 203.858074 290.100969 199.41587 289.21736 195.27151 287.50071 
C 191.12715 285.78406 187.361231 283.267753 184.189275 280.095797 
C 181.017319 276.923842 178.501013 273.157923 176.784363 269.013563 
C 175.067712 264.869203 174.184103 260.426999 174.184103 255.941176 
C 174.184103 251.455353 175.067712 247.013149 176.784363 242.868789 
C 178.501013 238.724429 181.017319 234.95851 184.189275 231.786555 
C 187.361231 228.614599 191.12715 226.098292 195.27151 224.381642 
C 199.41587 222.664992 203.858074 221.781383 208.343896 221.781383 
" style="fill:none;stroke:#b0b0b0;stroke-linecap:square;stroke-width:0.8;"/>
     </g>
     <g id="text_13">
      <!-- 1000 -->
      <g transform="translate(208.343896 288.021282)scale(0.1 -0.1)">
       <defs>
        <path d="M 794 531 
L 1825 531 
L 1825 4091 
L 703 3866 
L 703 4441 
L 1819 4666 
L 2450 4666 
L 2450 531 
L 3481 531 
L 3481 0 
L 794 0 
L 794 531 
z
" id="DejaVuSans-31" transform="scale(0.015625)"/>
        <path d="M 2034 4250 
Q 1547 4250 1301 3770 
Q 1056 3291 1056 2328 
Q 1056 1369 1301 889 
Q 1547 409 2034 409 
Q 2525 409 2770 889 
Q 3016 1369 3016 2328 
Q 3016 3291 2770 3770 
Q 2525 4250 2034 4250 
z
M 2034 4750 
Q 2819 4750 3233 4129 
Q 3647 3509 3647 2328 
Q 3647 1150 3233 529 
Q 2819 -91 2034 -91 
Q 1250 -91 836 529 
Q 422 1150 422 2328 
Q 422 3509 836 4129 
Q 1250 4750 2034 4750 
z
" id="DejaVuSans-30" transform="scale(0.015625)"/>
       </defs>
       <use xlink:href="#DejaVuSans-31"/>
       <use x="63.623047" xlink:href="#DejaVuSans-30"/>
       <use x="127.246094" xlink:href="#DejaVuSans-30"/>
       <use x="190.869141" xlink:href="#DejaVuSans-30"/>
      </g>
     </g>
    </g>
    <g id="ytick_2">
     <g id="line2d_14">
      <path clip-path="url(#p0173a94aa3)" d="M 208.343896 187.621589 
C 217.315542 187.621589 226.19995 189.388808 234.48867 192.822108 
C 242.77739 196.255408 250.309228 201.288021 256.653139 207.631933 
C 262.997051 213.975845 268.029664 221.507682 271.462964 229.796402 
C 274.896265 238.085122 276.663483 246.96953 276.663483 255.941176 
C 276.663483 264.912822 274.896265 273.79723 271.462964 282.08595 
C 268.029664 290.37467 262.997051 297.906507 256.653139 304.250419 
C 250.309228 310.594331 242.77739 315.626944 234.48867 319.060244 
C 226.19995 322.493544 217.315542 324.260763 208.343896 324.260763 
C 199.372251 324.260763 190.487843 322.493544 182.199123 319.060244 
C 173.910403 315.626944 166.378565 310.594331 160.034654 304.250419 
C 153.690742 297.906507 148.658129 290.37467 145.224829 282.08595 
C 141.791528 273.79723 140.02431 264.912822 140.02431 255.941176 
C 140.02431 246.96953 141.791528 238.085122 145.224829 229.796402 
C 148.658129 221.507682 153.690742 213.975845 160.034654 207.631933 
C 166.378565 201.288021 173.910403 196.255408 182.199123 192.822108 
C 190.487843 189.388808 199.372251 187.621589 208.343896 187.621589 
" style="fill:none;stroke:#b0b0b0;stroke-linecap:square;stroke-width:0.8;"/>
     </g>
     <g id="text_14">
      <!-- 2000 -->
      <g transform="translate(208.343896 322.181075)scale(0.1 -0.1)">
       <defs>
        <path d="M 1228 531 
L 3431 531 
L 3431 0 
L 469 0 
L 469 531 
Q 828 903 1448 1529 
Q 2069 2156 2228 2338 
Q 2531 2678 2651 2914 
Q 2772 3150 2772 3378 
Q 2772 3750 2511 3984 
Q 2250 4219 1831 4219 
Q 1534 4219 1204 4116 
Q 875 4013 500 3803 
L 500 4441 
Q 881 4594 1212 4672 
Q 1544 4750 1819 4750 
Q 2544 4750 2975 4387 
Q 3406 4025 3406 3419 
Q 3406 3131 3298 2873 
Q 3191 2616 2906 2266 
Q 2828 2175 2409 1742 
Q 1991 1309 1228 531 
z
" id="DejaVuSans-32" transform="scale(0.015625)"/>
       </defs>
       <use xlink:href="#DejaVuSans-32"/>
       <use x="63.623047" xlink:href="#DejaVuSans-30"/>
       <use x="127.246094" xlink:href="#DejaVuSans-30"/>
       <use x="190.869141" xlink:href="#DejaVuSans-30"/>
      </g>
     </g>
    </g>
    <g id="ytick_3">
     <g id="line2d_15">
      <path clip-path="url(#p0173a94aa3)" d="M 208.343896 153.461796 
C 221.801365 153.461796 235.127977 156.112624 247.561057 161.262574 
C 259.994137 166.412525 271.291893 173.961444 280.807761 183.477312 
C 290.323628 192.993179 297.872548 204.290935 303.022498 216.724015 
C 308.172449 229.157095 310.823276 242.483707 310.823276 255.941176 
C 310.823276 269.398645 308.172449 282.725257 303.022498 295.158337 
C 297.872548 307.591417 290.323628 318.889173 280.807761 328.40504 
C 271.291893 337.920908 259.994137 345.469827 247.561057 350.619778 
C 235.127977 355.769728 221.801365 358.420556 208.343896 358.420556 
C 194.886428 358.420556 181.559816 355.769728 169.126736 350.619778 
C 156.693656 345.469827 145.3959 337.920908 135.880032 328.40504 
C 126.364165 318.889173 118.815245 307.591417 113.665295 295.158337 
C 108.515344 282.725257 105.864517 269.398645 105.864517 255.941176 
C 105.864517 242.483707 108.515344 229.157095 113.665295 216.724015 
C 118.815245 204.290935 126.364165 192.993179 135.880032 183.477312 
C 145.3959 173.961444 156.693656 166.412525 169.126736 161.262574 
C 181.559816 156.112624 194.886428 153.461796 208.343896 153.461796 
" style="fill:none;stroke:#b0b0b0;stroke-linecap:square;stroke-width:0.8;"/>
     </g>
     <g id="text_15">
      <!-- 3000 -->
      <g transform="translate(208.343896 356.340868)scale(0.1 -0.1)">
       <defs>
        <path d="M 2597 2516 
Q 3050 2419 3304 2112 
Q 3559 1806 3559 1356 
Q 3559 666 3084 287 
Q 2609 -91 1734 -91 
Q 1441 -91 1130 -33 
Q 819 25 488 141 
L 488 750 
Q 750 597 1062 519 
Q 1375 441 1716 441 
Q 2309 441 2620 675 
Q 2931 909 2931 1356 
Q 2931 1769 2642 2001 
Q 2353 2234 1838 2234 
L 1294 2234 
L 1294 2753 
L 1863 2753 
Q 2328 2753 2575 2939 
Q 2822 3125 2822 3475 
Q 2822 3834 2567 4026 
Q 2313 4219 1838 4219 
Q 1578 4219 1281 4162 
Q 984 4106 628 3988 
L 628 4550 
Q 988 4650 1302 4700 
Q 1616 4750 1894 4750 
Q 2613 4750 3031 4423 
Q 3450 4097 3450 3541 
Q 3450 3153 3228 2886 
Q 3006 2619 2597 2516 
z
" id="DejaVuSans-33" transform="scale(0.015625)"/>
       </defs>
       <use xlink:href="#DejaVuSans-33"/>
       <use x="63.623047" xlink:href="#DejaVuSans-30"/>
       <use x="127.246094" xlink:href="#DejaVuSans-30"/>
       <use x="190.869141" xlink:href="#DejaVuSans-30"/>
      </g>
     </g>
    </g>
    <g id="ytick_4">
     <g id="line2d_16">
      <path clip-path="url(#p0173a94aa3)" d="M 208.343896 119.302003 
C 226.287188 119.302003 244.056004 122.83644 260.633444 129.70304 
C 277.210884 136.569641 292.274559 146.634867 304.962382 159.32269 
C 317.650206 172.010513 327.715432 187.074188 334.582032 203.651628 
C 341.448633 220.229068 344.98307 237.997884 344.98307 255.941176 
C 344.98307 273.884468 341.448633 291.653284 334.582032 308.230724 
C 327.715432 324.808164 317.650206 339.871839 304.962382 352.559662 
C 292.274559 365.247485 277.210884 375.312711 260.633444 382.179312 
C 244.056004 389.045912 226.287188 392.580349 208.343896 392.580349 
C 190.400605 392.580349 172.631789 389.045912 156.054349 382.179312 
C 139.476909 375.312711 124.413234 365.247485 111.725411 352.559662 
C 99.037587 339.871839 88.972361 324.808164 82.105761 308.230724 
C 75.23916 291.653284 71.704723 273.884468 71.704723 255.941176 
C 71.704723 237.997884 75.23916 220.229068 82.105761 203.651628 
C 88.972361 187.074188 99.037587 172.010513 111.725411 159.32269 
C 124.413234 146.634867 139.476909 136.569641 156.054349 129.70304 
C 172.631789 122.83644 190.400605 119.302003 208.343896 119.302003 
" style="fill:none;stroke:#b0b0b0;stroke-linecap:square;stroke-width:0.8;"/>
     </g>
     <g id="text_16">
      <!-- 4000 -->
      <g transform="translate(208.343896 390.500662)scale(0.1 -0.1)">
       <defs>
        <path d="M 2419 4116 
L 825 1625 
L 2419 1625 
L 2419 4116 
z
M 2253 4666 
L 3047 4666 
L 3047 1625 
L 3713 1625 
L 3713 1100 
L 3047 1100 
L 3047 0 
L 2419 0 
L 2419 1100 
L 313 1100 
L 313 1709 
L 2253 4666 
z
" id="DejaVuSans-34" transform="scale(0.015625)"/>
       </defs>
       <use xlink:href="#DejaVuSans-34"/>
       <use x="63.623047" xlink:href="#DejaVuSans-30"/>
       <use x="127.246094" xlink:href="#DejaVuSans-30"/>
       <use x="190.869141" xlink:href="#DejaVuSans-30"/>
      </g>
     </g>
    </g>
    <g id="ytick_5">
     <g id="line2d_17">
      <path clip-path="url(#p0173a94aa3)" d="M 208.343896 85.142209 
C 230.773011 85.142209 252.984031 89.560256 273.705831 98.143507 
C 294.427631 106.726757 313.257225 119.308289 329.117004 135.168069 
C 344.976783 151.027848 357.558315 169.857441 366.141566 190.579241 
C 374.724817 211.301041 379.142863 233.512061 379.142863 255.941176 
C 379.142863 278.370291 374.724817 300.581311 366.141566 321.303111 
C 357.558315 342.024911 344.976783 360.854504 329.117004 376.714283 
C 313.257225 392.574063 294.427631 405.155595 273.705831 413.738845 
C 252.984031 422.322096 230.773011 426.740143 208.343896 426.740143 
C 185.914782 426.740143 163.703762 422.322096 142.981962 413.738845 
C 122.260162 405.155595 103.430568 392.574063 87.570789 376.714283 
C 71.71101 360.854504 59.129478 342.024911 50.546227 321.303111 
C 41.962976 300.581311 37.54493 278.370291 37.54493 255.941176 
C 37.54493 233.512061 41.962976 211.301041 50.546227 190.579241 
C 59.129478 169.857441 71.71101 151.027848 87.570789 135.168069 
C 103.430568 119.308289 122.260162 106.726757 142.981962 98.143507 
C 163.703762 89.560256 185.914782 85.142209 208.343896 85.142209 
" style="fill:none;stroke:#b0b0b0;stroke-linecap:square;stroke-width:0.8;"/>
     </g>
     <g id="text_17">
      <!-- 5000 -->
      <g transform="translate(208.343896 424.660455)scale(0.1 -0.1)">
       <defs>
        <path d="M 691 4666 
L 3169 4666 
L 3169 4134 
L 1269 4134 
L 1269 2991 
Q 1406 3038 1543 3061 
Q 1681 3084 1819 3084 
Q 2600 3084 3056 2656 
Q 3513 2228 3513 1497 
Q 3513 744 3044 326 
Q 2575 -91 1722 -91 
Q 1428 -91 1123 -41 
Q 819 9 494 109 
L 494 744 
Q 775 591 1075 516 
Q 1375 441 1709 441 
Q 2250 441 2565 725 
Q 2881 1009 2881 1497 
Q 2881 1984 2565 2268 
Q 2250 2553 1709 2553 
Q 1456 2553 1204 2497 
Q 953 2441 691 2322 
L 691 4666 
z
" id="DejaVuSans-35" transform="scale(0.015625)"/>
       </defs>
       <use xlink:href="#DejaVuSans-35"/>
       <use x="63.623047" xlink:href="#DejaVuSans-30"/>
       <use x="127.246094" xlink:href="#DejaVuSans-30"/>
       <use x="190.869141" xlink:href="#DejaVuSans-30"/>
      </g>
     </g>
    </g>
   </g>
   <g id="line2d_18">
    <path clip-path="url(#p0173a94aa3)" d="M 208.343896 161.421028 
L 219.996444 159.97381 
L 231.609871 161.547405 
L 243.048299 164.433186 
L 253.714211 169.495265 
L 263.279379 176.35339 
L 274.035082 181.791156 
L 283.235417 189.593079 
L 285.851324 202.441662 
L 291.825602 212.126597 
L 294.134633 223.405041 
L 297.464087 233.975022 
L 296.037044 245.2933 
L 292.786906 255.941176 
L 295.935312 266.576699 
L 293.948367 277.040783 
L 290.429598 287.072176 
L 285.050275 296.199789 
L 283.883417 308.082342 
L 272.905552 313.137812 
L 264.634447 319.480073 
L 258.156466 328.107141 
L 248.062765 331.619157 
L 237.076477 331.702765 
L 229.067455 340.019957 
L 218.967067 343.430859 
L 208.343896 346.567108 
L 198.054244 340.68409 
L 188.372436 336.968577 
L 180.313883 329.850247 
L 172.006371 325.176547 
L 162.140653 322.878131 
L 152.529041 318.943124 
L 150.123346 307.520083 
L 140.422988 302.823594 
L 134.752958 294.56468 
L 127.759373 286.502854 
L 122.308253 277.147058 
L 123.634893 266.226711 
L 119.596753 255.941176 
L 122.10891 245.470353 
L 123.601773 235.054118 
L 125.012537 224.33776 
L 130.941837 215.317441 
L 136.880755 206.613731 
L 143.935655 198.880453 
L 150.762175 190.944848 
L 155.251887 179.024121 
L 163.386328 170.281687 
L 173.542588 164.177666 
L 185.208721 162.07808 
L 196.469003 158.142631 
L 208.343896 156.297059 
" style="fill:none;stroke:#1f77b4;stroke-dasharray:0.5,0.825;stroke-dashoffset:0;stroke-width:0.5;"/>
   </g>
   <g id="line2d_19">
    <path clip-path="url(#p0173a94aa3)" d="M 208.343896 156.297059 
L 219.951152 160.346828 
L 229.795027 168.910517 
L 240.080558 172.258477 
L 251.65048 173.427374 
L 260.252203 180.739011 
L 267.715137 188.924899 
L 276.127242 195.890372 
L 283.855304 203.819415 
L 290.43424 212.85684 
L 295.444172 222.908399 
L 297.43092 233.983197 
L 301.225386 244.663321 
L 296.886081 255.941176 
L 298.275152 266.860807 
L 297.696257 277.964555 
L 291.100337 287.326554 
L 285.262004 296.310913 
L 281.606267 306.510539 
L 273.570345 313.726767 
L 265.925618 320.937504 
L 256.410018 325.576975 
L 247.697643 330.923476 
L 238.493725 335.43974 
L 228.070108 335.973562 
L 218.781779 341.904876 
L 208.343896 345.610633 
L 197.996599 341.15884 
L 189.042784 334.248869 
L 178.896635 333.587223 
L 168.879026 331.135205 
L 162.625777 322.175307 
L 153.638995 317.690244 
L 147.464173 309.875905 
L 139.242244 303.638603 
L 132.12147 295.945792 
L 132.326788 284.770663 
L 127.183827 275.945336 
L 120.413374 266.617874 
L 123.832568 255.941176 
L 122.312375 245.495058 
L 123.734441 235.086818 
L 123.447479 223.744212 
L 128.098619 213.825206 
L 136.177931 206.128607 
L 139.537792 194.984286 
L 146.277052 185.882191 
L 154.359258 177.730925 
L 164.116571 171.673048 
L 173.033832 162.836188 
L 185.347696 162.641922 
L 196.716054 160.177275 
L 208.343896 155.852982 
" style="fill:none;stroke:#ff7f0e;stroke-dasharray:0.5,0.825;stroke-dashoffset:0;stroke-width:0.5;"/>
   </g>
   <g id="line2d_20">
    <path clip-path="url(#p0173a94aa3)" d="M 208.343896 155.852982 
L 219.761746 161.906722 
L 231.111198 163.570603 
L 242.127694 166.860623 
L 253.031592 170.795886 
L 267.218589 170.646459 
L 278.316335 176.95862 
L 285.945728 187.191952 
L 294.397663 196.54255 
L 297.602778 209.094501 
L 300.682325 220.921829 
L 301.775819 232.912275 
L 303.056565 244.440976 
L 304.162117 255.941176 
L 301.835779 267.293146 
L 300.747637 278.716653 
L 296.91341 289.531162 
L 287.258306 297.358653 
L 282.927576 307.422573 
L 273.21238 313.409637 
L 270.116263 325.667764 
L 257.981821 327.854125 
L 249.380377 334.129658 
L 239.329538 337.643598 
L 229.386279 341.313476 
L 218.888835 342.786555 
L 208.343896 346.088871 
L 198.256002 339.022464 
L 188.54411 336.272066 
L 177.346142 337.675538 
L 170.688758 327.687048 
L 162.567562 322.259646 
L 150.626262 321.090918 
L 143.55212 313.341681 
L 141.716184 301.930965 
L 131.51653 296.263289 
L 129.324432 285.909306 
L 129.074356 275.479363 
L 118.819569 266.811397 
L 122.158738 255.941176 
L 117.429229 244.902137 
L 119.920216 234.146696 
L 127.791313 225.391611 
L 128.310348 213.936329 
L 132.691924 203.72239 
L 138.566171 194.123505 
L 146.57153 186.214588 
L 155.348912 179.164686 
L 164.338819 172.096506 
L 173.082285 162.963948 
L 184.963472 161.083065 
L 195.97902 154.107254 
L 208.343896 155.272265 
" style="fill:none;stroke:#2ca02c;stroke-dasharray:0.5,0.825;stroke-dashoffset:0;stroke-width:0.5;"/>
   </g>
   <g id="line2d_21">
    <path clip-path="url(#p0173a94aa3)" d="M 208.343896 155.272265 
L 220.852886 152.920378 
L 232.958742 156.074822 
L 245.67687 157.502214 
L 259.01641 159.392769 
L 269.333731 167.582147 
L 277.047816 178.390483 
L 290.445867 183.205177 
L 297.461976 194.427407 
L 307.94725 203.665303 
L 305.40944 219.129071 
L 309.105764 231.105606 
L 312.348105 243.312779 
L 309.935122 255.941176 
L 312.076819 268.536633 
L 303.168841 279.313426 
L 295.444172 288.973953 
L 285.776203 296.580786 
L 282.899463 307.403168 
L 274.081725 314.17981 
L 264.951577 319.838038 
L 258.816235 329.062982 
L 249.253379 333.887682 
L 238.602744 335.7272 
L 229.100155 340.152625 
L 218.608844 340.480626 
L 208.343896 342.467932 
L 198.210709 339.395482 
L 188.004562 338.461099 
L 175.347459 342.945631 
L 168.879026 331.135205 
L 161.985413 323.103034 
L 153.027388 318.380607 
L 146.927225 310.351599 
L 139.860729 303.211693 
L 133.42209 295.263173 
L 134.530645 283.93485 
L 125.492301 276.36226 
L 128.009377 265.695553 
L 120.348269 255.941176 
L 120.040356 245.219185 
L 123.999779 235.152218 
L 122.776739 223.489834 
L 133.664066 216.746178 
L 137.977161 207.370525 
L 142.606068 197.702542 
L 150.241175 190.356762 
L 155.116052 178.82733 
L 167.101043 177.359483 
L 176.970632 173.216675 
L 185.560245 163.504268 
L 197.008397 162.584936 
L 208.343896 161.455188 
" style="fill:none;stroke:#d62728;stroke-dasharray:0.5,0.825;stroke-dashoffset:0;stroke-width:0.5;"/>
   </g>
   <g id="line2d_22">
    <path clip-path="url(#p0173a94aa3)" d="M 208.343896 161.455188 
L 219.951152 160.346828 
L 230.743324 165.063125 
L 241.170749 169.38388 
L 251.332984 174.032314 
L 263.745098 175.678679 
L 271.67926 184.450329 
L 278.735278 193.579854 
L 284.614354 203.295481 
L 291.916343 212.078972 
L 296.81759 222.38753 
L 296.634908 234.179396 
L 299.56376 244.865079 
L 300.814457 255.941176 
L 296.240509 266.613757 
L 294.877048 277.269682 
L 291.707196 287.556705 
L 284.808299 296.07279 
L 281.943623 306.743399 
L 275.334604 315.289764 
L 266.310705 321.372177 
L 257.069787 326.532815 
L 248.01514 331.528416 
L 237.754818 333.491403 
L 228.307182 336.93541 
L 218.567669 340.141518 
L 208.343896 346.567108 
L 197.766018 343.057841 
L 185.380396 349.107762 
L 176.134819 340.869534 
L 168.640903 331.58891 
L 159.055262 327.348091 
L 153.457778 317.894796 
L 144.983983 312.073161 
L 133.057393 307.907697 
L 128.7943 297.692025 
L 127.567734 286.575534 
L 122.308253 277.147058 
L 124.143554 266.164949 
L 118.196202 255.941176 
L 119.667338 245.173892 
L 120.58356 234.310196 
L 126.513715 224.907082 
L 128.280101 213.920455 
L 133.844556 204.517994 
L 137.287722 192.990899 
L 145.438923 184.936139 
L 154.359258 177.730925 
L 162.814834 169.192795 
L 170.829224 157.023115 
L 182.764404 152.161095 
L 196.147838 155.497594 
L 208.343896 144.751049 
" style="fill:none;stroke:#9467bd;stroke-dasharray:0.5,0.825;stroke-dashoffset:0;stroke-width:0.5;"/>
   </g>
   <g id="line2d_23">
    <path clip-path="url(#p0173a94aa3)" d="M 208.343896 144.751049 
L 222.197698 139.629397 
L 235.439792 143.810924 
L 248.226141 148.571203 
L 260.16165 154.983927 
L 270.784317 163.237803 
L 282.180086 170.264325 
L 293.559406 177.984513 
L 297.352205 192.075508 
L 304.729784 202.803688 
L 306.032848 216.322514 
L 308.912644 228.460714 
L 312.538096 240.386787 
L 305.28096 253.067346 
L 306.607683 264.7012 
L 305.049039 276.296865 
L 299.891673 286.891432 
L 290.808418 295.224745 
L 287.518736 305.924123 
L 280.520856 314.507083 
L 269.399401 318.833578 
L 263.480822 328.165665 
L 253.422466 332.268097 
L 245.249139 339.721152 
L 233.874013 339.544883 
L 223.734234 341.574151 
L 214.107245 353.057405 
L 203.10872 344.157357 
L 192.832709 342.246573 
L 182.923522 339.185508 
L 174.05507 333.781527 
L 164.151264 330.768031 
L 155.922361 324.608744 
L 148.406712 317.681613 
L 141.312961 310.331491 
L 135.841581 301.71177 
L 128.192329 294.122925 
L 123.138773 284.747123 
L 118.658484 274.819266 
L 115.047739 264.258346 
L 116.494407 253.218174 
L 116.717869 242.262998 
L 115.024535 230.441613 
L 118.948693 219.68612 
L 127.812919 211.544492 
L 136.210253 204.183498 
L 137.620821 191.242449 
L 147.664866 185.531417 
L 155.693188 177.772286 
L 163.98216 169.510587 
L 174.075854 163.685616 
L 187.546573 169.876144 
L 196.54655 156.894691 
L 208.343896 147.552152 
" style="fill:none;stroke:#8c564b;stroke-linecap:square;"/>
   </g>
   <g id="line2d_24">
    <path clip-path="url(#p0173a94aa3)" d="M 208.343896 147.552152 
L 221.005234 151.665681 
L 233.375666 154.383296 
L 247.118345 153.701359 
L 257.603548 162.084751 
L 267.257399 170.590233 
L 276.911903 178.543896 
L 293.207316 180.758747 
L 297.88367 194.136333 
L 303.652177 205.919532 
L 306.144059 218.850467 
L 308.774093 231.187356 
L 311.330783 243.436304 
L 311.164874 255.941176 
L 302.174886 267.334321 
L 299.586786 278.430528 
L 295.923271 289.155652 
L 291.64412 299.660506 
L 291.333351 313.22466 
L 276.638622 316.445023 
L 269.799133 325.309798 
L 260.388038 331.340131 
L 249.412127 334.190152 
L 240.080558 339.623875 
L 229.574303 342.076321 
L 219.086475 344.41427 
L 208.343896 347.933499 
L 197.527203 345.024664 
L 185.838194 347.2504 
L 177.552067 337.132558 
L 168.656778 331.558663 
L 158.705972 327.854125 
L 150.173219 321.602297 
L 139.282102 317.124587 
L 135.50322 306.219465 
L 130.185662 296.961782 
L 121.307501 288.949727 
L 125.425967 276.37861 
L 117.971801 266.914335 
L 116.693171 255.941176 
L 108.849815 243.860407 
L 117.333177 233.509048 
L 114.18489 220.231375 
L 125.739354 212.586967 
L 126.478961 199.433891 
L 134.142738 190.204686 
L 142.471494 181.586604 
L 151.118627 173.036061 
L 160.05261 163.929818 
L 170.441601 156.001036 
L 183.230378 154.051624 
L 194.636712 143.052356 
L 208.343896 134.059033 
" style="fill:none;stroke:#e377c2;stroke-linecap:square;"/>
   </g>
   <g id="line2d_25">
    <path clip-path="url(#p0173a94aa3)" d="M 208.343896 134.059033 
L 223.319273 132.607851 
L 236.85003 140.287248 
L 252.266467 140.126875 
L 265.080601 147.838416 
L 275.213438 159.06392 
L 285.746235 168.571997 
L 293.437437 180.554878 
L 296.955943 194.776697 
L 300.718219 207.459392 
L 299.149207 221.503264 
L 300.4823 233.231099 
L 304.989477 244.206278 
L 302.761565 255.941176 
L 303.633048 267.511374 
L 298.326434 278.119879 
L 297.07311 289.591728 
L 292.097825 299.898629 
L 287.116407 310.313914 
L 279.962588 319.3898 
L 271.135609 326.818368 
L 260.756732 331.874278 
L 249.999496 335.30929 
L 240.359162 340.358495 
L 229.819552 343.071336 
L 219.424111 347.19495 
L 208.343896 348.070139 
L 197.967776 341.396216 
L 186.484017 344.630193 
L 177.200783 338.058817 
L 168.498029 331.861133 
L 156.78488 330.637307 
L 150.807479 320.886366 
L 143.270862 313.590854 
L 135.924915 305.92839 
L 130.60912 296.739534 
L 121.88242 288.731689 
L 118.295025 278.136229 
L 117.836158 266.930805 
L 118.127882 255.941176 
L 114.64855 244.564501 
L 118.59353 233.819697 
L 122.872559 223.526173 
L 125.890589 212.666342 
L 129.711951 201.665463 
L 133.784773 189.887556 
L 142.267625 181.356483 
L 152.341141 174.807177 
L 160.290733 164.383523 
L 169.363523 153.15838 
L 183.173153 153.819454 
L 195.221398 147.86768 
L 208.343896 141.744987 
" style="fill:none;stroke:#7f7f7f;stroke-linecap:square;"/>
   </g>
   <g id="line2d_26">
    <path clip-path="url(#p0173a94aa3)" d="M 208.343896 141.744987 
L 222.174606 142.035034 
L 235.844508 144.36681 
L 248.584045 149.836624 
L 262.366003 153.010653 
L 276.513571 157.180352 
L 291.250703 162.358737 
L 302.718974 172.332153 
L 319.024615 179.543792 
L 332.114599 190.9813 
L 327.575773 210.72249 
L 322.107296 227.901016 
L 317.706001 242.662212 
L 312.189668 255.941176 
L 305.328584 267.717249 
L 299.885291 278.504103 
L 293.400014 288.198707 
L 288.347198 297.930148 
L 282.590221 307.189713 
L 274.976639 314.972634 
L 268.9157 324.312608 
L 262.212105 333.98275 
L 250.872613 336.972875 
L 239.317425 337.611658 
L 229.607003 342.20899 
L 219.12765 344.753378 
L 208.343896 349.060773 
L 197.346032 346.516736 
L 186.238768 345.625209 
L 174.82659 344.31905 
L 164.529317 339.422882 
L 155.077242 333.111248 
L 149.33509 322.548349 
L 141.55774 315.108547 
L 137.30245 304.977546 
L 129.308499 297.422153 
L 127.248334 286.696666 
L 118.59353 278.062655 
L 116.920569 267.041978 
L 112.491516 255.941176 
L 114.750282 244.576854 
L 117.499013 233.549923 
L 123.032259 223.58674 
L 123.198606 211.25348 
L 129.683838 201.646058 
L 137.747964 193.398637 
L 143.581448 182.839484 
L 151.933636 174.216805 
L 161.227349 166.168095 
L 171.798283 159.578312 
L 183.483802 155.079807 
L 196.399006 157.566148 
L 208.343896 151.343889 
" style="fill:none;stroke:#bcbd22;stroke-linecap:square;"/>
   </g>
   <g id="line2d_27">
    <path clip-path="url(#p0173a94aa3)" d="M 208.343896 151.343889 
L 221.775208 145.324375 
L 234.111413 151.39825 
L 246.851854 154.404038 
L 258.175043 160.995859 
L 270.10993 166.457628 
L 282.053937 172.73974 
L 290.675988 183.001308 
L 294.510115 196.46493 
L 304.287364 205.58616 
L 311.350273 216.87601 
L 309.2716 231.064731 
L 310.516926 243.535124 
L 307.338978 255.941176 
L 306.752835 267.890184 
L 309.03943 280.760396 
L 302.758423 291.747883 
L 293.216964 300.485998 
L 286.273018 309.731765 
L 280.473968 319.842843 
L 273.423474 329.400834 
L 261.319476 332.689553 
L 251.74573 338.63646 
L 240.407615 340.486254 
L 230.350926 345.227203 
L 220.021149 352.112006 
L 208.343896 349.026613 
L 196.975457 349.568701 
L 187.203415 341.711482 
L 171.931528 351.952701 
L 164.989688 338.545719 
L 157.328219 329.850145 
L 149.153873 322.752901 
L 141.429896 315.221808 
L 130.105532 309.94522 
L 131.123319 296.469662 
L 123.958518 287.944329 
L 122.772593 277.032608 
L 115.055478 267.268441 
L 115.531738 255.941176 
L 109.595851 243.950992 
L 112.855609 232.405427 
L 116.772027 221.212547 
L 121.958479 210.602612 
L 123.583326 197.435178 
L 130.102841 186.625649 
L 139.866499 178.646172 
L 149.25575 170.337217 
L 160.433607 164.655746 
L 170.053978 154.978957 
L 181.750707 148.048366 
L 195.876082 153.259486 
L 208.343896 149.943337 
" style="fill:none;stroke:#17becf;stroke-linecap:square;"/>
   </g>
   <g id="line2d_28">
    <path clip-path="url(#p0173a94aa3)" d="M 208.343896 149.943337 
L 221.935086 141.834198 
L 233.674587 151.115826 
L 244.574531 158.401976 
L 257.697109 159.785627 
L 269.333989 165.39106 
L 279.660156 173.188361 
L 282.92322 187.714685 
L 294.326978 194.246184 
L 301.289567 204.700278 
L 310.211377 214.627872 
L 327.431529 223.40042 
L 358.959247 233.456914 
L 381.970162 250.793791 
L 377.855733 271.052825 
L 352.348651 286.25307 
L 334.873344 298.717952 
L 312.673544 305.640621 
L 294.682311 310.446477 
L 282.006306 315.712409 
L 274.253385 323.833598 
L 264.97325 330.120613 
L 254.933771 334.827035 
L 245.373075 340.002503 
L 235.240807 344.020736 
L 224.410998 345.339716 
L 213.682279 345.896447 
L 203.043963 345.248551 
L 193.068367 340.93535 
L 181.676448 343.269315 
L 171.631442 339.283496 
L 162.448875 333.650512 
L 141.827207 343.072148 
L 140.388121 325.941449 
L 135.795575 314.808415 
L 130.584441 305.030594 
L 123.782297 296.223729 
L 120.291051 285.709874 
L 111.705608 276.282793 
L 106.201277 265.046991 
L 105.158336 252.882101 
L 99.487311 239.690774 
L 94.726255 224.895097 
L 91.629974 208.60676 
L 100.979232 196.751094 
L 108.983202 184.647415 
L 124.287782 179.045148 
L 132.411482 167.83194 
L 140.979996 155.928062 
L 151.955824 146.07951 
L 161.848312 130.766936 
L 177.316408 127.540914 
L 191.767009 116.767297 
L 208.343896 114.382992 
" style="fill:none;stroke:#d62728;stroke-linecap:square;stroke-width:2.5;"/>
   </g>
   <g id="line2d_29">
    <path clip-path="url(#p0173a94aa3)" d="M 208.343896 114.382992 
L 224.672236 125.374683 
L 240.83229 128.078977 
L 254.629209 137.742729 
L 267.927831 146.260921 
L 279.007491 157.389635 
L 290.180368 167.471757 
L 292.138778 185.374042 
L 297.32482 198.214014 
L 308.104498 207.617073 
L 306.794675 222.584271 
L 310.239953 235.045229 
L 316.574872 247.497769 
L 316.240124 260.96809 
L 313.974499 274.17871 
L 311.091029 287.205228 
L 305.76222 299.421211 
L 296.019091 308.998538 
L 289.186362 319.806968 
L 279.989163 328.688035 
L 266.608316 332.052517 
L 260.212523 344.681108 
L 247.119168 346.506328 
L 235.439478 350.125576 
L 222.514881 346.213104 
L 211.327413 351.234465 
L 199.333205 352.432699 
L 187.178461 351.702817 
L 176.558492 345.246729 
L 163.664014 344.700805 
L 152.062764 339.860537 
L 144.839351 329.055758 
L 134.807962 321.910522 
L 126.320222 312.879342 
L 121.916219 301.199129 
L 109.769404 292.817427 
L 111.671239 278.940324 
L 110.481274 266.665872 
L 103.690473 254.344245 
L 104.83283 241.389056 
L 107.90033 228.781564 
L 105.502794 213.848851 
L 108.276654 199.585407 
L 112.858666 185.245668 
L 115.126546 167.0354 
" style="fill:none;stroke:#2ca02c;stroke-linecap:square;stroke-width:3;"/>
   </g>
   <g id="patch_3">
    <path d="M 208.343896 77.442592 
C 184.903677 77.442592 161.691385 82.059804 140.035446 91.029988 
C 118.379507 100.000171 98.701075 113.148879 82.126337 129.723617 
C 65.551599 146.298355 52.402892 165.976786 43.432708 187.632725 
C 34.462525 209.288664 29.845313 232.500957 29.845313 255.941176 
C 29.845313 279.381395 34.462525 302.593688 43.432708 324.249627 
C 52.402892 345.905566 65.551599 365.583997 82.126337 382.158735 
C 98.701075 398.733473 118.379507 411.882181 140.035446 420.852364 
C 161.691385 429.822548 184.903677 434.43976 208.343896 434.43976 
C 231.784116 434.43976 254.996408 429.822548 276.652347 420.852364 
C 298.308286 411.882181 317.986718 398.733473 334.561456 382.158735 
C 351.136194 365.583997 364.284901 345.905566 373.255085 324.249627 
C 382.225268 302.593688 386.84248 279.381395 386.84248 255.941176 
C 386.84248 232.500957 382.225268 209.288664 373.255085 187.632725 
C 364.284901 165.976786 351.136194 146.298355 334.561456 129.723617 
C 317.986718 113.148879 298.308286 100.000171 276.652347 91.029988 
C 254.996408 82.059804 231.784116 77.442592 208.343896 77.442592 
" style="fill:none;stroke:#000000;stroke-linecap:square;stroke-linejoin:miter;stroke-width:0.8;"/>
   </g>
   <g id="text_18">
    <!-- Totaal mannen en vrouwen, Totaal leeftijd -->
    <g transform="translate(103.973584 35.742875)scale(0.1 -0.1)">
     <defs>
      <path d="M -19 4666 
L 3928 4666 
L 3928 4134 
L 2272 4134 
L 2272 0 
L 1638 0 
L 1638 4134 
L -19 4134 
L -19 4666 
z
" id="DejaVuSans-54" transform="scale(0.015625)"/>
      <path id="DejaVuSans-20" transform="scale(0.015625)"/>
      <path d="M 3328 2828 
Q 3544 3216 3844 3400 
Q 4144 3584 4550 3584 
Q 5097 3584 5394 3201 
Q 5691 2819 5691 2113 
L 5691 0 
L 5113 0 
L 5113 2094 
Q 5113 2597 4934 2840 
Q 4756 3084 4391 3084 
Q 3944 3084 3684 2787 
Q 3425 2491 3425 1978 
L 3425 0 
L 2847 0 
L 2847 2094 
Q 2847 2600 2669 2842 
Q 2491 3084 2119 3084 
Q 1678 3084 1418 2786 
Q 1159 2488 1159 1978 
L 1159 0 
L 581 0 
L 581 3500 
L 1159 3500 
L 1159 2956 
Q 1356 3278 1631 3431 
Q 1906 3584 2284 3584 
Q 2666 3584 2933 3390 
Q 3200 3197 3328 2828 
z
" id="DejaVuSans-6d" transform="scale(0.015625)"/>
      <path d="M 269 3500 
L 844 3500 
L 1563 769 
L 2278 3500 
L 2956 3500 
L 3675 769 
L 4391 3500 
L 4966 3500 
L 4050 0 
L 3372 0 
L 2619 2869 
L 1863 0 
L 1184 0 
L 269 3500 
z
" id="DejaVuSans-77" transform="scale(0.015625)"/>
      <path d="M 750 794 
L 1409 794 
L 1409 256 
L 897 -744 
L 494 -744 
L 750 256 
L 750 794 
z
" id="DejaVuSans-2c" transform="scale(0.015625)"/>
      <path d="M 2375 4863 
L 2375 4384 
L 1825 4384 
Q 1516 4384 1395 4259 
Q 1275 4134 1275 3809 
L 1275 3500 
L 2222 3500 
L 2222 3053 
L 1275 3053 
L 1275 0 
L 697 0 
L 697 3053 
L 147 3053 
L 147 3500 
L 697 3500 
L 697 3744 
Q 697 4328 969 4595 
Q 1241 4863 1831 4863 
L 2375 4863 
z
" id="DejaVuSans-66" transform="scale(0.015625)"/>
      <path d="M 603 3500 
L 1178 3500 
L 1178 0 
L 603 0 
L 603 3500 
z
M 603 4863 
L 1178 4863 
L 1178 4134 
L 603 4134 
L 603 4863 
z
" id="DejaVuSans-69" transform="scale(0.015625)"/>
      <path d="M 603 3500 
L 1178 3500 
L 1178 -63 
Q 1178 -731 923 -1031 
Q 669 -1331 103 -1331 
L -116 -1331 
L -116 -844 
L 38 -844 
Q 366 -844 484 -692 
Q 603 -541 603 -63 
L 603 3500 
z
M 603 4863 
L 1178 4863 
L 1178 4134 
L 603 4134 
L 603 4863 
z
" id="DejaVuSans-6a" transform="scale(0.015625)"/>
      <path d="M 2906 2969 
L 2906 4863 
L 3481 4863 
L 3481 0 
L 2906 0 
L 2906 525 
Q 2725 213 2448 61 
Q 2172 -91 1784 -91 
Q 1150 -91 751 415 
Q 353 922 353 1747 
Q 353 2572 751 3078 
Q 1150 3584 1784 3584 
Q 2172 3584 2448 3432 
Q 2725 3281 2906 2969 
z
M 947 1747 
Q 947 1113 1208 752 
Q 1469 391 1925 391 
Q 2381 391 2643 752 
Q 2906 1113 2906 1747 
Q 2906 2381 2643 2742 
Q 2381 3103 1925 3103 
Q 1469 3103 1208 2742 
Q 947 2381 947 1747 
z
" id="DejaVuSans-64" transform="scale(0.015625)"/>
     </defs>
     <use xlink:href="#DejaVuSans-54"/>
     <use x="44.083984" xlink:href="#DejaVuSans-6f"/>
     <use x="105.265625" xlink:href="#DejaVuSans-74"/>
     <use x="144.474609" xlink:href="#DejaVuSans-61"/>
     <use x="205.753906" xlink:href="#DejaVuSans-61"/>
     <use x="267.033203" xlink:href="#DejaVuSans-6c"/>
     <use x="294.816406" xlink:href="#DejaVuSans-20"/>
     <use x="326.603516" xlink:href="#DejaVuSans-6d"/>
     <use x="424.015625" xlink:href="#DejaVuSans-61"/>
     <use x="485.294922" xlink:href="#DejaVuSans-6e"/>
     <use x="548.673828" xlink:href="#DejaVuSans-6e"/>
     <use x="612.052734" xlink:href="#DejaVuSans-65"/>
     <use x="673.576172" xlink:href="#DejaVuSans-6e"/>
     <use x="736.955078" xlink:href="#DejaVuSans-20"/>
     <use x="768.742188" xlink:href="#DejaVuSans-65"/>
     <use x="830.265625" xlink:href="#DejaVuSans-6e"/>
     <use x="893.644531" xlink:href="#DejaVuSans-20"/>
     <use x="925.431641" xlink:href="#DejaVuSans-76"/>
     <use x="984.611328" xlink:href="#DejaVuSans-72"/>
     <use x="1023.474609" xlink:href="#DejaVuSans-6f"/>
     <use x="1084.65625" xlink:href="#DejaVuSans-75"/>
     <use x="1148.035156" xlink:href="#DejaVuSans-77"/>
     <use x="1229.822266" xlink:href="#DejaVuSans-65"/>
     <use x="1291.345703" xlink:href="#DejaVuSans-6e"/>
     <use x="1354.724609" xlink:href="#DejaVuSans-2c"/>
     <use x="1386.511719" xlink:href="#DejaVuSans-20"/>
     <use x="1418.298828" xlink:href="#DejaVuSans-54"/>
     <use x="1462.382812" xlink:href="#DejaVuSans-6f"/>
     <use x="1523.564453" xlink:href="#DejaVuSans-74"/>
     <use x="1562.773438" xlink:href="#DejaVuSans-61"/>
     <use x="1624.052734" xlink:href="#DejaVuSans-61"/>
     <use x="1685.332031" xlink:href="#DejaVuSans-6c"/>
     <use x="1713.115234" xlink:href="#DejaVuSans-20"/>
     <use x="1744.902344" xlink:href="#DejaVuSans-6c"/>
     <use x="1772.685547" xlink:href="#DejaVuSans-65"/>
     <use x="1834.208984" xlink:href="#DejaVuSans-65"/>
     <use x="1895.732422" xlink:href="#DejaVuSans-66"/>
     <use x="1929.1875" xlink:href="#DejaVuSans-74"/>
     <use x="1968.396484" xlink:href="#DejaVuSans-69"/>
     <use x="1996.179688" xlink:href="#DejaVuSans-6a"/>
     <use x="2023.962891" xlink:href="#DejaVuSans-64"/>
    </g>
   </g>
  </g>
  <g id="text_19">
   <!-- Deaths in the Netherlands per week (2010-2021) -->
   <g transform="translate(36.003896 17.837812)scale(0.14 -0.14)">
    <defs>
     <path d="M 3513 2113 
L 3513 0 
L 2938 0 
L 2938 2094 
Q 2938 2591 2744 2837 
Q 2550 3084 2163 3084 
Q 1697 3084 1428 2787 
Q 1159 2491 1159 1978 
L 1159 0 
L 581 0 
L 581 4863 
L 1159 4863 
L 1159 2956 
Q 1366 3272 1645 3428 
Q 1925 3584 2291 3584 
Q 2894 3584 3203 3211 
Q 3513 2838 3513 2113 
z
" id="DejaVuSans-68" transform="scale(0.015625)"/>
     <path d="M 2834 3397 
L 2834 2853 
Q 2591 2978 2328 3040 
Q 2066 3103 1784 3103 
Q 1356 3103 1142 2972 
Q 928 2841 928 2578 
Q 928 2378 1081 2264 
Q 1234 2150 1697 2047 
L 1894 2003 
Q 2506 1872 2764 1633 
Q 3022 1394 3022 966 
Q 3022 478 2636 193 
Q 2250 -91 1575 -91 
Q 1294 -91 989 -36 
Q 684 19 347 128 
L 347 722 
Q 666 556 975 473 
Q 1284 391 1588 391 
Q 1994 391 2212 530 
Q 2431 669 2431 922 
Q 2431 1156 2273 1281 
Q 2116 1406 1581 1522 
L 1381 1569 
Q 847 1681 609 1914 
Q 372 2147 372 2553 
Q 372 3047 722 3315 
Q 1072 3584 1716 3584 
Q 2034 3584 2315 3537 
Q 2597 3491 2834 3397 
z
" id="DejaVuSans-73" transform="scale(0.015625)"/>
     <path d="M 581 4863 
L 1159 4863 
L 1159 1991 
L 2875 3500 
L 3609 3500 
L 1753 1863 
L 3688 0 
L 2938 0 
L 1159 1709 
L 1159 0 
L 581 0 
L 581 4863 
z
" id="DejaVuSans-6b" transform="scale(0.015625)"/>
     <path d="M 1984 4856 
Q 1566 4138 1362 3434 
Q 1159 2731 1159 2009 
Q 1159 1288 1364 580 
Q 1569 -128 1984 -844 
L 1484 -844 
Q 1016 -109 783 600 
Q 550 1309 550 2009 
Q 550 2706 781 3412 
Q 1013 4119 1484 4856 
L 1984 4856 
z
" id="DejaVuSans-28" transform="scale(0.015625)"/>
     <path d="M 313 2009 
L 1997 2009 
L 1997 1497 
L 313 1497 
L 313 2009 
z
" id="DejaVuSans-2d" transform="scale(0.015625)"/>
     <path d="M 513 4856 
L 1013 4856 
Q 1481 4119 1714 3412 
Q 1947 2706 1947 2009 
Q 1947 1309 1714 600 
Q 1481 -109 1013 -844 
L 513 -844 
Q 928 -128 1133 580 
Q 1338 1288 1338 2009 
Q 1338 2731 1133 3434 
Q 928 4138 513 4856 
z
" id="DejaVuSans-29" transform="scale(0.015625)"/>
    </defs>
    <use xlink:href="#DejaVuSans-44"/>
    <use x="77.001953" xlink:href="#DejaVuSans-65"/>
    <use x="138.525391" xlink:href="#DejaVuSans-61"/>
    <use x="199.804688" xlink:href="#DejaVuSans-74"/>
    <use x="239.013672" xlink:href="#DejaVuSans-68"/>
    <use x="302.392578" xlink:href="#DejaVuSans-73"/>
    <use x="354.492188" xlink:href="#DejaVuSans-20"/>
    <use x="386.279297" xlink:href="#DejaVuSans-69"/>
    <use x="414.0625" xlink:href="#DejaVuSans-6e"/>
    <use x="477.441406" xlink:href="#DejaVuSans-20"/>
    <use x="509.228516" xlink:href="#DejaVuSans-74"/>
    <use x="548.4375" xlink:href="#DejaVuSans-68"/>
    <use x="611.816406" xlink:href="#DejaVuSans-65"/>
    <use x="673.339844" xlink:href="#DejaVuSans-20"/>
    <use x="705.126953" xlink:href="#DejaVuSans-4e"/>
    <use x="779.931641" xlink:href="#DejaVuSans-65"/>
    <use x="841.455078" xlink:href="#DejaVuSans-74"/>
    <use x="880.664062" xlink:href="#DejaVuSans-68"/>
    <use x="944.042969" xlink:href="#DejaVuSans-65"/>
    <use x="1005.566406" xlink:href="#DejaVuSans-72"/>
    <use x="1046.679688" xlink:href="#DejaVuSans-6c"/>
    <use x="1074.462891" xlink:href="#DejaVuSans-61"/>
    <use x="1135.742188" xlink:href="#DejaVuSans-6e"/>
    <use x="1199.121094" xlink:href="#DejaVuSans-64"/>
    <use x="1262.597656" xlink:href="#DejaVuSans-73"/>
    <use x="1314.697266" xlink:href="#DejaVuSans-20"/>
    <use x="1346.484375" xlink:href="#DejaVuSans-70"/>
    <use x="1409.960938" xlink:href="#DejaVuSans-65"/>
    <use x="1471.484375" xlink:href="#DejaVuSans-72"/>
    <use x="1512.597656" xlink:href="#DejaVuSans-20"/>
    <use x="1544.384766" xlink:href="#DejaVuSans-77"/>
    <use x="1626.171875" xlink:href="#DejaVuSans-65"/>
    <use x="1687.695312" xlink:href="#DejaVuSans-65"/>
    <use x="1749.21875" xlink:href="#DejaVuSans-6b"/>
    <use x="1807.128906" xlink:href="#DejaVuSans-20"/>
    <use x="1838.916016" xlink:href="#DejaVuSans-28"/>
    <use x="1877.929688" xlink:href="#DejaVuSans-32"/>
    <use x="1941.552734" xlink:href="#DejaVuSans-30"/>
    <use x="2005.175781" xlink:href="#DejaVuSans-31"/>
    <use x="2068.798828" xlink:href="#DejaVuSans-30"/>
    <use x="2132.421875" xlink:href="#DejaVuSans-2d"/>
    <use x="2168.505859" xlink:href="#DejaVuSans-32"/>
    <use x="2232.128906" xlink:href="#DejaVuSans-30"/>
    <use x="2295.751953" xlink:href="#DejaVuSans-32"/>
    <use x="2359.375" xlink:href="#DejaVuSans-31"/>
    <use x="2422.998047" xlink:href="#DejaVuSans-29"/>
   </g>
  </g>
  <g id="legend_1">
   <g id="patch_4">
    <path d="M 434.093896 455.478822 
L 491.543896 455.478822 
Q 493.543896 455.478822 493.543896 453.478822 
L 493.543896 278.341322 
Q 493.543896 276.341322 491.543896 276.341322 
L 434.093896 276.341322 
Q 432.093896 276.341322 432.093896 278.341322 
L 432.093896 453.478822 
Q 432.093896 455.478822 434.093896 455.478822 
z
" style="fill:#ffffff;opacity:0.8;stroke:#cccccc;stroke-linejoin:miter;"/>
   </g>
   <g id="line2d_30">
    <path d="M 436.093896 284.43976 
L 456.093896 284.43976 
" style="fill:none;stroke:#1f77b4;stroke-dasharray:0.5,0.825;stroke-dashoffset:0;stroke-width:0.5;"/>
   </g>
   <g id="line2d_31"/>
   <g id="text_20">
    <!-- 2010 -->
    <g transform="translate(464.093896 287.93976)scale(0.1 -0.1)">
     <use xlink:href="#DejaVuSans-32"/>
     <use x="63.623047" xlink:href="#DejaVuSans-30"/>
     <use x="127.246094" xlink:href="#DejaVuSans-31"/>
     <use x="190.869141" xlink:href="#DejaVuSans-30"/>
    </g>
   </g>
   <g id="line2d_32">
    <path d="M 436.093896 299.117885 
L 456.093896 299.117885 
" style="fill:none;stroke:#ff7f0e;stroke-dasharray:0.5,0.825;stroke-dashoffset:0;stroke-width:0.5;"/>
   </g>
   <g id="line2d_33"/>
   <g id="text_21">
    <!-- 2011 -->
    <g transform="translate(464.093896 302.617885)scale(0.1 -0.1)">
     <use xlink:href="#DejaVuSans-32"/>
     <use x="63.623047" xlink:href="#DejaVuSans-30"/>
     <use x="127.246094" xlink:href="#DejaVuSans-31"/>
     <use x="190.869141" xlink:href="#DejaVuSans-31"/>
    </g>
   </g>
   <g id="line2d_34">
    <path d="M 436.093896 313.79601 
L 456.093896 313.79601 
" style="fill:none;stroke:#2ca02c;stroke-dasharray:0.5,0.825;stroke-dashoffset:0;stroke-width:0.5;"/>
   </g>
   <g id="line2d_35"/>
   <g id="text_22">
    <!-- 2012 -->
    <g transform="translate(464.093896 317.29601)scale(0.1 -0.1)">
     <use xlink:href="#DejaVuSans-32"/>
     <use x="63.623047" xlink:href="#DejaVuSans-30"/>
     <use x="127.246094" xlink:href="#DejaVuSans-31"/>
     <use x="190.869141" xlink:href="#DejaVuSans-32"/>
    </g>
   </g>
   <g id="line2d_36">
    <path d="M 436.093896 328.474135 
L 456.093896 328.474135 
" style="fill:none;stroke:#d62728;stroke-dasharray:0.5,0.825;stroke-dashoffset:0;stroke-width:0.5;"/>
   </g>
   <g id="line2d_37"/>
   <g id="text_23">
    <!-- 2013 -->
    <g transform="translate(464.093896 331.974135)scale(0.1 -0.1)">
     <use xlink:href="#DejaVuSans-32"/>
     <use x="63.623047" xlink:href="#DejaVuSans-30"/>
     <use x="127.246094" xlink:href="#DejaVuSans-31"/>
     <use x="190.869141" xlink:href="#DejaVuSans-33"/>
    </g>
   </g>
   <g id="line2d_38">
    <path d="M 436.093896 343.15226 
L 456.093896 343.15226 
" style="fill:none;stroke:#9467bd;stroke-dasharray:0.5,0.825;stroke-dashoffset:0;stroke-width:0.5;"/>
   </g>
   <g id="line2d_39"/>
   <g id="text_24">
    <!-- 2014 -->
    <g transform="translate(464.093896 346.65226)scale(0.1 -0.1)">
     <use xlink:href="#DejaVuSans-32"/>
     <use x="63.623047" xlink:href="#DejaVuSans-30"/>
     <use x="127.246094" xlink:href="#DejaVuSans-31"/>
     <use x="190.869141" xlink:href="#DejaVuSans-34"/>
    </g>
   </g>
   <g id="line2d_40">
    <path d="M 436.093896 357.830385 
L 456.093896 357.830385 
" style="fill:none;stroke:#8c564b;stroke-linecap:square;"/>
   </g>
   <g id="line2d_41"/>
   <g id="text_25">
    <!-- 2015 -->
    <g transform="translate(464.093896 361.330385)scale(0.1 -0.1)">
     <use xlink:href="#DejaVuSans-32"/>
     <use x="63.623047" xlink:href="#DejaVuSans-30"/>
     <use x="127.246094" xlink:href="#DejaVuSans-31"/>
     <use x="190.869141" xlink:href="#DejaVuSans-35"/>
    </g>
   </g>
   <g id="line2d_42">
    <path d="M 436.093896 372.50851 
L 456.093896 372.50851 
" style="fill:none;stroke:#e377c2;stroke-linecap:square;"/>
   </g>
   <g id="line2d_43"/>
   <g id="text_26">
    <!-- 2016 -->
    <g transform="translate(464.093896 376.00851)scale(0.1 -0.1)">
     <defs>
      <path d="M 2113 2584 
Q 1688 2584 1439 2293 
Q 1191 2003 1191 1497 
Q 1191 994 1439 701 
Q 1688 409 2113 409 
Q 2538 409 2786 701 
Q 3034 994 3034 1497 
Q 3034 2003 2786 2293 
Q 2538 2584 2113 2584 
z
M 3366 4563 
L 3366 3988 
Q 3128 4100 2886 4159 
Q 2644 4219 2406 4219 
Q 1781 4219 1451 3797 
Q 1122 3375 1075 2522 
Q 1259 2794 1537 2939 
Q 1816 3084 2150 3084 
Q 2853 3084 3261 2657 
Q 3669 2231 3669 1497 
Q 3669 778 3244 343 
Q 2819 -91 2113 -91 
Q 1303 -91 875 529 
Q 447 1150 447 2328 
Q 447 3434 972 4092 
Q 1497 4750 2381 4750 
Q 2619 4750 2861 4703 
Q 3103 4656 3366 4563 
z
" id="DejaVuSans-36" transform="scale(0.015625)"/>
     </defs>
     <use xlink:href="#DejaVuSans-32"/>
     <use x="63.623047" xlink:href="#DejaVuSans-30"/>
     <use x="127.246094" xlink:href="#DejaVuSans-31"/>
     <use x="190.869141" xlink:href="#DejaVuSans-36"/>
    </g>
   </g>
   <g id="line2d_44">
    <path d="M 436.093896 387.186635 
L 456.093896 387.186635 
" style="fill:none;stroke:#7f7f7f;stroke-linecap:square;"/>
   </g>
   <g id="line2d_45"/>
   <g id="text_27">
    <!-- 2017 -->
    <g transform="translate(464.093896 390.686635)scale(0.1 -0.1)">
     <defs>
      <path d="M 525 4666 
L 3525 4666 
L 3525 4397 
L 1831 0 
L 1172 0 
L 2766 4134 
L 525 4134 
L 525 4666 
z
" id="DejaVuSans-37" transform="scale(0.015625)"/>
     </defs>
     <use xlink:href="#DejaVuSans-32"/>
     <use x="63.623047" xlink:href="#DejaVuSans-30"/>
     <use x="127.246094" xlink:href="#DejaVuSans-31"/>
     <use x="190.869141" xlink:href="#DejaVuSans-37"/>
    </g>
   </g>
   <g id="line2d_46">
    <path d="M 436.093896 401.86476 
L 456.093896 401.86476 
" style="fill:none;stroke:#bcbd22;stroke-linecap:square;"/>
   </g>
   <g id="line2d_47"/>
   <g id="text_28">
    <!-- 2018 -->
    <g transform="translate(464.093896 405.36476)scale(0.1 -0.1)">
     <defs>
      <path d="M 2034 2216 
Q 1584 2216 1326 1975 
Q 1069 1734 1069 1313 
Q 1069 891 1326 650 
Q 1584 409 2034 409 
Q 2484 409 2743 651 
Q 3003 894 3003 1313 
Q 3003 1734 2745 1975 
Q 2488 2216 2034 2216 
z
M 1403 2484 
Q 997 2584 770 2862 
Q 544 3141 544 3541 
Q 544 4100 942 4425 
Q 1341 4750 2034 4750 
Q 2731 4750 3128 4425 
Q 3525 4100 3525 3541 
Q 3525 3141 3298 2862 
Q 3072 2584 2669 2484 
Q 3125 2378 3379 2068 
Q 3634 1759 3634 1313 
Q 3634 634 3220 271 
Q 2806 -91 2034 -91 
Q 1263 -91 848 271 
Q 434 634 434 1313 
Q 434 1759 690 2068 
Q 947 2378 1403 2484 
z
M 1172 3481 
Q 1172 3119 1398 2916 
Q 1625 2713 2034 2713 
Q 2441 2713 2670 2916 
Q 2900 3119 2900 3481 
Q 2900 3844 2670 4047 
Q 2441 4250 2034 4250 
Q 1625 4250 1398 4047 
Q 1172 3844 1172 3481 
z
" id="DejaVuSans-38" transform="scale(0.015625)"/>
     </defs>
     <use xlink:href="#DejaVuSans-32"/>
     <use x="63.623047" xlink:href="#DejaVuSans-30"/>
     <use x="127.246094" xlink:href="#DejaVuSans-31"/>
     <use x="190.869141" xlink:href="#DejaVuSans-38"/>
    </g>
   </g>
   <g id="line2d_48">
    <path d="M 436.093896 416.542885 
L 456.093896 416.542885 
" style="fill:none;stroke:#17becf;stroke-linecap:square;"/>
   </g>
   <g id="line2d_49"/>
   <g id="text_29">
    <!-- 2019 -->
    <g transform="translate(464.093896 420.042885)scale(0.1 -0.1)">
     <defs>
      <path d="M 703 97 
L 703 672 
Q 941 559 1184 500 
Q 1428 441 1663 441 
Q 2288 441 2617 861 
Q 2947 1281 2994 2138 
Q 2813 1869 2534 1725 
Q 2256 1581 1919 1581 
Q 1219 1581 811 2004 
Q 403 2428 403 3163 
Q 403 3881 828 4315 
Q 1253 4750 1959 4750 
Q 2769 4750 3195 4129 
Q 3622 3509 3622 2328 
Q 3622 1225 3098 567 
Q 2575 -91 1691 -91 
Q 1453 -91 1209 -44 
Q 966 3 703 97 
z
M 1959 2075 
Q 2384 2075 2632 2365 
Q 2881 2656 2881 3163 
Q 2881 3666 2632 3958 
Q 2384 4250 1959 4250 
Q 1534 4250 1286 3958 
Q 1038 3666 1038 3163 
Q 1038 2656 1286 2365 
Q 1534 2075 1959 2075 
z
" id="DejaVuSans-39" transform="scale(0.015625)"/>
     </defs>
     <use xlink:href="#DejaVuSans-32"/>
     <use x="63.623047" xlink:href="#DejaVuSans-30"/>
     <use x="127.246094" xlink:href="#DejaVuSans-31"/>
     <use x="190.869141" xlink:href="#DejaVuSans-39"/>
    </g>
   </g>
   <g id="line2d_50">
    <path d="M 436.093896 431.22101 
L 456.093896 431.22101 
" style="fill:none;stroke:#d62728;stroke-linecap:square;stroke-width:2.5;"/>
   </g>
   <g id="line2d_51"/>
   <g id="text_30">
    <!-- 2020 -->
    <g transform="translate(464.093896 434.72101)scale(0.1 -0.1)">
     <use xlink:href="#DejaVuSans-32"/>
     <use x="63.623047" xlink:href="#DejaVuSans-30"/>
     <use x="127.246094" xlink:href="#DejaVuSans-32"/>
     <use x="190.869141" xlink:href="#DejaVuSans-30"/>
    </g>
   </g>
   <g id="line2d_52">
    <path d="M 436.093896 445.899135 
L 456.093896 445.899135 
" style="fill:none;stroke:#2ca02c;stroke-linecap:square;stroke-width:3;"/>
   </g>
   <g id="line2d_53"/>
   <g id="text_31">
    <!-- 2021 -->
    <g transform="translate(464.093896 449.399135)scale(0.1 -0.1)">
     <use xlink:href="#DejaVuSans-32"/>
     <use x="63.623047" xlink:href="#DejaVuSans-30"/>
     <use x="127.246094" xlink:href="#DejaVuSans-32"/>
     <use x="190.869141" xlink:href="#DejaVuSans-31"/>
    </g>
   </g>
  </g>
 </g>
 <defs>
  <clipPath id="p0173a94aa3">
   <path d="M 386.84248 255.941176 
C 386.84248 232.500957 382.225268 209.288664 373.255085 187.632725 
C 364.284901 165.976786 351.136194 146.298355 334.561456 129.723617 
C 317.986718 113.148879 298.308286 100.000171 276.652347 91.029988 
C 254.996408 82.059804 231.784116 77.442592 208.343896 77.442592 
C 184.903677 77.442592 161.691385 82.059804 140.035446 91.029988 
C 118.379507 100.000171 98.701075 113.148879 82.126337 129.723617 
C 65.551599 146.298355 52.402892 165.976786 43.432708 187.632725 
C 34.462525 209.288664 29.845313 232.500957 29.845313 255.941176 
C 29.845313 279.381395 34.462525 302.593688 43.432708 324.249627 
C 52.402892 345.905566 65.551599 365.583997 82.126337 382.158735 
C 98.701075 398.733473 118.379507 411.882181 140.035446 420.852364 
C 161.691385 429.822548 184.903677 434.43976 208.343896 434.43976 
C 231.784116 434.43976 254.996408 429.822548 276.652347 420.852364 
C 298.308286 411.882181 317.986718 398.733473 334.561456 382.158735 
C 351.136194 365.583997 364.284901 345.905566 373.255085 324.249627 
C 382.225268 302.593688 386.84248 279.381395 386.84248 255.941176 
M 208.343896 255.941176 
C 208.343896 255.941176 208.343896 255.941176 208.343896 255.941176 
C 208.343896 255.941176 208.343896 255.941176 208.343896 255.941176 
C 208.343896 255.941176 208.343896 255.941176 208.343896 255.941176 
C 208.343896 255.941176 208.343896 255.941176 208.343896 255.941176 
C 208.343896 255.941176 208.343896 255.941176 208.343896 255.941176 
C 208.343896 255.941176 208.343896 255.941176 208.343896 255.941176 
C 208.343896 255.941176 208.343896 255.941176 208.343896 255.941176 
C 208.343896 255.941176 208.343896 255.941176 208.343896 255.941176 
C 208.343896 255.941176 208.343896 255.941176 208.343896 255.941176 
C 208.343896 255.941176 208.343896 255.941176 208.343896 255.941176 
C 208.343896 255.941176 208.343896 255.941176 208.343896 255.941176 
C 208.343896 255.941176 208.343896 255.941176 208.343896 255.941176 
C 208.343896 255.941176 208.343896 255.941176 208.343896 255.941176 
C 208.343896 255.941176 208.343896 255.941176 208.343896 255.941176 
C 208.343896 255.941176 208.343896 255.941176 208.343896 255.941176 
C 208.343896 255.941176 208.343896 255.941176 208.343896 255.941176 
M 386.84248 255.941176 
z
"/>
  </clipPath>
 </defs>
</svg>
