<?xml version="1.0" encoding="utf-8" standalone="no"?>
<!DOCTYPE svg PUBLIC "-//W3C//DTD SVG 1.1//EN"
  "http://www.w3.org/Graphics/SVG/1.1/DTD/svg11.dtd">
<svg xmlns:xlink="http://www.w3.org/1999/xlink" width="392.765pt" height="434.999062pt" viewBox="0 0 392.765 434.999062" xmlns="http://www.w3.org/2000/svg" version="1.1">
 <metadata>
  <rdf:RDF xmlns:dc="http://purl.org/dc/elements/1.1/" xmlns:cc="http://creativecommons.org/ns#" xmlns:rdf="http://www.w3.org/1999/02/22-rdf-syntax-ns#">
   <cc:Work>
    <dc:type rdf:resource="http://purl.org/dc/dcmitype/StillImage"/>
    <dc:date>2023-12-21T09:35:29.025311</dc:date>
    <dc:format>image/svg+xml</dc:format>
    <dc:creator>
     <cc:Agent>
      <dc:title>Matplotlib v3.8.2, https://matplotlib.org/</dc:title>
     </cc:Agent>
    </dc:creator>
   </cc:Work>
  </rdf:RDF>
 </metadata>
 <defs>
  <style type="text/css">*{stroke-linejoin: round; stroke-linecap: butt}</style>
 </defs>
 <g id="figure_1">
  <g id="patch_1">
   <path d="M 0 434.999062 
L 392.765 434.999062 
L 392.765 -0 
L 0 -0 
z
" style="fill: #ffffff"/>
  </g>
  <g id="axes_1">
   <g id="patch_2">
    <path d="M 365.88375 242.64 
C 365.88375 220.799058 361.581561 199.170491 353.223394 178.992092 
C 344.865227 158.813692 332.613628 140.477879 317.16975 125.034 
C 301.725871 109.590122 283.390058 97.338523 263.211658 88.980356 
C 243.033259 80.622189 221.404692 76.32 199.56375 76.32 
C 177.722808 76.32 156.094241 80.622189 135.915842 88.980356 
C 115.737442 97.338523 97.401629 109.590122 81.95775 125.034 
C 66.513872 140.477879 54.262273 158.813692 45.904106 178.992092 
C 37.545939 199.170491 33.24375 220.799058 33.24375 242.64 
C 33.24375 264.480942 37.545939 286.109509 45.904106 306.287908 
C 54.262273 326.466308 66.513872 344.802121 81.95775 360.246 
C 97.401629 375.689878 115.737442 387.941477 135.915842 396.299644 
C 156.094241 404.657811 177.722808 408.96 199.56375 408.96 
C 221.404692 408.96 243.033259 404.657811 263.211658 396.299644 
C 283.390058 387.941477 301.725871 375.689878 317.16975 360.246 
C 332.613628 344.802121 344.865227 326.466308 353.223394 306.287908 
C 361.581561 286.109509 365.88375 264.480942 365.88375 242.64 
M 199.56375 242.64 
C 199.56375 242.64 199.56375 242.64 199.56375 242.64 
C 199.56375 242.64 199.56375 242.64 199.56375 242.64 
C 199.56375 242.64 199.56375 242.64 199.56375 242.64 
C 199.56375 242.64 199.56375 242.64 199.56375 242.64 
C 199.56375 242.64 199.56375 242.64 199.56375 242.64 
C 199.56375 242.64 199.56375 242.64 199.56375 242.64 
C 199.56375 242.64 199.56375 242.64 199.56375 242.64 
C 199.56375 242.64 199.56375 242.64 199.56375 242.64 
C 199.56375 242.64 199.56375 242.64 199.56375 242.64 
C 199.56375 242.64 199.56375 242.64 199.56375 242.64 
C 199.56375 242.64 199.56375 242.64 199.56375 242.64 
C 199.56375 242.64 199.56375 242.64 199.56375 242.64 
C 199.56375 242.64 199.56375 242.64 199.56375 242.64 
C 199.56375 242.64 199.56375 242.64 199.56375 242.64 
C 199.56375 242.64 199.56375 242.64 199.56375 242.64 
C 199.56375 242.64 199.56375 242.64 199.56375 242.64 
z
" style="fill: #ffffff"/>
   </g>
   <g id="PolyCollection_1">
    <defs>
     <path id="m21470f03ce" d="M 199.56375 -192.359063 
L 199.56375 -192.359063 
L 309.820116 -205.491609 
L 306.258569 -218.141504 
L 300.912646 -230.004797 
L 295.528033 -241.614104 
L 288.83995 -252.491108 
L 280.249389 -261.893832 
L 272.488968 -272.074629 
L 262.030709 -279.418018 
L 250.994238 -285.648629 
L 240.574938 -293.481608 
L 227.394665 -294.210346 
L 215.08093 -296.30401 
L 202.870991 -303.915501 
L 189.23031 -308.272314 
L 175.983838 -304.381739 
L 165.602503 -292.813051 
L 156.181858 -283.426831 
L 149.230321 -272.089079 
L 141.381434 -264.063282 
L 135.122563 -254.918117 
L 129.505771 -245.842052 
L 123.117497 -237.50811 
L 120.140198 -227.345292 
L 116.312185 -217.781645 
L 113.759615 -207.780161 
L 111.694844 -197.57363 
L 111.673596 -187.143234 
L 113.248365 -176.84608 
L 114.481761 -166.377522 
L 116.573799 -155.801827 
L 124.424822 -147.98212 
L 130.720961 -139.803761 
L 134.795262 -129.482267 
L 144.017453 -123.903488 
L 153.086921 -118.738043 
L 161.859947 -113.210804 
L 171.81237 -110.273243 
L 181.519239 -106.633788 
L 191.427577 -101.093203 
L 202.326209 -99.178637 
L 213.527611 -98.819331 
L 225.039553 -99.126654 
L 236.812456 -100.513784 
L 248.401871 -103.771781 
L 259.50759 -108.816528 
L 270.607481 -114.700175 
L 280.473885 -122.630823 
L 290.31614 -131.232728 
L 298.652237 -141.500478 
L 305.563051 -152.98595 
L 310.510019 -165.549272 
L 311.798235 -178.990904 
L 310.599465 -192.359062 
L 286.975523 -192.359062 
L 286.975523 -192.359062 
L 283.132321 -182.405278 
L 282.514521 -172.31429 
L 279.660413 -162.607405 
L 271.840976 -155.261742 
L 265.876519 -147.694052 
L 259.522943 -140.686315 
L 252.489428 -134.50527 
L 244.990217 -129.049102 
L 237.180153 -124.126813 
L 229.265793 -119.121823 
L 220.332756 -116.351865 
L 211.384024 -113.178579 
L 201.882695 -114.138797 
L 192.713565 -115.518505 
L 183.765601 -117.305733 
L 175.269783 -120.499926 
L 166.879118 -123.747107 
L 159.232947 -128.473577 
L 152.775203 -134.69659 
L 146.26913 -140.621018 
L 140.313187 -147.126566 
L 135.596106 -154.579864 
L 129.728843 -161.59665 
L 127.456908 -170.339751 
L 124.389959 -178.848496 
L 118.867187 -187.570137 
L 122.35258 -196.941148 
L 124.600379 -205.831811 
L 126.68984 -214.612614 
L 128.236891 -223.778683 
L 131.708237 -232.434431 
L 136.64493 -240.391944 
L 142.798981 -247.465903 
L 148.260767 -255.585152 
L 157.939725 -258.29306 
L 165.840297 -263.151723 
L 174.634204 -266.09818 
L 184.143264 -265.618204 
L 192.907374 -267.025608 
L 201.977119 -273.764325 
L 212.004385 -275.695156 
L 222.17276 -275.100024 
L 232.23765 -272.924101 
L 241.538205 -268.496368 
L 251.739908 -265.075934 
L 259.969372 -258.389286 
L 267.686858 -251.067461 
L 273.040681 -241.8495 
L 277.156655 -232.184732 
L 280.878573 -222.563202 
L 285.778411 -213.192543 
L 286.361988 -202.69753 
L 199.56375 -192.359063 
z
" style="stroke: #1f77b4; stroke-opacity: 0.3"/>
    </defs>
    <g clip-path="url(#p7f033e91cb)">
     <use xlink:href="#m21470f03ce" x="0" y="434.999062" style="fill: #1f77b4; fill-opacity: 0.3; stroke: #1f77b4; stroke-opacity: 0.3"/>
    </g>
   </g>
   <g id="PolyCollection_2">
    <path d="M 199.56375 242.64 
L 199.56375 242.64 
L 285.12111 232.449332 
L 283.527261 222.350502 
L 276.187272 214.17843 
L 272.172366 205.372589 
L 269.528597 195.51513 
L 262.685218 188.242008 
L 254.672946 182.399373 
L 247.706092 175.544977 
L 239.959016 169.36718 
L 231.337079 164.295528 
L 221.618112 161.928855 
L 211.806969 160.626337 
L 201.950864 162.120333 
L 192.72612 165.940284 
L 182.990382 163.903786 
L 173.81428 166.475632 
L 165.134176 170.365042 
L 157.526057 176.050737 
L 148.414446 179.603305 
L 143.128312 187.852871 
L 138.034982 195.668299 
L 133.12593 203.401919 
L 128.894424 211.510024 
L 128.896382 221.060261 
L 125.583057 229.343862 
L 122.353043 238.057942 
L 120.798256 247.314327 
L 124.448666 256.140015 
L 129.224097 264.119664 
L 133.59811 271.697993 
L 138.168445 278.899979 
L 141.229031 287.173331 
L 145.586885 295.040363 
L 154.871898 297.718494 
L 160.153412 305.067435 
L 166.969527 311.062169 
L 176.507948 310.836767 
L 184.228733 315.493098 
L 193.011022 316.143895 
L 201.847478 319.67235 
L 211.232062 320.802533 
L 220.443959 319.054162 
L 229.089297 315.442048 
L 236.695512 309.993162 
L 245.018402 305.989242 
L 252.528292 300.536276 
L 259.546842 294.333344 
L 269.864469 289.991098 
L 271.562675 279.594479 
L 275.194436 270.732785 
L 283.951167 263.031933 
L 279.738977 252.189606 
L 285.725874 242.64 
L 328.682334 242.64 
L 328.682334 242.64 
L 327.466745 257.874422 
L 326.674756 273.355944 
L 317.915554 286.601412 
L 320.753626 304.842439 
L 313.114526 319.122203 
L 298.481579 327.887245 
L 283.772957 334.690252 
L 268.35409 338.511726 
L 255.013246 343.219631 
L 239.93016 342.172696 
L 227.242548 343.93459 
L 214.810283 344.771966 
L 202.617336 345.64041 
L 190.693087 342.14485 
L 180.212113 334.575123 
L 170.442207 328.778625 
L 158.127691 329.623053 
L 150.092968 321.003552 
L 139.876476 316.198937 
L 127.840455 312.268474 
L 125.630188 299.08165 
L 120.117313 289.560951 
L 110.165199 282.020236 
L 104.705023 271.607069 
L 104.918744 259.650019 
L 107.116133 248.12629 
L 103.104783 236.915657 
L 103.416442 225.35998 
L 109.829301 215.237735 
L 115.581566 205.645684 
L 118.829863 194.958682 
L 127.165312 187.37028 
L 131.215406 176.287905 
L 138.168883 166.976614 
L 143.308403 153.529447 
L 147.18257 132.680822 
L 156.584783 115.512492 
L 167.597618 90.776346 
L 185.49848 84.865705 
L 203.678891 103.832313 
L 216.263648 130.772378 
L 230.214879 130.467736 
L 247.469594 124.51709 
L 258.773044 135.240487 
L 266.592564 149.223279 
L 276.51898 158.519171 
L 283.356024 170.427937 
L 293.995624 179.035347 
L 302.49062 189.811311 
L 312.367357 200.739449 
L 316.137684 214.470304 
L 327.776063 227.368736 
L 199.56375 242.64 
z
" clip-path="url(#p7f033e91cb)" style="fill: #1f77b4; fill-opacity: 0.2"/>
   </g>
   <g id="matplotlib.axis_1">
    <g id="xtick_1">
     <g id="line2d_1">
      <path d="M 199.56375 242.64 
L 365.88375 242.64 
" clip-path="url(#p7f033e91cb)" style="fill: none; stroke: #b0b0b0; stroke-width: 0.8; stroke-linecap: square"/>
     </g>
     <g id="text_1">
      <!-- 0° -->
      <g transform="translate(374.2025 245.399375) scale(0.1 -0.1)">
       <defs>
        <path id="DejaVuSans-30" d="M 2034 4250 
Q 1547 4250 1301 3770 
Q 1056 3291 1056 2328 
Q 1056 1369 1301 889 
Q 1547 409 2034 409 
Q 2525 409 2770 889 
Q 3016 1369 3016 2328 
Q 3016 3291 2770 3770 
Q 2525 4250 2034 4250 
z
M 2034 4750 
Q 2819 4750 3233 4129 
Q 3647 3509 3647 2328 
Q 3647 1150 3233 529 
Q 2819 -91 2034 -91 
Q 1250 -91 836 529 
Q 422 1150 422 2328 
Q 422 3509 836 4129 
Q 1250 4750 2034 4750 
z
" transform="scale(0.015625)"/>
        <path id="DejaVuSans-b0" d="M 1600 4347 
Q 1350 4347 1178 4173 
Q 1006 4000 1006 3750 
Q 1006 3503 1178 3333 
Q 1350 3163 1600 3163 
Q 1850 3163 2022 3333 
Q 2194 3503 2194 3750 
Q 2194 3997 2020 4172 
Q 1847 4347 1600 4347 
z
M 1600 4750 
Q 1800 4750 1984 4673 
Q 2169 4597 2303 4453 
Q 2447 4313 2519 4134 
Q 2591 3956 2591 3750 
Q 2591 3338 2302 3052 
Q 2013 2766 1594 2766 
Q 1172 2766 890 3047 
Q 609 3328 609 3750 
Q 609 4169 896 4459 
Q 1184 4750 1600 4750 
z
" transform="scale(0.015625)"/>
       </defs>
       <use xlink:href="#DejaVuSans-30"/>
       <use xlink:href="#DejaVuSans-b0" x="63.623047"/>
      </g>
     </g>
    </g>
    <g id="xtick_2">
     <g id="line2d_2">
      <path d="M 199.56375 242.64 
L 317.16975 125.034 
" clip-path="url(#p7f033e91cb)" style="fill: none; stroke: #b0b0b0; stroke-width: 0.8; stroke-linecap: square"/>
     </g>
     <g id="text_2">
      <!-- 45° -->
      <g transform="translate(318.206745 117.89388) scale(0.1 -0.1)">
       <defs>
        <path id="DejaVuSans-34" d="M 2419 4116 
L 825 1625 
L 2419 1625 
L 2419 4116 
z
M 2253 4666 
L 3047 4666 
L 3047 1625 
L 3713 1625 
L 3713 1100 
L 3047 1100 
L 3047 0 
L 2419 0 
L 2419 1100 
L 313 1100 
L 313 1709 
L 2253 4666 
z
" transform="scale(0.015625)"/>
        <path id="DejaVuSans-35" d="M 691 4666 
L 3169 4666 
L 3169 4134 
L 1269 4134 
L 1269 2991 
Q 1406 3038 1543 3061 
Q 1681 3084 1819 3084 
Q 2600 3084 3056 2656 
Q 3513 2228 3513 1497 
Q 3513 744 3044 326 
Q 2575 -91 1722 -91 
Q 1428 -91 1123 -41 
Q 819 9 494 109 
L 494 744 
Q 775 591 1075 516 
Q 1375 441 1709 441 
Q 2250 441 2565 725 
Q 2881 1009 2881 1497 
Q 2881 1984 2565 2268 
Q 2250 2553 1709 2553 
Q 1456 2553 1204 2497 
Q 953 2441 691 2322 
L 691 4666 
z
" transform="scale(0.015625)"/>
       </defs>
       <use xlink:href="#DejaVuSans-34"/>
       <use xlink:href="#DejaVuSans-35" x="63.623047"/>
       <use xlink:href="#DejaVuSans-b0" x="127.246094"/>
      </g>
     </g>
    </g>
    <g id="xtick_3">
     <g id="line2d_3">
      <path d="M 199.56375 242.64 
L 199.56375 76.32 
" clip-path="url(#p7f033e91cb)" style="fill: none; stroke: #b0b0b0; stroke-width: 0.8; stroke-linecap: square"/>
     </g>
     <g id="text_3">
      <!-- 90° -->
      <g transform="translate(190.70125 65.079375) scale(0.1 -0.1)">
       <defs>
        <path id="DejaVuSans-39" d="M 703 97 
L 703 672 
Q 941 559 1184 500 
Q 1428 441 1663 441 
Q 2288 441 2617 861 
Q 2947 1281 2994 2138 
Q 2813 1869 2534 1725 
Q 2256 1581 1919 1581 
Q 1219 1581 811 2004 
Q 403 2428 403 3163 
Q 403 3881 828 4315 
Q 1253 4750 1959 4750 
Q 2769 4750 3195 4129 
Q 3622 3509 3622 2328 
Q 3622 1225 3098 567 
Q 2575 -91 1691 -91 
Q 1453 -91 1209 -44 
Q 966 3 703 97 
z
M 1959 2075 
Q 2384 2075 2632 2365 
Q 2881 2656 2881 3163 
Q 2881 3666 2632 3958 
Q 2384 4250 1959 4250 
Q 1534 4250 1286 3958 
Q 1038 3666 1038 3163 
Q 1038 2656 1286 2365 
Q 1534 2075 1959 2075 
z
" transform="scale(0.015625)"/>
       </defs>
       <use xlink:href="#DejaVuSans-39"/>
       <use xlink:href="#DejaVuSans-30" x="63.623047"/>
       <use xlink:href="#DejaVuSans-b0" x="127.246094"/>
      </g>
     </g>
    </g>
    <g id="xtick_4">
     <g id="line2d_4">
      <path d="M 199.56375 242.64 
L 81.95775 125.034 
" clip-path="url(#p7f033e91cb)" style="fill: none; stroke: #b0b0b0; stroke-width: 0.8; stroke-linecap: square"/>
     </g>
     <g id="text_4">
      <!-- 135° -->
      <g transform="translate(60.014505 117.89388) scale(0.1 -0.1)">
       <defs>
        <path id="DejaVuSans-31" d="M 794 531 
L 1825 531 
L 1825 4091 
L 703 3866 
L 703 4441 
L 1819 4666 
L 2450 4666 
L 2450 531 
L 3481 531 
L 3481 0 
L 794 0 
L 794 531 
z
" transform="scale(0.015625)"/>
        <path id="DejaVuSans-33" d="M 2597 2516 
Q 3050 2419 3304 2112 
Q 3559 1806 3559 1356 
Q 3559 666 3084 287 
Q 2609 -91 1734 -91 
Q 1441 -91 1130 -33 
Q 819 25 488 141 
L 488 750 
Q 750 597 1062 519 
Q 1375 441 1716 441 
Q 2309 441 2620 675 
Q 2931 909 2931 1356 
Q 2931 1769 2642 2001 
Q 2353 2234 1838 2234 
L 1294 2234 
L 1294 2753 
L 1863 2753 
Q 2328 2753 2575 2939 
Q 2822 3125 2822 3475 
Q 2822 3834 2567 4026 
Q 2313 4219 1838 4219 
Q 1578 4219 1281 4162 
Q 984 4106 628 3988 
L 628 4550 
Q 988 4650 1302 4700 
Q 1616 4750 1894 4750 
Q 2613 4750 3031 4423 
Q 3450 4097 3450 3541 
Q 3450 3153 3228 2886 
Q 3006 2619 2597 2516 
z
" transform="scale(0.015625)"/>
       </defs>
       <use xlink:href="#DejaVuSans-31"/>
       <use xlink:href="#DejaVuSans-33" x="63.623047"/>
       <use xlink:href="#DejaVuSans-35" x="127.246094"/>
       <use xlink:href="#DejaVuSans-b0" x="190.869141"/>
      </g>
     </g>
    </g>
    <g id="xtick_5">
     <g id="line2d_5">
      <path d="M 199.56375 242.64 
L 33.24375 242.64 
" clip-path="url(#p7f033e91cb)" style="fill: none; stroke: #b0b0b0; stroke-width: 0.8; stroke-linecap: square"/>
     </g>
     <g id="text_5">
      <!-- 180° -->
      <g transform="translate(7.2 245.399375) scale(0.1 -0.1)">
       <defs>
        <path id="DejaVuSans-38" d="M 2034 2216 
Q 1584 2216 1326 1975 
Q 1069 1734 1069 1313 
Q 1069 891 1326 650 
Q 1584 409 2034 409 
Q 2484 409 2743 651 
Q 3003 894 3003 1313 
Q 3003 1734 2745 1975 
Q 2488 2216 2034 2216 
z
M 1403 2484 
Q 997 2584 770 2862 
Q 544 3141 544 3541 
Q 544 4100 942 4425 
Q 1341 4750 2034 4750 
Q 2731 4750 3128 4425 
Q 3525 4100 3525 3541 
Q 3525 3141 3298 2862 
Q 3072 2584 2669 2484 
Q 3125 2378 3379 2068 
Q 3634 1759 3634 1313 
Q 3634 634 3220 271 
Q 2806 -91 2034 -91 
Q 1263 -91 848 271 
Q 434 634 434 1313 
Q 434 1759 690 2068 
Q 947 2378 1403 2484 
z
M 1172 3481 
Q 1172 3119 1398 2916 
Q 1625 2713 2034 2713 
Q 2441 2713 2670 2916 
Q 2900 3119 2900 3481 
Q 2900 3844 2670 4047 
Q 2441 4250 2034 4250 
Q 1625 4250 1398 4047 
Q 1172 3844 1172 3481 
z
" transform="scale(0.015625)"/>
       </defs>
       <use xlink:href="#DejaVuSans-31"/>
       <use xlink:href="#DejaVuSans-38" x="63.623047"/>
       <use xlink:href="#DejaVuSans-30" x="127.246094"/>
       <use xlink:href="#DejaVuSans-b0" x="190.869141"/>
      </g>
     </g>
    </g>
    <g id="xtick_6">
     <g id="line2d_6">
      <path d="M 199.56375 242.64 
L 81.95775 360.246 
" clip-path="url(#p7f033e91cb)" style="fill: none; stroke: #b0b0b0; stroke-width: 0.8; stroke-linecap: square"/>
     </g>
     <g id="text_6">
      <!-- 225° -->
      <g transform="translate(60.014505 372.90487) scale(0.1 -0.1)">
       <defs>
        <path id="DejaVuSans-32" d="M 1228 531 
L 3431 531 
L 3431 0 
L 469 0 
L 469 531 
Q 828 903 1448 1529 
Q 2069 2156 2228 2338 
Q 2531 2678 2651 2914 
Q 2772 3150 2772 3378 
Q 2772 3750 2511 3984 
Q 2250 4219 1831 4219 
Q 1534 4219 1204 4116 
Q 875 4013 500 3803 
L 500 4441 
Q 881 4594 1212 4672 
Q 1544 4750 1819 4750 
Q 2544 4750 2975 4387 
Q 3406 4025 3406 3419 
Q 3406 3131 3298 2873 
Q 3191 2616 2906 2266 
Q 2828 2175 2409 1742 
Q 1991 1309 1228 531 
z
" transform="scale(0.015625)"/>
       </defs>
       <use xlink:href="#DejaVuSans-32"/>
       <use xlink:href="#DejaVuSans-32" x="63.623047"/>
       <use xlink:href="#DejaVuSans-35" x="127.246094"/>
       <use xlink:href="#DejaVuSans-b0" x="190.869141"/>
      </g>
     </g>
    </g>
    <g id="xtick_7">
     <g id="line2d_7">
      <path d="M 199.56375 242.64 
L 199.56375 408.96 
" clip-path="url(#p7f033e91cb)" style="fill: none; stroke: #b0b0b0; stroke-width: 0.8; stroke-linecap: square"/>
     </g>
     <g id="text_7">
      <!-- 270° -->
      <g transform="translate(187.52 425.719375) scale(0.1 -0.1)">
       <defs>
        <path id="DejaVuSans-37" d="M 525 4666 
L 3525 4666 
L 3525 4397 
L 1831 0 
L 1172 0 
L 2766 4134 
L 525 4134 
L 525 4666 
z
" transform="scale(0.015625)"/>
       </defs>
       <use xlink:href="#DejaVuSans-32"/>
       <use xlink:href="#DejaVuSans-37" x="63.623047"/>
       <use xlink:href="#DejaVuSans-30" x="127.246094"/>
       <use xlink:href="#DejaVuSans-b0" x="190.869141"/>
      </g>
     </g>
    </g>
    <g id="xtick_8">
     <g id="line2d_8">
      <path d="M 199.56375 242.64 
L 317.16975 360.246 
" clip-path="url(#p7f033e91cb)" style="fill: none; stroke: #b0b0b0; stroke-width: 0.8; stroke-linecap: square"/>
     </g>
     <g id="text_8">
      <!-- 315° -->
      <g transform="translate(315.025495 372.90487) scale(0.1 -0.1)">
       <use xlink:href="#DejaVuSans-33"/>
       <use xlink:href="#DejaVuSans-31" x="63.623047"/>
       <use xlink:href="#DejaVuSans-35" x="127.246094"/>
       <use xlink:href="#DejaVuSans-b0" x="190.869141"/>
      </g>
     </g>
    </g>
   </g>
   <g id="matplotlib.axis_2">
    <g id="ytick_1">
     <g id="line2d_9">
      <path d="M 230.714192 242.64 
C 230.714192 238.549361 229.908426 234.498499 228.343006 230.719242 
C 226.777587 226.939984 224.482957 223.505829 221.590439 220.613311 
C 218.697921 217.720793 215.263766 215.426163 211.484508 213.860744 
C 207.705251 212.295324 203.654389 211.489558 199.56375 211.489558 
C 195.473111 211.489558 191.422249 212.295324 187.642992 213.860744 
C 183.863734 215.426163 180.429579 217.720793 177.537061 220.613311 
C 174.644543 223.505829 172.349913 226.939984 170.784494 230.719242 
C 169.219074 234.498499 168.413308 238.549361 168.413308 242.64 
C 168.413308 246.730639 169.219074 250.781501 170.784494 254.560758 
C 172.349913 258.340016 174.644543 261.774171 177.537061 264.666689 
C 180.429579 267.559207 183.863734 269.853837 187.642992 271.419256 
C 191.422249 272.984676 195.473111 273.790442 199.56375 273.790442 
C 203.654389 273.790442 207.705251 272.984676 211.484508 271.419256 
C 215.263766 269.853837 218.697921 267.559207 221.590439 264.666689 
C 224.482957 261.774171 226.777587 258.340016 228.343006 254.560758 
C 229.908426 250.781501 230.714192 246.730639 230.714192 242.64 
" clip-path="url(#p7f033e91cb)" style="fill: none; stroke: #b0b0b0; stroke-width: 0.8; stroke-linecap: square"/>
     </g>
     <g id="text_9">
      <!-- 1000 -->
      <g transform="translate(228.343006 228.639554) scale(0.1 -0.1)">
       <use xlink:href="#DejaVuSans-31"/>
       <use xlink:href="#DejaVuSans-30" x="63.623047"/>
       <use xlink:href="#DejaVuSans-30" x="127.246094"/>
       <use xlink:href="#DejaVuSans-30" x="190.869141"/>
      </g>
     </g>
    </g>
    <g id="ytick_2">
     <g id="line2d_10">
      <path d="M 261.864635 242.64 
C 261.864635 234.458723 260.253102 226.356998 257.122262 218.798484 
C 253.991423 211.239969 249.402165 204.371658 243.617128 198.586622 
C 237.832092 192.801585 230.963781 188.212327 223.405266 185.081488 
C 215.846752 181.950648 207.745027 180.339115 199.56375 180.339115 
C 191.382473 180.339115 183.280748 181.950648 175.722234 185.081488 
C 168.163719 188.212327 161.295408 192.801585 155.510372 198.586622 
C 149.725335 204.371658 145.136077 211.239969 142.005238 218.798484 
C 138.874398 226.356998 137.262865 234.458723 137.262865 242.64 
C 137.262865 250.821277 138.874398 258.923002 142.005238 266.481516 
C 145.136077 274.040031 149.725335 280.908342 155.510372 286.693378 
C 161.295408 292.478415 168.163719 297.067673 175.722234 300.198512 
C 183.280748 303.329352 191.382473 304.940885 199.56375 304.940885 
C 207.745027 304.940885 215.846752 303.329352 223.405266 300.198512 
C 230.963781 297.067673 237.832092 292.478415 243.617128 286.693378 
C 249.402165 280.908342 253.991423 274.040031 257.122262 266.481516 
C 260.253102 258.923002 261.864635 250.821277 261.864635 242.64 
" clip-path="url(#p7f033e91cb)" style="fill: none; stroke: #b0b0b0; stroke-width: 0.8; stroke-linecap: square"/>
     </g>
     <g id="text_10">
      <!-- 2000 -->
      <g transform="translate(257.122262 216.718796) scale(0.1 -0.1)">
       <use xlink:href="#DejaVuSans-32"/>
       <use xlink:href="#DejaVuSans-30" x="63.623047"/>
       <use xlink:href="#DejaVuSans-30" x="127.246094"/>
       <use xlink:href="#DejaVuSans-30" x="190.869141"/>
      </g>
     </g>
    </g>
    <g id="ytick_3">
     <g id="line2d_11">
      <path d="M 293.015077 242.64 
C 293.015077 230.368084 290.597778 218.215497 285.901519 206.877725 
C 281.20526 195.539953 274.321372 185.237488 265.643817 176.559933 
C 256.966262 167.882378 246.663797 160.99849 235.326025 156.302231 
C 223.988253 151.605972 211.835666 149.188673 199.56375 149.188673 
C 187.291834 149.188673 175.139247 151.605972 163.801475 156.302231 
C 152.463703 160.99849 142.161238 167.882378 133.483683 176.559933 
C 124.806128 185.237488 117.92224 195.539953 113.225981 206.877725 
C 108.529722 218.215497 106.112423 230.368084 106.112423 242.64 
C 106.112423 254.911916 108.529722 267.064503 113.225981 278.402275 
C 117.92224 289.740047 124.806128 300.042512 133.483683 308.720067 
C 142.161238 317.397622 152.463703 324.28151 163.801475 328.977769 
C 175.139247 333.674028 187.291834 336.091327 199.56375 336.091327 
C 211.835666 336.091327 223.988253 333.674028 235.326025 328.977769 
C 246.663797 324.28151 256.966262 317.397622 265.643817 308.720067 
C 274.321372 300.042512 281.20526 289.740047 285.901519 278.402275 
C 290.597778 267.064503 293.015077 254.911916 293.015077 242.64 
" clip-path="url(#p7f033e91cb)" style="fill: none; stroke: #b0b0b0; stroke-width: 0.8; stroke-linecap: square"/>
     </g>
     <g id="text_11">
      <!-- 3000 -->
      <g transform="translate(285.901519 204.798038) scale(0.1 -0.1)">
       <use xlink:href="#DejaVuSans-33"/>
       <use xlink:href="#DejaVuSans-30" x="63.623047"/>
       <use xlink:href="#DejaVuSans-30" x="127.246094"/>
       <use xlink:href="#DejaVuSans-30" x="190.869141"/>
      </g>
     </g>
    </g>
    <g id="ytick_4">
     <g id="line2d_12">
      <path d="M 324.16552 242.64 
C 324.16552 226.277445 320.942453 210.073996 314.680775 194.956967 
C 308.419096 179.839938 299.24058 166.103317 287.670506 154.533244 
C 276.100433 142.96317 262.363812 133.784654 247.246783 127.522975 
C 232.129754 121.261297 215.926305 118.03823 199.56375 118.03823 
C 183.201195 118.03823 166.997746 121.261297 151.880717 127.522975 
C 136.763688 133.784654 123.027067 142.96317 111.456994 154.533244 
C 99.88692 166.103317 90.708404 179.839938 84.446725 194.956967 
C 78.185047 210.073996 74.96198 226.277445 74.96198 242.64 
C 74.96198 259.002555 78.185047 275.206004 84.446725 290.323033 
C 90.708404 305.440062 99.88692 319.176683 111.456994 330.746756 
C 123.027067 342.31683 136.763688 351.495346 151.880717 357.757025 
C 166.997746 364.018703 183.201195 367.24177 199.56375 367.24177 
C 215.926305 367.24177 232.129754 364.018703 247.246783 357.757025 
C 262.363812 351.495346 276.100433 342.31683 287.670506 330.746756 
C 299.24058 319.176683 308.419096 305.440062 314.680775 290.323033 
C 320.942453 275.206004 324.16552 259.002555 324.16552 242.64 
" clip-path="url(#p7f033e91cb)" style="fill: none; stroke: #b0b0b0; stroke-width: 0.8; stroke-linecap: square"/>
     </g>
     <g id="text_12">
      <!-- 4000 -->
      <g transform="translate(314.680775 192.87728) scale(0.1 -0.1)">
       <use xlink:href="#DejaVuSans-34"/>
       <use xlink:href="#DejaVuSans-30" x="63.623047"/>
       <use xlink:href="#DejaVuSans-30" x="127.246094"/>
       <use xlink:href="#DejaVuSans-30" x="190.869141"/>
      </g>
     </g>
    </g>
    <g id="ytick_5">
     <g id="line2d_13">
      <path d="M 355.315962 242.64 
C 355.315962 222.186807 351.287129 201.932495 343.460031 183.036209 
C 335.632933 164.139922 324.159787 146.969146 309.697196 132.506554 
C 295.234604 118.043963 278.063828 106.570817 259.167541 98.743719 
C 240.271255 90.916621 220.016943 86.887788 199.56375 86.887788 
C 179.110557 86.887788 158.856245 90.916621 139.959959 98.743719 
C 121.063672 106.570817 103.892896 118.043963 89.430304 132.506554 
C 74.967713 146.969146 63.494567 164.139922 55.667469 183.036209 
C 47.840371 201.932495 43.811538 222.186807 43.811538 242.64 
C 43.811538 263.093193 47.840371 283.347505 55.667469 302.243791 
C 63.494567 321.140078 74.967713 338.310854 89.430304 352.773446 
C 103.892896 367.236037 121.063672 378.709183 139.959959 386.536281 
C 158.856245 394.363379 179.110557 398.392212 199.56375 398.392212 
C 220.016943 398.392212 240.271255 394.363379 259.167541 386.536281 
C 278.063828 378.709183 295.234604 367.236037 309.697196 352.773446 
C 324.159787 338.310854 335.632933 321.140078 343.460031 302.243791 
C 351.287129 283.347505 355.315962 263.093193 355.315962 242.64 
" clip-path="url(#p7f033e91cb)" style="fill: none; stroke: #b0b0b0; stroke-width: 0.8; stroke-linecap: square"/>
     </g>
     <g id="text_13">
      <!-- 5000 -->
      <g transform="translate(343.460031 180.956521) scale(0.1 -0.1)">
       <use xlink:href="#DejaVuSans-35"/>
       <use xlink:href="#DejaVuSans-30" x="63.623047"/>
       <use xlink:href="#DejaVuSans-30" x="127.246094"/>
       <use xlink:href="#DejaVuSans-30" x="190.869141"/>
      </g>
     </g>
    </g>
   </g>
   <g id="line2d_14">
    <path d="M 199.56375 242.64 
L 295.545127 231.207736 
L 295.154376 219.540849 
L 291.605419 208.451406 
L 287.664051 197.421259 
L 281.309974 187.579775 
L 274.672397 177.911474 
L 266.804959 169.137702 
L 257.875731 161.371755 
L 246.260437 157.937056 
L 236.453123 151.680741 
L 224.557598 151.171376 
L 213.536289 149.042138 
L 202.367178 148.077653 
L 191.547791 152.722614 
L 181.21306 155.460142 
L 171.769088 160.426157 
L 162.414642 164.656164 
L 155.098247 172.204996 
L 145.764731 176.337781 
L 139.865114 184.684982 
L 132.389687 191.358622 
L 127.627442 200.15452 
L 125.58759 210.053357 
L 121.507888 218.804032 
L 119.941761 228.329984 
L 118.43498 237.825425 
L 115.822938 247.609586 
L 120.248353 256.894914 
L 122.520826 266.166646 
L 123.763129 276.030321 
L 132.482204 282.258264 
L 136.227497 290.991554 
L 142.614247 297.92618 
L 149.611724 304.201163 
L 156.727873 310.493617 
L 165.134176 314.914958 
L 173.634703 319.335542 
L 182.919803 321.711521 
L 192.181212 325.452113 
L 202.040404 326.179933 
L 212.257696 327.672949 
L 221.831594 324.132414 
L 230.927327 319.974134 
L 240.63578 317.140399 
L 250.357462 313.430184 
L 257.995057 306.512072 
L 267.027031 300.77976 
L 274.127468 292.862443 
L 281.816563 284.857434 
L 289.999362 276.232029 
L 292.580666 265.117223 
L 292.451947 253.703838 
L 296.223573 242.64 
" clip-path="url(#p7f033e91cb)" style="fill: none; stroke-dasharray: 5.55,2.4; stroke-dashoffset: 0; stroke: #1f77b4; stroke-width: 1.5"/>
   </g>
   <g id="line2d_15">
    <path d="M 296.223573 242.64 
L 303.56017 229.767263 
L 294.937654 218.661741 
L 288.04536 208.37595 
L 286.404808 196.027725 
L 280.834816 185.137191 
L 273.201508 175.547164 
L 259.556266 172.66162 
L 252.898537 162.213411 
L 242.739803 156.019833 
L 232.922774 148.111386 
L 223.702957 132.680748 
L 212.452534 104.370743 
L 194.77959 84.312265 
L 175.856493 89.26996 
L 162.927463 113.541675 
L 152.1703 130.440759 
L 146.943481 151.335772 
L 143.514194 168.291683 
L 139.398621 180.485081 
L 132.38876 188.483563 
L 127.250612 197.769829 
L 123.700616 207.645239 
L 119.768609 217.163225 
L 117.029027 227.118163 
L 116.897685 237.446806 
L 117.538806 247.601595 
L 119.351466 257.532175 
L 124.490775 266.417009 
L 123.874351 277.341546 
L 128.896008 286.262102 
L 135.373022 294.144883 
L 129.872412 314.302214 
L 145.843274 313.555441 
L 156.851274 316.356221 
L 166.754374 319.812144 
L 176.054239 324.755419 
L 186.42104 326.375218 
L 196.634632 332.648281 
L 208.026628 335.769901 
L 219.535067 334.633766 
L 232.744223 337.36347 
L 247.254973 338.877996 
L 262.816102 338.504741 
L 272.131836 327.686313 
L 281.822767 317.938397 
L 284.229789 302.840611 
L 292.902627 293.019728 
L 302.012269 282.586665 
L 308.709874 270.350585 
L 320.373495 257.879004 
L 320.022186 242.919905 
L 326.658598 227.207891 
" clip-path="url(#p7f033e91cb)" style="fill: none; stroke-dasharray: 0.5,0.825; stroke-dashoffset: 0; stroke: #ff7f0e; stroke-width: 0.5"/>
   </g>
   <g id="line2d_16">
    <path d="M 199.56375 242.64 
L 327.704404 226.778676 
L 315.873389 213.39822 
L 311.777952 199.185626 
L 301.500441 187.925085 
L 292.506725 176.878809 
L 281.329754 168.141357 
L 271.153333 159.134201 
L 254.740636 159.435605 
L 242.712011 156.075591 
L 233.1923 147.347637 
L 219.895722 150.023519 
L 208.370219 148.165312 
L 196.57565 143.75133 
L 184.502837 145.206003 
L 172.860421 148.543264 
L 161.455053 152.42148 
L 151.018713 158.406924 
L 143.157907 167.819078 
L 134.198898 175.113392 
L 127.053562 184.182329 
L 125.31838 196.570882 
L 114.422798 203.365492 
L 113.982051 215.315709 
L 111.702231 226.116382 
L 116.462436 237.419463 
L 112.75039 247.891241 
L 112.674766 258.771768 
L 114.245453 269.661894 
L 120.957775 278.678717 
L 122.269251 290.352696 
L 127.695402 300.305195 
L 137.864438 306.084172 
L 145.053267 314.598315 
L 153.852812 321.531181 
L 164.706835 324.628236 
L 173.044816 335.266911 
L 185.46468 332.468409 
L 196.635645 332.617147 
L 208.223964 337.941484 
L 219.8655 336.155833 
L 231.117124 332.718433 
L 244.862113 334.04935 
L 257.686606 330.730519 
L 270.696246 326.00387 
L 286.602062 322.313276 
L 301.239158 314.934887 
L 314.476106 304.66403 
L 327.11651 292.375296 
L 331.595839 276.160993 
L 324.823892 258.44038 
L 317.062902 242.913029 
L 313.392493 228.818688 
" clip-path="url(#p7f033e91cb)" style="fill: none; stroke-dasharray: 0.5,0.825; stroke-dashoffset: 0; stroke: #2ca02c; stroke-width: 0.5"/>
   </g>
   <g id="line2d_17">
    <path d="M 199.56375 242.64 
L 305.693271 229.503227 
L 294.937654 218.661741 
L 292.286436 206.733615 
L 287.392886 195.49737 
L 283.097997 183.535892 
L 274.537027 174.330346 
L 268.112144 162.681601 
L 257.27137 155.619366 
L 244.504644 152.479196 
L 234.685059 143.117643 
L 223.649522 132.924156 
L 210.061546 130.020962 
L 196.210605 131.670472 
L 182.556577 132.615006 
L 169.654321 137.245662 
L 160.352034 149.810193 
L 150.707627 157.867142 
L 140.870171 164.784452 
L 131.794026 172.628986 
L 125.404501 182.852857 
L 122.168576 194.616435 
L 115.695669 203.952653 
L 112.142223 214.728294 
L 107.355076 225.298838 
L 102.068157 236.515195 
L 103.111371 248.474294 
L 108.509485 259.545092 
L 107.890383 271.674663 
L 109.404736 283.975474 
L 116.437704 293.95242 
L 127.598217 300.383173 
L 134.715406 309.322259 
L 141.611094 319.142267 
L 152.072474 324.603813 
L 163.305245 327.924966 
L 174.382337 330.595137 
L 185.94769 329.39104 
L 196.507983 336.540026 
L 208.60454 342.129537 
L 221.425139 343.339992 
L 233.701947 340.097574 
L 246.189943 336.72883 
L 256.382787 328.754463 
L 264.974104 319.297794 
L 272.425019 309.335871 
L 281.107174 300.620319 
L 293.121925 293.138095 
L 299.197112 281.488981 
L 308.860837 270.388912 
L 323.216804 258.237661 
L 330.332954 242.943864 
L 327.431681 227.114022 
" clip-path="url(#p7f033e91cb)" style="fill: none; stroke-dasharray: 1,1.65; stroke-dashoffset: 0; stroke: #d62728"/>
   </g>
   <g id="line2d_18">
    <path d="M 199.56375 242.64 
L 324.300815 227.17545 
L 316.556825 213.178218 
L 306.438019 201.182076 
L 294.023095 191.844298 
L 291.629842 177.365388 
L 278.942964 170.147045 
L 271.404443 158.611058 
L 258.751007 153.087255 
L 248.155585 144.727629 
L 238.605763 131.321225 
L 223.872173 130.772736 
L 209.639142 131.765162 
L 196.117788 137.376743 
L 183.720659 141.954605 
L 173.231567 150.866894 
L 160.101245 150.018098 
L 154.136242 164.412682 
L 142.690239 167.743241 
L 134.34236 175.755774 
L 128.652196 185.922857 
L 120.673693 194.13206 
L 117.883954 205.383258 
L 107.769313 213.781985 
L 101.300644 224.632617 
L 105.615948 237.19453 
L 109.327632 248.554388 
L 114.412528 258.910124 
L 112.169829 270.841555 
L 121.133147 279.132701 
L 122.072317 291.098194 
L 132.274138 297.298538 
L 137.071921 307.700885 
L 145.085231 315.51902 
L 154.836372 321.018762 
L 165.299273 324.776341 
L 174.786956 331.518695 
L 186.127061 332.443888 
L 197.211546 336.06172 
L 208.973951 338.18337 
L 220.842451 337.120184 
L 232.136675 333.315261 
L 243.565598 329.64724 
L 258.765493 330.760653 
L 270.158258 323.959878 
L 280.808262 315.718856 
L 286.627576 303.385256 
L 289.914034 290.34996 
L 302.058741 281.511223 
" clip-path="url(#p7f033e91cb)" style="fill: none; stroke-dasharray: 2,3.3; stroke-dashoffset: 0; stroke: #9467bd; stroke-width: 2"/>
   </g>
   <g id="patch_3">
    <path d="M 365.88375 242.64 
C 365.88375 220.799058 361.581561 199.170491 353.223394 178.992092 
C 344.865227 158.813692 332.613628 140.477879 317.16975 125.034 
C 301.725871 109.590122 283.390058 97.338523 263.211658 88.980356 
C 243.033259 80.622189 221.404692 76.32 199.56375 76.32 
C 177.722808 76.32 156.094241 80.622189 135.915842 88.980356 
C 115.737442 97.338523 97.401629 109.590122 81.95775 125.034 
C 66.513872 140.477879 54.262273 158.813692 45.904106 178.992092 
C 37.545939 199.170491 33.24375 220.799058 33.24375 242.64 
C 33.24375 264.480942 37.545939 286.109509 45.904106 306.287908 
C 54.262273 326.466308 66.513872 344.802121 81.95775 360.246 
C 97.401629 375.689878 115.737442 387.941477 135.915842 396.299644 
C 156.094241 404.657811 177.722808 408.96 199.56375 408.96 
C 221.404692 408.96 243.033259 404.657811 263.211658 396.299644 
C 283.390058 387.941477 301.725871 375.689878 317.16975 360.246 
C 332.613628 344.802121 344.865227 326.466308 353.223394 306.287908 
C 361.581561 286.109509 365.88375 264.480942 365.88375 242.64 
" style="fill: none; stroke: #000000; stroke-width: 0.8; stroke-linejoin: miter; stroke-linecap: square"/>
   </g>
   <g id="text_14">
    <!-- Totaal mannen en vrouwen, Totaal leeftijd, median -->
    <g transform="translate(73.272344 37.056) scale(0.1 -0.1)">
     <defs>
      <path id="DejaVuSans-54" d="M -19 4666 
L 3928 4666 
L 3928 4134 
L 2272 4134 
L 2272 0 
L 1638 0 
L 1638 4134 
L -19 4134 
L -19 4666 
z
" transform="scale(0.015625)"/>
      <path id="DejaVuSans-6f" d="M 1959 3097 
Q 1497 3097 1228 2736 
Q 959 2375 959 1747 
Q 959 1119 1226 758 
Q 1494 397 1959 397 
Q 2419 397 2687 759 
Q 2956 1122 2956 1747 
Q 2956 2369 2687 2733 
Q 2419 3097 1959 3097 
z
M 1959 3584 
Q 2709 3584 3137 3096 
Q 3566 2609 3566 1747 
Q 3566 888 3137 398 
Q 2709 -91 1959 -91 
Q 1206 -91 779 398 
Q 353 888 353 1747 
Q 353 2609 779 3096 
Q 1206 3584 1959 3584 
z
" transform="scale(0.015625)"/>
      <path id="DejaVuSans-74" d="M 1172 4494 
L 1172 3500 
L 2356 3500 
L 2356 3053 
L 1172 3053 
L 1172 1153 
Q 1172 725 1289 603 
Q 1406 481 1766 481 
L 2356 481 
L 2356 0 
L 1766 0 
Q 1100 0 847 248 
Q 594 497 594 1153 
L 594 3053 
L 172 3053 
L 172 3500 
L 594 3500 
L 594 4494 
L 1172 4494 
z
" transform="scale(0.015625)"/>
      <path id="DejaVuSans-61" d="M 2194 1759 
Q 1497 1759 1228 1600 
Q 959 1441 959 1056 
Q 959 750 1161 570 
Q 1363 391 1709 391 
Q 2188 391 2477 730 
Q 2766 1069 2766 1631 
L 2766 1759 
L 2194 1759 
z
M 3341 1997 
L 3341 0 
L 2766 0 
L 2766 531 
Q 2569 213 2275 61 
Q 1981 -91 1556 -91 
Q 1019 -91 701 211 
Q 384 513 384 1019 
Q 384 1609 779 1909 
Q 1175 2209 1959 2209 
L 2766 2209 
L 2766 2266 
Q 2766 2663 2505 2880 
Q 2244 3097 1772 3097 
Q 1472 3097 1187 3025 
Q 903 2953 641 2809 
L 641 3341 
Q 956 3463 1253 3523 
Q 1550 3584 1831 3584 
Q 2591 3584 2966 3190 
Q 3341 2797 3341 1997 
z
" transform="scale(0.015625)"/>
      <path id="DejaVuSans-6c" d="M 603 4863 
L 1178 4863 
L 1178 0 
L 603 0 
L 603 4863 
z
" transform="scale(0.015625)"/>
      <path id="DejaVuSans-20" transform="scale(0.015625)"/>
      <path id="DejaVuSans-6d" d="M 3328 2828 
Q 3544 3216 3844 3400 
Q 4144 3584 4550 3584 
Q 5097 3584 5394 3201 
Q 5691 2819 5691 2113 
L 5691 0 
L 5113 0 
L 5113 2094 
Q 5113 2597 4934 2840 
Q 4756 3084 4391 3084 
Q 3944 3084 3684 2787 
Q 3425 2491 3425 1978 
L 3425 0 
L 2847 0 
L 2847 2094 
Q 2847 2600 2669 2842 
Q 2491 3084 2119 3084 
Q 1678 3084 1418 2786 
Q 1159 2488 1159 1978 
L 1159 0 
L 581 0 
L 581 3500 
L 1159 3500 
L 1159 2956 
Q 1356 3278 1631 3431 
Q 1906 3584 2284 3584 
Q 2666 3584 2933 3390 
Q 3200 3197 3328 2828 
z
" transform="scale(0.015625)"/>
      <path id="DejaVuSans-6e" d="M 3513 2113 
L 3513 0 
L 2938 0 
L 2938 2094 
Q 2938 2591 2744 2837 
Q 2550 3084 2163 3084 
Q 1697 3084 1428 2787 
Q 1159 2491 1159 1978 
L 1159 0 
L 581 0 
L 581 3500 
L 1159 3500 
L 1159 2956 
Q 1366 3272 1645 3428 
Q 1925 3584 2291 3584 
Q 2894 3584 3203 3211 
Q 3513 2838 3513 2113 
z
" transform="scale(0.015625)"/>
      <path id="DejaVuSans-65" d="M 3597 1894 
L 3597 1613 
L 953 1613 
Q 991 1019 1311 708 
Q 1631 397 2203 397 
Q 2534 397 2845 478 
Q 3156 559 3463 722 
L 3463 178 
Q 3153 47 2828 -22 
Q 2503 -91 2169 -91 
Q 1331 -91 842 396 
Q 353 884 353 1716 
Q 353 2575 817 3079 
Q 1281 3584 2069 3584 
Q 2775 3584 3186 3129 
Q 3597 2675 3597 1894 
z
M 3022 2063 
Q 3016 2534 2758 2815 
Q 2500 3097 2075 3097 
Q 1594 3097 1305 2825 
Q 1016 2553 972 2059 
L 3022 2063 
z
" transform="scale(0.015625)"/>
      <path id="DejaVuSans-76" d="M 191 3500 
L 800 3500 
L 1894 563 
L 2988 3500 
L 3597 3500 
L 2284 0 
L 1503 0 
L 191 3500 
z
" transform="scale(0.015625)"/>
      <path id="DejaVuSans-72" d="M 2631 2963 
Q 2534 3019 2420 3045 
Q 2306 3072 2169 3072 
Q 1681 3072 1420 2755 
Q 1159 2438 1159 1844 
L 1159 0 
L 581 0 
L 581 3500 
L 1159 3500 
L 1159 2956 
Q 1341 3275 1631 3429 
Q 1922 3584 2338 3584 
Q 2397 3584 2469 3576 
Q 2541 3569 2628 3553 
L 2631 2963 
z
" transform="scale(0.015625)"/>
      <path id="DejaVuSans-75" d="M 544 1381 
L 544 3500 
L 1119 3500 
L 1119 1403 
Q 1119 906 1312 657 
Q 1506 409 1894 409 
Q 2359 409 2629 706 
Q 2900 1003 2900 1516 
L 2900 3500 
L 3475 3500 
L 3475 0 
L 2900 0 
L 2900 538 
Q 2691 219 2414 64 
Q 2138 -91 1772 -91 
Q 1169 -91 856 284 
Q 544 659 544 1381 
z
M 1991 3584 
L 1991 3584 
z
" transform="scale(0.015625)"/>
      <path id="DejaVuSans-77" d="M 269 3500 
L 844 3500 
L 1563 769 
L 2278 3500 
L 2956 3500 
L 3675 769 
L 4391 3500 
L 4966 3500 
L 4050 0 
L 3372 0 
L 2619 2869 
L 1863 0 
L 1184 0 
L 269 3500 
z
" transform="scale(0.015625)"/>
      <path id="DejaVuSans-2c" d="M 750 794 
L 1409 794 
L 1409 256 
L 897 -744 
L 494 -744 
L 750 256 
L 750 794 
z
" transform="scale(0.015625)"/>
      <path id="DejaVuSans-66" d="M 2375 4863 
L 2375 4384 
L 1825 4384 
Q 1516 4384 1395 4259 
Q 1275 4134 1275 3809 
L 1275 3500 
L 2222 3500 
L 2222 3053 
L 1275 3053 
L 1275 0 
L 697 0 
L 697 3053 
L 147 3053 
L 147 3500 
L 697 3500 
L 697 3744 
Q 697 4328 969 4595 
Q 1241 4863 1831 4863 
L 2375 4863 
z
" transform="scale(0.015625)"/>
      <path id="DejaVuSans-69" d="M 603 3500 
L 1178 3500 
L 1178 0 
L 603 0 
L 603 3500 
z
M 603 4863 
L 1178 4863 
L 1178 4134 
L 603 4134 
L 603 4863 
z
" transform="scale(0.015625)"/>
      <path id="DejaVuSans-6a" d="M 603 3500 
L 1178 3500 
L 1178 -63 
Q 1178 -731 923 -1031 
Q 669 -1331 103 -1331 
L -116 -1331 
L -116 -844 
L 38 -844 
Q 366 -844 484 -692 
Q 603 -541 603 -63 
L 603 3500 
z
M 603 4863 
L 1178 4863 
L 1178 4134 
L 603 4134 
L 603 4863 
z
" transform="scale(0.015625)"/>
      <path id="DejaVuSans-64" d="M 2906 2969 
L 2906 4863 
L 3481 4863 
L 3481 0 
L 2906 0 
L 2906 525 
Q 2725 213 2448 61 
Q 2172 -91 1784 -91 
Q 1150 -91 751 415 
Q 353 922 353 1747 
Q 353 2572 751 3078 
Q 1150 3584 1784 3584 
Q 2172 3584 2448 3432 
Q 2725 3281 2906 2969 
z
M 947 1747 
Q 947 1113 1208 752 
Q 1469 391 1925 391 
Q 2381 391 2643 752 
Q 2906 1113 2906 1747 
Q 2906 2381 2643 2742 
Q 2381 3103 1925 3103 
Q 1469 3103 1208 2742 
Q 947 2381 947 1747 
z
" transform="scale(0.015625)"/>
     </defs>
     <use xlink:href="#DejaVuSans-54"/>
     <use xlink:href="#DejaVuSans-6f" x="44.083984"/>
     <use xlink:href="#DejaVuSans-74" x="105.265625"/>
     <use xlink:href="#DejaVuSans-61" x="144.474609"/>
     <use xlink:href="#DejaVuSans-61" x="205.753906"/>
     <use xlink:href="#DejaVuSans-6c" x="267.033203"/>
     <use xlink:href="#DejaVuSans-20" x="294.816406"/>
     <use xlink:href="#DejaVuSans-6d" x="326.603516"/>
     <use xlink:href="#DejaVuSans-61" x="424.015625"/>
     <use xlink:href="#DejaVuSans-6e" x="485.294922"/>
     <use xlink:href="#DejaVuSans-6e" x="548.673828"/>
     <use xlink:href="#DejaVuSans-65" x="612.052734"/>
     <use xlink:href="#DejaVuSans-6e" x="673.576172"/>
     <use xlink:href="#DejaVuSans-20" x="736.955078"/>
     <use xlink:href="#DejaVuSans-65" x="768.742188"/>
     <use xlink:href="#DejaVuSans-6e" x="830.265625"/>
     <use xlink:href="#DejaVuSans-20" x="893.644531"/>
     <use xlink:href="#DejaVuSans-76" x="925.431641"/>
     <use xlink:href="#DejaVuSans-72" x="984.611328"/>
     <use xlink:href="#DejaVuSans-6f" x="1023.474609"/>
     <use xlink:href="#DejaVuSans-75" x="1084.65625"/>
     <use xlink:href="#DejaVuSans-77" x="1148.035156"/>
     <use xlink:href="#DejaVuSans-65" x="1229.822266"/>
     <use xlink:href="#DejaVuSans-6e" x="1291.345703"/>
     <use xlink:href="#DejaVuSans-2c" x="1354.724609"/>
     <use xlink:href="#DejaVuSans-20" x="1386.511719"/>
     <use xlink:href="#DejaVuSans-54" x="1418.298828"/>
     <use xlink:href="#DejaVuSans-6f" x="1462.382812"/>
     <use xlink:href="#DejaVuSans-74" x="1523.564453"/>
     <use xlink:href="#DejaVuSans-61" x="1562.773438"/>
     <use xlink:href="#DejaVuSans-61" x="1624.052734"/>
     <use xlink:href="#DejaVuSans-6c" x="1685.332031"/>
     <use xlink:href="#DejaVuSans-20" x="1713.115234"/>
     <use xlink:href="#DejaVuSans-6c" x="1744.902344"/>
     <use xlink:href="#DejaVuSans-65" x="1772.685547"/>
     <use xlink:href="#DejaVuSans-65" x="1834.208984"/>
     <use xlink:href="#DejaVuSans-66" x="1895.732422"/>
     <use xlink:href="#DejaVuSans-74" x="1929.1875"/>
     <use xlink:href="#DejaVuSans-69" x="1968.396484"/>
     <use xlink:href="#DejaVuSans-6a" x="1996.179688"/>
     <use xlink:href="#DejaVuSans-64" x="2023.962891"/>
     <use xlink:href="#DejaVuSans-2c" x="2087.439453"/>
     <use xlink:href="#DejaVuSans-20" x="2119.226562"/>
     <use xlink:href="#DejaVuSans-6d" x="2151.013672"/>
     <use xlink:href="#DejaVuSans-65" x="2248.425781"/>
     <use xlink:href="#DejaVuSans-64" x="2309.949219"/>
     <use xlink:href="#DejaVuSans-69" x="2373.425781"/>
     <use xlink:href="#DejaVuSans-61" x="2401.208984"/>
     <use xlink:href="#DejaVuSans-6e" x="2462.488281"/>
    </g>
   </g>
   <g id="legend_1">
    <g id="patch_4">
     <path d="M 285.09625 403.96 
L 358.88375 403.96 
Q 360.88375 403.96 360.88375 401.96 
L 360.88375 300.213125 
Q 360.88375 298.213125 358.88375 298.213125 
L 285.09625 298.213125 
Q 283.09625 298.213125 283.09625 300.213125 
L 283.09625 401.96 
Q 283.09625 403.96 285.09625 403.96 
z
" style="fill: #ffffff; opacity: 0.8; stroke: #cccccc; stroke-linejoin: miter"/>
    </g>
    <g id="line2d_19">
     <path d="M 287.09625 306.311563 
L 297.09625 306.311563 
L 307.09625 306.311563 
" style="fill: none; stroke-dasharray: 5.55,2.4; stroke-dashoffset: 0; stroke: #1f77b4; stroke-width: 1.5"/>
    </g>
    <g id="text_15">
     <!-- Median -->
     <g transform="translate(315.09625 309.811563) scale(0.1 -0.1)">
      <defs>
       <path id="DejaVuSans-4d" d="M 628 4666 
L 1569 4666 
L 2759 1491 
L 3956 4666 
L 4897 4666 
L 4897 0 
L 4281 0 
L 4281 4097 
L 3078 897 
L 2444 897 
L 1241 4097 
L 1241 0 
L 628 0 
L 628 4666 
z
" transform="scale(0.015625)"/>
      </defs>
      <use xlink:href="#DejaVuSans-4d"/>
      <use xlink:href="#DejaVuSans-65" x="86.279297"/>
      <use xlink:href="#DejaVuSans-64" x="147.802734"/>
      <use xlink:href="#DejaVuSans-69" x="211.279297"/>
      <use xlink:href="#DejaVuSans-61" x="239.0625"/>
      <use xlink:href="#DejaVuSans-6e" x="300.341797"/>
     </g>
    </g>
    <g id="patch_5">
     <path d="M 287.09625 324.489688 
L 307.09625 324.489688 
L 307.09625 317.489688 
L 287.09625 317.489688 
z
" style="fill: #1f77b4; fill-opacity: 0.3; stroke: #1f77b4; stroke-opacity: 0.3; stroke-linejoin: miter"/>
    </g>
    <g id="text_16">
     <!-- SD -->
     <g transform="translate(315.09625 324.489688) scale(0.1 -0.1)">
      <defs>
       <path id="DejaVuSans-53" d="M 3425 4513 
L 3425 3897 
Q 3066 4069 2747 4153 
Q 2428 4238 2131 4238 
Q 1616 4238 1336 4038 
Q 1056 3838 1056 3469 
Q 1056 3159 1242 3001 
Q 1428 2844 1947 2747 
L 2328 2669 
Q 3034 2534 3370 2195 
Q 3706 1856 3706 1288 
Q 3706 609 3251 259 
Q 2797 -91 1919 -91 
Q 1588 -91 1214 -16 
Q 841 59 441 206 
L 441 856 
Q 825 641 1194 531 
Q 1563 422 1919 422 
Q 2459 422 2753 634 
Q 3047 847 3047 1241 
Q 3047 1584 2836 1778 
Q 2625 1972 2144 2069 
L 1759 2144 
Q 1053 2284 737 2584 
Q 422 2884 422 3419 
Q 422 4038 858 4394 
Q 1294 4750 2059 4750 
Q 2388 4750 2728 4690 
Q 3069 4631 3425 4513 
z
" transform="scale(0.015625)"/>
       <path id="DejaVuSans-44" d="M 1259 4147 
L 1259 519 
L 2022 519 
Q 2988 519 3436 956 
Q 3884 1394 3884 2338 
Q 3884 3275 3436 3711 
Q 2988 4147 2022 4147 
L 1259 4147 
z
M 628 4666 
L 1925 4666 
Q 3281 4666 3915 4102 
Q 4550 3538 4550 2338 
Q 4550 1131 3912 565 
Q 3275 0 1925 0 
L 628 0 
L 628 4666 
z
" transform="scale(0.015625)"/>
      </defs>
      <use xlink:href="#DejaVuSans-53"/>
      <use xlink:href="#DejaVuSans-44" x="63.476562"/>
     </g>
    </g>
    <g id="patch_6">
     <path d="M 287.09625 339.167813 
L 307.09625 339.167813 
L 307.09625 332.167813 
L 287.09625 332.167813 
z
" style="fill: #1f77b4; fill-opacity: 0.2"/>
    </g>
    <g id="text_17">
     <!-- Min/Max -->
     <g transform="translate(315.09625 339.167813) scale(0.1 -0.1)">
      <defs>
       <path id="DejaVuSans-2f" d="M 1625 4666 
L 2156 4666 
L 531 -594 
L 0 -594 
L 1625 4666 
z
" transform="scale(0.015625)"/>
       <path id="DejaVuSans-78" d="M 3513 3500 
L 2247 1797 
L 3578 0 
L 2900 0 
L 1881 1375 
L 863 0 
L 184 0 
L 1544 1831 
L 300 3500 
L 978 3500 
L 1906 2253 
L 2834 3500 
L 3513 3500 
z
" transform="scale(0.015625)"/>
      </defs>
      <use xlink:href="#DejaVuSans-4d"/>
      <use xlink:href="#DejaVuSans-69" x="86.279297"/>
      <use xlink:href="#DejaVuSans-6e" x="114.0625"/>
      <use xlink:href="#DejaVuSans-2f" x="177.441406"/>
      <use xlink:href="#DejaVuSans-4d" x="211.132812"/>
      <use xlink:href="#DejaVuSans-61" x="297.412109"/>
      <use xlink:href="#DejaVuSans-78" x="358.691406"/>
     </g>
    </g>
    <g id="line2d_20">
     <path d="M 287.09625 350.345937 
L 297.09625 350.345937 
L 307.09625 350.345937 
" style="fill: none; stroke-dasharray: 0.5,0.825; stroke-dashoffset: 0; stroke: #ff7f0e; stroke-width: 0.5"/>
    </g>
    <g id="text_18">
     <!-- 2020 -->
     <g transform="translate(315.09625 353.845937) scale(0.1 -0.1)">
      <use xlink:href="#DejaVuSans-32"/>
      <use xlink:href="#DejaVuSans-30" x="63.623047"/>
      <use xlink:href="#DejaVuSans-32" x="127.246094"/>
      <use xlink:href="#DejaVuSans-30" x="190.869141"/>
     </g>
    </g>
    <g id="line2d_21">
     <path d="M 287.09625 365.024063 
L 297.09625 365.024063 
L 307.09625 365.024063 
" style="fill: none; stroke-dasharray: 0.5,0.825; stroke-dashoffset: 0; stroke: #2ca02c; stroke-width: 0.5"/>
    </g>
    <g id="text_19">
     <!-- 2021 -->
     <g transform="translate(315.09625 368.524063) scale(0.1 -0.1)">
      <use xlink:href="#DejaVuSans-32"/>
      <use xlink:href="#DejaVuSans-30" x="63.623047"/>
      <use xlink:href="#DejaVuSans-32" x="127.246094"/>
      <use xlink:href="#DejaVuSans-31" x="190.869141"/>
     </g>
    </g>
    <g id="line2d_22">
     <path d="M 287.09625 379.702188 
L 297.09625 379.702188 
L 307.09625 379.702188 
" style="fill: none; stroke-dasharray: 1,1.65; stroke-dashoffset: 0; stroke: #d62728"/>
    </g>
    <g id="text_20">
     <!-- 2022 -->
     <g transform="translate(315.09625 383.202188) scale(0.1 -0.1)">
      <use xlink:href="#DejaVuSans-32"/>
      <use xlink:href="#DejaVuSans-30" x="63.623047"/>
      <use xlink:href="#DejaVuSans-32" x="127.246094"/>
      <use xlink:href="#DejaVuSans-32" x="190.869141"/>
     </g>
    </g>
    <g id="line2d_23">
     <path d="M 287.09625 394.380313 
L 297.09625 394.380313 
L 307.09625 394.380313 
" style="fill: none; stroke-dasharray: 2,3.3; stroke-dashoffset: 0; stroke: #9467bd; stroke-width: 2"/>
    </g>
    <g id="text_21">
     <!-- 2023 -->
     <g transform="translate(315.09625 397.880313) scale(0.1 -0.1)">
      <use xlink:href="#DejaVuSans-32"/>
      <use xlink:href="#DejaVuSans-30" x="63.623047"/>
      <use xlink:href="#DejaVuSans-32" x="127.246094"/>
      <use xlink:href="#DejaVuSans-33" x="190.869141"/>
     </g>
    </g>
   </g>
  </g>
  <g id="text_22">
   <!-- Deaths per week in the Netherlands (since 2010) -->
   <g transform="translate(19.955938 17.837812) scale(0.14 -0.14)">
    <defs>
     <path id="DejaVuSans-68" d="M 3513 2113 
L 3513 0 
L 2938 0 
L 2938 2094 
Q 2938 2591 2744 2837 
Q 2550 3084 2163 3084 
Q 1697 3084 1428 2787 
Q 1159 2491 1159 1978 
L 1159 0 
L 581 0 
L 581 4863 
L 1159 4863 
L 1159 2956 
Q 1366 3272 1645 3428 
Q 1925 3584 2291 3584 
Q 2894 3584 3203 3211 
Q 3513 2838 3513 2113 
z
" transform="scale(0.015625)"/>
     <path id="DejaVuSans-73" d="M 2834 3397 
L 2834 2853 
Q 2591 2978 2328 3040 
Q 2066 3103 1784 3103 
Q 1356 3103 1142 2972 
Q 928 2841 928 2578 
Q 928 2378 1081 2264 
Q 1234 2150 1697 2047 
L 1894 2003 
Q 2506 1872 2764 1633 
Q 3022 1394 3022 966 
Q 3022 478 2636 193 
Q 2250 -91 1575 -91 
Q 1294 -91 989 -36 
Q 684 19 347 128 
L 347 722 
Q 666 556 975 473 
Q 1284 391 1588 391 
Q 1994 391 2212 530 
Q 2431 669 2431 922 
Q 2431 1156 2273 1281 
Q 2116 1406 1581 1522 
L 1381 1569 
Q 847 1681 609 1914 
Q 372 2147 372 2553 
Q 372 3047 722 3315 
Q 1072 3584 1716 3584 
Q 2034 3584 2315 3537 
Q 2597 3491 2834 3397 
z
" transform="scale(0.015625)"/>
     <path id="DejaVuSans-70" d="M 1159 525 
L 1159 -1331 
L 581 -1331 
L 581 3500 
L 1159 3500 
L 1159 2969 
Q 1341 3281 1617 3432 
Q 1894 3584 2278 3584 
Q 2916 3584 3314 3078 
Q 3713 2572 3713 1747 
Q 3713 922 3314 415 
Q 2916 -91 2278 -91 
Q 1894 -91 1617 61 
Q 1341 213 1159 525 
z
M 3116 1747 
Q 3116 2381 2855 2742 
Q 2594 3103 2138 3103 
Q 1681 3103 1420 2742 
Q 1159 2381 1159 1747 
Q 1159 1113 1420 752 
Q 1681 391 2138 391 
Q 2594 391 2855 752 
Q 3116 1113 3116 1747 
z
" transform="scale(0.015625)"/>
     <path id="DejaVuSans-6b" d="M 581 4863 
L 1159 4863 
L 1159 1991 
L 2875 3500 
L 3609 3500 
L 1753 1863 
L 3688 0 
L 2938 0 
L 1159 1709 
L 1159 0 
L 581 0 
L 581 4863 
z
" transform="scale(0.015625)"/>
     <path id="DejaVuSans-4e" d="M 628 4666 
L 1478 4666 
L 3547 763 
L 3547 4666 
L 4159 4666 
L 4159 0 
L 3309 0 
L 1241 3903 
L 1241 0 
L 628 0 
L 628 4666 
z
" transform="scale(0.015625)"/>
     <path id="DejaVuSans-28" d="M 1984 4856 
Q 1566 4138 1362 3434 
Q 1159 2731 1159 2009 
Q 1159 1288 1364 580 
Q 1569 -128 1984 -844 
L 1484 -844 
Q 1016 -109 783 600 
Q 550 1309 550 2009 
Q 550 2706 781 3412 
Q 1013 4119 1484 4856 
L 1984 4856 
z
" transform="scale(0.015625)"/>
     <path id="DejaVuSans-63" d="M 3122 3366 
L 3122 2828 
Q 2878 2963 2633 3030 
Q 2388 3097 2138 3097 
Q 1578 3097 1268 2742 
Q 959 2388 959 1747 
Q 959 1106 1268 751 
Q 1578 397 2138 397 
Q 2388 397 2633 464 
Q 2878 531 3122 666 
L 3122 134 
Q 2881 22 2623 -34 
Q 2366 -91 2075 -91 
Q 1284 -91 818 406 
Q 353 903 353 1747 
Q 353 2603 823 3093 
Q 1294 3584 2113 3584 
Q 2378 3584 2631 3529 
Q 2884 3475 3122 3366 
z
" transform="scale(0.015625)"/>
     <path id="DejaVuSans-29" d="M 513 4856 
L 1013 4856 
Q 1481 4119 1714 3412 
Q 1947 2706 1947 2009 
Q 1947 1309 1714 600 
Q 1481 -109 1013 -844 
L 513 -844 
Q 928 -128 1133 580 
Q 1338 1288 1338 2009 
Q 1338 2731 1133 3434 
Q 928 4138 513 4856 
z
" transform="scale(0.015625)"/>
    </defs>
    <use xlink:href="#DejaVuSans-44"/>
    <use xlink:href="#DejaVuSans-65" x="77.001953"/>
    <use xlink:href="#DejaVuSans-61" x="138.525391"/>
    <use xlink:href="#DejaVuSans-74" x="199.804688"/>
    <use xlink:href="#DejaVuSans-68" x="239.013672"/>
    <use xlink:href="#DejaVuSans-73" x="302.392578"/>
    <use xlink:href="#DejaVuSans-20" x="354.492188"/>
    <use xlink:href="#DejaVuSans-70" x="386.279297"/>
    <use xlink:href="#DejaVuSans-65" x="449.755859"/>
    <use xlink:href="#DejaVuSans-72" x="511.279297"/>
    <use xlink:href="#DejaVuSans-20" x="552.392578"/>
    <use xlink:href="#DejaVuSans-77" x="584.179688"/>
    <use xlink:href="#DejaVuSans-65" x="665.966797"/>
    <use xlink:href="#DejaVuSans-65" x="727.490234"/>
    <use xlink:href="#DejaVuSans-6b" x="789.013672"/>
    <use xlink:href="#DejaVuSans-20" x="846.923828"/>
    <use xlink:href="#DejaVuSans-69" x="878.710938"/>
    <use xlink:href="#DejaVuSans-6e" x="906.494141"/>
    <use xlink:href="#DejaVuSans-20" x="969.873047"/>
    <use xlink:href="#DejaVuSans-74" x="1001.660156"/>
    <use xlink:href="#DejaVuSans-68" x="1040.869141"/>
    <use xlink:href="#DejaVuSans-65" x="1104.248047"/>
    <use xlink:href="#DejaVuSans-20" x="1165.771484"/>
    <use xlink:href="#DejaVuSans-4e" x="1197.558594"/>
    <use xlink:href="#DejaVuSans-65" x="1272.363281"/>
    <use xlink:href="#DejaVuSans-74" x="1333.886719"/>
    <use xlink:href="#DejaVuSans-68" x="1373.095703"/>
    <use xlink:href="#DejaVuSans-65" x="1436.474609"/>
    <use xlink:href="#DejaVuSans-72" x="1497.998047"/>
    <use xlink:href="#DejaVuSans-6c" x="1539.111328"/>
    <use xlink:href="#DejaVuSans-61" x="1566.894531"/>
    <use xlink:href="#DejaVuSans-6e" x="1628.173828"/>
    <use xlink:href="#DejaVuSans-64" x="1691.552734"/>
    <use xlink:href="#DejaVuSans-73" x="1755.029297"/>
    <use xlink:href="#DejaVuSans-20" x="1807.128906"/>
    <use xlink:href="#DejaVuSans-28" x="1838.916016"/>
    <use xlink:href="#DejaVuSans-73" x="1877.929688"/>
    <use xlink:href="#DejaVuSans-69" x="1930.029297"/>
    <use xlink:href="#DejaVuSans-6e" x="1957.8125"/>
    <use xlink:href="#DejaVuSans-63" x="2021.191406"/>
    <use xlink:href="#DejaVuSans-65" x="2076.171875"/>
    <use xlink:href="#DejaVuSans-20" x="2137.695312"/>
    <use xlink:href="#DejaVuSans-32" x="2169.482422"/>
    <use xlink:href="#DejaVuSans-30" x="2233.105469"/>
    <use xlink:href="#DejaVuSans-31" x="2296.728516"/>
    <use xlink:href="#DejaVuSans-30" x="2360.351562"/>
    <use xlink:href="#DejaVuSans-29" x="2423.974609"/>
   </g>
  </g>
 </g>
 <defs>
  <clipPath id="p7f033e91cb">
   <path d="M 365.88375 242.64 
C 365.88375 220.799058 361.581561 199.170491 353.223394 178.992092 
C 344.865227 158.813692 332.613628 140.477879 317.16975 125.034 
C 301.725871 109.590122 283.390058 97.338523 263.211658 88.980356 
C 243.033259 80.622189 221.404692 76.32 199.56375 76.32 
C 177.722808 76.32 156.094241 80.622189 135.915842 88.980356 
C 115.737442 97.338523 97.401629 109.590122 81.95775 125.034 
C 66.513872 140.477879 54.262273 158.813692 45.904106 178.992092 
C 37.545939 199.170491 33.24375 220.799058 33.24375 242.64 
C 33.24375 264.480942 37.545939 286.109509 45.904106 306.287908 
C 54.262273 326.466308 66.513872 344.802121 81.95775 360.246 
C 97.401629 375.689878 115.737442 387.941477 135.915842 396.299644 
C 156.094241 404.657811 177.722808 408.96 199.56375 408.96 
C 221.404692 408.96 243.033259 404.657811 263.211658 396.299644 
C 283.390058 387.941477 301.725871 375.689878 317.16975 360.246 
C 332.613628 344.802121 344.865227 326.466308 353.223394 306.287908 
C 361.581561 286.109509 365.88375 264.480942 365.88375 242.64 
M 199.56375 242.64 
C 199.56375 242.64 199.56375 242.64 199.56375 242.64 
C 199.56375 242.64 199.56375 242.64 199.56375 242.64 
C 199.56375 242.64 199.56375 242.64 199.56375 242.64 
C 199.56375 242.64 199.56375 242.64 199.56375 242.64 
C 199.56375 242.64 199.56375 242.64 199.56375 242.64 
C 199.56375 242.64 199.56375 242.64 199.56375 242.64 
C 199.56375 242.64 199.56375 242.64 199.56375 242.64 
C 199.56375 242.64 199.56375 242.64 199.56375 242.64 
C 199.56375 242.64 199.56375 242.64 199.56375 242.64 
C 199.56375 242.64 199.56375 242.64 199.56375 242.64 
C 199.56375 242.64 199.56375 242.64 199.56375 242.64 
C 199.56375 242.64 199.56375 242.64 199.56375 242.64 
C 199.56375 242.64 199.56375 242.64 199.56375 242.64 
C 199.56375 242.64 199.56375 242.64 199.56375 242.64 
C 199.56375 242.64 199.56375 242.64 199.56375 242.64 
C 199.56375 242.64 199.56375 242.64 199.56375 242.64 
z
"/>
  </clipPath>
 </defs>
</svg>
