<?xml version="1.0" encoding="utf-8" standalone="no"?>
<!DOCTYPE svg PUBLIC "-//W3C//DTD SVG 1.1//EN"
  "http://www.w3.org/Graphics/SVG/1.1/DTD/svg11.dtd">
<svg xmlns:xlink="http://www.w3.org/1999/xlink" width="594.945312pt" height="577.580391pt" viewBox="0 0 594.945312 577.580391" xmlns="http://www.w3.org/2000/svg" version="1.1">
 <metadata>
  <rdf:RDF xmlns:dc="http://purl.org/dc/elements/1.1/" xmlns:cc="http://creativecommons.org/ns#" xmlns:rdf="http://www.w3.org/1999/02/22-rdf-syntax-ns#">
   <cc:Work>
    <dc:type rdf:resource="http://purl.org/dc/dcmitype/StillImage"/>
    <dc:date>2026-06-19T07:10:24.642072</dc:date>
    <dc:format>image/svg+xml</dc:format>
    <dc:creator>
     <cc:Agent>
      <dc:title>Matplotlib v3.11.0, https://matplotlib.org/</dc:title>
     </cc:Agent>
    </dc:creator>
   </cc:Work>
  </rdf:RDF>
 </metadata>
 <defs>
  <style type="text/css">*{stroke-linejoin: round; stroke-linecap: butt}</style>
 </defs>
 <g id="figure_1">
  <g id="patch_1">
   <path d="M 0 577.580391 
L 594.945312 577.580391 
L 594.945312 0 
L 0 0 
z
" style="fill: #ffffff"/>
  </g>
  <g id="axes_1">
   <g id="patch_2">
    <path d="M 481.865313 321.12 
C 481.865313 291.998744 476.12906 263.160655 464.984838 236.256122 
C 453.840615 209.351589 437.50515 184.903838 416.913312 164.312 
C 396.321474 143.720162 371.873723 127.384697 344.96919 116.240475 
C 318.064658 105.096253 289.226569 99.36 260.105313 99.36 
C 230.984056 99.36 202.145967 105.096253 175.241435 116.240475 
C 148.336902 127.384697 123.889151 143.720162 103.297313 164.312 
C 82.705475 184.903838 66.37001 209.351589 55.225787 236.256122 
C 44.081565 263.160655 38.345313 291.998744 38.345313 321.12 
C 38.345313 350.241256 44.081565 379.079345 55.225787 405.983878 
C 66.37001 432.888411 82.705475 457.336162 103.297313 477.928 
C 123.889151 498.519838 148.336902 514.855303 175.241435 525.999525 
C 202.145967 537.143747 230.984056 542.88 260.105312 542.88 
C 289.226569 542.88 318.064658 537.143747 344.96919 525.999525 
C 371.873723 514.855303 396.321474 498.519838 416.913312 477.928 
C 437.50515 457.336162 453.840615 432.888411 464.984838 405.983878 
C 476.12906 379.079345 481.865313 350.241256 481.865313 321.12 
M 260.105313 321.12 
C 260.105313 321.12 260.105313 321.12 260.105313 321.12 
C 260.105313 321.12 260.105313 321.12 260.105313 321.12 
C 260.105313 321.12 260.105313 321.12 260.105313 321.12 
C 260.105313 321.12 260.105313 321.12 260.105313 321.12 
C 260.105313 321.12 260.105313 321.12 260.105313 321.12 
C 260.105313 321.12 260.105313 321.12 260.105313 321.12 
C 260.105313 321.12 260.105313 321.12 260.105313 321.12 
C 260.105313 321.12 260.105313 321.12 260.105313 321.12 
C 260.105313 321.12 260.105313 321.12 260.105313 321.12 
C 260.105313 321.12 260.105313 321.12 260.105313 321.12 
C 260.105313 321.12 260.105313 321.12 260.105313 321.12 
C 260.105313 321.12 260.105313 321.12 260.105313 321.12 
C 260.105313 321.12 260.105313 321.12 260.105313 321.12 
C 260.105313 321.12 260.105313 321.12 260.105313 321.12 
C 260.105313 321.12 260.105313 321.12 260.105313 321.12 
C 260.105313 321.12 260.105313 321.12 260.105313 321.12 
z
" style="fill: #ffffff"/>
   </g>
   <g id="FillBetweenPolyCollection_1">
    <defs>
     <path id="m9e59cde883" d="M 260.105313 -360.071873 
L 260.105313 -398.652508 
L 277.115889 -396.555094 
L 293.084366 -390.261669 
L 308.727827 -384.667425 
L 323.827571 -377.87301 
L 337.353306 -368.37343 
L 350.650347 -358.664607 
L 362.335907 -347.028794 
L 372.217741 -333.846013 
L 381.196365 -320.013878 
L 384.115219 -303.491145 
L 387.641035 -287.895123 
L 391.550004 -272.420666 
L 393.447701 -256.460391 
L 389.733232 -240.720712 
L 383.239905 -226.110439 
L 375.423003 -212.726159 
L 365.663829 -201.059008 
L 357.243087 -189.411026 
L 347.837499 -178.736456 
L 336.816891 -169.870918 
L 325.622674 -161.542105 
L 313.568577 -154.594651 
L 300.834805 -149.065546 
L 287.659862 -144.667191 
L 273.96933 -142.279937 
L 260.105313 -140.257413 
L 246.284494 -142.635706 
L 232.832597 -145.810633 
L 218.918881 -147.860695 
L 207.3816 -156.003749 
L 195.943015 -163.505254 
L 183.935691 -170.482661 
L 175.428037 -181.442871 
L 168.770884 -193.416786 
L 160.655652 -204.265182 
L 155.390893 -216.747449 
L 149.887282 -229.294086 
L 145.140753 -242.501166 
L 142.212789 -256.460391 
L 141.884427 -270.815005 
L 142.982534 -285.328563 
L 145.448634 -299.943933 
L 150.910904 -313.770037 
L 157.723833 -327.129223 
L 165.961748 -339.864311 
L 175.465733 -351.998726 
L 185.611835 -364.382824 
L 198.004923 -374.782798 
L 211.645526 -384.238346 
L 226.809624 -391.546309 
L 243.532091 -392.953147 
L 260.105313 -398.652508 
L 260.105313 -360.071873 
L 260.105313 -360.071873 
L 247.92605 -356.765642 
L 236.092517 -353.884133 
L 225.461464 -347.808712 
L 215.866785 -340.749863 
L 206.573953 -334.013954 
L 197.749897 -326.845105 
L 190.688847 -317.958013 
L 184.547262 -308.614347 
L 178.904406 -299.077914 
L 174.261562 -289.016631 
L 170.843698 -278.461403 
L 170.375719 -267.355536 
L 169.321942 -256.460391 
L 172.005599 -245.763149 
L 173.116727 -235.01963 
L 177.262739 -225.042347 
L 183.458793 -216.233194 
L 188.63004 -207.124572 
L 195.42942 -199.16255 
L 201.596162 -190.417213 
L 210.193442 -184.150563 
L 218.93094 -178.009178 
L 229.132259 -174.791162 
L 238.878683 -170.34057 
L 249.18967 -166.561988 
L 260.105313 -163.521995 
L 271.101267 -165.90056 
L 281.879148 -168.120468 
L 292.490262 -171.068296 
L 302.492714 -175.697944 
L 312.81695 -180.0944 
L 320.75681 -187.999002 
L 329.396045 -195.074158 
L 336.787992 -203.530159 
L 341.816216 -213.5752 
L 347.211395 -223.425411 
L 350.353672 -234.216168 
L 350.818767 -245.445783 
L 352.180697 -256.460391 
L 354.96945 -267.978982 
L 354.570971 -279.744084 
L 351.748459 -291.216052 
L 347.47121 -302.313551 
L 342.0446 -313.018997 
L 334.711352 -322.555574 
L 325.965113 -330.800738 
L 316.860017 -338.683775 
L 306.547174 -344.947965 
L 295.344734 -349.379108 
L 284.356803 -354.852555 
L 272.460511 -358.214605 
L 260.105313 -360.071873 
z
" style="stroke: #90a4ae; stroke-opacity: 0.25"/>
    </defs>
    <g clip-path="url(#pe439c4ad49)">
     <use xlink:href="#m9e59cde883" x="0" y="577.580391" style="fill: #90a4ae; fill-opacity: 0.25; stroke: #90a4ae; stroke-opacity: 0.25"/>
    </g>
   </g>
   <g id="FillBetweenPolyCollection_2">
    <defs>
     <path id="m52f703a754" d="M 260.105313 -431.571874 
L 260.105313 -348.811103 
L 271.180946 -347.67644 
L 282.084962 -345.635333 
L 290.875862 -337.595661 
L 302.394576 -337.03585 
L 310.670598 -329.716854 
L 319.019953 -322.961273 
L 325.847269 -314.702682 
L 334.474356 -307.793635 
L 337.72559 -297.198655 
L 341.556592 -287.350786 
L 345.629579 -277.540229 
L 346.07906 -266.899494 
L 345.738841 -256.460391 
L 347.001705 -245.909258 
L 340.543244 -236.634221 
L 338.98902 -226.543747 
L 337.089665 -216.055886 
L 329.085295 -208.846946 
L 323.317516 -200.459265 
L 313.753214 -195.904428 
L 307.814752 -187.341335 
L 298.310933 -183.665663 
L 289.872149 -177.971694 
L 279.961813 -175.899403 
L 270.10139 -174.135285 
L 260.105313 -173.784112 
L 250.475877 -177.154851 
L 240.663332 -177.581175 
L 232.645519 -184.054865 
L 222.567211 -184.937513 
L 214.555757 -190.470468 
L 205.308814 -194.60793 
L 203.154248 -206.00615 
L 192.968041 -210.118878 
L 192.173542 -220.807047 
L 185.250718 -228.071787 
L 179.175155 -236.512898 
L 180.380389 -246.780032 
L 175.316712 -256.460391 
L 177.486638 -266.492114 
L 177.657458 -276.781962 
L 181.853623 -286.137342 
L 183.083553 -296.884529 
L 189.804141 -304.985786 
L 195.501745 -313.694157 
L 202.479342 -321.506665 
L 211.14794 -327.387389 
L 218.679897 -335.389926 
L 229.08009 -338.26718 
L 238.469411 -344.240693 
L 249.039863 -347.592563 
L 260.105313 -348.811103 
L 260.105312 -431.571874 
L 260.105312 -431.571874 
L 239.048878 -429.87573 
L 217.662549 -428.657451 
L 199.388158 -416.55837 
L 174.250648 -420.042788 
L 154.630974 -409.266351 
L 142.668235 -389.019448 
L 133.459553 -368.658743 
L 128.403611 -347.367511 
L 122.184366 -328.846887 
L 123.905501 -308.114166 
L 121.830827 -290.54199 
L 119.779381 -273.499044 
L 119.466922 -256.460391 
L 125.608821 -240.12956 
L 132.495723 -225.007452 
L 140.140456 -210.963722 
L 143.394341 -195.205747 
L 152.776075 -182.376367 
L 163.943076 -171.268083 
L 170.206557 -154.985673 
L 188.445159 -152.642735 
L 200.990655 -143.826822 
L 213.125545 -132.584924 
L 227.914327 -125.856427 
L 244.146216 -125.025403 
L 260.105313 -125.158463 
L 275.932011 -126.115802 
L 291.91211 -127.415142 
L 308.163697 -129.740845 
L 320.790602 -140.834233 
L 334.8613 -148.157645 
L 348.071062 -157.167585 
L 361.200567 -166.89781 
L 368.860043 -181.39242 
L 386.65442 -190.042295 
L 414.554634 -197.885489 
L 436.814444 -212.905501 
L 469.042488 -231.090824 
L 474.928447 -256.460391 
L 447.06676 -279.16162 
L 409.044695 -293.170651 
L 407.562939 -312.383692 
L 413.176241 -336.798211 
L 396.987466 -350.943319 
L 390.039751 -371.572259 
L 371.995505 -382.758309 
L 355.16421 -394.176979 
L 339.049197 -406.875396 
L 320.597756 -415.965854 
L 299.161147 -414.916142 
L 280.219682 -422.117124 
L 260.105313 -431.571874 
z
" style="stroke: #cfd8dc; stroke-opacity: 0.1"/>
    </defs>
    <g clip-path="url(#pe439c4ad49)">
     <use xlink:href="#m52f703a754" x="0" y="577.580391" style="fill: #cfd8dc; fill-opacity: 0.1; stroke: #cfd8dc; stroke-opacity: 0.1"/>
    </g>
   </g>
   <g id="matplotlib.axis_1">
    <g id="xtick_1">
     <g id="line2d_1">
      <path d="M 260.105313 321.12 
L 260.105313 99.36 
" clip-path="url(#pe439c4ad49)" style="fill: none; stroke-dasharray: 2.22,0.96; stroke-dashoffset: 0; stroke: #e5e5e5; stroke-width: 0.6"/>
     </g>
     <g id="text_1">
      <!-- Jan -->
      <g style="fill: #333333" transform="translate(252.3975 79.457656) scale(0.1 -0.1)">
       <defs>
        <path id="DejaVuSans-2d" d="M 628 4666 
L 1259 4666 
L 1259 325 
Q 1259 -519 939 -900 
Q 619 -1281 -91 -1281 
L -331 -1281 
L -331 -750 
L -134 -750 
Q 284 -750 456 -515 
Q 628 -281 628 325 
L 628 4666 
z
" transform="scale(0.015625)"/>
        <path id="DejaVuSans-44" d="M 2194 1759 
Q 1497 1759 1228 1600 
Q 959 1441 959 1056 
Q 959 750 1161 570 
Q 1363 391 1709 391 
Q 2188 391 2477 730 
Q 2766 1069 2766 1631 
L 2766 1759 
L 2194 1759 
z
M 3341 1997 
L 3341 0 
L 2766 0 
L 2766 531 
Q 2569 213 2275 61 
Q 1981 -91 1556 -91 
Q 1019 -91 701 211 
Q 384 513 384 1019 
Q 384 1609 779 1909 
Q 1175 2209 1959 2209 
L 2766 2209 
L 2766 2266 
Q 2766 2663 2505 2880 
Q 2244 3097 1772 3097 
Q 1472 3097 1187 3025 
Q 903 2953 641 2809 
L 641 3341 
Q 956 3463 1253 3523 
Q 1550 3584 1831 3584 
Q 2591 3584 2966 3190 
Q 3341 2797 3341 1997 
z
" transform="scale(0.015625)"/>
        <path id="DejaVuSans-51" d="M 3513 2113 
L 3513 0 
L 2938 0 
L 2938 2094 
Q 2938 2591 2744 2837 
Q 2550 3084 2163 3084 
Q 1697 3084 1428 2787 
Q 1159 2491 1159 1978 
L 1159 0 
L 581 0 
L 581 3500 
L 1159 3500 
L 1159 2956 
Q 1366 3272 1645 3428 
Q 1925 3584 2291 3584 
Q 2894 3584 3203 3211 
Q 3513 2838 3513 2113 
z
" transform="scale(0.015625)"/>
       </defs>
       <use xlink:href="#DejaVuSans-2d"/>
       <use xlink:href="#DejaVuSans-44" transform="translate(29.5 0)"/>
       <use xlink:href="#DejaVuSans-51" transform="translate(90.78125 0)"/>
      </g>
     </g>
    </g>
    <g id="xtick_2">
     <g id="line2d_2">
      <path d="M 260.105313 321.12 
L 370.985313 129.070206 
" clip-path="url(#pe439c4ad49)" style="fill: none; stroke-dasharray: 2.22,0.96; stroke-dashoffset: 0; stroke: #e5e5e5; stroke-width: 0.6"/>
     </g>
     <g id="text_2">
      <!-- Feb -->
      <g style="fill: #333333" transform="translate(373.382188 112.182682) scale(0.1 -0.1)">
       <defs>
        <path id="DejaVuSans-29" d="M 628 4666 
L 3309 4666 
L 3309 4134 
L 1259 4134 
L 1259 2759 
L 3109 2759 
L 3109 2228 
L 1259 2228 
L 1259 0 
L 628 0 
L 628 4666 
z
" transform="scale(0.015625)"/>
        <path id="DejaVuSans-48" d="M 3597 1894 
L 3597 1613 
L 953 1613 
Q 991 1019 1311 708 
Q 1631 397 2203 397 
Q 2534 397 2845 478 
Q 3156 559 3463 722 
L 3463 178 
Q 3153 47 2828 -22 
Q 2503 -91 2169 -91 
Q 1331 -91 842 396 
Q 353 884 353 1716 
Q 353 2575 817 3079 
Q 1281 3584 2069 3584 
Q 2775 3584 3186 3129 
Q 3597 2675 3597 1894 
z
M 3022 2063 
Q 3016 2534 2758 2815 
Q 2500 3097 2075 3097 
Q 1594 3097 1305 2825 
Q 1016 2553 972 2059 
L 3022 2063 
z
" transform="scale(0.015625)"/>
        <path id="DejaVuSans-45" d="M 3116 1747 
Q 3116 2381 2855 2742 
Q 2594 3103 2138 3103 
Q 1681 3103 1420 2742 
Q 1159 2381 1159 1747 
Q 1159 1113 1420 752 
Q 1681 391 2138 391 
Q 2594 391 2855 752 
Q 3116 1113 3116 1747 
z
M 1159 2969 
Q 1341 3281 1617 3432 
Q 1894 3584 2278 3584 
Q 2916 3584 3314 3078 
Q 3713 2572 3713 1747 
Q 3713 922 3314 415 
Q 2916 -91 2278 -91 
Q 1894 -91 1617 61 
Q 1341 213 1159 525 
L 1159 0 
L 581 0 
L 581 4863 
L 1159 4863 
L 1159 2969 
z
" transform="scale(0.015625)"/>
       </defs>
       <use xlink:href="#DejaVuSans-29"/>
       <use xlink:href="#DejaVuSans-48" transform="translate(52.046875 0)"/>
       <use xlink:href="#DejaVuSans-45" transform="translate(113.578125 0)"/>
      </g>
     </g>
    </g>
    <g id="xtick_3">
     <g id="line2d_3">
      <path d="M 260.105313 321.12 
L 452.155106 210.24 
" clip-path="url(#pe439c4ad49)" style="fill: none; stroke-dasharray: 2.22,0.96; stroke-dashoffset: 0; stroke: #e5e5e5; stroke-width: 0.6"/>
     </g>
     <g id="text_3">
      <!-- Mar -->
      <g style="fill: #333333" transform="translate(462.207084 201.587656) scale(0.1 -0.1)">
       <defs>
        <path id="DejaVuSans-30" d="M 628 4666 
L 1569 4666 
L 2759 1491 
L 3956 4666 
L 4897 4666 
L 4897 0 
L 4281 0 
L 4281 4097 
L 3078 897 
L 2444 897 
L 1241 4097 
L 1241 0 
L 628 0 
L 628 4666 
z
" transform="scale(0.015625)"/>
        <path id="DejaVuSans-55" d="M 2631 2963 
Q 2534 3019 2420 3045 
Q 2306 3072 2169 3072 
Q 1681 3072 1420 2755 
Q 1159 2438 1159 1844 
L 1159 0 
L 581 0 
L 581 3500 
L 1159 3500 
L 1159 2956 
Q 1341 3275 1631 3429 
Q 1922 3584 2338 3584 
Q 2397 3584 2469 3576 
Q 2541 3569 2628 3553 
L 2631 2963 
z
" transform="scale(0.015625)"/>
       </defs>
       <use xlink:href="#DejaVuSans-30"/>
       <use xlink:href="#DejaVuSans-44" transform="translate(86.28125 0)"/>
       <use xlink:href="#DejaVuSans-55" transform="translate(147.5625 0)"/>
      </g>
     </g>
    </g>
    <g id="xtick_4">
     <g id="line2d_4">
      <path d="M 260.105313 321.12 
L 481.865313 321.12 
" clip-path="url(#pe439c4ad49)" style="fill: none; stroke-dasharray: 2.22,0.96; stroke-dashoffset: 0; stroke: #e5e5e5; stroke-width: 0.6"/>
     </g>
     <g id="text_4">
      <!-- Apr -->
      <g style="fill: #333333" transform="translate(495.715313 323.717656) scale(0.1 -0.1)">
       <defs>
        <path id="DejaVuSans-24" d="M 2188 4044 
L 1331 1722 
L 3047 1722 
L 2188 4044 
z
M 1831 4666 
L 2547 4666 
L 4325 0 
L 3669 0 
L 3244 1197 
L 1141 1197 
L 716 0 
L 50 0 
L 1831 4666 
z
" transform="scale(0.015625)"/>
        <path id="DejaVuSans-53" d="M 1159 525 
L 1159 -1331 
L 581 -1331 
L 581 3500 
L 1159 3500 
L 1159 2969 
Q 1341 3281 1617 3432 
Q 1894 3584 2278 3584 
Q 2916 3584 3314 3078 
Q 3713 2572 3713 1747 
Q 3713 922 3314 415 
Q 2916 -91 2278 -91 
Q 1894 -91 1617 61 
Q 1341 213 1159 525 
z
M 3116 1747 
Q 3116 2381 2855 2742 
Q 2594 3103 2138 3103 
Q 1681 3103 1420 2742 
Q 1159 2381 1159 1747 
Q 1159 1113 1420 752 
Q 1681 391 2138 391 
Q 2594 391 2855 752 
Q 3116 1113 3116 1747 
z
" transform="scale(0.015625)"/>
       </defs>
       <use xlink:href="#DejaVuSans-24"/>
       <use xlink:href="#DejaVuSans-53" transform="translate(68.40625 0)"/>
       <use xlink:href="#DejaVuSans-55" transform="translate(131.890625 0)"/>
      </g>
     </g>
    </g>
    <g id="xtick_5">
     <g id="line2d_5">
      <path d="M 260.105313 321.12 
L 452.155106 432 
" clip-path="url(#pe439c4ad49)" style="fill: none; stroke-dasharray: 2.22,0.96; stroke-dashoffset: 0; stroke: #e5e5e5; stroke-width: 0.6"/>
     </g>
     <g id="text_5">
      <!-- May -->
      <g style="fill: #333333" transform="translate(461.303178 445.847656) scale(0.1 -0.1)">
       <defs>
        <path id="DejaVuSans-5c" d="M 2059 -325 
Q 1816 -950 1584 -1140 
Q 1353 -1331 966 -1331 
L 506 -1331 
L 506 -850 
L 844 -850 
Q 1081 -850 1212 -737 
Q 1344 -625 1503 -206 
L 1606 56 
L 191 3500 
L 800 3500 
L 1894 763 
L 2988 3500 
L 3597 3500 
L 2059 -325 
z
" transform="scale(0.015625)"/>
       </defs>
       <use xlink:href="#DejaVuSans-30"/>
       <use xlink:href="#DejaVuSans-44" transform="translate(86.28125 0)"/>
       <use xlink:href="#DejaVuSans-5c" transform="translate(147.5625 0)"/>
      </g>
     </g>
    </g>
    <g id="xtick_6">
     <g id="line2d_6">
      <path d="M 260.105313 321.12 
L 370.985313 513.169794 
" clip-path="url(#pe439c4ad49)" style="fill: none; stroke-dasharray: 2.22,0.96; stroke-dashoffset: 0; stroke: #e5e5e5; stroke-width: 0.6"/>
     </g>
     <g id="text_6">
      <!-- Jun -->
      <g style="fill: #333333" transform="translate(374.422813 535.253021) scale(0.1 -0.1)">
       <defs>
        <path id="DejaVuSans-58" d="M 544 1381 
L 544 3500 
L 1119 3500 
L 1119 1403 
Q 1119 906 1312 657 
Q 1506 409 1894 409 
Q 2359 409 2629 706 
Q 2900 1003 2900 1516 
L 2900 3500 
L 3475 3500 
L 3475 0 
L 2900 0 
L 2900 538 
Q 2691 219 2414 64 
Q 2138 -91 1772 -91 
Q 1169 -91 856 284 
Q 544 659 544 1381 
z
M 1991 3584 
L 1991 3584 
z
" transform="scale(0.015625)"/>
       </defs>
       <use xlink:href="#DejaVuSans-2d"/>
       <use xlink:href="#DejaVuSans-58" transform="translate(29.5 0)"/>
       <use xlink:href="#DejaVuSans-51" transform="translate(92.875 0)"/>
      </g>
     </g>
    </g>
    <g id="xtick_7">
     <g id="line2d_7">
      <path d="M 260.105313 321.12 
L 260.105313 542.88 
" clip-path="url(#pe439c4ad49)" style="fill: none; stroke-dasharray: 2.22,0.96; stroke-dashoffset: 0; stroke: #e5e5e5; stroke-width: 0.6"/>
     </g>
     <g id="text_7">
      <!-- Jul -->
      <g style="fill: #333333" transform="translate(254.0725 567.978047) scale(0.1 -0.1)">
       <defs>
        <path id="DejaVuSans-4f" d="M 603 4863 
L 1178 4863 
L 1178 0 
L 603 0 
L 603 4863 
z
" transform="scale(0.015625)"/>
       </defs>
       <use xlink:href="#DejaVuSans-2d"/>
       <use xlink:href="#DejaVuSans-58" transform="translate(29.5 0)"/>
       <use xlink:href="#DejaVuSans-4f" transform="translate(92.875 0)"/>
      </g>
     </g>
    </g>
    <g id="xtick_8">
     <g id="line2d_8">
      <path d="M 260.105313 321.12 
L 149.225313 513.169794 
" clip-path="url(#pe439c4ad49)" style="fill: none; stroke-dasharray: 2.22,0.96; stroke-dashoffset: 0; stroke: #e5e5e5; stroke-width: 0.6"/>
     </g>
     <g id="text_8">
      <!-- Aug -->
      <g style="fill: #333333" transform="translate(128.212031 535.253021) scale(0.1 -0.1)">
       <defs>
        <path id="DejaVuSans-4a" d="M 2906 1791 
Q 2906 2416 2648 2759 
Q 2391 3103 1925 3103 
Q 1463 3103 1205 2759 
Q 947 2416 947 1791 
Q 947 1169 1205 825 
Q 1463 481 1925 481 
Q 2391 481 2648 825 
Q 2906 1169 2906 1791 
z
M 3481 434 
Q 3481 -459 3084 -895 
Q 2688 -1331 1869 -1331 
Q 1566 -1331 1297 -1286 
Q 1028 -1241 775 -1147 
L 775 -588 
Q 1028 -725 1275 -790 
Q 1522 -856 1778 -856 
Q 2344 -856 2625 -561 
Q 2906 -266 2906 331 
L 2906 616 
Q 2728 306 2450 153 
Q 2172 0 1784 0 
Q 1141 0 747 490 
Q 353 981 353 1791 
Q 353 2603 747 3093 
Q 1141 3584 1784 3584 
Q 2172 3584 2450 3431 
Q 2728 3278 2906 2969 
L 2906 3500 
L 3481 3500 
L 3481 434 
z
" transform="scale(0.015625)"/>
       </defs>
       <use xlink:href="#DejaVuSans-24"/>
       <use xlink:href="#DejaVuSans-58" transform="translate(68.40625 0)"/>
       <use xlink:href="#DejaVuSans-4a" transform="translate(131.78125 0)"/>
      </g>
     </g>
    </g>
    <g id="xtick_9">
     <g id="line2d_9">
      <path d="M 260.105313 321.12 
L 68.055519 432 
" clip-path="url(#pe439c4ad49)" style="fill: none; stroke-dasharray: 2.22,0.96; stroke-dashoffset: 0; stroke: #e5e5e5; stroke-width: 0.6"/>
     </g>
     <g id="text_9">
      <!-- Sept -->
      <g style="fill: #333333" transform="translate(37.184791 445.847656) scale(0.1 -0.1)">
       <defs>
        <path id="DejaVuSans-36" d="M 3425 4513 
L 3425 3897 
Q 3066 4069 2747 4153 
Q 2428 4238 2131 4238 
Q 1616 4238 1336 4038 
Q 1056 3838 1056 3469 
Q 1056 3159 1242 3001 
Q 1428 2844 1947 2747 
L 2328 2669 
Q 3034 2534 3370 2195 
Q 3706 1856 3706 1288 
Q 3706 609 3251 259 
Q 2797 -91 1919 -91 
Q 1588 -91 1214 -16 
Q 841 59 441 206 
L 441 856 
Q 825 641 1194 531 
Q 1563 422 1919 422 
Q 2459 422 2753 634 
Q 3047 847 3047 1241 
Q 3047 1584 2836 1778 
Q 2625 1972 2144 2069 
L 1759 2144 
Q 1053 2284 737 2584 
Q 422 2884 422 3419 
Q 422 4038 858 4394 
Q 1294 4750 2059 4750 
Q 2388 4750 2728 4690 
Q 3069 4631 3425 4513 
z
" transform="scale(0.015625)"/>
        <path id="DejaVuSans-57" d="M 1172 4494 
L 1172 3500 
L 2356 3500 
L 2356 3053 
L 1172 3053 
L 1172 1153 
Q 1172 725 1289 603 
Q 1406 481 1766 481 
L 2356 481 
L 2356 0 
L 1766 0 
Q 1100 0 847 248 
Q 594 497 594 1153 
L 594 3053 
L 172 3053 
L 172 3500 
L 594 3500 
L 594 4494 
L 1172 4494 
z
" transform="scale(0.015625)"/>
       </defs>
       <use xlink:href="#DejaVuSans-36"/>
       <use xlink:href="#DejaVuSans-48" transform="translate(63.484375 0)"/>
       <use xlink:href="#DejaVuSans-53" transform="translate(125.015625 0)"/>
       <use xlink:href="#DejaVuSans-57" transform="translate(188.5 0)"/>
      </g>
     </g>
    </g>
    <g id="xtick_10">
     <g id="line2d_10">
      <path d="M 260.105313 321.12 
L 38.345313 321.12 
" clip-path="url(#pe439c4ad49)" style="fill: none; stroke-dasharray: 2.22,0.96; stroke-dashoffset: 0; stroke: #e5e5e5; stroke-width: 0.6"/>
     </g>
     <g id="text_10">
      <!-- Oct -->
      <g style="fill: #333333" transform="translate(7.2 323.717656) scale(0.1 -0.1)">
       <defs>
        <path id="DejaVuSans-32" d="M 2522 4238 
Q 1834 4238 1429 3725 
Q 1025 3213 1025 2328 
Q 1025 1447 1429 934 
Q 1834 422 2522 422 
Q 3209 422 3611 934 
Q 4013 1447 4013 2328 
Q 4013 3213 3611 3725 
Q 3209 4238 2522 4238 
z
M 2522 4750 
Q 3503 4750 4090 4092 
Q 4678 3434 4678 2328 
Q 4678 1225 4090 567 
Q 3503 -91 2522 -91 
Q 1538 -91 948 565 
Q 359 1222 359 2328 
Q 359 3434 948 4092 
Q 1538 4750 2522 4750 
z
" transform="scale(0.015625)"/>
        <path id="DejaVuSans-46" d="M 3122 3366 
L 3122 2828 
Q 2878 2963 2633 3030 
Q 2388 3097 2138 3097 
Q 1578 3097 1268 2742 
Q 959 2388 959 1747 
Q 959 1106 1268 751 
Q 1578 397 2138 397 
Q 2388 397 2633 464 
Q 2878 531 3122 666 
L 3122 134 
Q 2881 22 2623 -34 
Q 2366 -91 2075 -91 
Q 1284 -91 818 406 
Q 353 903 353 1747 
Q 353 2603 823 3093 
Q 1294 3584 2113 3584 
Q 2378 3584 2631 3529 
Q 2884 3475 3122 3366 
z
" transform="scale(0.015625)"/>
       </defs>
       <use xlink:href="#DejaVuSans-32"/>
       <use xlink:href="#DejaVuSans-46" transform="translate(78.71875 0)"/>
       <use xlink:href="#DejaVuSans-57" transform="translate(133.703125 0)"/>
      </g>
     </g>
    </g>
    <g id="xtick_11">
     <g id="line2d_11">
      <path d="M 260.105313 321.12 
L 68.055519 210.24 
" clip-path="url(#pe439c4ad49)" style="fill: none; stroke-dasharray: 2.22,0.96; stroke-dashoffset: 0; stroke: #e5e5e5; stroke-width: 0.6"/>
     </g>
     <g id="text_11">
      <!-- Nov -->
      <g style="fill: #333333" transform="translate(38.810572 201.587656) scale(0.1 -0.1)">
       <defs>
        <path id="DejaVuSans-31" d="M 628 4666 
L 1478 4666 
L 3547 763 
L 3547 4666 
L 4159 4666 
L 4159 0 
L 3309 0 
L 1241 3903 
L 1241 0 
L 628 0 
L 628 4666 
z
" transform="scale(0.015625)"/>
        <path id="DejaVuSans-52" d="M 1959 3097 
Q 1497 3097 1228 2736 
Q 959 2375 959 1747 
Q 959 1119 1226 758 
Q 1494 397 1959 397 
Q 2419 397 2687 759 
Q 2956 1122 2956 1747 
Q 2956 2369 2687 2733 
Q 2419 3097 1959 3097 
z
M 1959 3584 
Q 2709 3584 3137 3096 
Q 3566 2609 3566 1747 
Q 3566 888 3137 398 
Q 2709 -91 1959 -91 
Q 1206 -91 779 398 
Q 353 888 353 1747 
Q 353 2609 779 3096 
Q 1206 3584 1959 3584 
z
" transform="scale(0.015625)"/>
        <path id="DejaVuSans-59" d="M 191 3500 
L 800 3500 
L 1894 563 
L 2988 3500 
L 3597 3500 
L 2284 0 
L 1503 0 
L 191 3500 
z
" transform="scale(0.015625)"/>
       </defs>
       <use xlink:href="#DejaVuSans-31"/>
       <use xlink:href="#DejaVuSans-52" transform="translate(74.8125 0)"/>
       <use xlink:href="#DejaVuSans-59" transform="translate(136 0)"/>
      </g>
     </g>
    </g>
    <g id="xtick_12">
     <g id="line2d_12">
      <path d="M 260.105313 321.12 
L 149.225312 129.070206 
" clip-path="url(#pe439c4ad49)" style="fill: none; stroke-dasharray: 2.22,0.96; stroke-dashoffset: 0; stroke: #e5e5e5; stroke-width: 0.6"/>
     </g>
     <g id="text_12">
      <!-- Dec -->
      <g style="fill: #333333" transform="translate(128.299531 112.182291) scale(0.1 -0.1)">
       <defs>
        <path id="DejaVuSans-27" d="M 1259 4147 
L 1259 519 
L 2022 519 
Q 2988 519 3436 956 
Q 3884 1394 3884 2338 
Q 3884 3275 3436 3711 
Q 2988 4147 2022 4147 
L 1259 4147 
z
M 628 4666 
L 1925 4666 
Q 3281 4666 3915 4102 
Q 4550 3538 4550 2338 
Q 4550 1131 3912 565 
Q 3275 0 1925 0 
L 628 0 
L 628 4666 
z
" transform="scale(0.015625)"/>
       </defs>
       <use xlink:href="#DejaVuSans-27"/>
       <use xlink:href="#DejaVuSans-48" transform="translate(77 0)"/>
       <use xlink:href="#DejaVuSans-46" transform="translate(138.53125 0)"/>
      </g>
     </g>
    </g>
   </g>
   <g id="matplotlib.axis_2">
    <g id="ytick_1">
     <g id="line2d_13">
      <path d="M 260.105313 278.873562 
C 265.653064 278.873562 271.14687 279.966348 276.272324 282.089381 
C 281.397778 284.212414 286.055202 287.324405 289.978055 291.247258 
C 293.900908 295.17011 297.012899 299.827534 299.135931 304.952988 
C 301.258964 310.078442 302.35175 315.572249 302.35175 321.12 
C 302.35175 326.667751 301.258964 332.161558 299.135931 337.287012 
C 297.012899 342.412466 293.900908 347.06989 289.978055 350.992742 
C 286.055202 354.915595 281.397778 358.027586 276.272324 360.150619 
C 271.14687 362.273652 265.653064 363.366438 260.105313 363.366438 
C 254.557561 363.366438 249.063755 362.273652 243.938301 360.150619 
C 238.812847 358.027586 234.155423 354.915595 230.23257 350.992742 
C 226.309717 347.06989 223.197726 342.412466 221.074694 337.287012 
C 218.951661 332.161558 217.858875 326.667751 217.858875 321.12 
C 217.858875 315.572249 218.951661 310.078442 221.074694 304.952988 
C 223.197726 299.827534 226.309717 295.17011 230.23257 291.247258 
C 234.155423 287.324405 238.812847 284.212414 243.938301 282.089381 
C 249.063755 279.966348 254.557561 278.873562 260.105313 278.873562 
" clip-path="url(#pe439c4ad49)" style="fill: none; stroke-dasharray: 2.22,0.96; stroke-dashoffset: 0; stroke: #e5e5e5; stroke-width: 0.6"/>
     </g>
     <g id="text_13">
      <!-- 1000 -->
      <g style="fill: #333333" transform="translate(260.105313 360.964094) scale(0.1 -0.1)">
       <defs>
        <path id="DejaVuSans-14" d="M 794 531 
L 1825 531 
L 1825 4091 
L 703 3866 
L 703 4441 
L 1819 4666 
L 2450 4666 
L 2450 531 
L 3481 531 
L 3481 0 
L 794 0 
L 794 531 
z
" transform="scale(0.015625)"/>
        <path id="DejaVuSans-13" d="M 2034 4250 
Q 1547 4250 1301 3770 
Q 1056 3291 1056 2328 
Q 1056 1369 1301 889 
Q 1547 409 2034 409 
Q 2525 409 2770 889 
Q 3016 1369 3016 2328 
Q 3016 3291 2770 3770 
Q 2525 4250 2034 4250 
z
M 2034 4750 
Q 2819 4750 3233 4129 
Q 3647 3509 3647 2328 
Q 3647 1150 3233 529 
Q 2819 -91 2034 -91 
Q 1250 -91 836 529 
Q 422 1150 422 2328 
Q 422 3509 836 4129 
Q 1250 4750 2034 4750 
z
" transform="scale(0.015625)"/>
       </defs>
       <use xlink:href="#DejaVuSans-14"/>
       <use xlink:href="#DejaVuSans-13" transform="translate(63.625 0)"/>
       <use xlink:href="#DejaVuSans-13" transform="translate(127.25 0)"/>
       <use xlink:href="#DejaVuSans-13" transform="translate(190.875 0)"/>
      </g>
     </g>
    </g>
    <g id="ytick_2">
     <g id="line2d_14">
      <path d="M 260.105313 236.627125 
C 271.200815 236.627125 282.188428 238.812697 292.439336 243.058762 
C 302.690244 247.304827 312.005092 253.52881 319.850797 261.374515 
C 327.696503 269.22022 333.920485 278.535069 338.16655 288.785977 
C 342.412616 299.036884 344.598188 310.024497 344.598188 321.12 
C 344.598188 332.215503 342.412616 343.203116 338.16655 353.454023 
C 333.920485 363.704931 327.696503 373.01978 319.850797 380.865485 
C 312.005092 388.71119 302.690244 394.935173 292.439336 399.181238 
C 282.188428 403.427303 271.200815 405.612875 260.105313 405.612875 
C 249.00981 405.612875 238.022197 403.427303 227.771289 399.181238 
C 217.520381 394.935173 208.205533 388.71119 200.359828 380.865485 
C 192.514122 373.01978 186.29014 363.704931 182.044075 353.454023 
C 177.798009 343.203116 175.612437 332.215503 175.612437 321.12 
C 175.612437 310.024497 177.798009 299.036884 182.044075 288.785977 
C 186.29014 278.535069 192.514122 269.22022 200.359828 261.374515 
C 208.205533 253.52881 217.520381 247.304827 227.771289 243.058762 
C 238.022197 238.812697 249.00981 236.627125 260.105313 236.627125 
" clip-path="url(#pe439c4ad49)" style="fill: none; stroke-dasharray: 2.22,0.96; stroke-dashoffset: 0; stroke: #e5e5e5; stroke-width: 0.6"/>
     </g>
     <g id="text_14">
      <!-- 2000 -->
      <g style="fill: #333333" transform="translate(260.105313 403.210531) scale(0.1 -0.1)">
       <defs>
        <path id="DejaVuSans-15" d="M 1228 531 
L 3431 531 
L 3431 0 
L 469 0 
L 469 531 
Q 828 903 1448 1529 
Q 2069 2156 2228 2338 
Q 2531 2678 2651 2914 
Q 2772 3150 2772 3378 
Q 2772 3750 2511 3984 
Q 2250 4219 1831 4219 
Q 1534 4219 1204 4116 
Q 875 4013 500 3803 
L 500 4441 
Q 881 4594 1212 4672 
Q 1544 4750 1819 4750 
Q 2544 4750 2975 4387 
Q 3406 4025 3406 3419 
Q 3406 3131 3298 2873 
Q 3191 2616 2906 2266 
Q 2828 2175 2409 1742 
Q 1991 1309 1228 531 
z
" transform="scale(0.015625)"/>
       </defs>
       <use xlink:href="#DejaVuSans-15"/>
       <use xlink:href="#DejaVuSans-13" transform="translate(63.625 0)"/>
       <use xlink:href="#DejaVuSans-13" transform="translate(127.25 0)"/>
       <use xlink:href="#DejaVuSans-13" transform="translate(190.875 0)"/>
      </g>
     </g>
    </g>
    <g id="ytick_3">
     <g id="line2d_15">
      <path d="M 260.105313 194.380687 
C 276.748567 194.380687 293.229986 197.659045 308.606348 204.028143 
C 323.982709 210.397241 337.954982 219.733215 349.72354 231.501773 
C 361.492098 243.27033 370.828072 257.242603 377.197169 272.618965 
C 383.566267 287.995327 386.844625 304.476746 386.844625 321.12 
C 386.844625 337.763254 383.566267 354.244673 377.197169 369.621035 
C 370.828072 384.997397 361.492098 398.96967 349.72354 410.738227 
C 337.954982 422.506785 323.982709 431.842759 308.606348 438.211857 
C 293.229986 444.580955 276.748567 447.859313 260.105313 447.859313 
C 243.462058 447.859313 226.980639 444.580955 211.604277 438.211857 
C 196.227916 431.842759 182.255643 422.506785 170.487085 410.738227 
C 158.718527 398.96967 149.382553 384.997397 143.013456 369.621035 
C 136.644358 354.244673 133.366 337.763254 133.366 321.12 
C 133.366 304.476746 136.644358 287.995327 143.013456 272.618965 
C 149.382553 257.242603 158.718527 243.27033 170.487085 231.501773 
C 182.255643 219.733215 196.227916 210.397241 211.604277 204.028143 
C 226.980639 197.659045 243.462058 194.380687 260.105313 194.380687 
" clip-path="url(#pe439c4ad49)" style="fill: none; stroke-dasharray: 2.22,0.96; stroke-dashoffset: 0; stroke: #e5e5e5; stroke-width: 0.6"/>
     </g>
     <g id="text_15">
      <!-- 3000 -->
      <g style="fill: #333333" transform="translate(260.105313 445.456969) scale(0.1 -0.1)">
       <defs>
        <path id="DejaVuSans-16" d="M 2597 2516 
Q 3050 2419 3304 2112 
Q 3559 1806 3559 1356 
Q 3559 666 3084 287 
Q 2609 -91 1734 -91 
Q 1441 -91 1130 -33 
Q 819 25 488 141 
L 488 750 
Q 750 597 1062 519 
Q 1375 441 1716 441 
Q 2309 441 2620 675 
Q 2931 909 2931 1356 
Q 2931 1769 2642 2001 
Q 2353 2234 1838 2234 
L 1294 2234 
L 1294 2753 
L 1863 2753 
Q 2328 2753 2575 2939 
Q 2822 3125 2822 3475 
Q 2822 3834 2567 4026 
Q 2313 4219 1838 4219 
Q 1578 4219 1281 4162 
Q 984 4106 628 3988 
L 628 4550 
Q 988 4650 1302 4700 
Q 1616 4750 1894 4750 
Q 2613 4750 3031 4423 
Q 3450 4097 3450 3541 
Q 3450 3153 3228 2886 
Q 3006 2619 2597 2516 
z
" transform="scale(0.015625)"/>
       </defs>
       <use xlink:href="#DejaVuSans-16"/>
       <use xlink:href="#DejaVuSans-13" transform="translate(63.625 0)"/>
       <use xlink:href="#DejaVuSans-13" transform="translate(127.25 0)"/>
       <use xlink:href="#DejaVuSans-13" transform="translate(190.875 0)"/>
      </g>
     </g>
    </g>
    <g id="ytick_4">
     <g id="line2d_16">
      <path d="M 260.105313 152.13425 
C 282.296318 152.13425 304.271544 156.505394 324.773359 164.997524 
C 345.275175 173.489654 363.904872 185.93762 379.596282 201.62903 
C 395.287693 217.32044 407.735658 235.950137 416.227788 256.451953 
C 424.719919 276.953769 429.091063 298.928995 429.091063 321.12 
C 429.091063 343.311005 424.719919 365.286231 416.227788 385.788047 
C 407.735658 406.289863 395.287693 424.91956 379.596282 440.61097 
C 363.904872 456.30238 345.275175 468.750346 324.773359 477.242476 
C 304.271544 485.734606 282.296318 490.10575 260.105313 490.10575 
C 237.914307 490.10575 215.939081 485.734606 195.437266 477.242476 
C 174.93545 468.750346 156.305753 456.30238 140.614343 440.61097 
C 124.922932 424.91956 112.474967 406.289863 103.982837 385.788047 
C 95.490706 365.286231 91.119562 343.311005 91.119562 321.12 
C 91.119562 298.928995 95.490706 276.953769 103.982837 256.451953 
C 112.474967 235.950137 124.922932 217.32044 140.614343 201.62903 
C 156.305753 185.93762 174.93545 173.489654 195.437266 164.997524 
C 215.939081 156.505394 237.914307 152.13425 260.105312 152.13425 
" clip-path="url(#pe439c4ad49)" style="fill: none; stroke-dasharray: 2.22,0.96; stroke-dashoffset: 0; stroke: #e5e5e5; stroke-width: 0.6"/>
     </g>
     <g id="text_16">
      <!-- 4000 -->
      <g style="fill: #333333" transform="translate(260.105313 487.703406) scale(0.1 -0.1)">
       <defs>
        <path id="DejaVuSans-17" d="M 2419 4116 
L 825 1625 
L 2419 1625 
L 2419 4116 
z
M 2253 4666 
L 3047 4666 
L 3047 1625 
L 3713 1625 
L 3713 1100 
L 3047 1100 
L 3047 0 
L 2419 0 
L 2419 1100 
L 313 1100 
L 313 1709 
L 2253 4666 
z
" transform="scale(0.015625)"/>
       </defs>
       <use xlink:href="#DejaVuSans-17"/>
       <use xlink:href="#DejaVuSans-13" transform="translate(63.625 0)"/>
       <use xlink:href="#DejaVuSans-13" transform="translate(127.25 0)"/>
       <use xlink:href="#DejaVuSans-13" transform="translate(190.875 0)"/>
      </g>
     </g>
    </g>
    <g id="ytick_5">
     <g id="line2d_17">
      <path d="M 260.105313 109.887812 
C 287.844069 109.887812 315.313102 115.351742 340.940371 125.966905 
C 366.567641 136.582068 389.854762 152.142025 409.469025 171.756288 
C 429.083288 191.370551 444.643245 214.657672 455.258407 240.284941 
C 465.87357 265.912211 471.3375 293.381243 471.3375 321.12 
C 471.3375 348.858757 465.87357 376.327789 455.258407 401.955059 
C 444.643245 427.582328 429.083288 450.869449 409.469025 470.483712 
C 389.854762 490.097975 366.567641 505.657932 340.940371 516.273095 
C 315.313102 526.888258 287.844069 532.352188 260.105313 532.352188 
C 232.366556 532.352188 204.897523 526.888258 179.270254 516.273095 
C 153.642984 505.657932 130.355863 490.097975 110.7416 470.483712 
C 91.127337 450.869449 75.56738 427.582328 64.952218 401.955059 
C 54.337055 376.327789 48.873125 348.858757 48.873125 321.12 
C 48.873125 293.381243 54.337055 265.912211 64.952218 240.284941 
C 75.56738 214.657672 91.127337 191.370551 110.7416 171.756288 
C 130.355863 152.142025 153.642984 136.582068 179.270254 125.966905 
C 204.897523 115.351742 232.366556 109.887812 260.105312 109.887812 
" clip-path="url(#pe439c4ad49)" style="fill: none; stroke-dasharray: 2.22,0.96; stroke-dashoffset: 0; stroke: #e5e5e5; stroke-width: 0.6"/>
     </g>
     <g id="text_17">
      <!-- 5000 -->
      <g style="fill: #333333" transform="translate(260.105313 529.949844) scale(0.1 -0.1)">
       <defs>
        <path id="DejaVuSans-18" d="M 691 4666 
L 3169 4666 
L 3169 4134 
L 1269 4134 
L 1269 2991 
Q 1406 3038 1543 3061 
Q 1681 3084 1819 3084 
Q 2600 3084 3056 2656 
Q 3513 2228 3513 1497 
Q 3513 744 3044 326 
Q 2575 -91 1722 -91 
Q 1428 -91 1123 -41 
Q 819 9 494 109 
L 494 744 
Q 775 591 1075 516 
Q 1375 441 1709 441 
Q 2250 441 2565 725 
Q 2881 1009 2881 1497 
Q 2881 1984 2565 2268 
Q 2250 2553 1709 2553 
Q 1456 2553 1204 2497 
Q 953 2441 691 2322 
L 691 4666 
z
" transform="scale(0.015625)"/>
       </defs>
       <use xlink:href="#DejaVuSans-18"/>
       <use xlink:href="#DejaVuSans-13" transform="translate(63.625 0)"/>
       <use xlink:href="#DejaVuSans-13" transform="translate(127.25 0)"/>
       <use xlink:href="#DejaVuSans-13" transform="translate(190.875 0)"/>
      </g>
     </g>
    </g>
   </g>
   <g id="line2d_18">
    <path d="M 260.105313 197.887142 
L 274.516367 202.43429 
L 287.807354 208.728398 
L 300.703262 214.072005 
L 313.447898 219.484196 
L 326.125769 225.472856 
L 337.45354 233.811899 
L 348.868021 242.483102 
L 355.30047 255.411527 
L 363.349634 266.9332 
L 366.205281 280.881589 
L 370.281898 293.963911 
L 370.780786 307.681565 
L 371.889386 321.12 
L 368.80968 334.3191 
L 366.34409 347.305507 
L 361.86016 359.710523 
L 354.970384 370.909031 
L 346.851813 380.996786 
L 339.286582 391.268483 
L 329.66549 399.637209 
L 319.550122 407.240674 
L 308.38261 413.104705 
L 296.748333 417.739704 
L 284.430536 419.811312 
L 272.540576 423.533606 
L 260.105313 426.271383 
L 247.629311 423.869113 
L 235.790199 419.770293 
L 224.570871 414.816622 
L 213.850204 409.251747 
L 202.77239 404.181078 
L 194.074971 395.652848 
L 185.351111 387.346443 
L 179.443236 376.797011 
L 172.235418 367.237678 
L 166.527194 356.609499 
L 162.070302 345.28346 
L 159.285367 333.361758 
L 156.517048 321.12 
L 157.85946 308.705106 
L 157.435174 295.814084 
L 160.957538 283.518209 
L 166.175425 271.821792 
L 172.141927 260.403259 
L 179.88052 250.047036 
L 188.247941 240.009794 
L 197.18069 229.957946 
L 208.352992 222.514192 
L 219.507363 214.072005 
L 232.039302 207.25172 
L 245.791011 203.23112 
L 260.105313 197.887142 
" clip-path="url(#pe439c4ad49)" style="fill: none; stroke-dasharray: 4.44,1.92; stroke-dashoffset: 0; stroke: #455a64; stroke-width: 1.2"/>
   </g>
   <g id="line2d_19">
    <path d="M 260.105313 190.029304 
L 277.235626 180.039177 
L 292.023322 191.623545 
L 305.736809 200.799633 
L 322.223803 202.763104 
L 336.805196 210.001036 
L 349.695907 219.993124 
L 353.674552 238.224887 
L 367.816999 246.771991 
L 376.329988 260.120584 
L 387.219869 272.911807 
L 408.347374 284.581613 
L 447.06676 298.41877 
L 474.928447 321.12 
L 469.042488 346.489566 
L 436.814444 364.674889 
L 414.554634 379.694901 
L 386.65442 387.538096 
L 364.027272 392.85215 
L 347.919364 398.916461 
L 337.705671 408.712698 
L 325.669793 416.106549 
L 312.760746 421.446547 
L 300.388665 427.338472 
L 287.362504 431.706773 
L 273.645593 432.634241 
L 260.105313 432.566102 
L 246.768722 430.956705 
L 234.54664 424.815609 
L 220.061652 426.706454 
L 207.764005 420.848029 
L 196.700716 412.977417 
L 170.206557 422.594717 
L 169.79313 401.129612 
L 165.014459 386.756477 
L 159.404692 373.971763 
L 151.793282 362.197335 
L 148.493068 348.629947 
L 138.861359 335.841681 
L 133.281507 321.12 
L 133.367427 305.731235 
L 127.942633 288.544825 
L 123.905501 269.466225 
L 122.184366 248.733503 
L 135.322471 234.988623 
L 146.898865 220.82784 
L 166.676722 215.660922 
L 178.389699 202.734495 
L 190.801181 189.07201 
L 205.949745 178.323504 
L 220.584407 160.777382 
L 240.4136 158.944155 
L 260.105312 146.008516 
" clip-path="url(#pe439c4ad49)" style="fill: none; stroke: #00838f; stroke-opacity: 0.85; stroke-width: 1.3; stroke-linecap: square"/>
   </g>
   <g id="line2d_20">
    <path d="M 260.105313 146.008516 
L 279.710457 159.657108 
L 299.161147 162.664249 
L 315.743979 174.412895 
L 331.863556 184.396089 
L 345.324738 197.658347 
L 359.024759 209.463027 
L 361.453542 231.333303 
L 368.060376 246.604 
L 381.454797 257.430877 
L 380.346677 275.518465 
L 385.048677 290.324226 
L 393.301714 304.947029 
L 393.815287 321.12 
L 391.791931 337.10965 
L 389.068523 352.906577 
L 383.388262 367.875056 
L 372.626659 380.175759 
L 365.00078 393.524114 
L 354.654831 404.883564 
L 338.686181 409.819465 
L 332.341435 425.772091 
L 316.726592 429.002834 
L 303.100189 434.488172 
L 287.129969 430.76334 
L 274.322861 438.21205 
L 260.105313 440.973143 
L 245.475292 441.609062 
L 232.039302 434.98828 
L 216.421319 436.305223 
L 202.031199 431.770979 
L 191.924972 419.896276 
L 178.919089 412.760303 
L 167.547974 403.118646 
L 160.668442 389.756316 
L 144.40434 381.844555 
L 144.801586 364.848935 
L 141.560886 350.338577 
L 131.270506 336.763378 
L 130.324256 321.12 
L 131.606014 305.51736 
L 125.768635 288.008983 
L 126.275568 270.365073 
L 128.506211 252.051463 
L 128.403611 230.21288 
L 133.459553 208.921647 
L 142.668235 188.560942 
L 154.630974 168.31404 
L 174.250648 157.537603 
L 199.388158 161.02202 
L 221.969509 166.396962 
L 241.360757 166.7447 
L 260.105313 176.08798 
" clip-path="url(#pe439c4ad49)" style="fill: none; stroke: #00695c; stroke-opacity: 0.85; stroke-width: 1.3; stroke-linecap: square"/>
   </g>
   <g id="line2d_21">
    <path d="M 260.105313 176.08798 
L 276.181531 188.720429 
L 292.37718 190.187886 
L 308.043851 194.716463 
L 324.599384 198.236814 
L 338.245118 207.914948 
L 354.822574 214.206314 
L 366.101963 227.215161 
L 372.545466 243.508166 
L 386.841457 254.60374 
L 402.546298 267.09926 
L 409.044695 284.409739 
L 409.573818 302.971238 
L 411.09408 321.12 
L 407.602713 339.029427 
L 392.801237 353.826608 
L 384.178284 368.174671 
L 377.190358 382.570972 
L 368.860043 396.187971 
L 356.805121 406.788555 
L 342.019915 413.582472 
L 331.261493 424.207525 
L 317.943831 431.32209 
L 305.227462 440.097329 
L 291.811007 449.75506 
L 275.901458 451.212959 
L 260.105313 446.718659 
L 244.385551 450.583882 
L 227.914327 451.723964 
L 213.125545 444.995466 
L 201.952667 431.920608 
L 188.445159 424.937656 
L 173.792422 418.547113 
L 163.943076 406.312307 
L 156.670106 392.516168 
L 150.239888 378.781823 
L 148.751697 363.350856 
L 136.392513 351.612467 
L 125.608821 337.450831 
L 120.354097 321.12 
L 121.079472 304.239207 
L 121.830827 287.0384 
L 129.277652 271.503613 
L 139.092494 257.607573 
L 149.855552 245.020085 
L 158.535729 231.137201 
L 164.491585 213.194412 
L 177.717735 201.760987 
L 189.03422 185.705347 
L 200.167159 163.076078 
L 217.662549 148.92294 
L 239.048878 147.70466 
L 260.105312 150.697871 
" clip-path="url(#pe439c4ad49)" style="fill: none; stroke: #2e7d32; stroke-opacity: 0.85; stroke-width: 1.3; stroke-linecap: square"/>
   </g>
   <g id="line2d_22">
    <path d="M 260.105313 164.34347 
L 278.635993 168.506113 
L 298.908392 163.689719 
L 318.575348 166.947186 
L 339.049197 170.704995 
L 351.420411 188.827241 
L 361.069823 207.154627 
L 368.821448 224.805908 
L 383.010675 236.284554 
L 393.275524 251.226881 
L 394.804082 270.035495 
L 398.338779 287.048511 
L 404.960593 303.531385 
L 403.912186 321.12 
L 403.534687 338.535479 
L 392.760218 353.816498 
L 391.485989 370.946118 
L 381.26776 384.710958 
L 365.522302 393.884094 
L 361.200567 410.68258 
L 347.678858 419.970099 
L 331.717469 424.868119 
L 318.630983 432.631348 
L 305.886617 441.835378 
L 291.91211 450.165248 
L 275.932011 451.464589 
L 260.105313 450.013881 
L 244.146216 452.554988 
L 229.572405 444.996875 
L 215.911973 437.648261 
L 200.990655 433.753569 
L 189.045127 424.068452 
L 174.324699 417.946296 
L 165.018221 405.359812 
L 156.04428 392.948145 
L 143.394341 382.374643 
L 143.695555 365.268398 
L 132.495723 352.572939 
L 127.370234 337.236956 
L 125.42367 321.12 
L 119.779381 304.081347 
L 123.020373 287.331597 
L 133.50427 273.106558 
L 142.98286 259.649395 
L 146.795956 242.908198 
L 156.764902 229.568385 
L 166.340547 215.281459 
L 178.941669 203.534162 
L 192.901901 193.074598 
L 210.249233 189.660322 
L 224.274642 175.749256 
L 243.244888 182.261913 
L 260.105313 168.990578 
" clip-path="url(#pe439c4ad49)" style="fill: none; stroke-dasharray: 1.2,1.98; stroke-dashoffset: 0; stroke: #78909c; stroke-width: 1.2"/>
   </g>
   <g id="line2d_23">
    <path d="M 260.105313 168.990578 
L 280.219682 155.463267 
L 297.937809 167.627527 
L 320.597756 161.614537 
L 338.204983 172.313511 
L 355.16421 183.403411 
L 371.995505 194.822081 
L 390.039751 206.008132 
L 396.91793 226.685069 
L 398.063666 248.71387 
L 402.6253 267.069298 
L 408.019224 284.662495 
L 399.550537 304.188284 
L 401.081675 321.12 
L 394.811497 337.476292 
L 392.021879 353.634513 
L 383.190757 367.800152 
L 378.911096 383.474086 
L 367.017332 394.916039 
L 357.817022 407.685021 
L 348.071062 420.412806 
L 334.8613 429.422745 
L 319.3574 434.015421 
L 305.57202 441.005855 
L 290.850535 445.858271 
L 275.901458 451.212959 
L 260.105313 452.421928 
L 244.991528 445.593211 
L 229.78472 444.13548 
L 215.896992 437.687762 
L 203.130641 429.676167 
L 191.349003 420.730711 
L 173.59632 418.768466 
L 164.259295 406.032162 
L 152.776075 395.204023 
L 148.107669 379.900898 
L 140.140456 366.616669 
L 134.792778 352.006766 
L 130.934999 336.804116 
L 119.466922 321.12 
L 122.337624 304.391974 
L 125.60456 287.968542 
L 130.265179 271.878133 
L 135.426573 255.683549 
L 143.944968 240.940304 
L 156.828146 229.624414 
L 166.816794 215.819031 
L 177.501746 201.448074 
L 190.663751 188.810158 
L 208.601345 185.3152 
L 225.376658 180.220309 
L 243.356918 183.184558 
L 260.105312 164.596949 
" clip-path="url(#pe439c4ad49)" style="fill: none; stroke: #37474f; stroke-width: 1.5; stroke-linecap: square"/>
   </g>
   <g id="patch_3">
    <path d="M 260.105312 99.36 
C 230.984056 99.36 202.145967 105.096253 175.241435 116.240475 
C 148.336902 127.384697 123.889151 143.720162 103.297313 164.312 
C 82.705475 184.903838 66.37001 209.351589 55.225787 236.256122 
C 44.081565 263.160655 38.345313 291.998744 38.345313 321.12 
C 38.345313 350.241256 44.081565 379.079345 55.225787 405.983878 
C 66.37001 432.888411 82.705475 457.336162 103.297313 477.928 
C 123.889151 498.519838 148.336902 514.855303 175.241435 525.999525 
C 202.145967 537.143747 230.984056 542.88 260.105313 542.88 
C 289.226569 542.88 318.064658 537.143747 344.96919 525.999525 
C 371.873723 514.855303 396.321474 498.519838 416.913312 477.928 
C 437.50515 457.336162 453.840615 432.888411 464.984838 405.983878 
C 476.12906 379.079345 481.865313 350.241256 481.865313 321.12 
C 481.865313 291.998744 476.12906 263.160655 464.984838 236.256122 
C 453.840615 209.351589 437.50515 184.903838 416.913312 164.312 
C 396.321474 143.720162 371.873723 127.384697 344.96919 116.240475 
C 318.064658 105.096253 289.226569 99.36 260.105313 99.36 
" style="fill: none; stroke: #888888; stroke-width: 0.8; stroke-linejoin: miter; stroke-linecap: square"/>
   </g>
   <g id="text_18">
    <!-- Totaal mannen en vrouwen, Totaal leeftijd, complete spread distribution analysis -->
    <g style="fill: #616161" transform="translate(58.654531 49.008) scale(0.1 -0.1)">
     <defs>
      <path id="DejaVuSans-37" d="M -19 4666 
L 3928 4666 
L 3928 4134 
L 2272 4134 
L 2272 0 
L 1638 0 
L 1638 4134 
L -19 4134 
L -19 4666 
z
" transform="scale(0.015625)"/>
      <path id="DejaVuSans-3" transform="scale(0.015625)"/>
      <path id="DejaVuSans-50" d="M 3328 2828 
Q 3544 3216 3844 3400 
Q 4144 3584 4550 3584 
Q 5097 3584 5394 3201 
Q 5691 2819 5691 2113 
L 5691 0 
L 5113 0 
L 5113 2094 
Q 5113 2597 4934 2840 
Q 4756 3084 4391 3084 
Q 3944 3084 3684 2787 
Q 3425 2491 3425 1978 
L 3425 0 
L 2847 0 
L 2847 2094 
Q 2847 2600 2669 2842 
Q 2491 3084 2119 3084 
Q 1678 3084 1418 2786 
Q 1159 2488 1159 1978 
L 1159 0 
L 581 0 
L 581 3500 
L 1159 3500 
L 1159 2956 
Q 1356 3278 1631 3431 
Q 1906 3584 2284 3584 
Q 2666 3584 2933 3390 
Q 3200 3197 3328 2828 
z
" transform="scale(0.015625)"/>
      <path id="DejaVuSans-5a" d="M 269 3500 
L 844 3500 
L 1563 769 
L 2278 3500 
L 2956 3500 
L 3675 769 
L 4391 3500 
L 4966 3500 
L 4050 0 
L 3372 0 
L 2619 2869 
L 1863 0 
L 1184 0 
L 269 3500 
z
" transform="scale(0.015625)"/>
      <path id="DejaVuSans-f" d="M 750 794 
L 1409 794 
L 1409 256 
L 897 -744 
L 494 -744 
L 750 256 
L 750 794 
z
" transform="scale(0.015625)"/>
      <path id="DejaVuSans-49" d="M 2375 4863 
L 2375 4384 
L 1825 4384 
Q 1516 4384 1395 4259 
Q 1275 4134 1275 3809 
L 1275 3500 
L 2222 3500 
L 2222 3053 
L 1275 3053 
L 1275 0 
L 697 0 
L 697 3053 
L 147 3053 
L 147 3500 
L 697 3500 
L 697 3744 
Q 697 4328 969 4595 
Q 1241 4863 1831 4863 
L 2375 4863 
z
" transform="scale(0.015625)"/>
      <path id="DejaVuSans-4c" d="M 603 3500 
L 1178 3500 
L 1178 0 
L 603 0 
L 603 3500 
z
M 603 4863 
L 1178 4863 
L 1178 4134 
L 603 4134 
L 603 4863 
z
" transform="scale(0.015625)"/>
      <path id="DejaVuSans-4d" d="M 603 3500 
L 1178 3500 
L 1178 -63 
Q 1178 -731 923 -1031 
Q 669 -1331 103 -1331 
L -116 -1331 
L -116 -844 
L 38 -844 
Q 366 -844 484 -692 
Q 603 -541 603 -63 
L 603 3500 
z
M 603 4863 
L 1178 4863 
L 1178 4134 
L 603 4134 
L 603 4863 
z
" transform="scale(0.015625)"/>
      <path id="DejaVuSans-47" d="M 2906 2969 
L 2906 4863 
L 3481 4863 
L 3481 0 
L 2906 0 
L 2906 525 
Q 2725 213 2448 61 
Q 2172 -91 1784 -91 
Q 1150 -91 751 415 
Q 353 922 353 1747 
Q 353 2572 751 3078 
Q 1150 3584 1784 3584 
Q 2172 3584 2448 3432 
Q 2725 3281 2906 2969 
z
M 947 1747 
Q 947 1113 1208 752 
Q 1469 391 1925 391 
Q 2381 391 2643 752 
Q 2906 1113 2906 1747 
Q 2906 2381 2643 2742 
Q 2381 3103 1925 3103 
Q 1469 3103 1208 2742 
Q 947 2381 947 1747 
z
" transform="scale(0.015625)"/>
      <path id="DejaVuSans-56" d="M 2834 3397 
L 2834 2853 
Q 2591 2978 2328 3040 
Q 2066 3103 1784 3103 
Q 1356 3103 1142 2972 
Q 928 2841 928 2578 
Q 928 2378 1081 2264 
Q 1234 2150 1697 2047 
L 1894 2003 
Q 2506 1872 2764 1633 
Q 3022 1394 3022 966 
Q 3022 478 2636 193 
Q 2250 -91 1575 -91 
Q 1294 -91 989 -36 
Q 684 19 347 128 
L 347 722 
Q 666 556 975 473 
Q 1284 391 1588 391 
Q 1994 391 2212 530 
Q 2431 669 2431 922 
Q 2431 1156 2273 1281 
Q 2116 1406 1581 1522 
L 1381 1569 
Q 847 1681 609 1914 
Q 372 2147 372 2553 
Q 372 3047 722 3315 
Q 1072 3584 1716 3584 
Q 2034 3584 2315 3537 
Q 2597 3491 2834 3397 
z
" transform="scale(0.015625)"/>
     </defs>
     <use xlink:href="#DejaVuSans-37"/>
     <use xlink:href="#DejaVuSans-52" transform="translate(44.09375 0)"/>
     <use xlink:href="#DejaVuSans-57" transform="translate(105.28125 0)"/>
     <use xlink:href="#DejaVuSans-44" transform="translate(144.484375 0)"/>
     <use xlink:href="#DejaVuSans-44" transform="translate(205.765625 0)"/>
     <use xlink:href="#DejaVuSans-4f" transform="translate(267.046875 0)"/>
     <use xlink:href="#DejaVuSans-3" transform="translate(294.828125 0)"/>
     <use xlink:href="#DejaVuSans-50" transform="translate(326.609375 0)"/>
     <use xlink:href="#DejaVuSans-44" transform="translate(424.015625 0)"/>
     <use xlink:href="#DejaVuSans-51" transform="translate(485.296875 0)"/>
     <use xlink:href="#DejaVuSans-51" transform="translate(548.671875 0)"/>
     <use xlink:href="#DejaVuSans-48" transform="translate(612.046875 0)"/>
     <use xlink:href="#DejaVuSans-51" transform="translate(673.578125 0)"/>
     <use xlink:href="#DejaVuSans-3" transform="translate(736.953125 0)"/>
     <use xlink:href="#DejaVuSans-48" transform="translate(768.734375 0)"/>
     <use xlink:href="#DejaVuSans-51" transform="translate(830.265625 0)"/>
     <use xlink:href="#DejaVuSans-3" transform="translate(893.640625 0)"/>
     <use xlink:href="#DejaVuSans-59" transform="translate(925.421875 0)"/>
     <use xlink:href="#DejaVuSans-55" transform="translate(984.609375 0)"/>
     <use xlink:href="#DejaVuSans-52" transform="translate(1023.515625 0)"/>
     <use xlink:href="#DejaVuSans-58" transform="translate(1084.703125 0)"/>
     <use xlink:href="#DejaVuSans-5a" transform="translate(1148.078125 0)"/>
     <use xlink:href="#DejaVuSans-48" transform="translate(1229.859375 0)"/>
     <use xlink:href="#DejaVuSans-51" transform="translate(1291.390625 0)"/>
     <use xlink:href="#DejaVuSans-f" transform="translate(1354.765625 0)"/>
     <use xlink:href="#DejaVuSans-3" transform="translate(1386.546875 0)"/>
     <use xlink:href="#DejaVuSans-37" transform="translate(1418.328125 0)"/>
     <use xlink:href="#DejaVuSans-52" transform="translate(1462.421875 0)"/>
     <use xlink:href="#DejaVuSans-57" transform="translate(1523.609375 0)"/>
     <use xlink:href="#DejaVuSans-44" transform="translate(1562.8125 0)"/>
     <use xlink:href="#DejaVuSans-44" transform="translate(1624.09375 0)"/>
     <use xlink:href="#DejaVuSans-4f" transform="translate(1685.375 0)"/>
     <use xlink:href="#DejaVuSans-3" transform="translate(1713.15625 0)"/>
     <use xlink:href="#DejaVuSans-4f" transform="translate(1744.9375 0)"/>
     <use xlink:href="#DejaVuSans-48" transform="translate(1772.71875 0)"/>
     <use xlink:href="#DejaVuSans-48" transform="translate(1834.25 0)"/>
     <use xlink:href="#DejaVuSans-49" transform="translate(1895.78125 0)"/>
     <use xlink:href="#DejaVuSans-57" transform="translate(1929.234375 0)"/>
     <use xlink:href="#DejaVuSans-4c" transform="translate(1968.4375 0)"/>
     <use xlink:href="#DejaVuSans-4d" transform="translate(1996.21875 0)"/>
     <use xlink:href="#DejaVuSans-47" transform="translate(2024 0)"/>
     <use xlink:href="#DejaVuSans-f" transform="translate(2087.484375 0)"/>
     <use xlink:href="#DejaVuSans-3" transform="translate(2119.265625 0)"/>
     <use xlink:href="#DejaVuSans-46" transform="translate(2151.046875 0)"/>
     <use xlink:href="#DejaVuSans-52" transform="translate(2206.03125 0)"/>
     <use xlink:href="#DejaVuSans-50" transform="translate(2267.21875 0)"/>
     <use xlink:href="#DejaVuSans-53" transform="translate(2364.625 0)"/>
     <use xlink:href="#DejaVuSans-4f" transform="translate(2428.109375 0)"/>
     <use xlink:href="#DejaVuSans-48" transform="translate(2455.890625 0)"/>
     <use xlink:href="#DejaVuSans-57" transform="translate(2517.421875 0)"/>
     <use xlink:href="#DejaVuSans-48" transform="translate(2556.625 0)"/>
     <use xlink:href="#DejaVuSans-3" transform="translate(2618.15625 0)"/>
     <use xlink:href="#DejaVuSans-56" transform="translate(2649.9375 0)"/>
     <use xlink:href="#DejaVuSans-53" transform="translate(2702.03125 0)"/>
     <use xlink:href="#DejaVuSans-55" transform="translate(2765.515625 0)"/>
     <use xlink:href="#DejaVuSans-48" transform="translate(2804.421875 0)"/>
     <use xlink:href="#DejaVuSans-44" transform="translate(2865.953125 0)"/>
     <use xlink:href="#DejaVuSans-47" transform="translate(2927.234375 0)"/>
     <use xlink:href="#DejaVuSans-3" transform="translate(2990.71875 0)"/>
     <use xlink:href="#DejaVuSans-47" transform="translate(3022.5 0)"/>
     <use xlink:href="#DejaVuSans-4c" transform="translate(3085.984375 0)"/>
     <use xlink:href="#DejaVuSans-56" transform="translate(3113.765625 0)"/>
     <use xlink:href="#DejaVuSans-57" transform="translate(3165.859375 0)"/>
     <use xlink:href="#DejaVuSans-55" transform="translate(3205.0625 0)"/>
     <use xlink:href="#DejaVuSans-4c" transform="translate(3246.171875 0)"/>
     <use xlink:href="#DejaVuSans-45" transform="translate(3273.953125 0)"/>
     <use xlink:href="#DejaVuSans-58" transform="translate(3337.4375 0)"/>
     <use xlink:href="#DejaVuSans-57" transform="translate(3400.8125 0)"/>
     <use xlink:href="#DejaVuSans-4c" transform="translate(3440.015625 0)"/>
     <use xlink:href="#DejaVuSans-52" transform="translate(3467.796875 0)"/>
     <use xlink:href="#DejaVuSans-51" transform="translate(3528.984375 0)"/>
     <use xlink:href="#DejaVuSans-3" transform="translate(3592.359375 0)"/>
     <use xlink:href="#DejaVuSans-44" transform="translate(3624.140625 0)"/>
     <use xlink:href="#DejaVuSans-51" transform="translate(3685.421875 0)"/>
     <use xlink:href="#DejaVuSans-44" transform="translate(3748.796875 0)"/>
     <use xlink:href="#DejaVuSans-4f" transform="translate(3810.078125 0)"/>
     <use xlink:href="#DejaVuSans-5c" transform="translate(3837.859375 0)"/>
     <use xlink:href="#DejaVuSans-56" transform="translate(3897.046875 0)"/>
     <use xlink:href="#DejaVuSans-4c" transform="translate(3949.140625 0)"/>
     <use xlink:href="#DejaVuSans-56" transform="translate(3976.921875 0)"/>
    </g>
   </g>
   <g id="legend_1">
    <g id="patch_4">
     <path d="M 436.85 560.056 
L 585.745312 560.056 
Q 587.745312 560.056 587.745312 558.056 
L 587.745312 424.048969 
Q 587.745312 422.048969 585.745312 422.048969 
L 436.85 422.048969 
Q 434.85 422.048969 434.85 424.048969 
L 434.85 558.056 
Q 434.85 560.056 436.85 560.056 
z
" style="fill: #ffffff; opacity: 0.8; stroke: #e0e0e0; stroke-linejoin: miter"/>
    </g>
    <g id="patch_5">
     <path d="M 438.85 433.647406 
L 458.85 433.647406 
L 458.85 426.647406 
L 438.85 426.647406 
z
" style="fill: #90a4ae; fill-opacity: 0.25; stroke: #90a4ae; stroke-opacity: 0.25; stroke-linejoin: miter"/>
    </g>
    <g id="text_19">
     <!-- Standard Deviation -->
     <g transform="translate(466.85 433.647406) scale(0.1 -0.1)">
      <use xlink:href="#DejaVuSans-36"/>
      <use xlink:href="#DejaVuSans-57" transform="translate(63.484375 0)"/>
      <use xlink:href="#DejaVuSans-44" transform="translate(102.6875 0)"/>
      <use xlink:href="#DejaVuSans-51" transform="translate(163.96875 0)"/>
      <use xlink:href="#DejaVuSans-47" transform="translate(227.34375 0)"/>
      <use xlink:href="#DejaVuSans-44" transform="translate(290.828125 0)"/>
      <use xlink:href="#DejaVuSans-55" transform="translate(352.109375 0)"/>
      <use xlink:href="#DejaVuSans-47" transform="translate(391.46875 0)"/>
      <use xlink:href="#DejaVuSans-3" transform="translate(454.953125 0)"/>
      <use xlink:href="#DejaVuSans-27" transform="translate(486.734375 0)"/>
      <use xlink:href="#DejaVuSans-48" transform="translate(563.734375 0)"/>
      <use xlink:href="#DejaVuSans-59" transform="translate(625.265625 0)"/>
      <use xlink:href="#DejaVuSans-4c" transform="translate(684.453125 0)"/>
      <use xlink:href="#DejaVuSans-44" transform="translate(712.234375 0)"/>
      <use xlink:href="#DejaVuSans-57" transform="translate(773.515625 0)"/>
      <use xlink:href="#DejaVuSans-4c" transform="translate(812.71875 0)"/>
      <use xlink:href="#DejaVuSans-52" transform="translate(840.5 0)"/>
      <use xlink:href="#DejaVuSans-51" transform="translate(901.6875 0)"/>
     </g>
    </g>
    <g id="patch_6">
     <path d="M 438.85 448.648187 
L 458.85 448.648187 
L 458.85 441.648187 
L 438.85 441.648187 
z
" style="fill: #cfd8dc; fill-opacity: 0.1; stroke: #cfd8dc; stroke-opacity: 0.1; stroke-linejoin: miter"/>
    </g>
    <g id="text_20">
     <!-- Historical Range Bound -->
     <g transform="translate(466.85 448.648187) scale(0.1 -0.1)">
      <defs>
       <path id="DejaVuSans-2b" d="M 628 4666 
L 1259 4666 
L 1259 2753 
L 3553 2753 
L 3553 4666 
L 4184 4666 
L 4184 0 
L 3553 0 
L 3553 2222 
L 1259 2222 
L 1259 0 
L 628 0 
L 628 4666 
z
" transform="scale(0.015625)"/>
       <path id="DejaVuSans-35" d="M 2841 2188 
Q 3044 2119 3236 1894 
Q 3428 1669 3622 1275 
L 4263 0 
L 3584 0 
L 2988 1197 
Q 2756 1666 2539 1819 
Q 2322 1972 1947 1972 
L 1259 1972 
L 1259 0 
L 628 0 
L 628 4666 
L 2053 4666 
Q 2853 4666 3247 4331 
Q 3641 3997 3641 3322 
Q 3641 2881 3436 2590 
Q 3231 2300 2841 2188 
z
M 1259 4147 
L 1259 2491 
L 2053 2491 
Q 2509 2491 2742 2702 
Q 2975 2913 2975 3322 
Q 2975 3731 2742 3939 
Q 2509 4147 2053 4147 
L 1259 4147 
z
" transform="scale(0.015625)"/>
       <path id="DejaVuSans-25" d="M 1259 2228 
L 1259 519 
L 2272 519 
Q 2781 519 3026 730 
Q 3272 941 3272 1375 
Q 3272 1813 3026 2020 
Q 2781 2228 2272 2228 
L 1259 2228 
z
M 1259 4147 
L 1259 2741 
L 2194 2741 
Q 2656 2741 2882 2914 
Q 3109 3088 3109 3444 
Q 3109 3797 2882 3972 
Q 2656 4147 2194 4147 
L 1259 4147 
z
M 628 4666 
L 2241 4666 
Q 2963 4666 3353 4366 
Q 3744 4066 3744 3513 
Q 3744 3084 3544 2831 
Q 3344 2578 2956 2516 
Q 3422 2416 3680 2098 
Q 3938 1781 3938 1306 
Q 3938 681 3513 340 
Q 3088 0 2303 0 
L 628 0 
L 628 4666 
z
" transform="scale(0.015625)"/>
      </defs>
      <use xlink:href="#DejaVuSans-2b"/>
      <use xlink:href="#DejaVuSans-4c" transform="translate(75.203125 0)"/>
      <use xlink:href="#DejaVuSans-56" transform="translate(102.984375 0)"/>
      <use xlink:href="#DejaVuSans-57" transform="translate(155.078125 0)"/>
      <use xlink:href="#DejaVuSans-52" transform="translate(194.28125 0)"/>
      <use xlink:href="#DejaVuSans-55" transform="translate(255.46875 0)"/>
      <use xlink:href="#DejaVuSans-4c" transform="translate(296.578125 0)"/>
      <use xlink:href="#DejaVuSans-46" transform="translate(324.359375 0)"/>
      <use xlink:href="#DejaVuSans-44" transform="translate(379.34375 0)"/>
      <use xlink:href="#DejaVuSans-4f" transform="translate(440.625 0)"/>
      <use xlink:href="#DejaVuSans-3" transform="translate(468.40625 0)"/>
      <use xlink:href="#DejaVuSans-35" transform="translate(500.1875 0)"/>
      <use xlink:href="#DejaVuSans-44" transform="translate(567.46875 0)"/>
      <use xlink:href="#DejaVuSans-51" transform="translate(628.75 0)"/>
      <use xlink:href="#DejaVuSans-4a" transform="translate(692.125 0)"/>
      <use xlink:href="#DejaVuSans-48" transform="translate(755.609375 0)"/>
      <use xlink:href="#DejaVuSans-3" transform="translate(817.140625 0)"/>
      <use xlink:href="#DejaVuSans-25" transform="translate(848.921875 0)"/>
      <use xlink:href="#DejaVuSans-52" transform="translate(917.53125 0)"/>
      <use xlink:href="#DejaVuSans-58" transform="translate(978.71875 0)"/>
      <use xlink:href="#DejaVuSans-51" transform="translate(1042.09375 0)"/>
      <use xlink:href="#DejaVuSans-47" transform="translate(1105.46875 0)"/>
     </g>
    </g>
    <g id="line2d_24">
     <path d="M 438.85 460.148969 
L 448.85 460.148969 
L 458.85 460.148969 
" style="fill: none; stroke-dasharray: 4.44,1.92; stroke-dashoffset: 0; stroke: #455a64; stroke-width: 1.2"/>
    </g>
    <g id="text_21">
     <!-- Historical Median -->
     <g transform="translate(466.85 463.648969) scale(0.1 -0.1)">
      <use xlink:href="#DejaVuSans-2b"/>
      <use xlink:href="#DejaVuSans-4c" transform="translate(75.203125 0)"/>
      <use xlink:href="#DejaVuSans-56" transform="translate(102.984375 0)"/>
      <use xlink:href="#DejaVuSans-57" transform="translate(155.078125 0)"/>
      <use xlink:href="#DejaVuSans-52" transform="translate(194.28125 0)"/>
      <use xlink:href="#DejaVuSans-55" transform="translate(255.46875 0)"/>
      <use xlink:href="#DejaVuSans-4c" transform="translate(296.578125 0)"/>
      <use xlink:href="#DejaVuSans-46" transform="translate(324.359375 0)"/>
      <use xlink:href="#DejaVuSans-44" transform="translate(379.34375 0)"/>
      <use xlink:href="#DejaVuSans-4f" transform="translate(440.625 0)"/>
      <use xlink:href="#DejaVuSans-3" transform="translate(468.40625 0)"/>
      <use xlink:href="#DejaVuSans-30" transform="translate(500.1875 0)"/>
      <use xlink:href="#DejaVuSans-48" transform="translate(586.46875 0)"/>
      <use xlink:href="#DejaVuSans-47" transform="translate(648 0)"/>
      <use xlink:href="#DejaVuSans-4c" transform="translate(711.484375 0)"/>
      <use xlink:href="#DejaVuSans-44" transform="translate(739.265625 0)"/>
      <use xlink:href="#DejaVuSans-51" transform="translate(800.546875 0)"/>
     </g>
    </g>
    <g id="line2d_25">
     <path d="M 438.85 475.14975 
L 448.85 475.14975 
L 458.85 475.14975 
" style="fill: none; stroke: #00838f; stroke-opacity: 0.85; stroke-width: 1.3; stroke-linecap: square"/>
    </g>
    <g id="text_22">
     <!-- 2020 (COVID) -->
     <g transform="translate(466.85 478.64975) scale(0.1 -0.1)">
      <defs>
       <path id="DejaVuSans-b" d="M 1984 4856 
Q 1566 4138 1362 3434 
Q 1159 2731 1159 2009 
Q 1159 1288 1364 580 
Q 1569 -128 1984 -844 
L 1484 -844 
Q 1016 -109 783 600 
Q 550 1309 550 2009 
Q 550 2706 781 3412 
Q 1013 4119 1484 4856 
L 1984 4856 
z
" transform="scale(0.015625)"/>
       <path id="DejaVuSans-26" d="M 4122 4306 
L 4122 3641 
Q 3803 3938 3442 4084 
Q 3081 4231 2675 4231 
Q 1875 4231 1450 3742 
Q 1025 3253 1025 2328 
Q 1025 1406 1450 917 
Q 1875 428 2675 428 
Q 3081 428 3442 575 
Q 3803 722 4122 1019 
L 4122 359 
Q 3791 134 3420 21 
Q 3050 -91 2638 -91 
Q 1578 -91 968 557 
Q 359 1206 359 2328 
Q 359 3453 968 4101 
Q 1578 4750 2638 4750 
Q 3056 4750 3426 4639 
Q 3797 4528 4122 4306 
z
" transform="scale(0.015625)"/>
       <path id="DejaVuSans-39" d="M 1831 0 
L 50 4666 
L 709 4666 
L 2188 738 
L 3669 4666 
L 4325 4666 
L 2547 0 
L 1831 0 
z
" transform="scale(0.015625)"/>
       <path id="DejaVuSans-2c" d="M 628 4666 
L 1259 4666 
L 1259 0 
L 628 0 
L 628 4666 
z
" transform="scale(0.015625)"/>
       <path id="DejaVuSans-c" d="M 513 4856 
L 1013 4856 
Q 1481 4119 1714 3412 
Q 1947 2706 1947 2009 
Q 1947 1309 1714 600 
Q 1481 -109 1013 -844 
L 513 -844 
Q 928 -128 1133 580 
Q 1338 1288 1338 2009 
Q 1338 2731 1133 3434 
Q 928 4138 513 4856 
z
" transform="scale(0.015625)"/>
      </defs>
      <use xlink:href="#DejaVuSans-15"/>
      <use xlink:href="#DejaVuSans-13" transform="translate(63.625 0)"/>
      <use xlink:href="#DejaVuSans-15" transform="translate(127.25 0)"/>
      <use xlink:href="#DejaVuSans-13" transform="translate(190.875 0)"/>
      <use xlink:href="#DejaVuSans-3" transform="translate(254.5 0)"/>
      <use xlink:href="#DejaVuSans-b" transform="translate(286.28125 0)"/>
      <use xlink:href="#DejaVuSans-26" transform="translate(325.296875 0)"/>
      <use xlink:href="#DejaVuSans-32" transform="translate(395.125 0)"/>
      <use xlink:href="#DejaVuSans-39" transform="translate(472.09375 0)"/>
      <use xlink:href="#DejaVuSans-2c" transform="translate(540.5 0)"/>
      <use xlink:href="#DejaVuSans-27" transform="translate(570 0)"/>
      <use xlink:href="#DejaVuSans-c" transform="translate(647 0)"/>
     </g>
    </g>
    <g id="line2d_26">
     <path d="M 438.85 490.150531 
L 448.85 490.150531 
L 458.85 490.150531 
" style="fill: none; stroke: #00695c; stroke-opacity: 0.85; stroke-width: 1.3; stroke-linecap: square"/>
    </g>
    <g id="text_23">
     <!-- 2021 (COVID) -->
     <g transform="translate(466.85 493.650531) scale(0.1 -0.1)">
      <use xlink:href="#DejaVuSans-15"/>
      <use xlink:href="#DejaVuSans-13" transform="translate(63.625 0)"/>
      <use xlink:href="#DejaVuSans-15" transform="translate(127.25 0)"/>
      <use xlink:href="#DejaVuSans-14" transform="translate(190.875 0)"/>
      <use xlink:href="#DejaVuSans-3" transform="translate(254.5 0)"/>
      <use xlink:href="#DejaVuSans-b" transform="translate(286.28125 0)"/>
      <use xlink:href="#DejaVuSans-26" transform="translate(325.296875 0)"/>
      <use xlink:href="#DejaVuSans-32" transform="translate(395.125 0)"/>
      <use xlink:href="#DejaVuSans-39" transform="translate(472.09375 0)"/>
      <use xlink:href="#DejaVuSans-2c" transform="translate(540.5 0)"/>
      <use xlink:href="#DejaVuSans-27" transform="translate(570 0)"/>
      <use xlink:href="#DejaVuSans-c" transform="translate(647 0)"/>
     </g>
    </g>
    <g id="line2d_27">
     <path d="M 438.85 505.151312 
L 448.85 505.151312 
L 458.85 505.151312 
" style="fill: none; stroke: #2e7d32; stroke-opacity: 0.85; stroke-width: 1.3; stroke-linecap: square"/>
    </g>
    <g id="text_24">
     <!-- 2022 (COVID) -->
     <g transform="translate(466.85 508.651312) scale(0.1 -0.1)">
      <use xlink:href="#DejaVuSans-15"/>
      <use xlink:href="#DejaVuSans-13" transform="translate(63.625 0)"/>
      <use xlink:href="#DejaVuSans-15" transform="translate(127.25 0)"/>
      <use xlink:href="#DejaVuSans-15" transform="translate(190.875 0)"/>
      <use xlink:href="#DejaVuSans-3" transform="translate(254.5 0)"/>
      <use xlink:href="#DejaVuSans-b" transform="translate(286.28125 0)"/>
      <use xlink:href="#DejaVuSans-26" transform="translate(325.296875 0)"/>
      <use xlink:href="#DejaVuSans-32" transform="translate(395.125 0)"/>
      <use xlink:href="#DejaVuSans-39" transform="translate(472.09375 0)"/>
      <use xlink:href="#DejaVuSans-2c" transform="translate(540.5 0)"/>
      <use xlink:href="#DejaVuSans-27" transform="translate(570 0)"/>
      <use xlink:href="#DejaVuSans-c" transform="translate(647 0)"/>
     </g>
    </g>
    <g id="line2d_28">
     <path d="M 438.85 520.152094 
L 448.85 520.152094 
L 458.85 520.152094 
" style="fill: none; stroke-dasharray: 1.2,1.98; stroke-dashoffset: 0; stroke: #78909c; stroke-width: 1.2"/>
    </g>
    <g id="text_25">
     <!-- 2024 -->
     <g transform="translate(466.85 523.652094) scale(0.1 -0.1)">
      <use xlink:href="#DejaVuSans-15"/>
      <use xlink:href="#DejaVuSans-13" transform="translate(63.625 0)"/>
      <use xlink:href="#DejaVuSans-15" transform="translate(127.25 0)"/>
      <use xlink:href="#DejaVuSans-17" transform="translate(190.875 0)"/>
     </g>
    </g>
    <g id="line2d_29">
     <path d="M 438.85 535.152875 
L 448.85 535.152875 
L 458.85 535.152875 
" style="fill: none; stroke: #37474f; stroke-width: 1.5; stroke-linecap: square"/>
    </g>
    <g id="text_26">
     <!-- 2025 -->
     <g transform="translate(466.85 538.652875) scale(0.1 -0.1)">
      <use xlink:href="#DejaVuSans-15"/>
      <use xlink:href="#DejaVuSans-13" transform="translate(63.625 0)"/>
      <use xlink:href="#DejaVuSans-15" transform="translate(127.25 0)"/>
      <use xlink:href="#DejaVuSans-18" transform="translate(190.875 0)"/>
     </g>
    </g>
    <g id="line2d_30">
     <path d="M 438.85 550.153656 
L 448.85 550.153656 
L 458.85 550.153656 
" style="fill: none; stroke: #d32f2f; stroke-width: 2.5; stroke-linecap: square"/>
    </g>
    <g id="text_27">
     <!-- 2026 -->
     <g transform="translate(466.85 553.653656) scale(0.1 -0.1)">
      <defs>
       <path id="DejaVuSans-19" d="M 2113 2584 
Q 1688 2584 1439 2293 
Q 1191 2003 1191 1497 
Q 1191 994 1439 701 
Q 1688 409 2113 409 
Q 2538 409 2786 701 
Q 3034 994 3034 1497 
Q 3034 2003 2786 2293 
Q 2538 2584 2113 2584 
z
M 3366 4563 
L 3366 3988 
Q 3128 4100 2886 4159 
Q 2644 4219 2406 4219 
Q 1781 4219 1451 3797 
Q 1122 3375 1075 2522 
Q 1259 2794 1537 2939 
Q 1816 3084 2150 3084 
Q 2853 3084 3261 2657 
Q 3669 2231 3669 1497 
Q 3669 778 3244 343 
Q 2819 -91 2113 -91 
Q 1303 -91 875 529 
Q 447 1150 447 2328 
Q 447 3434 972 4092 
Q 1497 4750 2381 4750 
Q 2619 4750 2861 4703 
Q 3103 4656 3366 4563 
z
" transform="scale(0.015625)"/>
      </defs>
      <use xlink:href="#DejaVuSans-15"/>
      <use xlink:href="#DejaVuSans-13" transform="translate(63.625 0)"/>
      <use xlink:href="#DejaVuSans-15" transform="translate(127.25 0)"/>
      <use xlink:href="#DejaVuSans-19" transform="translate(190.875 0)"/>
     </g>
    </g>
   </g>
   <g id="line2d_31">
    <path d="M 260.105313 164.596949 
L 280.952965 149.424135 
L 300.162061 158.603384 
L 317.66152 169.356753 
L 336.006098 176.503136 
L 355.3562 183.125266 
L 371.603301 195.264788 
L 385.043489 210.434434 
L 394.066942 228.652963 
L 394.285522 250.696793 
L 393.777053 270.424996 
L 398.625911 286.977739 
L 399.969921 304.137362 
L 399.856528 321.12 
L 396.866479 337.725812 
L 392.35003 353.715395 
L 386.15334 368.923711 
L 374.235176 381.019973 
L 372.788843 398.899825 
L 359.587849 409.253837 
L 350.20017 422.816071 
L 334.501319 428.901223 
" clip-path="url(#pe439c4ad49)" style="fill: none; stroke: #d32f2f; stroke-width: 2.5; stroke-linecap: square"/>
   </g>
   <g id="line2d_32">
    <path d="M 334.501319 428.901223 
" clip-path="url(#pe439c4ad49)" style="fill: none; stroke: #d32f2f; stroke-width: 1.5; stroke-linecap: square"/>
    <defs>
     <path id="m638c1cdd69" d="M 0 4 
C 1.060812 4 2.078319 3.578535 2.828427 2.828427 
C 3.578535 2.078319 4 1.060812 4 0 
C 4 -1.060812 3.578535 -2.078319 2.828427 -2.828427 
C 2.078319 -3.578535 1.060812 -4 0 -4 
C -1.060812 -4 -2.078319 -3.578535 -2.828427 -2.828427 
C -3.578535 -2.078319 -4 -1.060812 -4 0 
C -4 1.060812 -3.578535 2.078319 -2.828427 2.828427 
C -2.078319 3.578535 -1.060812 4 0 4 
z
" style="stroke: #ffffff; stroke-width: 2"/>
    </defs>
    <g clip-path="url(#pe439c4ad49)">
     <use xlink:href="#m638c1cdd69" x="334.501319" y="428.901223" style="fill: #d32f2f; stroke: #ffffff; stroke-width: 2"/>
    </g>
   </g>
   <g id="text_28">
    <g id="patch_7">
     <path d="M 494.501319 443.303684 
L 560.786319 443.303684 
Q 564.386319 443.303684 564.386319 439.703684 
L 564.386319 418.098762 
Q 564.386319 414.498762 560.786319 414.498762 
L 494.501319 414.498762 
Q 490.901319 414.498762 490.901319 418.098762 
L 490.901319 439.703684 
Q 490.901319 443.303684 494.501319 443.303684 
z
" style="fill: #ffffff; opacity: 0.95; stroke: #d32f2f; stroke-width: 1.2; stroke-linejoin: miter"/>
    </g>
    <!-- Week 22 -->
    <g style="fill: #d32f2f" transform="translate(494.501319 425.838235) scale(0.09 -0.09)">
     <defs>
      <path id="DejaVuSans-Bold-3a" d="M 191 4666 
L 1344 4666 
L 2150 1275 
L 2950 4666 
L 4109 4666 
L 4909 1275 
L 5716 4666 
L 6859 4666 
L 5759 0 
L 4372 0 
L 3525 3547 
L 2688 0 
L 1300 0 
L 191 4666 
z
" transform="scale(0.015625)"/>
      <path id="DejaVuSans-Bold-48" d="M 4031 1759 
L 4031 1441 
L 1416 1441 
Q 1456 1047 1700 850 
Q 1944 653 2381 653 
Q 2734 653 3104 758 
Q 3475 863 3866 1075 
L 3866 213 
Q 3469 63 3072 -14 
Q 2675 -91 2278 -91 
Q 1328 -91 801 392 
Q 275 875 275 1747 
Q 275 2603 792 3093 
Q 1309 3584 2216 3584 
Q 3041 3584 3536 3087 
Q 4031 2591 4031 1759 
z
M 2881 2131 
Q 2881 2450 2695 2645 
Q 2509 2841 2209 2841 
Q 1884 2841 1681 2658 
Q 1478 2475 1428 2131 
L 2881 2131 
z
" transform="scale(0.015625)"/>
      <path id="DejaVuSans-Bold-4e" d="M 538 4863 
L 1656 4863 
L 1656 2216 
L 2944 3500 
L 4244 3500 
L 2534 1894 
L 4378 0 
L 3022 0 
L 1656 1459 
L 1656 0 
L 538 0 
L 538 4863 
z
" transform="scale(0.015625)"/>
      <path id="DejaVuSans-Bold-3" transform="scale(0.015625)"/>
      <path id="DejaVuSans-Bold-15" d="M 1844 884 
L 3897 884 
L 3897 0 
L 506 0 
L 506 884 
L 2209 2388 
Q 2438 2594 2547 2791 
Q 2656 2988 2656 3200 
Q 2656 3528 2436 3728 
Q 2216 3928 1850 3928 
Q 1569 3928 1234 3808 
Q 900 3688 519 3450 
L 519 4475 
Q 925 4609 1322 4679 
Q 1719 4750 2100 4750 
Q 2938 4750 3402 4381 
Q 3866 4013 3866 3353 
Q 3866 2972 3669 2642 
Q 3472 2313 2841 1759 
L 1844 884 
z
" transform="scale(0.015625)"/>
     </defs>
     <use xlink:href="#DejaVuSans-Bold-3a"/>
     <use xlink:href="#DejaVuSans-Bold-48" transform="translate(106.734375 0)"/>
     <use xlink:href="#DejaVuSans-Bold-48" transform="translate(174.5625 0)"/>
     <use xlink:href="#DejaVuSans-Bold-4e" transform="translate(242.390625 0)"/>
     <use xlink:href="#DejaVuSans-Bold-3" transform="translate(308.890625 0)"/>
     <use xlink:href="#DejaVuSans-Bold-15" transform="translate(343.703125 0)"/>
     <use xlink:href="#DejaVuSans-Bold-15" transform="translate(413.28125 0)"/>
    </g>
    <!-- 3,100 deaths -->
    <g style="fill: #d32f2f" transform="translate(494.501319 436.640696) scale(0.09 -0.09)">
     <defs>
      <path id="DejaVuSans-Bold-16" d="M 2981 2516 
Q 3453 2394 3698 2092 
Q 3944 1791 3944 1325 
Q 3944 631 3412 270 
Q 2881 -91 1863 -91 
Q 1503 -91 1142 -33 
Q 781 25 428 141 
L 428 1069 
Q 766 900 1098 814 
Q 1431 728 1753 728 
Q 2231 728 2486 893 
Q 2741 1059 2741 1369 
Q 2741 1688 2480 1852 
Q 2219 2016 1709 2016 
L 1228 2016 
L 1228 2791 
L 1734 2791 
Q 2188 2791 2409 2933 
Q 2631 3075 2631 3366 
Q 2631 3634 2415 3781 
Q 2200 3928 1806 3928 
Q 1516 3928 1219 3862 
Q 922 3797 628 3669 
L 628 4550 
Q 984 4650 1334 4700 
Q 1684 4750 2022 4750 
Q 2931 4750 3382 4451 
Q 3834 4153 3834 3553 
Q 3834 3144 3618 2883 
Q 3403 2622 2981 2516 
z
" transform="scale(0.015625)"/>
      <path id="DejaVuSans-Bold-f" d="M 653 1209 
L 1778 1209 
L 1778 256 
L 1006 -909 
L 341 -909 
L 653 256 
L 653 1209 
z
" transform="scale(0.015625)"/>
      <path id="DejaVuSans-Bold-14" d="M 750 831 
L 1813 831 
L 1813 3847 
L 722 3622 
L 722 4441 
L 1806 4666 
L 2950 4666 
L 2950 831 
L 4013 831 
L 4013 0 
L 750 0 
L 750 831 
z
" transform="scale(0.015625)"/>
      <path id="DejaVuSans-Bold-13" d="M 2944 2338 
Q 2944 3213 2780 3570 
Q 2616 3928 2228 3928 
Q 1841 3928 1675 3570 
Q 1509 3213 1509 2338 
Q 1509 1453 1675 1090 
Q 1841 728 2228 728 
Q 2613 728 2778 1090 
Q 2944 1453 2944 2338 
z
M 4147 2328 
Q 4147 1169 3647 539 
Q 3147 -91 2228 -91 
Q 1306 -91 806 539 
Q 306 1169 306 2328 
Q 306 3491 806 4120 
Q 1306 4750 2228 4750 
Q 3147 4750 3647 4120 
Q 4147 3491 4147 2328 
z
" transform="scale(0.015625)"/>
      <path id="DejaVuSans-Bold-47" d="M 2919 2988 
L 2919 4863 
L 4044 4863 
L 4044 0 
L 2919 0 
L 2919 506 
Q 2688 197 2409 53 
Q 2131 -91 1766 -91 
Q 1119 -91 703 423 
Q 288 938 288 1747 
Q 288 2556 703 3070 
Q 1119 3584 1766 3584 
Q 2128 3584 2408 3439 
Q 2688 3294 2919 2988 
z
M 2181 722 
Q 2541 722 2730 984 
Q 2919 1247 2919 1747 
Q 2919 2247 2730 2509 
Q 2541 2772 2181 2772 
Q 1825 2772 1636 2509 
Q 1447 2247 1447 1747 
Q 1447 1247 1636 984 
Q 1825 722 2181 722 
z
" transform="scale(0.015625)"/>
      <path id="DejaVuSans-Bold-44" d="M 2106 1575 
Q 1756 1575 1579 1456 
Q 1403 1338 1403 1106 
Q 1403 894 1545 773 
Q 1688 653 1941 653 
Q 2256 653 2472 879 
Q 2688 1106 2688 1447 
L 2688 1575 
L 2106 1575 
z
M 3816 1997 
L 3816 0 
L 2688 0 
L 2688 519 
Q 2463 200 2181 54 
Q 1900 -91 1497 -91 
Q 953 -91 614 226 
Q 275 544 275 1050 
Q 275 1666 698 1953 
Q 1122 2241 2028 2241 
L 2688 2241 
L 2688 2328 
Q 2688 2594 2478 2717 
Q 2269 2841 1825 2841 
Q 1466 2841 1156 2769 
Q 847 2697 581 2553 
L 581 3406 
Q 941 3494 1303 3539 
Q 1666 3584 2028 3584 
Q 2975 3584 3395 3211 
Q 3816 2838 3816 1997 
z
" transform="scale(0.015625)"/>
      <path id="DejaVuSans-Bold-57" d="M 1759 4494 
L 1759 3500 
L 2913 3500 
L 2913 2700 
L 1759 2700 
L 1759 1216 
Q 1759 972 1856 886 
Q 1953 800 2241 800 
L 2816 800 
L 2816 0 
L 1856 0 
Q 1194 0 917 276 
Q 641 553 641 1216 
L 641 2700 
L 84 2700 
L 84 3500 
L 641 3500 
L 641 4494 
L 1759 4494 
z
" transform="scale(0.015625)"/>
      <path id="DejaVuSans-Bold-4b" d="M 4056 2131 
L 4056 0 
L 2931 0 
L 2931 347 
L 2931 1625 
Q 2931 2084 2911 2256 
Q 2891 2428 2841 2509 
Q 2775 2619 2662 2680 
Q 2550 2741 2406 2741 
Q 2056 2741 1856 2470 
Q 1656 2200 1656 1722 
L 1656 0 
L 538 0 
L 538 4863 
L 1656 4863 
L 1656 2988 
Q 1909 3294 2193 3439 
Q 2478 3584 2822 3584 
Q 3428 3584 3742 3212 
Q 4056 2841 4056 2131 
z
" transform="scale(0.015625)"/>
      <path id="DejaVuSans-Bold-56" d="M 3272 3391 
L 3272 2541 
Q 2913 2691 2578 2766 
Q 2244 2841 1947 2841 
Q 1628 2841 1473 2761 
Q 1319 2681 1319 2516 
Q 1319 2381 1436 2309 
Q 1553 2238 1856 2203 
L 2053 2175 
Q 2913 2066 3209 1816 
Q 3506 1566 3506 1031 
Q 3506 472 3093 190 
Q 2681 -91 1863 -91 
Q 1516 -91 1145 -36 
Q 775 19 384 128 
L 384 978 
Q 719 816 1070 734 
Q 1422 653 1784 653 
Q 2113 653 2278 743 
Q 2444 834 2444 1013 
Q 2444 1163 2330 1236 
Q 2216 1309 1875 1350 
L 1678 1375 
Q 931 1469 631 1722 
Q 331 1975 331 2491 
Q 331 3047 712 3315 
Q 1094 3584 1881 3584 
Q 2191 3584 2531 3537 
Q 2872 3491 3272 3391 
z
" transform="scale(0.015625)"/>
     </defs>
     <use xlink:href="#DejaVuSans-Bold-16"/>
     <use xlink:href="#DejaVuSans-Bold-f" transform="translate(69.578125 0)"/>
     <use xlink:href="#DejaVuSans-Bold-14" transform="translate(107.5625 0)"/>
     <use xlink:href="#DejaVuSans-Bold-13" transform="translate(177.140625 0)"/>
     <use xlink:href="#DejaVuSans-Bold-13" transform="translate(246.71875 0)"/>
     <use xlink:href="#DejaVuSans-Bold-3" transform="translate(316.296875 0)"/>
     <use xlink:href="#DejaVuSans-Bold-47" transform="translate(351.109375 0)"/>
     <use xlink:href="#DejaVuSans-Bold-48" transform="translate(422.6875 0)"/>
     <use xlink:href="#DejaVuSans-Bold-44" transform="translate(490.515625 0)"/>
     <use xlink:href="#DejaVuSans-Bold-57" transform="translate(558 0)"/>
     <use xlink:href="#DejaVuSans-Bold-4b" transform="translate(605.796875 0)"/>
     <use xlink:href="#DejaVuSans-Bold-56" transform="translate(676.984375 0)"/>
    </g>
   </g>
  </g>
  <g id="text_29">
   <!-- Deaths per week in the Netherlands (Full Dataset) -->
   <g style="fill: #212121" transform="translate(52.084375 17.837812) scale(0.14 -0.14)">
    <defs>
     <path id="DejaVuSans-Bold-27" d="M 1791 3756 
L 1791 909 
L 2222 909 
Q 2959 909 3348 1275 
Q 3738 1641 3738 2338 
Q 3738 3031 3350 3393 
Q 2963 3756 2222 3756 
L 1791 3756 
z
M 588 4666 
L 1856 4666 
Q 2919 4666 3439 4514 
Q 3959 4363 4331 4000 
Q 4659 3684 4818 3271 
Q 4978 2859 4978 2338 
Q 4978 1809 4818 1395 
Q 4659 981 4331 666 
Q 3956 303 3431 151 
Q 2906 0 1856 0 
L 588 0 
L 588 4666 
z
" transform="scale(0.015625)"/>
     <path id="DejaVuSans-Bold-53" d="M 1656 506 
L 1656 -1331 
L 538 -1331 
L 538 3500 
L 1656 3500 
L 1656 2988 
Q 1888 3294 2169 3439 
Q 2450 3584 2816 3584 
Q 3463 3584 3878 3070 
Q 4294 2556 4294 1747 
Q 4294 938 3878 423 
Q 3463 -91 2816 -91 
Q 2450 -91 2169 54 
Q 1888 200 1656 506 
z
M 2400 2772 
Q 2041 2772 1848 2508 
Q 1656 2244 1656 1747 
Q 1656 1250 1848 986 
Q 2041 722 2400 722 
Q 2759 722 2948 984 
Q 3138 1247 3138 1747 
Q 3138 2247 2948 2509 
Q 2759 2772 2400 2772 
z
" transform="scale(0.015625)"/>
     <path id="DejaVuSans-Bold-55" d="M 3138 2547 
Q 2991 2616 2845 2648 
Q 2700 2681 2553 2681 
Q 2122 2681 1889 2404 
Q 1656 2128 1656 1613 
L 1656 0 
L 538 0 
L 538 3500 
L 1656 3500 
L 1656 2925 
Q 1872 3269 2151 3426 
Q 2431 3584 2822 3584 
Q 2878 3584 2943 3579 
Q 3009 3575 3134 3559 
L 3138 2547 
z
" transform="scale(0.015625)"/>
     <path id="DejaVuSans-Bold-5a" d="M 225 3500 
L 1313 3500 
L 1900 1088 
L 2491 3500 
L 3425 3500 
L 4013 1113 
L 4603 3500 
L 5691 3500 
L 4769 0 
L 3547 0 
L 2956 2406 
L 2369 0 
L 1147 0 
L 225 3500 
z
" transform="scale(0.015625)"/>
     <path id="DejaVuSans-Bold-4c" d="M 538 3500 
L 1656 3500 
L 1656 0 
L 538 0 
L 538 3500 
z
M 538 4863 
L 1656 4863 
L 1656 3950 
L 538 3950 
L 538 4863 
z
" transform="scale(0.015625)"/>
     <path id="DejaVuSans-Bold-51" d="M 4056 2131 
L 4056 0 
L 2931 0 
L 2931 347 
L 2931 1631 
Q 2931 2084 2911 2256 
Q 2891 2428 2841 2509 
Q 2775 2619 2662 2680 
Q 2550 2741 2406 2741 
Q 2056 2741 1856 2470 
Q 1656 2200 1656 1722 
L 1656 0 
L 538 0 
L 538 3500 
L 1656 3500 
L 1656 2988 
Q 1909 3294 2193 3439 
Q 2478 3584 2822 3584 
Q 3428 3584 3742 3212 
Q 4056 2841 4056 2131 
z
" transform="scale(0.015625)"/>
     <path id="DejaVuSans-Bold-31" d="M 588 4666 
L 1931 4666 
L 3628 1466 
L 3628 4666 
L 4769 4666 
L 4769 0 
L 3425 0 
L 1728 3200 
L 1728 0 
L 588 0 
L 588 4666 
z
" transform="scale(0.015625)"/>
     <path id="DejaVuSans-Bold-4f" d="M 538 4863 
L 1656 4863 
L 1656 0 
L 538 0 
L 538 4863 
z
" transform="scale(0.015625)"/>
     <path id="DejaVuSans-Bold-b" d="M 2413 -844 
L 1484 -844 
Q 1006 -72 778 623 
Q 550 1319 550 2003 
Q 550 2688 779 3389 
Q 1009 4091 1484 4856 
L 2413 4856 
Q 2013 4116 1813 3408 
Q 1613 2700 1613 2009 
Q 1613 1319 1811 609 
Q 2009 -100 2413 -844 
z
" transform="scale(0.015625)"/>
     <path id="DejaVuSans-Bold-29" d="M 588 4666 
L 3834 4666 
L 3834 3756 
L 1791 3756 
L 1791 2888 
L 3713 2888 
L 3713 1978 
L 1791 1978 
L 1791 0 
L 588 0 
L 588 4666 
z
" transform="scale(0.015625)"/>
     <path id="DejaVuSans-Bold-58" d="M 500 1363 
L 500 3500 
L 1625 3500 
L 1625 3150 
Q 1625 2866 1622 2436 
Q 1619 2006 1619 1863 
Q 1619 1441 1641 1255 
Q 1663 1069 1716 984 
Q 1784 875 1895 815 
Q 2006 756 2150 756 
Q 2500 756 2700 1025 
Q 2900 1294 2900 1772 
L 2900 3500 
L 4019 3500 
L 4019 0 
L 2900 0 
L 2900 506 
Q 2647 200 2364 54 
Q 2081 -91 1741 -91 
Q 1134 -91 817 281 
Q 500 653 500 1363 
z
" transform="scale(0.015625)"/>
     <path id="DejaVuSans-Bold-c" d="M 513 -844 
Q 913 -100 1113 609 
Q 1313 1319 1313 2009 
Q 1313 2700 1113 3408 
Q 913 4116 513 4856 
L 1441 4856 
Q 1916 4091 2145 3389 
Q 2375 2688 2375 2003 
Q 2375 1319 2147 623 
Q 1919 -72 1441 -844 
L 513 -844 
z
" transform="scale(0.015625)"/>
    </defs>
    <use xlink:href="#DejaVuSans-Bold-27"/>
    <use xlink:href="#DejaVuSans-Bold-48" transform="translate(83.015625 0)"/>
    <use xlink:href="#DejaVuSans-Bold-44" transform="translate(150.84375 0)"/>
    <use xlink:href="#DejaVuSans-Bold-57" transform="translate(218.328125 0)"/>
    <use xlink:href="#DejaVuSans-Bold-4b" transform="translate(266.125 0)"/>
    <use xlink:href="#DejaVuSans-Bold-56" transform="translate(337.3125 0)"/>
    <use xlink:href="#DejaVuSans-Bold-3" transform="translate(396.828125 0)"/>
    <use xlink:href="#DejaVuSans-Bold-53" transform="translate(431.640625 0)"/>
    <use xlink:href="#DejaVuSans-Bold-48" transform="translate(503.21875 0)"/>
    <use xlink:href="#DejaVuSans-Bold-55" transform="translate(571.046875 0)"/>
    <use xlink:href="#DejaVuSans-Bold-3" transform="translate(620.359375 0)"/>
    <use xlink:href="#DejaVuSans-Bold-5a" transform="translate(655.171875 0)"/>
    <use xlink:href="#DejaVuSans-Bold-48" transform="translate(747.5625 0)"/>
    <use xlink:href="#DejaVuSans-Bold-48" transform="translate(815.390625 0)"/>
    <use xlink:href="#DejaVuSans-Bold-4e" transform="translate(883.21875 0)"/>
    <use xlink:href="#DejaVuSans-Bold-3" transform="translate(949.71875 0)"/>
    <use xlink:href="#DejaVuSans-Bold-4c" transform="translate(984.53125 0)"/>
    <use xlink:href="#DejaVuSans-Bold-51" transform="translate(1018.8125 0)"/>
    <use xlink:href="#DejaVuSans-Bold-3" transform="translate(1090 0)"/>
    <use xlink:href="#DejaVuSans-Bold-57" transform="translate(1124.8125 0)"/>
    <use xlink:href="#DejaVuSans-Bold-4b" transform="translate(1172.609375 0)"/>
    <use xlink:href="#DejaVuSans-Bold-48" transform="translate(1243.796875 0)"/>
    <use xlink:href="#DejaVuSans-Bold-3" transform="translate(1311.625 0)"/>
    <use xlink:href="#DejaVuSans-Bold-31" transform="translate(1346.4375 0)"/>
    <use xlink:href="#DejaVuSans-Bold-48" transform="translate(1430.125 0)"/>
    <use xlink:href="#DejaVuSans-Bold-57" transform="translate(1497.953125 0)"/>
    <use xlink:href="#DejaVuSans-Bold-4b" transform="translate(1545.75 0)"/>
    <use xlink:href="#DejaVuSans-Bold-48" transform="translate(1616.9375 0)"/>
    <use xlink:href="#DejaVuSans-Bold-55" transform="translate(1684.765625 0)"/>
    <use xlink:href="#DejaVuSans-Bold-4f" transform="translate(1734.078125 0)"/>
    <use xlink:href="#DejaVuSans-Bold-44" transform="translate(1768.359375 0)"/>
    <use xlink:href="#DejaVuSans-Bold-51" transform="translate(1835.84375 0)"/>
    <use xlink:href="#DejaVuSans-Bold-47" transform="translate(1907.03125 0)"/>
    <use xlink:href="#DejaVuSans-Bold-56" transform="translate(1978.609375 0)"/>
    <use xlink:href="#DejaVuSans-Bold-3" transform="translate(2038.125 0)"/>
    <use xlink:href="#DejaVuSans-Bold-b" transform="translate(2072.9375 0)"/>
    <use xlink:href="#DejaVuSans-Bold-29" transform="translate(2118.640625 0)"/>
    <use xlink:href="#DejaVuSans-Bold-58" transform="translate(2181.96875 0)"/>
    <use xlink:href="#DejaVuSans-Bold-4f" transform="translate(2253.15625 0)"/>
    <use xlink:href="#DejaVuSans-Bold-4f" transform="translate(2287.4375 0)"/>
    <use xlink:href="#DejaVuSans-Bold-3" transform="translate(2321.71875 0)"/>
    <use xlink:href="#DejaVuSans-Bold-27" transform="translate(2356.53125 0)"/>
    <use xlink:href="#DejaVuSans-Bold-44" transform="translate(2439.546875 0)"/>
    <use xlink:href="#DejaVuSans-Bold-57" transform="translate(2507.03125 0)"/>
    <use xlink:href="#DejaVuSans-Bold-44" transform="translate(2554.828125 0)"/>
    <use xlink:href="#DejaVuSans-Bold-56" transform="translate(2622.3125 0)"/>
    <use xlink:href="#DejaVuSans-Bold-48" transform="translate(2681.828125 0)"/>
    <use xlink:href="#DejaVuSans-Bold-57" transform="translate(2749.65625 0)"/>
    <use xlink:href="#DejaVuSans-Bold-c" transform="translate(2797.453125 0)"/>
   </g>
  </g>
 </g>
 <defs>
  <clipPath id="pe439c4ad49">
   <path d="M 481.865313 321.12 
C 481.865313 291.998744 476.12906 263.160655 464.984838 236.256122 
C 453.840615 209.351589 437.50515 184.903838 416.913312 164.312 
C 396.321474 143.720162 371.873723 127.384697 344.96919 116.240475 
C 318.064658 105.096253 289.226569 99.36 260.105313 99.36 
C 230.984056 99.36 202.145967 105.096253 175.241435 116.240475 
C 148.336902 127.384697 123.889151 143.720162 103.297313 164.312 
C 82.705475 184.903838 66.37001 209.351589 55.225787 236.256122 
C 44.081565 263.160655 38.345313 291.998744 38.345313 321.12 
C 38.345313 350.241256 44.081565 379.079345 55.225787 405.983878 
C 66.37001 432.888411 82.705475 457.336162 103.297313 477.928 
C 123.889151 498.519838 148.336902 514.855303 175.241435 525.999525 
C 202.145967 537.143747 230.984056 542.88 260.105312 542.88 
C 289.226569 542.88 318.064658 537.143747 344.96919 525.999525 
C 371.873723 514.855303 396.321474 498.519838 416.913312 477.928 
C 437.50515 457.336162 453.840615 432.888411 464.984838 405.983878 
C 476.12906 379.079345 481.865313 350.241256 481.865313 321.12 
M 260.105313 321.12 
C 260.105313 321.12 260.105313 321.12 260.105313 321.12 
C 260.105313 321.12 260.105313 321.12 260.105313 321.12 
C 260.105313 321.12 260.105313 321.12 260.105313 321.12 
C 260.105313 321.12 260.105313 321.12 260.105313 321.12 
C 260.105313 321.12 260.105313 321.12 260.105313 321.12 
C 260.105313 321.12 260.105313 321.12 260.105313 321.12 
C 260.105313 321.12 260.105313 321.12 260.105313 321.12 
C 260.105313 321.12 260.105313 321.12 260.105313 321.12 
C 260.105313 321.12 260.105313 321.12 260.105313 321.12 
C 260.105313 321.12 260.105313 321.12 260.105313 321.12 
C 260.105313 321.12 260.105313 321.12 260.105313 321.12 
C 260.105313 321.12 260.105313 321.12 260.105313 321.12 
C 260.105313 321.12 260.105313 321.12 260.105313 321.12 
C 260.105313 321.12 260.105313 321.12 260.105313 321.12 
C 260.105313 321.12 260.105313 321.12 260.105313 321.12 
C 260.105313 321.12 260.105313 321.12 260.105313 321.12 
z
"/>
  </clipPath>
 </defs>
</svg>
