<?xml version="1.0" encoding="utf-8" standalone="no"?>
<!DOCTYPE svg PUBLIC "-//W3C//DTD SVG 1.1//EN"
  "http://www.w3.org/Graphics/SVG/1.1/DTD/svg11.dtd">
<svg xmlns:xlink="http://www.w3.org/1999/xlink" width="641.429558pt" height="610.43976pt" viewBox="0 0 641.429558 610.43976" xmlns="http://www.w3.org/2000/svg" version="1.1">
 <metadata>
  <rdf:RDF xmlns:dc="http://purl.org/dc/elements/1.1/" xmlns:cc="http://creativecommons.org/ns#" xmlns:rdf="http://www.w3.org/1999/02/22-rdf-syntax-ns#">
   <cc:Work>
    <dc:type rdf:resource="http://purl.org/dc/dcmitype/StillImage"/>
    <dc:date>2026-05-21T12:53:53.118237</dc:date>
    <dc:format>image/svg+xml</dc:format>
    <dc:creator>
     <cc:Agent>
      <dc:title>Matplotlib v3.10.9, https://matplotlib.org/</dc:title>
     </cc:Agent>
    </dc:creator>
   </cc:Work>
  </rdf:RDF>
 </metadata>
 <defs>
  <style type="text/css">*{stroke-linejoin: round; stroke-linecap: butt}</style>
 </defs>
 <g id="figure_1">
  <g id="patch_1">
   <path d="M 0 610.43976 
L 641.429558 610.43976 
L 641.429558 0 
L 0 0 
z
" style="fill: #ffffff"/>
  </g>
  <g id="axes_1">
   <g id="patch_2">
    <path d="M 518.879803 335.685093 
C 518.879803 304.076723 512.653643 272.775704 500.557643 243.573378 
C 488.461644 214.371052 470.731041 187.83533 448.380548 165.484837 
C 426.030055 143.134344 399.494333 125.403741 370.292007 113.307742 
C 341.089681 101.211742 309.788662 94.985582 278.180292 94.985582 
C 246.571922 94.985582 215.270903 101.211742 186.068577 113.307742 
C 156.866251 125.403741 130.330529 143.134344 107.980036 165.484837 
C 85.629543 187.83533 67.89894 214.371052 55.802941 243.573378 
C 43.706941 272.775704 37.480781 304.076723 37.480781 335.685093 
C 37.480781 367.293463 43.706941 398.594482 55.802941 427.796808 
C 67.89894 456.999134 85.629543 483.534856 107.980036 505.885349 
C 130.330529 528.235842 156.866251 545.966445 186.068577 558.062444 
C 215.270903 570.158444 246.571922 576.384604 278.180292 576.384604 
C 309.788662 576.384604 341.089681 570.158444 370.292007 558.062444 
C 399.494333 545.966445 426.030055 528.235842 448.380548 505.885349 
C 470.731041 483.534856 488.461644 456.999134 500.557643 427.796808 
C 512.653643 398.594482 518.879803 367.293463 518.879803 335.685093 
M 278.180292 335.685093 
C 278.180292 335.685093 278.180292 335.685093 278.180292 335.685093 
C 278.180292 335.685093 278.180292 335.685093 278.180292 335.685093 
C 278.180292 335.685093 278.180292 335.685093 278.180292 335.685093 
C 278.180292 335.685093 278.180292 335.685093 278.180292 335.685093 
C 278.180292 335.685093 278.180292 335.685093 278.180292 335.685093 
C 278.180292 335.685093 278.180292 335.685093 278.180292 335.685093 
C 278.180292 335.685093 278.180292 335.685093 278.180292 335.685093 
C 278.180292 335.685093 278.180292 335.685093 278.180292 335.685093 
C 278.180292 335.685093 278.180292 335.685093 278.180292 335.685093 
C 278.180292 335.685093 278.180292 335.685093 278.180292 335.685093 
C 278.180292 335.685093 278.180292 335.685093 278.180292 335.685093 
C 278.180292 335.685093 278.180292 335.685093 278.180292 335.685093 
C 278.180292 335.685093 278.180292 335.685093 278.180292 335.685093 
C 278.180292 335.685093 278.180292 335.685093 278.180292 335.685093 
C 278.180292 335.685093 278.180292 335.685093 278.180292 335.685093 
C 278.180292 335.685093 278.180292 335.685093 278.180292 335.685093 
z
" style="fill: #ffffff"/>
   </g>
   <g id="FillBetweenPolyCollection_1">
    <defs>
     <path id="mb6a2bed89c" d="M 278.180292 -387.215134 
L 278.180292 -429.090765 
L 296.643664 -426.814221 
L 313.975936 -419.983303 
L 330.955434 -413.911279 
L 347.344778 -406.536585 
L 362.025684 -396.225689 
L 376.458365 -385.687679 
L 389.141936 -373.058105 
L 399.867732 -358.749442 
L 409.613179 -343.735967 
L 412.781319 -325.802103 
L 416.60826 -308.874097 
L 420.851075 -292.078036 
L 422.910846 -274.754667 
L 418.879141 -257.670734 
L 411.831248 -241.812665 
L 403.346741 -227.285294 
L 392.75408 -214.621704 
L 383.614161 -201.978922 
L 373.405284 -190.392685 
L 361.443457 -180.769982 
L 349.293193 -171.729844 
L 336.20961 -164.189039 
L 322.388304 -158.187718 
L 308.088149 -153.413719 
L 293.228372 -150.822581 
L 278.180292 -148.627323 
L 263.1791 -151.208735 
L 248.578338 -154.654818 
L 233.476315 -156.879967 
L 220.953687 -165.718482 
L 208.538185 -173.860656 
L 195.50537 -181.433971 
L 186.271117 -193.330243 
L 179.045406 -206.326796 
L 170.237089 -218.101704 
L 164.522691 -231.650024 
L 158.549042 -245.268212 
L 153.397134 -259.603248 
L 150.219106 -274.754667 
L 149.8627 -290.335243 
L 151.054591 -306.088338 
L 153.731309 -321.95194 
L 159.660087 -336.958869 
L 167.054877 -351.459003 
L 175.996354 -365.281736 
L 186.312032 -378.452496 
L 197.324666 -391.894264 
L 210.776191 -403.182451 
L 225.581776 -413.445555 
L 242.04097 -421.377658 
L 260.191627 -422.904647 
L 278.180292 -429.090765 
L 278.180292 -387.215134 
L 278.180292 -387.215134 
L 264.960854 -383.626533 
L 252.116673 -380.498927 
L 240.57767 -373.904632 
L 230.163553 -366.242919 
L 220.077063 -358.931727 
L 210.499384 -351.150619 
L 202.835282 -341.504521 
L 196.169173 -331.362855 
L 190.044386 -321.011958 
L 185.005018 -310.091387 
L 181.29525 -298.634685 
L 180.787302 -286.580317 
L 179.643527 -274.754667 
L 182.556384 -263.143822 
L 183.762408 -251.482749 
L 188.262512 -240.653351 
L 194.987743 -231.091849 
L 200.600643 -221.205301 
L 207.980726 -212.563278 
L 214.674142 -203.071042 
L 224.005677 -196.269187 
L 233.489404 -189.603294 
L 244.561972 -186.110441 
L 255.140793 -181.279745 
L 266.332394 -177.178451 
L 278.180292 -173.878826 
L 290.11536 -176.460534 
L 301.813731 -178.870034 
L 313.331093 -182.069622 
L 324.187808 -187.094668 
L 335.39379 -191.866605 
L 344.011758 -200.446303 
L 353.38883 -208.125716 
L 361.412089 -217.303906 
L 366.869751 -228.206848 
L 372.725708 -238.89832 
L 376.136352 -250.610666 
L 376.641169 -262.799352 
L 378.119415 -274.754667 
L 381.146343 -287.257009 
L 380.713832 -300.026915 
L 377.650261 -312.47865 
L 373.007712 -324.523936 
L 367.117641 -336.143686 
L 359.158094 -346.494739 
L 349.664878 -355.444084 
L 339.782157 -364.000376 
L 328.588541 -370.799561 
L 316.429351 -375.609148 
L 304.502992 -381.550057 
L 291.590692 -385.199244 
L 278.180292 -387.215134 
z
" style="stroke: #90a4ae; stroke-opacity: 0.25"/>
    </defs>
    <g clip-path="url(#pe78e5c00cc)">
     <use xlink:href="#mb6a2bed89c" x="0" y="610.43976" style="fill: #90a4ae; fill-opacity: 0.25; stroke: #90a4ae; stroke-opacity: 0.25"/>
    </g>
   </g>
   <g id="FillBetweenPolyCollection_2">
    <defs>
     <path id="m7b5d0fb757" d="M 278.180292 -464.821624 
L 278.180292 -374.992633 
L 290.201845 -373.761063 
L 302.037123 -371.545635 
L 311.578814 -362.819331 
L 324.081288 -362.211709 
L 333.064128 -354.267631 
L 342.126563 -346.935086 
L 349.536969 -337.971166 
L 358.900857 -330.47205 
L 362.429764 -318.972201 
L 366.587953 -308.28327 
L 371.008796 -297.634838 
L 371.496665 -286.085326 
L 371.12739 -274.754667 
L 372.498109 -263.30241 
L 365.48806 -253.235235 
L 363.801097 -242.282979 
L 361.739527 -230.899397 
L 353.051541 -223.074775 
L 346.791161 -213.970741 
L 336.410016 -209.026896 
L 329.964377 -199.732468 
L 319.64888 -195.742873 
L 310.489378 -189.562609 
L 299.732645 -187.313332 
L 289.030089 -185.398549 
L 278.180292 -185.017385 
L 267.72845 -188.676002 
L 257.07786 -189.138737 
L 248.375282 -196.165315 
L 237.436232 -197.123347 
L 228.740557 -203.128845 
L 218.703874 -207.619669 
L 216.365297 -219.99136 
L 205.309132 -224.455337 
L 204.446778 -236.056334 
L 196.932708 -243.941523 
L 190.338259 -253.10355 
L 191.646426 -264.247553 
L 186.150284 -274.754667 
L 188.505533 -285.643154 
L 188.690943 -296.811811 
L 193.245482 -306.966191 
L 194.580455 -318.631246 
L 201.875017 -327.424395 
L 208.059228 -336.876508 
L 215.63275 -345.356247 
L 225.041694 -351.739217 
L 233.21692 -360.425214 
L 244.505346 -363.548201 
L 254.696567 -370.031885 
L 266.169793 -373.670023 
L 278.180292 -374.992633 
L 278.180292 -464.821624 
L 278.180292 -464.821624 
L 255.325523 -462.98062 
L 232.112686 -461.658293 
L 212.277562 -448.525885 
L 184.993171 -452.307891 
L 163.697871 -440.611087 
L 150.713449 -418.634989 
L 140.718295 -396.535369 
L 135.230549 -373.42575 
L 128.480146 -353.323364 
L 130.348276 -330.819955 
L 128.096413 -311.747021 
L 125.869762 -293.248513 
L 125.530617 -274.754667 
L 132.197068 -257.029094 
L 139.67215 -240.615476 
L 147.969784 -225.372335 
L 151.501568 -208.268544 
L 161.684554 -194.343465 
L 173.805278 -182.286473 
L 180.603694 -164.613456 
L 200.399971 -162.070419 
L 214.016921 -152.501578 
L 227.188197 -140.299562 
L 243.240021 -132.996414 
L 260.858201 -132.094416 
L 278.180292 -132.23884 
L 295.358677 -133.277941 
L 312.703562 -134.688252 
L 330.343124 -137.212582 
L 344.048435 -149.253406 
L 359.320847 -157.202278 
L 373.658795 -166.981716 
L 387.909631 -177.542955 
L 396.223269 -193.275483 
L 415.537382 -202.664105 
L 445.820426 -211.17715 
L 469.981345 -227.479953 
L 504.961839 -247.218402 
L 511.350491 -274.754667 
L 481.109264 -299.394705 
L 439.839908 -314.600184 
L 438.231602 -335.454122 
L 444.32431 -361.953774 
L 426.752926 -377.306952 
L 419.211839 -399.697715 
L 399.626516 -411.839115 
L 381.357737 -424.233002 
L 363.866414 -438.015932 
L 343.839119 -447.882765 
L 320.571708 -446.743402 
L 300.012538 -454.559386 
L 278.180292 -464.821624 
z
" style="stroke: #cfd8dc; stroke-opacity: 0.1"/>
    </defs>
    <g clip-path="url(#pe78e5c00cc)">
     <use xlink:href="#m7b5d0fb757" x="0" y="610.43976" style="fill: #cfd8dc; fill-opacity: 0.1; stroke: #cfd8dc; stroke-opacity: 0.1"/>
    </g>
   </g>
   <g id="matplotlib.axis_1">
    <g id="xtick_1">
     <g id="line2d_1">
      <path d="M 278.180292 335.685093 
L 278.180292 94.985582 
" clip-path="url(#pe78e5c00cc)" style="fill: none; stroke-dasharray: 1.85,0.8; stroke-dashoffset: 0; stroke: #e5e5e5; stroke-width: 0.5"/>
     </g>
     <g id="text_1">
      <!-- Jan -->
      <g style="fill: #333333" transform="translate(271.243261 74.96902) scale(0.09 -0.09)">
       <defs>
        <path id="DejaVuSans-4a" d="M 628 4666 
L 1259 4666 
L 1259 325 
Q 1259 -519 939 -900 
Q 619 -1281 -91 -1281 
L -331 -1281 
L -331 -750 
L -134 -750 
Q 284 -750 456 -515 
Q 628 -281 628 325 
L 628 4666 
z
" transform="scale(0.015625)"/>
        <path id="DejaVuSans-61" d="M 2194 1759 
Q 1497 1759 1228 1600 
Q 959 1441 959 1056 
Q 959 750 1161 570 
Q 1363 391 1709 391 
Q 2188 391 2477 730 
Q 2766 1069 2766 1631 
L 2766 1759 
L 2194 1759 
z
M 3341 1997 
L 3341 0 
L 2766 0 
L 2766 531 
Q 2569 213 2275 61 
Q 1981 -91 1556 -91 
Q 1019 -91 701 211 
Q 384 513 384 1019 
Q 384 1609 779 1909 
Q 1175 2209 1959 2209 
L 2766 2209 
L 2766 2266 
Q 2766 2663 2505 2880 
Q 2244 3097 1772 3097 
Q 1472 3097 1187 3025 
Q 903 2953 641 2809 
L 641 3341 
Q 956 3463 1253 3523 
Q 1550 3584 1831 3584 
Q 2591 3584 2966 3190 
Q 3341 2797 3341 1997 
z
" transform="scale(0.015625)"/>
        <path id="DejaVuSans-6e" d="M 3513 2113 
L 3513 0 
L 2938 0 
L 2938 2094 
Q 2938 2591 2744 2837 
Q 2550 3084 2163 3084 
Q 1697 3084 1428 2787 
Q 1159 2491 1159 1978 
L 1159 0 
L 581 0 
L 581 3500 
L 1159 3500 
L 1159 2956 
Q 1366 3272 1645 3428 
Q 1925 3584 2291 3584 
Q 2894 3584 3203 3211 
Q 3513 2838 3513 2113 
z
" transform="scale(0.015625)"/>
       </defs>
       <use xlink:href="#DejaVuSans-4a"/>
       <use xlink:href="#DejaVuSans-61" transform="translate(29.492188 0)"/>
       <use xlink:href="#DejaVuSans-6e" transform="translate(90.771484 0)"/>
      </g>
     </g>
    </g>
    <g id="xtick_2">
     <g id="line2d_2">
      <path d="M 278.180292 335.685093 
L 398.530047 127.233202 
" clip-path="url(#pe78e5c00cc)" style="fill: none; stroke-dasharray: 1.85,0.8; stroke-dashoffset: 0; stroke: #e5e5e5; stroke-width: 0.5"/>
     </g>
     <g id="text_2">
      <!-- Feb -->
      <g style="fill: #333333" transform="translate(401.813641 110.231068) scale(0.09 -0.09)">
       <defs>
        <path id="DejaVuSans-46" d="M 628 4666 
L 3309 4666 
L 3309 4134 
L 1259 4134 
L 1259 2759 
L 3109 2759 
L 3109 2228 
L 1259 2228 
L 1259 0 
L 628 0 
L 628 4666 
z
" transform="scale(0.015625)"/>
        <path id="DejaVuSans-65" d="M 3597 1894 
L 3597 1613 
L 953 1613 
Q 991 1019 1311 708 
Q 1631 397 2203 397 
Q 2534 397 2845 478 
Q 3156 559 3463 722 
L 3463 178 
Q 3153 47 2828 -22 
Q 2503 -91 2169 -91 
Q 1331 -91 842 396 
Q 353 884 353 1716 
Q 353 2575 817 3079 
Q 1281 3584 2069 3584 
Q 2775 3584 3186 3129 
Q 3597 2675 3597 1894 
z
M 3022 2063 
Q 3016 2534 2758 2815 
Q 2500 3097 2075 3097 
Q 1594 3097 1305 2825 
Q 1016 2553 972 2059 
L 3022 2063 
z
" transform="scale(0.015625)"/>
        <path id="DejaVuSans-62" d="M 3116 1747 
Q 3116 2381 2855 2742 
Q 2594 3103 2138 3103 
Q 1681 3103 1420 2742 
Q 1159 2381 1159 1747 
Q 1159 1113 1420 752 
Q 1681 391 2138 391 
Q 2594 391 2855 752 
Q 3116 1113 3116 1747 
z
M 1159 2969 
Q 1341 3281 1617 3432 
Q 1894 3584 2278 3584 
Q 2916 3584 3314 3078 
Q 3713 2572 3713 1747 
Q 3713 922 3314 415 
Q 2916 -91 2278 -91 
Q 1894 -91 1617 61 
Q 1341 213 1159 525 
L 1159 0 
L 581 0 
L 581 4863 
L 1159 4863 
L 1159 2969 
z
" transform="scale(0.015625)"/>
       </defs>
       <use xlink:href="#DejaVuSans-46"/>
       <use xlink:href="#DejaVuSans-65" transform="translate(52.019531 0)"/>
       <use xlink:href="#DejaVuSans-62" transform="translate(113.542969 0)"/>
      </g>
     </g>
    </g>
    <g id="xtick_3">
     <g id="line2d_3">
      <path d="M 278.180292 335.685093 
L 486.632183 215.335338 
" clip-path="url(#pe78e5c00cc)" style="fill: none; stroke-dasharray: 1.85,0.8; stroke-dashoffset: 0; stroke: #e5e5e5; stroke-width: 0.5"/>
     </g>
     <g id="text_3">
      <!-- Mar -->
      <g style="fill: #333333" transform="translate(497.62752 206.568775) scale(0.09 -0.09)">
       <defs>
        <path id="DejaVuSans-4d" d="M 628 4666 
L 1569 4666 
L 2759 1491 
L 3956 4666 
L 4897 4666 
L 4897 0 
L 4281 0 
L 4281 4097 
L 3078 897 
L 2444 897 
L 1241 4097 
L 1241 0 
L 628 0 
L 628 4666 
z
" transform="scale(0.015625)"/>
        <path id="DejaVuSans-72" d="M 2631 2963 
Q 2534 3019 2420 3045 
Q 2306 3072 2169 3072 
Q 1681 3072 1420 2755 
Q 1159 2438 1159 1844 
L 1159 0 
L 581 0 
L 581 3500 
L 1159 3500 
L 1159 2956 
Q 1341 3275 1631 3429 
Q 1922 3584 2338 3584 
Q 2397 3584 2469 3576 
Q 2541 3569 2628 3553 
L 2631 2963 
z
" transform="scale(0.015625)"/>
       </defs>
       <use xlink:href="#DejaVuSans-4d"/>
       <use xlink:href="#DejaVuSans-61" transform="translate(86.279297 0)"/>
       <use xlink:href="#DejaVuSans-72" transform="translate(147.558594 0)"/>
      </g>
     </g>
    </g>
    <g id="xtick_4">
     <g id="line2d_4">
      <path d="M 278.180292 335.685093 
L 518.879803 335.685093 
" clip-path="url(#pe78e5c00cc)" style="fill: none; stroke-dasharray: 1.85,0.8; stroke-dashoffset: 0; stroke: #e5e5e5; stroke-width: 0.5"/>
     </g>
     <g id="text_4">
      <!-- Apr -->
      <g style="fill: #333333" transform="translate(533.594803 338.168531) scale(0.09 -0.09)">
       <defs>
        <path id="DejaVuSans-41" d="M 2188 4044 
L 1331 1722 
L 3047 1722 
L 2188 4044 
z
M 1831 4666 
L 2547 4666 
L 4325 0 
L 3669 0 
L 3244 1197 
L 1141 1197 
L 716 0 
L 50 0 
L 1831 4666 
z
" transform="scale(0.015625)"/>
        <path id="DejaVuSans-70" d="M 1159 525 
L 1159 -1331 
L 581 -1331 
L 581 3500 
L 1159 3500 
L 1159 2969 
Q 1341 3281 1617 3432 
Q 1894 3584 2278 3584 
Q 2916 3584 3314 3078 
Q 3713 2572 3713 1747 
Q 3713 922 3314 415 
Q 2916 -91 2278 -91 
Q 1894 -91 1617 61 
Q 1341 213 1159 525 
z
M 3116 1747 
Q 3116 2381 2855 2742 
Q 2594 3103 2138 3103 
Q 1681 3103 1420 2742 
Q 1159 2381 1159 1747 
Q 1159 1113 1420 752 
Q 1681 391 2138 391 
Q 2594 391 2855 752 
Q 3116 1113 3116 1747 
z
" transform="scale(0.015625)"/>
       </defs>
       <use xlink:href="#DejaVuSans-41"/>
       <use xlink:href="#DejaVuSans-70" transform="translate(68.408203 0)"/>
       <use xlink:href="#DejaVuSans-72" transform="translate(131.884766 0)"/>
      </g>
     </g>
    </g>
    <g id="xtick_5">
     <g id="line2d_5">
      <path d="M 278.180292 335.685093 
L 486.632183 456.034848 
" clip-path="url(#pe78e5c00cc)" style="fill: none; stroke-dasharray: 1.85,0.8; stroke-dashoffset: 0; stroke: #e5e5e5; stroke-width: 0.5"/>
     </g>
     <g id="text_5">
      <!-- May -->
      <g style="fill: #333333" transform="translate(496.814004 469.768286) scale(0.09 -0.09)">
       <defs>
        <path id="DejaVuSans-79" d="M 2059 -325 
Q 1816 -950 1584 -1140 
Q 1353 -1331 966 -1331 
L 506 -1331 
L 506 -850 
L 844 -850 
Q 1081 -850 1212 -737 
Q 1344 -625 1503 -206 
L 1606 56 
L 191 3500 
L 800 3500 
L 1894 763 
L 2988 3500 
L 3597 3500 
L 2059 -325 
z
" transform="scale(0.015625)"/>
       </defs>
       <use xlink:href="#DejaVuSans-4d"/>
       <use xlink:href="#DejaVuSans-61" transform="translate(86.279297 0)"/>
       <use xlink:href="#DejaVuSans-79" transform="translate(147.558594 0)"/>
      </g>
     </g>
    </g>
    <g id="xtick_6">
     <g id="line2d_6">
      <path d="M 278.180292 335.685093 
L 398.530047 544.136984 
" clip-path="url(#pe78e5c00cc)" style="fill: none; stroke-dasharray: 1.85,0.8; stroke-dashoffset: 0; stroke: #e5e5e5; stroke-width: 0.5"/>
     </g>
     <g id="text_6">
      <!-- Jun -->
      <g style="fill: #333333" transform="translate(402.748797 566.105993) scale(0.09 -0.09)">
       <defs>
        <path id="DejaVuSans-75" d="M 544 1381 
L 544 3500 
L 1119 3500 
L 1119 1403 
Q 1119 906 1312 657 
Q 1506 409 1894 409 
Q 2359 409 2629 706 
Q 2900 1003 2900 1516 
L 2900 3500 
L 3475 3500 
L 3475 0 
L 2900 0 
L 2900 538 
Q 2691 219 2414 64 
Q 2138 -91 1772 -91 
Q 1169 -91 856 284 
Q 544 659 544 1381 
z
M 1991 3584 
L 1991 3584 
z
" transform="scale(0.015625)"/>
       </defs>
       <use xlink:href="#DejaVuSans-4a"/>
       <use xlink:href="#DejaVuSans-75" transform="translate(29.492188 0)"/>
       <use xlink:href="#DejaVuSans-6e" transform="translate(92.871094 0)"/>
      </g>
     </g>
    </g>
    <g id="xtick_7">
     <g id="line2d_7">
      <path d="M 278.180292 335.685093 
L 278.180292 576.384604 
" clip-path="url(#pe78e5c00cc)" style="fill: none; stroke-dasharray: 1.85,0.8; stroke-dashoffset: 0; stroke: #e5e5e5; stroke-width: 0.5"/>
     </g>
     <g id="text_7">
      <!-- Jul -->
      <g style="fill: #333333" transform="translate(272.750761 601.368041) scale(0.09 -0.09)">
       <defs>
        <path id="DejaVuSans-6c" d="M 603 4863 
L 1178 4863 
L 1178 0 
L 603 0 
L 603 4863 
z
" transform="scale(0.015625)"/>
       </defs>
       <use xlink:href="#DejaVuSans-4a"/>
       <use xlink:href="#DejaVuSans-75" transform="translate(29.492188 0)"/>
       <use xlink:href="#DejaVuSans-6c" transform="translate(92.871094 0)"/>
      </g>
     </g>
    </g>
    <g id="xtick_8">
     <g id="line2d_8">
      <path d="M 278.180292 335.685093 
L 157.830537 544.136984 
" clip-path="url(#pe78e5c00cc)" style="fill: none; stroke-dasharray: 1.85,0.8; stroke-dashoffset: 0; stroke: #e5e5e5; stroke-width: 0.5"/>
     </g>
     <g id="text_8">
      <!-- Aug -->
      <g style="fill: #333333" transform="translate(137.793583 566.105993) scale(0.09 -0.09)">
       <defs>
        <path id="DejaVuSans-67" d="M 2906 1791 
Q 2906 2416 2648 2759 
Q 2391 3103 1925 3103 
Q 1463 3103 1205 2759 
Q 947 2416 947 1791 
Q 947 1169 1205 825 
Q 1463 481 1925 481 
Q 2391 481 2648 825 
Q 2906 1169 2906 1791 
z
M 3481 434 
Q 3481 -459 3084 -895 
Q 2688 -1331 1869 -1331 
Q 1566 -1331 1297 -1286 
Q 1028 -1241 775 -1147 
L 775 -588 
Q 1028 -725 1275 -790 
Q 1522 -856 1778 -856 
Q 2344 -856 2625 -561 
Q 2906 -266 2906 331 
L 2906 616 
Q 2728 306 2450 153 
Q 2172 0 1784 0 
Q 1141 0 747 490 
Q 353 981 353 1791 
Q 353 2603 747 3093 
Q 1141 3584 1784 3584 
Q 2172 3584 2450 3431 
Q 2728 3278 2906 2969 
L 2906 3500 
L 3481 3500 
L 3481 434 
z
" transform="scale(0.015625)"/>
       </defs>
       <use xlink:href="#DejaVuSans-41"/>
       <use xlink:href="#DejaVuSans-75" transform="translate(68.408203 0)"/>
       <use xlink:href="#DejaVuSans-67" transform="translate(131.787109 0)"/>
      </g>
     </g>
    </g>
    <g id="xtick_9">
     <g id="line2d_9">
      <path d="M 278.180292 335.685093 
L 69.728401 456.034848 
" clip-path="url(#pe78e5c00cc)" style="fill: none; stroke-dasharray: 1.85,0.8; stroke-dashoffset: 0; stroke: #e5e5e5; stroke-width: 0.5"/>
     </g>
     <g id="text_9">
      <!-- Sept -->
      <g style="fill: #333333" transform="translate(39.996189 469.768286) scale(0.09 -0.09)">
       <defs>
        <path id="DejaVuSans-53" d="M 3425 4513 
L 3425 3897 
Q 3066 4069 2747 4153 
Q 2428 4238 2131 4238 
Q 1616 4238 1336 4038 
Q 1056 3838 1056 3469 
Q 1056 3159 1242 3001 
Q 1428 2844 1947 2747 
L 2328 2669 
Q 3034 2534 3370 2195 
Q 3706 1856 3706 1288 
Q 3706 609 3251 259 
Q 2797 -91 1919 -91 
Q 1588 -91 1214 -16 
Q 841 59 441 206 
L 441 856 
Q 825 641 1194 531 
Q 1563 422 1919 422 
Q 2459 422 2753 634 
Q 3047 847 3047 1241 
Q 3047 1584 2836 1778 
Q 2625 1972 2144 2069 
L 1759 2144 
Q 1053 2284 737 2584 
Q 422 2884 422 3419 
Q 422 4038 858 4394 
Q 1294 4750 2059 4750 
Q 2388 4750 2728 4690 
Q 3069 4631 3425 4513 
z
" transform="scale(0.015625)"/>
        <path id="DejaVuSans-74" d="M 1172 4494 
L 1172 3500 
L 2356 3500 
L 2356 3053 
L 1172 3053 
L 1172 1153 
Q 1172 725 1289 603 
Q 1406 481 1766 481 
L 2356 481 
L 2356 0 
L 1766 0 
Q 1100 0 847 248 
Q 594 497 594 1153 
L 594 3053 
L 172 3053 
L 172 3500 
L 594 3500 
L 594 4494 
L 1172 4494 
z
" transform="scale(0.015625)"/>
       </defs>
       <use xlink:href="#DejaVuSans-53"/>
       <use xlink:href="#DejaVuSans-65" transform="translate(63.476562 0)"/>
       <use xlink:href="#DejaVuSans-70" transform="translate(125 0)"/>
       <use xlink:href="#DejaVuSans-74" transform="translate(188.476562 0)"/>
      </g>
     </g>
    </g>
    <g id="xtick_10">
     <g id="line2d_10">
      <path d="M 278.180292 335.685093 
L 37.480781 335.685093 
" clip-path="url(#pe78e5c00cc)" style="fill: none; stroke-dasharray: 1.85,0.8; stroke-dashoffset: 0; stroke: #e5e5e5; stroke-width: 0.5"/>
     </g>
     <g id="text_10">
      <!-- Oct -->
      <g style="fill: #333333" transform="translate(7.2 338.168531) scale(0.09 -0.09)">
       <defs>
        <path id="DejaVuSans-4f" d="M 2522 4238 
Q 1834 4238 1429 3725 
Q 1025 3213 1025 2328 
Q 1025 1447 1429 934 
Q 1834 422 2522 422 
Q 3209 422 3611 934 
Q 4013 1447 4013 2328 
Q 4013 3213 3611 3725 
Q 3209 4238 2522 4238 
z
M 2522 4750 
Q 3503 4750 4090 4092 
Q 4678 3434 4678 2328 
Q 4678 1225 4090 567 
Q 3503 -91 2522 -91 
Q 1538 -91 948 565 
Q 359 1222 359 2328 
Q 359 3434 948 4092 
Q 1538 4750 2522 4750 
z
" transform="scale(0.015625)"/>
        <path id="DejaVuSans-63" d="M 3122 3366 
L 3122 2828 
Q 2878 2963 2633 3030 
Q 2388 3097 2138 3097 
Q 1578 3097 1268 2742 
Q 959 2388 959 1747 
Q 959 1106 1268 751 
Q 1578 397 2138 397 
Q 2388 397 2633 464 
Q 2878 531 3122 666 
L 3122 134 
Q 2881 22 2623 -34 
Q 2366 -91 2075 -91 
Q 1284 -91 818 406 
Q 353 903 353 1747 
Q 353 2603 823 3093 
Q 1294 3584 2113 3584 
Q 2378 3584 2631 3529 
Q 2884 3475 3122 3366 
z
" transform="scale(0.015625)"/>
       </defs>
       <use xlink:href="#DejaVuSans-4f"/>
       <use xlink:href="#DejaVuSans-63" transform="translate(78.710938 0)"/>
       <use xlink:href="#DejaVuSans-74" transform="translate(133.691406 0)"/>
      </g>
     </g>
    </g>
    <g id="xtick_11">
     <g id="line2d_11">
      <path d="M 278.180292 335.685093 
L 69.728401 215.335338 
" clip-path="url(#pe78e5c00cc)" style="fill: none; stroke-dasharray: 1.85,0.8; stroke-dashoffset: 0; stroke: #e5e5e5; stroke-width: 0.5"/>
     </g>
     <g id="text_11">
      <!-- Nov -->
      <g style="fill: #333333" transform="translate(41.459392 206.568775) scale(0.09 -0.09)">
       <defs>
        <path id="DejaVuSans-4e" d="M 628 4666 
L 1478 4666 
L 3547 763 
L 3547 4666 
L 4159 4666 
L 4159 0 
L 3309 0 
L 1241 3903 
L 1241 0 
L 628 0 
L 628 4666 
z
" transform="scale(0.015625)"/>
        <path id="DejaVuSans-6f" d="M 1959 3097 
Q 1497 3097 1228 2736 
Q 959 2375 959 1747 
Q 959 1119 1226 758 
Q 1494 397 1959 397 
Q 2419 397 2687 759 
Q 2956 1122 2956 1747 
Q 2956 2369 2687 2733 
Q 2419 3097 1959 3097 
z
M 1959 3584 
Q 2709 3584 3137 3096 
Q 3566 2609 3566 1747 
Q 3566 888 3137 398 
Q 2709 -91 1959 -91 
Q 1206 -91 779 398 
Q 353 888 353 1747 
Q 353 2609 779 3096 
Q 1206 3584 1959 3584 
z
" transform="scale(0.015625)"/>
        <path id="DejaVuSans-76" d="M 191 3500 
L 800 3500 
L 1894 563 
L 2988 3500 
L 3597 3500 
L 2284 0 
L 1503 0 
L 191 3500 
z
" transform="scale(0.015625)"/>
       </defs>
       <use xlink:href="#DejaVuSans-4e"/>
       <use xlink:href="#DejaVuSans-6f" transform="translate(74.804688 0)"/>
       <use xlink:href="#DejaVuSans-76" transform="translate(135.986328 0)"/>
      </g>
     </g>
    </g>
    <g id="xtick_12">
     <g id="line2d_12">
      <path d="M 278.180292 335.685093 
L 157.830537 127.233202 
" clip-path="url(#pe78e5c00cc)" style="fill: none; stroke-dasharray: 1.85,0.8; stroke-dashoffset: 0; stroke: #e5e5e5; stroke-width: 0.5"/>
     </g>
     <g id="text_12">
      <!-- Dec -->
      <g style="fill: #333333" transform="translate(137.872333 110.231068) scale(0.09 -0.09)">
       <defs>
        <path id="DejaVuSans-44" d="M 1259 4147 
L 1259 519 
L 2022 519 
Q 2988 519 3436 956 
Q 3884 1394 3884 2338 
Q 3884 3275 3436 3711 
Q 2988 4147 2022 4147 
L 1259 4147 
z
M 628 4666 
L 1925 4666 
Q 3281 4666 3915 4102 
Q 4550 3538 4550 2338 
Q 4550 1131 3912 565 
Q 3275 0 1925 0 
L 628 0 
L 628 4666 
z
" transform="scale(0.015625)"/>
       </defs>
       <use xlink:href="#DejaVuSans-44"/>
       <use xlink:href="#DejaVuSans-65" transform="translate(77.001953 0)"/>
       <use xlink:href="#DejaVuSans-63" transform="translate(138.525391 0)"/>
      </g>
     </g>
    </g>
   </g>
   <g id="matplotlib.axis_2">
    <g id="ytick_1">
     <g id="line2d_13">
      <path d="M 278.180292 289.83058 
C 284.201851 289.83058 290.164859 291.016696 295.728054 293.321047 
C 301.29125 295.625398 306.346444 299.00317 310.604329 303.261056 
C 314.862215 307.518941 318.239987 312.574135 320.544338 318.137331 
C 322.848689 323.700526 324.034805 329.663534 324.034805 335.685093 
C 324.034805 341.706653 322.848689 347.66966 320.544338 353.232856 
C 318.239987 358.796051 314.862215 363.851245 310.604329 368.10913 
C 306.346444 372.367016 301.29125 375.744788 295.728054 378.049139 
C 290.164859 380.35349 284.201851 381.539606 278.180292 381.539606 
C 272.158732 381.539606 266.195725 380.35349 260.632529 378.049139 
C 255.069334 375.744788 250.01414 372.367016 245.756255 368.10913 
C 241.498369 363.851245 238.120597 358.796051 235.816246 353.232856 
C 233.511895 347.66966 232.325779 341.706653 232.325779 335.685093 
C 232.325779 329.663534 233.511895 323.700526 235.816246 318.137331 
C 238.120597 312.574135 241.498369 307.518941 245.756255 303.261056 
C 250.01414 299.00317 255.069334 295.625398 260.632529 293.321047 
C 266.195725 291.016696 272.158732 289.83058 278.180292 289.83058 
" clip-path="url(#pe78e5c00cc)" style="fill: none; stroke-dasharray: 1.85,0.8; stroke-dashoffset: 0; stroke: #e5e5e5; stroke-width: 0.5"/>
     </g>
     <g id="text_13">
      <!-- 1000 -->
      <g transform="translate(278.180292 379.459919) scale(0.1 -0.1)">
       <defs>
        <path id="DejaVuSans-31" d="M 794 531 
L 1825 531 
L 1825 4091 
L 703 3866 
L 703 4441 
L 1819 4666 
L 2450 4666 
L 2450 531 
L 3481 531 
L 3481 0 
L 794 0 
L 794 531 
z
" transform="scale(0.015625)"/>
        <path id="DejaVuSans-30" d="M 2034 4250 
Q 1547 4250 1301 3770 
Q 1056 3291 1056 2328 
Q 1056 1369 1301 889 
Q 1547 409 2034 409 
Q 2525 409 2770 889 
Q 3016 1369 3016 2328 
Q 3016 3291 2770 3770 
Q 2525 4250 2034 4250 
z
M 2034 4750 
Q 2819 4750 3233 4129 
Q 3647 3509 3647 2328 
Q 3647 1150 3233 529 
Q 2819 -91 2034 -91 
Q 1250 -91 836 529 
Q 422 1150 422 2328 
Q 422 3509 836 4129 
Q 1250 4750 2034 4750 
z
" transform="scale(0.015625)"/>
       </defs>
       <use xlink:href="#DejaVuSans-31"/>
       <use xlink:href="#DejaVuSans-30" transform="translate(63.623047 0)"/>
       <use xlink:href="#DejaVuSans-30" transform="translate(127.246094 0)"/>
       <use xlink:href="#DejaVuSans-30" transform="translate(190.869141 0)"/>
      </g>
     </g>
    </g>
    <g id="ytick_2">
     <g id="line2d_14">
      <path d="M 278.180292 243.976067 
C 290.223411 243.976067 302.149426 246.348299 313.275817 250.957001 
C 324.402208 255.565703 334.512595 262.321248 343.028366 270.837019 
C 351.544137 279.35279 358.299682 289.463177 362.908384 300.589568 
C 367.517086 311.715959 369.889318 323.641974 369.889318 335.685093 
C 369.889318 347.728212 367.517086 359.654227 362.908384 370.780618 
C 358.299682 381.907009 351.544137 392.017396 343.028366 400.533168 
C 334.512595 409.048939 324.402208 415.804483 313.275817 420.413186 
C 302.149426 425.021888 290.223411 427.394119 278.180292 427.394119 
C 266.137173 427.394119 254.211158 425.021888 243.084767 420.413186 
C 231.958376 415.804483 221.847989 409.048939 213.332217 400.533168 
C 204.816446 392.017396 198.060902 381.907009 193.452199 370.780618 
C 188.843497 359.654227 186.471266 347.728212 186.471266 335.685093 
C 186.471266 323.641974 188.843497 311.715959 193.452199 300.589568 
C 198.060902 289.463177 204.816446 279.35279 213.332217 270.837019 
C 221.847989 262.321248 231.958376 255.565703 243.084767 250.957001 
C 254.211158 246.348299 266.137173 243.976067 278.180292 243.976067 
" clip-path="url(#pe78e5c00cc)" style="fill: none; stroke-dasharray: 1.85,0.8; stroke-dashoffset: 0; stroke: #e5e5e5; stroke-width: 0.5"/>
     </g>
     <g id="text_14">
      <!-- 2000 -->
      <g transform="translate(278.180292 425.314432) scale(0.1 -0.1)">
       <defs>
        <path id="DejaVuSans-32" d="M 1228 531 
L 3431 531 
L 3431 0 
L 469 0 
L 469 531 
Q 828 903 1448 1529 
Q 2069 2156 2228 2338 
Q 2531 2678 2651 2914 
Q 2772 3150 2772 3378 
Q 2772 3750 2511 3984 
Q 2250 4219 1831 4219 
Q 1534 4219 1204 4116 
Q 875 4013 500 3803 
L 500 4441 
Q 881 4594 1212 4672 
Q 1544 4750 1819 4750 
Q 2544 4750 2975 4387 
Q 3406 4025 3406 3419 
Q 3406 3131 3298 2873 
Q 3191 2616 2906 2266 
Q 2828 2175 2409 1742 
Q 1991 1309 1228 531 
z
" transform="scale(0.015625)"/>
       </defs>
       <use xlink:href="#DejaVuSans-32"/>
       <use xlink:href="#DejaVuSans-30" transform="translate(63.623047 0)"/>
       <use xlink:href="#DejaVuSans-30" transform="translate(127.246094 0)"/>
       <use xlink:href="#DejaVuSans-30" transform="translate(190.869141 0)"/>
      </g>
     </g>
    </g>
    <g id="ytick_3">
     <g id="line2d_15">
      <path d="M 278.180292 198.121554 
C 296.24497 198.121554 314.133993 201.679901 330.823579 208.592954 
C 347.513166 215.506008 362.678747 225.639325 375.452404 238.412981 
C 388.22606 251.186638 398.359377 266.352219 405.272431 283.041806 
C 412.185484 299.731392 415.743831 317.620415 415.743831 335.685093 
C 415.743831 353.749772 412.185484 371.638794 405.272431 388.328381 
C 398.359377 405.017967 388.22606 420.183548 375.452404 432.957205 
C 362.678747 445.730861 347.513166 455.864179 330.823579 462.777232 
C 314.133993 469.690285 296.24497 473.248633 278.180292 473.248633 
C 260.115613 473.248633 242.226591 469.690285 225.537004 462.777232 
C 208.847418 455.864179 193.681837 445.730861 180.90818 432.957205 
C 168.134524 420.183548 158.001206 405.017967 151.088153 388.328381 
C 144.1751 371.638794 140.616752 353.749772 140.616752 335.685093 
C 140.616752 317.620415 144.1751 299.731392 151.088153 283.041806 
C 158.001206 266.352219 168.134524 251.186638 180.90818 238.412981 
C 193.681837 225.639325 208.847418 215.506008 225.537004 208.592954 
C 242.226591 201.679901 260.115613 198.121554 278.180292 198.121554 
" clip-path="url(#pe78e5c00cc)" style="fill: none; stroke-dasharray: 1.85,0.8; stroke-dashoffset: 0; stroke: #e5e5e5; stroke-width: 0.5"/>
     </g>
     <g id="text_15">
      <!-- 3000 -->
      <g transform="translate(278.180292 471.168945) scale(0.1 -0.1)">
       <defs>
        <path id="DejaVuSans-33" d="M 2597 2516 
Q 3050 2419 3304 2112 
Q 3559 1806 3559 1356 
Q 3559 666 3084 287 
Q 2609 -91 1734 -91 
Q 1441 -91 1130 -33 
Q 819 25 488 141 
L 488 750 
Q 750 597 1062 519 
Q 1375 441 1716 441 
Q 2309 441 2620 675 
Q 2931 909 2931 1356 
Q 2931 1769 2642 2001 
Q 2353 2234 1838 2234 
L 1294 2234 
L 1294 2753 
L 1863 2753 
Q 2328 2753 2575 2939 
Q 2822 3125 2822 3475 
Q 2822 3834 2567 4026 
Q 2313 4219 1838 4219 
Q 1578 4219 1281 4162 
Q 984 4106 628 3988 
L 628 4550 
Q 988 4650 1302 4700 
Q 1616 4750 1894 4750 
Q 2613 4750 3031 4423 
Q 3450 4097 3450 3541 
Q 3450 3153 3228 2886 
Q 3006 2619 2597 2516 
z
" transform="scale(0.015625)"/>
       </defs>
       <use xlink:href="#DejaVuSans-33"/>
       <use xlink:href="#DejaVuSans-30" transform="translate(63.623047 0)"/>
       <use xlink:href="#DejaVuSans-30" transform="translate(127.246094 0)"/>
       <use xlink:href="#DejaVuSans-30" transform="translate(190.869141 0)"/>
      </g>
     </g>
    </g>
    <g id="ytick_4">
     <g id="line2d_16">
      <path d="M 278.180292 152.26704 
C 302.26653 152.26704 326.11856 157.011504 348.371342 166.228908 
C 370.624124 175.446312 390.844899 188.957402 407.876441 205.988944 
C 424.907983 223.020486 438.419073 243.241261 447.636477 265.494043 
C 456.853881 287.746825 461.598345 311.598855 461.598345 335.685093 
C 461.598345 359.771331 456.853881 383.623361 447.636477 405.876143 
C 438.419073 428.128925 424.907983 448.3497 407.876441 465.381242 
C 390.844899 482.412784 370.624124 495.923874 348.371342 505.141278 
C 326.11856 514.358682 302.26653 519.103146 278.180292 519.103146 
C 254.094054 519.103146 230.242024 514.358682 207.989242 505.141278 
C 185.73646 495.923874 165.515685 482.412784 148.484143 465.381242 
C 131.452601 448.3497 117.941511 428.128925 108.724107 405.876143 
C 99.506703 383.623361 94.762239 359.771331 94.762239 335.685093 
C 94.762239 311.598855 99.506703 287.746825 108.724107 265.494043 
C 117.941511 243.241261 131.452601 223.020486 148.484143 205.988944 
C 165.515685 188.957402 185.73646 175.446312 207.989242 166.228908 
C 230.242024 157.011504 254.094054 152.26704 278.180292 152.26704 
" clip-path="url(#pe78e5c00cc)" style="fill: none; stroke-dasharray: 1.85,0.8; stroke-dashoffset: 0; stroke: #e5e5e5; stroke-width: 0.5"/>
     </g>
     <g id="text_16">
      <!-- 4000 -->
      <g transform="translate(278.180292 517.023458) scale(0.1 -0.1)">
       <defs>
        <path id="DejaVuSans-34" d="M 2419 4116 
L 825 1625 
L 2419 1625 
L 2419 4116 
z
M 2253 4666 
L 3047 4666 
L 3047 1625 
L 3713 1625 
L 3713 1100 
L 3047 1100 
L 3047 0 
L 2419 0 
L 2419 1100 
L 313 1100 
L 313 1709 
L 2253 4666 
z
" transform="scale(0.015625)"/>
       </defs>
       <use xlink:href="#DejaVuSans-34"/>
       <use xlink:href="#DejaVuSans-30" transform="translate(63.623047 0)"/>
       <use xlink:href="#DejaVuSans-30" transform="translate(127.246094 0)"/>
       <use xlink:href="#DejaVuSans-30" transform="translate(190.869141 0)"/>
      </g>
     </g>
    </g>
    <g id="ytick_5">
     <g id="line2d_17">
      <path d="M 278.180292 106.412527 
C 308.288089 106.412527 338.103127 112.343107 365.919104 123.864862 
C 393.735082 135.386617 419.01105 152.275479 440.300478 173.564907 
C 461.589906 194.854335 478.478768 220.130303 490.000523 247.946281 
C 501.522278 275.762258 507.452858 305.577296 507.452858 335.685093 
C 507.452858 365.792891 501.522278 395.607928 490.000523 423.423906 
C 478.478768 451.239883 461.589906 476.515851 440.300478 497.805279 
C 419.01105 519.094707 393.735082 535.983569 365.919104 547.505324 
C 338.103127 559.027079 308.288089 564.957659 278.180292 564.957659 
C 248.072494 564.957659 218.257457 559.027079 190.441479 547.505324 
C 162.625502 535.983569 137.349534 519.094707 116.060106 497.805279 
C 94.770678 476.515851 77.881816 451.239883 66.360061 423.423906 
C 54.838306 395.607928 48.907726 365.792891 48.907726 335.685093 
C 48.907726 305.577296 54.838306 275.762258 66.360061 247.946281 
C 77.881816 220.130303 94.770678 194.854335 116.060106 173.564907 
C 137.349534 152.275479 162.625502 135.386617 190.441479 123.864862 
C 218.257457 112.343107 248.072494 106.412527 278.180292 106.412527 
" clip-path="url(#pe78e5c00cc)" style="fill: none; stroke-dasharray: 1.85,0.8; stroke-dashoffset: 0; stroke: #e5e5e5; stroke-width: 0.5"/>
     </g>
     <g id="text_17">
      <!-- 5000 -->
      <g transform="translate(278.180292 562.877972) scale(0.1 -0.1)">
       <defs>
        <path id="DejaVuSans-35" d="M 691 4666 
L 3169 4666 
L 3169 4134 
L 1269 4134 
L 1269 2991 
Q 1406 3038 1543 3061 
Q 1681 3084 1819 3084 
Q 2600 3084 3056 2656 
Q 3513 2228 3513 1497 
Q 3513 744 3044 326 
Q 2575 -91 1722 -91 
Q 1428 -91 1123 -41 
Q 819 9 494 109 
L 494 744 
Q 775 591 1075 516 
Q 1375 441 1709 441 
Q 2250 441 2565 725 
Q 2881 1009 2881 1497 
Q 2881 1984 2565 2268 
Q 2250 2553 1709 2553 
Q 1456 2553 1204 2497 
Q 953 2441 691 2322 
L 691 4666 
z
" transform="scale(0.015625)"/>
       </defs>
       <use xlink:href="#DejaVuSans-35"/>
       <use xlink:href="#DejaVuSans-30" transform="translate(63.623047 0)"/>
       <use xlink:href="#DejaVuSans-30" transform="translate(127.246094 0)"/>
       <use xlink:href="#DejaVuSans-30" transform="translate(190.869141 0)"/>
      </g>
     </g>
    </g>
   </g>
   <g id="line2d_18">
    <path d="M 278.180292 201.927478 
L 293.822129 206.862978 
L 308.248239 213.694637 
L 322.245527 219.494616 
L 336.078624 225.369038 
L 349.839254 231.869163 
L 362.134479 240.920406 
L 374.523819 250.332176 
L 381.505634 264.364759 
L 390.24224 276.870446 
L 393.341775 292.010103 
L 397.766557 306.209726 
L 398.308053 321.098942 
L 399.511334 335.685093 
L 396.168604 350.011468 
L 393.492439 364.106985 
L 388.625557 377.571457 
L 381.147357 389.726378 
L 372.335416 400.675682 
L 364.124072 411.824638 
L 353.681287 420.908099 
L 342.702011 429.160941 
L 330.580733 435.525792 
L 317.952825 440.556645 
L 304.583022 442.80518 
L 291.677594 446.845378 
L 278.180292 449.816976 
L 264.638772 447.209539 
L 251.788536 442.760658 
L 239.611016 437.383916 
L 227.974745 431.34377 
L 215.950826 425.840039 
L 206.5106 416.583452 
L 197.041675 407.567635 
L 190.629235 396.117224 
L 182.80583 385.741472 
L 176.610093 374.205589 
L 171.772558 361.912244 
L 168.749774 348.972364 
L 165.745026 335.685093 
L 167.202088 322.209899 
L 166.741565 308.217914 
L 170.564758 294.871905 
L 176.228281 282.17655 
L 182.704355 269.782812 
L 191.103866 258.542111 
L 200.185909 247.647634 
L 209.881564 236.737304 
L 222.008042 228.657812 
L 234.115056 219.494616 
L 247.717292 212.091842 
L 262.643471 207.727861 
L 278.180292 201.927478 
" clip-path="url(#pe78e5c00cc)" style="fill: none; stroke-dasharray: 4.44,1.92; stroke-dashoffset: 0; stroke: #455a64; stroke-width: 1.2"/>
   </g>
   <g id="line2d_19">
    <path d="M 278.180292 193.398539 
L 296.773627 182.5552 
L 312.824273 195.128936 
L 327.708966 205.088712 
L 345.60404 207.219875 
L 361.430762 215.075965 
L 375.422411 225.921431 
L 379.740853 245.710287 
L 395.091143 254.987359 
L 404.331188 269.475996 
L 416.151124 283.359659 
L 439.083033 296.026129 
L 481.109264 311.045055 
L 511.350491 335.685093 
L 504.961839 363.221358 
L 469.981345 382.959807 
L 445.820426 399.26261 
L 415.537382 407.775655 
L 390.977753 413.543559 
L 373.494141 420.125795 
L 362.408144 430.758684 
L 349.344336 438.78401 
L 335.332786 444.580073 
L 321.904062 450.975201 
L 307.765396 455.716579 
L 292.876986 456.723257 
L 278.180292 456.649299 
L 263.704684 454.90245 
L 250.43877 448.236872 
L 234.716685 450.289205 
L 221.368752 443.930438 
L 209.360598 435.387633 
L 180.603694 445.826304 
L 180.154958 422.527961 
L 174.968162 406.927282 
L 168.879291 393.050684 
L 160.617824 380.270656 
L 157.035755 365.54454 
L 146.581445 351.664086 
L 140.525043 335.685093 
L 140.618301 318.982043 
L 134.7302 300.327821 
L 130.348276 279.619805 
L 128.480146 257.116396 
L 142.740316 242.197628 
L 155.305398 226.827436 
L 176.772391 221.219236 
L 189.48572 207.188822 
L 202.95721 192.359486 
L 219.399544 180.693 
L 235.284086 161.648343 
L 256.8068 159.658549 
L 278.180292 145.618136 
" clip-path="url(#pe78e5c00cc)" style="fill: none; stroke: #00838f; stroke-opacity: 0.85; stroke-width: 1.3; stroke-linecap: square"/>
   </g>
   <g id="line2d_20">
    <path d="M 278.180292 145.618136 
L 299.459822 160.432392 
L 320.571708 163.696358 
L 338.570803 176.448403 
L 356.06708 187.284217 
L 370.67792 201.679143 
L 385.547997 214.492007 
L 388.184212 238.230124 
L 395.355306 254.805021 
L 409.893683 266.556573 
L 408.690923 286.188939 
L 413.7945 302.259193 
L 422.75239 318.130862 
L 423.309826 335.685093 
L 421.113664 353.040347 
L 418.157662 370.186416 
L 411.992276 386.433285 
L 400.311574 399.784535 
L 392.034403 414.272912 
L 380.804854 426.602521 
L 363.472394 431.959975 
L 356.585772 449.275042 
L 339.637336 452.781708 
L 324.847165 458.735524 
L 307.513001 454.692571 
L 293.612097 462.777442 
L 278.180292 465.774347 
L 262.300788 466.464576 
L 247.717292 459.278344 
L 230.765448 460.707761 
L 215.146333 455.786268 
L 204.176979 442.8974 
L 190.060323 435.151976 
L 177.718053 424.68687 
L 170.250972 410.183324 
L 152.597826 401.595855 
L 153.029 383.148718 
L 149.511526 367.399096 
L 138.342292 352.6645 
L 137.315227 335.685093 
L 138.706454 318.749903 
L 132.370531 299.746215 
L 132.920759 280.595419 
L 135.341911 260.717727 
L 135.230549 237.01401 
L 140.718295 213.904391 
L 150.713449 191.804771 
L 163.697871 169.828673 
L 184.993171 158.131869 
L 212.277562 161.913875 
L 236.787483 167.747866 
L 257.83485 168.125303 
L 278.180292 178.266549 
" clip-path="url(#pe78e5c00cc)" style="fill: none; stroke: #00695c; stroke-opacity: 0.85; stroke-width: 1.3; stroke-linecap: square"/>
   </g>
   <g id="line2d_21">
    <path d="M 278.180292 178.266549 
L 295.629507 191.977878 
L 313.208353 193.570664 
L 330.213042 198.486006 
L 348.182508 202.307014 
L 362.993662 212.811713 
L 380.986922 219.640396 
L 393.229634 233.76027 
L 400.223446 251.444786 
L 415.740393 263.487983 
L 432.786513 277.050688 
L 439.839908 295.839576 
L 440.414221 315.986328 
L 442.064322 335.685093 
L 438.274773 355.124082 
L 422.20917 371.185023 
L 412.849771 386.75849 
L 405.265037 402.384313 
L 396.223269 417.164277 
L 383.13879 428.670209 
L 367.090847 436.044364 
L 355.413598 447.576853 
L 340.958535 455.299042 
L 327.156118 464.823734 
L 312.593825 475.306287 
L 295.325514 476.888698 
L 278.180292 472.010561 
L 261.117977 476.205895 
L 243.240021 477.443346 
L 227.188197 470.140198 
L 215.061094 455.948676 
L 200.399971 448.369341 
L 184.495811 441.433011 
L 173.805278 428.153287 
L 165.911156 413.178882 
L 158.931763 398.271549 
L 157.316471 381.522694 
L 143.901746 368.781782 
L 132.197068 353.410666 
L 126.493562 335.685093 
L 127.280888 317.362588 
L 128.096413 298.692739 
L 136.179237 281.831197 
L 146.83232 266.74836 
L 158.514602 253.085831 
L 167.936114 238.017274 
L 174.400632 218.542073 
L 188.756367 206.132171 
L 201.039341 188.705292 
L 213.123094 164.14336 
L 232.112686 148.781467 
L 255.325523 147.45914 
L 278.180292 150.707987 
" clip-path="url(#pe78e5c00cc)" style="fill: none; stroke: #2e7d32; stroke-opacity: 0.85; stroke-width: 1.3; stroke-linecap: square"/>
   </g>
   <g id="line2d_22">
    <path d="M 278.180292 165.518995 
L 298.293594 170.03715 
L 320.297365 164.80941 
L 341.643987 168.345082 
L 363.866414 172.423828 
L 377.294197 192.093812 
L 387.767721 211.986457 
L 396.181377 231.145254 
L 411.582441 243.604238 
L 422.723964 259.822722 
L 424.383069 280.237694 
L 428.219649 298.703713 
L 435.407001 316.594314 
L 434.269055 335.685093 
L 433.859315 354.587949 
L 422.164648 371.17405 
L 420.781593 389.766633 
L 409.690672 404.707065 
L 392.600466 414.663637 
L 387.909631 432.896805 
L 373.233095 442.977528 
L 355.908516 448.293866 
L 341.704373 456.720117 
L 327.871568 466.710221 
L 312.703562 475.751508 
L 295.358677 477.161819 
L 278.180292 475.587213 
L 260.858201 478.345344 
L 245.039708 470.141728 
L 230.2126 462.165501 
L 214.016921 457.938182 
L 201.05118 447.425903 
L 185.073548 440.780882 
L 174.972246 427.119443 
L 165.231881 413.647752 
L 151.501568 402.171216 
L 151.828508 383.604004 
L 139.67215 369.824284 
L 134.108915 353.178525 
L 131.996104 335.685093 
L 125.869762 317.191247 
L 129.387553 299.010977 
L 140.766831 283.571042 
L 151.054945 268.964564 
L 155.193699 250.793578 
L 166.014048 236.314472 
L 176.407505 220.807364 
L 190.084832 208.056785 
L 205.237343 196.703916 
L 224.066232 192.998043 
L 239.289487 177.898897 
L 259.879896 184.96777 
L 278.180292 170.562991 
" clip-path="url(#pe78e5c00cc)" style="fill: none; stroke-dasharray: 1.2,1.98; stroke-dashoffset: 0; stroke: #78909c; stroke-width: 1.2"/>
   </g>
   <g id="line2d_23">
    <path d="M 278.180292 170.562991 
L 300.012538 155.880374 
L 319.24389 169.083528 
L 343.839119 162.556995 
L 362.950099 174.16972 
L 381.357737 186.206758 
L 399.626516 198.600645 
L 419.211839 210.742045 
L 426.677451 233.184905 
L 427.92104 257.095086 
L 432.872262 277.018167 
L 438.726856 296.113919 
L 429.534898 317.307317 
L 431.196802 335.685093 
L 424.391117 353.438301 
L 421.363251 370.976523 
L 411.777903 386.351984 
L 407.132736 403.364557 
L 394.22318 415.783715 
L 384.237113 429.643238 
L 373.658795 443.458044 
L 359.320847 453.237482 
L 342.49283 458.222397 
L 327.530104 465.809852 
L 311.551324 471.076691 
L 295.325514 476.888698 
L 278.180292 478.20092 
L 261.775708 470.788994 
L 245.270156 469.206764 
L 230.19634 462.208376 
L 216.339674 453.512547 
L 203.55182 443.803101 
L 184.282961 441.673269 
L 174.148503 427.849215 
L 161.684554 416.096295 
L 156.61744 399.4862 
L 147.969784 385.067425 
L 142.165385 369.209757 
L 137.978131 352.708718 
L 125.530617 335.685093 
L 128.646493 317.528403 
L 132.192443 299.70232 
L 137.251105 282.237702 
L 142.853309 264.660014 
L 152.099222 248.657614 
L 166.082693 236.375287 
L 176.924427 221.390848 
L 188.521932 205.792534 
L 202.808043 192.075271 
L 222.277606 188.281824 
L 240.485621 182.751802 
L 260.001493 185.969214 
L 278.180292 165.839976 
" clip-path="url(#pe78e5c00cc)" style="fill: none; stroke: #37474f; stroke-width: 1.5; stroke-linecap: square"/>
   </g>
   <g id="patch_3">
    <path d="M 278.180292 94.985582 
C 246.571922 94.985582 215.270903 101.211742 186.068577 113.307742 
C 156.866251 125.403741 130.330529 143.134344 107.980036 165.484837 
C 85.629543 187.83533 67.89894 214.371052 55.802941 243.573378 
C 43.706941 272.775704 37.480781 304.076723 37.480781 335.685093 
C 37.480781 367.293463 43.706941 398.594482 55.802941 427.796808 
C 67.89894 456.999134 85.629543 483.534856 107.980036 505.885349 
C 130.330529 528.235842 156.866251 545.966445 186.068577 558.062444 
C 215.270903 570.158444 246.571922 576.384604 278.180292 576.384604 
C 309.788662 576.384604 341.089681 570.158444 370.292007 558.062444 
C 399.494333 545.966445 426.030055 528.235842 448.380548 505.885349 
C 470.731041 483.534856 488.461644 456.999134 500.557643 427.796808 
C 512.653643 398.594482 518.879803 367.293463 518.879803 335.685093 
C 518.879803 304.076723 512.653643 272.775704 500.557643 243.573378 
C 488.461644 214.371052 470.731041 187.83533 448.380548 165.484837 
C 426.030055 143.134344 399.494333 125.403741 370.292007 113.307742 
C 341.089681 101.211742 309.788662 94.985582 278.180292 94.985582 
" style="fill: none; stroke: #888888; stroke-width: 0.8; stroke-linejoin: miter; stroke-linecap: square"/>
   </g>
   <g id="text_18">
    <!-- Totaal mannen en vrouwen, Totaal leeftijd, historical spread bounds -->
    <g style="fill: #616161" transform="translate(109.238104 40.84568) scale(0.1 -0.1)">
     <defs>
      <path id="DejaVuSans-54" d="M -19 4666 
L 3928 4666 
L 3928 4134 
L 2272 4134 
L 2272 0 
L 1638 0 
L 1638 4134 
L -19 4134 
L -19 4666 
z
" transform="scale(0.015625)"/>
      <path id="DejaVuSans-20" transform="scale(0.015625)"/>
      <path id="DejaVuSans-6d" d="M 3328 2828 
Q 3544 3216 3844 3400 
Q 4144 3584 4550 3584 
Q 5097 3584 5394 3201 
Q 5691 2819 5691 2113 
L 5691 0 
L 5113 0 
L 5113 2094 
Q 5113 2597 4934 2840 
Q 4756 3084 4391 3084 
Q 3944 3084 3684 2787 
Q 3425 2491 3425 1978 
L 3425 0 
L 2847 0 
L 2847 2094 
Q 2847 2600 2669 2842 
Q 2491 3084 2119 3084 
Q 1678 3084 1418 2786 
Q 1159 2488 1159 1978 
L 1159 0 
L 581 0 
L 581 3500 
L 1159 3500 
L 1159 2956 
Q 1356 3278 1631 3431 
Q 1906 3584 2284 3584 
Q 2666 3584 2933 3390 
Q 3200 3197 3328 2828 
z
" transform="scale(0.015625)"/>
      <path id="DejaVuSans-77" d="M 269 3500 
L 844 3500 
L 1563 769 
L 2278 3500 
L 2956 3500 
L 3675 769 
L 4391 3500 
L 4966 3500 
L 4050 0 
L 3372 0 
L 2619 2869 
L 1863 0 
L 1184 0 
L 269 3500 
z
" transform="scale(0.015625)"/>
      <path id="DejaVuSans-2c" d="M 750 794 
L 1409 794 
L 1409 256 
L 897 -744 
L 494 -744 
L 750 256 
L 750 794 
z
" transform="scale(0.015625)"/>
      <path id="DejaVuSans-66" d="M 2375 4863 
L 2375 4384 
L 1825 4384 
Q 1516 4384 1395 4259 
Q 1275 4134 1275 3809 
L 1275 3500 
L 2222 3500 
L 2222 3053 
L 1275 3053 
L 1275 0 
L 697 0 
L 697 3053 
L 147 3053 
L 147 3500 
L 697 3500 
L 697 3744 
Q 697 4328 969 4595 
Q 1241 4863 1831 4863 
L 2375 4863 
z
" transform="scale(0.015625)"/>
      <path id="DejaVuSans-69" d="M 603 3500 
L 1178 3500 
L 1178 0 
L 603 0 
L 603 3500 
z
M 603 4863 
L 1178 4863 
L 1178 4134 
L 603 4134 
L 603 4863 
z
" transform="scale(0.015625)"/>
      <path id="DejaVuSans-6a" d="M 603 3500 
L 1178 3500 
L 1178 -63 
Q 1178 -731 923 -1031 
Q 669 -1331 103 -1331 
L -116 -1331 
L -116 -844 
L 38 -844 
Q 366 -844 484 -692 
Q 603 -541 603 -63 
L 603 3500 
z
M 603 4863 
L 1178 4863 
L 1178 4134 
L 603 4134 
L 603 4863 
z
" transform="scale(0.015625)"/>
      <path id="DejaVuSans-64" d="M 2906 2969 
L 2906 4863 
L 3481 4863 
L 3481 0 
L 2906 0 
L 2906 525 
Q 2725 213 2448 61 
Q 2172 -91 1784 -91 
Q 1150 -91 751 415 
Q 353 922 353 1747 
Q 353 2572 751 3078 
Q 1150 3584 1784 3584 
Q 2172 3584 2448 3432 
Q 2725 3281 2906 2969 
z
M 947 1747 
Q 947 1113 1208 752 
Q 1469 391 1925 391 
Q 2381 391 2643 752 
Q 2906 1113 2906 1747 
Q 2906 2381 2643 2742 
Q 2381 3103 1925 3103 
Q 1469 3103 1208 2742 
Q 947 2381 947 1747 
z
" transform="scale(0.015625)"/>
      <path id="DejaVuSans-68" d="M 3513 2113 
L 3513 0 
L 2938 0 
L 2938 2094 
Q 2938 2591 2744 2837 
Q 2550 3084 2163 3084 
Q 1697 3084 1428 2787 
Q 1159 2491 1159 1978 
L 1159 0 
L 581 0 
L 581 4863 
L 1159 4863 
L 1159 2956 
Q 1366 3272 1645 3428 
Q 1925 3584 2291 3584 
Q 2894 3584 3203 3211 
Q 3513 2838 3513 2113 
z
" transform="scale(0.015625)"/>
      <path id="DejaVuSans-73" d="M 2834 3397 
L 2834 2853 
Q 2591 2978 2328 3040 
Q 2066 3103 1784 3103 
Q 1356 3103 1142 2972 
Q 928 2841 928 2578 
Q 928 2378 1081 2264 
Q 1234 2150 1697 2047 
L 1894 2003 
Q 2506 1872 2764 1633 
Q 3022 1394 3022 966 
Q 3022 478 2636 193 
Q 2250 -91 1575 -91 
Q 1294 -91 989 -36 
Q 684 19 347 128 
L 347 722 
Q 666 556 975 473 
Q 1284 391 1588 391 
Q 1994 391 2212 530 
Q 2431 669 2431 922 
Q 2431 1156 2273 1281 
Q 2116 1406 1581 1522 
L 1381 1569 
Q 847 1681 609 1914 
Q 372 2147 372 2553 
Q 372 3047 722 3315 
Q 1072 3584 1716 3584 
Q 2034 3584 2315 3537 
Q 2597 3491 2834 3397 
z
" transform="scale(0.015625)"/>
     </defs>
     <use xlink:href="#DejaVuSans-54"/>
     <use xlink:href="#DejaVuSans-6f" transform="translate(44.083984 0)"/>
     <use xlink:href="#DejaVuSans-74" transform="translate(105.265625 0)"/>
     <use xlink:href="#DejaVuSans-61" transform="translate(144.474609 0)"/>
     <use xlink:href="#DejaVuSans-61" transform="translate(205.753906 0)"/>
     <use xlink:href="#DejaVuSans-6c" transform="translate(267.033203 0)"/>
     <use xlink:href="#DejaVuSans-20" transform="translate(294.816406 0)"/>
     <use xlink:href="#DejaVuSans-6d" transform="translate(326.603516 0)"/>
     <use xlink:href="#DejaVuSans-61" transform="translate(424.015625 0)"/>
     <use xlink:href="#DejaVuSans-6e" transform="translate(485.294922 0)"/>
     <use xlink:href="#DejaVuSans-6e" transform="translate(548.673828 0)"/>
     <use xlink:href="#DejaVuSans-65" transform="translate(612.052734 0)"/>
     <use xlink:href="#DejaVuSans-6e" transform="translate(673.576172 0)"/>
     <use xlink:href="#DejaVuSans-20" transform="translate(736.955078 0)"/>
     <use xlink:href="#DejaVuSans-65" transform="translate(768.742188 0)"/>
     <use xlink:href="#DejaVuSans-6e" transform="translate(830.265625 0)"/>
     <use xlink:href="#DejaVuSans-20" transform="translate(893.644531 0)"/>
     <use xlink:href="#DejaVuSans-76" transform="translate(925.431641 0)"/>
     <use xlink:href="#DejaVuSans-72" transform="translate(984.611328 0)"/>
     <use xlink:href="#DejaVuSans-6f" transform="translate(1023.474609 0)"/>
     <use xlink:href="#DejaVuSans-75" transform="translate(1084.65625 0)"/>
     <use xlink:href="#DejaVuSans-77" transform="translate(1148.035156 0)"/>
     <use xlink:href="#DejaVuSans-65" transform="translate(1229.822266 0)"/>
     <use xlink:href="#DejaVuSans-6e" transform="translate(1291.345703 0)"/>
     <use xlink:href="#DejaVuSans-2c" transform="translate(1354.724609 0)"/>
     <use xlink:href="#DejaVuSans-20" transform="translate(1386.511719 0)"/>
     <use xlink:href="#DejaVuSans-54" transform="translate(1418.298828 0)"/>
     <use xlink:href="#DejaVuSans-6f" transform="translate(1462.382812 0)"/>
     <use xlink:href="#DejaVuSans-74" transform="translate(1523.564453 0)"/>
     <use xlink:href="#DejaVuSans-61" transform="translate(1562.773438 0)"/>
     <use xlink:href="#DejaVuSans-61" transform="translate(1624.052734 0)"/>
     <use xlink:href="#DejaVuSans-6c" transform="translate(1685.332031 0)"/>
     <use xlink:href="#DejaVuSans-20" transform="translate(1713.115234 0)"/>
     <use xlink:href="#DejaVuSans-6c" transform="translate(1744.902344 0)"/>
     <use xlink:href="#DejaVuSans-65" transform="translate(1772.685547 0)"/>
     <use xlink:href="#DejaVuSans-65" transform="translate(1834.208984 0)"/>
     <use xlink:href="#DejaVuSans-66" transform="translate(1895.732422 0)"/>
     <use xlink:href="#DejaVuSans-74" transform="translate(1929.1875 0)"/>
     <use xlink:href="#DejaVuSans-69" transform="translate(1968.396484 0)"/>
     <use xlink:href="#DejaVuSans-6a" transform="translate(1996.179688 0)"/>
     <use xlink:href="#DejaVuSans-64" transform="translate(2023.962891 0)"/>
     <use xlink:href="#DejaVuSans-2c" transform="translate(2087.439453 0)"/>
     <use xlink:href="#DejaVuSans-20" transform="translate(2119.226562 0)"/>
     <use xlink:href="#DejaVuSans-68" transform="translate(2151.013672 0)"/>
     <use xlink:href="#DejaVuSans-69" transform="translate(2214.392578 0)"/>
     <use xlink:href="#DejaVuSans-73" transform="translate(2242.175781 0)"/>
     <use xlink:href="#DejaVuSans-74" transform="translate(2294.275391 0)"/>
     <use xlink:href="#DejaVuSans-6f" transform="translate(2333.484375 0)"/>
     <use xlink:href="#DejaVuSans-72" transform="translate(2394.666016 0)"/>
     <use xlink:href="#DejaVuSans-69" transform="translate(2435.779297 0)"/>
     <use xlink:href="#DejaVuSans-63" transform="translate(2463.5625 0)"/>
     <use xlink:href="#DejaVuSans-61" transform="translate(2518.542969 0)"/>
     <use xlink:href="#DejaVuSans-6c" transform="translate(2579.822266 0)"/>
     <use xlink:href="#DejaVuSans-20" transform="translate(2607.605469 0)"/>
     <use xlink:href="#DejaVuSans-73" transform="translate(2639.392578 0)"/>
     <use xlink:href="#DejaVuSans-70" transform="translate(2691.492188 0)"/>
     <use xlink:href="#DejaVuSans-72" transform="translate(2754.96875 0)"/>
     <use xlink:href="#DejaVuSans-65" transform="translate(2793.832031 0)"/>
     <use xlink:href="#DejaVuSans-61" transform="translate(2855.355469 0)"/>
     <use xlink:href="#DejaVuSans-64" transform="translate(2916.634766 0)"/>
     <use xlink:href="#DejaVuSans-20" transform="translate(2980.111328 0)"/>
     <use xlink:href="#DejaVuSans-62" transform="translate(3011.898438 0)"/>
     <use xlink:href="#DejaVuSans-6f" transform="translate(3075.375 0)"/>
     <use xlink:href="#DejaVuSans-75" transform="translate(3136.556641 0)"/>
     <use xlink:href="#DejaVuSans-6e" transform="translate(3199.935547 0)"/>
     <use xlink:href="#DejaVuSans-64" transform="translate(3263.314453 0)"/>
     <use xlink:href="#DejaVuSans-73" transform="translate(3326.791016 0)"/>
    </g>
   </g>
   <g id="legend_1">
    <g id="patch_4">
     <path d="M 476.167058 595.454555 
L 632.229558 595.454555 
Q 634.229558 595.454555 634.229558 593.454555 
L 634.229558 462.35143 
Q 634.229558 460.35143 632.229558 460.35143 
L 476.167058 460.35143 
Q 474.167058 460.35143 474.167058 462.35143 
L 474.167058 593.454555 
Q 474.167058 595.454555 476.167058 595.454555 
z
" style="fill: #ffffff; opacity: 0.8; stroke: #e0e0e0; stroke-linejoin: miter"/>
    </g>
    <g id="patch_5">
     <path d="M 478.167058 471.949867 
L 498.167058 471.949867 
L 498.167058 464.949867 
L 478.167058 464.949867 
z
" style="fill: #90a4ae; fill-opacity: 0.25; stroke: #90a4ae; stroke-opacity: 0.25; stroke-linejoin: miter"/>
    </g>
    <g id="text_19">
     <!-- Standard Deviation -->
     <g transform="translate(506.167058 471.949867) scale(0.1 -0.1)">
      <use xlink:href="#DejaVuSans-53"/>
      <use xlink:href="#DejaVuSans-74" transform="translate(63.476562 0)"/>
      <use xlink:href="#DejaVuSans-61" transform="translate(102.685547 0)"/>
      <use xlink:href="#DejaVuSans-6e" transform="translate(163.964844 0)"/>
      <use xlink:href="#DejaVuSans-64" transform="translate(227.34375 0)"/>
      <use xlink:href="#DejaVuSans-61" transform="translate(290.820312 0)"/>
      <use xlink:href="#DejaVuSans-72" transform="translate(352.099609 0)"/>
      <use xlink:href="#DejaVuSans-64" transform="translate(391.462891 0)"/>
      <use xlink:href="#DejaVuSans-20" transform="translate(454.939453 0)"/>
      <use xlink:href="#DejaVuSans-44" transform="translate(486.726562 0)"/>
      <use xlink:href="#DejaVuSans-65" transform="translate(563.728516 0)"/>
      <use xlink:href="#DejaVuSans-76" transform="translate(625.251953 0)"/>
      <use xlink:href="#DejaVuSans-69" transform="translate(684.431641 0)"/>
      <use xlink:href="#DejaVuSans-61" transform="translate(712.214844 0)"/>
      <use xlink:href="#DejaVuSans-74" transform="translate(773.494141 0)"/>
      <use xlink:href="#DejaVuSans-69" transform="translate(812.703125 0)"/>
      <use xlink:href="#DejaVuSans-6f" transform="translate(840.486328 0)"/>
      <use xlink:href="#DejaVuSans-6e" transform="translate(901.667969 0)"/>
     </g>
    </g>
    <g id="patch_6">
     <path d="M 478.167058 486.627992 
L 498.167058 486.627992 
L 498.167058 479.627992 
L 478.167058 479.627992 
z
" style="fill: #cfd8dc; fill-opacity: 0.1; stroke: #cfd8dc; stroke-opacity: 0.1; stroke-linejoin: miter"/>
    </g>
    <g id="text_20">
     <!-- Historical Min/Max range -->
     <g transform="translate(506.167058 486.627992) scale(0.1 -0.1)">
      <defs>
       <path id="DejaVuSans-48" d="M 628 4666 
L 1259 4666 
L 1259 2753 
L 3553 2753 
L 3553 4666 
L 4184 4666 
L 4184 0 
L 3553 0 
L 3553 2222 
L 1259 2222 
L 1259 0 
L 628 0 
L 628 4666 
z
" transform="scale(0.015625)"/>
       <path id="DejaVuSans-2f" d="M 1625 4666 
L 2156 4666 
L 531 -594 
L 0 -594 
L 1625 4666 
z
" transform="scale(0.015625)"/>
       <path id="DejaVuSans-78" d="M 3513 3500 
L 2247 1797 
L 3578 0 
L 2900 0 
L 1881 1375 
L 863 0 
L 184 0 
L 1544 1831 
L 300 3500 
L 978 3500 
L 1906 2253 
L 2834 3500 
L 3513 3500 
z
" transform="scale(0.015625)"/>
      </defs>
      <use xlink:href="#DejaVuSans-48"/>
      <use xlink:href="#DejaVuSans-69" transform="translate(75.195312 0)"/>
      <use xlink:href="#DejaVuSans-73" transform="translate(102.978516 0)"/>
      <use xlink:href="#DejaVuSans-74" transform="translate(155.078125 0)"/>
      <use xlink:href="#DejaVuSans-6f" transform="translate(194.287109 0)"/>
      <use xlink:href="#DejaVuSans-72" transform="translate(255.46875 0)"/>
      <use xlink:href="#DejaVuSans-69" transform="translate(296.582031 0)"/>
      <use xlink:href="#DejaVuSans-63" transform="translate(324.365234 0)"/>
      <use xlink:href="#DejaVuSans-61" transform="translate(379.345703 0)"/>
      <use xlink:href="#DejaVuSans-6c" transform="translate(440.625 0)"/>
      <use xlink:href="#DejaVuSans-20" transform="translate(468.408203 0)"/>
      <use xlink:href="#DejaVuSans-4d" transform="translate(500.195312 0)"/>
      <use xlink:href="#DejaVuSans-69" transform="translate(586.474609 0)"/>
      <use xlink:href="#DejaVuSans-6e" transform="translate(614.257812 0)"/>
      <use xlink:href="#DejaVuSans-2f" transform="translate(677.636719 0)"/>
      <use xlink:href="#DejaVuSans-4d" transform="translate(711.328125 0)"/>
      <use xlink:href="#DejaVuSans-61" transform="translate(797.607422 0)"/>
      <use xlink:href="#DejaVuSans-78" transform="translate(858.886719 0)"/>
      <use xlink:href="#DejaVuSans-20" transform="translate(918.066406 0)"/>
      <use xlink:href="#DejaVuSans-72" transform="translate(949.853516 0)"/>
      <use xlink:href="#DejaVuSans-61" transform="translate(990.966797 0)"/>
      <use xlink:href="#DejaVuSans-6e" transform="translate(1052.246094 0)"/>
      <use xlink:href="#DejaVuSans-67" transform="translate(1115.625 0)"/>
      <use xlink:href="#DejaVuSans-65" transform="translate(1179.101562 0)"/>
     </g>
    </g>
    <g id="line2d_24">
     <path d="M 478.167058 497.806117 
L 488.167058 497.806117 
L 498.167058 497.806117 
" style="fill: none; stroke-dasharray: 4.44,1.92; stroke-dashoffset: 0; stroke: #455a64; stroke-width: 1.2"/>
    </g>
    <g id="text_21">
     <!-- Historical Median -->
     <g transform="translate(506.167058 501.306117) scale(0.1 -0.1)">
      <use xlink:href="#DejaVuSans-48"/>
      <use xlink:href="#DejaVuSans-69" transform="translate(75.195312 0)"/>
      <use xlink:href="#DejaVuSans-73" transform="translate(102.978516 0)"/>
      <use xlink:href="#DejaVuSans-74" transform="translate(155.078125 0)"/>
      <use xlink:href="#DejaVuSans-6f" transform="translate(194.287109 0)"/>
      <use xlink:href="#DejaVuSans-72" transform="translate(255.46875 0)"/>
      <use xlink:href="#DejaVuSans-69" transform="translate(296.582031 0)"/>
      <use xlink:href="#DejaVuSans-63" transform="translate(324.365234 0)"/>
      <use xlink:href="#DejaVuSans-61" transform="translate(379.345703 0)"/>
      <use xlink:href="#DejaVuSans-6c" transform="translate(440.625 0)"/>
      <use xlink:href="#DejaVuSans-20" transform="translate(468.408203 0)"/>
      <use xlink:href="#DejaVuSans-4d" transform="translate(500.195312 0)"/>
      <use xlink:href="#DejaVuSans-65" transform="translate(586.474609 0)"/>
      <use xlink:href="#DejaVuSans-64" transform="translate(647.998047 0)"/>
      <use xlink:href="#DejaVuSans-69" transform="translate(711.474609 0)"/>
      <use xlink:href="#DejaVuSans-61" transform="translate(739.257812 0)"/>
      <use xlink:href="#DejaVuSans-6e" transform="translate(800.537109 0)"/>
     </g>
    </g>
    <g id="line2d_25">
     <path d="M 478.167058 512.484242 
L 488.167058 512.484242 
L 498.167058 512.484242 
" style="fill: none; stroke: #00838f; stroke-opacity: 0.85; stroke-width: 1.3; stroke-linecap: square"/>
    </g>
    <g id="text_22">
     <!-- 2020 (COVID) -->
     <g transform="translate(506.167058 515.984242) scale(0.1 -0.1)">
      <defs>
       <path id="DejaVuSans-28" d="M 1984 4856 
Q 1566 4138 1362 3434 
Q 1159 2731 1159 2009 
Q 1159 1288 1364 580 
Q 1569 -128 1984 -844 
L 1484 -844 
Q 1016 -109 783 600 
Q 550 1309 550 2009 
Q 550 2706 781 3412 
Q 1013 4119 1484 4856 
L 1984 4856 
z
" transform="scale(0.015625)"/>
       <path id="DejaVuSans-43" d="M 4122 4306 
L 4122 3641 
Q 3803 3938 3442 4084 
Q 3081 4231 2675 4231 
Q 1875 4231 1450 3742 
Q 1025 3253 1025 2328 
Q 1025 1406 1450 917 
Q 1875 428 2675 428 
Q 3081 428 3442 575 
Q 3803 722 4122 1019 
L 4122 359 
Q 3791 134 3420 21 
Q 3050 -91 2638 -91 
Q 1578 -91 968 557 
Q 359 1206 359 2328 
Q 359 3453 968 4101 
Q 1578 4750 2638 4750 
Q 3056 4750 3426 4639 
Q 3797 4528 4122 4306 
z
" transform="scale(0.015625)"/>
       <path id="DejaVuSans-56" d="M 1831 0 
L 50 4666 
L 709 4666 
L 2188 738 
L 3669 4666 
L 4325 4666 
L 2547 0 
L 1831 0 
z
" transform="scale(0.015625)"/>
       <path id="DejaVuSans-49" d="M 628 4666 
L 1259 4666 
L 1259 0 
L 628 0 
L 628 4666 
z
" transform="scale(0.015625)"/>
       <path id="DejaVuSans-29" d="M 513 4856 
L 1013 4856 
Q 1481 4119 1714 3412 
Q 1947 2706 1947 2009 
Q 1947 1309 1714 600 
Q 1481 -109 1013 -844 
L 513 -844 
Q 928 -128 1133 580 
Q 1338 1288 1338 2009 
Q 1338 2731 1133 3434 
Q 928 4138 513 4856 
z
" transform="scale(0.015625)"/>
      </defs>
      <use xlink:href="#DejaVuSans-32"/>
      <use xlink:href="#DejaVuSans-30" transform="translate(63.623047 0)"/>
      <use xlink:href="#DejaVuSans-32" transform="translate(127.246094 0)"/>
      <use xlink:href="#DejaVuSans-30" transform="translate(190.869141 0)"/>
      <use xlink:href="#DejaVuSans-20" transform="translate(254.492188 0)"/>
      <use xlink:href="#DejaVuSans-28" transform="translate(286.279297 0)"/>
      <use xlink:href="#DejaVuSans-43" transform="translate(325.292969 0)"/>
      <use xlink:href="#DejaVuSans-4f" transform="translate(395.117188 0)"/>
      <use xlink:href="#DejaVuSans-56" transform="translate(472.078125 0)"/>
      <use xlink:href="#DejaVuSans-49" transform="translate(540.486328 0)"/>
      <use xlink:href="#DejaVuSans-44" transform="translate(569.978516 0)"/>
      <use xlink:href="#DejaVuSans-29" transform="translate(646.980469 0)"/>
     </g>
    </g>
    <g id="line2d_26">
     <path d="M 478.167058 527.162367 
L 488.167058 527.162367 
L 498.167058 527.162367 
" style="fill: none; stroke: #00695c; stroke-opacity: 0.85; stroke-width: 1.3; stroke-linecap: square"/>
    </g>
    <g id="text_23">
     <!-- 2021 (COVID) -->
     <g transform="translate(506.167058 530.662367) scale(0.1 -0.1)">
      <use xlink:href="#DejaVuSans-32"/>
      <use xlink:href="#DejaVuSans-30" transform="translate(63.623047 0)"/>
      <use xlink:href="#DejaVuSans-32" transform="translate(127.246094 0)"/>
      <use xlink:href="#DejaVuSans-31" transform="translate(190.869141 0)"/>
      <use xlink:href="#DejaVuSans-20" transform="translate(254.492188 0)"/>
      <use xlink:href="#DejaVuSans-28" transform="translate(286.279297 0)"/>
      <use xlink:href="#DejaVuSans-43" transform="translate(325.292969 0)"/>
      <use xlink:href="#DejaVuSans-4f" transform="translate(395.117188 0)"/>
      <use xlink:href="#DejaVuSans-56" transform="translate(472.078125 0)"/>
      <use xlink:href="#DejaVuSans-49" transform="translate(540.486328 0)"/>
      <use xlink:href="#DejaVuSans-44" transform="translate(569.978516 0)"/>
      <use xlink:href="#DejaVuSans-29" transform="translate(646.980469 0)"/>
     </g>
    </g>
    <g id="line2d_27">
     <path d="M 478.167058 541.840492 
L 488.167058 541.840492 
L 498.167058 541.840492 
" style="fill: none; stroke: #2e7d32; stroke-opacity: 0.85; stroke-width: 1.3; stroke-linecap: square"/>
    </g>
    <g id="text_24">
     <!-- 2022 (COVID) -->
     <g transform="translate(506.167058 545.340492) scale(0.1 -0.1)">
      <use xlink:href="#DejaVuSans-32"/>
      <use xlink:href="#DejaVuSans-30" transform="translate(63.623047 0)"/>
      <use xlink:href="#DejaVuSans-32" transform="translate(127.246094 0)"/>
      <use xlink:href="#DejaVuSans-32" transform="translate(190.869141 0)"/>
      <use xlink:href="#DejaVuSans-20" transform="translate(254.492188 0)"/>
      <use xlink:href="#DejaVuSans-28" transform="translate(286.279297 0)"/>
      <use xlink:href="#DejaVuSans-43" transform="translate(325.292969 0)"/>
      <use xlink:href="#DejaVuSans-4f" transform="translate(395.117188 0)"/>
      <use xlink:href="#DejaVuSans-56" transform="translate(472.078125 0)"/>
      <use xlink:href="#DejaVuSans-49" transform="translate(540.486328 0)"/>
      <use xlink:href="#DejaVuSans-44" transform="translate(569.978516 0)"/>
      <use xlink:href="#DejaVuSans-29" transform="translate(646.980469 0)"/>
     </g>
    </g>
    <g id="line2d_28">
     <path d="M 478.167058 556.518617 
L 488.167058 556.518617 
L 498.167058 556.518617 
" style="fill: none; stroke-dasharray: 1.2,1.98; stroke-dashoffset: 0; stroke: #78909c; stroke-width: 1.2"/>
    </g>
    <g id="text_25">
     <!-- 2024 -->
     <g transform="translate(506.167058 560.018617) scale(0.1 -0.1)">
      <use xlink:href="#DejaVuSans-32"/>
      <use xlink:href="#DejaVuSans-30" transform="translate(63.623047 0)"/>
      <use xlink:href="#DejaVuSans-32" transform="translate(127.246094 0)"/>
      <use xlink:href="#DejaVuSans-34" transform="translate(190.869141 0)"/>
     </g>
    </g>
    <g id="line2d_29">
     <path d="M 478.167058 571.196742 
L 488.167058 571.196742 
L 498.167058 571.196742 
" style="fill: none; stroke: #37474f; stroke-width: 1.5; stroke-linecap: square"/>
    </g>
    <g id="text_26">
     <!-- 2025 -->
     <g transform="translate(506.167058 574.696742) scale(0.1 -0.1)">
      <use xlink:href="#DejaVuSans-32"/>
      <use xlink:href="#DejaVuSans-30" transform="translate(63.623047 0)"/>
      <use xlink:href="#DejaVuSans-32" transform="translate(127.246094 0)"/>
      <use xlink:href="#DejaVuSans-35" transform="translate(190.869141 0)"/>
     </g>
    </g>
    <g id="line2d_30">
     <path d="M 478.167058 585.874867 
L 488.167058 585.874867 
L 498.167058 585.874867 
" style="fill: none; stroke: #d32f2f; stroke-width: 2.5; stroke-linecap: square"/>
    </g>
    <g id="text_27">
     <!-- 2026 -->
     <g transform="translate(506.167058 589.374867) scale(0.1 -0.1)">
      <defs>
       <path id="DejaVuSans-36" d="M 2113 2584 
Q 1688 2584 1439 2293 
Q 1191 2003 1191 1497 
Q 1191 994 1439 701 
Q 1688 409 2113 409 
Q 2538 409 2786 701 
Q 3034 994 3034 1497 
Q 3034 2003 2786 2293 
Q 2538 2584 2113 2584 
z
M 3366 4563 
L 3366 3988 
Q 3128 4100 2886 4159 
Q 2644 4219 2406 4219 
Q 1781 4219 1451 3797 
Q 1122 3375 1075 2522 
Q 1259 2794 1537 2939 
Q 1816 3084 2150 3084 
Q 2853 3084 3261 2657 
Q 3669 2231 3669 1497 
Q 3669 778 3244 343 
Q 2819 -91 2113 -91 
Q 1303 -91 875 529 
Q 447 1150 447 2328 
Q 447 3434 972 4092 
Q 1497 4750 2381 4750 
Q 2619 4750 2861 4703 
Q 3103 4656 3366 4563 
z
" transform="scale(0.015625)"/>
      </defs>
      <use xlink:href="#DejaVuSans-32"/>
      <use xlink:href="#DejaVuSans-30" transform="translate(63.623047 0)"/>
      <use xlink:href="#DejaVuSans-32" transform="translate(127.246094 0)"/>
      <use xlink:href="#DejaVuSans-36" transform="translate(190.869141 0)"/>
     </g>
    </g>
   </g>
   <g id="line2d_31">
    <path d="M 278.180292 165.839976 
L 300.80292 149.370987 
L 321.636157 159.377718 
L 340.635853 171.003314 
L 360.520798 178.798366 
L 381.487978 186.018071 
L 399.048779 199.252774 
L 413.685901 215.637599 
L 423.394286 235.45111 
L 423.698415 259.31129 
L 423.139702 280.70924 
L 427.997039 298.758582 
L 429.489377 317.312844 
L 429.408476 335.685093 
L 425.893283 353.620697 
L 420.428288 370.746075 
" clip-path="url(#pe78e5c00cc)" style="fill: none; stroke: #d32f2f; stroke-width: 2.5; stroke-linecap: square"/>
   </g>
   <g id="line2d_32">
    <path d="M 420.428288 370.746075 
" clip-path="url(#pe78e5c00cc)" style="fill: none; stroke: #d32f2f; stroke-width: 1.5; stroke-linecap: square"/>
    <defs>
     <path id="m22b9e60703" d="M 0 3.5 
C 0.928211 3.5 1.81853 3.131218 2.474874 2.474874 
C 3.131218 1.81853 3.5 0.928211 3.5 0 
C 3.5 -0.928211 3.131218 -1.81853 2.474874 -2.474874 
C 1.81853 -3.131218 0.928211 -3.5 0 -3.5 
C -0.928211 -3.5 -1.81853 -3.131218 -2.474874 -2.474874 
C -3.131218 -1.81853 -3.5 -0.928211 -3.5 0 
C -3.5 0.928211 -3.131218 1.81853 -2.474874 2.474874 
C -1.81853 3.131218 -0.928211 3.5 0 3.5 
z
" style="stroke: #ffffff; stroke-width: 1.5"/>
    </defs>
    <g clip-path="url(#pe78e5c00cc)">
     <use xlink:href="#m22b9e60703" x="420.428288" y="370.746075" style="fill: #d32f2f; stroke: #ffffff; stroke-width: 1.5"/>
    </g>
   </g>
   <g id="text_28">
    <g id="patch_7">
     <path d="M 570.428288 377.801231 
L 628.077506 377.801231 
Q 630.777506 377.801231 630.777506 375.101231 
L 630.777506 366.390919 
Q 630.777506 363.690919 628.077506 363.690919 
L 570.428288 363.690919 
Q 567.728288 363.690919 567.728288 366.390919 
L 567.728288 375.101231 
Q 567.728288 377.801231 570.428288 377.801231 
z
" style="fill: #ffffff; opacity: 0.9; stroke: #d32f2f; stroke-width: 0.8; stroke-linejoin: miter"/>
    </g>
    <!-- W16: 3,195 -->
    <g style="fill: #d32f2f" transform="translate(570.428288 373.229513) scale(0.09 -0.09)">
     <defs>
      <path id="DejaVuSans-Bold-57" d="M 191 4666 
L 1344 4666 
L 2150 1275 
L 2950 4666 
L 4109 4666 
L 4909 1275 
L 5716 4666 
L 6859 4666 
L 5759 0 
L 4372 0 
L 3525 3547 
L 2688 0 
L 1300 0 
L 191 4666 
z
" transform="scale(0.015625)"/>
      <path id="DejaVuSans-Bold-31" d="M 750 831 
L 1813 831 
L 1813 3847 
L 722 3622 
L 722 4441 
L 1806 4666 
L 2950 4666 
L 2950 831 
L 4013 831 
L 4013 0 
L 750 0 
L 750 831 
z
" transform="scale(0.015625)"/>
      <path id="DejaVuSans-Bold-36" d="M 2316 2303 
Q 2000 2303 1842 2098 
Q 1684 1894 1684 1484 
Q 1684 1075 1842 870 
Q 2000 666 2316 666 
Q 2634 666 2792 870 
Q 2950 1075 2950 1484 
Q 2950 1894 2792 2098 
Q 2634 2303 2316 2303 
z
M 3803 4544 
L 3803 3681 
Q 3506 3822 3243 3889 
Q 2981 3956 2731 3956 
Q 2194 3956 1894 3657 
Q 1594 3359 1544 2772 
Q 1750 2925 1990 3001 
Q 2231 3078 2516 3078 
Q 3231 3078 3670 2659 
Q 4109 2241 4109 1563 
Q 4109 813 3618 361 
Q 3128 -91 2303 -91 
Q 1394 -91 895 523 
Q 397 1138 397 2266 
Q 397 3422 980 4083 
Q 1563 4744 2578 4744 
Q 2900 4744 3203 4694 
Q 3506 4644 3803 4544 
z
" transform="scale(0.015625)"/>
      <path id="DejaVuSans-Bold-3a" d="M 716 3500 
L 1844 3500 
L 1844 2291 
L 716 2291 
L 716 3500 
z
M 716 1209 
L 1844 1209 
L 1844 0 
L 716 0 
L 716 1209 
z
" transform="scale(0.015625)"/>
      <path id="DejaVuSans-Bold-20" transform="scale(0.015625)"/>
      <path id="DejaVuSans-Bold-33" d="M 2981 2516 
Q 3453 2394 3698 2092 
Q 3944 1791 3944 1325 
Q 3944 631 3412 270 
Q 2881 -91 1863 -91 
Q 1503 -91 1142 -33 
Q 781 25 428 141 
L 428 1069 
Q 766 900 1098 814 
Q 1431 728 1753 728 
Q 2231 728 2486 893 
Q 2741 1059 2741 1369 
Q 2741 1688 2480 1852 
Q 2219 2016 1709 2016 
L 1228 2016 
L 1228 2791 
L 1734 2791 
Q 2188 2791 2409 2933 
Q 2631 3075 2631 3366 
Q 2631 3634 2415 3781 
Q 2200 3928 1806 3928 
Q 1516 3928 1219 3862 
Q 922 3797 628 3669 
L 628 4550 
Q 984 4650 1334 4700 
Q 1684 4750 2022 4750 
Q 2931 4750 3382 4451 
Q 3834 4153 3834 3553 
Q 3834 3144 3618 2883 
Q 3403 2622 2981 2516 
z
" transform="scale(0.015625)"/>
      <path id="DejaVuSans-Bold-2c" d="M 653 1209 
L 1778 1209 
L 1778 256 
L 1006 -909 
L 341 -909 
L 653 256 
L 653 1209 
z
" transform="scale(0.015625)"/>
      <path id="DejaVuSans-Bold-39" d="M 641 103 
L 641 966 
Q 928 831 1190 764 
Q 1453 697 1709 697 
Q 2247 697 2547 995 
Q 2847 1294 2900 1881 
Q 2688 1725 2447 1647 
Q 2206 1569 1925 1569 
Q 1209 1569 770 1986 
Q 331 2403 331 3084 
Q 331 3838 820 4291 
Q 1309 4744 2131 4744 
Q 3044 4744 3544 4128 
Q 4044 3513 4044 2388 
Q 4044 1231 3459 570 
Q 2875 -91 1856 -91 
Q 1528 -91 1228 -42 
Q 928 6 641 103 
z
M 2125 2350 
Q 2441 2350 2600 2554 
Q 2759 2759 2759 3169 
Q 2759 3575 2600 3781 
Q 2441 3988 2125 3988 
Q 1809 3988 1650 3781 
Q 1491 3575 1491 3169 
Q 1491 2759 1650 2554 
Q 1809 2350 2125 2350 
z
" transform="scale(0.015625)"/>
      <path id="DejaVuSans-Bold-35" d="M 678 4666 
L 3669 4666 
L 3669 3781 
L 1638 3781 
L 1638 3059 
Q 1775 3097 1914 3117 
Q 2053 3138 2203 3138 
Q 3056 3138 3531 2711 
Q 4006 2284 4006 1522 
Q 4006 766 3489 337 
Q 2972 -91 2053 -91 
Q 1656 -91 1267 -14 
Q 878 63 494 219 
L 494 1166 
Q 875 947 1217 837 
Q 1559 728 1863 728 
Q 2300 728 2551 942 
Q 2803 1156 2803 1522 
Q 2803 1891 2551 2103 
Q 2300 2316 1863 2316 
Q 1603 2316 1309 2248 
Q 1016 2181 678 2041 
L 678 4666 
z
" transform="scale(0.015625)"/>
     </defs>
     <use xlink:href="#DejaVuSans-Bold-57"/>
     <use xlink:href="#DejaVuSans-Bold-31" transform="translate(110.302734 0)"/>
     <use xlink:href="#DejaVuSans-Bold-36" transform="translate(179.882812 0)"/>
     <use xlink:href="#DejaVuSans-Bold-3a" transform="translate(249.462891 0)"/>
     <use xlink:href="#DejaVuSans-Bold-20" transform="translate(289.453125 0)"/>
     <use xlink:href="#DejaVuSans-Bold-33" transform="translate(324.267578 0)"/>
     <use xlink:href="#DejaVuSans-Bold-2c" transform="translate(393.847656 0)"/>
     <use xlink:href="#DejaVuSans-Bold-31" transform="translate(431.835938 0)"/>
     <use xlink:href="#DejaVuSans-Bold-39" transform="translate(501.416016 0)"/>
     <use xlink:href="#DejaVuSans-Bold-35" transform="translate(570.996094 0)"/>
    </g>
   </g>
  </g>
  <g id="text_29">
   <!-- Deaths per week in the Netherlands (Full History) -->
   <g style="fill: #212121" transform="translate(84.567661 17.837812) scale(0.14 -0.14)">
    <defs>
     <path id="DejaVuSans-Bold-44" d="M 1791 3756 
L 1791 909 
L 2222 909 
Q 2959 909 3348 1275 
Q 3738 1641 3738 2338 
Q 3738 3031 3350 3393 
Q 2963 3756 2222 3756 
L 1791 3756 
z
M 588 4666 
L 1856 4666 
Q 2919 4666 3439 4514 
Q 3959 4363 4331 4000 
Q 4659 3684 4818 3271 
Q 4978 2859 4978 2338 
Q 4978 1809 4818 1395 
Q 4659 981 4331 666 
Q 3956 303 3431 151 
Q 2906 0 1856 0 
L 588 0 
L 588 4666 
z
" transform="scale(0.015625)"/>
     <path id="DejaVuSans-Bold-65" d="M 4031 1759 
L 4031 1441 
L 1416 1441 
Q 1456 1047 1700 850 
Q 1944 653 2381 653 
Q 2734 653 3104 758 
Q 3475 863 3866 1075 
L 3866 213 
Q 3469 63 3072 -14 
Q 2675 -91 2278 -91 
Q 1328 -91 801 392 
Q 275 875 275 1747 
Q 275 2603 792 3093 
Q 1309 3584 2216 3584 
Q 3041 3584 3536 3087 
Q 4031 2591 4031 1759 
z
M 2881 2131 
Q 2881 2450 2695 2645 
Q 2509 2841 2209 2841 
Q 1884 2841 1681 2658 
Q 1478 2475 1428 2131 
L 2881 2131 
z
" transform="scale(0.015625)"/>
     <path id="DejaVuSans-Bold-61" d="M 2106 1575 
Q 1756 1575 1579 1456 
Q 1403 1338 1403 1106 
Q 1403 894 1545 773 
Q 1688 653 1941 653 
Q 2256 653 2472 879 
Q 2688 1106 2688 1447 
L 2688 1575 
L 2106 1575 
z
M 3816 1997 
L 3816 0 
L 2688 0 
L 2688 519 
Q 2463 200 2181 54 
Q 1900 -91 1497 -91 
Q 953 -91 614 226 
Q 275 544 275 1050 
Q 275 1666 698 1953 
Q 1122 2241 2028 2241 
L 2688 2241 
L 2688 2328 
Q 2688 2594 2478 2717 
Q 2269 2841 1825 2841 
Q 1466 2841 1156 2769 
Q 847 2697 581 2553 
L 581 3406 
Q 941 3494 1303 3539 
Q 1666 3584 2028 3584 
Q 2975 3584 3395 3211 
Q 3816 2838 3816 1997 
z
" transform="scale(0.015625)"/>
     <path id="DejaVuSans-Bold-74" d="M 1759 4494 
L 1759 3500 
L 2913 3500 
L 2913 2700 
L 1759 2700 
L 1759 1216 
Q 1759 972 1856 886 
Q 1953 800 2241 800 
L 2816 800 
L 2816 0 
L 1856 0 
Q 1194 0 917 276 
Q 641 553 641 1216 
L 641 2700 
L 84 2700 
L 84 3500 
L 641 3500 
L 641 4494 
L 1759 4494 
z
" transform="scale(0.015625)"/>
     <path id="DejaVuSans-Bold-68" d="M 4056 2131 
L 4056 0 
L 2931 0 
L 2931 347 
L 2931 1625 
Q 2931 2084 2911 2256 
Q 2891 2428 2841 2509 
Q 2775 2619 2662 2680 
Q 2550 2741 2406 2741 
Q 2056 2741 1856 2470 
Q 1656 2200 1656 1722 
L 1656 0 
L 538 0 
L 538 4863 
L 1656 4863 
L 1656 2988 
Q 1909 3294 2193 3439 
Q 2478 3584 2822 3584 
Q 3428 3584 3742 3212 
Q 4056 2841 4056 2131 
z
" transform="scale(0.015625)"/>
     <path id="DejaVuSans-Bold-73" d="M 3272 3391 
L 3272 2541 
Q 2913 2691 2578 2766 
Q 2244 2841 1947 2841 
Q 1628 2841 1473 2761 
Q 1319 2681 1319 2516 
Q 1319 2381 1436 2309 
Q 1553 2238 1856 2203 
L 2053 2175 
Q 2913 2066 3209 1816 
Q 3506 1566 3506 1031 
Q 3506 472 3093 190 
Q 2681 -91 1863 -91 
Q 1516 -91 1145 -36 
Q 775 19 384 128 
L 384 978 
Q 719 816 1070 734 
Q 1422 653 1784 653 
Q 2113 653 2278 743 
Q 2444 834 2444 1013 
Q 2444 1163 2330 1236 
Q 2216 1309 1875 1350 
L 1678 1375 
Q 931 1469 631 1722 
Q 331 1975 331 2491 
Q 331 3047 712 3315 
Q 1094 3584 1881 3584 
Q 2191 3584 2531 3537 
Q 2872 3491 3272 3391 
z
" transform="scale(0.015625)"/>
     <path id="DejaVuSans-Bold-70" d="M 1656 506 
L 1656 -1331 
L 538 -1331 
L 538 3500 
L 1656 3500 
L 1656 2988 
Q 1888 3294 2169 3439 
Q 2450 3584 2816 3584 
Q 3463 3584 3878 3070 
Q 4294 2556 4294 1747 
Q 4294 938 3878 423 
Q 3463 -91 2816 -91 
Q 2450 -91 2169 54 
Q 1888 200 1656 506 
z
M 2400 2772 
Q 2041 2772 1848 2508 
Q 1656 2244 1656 1747 
Q 1656 1250 1848 986 
Q 2041 722 2400 722 
Q 2759 722 2948 984 
Q 3138 1247 3138 1747 
Q 3138 2247 2948 2509 
Q 2759 2772 2400 2772 
z
" transform="scale(0.015625)"/>
     <path id="DejaVuSans-Bold-72" d="M 3138 2547 
Q 2991 2616 2845 2648 
Q 2700 2681 2553 2681 
Q 2122 2681 1889 2404 
Q 1656 2128 1656 1613 
L 1656 0 
L 538 0 
L 538 3500 
L 1656 3500 
L 1656 2925 
Q 1872 3269 2151 3426 
Q 2431 3584 2822 3584 
Q 2878 3584 2943 3579 
Q 3009 3575 3134 3559 
L 3138 2547 
z
" transform="scale(0.015625)"/>
     <path id="DejaVuSans-Bold-77" d="M 225 3500 
L 1313 3500 
L 1900 1088 
L 2491 3500 
L 3425 3500 
L 4013 1113 
L 4603 3500 
L 5691 3500 
L 4769 0 
L 3547 0 
L 2956 2406 
L 2369 0 
L 1147 0 
L 225 3500 
z
" transform="scale(0.015625)"/>
     <path id="DejaVuSans-Bold-6b" d="M 538 4863 
L 1656 4863 
L 1656 2216 
L 2944 3500 
L 4244 3500 
L 2534 1894 
L 4378 0 
L 3022 0 
L 1656 1459 
L 1656 0 
L 538 0 
L 538 4863 
z
" transform="scale(0.015625)"/>
     <path id="DejaVuSans-Bold-69" d="M 538 3500 
L 1656 3500 
L 1656 0 
L 538 0 
L 538 3500 
z
M 538 4863 
L 1656 4863 
L 1656 3950 
L 538 3950 
L 538 4863 
z
" transform="scale(0.015625)"/>
     <path id="DejaVuSans-Bold-6e" d="M 4056 2131 
L 4056 0 
L 2931 0 
L 2931 347 
L 2931 1631 
Q 2931 2084 2911 2256 
Q 2891 2428 2841 2509 
Q 2775 2619 2662 2680 
Q 2550 2741 2406 2741 
Q 2056 2741 1856 2470 
Q 1656 2200 1656 1722 
L 1656 0 
L 538 0 
L 538 3500 
L 1656 3500 
L 1656 2988 
Q 1909 3294 2193 3439 
Q 2478 3584 2822 3584 
Q 3428 3584 3742 3212 
Q 4056 2841 4056 2131 
z
" transform="scale(0.015625)"/>
     <path id="DejaVuSans-Bold-4e" d="M 588 4666 
L 1931 4666 
L 3628 1466 
L 3628 4666 
L 4769 4666 
L 4769 0 
L 3425 0 
L 1728 3200 
L 1728 0 
L 588 0 
L 588 4666 
z
" transform="scale(0.015625)"/>
     <path id="DejaVuSans-Bold-6c" d="M 538 4863 
L 1656 4863 
L 1656 0 
L 538 0 
L 538 4863 
z
" transform="scale(0.015625)"/>
     <path id="DejaVuSans-Bold-64" d="M 2919 2988 
L 2919 4863 
L 4044 4863 
L 4044 0 
L 2919 0 
L 2919 506 
Q 2688 197 2409 53 
Q 2131 -91 1766 -91 
Q 1119 -91 703 423 
Q 288 938 288 1747 
Q 288 2556 703 3070 
Q 1119 3584 1766 3584 
Q 2128 3584 2408 3439 
Q 2688 3294 2919 2988 
z
M 2181 722 
Q 2541 722 2730 984 
Q 2919 1247 2919 1747 
Q 2919 2247 2730 2509 
Q 2541 2772 2181 2772 
Q 1825 2772 1636 2509 
Q 1447 2247 1447 1747 
Q 1447 1247 1636 984 
Q 1825 722 2181 722 
z
" transform="scale(0.015625)"/>
     <path id="DejaVuSans-Bold-28" d="M 2413 -844 
L 1484 -844 
Q 1006 -72 778 623 
Q 550 1319 550 2003 
Q 550 2688 779 3389 
Q 1009 4091 1484 4856 
L 2413 4856 
Q 2013 4116 1813 3408 
Q 1613 2700 1613 2009 
Q 1613 1319 1811 609 
Q 2009 -100 2413 -844 
z
" transform="scale(0.015625)"/>
     <path id="DejaVuSans-Bold-46" d="M 588 4666 
L 3834 4666 
L 3834 3756 
L 1791 3756 
L 1791 2888 
L 3713 2888 
L 3713 1978 
L 1791 1978 
L 1791 0 
L 588 0 
L 588 4666 
z
" transform="scale(0.015625)"/>
     <path id="DejaVuSans-Bold-75" d="M 500 1363 
L 500 3500 
L 1625 3500 
L 1625 3150 
Q 1625 2866 1622 2436 
Q 1619 2006 1619 1863 
Q 1619 1441 1641 1255 
Q 1663 1069 1716 984 
Q 1784 875 1895 815 
Q 2006 756 2150 756 
Q 2500 756 2700 1025 
Q 2900 1294 2900 1772 
L 2900 3500 
L 4019 3500 
L 4019 0 
L 2900 0 
L 2900 506 
Q 2647 200 2364 54 
Q 2081 -91 1741 -91 
Q 1134 -91 817 281 
Q 500 653 500 1363 
z
" transform="scale(0.015625)"/>
     <path id="DejaVuSans-Bold-48" d="M 588 4666 
L 1791 4666 
L 1791 2888 
L 3566 2888 
L 3566 4666 
L 4769 4666 
L 4769 0 
L 3566 0 
L 3566 1978 
L 1791 1978 
L 1791 0 
L 588 0 
L 588 4666 
z
" transform="scale(0.015625)"/>
     <path id="DejaVuSans-Bold-6f" d="M 2203 2784 
Q 1831 2784 1636 2517 
Q 1441 2250 1441 1747 
Q 1441 1244 1636 976 
Q 1831 709 2203 709 
Q 2569 709 2762 976 
Q 2956 1244 2956 1747 
Q 2956 2250 2762 2517 
Q 2569 2784 2203 2784 
z
M 2203 3584 
Q 3106 3584 3614 3096 
Q 4122 2609 4122 1747 
Q 4122 884 3614 396 
Q 3106 -91 2203 -91 
Q 1297 -91 786 396 
Q 275 884 275 1747 
Q 275 2609 786 3096 
Q 1297 3584 2203 3584 
z
" transform="scale(0.015625)"/>
     <path id="DejaVuSans-Bold-79" d="M 78 3500 
L 1197 3500 
L 2138 1125 
L 2938 3500 
L 4056 3500 
L 2584 -331 
Q 2363 -916 2067 -1148 
Q 1772 -1381 1288 -1381 
L 641 -1381 
L 641 -647 
L 991 -647 
Q 1275 -647 1404 -556 
Q 1534 -466 1606 -231 
L 1638 -134 
L 78 3500 
z
" transform="scale(0.015625)"/>
     <path id="DejaVuSans-Bold-29" d="M 513 -844 
Q 913 -100 1113 609 
Q 1313 1319 1313 2009 
Q 1313 2700 1113 3408 
Q 913 4116 513 4856 
L 1441 4856 
Q 1916 4091 2145 3389 
Q 2375 2688 2375 2003 
Q 2375 1319 2147 623 
Q 1919 -72 1441 -844 
L 513 -844 
z
" transform="scale(0.015625)"/>
    </defs>
    <use xlink:href="#DejaVuSans-Bold-44"/>
    <use xlink:href="#DejaVuSans-Bold-65" transform="translate(83.007812 0)"/>
    <use xlink:href="#DejaVuSans-Bold-61" transform="translate(150.830078 0)"/>
    <use xlink:href="#DejaVuSans-Bold-74" transform="translate(218.310547 0)"/>
    <use xlink:href="#DejaVuSans-Bold-68" transform="translate(266.113281 0)"/>
    <use xlink:href="#DejaVuSans-Bold-73" transform="translate(337.304688 0)"/>
    <use xlink:href="#DejaVuSans-Bold-20" transform="translate(396.826172 0)"/>
    <use xlink:href="#DejaVuSans-Bold-70" transform="translate(431.640625 0)"/>
    <use xlink:href="#DejaVuSans-Bold-65" transform="translate(503.222656 0)"/>
    <use xlink:href="#DejaVuSans-Bold-72" transform="translate(571.044922 0)"/>
    <use xlink:href="#DejaVuSans-Bold-20" transform="translate(620.361328 0)"/>
    <use xlink:href="#DejaVuSans-Bold-77" transform="translate(655.175781 0)"/>
    <use xlink:href="#DejaVuSans-Bold-65" transform="translate(747.558594 0)"/>
    <use xlink:href="#DejaVuSans-Bold-65" transform="translate(815.380859 0)"/>
    <use xlink:href="#DejaVuSans-Bold-6b" transform="translate(883.203125 0)"/>
    <use xlink:href="#DejaVuSans-Bold-20" transform="translate(949.707031 0)"/>
    <use xlink:href="#DejaVuSans-Bold-69" transform="translate(984.521484 0)"/>
    <use xlink:href="#DejaVuSans-Bold-6e" transform="translate(1018.798828 0)"/>
    <use xlink:href="#DejaVuSans-Bold-20" transform="translate(1089.990234 0)"/>
    <use xlink:href="#DejaVuSans-Bold-74" transform="translate(1124.804688 0)"/>
    <use xlink:href="#DejaVuSans-Bold-68" transform="translate(1172.607422 0)"/>
    <use xlink:href="#DejaVuSans-Bold-65" transform="translate(1243.798828 0)"/>
    <use xlink:href="#DejaVuSans-Bold-20" transform="translate(1311.621094 0)"/>
    <use xlink:href="#DejaVuSans-Bold-4e" transform="translate(1346.435547 0)"/>
    <use xlink:href="#DejaVuSans-Bold-65" transform="translate(1430.126953 0)"/>
    <use xlink:href="#DejaVuSans-Bold-74" transform="translate(1497.949219 0)"/>
    <use xlink:href="#DejaVuSans-Bold-68" transform="translate(1545.751953 0)"/>
    <use xlink:href="#DejaVuSans-Bold-65" transform="translate(1616.943359 0)"/>
    <use xlink:href="#DejaVuSans-Bold-72" transform="translate(1684.765625 0)"/>
    <use xlink:href="#DejaVuSans-Bold-6c" transform="translate(1734.082031 0)"/>
    <use xlink:href="#DejaVuSans-Bold-61" transform="translate(1768.359375 0)"/>
    <use xlink:href="#DejaVuSans-Bold-6e" transform="translate(1835.839844 0)"/>
    <use xlink:href="#DejaVuSans-Bold-64" transform="translate(1907.03125 0)"/>
    <use xlink:href="#DejaVuSans-Bold-73" transform="translate(1978.613281 0)"/>
    <use xlink:href="#DejaVuSans-Bold-20" transform="translate(2038.134766 0)"/>
    <use xlink:href="#DejaVuSans-Bold-28" transform="translate(2072.949219 0)"/>
    <use xlink:href="#DejaVuSans-Bold-46" transform="translate(2118.652344 0)"/>
    <use xlink:href="#DejaVuSans-Bold-75" transform="translate(2181.962891 0)"/>
    <use xlink:href="#DejaVuSans-Bold-6c" transform="translate(2253.154297 0)"/>
    <use xlink:href="#DejaVuSans-Bold-6c" transform="translate(2287.431641 0)"/>
    <use xlink:href="#DejaVuSans-Bold-20" transform="translate(2321.708984 0)"/>
    <use xlink:href="#DejaVuSans-Bold-48" transform="translate(2356.523438 0)"/>
    <use xlink:href="#DejaVuSans-Bold-69" transform="translate(2440.214844 0)"/>
    <use xlink:href="#DejaVuSans-Bold-73" transform="translate(2474.492188 0)"/>
    <use xlink:href="#DejaVuSans-Bold-74" transform="translate(2534.013672 0)"/>
    <use xlink:href="#DejaVuSans-Bold-6f" transform="translate(2581.816406 0)"/>
    <use xlink:href="#DejaVuSans-Bold-72" transform="translate(2650.517578 0)"/>
    <use xlink:href="#DejaVuSans-Bold-79" transform="translate(2699.833984 0)"/>
    <use xlink:href="#DejaVuSans-Bold-29" transform="translate(2765.019531 0)"/>
   </g>
  </g>
 </g>
 <defs>
  <clipPath id="pe78e5c00cc">
   <path d="M 518.879803 335.685093 
C 518.879803 304.076723 512.653643 272.775704 500.557643 243.573378 
C 488.461644 214.371052 470.731041 187.83533 448.380548 165.484837 
C 426.030055 143.134344 399.494333 125.403741 370.292007 113.307742 
C 341.089681 101.211742 309.788662 94.985582 278.180292 94.985582 
C 246.571922 94.985582 215.270903 101.211742 186.068577 113.307742 
C 156.866251 125.403741 130.330529 143.134344 107.980036 165.484837 
C 85.629543 187.83533 67.89894 214.371052 55.802941 243.573378 
C 43.706941 272.775704 37.480781 304.076723 37.480781 335.685093 
C 37.480781 367.293463 43.706941 398.594482 55.802941 427.796808 
C 67.89894 456.999134 85.629543 483.534856 107.980036 505.885349 
C 130.330529 528.235842 156.866251 545.966445 186.068577 558.062444 
C 215.270903 570.158444 246.571922 576.384604 278.180292 576.384604 
C 309.788662 576.384604 341.089681 570.158444 370.292007 558.062444 
C 399.494333 545.966445 426.030055 528.235842 448.380548 505.885349 
C 470.731041 483.534856 488.461644 456.999134 500.557643 427.796808 
C 512.653643 398.594482 518.879803 367.293463 518.879803 335.685093 
M 278.180292 335.685093 
C 278.180292 335.685093 278.180292 335.685093 278.180292 335.685093 
C 278.180292 335.685093 278.180292 335.685093 278.180292 335.685093 
C 278.180292 335.685093 278.180292 335.685093 278.180292 335.685093 
C 278.180292 335.685093 278.180292 335.685093 278.180292 335.685093 
C 278.180292 335.685093 278.180292 335.685093 278.180292 335.685093 
C 278.180292 335.685093 278.180292 335.685093 278.180292 335.685093 
C 278.180292 335.685093 278.180292 335.685093 278.180292 335.685093 
C 278.180292 335.685093 278.180292 335.685093 278.180292 335.685093 
C 278.180292 335.685093 278.180292 335.685093 278.180292 335.685093 
C 278.180292 335.685093 278.180292 335.685093 278.180292 335.685093 
C 278.180292 335.685093 278.180292 335.685093 278.180292 335.685093 
C 278.180292 335.685093 278.180292 335.685093 278.180292 335.685093 
C 278.180292 335.685093 278.180292 335.685093 278.180292 335.685093 
C 278.180292 335.685093 278.180292 335.685093 278.180292 335.685093 
C 278.180292 335.685093 278.180292 335.685093 278.180292 335.685093 
C 278.180292 335.685093 278.180292 335.685093 278.180292 335.685093 
z
"/>
  </clipPath>
 </defs>
</svg>
