<?xml version="1.0" encoding="utf-8" standalone="no"?>
<!DOCTYPE svg PUBLIC "-//W3C//DTD SVG 1.1//EN"
  "http://www.w3.org/Graphics/SVG/1.1/DTD/svg11.dtd">
<svg xmlns:xlink="http://www.w3.org/1999/xlink" width="498.811421pt" height="460.67976pt" viewBox="0 0 498.811421 460.67976" xmlns="http://www.w3.org/2000/svg" version="1.1">
 <metadata>
  <rdf:RDF xmlns:dc="http://purl.org/dc/elements/1.1/" xmlns:cc="http://creativecommons.org/ns#" xmlns:rdf="http://www.w3.org/1999/02/22-rdf-syntax-ns#">
   <cc:Work>
    <dc:type rdf:resource="http://purl.org/dc/dcmitype/StillImage"/>
    <dc:date>2021-11-19T02:32:27.772253</dc:date>
    <dc:format>image/svg+xml</dc:format>
    <dc:creator>
     <cc:Agent>
      <dc:title>Matplotlib v3.5.0, https://matplotlib.org/</dc:title>
     </cc:Agent>
    </dc:creator>
   </cc:Work>
  </rdf:RDF>
 </metadata>
 <defs>
  <style type="text/css">*{stroke-linejoin: round; stroke-linecap: butt}</style>
 </defs>
 <g id="figure_1">
  <g id="patch_1">
   <path d="M 0 460.67976 
L 498.811421 460.67976 
L 498.811421 0 
L 0 0 
z
" style="fill: #ffffff"/>
  </g>
  <g id="axes_1">
   <g id="patch_2">
    <path d="M 387.377531 255.874589 
C 387.377531 232.399238 382.753398 209.152156 373.769771 187.46376 
C 364.786143 165.775365 351.617729 146.06744 335.018149 129.467861 
C 318.41857 112.868281 298.710645 99.699867 277.02225 90.716239 
C 255.333854 81.732612 232.086772 77.108479 208.611422 77.108479 
C 185.136071 77.108479 161.888989 81.732612 140.200593 90.716239 
C 118.512198 99.699867 98.804273 112.868281 82.204694 129.467861 
C 65.605114 146.06744 52.4367 165.775365 43.453072 187.46376 
C 34.469445 209.152156 29.845313 232.399238 29.845313 255.874588 
C 29.845313 279.349939 34.469445 302.597021 43.453072 324.285417 
C 52.4367 345.973812 65.605114 365.681737 82.204694 382.281316 
C 98.804273 398.880896 118.512198 412.04931 140.200593 421.032938 
C 161.888989 430.016565 185.136071 434.640698 208.611422 434.640698 
C 232.086772 434.640698 255.333854 430.016565 277.02225 421.032938 
C 298.710645 412.04931 318.41857 398.880896 335.018149 382.281316 
C 351.617729 365.681737 364.786143 345.973812 373.769771 324.285417 
C 382.753398 302.597021 387.377531 279.349939 387.377531 255.874589 
M 208.611422 255.874589 
C 208.611422 255.874589 208.611422 255.874589 208.611422 255.874589 
C 208.611422 255.874589 208.611422 255.874589 208.611422 255.874589 
C 208.611422 255.874589 208.611422 255.874589 208.611422 255.874589 
C 208.611422 255.874589 208.611422 255.874589 208.611422 255.874589 
C 208.611422 255.874589 208.611422 255.874589 208.611422 255.874589 
C 208.611422 255.874589 208.611422 255.874589 208.611422 255.874589 
C 208.611422 255.874589 208.611422 255.874589 208.611422 255.874589 
C 208.611422 255.874589 208.611422 255.874589 208.611422 255.874589 
C 208.611422 255.874589 208.611422 255.874589 208.611422 255.874589 
C 208.611422 255.874589 208.611422 255.874589 208.611422 255.874589 
C 208.611422 255.874589 208.611422 255.874589 208.611422 255.874589 
C 208.611422 255.874589 208.611422 255.874589 208.611422 255.874589 
C 208.611422 255.874589 208.611422 255.874589 208.611422 255.874589 
C 208.611422 255.874589 208.611422 255.874589 208.611422 255.874589 
C 208.611422 255.874589 208.611422 255.874589 208.611422 255.874589 
C 208.611422 255.874589 208.611422 255.874589 208.611422 255.874589 
M 387.377531 255.874589 
z
" style="fill: #ffffff"/>
   </g>
   <g id="matplotlib.axis_1">
    <g id="xtick_1">
     <g id="line2d_1">
      <path d="M 208.611422 255.874589 
L 208.611422 77.108479 
" clip-path="url(#p1284773f4c)" style="fill: none; stroke: #b0b0b0; stroke-width: 0.8; stroke-linecap: square"/>
     </g>
     <g id="text_1">
      <!-- Jan -->
      <g transform="translate(200.903609 65.867854)scale(0.1 -0.1)">
       <defs>
        <path id="DejaVuSans-4a" d="M 628 4666 
L 1259 4666 
L 1259 325 
Q 1259 -519 939 -900 
Q 619 -1281 -91 -1281 
L -331 -1281 
L -331 -750 
L -134 -750 
Q 284 -750 456 -515 
Q 628 -281 628 325 
L 628 4666 
z
" transform="scale(0.015625)"/>
        <path id="DejaVuSans-61" d="M 2194 1759 
Q 1497 1759 1228 1600 
Q 959 1441 959 1056 
Q 959 750 1161 570 
Q 1363 391 1709 391 
Q 2188 391 2477 730 
Q 2766 1069 2766 1631 
L 2766 1759 
L 2194 1759 
z
M 3341 1997 
L 3341 0 
L 2766 0 
L 2766 531 
Q 2569 213 2275 61 
Q 1981 -91 1556 -91 
Q 1019 -91 701 211 
Q 384 513 384 1019 
Q 384 1609 779 1909 
Q 1175 2209 1959 2209 
L 2766 2209 
L 2766 2266 
Q 2766 2663 2505 2880 
Q 2244 3097 1772 3097 
Q 1472 3097 1187 3025 
Q 903 2953 641 2809 
L 641 3341 
Q 956 3463 1253 3523 
Q 1550 3584 1831 3584 
Q 2591 3584 2966 3190 
Q 3341 2797 3341 1997 
z
" transform="scale(0.015625)"/>
        <path id="DejaVuSans-6e" d="M 3513 2113 
L 3513 0 
L 2938 0 
L 2938 2094 
Q 2938 2591 2744 2837 
Q 2550 3084 2163 3084 
Q 1697 3084 1428 2787 
Q 1159 2491 1159 1978 
L 1159 0 
L 581 0 
L 581 3500 
L 1159 3500 
L 1159 2956 
Q 1366 3272 1645 3428 
Q 1925 3584 2291 3584 
Q 2894 3584 3203 3211 
Q 3513 2838 3513 2113 
z
" transform="scale(0.015625)"/>
       </defs>
       <use xlink:href="#DejaVuSans-4a"/>
       <use xlink:href="#DejaVuSans-61" x="29.492188"/>
       <use xlink:href="#DejaVuSans-6e" x="90.771484"/>
      </g>
     </g>
    </g>
    <g id="xtick_2">
     <g id="line2d_2">
      <path d="M 208.611422 255.874589 
L 297.994476 101.058597 
" clip-path="url(#p1284773f4c)" style="fill: none; stroke: #b0b0b0; stroke-width: 0.8; stroke-linecap: square"/>
     </g>
     <g id="text_2">
      <!-- Feb -->
      <g transform="translate(296.142913 91.693616)scale(0.1 -0.1)">
       <defs>
        <path id="DejaVuSans-46" d="M 628 4666 
L 3309 4666 
L 3309 4134 
L 1259 4134 
L 1259 2759 
L 3109 2759 
L 3109 2228 
L 1259 2228 
L 1259 0 
L 628 0 
L 628 4666 
z
" transform="scale(0.015625)"/>
        <path id="DejaVuSans-65" d="M 3597 1894 
L 3597 1613 
L 953 1613 
Q 991 1019 1311 708 
Q 1631 397 2203 397 
Q 2534 397 2845 478 
Q 3156 559 3463 722 
L 3463 178 
Q 3153 47 2828 -22 
Q 2503 -91 2169 -91 
Q 1331 -91 842 396 
Q 353 884 353 1716 
Q 353 2575 817 3079 
Q 1281 3584 2069 3584 
Q 2775 3584 3186 3129 
Q 3597 2675 3597 1894 
z
M 3022 2063 
Q 3016 2534 2758 2815 
Q 2500 3097 2075 3097 
Q 1594 3097 1305 2825 
Q 1016 2553 972 2059 
L 3022 2063 
z
" transform="scale(0.015625)"/>
        <path id="DejaVuSans-62" d="M 3116 1747 
Q 3116 2381 2855 2742 
Q 2594 3103 2138 3103 
Q 1681 3103 1420 2742 
Q 1159 2381 1159 1747 
Q 1159 1113 1420 752 
Q 1681 391 2138 391 
Q 2594 391 2855 752 
Q 3116 1113 3116 1747 
z
M 1159 2969 
Q 1341 3281 1617 3432 
Q 1894 3584 2278 3584 
Q 2916 3584 3314 3078 
Q 3713 2572 3713 1747 
Q 3713 922 3314 415 
Q 2916 -91 2278 -91 
Q 1894 -91 1617 61 
Q 1341 213 1159 525 
L 1159 0 
L 581 0 
L 581 4863 
L 1159 4863 
L 1159 2969 
z
" transform="scale(0.015625)"/>
       </defs>
       <use xlink:href="#DejaVuSans-46"/>
       <use xlink:href="#DejaVuSans-65" x="52.019531"/>
       <use xlink:href="#DejaVuSans-62" x="113.542969"/>
      </g>
     </g>
    </g>
    <g id="xtick_3">
     <g id="line2d_3">
      <path d="M 208.611422 255.874589 
L 363.427413 166.491534 
" clip-path="url(#p1284773f4c)" style="fill: none; stroke: #b0b0b0; stroke-width: 0.8; stroke-linecap: square"/>
     </g>
     <g id="text_3">
      <!-- Mar -->
      <g transform="translate(366.118175 162.250909)scale(0.1 -0.1)">
       <defs>
        <path id="DejaVuSans-4d" d="M 628 4666 
L 1569 4666 
L 2759 1491 
L 3956 4666 
L 4897 4666 
L 4897 0 
L 4281 0 
L 4281 4097 
L 3078 897 
L 2444 897 
L 1241 4097 
L 1241 0 
L 628 0 
L 628 4666 
z
" transform="scale(0.015625)"/>
        <path id="DejaVuSans-72" d="M 2631 2963 
Q 2534 3019 2420 3045 
Q 2306 3072 2169 3072 
Q 1681 3072 1420 2755 
Q 1159 2438 1159 1844 
L 1159 0 
L 581 0 
L 581 3500 
L 1159 3500 
L 1159 2956 
Q 1341 3275 1631 3429 
Q 1922 3584 2338 3584 
Q 2397 3584 2469 3576 
Q 2541 3569 2628 3553 
L 2631 2963 
z
" transform="scale(0.015625)"/>
       </defs>
       <use xlink:href="#DejaVuSans-4d"/>
       <use xlink:href="#DejaVuSans-61" x="86.279297"/>
       <use xlink:href="#DejaVuSans-72" x="147.558594"/>
      </g>
     </g>
    </g>
    <g id="xtick_4">
     <g id="line2d_4">
      <path d="M 208.611422 255.874589 
L 387.377531 255.874589 
" clip-path="url(#p1284773f4c)" style="fill: none; stroke: #b0b0b0; stroke-width: 0.8; stroke-linecap: square"/>
     </g>
     <g id="text_4">
      <!-- Apr -->
      <g transform="translate(392.727531 258.633964)scale(0.1 -0.1)">
       <defs>
        <path id="DejaVuSans-41" d="M 2188 4044 
L 1331 1722 
L 3047 1722 
L 2188 4044 
z
M 1831 4666 
L 2547 4666 
L 4325 0 
L 3669 0 
L 3244 1197 
L 1141 1197 
L 716 0 
L 50 0 
L 1831 4666 
z
" transform="scale(0.015625)"/>
        <path id="DejaVuSans-70" d="M 1159 525 
L 1159 -1331 
L 581 -1331 
L 581 3500 
L 1159 3500 
L 1159 2969 
Q 1341 3281 1617 3432 
Q 1894 3584 2278 3584 
Q 2916 3584 3314 3078 
Q 3713 2572 3713 1747 
Q 3713 922 3314 415 
Q 2916 -91 2278 -91 
Q 1894 -91 1617 61 
Q 1341 213 1159 525 
z
M 3116 1747 
Q 3116 2381 2855 2742 
Q 2594 3103 2138 3103 
Q 1681 3103 1420 2742 
Q 1159 2381 1159 1747 
Q 1159 1113 1420 752 
Q 1681 391 2138 391 
Q 2594 391 2855 752 
Q 3116 1113 3116 1747 
z
" transform="scale(0.015625)"/>
       </defs>
       <use xlink:href="#DejaVuSans-41"/>
       <use xlink:href="#DejaVuSans-70" x="68.408203"/>
       <use xlink:href="#DejaVuSans-72" x="131.884766"/>
      </g>
     </g>
    </g>
    <g id="xtick_5">
     <g id="line2d_5">
      <path d="M 208.611422 255.874589 
L 363.427413 345.257643 
" clip-path="url(#p1284773f4c)" style="fill: none; stroke: #b0b0b0; stroke-width: 0.8; stroke-linecap: square"/>
     </g>
     <g id="text_5">
      <!-- May -->
      <g transform="translate(365.214269 355.017018)scale(0.1 -0.1)">
       <defs>
        <path id="DejaVuSans-79" d="M 2059 -325 
Q 1816 -950 1584 -1140 
Q 1353 -1331 966 -1331 
L 506 -1331 
L 506 -850 
L 844 -850 
Q 1081 -850 1212 -737 
Q 1344 -625 1503 -206 
L 1606 56 
L 191 3500 
L 800 3500 
L 1894 763 
L 2988 3500 
L 3597 3500 
L 2059 -325 
z
" transform="scale(0.015625)"/>
       </defs>
       <use xlink:href="#DejaVuSans-4d"/>
       <use xlink:href="#DejaVuSans-61" x="86.279297"/>
       <use xlink:href="#DejaVuSans-79" x="147.558594"/>
      </g>
     </g>
    </g>
    <g id="xtick_6">
     <g id="line2d_6">
      <path d="M 208.611422 255.874589 
L 297.994476 410.69058 
" clip-path="url(#p1284773f4c)" style="fill: none; stroke: #b0b0b0; stroke-width: 0.8; stroke-linecap: square"/>
     </g>
     <g id="text_6">
      <!-- Jun -->
      <g transform="translate(297.181976 425.574311)scale(0.1 -0.1)">
       <defs>
        <path id="DejaVuSans-75" d="M 544 1381 
L 544 3500 
L 1119 3500 
L 1119 1403 
Q 1119 906 1312 657 
Q 1506 409 1894 409 
Q 2359 409 2629 706 
Q 2900 1003 2900 1516 
L 2900 3500 
L 3475 3500 
L 3475 0 
L 2900 0 
L 2900 538 
Q 2691 219 2414 64 
Q 2138 -91 1772 -91 
Q 1169 -91 856 284 
Q 544 659 544 1381 
z
M 1991 3584 
L 1991 3584 
z
" transform="scale(0.015625)"/>
       </defs>
       <use xlink:href="#DejaVuSans-4a"/>
       <use xlink:href="#DejaVuSans-75" x="29.492188"/>
       <use xlink:href="#DejaVuSans-6e" x="92.871094"/>
      </g>
     </g>
    </g>
    <g id="xtick_7">
     <g id="line2d_7">
      <path d="M 208.611422 255.874589 
L 208.611422 434.640698 
" clip-path="url(#p1284773f4c)" style="fill: none; stroke: #b0b0b0; stroke-width: 0.8; stroke-linecap: square"/>
     </g>
     <g id="text_7">
      <!-- Jul -->
      <g transform="translate(202.578609 451.400073)scale(0.1 -0.1)">
       <defs>
        <path id="DejaVuSans-6c" d="M 603 4863 
L 1178 4863 
L 1178 0 
L 603 0 
L 603 4863 
z
" transform="scale(0.015625)"/>
       </defs>
       <use xlink:href="#DejaVuSans-4a"/>
       <use xlink:href="#DejaVuSans-75" x="29.492188"/>
       <use xlink:href="#DejaVuSans-6c" x="92.871094"/>
      </g>
     </g>
    </g>
    <g id="xtick_8">
     <g id="line2d_8">
      <path d="M 208.611422 255.874589 
L 119.228367 410.69058 
" clip-path="url(#p1284773f4c)" style="fill: none; stroke: #b0b0b0; stroke-width: 0.8; stroke-linecap: square"/>
     </g>
     <g id="text_8">
      <!-- Aug -->
      <g transform="translate(102.465086 425.574311)scale(0.1 -0.1)">
       <defs>
        <path id="DejaVuSans-67" d="M 2906 1791 
Q 2906 2416 2648 2759 
Q 2391 3103 1925 3103 
Q 1463 3103 1205 2759 
Q 947 2416 947 1791 
Q 947 1169 1205 825 
Q 1463 481 1925 481 
Q 2391 481 2648 825 
Q 2906 1169 2906 1791 
z
M 3481 434 
Q 3481 -459 3084 -895 
Q 2688 -1331 1869 -1331 
Q 1566 -1331 1297 -1286 
Q 1028 -1241 775 -1147 
L 775 -588 
Q 1028 -725 1275 -790 
Q 1522 -856 1778 -856 
Q 2344 -856 2625 -561 
Q 2906 -266 2906 331 
L 2906 616 
Q 2728 306 2450 153 
Q 2172 0 1784 0 
Q 1141 0 747 490 
Q 353 981 353 1791 
Q 353 2603 747 3093 
Q 1141 3584 1784 3584 
Q 2172 3584 2450 3431 
Q 2728 3278 2906 2969 
L 2906 3500 
L 3481 3500 
L 3481 434 
z
" transform="scale(0.015625)"/>
       </defs>
       <use xlink:href="#DejaVuSans-41"/>
       <use xlink:href="#DejaVuSans-75" x="68.408203"/>
       <use xlink:href="#DejaVuSans-67" x="131.787109"/>
      </g>
     </g>
    </g>
    <g id="xtick_9">
     <g id="line2d_9">
      <path d="M 208.611422 255.874589 
L 53.79543 345.257643 
" clip-path="url(#p1284773f4c)" style="fill: none; stroke: #b0b0b0; stroke-width: 0.8; stroke-linecap: square"/>
     </g>
     <g id="text_9">
      <!-- Sept -->
      <g transform="translate(30.285918 355.017018)scale(0.1 -0.1)">
       <defs>
        <path id="DejaVuSans-53" d="M 3425 4513 
L 3425 3897 
Q 3066 4069 2747 4153 
Q 2428 4238 2131 4238 
Q 1616 4238 1336 4038 
Q 1056 3838 1056 3469 
Q 1056 3159 1242 3001 
Q 1428 2844 1947 2747 
L 2328 2669 
Q 3034 2534 3370 2195 
Q 3706 1856 3706 1288 
Q 3706 609 3251 259 
Q 2797 -91 1919 -91 
Q 1588 -91 1214 -16 
Q 841 59 441 206 
L 441 856 
Q 825 641 1194 531 
Q 1563 422 1919 422 
Q 2459 422 2753 634 
Q 3047 847 3047 1241 
Q 3047 1584 2836 1778 
Q 2625 1972 2144 2069 
L 1759 2144 
Q 1053 2284 737 2584 
Q 422 2884 422 3419 
Q 422 4038 858 4394 
Q 1294 4750 2059 4750 
Q 2388 4750 2728 4690 
Q 3069 4631 3425 4513 
z
" transform="scale(0.015625)"/>
        <path id="DejaVuSans-74" d="M 1172 4494 
L 1172 3500 
L 2356 3500 
L 2356 3053 
L 1172 3053 
L 1172 1153 
Q 1172 725 1289 603 
Q 1406 481 1766 481 
L 2356 481 
L 2356 0 
L 1766 0 
Q 1100 0 847 248 
Q 594 497 594 1153 
L 594 3053 
L 172 3053 
L 172 3500 
L 594 3500 
L 594 4494 
L 1172 4494 
z
" transform="scale(0.015625)"/>
       </defs>
       <use xlink:href="#DejaVuSans-53"/>
       <use xlink:href="#DejaVuSans-65" x="63.476562"/>
       <use xlink:href="#DejaVuSans-70" x="125"/>
       <use xlink:href="#DejaVuSans-74" x="188.476562"/>
      </g>
     </g>
    </g>
    <g id="xtick_10">
     <g id="line2d_10">
      <path d="M 208.611422 255.874589 
L 29.845313 255.874589 
" clip-path="url(#p1284773f4c)" style="fill: none; stroke: #b0b0b0; stroke-width: 0.8; stroke-linecap: square"/>
     </g>
     <g id="text_10">
      <!-- Oct -->
      <g transform="translate(7.2 258.633964)scale(0.1 -0.1)">
       <defs>
        <path id="DejaVuSans-4f" d="M 2522 4238 
Q 1834 4238 1429 3725 
Q 1025 3213 1025 2328 
Q 1025 1447 1429 934 
Q 1834 422 2522 422 
Q 3209 422 3611 934 
Q 4013 1447 4013 2328 
Q 4013 3213 3611 3725 
Q 3209 4238 2522 4238 
z
M 2522 4750 
Q 3503 4750 4090 4092 
Q 4678 3434 4678 2328 
Q 4678 1225 4090 567 
Q 3503 -91 2522 -91 
Q 1538 -91 948 565 
Q 359 1222 359 2328 
Q 359 3434 948 4092 
Q 1538 4750 2522 4750 
z
" transform="scale(0.015625)"/>
        <path id="DejaVuSans-63" d="M 3122 3366 
L 3122 2828 
Q 2878 2963 2633 3030 
Q 2388 3097 2138 3097 
Q 1578 3097 1268 2742 
Q 959 2388 959 1747 
Q 959 1106 1268 751 
Q 1578 397 2138 397 
Q 2388 397 2633 464 
Q 2878 531 3122 666 
L 3122 134 
Q 2881 22 2623 -34 
Q 2366 -91 2075 -91 
Q 1284 -91 818 406 
Q 353 903 353 1747 
Q 353 2603 823 3093 
Q 1294 3584 2113 3584 
Q 2378 3584 2631 3529 
Q 2884 3475 3122 3366 
z
" transform="scale(0.015625)"/>
       </defs>
       <use xlink:href="#DejaVuSans-4f"/>
       <use xlink:href="#DejaVuSans-63" x="78.710938"/>
       <use xlink:href="#DejaVuSans-74" x="133.691406"/>
      </g>
     </g>
    </g>
    <g id="xtick_11">
     <g id="line2d_11">
      <path d="M 208.611422 255.874589 
L 53.79543 166.491534 
" clip-path="url(#p1284773f4c)" style="fill: none; stroke: #b0b0b0; stroke-width: 0.8; stroke-linecap: square"/>
     </g>
     <g id="text_11">
      <!-- Nov -->
      <g transform="translate(31.911699 162.250909)scale(0.1 -0.1)">
       <defs>
        <path id="DejaVuSans-4e" d="M 628 4666 
L 1478 4666 
L 3547 763 
L 3547 4666 
L 4159 4666 
L 4159 0 
L 3309 0 
L 1241 3903 
L 1241 0 
L 628 0 
L 628 4666 
z
" transform="scale(0.015625)"/>
        <path id="DejaVuSans-6f" d="M 1959 3097 
Q 1497 3097 1228 2736 
Q 959 2375 959 1747 
Q 959 1119 1226 758 
Q 1494 397 1959 397 
Q 2419 397 2687 759 
Q 2956 1122 2956 1747 
Q 2956 2369 2687 2733 
Q 2419 3097 1959 3097 
z
M 1959 3584 
Q 2709 3584 3137 3096 
Q 3566 2609 3566 1747 
Q 3566 888 3137 398 
Q 2709 -91 1959 -91 
Q 1206 -91 779 398 
Q 353 888 353 1747 
Q 353 2609 779 3096 
Q 1206 3584 1959 3584 
z
" transform="scale(0.015625)"/>
        <path id="DejaVuSans-76" d="M 191 3500 
L 800 3500 
L 1894 563 
L 2988 3500 
L 3597 3500 
L 2284 0 
L 1503 0 
L 191 3500 
z
" transform="scale(0.015625)"/>
       </defs>
       <use xlink:href="#DejaVuSans-4e"/>
       <use xlink:href="#DejaVuSans-6f" x="74.804688"/>
       <use xlink:href="#DejaVuSans-76" x="135.986328"/>
      </g>
     </g>
    </g>
    <g id="xtick_12">
     <g id="line2d_12">
      <path d="M 208.611422 255.874589 
L 119.228367 101.058597 
" clip-path="url(#p1284773f4c)" style="fill: none; stroke: #b0b0b0; stroke-width: 0.8; stroke-linecap: square"/>
     </g>
     <g id="text_12">
      <!-- Dec -->
      <g transform="translate(102.552586 91.693616)scale(0.1 -0.1)">
       <defs>
        <path id="DejaVuSans-44" d="M 1259 4147 
L 1259 519 
L 2022 519 
Q 2988 519 3436 956 
Q 3884 1394 3884 2338 
Q 3884 3275 3436 3711 
Q 2988 4147 2022 4147 
L 1259 4147 
z
M 628 4666 
L 1925 4666 
Q 3281 4666 3915 4102 
Q 4550 3538 4550 2338 
Q 4550 1131 3912 565 
Q 3275 0 1925 0 
L 628 0 
L 628 4666 
z
" transform="scale(0.015625)"/>
       </defs>
       <use xlink:href="#DejaVuSans-44"/>
       <use xlink:href="#DejaVuSans-65" x="77.001953"/>
       <use xlink:href="#DejaVuSans-63" x="138.525391"/>
      </g>
     </g>
    </g>
   </g>
   <g id="matplotlib.axis_2">
    <g id="ytick_1">
     <g id="line2d_13">
      <path d="M 208.611422 221.663598 
C 213.103968 221.663598 217.552829 222.548532 221.703401 224.267755 
C 225.853972 225.986978 229.625535 228.507055 232.802245 231.683765 
C 235.978955 234.860475 238.499032 238.632038 240.218255 242.782609 
C 241.937478 246.933181 242.822412 251.382042 242.822412 255.874589 
C 242.822412 260.367135 241.937478 264.815996 240.218255 268.966568 
C 238.499032 273.117139 235.978955 276.888702 232.802245 280.065412 
C 229.625535 283.242122 225.853972 285.762199 221.703401 287.481422 
C 217.552829 289.200645 213.103968 290.085579 208.611422 290.085579 
C 204.118875 290.085579 199.670014 289.200645 195.519442 287.481422 
C 191.368871 285.762199 187.597308 283.242122 184.420598 280.065412 
C 181.243888 276.888702 178.723811 273.117139 177.004588 268.966568 
C 175.285365 264.815996 174.400431 260.367135 174.400431 255.874589 
C 174.400431 251.382042 175.285365 246.933181 177.004588 242.782609 
C 178.723811 238.632038 181.243888 234.860475 184.420598 231.683765 
C 187.597308 228.507055 191.368871 225.986978 195.519442 224.267755 
C 199.670014 222.548532 204.118875 221.663598 208.611422 221.663598 
" clip-path="url(#p1284773f4c)" style="fill: none; stroke: #b0b0b0; stroke-width: 0.8; stroke-linecap: square"/>
     </g>
     <g id="text_13">
      <!-- 1000 -->
      <g transform="translate(208.611422 288.005891)scale(0.1 -0.1)">
       <defs>
        <path id="DejaVuSans-31" d="M 794 531 
L 1825 531 
L 1825 4091 
L 703 3866 
L 703 4441 
L 1819 4666 
L 2450 4666 
L 2450 531 
L 3481 531 
L 3481 0 
L 794 0 
L 794 531 
z
" transform="scale(0.015625)"/>
        <path id="DejaVuSans-30" d="M 2034 4250 
Q 1547 4250 1301 3770 
Q 1056 3291 1056 2328 
Q 1056 1369 1301 889 
Q 1547 409 2034 409 
Q 2525 409 2770 889 
Q 3016 1369 3016 2328 
Q 3016 3291 2770 3770 
Q 2525 4250 2034 4250 
z
M 2034 4750 
Q 2819 4750 3233 4129 
Q 3647 3509 3647 2328 
Q 3647 1150 3233 529 
Q 2819 -91 2034 -91 
Q 1250 -91 836 529 
Q 422 1150 422 2328 
Q 422 3509 836 4129 
Q 1250 4750 2034 4750 
z
" transform="scale(0.015625)"/>
       </defs>
       <use xlink:href="#DejaVuSans-31"/>
       <use xlink:href="#DejaVuSans-30" x="63.623047"/>
       <use xlink:href="#DejaVuSans-30" x="127.246094"/>
       <use xlink:href="#DejaVuSans-30" x="190.869141"/>
      </g>
     </g>
    </g>
    <g id="ytick_2">
     <g id="line2d_14">
      <path d="M 208.611422 187.452608 
C 217.596514 187.452608 226.494237 189.222475 234.79538 192.660921 
C 243.096523 196.099367 250.639648 201.139522 256.993068 207.492942 
C 263.346488 213.846362 268.386643 221.389487 271.825089 229.69063 
C 275.263535 237.991773 277.033402 246.889496 277.033402 255.874589 
C 277.033402 264.859681 275.263535 273.757404 271.825089 282.058547 
C 268.386643 290.35969 263.346488 297.902815 256.993068 304.256235 
C 250.639648 310.609655 243.096523 315.64981 234.79538 319.088256 
C 226.494237 322.526702 217.596514 324.296569 208.611422 324.296569 
C 199.626329 324.296569 190.728606 322.526702 182.427463 319.088256 
C 174.12632 315.64981 166.583195 310.609655 160.229775 304.256235 
C 153.876355 297.902815 148.8362 290.35969 145.397754 282.058547 
C 141.959308 273.757404 140.189441 264.859681 140.189441 255.874589 
C 140.189441 246.889496 141.959308 237.991773 145.397754 229.69063 
C 148.8362 221.389487 153.876355 213.846362 160.229775 207.492942 
C 166.583195 201.139522 174.12632 196.099367 182.427463 192.660921 
C 190.728606 189.222475 199.626329 187.452608 208.611422 187.452608 
" clip-path="url(#p1284773f4c)" style="fill: none; stroke: #b0b0b0; stroke-width: 0.8; stroke-linecap: square"/>
     </g>
     <g id="text_14">
      <!-- 2000 -->
      <g transform="translate(208.611422 322.216882)scale(0.1 -0.1)">
       <defs>
        <path id="DejaVuSans-32" d="M 1228 531 
L 3431 531 
L 3431 0 
L 469 0 
L 469 531 
Q 828 903 1448 1529 
Q 2069 2156 2228 2338 
Q 2531 2678 2651 2914 
Q 2772 3150 2772 3378 
Q 2772 3750 2511 3984 
Q 2250 4219 1831 4219 
Q 1534 4219 1204 4116 
Q 875 4013 500 3803 
L 500 4441 
Q 881 4594 1212 4672 
Q 1544 4750 1819 4750 
Q 2544 4750 2975 4387 
Q 3406 4025 3406 3419 
Q 3406 3131 3298 2873 
Q 3191 2616 2906 2266 
Q 2828 2175 2409 1742 
Q 1991 1309 1228 531 
z
" transform="scale(0.015625)"/>
       </defs>
       <use xlink:href="#DejaVuSans-32"/>
       <use xlink:href="#DejaVuSans-30" x="63.623047"/>
       <use xlink:href="#DejaVuSans-30" x="127.246094"/>
       <use xlink:href="#DejaVuSans-30" x="190.869141"/>
      </g>
     </g>
    </g>
    <g id="ytick_3">
     <g id="line2d_15">
      <path d="M 208.611422 153.241617 
C 222.08906 153.241617 235.435645 155.896418 247.887359 161.054087 
C 260.339073 166.211756 271.653762 173.771989 281.183891 183.302119 
C 290.714021 192.832248 298.274254 204.146937 303.431923 216.598651 
C 308.589592 229.050365 311.244393 242.39695 311.244393 255.874589 
C 311.244393 269.352227 308.589592 282.698812 303.431923 295.150526 
C 298.274254 307.60224 290.714021 318.916929 281.183891 328.447058 
C 271.653762 337.977188 260.339073 345.537421 247.887359 350.69509 
C 235.435645 355.852759 222.08906 358.50756 208.611422 358.50756 
C 195.133783 358.50756 181.787198 355.852759 169.335484 350.69509 
C 156.88377 345.537421 145.569081 337.977188 136.038952 328.447058 
C 126.508822 318.916929 118.948589 307.60224 113.79092 295.150526 
C 108.633251 282.698812 105.97845 269.352227 105.97845 255.874589 
C 105.97845 242.39695 108.633251 229.050365 113.79092 216.598651 
C 118.948589 204.146937 126.508822 192.832248 136.038952 183.302119 
C 145.569081 173.771989 156.88377 166.211756 169.335484 161.054087 
C 181.787198 155.896418 195.133783 153.241617 208.611421 153.241617 
" clip-path="url(#p1284773f4c)" style="fill: none; stroke: #b0b0b0; stroke-width: 0.8; stroke-linecap: square"/>
     </g>
     <g id="text_15">
      <!-- 3000 -->
      <g transform="translate(208.611422 356.427872)scale(0.1 -0.1)">
       <defs>
        <path id="DejaVuSans-33" d="M 2597 2516 
Q 3050 2419 3304 2112 
Q 3559 1806 3559 1356 
Q 3559 666 3084 287 
Q 2609 -91 1734 -91 
Q 1441 -91 1130 -33 
Q 819 25 488 141 
L 488 750 
Q 750 597 1062 519 
Q 1375 441 1716 441 
Q 2309 441 2620 675 
Q 2931 909 2931 1356 
Q 2931 1769 2642 2001 
Q 2353 2234 1838 2234 
L 1294 2234 
L 1294 2753 
L 1863 2753 
Q 2328 2753 2575 2939 
Q 2822 3125 2822 3475 
Q 2822 3834 2567 4026 
Q 2313 4219 1838 4219 
Q 1578 4219 1281 4162 
Q 984 4106 628 3988 
L 628 4550 
Q 988 4650 1302 4700 
Q 1616 4750 1894 4750 
Q 2613 4750 3031 4423 
Q 3450 4097 3450 3541 
Q 3450 3153 3228 2886 
Q 3006 2619 2597 2516 
z
" transform="scale(0.015625)"/>
       </defs>
       <use xlink:href="#DejaVuSans-33"/>
       <use xlink:href="#DejaVuSans-30" x="63.623047"/>
       <use xlink:href="#DejaVuSans-30" x="127.246094"/>
       <use xlink:href="#DejaVuSans-30" x="190.869141"/>
      </g>
     </g>
    </g>
    <g id="ytick_4">
     <g id="line2d_16">
      <path d="M 208.611422 119.030627 
C 226.581606 119.030627 244.377053 122.570362 260.979338 129.447253 
C 277.581624 136.324145 292.667875 146.404456 305.374715 159.111295 
C 318.081554 171.818135 328.161865 186.904386 335.038757 203.506672 
C 341.915648 220.108957 345.455383 237.904404 345.455383 255.874589 
C 345.455383 273.844773 341.915648 291.64022 335.038757 308.242505 
C 328.161865 324.844791 318.081554 339.931042 305.374715 352.637882 
C 292.667875 365.344721 277.581624 375.425032 260.979338 382.301924 
C 244.377053 389.178815 226.581606 392.71855 208.611422 392.71855 
C 190.641237 392.71855 172.84579 389.178815 156.243505 382.301924 
C 139.641219 375.425032 124.554968 365.344721 111.848128 352.637882 
C 99.141289 339.931042 89.060978 324.844791 82.184086 308.242505 
C 75.307195 291.64022 71.76746 273.844773 71.76746 255.874589 
C 71.76746 237.904404 75.307195 220.108957 82.184086 203.506672 
C 89.060978 186.904386 99.141289 171.818135 111.848128 159.111295 
C 124.554968 146.404456 139.641219 136.324145 156.243505 129.447253 
C 172.84579 122.570362 190.641237 119.030627 208.611421 119.030627 
" clip-path="url(#p1284773f4c)" style="fill: none; stroke: #b0b0b0; stroke-width: 0.8; stroke-linecap: square"/>
     </g>
     <g id="text_16">
      <!-- 4000 -->
      <g transform="translate(208.611422 390.638862)scale(0.1 -0.1)">
       <defs>
        <path id="DejaVuSans-34" d="M 2419 4116 
L 825 1625 
L 2419 1625 
L 2419 4116 
z
M 2253 4666 
L 3047 4666 
L 3047 1625 
L 3713 1625 
L 3713 1100 
L 3047 1100 
L 3047 0 
L 2419 0 
L 2419 1100 
L 313 1100 
L 313 1709 
L 2253 4666 
z
" transform="scale(0.015625)"/>
       </defs>
       <use xlink:href="#DejaVuSans-34"/>
       <use xlink:href="#DejaVuSans-30" x="63.623047"/>
       <use xlink:href="#DejaVuSans-30" x="127.246094"/>
       <use xlink:href="#DejaVuSans-30" x="190.869141"/>
      </g>
     </g>
    </g>
    <g id="ytick_5">
     <g id="line2d_17">
      <path d="M 208.611422 84.819637 
C 231.074152 84.819637 253.318461 89.244305 274.071318 97.84042 
C 294.824174 106.436534 313.681989 119.036923 329.565538 134.920472 
C 345.449087 150.804021 358.049476 169.661836 366.64559 190.414692 
C 375.241705 211.167549 379.666373 233.411858 379.666373 255.874589 
C 379.666373 278.337319 375.241705 300.581628 366.64559 321.334485 
C 358.049476 342.087341 345.449087 360.945156 329.565538 376.828705 
C 313.681989 392.712254 294.824174 405.312643 274.071318 413.908757 
C 253.318461 422.504872 231.074152 426.92954 208.611422 426.92954 
C 186.148691 426.92954 163.904382 422.504872 143.151525 413.908757 
C 122.398669 405.312643 103.540854 392.712254 87.657305 376.828705 
C 71.773756 360.945156 59.173367 342.087341 50.577253 321.334485 
C 41.981138 300.581628 37.55647 278.337319 37.55647 255.874589 
C 37.55647 233.411858 41.981138 211.167549 50.577253 190.414692 
C 59.173367 169.661836 71.773756 150.804021 87.657305 134.920472 
C 103.540854 119.036923 122.398669 106.436534 143.151525 97.84042 
C 163.904382 89.244305 186.148691 84.819637 208.611421 84.819637 
" clip-path="url(#p1284773f4c)" style="fill: none; stroke: #b0b0b0; stroke-width: 0.8; stroke-linecap: square"/>
     </g>
     <g id="text_17">
      <!-- 5000 -->
      <g transform="translate(208.611422 424.849853)scale(0.1 -0.1)">
       <defs>
        <path id="DejaVuSans-35" d="M 691 4666 
L 3169 4666 
L 3169 4134 
L 1269 4134 
L 1269 2991 
Q 1406 3038 1543 3061 
Q 1681 3084 1819 3084 
Q 2600 3084 3056 2656 
Q 3513 2228 3513 1497 
Q 3513 744 3044 326 
Q 2575 -91 1722 -91 
Q 1428 -91 1123 -41 
Q 819 9 494 109 
L 494 744 
Q 775 591 1075 516 
Q 1375 441 1709 441 
Q 2250 441 2565 725 
Q 2881 1009 2881 1497 
Q 2881 1984 2565 2268 
Q 2250 2553 1709 2553 
Q 1456 2553 1204 2497 
Q 953 2441 691 2322 
L 691 4666 
z
" transform="scale(0.015625)"/>
       </defs>
       <use xlink:href="#DejaVuSans-35"/>
       <use xlink:href="#DejaVuSans-30" x="63.623047"/>
       <use xlink:href="#DejaVuSans-30" x="127.246094"/>
       <use xlink:href="#DejaVuSans-30" x="190.869141"/>
      </g>
     </g>
    </g>
   </g>
   <g id="line2d_18">
    <path d="M 208.611422 161.212778 
L 220.281434 159.763391 
L 231.912266 161.339345 
L 243.367838 164.229451 
L 254.049734 169.299116 
L 263.629238 176.16752 
L 274.401062 181.613436 
L 283.615186 189.427052 
L 286.235013 202.294892 
L 292.218246 211.994342 
L 294.530737 223.28969 
L 297.865181 233.875513 
L 296.435999 245.210754 
L 293.18099 255.874589 
L 296.334115 266.526052 
L 294.344192 277.005819 
L 290.820149 287.052246 
L 285.432764 296.193539 
L 284.264157 308.093901 
L 273.269839 313.156948 
L 264.986337 319.508714 
L 258.498647 328.148712 
L 248.389819 331.665992 
L 237.387065 331.749725 
L 229.366039 340.079382 
L 219.250514 343.495397 
L 208.611422 346.636346 
L 198.306347 340.744511 
L 188.610029 337.023429 
L 180.539398 329.894431 
L 172.219435 325.213726 
L 162.33893 322.911865 
L 152.712913 318.970961 
L 150.303613 307.530799 
L 140.588717 302.827272 
L 134.910189 294.55598 
L 127.906122 286.482071 
L 122.446832 277.112252 
L 123.77546 266.175539 
L 119.731269 255.874589 
L 122.24719 245.388072 
L 123.74229 234.956226 
L 125.155169 224.223807 
L 131.093355 215.189969 
L 137.041175 206.473214 
L 144.106648 198.728346 
L 150.943399 190.780847 
L 155.43984 178.842254 
L 163.586473 170.086717 
L 173.757954 163.973548 
L 185.441572 161.870815 
L 196.718731 157.929468 
L 208.611421 156.08113 
" clip-path="url(#p1284773f4c)" style="fill: none; stroke-dasharray: 0.5,0.825; stroke-dashoffset: 0; stroke: #1f77b4; stroke-width: 0.5"/>
   </g>
   <g id="line2d_19">
    <path d="M 208.611422 156.08113 
L 220.236073 160.136969 
L 230.094702 168.713492 
L 240.395649 172.06647 
L 251.982911 173.237119 
L 260.597526 180.559714 
L 268.071645 188.757871 
L 276.496358 195.733783 
L 284.236002 203.67471 
L 290.824798 212.72568 
L 295.842238 222.792303 
L 297.831964 233.8837 
L 301.632117 244.579831 
L 297.286308 255.874589 
L 298.677462 266.810586 
L 298.097699 277.930975 
L 291.491893 287.307005 
L 285.64481 296.30483 
L 281.983594 306.519743 
L 273.935628 313.746786 
L 266.279444 320.96833 
L 256.749582 325.614754 
L 248.02415 330.969269 
L 238.806437 335.492302 
L 228.367198 336.026923 
L 219.064948 341.967127 
L 208.611422 345.678438 
L 198.248616 341.219973 
L 189.281381 334.299645 
L 179.120026 333.637007 
L 169.087403 331.181315 
L 162.824782 322.207988 
L 153.824531 317.716203 
L 147.640455 309.890152 
L 139.406203 303.643502 
L 132.274756 295.939161 
L 132.480382 284.747283 
L 127.329713 275.90873 
L 120.549113 266.567289 
L 123.973431 255.874589 
L 122.45096 245.412814 
L 123.875158 234.988975 
L 123.587765 223.629369 
L 128.245877 213.695497 
L 136.337298 205.987363 
L 139.702193 194.82634 
L 146.451554 185.710603 
L 154.545873 177.54712 
L 164.317811 171.480164 
L 173.248436 162.630059 
L 185.580755 162.435502 
L 196.966151 159.967161 
L 208.611421 155.636387 
" clip-path="url(#p1284773f4c)" style="fill: none; stroke-dasharray: 0.5,0.825; stroke-dashoffset: 0; stroke: #ff7f0e; stroke-width: 0.5"/>
   </g>
   <g id="line2d_20">
    <path d="M 208.611422 155.636387 
L 220.046384 161.6992 
L 231.412846 163.365574 
L 242.445853 166.660526 
L 253.366093 170.601686 
L 267.574352 170.452036 
L 278.688731 176.773657 
L 286.329559 187.022327 
L 294.794161 196.386938 
L 298.00408 208.957702 
L 301.088243 220.802756 
L 302.183376 232.811173 
L 303.466041 244.357152 
L 304.573249 255.874589 
L 302.243425 267.243572 
L 301.153652 278.6842 
L 297.313679 289.514917 
L 287.644104 297.35414 
L 283.306883 307.433143 
L 273.577126 313.429181 
L 270.476369 325.705679 
L 258.323741 327.895317 
L 249.709406 334.180255 
L 239.643503 337.699462 
L 229.685341 341.374841 
L 219.172164 342.850128 
L 208.611422 346.157392 
L 198.508407 339.080395 
L 188.78196 336.325875 
L 177.567209 337.73145 
L 170.899848 327.727989 
L 162.76648 322.292453 
L 150.807282 321.121974 
L 143.722539 313.361122 
L 141.883851 301.933305 
L 131.66891 296.257134 
L 129.473526 285.887633 
L 129.223076 275.442058 
L 118.95292 266.761102 
L 122.297093 255.874589 
L 117.560496 244.819005 
L 120.055216 234.047444 
L 127.93811 225.279237 
L 128.457923 213.806787 
L 132.846066 203.57754 
L 138.729116 193.964268 
L 146.746474 186.043498 
L 155.53701 178.983029 
L 164.540392 171.904257 
L 173.296962 162.758011 
L 185.195955 160.874308 
L 196.228013 153.888043 
L 208.611421 155.0548 
" clip-path="url(#p1284773f4c)" style="fill: none; stroke-dasharray: 0.5,0.825; stroke-dashoffset: 0; stroke: #2ca02c; stroke-width: 0.5"/>
   </g>
   <g id="line2d_21">
    <path d="M 208.611422 155.0548 
L 221.139159 152.699388 
L 233.263159 155.858559 
L 246.000348 157.288091 
L 259.35988 159.181479 
L 269.692664 167.383131 
L 277.418311 178.207666 
L 290.836442 183.029576 
L 297.863067 194.268626 
L 308.364056 203.520367 
L 305.822442 219.007311 
L 309.524306 231.001796 
L 312.771507 243.227264 
L 310.354907 255.874589 
L 312.499814 268.488923 
L 303.578485 279.281867 
L 295.842238 288.956874 
L 286.15978 296.575107 
L 283.278728 307.413709 
L 274.447774 314.200508 
L 265.303943 319.867216 
L 259.159405 329.105986 
L 249.582217 333.937917 
L 238.91562 335.780192 
L 229.398788 340.21225 
L 218.891754 340.540742 
L 208.611422 342.531027 
L 198.463047 339.453972 
L 188.241604 338.518189 
L 175.56553 343.009442 
L 169.087403 331.181315 
L 162.183458 323.137106 
L 153.212007 318.4076 
L 147.102701 310.36656 
L 140.025615 303.215953 
L 133.577326 295.25552 
L 134.687543 283.910218 
L 125.635652 276.326279 
L 128.156501 265.643585 
L 120.48391 255.874589 
L 120.175536 245.136528 
L 124.140893 235.054473 
L 122.91602 223.37461 
L 133.819665 216.620846 
L 138.139223 207.231142 
L 142.775069 197.548669 
L 150.421619 190.191879 
L 155.303802 178.645168 
L 167.306755 177.175122 
L 177.191136 173.026105 
L 185.793623 163.299141 
L 197.258933 162.378431 
L 208.611421 161.246989 
" clip-path="url(#p1284773f4c)" style="fill: none; stroke-dasharray: 0.5,0.825; stroke-dashoffset: 0; stroke: #d62728; stroke-width: 0.5"/>
   </g>
   <g id="line2d_22">
    <path d="M 208.611422 161.246989 
L 220.236073 160.136969 
L 231.04442 164.860334 
L 241.487473 169.187565 
L 251.664939 173.842965 
L 264.095656 175.491798 
L 272.041709 184.276595 
L 279.108302 193.419802 
L 284.996189 203.14999 
L 292.309123 211.946646 
L 297.217715 222.270654 
L 297.034759 234.080193 
L 299.968001 244.781891 
L 301.220572 255.874589 
L 296.639769 266.563165 
L 295.274264 277.235061 
L 292.099662 287.537502 
L 285.190426 296.06635 
L 282.321455 306.752951 
L 275.702532 315.312126 
L 266.665108 321.403654 
L 257.41034 326.572027 
L 248.342123 331.575115 
L 238.066423 333.541044 
L 228.604627 336.990212 
L 218.850517 340.201126 
L 208.611422 346.636346 
L 198.01769 343.12182 
L 185.613504 349.180808 
L 176.35407 340.930233 
L 168.848923 331.6357 
L 159.248915 327.388525 
L 153.643043 317.921062 
L 145.156547 312.090702 
L 133.212082 307.918995 
L 128.9426 297.688012 
L 127.714195 286.55486 
L 122.446832 277.112252 
L 124.284884 266.113684 
L 118.328618 255.874589 
L 119.801959 245.091167 
L 120.719554 234.211189 
L 126.658597 224.793982 
L 128.42763 213.790889 
L 134.000425 204.374336 
L 137.448752 192.829964 
L 145.612169 184.763133 
L 154.545873 177.54712 
L 163.014122 168.996193 
L 171.040524 156.808274 
L 182.993592 151.938967 
L 196.397084 155.280466 
L 208.611421 144.517815 
" clip-path="url(#p1284773f4c)" style="fill: none; stroke-dasharray: 0.5,0.825; stroke-dashoffset: 0; stroke: #9467bd; stroke-width: 0.5"/>
   </g>
   <g id="line2d_23">
    <path d="M 208.611422 144.517815 
L 222.485986 139.388487 
L 235.747927 143.576281 
L 248.55344 148.343694 
L 260.506837 154.76603 
L 271.145425 163.032276 
L 282.558273 170.069329 
L 293.954648 177.801088 
L 297.753132 191.913201 
L 305.141767 202.657461 
L 306.446785 216.196548 
L 309.330896 228.35294 
L 312.961782 240.296888 
L 305.693769 252.996451 
L 307.022481 264.647742 
L 305.461501 276.260786 
L 300.296405 286.871231 
L 291.199537 295.217034 
L 287.904924 305.932448 
L 280.896556 314.528272 
L 269.758433 318.861251 
L 263.830984 328.207324 
L 253.757553 332.315905 
L 245.571976 339.78013 
L 234.179801 339.603597 
L 224.024825 341.635906 
L 214.383408 353.136371 
L 203.368399 344.222984 
L 193.076986 342.309336 
L 183.152949 339.243683 
L 174.271205 333.831603 
L 164.352555 330.81359 
L 156.111319 324.645073 
L 148.584406 317.707559 
L 141.480023 310.346421 
L 136.000443 301.713781 
L 128.339727 294.113562 
L 123.278596 284.723708 
L 118.791593 274.780972 
L 115.175437 264.204224 
L 116.624273 253.147506 
L 116.848069 242.17591 
L 115.152197 230.336808 
L 119.082236 219.565195 
L 127.959748 211.411365 
L 136.369668 204.039339 
L 137.782349 191.078894 
L 147.841448 185.359303 
L 155.881802 177.588543 
L 164.183197 169.314462 
L 174.29202 163.48076 
L 187.782928 169.680566 
L 196.796394 156.679658 
L 208.611421 147.323116 
" clip-path="url(#p1284773f4c)" style="fill: none; stroke: #8c564b; stroke-linecap: square"/>
   </g>
   <g id="line2d_24">
    <path d="M 208.611422 147.323116 
L 221.291735 151.442811 
L 233.680707 154.164498 
L 247.443983 153.481539 
L 257.944901 161.877496 
L 267.61322 170.395726 
L 277.282194 178.36131 
L 293.60203 180.579479 
L 298.285393 193.977115 
L 304.062546 205.777974 
L 306.558162 218.72829 
L 309.192138 231.083669 
L 311.75266 243.350975 
L 311.586502 255.874589 
L 302.583041 267.284809 
L 299.991062 278.397647 
L 296.322056 289.138844 
L 292.036492 299.659443 
L 291.725256 313.243926 
L 277.008504 316.469116 
L 270.158764 325.347177 
L 260.733564 331.386548 
L 249.741203 334.24084 
L 240.395649 339.682707 
L 229.873647 342.138829 
L 219.370101 344.480282 
L 208.611422 348.004786 
L 197.778516 345.09159 
L 186.071989 347.320662 
L 177.773442 337.187657 
L 168.864822 331.605407 
L 158.899102 327.895317 
L 150.353561 321.634119 
L 139.44612 317.149698 
L 135.661575 306.228232 
L 130.336047 296.956674 
L 121.44458 288.932611 
L 125.569219 276.342653 
L 118.103881 266.864194 
L 116.823334 255.874589 
L 108.968223 243.775714 
L 117.4643 233.408841 
L 114.311294 220.111267 
L 125.883075 212.455403 
L 126.62379 199.282613 
L 134.299054 190.039576 
L 142.640293 181.408578 
L 151.300386 172.845219 
L 160.247759 163.725328 
L 170.65232 155.784663 
L 183.460264 153.83233 
L 194.883693 142.816576 
L 208.611421 133.809775 
" clip-path="url(#p1284773f4c)" style="fill: none; stroke: #e377c2; stroke-linecap: square"/>
   </g>
   <g id="line2d_25">
    <path d="M 208.611422 133.809775 
L 223.609243 132.356418 
L 237.160278 140.047324 
L 252.599821 139.886711 
L 265.433161 147.60981 
L 275.581184 158.852138 
L 286.129767 168.374465 
L 293.832496 180.375305 
L 297.356275 194.618439 
L 301.12419 207.320142 
L 299.552827 221.385063 
L 300.887917 233.130475 
L 305.40185 244.122103 
L 303.170599 255.874589 
L 304.043387 267.462127 
L 298.72882 278.086532 
L 297.473618 289.575574 
L 292.490876 299.897923 
L 287.501992 310.328818 
L 280.337452 319.418307 
L 271.497243 326.858007 
L 261.102811 331.921495 
L 250.329453 335.361656 
L 240.67467 340.418428 
L 230.119264 343.135335 
L 219.708242 347.26513 
L 208.611422 348.141629 
L 198.21975 341.457704 
L 186.718779 344.696529 
L 177.421632 338.115304 
L 168.705835 331.908331 
L 156.975131 330.682671 
L 150.988771 320.917115 
L 143.440858 313.610669 
L 136.083902 305.936721 
L 130.76014 296.734093 
L 122.020361 288.714246 
L 118.427589 278.102907 
L 117.968035 266.880688 
L 118.260196 255.874589 
L 114.775649 244.480863 
L 118.726541 233.719955 
L 123.011984 223.411004 
L 126.034537 212.534896 
L 129.861626 201.517529 
L 133.940552 189.721971 
L 142.436118 181.178112 
L 152.524731 174.61899 
L 160.486238 164.179713 
L 169.572627 152.937746 
L 183.402953 153.599811 
L 195.469256 147.639117 
L 208.611421 141.507248 
" clip-path="url(#p1284773f4c)" style="fill: none; stroke: #7f7f7f; stroke-linecap: square"/>
   </g>
   <g id="line2d_26">
    <path d="M 208.611422 141.507248 
L 222.46286 141.79773 
L 236.153249 144.133 
L 248.91188 149.611012 
L 262.714493 152.789798 
L 276.883266 156.965746 
L 291.642485 162.151893 
L 303.127944 172.140257 
L 319.458023 179.362704 
L 332.567626 190.817354 
L 328.021997 210.588131 
L 322.545324 227.792404 
L 318.137432 242.575723 
L 312.612832 255.874589 
L 305.741465 267.668311 
L 300.290013 278.471332 
L 293.795017 288.180465 
L 288.734628 297.926491 
L 282.969022 307.199935 
L 275.34403 314.99452 
L 269.274007 324.348493 
L 262.560365 334.033127 
L 251.203878 337.027734 
L 239.631371 337.667474 
L 229.906396 342.271696 
L 219.411337 344.819898 
L 208.611422 349.133748 
L 197.597074 346.585898 
L 186.473163 345.693035 
L 175.043881 344.384919 
L 164.731175 339.481413 
L 155.264933 333.160319 
L 149.514176 322.581589 
L 141.72517 315.130637 
L 137.463501 304.984452 
L 129.45757 297.417735 
L 127.394317 286.676173 
L 118.726541 278.029222 
L 117.051073 266.992028 
L 112.615383 255.874589 
L 114.877533 244.493234 
L 117.630384 233.449777 
L 123.171923 223.471661 
L 123.338519 211.119917 
L 129.833471 201.498095 
L 137.909683 193.238314 
L 143.751911 182.663335 
L 152.116616 174.027733 
L 161.424258 165.96696 
L 172.011035 159.3673 
L 183.714068 154.862053 
L 196.648628 157.352121 
L 208.611421 151.120536 
" clip-path="url(#p1284773f4c)" style="fill: none; stroke: #bcbd22; stroke-linecap: square"/>
   </g>
   <g id="line2d_27">
    <path d="M 208.611422 151.120536 
L 222.062863 145.092 
L 234.417557 151.174979 
L 247.177092 154.185272 
L 258.517252 160.786972 
L 270.470027 166.256927 
L 282.431935 172.548454 
L 291.066908 182.825402 
L 294.906782 196.309202 
L 304.698684 205.444103 
L 311.772179 216.750874 
L 309.690391 230.96086 
L 310.937583 243.449943 
L 307.754872 255.874589 
L 307.16785 267.841506 
L 309.457873 280.731006 
L 303.167452 291.734961 
L 293.611693 300.486172 
L 286.65734 309.745796 
L 280.849598 319.872028 
L 273.788538 329.444344 
L 261.666399 332.737993 
L 252.078303 338.693812 
L 240.723196 340.546379 
L 230.651434 345.294433 
L 220.306176 352.189555 
L 208.611422 349.099537 
L 197.225943 349.642438 
L 187.439255 341.773443 
L 172.14448 352.03001 
L 165.192236 338.602935 
L 157.519284 329.894328 
L 149.332687 322.786448 
L 141.597133 315.244067 
L 130.255797 309.959571 
L 131.275109 296.463816 
L 124.09957 287.925706 
L 122.911868 276.997631 
L 115.183187 267.21883 
L 115.660161 255.874589 
L 109.715377 243.866435 
L 112.980021 232.303565 
L 116.902308 221.09391 
L 122.096534 210.468073 
L 123.723816 197.280905 
L 130.253102 186.455175 
L 140.031393 178.463739 
L 149.434716 170.14233 
L 160.629326 164.452344 
L 170.264116 154.761053 
L 181.978376 147.820074 
L 196.124921 153.039004 
L 208.611421 149.717885 
" clip-path="url(#p1284773f4c)" style="fill: none; stroke: #17becf; stroke-linecap: square"/>
   </g>
   <g id="line2d_28">
    <path d="M 208.611422 149.717885 
L 222.222981 141.596593 
L 233.980077 150.892132 
L 244.896357 158.189201 
L 258.038602 159.574926 
L 269.692923 165.18876 
L 280.034566 172.997748 
L 283.302521 187.545843 
L 294.72337 194.087131 
L 301.696395 204.556893 
L 310.631576 214.499367 
L 327.877536 223.285062 
L 359.452507 233.356628 
L 382.497909 250.719489 
L 378.377314 271.008886 
L 352.832003 286.231912 
L 335.330505 298.715477 
L 313.097433 305.64852 
L 295.079236 310.461579 
L 282.384233 315.735404 
L 274.619692 323.868764 
L 265.325649 330.165202 
L 255.271123 334.878677 
L 245.696097 340.061902 
L 235.548644 344.086158 
L 224.702603 345.407114 
L 213.957805 345.96468 
L 203.303545 345.315813 
L 193.312998 340.996148 
L 181.904005 343.333611 
L 171.843944 339.341818 
L 162.647614 333.700391 
L 141.99504 343.136148 
L 140.553797 325.979775 
L 135.954368 314.830055 
L 130.735424 305.037579 
L 123.923085 296.217515 
L 120.426607 285.687902 
L 111.828296 276.246692 
L 106.315715 264.994051 
L 105.271212 252.810929 
L 99.591687 239.599831 
L 94.823496 224.78198 
L 91.722574 208.46923 
L 101.085844 196.595795 
L 109.10181 184.473975 
L 124.429328 178.863312 
L 132.565203 167.633299 
L 141.146559 155.71158 
L 152.138837 145.848267 
L 162.046152 130.512744 
L 177.537431 127.281887 
L 192.009689 116.492122 
L 208.611421 114.104244 
" clip-path="url(#p1284773f4c)" style="fill: none; stroke: #d62728; stroke-width: 2.5; stroke-linecap: square"/>
   </g>
   <g id="line2d_29">
    <path d="M 208.611422 114.104244 
L 224.964233 125.112409 
L 241.148507 127.820755 
L 254.966104 137.498991 
L 268.284657 146.02995 
L 279.380924 157.175343 
L 290.570546 167.272576 
L 292.531891 185.201692 
L 297.725705 198.060908 
L 308.521539 207.47806 
L 307.209753 222.46769 
L 310.660195 234.947324 
L 317.004608 247.418527 
L 316.669358 260.909037 
L 314.400338 274.139456 
L 311.512547 287.185497 
L 306.175751 299.419789 
L 296.418019 309.01147 
L 289.57505 319.836099 
L 280.364066 328.730477 
L 266.963165 332.100001 
L 260.557786 344.74752 
L 247.444808 346.575476 
L 235.747612 350.200147 
L 222.803645 346.281812 
L 211.59941 351.310699 
L 199.587225 352.510728 
L 187.414265 351.779753 
L 176.778378 345.313988 
L 163.864575 344.767246 
L 152.245938 339.919724 
L 145.011699 329.098751 
L 134.965275 321.942806 
L 126.464814 312.898091 
L 122.05421 301.200371 
L 109.88919 292.806108 
L 111.793875 278.908206 
L 110.602127 266.615358 
L 103.801149 254.275264 
L 104.945218 241.300658 
L 108.017315 228.674271 
L 105.616186 213.719178 
L 108.394203 199.434356 
L 112.983083 185.073125 
L 115.254361 166.835565 
" clip-path="url(#p1284773f4c)" style="fill: none; stroke: #2ca02c; stroke-width: 3; stroke-linecap: square"/>
   </g>
   <g id="patch_3">
    <path d="M 208.611421 77.108479 
C 185.136071 77.108479 161.888989 81.732612 140.200593 90.716239 
C 118.512198 99.699867 98.804273 112.868281 82.204694 129.467861 
C 65.605114 146.06744 52.4367 165.775365 43.453072 187.46376 
C 34.469445 209.152156 29.845313 232.399238 29.845313 255.874589 
C 29.845313 279.349939 34.469445 302.597021 43.453072 324.285417 
C 52.4367 345.973812 65.605114 365.681737 82.204694 382.281316 
C 98.804273 398.880896 118.512198 412.04931 140.200593 421.032938 
C 161.888989 430.016565 185.136071 434.640698 208.611422 434.640698 
C 232.086772 434.640698 255.333854 430.016565 277.02225 421.032938 
C 298.710645 412.04931 318.41857 398.880896 335.018149 382.281316 
C 351.617729 365.681737 364.786143 345.973812 373.769771 324.285417 
C 382.753398 302.597021 387.377531 279.349939 387.377531 255.874589 
C 387.377531 232.399238 382.753398 209.152156 373.769771 187.46376 
C 364.786143 165.775365 351.617729 146.06744 335.018149 129.467861 
C 318.41857 112.868281 298.710645 99.699867 277.02225 90.716239 
C 255.333854 81.732612 232.086772 77.108479 208.611422 77.108479 
" style="fill: none; stroke: #000000; stroke-width: 0.8; stroke-linejoin: miter; stroke-linecap: square"/>
   </g>
   <g id="text_18">
    <!-- Totaal mannen en vrouwen, Totaal leeftijd -->
    <g transform="translate(104.241109 35.355258)scale(0.1 -0.1)">
     <defs>
      <path id="DejaVuSans-54" d="M -19 4666 
L 3928 4666 
L 3928 4134 
L 2272 4134 
L 2272 0 
L 1638 0 
L 1638 4134 
L -19 4134 
L -19 4666 
z
" transform="scale(0.015625)"/>
      <path id="DejaVuSans-20" transform="scale(0.015625)"/>
      <path id="DejaVuSans-6d" d="M 3328 2828 
Q 3544 3216 3844 3400 
Q 4144 3584 4550 3584 
Q 5097 3584 5394 3201 
Q 5691 2819 5691 2113 
L 5691 0 
L 5113 0 
L 5113 2094 
Q 5113 2597 4934 2840 
Q 4756 3084 4391 3084 
Q 3944 3084 3684 2787 
Q 3425 2491 3425 1978 
L 3425 0 
L 2847 0 
L 2847 2094 
Q 2847 2600 2669 2842 
Q 2491 3084 2119 3084 
Q 1678 3084 1418 2786 
Q 1159 2488 1159 1978 
L 1159 0 
L 581 0 
L 581 3500 
L 1159 3500 
L 1159 2956 
Q 1356 3278 1631 3431 
Q 1906 3584 2284 3584 
Q 2666 3584 2933 3390 
Q 3200 3197 3328 2828 
z
" transform="scale(0.015625)"/>
      <path id="DejaVuSans-77" d="M 269 3500 
L 844 3500 
L 1563 769 
L 2278 3500 
L 2956 3500 
L 3675 769 
L 4391 3500 
L 4966 3500 
L 4050 0 
L 3372 0 
L 2619 2869 
L 1863 0 
L 1184 0 
L 269 3500 
z
" transform="scale(0.015625)"/>
      <path id="DejaVuSans-2c" d="M 750 794 
L 1409 794 
L 1409 256 
L 897 -744 
L 494 -744 
L 750 256 
L 750 794 
z
" transform="scale(0.015625)"/>
      <path id="DejaVuSans-66" d="M 2375 4863 
L 2375 4384 
L 1825 4384 
Q 1516 4384 1395 4259 
Q 1275 4134 1275 3809 
L 1275 3500 
L 2222 3500 
L 2222 3053 
L 1275 3053 
L 1275 0 
L 697 0 
L 697 3053 
L 147 3053 
L 147 3500 
L 697 3500 
L 697 3744 
Q 697 4328 969 4595 
Q 1241 4863 1831 4863 
L 2375 4863 
z
" transform="scale(0.015625)"/>
      <path id="DejaVuSans-69" d="M 603 3500 
L 1178 3500 
L 1178 0 
L 603 0 
L 603 3500 
z
M 603 4863 
L 1178 4863 
L 1178 4134 
L 603 4134 
L 603 4863 
z
" transform="scale(0.015625)"/>
      <path id="DejaVuSans-6a" d="M 603 3500 
L 1178 3500 
L 1178 -63 
Q 1178 -731 923 -1031 
Q 669 -1331 103 -1331 
L -116 -1331 
L -116 -844 
L 38 -844 
Q 366 -844 484 -692 
Q 603 -541 603 -63 
L 603 3500 
z
M 603 4863 
L 1178 4863 
L 1178 4134 
L 603 4134 
L 603 4863 
z
" transform="scale(0.015625)"/>
      <path id="DejaVuSans-64" d="M 2906 2969 
L 2906 4863 
L 3481 4863 
L 3481 0 
L 2906 0 
L 2906 525 
Q 2725 213 2448 61 
Q 2172 -91 1784 -91 
Q 1150 -91 751 415 
Q 353 922 353 1747 
Q 353 2572 751 3078 
Q 1150 3584 1784 3584 
Q 2172 3584 2448 3432 
Q 2725 3281 2906 2969 
z
M 947 1747 
Q 947 1113 1208 752 
Q 1469 391 1925 391 
Q 2381 391 2643 752 
Q 2906 1113 2906 1747 
Q 2906 2381 2643 2742 
Q 2381 3103 1925 3103 
Q 1469 3103 1208 2742 
Q 947 2381 947 1747 
z
" transform="scale(0.015625)"/>
     </defs>
     <use xlink:href="#DejaVuSans-54"/>
     <use xlink:href="#DejaVuSans-6f" x="44.083984"/>
     <use xlink:href="#DejaVuSans-74" x="105.265625"/>
     <use xlink:href="#DejaVuSans-61" x="144.474609"/>
     <use xlink:href="#DejaVuSans-61" x="205.753906"/>
     <use xlink:href="#DejaVuSans-6c" x="267.033203"/>
     <use xlink:href="#DejaVuSans-20" x="294.816406"/>
     <use xlink:href="#DejaVuSans-6d" x="326.603516"/>
     <use xlink:href="#DejaVuSans-61" x="424.015625"/>
     <use xlink:href="#DejaVuSans-6e" x="485.294922"/>
     <use xlink:href="#DejaVuSans-6e" x="548.673828"/>
     <use xlink:href="#DejaVuSans-65" x="612.052734"/>
     <use xlink:href="#DejaVuSans-6e" x="673.576172"/>
     <use xlink:href="#DejaVuSans-20" x="736.955078"/>
     <use xlink:href="#DejaVuSans-65" x="768.742188"/>
     <use xlink:href="#DejaVuSans-6e" x="830.265625"/>
     <use xlink:href="#DejaVuSans-20" x="893.644531"/>
     <use xlink:href="#DejaVuSans-76" x="925.431641"/>
     <use xlink:href="#DejaVuSans-72" x="984.611328"/>
     <use xlink:href="#DejaVuSans-6f" x="1023.474609"/>
     <use xlink:href="#DejaVuSans-75" x="1084.65625"/>
     <use xlink:href="#DejaVuSans-77" x="1148.035156"/>
     <use xlink:href="#DejaVuSans-65" x="1229.822266"/>
     <use xlink:href="#DejaVuSans-6e" x="1291.345703"/>
     <use xlink:href="#DejaVuSans-2c" x="1354.724609"/>
     <use xlink:href="#DejaVuSans-20" x="1386.511719"/>
     <use xlink:href="#DejaVuSans-54" x="1418.298828"/>
     <use xlink:href="#DejaVuSans-6f" x="1462.382812"/>
     <use xlink:href="#DejaVuSans-74" x="1523.564453"/>
     <use xlink:href="#DejaVuSans-61" x="1562.773438"/>
     <use xlink:href="#DejaVuSans-61" x="1624.052734"/>
     <use xlink:href="#DejaVuSans-6c" x="1685.332031"/>
     <use xlink:href="#DejaVuSans-20" x="1713.115234"/>
     <use xlink:href="#DejaVuSans-6c" x="1744.902344"/>
     <use xlink:href="#DejaVuSans-65" x="1772.685547"/>
     <use xlink:href="#DejaVuSans-65" x="1834.208984"/>
     <use xlink:href="#DejaVuSans-66" x="1895.732422"/>
     <use xlink:href="#DejaVuSans-74" x="1929.1875"/>
     <use xlink:href="#DejaVuSans-69" x="1968.396484"/>
     <use xlink:href="#DejaVuSans-6a" x="1996.179688"/>
     <use xlink:href="#DejaVuSans-64" x="2023.962891"/>
    </g>
   </g>
  </g>
  <g id="text_19">
   <!-- Deaths in the Netherlands per week (2010-2021) -->
   <g transform="translate(36.271422 17.837812)scale(0.14 -0.14)">
    <defs>
     <path id="DejaVuSans-68" d="M 3513 2113 
L 3513 0 
L 2938 0 
L 2938 2094 
Q 2938 2591 2744 2837 
Q 2550 3084 2163 3084 
Q 1697 3084 1428 2787 
Q 1159 2491 1159 1978 
L 1159 0 
L 581 0 
L 581 4863 
L 1159 4863 
L 1159 2956 
Q 1366 3272 1645 3428 
Q 1925 3584 2291 3584 
Q 2894 3584 3203 3211 
Q 3513 2838 3513 2113 
z
" transform="scale(0.015625)"/>
     <path id="DejaVuSans-73" d="M 2834 3397 
L 2834 2853 
Q 2591 2978 2328 3040 
Q 2066 3103 1784 3103 
Q 1356 3103 1142 2972 
Q 928 2841 928 2578 
Q 928 2378 1081 2264 
Q 1234 2150 1697 2047 
L 1894 2003 
Q 2506 1872 2764 1633 
Q 3022 1394 3022 966 
Q 3022 478 2636 193 
Q 2250 -91 1575 -91 
Q 1294 -91 989 -36 
Q 684 19 347 128 
L 347 722 
Q 666 556 975 473 
Q 1284 391 1588 391 
Q 1994 391 2212 530 
Q 2431 669 2431 922 
Q 2431 1156 2273 1281 
Q 2116 1406 1581 1522 
L 1381 1569 
Q 847 1681 609 1914 
Q 372 2147 372 2553 
Q 372 3047 722 3315 
Q 1072 3584 1716 3584 
Q 2034 3584 2315 3537 
Q 2597 3491 2834 3397 
z
" transform="scale(0.015625)"/>
     <path id="DejaVuSans-6b" d="M 581 4863 
L 1159 4863 
L 1159 1991 
L 2875 3500 
L 3609 3500 
L 1753 1863 
L 3688 0 
L 2938 0 
L 1159 1709 
L 1159 0 
L 581 0 
L 581 4863 
z
" transform="scale(0.015625)"/>
     <path id="DejaVuSans-28" d="M 1984 4856 
Q 1566 4138 1362 3434 
Q 1159 2731 1159 2009 
Q 1159 1288 1364 580 
Q 1569 -128 1984 -844 
L 1484 -844 
Q 1016 -109 783 600 
Q 550 1309 550 2009 
Q 550 2706 781 3412 
Q 1013 4119 1484 4856 
L 1984 4856 
z
" transform="scale(0.015625)"/>
     <path id="DejaVuSans-2d" d="M 313 2009 
L 1997 2009 
L 1997 1497 
L 313 1497 
L 313 2009 
z
" transform="scale(0.015625)"/>
     <path id="DejaVuSans-29" d="M 513 4856 
L 1013 4856 
Q 1481 4119 1714 3412 
Q 1947 2706 1947 2009 
Q 1947 1309 1714 600 
Q 1481 -109 1013 -844 
L 513 -844 
Q 928 -128 1133 580 
Q 1338 1288 1338 2009 
Q 1338 2731 1133 3434 
Q 928 4138 513 4856 
z
" transform="scale(0.015625)"/>
    </defs>
    <use xlink:href="#DejaVuSans-44"/>
    <use xlink:href="#DejaVuSans-65" x="77.001953"/>
    <use xlink:href="#DejaVuSans-61" x="138.525391"/>
    <use xlink:href="#DejaVuSans-74" x="199.804688"/>
    <use xlink:href="#DejaVuSans-68" x="239.013672"/>
    <use xlink:href="#DejaVuSans-73" x="302.392578"/>
    <use xlink:href="#DejaVuSans-20" x="354.492188"/>
    <use xlink:href="#DejaVuSans-69" x="386.279297"/>
    <use xlink:href="#DejaVuSans-6e" x="414.0625"/>
    <use xlink:href="#DejaVuSans-20" x="477.441406"/>
    <use xlink:href="#DejaVuSans-74" x="509.228516"/>
    <use xlink:href="#DejaVuSans-68" x="548.4375"/>
    <use xlink:href="#DejaVuSans-65" x="611.816406"/>
    <use xlink:href="#DejaVuSans-20" x="673.339844"/>
    <use xlink:href="#DejaVuSans-4e" x="705.126953"/>
    <use xlink:href="#DejaVuSans-65" x="779.931641"/>
    <use xlink:href="#DejaVuSans-74" x="841.455078"/>
    <use xlink:href="#DejaVuSans-68" x="880.664062"/>
    <use xlink:href="#DejaVuSans-65" x="944.042969"/>
    <use xlink:href="#DejaVuSans-72" x="1005.566406"/>
    <use xlink:href="#DejaVuSans-6c" x="1046.679688"/>
    <use xlink:href="#DejaVuSans-61" x="1074.462891"/>
    <use xlink:href="#DejaVuSans-6e" x="1135.742188"/>
    <use xlink:href="#DejaVuSans-64" x="1199.121094"/>
    <use xlink:href="#DejaVuSans-73" x="1262.597656"/>
    <use xlink:href="#DejaVuSans-20" x="1314.697266"/>
    <use xlink:href="#DejaVuSans-70" x="1346.484375"/>
    <use xlink:href="#DejaVuSans-65" x="1409.960938"/>
    <use xlink:href="#DejaVuSans-72" x="1471.484375"/>
    <use xlink:href="#DejaVuSans-20" x="1512.597656"/>
    <use xlink:href="#DejaVuSans-77" x="1544.384766"/>
    <use xlink:href="#DejaVuSans-65" x="1626.171875"/>
    <use xlink:href="#DejaVuSans-65" x="1687.695312"/>
    <use xlink:href="#DejaVuSans-6b" x="1749.21875"/>
    <use xlink:href="#DejaVuSans-20" x="1807.128906"/>
    <use xlink:href="#DejaVuSans-28" x="1838.916016"/>
    <use xlink:href="#DejaVuSans-32" x="1877.929688"/>
    <use xlink:href="#DejaVuSans-30" x="1941.552734"/>
    <use xlink:href="#DejaVuSans-31" x="2005.175781"/>
    <use xlink:href="#DejaVuSans-30" x="2068.798828"/>
    <use xlink:href="#DejaVuSans-2d" x="2132.421875"/>
    <use xlink:href="#DejaVuSans-32" x="2168.505859"/>
    <use xlink:href="#DejaVuSans-30" x="2232.128906"/>
    <use xlink:href="#DejaVuSans-32" x="2295.751953"/>
    <use xlink:href="#DejaVuSans-31" x="2359.375"/>
    <use xlink:href="#DejaVuSans-29" x="2422.998047"/>
   </g>
  </g>
  <g id="legend_1">
   <g id="patch_4">
    <path d="M 434.361421 455.67976 
L 491.811421 455.67976 
Q 493.811421 455.67976 493.811421 453.67976 
L 493.811421 278.54226 
Q 493.811421 276.54226 491.811421 276.54226 
L 434.361421 276.54226 
Q 432.361421 276.54226 432.361421 278.54226 
L 432.361421 453.67976 
Q 432.361421 455.67976 434.361421 455.67976 
z
" style="fill: #ffffff; opacity: 0.8; stroke: #cccccc; stroke-linejoin: miter"/>
   </g>
   <g id="line2d_30">
    <path d="M 436.361421 284.640698 
L 446.361421 284.640698 
L 456.361421 284.640698 
" style="fill: none; stroke-dasharray: 0.5,0.825; stroke-dashoffset: 0; stroke: #1f77b4; stroke-width: 0.5"/>
   </g>
   <g id="text_20">
    <!-- 2010 -->
    <g transform="translate(464.361421 288.140698)scale(0.1 -0.1)">
     <use xlink:href="#DejaVuSans-32"/>
     <use xlink:href="#DejaVuSans-30" x="63.623047"/>
     <use xlink:href="#DejaVuSans-31" x="127.246094"/>
     <use xlink:href="#DejaVuSans-30" x="190.869141"/>
    </g>
   </g>
   <g id="line2d_31">
    <path d="M 436.361421 299.318823 
L 446.361421 299.318823 
L 456.361421 299.318823 
" style="fill: none; stroke-dasharray: 0.5,0.825; stroke-dashoffset: 0; stroke: #ff7f0e; stroke-width: 0.5"/>
   </g>
   <g id="text_21">
    <!-- 2011 -->
    <g transform="translate(464.361421 302.818823)scale(0.1 -0.1)">
     <use xlink:href="#DejaVuSans-32"/>
     <use xlink:href="#DejaVuSans-30" x="63.623047"/>
     <use xlink:href="#DejaVuSans-31" x="127.246094"/>
     <use xlink:href="#DejaVuSans-31" x="190.869141"/>
    </g>
   </g>
   <g id="line2d_32">
    <path d="M 436.361421 313.996948 
L 446.361421 313.996948 
L 456.361421 313.996948 
" style="fill: none; stroke-dasharray: 0.5,0.825; stroke-dashoffset: 0; stroke: #2ca02c; stroke-width: 0.5"/>
   </g>
   <g id="text_22">
    <!-- 2012 -->
    <g transform="translate(464.361421 317.496948)scale(0.1 -0.1)">
     <use xlink:href="#DejaVuSans-32"/>
     <use xlink:href="#DejaVuSans-30" x="63.623047"/>
     <use xlink:href="#DejaVuSans-31" x="127.246094"/>
     <use xlink:href="#DejaVuSans-32" x="190.869141"/>
    </g>
   </g>
   <g id="line2d_33">
    <path d="M 436.361421 328.675073 
L 446.361421 328.675073 
L 456.361421 328.675073 
" style="fill: none; stroke-dasharray: 0.5,0.825; stroke-dashoffset: 0; stroke: #d62728; stroke-width: 0.5"/>
   </g>
   <g id="text_23">
    <!-- 2013 -->
    <g transform="translate(464.361421 332.175073)scale(0.1 -0.1)">
     <use xlink:href="#DejaVuSans-32"/>
     <use xlink:href="#DejaVuSans-30" x="63.623047"/>
     <use xlink:href="#DejaVuSans-31" x="127.246094"/>
     <use xlink:href="#DejaVuSans-33" x="190.869141"/>
    </g>
   </g>
   <g id="line2d_34">
    <path d="M 436.361421 343.353198 
L 446.361421 343.353198 
L 456.361421 343.353198 
" style="fill: none; stroke-dasharray: 0.5,0.825; stroke-dashoffset: 0; stroke: #9467bd; stroke-width: 0.5"/>
   </g>
   <g id="text_24">
    <!-- 2014 -->
    <g transform="translate(464.361421 346.853198)scale(0.1 -0.1)">
     <use xlink:href="#DejaVuSans-32"/>
     <use xlink:href="#DejaVuSans-30" x="63.623047"/>
     <use xlink:href="#DejaVuSans-31" x="127.246094"/>
     <use xlink:href="#DejaVuSans-34" x="190.869141"/>
    </g>
   </g>
   <g id="line2d_35">
    <path d="M 436.361421 358.031323 
L 446.361421 358.031323 
L 456.361421 358.031323 
" style="fill: none; stroke: #8c564b; stroke-linecap: square"/>
   </g>
   <g id="text_25">
    <!-- 2015 -->
    <g transform="translate(464.361421 361.531323)scale(0.1 -0.1)">
     <use xlink:href="#DejaVuSans-32"/>
     <use xlink:href="#DejaVuSans-30" x="63.623047"/>
     <use xlink:href="#DejaVuSans-31" x="127.246094"/>
     <use xlink:href="#DejaVuSans-35" x="190.869141"/>
    </g>
   </g>
   <g id="line2d_36">
    <path d="M 436.361421 372.709448 
L 446.361421 372.709448 
L 456.361421 372.709448 
" style="fill: none; stroke: #e377c2; stroke-linecap: square"/>
   </g>
   <g id="text_26">
    <!-- 2016 -->
    <g transform="translate(464.361421 376.209448)scale(0.1 -0.1)">
     <defs>
      <path id="DejaVuSans-36" d="M 2113 2584 
Q 1688 2584 1439 2293 
Q 1191 2003 1191 1497 
Q 1191 994 1439 701 
Q 1688 409 2113 409 
Q 2538 409 2786 701 
Q 3034 994 3034 1497 
Q 3034 2003 2786 2293 
Q 2538 2584 2113 2584 
z
M 3366 4563 
L 3366 3988 
Q 3128 4100 2886 4159 
Q 2644 4219 2406 4219 
Q 1781 4219 1451 3797 
Q 1122 3375 1075 2522 
Q 1259 2794 1537 2939 
Q 1816 3084 2150 3084 
Q 2853 3084 3261 2657 
Q 3669 2231 3669 1497 
Q 3669 778 3244 343 
Q 2819 -91 2113 -91 
Q 1303 -91 875 529 
Q 447 1150 447 2328 
Q 447 3434 972 4092 
Q 1497 4750 2381 4750 
Q 2619 4750 2861 4703 
Q 3103 4656 3366 4563 
z
" transform="scale(0.015625)"/>
     </defs>
     <use xlink:href="#DejaVuSans-32"/>
     <use xlink:href="#DejaVuSans-30" x="63.623047"/>
     <use xlink:href="#DejaVuSans-31" x="127.246094"/>
     <use xlink:href="#DejaVuSans-36" x="190.869141"/>
    </g>
   </g>
   <g id="line2d_37">
    <path d="M 436.361421 387.387573 
L 446.361421 387.387573 
L 456.361421 387.387573 
" style="fill: none; stroke: #7f7f7f; stroke-linecap: square"/>
   </g>
   <g id="text_27">
    <!-- 2017 -->
    <g transform="translate(464.361421 390.887573)scale(0.1 -0.1)">
     <defs>
      <path id="DejaVuSans-37" d="M 525 4666 
L 3525 4666 
L 3525 4397 
L 1831 0 
L 1172 0 
L 2766 4134 
L 525 4134 
L 525 4666 
z
" transform="scale(0.015625)"/>
     </defs>
     <use xlink:href="#DejaVuSans-32"/>
     <use xlink:href="#DejaVuSans-30" x="63.623047"/>
     <use xlink:href="#DejaVuSans-31" x="127.246094"/>
     <use xlink:href="#DejaVuSans-37" x="190.869141"/>
    </g>
   </g>
   <g id="line2d_38">
    <path d="M 436.361421 402.065698 
L 446.361421 402.065698 
L 456.361421 402.065698 
" style="fill: none; stroke: #bcbd22; stroke-linecap: square"/>
   </g>
   <g id="text_28">
    <!-- 2018 -->
    <g transform="translate(464.361421 405.565698)scale(0.1 -0.1)">
     <defs>
      <path id="DejaVuSans-38" d="M 2034 2216 
Q 1584 2216 1326 1975 
Q 1069 1734 1069 1313 
Q 1069 891 1326 650 
Q 1584 409 2034 409 
Q 2484 409 2743 651 
Q 3003 894 3003 1313 
Q 3003 1734 2745 1975 
Q 2488 2216 2034 2216 
z
M 1403 2484 
Q 997 2584 770 2862 
Q 544 3141 544 3541 
Q 544 4100 942 4425 
Q 1341 4750 2034 4750 
Q 2731 4750 3128 4425 
Q 3525 4100 3525 3541 
Q 3525 3141 3298 2862 
Q 3072 2584 2669 2484 
Q 3125 2378 3379 2068 
Q 3634 1759 3634 1313 
Q 3634 634 3220 271 
Q 2806 -91 2034 -91 
Q 1263 -91 848 271 
Q 434 634 434 1313 
Q 434 1759 690 2068 
Q 947 2378 1403 2484 
z
M 1172 3481 
Q 1172 3119 1398 2916 
Q 1625 2713 2034 2713 
Q 2441 2713 2670 2916 
Q 2900 3119 2900 3481 
Q 2900 3844 2670 4047 
Q 2441 4250 2034 4250 
Q 1625 4250 1398 4047 
Q 1172 3844 1172 3481 
z
" transform="scale(0.015625)"/>
     </defs>
     <use xlink:href="#DejaVuSans-32"/>
     <use xlink:href="#DejaVuSans-30" x="63.623047"/>
     <use xlink:href="#DejaVuSans-31" x="127.246094"/>
     <use xlink:href="#DejaVuSans-38" x="190.869141"/>
    </g>
   </g>
   <g id="line2d_39">
    <path d="M 436.361421 416.743823 
L 446.361421 416.743823 
L 456.361421 416.743823 
" style="fill: none; stroke: #17becf; stroke-linecap: square"/>
   </g>
   <g id="text_29">
    <!-- 2019 -->
    <g transform="translate(464.361421 420.243823)scale(0.1 -0.1)">
     <defs>
      <path id="DejaVuSans-39" d="M 703 97 
L 703 672 
Q 941 559 1184 500 
Q 1428 441 1663 441 
Q 2288 441 2617 861 
Q 2947 1281 2994 2138 
Q 2813 1869 2534 1725 
Q 2256 1581 1919 1581 
Q 1219 1581 811 2004 
Q 403 2428 403 3163 
Q 403 3881 828 4315 
Q 1253 4750 1959 4750 
Q 2769 4750 3195 4129 
Q 3622 3509 3622 2328 
Q 3622 1225 3098 567 
Q 2575 -91 1691 -91 
Q 1453 -91 1209 -44 
Q 966 3 703 97 
z
M 1959 2075 
Q 2384 2075 2632 2365 
Q 2881 2656 2881 3163 
Q 2881 3666 2632 3958 
Q 2384 4250 1959 4250 
Q 1534 4250 1286 3958 
Q 1038 3666 1038 3163 
Q 1038 2656 1286 2365 
Q 1534 2075 1959 2075 
z
" transform="scale(0.015625)"/>
     </defs>
     <use xlink:href="#DejaVuSans-32"/>
     <use xlink:href="#DejaVuSans-30" x="63.623047"/>
     <use xlink:href="#DejaVuSans-31" x="127.246094"/>
     <use xlink:href="#DejaVuSans-39" x="190.869141"/>
    </g>
   </g>
   <g id="line2d_40">
    <path d="M 436.361421 431.421948 
L 446.361421 431.421948 
L 456.361421 431.421948 
" style="fill: none; stroke: #d62728; stroke-width: 2.5; stroke-linecap: square"/>
   </g>
   <g id="text_30">
    <!-- 2020 -->
    <g transform="translate(464.361421 434.921948)scale(0.1 -0.1)">
     <use xlink:href="#DejaVuSans-32"/>
     <use xlink:href="#DejaVuSans-30" x="63.623047"/>
     <use xlink:href="#DejaVuSans-32" x="127.246094"/>
     <use xlink:href="#DejaVuSans-30" x="190.869141"/>
    </g>
   </g>
   <g id="line2d_41">
    <path d="M 436.361421 446.100073 
L 446.361421 446.100073 
L 456.361421 446.100073 
" style="fill: none; stroke: #2ca02c; stroke-width: 3; stroke-linecap: square"/>
   </g>
   <g id="text_31">
    <!-- 2021 -->
    <g transform="translate(464.361421 449.600073)scale(0.1 -0.1)">
     <use xlink:href="#DejaVuSans-32"/>
     <use xlink:href="#DejaVuSans-30" x="63.623047"/>
     <use xlink:href="#DejaVuSans-32" x="127.246094"/>
     <use xlink:href="#DejaVuSans-31" x="190.869141"/>
    </g>
   </g>
  </g>
 </g>
 <defs>
  <clipPath id="p1284773f4c">
   <path d="M 387.377531 255.874589 
C 387.377531 232.399238 382.753398 209.152156 373.769771 187.46376 
C 364.786143 165.775365 351.617729 146.06744 335.018149 129.467861 
C 318.41857 112.868281 298.710645 99.699867 277.02225 90.716239 
C 255.333854 81.732612 232.086772 77.108479 208.611422 77.108479 
C 185.136071 77.108479 161.888989 81.732612 140.200593 90.716239 
C 118.512198 99.699867 98.804273 112.868281 82.204694 129.467861 
C 65.605114 146.06744 52.4367 165.775365 43.453072 187.46376 
C 34.469445 209.152156 29.845313 232.399238 29.845313 255.874588 
C 29.845313 279.349939 34.469445 302.597021 43.453072 324.285417 
C 52.4367 345.973812 65.605114 365.681737 82.204694 382.281316 
C 98.804273 398.880896 118.512198 412.04931 140.200593 421.032938 
C 161.888989 430.016565 185.136071 434.640698 208.611422 434.640698 
C 232.086772 434.640698 255.333854 430.016565 277.02225 421.032938 
C 298.710645 412.04931 318.41857 398.880896 335.018149 382.281316 
C 351.617729 365.681737 364.786143 345.973812 373.769771 324.285417 
C 382.753398 302.597021 387.377531 279.349939 387.377531 255.874589 
M 208.611422 255.874589 
C 208.611422 255.874589 208.611422 255.874589 208.611422 255.874589 
C 208.611422 255.874589 208.611422 255.874589 208.611422 255.874589 
C 208.611422 255.874589 208.611422 255.874589 208.611422 255.874589 
C 208.611422 255.874589 208.611422 255.874589 208.611422 255.874589 
C 208.611422 255.874589 208.611422 255.874589 208.611422 255.874589 
C 208.611422 255.874589 208.611422 255.874589 208.611422 255.874589 
C 208.611422 255.874589 208.611422 255.874589 208.611422 255.874589 
C 208.611422 255.874589 208.611422 255.874589 208.611422 255.874589 
C 208.611422 255.874589 208.611422 255.874589 208.611422 255.874589 
C 208.611422 255.874589 208.611422 255.874589 208.611422 255.874589 
C 208.611422 255.874589 208.611422 255.874589 208.611422 255.874589 
C 208.611422 255.874589 208.611422 255.874589 208.611422 255.874589 
C 208.611422 255.874589 208.611422 255.874589 208.611422 255.874589 
C 208.611422 255.874589 208.611422 255.874589 208.611422 255.874589 
C 208.611422 255.874589 208.611422 255.874589 208.611422 255.874589 
C 208.611422 255.874589 208.611422 255.874589 208.611422 255.874589 
M 387.377531 255.874589 
z
"/>
  </clipPath>
 </defs>
</svg>
