<?xml version="1.0" encoding="utf-8" standalone="no"?>
<!DOCTYPE svg PUBLIC "-//W3C//DTD SVG 1.1//EN"
  "http://www.w3.org/Graphics/SVG/1.1/DTD/svg11.dtd">
<svg xmlns:xlink="http://www.w3.org/1999/xlink" width="498.933531pt" height="460.67976pt" viewBox="0 0 498.933531 460.67976" xmlns="http://www.w3.org/2000/svg" version="1.1">
 <metadata>
  <rdf:RDF xmlns:dc="http://purl.org/dc/elements/1.1/" xmlns:cc="http://creativecommons.org/ns#" xmlns:rdf="http://www.w3.org/1999/02/22-rdf-syntax-ns#">
   <cc:Work>
    <dc:type rdf:resource="http://purl.org/dc/dcmitype/StillImage"/>
    <dc:date>2025-10-14T03:02:36.197602</dc:date>
    <dc:format>image/svg+xml</dc:format>
    <dc:creator>
     <cc:Agent>
      <dc:title>Matplotlib v3.10.7, https://matplotlib.org/</dc:title>
     </cc:Agent>
    </dc:creator>
   </cc:Work>
  </rdf:RDF>
 </metadata>
 <defs>
  <style type="text/css">*{stroke-linejoin: round; stroke-linecap: butt}</style>
 </defs>
 <g id="figure_1">
  <g id="patch_1">
   <path d="M 0 460.67976 
L 498.933531 460.67976 
L 498.933531 0 
L 0 0 
z
" style="fill: #ffffff"/>
  </g>
  <g id="axes_1">
   <g id="patch_2">
    <path d="M 387.62175 255.752479 
C 387.62175 232.261093 382.994459 208.998131 374.004695 187.294921 
C 365.014931 165.591711 351.837522 145.870324 335.226604 129.259406 
C 318.615686 112.648488 298.894299 99.471079 277.191089 90.481315 
C 255.487879 81.491551 232.224917 76.86426 208.733531 76.86426 
C 185.242146 76.86426 161.979184 81.491551 140.275974 90.481315 
C 118.572763 99.471079 98.851377 112.648488 82.240459 129.259406 
C 65.629541 145.870324 52.452131 165.591711 43.462367 187.294921 
C 34.472603 208.998131 29.845312 232.261093 29.845312 255.752479 
C 29.845312 279.243864 34.472603 302.506826 43.462367 324.210036 
C 52.452131 345.913247 65.629541 365.634633 82.240459 382.245551 
C 98.851377 398.856469 118.572763 412.033879 140.275974 421.023643 
C 161.979184 430.013407 185.242146 434.640697 208.733531 434.640697 
C 232.224917 434.640697 255.487879 430.013407 277.191089 421.023643 
C 298.894299 412.033879 318.615686 398.856469 335.226604 382.245551 
C 351.837522 365.634633 365.014931 345.913247 374.004695 324.210036 
C 382.994459 302.506826 387.62175 279.243864 387.62175 255.752479 
M 208.733531 255.752479 
C 208.733531 255.752479 208.733531 255.752479 208.733531 255.752479 
C 208.733531 255.752479 208.733531 255.752479 208.733531 255.752479 
C 208.733531 255.752479 208.733531 255.752479 208.733531 255.752479 
C 208.733531 255.752479 208.733531 255.752479 208.733531 255.752479 
C 208.733531 255.752479 208.733531 255.752479 208.733531 255.752479 
C 208.733531 255.752479 208.733531 255.752479 208.733531 255.752479 
C 208.733531 255.752479 208.733531 255.752479 208.733531 255.752479 
C 208.733531 255.752479 208.733531 255.752479 208.733531 255.752479 
C 208.733531 255.752479 208.733531 255.752479 208.733531 255.752479 
C 208.733531 255.752479 208.733531 255.752479 208.733531 255.752479 
C 208.733531 255.752479 208.733531 255.752479 208.733531 255.752479 
C 208.733531 255.752479 208.733531 255.752479 208.733531 255.752479 
C 208.733531 255.752479 208.733531 255.752479 208.733531 255.752479 
C 208.733531 255.752479 208.733531 255.752479 208.733531 255.752479 
C 208.733531 255.752479 208.733531 255.752479 208.733531 255.752479 
C 208.733531 255.752479 208.733531 255.752479 208.733531 255.752479 
z
" style="fill: #ffffff"/>
   </g>
   <g id="matplotlib.axis_1">
    <g id="xtick_1">
     <g id="line2d_1">
      <path d="M 208.733531 255.752479 
L 208.733531 76.86426 
" clip-path="url(#p0d7e93f8eb)" style="fill: none; stroke: #b0b0b0; stroke-width: 0.8; stroke-linecap: square"/>
     </g>
     <g id="text_1">
      <!-- Jan -->
      <g transform="translate(201.025719 65.623635) scale(0.1 -0.1)">
       <defs>
        <path id="DejaVuSans-4a" d="M 628 4666 
L 1259 4666 
L 1259 325 
Q 1259 -519 939 -900 
Q 619 -1281 -91 -1281 
L -331 -1281 
L -331 -750 
L -134 -750 
Q 284 -750 456 -515 
Q 628 -281 628 325 
L 628 4666 
z
" transform="scale(0.015625)"/>
        <path id="DejaVuSans-61" d="M 2194 1759 
Q 1497 1759 1228 1600 
Q 959 1441 959 1056 
Q 959 750 1161 570 
Q 1363 391 1709 391 
Q 2188 391 2477 730 
Q 2766 1069 2766 1631 
L 2766 1759 
L 2194 1759 
z
M 3341 1997 
L 3341 0 
L 2766 0 
L 2766 531 
Q 2569 213 2275 61 
Q 1981 -91 1556 -91 
Q 1019 -91 701 211 
Q 384 513 384 1019 
Q 384 1609 779 1909 
Q 1175 2209 1959 2209 
L 2766 2209 
L 2766 2266 
Q 2766 2663 2505 2880 
Q 2244 3097 1772 3097 
Q 1472 3097 1187 3025 
Q 903 2953 641 2809 
L 641 3341 
Q 956 3463 1253 3523 
Q 1550 3584 1831 3584 
Q 2591 3584 2966 3190 
Q 3341 2797 3341 1997 
z
" transform="scale(0.015625)"/>
        <path id="DejaVuSans-6e" d="M 3513 2113 
L 3513 0 
L 2938 0 
L 2938 2094 
Q 2938 2591 2744 2837 
Q 2550 3084 2163 3084 
Q 1697 3084 1428 2787 
Q 1159 2491 1159 1978 
L 1159 0 
L 581 0 
L 581 3500 
L 1159 3500 
L 1159 2956 
Q 1366 3272 1645 3428 
Q 1925 3584 2291 3584 
Q 2894 3584 3203 3211 
Q 3513 2838 3513 2113 
z
" transform="scale(0.015625)"/>
       </defs>
       <use xlink:href="#DejaVuSans-4a"/>
       <use xlink:href="#DejaVuSans-61" transform="translate(29.492188 0)"/>
       <use xlink:href="#DejaVuSans-6e" transform="translate(90.771484 0)"/>
      </g>
     </g>
    </g>
    <g id="xtick_2">
     <g id="line2d_2">
      <path d="M 208.733531 255.752479 
L 298.177641 100.830737 
" clip-path="url(#p0d7e93f8eb)" style="fill: none; stroke: #b0b0b0; stroke-width: 0.8; stroke-linecap: square"/>
     </g>
     <g id="text_2">
      <!-- Feb -->
      <g transform="translate(296.326078 91.465756) scale(0.1 -0.1)">
       <defs>
        <path id="DejaVuSans-46" d="M 628 4666 
L 3309 4666 
L 3309 4134 
L 1259 4134 
L 1259 2759 
L 3109 2759 
L 3109 2228 
L 1259 2228 
L 1259 0 
L 628 0 
L 628 4666 
z
" transform="scale(0.015625)"/>
        <path id="DejaVuSans-65" d="M 3597 1894 
L 3597 1613 
L 953 1613 
Q 991 1019 1311 708 
Q 1631 397 2203 397 
Q 2534 397 2845 478 
Q 3156 559 3463 722 
L 3463 178 
Q 3153 47 2828 -22 
Q 2503 -91 2169 -91 
Q 1331 -91 842 396 
Q 353 884 353 1716 
Q 353 2575 817 3079 
Q 1281 3584 2069 3584 
Q 2775 3584 3186 3129 
Q 3597 2675 3597 1894 
z
M 3022 2063 
Q 3016 2534 2758 2815 
Q 2500 3097 2075 3097 
Q 1594 3097 1305 2825 
Q 1016 2553 972 2059 
L 3022 2063 
z
" transform="scale(0.015625)"/>
        <path id="DejaVuSans-62" d="M 3116 1747 
Q 3116 2381 2855 2742 
Q 2594 3103 2138 3103 
Q 1681 3103 1420 2742 
Q 1159 2381 1159 1747 
Q 1159 1113 1420 752 
Q 1681 391 2138 391 
Q 2594 391 2855 752 
Q 3116 1113 3116 1747 
z
M 1159 2969 
Q 1341 3281 1617 3432 
Q 1894 3584 2278 3584 
Q 2916 3584 3314 3078 
Q 3713 2572 3713 1747 
Q 3713 922 3314 415 
Q 2916 -91 2278 -91 
Q 1894 -91 1617 61 
Q 1341 213 1159 525 
L 1159 0 
L 581 0 
L 581 4863 
L 1159 4863 
L 1159 2969 
z
" transform="scale(0.015625)"/>
       </defs>
       <use xlink:href="#DejaVuSans-46"/>
       <use xlink:href="#DejaVuSans-65" transform="translate(52.019531 0)"/>
       <use xlink:href="#DejaVuSans-62" transform="translate(113.542969 0)"/>
      </g>
     </g>
    </g>
    <g id="xtick_3">
     <g id="line2d_3">
      <path d="M 208.733531 255.752479 
L 363.655273 166.308369 
" clip-path="url(#p0d7e93f8eb)" style="fill: none; stroke: #b0b0b0; stroke-width: 0.8; stroke-linecap: square"/>
     </g>
     <g id="text_3">
      <!-- Mar -->
      <g transform="translate(366.346035 162.067744) scale(0.1 -0.1)">
       <defs>
        <path id="DejaVuSans-4d" d="M 628 4666 
L 1569 4666 
L 2759 1491 
L 3956 4666 
L 4897 4666 
L 4897 0 
L 4281 0 
L 4281 4097 
L 3078 897 
L 2444 897 
L 1241 4097 
L 1241 0 
L 628 0 
L 628 4666 
z
" transform="scale(0.015625)"/>
        <path id="DejaVuSans-72" d="M 2631 2963 
Q 2534 3019 2420 3045 
Q 2306 3072 2169 3072 
Q 1681 3072 1420 2755 
Q 1159 2438 1159 1844 
L 1159 0 
L 581 0 
L 581 3500 
L 1159 3500 
L 1159 2956 
Q 1341 3275 1631 3429 
Q 1922 3584 2338 3584 
Q 2397 3584 2469 3576 
Q 2541 3569 2628 3553 
L 2631 2963 
z
" transform="scale(0.015625)"/>
       </defs>
       <use xlink:href="#DejaVuSans-4d"/>
       <use xlink:href="#DejaVuSans-61" transform="translate(86.279297 0)"/>
       <use xlink:href="#DejaVuSans-72" transform="translate(147.558594 0)"/>
      </g>
     </g>
    </g>
    <g id="xtick_4">
     <g id="line2d_4">
      <path d="M 208.733531 255.752479 
L 387.62175 255.752479 
" clip-path="url(#p0d7e93f8eb)" style="fill: none; stroke: #b0b0b0; stroke-width: 0.8; stroke-linecap: square"/>
     </g>
     <g id="text_4">
      <!-- Apr -->
      <g transform="translate(392.97175 258.511854) scale(0.1 -0.1)">
       <defs>
        <path id="DejaVuSans-41" d="M 2188 4044 
L 1331 1722 
L 3047 1722 
L 2188 4044 
z
M 1831 4666 
L 2547 4666 
L 4325 0 
L 3669 0 
L 3244 1197 
L 1141 1197 
L 716 0 
L 50 0 
L 1831 4666 
z
" transform="scale(0.015625)"/>
        <path id="DejaVuSans-70" d="M 1159 525 
L 1159 -1331 
L 581 -1331 
L 581 3500 
L 1159 3500 
L 1159 2969 
Q 1341 3281 1617 3432 
Q 1894 3584 2278 3584 
Q 2916 3584 3314 3078 
Q 3713 2572 3713 1747 
Q 3713 922 3314 415 
Q 2916 -91 2278 -91 
Q 1894 -91 1617 61 
Q 1341 213 1159 525 
z
M 3116 1747 
Q 3116 2381 2855 2742 
Q 2594 3103 2138 3103 
Q 1681 3103 1420 2742 
Q 1159 2381 1159 1747 
Q 1159 1113 1420 752 
Q 1681 391 2138 391 
Q 2594 391 2855 752 
Q 3116 1113 3116 1747 
z
" transform="scale(0.015625)"/>
       </defs>
       <use xlink:href="#DejaVuSans-41"/>
       <use xlink:href="#DejaVuSans-70" transform="translate(68.408203 0)"/>
       <use xlink:href="#DejaVuSans-72" transform="translate(131.884766 0)"/>
      </g>
     </g>
    </g>
    <g id="xtick_5">
     <g id="line2d_5">
      <path d="M 208.733531 255.752479 
L 363.655273 345.196588 
" clip-path="url(#p0d7e93f8eb)" style="fill: none; stroke: #b0b0b0; stroke-width: 0.8; stroke-linecap: square"/>
     </g>
     <g id="text_5">
      <!-- May -->
      <g transform="translate(365.442129 354.955963) scale(0.1 -0.1)">
       <defs>
        <path id="DejaVuSans-79" d="M 2059 -325 
Q 1816 -950 1584 -1140 
Q 1353 -1331 966 -1331 
L 506 -1331 
L 506 -850 
L 844 -850 
Q 1081 -850 1212 -737 
Q 1344 -625 1503 -206 
L 1606 56 
L 191 3500 
L 800 3500 
L 1894 763 
L 2988 3500 
L 3597 3500 
L 2059 -325 
z
" transform="scale(0.015625)"/>
       </defs>
       <use xlink:href="#DejaVuSans-4d"/>
       <use xlink:href="#DejaVuSans-61" transform="translate(86.279297 0)"/>
       <use xlink:href="#DejaVuSans-79" transform="translate(147.558594 0)"/>
      </g>
     </g>
    </g>
    <g id="xtick_6">
     <g id="line2d_6">
      <path d="M 208.733531 255.752479 
L 298.177641 410.674221 
" clip-path="url(#p0d7e93f8eb)" style="fill: none; stroke: #b0b0b0; stroke-width: 0.8; stroke-linecap: square"/>
     </g>
     <g id="text_6">
      <!-- Jun -->
      <g transform="translate(297.365141 425.557951) scale(0.1 -0.1)">
       <defs>
        <path id="DejaVuSans-75" d="M 544 1381 
L 544 3500 
L 1119 3500 
L 1119 1403 
Q 1119 906 1312 657 
Q 1506 409 1894 409 
Q 2359 409 2629 706 
Q 2900 1003 2900 1516 
L 2900 3500 
L 3475 3500 
L 3475 0 
L 2900 0 
L 2900 538 
Q 2691 219 2414 64 
Q 2138 -91 1772 -91 
Q 1169 -91 856 284 
Q 544 659 544 1381 
z
M 1991 3584 
L 1991 3584 
z
" transform="scale(0.015625)"/>
       </defs>
       <use xlink:href="#DejaVuSans-4a"/>
       <use xlink:href="#DejaVuSans-75" transform="translate(29.492188 0)"/>
       <use xlink:href="#DejaVuSans-6e" transform="translate(92.871094 0)"/>
      </g>
     </g>
    </g>
    <g id="xtick_7">
     <g id="line2d_7">
      <path d="M 208.733531 255.752479 
L 208.733531 434.640697 
" clip-path="url(#p0d7e93f8eb)" style="fill: none; stroke: #b0b0b0; stroke-width: 0.8; stroke-linecap: square"/>
     </g>
     <g id="text_7">
      <!-- Jul -->
      <g transform="translate(202.700719 451.400072) scale(0.1 -0.1)">
       <defs>
        <path id="DejaVuSans-6c" d="M 603 4863 
L 1178 4863 
L 1178 0 
L 603 0 
L 603 4863 
z
" transform="scale(0.015625)"/>
       </defs>
       <use xlink:href="#DejaVuSans-4a"/>
       <use xlink:href="#DejaVuSans-75" transform="translate(29.492188 0)"/>
       <use xlink:href="#DejaVuSans-6c" transform="translate(92.871094 0)"/>
      </g>
     </g>
    </g>
    <g id="xtick_8">
     <g id="line2d_8">
      <path d="M 208.733531 255.752479 
L 119.289422 410.674221 
" clip-path="url(#p0d7e93f8eb)" style="fill: none; stroke: #b0b0b0; stroke-width: 0.8; stroke-linecap: square"/>
     </g>
     <g id="text_8">
      <!-- Aug -->
      <g transform="translate(102.526141 425.557951) scale(0.1 -0.1)">
       <defs>
        <path id="DejaVuSans-67" d="M 2906 1791 
Q 2906 2416 2648 2759 
Q 2391 3103 1925 3103 
Q 1463 3103 1205 2759 
Q 947 2416 947 1791 
Q 947 1169 1205 825 
Q 1463 481 1925 481 
Q 2391 481 2648 825 
Q 2906 1169 2906 1791 
z
M 3481 434 
Q 3481 -459 3084 -895 
Q 2688 -1331 1869 -1331 
Q 1566 -1331 1297 -1286 
Q 1028 -1241 775 -1147 
L 775 -588 
Q 1028 -725 1275 -790 
Q 1522 -856 1778 -856 
Q 2344 -856 2625 -561 
Q 2906 -266 2906 331 
L 2906 616 
Q 2728 306 2450 153 
Q 2172 0 1784 0 
Q 1141 0 747 490 
Q 353 981 353 1791 
Q 353 2603 747 3093 
Q 1141 3584 1784 3584 
Q 2172 3584 2450 3431 
Q 2728 3278 2906 2969 
L 2906 3500 
L 3481 3500 
L 3481 434 
z
" transform="scale(0.015625)"/>
       </defs>
       <use xlink:href="#DejaVuSans-41"/>
       <use xlink:href="#DejaVuSans-75" transform="translate(68.408203 0)"/>
       <use xlink:href="#DejaVuSans-67" transform="translate(131.787109 0)"/>
      </g>
     </g>
    </g>
    <g id="xtick_9">
     <g id="line2d_9">
      <path d="M 208.733531 255.752479 
L 53.811789 345.196588 
" clip-path="url(#p0d7e93f8eb)" style="fill: none; stroke: #b0b0b0; stroke-width: 0.8; stroke-linecap: square"/>
     </g>
     <g id="text_9">
      <!-- Sept -->
      <g transform="translate(30.302277 354.955963) scale(0.1 -0.1)">
       <defs>
        <path id="DejaVuSans-53" d="M 3425 4513 
L 3425 3897 
Q 3066 4069 2747 4153 
Q 2428 4238 2131 4238 
Q 1616 4238 1336 4038 
Q 1056 3838 1056 3469 
Q 1056 3159 1242 3001 
Q 1428 2844 1947 2747 
L 2328 2669 
Q 3034 2534 3370 2195 
Q 3706 1856 3706 1288 
Q 3706 609 3251 259 
Q 2797 -91 1919 -91 
Q 1588 -91 1214 -16 
Q 841 59 441 206 
L 441 856 
Q 825 641 1194 531 
Q 1563 422 1919 422 
Q 2459 422 2753 634 
Q 3047 847 3047 1241 
Q 3047 1584 2836 1778 
Q 2625 1972 2144 2069 
L 1759 2144 
Q 1053 2284 737 2584 
Q 422 2884 422 3419 
Q 422 4038 858 4394 
Q 1294 4750 2059 4750 
Q 2388 4750 2728 4690 
Q 3069 4631 3425 4513 
z
" transform="scale(0.015625)"/>
        <path id="DejaVuSans-74" d="M 1172 4494 
L 1172 3500 
L 2356 3500 
L 2356 3053 
L 1172 3053 
L 1172 1153 
Q 1172 725 1289 603 
Q 1406 481 1766 481 
L 2356 481 
L 2356 0 
L 1766 0 
Q 1100 0 847 248 
Q 594 497 594 1153 
L 594 3053 
L 172 3053 
L 172 3500 
L 594 3500 
L 594 4494 
L 1172 4494 
z
" transform="scale(0.015625)"/>
       </defs>
       <use xlink:href="#DejaVuSans-53"/>
       <use xlink:href="#DejaVuSans-65" transform="translate(63.476562 0)"/>
       <use xlink:href="#DejaVuSans-70" transform="translate(125 0)"/>
       <use xlink:href="#DejaVuSans-74" transform="translate(188.476562 0)"/>
      </g>
     </g>
    </g>
    <g id="xtick_10">
     <g id="line2d_10">
      <path d="M 208.733531 255.752479 
L 29.845313 255.752479 
" clip-path="url(#p0d7e93f8eb)" style="fill: none; stroke: #b0b0b0; stroke-width: 0.8; stroke-linecap: square"/>
     </g>
     <g id="text_10">
      <!-- Oct -->
      <g transform="translate(7.2 258.511854) scale(0.1 -0.1)">
       <defs>
        <path id="DejaVuSans-4f" d="M 2522 4238 
Q 1834 4238 1429 3725 
Q 1025 3213 1025 2328 
Q 1025 1447 1429 934 
Q 1834 422 2522 422 
Q 3209 422 3611 934 
Q 4013 1447 4013 2328 
Q 4013 3213 3611 3725 
Q 3209 4238 2522 4238 
z
M 2522 4750 
Q 3503 4750 4090 4092 
Q 4678 3434 4678 2328 
Q 4678 1225 4090 567 
Q 3503 -91 2522 -91 
Q 1538 -91 948 565 
Q 359 1222 359 2328 
Q 359 3434 948 4092 
Q 1538 4750 2522 4750 
z
" transform="scale(0.015625)"/>
        <path id="DejaVuSans-63" d="M 3122 3366 
L 3122 2828 
Q 2878 2963 2633 3030 
Q 2388 3097 2138 3097 
Q 1578 3097 1268 2742 
Q 959 2388 959 1747 
Q 959 1106 1268 751 
Q 1578 397 2138 397 
Q 2388 397 2633 464 
Q 2878 531 3122 666 
L 3122 134 
Q 2881 22 2623 -34 
Q 2366 -91 2075 -91 
Q 1284 -91 818 406 
Q 353 903 353 1747 
Q 353 2603 823 3093 
Q 1294 3584 2113 3584 
Q 2378 3584 2631 3529 
Q 2884 3475 3122 3366 
z
" transform="scale(0.015625)"/>
       </defs>
       <use xlink:href="#DejaVuSans-4f"/>
       <use xlink:href="#DejaVuSans-63" transform="translate(78.710938 0)"/>
       <use xlink:href="#DejaVuSans-74" transform="translate(133.691406 0)"/>
      </g>
     </g>
    </g>
    <g id="xtick_11">
     <g id="line2d_11">
      <path d="M 208.733531 255.752479 
L 53.811789 166.308369 
" clip-path="url(#p0d7e93f8eb)" style="fill: none; stroke: #b0b0b0; stroke-width: 0.8; stroke-linecap: square"/>
     </g>
     <g id="text_11">
      <!-- Nov -->
      <g transform="translate(31.928059 162.067744) scale(0.1 -0.1)">
       <defs>
        <path id="DejaVuSans-4e" d="M 628 4666 
L 1478 4666 
L 3547 763 
L 3547 4666 
L 4159 4666 
L 4159 0 
L 3309 0 
L 1241 3903 
L 1241 0 
L 628 0 
L 628 4666 
z
" transform="scale(0.015625)"/>
        <path id="DejaVuSans-6f" d="M 1959 3097 
Q 1497 3097 1228 2736 
Q 959 2375 959 1747 
Q 959 1119 1226 758 
Q 1494 397 1959 397 
Q 2419 397 2687 759 
Q 2956 1122 2956 1747 
Q 2956 2369 2687 2733 
Q 2419 3097 1959 3097 
z
M 1959 3584 
Q 2709 3584 3137 3096 
Q 3566 2609 3566 1747 
Q 3566 888 3137 398 
Q 2709 -91 1959 -91 
Q 1206 -91 779 398 
Q 353 888 353 1747 
Q 353 2609 779 3096 
Q 1206 3584 1959 3584 
z
" transform="scale(0.015625)"/>
        <path id="DejaVuSans-76" d="M 191 3500 
L 800 3500 
L 1894 563 
L 2988 3500 
L 3597 3500 
L 2284 0 
L 1503 0 
L 191 3500 
z
" transform="scale(0.015625)"/>
       </defs>
       <use xlink:href="#DejaVuSans-4e"/>
       <use xlink:href="#DejaVuSans-6f" transform="translate(74.804688 0)"/>
       <use xlink:href="#DejaVuSans-76" transform="translate(135.986328 0)"/>
      </g>
     </g>
    </g>
    <g id="xtick_12">
     <g id="line2d_12">
      <path d="M 208.733531 255.752479 
L 119.289422 100.830737 
" clip-path="url(#p0d7e93f8eb)" style="fill: none; stroke: #b0b0b0; stroke-width: 0.8; stroke-linecap: square"/>
     </g>
     <g id="text_12">
      <!-- Dec -->
      <g transform="translate(102.613641 91.465756) scale(0.1 -0.1)">
       <defs>
        <path id="DejaVuSans-44" d="M 1259 4147 
L 1259 519 
L 2022 519 
Q 2988 519 3436 956 
Q 3884 1394 3884 2338 
Q 3884 3275 3436 3711 
Q 2988 4147 2022 4147 
L 1259 4147 
z
M 628 4666 
L 1925 4666 
Q 3281 4666 3915 4102 
Q 4550 3538 4550 2338 
Q 4550 1131 3912 565 
Q 3275 0 1925 0 
L 628 0 
L 628 4666 
z
" transform="scale(0.015625)"/>
       </defs>
       <use xlink:href="#DejaVuSans-44"/>
       <use xlink:href="#DejaVuSans-65" transform="translate(77.001953 0)"/>
       <use xlink:href="#DejaVuSans-63" transform="translate(138.525391 0)"/>
      </g>
     </g>
    </g>
   </g>
   <g id="matplotlib.axis_2">
    <g id="ytick_1">
     <g id="line2d_13">
      <path d="M 208.733531 221.925629 
C 213.175632 221.925629 217.57454 222.800626 221.678506 224.500545 
C 225.782473 226.200463 229.511686 228.692244 232.652726 231.833284 
C 235.793766 234.974324 238.285547 238.703537 239.985465 242.807504 
C 241.685384 246.91147 242.560381 251.310378 242.560381 255.752479 
C 242.560381 260.19458 241.685384 264.593487 239.985465 268.697453 
C 238.285547 272.80142 235.793766 276.530633 232.652726 279.671673 
C 229.511686 282.812713 225.782473 285.304494 221.678506 287.004412 
C 217.57454 288.704331 213.175632 289.579328 208.733531 289.579328 
C 204.29143 289.579328 199.892523 288.704331 195.788557 287.004412 
C 191.68459 285.304494 187.955377 282.812713 184.814337 279.671673 
C 181.673297 276.530633 179.181516 272.80142 177.481598 268.697453 
C 175.781679 264.593487 174.906682 260.19458 174.906682 255.752479 
C 174.906682 251.310378 175.781679 246.91147 177.481598 242.807504 
C 179.181516 238.703537 181.673297 234.974324 184.814337 231.833284 
C 187.955377 228.692244 191.68459 226.200463 195.788557 224.500545 
C 199.892523 222.800626 204.29143 221.925629 208.733531 221.925629 
" clip-path="url(#p0d7e93f8eb)" style="fill: none; stroke: #b0b0b0; stroke-width: 0.8; stroke-linecap: square"/>
     </g>
     <g id="text_13">
      <!-- 1000 -->
      <g transform="translate(208.733531 287.499641) scale(0.1 -0.1)">
       <defs>
        <path id="DejaVuSans-31" d="M 794 531 
L 1825 531 
L 1825 4091 
L 703 3866 
L 703 4441 
L 1819 4666 
L 2450 4666 
L 2450 531 
L 3481 531 
L 3481 0 
L 794 0 
L 794 531 
z
" transform="scale(0.015625)"/>
        <path id="DejaVuSans-30" d="M 2034 4250 
Q 1547 4250 1301 3770 
Q 1056 3291 1056 2328 
Q 1056 1369 1301 889 
Q 1547 409 2034 409 
Q 2525 409 2770 889 
Q 3016 1369 3016 2328 
Q 3016 3291 2770 3770 
Q 2525 4250 2034 4250 
z
M 2034 4750 
Q 2819 4750 3233 4129 
Q 3647 3509 3647 2328 
Q 3647 1150 3233 529 
Q 2819 -91 2034 -91 
Q 1250 -91 836 529 
Q 422 1150 422 2328 
Q 422 3509 836 4129 
Q 1250 4750 2034 4750 
z
" transform="scale(0.015625)"/>
       </defs>
       <use xlink:href="#DejaVuSans-31"/>
       <use xlink:href="#DejaVuSans-30" transform="translate(63.623047 0)"/>
       <use xlink:href="#DejaVuSans-30" transform="translate(127.246094 0)"/>
       <use xlink:href="#DejaVuSans-30" transform="translate(190.869141 0)"/>
      </g>
     </g>
    </g>
    <g id="ytick_2">
     <g id="line2d_14">
      <path d="M 208.733531 188.09878 
C 217.617734 188.09878 226.415548 189.848774 234.623481 193.248611 
C 242.831414 196.648448 250.289841 201.63201 256.57192 207.91409 
C 262.854 214.196169 267.837562 221.654596 271.237399 229.862529 
C 274.637236 238.070462 276.38723 246.868276 276.38723 255.752479 
C 276.38723 264.636681 274.637236 273.434496 271.237399 281.642428 
C 267.837562 289.850361 262.854 297.308788 256.57192 303.590868 
C 250.289841 309.872948 242.831414 314.856509 234.623481 318.256346 
C 226.415548 321.656183 217.617734 323.406177 208.733531 323.406177 
C 199.849329 323.406177 191.051514 321.656183 182.843582 318.256346 
C 174.635649 314.856509 167.177222 309.872948 160.895142 303.590868 
C 154.613062 297.308788 149.629501 289.850361 146.229664 281.642428 
C 142.829827 273.434496 141.079833 264.636681 141.079833 255.752479 
C 141.079833 246.868276 142.829827 238.070462 146.229664 229.862529 
C 149.629501 221.654596 154.613062 214.196169 160.895142 207.91409 
C 167.177222 201.63201 174.635649 196.648448 182.843582 193.248611 
C 191.051514 189.848774 199.849329 188.09878 208.733531 188.09878 
" clip-path="url(#p0d7e93f8eb)" style="fill: none; stroke: #b0b0b0; stroke-width: 0.8; stroke-linecap: square"/>
     </g>
     <g id="text_14">
      <!-- 2000 -->
      <g transform="translate(208.733531 321.32649) scale(0.1 -0.1)">
       <defs>
        <path id="DejaVuSans-32" d="M 1228 531 
L 3431 531 
L 3431 0 
L 469 0 
L 469 531 
Q 828 903 1448 1529 
Q 2069 2156 2228 2338 
Q 2531 2678 2651 2914 
Q 2772 3150 2772 3378 
Q 2772 3750 2511 3984 
Q 2250 4219 1831 4219 
Q 1534 4219 1204 4116 
Q 875 4013 500 3803 
L 500 4441 
Q 881 4594 1212 4672 
Q 1544 4750 1819 4750 
Q 2544 4750 2975 4387 
Q 3406 4025 3406 3419 
Q 3406 3131 3298 2873 
Q 3191 2616 2906 2266 
Q 2828 2175 2409 1742 
Q 1991 1309 1228 531 
z
" transform="scale(0.015625)"/>
       </defs>
       <use xlink:href="#DejaVuSans-32"/>
       <use xlink:href="#DejaVuSans-30" transform="translate(63.623047 0)"/>
       <use xlink:href="#DejaVuSans-30" transform="translate(127.246094 0)"/>
       <use xlink:href="#DejaVuSans-30" transform="translate(190.869141 0)"/>
      </g>
     </g>
    </g>
    <g id="ytick_3">
     <g id="line2d_15">
      <path d="M 208.733531 154.271931 
C 222.059835 154.271931 235.256557 156.896922 247.568456 161.996677 
C 259.880355 167.096433 271.067996 174.571775 280.491115 183.994895 
C 289.914235 193.418014 297.389577 204.605655 302.489333 216.917554 
C 307.589088 229.229453 310.214079 242.426175 310.214079 255.752479 
C 310.214079 269.078782 307.589088 282.275504 302.489333 294.587403 
C 297.389577 306.899302 289.914235 318.086943 280.491115 327.510062 
C 271.067996 336.933182 259.880355 344.408524 247.568456 349.50828 
C 235.256557 354.608036 222.059835 357.233027 208.733531 357.233027 
C 195.407228 357.233027 182.210506 354.608036 169.898607 349.50828 
C 157.586708 344.408524 146.399067 336.933182 136.975948 327.510062 
C 127.552828 318.086943 120.077486 306.899302 114.97773 294.587403 
C 109.877974 282.275504 107.252983 269.078782 107.252983 255.752479 
C 107.252983 242.426175 109.877974 229.229453 114.97773 216.917554 
C 120.077486 204.605655 127.552828 193.418014 136.975948 183.994895 
C 146.399067 174.571775 157.586708 167.096433 169.898607 161.996677 
C 182.210506 156.896922 195.407228 154.271931 208.733531 154.271931 
" clip-path="url(#p0d7e93f8eb)" style="fill: none; stroke: #b0b0b0; stroke-width: 0.8; stroke-linecap: square"/>
     </g>
     <g id="text_15">
      <!-- 3000 -->
      <g transform="translate(208.733531 355.153339) scale(0.1 -0.1)">
       <defs>
        <path id="DejaVuSans-33" d="M 2597 2516 
Q 3050 2419 3304 2112 
Q 3559 1806 3559 1356 
Q 3559 666 3084 287 
Q 2609 -91 1734 -91 
Q 1441 -91 1130 -33 
Q 819 25 488 141 
L 488 750 
Q 750 597 1062 519 
Q 1375 441 1716 441 
Q 2309 441 2620 675 
Q 2931 909 2931 1356 
Q 2931 1769 2642 2001 
Q 2353 2234 1838 2234 
L 1294 2234 
L 1294 2753 
L 1863 2753 
Q 2328 2753 2575 2939 
Q 2822 3125 2822 3475 
Q 2822 3834 2567 4026 
Q 2313 4219 1838 4219 
Q 1578 4219 1281 4162 
Q 984 4106 628 3988 
L 628 4550 
Q 988 4650 1302 4700 
Q 1616 4750 1894 4750 
Q 2613 4750 3031 4423 
Q 3450 4097 3450 3541 
Q 3450 3153 3228 2886 
Q 3006 2619 2597 2516 
z
" transform="scale(0.015625)"/>
       </defs>
       <use xlink:href="#DejaVuSans-33"/>
       <use xlink:href="#DejaVuSans-30" transform="translate(63.623047 0)"/>
       <use xlink:href="#DejaVuSans-30" transform="translate(127.246094 0)"/>
       <use xlink:href="#DejaVuSans-30" transform="translate(190.869141 0)"/>
      </g>
     </g>
    </g>
    <g id="ytick_4">
     <g id="line2d_16">
      <path d="M 208.733531 120.445081 
C 226.501936 120.445081 244.097565 123.945069 260.513431 130.744744 
C 276.929296 137.544418 291.84615 147.511541 304.41031 160.0757 
C 316.974469 172.63986 326.941592 187.556714 333.741266 203.972579 
C 340.540941 220.388445 344.040929 237.984074 344.040929 255.752479 
C 344.040929 273.520883 340.540941 291.116513 333.741266 307.532378 
C 326.941592 323.948243 316.974469 338.865098 304.41031 351.429257 
C 291.84615 363.993416 276.929296 373.96054 260.513431 380.760214 
C 244.097565 387.559888 226.501936 391.059876 208.733531 391.059876 
C 190.965127 391.059876 173.369497 387.559888 156.953632 380.760214 
C 140.537767 373.96054 125.620912 363.993416 113.056753 351.429257 
C 100.492594 338.865098 90.52547 323.948243 83.725796 307.532378 
C 76.926122 291.116513 73.426134 273.520883 73.426134 255.752479 
C 73.426134 237.984074 76.926122 220.388445 83.725796 203.972579 
C 90.52547 187.556714 100.492594 172.63986 113.056753 160.0757 
C 125.620912 147.511541 140.537767 137.544418 156.953632 130.744744 
C 173.369497 123.945069 190.965127 120.445081 208.733531 120.445081 
" clip-path="url(#p0d7e93f8eb)" style="fill: none; stroke: #b0b0b0; stroke-width: 0.8; stroke-linecap: square"/>
     </g>
     <g id="text_16">
      <!-- 4000 -->
      <g transform="translate(208.733531 388.980189) scale(0.1 -0.1)">
       <defs>
        <path id="DejaVuSans-34" d="M 2419 4116 
L 825 1625 
L 2419 1625 
L 2419 4116 
z
M 2253 4666 
L 3047 4666 
L 3047 1625 
L 3713 1625 
L 3713 1100 
L 3047 1100 
L 3047 0 
L 2419 0 
L 2419 1100 
L 313 1100 
L 313 1709 
L 2253 4666 
z
" transform="scale(0.015625)"/>
       </defs>
       <use xlink:href="#DejaVuSans-34"/>
       <use xlink:href="#DejaVuSans-30" transform="translate(63.623047 0)"/>
       <use xlink:href="#DejaVuSans-30" transform="translate(127.246094 0)"/>
       <use xlink:href="#DejaVuSans-30" transform="translate(190.869141 0)"/>
      </g>
     </g>
    </g>
    <g id="ytick_5">
     <g id="line2d_17">
      <path d="M 208.733531 86.618232 
C 230.944037 86.618232 252.938574 90.993217 273.458405 99.49281 
C 293.978237 107.992402 312.624305 120.451307 328.329504 136.156506 
C 344.034703 151.861705 356.493608 170.507773 364.9932 191.027605 
C 373.492793 211.547436 377.867778 233.541973 377.867778 255.752479 
C 377.867778 277.962984 373.492793 299.957521 364.9932 320.477353 
C 356.493608 340.997184 344.034703 359.643252 328.329504 375.348452 
C 312.624305 391.053651 293.978237 403.512555 273.458405 412.012148 
C 252.938574 420.51174 230.944037 424.886725 208.733531 424.886725 
C 186.523026 424.886725 164.528489 420.51174 144.008657 412.012148 
C 123.488826 403.512555 104.842758 391.053651 89.137558 375.348452 
C 73.432359 359.643252 60.973455 340.997184 52.473862 320.477353 
C 43.97427 299.957521 39.599285 277.962984 39.599285 255.752479 
C 39.599285 233.541973 43.97427 211.547436 52.473862 191.027605 
C 60.973455 170.507773 73.432359 151.861705 89.137558 136.156506 
C 104.842758 120.451307 123.488826 107.992402 144.008657 99.49281 
C 164.528489 90.993217 186.523026 86.618232 208.733531 86.618232 
" clip-path="url(#p0d7e93f8eb)" style="fill: none; stroke: #b0b0b0; stroke-width: 0.8; stroke-linecap: square"/>
     </g>
     <g id="text_17">
      <!-- 5000 -->
      <g transform="translate(208.733531 422.807038) scale(0.1 -0.1)">
       <defs>
        <path id="DejaVuSans-35" d="M 691 4666 
L 3169 4666 
L 3169 4134 
L 1269 4134 
L 1269 2991 
Q 1406 3038 1543 3061 
Q 1681 3084 1819 3084 
Q 2600 3084 3056 2656 
Q 3513 2228 3513 1497 
Q 3513 744 3044 326 
Q 2575 -91 1722 -91 
Q 1428 -91 1123 -41 
Q 819 9 494 109 
L 494 744 
Q 775 591 1075 516 
Q 1375 441 1709 441 
Q 2250 441 2565 725 
Q 2881 1009 2881 1497 
Q 2881 1984 2565 2268 
Q 2250 2553 1709 2553 
Q 1456 2553 1204 2497 
Q 953 2441 691 2322 
L 691 4666 
z
" transform="scale(0.015625)"/>
       </defs>
       <use xlink:href="#DejaVuSans-35"/>
       <use xlink:href="#DejaVuSans-30" transform="translate(63.623047 0)"/>
       <use xlink:href="#DejaVuSans-30" transform="translate(127.246094 0)"/>
       <use xlink:href="#DejaVuSans-30" transform="translate(190.869141 0)"/>
      </g>
     </g>
    </g>
   </g>
   <g id="line2d_18">
    <path d="M 208.733531 145.646084 
L 222.452304 140.574351 
L 235.565332 144.715122 
L 248.227057 149.429004 
L 260.046234 155.779226 
L 270.565366 163.952654 
L 281.850064 170.910691 
L 293.118474 178.555633 
L 296.874306 192.509287 
L 304.179978 203.132904 
L 305.470342 216.519966 
L 308.322069 228.53986 
L 311.912185 240.349693 
L 304.725782 252.906659 
L 306.039574 264.427122 
L 304.496122 275.909768 
L 299.389023 286.401073 
L 290.394299 294.653164 
L 287.13668 305.248259 
L 280.207006 313.747564 
L 269.193949 318.03189 
L 263.333056 327.27302 
L 253.372736 331.335467 
L 245.279071 338.71588 
L 234.014815 338.541329 
L 223.973864 340.550818 
L 214.440706 351.922149 
L 203.54938 343.108847 
L 193.373526 341.216687 
L 183.560921 338.185456 
L 174.778906 332.834146 
L 164.971629 329.850021 
L 156.822931 323.750768 
L 149.380534 316.891153 
L 142.355923 309.61267 
L 136.937871 301.076962 
L 129.363174 293.562083 
L 124.358873 284.277664 
L 119.922252 274.44657 
L 116.3467 263.988584 
L 117.779268 253.056017 
L 118.000552 242.207617 
L 116.323722 230.501451 
L 120.209632 219.850789 
L 128.987462 211.788514 
L 137.30295 204.499266 
L 138.699769 191.684348 
L 148.645918 186.02898 
L 156.595991 178.345475 
L 164.804173 170.1643 
L 174.799488 164.396102 
L 188.138912 170.526293 
L 197.05117 157.671367 
L 208.733531 148.419886 
" clip-path="url(#p0d7e93f8eb)" style="fill: none; stroke: #1f77b4; stroke-width: 0.1; stroke-linecap: square"/>
   </g>
   <g id="line2d_19">
    <path d="M 208.733531 148.419886 
L 221.271463 152.493322 
L 233.521324 155.184449 
L 247.130058 154.509159 
L 257.513066 162.810841 
L 267.072823 171.233423 
L 276.633229 179.109564 
L 292.769816 181.302827 
L 297.400591 194.550026 
L 303.112874 206.218378 
L 305.580469 219.02328 
L 308.184868 231.239926 
L 310.71664 243.369487 
L 310.552348 255.752479 
L 301.649982 267.034578 
L 299.087107 278.022635 
L 295.459299 288.643224 
L 291.221856 299.045691 
L 290.914115 312.47764 
L 276.362611 315.666615 
L 269.589785 324.444988 
L 260.270416 330.416546 
L 249.401484 333.238788 
L 240.160867 338.619551 
L 229.757012 341.048094 
L 219.371406 343.363256 
L 208.733531 346.848184 
L 198.022264 343.9677 
L 186.447184 346.171743 
L 178.241819 336.152516 
L 169.433229 330.632948 
L 159.579411 326.964516 
L 151.129824 320.773623 
L 140.344859 316.339556 
L 136.602809 305.540722 
L 131.337079 296.373271 
L 122.54545 288.439306 
L 126.623775 275.990716 
L 119.242262 266.618686 
L 117.976094 255.752479 
L 110.209185 243.789457 
L 118.609863 233.538989 
L 115.492261 220.390729 
L 126.934107 212.820829 
L 127.666505 199.795951 
L 135.255587 190.6567 
L 143.503165 182.122616 
L 152.066017 173.655411 
L 160.912924 164.637924 
L 171.200657 156.786422 
L 183.864785 154.85601 
L 195.159946 143.963948 
L 208.733531 135.05828 
" clip-path="url(#p0d7e93f8eb)" style="fill: none; stroke: #ff7f0e; stroke-width: 0.2; stroke-linecap: square"/>
   </g>
   <g id="line2d_20">
    <path d="M 208.733531 135.05828 
L 223.562948 133.621242 
L 236.961825 141.22579 
L 252.228004 141.066981 
L 264.917243 148.70336 
L 274.951318 159.819453 
L 285.381455 169.234858 
L 292.997694 181.100945 
L 296.481906 195.184149 
L 300.207512 207.74323 
L 298.653794 221.650221 
L 299.973893 233.263749 
L 304.43714 244.131957 
L 302.230943 255.752479 
L 303.093931 267.209906 
L 297.839039 277.715014 
L 296.597931 289.07505 
L 291.671139 299.281493 
L 286.738273 309.595264 
L 279.65418 318.582691 
L 270.913234 325.938854 
L 260.635517 330.945486 
L 249.983128 334.347019 
L 240.436755 339.34701 
L 229.999871 342.033411 
L 219.70575 346.116833 
L 208.733531 346.983491 
L 198.458544 340.374617 
L 187.086713 343.577074 
L 177.893959 337.069747 
L 169.276028 330.93247 
L 157.677043 329.720572 
L 151.757902 320.06467 
L 144.294741 312.840265 
L 137.020393 305.252484 
L 131.756409 296.153189 
L 123.114766 288.223393 
L 119.562336 277.731204 
L 119.107941 266.634996 
L 119.396822 255.752479 
L 115.951401 244.486688 
L 119.857931 233.846611 
L 124.095254 223.653414 
L 127.083868 212.89943 
L 130.867985 202.005772 
L 134.90111 190.342661 
L 143.301283 181.894738 
L 153.276615 175.409265 
L 161.148726 165.087207 
L 170.133087 153.971471 
L 183.808118 154.626103 
L 195.738934 148.732338 
L 208.733531 142.669321 
" clip-path="url(#p0d7e93f8eb)" style="fill: none; stroke: #2ca02c; stroke-width: 0.3; stroke-linecap: square"/>
   </g>
   <g id="line2d_21">
    <path d="M 208.733531 142.669321 
L 222.429438 142.956541 
L 235.966103 145.26559 
L 248.581473 150.682091 
L 262.229102 153.825184 
L 276.238779 157.954243 
L 290.832273 163.082156 
L 302.188767 172.958365 
L 318.335482 180.099714 
L 331.297883 191.425745 
L 326.803295 210.974524 
L 321.388117 227.985617 
L 317.02972 242.602941 
L 311.567153 255.752479 
L 304.772942 267.413774 
L 299.382703 278.095493 
L 292.960636 287.695606 
L 287.957068 297.332198 
L 282.256202 306.501514 
L 274.716827 314.208577 
L 268.714962 323.457518 
L 262.076705 333.033407 
L 250.847735 335.994389 
L 239.405171 336.626946 
L 229.789393 341.179469 
L 219.412179 343.699058 
L 208.733531 347.96447 
L 197.84286 345.445229 
L 186.843854 344.562391 
L 175.542907 343.268963 
L 165.345998 338.420516 
L 155.986049 332.1704 
L 150.299864 321.710454 
L 142.598317 314.343166 
L 138.384502 304.310908 
L 130.468465 296.829154 
L 128.42838 286.208205 
L 119.857931 277.658347 
L 118.201276 266.745085 
L 113.815392 255.752479 
L 116.052142 244.498921 
L 118.774082 233.579466 
L 124.253398 223.71339 
L 124.418123 211.500339 
L 130.840146 201.986557 
L 138.825673 193.819521 
L 144.602301 183.363284 
L 152.873083 174.824647 
L 162.076213 166.854386 
L 172.544115 160.328831 
L 184.115739 155.874171 
L 196.905063 158.336279 
L 208.733531 152.174666 
" clip-path="url(#p0d7e93f8eb)" style="fill: none; stroke: #d62728; stroke-width: 0.4; stroke-linecap: square"/>
   </g>
   <g id="line2d_22">
    <path d="M 208.733531 152.174666 
L 222.033932 146.213822 
L 234.249901 152.228498 
L 246.866164 155.204989 
L 258.07899 161.732562 
L 269.897552 167.141097 
L 281.725145 173.361979 
L 290.26316 183.523531 
L 294.059917 196.855927 
L 303.74187 205.888256 
L 310.735939 217.068068 
L 308.677527 231.118496 
L 309.910715 243.467344 
L 306.763741 255.752479 
L 306.183311 267.585024 
L 308.44762 280.329794 
L 302.227831 291.21019 
L 292.77937 299.863137 
L 285.903104 309.018789 
L 280.160575 319.031318 
L 273.178801 328.49615 
L 261.192776 331.752816 
L 251.712341 337.64176 
L 240.484736 339.473525 
L 230.526065 344.168264 
L 220.29697 350.985964 
L 208.733531 347.930643 
L 197.475896 348.467448 
L 187.799099 340.686811 
L 172.676062 350.828211 
L 165.801882 337.551903 
L 158.215086 328.941082 
L 150.120413 321.913012 
L 142.471719 314.455322 
L 131.25773 309.230163 
L 132.265596 295.885947 
L 125.170629 287.443707 
L 123.996263 276.63834 
L 116.354364 266.96934 
L 116.825982 255.752479 
L 110.947949 243.879159 
L 114.175936 232.446125 
L 118.054181 221.362337 
L 123.190084 210.855814 
L 124.799093 197.816719 
L 131.255065 187.112547 
L 140.923559 179.210843 
L 150.221297 170.982872 
L 161.290207 165.356776 
L 170.816811 155.774305 
L 182.399537 148.911264 
L 196.387236 154.071592 
L 208.733531 150.787765 
" clip-path="url(#p0d7e93f8eb)" style="fill: none; stroke: #9467bd; stroke-width: 0.5; stroke-linecap: square"/>
   </g>
   <g id="line2d_23">
    <path d="M 208.733531 150.787765 
L 222.192252 142.757663 
L 233.817332 151.948826 
L 244.611038 159.16396 
L 257.605714 160.534125 
L 269.129174 166.084924 
L 279.354695 173.806227 
L 282.585955 188.190968 
L 293.878564 194.658806 
L 300.773292 205.011008 
L 309.608144 214.841842 
L 326.660457 223.528886 
L 357.880885 233.487363 
L 380.66752 250.655264 
L 376.593193 270.716839 
L 351.33472 285.768933 
L 334.029739 298.112324 
L 312.046313 304.96752 
L 294.230435 309.726534 
L 281.677978 314.941142 
L 274.000622 322.983176 
L 264.810938 329.208914 
L 254.86931 333.869463 
L 245.401799 338.994488 
L 235.368287 342.973557 
L 224.644032 344.279681 
L 214.019882 344.830986 
L 203.485255 344.189405 
L 193.606888 339.918243 
L 182.326001 342.22946 
L 172.378901 338.282489 
L 163.285833 332.704408 
L 142.865157 342.034214 
L 141.440097 325.070483 
L 136.892313 314.045958 
L 131.731971 304.363438 
L 124.996125 295.642411 
L 121.538907 285.231031 
L 113.037144 275.895833 
L 107.586461 264.769542 
L 106.553686 252.723219 
L 100.937934 239.660464 
L 96.223283 225.008996 
L 93.15718 208.879415 
L 102.415314 197.139303 
L 110.341272 185.153593 
L 125.496683 179.60593 
L 133.541204 168.502014 
L 142.026204 156.714159 
L 152.895054 146.961597 
L 162.691124 131.79827 
L 178.008457 128.603691 
L 192.290207 117.699954 
L 208.733531 115.540188 
" clip-path="url(#p0d7e93f8eb)" style="fill: none; stroke: #8c564b; stroke-width: 0.6; stroke-linecap: square"/>
   </g>
   <g id="line2d_24">
    <path d="M 208.733531 115.540188 
L 224.431429 126.468657 
L 240.005656 128.876483 
L 253.283578 138.283659 
L 266.190573 146.277233 
L 276.968981 156.896363 
L 287.938629 166.348405 
L 289.883363 183.860001 
L 295.173475 196.087294 
L 305.898428 204.756407 
L 305.011153 219.239193 
L 308.776059 231.09421 
L 315.38429 242.802732 
L 315.79551 255.752479 
L 314.175402 268.55544 
L 311.994761 281.204086 
L 307.446559 293.189392 
L 298.829712 303.038602 
L 292.723647 313.72667 
L 284.439615 322.822216 
L 271.653469 326.774406 
L 266.573212 339.547722 
L 254.07036 342.134588 
L 243.159658 346.526714 
L 230.372255 343.54423 
L 220.117565 349.508435 
L 208.733531 351.71925 
L 197.01923 352.228432 
L 186.260993 346.927152 
L 173.755627 347.981633 
L 162.233414 344.35105 
L 154.141328 334.842939 
L 143.727478 329.129144 
L 134.622593 321.409041 
L 129.114131 310.709783 
L 116.091415 304.374812 
L 116.409491 290.766369 
L 113.814653 279.147881 
L 105.575115 268.278178 
L 104.81745 255.752479 
L 105.843757 243.259398 
L 101.16975 229.240388 
L 101.575653 215.112856 
L 103.361735 200.449094 
L 103.279584 182.962874 
L 107.327891 165.914921 
L 114.701311 149.612043 
L 124.279912 133.400288 
L 139.989443 124.771562 
L 160.117123 127.561546 
L 178.198079 131.865278 
L 193.72471 132.143713 
L 208.733531 139.624905 
" clip-path="url(#p0d7e93f8eb)" style="fill: none; stroke: #e377c2; stroke-width: 0.7; stroke-linecap: square"/>
   </g>
   <g id="line2d_25">
    <path d="M 208.733531 139.624905 
L 221.605808 149.739744 
L 234.573713 150.914742 
L 247.118063 154.540787 
L 260.374128 157.359542 
L 271.300308 165.108853 
L 284.573927 170.146369 
L 293.605368 180.562593 
L 298.7647 193.60845 
L 310.211543 202.49271 
L 322.786456 212.49791 
L 327.989742 226.358463 
L 328.413412 241.22071 
L 329.630691 255.752479 
L 326.835142 270.09261 
L 314.983556 281.940758 
L 308.079132 293.429295 
L 302.483879 304.956457 
L 295.813771 315.859628 
L 286.161358 324.347548 
L 274.3228 329.787458 
L 265.708499 338.294969 
L 255.045007 343.991623 
L 244.862972 351.017983 
L 234.120376 358.750957 
L 221.381552 359.918301 
L 208.733531 356.319702 
L 196.146671 359.414598 
L 182.958112 360.327465 
L 171.11669 354.939936 
L 162.170534 344.470858 
L 151.355031 338.879587 
L 139.622541 333.76266 
L 131.73614 323.966215 
L 125.912651 312.919604 
L 120.763956 301.922473 
L 119.572357 289.566852 
L 109.676321 280.167888 
L 101.041786 268.828624 
L 96.834314 255.752479 
L 97.415123 242.235977 
L 98.016736 228.463239 
L 103.979431 216.024489 
L 111.838204 204.897888 
L 120.456217 194.819048 
L 127.406461 183.702982 
L 132.175333 169.336137 
L 142.765551 160.181359 
L 151.826694 147.32556 
L 160.740872 129.206236 
L 174.749483 117.873776 
L 191.873581 116.898296 
L 208.733531 119.294968 
" clip-path="url(#p0d7e93f8eb)" style="fill: none; stroke: #7f7f7f; stroke-width: 0.8; stroke-linecap: square"/>
   </g>
   <g id="line2d_26">
    <path d="M 208.733531 119.294968 
L 224.529286 125.662731 
L 238.540407 134.821229 
L 250.068874 146.760138 
L 265.687529 147.235703 
L 275.085829 159.62458 
L 288.319962 165.917969 
L 296.061385 178.386752 
L 306.392572 188.34331 
L 322.192418 196.204661 
L 325.063719 211.634258 
L 326.183327 226.803704 
L 322.301814 241.962793 
L 319.448809 255.752479 
L 311.690466 268.253714 
L 314.885025 281.916472 
L 300.61477 290.598436 
L 299.159186 303.211523 
L 292.194707 313.361569 
L 282.565952 321.162296 
L 275.399504 331.002806 
L 264.171232 336.067853 
L 257.324425 348.334691 
L 247.214024 357.217199 
L 233.189417 354.973908 
L 220.578309 353.302999 
L 208.733531 350.027908 
L 196.709349 354.780528 
L 186.228611 347.058528 
L 173.515724 348.614206 
L 164.921555 339.229225 
L 153.046025 336.429759 
L 143.076969 329.863417 
L 135.255587 320.848257 
L 129.002775 310.786646 
L 119.805486 302.425517 
L 116.251348 290.826344 
L 110.00476 280.086935 
L 105.004252 268.347494 
L 103.261415 255.752479 
L 104.634869 243.112613 
L 105.669365 230.349443 
L 100.753308 214.800982 
L 104.79944 201.20366 
L 110.768262 188.131936 
L 121.912073 178.835379 
L 134.575487 172.045351 
L 140.536513 156.952041 
L 152.046776 147.74489 
L 165.167088 140.877209 
L 177.105214 127.431351 
L 194.597268 139.329878 
L 208.733531 130.221041 
" clip-path="url(#p0d7e93f8eb)" style="fill: none; stroke-dasharray: 1,1.65; stroke-dashoffset: 0; stroke: #d62728"/>
   </g>
   <g id="line2d_27">
    <path d="M 208.733531 130.221041 
L 223.292474 133.520572 
L 239.228187 129.557224 
L 254.705268 131.988529 
L 270.843218 134.743313 
L 280.637606 148.998709 
L 288.320359 163.402795 
L 294.541113 177.254178 
L 305.889016 186.04101 
L 314.192671 197.612911 
L 315.626766 212.400934 
L 318.698594 225.704469 
L 324.290947 238.501759 
L 323.829558 252.340302 
L 323.964371 266.025083 
L 315.783728 278.285722 
L 315.31542 291.785432 
L 307.648725 302.872644 
L 295.4604 310.50301 
L 292.710268 323.892974 
L 282.38874 331.623656 
L 269.983525 335.984544 
L 260.01271 342.578255 
L 250.406356 350.355521 
L 239.813999 357.531971 
L 227.330687 359.228426 
L 214.847503 358.776939 
L 202.453234 361.579637 
L 190.662936 356.298606 
L 179.589418 351.190973 
L 167.674344 348.962479 
L 157.798393 341.995727 
L 145.882499 338.081763 
L 137.882216 328.735405 
L 130.115336 319.544941 
L 119.489524 312.092075 
L 118.735669 298.6247 
L 109.041331 289.456182 
L 103.967337 277.804957 
L 101.319521 265.328228 
L 95.5986 252.398441 
L 96.9232 239.061133 
L 104.152514 227.175662 
L 110.586106 215.947878 
L 112.191021 202.528644 
L 118.91624 191.306345 
L 125.19718 179.331939 
L 134.049111 169.091371 
L 144.04821 159.71617 
L 157.32815 155.59866 
L 166.9903 143.372403 
L 182.42613 146.885234 
L 204.660708 221.558447 
L 208.733531 134.009648 
" clip-path="url(#p0d7e93f8eb)" style="fill: none; stroke: #ff7f0e; stroke-width: 2; stroke-linecap: square"/>
   </g>
   <g id="line2d_28">
    <path d="M 208.733531 134.009648 
L 225.416442 123.147911 
L 240.095587 133.084225 
L 258.834059 128.643167 
L 273.318324 137.701383 
L 287.231967 147.125199 
L 300.892948 157.006788 
L 315.460597 166.814248 
L 320.827932 183.96976 
L 321.367948 202.115699 
L 324.612852 217.444258 
L 328.421986 232.221621 
L 320.872882 248.005587 
L 321.401873 262.088718 
L 315.404346 275.310002 
L 312.41902 288.564125 
L 304.409177 299.820768 
L 299.883079 312.491426 
L 289.356504 321.208053 
L 280.929721 331.150825 
L 271.921195 340.876792 
L 260.435799 347.450192 
L 247.317434 350.087146 
L 235.425035 354.851501 
L 222.864796 357.542221 
L 210.073853 360.505657 
L 196.96854 360.021726 
L 185.175259 353.06907 
L 172.87591 350.252801 
L 162.073767 343.693085 
L 152.395579 335.85286 
L 143.770886 327.168018 
L 129.631739 323.403337 
L 123.331409 311.995627 
L 115.764697 301.492698 
L 113.916216 288.449365 
L 109.020457 276.684647 
L 107.356043 264.060384 
" clip-path="url(#p0d7e93f8eb)" style="fill: none; stroke: #2ca02c; stroke-width: 3; stroke-linecap: square"/>
   </g>
   <g id="patch_3">
    <path d="M 208.733531 76.86426 
C 185.242146 76.86426 161.979184 81.491551 140.275974 90.481315 
C 118.572763 99.471079 98.851377 112.648488 82.240459 129.259406 
C 65.629541 145.870324 52.452131 165.591711 43.462367 187.294921 
C 34.472603 208.998131 29.845312 232.261093 29.845312 255.752479 
C 29.845312 279.243864 34.472603 302.506826 43.462367 324.210036 
C 52.452131 345.913247 65.629541 365.634633 82.240459 382.245551 
C 98.851377 398.856469 118.572763 412.033879 140.275974 421.023643 
C 161.979184 430.013407 185.242146 434.640697 208.733531 434.640697 
C 232.224917 434.640697 255.487879 430.013407 277.191089 421.023643 
C 298.894299 412.033879 318.615686 398.856469 335.226604 382.245551 
C 351.837522 365.634633 365.014931 345.913247 374.004695 324.210036 
C 382.994459 302.506826 387.62175 279.243864 387.62175 255.752479 
C 387.62175 232.261093 382.994459 208.998131 374.004695 187.294921 
C 365.014931 165.591711 351.837522 145.870324 335.226604 129.259406 
C 318.615686 112.648488 298.894299 99.471079 277.191089 90.481315 
C 255.487879 81.491551 232.224917 76.86426 208.733531 76.86426 
" style="fill: none; stroke: #000000; stroke-width: 0.8; stroke-linejoin: miter; stroke-linecap: square"/>
   </g>
   <g id="text_18">
    <!-- Totaal mannen en vrouwen, Totaal leeftijd -->
    <g transform="translate(104.363219 35.086616) scale(0.1 -0.1)">
     <defs>
      <path id="DejaVuSans-54" d="M -19 4666 
L 3928 4666 
L 3928 4134 
L 2272 4134 
L 2272 0 
L 1638 0 
L 1638 4134 
L -19 4134 
L -19 4666 
z
" transform="scale(0.015625)"/>
      <path id="DejaVuSans-20" transform="scale(0.015625)"/>
      <path id="DejaVuSans-6d" d="M 3328 2828 
Q 3544 3216 3844 3400 
Q 4144 3584 4550 3584 
Q 5097 3584 5394 3201 
Q 5691 2819 5691 2113 
L 5691 0 
L 5113 0 
L 5113 2094 
Q 5113 2597 4934 2840 
Q 4756 3084 4391 3084 
Q 3944 3084 3684 2787 
Q 3425 2491 3425 1978 
L 3425 0 
L 2847 0 
L 2847 2094 
Q 2847 2600 2669 2842 
Q 2491 3084 2119 3084 
Q 1678 3084 1418 2786 
Q 1159 2488 1159 1978 
L 1159 0 
L 581 0 
L 581 3500 
L 1159 3500 
L 1159 2956 
Q 1356 3278 1631 3431 
Q 1906 3584 2284 3584 
Q 2666 3584 2933 3390 
Q 3200 3197 3328 2828 
z
" transform="scale(0.015625)"/>
      <path id="DejaVuSans-77" d="M 269 3500 
L 844 3500 
L 1563 769 
L 2278 3500 
L 2956 3500 
L 3675 769 
L 4391 3500 
L 4966 3500 
L 4050 0 
L 3372 0 
L 2619 2869 
L 1863 0 
L 1184 0 
L 269 3500 
z
" transform="scale(0.015625)"/>
      <path id="DejaVuSans-2c" d="M 750 794 
L 1409 794 
L 1409 256 
L 897 -744 
L 494 -744 
L 750 256 
L 750 794 
z
" transform="scale(0.015625)"/>
      <path id="DejaVuSans-66" d="M 2375 4863 
L 2375 4384 
L 1825 4384 
Q 1516 4384 1395 4259 
Q 1275 4134 1275 3809 
L 1275 3500 
L 2222 3500 
L 2222 3053 
L 1275 3053 
L 1275 0 
L 697 0 
L 697 3053 
L 147 3053 
L 147 3500 
L 697 3500 
L 697 3744 
Q 697 4328 969 4595 
Q 1241 4863 1831 4863 
L 2375 4863 
z
" transform="scale(0.015625)"/>
      <path id="DejaVuSans-69" d="M 603 3500 
L 1178 3500 
L 1178 0 
L 603 0 
L 603 3500 
z
M 603 4863 
L 1178 4863 
L 1178 4134 
L 603 4134 
L 603 4863 
z
" transform="scale(0.015625)"/>
      <path id="DejaVuSans-6a" d="M 603 3500 
L 1178 3500 
L 1178 -63 
Q 1178 -731 923 -1031 
Q 669 -1331 103 -1331 
L -116 -1331 
L -116 -844 
L 38 -844 
Q 366 -844 484 -692 
Q 603 -541 603 -63 
L 603 3500 
z
M 603 4863 
L 1178 4863 
L 1178 4134 
L 603 4134 
L 603 4863 
z
" transform="scale(0.015625)"/>
      <path id="DejaVuSans-64" d="M 2906 2969 
L 2906 4863 
L 3481 4863 
L 3481 0 
L 2906 0 
L 2906 525 
Q 2725 213 2448 61 
Q 2172 -91 1784 -91 
Q 1150 -91 751 415 
Q 353 922 353 1747 
Q 353 2572 751 3078 
Q 1150 3584 1784 3584 
Q 2172 3584 2448 3432 
Q 2725 3281 2906 2969 
z
M 947 1747 
Q 947 1113 1208 752 
Q 1469 391 1925 391 
Q 2381 391 2643 752 
Q 2906 1113 2906 1747 
Q 2906 2381 2643 2742 
Q 2381 3103 1925 3103 
Q 1469 3103 1208 2742 
Q 947 2381 947 1747 
z
" transform="scale(0.015625)"/>
     </defs>
     <use xlink:href="#DejaVuSans-54"/>
     <use xlink:href="#DejaVuSans-6f" transform="translate(44.083984 0)"/>
     <use xlink:href="#DejaVuSans-74" transform="translate(105.265625 0)"/>
     <use xlink:href="#DejaVuSans-61" transform="translate(144.474609 0)"/>
     <use xlink:href="#DejaVuSans-61" transform="translate(205.753906 0)"/>
     <use xlink:href="#DejaVuSans-6c" transform="translate(267.033203 0)"/>
     <use xlink:href="#DejaVuSans-20" transform="translate(294.816406 0)"/>
     <use xlink:href="#DejaVuSans-6d" transform="translate(326.603516 0)"/>
     <use xlink:href="#DejaVuSans-61" transform="translate(424.015625 0)"/>
     <use xlink:href="#DejaVuSans-6e" transform="translate(485.294922 0)"/>
     <use xlink:href="#DejaVuSans-6e" transform="translate(548.673828 0)"/>
     <use xlink:href="#DejaVuSans-65" transform="translate(612.052734 0)"/>
     <use xlink:href="#DejaVuSans-6e" transform="translate(673.576172 0)"/>
     <use xlink:href="#DejaVuSans-20" transform="translate(736.955078 0)"/>
     <use xlink:href="#DejaVuSans-65" transform="translate(768.742188 0)"/>
     <use xlink:href="#DejaVuSans-6e" transform="translate(830.265625 0)"/>
     <use xlink:href="#DejaVuSans-20" transform="translate(893.644531 0)"/>
     <use xlink:href="#DejaVuSans-76" transform="translate(925.431641 0)"/>
     <use xlink:href="#DejaVuSans-72" transform="translate(984.611328 0)"/>
     <use xlink:href="#DejaVuSans-6f" transform="translate(1023.474609 0)"/>
     <use xlink:href="#DejaVuSans-75" transform="translate(1084.65625 0)"/>
     <use xlink:href="#DejaVuSans-77" transform="translate(1148.035156 0)"/>
     <use xlink:href="#DejaVuSans-65" transform="translate(1229.822266 0)"/>
     <use xlink:href="#DejaVuSans-6e" transform="translate(1291.345703 0)"/>
     <use xlink:href="#DejaVuSans-2c" transform="translate(1354.724609 0)"/>
     <use xlink:href="#DejaVuSans-20" transform="translate(1386.511719 0)"/>
     <use xlink:href="#DejaVuSans-54" transform="translate(1418.298828 0)"/>
     <use xlink:href="#DejaVuSans-6f" transform="translate(1462.382812 0)"/>
     <use xlink:href="#DejaVuSans-74" transform="translate(1523.564453 0)"/>
     <use xlink:href="#DejaVuSans-61" transform="translate(1562.773438 0)"/>
     <use xlink:href="#DejaVuSans-61" transform="translate(1624.052734 0)"/>
     <use xlink:href="#DejaVuSans-6c" transform="translate(1685.332031 0)"/>
     <use xlink:href="#DejaVuSans-20" transform="translate(1713.115234 0)"/>
     <use xlink:href="#DejaVuSans-6c" transform="translate(1744.902344 0)"/>
     <use xlink:href="#DejaVuSans-65" transform="translate(1772.685547 0)"/>
     <use xlink:href="#DejaVuSans-65" transform="translate(1834.208984 0)"/>
     <use xlink:href="#DejaVuSans-66" transform="translate(1895.732422 0)"/>
     <use xlink:href="#DejaVuSans-74" transform="translate(1929.1875 0)"/>
     <use xlink:href="#DejaVuSans-69" transform="translate(1968.396484 0)"/>
     <use xlink:href="#DejaVuSans-6a" transform="translate(1996.179688 0)"/>
     <use xlink:href="#DejaVuSans-64" transform="translate(2023.962891 0)"/>
    </g>
   </g>
  </g>
  <g id="text_19">
   <!-- Deaths in the Netherlands per week -->
   <g transform="translate(82.235875 17.837812) scale(0.14 -0.14)">
    <defs>
     <path id="DejaVuSans-68" d="M 3513 2113 
L 3513 0 
L 2938 0 
L 2938 2094 
Q 2938 2591 2744 2837 
Q 2550 3084 2163 3084 
Q 1697 3084 1428 2787 
Q 1159 2491 1159 1978 
L 1159 0 
L 581 0 
L 581 4863 
L 1159 4863 
L 1159 2956 
Q 1366 3272 1645 3428 
Q 1925 3584 2291 3584 
Q 2894 3584 3203 3211 
Q 3513 2838 3513 2113 
z
" transform="scale(0.015625)"/>
     <path id="DejaVuSans-73" d="M 2834 3397 
L 2834 2853 
Q 2591 2978 2328 3040 
Q 2066 3103 1784 3103 
Q 1356 3103 1142 2972 
Q 928 2841 928 2578 
Q 928 2378 1081 2264 
Q 1234 2150 1697 2047 
L 1894 2003 
Q 2506 1872 2764 1633 
Q 3022 1394 3022 966 
Q 3022 478 2636 193 
Q 2250 -91 1575 -91 
Q 1294 -91 989 -36 
Q 684 19 347 128 
L 347 722 
Q 666 556 975 473 
Q 1284 391 1588 391 
Q 1994 391 2212 530 
Q 2431 669 2431 922 
Q 2431 1156 2273 1281 
Q 2116 1406 1581 1522 
L 1381 1569 
Q 847 1681 609 1914 
Q 372 2147 372 2553 
Q 372 3047 722 3315 
Q 1072 3584 1716 3584 
Q 2034 3584 2315 3537 
Q 2597 3491 2834 3397 
z
" transform="scale(0.015625)"/>
     <path id="DejaVuSans-6b" d="M 581 4863 
L 1159 4863 
L 1159 1991 
L 2875 3500 
L 3609 3500 
L 1753 1863 
L 3688 0 
L 2938 0 
L 1159 1709 
L 1159 0 
L 581 0 
L 581 4863 
z
" transform="scale(0.015625)"/>
    </defs>
    <use xlink:href="#DejaVuSans-44"/>
    <use xlink:href="#DejaVuSans-65" transform="translate(77.001953 0)"/>
    <use xlink:href="#DejaVuSans-61" transform="translate(138.525391 0)"/>
    <use xlink:href="#DejaVuSans-74" transform="translate(199.804688 0)"/>
    <use xlink:href="#DejaVuSans-68" transform="translate(239.013672 0)"/>
    <use xlink:href="#DejaVuSans-73" transform="translate(302.392578 0)"/>
    <use xlink:href="#DejaVuSans-20" transform="translate(354.492188 0)"/>
    <use xlink:href="#DejaVuSans-69" transform="translate(386.279297 0)"/>
    <use xlink:href="#DejaVuSans-6e" transform="translate(414.0625 0)"/>
    <use xlink:href="#DejaVuSans-20" transform="translate(477.441406 0)"/>
    <use xlink:href="#DejaVuSans-74" transform="translate(509.228516 0)"/>
    <use xlink:href="#DejaVuSans-68" transform="translate(548.4375 0)"/>
    <use xlink:href="#DejaVuSans-65" transform="translate(611.816406 0)"/>
    <use xlink:href="#DejaVuSans-20" transform="translate(673.339844 0)"/>
    <use xlink:href="#DejaVuSans-4e" transform="translate(705.126953 0)"/>
    <use xlink:href="#DejaVuSans-65" transform="translate(779.931641 0)"/>
    <use xlink:href="#DejaVuSans-74" transform="translate(841.455078 0)"/>
    <use xlink:href="#DejaVuSans-68" transform="translate(880.664062 0)"/>
    <use xlink:href="#DejaVuSans-65" transform="translate(944.042969 0)"/>
    <use xlink:href="#DejaVuSans-72" transform="translate(1005.566406 0)"/>
    <use xlink:href="#DejaVuSans-6c" transform="translate(1046.679688 0)"/>
    <use xlink:href="#DejaVuSans-61" transform="translate(1074.462891 0)"/>
    <use xlink:href="#DejaVuSans-6e" transform="translate(1135.742188 0)"/>
    <use xlink:href="#DejaVuSans-64" transform="translate(1199.121094 0)"/>
    <use xlink:href="#DejaVuSans-73" transform="translate(1262.597656 0)"/>
    <use xlink:href="#DejaVuSans-20" transform="translate(1314.697266 0)"/>
    <use xlink:href="#DejaVuSans-70" transform="translate(1346.484375 0)"/>
    <use xlink:href="#DejaVuSans-65" transform="translate(1409.960938 0)"/>
    <use xlink:href="#DejaVuSans-72" transform="translate(1471.484375 0)"/>
    <use xlink:href="#DejaVuSans-20" transform="translate(1512.597656 0)"/>
    <use xlink:href="#DejaVuSans-77" transform="translate(1544.384766 0)"/>
    <use xlink:href="#DejaVuSans-65" transform="translate(1626.171875 0)"/>
    <use xlink:href="#DejaVuSans-65" transform="translate(1687.695312 0)"/>
    <use xlink:href="#DejaVuSans-6b" transform="translate(1749.21875 0)"/>
   </g>
  </g>
  <g id="legend_1">
   <g id="patch_4">
    <path d="M 434.483531 455.67976 
L 491.933531 455.67976 
Q 493.933531 455.67976 493.933531 453.67976 
L 493.933531 293.220385 
Q 493.933531 291.220385 491.933531 291.220385 
L 434.483531 291.220385 
Q 432.483531 291.220385 432.483531 293.220385 
L 432.483531 453.67976 
Q 432.483531 455.67976 434.483531 455.67976 
z
" style="fill: #ffffff; opacity: 0.8; stroke: #cccccc; stroke-linejoin: miter"/>
   </g>
   <g id="line2d_29">
    <path d="M 436.483531 299.318823 
L 446.483531 299.318823 
L 456.483531 299.318823 
" style="fill: none; stroke: #1f77b4; stroke-width: 0.1; stroke-linecap: square"/>
   </g>
   <g id="text_20">
    <!-- 2015 -->
    <g transform="translate(464.483531 302.818823) scale(0.1 -0.1)">
     <use xlink:href="#DejaVuSans-32"/>
     <use xlink:href="#DejaVuSans-30" transform="translate(63.623047 0)"/>
     <use xlink:href="#DejaVuSans-31" transform="translate(127.246094 0)"/>
     <use xlink:href="#DejaVuSans-35" transform="translate(190.869141 0)"/>
    </g>
   </g>
   <g id="line2d_30">
    <path d="M 436.483531 313.996948 
L 446.483531 313.996948 
L 456.483531 313.996948 
" style="fill: none; stroke: #ff7f0e; stroke-width: 0.2; stroke-linecap: square"/>
   </g>
   <g id="text_21">
    <!-- 2016 -->
    <g transform="translate(464.483531 317.496948) scale(0.1 -0.1)">
     <defs>
      <path id="DejaVuSans-36" d="M 2113 2584 
Q 1688 2584 1439 2293 
Q 1191 2003 1191 1497 
Q 1191 994 1439 701 
Q 1688 409 2113 409 
Q 2538 409 2786 701 
Q 3034 994 3034 1497 
Q 3034 2003 2786 2293 
Q 2538 2584 2113 2584 
z
M 3366 4563 
L 3366 3988 
Q 3128 4100 2886 4159 
Q 2644 4219 2406 4219 
Q 1781 4219 1451 3797 
Q 1122 3375 1075 2522 
Q 1259 2794 1537 2939 
Q 1816 3084 2150 3084 
Q 2853 3084 3261 2657 
Q 3669 2231 3669 1497 
Q 3669 778 3244 343 
Q 2819 -91 2113 -91 
Q 1303 -91 875 529 
Q 447 1150 447 2328 
Q 447 3434 972 4092 
Q 1497 4750 2381 4750 
Q 2619 4750 2861 4703 
Q 3103 4656 3366 4563 
z
" transform="scale(0.015625)"/>
     </defs>
     <use xlink:href="#DejaVuSans-32"/>
     <use xlink:href="#DejaVuSans-30" transform="translate(63.623047 0)"/>
     <use xlink:href="#DejaVuSans-31" transform="translate(127.246094 0)"/>
     <use xlink:href="#DejaVuSans-36" transform="translate(190.869141 0)"/>
    </g>
   </g>
   <g id="line2d_31">
    <path d="M 436.483531 328.675073 
L 446.483531 328.675073 
L 456.483531 328.675073 
" style="fill: none; stroke: #2ca02c; stroke-width: 0.3; stroke-linecap: square"/>
   </g>
   <g id="text_22">
    <!-- 2017 -->
    <g transform="translate(464.483531 332.175073) scale(0.1 -0.1)">
     <defs>
      <path id="DejaVuSans-37" d="M 525 4666 
L 3525 4666 
L 3525 4397 
L 1831 0 
L 1172 0 
L 2766 4134 
L 525 4134 
L 525 4666 
z
" transform="scale(0.015625)"/>
     </defs>
     <use xlink:href="#DejaVuSans-32"/>
     <use xlink:href="#DejaVuSans-30" transform="translate(63.623047 0)"/>
     <use xlink:href="#DejaVuSans-31" transform="translate(127.246094 0)"/>
     <use xlink:href="#DejaVuSans-37" transform="translate(190.869141 0)"/>
    </g>
   </g>
   <g id="line2d_32">
    <path d="M 436.483531 343.353198 
L 446.483531 343.353198 
L 456.483531 343.353198 
" style="fill: none; stroke: #d62728; stroke-width: 0.4; stroke-linecap: square"/>
   </g>
   <g id="text_23">
    <!-- 2018 -->
    <g transform="translate(464.483531 346.853198) scale(0.1 -0.1)">
     <defs>
      <path id="DejaVuSans-38" d="M 2034 2216 
Q 1584 2216 1326 1975 
Q 1069 1734 1069 1313 
Q 1069 891 1326 650 
Q 1584 409 2034 409 
Q 2484 409 2743 651 
Q 3003 894 3003 1313 
Q 3003 1734 2745 1975 
Q 2488 2216 2034 2216 
z
M 1403 2484 
Q 997 2584 770 2862 
Q 544 3141 544 3541 
Q 544 4100 942 4425 
Q 1341 4750 2034 4750 
Q 2731 4750 3128 4425 
Q 3525 4100 3525 3541 
Q 3525 3141 3298 2862 
Q 3072 2584 2669 2484 
Q 3125 2378 3379 2068 
Q 3634 1759 3634 1313 
Q 3634 634 3220 271 
Q 2806 -91 2034 -91 
Q 1263 -91 848 271 
Q 434 634 434 1313 
Q 434 1759 690 2068 
Q 947 2378 1403 2484 
z
M 1172 3481 
Q 1172 3119 1398 2916 
Q 1625 2713 2034 2713 
Q 2441 2713 2670 2916 
Q 2900 3119 2900 3481 
Q 2900 3844 2670 4047 
Q 2441 4250 2034 4250 
Q 1625 4250 1398 4047 
Q 1172 3844 1172 3481 
z
" transform="scale(0.015625)"/>
     </defs>
     <use xlink:href="#DejaVuSans-32"/>
     <use xlink:href="#DejaVuSans-30" transform="translate(63.623047 0)"/>
     <use xlink:href="#DejaVuSans-31" transform="translate(127.246094 0)"/>
     <use xlink:href="#DejaVuSans-38" transform="translate(190.869141 0)"/>
    </g>
   </g>
   <g id="line2d_33">
    <path d="M 436.483531 358.031323 
L 446.483531 358.031323 
L 456.483531 358.031323 
" style="fill: none; stroke: #9467bd; stroke-width: 0.5; stroke-linecap: square"/>
   </g>
   <g id="text_24">
    <!-- 2019 -->
    <g transform="translate(464.483531 361.531323) scale(0.1 -0.1)">
     <defs>
      <path id="DejaVuSans-39" d="M 703 97 
L 703 672 
Q 941 559 1184 500 
Q 1428 441 1663 441 
Q 2288 441 2617 861 
Q 2947 1281 2994 2138 
Q 2813 1869 2534 1725 
Q 2256 1581 1919 1581 
Q 1219 1581 811 2004 
Q 403 2428 403 3163 
Q 403 3881 828 4315 
Q 1253 4750 1959 4750 
Q 2769 4750 3195 4129 
Q 3622 3509 3622 2328 
Q 3622 1225 3098 567 
Q 2575 -91 1691 -91 
Q 1453 -91 1209 -44 
Q 966 3 703 97 
z
M 1959 2075 
Q 2384 2075 2632 2365 
Q 2881 2656 2881 3163 
Q 2881 3666 2632 3958 
Q 2384 4250 1959 4250 
Q 1534 4250 1286 3958 
Q 1038 3666 1038 3163 
Q 1038 2656 1286 2365 
Q 1534 2075 1959 2075 
z
" transform="scale(0.015625)"/>
     </defs>
     <use xlink:href="#DejaVuSans-32"/>
     <use xlink:href="#DejaVuSans-30" transform="translate(63.623047 0)"/>
     <use xlink:href="#DejaVuSans-31" transform="translate(127.246094 0)"/>
     <use xlink:href="#DejaVuSans-39" transform="translate(190.869141 0)"/>
    </g>
   </g>
   <g id="line2d_34">
    <path d="M 436.483531 372.709448 
L 446.483531 372.709448 
L 456.483531 372.709448 
" style="fill: none; stroke: #8c564b; stroke-width: 0.6; stroke-linecap: square"/>
   </g>
   <g id="text_25">
    <!-- 2020 -->
    <g transform="translate(464.483531 376.209448) scale(0.1 -0.1)">
     <use xlink:href="#DejaVuSans-32"/>
     <use xlink:href="#DejaVuSans-30" transform="translate(63.623047 0)"/>
     <use xlink:href="#DejaVuSans-32" transform="translate(127.246094 0)"/>
     <use xlink:href="#DejaVuSans-30" transform="translate(190.869141 0)"/>
    </g>
   </g>
   <g id="line2d_35">
    <path d="M 436.483531 387.387573 
L 446.483531 387.387573 
L 456.483531 387.387573 
" style="fill: none; stroke: #e377c2; stroke-width: 0.7; stroke-linecap: square"/>
   </g>
   <g id="text_26">
    <!-- 2021 -->
    <g transform="translate(464.483531 390.887573) scale(0.1 -0.1)">
     <use xlink:href="#DejaVuSans-32"/>
     <use xlink:href="#DejaVuSans-30" transform="translate(63.623047 0)"/>
     <use xlink:href="#DejaVuSans-32" transform="translate(127.246094 0)"/>
     <use xlink:href="#DejaVuSans-31" transform="translate(190.869141 0)"/>
    </g>
   </g>
   <g id="line2d_36">
    <path d="M 436.483531 402.065697 
L 446.483531 402.065697 
L 456.483531 402.065697 
" style="fill: none; stroke: #7f7f7f; stroke-width: 0.8; stroke-linecap: square"/>
   </g>
   <g id="text_27">
    <!-- 2022 -->
    <g transform="translate(464.483531 405.565697) scale(0.1 -0.1)">
     <use xlink:href="#DejaVuSans-32"/>
     <use xlink:href="#DejaVuSans-30" transform="translate(63.623047 0)"/>
     <use xlink:href="#DejaVuSans-32" transform="translate(127.246094 0)"/>
     <use xlink:href="#DejaVuSans-32" transform="translate(190.869141 0)"/>
    </g>
   </g>
   <g id="line2d_37">
    <path d="M 436.483531 416.743823 
L 446.483531 416.743823 
L 456.483531 416.743823 
" style="fill: none; stroke-dasharray: 1,1.65; stroke-dashoffset: 0; stroke: #d62728"/>
   </g>
   <g id="text_28">
    <!-- 2023 -->
    <g transform="translate(464.483531 420.243823) scale(0.1 -0.1)">
     <use xlink:href="#DejaVuSans-32"/>
     <use xlink:href="#DejaVuSans-30" transform="translate(63.623047 0)"/>
     <use xlink:href="#DejaVuSans-32" transform="translate(127.246094 0)"/>
     <use xlink:href="#DejaVuSans-33" transform="translate(190.869141 0)"/>
    </g>
   </g>
   <g id="line2d_38">
    <path d="M 436.483531 431.421947 
L 446.483531 431.421947 
L 456.483531 431.421947 
" style="fill: none; stroke: #ff7f0e; stroke-width: 2; stroke-linecap: square"/>
   </g>
   <g id="text_29">
    <!-- 2024 -->
    <g transform="translate(464.483531 434.921947) scale(0.1 -0.1)">
     <use xlink:href="#DejaVuSans-32"/>
     <use xlink:href="#DejaVuSans-30" transform="translate(63.623047 0)"/>
     <use xlink:href="#DejaVuSans-32" transform="translate(127.246094 0)"/>
     <use xlink:href="#DejaVuSans-34" transform="translate(190.869141 0)"/>
    </g>
   </g>
   <g id="line2d_39">
    <path d="M 436.483531 446.100073 
L 446.483531 446.100073 
L 456.483531 446.100073 
" style="fill: none; stroke: #2ca02c; stroke-width: 3; stroke-linecap: square"/>
   </g>
   <g id="text_30">
    <!-- 2025 -->
    <g transform="translate(464.483531 449.600073) scale(0.1 -0.1)">
     <use xlink:href="#DejaVuSans-32"/>
     <use xlink:href="#DejaVuSans-30" transform="translate(63.623047 0)"/>
     <use xlink:href="#DejaVuSans-32" transform="translate(127.246094 0)"/>
     <use xlink:href="#DejaVuSans-35" transform="translate(190.869141 0)"/>
    </g>
   </g>
  </g>
 </g>
 <defs>
  <clipPath id="p0d7e93f8eb">
   <path d="M 387.62175 255.752479 
C 387.62175 232.261093 382.994459 208.998131 374.004695 187.294921 
C 365.014931 165.591711 351.837522 145.870324 335.226604 129.259406 
C 318.615686 112.648488 298.894299 99.471079 277.191089 90.481315 
C 255.487879 81.491551 232.224917 76.86426 208.733531 76.86426 
C 185.242146 76.86426 161.979184 81.491551 140.275974 90.481315 
C 118.572763 99.471079 98.851377 112.648488 82.240459 129.259406 
C 65.629541 145.870324 52.452131 165.591711 43.462367 187.294921 
C 34.472603 208.998131 29.845312 232.261093 29.845312 255.752479 
C 29.845312 279.243864 34.472603 302.506826 43.462367 324.210036 
C 52.452131 345.913247 65.629541 365.634633 82.240459 382.245551 
C 98.851377 398.856469 118.572763 412.033879 140.275974 421.023643 
C 161.979184 430.013407 185.242146 434.640697 208.733531 434.640697 
C 232.224917 434.640697 255.487879 430.013407 277.191089 421.023643 
C 298.894299 412.033879 318.615686 398.856469 335.226604 382.245551 
C 351.837522 365.634633 365.014931 345.913247 374.004695 324.210036 
C 382.994459 302.506826 387.62175 279.243864 387.62175 255.752479 
M 208.733531 255.752479 
C 208.733531 255.752479 208.733531 255.752479 208.733531 255.752479 
C 208.733531 255.752479 208.733531 255.752479 208.733531 255.752479 
C 208.733531 255.752479 208.733531 255.752479 208.733531 255.752479 
C 208.733531 255.752479 208.733531 255.752479 208.733531 255.752479 
C 208.733531 255.752479 208.733531 255.752479 208.733531 255.752479 
C 208.733531 255.752479 208.733531 255.752479 208.733531 255.752479 
C 208.733531 255.752479 208.733531 255.752479 208.733531 255.752479 
C 208.733531 255.752479 208.733531 255.752479 208.733531 255.752479 
C 208.733531 255.752479 208.733531 255.752479 208.733531 255.752479 
C 208.733531 255.752479 208.733531 255.752479 208.733531 255.752479 
C 208.733531 255.752479 208.733531 255.752479 208.733531 255.752479 
C 208.733531 255.752479 208.733531 255.752479 208.733531 255.752479 
C 208.733531 255.752479 208.733531 255.752479 208.733531 255.752479 
C 208.733531 255.752479 208.733531 255.752479 208.733531 255.752479 
C 208.733531 255.752479 208.733531 255.752479 208.733531 255.752479 
C 208.733531 255.752479 208.733531 255.752479 208.733531 255.752479 
z
"/>
  </clipPath>
 </defs>
</svg>
