<?xml version="1.0" encoding="utf-8" standalone="no"?>
<!DOCTYPE svg PUBLIC "-//W3C//DTD SVG 1.1//EN"
  "http://www.w3.org/Graphics/SVG/1.1/DTD/svg11.dtd">
<svg xmlns:xlink="http://www.w3.org/1999/xlink" width="498.934569pt" height="460.67976pt" viewBox="0 0 498.934569 460.67976" xmlns="http://www.w3.org/2000/svg" version="1.1">
 <metadata>
  <rdf:RDF xmlns:dc="http://purl.org/dc/elements/1.1/" xmlns:cc="http://creativecommons.org/ns#" xmlns:rdf="http://www.w3.org/1999/02/22-rdf-syntax-ns#">
   <cc:Work>
    <dc:type rdf:resource="http://purl.org/dc/dcmitype/StillImage"/>
    <dc:date>2022-01-10T13:22:36.846137</dc:date>
    <dc:format>image/svg+xml</dc:format>
    <dc:creator>
     <cc:Agent>
      <dc:title>Matplotlib v3.5.1, https://matplotlib.org/</dc:title>
     </cc:Agent>
    </dc:creator>
   </cc:Work>
  </rdf:RDF>
 </metadata>
 <defs>
  <style type="text/css">*{stroke-linejoin: round; stroke-linecap: butt}</style>
 </defs>
 <g id="figure_1">
  <g id="patch_1">
   <path d="M 0 460.67976 
L 498.934569 460.67976 
L 498.934569 0 
L 0 0 
z
" style="fill: #ffffff"/>
  </g>
  <g id="axes_1">
   <g id="patch_2">
    <path d="M 387.623826 255.751441 
C 387.623826 232.259919 382.996508 208.996822 374.006692 187.293486 
C 365.016876 165.59015 351.83939 145.868649 335.228376 129.257634 
C 318.617361 112.64662 298.89586 99.469134 277.192524 90.479318 
C 255.489188 81.489502 232.226091 76.862184 208.734569 76.862184 
C 185.243047 76.862184 161.979951 81.489502 140.276614 90.479318 
C 118.573278 99.469134 98.851777 112.64662 82.240763 129.257634 
C 65.629748 145.868649 52.452263 165.59015 43.462446 187.293486 
C 34.47263 208.996822 29.845313 232.259919 29.845313 255.751441 
C 29.845313 279.242963 34.47263 302.506059 43.462446 324.209396 
C 52.452263 345.912732 65.629748 365.634233 82.240763 382.245247 
C 98.851777 398.856262 118.573278 412.033747 140.276614 421.023564 
C 161.979951 430.01338 185.243047 434.640697 208.734569 434.640697 
C 232.226091 434.640697 255.489188 430.01338 277.192524 421.023564 
C 298.89586 412.033747 318.617361 398.856262 335.228376 382.245247 
C 351.83939 365.634233 365.016876 345.912732 374.006692 324.209396 
C 382.996508 302.506059 387.623826 279.242963 387.623826 255.751441 
M 208.734569 255.751441 
C 208.734569 255.751441 208.734569 255.751441 208.734569 255.751441 
C 208.734569 255.751441 208.734569 255.751441 208.734569 255.751441 
C 208.734569 255.751441 208.734569 255.751441 208.734569 255.751441 
C 208.734569 255.751441 208.734569 255.751441 208.734569 255.751441 
C 208.734569 255.751441 208.734569 255.751441 208.734569 255.751441 
C 208.734569 255.751441 208.734569 255.751441 208.734569 255.751441 
C 208.734569 255.751441 208.734569 255.751441 208.734569 255.751441 
C 208.734569 255.751441 208.734569 255.751441 208.734569 255.751441 
C 208.734569 255.751441 208.734569 255.751441 208.734569 255.751441 
C 208.734569 255.751441 208.734569 255.751441 208.734569 255.751441 
C 208.734569 255.751441 208.734569 255.751441 208.734569 255.751441 
C 208.734569 255.751441 208.734569 255.751441 208.734569 255.751441 
C 208.734569 255.751441 208.734569 255.751441 208.734569 255.751441 
C 208.734569 255.751441 208.734569 255.751441 208.734569 255.751441 
C 208.734569 255.751441 208.734569 255.751441 208.734569 255.751441 
C 208.734569 255.751441 208.734569 255.751441 208.734569 255.751441 
M 387.623826 255.751441 
z
" style="fill: #ffffff"/>
   </g>
   <g id="matplotlib.axis_1">
    <g id="xtick_1">
     <g id="line2d_1">
      <path d="M 208.734569 255.751441 
L 208.734569 76.862184 
" clip-path="url(#p3ac07975ae)" style="fill: none; stroke: #b0b0b0; stroke-width: 0.8; stroke-linecap: square"/>
     </g>
     <g id="text_1">
      <!-- Jan -->
      <g transform="translate(201.026757 65.621559)scale(0.1 -0.1)">
       <defs>
        <path id="DejaVuSans-4a" d="M 628 4666 
L 1259 4666 
L 1259 325 
Q 1259 -519 939 -900 
Q 619 -1281 -91 -1281 
L -331 -1281 
L -331 -750 
L -134 -750 
Q 284 -750 456 -515 
Q 628 -281 628 325 
L 628 4666 
z
" transform="scale(0.015625)"/>
        <path id="DejaVuSans-61" d="M 2194 1759 
Q 1497 1759 1228 1600 
Q 959 1441 959 1056 
Q 959 750 1161 570 
Q 1363 391 1709 391 
Q 2188 391 2477 730 
Q 2766 1069 2766 1631 
L 2766 1759 
L 2194 1759 
z
M 3341 1997 
L 3341 0 
L 2766 0 
L 2766 531 
Q 2569 213 2275 61 
Q 1981 -91 1556 -91 
Q 1019 -91 701 211 
Q 384 513 384 1019 
Q 384 1609 779 1909 
Q 1175 2209 1959 2209 
L 2766 2209 
L 2766 2266 
Q 2766 2663 2505 2880 
Q 2244 3097 1772 3097 
Q 1472 3097 1187 3025 
Q 903 2953 641 2809 
L 641 3341 
Q 956 3463 1253 3523 
Q 1550 3584 1831 3584 
Q 2591 3584 2966 3190 
Q 3341 2797 3341 1997 
z
" transform="scale(0.015625)"/>
        <path id="DejaVuSans-6e" d="M 3513 2113 
L 3513 0 
L 2938 0 
L 2938 2094 
Q 2938 2591 2744 2837 
Q 2550 3084 2163 3084 
Q 1697 3084 1428 2787 
Q 1159 2491 1159 1978 
L 1159 0 
L 581 0 
L 581 3500 
L 1159 3500 
L 1159 2956 
Q 1366 3272 1645 3428 
Q 1925 3584 2291 3584 
Q 2894 3584 3203 3211 
Q 3513 2838 3513 2113 
z
" transform="scale(0.015625)"/>
       </defs>
       <use xlink:href="#DejaVuSans-4a"/>
       <use xlink:href="#DejaVuSans-61" x="29.492188"/>
       <use xlink:href="#DejaVuSans-6e" x="90.771484"/>
      </g>
     </g>
    </g>
    <g id="xtick_2">
     <g id="line2d_2">
      <path d="M 208.734569 255.751441 
L 298.179198 100.8288 
" clip-path="url(#p3ac07975ae)" style="fill: none; stroke: #b0b0b0; stroke-width: 0.8; stroke-linecap: square"/>
     </g>
     <g id="text_2">
      <!-- Feb -->
      <g transform="translate(296.327635 91.463819)scale(0.1 -0.1)">
       <defs>
        <path id="DejaVuSans-46" d="M 628 4666 
L 3309 4666 
L 3309 4134 
L 1259 4134 
L 1259 2759 
L 3109 2759 
L 3109 2228 
L 1259 2228 
L 1259 0 
L 628 0 
L 628 4666 
z
" transform="scale(0.015625)"/>
        <path id="DejaVuSans-65" d="M 3597 1894 
L 3597 1613 
L 953 1613 
Q 991 1019 1311 708 
Q 1631 397 2203 397 
Q 2534 397 2845 478 
Q 3156 559 3463 722 
L 3463 178 
Q 3153 47 2828 -22 
Q 2503 -91 2169 -91 
Q 1331 -91 842 396 
Q 353 884 353 1716 
Q 353 2575 817 3079 
Q 1281 3584 2069 3584 
Q 2775 3584 3186 3129 
Q 3597 2675 3597 1894 
z
M 3022 2063 
Q 3016 2534 2758 2815 
Q 2500 3097 2075 3097 
Q 1594 3097 1305 2825 
Q 1016 2553 972 2059 
L 3022 2063 
z
" transform="scale(0.015625)"/>
        <path id="DejaVuSans-62" d="M 3116 1747 
Q 3116 2381 2855 2742 
Q 2594 3103 2138 3103 
Q 1681 3103 1420 2742 
Q 1159 2381 1159 1747 
Q 1159 1113 1420 752 
Q 1681 391 2138 391 
Q 2594 391 2855 752 
Q 3116 1113 3116 1747 
z
M 1159 2969 
Q 1341 3281 1617 3432 
Q 1894 3584 2278 3584 
Q 2916 3584 3314 3078 
Q 3713 2572 3713 1747 
Q 3713 922 3314 415 
Q 2916 -91 2278 -91 
Q 1894 -91 1617 61 
Q 1341 213 1159 525 
L 1159 0 
L 581 0 
L 581 4863 
L 1159 4863 
L 1159 2969 
z
" transform="scale(0.015625)"/>
       </defs>
       <use xlink:href="#DejaVuSans-46"/>
       <use xlink:href="#DejaVuSans-65" x="52.019531"/>
       <use xlink:href="#DejaVuSans-62" x="113.542969"/>
      </g>
     </g>
    </g>
    <g id="xtick_3">
     <g id="line2d_3">
      <path d="M 208.734569 255.751441 
L 363.65721 166.306812 
" clip-path="url(#p3ac07975ae)" style="fill: none; stroke: #b0b0b0; stroke-width: 0.8; stroke-linecap: square"/>
     </g>
     <g id="text_3">
      <!-- Mar -->
      <g transform="translate(366.347972 162.066187)scale(0.1 -0.1)">
       <defs>
        <path id="DejaVuSans-4d" d="M 628 4666 
L 1569 4666 
L 2759 1491 
L 3956 4666 
L 4897 4666 
L 4897 0 
L 4281 0 
L 4281 4097 
L 3078 897 
L 2444 897 
L 1241 4097 
L 1241 0 
L 628 0 
L 628 4666 
z
" transform="scale(0.015625)"/>
        <path id="DejaVuSans-72" d="M 2631 2963 
Q 2534 3019 2420 3045 
Q 2306 3072 2169 3072 
Q 1681 3072 1420 2755 
Q 1159 2438 1159 1844 
L 1159 0 
L 581 0 
L 581 3500 
L 1159 3500 
L 1159 2956 
Q 1341 3275 1631 3429 
Q 1922 3584 2338 3584 
Q 2397 3584 2469 3576 
Q 2541 3569 2628 3553 
L 2631 2963 
z
" transform="scale(0.015625)"/>
       </defs>
       <use xlink:href="#DejaVuSans-4d"/>
       <use xlink:href="#DejaVuSans-61" x="86.279297"/>
       <use xlink:href="#DejaVuSans-72" x="147.558594"/>
      </g>
     </g>
    </g>
    <g id="xtick_4">
     <g id="line2d_4">
      <path d="M 208.734569 255.751441 
L 387.623826 255.751441 
" clip-path="url(#p3ac07975ae)" style="fill: none; stroke: #b0b0b0; stroke-width: 0.8; stroke-linecap: square"/>
     </g>
     <g id="text_4">
      <!-- Apr -->
      <g transform="translate(392.973826 258.510816)scale(0.1 -0.1)">
       <defs>
        <path id="DejaVuSans-41" d="M 2188 4044 
L 1331 1722 
L 3047 1722 
L 2188 4044 
z
M 1831 4666 
L 2547 4666 
L 4325 0 
L 3669 0 
L 3244 1197 
L 1141 1197 
L 716 0 
L 50 0 
L 1831 4666 
z
" transform="scale(0.015625)"/>
        <path id="DejaVuSans-70" d="M 1159 525 
L 1159 -1331 
L 581 -1331 
L 581 3500 
L 1159 3500 
L 1159 2969 
Q 1341 3281 1617 3432 
Q 1894 3584 2278 3584 
Q 2916 3584 3314 3078 
Q 3713 2572 3713 1747 
Q 3713 922 3314 415 
Q 2916 -91 2278 -91 
Q 1894 -91 1617 61 
Q 1341 213 1159 525 
z
M 3116 1747 
Q 3116 2381 2855 2742 
Q 2594 3103 2138 3103 
Q 1681 3103 1420 2742 
Q 1159 2381 1159 1747 
Q 1159 1113 1420 752 
Q 1681 391 2138 391 
Q 2594 391 2855 752 
Q 3116 1113 3116 1747 
z
" transform="scale(0.015625)"/>
       </defs>
       <use xlink:href="#DejaVuSans-41"/>
       <use xlink:href="#DejaVuSans-70" x="68.408203"/>
       <use xlink:href="#DejaVuSans-72" x="131.884766"/>
      </g>
     </g>
    </g>
    <g id="xtick_5">
     <g id="line2d_5">
      <path d="M 208.734569 255.751441 
L 363.65721 345.196069 
" clip-path="url(#p3ac07975ae)" style="fill: none; stroke: #b0b0b0; stroke-width: 0.8; stroke-linecap: square"/>
     </g>
     <g id="text_5">
      <!-- May -->
      <g transform="translate(365.444066 354.955444)scale(0.1 -0.1)">
       <defs>
        <path id="DejaVuSans-79" d="M 2059 -325 
Q 1816 -950 1584 -1140 
Q 1353 -1331 966 -1331 
L 506 -1331 
L 506 -850 
L 844 -850 
Q 1081 -850 1212 -737 
Q 1344 -625 1503 -206 
L 1606 56 
L 191 3500 
L 800 3500 
L 1894 763 
L 2988 3500 
L 3597 3500 
L 2059 -325 
z
" transform="scale(0.015625)"/>
       </defs>
       <use xlink:href="#DejaVuSans-4d"/>
       <use xlink:href="#DejaVuSans-61" x="86.279297"/>
       <use xlink:href="#DejaVuSans-79" x="147.558594"/>
      </g>
     </g>
    </g>
    <g id="xtick_6">
     <g id="line2d_6">
      <path d="M 208.734569 255.751441 
L 298.179198 410.674082 
" clip-path="url(#p3ac07975ae)" style="fill: none; stroke: #b0b0b0; stroke-width: 0.8; stroke-linecap: square"/>
     </g>
     <g id="text_6">
      <!-- Jun -->
      <g transform="translate(297.366698 425.557812)scale(0.1 -0.1)">
       <defs>
        <path id="DejaVuSans-75" d="M 544 1381 
L 544 3500 
L 1119 3500 
L 1119 1403 
Q 1119 906 1312 657 
Q 1506 409 1894 409 
Q 2359 409 2629 706 
Q 2900 1003 2900 1516 
L 2900 3500 
L 3475 3500 
L 3475 0 
L 2900 0 
L 2900 538 
Q 2691 219 2414 64 
Q 2138 -91 1772 -91 
Q 1169 -91 856 284 
Q 544 659 544 1381 
z
M 1991 3584 
L 1991 3584 
z
" transform="scale(0.015625)"/>
       </defs>
       <use xlink:href="#DejaVuSans-4a"/>
       <use xlink:href="#DejaVuSans-75" x="29.492188"/>
       <use xlink:href="#DejaVuSans-6e" x="92.871094"/>
      </g>
     </g>
    </g>
    <g id="xtick_7">
     <g id="line2d_7">
      <path d="M 208.734569 255.751441 
L 208.734569 434.640697 
" clip-path="url(#p3ac07975ae)" style="fill: none; stroke: #b0b0b0; stroke-width: 0.8; stroke-linecap: square"/>
     </g>
     <g id="text_7">
      <!-- Jul -->
      <g transform="translate(202.701757 451.400072)scale(0.1 -0.1)">
       <defs>
        <path id="DejaVuSans-6c" d="M 603 4863 
L 1178 4863 
L 1178 0 
L 603 0 
L 603 4863 
z
" transform="scale(0.015625)"/>
       </defs>
       <use xlink:href="#DejaVuSans-4a"/>
       <use xlink:href="#DejaVuSans-75" x="29.492188"/>
       <use xlink:href="#DejaVuSans-6c" x="92.871094"/>
      </g>
     </g>
    </g>
    <g id="xtick_8">
     <g id="line2d_8">
      <path d="M 208.734569 255.751441 
L 119.289941 410.674082 
" clip-path="url(#p3ac07975ae)" style="fill: none; stroke: #b0b0b0; stroke-width: 0.8; stroke-linecap: square"/>
     </g>
     <g id="text_8">
      <!-- Aug -->
      <g transform="translate(102.52666 425.557812)scale(0.1 -0.1)">
       <defs>
        <path id="DejaVuSans-67" d="M 2906 1791 
Q 2906 2416 2648 2759 
Q 2391 3103 1925 3103 
Q 1463 3103 1205 2759 
Q 947 2416 947 1791 
Q 947 1169 1205 825 
Q 1463 481 1925 481 
Q 2391 481 2648 825 
Q 2906 1169 2906 1791 
z
M 3481 434 
Q 3481 -459 3084 -895 
Q 2688 -1331 1869 -1331 
Q 1566 -1331 1297 -1286 
Q 1028 -1241 775 -1147 
L 775 -588 
Q 1028 -725 1275 -790 
Q 1522 -856 1778 -856 
Q 2344 -856 2625 -561 
Q 2906 -266 2906 331 
L 2906 616 
Q 2728 306 2450 153 
Q 2172 0 1784 0 
Q 1141 0 747 490 
Q 353 981 353 1791 
Q 353 2603 747 3093 
Q 1141 3584 1784 3584 
Q 2172 3584 2450 3431 
Q 2728 3278 2906 2969 
L 2906 3500 
L 3481 3500 
L 3481 434 
z
" transform="scale(0.015625)"/>
       </defs>
       <use xlink:href="#DejaVuSans-41"/>
       <use xlink:href="#DejaVuSans-75" x="68.408203"/>
       <use xlink:href="#DejaVuSans-67" x="131.787109"/>
      </g>
     </g>
    </g>
    <g id="xtick_9">
     <g id="line2d_9">
      <path d="M 208.734569 255.751441 
L 53.811928 345.196069 
" clip-path="url(#p3ac07975ae)" style="fill: none; stroke: #b0b0b0; stroke-width: 0.8; stroke-linecap: square"/>
     </g>
     <g id="text_9">
      <!-- Sept -->
      <g transform="translate(30.302417 354.955444)scale(0.1 -0.1)">
       <defs>
        <path id="DejaVuSans-53" d="M 3425 4513 
L 3425 3897 
Q 3066 4069 2747 4153 
Q 2428 4238 2131 4238 
Q 1616 4238 1336 4038 
Q 1056 3838 1056 3469 
Q 1056 3159 1242 3001 
Q 1428 2844 1947 2747 
L 2328 2669 
Q 3034 2534 3370 2195 
Q 3706 1856 3706 1288 
Q 3706 609 3251 259 
Q 2797 -91 1919 -91 
Q 1588 -91 1214 -16 
Q 841 59 441 206 
L 441 856 
Q 825 641 1194 531 
Q 1563 422 1919 422 
Q 2459 422 2753 634 
Q 3047 847 3047 1241 
Q 3047 1584 2836 1778 
Q 2625 1972 2144 2069 
L 1759 2144 
Q 1053 2284 737 2584 
Q 422 2884 422 3419 
Q 422 4038 858 4394 
Q 1294 4750 2059 4750 
Q 2388 4750 2728 4690 
Q 3069 4631 3425 4513 
z
" transform="scale(0.015625)"/>
        <path id="DejaVuSans-74" d="M 1172 4494 
L 1172 3500 
L 2356 3500 
L 2356 3053 
L 1172 3053 
L 1172 1153 
Q 1172 725 1289 603 
Q 1406 481 1766 481 
L 2356 481 
L 2356 0 
L 1766 0 
Q 1100 0 847 248 
Q 594 497 594 1153 
L 594 3053 
L 172 3053 
L 172 3500 
L 594 3500 
L 594 4494 
L 1172 4494 
z
" transform="scale(0.015625)"/>
       </defs>
       <use xlink:href="#DejaVuSans-53"/>
       <use xlink:href="#DejaVuSans-65" x="63.476562"/>
       <use xlink:href="#DejaVuSans-70" x="125"/>
       <use xlink:href="#DejaVuSans-74" x="188.476562"/>
      </g>
     </g>
    </g>
    <g id="xtick_10">
     <g id="line2d_10">
      <path d="M 208.734569 255.751441 
L 29.845313 255.751441 
" clip-path="url(#p3ac07975ae)" style="fill: none; stroke: #b0b0b0; stroke-width: 0.8; stroke-linecap: square"/>
     </g>
     <g id="text_10">
      <!-- Oct -->
      <g transform="translate(7.2 258.510816)scale(0.1 -0.1)">
       <defs>
        <path id="DejaVuSans-4f" d="M 2522 4238 
Q 1834 4238 1429 3725 
Q 1025 3213 1025 2328 
Q 1025 1447 1429 934 
Q 1834 422 2522 422 
Q 3209 422 3611 934 
Q 4013 1447 4013 2328 
Q 4013 3213 3611 3725 
Q 3209 4238 2522 4238 
z
M 2522 4750 
Q 3503 4750 4090 4092 
Q 4678 3434 4678 2328 
Q 4678 1225 4090 567 
Q 3503 -91 2522 -91 
Q 1538 -91 948 565 
Q 359 1222 359 2328 
Q 359 3434 948 4092 
Q 1538 4750 2522 4750 
z
" transform="scale(0.015625)"/>
        <path id="DejaVuSans-63" d="M 3122 3366 
L 3122 2828 
Q 2878 2963 2633 3030 
Q 2388 3097 2138 3097 
Q 1578 3097 1268 2742 
Q 959 2388 959 1747 
Q 959 1106 1268 751 
Q 1578 397 2138 397 
Q 2388 397 2633 464 
Q 2878 531 3122 666 
L 3122 134 
Q 2881 22 2623 -34 
Q 2366 -91 2075 -91 
Q 1284 -91 818 406 
Q 353 903 353 1747 
Q 353 2603 823 3093 
Q 1294 3584 2113 3584 
Q 2378 3584 2631 3529 
Q 2884 3475 3122 3366 
z
" transform="scale(0.015625)"/>
       </defs>
       <use xlink:href="#DejaVuSans-4f"/>
       <use xlink:href="#DejaVuSans-63" x="78.710938"/>
       <use xlink:href="#DejaVuSans-74" x="133.691406"/>
      </g>
     </g>
    </g>
    <g id="xtick_11">
     <g id="line2d_11">
      <path d="M 208.734569 255.751441 
L 53.811928 166.306812 
" clip-path="url(#p3ac07975ae)" style="fill: none; stroke: #b0b0b0; stroke-width: 0.8; stroke-linecap: square"/>
     </g>
     <g id="text_11">
      <!-- Nov -->
      <g transform="translate(31.928198 162.066187)scale(0.1 -0.1)">
       <defs>
        <path id="DejaVuSans-4e" d="M 628 4666 
L 1478 4666 
L 3547 763 
L 3547 4666 
L 4159 4666 
L 4159 0 
L 3309 0 
L 1241 3903 
L 1241 0 
L 628 0 
L 628 4666 
z
" transform="scale(0.015625)"/>
        <path id="DejaVuSans-6f" d="M 1959 3097 
Q 1497 3097 1228 2736 
Q 959 2375 959 1747 
Q 959 1119 1226 758 
Q 1494 397 1959 397 
Q 2419 397 2687 759 
Q 2956 1122 2956 1747 
Q 2956 2369 2687 2733 
Q 2419 3097 1959 3097 
z
M 1959 3584 
Q 2709 3584 3137 3096 
Q 3566 2609 3566 1747 
Q 3566 888 3137 398 
Q 2709 -91 1959 -91 
Q 1206 -91 779 398 
Q 353 888 353 1747 
Q 353 2609 779 3096 
Q 1206 3584 1959 3584 
z
" transform="scale(0.015625)"/>
        <path id="DejaVuSans-76" d="M 191 3500 
L 800 3500 
L 1894 563 
L 2988 3500 
L 3597 3500 
L 2284 0 
L 1503 0 
L 191 3500 
z
" transform="scale(0.015625)"/>
       </defs>
       <use xlink:href="#DejaVuSans-4e"/>
       <use xlink:href="#DejaVuSans-6f" x="74.804688"/>
       <use xlink:href="#DejaVuSans-76" x="135.986328"/>
      </g>
     </g>
    </g>
    <g id="xtick_12">
     <g id="line2d_12">
      <path d="M 208.734569 255.751441 
L 119.289941 100.8288 
" clip-path="url(#p3ac07975ae)" style="fill: none; stroke: #b0b0b0; stroke-width: 0.8; stroke-linecap: square"/>
     </g>
     <g id="text_12">
      <!-- Dec -->
      <g transform="translate(102.61416 91.463819)scale(0.1 -0.1)">
       <defs>
        <path id="DejaVuSans-44" d="M 1259 4147 
L 1259 519 
L 2022 519 
Q 2988 519 3436 956 
Q 3884 1394 3884 2338 
Q 3884 3275 3436 3711 
Q 2988 4147 2022 4147 
L 1259 4147 
z
M 628 4666 
L 1925 4666 
Q 3281 4666 3915 4102 
Q 4550 3538 4550 2338 
Q 4550 1131 3912 565 
Q 3275 0 1925 0 
L 628 0 
L 628 4666 
z
" transform="scale(0.015625)"/>
       </defs>
       <use xlink:href="#DejaVuSans-44"/>
       <use xlink:href="#DejaVuSans-65" x="77.001953"/>
       <use xlink:href="#DejaVuSans-63" x="138.525391"/>
      </g>
     </g>
    </g>
   </g>
   <g id="matplotlib.axis_2">
    <g id="ytick_1">
     <g id="line2d_13">
      <path d="M 208.734569 221.505742 
C 213.231673 221.505742 217.685048 222.391573 221.839831 224.112541 
C 225.994613 225.833508 229.770002 228.356142 232.949935 231.536075 
C 236.129868 234.716008 238.652502 238.491397 240.373469 242.646179 
C 242.094437 246.800962 242.980268 251.254337 242.980268 255.751441 
C 242.980268 260.248545 242.094437 264.70192 240.373469 268.856702 
C 238.652502 273.011485 236.129868 276.786874 232.949935 279.966807 
C 229.770002 283.146739 225.994613 285.669374 221.839831 287.390341 
C 217.685048 289.111308 213.231673 289.99714 208.734569 289.99714 
C 204.237465 289.99714 199.78409 289.111308 195.629308 287.390341 
C 191.474525 285.669374 187.699136 283.146739 184.519203 279.966807 
C 181.339271 276.786874 178.816636 273.011485 177.095669 268.856702 
C 175.374702 264.70192 174.48887 260.248545 174.48887 255.751441 
C 174.48887 251.254337 175.374702 246.800962 177.095669 242.646179 
C 178.816636 238.491397 181.339271 234.716008 184.519203 231.536075 
C 187.699136 228.356142 191.474525 225.833508 195.629308 224.112541 
C 199.78409 222.391573 204.237465 221.505742 208.734569 221.505742 
" clip-path="url(#p3ac07975ae)" style="fill: none; stroke: #b0b0b0; stroke-width: 0.8; stroke-linecap: square"/>
     </g>
     <g id="text_13">
      <!-- 1000 -->
      <g transform="translate(208.734569 287.917452)scale(0.1 -0.1)">
       <defs>
        <path id="DejaVuSans-31" d="M 794 531 
L 1825 531 
L 1825 4091 
L 703 3866 
L 703 4441 
L 1819 4666 
L 2450 4666 
L 2450 531 
L 3481 531 
L 3481 0 
L 794 0 
L 794 531 
z
" transform="scale(0.015625)"/>
        <path id="DejaVuSans-30" d="M 2034 4250 
Q 1547 4250 1301 3770 
Q 1056 3291 1056 2328 
Q 1056 1369 1301 889 
Q 1547 409 2034 409 
Q 2525 409 2770 889 
Q 3016 1369 3016 2328 
Q 3016 3291 2770 3770 
Q 2525 4250 2034 4250 
z
M 2034 4750 
Q 2819 4750 3233 4129 
Q 3647 3509 3647 2328 
Q 3647 1150 3233 529 
Q 2819 -91 2034 -91 
Q 1250 -91 836 529 
Q 422 1150 422 2328 
Q 422 3509 836 4129 
Q 1250 4750 2034 4750 
z
" transform="scale(0.015625)"/>
       </defs>
       <use xlink:href="#DejaVuSans-31"/>
       <use xlink:href="#DejaVuSans-30" x="63.623047"/>
       <use xlink:href="#DejaVuSans-30" x="127.246094"/>
       <use xlink:href="#DejaVuSans-30" x="190.869141"/>
      </g>
     </g>
    </g>
    <g id="ytick_2">
     <g id="line2d_14">
      <path d="M 208.734569 187.260043 
C 217.728777 187.260043 226.635528 189.031706 234.945092 192.47364 
C 243.254657 195.915575 250.805435 200.960844 257.165301 207.320709 
C 263.525166 213.680575 268.570435 221.231353 272.01237 229.540918 
C 275.454304 237.850482 277.225967 246.757233 277.225967 255.751441 
C 277.225967 264.745649 275.454304 273.652399 272.01237 281.961964 
C 268.570435 290.271529 263.525166 297.822307 257.165301 304.182172 
C 250.805435 310.542038 243.254657 315.587307 234.945092 319.029241 
C 226.635528 322.471176 217.728777 324.242838 208.734569 324.242838 
C 199.740361 324.242838 190.833611 322.471176 182.524046 319.029241 
C 174.214481 315.587307 166.663703 310.542038 160.303838 304.182172 
C 153.943972 297.822307 148.898703 290.271529 145.456769 281.961964 
C 142.014834 273.652399 140.243172 264.745649 140.243172 255.751441 
C 140.243172 246.757233 142.014834 237.850482 145.456769 229.540918 
C 148.898703 221.231353 153.943972 213.680575 160.303838 207.320709 
C 166.663703 200.960844 174.214481 195.915575 182.524046 192.47364 
C 190.833611 189.031706 199.740361 187.260043 208.734569 187.260043 
" clip-path="url(#p3ac07975ae)" style="fill: none; stroke: #b0b0b0; stroke-width: 0.8; stroke-linecap: square"/>
     </g>
     <g id="text_14">
      <!-- 2000 -->
      <g transform="translate(208.734569 322.163151)scale(0.1 -0.1)">
       <defs>
        <path id="DejaVuSans-32" d="M 1228 531 
L 3431 531 
L 3431 0 
L 469 0 
L 469 531 
Q 828 903 1448 1529 
Q 2069 2156 2228 2338 
Q 2531 2678 2651 2914 
Q 2772 3150 2772 3378 
Q 2772 3750 2511 3984 
Q 2250 4219 1831 4219 
Q 1534 4219 1204 4116 
Q 875 4013 500 3803 
L 500 4441 
Q 881 4594 1212 4672 
Q 1544 4750 1819 4750 
Q 2544 4750 2975 4387 
Q 3406 4025 3406 3419 
Q 3406 3131 3298 2873 
Q 3191 2616 2906 2266 
Q 2828 2175 2409 1742 
Q 1991 1309 1228 531 
z
" transform="scale(0.015625)"/>
       </defs>
       <use xlink:href="#DejaVuSans-32"/>
       <use xlink:href="#DejaVuSans-30" x="63.623047"/>
       <use xlink:href="#DejaVuSans-30" x="127.246094"/>
       <use xlink:href="#DejaVuSans-30" x="190.869141"/>
      </g>
     </g>
    </g>
    <g id="ytick_3">
     <g id="line2d_15">
      <path d="M 208.734569 153.014344 
C 222.225881 153.014344 235.586007 155.671839 248.050354 160.83474 
C 260.514701 165.997642 271.840869 173.565545 281.380667 183.105343 
C 290.920465 192.645141 298.488368 203.971309 303.65127 216.435656 
C 308.814171 228.900003 311.471666 242.260129 311.471666 255.751441 
C 311.471666 269.242753 308.814171 282.602879 303.65127 295.067225 
C 298.488368 307.531572 290.920465 318.85774 281.380667 328.397538 
C 271.840869 337.937336 260.514701 345.50524 248.050354 350.668141 
C 235.586007 355.831043 222.225881 358.488537 208.734569 358.488537 
C 195.243257 358.488537 181.883131 355.831043 169.418785 350.668141 
C 156.954438 345.50524 145.62827 337.937336 136.088472 328.397538 
C 126.548674 318.85774 118.98077 307.531572 113.817869 295.067225 
C 108.654967 282.602879 105.997473 269.242753 105.997473 255.751441 
C 105.997473 242.260129 108.654967 228.900003 113.817869 216.435656 
C 118.98077 203.971309 126.548674 192.645141 136.088472 183.105343 
C 145.62827 173.565545 156.954438 165.997642 169.418785 160.83474 
C 181.883131 155.671839 195.243257 153.014344 208.734569 153.014344 
" clip-path="url(#p3ac07975ae)" style="fill: none; stroke: #b0b0b0; stroke-width: 0.8; stroke-linecap: square"/>
     </g>
     <g id="text_15">
      <!-- 3000 -->
      <g transform="translate(208.734569 356.40885)scale(0.1 -0.1)">
       <defs>
        <path id="DejaVuSans-33" d="M 2597 2516 
Q 3050 2419 3304 2112 
Q 3559 1806 3559 1356 
Q 3559 666 3084 287 
Q 2609 -91 1734 -91 
Q 1441 -91 1130 -33 
Q 819 25 488 141 
L 488 750 
Q 750 597 1062 519 
Q 1375 441 1716 441 
Q 2309 441 2620 675 
Q 2931 909 2931 1356 
Q 2931 1769 2642 2001 
Q 2353 2234 1838 2234 
L 1294 2234 
L 1294 2753 
L 1863 2753 
Q 2328 2753 2575 2939 
Q 2822 3125 2822 3475 
Q 2822 3834 2567 4026 
Q 2313 4219 1838 4219 
Q 1578 4219 1281 4162 
Q 984 4106 628 3988 
L 628 4550 
Q 988 4650 1302 4700 
Q 1616 4750 1894 4750 
Q 2613 4750 3031 4423 
Q 3450 4097 3450 3541 
Q 3450 3153 3228 2886 
Q 3006 2619 2597 2516 
z
" transform="scale(0.015625)"/>
       </defs>
       <use xlink:href="#DejaVuSans-33"/>
       <use xlink:href="#DejaVuSans-30" x="63.623047"/>
       <use xlink:href="#DejaVuSans-30" x="127.246094"/>
       <use xlink:href="#DejaVuSans-30" x="190.869141"/>
      </g>
     </g>
    </g>
    <g id="ytick_4">
     <g id="line2d_16">
      <path d="M 208.734569 118.768646 
C 226.722985 118.768646 244.536486 122.311971 261.155615 129.19584 
C 277.774745 136.079709 292.876302 146.170247 305.596033 158.889977 
C 318.315763 171.609708 328.406301 186.711265 335.29017 203.330395 
C 342.174039 219.949524 345.717364 237.763025 345.717364 255.751441 
C 345.717364 273.739857 342.174039 291.553358 335.29017 308.172487 
C 328.406301 324.791616 318.315763 339.893173 305.596033 352.612904 
C 292.876302 365.332635 277.774745 375.423173 261.155615 382.307042 
C 244.536486 389.19091 226.722985 392.734236 208.734569 392.734236 
C 190.746153 392.734236 172.932652 389.19091 156.313523 382.307042 
C 139.694394 375.423173 124.592837 365.332635 111.873106 352.612904 
C 99.153375 339.893173 89.062837 324.791616 82.178968 308.172487 
C 75.2951 291.553358 71.751774 273.739857 71.751774 255.751441 
C 71.751774 237.763025 75.2951 219.949524 82.178968 203.330395 
C 89.062837 186.711265 99.153375 171.609708 111.873106 158.889977 
C 124.592837 146.170247 139.694394 136.079709 156.313523 129.19584 
C 172.932652 122.311971 190.746153 118.768646 208.734569 118.768646 
" clip-path="url(#p3ac07975ae)" style="fill: none; stroke: #b0b0b0; stroke-width: 0.8; stroke-linecap: square"/>
     </g>
     <g id="text_16">
      <!-- 4000 -->
      <g transform="translate(208.734569 390.654548)scale(0.1 -0.1)">
       <defs>
        <path id="DejaVuSans-34" d="M 2419 4116 
L 825 1625 
L 2419 1625 
L 2419 4116 
z
M 2253 4666 
L 3047 4666 
L 3047 1625 
L 3713 1625 
L 3713 1100 
L 3047 1100 
L 3047 0 
L 2419 0 
L 2419 1100 
L 313 1100 
L 313 1709 
L 2253 4666 
z
" transform="scale(0.015625)"/>
       </defs>
       <use xlink:href="#DejaVuSans-34"/>
       <use xlink:href="#DejaVuSans-30" x="63.623047"/>
       <use xlink:href="#DejaVuSans-30" x="127.246094"/>
       <use xlink:href="#DejaVuSans-30" x="190.869141"/>
      </g>
     </g>
    </g>
    <g id="ytick_5">
     <g id="line2d_17">
      <path d="M 208.734569 84.522947 
C 231.220089 84.522947 253.486965 88.952104 274.260877 97.55694 
C 295.034788 106.161776 313.911735 118.774948 329.811398 134.674612 
C 345.711062 150.574275 358.324234 169.451222 366.92907 190.225133 
C 375.533906 210.999045 379.963063 233.265921 379.963063 255.751441 
C 379.963063 278.236961 375.533906 300.503837 366.92907 321.277749 
C 358.324234 342.05166 345.711062 360.928606 329.811398 376.82827 
C 313.911735 392.727933 295.034788 405.341106 274.260877 413.945942 
C 253.486965 422.550778 231.220089 426.979935 208.734569 426.979935 
C 186.249049 426.979935 163.982173 422.550778 143.208261 413.945942 
C 122.43435 405.341106 103.557404 392.727933 87.65774 376.82827 
C 71.758077 360.928606 59.144904 342.05166 50.540068 321.277749 
C 41.935232 300.503837 37.506075 278.236961 37.506075 255.751441 
C 37.506075 233.265921 41.935232 210.999045 50.540068 190.225133 
C 59.144904 169.451222 71.758077 150.574275 87.65774 134.674612 
C 103.557404 118.774948 122.43435 106.161776 143.208261 97.55694 
C 163.982173 88.952104 186.249049 84.522947 208.734569 84.522947 
" clip-path="url(#p3ac07975ae)" style="fill: none; stroke: #b0b0b0; stroke-width: 0.8; stroke-linecap: square"/>
     </g>
     <g id="text_17">
      <!-- 5000 -->
      <g transform="translate(208.734569 424.900247)scale(0.1 -0.1)">
       <defs>
        <path id="DejaVuSans-35" d="M 691 4666 
L 3169 4666 
L 3169 4134 
L 1269 4134 
L 1269 2991 
Q 1406 3038 1543 3061 
Q 1681 3084 1819 3084 
Q 2600 3084 3056 2656 
Q 3513 2228 3513 1497 
Q 3513 744 3044 326 
Q 2575 -91 1722 -91 
Q 1428 -91 1123 -41 
Q 819 9 494 109 
L 494 744 
Q 775 591 1075 516 
Q 1375 441 1709 441 
Q 2250 441 2565 725 
Q 2881 1009 2881 1497 
Q 2881 1984 2565 2268 
Q 2250 2553 1709 2553 
Q 1456 2553 1204 2497 
Q 953 2441 691 2322 
L 691 4666 
z
" transform="scale(0.015625)"/>
       </defs>
       <use xlink:href="#DejaVuSans-35"/>
       <use xlink:href="#DejaVuSans-30" x="63.623047"/>
       <use xlink:href="#DejaVuSans-30" x="127.246094"/>
       <use xlink:href="#DejaVuSans-30" x="190.869141"/>
      </g>
     </g>
    </g>
   </g>
   <g id="line2d_18">
    <path d="M 208.734569 155.856737 
L 220.371015 159.916691 
L 230.239646 168.501916 
L 240.551043 171.858295 
L 252.150061 173.030132 
L 260.773415 180.360157 
L 268.255117 188.566631 
L 276.688378 195.54962 
L 284.435873 203.498603 
L 291.031355 212.558756 
L 296.053885 222.635592 
L 298.04563 233.738241 
L 301.849638 244.445224 
L 297.49942 255.751441 
L 298.891985 266.698533 
L 298.311634 277.830204 
L 291.699127 287.215747 
L 285.846112 296.2227 
L 282.181181 306.447976 
L 274.12505 313.682352 
L 266.461098 320.911222 
L 256.921568 325.562361 
L 248.187283 330.922307 
L 238.960219 335.449929 
L 228.510388 335.985093 
L 219.198702 341.931324 
L 208.734569 345.6464 
L 198.36125 341.183412 
L 189.384918 334.256063 
L 179.213254 333.592753 
L 169.170452 331.134569 
L 162.901477 322.152138 
L 153.892096 317.655797 
L 147.701745 309.821805 
L 139.459139 303.568818 
L 132.320457 295.856661 
L 132.526292 284.653428 
L 127.370397 275.805908 
L 120.582918 266.454989 
L 124.01071 255.751441 
L 122.486694 245.279053 
L 123.912337 234.844638 
L 123.624653 223.473507 
L 128.28749 213.529557 
L 136.38712 205.813602 
L 139.75543 194.641256 
L 146.511638 185.516271 
L 154.614169 177.344505 
L 164.396021 171.271395 
L 173.335707 162.412311 
L 185.680537 162.217556 
L 197.077485 159.746711 
L 208.734569 155.411543 
" clip-path="url(#p3ac07975ae)" style="fill: none; stroke-dasharray: 0.5,0.825; stroke-dashoffset: 0; stroke: #1f77b4; stroke-width: 0.5"/>
   </g>
   <g id="line2d_19">
    <path d="M 208.734569 155.411543 
L 220.181133 161.480508 
L 231.559126 163.148573 
L 242.603327 166.446867 
L 253.534646 170.392026 
L 267.75732 170.242224 
L 278.882975 176.570259 
L 286.531555 186.829326 
L 295.004745 196.203438 
L 298.21792 208.786955 
L 301.305212 220.644027 
L 302.401456 232.664627 
L 303.685423 244.22232 
L 304.793754 255.751441 
L 302.461566 267.131959 
L 301.370688 278.584193 
L 297.526818 289.425899 
L 287.847434 297.273075 
L 283.505813 307.362304 
L 273.766184 313.364424 
L 270.662282 325.653378 
L 258.497324 327.845237 
L 249.874249 334.136552 
L 239.798134 337.659329 
L 229.829869 341.338436 
L 219.306026 342.81522 
L 208.734569 346.12584 
L 198.621305 339.041663 
L 188.88499 336.284348 
L 177.658861 337.691349 
L 170.984735 327.67774 
L 162.843116 322.236689 
L 150.871785 321.065022 
L 143.779854 313.296297 
L 141.939301 301.856886 
L 131.713996 296.174956 
L 129.516385 285.794935 
L 129.265681 275.338763 
L 118.985105 266.648999 
L 122.332671 255.751441 
L 117.591269 244.684641 
L 120.08852 233.902152 
L 127.979411 225.125049 
L 128.499752 213.64096 
L 132.892347 203.401334 
L 138.781366 193.77831 
L 146.806857 185.849504 
L 155.606312 178.781872 
L 164.618827 171.695918 
L 173.384281 162.540392 
L 185.295347 160.654779 
L 196.338597 153.661426 
L 208.734569 154.829367 
" clip-path="url(#p3ac07975ae)" style="fill: none; stroke-dasharray: 0.5,0.825; stroke-dashoffset: 0; stroke: #ff7f0e; stroke-width: 0.5"/>
   </g>
   <g id="line2d_20">
    <path d="M 208.734569 154.829367 
L 221.275017 152.471565 
L 233.411317 155.633941 
L 246.161428 157.064924 
L 259.534514 158.960232 
L 269.877782 167.170205 
L 277.611266 178.005722 
L 291.043011 182.832525 
L 298.076764 194.082977 
L 308.588407 203.344104 
L 306.044214 218.84676 
L 309.749834 230.853414 
L 313.000329 243.091285 
L 310.581277 255.751441 
L 312.728361 268.378573 
L 303.79798 279.182467 
L 296.053885 288.867289 
L 286.361604 296.493251 
L 283.477629 307.34285 
L 274.637716 314.136534 
L 265.484607 319.808992 
L 259.333836 329.057134 
L 249.746931 333.893967 
L 239.069512 335.738112 
L 229.543025 340.174666 
L 219.025331 340.503491 
L 208.734569 342.495796 
L 198.575899 339.415619 
L 188.344085 338.478886 
L 175.655152 342.974696 
L 169.170452 331.134569 
L 162.259503 323.082199 
L 153.27895 318.347895 
L 147.163446 310.298696 
L 140.079179 303.140835 
L 133.624349 295.172326 
L 134.735691 283.815513 
L 125.674618 276.22388 
L 128.198024 265.530348 
L 120.517649 255.751441 
L 120.208962 245.002486 
L 124.178342 234.910203 
L 122.952227 223.21849 
L 133.866933 216.457874 
L 138.190874 207.058644 
L 142.831423 197.366348 
L 150.485731 190.002094 
L 155.372867 178.443668 
L 167.387997 176.97213 
L 177.282407 172.818904 
L 185.893621 163.082072 
L 197.370563 162.160428 
L 208.734569 161.027838 
" clip-path="url(#p3ac07975ae)" style="fill: none; stroke-dasharray: 0.5,0.825; stroke-dashoffset: 0; stroke: #2ca02c; stroke-width: 0.5"/>
   </g>
   <g id="line2d_21">
    <path d="M 208.734569 161.027838 
L 220.371015 159.916691 
L 231.190327 164.644849 
L 241.643975 168.97647 
L 251.831766 173.636593 
L 264.275095 175.287098 
L 272.229209 184.080808 
L 279.302971 193.233292 
L 285.196832 202.973351 
L 292.517185 211.778932 
L 297.430758 222.113414 
L 297.247616 233.934934 
L 300.183834 244.64749 
L 301.437676 255.751441 
L 296.852225 266.450861 
L 295.485335 277.133584 
L 292.307512 287.446477 
L 285.391266 295.983979 
L 282.519385 306.681422 
L 275.893746 315.24928 
L 266.847153 321.346988 
L 257.582996 326.520605 
L 248.505579 331.528769 
L 238.219454 333.496692 
L 228.748059 336.94936 
L 218.984053 340.163531 
L 208.734569 346.60528 
L 198.13009 343.087188 
L 185.713319 349.152323 
L 176.444492 340.893378 
L 168.93173 331.589415 
L 159.321983 327.337931 
L 153.710423 317.860863 
L 145.215317 312.024588 
L 133.258734 307.848648 
L 128.984921 297.607285 
L 127.755269 286.462838 
L 122.482562 277.010651 
L 124.322479 266.000924 
L 118.36017 255.751441 
L 119.835005 244.957079 
L 120.753532 234.066063 
L 126.6986 224.639302 
L 128.469428 213.625045 
L 134.047877 204.198939 
L 137.499702 192.642855 
L 145.671402 184.56784 
L 154.614169 177.344505 
L 163.09101 168.784904 
L 171.125555 156.584619 
L 183.090749 151.710373 
L 196.507839 155.055262 
L 208.734569 144.281691 
" clip-path="url(#p3ac07975ae)" style="fill: none; stroke-dasharray: 0.5,0.825; stroke-dashoffset: 0; stroke: #d62728; stroke-width: 0.5"/>
   </g>
   <g id="line2d_22">
    <path d="M 208.734569 144.281691 
L 222.62321 139.147159 
L 235.898606 143.339202 
L 248.71711 148.111452 
L 260.682634 154.540303 
L 271.332015 162.814936 
L 282.756443 169.859128 
L 294.16438 177.598731 
L 297.966717 191.725162 
L 305.362849 202.480322 
L 306.66919 216.033145 
L 309.556228 228.201871 
L 313.190797 240.157936 
L 305.915411 252.870384 
L 307.24547 264.533495 
L 305.682907 276.158321 
L 300.512571 286.779531 
L 291.406474 295.133801 
L 288.108519 305.860086 
L 281.09304 314.464631 
L 269.943617 318.802006 
L 264.010154 328.157561 
L 253.926503 332.27031 
L 245.732622 339.742108 
L 234.328889 339.565395 
L 224.16361 341.599767 
L 214.512411 353.111899 
L 203.486227 344.189469 
L 193.184374 342.27388 
L 183.250268 339.205117 
L 174.359513 333.787546 
L 164.4308 330.766471 
L 156.181203 324.591695 
L 148.646654 317.647143 
L 141.535063 310.278538 
L 136.049924 301.637139 
L 128.381436 294.02921 
L 123.31517 284.629829 
L 118.823615 274.677005 
L 115.20379 264.089527 
L 116.654096 253.021591 
L 116.878119 242.038864 
L 115.180527 230.187751 
L 119.114553 219.40521 
L 128.001072 211.243107 
L 136.419523 203.863602 
L 137.833638 190.890008 
L 147.902942 185.164614 
L 155.951454 177.385971 
L 164.261271 169.103495 
L 174.380349 163.263875 
L 187.884944 169.469971 
L 196.907555 156.455873 
L 208.734569 147.089839 
" clip-path="url(#p3ac07975ae)" style="fill: none; stroke: #9467bd; stroke-width: 0.5; stroke-linecap: square"/>
   </g>
   <g id="line2d_23">
    <path d="M 208.734569 147.089839 
L 221.427747 151.213713 
L 233.829289 153.938162 
L 247.606528 153.25451 
L 258.1181 161.658985 
L 267.796228 170.185856 
L 277.475011 178.159522 
L 293.811404 180.379942 
L 298.499519 193.79117 
L 304.282532 205.604001 
L 306.780681 218.567455 
L 309.417328 230.935369 
L 311.980449 243.215121 
L 311.814123 255.751441 
L 302.801526 267.173237 
L 300.206918 278.29735 
L 296.53419 289.049445 
L 292.244277 299.580717 
L 291.932726 313.178982 
L 277.201043 316.407444 
L 270.344354 325.294512 
L 260.909592 331.34001 
L 249.906079 334.197198 
L 240.551043 339.644586 
L 230.018366 342.1032 
L 219.504163 344.447028 
L 208.734569 347.975108 
L 197.890674 345.058957 
L 186.172269 347.29029 
L 177.865304 337.147004 
L 168.947645 331.559092 
L 158.971815 327.845237 
L 150.417603 321.577687 
L 139.499097 317.088717 
L 135.710712 306.15617 
L 130.379781 296.875206 
L 121.479294 288.843002 
L 125.608117 276.240271 
L 118.135205 266.752195 
L 116.853359 255.751441 
L 108.990279 243.640291 
L 117.494975 233.262901 
L 114.33877 219.951836 
L 125.922291 212.288205 
L 126.663758 199.10205 
L 134.346809 189.849636 
L 142.69651 181.209881 
L 151.365389 172.637835 
L 160.32184 163.508691 
L 170.736956 155.55997 
L 183.557894 153.605656 
L 194.992914 142.578727 
L 208.734569 133.562788 
" clip-path="url(#p3ac07975ae)" style="fill: none; stroke: #8c564b; stroke-width: 0.5; stroke-linecap: square"/>
   </g>
   <g id="line2d_24">
    <path d="M 208.734569 133.562788 
L 223.747606 132.107956 
L 237.31239 139.806665 
L 252.767597 139.645889 
L 265.613956 147.376823 
L 275.772275 158.630557 
L 286.33156 168.162545 
L 294.042104 180.17556 
L 297.569458 194.433145 
L 301.341195 207.147734 
L 299.768238 221.226924 
L 301.104683 232.984252 
L 305.623195 243.987032 
L 303.389681 255.751441 
L 304.263355 267.350735 
L 298.943395 277.98592 
L 297.68692 289.486618 
L 292.699123 299.819438 
L 287.705178 310.260916 
L 280.533369 319.359627 
L 271.684191 326.806875 
L 261.279213 331.8755 
L 250.494925 335.319151 
L 240.830348 340.381053 
L 230.264232 343.100717 
L 219.842648 347.234701 
L 208.734569 348.11209 
L 198.332355 341.421384 
L 186.819716 344.663494 
L 177.513137 338.075593 
L 168.788497 331.862322 
L 157.045891 330.635419 
L 151.053458 320.859956 
L 143.497888 313.546097 
L 136.133467 305.864363 
L 130.804304 296.652399 
L 122.055659 288.624415 
L 118.459242 278.002311 
L 117.999221 266.768707 
L 118.291679 255.751441 
L 114.803596 244.346156 
L 118.758497 233.574331 
L 123.048288 223.254921 
L 126.073907 212.367778 
L 129.904879 201.339234 
L 133.987943 189.531709 
L 142.492128 180.979182 
L 152.590977 174.413405 
L 160.560561 163.963537 
L 169.656168 152.710165 
L 183.500526 153.372902 
L 195.57907 147.40616 
L 208.734569 141.26807 
" clip-path="url(#p3ac07975ae)" style="fill: none; stroke: #e377c2; stroke-width: 0.5; stroke-linecap: square"/>
   </g>
   <g id="line2d_25">
    <path d="M 208.734569 141.26807 
L 222.60006 141.558846 
L 236.304339 143.896486 
L 249.075915 149.380055 
L 262.892531 152.562066 
L 277.075678 156.742252 
L 291.849871 161.933659 
L 303.346982 171.932157 
L 319.693629 179.161932 
L 332.816532 190.628203 
L 328.266292 210.419038 
L 322.784062 227.640766 
L 318.371698 242.439083 
L 312.841493 255.751441 
L 305.963155 267.557129 
L 300.506173 278.37111 
L 294.004587 288.090093 
L 288.939064 297.846007 
L 283.167609 307.128858 
L 275.53488 314.931352 
L 269.458699 324.294814 
L 262.738246 333.989274 
L 251.370237 336.986919 
L 239.78599 337.627309 
L 230.051148 342.236202 
L 219.545442 344.786989 
L 208.734569 349.105216 
L 197.709048 346.554781 
L 186.57385 345.661012 
L 175.132973 344.351568 
L 164.809805 339.443087 
L 155.333959 333.115581 
L 149.577367 322.526119 
L 141.780459 315.067607 
L 137.514467 304.911128 
L 129.500413 297.336734 
L 127.435067 286.584275 
L 118.758497 277.928551 
L 117.081329 266.880159 
L 112.641138 255.751441 
L 114.905584 244.358539 
L 117.661228 233.303878 
L 123.208389 223.315639 
L 123.375154 210.951364 
L 129.876695 201.319781 
L 137.961101 193.051619 
L 143.809256 182.465912 
L 152.182448 173.821548 
L 161.499533 165.752598 
L 172.09705 159.146242 
L 183.811956 154.636424 
L 196.759639 157.129018 
L 208.734569 150.891111 
" clip-path="url(#p3ac07975ae)" style="fill: none; stroke: #7f7f7f; stroke-width: 0.5; stroke-linecap: square"/>
   </g>
   <g id="line2d_26">
    <path d="M 208.734569 150.891111 
L 222.199658 144.856459 
L 234.566887 150.945609 
L 247.339367 153.958956 
L 258.691031 160.567354 
L 270.655932 166.042859 
L 282.629977 172.340768 
L 291.27371 182.628143 
L 295.11748 196.125623 
L 304.919317 205.269791 
L 311.999987 216.588034 
L 309.916087 230.812436 
L 311.164545 243.31419 
L 307.978604 255.751441 
L 307.390988 267.730499 
L 309.683333 280.633076 
L 303.38653 291.648195 
L 293.821076 300.408285 
L 286.859668 309.677303 
L 281.046034 319.813809 
L 273.97781 329.395836 
L 261.843373 332.692826 
L 252.24555 338.654688 
L 240.878922 340.509134 
L 230.796942 345.262005 
L 220.441188 352.164123 
L 208.734569 349.07097 
L 197.33754 349.614422 
L 187.540923 341.737443 
L 172.230631 352.004416 
L 165.271333 338.563719 
L 157.590597 329.846277 
L 149.395694 322.731185 
L 141.652292 315.181152 
L 130.29945 309.891294 
L 131.319796 296.381848 
L 124.136977 287.835075 
L 122.94807 276.895914 
L 115.211548 267.107191 
L 115.689006 255.751441 
L 109.738191 243.731104 
L 113.006146 232.156504 
L 116.932413 220.935475 
L 122.131909 210.298858 
L 123.760842 197.098312 
L 130.296752 186.261598 
L 140.084964 178.262055 
L 149.497827 169.932204 
L 160.703794 164.236445 
L 170.348358 154.535321 
L 182.074503 147.587301 
L 196.235401 152.811525 
L 208.734569 149.487037 
" clip-path="url(#p3ac07975ae)" style="fill: none; stroke-dasharray: 2,3.3; stroke-dashoffset: 0; stroke: #d62728; stroke-width: 2"/>
   </g>
   <g id="line2d_27">
    <path d="M 208.734569 149.487037 
L 222.359938 141.357506 
L 234.128962 150.662475 
L 245.056317 157.966948 
L 258.211895 159.354078 
L 269.878041 164.973608 
L 280.230175 172.790518 
L 283.501446 187.353373 
L 294.933882 193.901297 
L 301.913981 204.381681 
L 310.858228 214.334242 
L 328.121684 223.128851 
L 359.728689 233.210635 
L 382.797472 250.591112 
L 378.672696 270.901092 
L 353.101469 286.139563 
L 335.582214 298.635793 
L 313.326586 305.57587 
L 295.290109 310.393812 
L 282.582226 315.672987 
L 274.809808 323.814599 
L 265.506335 330.117425 
L 255.441609 334.835683 
L 245.856869 340.024166 
L 235.699121 344.052504 
L 224.842076 345.374801 
L 214.086377 345.932933 
L 203.421308 345.283407 
L 193.420625 340.959359 
L 182.000057 343.299194 
L 171.92979 339.303351 
L 162.72413 333.656201 
L 142.050603 343.10153 
L 140.607897 325.927752 
L 136.003802 314.76672 
L 130.779563 304.964309 
L 123.960313 296.135297 
L 120.460287 285.595001 
L 111.853254 276.144213 
L 106.33508 264.880155 
L 105.289517 252.684673 
L 99.60423 239.460172 
L 94.831201 224.627287 
L 91.727133 208.297988 
L 101.099903 196.412507 
L 109.124002 184.278389 
L 124.467069 178.662034 
L 132.611199 167.420627 
L 141.201261 155.486813 
L 152.204691 145.613493 
L 162.122057 130.262411 
L 177.629052 127.028276 
L 192.115994 116.227566 
L 208.734569 113.803019 
" clip-path="url(#p3ac07975ae)" style="fill: none; stroke: #ff7f0e; stroke-width: 2; stroke-linecap: square"/>
   </g>
   <g id="line2d_28">
    <path d="M 208.734569 113.803019 
L 225.033681 124.847826 
L 241.166981 127.532787 
L 254.945329 137.18115 
L 268.232029 145.667309 
L 279.310346 156.762214 
L 290.490662 166.795666 
L 292.473665 184.691576 
L 297.689828 197.496428 
L 308.510751 206.823038 
L 307.251939 221.781139 
L 310.761355 234.199917 
L 317.180928 246.587806 
L 316.968898 260.037138 
L 314.866637 273.254942 
L 311.989206 286.263421 
L 306.800173 298.51381 
L 297.171064 308.172574 
L 290.449557 319.033434 
L 281.300341 327.944647 
L 267.961597 331.422483 
L 261.733517 344.122516 
L 248.677214 346.078792 
L 237.082101 349.895597 
L 224.106297 346.059786 
L 213.009306 351.269826 
L 201.049911 352.636449 
L 188.909989 352.051444 
L 178.207922 345.782988 
L 165.318472 345.451821 
L 153.655852 340.808577 
L 146.211159 330.204377 
L 135.985308 323.306766 
L 127.501207 314.300937 
L 122.842183 302.746793 
L 110.337813 294.684503 
L 111.984196 280.754643 
L 110.655043 268.476562 
L 103.635912 256.292429 
L 104.40841 243.306538 
L 106.944954 230.560906 
L 104.187333 215.624578 
L 106.532669 201.191975 
L 110.558797 186.515074 
L 112.975186 168.647382 
L 119.723217 151.945623 
L 129.638653 136.318074 
L 141.984952 121.387712 
L 159.347434 114.880813 
L 179.567611 121.10381 
L 197.409891 129.480678 
L 212.880381 135.380692 
" clip-path="url(#p3ac07975ae)" style="fill: none; stroke: #2ca02c; stroke-width: 3; stroke-linecap: square"/>
   </g>
   <g id="patch_3">
    <path d="M 208.734569 76.862184 
C 185.243047 76.862184 161.979951 81.489502 140.276614 90.479318 
C 118.573278 99.469134 98.851777 112.64662 82.240763 129.257634 
C 65.629748 145.868649 52.452263 165.59015 43.462446 187.293486 
C 34.47263 208.996822 29.845313 232.259919 29.845313 255.751441 
C 29.845313 279.242963 34.47263 302.506059 43.462446 324.209396 
C 52.452263 345.912732 65.629748 365.634233 82.240763 382.245247 
C 98.851777 398.856262 118.573278 412.033747 140.276614 421.023564 
C 161.979951 430.01338 185.243047 434.640697 208.734569 434.640697 
C 232.226091 434.640697 255.489188 430.01338 277.192524 421.023564 
C 298.89586 412.033747 318.617361 398.856262 335.228376 382.245247 
C 351.83939 365.634233 365.016876 345.912732 374.006692 324.209396 
C 382.996508 302.506059 387.623826 279.242963 387.623826 255.751441 
C 387.623826 232.259919 382.996508 208.996822 374.006692 187.293486 
C 365.016876 165.59015 351.83939 145.868649 335.228376 129.257634 
C 318.617361 112.64662 298.89586 99.469134 277.192524 90.479318 
C 255.489188 81.489502 232.226091 76.862184 208.734569 76.862184 
" style="fill: none; stroke: #000000; stroke-width: 0.8; stroke-linejoin: miter; stroke-linecap: square"/>
   </g>
   <g id="text_18">
    <!-- Totaal mannen en vrouwen, Totaal leeftijd -->
    <g transform="translate(104.364257 35.084333)scale(0.1 -0.1)">
     <defs>
      <path id="DejaVuSans-54" d="M -19 4666 
L 3928 4666 
L 3928 4134 
L 2272 4134 
L 2272 0 
L 1638 0 
L 1638 4134 
L -19 4134 
L -19 4666 
z
" transform="scale(0.015625)"/>
      <path id="DejaVuSans-20" transform="scale(0.015625)"/>
      <path id="DejaVuSans-6d" d="M 3328 2828 
Q 3544 3216 3844 3400 
Q 4144 3584 4550 3584 
Q 5097 3584 5394 3201 
Q 5691 2819 5691 2113 
L 5691 0 
L 5113 0 
L 5113 2094 
Q 5113 2597 4934 2840 
Q 4756 3084 4391 3084 
Q 3944 3084 3684 2787 
Q 3425 2491 3425 1978 
L 3425 0 
L 2847 0 
L 2847 2094 
Q 2847 2600 2669 2842 
Q 2491 3084 2119 3084 
Q 1678 3084 1418 2786 
Q 1159 2488 1159 1978 
L 1159 0 
L 581 0 
L 581 3500 
L 1159 3500 
L 1159 2956 
Q 1356 3278 1631 3431 
Q 1906 3584 2284 3584 
Q 2666 3584 2933 3390 
Q 3200 3197 3328 2828 
z
" transform="scale(0.015625)"/>
      <path id="DejaVuSans-77" d="M 269 3500 
L 844 3500 
L 1563 769 
L 2278 3500 
L 2956 3500 
L 3675 769 
L 4391 3500 
L 4966 3500 
L 4050 0 
L 3372 0 
L 2619 2869 
L 1863 0 
L 1184 0 
L 269 3500 
z
" transform="scale(0.015625)"/>
      <path id="DejaVuSans-2c" d="M 750 794 
L 1409 794 
L 1409 256 
L 897 -744 
L 494 -744 
L 750 256 
L 750 794 
z
" transform="scale(0.015625)"/>
      <path id="DejaVuSans-66" d="M 2375 4863 
L 2375 4384 
L 1825 4384 
Q 1516 4384 1395 4259 
Q 1275 4134 1275 3809 
L 1275 3500 
L 2222 3500 
L 2222 3053 
L 1275 3053 
L 1275 0 
L 697 0 
L 697 3053 
L 147 3053 
L 147 3500 
L 697 3500 
L 697 3744 
Q 697 4328 969 4595 
Q 1241 4863 1831 4863 
L 2375 4863 
z
" transform="scale(0.015625)"/>
      <path id="DejaVuSans-69" d="M 603 3500 
L 1178 3500 
L 1178 0 
L 603 0 
L 603 3500 
z
M 603 4863 
L 1178 4863 
L 1178 4134 
L 603 4134 
L 603 4863 
z
" transform="scale(0.015625)"/>
      <path id="DejaVuSans-6a" d="M 603 3500 
L 1178 3500 
L 1178 -63 
Q 1178 -731 923 -1031 
Q 669 -1331 103 -1331 
L -116 -1331 
L -116 -844 
L 38 -844 
Q 366 -844 484 -692 
Q 603 -541 603 -63 
L 603 3500 
z
M 603 4863 
L 1178 4863 
L 1178 4134 
L 603 4134 
L 603 4863 
z
" transform="scale(0.015625)"/>
      <path id="DejaVuSans-64" d="M 2906 2969 
L 2906 4863 
L 3481 4863 
L 3481 0 
L 2906 0 
L 2906 525 
Q 2725 213 2448 61 
Q 2172 -91 1784 -91 
Q 1150 -91 751 415 
Q 353 922 353 1747 
Q 353 2572 751 3078 
Q 1150 3584 1784 3584 
Q 2172 3584 2448 3432 
Q 2725 3281 2906 2969 
z
M 947 1747 
Q 947 1113 1208 752 
Q 1469 391 1925 391 
Q 2381 391 2643 752 
Q 2906 1113 2906 1747 
Q 2906 2381 2643 2742 
Q 2381 3103 1925 3103 
Q 1469 3103 1208 2742 
Q 947 2381 947 1747 
z
" transform="scale(0.015625)"/>
     </defs>
     <use xlink:href="#DejaVuSans-54"/>
     <use xlink:href="#DejaVuSans-6f" x="44.083984"/>
     <use xlink:href="#DejaVuSans-74" x="105.265625"/>
     <use xlink:href="#DejaVuSans-61" x="144.474609"/>
     <use xlink:href="#DejaVuSans-61" x="205.753906"/>
     <use xlink:href="#DejaVuSans-6c" x="267.033203"/>
     <use xlink:href="#DejaVuSans-20" x="294.816406"/>
     <use xlink:href="#DejaVuSans-6d" x="326.603516"/>
     <use xlink:href="#DejaVuSans-61" x="424.015625"/>
     <use xlink:href="#DejaVuSans-6e" x="485.294922"/>
     <use xlink:href="#DejaVuSans-6e" x="548.673828"/>
     <use xlink:href="#DejaVuSans-65" x="612.052734"/>
     <use xlink:href="#DejaVuSans-6e" x="673.576172"/>
     <use xlink:href="#DejaVuSans-20" x="736.955078"/>
     <use xlink:href="#DejaVuSans-65" x="768.742188"/>
     <use xlink:href="#DejaVuSans-6e" x="830.265625"/>
     <use xlink:href="#DejaVuSans-20" x="893.644531"/>
     <use xlink:href="#DejaVuSans-76" x="925.431641"/>
     <use xlink:href="#DejaVuSans-72" x="984.611328"/>
     <use xlink:href="#DejaVuSans-6f" x="1023.474609"/>
     <use xlink:href="#DejaVuSans-75" x="1084.65625"/>
     <use xlink:href="#DejaVuSans-77" x="1148.035156"/>
     <use xlink:href="#DejaVuSans-65" x="1229.822266"/>
     <use xlink:href="#DejaVuSans-6e" x="1291.345703"/>
     <use xlink:href="#DejaVuSans-2c" x="1354.724609"/>
     <use xlink:href="#DejaVuSans-20" x="1386.511719"/>
     <use xlink:href="#DejaVuSans-54" x="1418.298828"/>
     <use xlink:href="#DejaVuSans-6f" x="1462.382812"/>
     <use xlink:href="#DejaVuSans-74" x="1523.564453"/>
     <use xlink:href="#DejaVuSans-61" x="1562.773438"/>
     <use xlink:href="#DejaVuSans-61" x="1624.052734"/>
     <use xlink:href="#DejaVuSans-6c" x="1685.332031"/>
     <use xlink:href="#DejaVuSans-20" x="1713.115234"/>
     <use xlink:href="#DejaVuSans-6c" x="1744.902344"/>
     <use xlink:href="#DejaVuSans-65" x="1772.685547"/>
     <use xlink:href="#DejaVuSans-65" x="1834.208984"/>
     <use xlink:href="#DejaVuSans-66" x="1895.732422"/>
     <use xlink:href="#DejaVuSans-74" x="1929.1875"/>
     <use xlink:href="#DejaVuSans-69" x="1968.396484"/>
     <use xlink:href="#DejaVuSans-6a" x="1996.179688"/>
     <use xlink:href="#DejaVuSans-64" x="2023.962891"/>
    </g>
   </g>
  </g>
  <g id="text_19">
   <!-- Deaths in the Netherlands per week (2011-2021) -->
   <g transform="translate(36.394569 17.837812)scale(0.14 -0.14)">
    <defs>
     <path id="DejaVuSans-68" d="M 3513 2113 
L 3513 0 
L 2938 0 
L 2938 2094 
Q 2938 2591 2744 2837 
Q 2550 3084 2163 3084 
Q 1697 3084 1428 2787 
Q 1159 2491 1159 1978 
L 1159 0 
L 581 0 
L 581 4863 
L 1159 4863 
L 1159 2956 
Q 1366 3272 1645 3428 
Q 1925 3584 2291 3584 
Q 2894 3584 3203 3211 
Q 3513 2838 3513 2113 
z
" transform="scale(0.015625)"/>
     <path id="DejaVuSans-73" d="M 2834 3397 
L 2834 2853 
Q 2591 2978 2328 3040 
Q 2066 3103 1784 3103 
Q 1356 3103 1142 2972 
Q 928 2841 928 2578 
Q 928 2378 1081 2264 
Q 1234 2150 1697 2047 
L 1894 2003 
Q 2506 1872 2764 1633 
Q 3022 1394 3022 966 
Q 3022 478 2636 193 
Q 2250 -91 1575 -91 
Q 1294 -91 989 -36 
Q 684 19 347 128 
L 347 722 
Q 666 556 975 473 
Q 1284 391 1588 391 
Q 1994 391 2212 530 
Q 2431 669 2431 922 
Q 2431 1156 2273 1281 
Q 2116 1406 1581 1522 
L 1381 1569 
Q 847 1681 609 1914 
Q 372 2147 372 2553 
Q 372 3047 722 3315 
Q 1072 3584 1716 3584 
Q 2034 3584 2315 3537 
Q 2597 3491 2834 3397 
z
" transform="scale(0.015625)"/>
     <path id="DejaVuSans-6b" d="M 581 4863 
L 1159 4863 
L 1159 1991 
L 2875 3500 
L 3609 3500 
L 1753 1863 
L 3688 0 
L 2938 0 
L 1159 1709 
L 1159 0 
L 581 0 
L 581 4863 
z
" transform="scale(0.015625)"/>
     <path id="DejaVuSans-28" d="M 1984 4856 
Q 1566 4138 1362 3434 
Q 1159 2731 1159 2009 
Q 1159 1288 1364 580 
Q 1569 -128 1984 -844 
L 1484 -844 
Q 1016 -109 783 600 
Q 550 1309 550 2009 
Q 550 2706 781 3412 
Q 1013 4119 1484 4856 
L 1984 4856 
z
" transform="scale(0.015625)"/>
     <path id="DejaVuSans-2d" d="M 313 2009 
L 1997 2009 
L 1997 1497 
L 313 1497 
L 313 2009 
z
" transform="scale(0.015625)"/>
     <path id="DejaVuSans-29" d="M 513 4856 
L 1013 4856 
Q 1481 4119 1714 3412 
Q 1947 2706 1947 2009 
Q 1947 1309 1714 600 
Q 1481 -109 1013 -844 
L 513 -844 
Q 928 -128 1133 580 
Q 1338 1288 1338 2009 
Q 1338 2731 1133 3434 
Q 928 4138 513 4856 
z
" transform="scale(0.015625)"/>
    </defs>
    <use xlink:href="#DejaVuSans-44"/>
    <use xlink:href="#DejaVuSans-65" x="77.001953"/>
    <use xlink:href="#DejaVuSans-61" x="138.525391"/>
    <use xlink:href="#DejaVuSans-74" x="199.804688"/>
    <use xlink:href="#DejaVuSans-68" x="239.013672"/>
    <use xlink:href="#DejaVuSans-73" x="302.392578"/>
    <use xlink:href="#DejaVuSans-20" x="354.492188"/>
    <use xlink:href="#DejaVuSans-69" x="386.279297"/>
    <use xlink:href="#DejaVuSans-6e" x="414.0625"/>
    <use xlink:href="#DejaVuSans-20" x="477.441406"/>
    <use xlink:href="#DejaVuSans-74" x="509.228516"/>
    <use xlink:href="#DejaVuSans-68" x="548.4375"/>
    <use xlink:href="#DejaVuSans-65" x="611.816406"/>
    <use xlink:href="#DejaVuSans-20" x="673.339844"/>
    <use xlink:href="#DejaVuSans-4e" x="705.126953"/>
    <use xlink:href="#DejaVuSans-65" x="779.931641"/>
    <use xlink:href="#DejaVuSans-74" x="841.455078"/>
    <use xlink:href="#DejaVuSans-68" x="880.664062"/>
    <use xlink:href="#DejaVuSans-65" x="944.042969"/>
    <use xlink:href="#DejaVuSans-72" x="1005.566406"/>
    <use xlink:href="#DejaVuSans-6c" x="1046.679688"/>
    <use xlink:href="#DejaVuSans-61" x="1074.462891"/>
    <use xlink:href="#DejaVuSans-6e" x="1135.742188"/>
    <use xlink:href="#DejaVuSans-64" x="1199.121094"/>
    <use xlink:href="#DejaVuSans-73" x="1262.597656"/>
    <use xlink:href="#DejaVuSans-20" x="1314.697266"/>
    <use xlink:href="#DejaVuSans-70" x="1346.484375"/>
    <use xlink:href="#DejaVuSans-65" x="1409.960938"/>
    <use xlink:href="#DejaVuSans-72" x="1471.484375"/>
    <use xlink:href="#DejaVuSans-20" x="1512.597656"/>
    <use xlink:href="#DejaVuSans-77" x="1544.384766"/>
    <use xlink:href="#DejaVuSans-65" x="1626.171875"/>
    <use xlink:href="#DejaVuSans-65" x="1687.695312"/>
    <use xlink:href="#DejaVuSans-6b" x="1749.21875"/>
    <use xlink:href="#DejaVuSans-20" x="1807.128906"/>
    <use xlink:href="#DejaVuSans-28" x="1838.916016"/>
    <use xlink:href="#DejaVuSans-32" x="1877.929688"/>
    <use xlink:href="#DejaVuSans-30" x="1941.552734"/>
    <use xlink:href="#DejaVuSans-31" x="2005.175781"/>
    <use xlink:href="#DejaVuSans-31" x="2068.798828"/>
    <use xlink:href="#DejaVuSans-2d" x="2132.421875"/>
    <use xlink:href="#DejaVuSans-32" x="2168.505859"/>
    <use xlink:href="#DejaVuSans-30" x="2232.128906"/>
    <use xlink:href="#DejaVuSans-32" x="2295.751953"/>
    <use xlink:href="#DejaVuSans-31" x="2359.375"/>
    <use xlink:href="#DejaVuSans-29" x="2422.998047"/>
   </g>
  </g>
  <g id="legend_1">
   <g id="patch_4">
    <path d="M 434.484569 455.67976 
L 491.934569 455.67976 
Q 493.934569 455.67976 493.934569 453.67976 
L 493.934569 293.220385 
Q 493.934569 291.220385 491.934569 291.220385 
L 434.484569 291.220385 
Q 432.484569 291.220385 432.484569 293.220385 
L 432.484569 453.67976 
Q 432.484569 455.67976 434.484569 455.67976 
z
" style="fill: #ffffff; opacity: 0.8; stroke: #cccccc; stroke-linejoin: miter"/>
   </g>
   <g id="line2d_29">
    <path d="M 436.484569 299.318823 
L 446.484569 299.318823 
L 456.484569 299.318823 
" style="fill: none; stroke-dasharray: 0.5,0.825; stroke-dashoffset: 0; stroke: #1f77b4; stroke-width: 0.5"/>
   </g>
   <g id="text_20">
    <!-- 2011 -->
    <g transform="translate(464.484569 302.818823)scale(0.1 -0.1)">
     <use xlink:href="#DejaVuSans-32"/>
     <use xlink:href="#DejaVuSans-30" x="63.623047"/>
     <use xlink:href="#DejaVuSans-31" x="127.246094"/>
     <use xlink:href="#DejaVuSans-31" x="190.869141"/>
    </g>
   </g>
   <g id="line2d_30">
    <path d="M 436.484569 313.996948 
L 446.484569 313.996948 
L 456.484569 313.996948 
" style="fill: none; stroke-dasharray: 0.5,0.825; stroke-dashoffset: 0; stroke: #ff7f0e; stroke-width: 0.5"/>
   </g>
   <g id="text_21">
    <!-- 2012 -->
    <g transform="translate(464.484569 317.496948)scale(0.1 -0.1)">
     <use xlink:href="#DejaVuSans-32"/>
     <use xlink:href="#DejaVuSans-30" x="63.623047"/>
     <use xlink:href="#DejaVuSans-31" x="127.246094"/>
     <use xlink:href="#DejaVuSans-32" x="190.869141"/>
    </g>
   </g>
   <g id="line2d_31">
    <path d="M 436.484569 328.675073 
L 446.484569 328.675073 
L 456.484569 328.675073 
" style="fill: none; stroke-dasharray: 0.5,0.825; stroke-dashoffset: 0; stroke: #2ca02c; stroke-width: 0.5"/>
   </g>
   <g id="text_22">
    <!-- 2013 -->
    <g transform="translate(464.484569 332.175073)scale(0.1 -0.1)">
     <use xlink:href="#DejaVuSans-32"/>
     <use xlink:href="#DejaVuSans-30" x="63.623047"/>
     <use xlink:href="#DejaVuSans-31" x="127.246094"/>
     <use xlink:href="#DejaVuSans-33" x="190.869141"/>
    </g>
   </g>
   <g id="line2d_32">
    <path d="M 436.484569 343.353198 
L 446.484569 343.353198 
L 456.484569 343.353198 
" style="fill: none; stroke-dasharray: 0.5,0.825; stroke-dashoffset: 0; stroke: #d62728; stroke-width: 0.5"/>
   </g>
   <g id="text_23">
    <!-- 2014 -->
    <g transform="translate(464.484569 346.853198)scale(0.1 -0.1)">
     <use xlink:href="#DejaVuSans-32"/>
     <use xlink:href="#DejaVuSans-30" x="63.623047"/>
     <use xlink:href="#DejaVuSans-31" x="127.246094"/>
     <use xlink:href="#DejaVuSans-34" x="190.869141"/>
    </g>
   </g>
   <g id="line2d_33">
    <path d="M 436.484569 358.031323 
L 446.484569 358.031323 
L 456.484569 358.031323 
" style="fill: none; stroke: #9467bd; stroke-width: 0.5; stroke-linecap: square"/>
   </g>
   <g id="text_24">
    <!-- 2015 -->
    <g transform="translate(464.484569 361.531323)scale(0.1 -0.1)">
     <use xlink:href="#DejaVuSans-32"/>
     <use xlink:href="#DejaVuSans-30" x="63.623047"/>
     <use xlink:href="#DejaVuSans-31" x="127.246094"/>
     <use xlink:href="#DejaVuSans-35" x="190.869141"/>
    </g>
   </g>
   <g id="line2d_34">
    <path d="M 436.484569 372.709448 
L 446.484569 372.709448 
L 456.484569 372.709448 
" style="fill: none; stroke: #8c564b; stroke-width: 0.5; stroke-linecap: square"/>
   </g>
   <g id="text_25">
    <!-- 2016 -->
    <g transform="translate(464.484569 376.209448)scale(0.1 -0.1)">
     <defs>
      <path id="DejaVuSans-36" d="M 2113 2584 
Q 1688 2584 1439 2293 
Q 1191 2003 1191 1497 
Q 1191 994 1439 701 
Q 1688 409 2113 409 
Q 2538 409 2786 701 
Q 3034 994 3034 1497 
Q 3034 2003 2786 2293 
Q 2538 2584 2113 2584 
z
M 3366 4563 
L 3366 3988 
Q 3128 4100 2886 4159 
Q 2644 4219 2406 4219 
Q 1781 4219 1451 3797 
Q 1122 3375 1075 2522 
Q 1259 2794 1537 2939 
Q 1816 3084 2150 3084 
Q 2853 3084 3261 2657 
Q 3669 2231 3669 1497 
Q 3669 778 3244 343 
Q 2819 -91 2113 -91 
Q 1303 -91 875 529 
Q 447 1150 447 2328 
Q 447 3434 972 4092 
Q 1497 4750 2381 4750 
Q 2619 4750 2861 4703 
Q 3103 4656 3366 4563 
z
" transform="scale(0.015625)"/>
     </defs>
     <use xlink:href="#DejaVuSans-32"/>
     <use xlink:href="#DejaVuSans-30" x="63.623047"/>
     <use xlink:href="#DejaVuSans-31" x="127.246094"/>
     <use xlink:href="#DejaVuSans-36" x="190.869141"/>
    </g>
   </g>
   <g id="line2d_35">
    <path d="M 436.484569 387.387573 
L 446.484569 387.387573 
L 456.484569 387.387573 
" style="fill: none; stroke: #e377c2; stroke-width: 0.5; stroke-linecap: square"/>
   </g>
   <g id="text_26">
    <!-- 2017 -->
    <g transform="translate(464.484569 390.887573)scale(0.1 -0.1)">
     <defs>
      <path id="DejaVuSans-37" d="M 525 4666 
L 3525 4666 
L 3525 4397 
L 1831 0 
L 1172 0 
L 2766 4134 
L 525 4134 
L 525 4666 
z
" transform="scale(0.015625)"/>
     </defs>
     <use xlink:href="#DejaVuSans-32"/>
     <use xlink:href="#DejaVuSans-30" x="63.623047"/>
     <use xlink:href="#DejaVuSans-31" x="127.246094"/>
     <use xlink:href="#DejaVuSans-37" x="190.869141"/>
    </g>
   </g>
   <g id="line2d_36">
    <path d="M 436.484569 402.065697 
L 446.484569 402.065697 
L 456.484569 402.065697 
" style="fill: none; stroke: #7f7f7f; stroke-width: 0.5; stroke-linecap: square"/>
   </g>
   <g id="text_27">
    <!-- 2018 -->
    <g transform="translate(464.484569 405.565697)scale(0.1 -0.1)">
     <defs>
      <path id="DejaVuSans-38" d="M 2034 2216 
Q 1584 2216 1326 1975 
Q 1069 1734 1069 1313 
Q 1069 891 1326 650 
Q 1584 409 2034 409 
Q 2484 409 2743 651 
Q 3003 894 3003 1313 
Q 3003 1734 2745 1975 
Q 2488 2216 2034 2216 
z
M 1403 2484 
Q 997 2584 770 2862 
Q 544 3141 544 3541 
Q 544 4100 942 4425 
Q 1341 4750 2034 4750 
Q 2731 4750 3128 4425 
Q 3525 4100 3525 3541 
Q 3525 3141 3298 2862 
Q 3072 2584 2669 2484 
Q 3125 2378 3379 2068 
Q 3634 1759 3634 1313 
Q 3634 634 3220 271 
Q 2806 -91 2034 -91 
Q 1263 -91 848 271 
Q 434 634 434 1313 
Q 434 1759 690 2068 
Q 947 2378 1403 2484 
z
M 1172 3481 
Q 1172 3119 1398 2916 
Q 1625 2713 2034 2713 
Q 2441 2713 2670 2916 
Q 2900 3119 2900 3481 
Q 2900 3844 2670 4047 
Q 2441 4250 2034 4250 
Q 1625 4250 1398 4047 
Q 1172 3844 1172 3481 
z
" transform="scale(0.015625)"/>
     </defs>
     <use xlink:href="#DejaVuSans-32"/>
     <use xlink:href="#DejaVuSans-30" x="63.623047"/>
     <use xlink:href="#DejaVuSans-31" x="127.246094"/>
     <use xlink:href="#DejaVuSans-38" x="190.869141"/>
    </g>
   </g>
   <g id="line2d_37">
    <path d="M 436.484569 416.743823 
L 446.484569 416.743823 
L 456.484569 416.743823 
" style="fill: none; stroke-dasharray: 2,3.3; stroke-dashoffset: 0; stroke: #d62728; stroke-width: 2"/>
   </g>
   <g id="text_28">
    <!-- 2019 -->
    <g transform="translate(464.484569 420.243823)scale(0.1 -0.1)">
     <defs>
      <path id="DejaVuSans-39" d="M 703 97 
L 703 672 
Q 941 559 1184 500 
Q 1428 441 1663 441 
Q 2288 441 2617 861 
Q 2947 1281 2994 2138 
Q 2813 1869 2534 1725 
Q 2256 1581 1919 1581 
Q 1219 1581 811 2004 
Q 403 2428 403 3163 
Q 403 3881 828 4315 
Q 1253 4750 1959 4750 
Q 2769 4750 3195 4129 
Q 3622 3509 3622 2328 
Q 3622 1225 3098 567 
Q 2575 -91 1691 -91 
Q 1453 -91 1209 -44 
Q 966 3 703 97 
z
M 1959 2075 
Q 2384 2075 2632 2365 
Q 2881 2656 2881 3163 
Q 2881 3666 2632 3958 
Q 2384 4250 1959 4250 
Q 1534 4250 1286 3958 
Q 1038 3666 1038 3163 
Q 1038 2656 1286 2365 
Q 1534 2075 1959 2075 
z
" transform="scale(0.015625)"/>
     </defs>
     <use xlink:href="#DejaVuSans-32"/>
     <use xlink:href="#DejaVuSans-30" x="63.623047"/>
     <use xlink:href="#DejaVuSans-31" x="127.246094"/>
     <use xlink:href="#DejaVuSans-39" x="190.869141"/>
    </g>
   </g>
   <g id="line2d_38">
    <path d="M 436.484569 431.421947 
L 446.484569 431.421947 
L 456.484569 431.421947 
" style="fill: none; stroke: #ff7f0e; stroke-width: 2; stroke-linecap: square"/>
   </g>
   <g id="text_29">
    <!-- 2020 -->
    <g transform="translate(464.484569 434.921947)scale(0.1 -0.1)">
     <use xlink:href="#DejaVuSans-32"/>
     <use xlink:href="#DejaVuSans-30" x="63.623047"/>
     <use xlink:href="#DejaVuSans-32" x="127.246094"/>
     <use xlink:href="#DejaVuSans-30" x="190.869141"/>
    </g>
   </g>
   <g id="line2d_39">
    <path d="M 436.484569 446.100073 
L 446.484569 446.100073 
L 456.484569 446.100073 
" style="fill: none; stroke: #2ca02c; stroke-width: 3; stroke-linecap: square"/>
   </g>
   <g id="text_30">
    <!-- 2021 -->
    <g transform="translate(464.484569 449.600073)scale(0.1 -0.1)">
     <use xlink:href="#DejaVuSans-32"/>
     <use xlink:href="#DejaVuSans-30" x="63.623047"/>
     <use xlink:href="#DejaVuSans-32" x="127.246094"/>
     <use xlink:href="#DejaVuSans-31" x="190.869141"/>
    </g>
   </g>
  </g>
 </g>
 <defs>
  <clipPath id="p3ac07975ae">
   <path d="M 387.623826 255.751441 
C 387.623826 232.259919 382.996508 208.996822 374.006692 187.293486 
C 365.016876 165.59015 351.83939 145.868649 335.228376 129.257634 
C 318.617361 112.64662 298.89586 99.469134 277.192524 90.479318 
C 255.489188 81.489502 232.226091 76.862184 208.734569 76.862184 
C 185.243047 76.862184 161.979951 81.489502 140.276614 90.479318 
C 118.573278 99.469134 98.851777 112.64662 82.240763 129.257634 
C 65.629748 145.868649 52.452263 165.59015 43.462446 187.293486 
C 34.47263 208.996822 29.845313 232.259919 29.845313 255.751441 
C 29.845313 279.242963 34.47263 302.506059 43.462446 324.209396 
C 52.452263 345.912732 65.629748 365.634233 82.240763 382.245247 
C 98.851777 398.856262 118.573278 412.033747 140.276614 421.023564 
C 161.979951 430.01338 185.243047 434.640697 208.734569 434.640697 
C 232.226091 434.640697 255.489188 430.01338 277.192524 421.023564 
C 298.89586 412.033747 318.617361 398.856262 335.228376 382.245247 
C 351.83939 365.634233 365.016876 345.912732 374.006692 324.209396 
C 382.996508 302.506059 387.623826 279.242963 387.623826 255.751441 
M 208.734569 255.751441 
C 208.734569 255.751441 208.734569 255.751441 208.734569 255.751441 
C 208.734569 255.751441 208.734569 255.751441 208.734569 255.751441 
C 208.734569 255.751441 208.734569 255.751441 208.734569 255.751441 
C 208.734569 255.751441 208.734569 255.751441 208.734569 255.751441 
C 208.734569 255.751441 208.734569 255.751441 208.734569 255.751441 
C 208.734569 255.751441 208.734569 255.751441 208.734569 255.751441 
C 208.734569 255.751441 208.734569 255.751441 208.734569 255.751441 
C 208.734569 255.751441 208.734569 255.751441 208.734569 255.751441 
C 208.734569 255.751441 208.734569 255.751441 208.734569 255.751441 
C 208.734569 255.751441 208.734569 255.751441 208.734569 255.751441 
C 208.734569 255.751441 208.734569 255.751441 208.734569 255.751441 
C 208.734569 255.751441 208.734569 255.751441 208.734569 255.751441 
C 208.734569 255.751441 208.734569 255.751441 208.734569 255.751441 
C 208.734569 255.751441 208.734569 255.751441 208.734569 255.751441 
C 208.734569 255.751441 208.734569 255.751441 208.734569 255.751441 
C 208.734569 255.751441 208.734569 255.751441 208.734569 255.751441 
M 387.623826 255.751441 
z
"/>
  </clipPath>
 </defs>
</svg>
