<?xml version="1.0" encoding="utf-8" standalone="no"?>
<!DOCTYPE svg PUBLIC "-//W3C//DTD SVG 1.1//EN"
  "http://www.w3.org/Graphics/SVG/1.1/DTD/svg11.dtd">
<svg xmlns:xlink="http://www.w3.org/1999/xlink" width="498.933531pt" height="460.67976pt" viewBox="0 0 498.933531 460.67976" xmlns="http://www.w3.org/2000/svg" version="1.1">
 <metadata>
  <rdf:RDF xmlns:dc="http://purl.org/dc/elements/1.1/" xmlns:cc="http://creativecommons.org/ns#" xmlns:rdf="http://www.w3.org/1999/02/22-rdf-syntax-ns#">
   <cc:Work>
    <dc:type rdf:resource="http://purl.org/dc/dcmitype/StillImage"/>
    <dc:date>2023-06-02T02:50:22.103110</dc:date>
    <dc:format>image/svg+xml</dc:format>
    <dc:creator>
     <cc:Agent>
      <dc:title>Matplotlib v3.7.1, https://matplotlib.org/</dc:title>
     </cc:Agent>
    </dc:creator>
   </cc:Work>
  </rdf:RDF>
 </metadata>
 <defs>
  <style type="text/css">*{stroke-linejoin: round; stroke-linecap: butt}</style>
 </defs>
 <g id="figure_1">
  <g id="patch_1">
   <path d="M 0 460.67976 
L 498.933531 460.67976 
L 498.933531 0 
L 0 0 
z
" style="fill: #ffffff"/>
  </g>
  <g id="axes_1">
   <g id="patch_2">
    <path d="M 387.62175 255.752479 
C 387.62175 232.261093 382.994459 208.998131 374.004695 187.294921 
C 365.014931 165.591711 351.837522 145.870324 335.226604 129.259406 
C 318.615686 112.648488 298.894299 99.471079 277.191089 90.481315 
C 255.487879 81.491551 232.224917 76.86426 208.733531 76.86426 
C 185.242146 76.86426 161.979184 81.491551 140.275974 90.481315 
C 118.572763 99.471079 98.851377 112.648488 82.240459 129.259406 
C 65.629541 145.870324 52.452131 165.591711 43.462367 187.294921 
C 34.472603 208.998131 29.845313 232.261093 29.845313 255.752479 
C 29.845313 279.243864 34.472603 302.506826 43.462367 324.210036 
C 52.452131 345.913247 65.629541 365.634633 82.240459 382.245551 
C 98.851377 398.856469 118.572763 412.033879 140.275974 421.023643 
C 161.979184 430.013407 185.242146 434.640698 208.733531 434.640698 
C 232.224917 434.640698 255.487879 430.013407 277.191089 421.023643 
C 298.894299 412.033879 318.615686 398.856469 335.226604 382.245551 
C 351.837522 365.634633 365.014931 345.913247 374.004695 324.210036 
C 382.994459 302.506826 387.62175 279.243864 387.62175 255.752479 
M 208.733531 255.752479 
C 208.733531 255.752479 208.733531 255.752479 208.733531 255.752479 
C 208.733531 255.752479 208.733531 255.752479 208.733531 255.752479 
C 208.733531 255.752479 208.733531 255.752479 208.733531 255.752479 
C 208.733531 255.752479 208.733531 255.752479 208.733531 255.752479 
C 208.733531 255.752479 208.733531 255.752479 208.733531 255.752479 
C 208.733531 255.752479 208.733531 255.752479 208.733531 255.752479 
C 208.733531 255.752479 208.733531 255.752479 208.733531 255.752479 
C 208.733531 255.752479 208.733531 255.752479 208.733531 255.752479 
C 208.733531 255.752479 208.733531 255.752479 208.733531 255.752479 
C 208.733531 255.752479 208.733531 255.752479 208.733531 255.752479 
C 208.733531 255.752479 208.733531 255.752479 208.733531 255.752479 
C 208.733531 255.752479 208.733531 255.752479 208.733531 255.752479 
C 208.733531 255.752479 208.733531 255.752479 208.733531 255.752479 
C 208.733531 255.752479 208.733531 255.752479 208.733531 255.752479 
C 208.733531 255.752479 208.733531 255.752479 208.733531 255.752479 
C 208.733531 255.752479 208.733531 255.752479 208.733531 255.752479 
z
" style="fill: #ffffff"/>
   </g>
   <g id="matplotlib.axis_1">
    <g id="xtick_1">
     <g id="line2d_1">
      <path d="M 208.733531 255.752479 
L 208.733531 76.86426 
" clip-path="url(#pa8deddc2b2)" style="fill: none; stroke: #b0b0b0; stroke-width: 0.8; stroke-linecap: square"/>
     </g>
     <g id="text_1">
      <!-- Jan -->
      <g transform="translate(201.025719 65.623635) scale(0.1 -0.1)">
       <defs>
        <path id="DejaVuSans-4a" d="M 628 4666 
L 1259 4666 
L 1259 325 
Q 1259 -519 939 -900 
Q 619 -1281 -91 -1281 
L -331 -1281 
L -331 -750 
L -134 -750 
Q 284 -750 456 -515 
Q 628 -281 628 325 
L 628 4666 
z
" transform="scale(0.015625)"/>
        <path id="DejaVuSans-61" d="M 2194 1759 
Q 1497 1759 1228 1600 
Q 959 1441 959 1056 
Q 959 750 1161 570 
Q 1363 391 1709 391 
Q 2188 391 2477 730 
Q 2766 1069 2766 1631 
L 2766 1759 
L 2194 1759 
z
M 3341 1997 
L 3341 0 
L 2766 0 
L 2766 531 
Q 2569 213 2275 61 
Q 1981 -91 1556 -91 
Q 1019 -91 701 211 
Q 384 513 384 1019 
Q 384 1609 779 1909 
Q 1175 2209 1959 2209 
L 2766 2209 
L 2766 2266 
Q 2766 2663 2505 2880 
Q 2244 3097 1772 3097 
Q 1472 3097 1187 3025 
Q 903 2953 641 2809 
L 641 3341 
Q 956 3463 1253 3523 
Q 1550 3584 1831 3584 
Q 2591 3584 2966 3190 
Q 3341 2797 3341 1997 
z
" transform="scale(0.015625)"/>
        <path id="DejaVuSans-6e" d="M 3513 2113 
L 3513 0 
L 2938 0 
L 2938 2094 
Q 2938 2591 2744 2837 
Q 2550 3084 2163 3084 
Q 1697 3084 1428 2787 
Q 1159 2491 1159 1978 
L 1159 0 
L 581 0 
L 581 3500 
L 1159 3500 
L 1159 2956 
Q 1366 3272 1645 3428 
Q 1925 3584 2291 3584 
Q 2894 3584 3203 3211 
Q 3513 2838 3513 2113 
z
" transform="scale(0.015625)"/>
       </defs>
       <use xlink:href="#DejaVuSans-4a"/>
       <use xlink:href="#DejaVuSans-61" x="29.492188"/>
       <use xlink:href="#DejaVuSans-6e" x="90.771484"/>
      </g>
     </g>
    </g>
    <g id="xtick_2">
     <g id="line2d_2">
      <path d="M 208.733531 255.752479 
L 298.177641 100.830737 
" clip-path="url(#pa8deddc2b2)" style="fill: none; stroke: #b0b0b0; stroke-width: 0.8; stroke-linecap: square"/>
     </g>
     <g id="text_2">
      <!-- Feb -->
      <g transform="translate(296.326078 91.465756) scale(0.1 -0.1)">
       <defs>
        <path id="DejaVuSans-46" d="M 628 4666 
L 3309 4666 
L 3309 4134 
L 1259 4134 
L 1259 2759 
L 3109 2759 
L 3109 2228 
L 1259 2228 
L 1259 0 
L 628 0 
L 628 4666 
z
" transform="scale(0.015625)"/>
        <path id="DejaVuSans-65" d="M 3597 1894 
L 3597 1613 
L 953 1613 
Q 991 1019 1311 708 
Q 1631 397 2203 397 
Q 2534 397 2845 478 
Q 3156 559 3463 722 
L 3463 178 
Q 3153 47 2828 -22 
Q 2503 -91 2169 -91 
Q 1331 -91 842 396 
Q 353 884 353 1716 
Q 353 2575 817 3079 
Q 1281 3584 2069 3584 
Q 2775 3584 3186 3129 
Q 3597 2675 3597 1894 
z
M 3022 2063 
Q 3016 2534 2758 2815 
Q 2500 3097 2075 3097 
Q 1594 3097 1305 2825 
Q 1016 2553 972 2059 
L 3022 2063 
z
" transform="scale(0.015625)"/>
        <path id="DejaVuSans-62" d="M 3116 1747 
Q 3116 2381 2855 2742 
Q 2594 3103 2138 3103 
Q 1681 3103 1420 2742 
Q 1159 2381 1159 1747 
Q 1159 1113 1420 752 
Q 1681 391 2138 391 
Q 2594 391 2855 752 
Q 3116 1113 3116 1747 
z
M 1159 2969 
Q 1341 3281 1617 3432 
Q 1894 3584 2278 3584 
Q 2916 3584 3314 3078 
Q 3713 2572 3713 1747 
Q 3713 922 3314 415 
Q 2916 -91 2278 -91 
Q 1894 -91 1617 61 
Q 1341 213 1159 525 
L 1159 0 
L 581 0 
L 581 4863 
L 1159 4863 
L 1159 2969 
z
" transform="scale(0.015625)"/>
       </defs>
       <use xlink:href="#DejaVuSans-46"/>
       <use xlink:href="#DejaVuSans-65" x="52.019531"/>
       <use xlink:href="#DejaVuSans-62" x="113.542969"/>
      </g>
     </g>
    </g>
    <g id="xtick_3">
     <g id="line2d_3">
      <path d="M 208.733531 255.752479 
L 363.655273 166.308369 
" clip-path="url(#pa8deddc2b2)" style="fill: none; stroke: #b0b0b0; stroke-width: 0.8; stroke-linecap: square"/>
     </g>
     <g id="text_3">
      <!-- Mar -->
      <g transform="translate(366.346035 162.067744) scale(0.1 -0.1)">
       <defs>
        <path id="DejaVuSans-4d" d="M 628 4666 
L 1569 4666 
L 2759 1491 
L 3956 4666 
L 4897 4666 
L 4897 0 
L 4281 0 
L 4281 4097 
L 3078 897 
L 2444 897 
L 1241 4097 
L 1241 0 
L 628 0 
L 628 4666 
z
" transform="scale(0.015625)"/>
        <path id="DejaVuSans-72" d="M 2631 2963 
Q 2534 3019 2420 3045 
Q 2306 3072 2169 3072 
Q 1681 3072 1420 2755 
Q 1159 2438 1159 1844 
L 1159 0 
L 581 0 
L 581 3500 
L 1159 3500 
L 1159 2956 
Q 1341 3275 1631 3429 
Q 1922 3584 2338 3584 
Q 2397 3584 2469 3576 
Q 2541 3569 2628 3553 
L 2631 2963 
z
" transform="scale(0.015625)"/>
       </defs>
       <use xlink:href="#DejaVuSans-4d"/>
       <use xlink:href="#DejaVuSans-61" x="86.279297"/>
       <use xlink:href="#DejaVuSans-72" x="147.558594"/>
      </g>
     </g>
    </g>
    <g id="xtick_4">
     <g id="line2d_4">
      <path d="M 208.733531 255.752479 
L 387.62175 255.752479 
" clip-path="url(#pa8deddc2b2)" style="fill: none; stroke: #b0b0b0; stroke-width: 0.8; stroke-linecap: square"/>
     </g>
     <g id="text_4">
      <!-- Apr -->
      <g transform="translate(392.97175 258.511854) scale(0.1 -0.1)">
       <defs>
        <path id="DejaVuSans-41" d="M 2188 4044 
L 1331 1722 
L 3047 1722 
L 2188 4044 
z
M 1831 4666 
L 2547 4666 
L 4325 0 
L 3669 0 
L 3244 1197 
L 1141 1197 
L 716 0 
L 50 0 
L 1831 4666 
z
" transform="scale(0.015625)"/>
        <path id="DejaVuSans-70" d="M 1159 525 
L 1159 -1331 
L 581 -1331 
L 581 3500 
L 1159 3500 
L 1159 2969 
Q 1341 3281 1617 3432 
Q 1894 3584 2278 3584 
Q 2916 3584 3314 3078 
Q 3713 2572 3713 1747 
Q 3713 922 3314 415 
Q 2916 -91 2278 -91 
Q 1894 -91 1617 61 
Q 1341 213 1159 525 
z
M 3116 1747 
Q 3116 2381 2855 2742 
Q 2594 3103 2138 3103 
Q 1681 3103 1420 2742 
Q 1159 2381 1159 1747 
Q 1159 1113 1420 752 
Q 1681 391 2138 391 
Q 2594 391 2855 752 
Q 3116 1113 3116 1747 
z
" transform="scale(0.015625)"/>
       </defs>
       <use xlink:href="#DejaVuSans-41"/>
       <use xlink:href="#DejaVuSans-70" x="68.408203"/>
       <use xlink:href="#DejaVuSans-72" x="131.884766"/>
      </g>
     </g>
    </g>
    <g id="xtick_5">
     <g id="line2d_5">
      <path d="M 208.733531 255.752479 
L 363.655273 345.196588 
" clip-path="url(#pa8deddc2b2)" style="fill: none; stroke: #b0b0b0; stroke-width: 0.8; stroke-linecap: square"/>
     </g>
     <g id="text_5">
      <!-- May -->
      <g transform="translate(365.442129 354.955963) scale(0.1 -0.1)">
       <defs>
        <path id="DejaVuSans-79" d="M 2059 -325 
Q 1816 -950 1584 -1140 
Q 1353 -1331 966 -1331 
L 506 -1331 
L 506 -850 
L 844 -850 
Q 1081 -850 1212 -737 
Q 1344 -625 1503 -206 
L 1606 56 
L 191 3500 
L 800 3500 
L 1894 763 
L 2988 3500 
L 3597 3500 
L 2059 -325 
z
" transform="scale(0.015625)"/>
       </defs>
       <use xlink:href="#DejaVuSans-4d"/>
       <use xlink:href="#DejaVuSans-61" x="86.279297"/>
       <use xlink:href="#DejaVuSans-79" x="147.558594"/>
      </g>
     </g>
    </g>
    <g id="xtick_6">
     <g id="line2d_6">
      <path d="M 208.733531 255.752479 
L 298.177641 410.674221 
" clip-path="url(#pa8deddc2b2)" style="fill: none; stroke: #b0b0b0; stroke-width: 0.8; stroke-linecap: square"/>
     </g>
     <g id="text_6">
      <!-- Jun -->
      <g transform="translate(297.365141 425.557951) scale(0.1 -0.1)">
       <defs>
        <path id="DejaVuSans-75" d="M 544 1381 
L 544 3500 
L 1119 3500 
L 1119 1403 
Q 1119 906 1312 657 
Q 1506 409 1894 409 
Q 2359 409 2629 706 
Q 2900 1003 2900 1516 
L 2900 3500 
L 3475 3500 
L 3475 0 
L 2900 0 
L 2900 538 
Q 2691 219 2414 64 
Q 2138 -91 1772 -91 
Q 1169 -91 856 284 
Q 544 659 544 1381 
z
M 1991 3584 
L 1991 3584 
z
" transform="scale(0.015625)"/>
       </defs>
       <use xlink:href="#DejaVuSans-4a"/>
       <use xlink:href="#DejaVuSans-75" x="29.492188"/>
       <use xlink:href="#DejaVuSans-6e" x="92.871094"/>
      </g>
     </g>
    </g>
    <g id="xtick_7">
     <g id="line2d_7">
      <path d="M 208.733531 255.752479 
L 208.733531 434.640697 
" clip-path="url(#pa8deddc2b2)" style="fill: none; stroke: #b0b0b0; stroke-width: 0.8; stroke-linecap: square"/>
     </g>
     <g id="text_7">
      <!-- Jul -->
      <g transform="translate(202.700719 451.400072) scale(0.1 -0.1)">
       <defs>
        <path id="DejaVuSans-6c" d="M 603 4863 
L 1178 4863 
L 1178 0 
L 603 0 
L 603 4863 
z
" transform="scale(0.015625)"/>
       </defs>
       <use xlink:href="#DejaVuSans-4a"/>
       <use xlink:href="#DejaVuSans-75" x="29.492188"/>
       <use xlink:href="#DejaVuSans-6c" x="92.871094"/>
      </g>
     </g>
    </g>
    <g id="xtick_8">
     <g id="line2d_8">
      <path d="M 208.733531 255.752479 
L 119.289422 410.674221 
" clip-path="url(#pa8deddc2b2)" style="fill: none; stroke: #b0b0b0; stroke-width: 0.8; stroke-linecap: square"/>
     </g>
     <g id="text_8">
      <!-- Aug -->
      <g transform="translate(102.526141 425.557951) scale(0.1 -0.1)">
       <defs>
        <path id="DejaVuSans-67" d="M 2906 1791 
Q 2906 2416 2648 2759 
Q 2391 3103 1925 3103 
Q 1463 3103 1205 2759 
Q 947 2416 947 1791 
Q 947 1169 1205 825 
Q 1463 481 1925 481 
Q 2391 481 2648 825 
Q 2906 1169 2906 1791 
z
M 3481 434 
Q 3481 -459 3084 -895 
Q 2688 -1331 1869 -1331 
Q 1566 -1331 1297 -1286 
Q 1028 -1241 775 -1147 
L 775 -588 
Q 1028 -725 1275 -790 
Q 1522 -856 1778 -856 
Q 2344 -856 2625 -561 
Q 2906 -266 2906 331 
L 2906 616 
Q 2728 306 2450 153 
Q 2172 0 1784 0 
Q 1141 0 747 490 
Q 353 981 353 1791 
Q 353 2603 747 3093 
Q 1141 3584 1784 3584 
Q 2172 3584 2450 3431 
Q 2728 3278 2906 2969 
L 2906 3500 
L 3481 3500 
L 3481 434 
z
" transform="scale(0.015625)"/>
       </defs>
       <use xlink:href="#DejaVuSans-41"/>
       <use xlink:href="#DejaVuSans-75" x="68.408203"/>
       <use xlink:href="#DejaVuSans-67" x="131.787109"/>
      </g>
     </g>
    </g>
    <g id="xtick_9">
     <g id="line2d_9">
      <path d="M 208.733531 255.752479 
L 53.811789 345.196588 
" clip-path="url(#pa8deddc2b2)" style="fill: none; stroke: #b0b0b0; stroke-width: 0.8; stroke-linecap: square"/>
     </g>
     <g id="text_9">
      <!-- Sept -->
      <g transform="translate(30.302277 354.955963) scale(0.1 -0.1)">
       <defs>
        <path id="DejaVuSans-53" d="M 3425 4513 
L 3425 3897 
Q 3066 4069 2747 4153 
Q 2428 4238 2131 4238 
Q 1616 4238 1336 4038 
Q 1056 3838 1056 3469 
Q 1056 3159 1242 3001 
Q 1428 2844 1947 2747 
L 2328 2669 
Q 3034 2534 3370 2195 
Q 3706 1856 3706 1288 
Q 3706 609 3251 259 
Q 2797 -91 1919 -91 
Q 1588 -91 1214 -16 
Q 841 59 441 206 
L 441 856 
Q 825 641 1194 531 
Q 1563 422 1919 422 
Q 2459 422 2753 634 
Q 3047 847 3047 1241 
Q 3047 1584 2836 1778 
Q 2625 1972 2144 2069 
L 1759 2144 
Q 1053 2284 737 2584 
Q 422 2884 422 3419 
Q 422 4038 858 4394 
Q 1294 4750 2059 4750 
Q 2388 4750 2728 4690 
Q 3069 4631 3425 4513 
z
" transform="scale(0.015625)"/>
        <path id="DejaVuSans-74" d="M 1172 4494 
L 1172 3500 
L 2356 3500 
L 2356 3053 
L 1172 3053 
L 1172 1153 
Q 1172 725 1289 603 
Q 1406 481 1766 481 
L 2356 481 
L 2356 0 
L 1766 0 
Q 1100 0 847 248 
Q 594 497 594 1153 
L 594 3053 
L 172 3053 
L 172 3500 
L 594 3500 
L 594 4494 
L 1172 4494 
z
" transform="scale(0.015625)"/>
       </defs>
       <use xlink:href="#DejaVuSans-53"/>
       <use xlink:href="#DejaVuSans-65" x="63.476562"/>
       <use xlink:href="#DejaVuSans-70" x="125"/>
       <use xlink:href="#DejaVuSans-74" x="188.476562"/>
      </g>
     </g>
    </g>
    <g id="xtick_10">
     <g id="line2d_10">
      <path d="M 208.733531 255.752479 
L 29.845313 255.752479 
" clip-path="url(#pa8deddc2b2)" style="fill: none; stroke: #b0b0b0; stroke-width: 0.8; stroke-linecap: square"/>
     </g>
     <g id="text_10">
      <!-- Oct -->
      <g transform="translate(7.2 258.511854) scale(0.1 -0.1)">
       <defs>
        <path id="DejaVuSans-4f" d="M 2522 4238 
Q 1834 4238 1429 3725 
Q 1025 3213 1025 2328 
Q 1025 1447 1429 934 
Q 1834 422 2522 422 
Q 3209 422 3611 934 
Q 4013 1447 4013 2328 
Q 4013 3213 3611 3725 
Q 3209 4238 2522 4238 
z
M 2522 4750 
Q 3503 4750 4090 4092 
Q 4678 3434 4678 2328 
Q 4678 1225 4090 567 
Q 3503 -91 2522 -91 
Q 1538 -91 948 565 
Q 359 1222 359 2328 
Q 359 3434 948 4092 
Q 1538 4750 2522 4750 
z
" transform="scale(0.015625)"/>
        <path id="DejaVuSans-63" d="M 3122 3366 
L 3122 2828 
Q 2878 2963 2633 3030 
Q 2388 3097 2138 3097 
Q 1578 3097 1268 2742 
Q 959 2388 959 1747 
Q 959 1106 1268 751 
Q 1578 397 2138 397 
Q 2388 397 2633 464 
Q 2878 531 3122 666 
L 3122 134 
Q 2881 22 2623 -34 
Q 2366 -91 2075 -91 
Q 1284 -91 818 406 
Q 353 903 353 1747 
Q 353 2603 823 3093 
Q 1294 3584 2113 3584 
Q 2378 3584 2631 3529 
Q 2884 3475 3122 3366 
z
" transform="scale(0.015625)"/>
       </defs>
       <use xlink:href="#DejaVuSans-4f"/>
       <use xlink:href="#DejaVuSans-63" x="78.710938"/>
       <use xlink:href="#DejaVuSans-74" x="133.691406"/>
      </g>
     </g>
    </g>
    <g id="xtick_11">
     <g id="line2d_11">
      <path d="M 208.733531 255.752479 
L 53.811789 166.308369 
" clip-path="url(#pa8deddc2b2)" style="fill: none; stroke: #b0b0b0; stroke-width: 0.8; stroke-linecap: square"/>
     </g>
     <g id="text_11">
      <!-- Nov -->
      <g transform="translate(31.928059 162.067744) scale(0.1 -0.1)">
       <defs>
        <path id="DejaVuSans-4e" d="M 628 4666 
L 1478 4666 
L 3547 763 
L 3547 4666 
L 4159 4666 
L 4159 0 
L 3309 0 
L 1241 3903 
L 1241 0 
L 628 0 
L 628 4666 
z
" transform="scale(0.015625)"/>
        <path id="DejaVuSans-6f" d="M 1959 3097 
Q 1497 3097 1228 2736 
Q 959 2375 959 1747 
Q 959 1119 1226 758 
Q 1494 397 1959 397 
Q 2419 397 2687 759 
Q 2956 1122 2956 1747 
Q 2956 2369 2687 2733 
Q 2419 3097 1959 3097 
z
M 1959 3584 
Q 2709 3584 3137 3096 
Q 3566 2609 3566 1747 
Q 3566 888 3137 398 
Q 2709 -91 1959 -91 
Q 1206 -91 779 398 
Q 353 888 353 1747 
Q 353 2609 779 3096 
Q 1206 3584 1959 3584 
z
" transform="scale(0.015625)"/>
        <path id="DejaVuSans-76" d="M 191 3500 
L 800 3500 
L 1894 563 
L 2988 3500 
L 3597 3500 
L 2284 0 
L 1503 0 
L 191 3500 
z
" transform="scale(0.015625)"/>
       </defs>
       <use xlink:href="#DejaVuSans-4e"/>
       <use xlink:href="#DejaVuSans-6f" x="74.804688"/>
       <use xlink:href="#DejaVuSans-76" x="135.986328"/>
      </g>
     </g>
    </g>
    <g id="xtick_12">
     <g id="line2d_12">
      <path d="M 208.733531 255.752479 
L 119.289422 100.830737 
" clip-path="url(#pa8deddc2b2)" style="fill: none; stroke: #b0b0b0; stroke-width: 0.8; stroke-linecap: square"/>
     </g>
     <g id="text_12">
      <!-- Dec -->
      <g transform="translate(102.613641 91.465756) scale(0.1 -0.1)">
       <defs>
        <path id="DejaVuSans-44" d="M 1259 4147 
L 1259 519 
L 2022 519 
Q 2988 519 3436 956 
Q 3884 1394 3884 2338 
Q 3884 3275 3436 3711 
Q 2988 4147 2022 4147 
L 1259 4147 
z
M 628 4666 
L 1925 4666 
Q 3281 4666 3915 4102 
Q 4550 3538 4550 2338 
Q 4550 1131 3912 565 
Q 3275 0 1925 0 
L 628 0 
L 628 4666 
z
" transform="scale(0.015625)"/>
       </defs>
       <use xlink:href="#DejaVuSans-44"/>
       <use xlink:href="#DejaVuSans-65" x="77.001953"/>
       <use xlink:href="#DejaVuSans-63" x="138.525391"/>
      </g>
     </g>
    </g>
   </g>
   <g id="matplotlib.axis_2">
    <g id="ytick_1">
     <g id="line2d_13">
      <path d="M 208.733531 221.506979 
C 213.230609 221.506979 217.683959 222.392805 221.838717 224.113762 
C 225.993475 225.834719 229.768842 228.357339 232.948757 231.537253 
C 236.128671 234.717168 238.651291 238.492535 240.372248 242.647293 
C 242.093205 246.802051 242.979031 251.255401 242.979031 255.752479 
C 242.979031 260.249557 242.093205 264.702906 240.372248 268.857664 
C 238.651291 273.012422 236.128671 276.78779 232.948757 279.967704 
C 229.768842 283.147618 225.993475 285.670238 221.838717 287.391195 
C 217.683959 289.112152 213.230609 289.997979 208.733531 289.997979 
C 204.236453 289.997979 199.783104 289.112152 195.628346 287.391195 
C 191.473588 285.670238 187.69822 283.147618 184.518306 279.967704 
C 181.338392 276.78779 178.815772 273.012422 177.094815 268.857664 
C 175.373858 264.702906 174.488031 260.249557 174.488031 255.752479 
C 174.488031 251.255401 175.373858 246.802051 177.094815 242.647293 
C 178.815772 238.492535 181.338392 234.717168 184.518306 231.537253 
C 187.69822 228.357339 191.473588 225.834719 195.628346 224.113762 
C 199.783104 222.392805 204.236453 221.506979 208.733531 221.506979 
" clip-path="url(#pa8deddc2b2)" style="fill: none; stroke: #b0b0b0; stroke-width: 0.8; stroke-linecap: square"/>
     </g>
     <g id="text_13">
      <!-- 1000 -->
      <g transform="translate(208.733531 287.918291) scale(0.1 -0.1)">
       <defs>
        <path id="DejaVuSans-31" d="M 794 531 
L 1825 531 
L 1825 4091 
L 703 3866 
L 703 4441 
L 1819 4666 
L 2450 4666 
L 2450 531 
L 3481 531 
L 3481 0 
L 794 0 
L 794 531 
z
" transform="scale(0.015625)"/>
        <path id="DejaVuSans-30" d="M 2034 4250 
Q 1547 4250 1301 3770 
Q 1056 3291 1056 2328 
Q 1056 1369 1301 889 
Q 1547 409 2034 409 
Q 2525 409 2770 889 
Q 3016 1369 3016 2328 
Q 3016 3291 2770 3770 
Q 2525 4250 2034 4250 
z
M 2034 4750 
Q 2819 4750 3233 4129 
Q 3647 3509 3647 2328 
Q 3647 1150 3233 529 
Q 2819 -91 2034 -91 
Q 1250 -91 836 529 
Q 422 1150 422 2328 
Q 422 3509 836 4129 
Q 1250 4750 2034 4750 
z
" transform="scale(0.015625)"/>
       </defs>
       <use xlink:href="#DejaVuSans-31"/>
       <use xlink:href="#DejaVuSans-30" x="63.623047"/>
       <use xlink:href="#DejaVuSans-30" x="127.246094"/>
       <use xlink:href="#DejaVuSans-30" x="190.869141"/>
      </g>
     </g>
    </g>
    <g id="ytick_2">
     <g id="line2d_14">
      <path d="M 208.733531 187.261478 
C 217.727687 187.261478 226.634386 189.033131 234.943902 192.475045 
C 243.253419 195.91696 250.804154 200.962199 257.163982 207.322028 
C 263.523811 213.681856 268.56905 221.232591 272.010965 229.542108 
C 275.452879 237.851624 277.224532 246.758323 277.224532 255.752479 
C 277.224532 264.746634 275.452879 273.653333 272.010965 281.96285 
C 268.56905 290.272366 263.523811 297.823101 257.163982 304.182929 
C 250.804154 310.542758 243.253419 315.587998 234.943902 319.029912 
C 226.634386 322.471826 217.727687 324.243479 208.733531 324.243479 
C 199.739376 324.243479 190.832677 322.471826 182.52316 319.029912 
C 174.213644 315.587998 166.662909 310.542758 160.303081 304.182929 
C 153.943252 297.823101 148.898012 290.272366 145.456098 281.96285 
C 142.014184 273.653333 140.242531 264.746634 140.242531 255.752479 
C 140.242531 246.758323 142.014184 237.851624 145.456098 229.542108 
C 148.898012 221.232591 153.943252 213.681856 160.303081 207.322028 
C 166.662909 200.962199 174.213644 195.91696 182.52316 192.475045 
C 190.832677 189.033131 199.739376 187.261478 208.733531 187.261478 
" clip-path="url(#pa8deddc2b2)" style="fill: none; stroke: #b0b0b0; stroke-width: 0.8; stroke-linecap: square"/>
     </g>
     <g id="text_14">
      <!-- 2000 -->
      <g transform="translate(208.733531 322.163791) scale(0.1 -0.1)">
       <defs>
        <path id="DejaVuSans-32" d="M 1228 531 
L 3431 531 
L 3431 0 
L 469 0 
L 469 531 
Q 828 903 1448 1529 
Q 2069 2156 2228 2338 
Q 2531 2678 2651 2914 
Q 2772 3150 2772 3378 
Q 2772 3750 2511 3984 
Q 2250 4219 1831 4219 
Q 1534 4219 1204 4116 
Q 875 4013 500 3803 
L 500 4441 
Q 881 4594 1212 4672 
Q 1544 4750 1819 4750 
Q 2544 4750 2975 4387 
Q 3406 4025 3406 3419 
Q 3406 3131 3298 2873 
Q 3191 2616 2906 2266 
Q 2828 2175 2409 1742 
Q 1991 1309 1228 531 
z
" transform="scale(0.015625)"/>
       </defs>
       <use xlink:href="#DejaVuSans-32"/>
       <use xlink:href="#DejaVuSans-30" x="63.623047"/>
       <use xlink:href="#DejaVuSans-30" x="127.246094"/>
       <use xlink:href="#DejaVuSans-30" x="190.869141"/>
      </g>
     </g>
    </g>
    <g id="ytick_3">
     <g id="line2d_15">
      <path d="M 208.733531 153.015978 
C 222.224765 153.015978 235.584813 155.673457 248.049088 160.836329 
C 260.513362 165.9992 271.839465 173.56706 281.379207 183.106803 
C 290.91895 192.646545 298.48681 203.972648 303.649681 216.436922 
C 308.812553 228.901197 311.470032 242.261245 311.470032 255.752479 
C 311.470032 269.243712 308.812553 282.603761 303.649681 295.068035 
C 298.48681 307.53231 290.91895 318.858412 281.379207 328.398155 
C 271.839465 337.937897 260.513362 345.505757 248.049088 350.668629 
C 235.584813 355.8315 222.224765 358.488979 208.733531 358.488979 
C 195.242298 358.488979 181.882249 355.8315 169.417975 350.668629 
C 156.9537 345.505757 145.627598 337.937897 136.087855 328.398155 
C 126.548113 318.858412 118.980253 307.53231 113.817381 295.068035 
C 108.65451 282.603761 105.997031 269.243712 105.997031 255.752479 
C 105.997031 242.261245 108.65451 228.901197 113.817381 216.436922 
C 118.980253 203.972648 126.548113 192.646545 136.087855 183.106803 
C 145.627598 173.56706 156.9537 165.9992 169.417975 160.836329 
C 181.882249 155.673457 195.242298 153.015978 208.733531 153.015978 
" clip-path="url(#pa8deddc2b2)" style="fill: none; stroke: #b0b0b0; stroke-width: 0.8; stroke-linecap: square"/>
     </g>
     <g id="text_15">
      <!-- 3000 -->
      <g transform="translate(208.733531 356.409291) scale(0.1 -0.1)">
       <defs>
        <path id="DejaVuSans-33" d="M 2597 2516 
Q 3050 2419 3304 2112 
Q 3559 1806 3559 1356 
Q 3559 666 3084 287 
Q 2609 -91 1734 -91 
Q 1441 -91 1130 -33 
Q 819 25 488 141 
L 488 750 
Q 750 597 1062 519 
Q 1375 441 1716 441 
Q 2309 441 2620 675 
Q 2931 909 2931 1356 
Q 2931 1769 2642 2001 
Q 2353 2234 1838 2234 
L 1294 2234 
L 1294 2753 
L 1863 2753 
Q 2328 2753 2575 2939 
Q 2822 3125 2822 3475 
Q 2822 3834 2567 4026 
Q 2313 4219 1838 4219 
Q 1578 4219 1281 4162 
Q 984 4106 628 3988 
L 628 4550 
Q 988 4650 1302 4700 
Q 1616 4750 1894 4750 
Q 2613 4750 3031 4423 
Q 3450 4097 3450 3541 
Q 3450 3153 3228 2886 
Q 3006 2619 2597 2516 
z
" transform="scale(0.015625)"/>
       </defs>
       <use xlink:href="#DejaVuSans-33"/>
       <use xlink:href="#DejaVuSans-30" x="63.623047"/>
       <use xlink:href="#DejaVuSans-30" x="127.246094"/>
       <use xlink:href="#DejaVuSans-30" x="190.869141"/>
      </g>
     </g>
    </g>
    <g id="ytick_4">
     <g id="line2d_16">
      <path d="M 208.733531 118.770478 
C 226.721843 118.770478 244.535241 122.313783 261.154273 129.197612 
C 277.773306 136.081441 292.874776 146.17192 305.594433 158.891577 
C 318.31409 171.611234 328.404569 186.712704 335.288398 203.331737 
C 342.172227 219.950769 345.715532 237.764167 345.715532 255.752479 
C 345.715532 273.74079 342.172227 291.554188 335.288398 308.173221 
C 328.404569 324.792254 318.31409 339.893723 305.594433 352.61338 
C 292.874776 365.333037 277.773306 375.423516 261.154273 382.307345 
C 244.535241 389.191174 226.721843 392.734479 208.733531 392.734479 
C 190.74522 392.734479 172.931822 389.191174 156.312789 382.307345 
C 139.693756 375.423516 124.592287 365.333037 111.87263 352.61338 
C 99.152973 339.893723 89.062494 324.792254 82.178665 308.173221 
C 75.294836 291.554188 71.751531 273.74079 71.751531 255.752479 
C 71.751531 237.764167 75.294836 219.950769 82.178665 203.331737 
C 89.062494 186.712704 99.152973 171.611234 111.87263 158.891577 
C 124.592287 146.17192 139.693756 136.081441 156.312789 129.197612 
C 172.931822 122.313783 190.74522 118.770478 208.733531 118.770478 
" clip-path="url(#pa8deddc2b2)" style="fill: none; stroke: #b0b0b0; stroke-width: 0.8; stroke-linecap: square"/>
     </g>
     <g id="text_16">
      <!-- 4000 -->
      <g transform="translate(208.733531 390.654792) scale(0.1 -0.1)">
       <defs>
        <path id="DejaVuSans-34" d="M 2419 4116 
L 825 1625 
L 2419 1625 
L 2419 4116 
z
M 2253 4666 
L 3047 4666 
L 3047 1625 
L 3713 1625 
L 3713 1100 
L 3047 1100 
L 3047 0 
L 2419 0 
L 2419 1100 
L 313 1100 
L 313 1709 
L 2253 4666 
z
" transform="scale(0.015625)"/>
       </defs>
       <use xlink:href="#DejaVuSans-34"/>
       <use xlink:href="#DejaVuSans-30" x="63.623047"/>
       <use xlink:href="#DejaVuSans-30" x="127.246094"/>
       <use xlink:href="#DejaVuSans-30" x="190.869141"/>
      </g>
     </g>
    </g>
    <g id="ytick_5">
     <g id="line2d_17">
      <path d="M 208.733531 84.524978 
C 231.218921 84.524978 253.485668 88.95411 274.259459 97.558896 
C 295.03325 106.163682 313.910087 118.776781 329.809658 134.676352 
C 345.709229 150.575923 358.322328 169.45276 366.927114 190.226551 
C 375.5319 211.000342 379.961032 233.267089 379.961032 255.752479 
C 379.961032 278.237868 375.5319 300.504615 366.927114 321.278406 
C 358.322328 342.052197 345.709229 360.929034 329.809658 376.828605 
C 313.910087 392.728177 295.03325 405.341276 274.259459 413.946062 
C 253.485668 422.550848 231.218921 426.979979 208.733531 426.979979 
C 186.248142 426.979979 163.981395 422.550848 143.207604 413.946062 
C 122.433813 405.341276 103.556976 392.728177 87.657405 376.828605 
C 71.757833 360.929034 59.144734 342.052197 50.539948 321.278406 
C 41.935162 300.504615 37.506031 278.237868 37.506031 255.752479 
C 37.506031 233.267089 41.935162 211.000342 50.539948 190.226551 
C 59.144734 169.45276 71.757833 150.575923 87.657405 134.676352 
C 103.556976 118.776781 122.433813 106.163682 143.207604 97.558896 
C 163.981395 88.95411 186.248142 84.524978 208.733531 84.524978 
" clip-path="url(#pa8deddc2b2)" style="fill: none; stroke: #b0b0b0; stroke-width: 0.8; stroke-linecap: square"/>
     </g>
     <g id="text_17">
      <!-- 5000 -->
      <g transform="translate(208.733531 424.900292) scale(0.1 -0.1)">
       <defs>
        <path id="DejaVuSans-35" d="M 691 4666 
L 3169 4666 
L 3169 4134 
L 1269 4134 
L 1269 2991 
Q 1406 3038 1543 3061 
Q 1681 3084 1819 3084 
Q 2600 3084 3056 2656 
Q 3513 2228 3513 1497 
Q 3513 744 3044 326 
Q 2575 -91 1722 -91 
Q 1428 -91 1123 -41 
Q 819 9 494 109 
L 494 744 
Q 775 591 1075 516 
Q 1375 441 1709 441 
Q 2250 441 2565 725 
Q 2881 1009 2881 1497 
Q 2881 1984 2565 2268 
Q 2250 2553 1709 2553 
Q 1456 2553 1204 2497 
Q 953 2441 691 2322 
L 691 4666 
z
" transform="scale(0.015625)"/>
       </defs>
       <use xlink:href="#DejaVuSans-35"/>
       <use xlink:href="#DejaVuSans-30" x="63.623047"/>
       <use xlink:href="#DejaVuSans-30" x="127.246094"/>
       <use xlink:href="#DejaVuSans-30" x="190.869141"/>
      </g>
     </g>
    </g>
   </g>
   <g id="line2d_18">
    <path d="M 208.733531 154.83099 
L 221.273906 152.473202 
L 233.410135 155.63556 
L 246.160173 157.066534 
L 259.533182 158.961832 
L 269.876389 167.171757 
L 277.609828 178.007211 
L 291.041495 182.833985 
L 298.075207 194.084372 
L 308.58679 203.345446 
L 306.042612 218.848012 
L 309.74821 230.854596 
L 312.998686 243.092397 
L 310.579649 255.752479 
L 312.72672 268.379538 
L 303.796391 279.183369 
L 296.052341 288.868135 
L 286.360115 296.494053 
L 283.476158 307.343589 
L 274.636295 314.137233 
L 265.48324 319.809658 
L 259.332504 329.057747 
L 249.745655 333.894552 
L 239.068298 335.738686 
L 229.541867 340.175214 
L 219.024234 340.504038 
L 208.733531 342.49633 
L 198.57492 339.416172 
L 188.343166 338.479444 
L 175.654306 342.975228 
L 169.169643 331.135169 
L 162.258734 323.082846 
L 153.278234 318.34857 
L 147.162765 310.299418 
L 140.07854 303.141598 
L 133.623747 295.173135 
L 134.735083 283.816388 
L 125.674062 276.224799 
L 128.197453 265.531329 
L 120.517123 255.752479 
L 120.208437 245.003586 
L 124.177794 234.911361 
L 122.951687 223.219716 
L 133.86633 216.45914 
L 138.190246 207.059964 
L 142.830767 197.367724 
L 150.485031 190.003513 
L 155.372138 178.445154 
L 167.387199 176.973625 
L 177.281551 172.820423 
L 185.892716 163.083647 
L 197.369591 162.162009 
L 208.733531 161.029425 
" clip-path="url(#pa8deddc2b2)" style="fill: none; stroke: #1f77b4; stroke-width: 0.1; stroke-linecap: square"/>
   </g>
   <g id="line2d_19">
    <path d="M 208.733531 161.029425 
L 220.369909 159.918285 
L 231.189159 164.646415 
L 241.642746 168.978011 
L 251.830478 173.638108 
L 264.273734 175.288603 
L 272.227803 184.082261 
L 279.301524 193.234692 
L 285.195351 202.974695 
L 292.515661 211.780225 
L 297.429205 222.114647 
L 297.246064 233.936099 
L 300.182265 244.648592 
L 301.4361 255.752479 
L 296.850676 266.451837 
L 295.483794 277.134498 
L 292.305989 287.447331 
L 285.389783 295.984783 
L 282.517919 306.682164 
L 275.892319 315.249972 
L 266.845778 321.347645 
L 257.581675 326.521232 
L 248.50431 331.529367 
L 238.218245 333.497279 
L 228.746905 336.949926 
L 218.982955 340.164079 
L 208.733531 346.60579 
L 198.129113 343.087719 
L 185.712415 349.152819 
L 176.443641 340.893921 
L 168.930923 331.590013 
L 159.321232 327.338554 
L 153.709704 317.86154 
L 145.214648 312.025299 
L 133.258134 307.849384 
L 128.984345 297.60808 
L 127.754701 286.463698 
L 122.482025 277.011566 
L 124.321931 266.001903 
L 118.359657 255.752479 
L 119.834483 244.95818 
L 120.753004 234.067226 
L 126.698038 224.64052 
L 128.468856 213.626327 
L 134.047272 204.200276 
L 137.499077 192.644259 
L 145.67073 184.569291 
L 154.613445 177.345998 
L 163.090236 168.786446 
L 171.124735 156.586233 
L 183.08986 151.712014 
L 196.506873 155.056884 
L 208.733531 144.283376 
" clip-path="url(#pa8deddc2b2)" style="fill: none; stroke: #ff7f0e; stroke-width: 0.2; stroke-linecap: square"/>
   </g>
   <g id="line2d_20">
    <path d="M 208.733531 144.283376 
L 222.622092 139.148873 
L 235.897411 143.340892 
L 248.71584 148.113114 
L 260.681295 154.541929 
L 271.330614 162.816513 
L 282.754975 169.860664 
L 294.162846 177.600223 
L 297.965162 191.726572 
L 305.36125 202.481669 
L 306.667584 216.034413 
L 309.554605 228.203069 
L 313.189154 240.159064 
L 305.913809 252.871438 
L 307.243861 264.534482 
L 305.681307 276.15924 
L 300.511001 286.780389 
L 291.404956 295.13461 
L 288.10702 305.860833 
L 281.091582 314.465328 
L 269.942224 318.802678 
L 264.008795 328.158178 
L 253.925203 332.270904 
L 245.731369 339.742658 
L 234.327703 339.565947 
L 224.162483 341.600307 
L 214.51134 353.112372 
L 203.48522 344.189994 
L 193.183426 342.274416 
L 183.249378 339.20567 
L 174.358674 333.788131 
L 164.430019 330.767074 
L 156.18047 324.592334 
L 148.645964 317.647822 
L 141.534415 310.279259 
L 136.049308 301.63791 
L 128.380864 294.030025 
L 123.314628 284.6307 
L 118.823099 274.677934 
L 115.203294 264.090516 
L 116.653592 253.022645 
L 116.877614 242.039982 
L 115.180031 230.188937 
L 119.114035 219.406459 
L 128.000502 211.244403 
L 136.418905 203.864941 
L 137.833012 190.891423 
L 147.902257 185.166062 
L 155.950722 177.387464 
L 164.260491 169.105036 
L 174.37951 163.26545 
L 187.884027 169.47151 
L 196.906586 156.457487 
L 208.733531 147.091507 
" clip-path="url(#pa8deddc2b2)" style="fill: none; stroke: #2ca02c; stroke-width: 0.3; stroke-linecap: square"/>
   </g>
   <g id="line2d_21">
    <path d="M 208.733531 147.091507 
L 221.426636 151.215357 
L 233.828105 153.93979 
L 247.605264 153.256142 
L 258.116775 161.660568 
L 267.794847 170.187391 
L 277.473575 178.16101 
L 293.809873 180.381417 
L 298.49796 193.792567 
L 304.28094 205.60533 
L 306.779074 218.568709 
L 309.415707 230.936551 
L 311.978812 243.216232 
L 311.812487 255.752479 
L 302.799943 267.174209 
L 300.205349 278.298257 
L 296.532642 289.050289 
L 292.242755 299.5815 
L 291.931206 313.179687 
L 277.199608 316.40813 
L 270.342959 325.295147 
L 260.908251 331.34061 
L 249.904802 334.197781 
L 240.54982 339.645138 
L 230.017205 342.103737 
L 219.503063 344.447552 
L 208.733531 347.97561 
L 197.889699 345.059476 
L 186.171362 347.290797 
L 177.864445 337.14757 
L 168.946838 331.55969 
L 158.971066 327.845856 
L 150.416904 321.578343 
L 139.498461 317.089399 
L 135.710098 306.156915 
L 130.379198 296.876005 
L 121.478762 288.843848 
L 125.607561 276.24119 
L 118.134693 266.753169 
L 116.852855 255.752479 
L 108.989819 243.641399 
L 117.494466 233.264069 
L 114.33828 219.953082 
L 125.921734 212.289495 
L 126.663197 199.103417 
L 134.346203 189.851056 
L 142.695855 181.211351 
L 151.364684 172.639355 
L 160.321083 163.510264 
L 170.736139 155.561589 
L 183.557003 153.607286 
L 194.991956 142.580421 
L 208.733531 133.564534 
" clip-path="url(#pa8deddc2b2)" style="fill: none; stroke: #d62728; stroke-width: 0.4; stroke-linecap: square"/>
   </g>
   <g id="line2d_22">
    <path d="M 208.733531 133.564534 
L 223.746481 132.109711 
L 237.311186 139.808375 
L 252.766304 139.6476 
L 265.612588 147.37849 
L 275.770848 158.632158 
L 286.330072 168.164091 
L 294.040571 180.177036 
L 297.567905 194.434538 
L 301.33962 207.149054 
L 299.766672 221.228162 
L 301.103109 232.985422 
L 305.621595 243.988138 
L 303.388094 255.752479 
L 304.261763 267.351706 
L 298.941834 277.986828 
L 297.685366 289.48746 
L 292.697598 299.82022 
L 287.703682 310.261638 
L 280.531914 319.360295 
L 271.682788 326.807501 
L 261.277871 331.876096 
L 250.493645 335.319727 
L 240.829123 340.3816 
L 230.263069 343.101248 
L 219.841546 347.235208 
L 208.733531 348.112592 
L 198.331377 341.421924 
L 186.818806 344.664016 
L 177.51228 338.076153 
L 168.787691 331.862919 
L 157.045153 330.636022 
L 151.052755 320.860616 
L 143.497228 313.5468 
L 136.132851 305.86511 
L 130.803718 296.6532 
L 122.055124 288.625263 
L 118.458728 278.003219 
L 117.99871 266.769681 
L 118.291166 255.752479 
L 114.803103 244.34726 
L 118.757981 233.575497 
L 123.047747 223.256147 
L 126.073348 212.369068 
L 129.904298 201.340588 
L 133.987339 189.533131 
L 142.491474 180.980653 
L 152.590265 174.414915 
L 160.559803 163.965108 
L 169.655357 152.711801 
L 183.499634 153.374534 
L 195.578109 147.407826 
L 208.733531 141.269772 
" clip-path="url(#pa8deddc2b2)" style="fill: none; stroke: #9467bd; stroke-width: 0.5; stroke-linecap: square"/>
   </g>
   <g id="line2d_23">
    <path d="M 208.733531 141.269772 
L 222.598942 141.560547 
L 236.303142 143.898173 
L 249.074643 149.38171 
L 262.891179 152.563703 
L 277.074244 156.743864 
L 291.848351 161.935242 
L 303.345395 171.933681 
L 319.691947 179.163414 
L 332.814774 190.629619 
L 328.26456 210.420339 
L 322.782363 227.641966 
L 318.370025 242.440198 
L 312.839852 255.752479 
L 305.961553 267.558098 
L 300.504602 278.372016 
L 294.003055 288.090943 
L 288.937561 297.8468 
L 283.166139 307.129598 
L 275.533455 314.932047 
L 269.457309 324.295455 
L 262.736895 333.989858 
L 251.368952 336.987486 
L 239.784772 337.627871 
L 230.049987 342.236738 
L 219.544341 344.78751 
L 208.733531 349.105712 
L 197.708074 346.555292 
L 186.572941 345.661528 
L 175.13213 344.352092 
L 164.809022 339.44364 
L 155.333231 333.11617 
L 149.576672 322.526769 
L 141.779809 315.068301 
L 137.513842 304.911881 
L 129.499834 297.337531 
L 127.4345 286.585134 
L 118.757981 277.92946 
L 117.080823 266.881132 
L 112.640658 255.752479 
L 114.905091 244.359643 
L 117.660718 233.305046 
L 123.207847 223.316865 
L 123.374612 210.952662 
L 129.876115 201.321134 
L 137.960474 193.053021 
L 143.808595 182.467375 
L 152.181738 173.823061 
L 161.498769 165.754158 
L 172.096225 159.147841 
L 183.811063 154.638048 
L 196.758671 157.130629 
L 208.733531 150.892757 
" clip-path="url(#pa8deddc2b2)" style="fill: none; stroke: #8c564b; stroke-width: 0.6; stroke-linecap: square"/>
   </g>
   <g id="line2d_24">
    <path d="M 208.733531 150.892757 
L 222.198542 144.85814 
L 234.565699 150.947255 
L 247.338105 153.960584 
L 258.689704 160.568944 
L 270.654535 166.044417 
L 282.62851 172.34229 
L 291.272194 182.629605 
L 295.115941 196.127007 
L 304.917721 205.271122 
L 311.99835 216.589299 
L 309.914462 230.813619 
L 311.162912 243.3153 
L 307.976991 255.752479 
L 307.389377 267.731467 
L 309.68171 280.63397 
L 303.384943 291.649024 
L 293.819545 300.409064 
L 286.858177 309.678028 
L 281.044577 319.814475 
L 273.976394 329.396446 
L 261.842027 332.693417 
L 252.244259 338.655245 
L 240.877698 340.50968 
L 230.795776 345.262523 
L 220.440082 352.164601 
L 208.733531 349.071466 
L 197.336568 349.614915 
L 187.540008 341.737982 
L 172.229805 352.004896 
L 165.270547 338.564276 
L 157.589856 329.846885 
L 149.395 322.731834 
L 141.651643 315.181845 
L 130.298867 309.892018 
L 131.319207 296.38265 
L 124.13643 287.835927 
L 122.94753 276.896829 
L 115.211053 267.108163 
L 115.688508 255.752479 
L 109.737727 243.732212 
L 113.005664 232.157678 
L 116.931908 220.936715 
L 122.131373 210.30016 
L 123.760297 197.09969 
L 130.296169 186.263039 
L 140.084324 178.263542 
L 149.497133 169.933739 
L 160.703035 164.238014 
L 170.347543 154.536946 
L 182.07362 147.588966 
L 196.234435 152.81316 
L 208.733531 149.488692 
" clip-path="url(#pa8deddc2b2)" style="fill: none; stroke: #e377c2; stroke-width: 0.7; stroke-linecap: square"/>
   </g>
   <g id="line2d_25">
    <path d="M 208.733531 149.488692 
L 222.358821 141.359207 
L 234.127777 150.664123 
L 245.055068 157.968553 
L 258.210571 159.355675 
L 269.876648 164.975172 
L 280.228723 172.792037 
L 283.499974 187.354808 
L 294.932344 193.902694 
L 301.912402 204.383017 
L 310.856597 214.33552 
L 328.119954 223.130078 
L 359.726775 233.211803 
L 382.795424 250.592179 
L 378.670672 270.902042 
L 353.099593 286.140425 
L 335.58044 298.636582 
L 313.324941 305.576619 
L 295.288569 310.394533 
L 282.580759 315.673677 
L 274.808387 323.815242 
L 265.504968 330.118032 
L 255.4403 334.836262 
L 245.855616 340.024715 
L 235.697926 344.05303 
L 224.840945 345.375319 
L 214.085308 345.933447 
L 203.420301 345.283926 
L 193.419676 340.959903 
L 181.999174 343.299724 
L 171.928966 339.303904 
L 162.723359 333.656787 
L 142.049952 343.102061 
L 140.607255 325.928382 
L 136.003186 314.767415 
L 130.778978 304.965061 
L 123.959767 296.136101 
L 120.459762 285.595866 
L 111.852778 276.145132 
L 106.334636 264.88114 
L 105.289079 252.685728 
L 99.603825 239.461304 
L 94.830824 224.628506 
L 91.726774 208.299301 
L 101.099489 196.413889 
L 109.123542 184.279841 
L 124.46652 178.663519 
L 132.610603 167.422177 
L 141.200615 155.488433 
L 152.203981 145.61517 
L 162.12129 130.264177 
L 177.628195 127.030061 
L 192.0867 115.991377 
L 208.733531 113.804881 
" clip-path="url(#pa8deddc2b2)" style="fill: none; stroke: #7f7f7f; stroke-width: 0.8; stroke-linecap: square"/>
   </g>
   <g id="line2d_26">
    <path d="M 208.733531 113.804881 
L 224.625711 124.868603 
L 240.392688 127.306229 
L 253.834942 136.829832 
L 266.901677 144.922336 
L 277.813483 155.672891 
L 288.918894 165.241915 
L 290.887697 182.970239 
L 296.24328 195.34886 
L 307.100968 204.125265 
L 306.202712 218.787294 
L 310.014213 230.789033 
L 316.70423 242.642462 
L 317.120539 255.752479 
L 315.480381 268.713893 
L 313.272752 281.519082 
L 308.66826 293.652722 
L 299.944768 303.623828 
L 293.763133 314.444175 
L 285.376575 323.65229 
L 272.432184 327.653394 
L 267.289052 340.584796 
L 254.631461 343.203677 
L 243.585726 347.650162 
L 230.640062 344.630766 
L 220.258458 350.668785 
L 208.733531 352.906962 
L 196.87425 353.422446 
L 185.982866 348.055556 
L 173.32273 349.123087 
L 161.657915 345.447571 
L 153.465679 335.821785 
L 142.922945 330.037275 
L 133.705375 322.221625 
L 128.128738 311.38995 
L 114.94485 304.976576 
L 115.266863 291.19971 
L 112.63991 279.437429 
L 104.298397 268.4332 
L 103.531355 255.752479 
L 104.570364 243.10478 
L 99.83851 228.912267 
L 100.249437 214.609888 
L 102.057624 199.764643 
L 101.974456 182.06201 
L 106.072866 164.803066 
L 113.537541 148.298419 
L 123.23469 131.886022 
L 139.138647 123.150505 
L 159.515433 125.975018 
L 177.820163 130.332015 
L 193.534829 130.579899 
L 208.733531 138.119186 
" clip-path="url(#pa8deddc2b2)" style="fill: none; stroke-dasharray: 1,1.65; stroke-dashoffset: 0; stroke: #d62728"/>
   </g>
   <g id="line2d_27">
    <path d="M 208.733531 138.119186 
L 221.765119 148.427701 
L 234.893518 149.61724 
L 247.617408 153.224122 
L 261.029161 156.11148 
L 272.035745 164.043389 
L 285.444422 169.163783 
L 294.630133 179.65473 
L 299.850768 192.858792 
L 311.437141 201.849466 
L 324.101947 211.99901 
L 329.465691 225.994674 
L 329.928601 241.036733 
L 331.161194 255.752479 
L 328.22881 270.261832 
L 316.298537 282.264871 
L 309.308662 293.895594 
L 303.613837 305.549504 
L 296.863317 316.584078 
L 287.093994 325.173791 
L 275.111842 330.678103 
L 266.355276 339.231988 
L 255.570427 344.992727 
L 245.31012 352.197016 
L 234.434571 360.025696 
L 221.538088 361.207487 
L 208.733531 357.56435 
L 195.982637 360.765541 
L 182.598131 361.787966 
L 170.687565 356.071448 
L 161.642001 345.477894 
L 150.664352 339.880208 
L 138.85804 334.625604 
L 130.834465 324.76503 
L 125.197655 313.413131 
L 119.67522 302.493886 
L 118.500893 289.973205 
L 108.450361 280.47006 
L 99.980929 268.957435 
L 95.483663 255.752479 
L 96.275386 242.097588 
L 96.845975 228.174673 
L 102.875085 215.605665 
L 110.911906 204.411729 
L 119.391855 194.084372 
L 126.553733 182.94753 
L 131.432207 168.497322 
L 142.104741 159.224012 
L 151.361119 146.43848 
L 160.341199 128.152385 
L 174.476406 116.765856 
L 191.817648 116.437642 
L 208.733531 117.640377 
" clip-path="url(#pa8deddc2b2)" style="fill: none; stroke: #ff7f0e; stroke-width: 2; stroke-linecap: square"/>
   </g>
   <g id="line2d_28">
    <path d="M 208.733531 117.640377 
L 225.856074 124.333142 
L 240.998088 134.035504 
L 253.416368 146.639852 
L 270.192379 147.972453 
L 279.985841 161.594968 
L 293.907507 169.197628 
L 301.652143 183.05854 
L 312.004109 194.643695 
L 327.784666 204.749084 
L 329.553396 221.637128 
L 329.661761 238.014749 
L 324.262908 253.894411 
L 319.82595 268.413401 
L 310.378626 280.954203 
L 311.37405 295.869918 
L 295.484909 303.388174 
L 291.726369 316.482187 
L 282.688832 326.223182 
L 270.445095 332.071775 
" clip-path="url(#pa8deddc2b2)" style="fill: none; stroke: #2ca02c; stroke-width: 3; stroke-linecap: square"/>
   </g>
   <g id="patch_3">
    <path d="M 208.733531 76.86426 
C 185.242146 76.86426 161.979184 81.491551 140.275974 90.481315 
C 118.572763 99.471079 98.851377 112.648488 82.240459 129.259406 
C 65.629541 145.870324 52.452131 165.591711 43.462367 187.294921 
C 34.472603 208.998131 29.845313 232.261093 29.845313 255.752479 
C 29.845313 279.243864 34.472603 302.506826 43.462367 324.210036 
C 52.452131 345.913247 65.629541 365.634633 82.240459 382.245551 
C 98.851377 398.856469 118.572763 412.033879 140.275974 421.023643 
C 161.979184 430.013407 185.242146 434.640697 208.733531 434.640697 
C 232.224917 434.640697 255.487879 430.013407 277.191089 421.023643 
C 298.894299 412.033879 318.615686 398.856469 335.226604 382.245551 
C 351.837522 365.634633 365.014931 345.913247 374.004695 324.210036 
C 382.994459 302.506826 387.62175 279.243864 387.62175 255.752479 
C 387.62175 232.261093 382.994459 208.998131 374.004695 187.294921 
C 365.014931 165.591711 351.837522 145.870324 335.226604 129.259406 
C 318.615686 112.648488 298.894299 99.471079 277.191089 90.481315 
C 255.487879 81.491551 232.224917 76.86426 208.733531 76.86426 
" style="fill: none; stroke: #000000; stroke-width: 0.8; stroke-linejoin: miter; stroke-linecap: square"/>
   </g>
   <g id="text_18">
    <!-- Totaal mannen en vrouwen, Totaal leeftijd -->
    <g transform="translate(104.363219 35.086616) scale(0.1 -0.1)">
     <defs>
      <path id="DejaVuSans-54" d="M -19 4666 
L 3928 4666 
L 3928 4134 
L 2272 4134 
L 2272 0 
L 1638 0 
L 1638 4134 
L -19 4134 
L -19 4666 
z
" transform="scale(0.015625)"/>
      <path id="DejaVuSans-20" transform="scale(0.015625)"/>
      <path id="DejaVuSans-6d" d="M 3328 2828 
Q 3544 3216 3844 3400 
Q 4144 3584 4550 3584 
Q 5097 3584 5394 3201 
Q 5691 2819 5691 2113 
L 5691 0 
L 5113 0 
L 5113 2094 
Q 5113 2597 4934 2840 
Q 4756 3084 4391 3084 
Q 3944 3084 3684 2787 
Q 3425 2491 3425 1978 
L 3425 0 
L 2847 0 
L 2847 2094 
Q 2847 2600 2669 2842 
Q 2491 3084 2119 3084 
Q 1678 3084 1418 2786 
Q 1159 2488 1159 1978 
L 1159 0 
L 581 0 
L 581 3500 
L 1159 3500 
L 1159 2956 
Q 1356 3278 1631 3431 
Q 1906 3584 2284 3584 
Q 2666 3584 2933 3390 
Q 3200 3197 3328 2828 
z
" transform="scale(0.015625)"/>
      <path id="DejaVuSans-77" d="M 269 3500 
L 844 3500 
L 1563 769 
L 2278 3500 
L 2956 3500 
L 3675 769 
L 4391 3500 
L 4966 3500 
L 4050 0 
L 3372 0 
L 2619 2869 
L 1863 0 
L 1184 0 
L 269 3500 
z
" transform="scale(0.015625)"/>
      <path id="DejaVuSans-2c" d="M 750 794 
L 1409 794 
L 1409 256 
L 897 -744 
L 494 -744 
L 750 256 
L 750 794 
z
" transform="scale(0.015625)"/>
      <path id="DejaVuSans-66" d="M 2375 4863 
L 2375 4384 
L 1825 4384 
Q 1516 4384 1395 4259 
Q 1275 4134 1275 3809 
L 1275 3500 
L 2222 3500 
L 2222 3053 
L 1275 3053 
L 1275 0 
L 697 0 
L 697 3053 
L 147 3053 
L 147 3500 
L 697 3500 
L 697 3744 
Q 697 4328 969 4595 
Q 1241 4863 1831 4863 
L 2375 4863 
z
" transform="scale(0.015625)"/>
      <path id="DejaVuSans-69" d="M 603 3500 
L 1178 3500 
L 1178 0 
L 603 0 
L 603 3500 
z
M 603 4863 
L 1178 4863 
L 1178 4134 
L 603 4134 
L 603 4863 
z
" transform="scale(0.015625)"/>
      <path id="DejaVuSans-6a" d="M 603 3500 
L 1178 3500 
L 1178 -63 
Q 1178 -731 923 -1031 
Q 669 -1331 103 -1331 
L -116 -1331 
L -116 -844 
L 38 -844 
Q 366 -844 484 -692 
Q 603 -541 603 -63 
L 603 3500 
z
M 603 4863 
L 1178 4863 
L 1178 4134 
L 603 4134 
L 603 4863 
z
" transform="scale(0.015625)"/>
      <path id="DejaVuSans-64" d="M 2906 2969 
L 2906 4863 
L 3481 4863 
L 3481 0 
L 2906 0 
L 2906 525 
Q 2725 213 2448 61 
Q 2172 -91 1784 -91 
Q 1150 -91 751 415 
Q 353 922 353 1747 
Q 353 2572 751 3078 
Q 1150 3584 1784 3584 
Q 2172 3584 2448 3432 
Q 2725 3281 2906 2969 
z
M 947 1747 
Q 947 1113 1208 752 
Q 1469 391 1925 391 
Q 2381 391 2643 752 
Q 2906 1113 2906 1747 
Q 2906 2381 2643 2742 
Q 2381 3103 1925 3103 
Q 1469 3103 1208 2742 
Q 947 2381 947 1747 
z
" transform="scale(0.015625)"/>
     </defs>
     <use xlink:href="#DejaVuSans-54"/>
     <use xlink:href="#DejaVuSans-6f" x="44.083984"/>
     <use xlink:href="#DejaVuSans-74" x="105.265625"/>
     <use xlink:href="#DejaVuSans-61" x="144.474609"/>
     <use xlink:href="#DejaVuSans-61" x="205.753906"/>
     <use xlink:href="#DejaVuSans-6c" x="267.033203"/>
     <use xlink:href="#DejaVuSans-20" x="294.816406"/>
     <use xlink:href="#DejaVuSans-6d" x="326.603516"/>
     <use xlink:href="#DejaVuSans-61" x="424.015625"/>
     <use xlink:href="#DejaVuSans-6e" x="485.294922"/>
     <use xlink:href="#DejaVuSans-6e" x="548.673828"/>
     <use xlink:href="#DejaVuSans-65" x="612.052734"/>
     <use xlink:href="#DejaVuSans-6e" x="673.576172"/>
     <use xlink:href="#DejaVuSans-20" x="736.955078"/>
     <use xlink:href="#DejaVuSans-65" x="768.742188"/>
     <use xlink:href="#DejaVuSans-6e" x="830.265625"/>
     <use xlink:href="#DejaVuSans-20" x="893.644531"/>
     <use xlink:href="#DejaVuSans-76" x="925.431641"/>
     <use xlink:href="#DejaVuSans-72" x="984.611328"/>
     <use xlink:href="#DejaVuSans-6f" x="1023.474609"/>
     <use xlink:href="#DejaVuSans-75" x="1084.65625"/>
     <use xlink:href="#DejaVuSans-77" x="1148.035156"/>
     <use xlink:href="#DejaVuSans-65" x="1229.822266"/>
     <use xlink:href="#DejaVuSans-6e" x="1291.345703"/>
     <use xlink:href="#DejaVuSans-2c" x="1354.724609"/>
     <use xlink:href="#DejaVuSans-20" x="1386.511719"/>
     <use xlink:href="#DejaVuSans-54" x="1418.298828"/>
     <use xlink:href="#DejaVuSans-6f" x="1462.382812"/>
     <use xlink:href="#DejaVuSans-74" x="1523.564453"/>
     <use xlink:href="#DejaVuSans-61" x="1562.773438"/>
     <use xlink:href="#DejaVuSans-61" x="1624.052734"/>
     <use xlink:href="#DejaVuSans-6c" x="1685.332031"/>
     <use xlink:href="#DejaVuSans-20" x="1713.115234"/>
     <use xlink:href="#DejaVuSans-6c" x="1744.902344"/>
     <use xlink:href="#DejaVuSans-65" x="1772.685547"/>
     <use xlink:href="#DejaVuSans-65" x="1834.208984"/>
     <use xlink:href="#DejaVuSans-66" x="1895.732422"/>
     <use xlink:href="#DejaVuSans-74" x="1929.1875"/>
     <use xlink:href="#DejaVuSans-69" x="1968.396484"/>
     <use xlink:href="#DejaVuSans-6a" x="1996.179688"/>
     <use xlink:href="#DejaVuSans-64" x="2023.962891"/>
    </g>
   </g>
  </g>
  <g id="text_19">
   <!-- Deaths in the Netherlands per week -->
   <g transform="translate(82.235875 17.837812) scale(0.14 -0.14)">
    <defs>
     <path id="DejaVuSans-68" d="M 3513 2113 
L 3513 0 
L 2938 0 
L 2938 2094 
Q 2938 2591 2744 2837 
Q 2550 3084 2163 3084 
Q 1697 3084 1428 2787 
Q 1159 2491 1159 1978 
L 1159 0 
L 581 0 
L 581 4863 
L 1159 4863 
L 1159 2956 
Q 1366 3272 1645 3428 
Q 1925 3584 2291 3584 
Q 2894 3584 3203 3211 
Q 3513 2838 3513 2113 
z
" transform="scale(0.015625)"/>
     <path id="DejaVuSans-73" d="M 2834 3397 
L 2834 2853 
Q 2591 2978 2328 3040 
Q 2066 3103 1784 3103 
Q 1356 3103 1142 2972 
Q 928 2841 928 2578 
Q 928 2378 1081 2264 
Q 1234 2150 1697 2047 
L 1894 2003 
Q 2506 1872 2764 1633 
Q 3022 1394 3022 966 
Q 3022 478 2636 193 
Q 2250 -91 1575 -91 
Q 1294 -91 989 -36 
Q 684 19 347 128 
L 347 722 
Q 666 556 975 473 
Q 1284 391 1588 391 
Q 1994 391 2212 530 
Q 2431 669 2431 922 
Q 2431 1156 2273 1281 
Q 2116 1406 1581 1522 
L 1381 1569 
Q 847 1681 609 1914 
Q 372 2147 372 2553 
Q 372 3047 722 3315 
Q 1072 3584 1716 3584 
Q 2034 3584 2315 3537 
Q 2597 3491 2834 3397 
z
" transform="scale(0.015625)"/>
     <path id="DejaVuSans-6b" d="M 581 4863 
L 1159 4863 
L 1159 1991 
L 2875 3500 
L 3609 3500 
L 1753 1863 
L 3688 0 
L 2938 0 
L 1159 1709 
L 1159 0 
L 581 0 
L 581 4863 
z
" transform="scale(0.015625)"/>
    </defs>
    <use xlink:href="#DejaVuSans-44"/>
    <use xlink:href="#DejaVuSans-65" x="77.001953"/>
    <use xlink:href="#DejaVuSans-61" x="138.525391"/>
    <use xlink:href="#DejaVuSans-74" x="199.804688"/>
    <use xlink:href="#DejaVuSans-68" x="239.013672"/>
    <use xlink:href="#DejaVuSans-73" x="302.392578"/>
    <use xlink:href="#DejaVuSans-20" x="354.492188"/>
    <use xlink:href="#DejaVuSans-69" x="386.279297"/>
    <use xlink:href="#DejaVuSans-6e" x="414.0625"/>
    <use xlink:href="#DejaVuSans-20" x="477.441406"/>
    <use xlink:href="#DejaVuSans-74" x="509.228516"/>
    <use xlink:href="#DejaVuSans-68" x="548.4375"/>
    <use xlink:href="#DejaVuSans-65" x="611.816406"/>
    <use xlink:href="#DejaVuSans-20" x="673.339844"/>
    <use xlink:href="#DejaVuSans-4e" x="705.126953"/>
    <use xlink:href="#DejaVuSans-65" x="779.931641"/>
    <use xlink:href="#DejaVuSans-74" x="841.455078"/>
    <use xlink:href="#DejaVuSans-68" x="880.664062"/>
    <use xlink:href="#DejaVuSans-65" x="944.042969"/>
    <use xlink:href="#DejaVuSans-72" x="1005.566406"/>
    <use xlink:href="#DejaVuSans-6c" x="1046.679688"/>
    <use xlink:href="#DejaVuSans-61" x="1074.462891"/>
    <use xlink:href="#DejaVuSans-6e" x="1135.742188"/>
    <use xlink:href="#DejaVuSans-64" x="1199.121094"/>
    <use xlink:href="#DejaVuSans-73" x="1262.597656"/>
    <use xlink:href="#DejaVuSans-20" x="1314.697266"/>
    <use xlink:href="#DejaVuSans-70" x="1346.484375"/>
    <use xlink:href="#DejaVuSans-65" x="1409.960938"/>
    <use xlink:href="#DejaVuSans-72" x="1471.484375"/>
    <use xlink:href="#DejaVuSans-20" x="1512.597656"/>
    <use xlink:href="#DejaVuSans-77" x="1544.384766"/>
    <use xlink:href="#DejaVuSans-65" x="1626.171875"/>
    <use xlink:href="#DejaVuSans-65" x="1687.695312"/>
    <use xlink:href="#DejaVuSans-6b" x="1749.21875"/>
   </g>
  </g>
  <g id="legend_1">
   <g id="patch_4">
    <path d="M 434.483531 455.67976 
L 491.933531 455.67976 
Q 493.933531 455.67976 493.933531 453.67976 
L 493.933531 293.220385 
Q 493.933531 291.220385 491.933531 291.220385 
L 434.483531 291.220385 
Q 432.483531 291.220385 432.483531 293.220385 
L 432.483531 453.67976 
Q 432.483531 455.67976 434.483531 455.67976 
z
" style="fill: #ffffff; opacity: 0.8; stroke: #cccccc; stroke-linejoin: miter"/>
   </g>
   <g id="line2d_29">
    <path d="M 436.483531 299.318823 
L 446.483531 299.318823 
L 456.483531 299.318823 
" style="fill: none; stroke: #1f77b4; stroke-width: 0.1; stroke-linecap: square"/>
   </g>
   <g id="text_20">
    <!-- 2013 -->
    <g transform="translate(464.483531 302.818823) scale(0.1 -0.1)">
     <use xlink:href="#DejaVuSans-32"/>
     <use xlink:href="#DejaVuSans-30" x="63.623047"/>
     <use xlink:href="#DejaVuSans-31" x="127.246094"/>
     <use xlink:href="#DejaVuSans-33" x="190.869141"/>
    </g>
   </g>
   <g id="line2d_30">
    <path d="M 436.483531 313.996948 
L 446.483531 313.996948 
L 456.483531 313.996948 
" style="fill: none; stroke: #ff7f0e; stroke-width: 0.2; stroke-linecap: square"/>
   </g>
   <g id="text_21">
    <!-- 2014 -->
    <g transform="translate(464.483531 317.496948) scale(0.1 -0.1)">
     <use xlink:href="#DejaVuSans-32"/>
     <use xlink:href="#DejaVuSans-30" x="63.623047"/>
     <use xlink:href="#DejaVuSans-31" x="127.246094"/>
     <use xlink:href="#DejaVuSans-34" x="190.869141"/>
    </g>
   </g>
   <g id="line2d_31">
    <path d="M 436.483531 328.675073 
L 446.483531 328.675073 
L 456.483531 328.675073 
" style="fill: none; stroke: #2ca02c; stroke-width: 0.3; stroke-linecap: square"/>
   </g>
   <g id="text_22">
    <!-- 2015 -->
    <g transform="translate(464.483531 332.175073) scale(0.1 -0.1)">
     <use xlink:href="#DejaVuSans-32"/>
     <use xlink:href="#DejaVuSans-30" x="63.623047"/>
     <use xlink:href="#DejaVuSans-31" x="127.246094"/>
     <use xlink:href="#DejaVuSans-35" x="190.869141"/>
    </g>
   </g>
   <g id="line2d_32">
    <path d="M 436.483531 343.353198 
L 446.483531 343.353198 
L 456.483531 343.353198 
" style="fill: none; stroke: #d62728; stroke-width: 0.4; stroke-linecap: square"/>
   </g>
   <g id="text_23">
    <!-- 2016 -->
    <g transform="translate(464.483531 346.853198) scale(0.1 -0.1)">
     <defs>
      <path id="DejaVuSans-36" d="M 2113 2584 
Q 1688 2584 1439 2293 
Q 1191 2003 1191 1497 
Q 1191 994 1439 701 
Q 1688 409 2113 409 
Q 2538 409 2786 701 
Q 3034 994 3034 1497 
Q 3034 2003 2786 2293 
Q 2538 2584 2113 2584 
z
M 3366 4563 
L 3366 3988 
Q 3128 4100 2886 4159 
Q 2644 4219 2406 4219 
Q 1781 4219 1451 3797 
Q 1122 3375 1075 2522 
Q 1259 2794 1537 2939 
Q 1816 3084 2150 3084 
Q 2853 3084 3261 2657 
Q 3669 2231 3669 1497 
Q 3669 778 3244 343 
Q 2819 -91 2113 -91 
Q 1303 -91 875 529 
Q 447 1150 447 2328 
Q 447 3434 972 4092 
Q 1497 4750 2381 4750 
Q 2619 4750 2861 4703 
Q 3103 4656 3366 4563 
z
" transform="scale(0.015625)"/>
     </defs>
     <use xlink:href="#DejaVuSans-32"/>
     <use xlink:href="#DejaVuSans-30" x="63.623047"/>
     <use xlink:href="#DejaVuSans-31" x="127.246094"/>
     <use xlink:href="#DejaVuSans-36" x="190.869141"/>
    </g>
   </g>
   <g id="line2d_33">
    <path d="M 436.483531 358.031323 
L 446.483531 358.031323 
L 456.483531 358.031323 
" style="fill: none; stroke: #9467bd; stroke-width: 0.5; stroke-linecap: square"/>
   </g>
   <g id="text_24">
    <!-- 2017 -->
    <g transform="translate(464.483531 361.531323) scale(0.1 -0.1)">
     <defs>
      <path id="DejaVuSans-37" d="M 525 4666 
L 3525 4666 
L 3525 4397 
L 1831 0 
L 1172 0 
L 2766 4134 
L 525 4134 
L 525 4666 
z
" transform="scale(0.015625)"/>
     </defs>
     <use xlink:href="#DejaVuSans-32"/>
     <use xlink:href="#DejaVuSans-30" x="63.623047"/>
     <use xlink:href="#DejaVuSans-31" x="127.246094"/>
     <use xlink:href="#DejaVuSans-37" x="190.869141"/>
    </g>
   </g>
   <g id="line2d_34">
    <path d="M 436.483531 372.709448 
L 446.483531 372.709448 
L 456.483531 372.709448 
" style="fill: none; stroke: #8c564b; stroke-width: 0.6; stroke-linecap: square"/>
   </g>
   <g id="text_25">
    <!-- 2018 -->
    <g transform="translate(464.483531 376.209448) scale(0.1 -0.1)">
     <defs>
      <path id="DejaVuSans-38" d="M 2034 2216 
Q 1584 2216 1326 1975 
Q 1069 1734 1069 1313 
Q 1069 891 1326 650 
Q 1584 409 2034 409 
Q 2484 409 2743 651 
Q 3003 894 3003 1313 
Q 3003 1734 2745 1975 
Q 2488 2216 2034 2216 
z
M 1403 2484 
Q 997 2584 770 2862 
Q 544 3141 544 3541 
Q 544 4100 942 4425 
Q 1341 4750 2034 4750 
Q 2731 4750 3128 4425 
Q 3525 4100 3525 3541 
Q 3525 3141 3298 2862 
Q 3072 2584 2669 2484 
Q 3125 2378 3379 2068 
Q 3634 1759 3634 1313 
Q 3634 634 3220 271 
Q 2806 -91 2034 -91 
Q 1263 -91 848 271 
Q 434 634 434 1313 
Q 434 1759 690 2068 
Q 947 2378 1403 2484 
z
M 1172 3481 
Q 1172 3119 1398 2916 
Q 1625 2713 2034 2713 
Q 2441 2713 2670 2916 
Q 2900 3119 2900 3481 
Q 2900 3844 2670 4047 
Q 2441 4250 2034 4250 
Q 1625 4250 1398 4047 
Q 1172 3844 1172 3481 
z
" transform="scale(0.015625)"/>
     </defs>
     <use xlink:href="#DejaVuSans-32"/>
     <use xlink:href="#DejaVuSans-30" x="63.623047"/>
     <use xlink:href="#DejaVuSans-31" x="127.246094"/>
     <use xlink:href="#DejaVuSans-38" x="190.869141"/>
    </g>
   </g>
   <g id="line2d_35">
    <path d="M 436.483531 387.387573 
L 446.483531 387.387573 
L 456.483531 387.387573 
" style="fill: none; stroke: #e377c2; stroke-width: 0.7; stroke-linecap: square"/>
   </g>
   <g id="text_26">
    <!-- 2019 -->
    <g transform="translate(464.483531 390.887573) scale(0.1 -0.1)">
     <defs>
      <path id="DejaVuSans-39" d="M 703 97 
L 703 672 
Q 941 559 1184 500 
Q 1428 441 1663 441 
Q 2288 441 2617 861 
Q 2947 1281 2994 2138 
Q 2813 1869 2534 1725 
Q 2256 1581 1919 1581 
Q 1219 1581 811 2004 
Q 403 2428 403 3163 
Q 403 3881 828 4315 
Q 1253 4750 1959 4750 
Q 2769 4750 3195 4129 
Q 3622 3509 3622 2328 
Q 3622 1225 3098 567 
Q 2575 -91 1691 -91 
Q 1453 -91 1209 -44 
Q 966 3 703 97 
z
M 1959 2075 
Q 2384 2075 2632 2365 
Q 2881 2656 2881 3163 
Q 2881 3666 2632 3958 
Q 2384 4250 1959 4250 
Q 1534 4250 1286 3958 
Q 1038 3666 1038 3163 
Q 1038 2656 1286 2365 
Q 1534 2075 1959 2075 
z
" transform="scale(0.015625)"/>
     </defs>
     <use xlink:href="#DejaVuSans-32"/>
     <use xlink:href="#DejaVuSans-30" x="63.623047"/>
     <use xlink:href="#DejaVuSans-31" x="127.246094"/>
     <use xlink:href="#DejaVuSans-39" x="190.869141"/>
    </g>
   </g>
   <g id="line2d_36">
    <path d="M 436.483531 402.065697 
L 446.483531 402.065697 
L 456.483531 402.065697 
" style="fill: none; stroke: #7f7f7f; stroke-width: 0.8; stroke-linecap: square"/>
   </g>
   <g id="text_27">
    <!-- 2020 -->
    <g transform="translate(464.483531 405.565697) scale(0.1 -0.1)">
     <use xlink:href="#DejaVuSans-32"/>
     <use xlink:href="#DejaVuSans-30" x="63.623047"/>
     <use xlink:href="#DejaVuSans-32" x="127.246094"/>
     <use xlink:href="#DejaVuSans-30" x="190.869141"/>
    </g>
   </g>
   <g id="line2d_37">
    <path d="M 436.483531 416.743823 
L 446.483531 416.743823 
L 456.483531 416.743823 
" style="fill: none; stroke-dasharray: 1,1.65; stroke-dashoffset: 0; stroke: #d62728"/>
   </g>
   <g id="text_28">
    <!-- 2021 -->
    <g transform="translate(464.483531 420.243823) scale(0.1 -0.1)">
     <use xlink:href="#DejaVuSans-32"/>
     <use xlink:href="#DejaVuSans-30" x="63.623047"/>
     <use xlink:href="#DejaVuSans-32" x="127.246094"/>
     <use xlink:href="#DejaVuSans-31" x="190.869141"/>
    </g>
   </g>
   <g id="line2d_38">
    <path d="M 436.483531 431.421947 
L 446.483531 431.421947 
L 456.483531 431.421947 
" style="fill: none; stroke: #ff7f0e; stroke-width: 2; stroke-linecap: square"/>
   </g>
   <g id="text_29">
    <!-- 2022 -->
    <g transform="translate(464.483531 434.921947) scale(0.1 -0.1)">
     <use xlink:href="#DejaVuSans-32"/>
     <use xlink:href="#DejaVuSans-30" x="63.623047"/>
     <use xlink:href="#DejaVuSans-32" x="127.246094"/>
     <use xlink:href="#DejaVuSans-32" x="190.869141"/>
    </g>
   </g>
   <g id="line2d_39">
    <path d="M 436.483531 446.100073 
L 446.483531 446.100073 
L 456.483531 446.100073 
" style="fill: none; stroke: #2ca02c; stroke-width: 3; stroke-linecap: square"/>
   </g>
   <g id="text_30">
    <!-- 2023 -->
    <g transform="translate(464.483531 449.600073) scale(0.1 -0.1)">
     <use xlink:href="#DejaVuSans-32"/>
     <use xlink:href="#DejaVuSans-30" x="63.623047"/>
     <use xlink:href="#DejaVuSans-32" x="127.246094"/>
     <use xlink:href="#DejaVuSans-33" x="190.869141"/>
    </g>
   </g>
  </g>
 </g>
 <defs>
  <clipPath id="pa8deddc2b2">
   <path d="M 387.62175 255.752479 
C 387.62175 232.261093 382.994459 208.998131 374.004695 187.294921 
C 365.014931 165.591711 351.837522 145.870324 335.226604 129.259406 
C 318.615686 112.648488 298.894299 99.471079 277.191089 90.481315 
C 255.487879 81.491551 232.224917 76.86426 208.733531 76.86426 
C 185.242146 76.86426 161.979184 81.491551 140.275974 90.481315 
C 118.572763 99.471079 98.851377 112.648488 82.240459 129.259406 
C 65.629541 145.870324 52.452131 165.591711 43.462367 187.294921 
C 34.472603 208.998131 29.845313 232.261093 29.845313 255.752479 
C 29.845313 279.243864 34.472603 302.506826 43.462367 324.210036 
C 52.452131 345.913247 65.629541 365.634633 82.240459 382.245551 
C 98.851377 398.856469 118.572763 412.033879 140.275974 421.023643 
C 161.979184 430.013407 185.242146 434.640698 208.733531 434.640698 
C 232.224917 434.640698 255.487879 430.013407 277.191089 421.023643 
C 298.894299 412.033879 318.615686 398.856469 335.226604 382.245551 
C 351.837522 365.634633 365.014931 345.913247 374.004695 324.210036 
C 382.994459 302.506826 387.62175 279.243864 387.62175 255.752479 
M 208.733531 255.752479 
C 208.733531 255.752479 208.733531 255.752479 208.733531 255.752479 
C 208.733531 255.752479 208.733531 255.752479 208.733531 255.752479 
C 208.733531 255.752479 208.733531 255.752479 208.733531 255.752479 
C 208.733531 255.752479 208.733531 255.752479 208.733531 255.752479 
C 208.733531 255.752479 208.733531 255.752479 208.733531 255.752479 
C 208.733531 255.752479 208.733531 255.752479 208.733531 255.752479 
C 208.733531 255.752479 208.733531 255.752479 208.733531 255.752479 
C 208.733531 255.752479 208.733531 255.752479 208.733531 255.752479 
C 208.733531 255.752479 208.733531 255.752479 208.733531 255.752479 
C 208.733531 255.752479 208.733531 255.752479 208.733531 255.752479 
C 208.733531 255.752479 208.733531 255.752479 208.733531 255.752479 
C 208.733531 255.752479 208.733531 255.752479 208.733531 255.752479 
C 208.733531 255.752479 208.733531 255.752479 208.733531 255.752479 
C 208.733531 255.752479 208.733531 255.752479 208.733531 255.752479 
C 208.733531 255.752479 208.733531 255.752479 208.733531 255.752479 
C 208.733531 255.752479 208.733531 255.752479 208.733531 255.752479 
z
"/>
  </clipPath>
 </defs>
</svg>
