<?xml version="1.0" encoding="utf-8" standalone="no"?>
<!DOCTYPE svg PUBLIC "-//W3C//DTD SVG 1.1//EN"
  "http://www.w3.org/Graphics/SVG/1.1/DTD/svg11.dtd">
<svg height="460.67976pt" version="1.1" viewBox="0 0 498.811421 460.67976" width="498.811421pt" xmlns="http://www.w3.org/2000/svg" xmlns:xlink="http://www.w3.org/1999/xlink">
 <metadata>
  <rdf:RDF xmlns:cc="http://creativecommons.org/ns#" xmlns:dc="http://purl.org/dc/elements/1.1/" xmlns:rdf="http://www.w3.org/1999/02/22-rdf-syntax-ns#">
   <cc:Work>
    <dc:type rdf:resource="http://purl.org/dc/dcmitype/StillImage"/>
    <dc:date>2021-11-12T02:36:53.138723</dc:date>
    <dc:format>image/svg+xml</dc:format>
    <dc:creator>
     <cc:Agent>
      <dc:title>Matplotlib v3.4.3, https://matplotlib.org/</dc:title>
     </cc:Agent>
    </dc:creator>
   </cc:Work>
  </rdf:RDF>
 </metadata>
 <defs>
  <style type="text/css">*{stroke-linecap:butt;stroke-linejoin:round;}</style>
 </defs>
 <g id="figure_1">
  <g id="patch_1">
   <path d="M 0 460.67976 
L 498.811421 460.67976 
L 498.811421 0 
L 0 0 
z
" style="fill:#ffffff;"/>
  </g>
  <g id="axes_1">
   <g id="patch_2">
    <path d="M 387.377531 255.874589 
C 387.377531 232.399238 382.753398 209.152156 373.769771 187.46376 
C 364.786143 165.775365 351.617729 146.06744 335.018149 129.467861 
C 318.41857 112.868281 298.710645 99.699867 277.02225 90.716239 
C 255.333854 81.732612 232.086772 77.108479 208.611422 77.108479 
C 185.136071 77.108479 161.888989 81.732612 140.200593 90.716239 
C 118.512198 99.699867 98.804273 112.868281 82.204694 129.467861 
C 65.605114 146.06744 52.4367 165.775365 43.453072 187.46376 
C 34.469445 209.152156 29.845313 232.399238 29.845313 255.874588 
C 29.845313 279.349939 34.469445 302.597021 43.453072 324.285417 
C 52.4367 345.973812 65.605114 365.681737 82.204694 382.281316 
C 98.804273 398.880896 118.512198 412.04931 140.200593 421.032938 
C 161.888989 430.016565 185.136071 434.640698 208.611422 434.640698 
C 232.086772 434.640698 255.333854 430.016565 277.02225 421.032938 
C 298.710645 412.04931 318.41857 398.880896 335.018149 382.281316 
C 351.617729 365.681737 364.786143 345.973812 373.769771 324.285417 
C 382.753398 302.597021 387.377531 279.349939 387.377531 255.874589 
M 208.611422 255.874589 
C 208.611422 255.874589 208.611422 255.874589 208.611422 255.874589 
C 208.611422 255.874589 208.611422 255.874589 208.611422 255.874589 
C 208.611422 255.874589 208.611422 255.874589 208.611422 255.874589 
C 208.611422 255.874589 208.611422 255.874589 208.611422 255.874589 
C 208.611422 255.874589 208.611422 255.874589 208.611422 255.874589 
C 208.611422 255.874589 208.611422 255.874589 208.611422 255.874589 
C 208.611422 255.874589 208.611422 255.874589 208.611422 255.874589 
C 208.611422 255.874589 208.611422 255.874589 208.611422 255.874589 
C 208.611422 255.874589 208.611422 255.874589 208.611422 255.874589 
C 208.611422 255.874589 208.611422 255.874589 208.611422 255.874589 
C 208.611422 255.874589 208.611422 255.874589 208.611422 255.874589 
C 208.611422 255.874589 208.611422 255.874589 208.611422 255.874589 
C 208.611422 255.874589 208.611422 255.874589 208.611422 255.874589 
C 208.611422 255.874589 208.611422 255.874589 208.611422 255.874589 
C 208.611422 255.874589 208.611422 255.874589 208.611422 255.874589 
C 208.611422 255.874589 208.611422 255.874589 208.611422 255.874589 
M 387.377531 255.874589 
z
" style="fill:#ffffff;"/>
   </g>
   <g id="PolyCollection_1">
    <defs>
     <path d="M 208.611422 -301.024233 
L 208.611422 -318.833172 
L 222.665516 -320.55105 
L 235.977349 -315.833105 
L 249.821493 -313.467199 
L 262.401161 -307.292957 
L 274.056649 -299.618952 
L 286.167244 -292.347598 
L 297.34389 -283.415279 
L 305.846172 -271.921474 
L 315.170336 -260.731604 
L 314.677685 -245.030799 
L 313.693891 -230.705674 
L 314.370692 -217.646672 
L 311.023874 -204.805172 
L 308.355675 -192.694026 
L 305.062126 -181.032208 
L 299.567089 -170.310237 
L 291.824058 -161.131811 
L 287.990683 -150.013623 
L 279.031725 -142.418226 
L 271.46683 -133.856082 
L 261.566085 -128.087097 
L 251.005776 -124.029478 
L 240.769657 -120.010873 
L 230.231497 -117.089078 
L 219.744983 -113.112045 
L 208.611422 -110.34008 
L 197.625179 -114.325326 
L 186.241173 -114.045506 
L 174.603343 -115.133237 
L 166.412089 -124.401061 
L 157.02622 -130.071105 
L 149.891947 -138.524586 
L 141.188252 -145.073456 
L 133.64311 -153.058283 
L 129.742019 -163.411316 
L 123.021576 -172.345225 
L 119.847715 -182.926883 
L 116.121052 -193.574807 
L 114.823079 -204.805172 
L 112.04386 -216.530596 
L 116.268778 -227.565589 
L 117.779088 -239.253332 
L 123.333483 -249.562486 
L 127.481868 -260.804859 
L 133.771711 -271.107369 
L 141.950135 -280.050209 
L 151.478961 -287.57583 
L 160.719613 -296.055389 
L 170.235952 -305.99297 
L 182.948981 -308.921784 
L 195.594309 -312.010735 
L 208.611421 -318.833172 
L 208.611421 -301.024233 
L 208.611421 -301.024233 
L 197.329342 -297.721459 
L 185.568055 -298.295785 
L 174.793023 -293.97696 
L 165.340429 -287.25116 
L 155.817079 -281.290981 
L 148.847706 -272.264462 
L 142.472735 -263.398935 
L 136.763092 -254.398493 
L 130.759118 -245.665213 
L 126.555923 -235.924717 
L 123.303542 -225.831675 
L 121.521693 -215.379779 
L 121.772577 -204.805172 
L 124.182473 -194.553641 
L 126.926024 -184.671529 
L 131.517553 -175.567324 
L 133.414046 -165.338544 
L 140.765838 -157.974747 
L 147.660105 -150.807017 
L 153.233511 -142.296432 
L 162.412219 -137.874071 
L 170.920088 -132.990336 
L 179.242722 -127.366275 
L 188.724122 -124.119227 
L 198.436592 -121.007908 
L 208.611422 -115.954093 
L 218.883054 -120.210665 
L 228.875556 -122.590344 
L 238.303836 -126.512709 
L 248.448013 -128.902889 
L 257.736089 -133.635804 
L 265.583903 -140.496534 
L 273.520545 -147.300706 
L 281.967909 -154.170844 
L 285.487677 -164.4574 
L 291.919064 -173.21075 
L 296.062658 -183.250378 
L 298.168869 -193.930929 
L 298.471577 -204.805172 
L 300.399716 -215.950288 
L 297.655049 -226.752455 
L 294.868797 -237.518279 
L 290.906994 -247.99722 
L 285.56097 -257.91961 
L 281.297092 -269.199056 
L 272.199332 -276.581085 
L 263.61071 -284.485396 
L 252.890853 -289.172579 
L 242.002085 -292.849116 
L 231.102424 -296.054757 
L 220.157953 -299.899411 
L 208.611422 -301.024233 
z
" id="mef746171c2" style="stroke:#1f77b4;stroke-opacity:0.3;"/>
    </defs>
    <g clip-path="url(#p19d1ca4bfc)">
     <use style="fill:#1f77b4;fill-opacity:0.3;stroke:#1f77b4;stroke-opacity:0.3;" x="0" xlink:href="#mef746171c2" y="460.67976"/>
    </g>
   </g>
   <g id="PolyCollection_2">
    <path clip-path="url(#p19d1ca4bfc)" d="M 208.611422 133.809775 
L 208.611422 161.246989 
L 220.046384 161.6992 
L 230.094702 168.713492 
L 240.395649 172.06647 
L 251.664939 173.842965 
L 260.597526 180.559714 
L 268.071645 188.757871 
L 276.496358 195.733783 
L 284.236002 203.67471 
L 290.824798 212.72568 
L 294.530737 223.28969 
L 297.034759 234.080193 
L 296.435999 245.210754 
L 293.18099 255.874589 
L 296.334115 266.526052 
L 294.344192 277.005819 
L 290.820149 287.052246 
L 285.190426 296.06635 
L 281.983594 306.519743 
L 273.269839 313.156948 
L 264.986337 319.508714 
L 256.749582 325.614754 
L 248.02415 330.969269 
L 237.387065 331.749725 
L 228.367198 336.026923 
L 218.850517 340.201126 
L 208.611422 342.531027 
L 198.508407 339.080395 
L 189.281381 334.299645 
L 180.539398 329.894431 
L 172.219435 325.213726 
L 162.824782 322.207988 
L 153.824531 317.716203 
L 150.303613 307.530799 
L 141.883851 301.933305 
L 134.910189 294.55598 
L 134.687543 283.910218 
L 129.223076 275.442058 
L 128.156501 265.643585 
L 123.973431 255.874589 
L 122.45096 245.412814 
L 124.140893 235.054473 
L 127.93811 225.279237 
L 133.819665 216.620846 
L 138.139223 207.231142 
L 144.106648 198.728346 
L 150.943399 190.780847 
L 155.731351 179.26458 
L 167.306755 177.175122 
L 177.191136 173.026105 
L 185.793623 163.299141 
L 197.922845 167.846241 
L 208.611421 161.246989 
L 208.611421 133.809775 
L 208.611421 133.809775 
L 194.883693 142.816576 
L 181.978376 147.820074 
L 169.572627 152.937746 
L 160.247759 163.725328 
L 149.434716 170.14233 
L 140.031393 178.463739 
L 130.253102 186.455175 
L 123.723816 197.280905 
L 122.096534 210.468073 
L 114.311294 220.111267 
L 112.980021 232.303565 
L 108.968223 243.775714 
L 112.615383 255.874589 
L 115.183187 267.21883 
L 118.427589 278.102907 
L 121.44458 288.932611 
L 128.9426 297.688012 
L 130.255797 309.959571 
L 139.44612 317.149698 
L 149.332687 322.786448 
L 155.264933 333.160319 
L 164.731175 339.481413 
L 172.14448 352.03001 
L 185.613504 349.180808 
L 197.225943 349.642438 
L 208.611422 353.307489 
L 220.306176 352.189555 
L 230.651434 345.294433 
L 241.123532 341.601977 
L 252.078303 338.693812 
L 262.560365 334.033127 
L 273.788538 329.444344 
L 280.849598 319.872028 
L 291.725256 313.243926 
L 293.611693 300.486172 
L 303.167452 291.734961 
L 309.457873 280.731006 
L 312.499814 268.488923 
L 312.612832 255.874589 
L 318.137432 242.575723 
L 322.545324 227.792404 
L 328.021997 210.588131 
L 332.567626 190.817354 
L 319.458023 179.362704 
L 303.127944 172.140257 
L 291.642485 162.151893 
L 276.883266 156.965746 
L 265.433161 147.60981 
L 252.599821 139.886711 
L 237.160278 140.047324 
L 223.609243 132.356418 
L 208.611422 133.809775 
z
" style="fill:#1f77b4;fill-opacity:0.2;"/>
   </g>
   <g id="matplotlib.axis_1">
    <g id="xtick_1">
     <g id="line2d_1">
      <path clip-path="url(#p19d1ca4bfc)" d="M 208.611422 255.874589 
L 208.611422 77.108479 
" style="fill:none;stroke:#b0b0b0;stroke-linecap:square;stroke-width:0.8;"/>
     </g>
     <g id="text_1">
      <!-- Jan -->
      <g transform="translate(200.903609 65.867854)scale(0.1 -0.1)">
       <defs>
        <path d="M 628 4666 
L 1259 4666 
L 1259 325 
Q 1259 -519 939 -900 
Q 619 -1281 -91 -1281 
L -331 -1281 
L -331 -750 
L -134 -750 
Q 284 -750 456 -515 
Q 628 -281 628 325 
L 628 4666 
z
" id="DejaVuSans-4a" transform="scale(0.015625)"/>
        <path d="M 2194 1759 
Q 1497 1759 1228 1600 
Q 959 1441 959 1056 
Q 959 750 1161 570 
Q 1363 391 1709 391 
Q 2188 391 2477 730 
Q 2766 1069 2766 1631 
L 2766 1759 
L 2194 1759 
z
M 3341 1997 
L 3341 0 
L 2766 0 
L 2766 531 
Q 2569 213 2275 61 
Q 1981 -91 1556 -91 
Q 1019 -91 701 211 
Q 384 513 384 1019 
Q 384 1609 779 1909 
Q 1175 2209 1959 2209 
L 2766 2209 
L 2766 2266 
Q 2766 2663 2505 2880 
Q 2244 3097 1772 3097 
Q 1472 3097 1187 3025 
Q 903 2953 641 2809 
L 641 3341 
Q 956 3463 1253 3523 
Q 1550 3584 1831 3584 
Q 2591 3584 2966 3190 
Q 3341 2797 3341 1997 
z
" id="DejaVuSans-61" transform="scale(0.015625)"/>
        <path d="M 3513 2113 
L 3513 0 
L 2938 0 
L 2938 2094 
Q 2938 2591 2744 2837 
Q 2550 3084 2163 3084 
Q 1697 3084 1428 2787 
Q 1159 2491 1159 1978 
L 1159 0 
L 581 0 
L 581 3500 
L 1159 3500 
L 1159 2956 
Q 1366 3272 1645 3428 
Q 1925 3584 2291 3584 
Q 2894 3584 3203 3211 
Q 3513 2838 3513 2113 
z
" id="DejaVuSans-6e" transform="scale(0.015625)"/>
       </defs>
       <use xlink:href="#DejaVuSans-4a"/>
       <use x="29.492188" xlink:href="#DejaVuSans-61"/>
       <use x="90.771484" xlink:href="#DejaVuSans-6e"/>
      </g>
     </g>
    </g>
    <g id="xtick_2">
     <g id="line2d_2">
      <path clip-path="url(#p19d1ca4bfc)" d="M 208.611422 255.874589 
L 297.994476 101.058597 
" style="fill:none;stroke:#b0b0b0;stroke-linecap:square;stroke-width:0.8;"/>
     </g>
     <g id="text_2">
      <!-- Feb -->
      <g transform="translate(296.142913 91.693616)scale(0.1 -0.1)">
       <defs>
        <path d="M 628 4666 
L 3309 4666 
L 3309 4134 
L 1259 4134 
L 1259 2759 
L 3109 2759 
L 3109 2228 
L 1259 2228 
L 1259 0 
L 628 0 
L 628 4666 
z
" id="DejaVuSans-46" transform="scale(0.015625)"/>
        <path d="M 3597 1894 
L 3597 1613 
L 953 1613 
Q 991 1019 1311 708 
Q 1631 397 2203 397 
Q 2534 397 2845 478 
Q 3156 559 3463 722 
L 3463 178 
Q 3153 47 2828 -22 
Q 2503 -91 2169 -91 
Q 1331 -91 842 396 
Q 353 884 353 1716 
Q 353 2575 817 3079 
Q 1281 3584 2069 3584 
Q 2775 3584 3186 3129 
Q 3597 2675 3597 1894 
z
M 3022 2063 
Q 3016 2534 2758 2815 
Q 2500 3097 2075 3097 
Q 1594 3097 1305 2825 
Q 1016 2553 972 2059 
L 3022 2063 
z
" id="DejaVuSans-65" transform="scale(0.015625)"/>
        <path d="M 3116 1747 
Q 3116 2381 2855 2742 
Q 2594 3103 2138 3103 
Q 1681 3103 1420 2742 
Q 1159 2381 1159 1747 
Q 1159 1113 1420 752 
Q 1681 391 2138 391 
Q 2594 391 2855 752 
Q 3116 1113 3116 1747 
z
M 1159 2969 
Q 1341 3281 1617 3432 
Q 1894 3584 2278 3584 
Q 2916 3584 3314 3078 
Q 3713 2572 3713 1747 
Q 3713 922 3314 415 
Q 2916 -91 2278 -91 
Q 1894 -91 1617 61 
Q 1341 213 1159 525 
L 1159 0 
L 581 0 
L 581 4863 
L 1159 4863 
L 1159 2969 
z
" id="DejaVuSans-62" transform="scale(0.015625)"/>
       </defs>
       <use xlink:href="#DejaVuSans-46"/>
       <use x="52.019531" xlink:href="#DejaVuSans-65"/>
       <use x="113.542969" xlink:href="#DejaVuSans-62"/>
      </g>
     </g>
    </g>
    <g id="xtick_3">
     <g id="line2d_3">
      <path clip-path="url(#p19d1ca4bfc)" d="M 208.611422 255.874589 
L 363.427413 166.491534 
" style="fill:none;stroke:#b0b0b0;stroke-linecap:square;stroke-width:0.8;"/>
     </g>
     <g id="text_3">
      <!-- Mar -->
      <g transform="translate(366.118175 162.250909)scale(0.1 -0.1)">
       <defs>
        <path d="M 628 4666 
L 1569 4666 
L 2759 1491 
L 3956 4666 
L 4897 4666 
L 4897 0 
L 4281 0 
L 4281 4097 
L 3078 897 
L 2444 897 
L 1241 4097 
L 1241 0 
L 628 0 
L 628 4666 
z
" id="DejaVuSans-4d" transform="scale(0.015625)"/>
        <path d="M 2631 2963 
Q 2534 3019 2420 3045 
Q 2306 3072 2169 3072 
Q 1681 3072 1420 2755 
Q 1159 2438 1159 1844 
L 1159 0 
L 581 0 
L 581 3500 
L 1159 3500 
L 1159 2956 
Q 1341 3275 1631 3429 
Q 1922 3584 2338 3584 
Q 2397 3584 2469 3576 
Q 2541 3569 2628 3553 
L 2631 2963 
z
" id="DejaVuSans-72" transform="scale(0.015625)"/>
       </defs>
       <use xlink:href="#DejaVuSans-4d"/>
       <use x="86.279297" xlink:href="#DejaVuSans-61"/>
       <use x="147.558594" xlink:href="#DejaVuSans-72"/>
      </g>
     </g>
    </g>
    <g id="xtick_4">
     <g id="line2d_4">
      <path clip-path="url(#p19d1ca4bfc)" d="M 208.611422 255.874589 
L 387.377531 255.874589 
" style="fill:none;stroke:#b0b0b0;stroke-linecap:square;stroke-width:0.8;"/>
     </g>
     <g id="text_4">
      <!-- Apr -->
      <g transform="translate(392.727531 258.633964)scale(0.1 -0.1)">
       <defs>
        <path d="M 2188 4044 
L 1331 1722 
L 3047 1722 
L 2188 4044 
z
M 1831 4666 
L 2547 4666 
L 4325 0 
L 3669 0 
L 3244 1197 
L 1141 1197 
L 716 0 
L 50 0 
L 1831 4666 
z
" id="DejaVuSans-41" transform="scale(0.015625)"/>
        <path d="M 1159 525 
L 1159 -1331 
L 581 -1331 
L 581 3500 
L 1159 3500 
L 1159 2969 
Q 1341 3281 1617 3432 
Q 1894 3584 2278 3584 
Q 2916 3584 3314 3078 
Q 3713 2572 3713 1747 
Q 3713 922 3314 415 
Q 2916 -91 2278 -91 
Q 1894 -91 1617 61 
Q 1341 213 1159 525 
z
M 3116 1747 
Q 3116 2381 2855 2742 
Q 2594 3103 2138 3103 
Q 1681 3103 1420 2742 
Q 1159 2381 1159 1747 
Q 1159 1113 1420 752 
Q 1681 391 2138 391 
Q 2594 391 2855 752 
Q 3116 1113 3116 1747 
z
" id="DejaVuSans-70" transform="scale(0.015625)"/>
       </defs>
       <use xlink:href="#DejaVuSans-41"/>
       <use x="68.408203" xlink:href="#DejaVuSans-70"/>
       <use x="131.884766" xlink:href="#DejaVuSans-72"/>
      </g>
     </g>
    </g>
    <g id="xtick_5">
     <g id="line2d_5">
      <path clip-path="url(#p19d1ca4bfc)" d="M 208.611422 255.874589 
L 363.427413 345.257643 
" style="fill:none;stroke:#b0b0b0;stroke-linecap:square;stroke-width:0.8;"/>
     </g>
     <g id="text_5">
      <!-- May -->
      <g transform="translate(365.214269 355.017018)scale(0.1 -0.1)">
       <defs>
        <path d="M 2059 -325 
Q 1816 -950 1584 -1140 
Q 1353 -1331 966 -1331 
L 506 -1331 
L 506 -850 
L 844 -850 
Q 1081 -850 1212 -737 
Q 1344 -625 1503 -206 
L 1606 56 
L 191 3500 
L 800 3500 
L 1894 763 
L 2988 3500 
L 3597 3500 
L 2059 -325 
z
" id="DejaVuSans-79" transform="scale(0.015625)"/>
       </defs>
       <use xlink:href="#DejaVuSans-4d"/>
       <use x="86.279297" xlink:href="#DejaVuSans-61"/>
       <use x="147.558594" xlink:href="#DejaVuSans-79"/>
      </g>
     </g>
    </g>
    <g id="xtick_6">
     <g id="line2d_6">
      <path clip-path="url(#p19d1ca4bfc)" d="M 208.611422 255.874589 
L 297.994476 410.69058 
" style="fill:none;stroke:#b0b0b0;stroke-linecap:square;stroke-width:0.8;"/>
     </g>
     <g id="text_6">
      <!-- Jun -->
      <g transform="translate(297.181976 425.574311)scale(0.1 -0.1)">
       <defs>
        <path d="M 544 1381 
L 544 3500 
L 1119 3500 
L 1119 1403 
Q 1119 906 1312 657 
Q 1506 409 1894 409 
Q 2359 409 2629 706 
Q 2900 1003 2900 1516 
L 2900 3500 
L 3475 3500 
L 3475 0 
L 2900 0 
L 2900 538 
Q 2691 219 2414 64 
Q 2138 -91 1772 -91 
Q 1169 -91 856 284 
Q 544 659 544 1381 
z
M 1991 3584 
L 1991 3584 
z
" id="DejaVuSans-75" transform="scale(0.015625)"/>
       </defs>
       <use xlink:href="#DejaVuSans-4a"/>
       <use x="29.492188" xlink:href="#DejaVuSans-75"/>
       <use x="92.871094" xlink:href="#DejaVuSans-6e"/>
      </g>
     </g>
    </g>
    <g id="xtick_7">
     <g id="line2d_7">
      <path clip-path="url(#p19d1ca4bfc)" d="M 208.611422 255.874589 
L 208.611422 434.640698 
" style="fill:none;stroke:#b0b0b0;stroke-linecap:square;stroke-width:0.8;"/>
     </g>
     <g id="text_7">
      <!-- Jul -->
      <g transform="translate(202.578609 451.400073)scale(0.1 -0.1)">
       <defs>
        <path d="M 603 4863 
L 1178 4863 
L 1178 0 
L 603 0 
L 603 4863 
z
" id="DejaVuSans-6c" transform="scale(0.015625)"/>
       </defs>
       <use xlink:href="#DejaVuSans-4a"/>
       <use x="29.492188" xlink:href="#DejaVuSans-75"/>
       <use x="92.871094" xlink:href="#DejaVuSans-6c"/>
      </g>
     </g>
    </g>
    <g id="xtick_8">
     <g id="line2d_8">
      <path clip-path="url(#p19d1ca4bfc)" d="M 208.611422 255.874589 
L 119.228367 410.69058 
" style="fill:none;stroke:#b0b0b0;stroke-linecap:square;stroke-width:0.8;"/>
     </g>
     <g id="text_8">
      <!-- Aug -->
      <g transform="translate(102.465086 425.574311)scale(0.1 -0.1)">
       <defs>
        <path d="M 2906 1791 
Q 2906 2416 2648 2759 
Q 2391 3103 1925 3103 
Q 1463 3103 1205 2759 
Q 947 2416 947 1791 
Q 947 1169 1205 825 
Q 1463 481 1925 481 
Q 2391 481 2648 825 
Q 2906 1169 2906 1791 
z
M 3481 434 
Q 3481 -459 3084 -895 
Q 2688 -1331 1869 -1331 
Q 1566 -1331 1297 -1286 
Q 1028 -1241 775 -1147 
L 775 -588 
Q 1028 -725 1275 -790 
Q 1522 -856 1778 -856 
Q 2344 -856 2625 -561 
Q 2906 -266 2906 331 
L 2906 616 
Q 2728 306 2450 153 
Q 2172 0 1784 0 
Q 1141 0 747 490 
Q 353 981 353 1791 
Q 353 2603 747 3093 
Q 1141 3584 1784 3584 
Q 2172 3584 2450 3431 
Q 2728 3278 2906 2969 
L 2906 3500 
L 3481 3500 
L 3481 434 
z
" id="DejaVuSans-67" transform="scale(0.015625)"/>
       </defs>
       <use xlink:href="#DejaVuSans-41"/>
       <use x="68.408203" xlink:href="#DejaVuSans-75"/>
       <use x="131.787109" xlink:href="#DejaVuSans-67"/>
      </g>
     </g>
    </g>
    <g id="xtick_9">
     <g id="line2d_9">
      <path clip-path="url(#p19d1ca4bfc)" d="M 208.611422 255.874589 
L 53.79543 345.257643 
" style="fill:none;stroke:#b0b0b0;stroke-linecap:square;stroke-width:0.8;"/>
     </g>
     <g id="text_9">
      <!-- Sept -->
      <g transform="translate(30.285918 355.017018)scale(0.1 -0.1)">
       <defs>
        <path d="M 3425 4513 
L 3425 3897 
Q 3066 4069 2747 4153 
Q 2428 4238 2131 4238 
Q 1616 4238 1336 4038 
Q 1056 3838 1056 3469 
Q 1056 3159 1242 3001 
Q 1428 2844 1947 2747 
L 2328 2669 
Q 3034 2534 3370 2195 
Q 3706 1856 3706 1288 
Q 3706 609 3251 259 
Q 2797 -91 1919 -91 
Q 1588 -91 1214 -16 
Q 841 59 441 206 
L 441 856 
Q 825 641 1194 531 
Q 1563 422 1919 422 
Q 2459 422 2753 634 
Q 3047 847 3047 1241 
Q 3047 1584 2836 1778 
Q 2625 1972 2144 2069 
L 1759 2144 
Q 1053 2284 737 2584 
Q 422 2884 422 3419 
Q 422 4038 858 4394 
Q 1294 4750 2059 4750 
Q 2388 4750 2728 4690 
Q 3069 4631 3425 4513 
z
" id="DejaVuSans-53" transform="scale(0.015625)"/>
        <path d="M 1172 4494 
L 1172 3500 
L 2356 3500 
L 2356 3053 
L 1172 3053 
L 1172 1153 
Q 1172 725 1289 603 
Q 1406 481 1766 481 
L 2356 481 
L 2356 0 
L 1766 0 
Q 1100 0 847 248 
Q 594 497 594 1153 
L 594 3053 
L 172 3053 
L 172 3500 
L 594 3500 
L 594 4494 
L 1172 4494 
z
" id="DejaVuSans-74" transform="scale(0.015625)"/>
       </defs>
       <use xlink:href="#DejaVuSans-53"/>
       <use x="63.476562" xlink:href="#DejaVuSans-65"/>
       <use x="125" xlink:href="#DejaVuSans-70"/>
       <use x="188.476562" xlink:href="#DejaVuSans-74"/>
      </g>
     </g>
    </g>
    <g id="xtick_10">
     <g id="line2d_10">
      <path clip-path="url(#p19d1ca4bfc)" d="M 208.611422 255.874589 
L 29.845313 255.874589 
" style="fill:none;stroke:#b0b0b0;stroke-linecap:square;stroke-width:0.8;"/>
     </g>
     <g id="text_10">
      <!-- Oct -->
      <g transform="translate(7.2 258.633964)scale(0.1 -0.1)">
       <defs>
        <path d="M 2522 4238 
Q 1834 4238 1429 3725 
Q 1025 3213 1025 2328 
Q 1025 1447 1429 934 
Q 1834 422 2522 422 
Q 3209 422 3611 934 
Q 4013 1447 4013 2328 
Q 4013 3213 3611 3725 
Q 3209 4238 2522 4238 
z
M 2522 4750 
Q 3503 4750 4090 4092 
Q 4678 3434 4678 2328 
Q 4678 1225 4090 567 
Q 3503 -91 2522 -91 
Q 1538 -91 948 565 
Q 359 1222 359 2328 
Q 359 3434 948 4092 
Q 1538 4750 2522 4750 
z
" id="DejaVuSans-4f" transform="scale(0.015625)"/>
        <path d="M 3122 3366 
L 3122 2828 
Q 2878 2963 2633 3030 
Q 2388 3097 2138 3097 
Q 1578 3097 1268 2742 
Q 959 2388 959 1747 
Q 959 1106 1268 751 
Q 1578 397 2138 397 
Q 2388 397 2633 464 
Q 2878 531 3122 666 
L 3122 134 
Q 2881 22 2623 -34 
Q 2366 -91 2075 -91 
Q 1284 -91 818 406 
Q 353 903 353 1747 
Q 353 2603 823 3093 
Q 1294 3584 2113 3584 
Q 2378 3584 2631 3529 
Q 2884 3475 3122 3366 
z
" id="DejaVuSans-63" transform="scale(0.015625)"/>
       </defs>
       <use xlink:href="#DejaVuSans-4f"/>
       <use x="78.710938" xlink:href="#DejaVuSans-63"/>
       <use x="133.691406" xlink:href="#DejaVuSans-74"/>
      </g>
     </g>
    </g>
    <g id="xtick_11">
     <g id="line2d_11">
      <path clip-path="url(#p19d1ca4bfc)" d="M 208.611422 255.874589 
L 53.79543 166.491534 
" style="fill:none;stroke:#b0b0b0;stroke-linecap:square;stroke-width:0.8;"/>
     </g>
     <g id="text_11">
      <!-- Nov -->
      <g transform="translate(31.911699 162.250909)scale(0.1 -0.1)">
       <defs>
        <path d="M 628 4666 
L 1478 4666 
L 3547 763 
L 3547 4666 
L 4159 4666 
L 4159 0 
L 3309 0 
L 1241 3903 
L 1241 0 
L 628 0 
L 628 4666 
z
" id="DejaVuSans-4e" transform="scale(0.015625)"/>
        <path d="M 1959 3097 
Q 1497 3097 1228 2736 
Q 959 2375 959 1747 
Q 959 1119 1226 758 
Q 1494 397 1959 397 
Q 2419 397 2687 759 
Q 2956 1122 2956 1747 
Q 2956 2369 2687 2733 
Q 2419 3097 1959 3097 
z
M 1959 3584 
Q 2709 3584 3137 3096 
Q 3566 2609 3566 1747 
Q 3566 888 3137 398 
Q 2709 -91 1959 -91 
Q 1206 -91 779 398 
Q 353 888 353 1747 
Q 353 2609 779 3096 
Q 1206 3584 1959 3584 
z
" id="DejaVuSans-6f" transform="scale(0.015625)"/>
        <path d="M 191 3500 
L 800 3500 
L 1894 563 
L 2988 3500 
L 3597 3500 
L 2284 0 
L 1503 0 
L 191 3500 
z
" id="DejaVuSans-76" transform="scale(0.015625)"/>
       </defs>
       <use xlink:href="#DejaVuSans-4e"/>
       <use x="74.804688" xlink:href="#DejaVuSans-6f"/>
       <use x="135.986328" xlink:href="#DejaVuSans-76"/>
      </g>
     </g>
    </g>
    <g id="xtick_12">
     <g id="line2d_12">
      <path clip-path="url(#p19d1ca4bfc)" d="M 208.611422 255.874589 
L 119.228367 101.058597 
" style="fill:none;stroke:#b0b0b0;stroke-linecap:square;stroke-width:0.8;"/>
     </g>
     <g id="text_12">
      <!-- Dec -->
      <g transform="translate(102.552586 91.693616)scale(0.1 -0.1)">
       <defs>
        <path d="M 1259 4147 
L 1259 519 
L 2022 519 
Q 2988 519 3436 956 
Q 3884 1394 3884 2338 
Q 3884 3275 3436 3711 
Q 2988 4147 2022 4147 
L 1259 4147 
z
M 628 4666 
L 1925 4666 
Q 3281 4666 3915 4102 
Q 4550 3538 4550 2338 
Q 4550 1131 3912 565 
Q 3275 0 1925 0 
L 628 0 
L 628 4666 
z
" id="DejaVuSans-44" transform="scale(0.015625)"/>
       </defs>
       <use xlink:href="#DejaVuSans-44"/>
       <use x="77.001953" xlink:href="#DejaVuSans-65"/>
       <use x="138.525391" xlink:href="#DejaVuSans-63"/>
      </g>
     </g>
    </g>
   </g>
   <g id="matplotlib.axis_2">
    <g id="ytick_1">
     <g id="line2d_13">
      <path clip-path="url(#p19d1ca4bfc)" d="M 208.611422 221.663598 
C 213.103968 221.663598 217.552829 222.548532 221.703401 224.267755 
C 225.853972 225.986978 229.625535 228.507055 232.802245 231.683765 
C 235.978955 234.860475 238.499032 238.632038 240.218255 242.782609 
C 241.937478 246.933181 242.822412 251.382042 242.822412 255.874589 
C 242.822412 260.367135 241.937478 264.815996 240.218255 268.966568 
C 238.499032 273.117139 235.978955 276.888702 232.802245 280.065412 
C 229.625535 283.242122 225.853972 285.762199 221.703401 287.481422 
C 217.552829 289.200645 213.103968 290.085579 208.611422 290.085579 
C 204.118875 290.085579 199.670014 289.200645 195.519442 287.481422 
C 191.368871 285.762199 187.597308 283.242122 184.420598 280.065412 
C 181.243888 276.888702 178.723811 273.117139 177.004588 268.966568 
C 175.285365 264.815996 174.400431 260.367135 174.400431 255.874589 
C 174.400431 251.382042 175.285365 246.933181 177.004588 242.782609 
C 178.723811 238.632038 181.243888 234.860475 184.420598 231.683765 
C 187.597308 228.507055 191.368871 225.986978 195.519442 224.267755 
C 199.670014 222.548532 204.118875 221.663598 208.611422 221.663598 
" style="fill:none;stroke:#b0b0b0;stroke-linecap:square;stroke-width:0.8;"/>
     </g>
     <g id="text_13">
      <!-- 1000 -->
      <g transform="translate(208.611422 288.005891)scale(0.1 -0.1)">
       <defs>
        <path d="M 794 531 
L 1825 531 
L 1825 4091 
L 703 3866 
L 703 4441 
L 1819 4666 
L 2450 4666 
L 2450 531 
L 3481 531 
L 3481 0 
L 794 0 
L 794 531 
z
" id="DejaVuSans-31" transform="scale(0.015625)"/>
        <path d="M 2034 4250 
Q 1547 4250 1301 3770 
Q 1056 3291 1056 2328 
Q 1056 1369 1301 889 
Q 1547 409 2034 409 
Q 2525 409 2770 889 
Q 3016 1369 3016 2328 
Q 3016 3291 2770 3770 
Q 2525 4250 2034 4250 
z
M 2034 4750 
Q 2819 4750 3233 4129 
Q 3647 3509 3647 2328 
Q 3647 1150 3233 529 
Q 2819 -91 2034 -91 
Q 1250 -91 836 529 
Q 422 1150 422 2328 
Q 422 3509 836 4129 
Q 1250 4750 2034 4750 
z
" id="DejaVuSans-30" transform="scale(0.015625)"/>
       </defs>
       <use xlink:href="#DejaVuSans-31"/>
       <use x="63.623047" xlink:href="#DejaVuSans-30"/>
       <use x="127.246094" xlink:href="#DejaVuSans-30"/>
       <use x="190.869141" xlink:href="#DejaVuSans-30"/>
      </g>
     </g>
    </g>
    <g id="ytick_2">
     <g id="line2d_14">
      <path clip-path="url(#p19d1ca4bfc)" d="M 208.611422 187.452608 
C 217.596514 187.452608 226.494237 189.222475 234.79538 192.660921 
C 243.096523 196.099367 250.639648 201.139522 256.993068 207.492942 
C 263.346488 213.846362 268.386643 221.389487 271.825089 229.69063 
C 275.263535 237.991773 277.033402 246.889496 277.033402 255.874589 
C 277.033402 264.859681 275.263535 273.757404 271.825089 282.058547 
C 268.386643 290.35969 263.346488 297.902815 256.993068 304.256235 
C 250.639648 310.609655 243.096523 315.64981 234.79538 319.088256 
C 226.494237 322.526702 217.596514 324.296569 208.611422 324.296569 
C 199.626329 324.296569 190.728606 322.526702 182.427463 319.088256 
C 174.12632 315.64981 166.583195 310.609655 160.229775 304.256235 
C 153.876355 297.902815 148.8362 290.35969 145.397754 282.058547 
C 141.959308 273.757404 140.189441 264.859681 140.189441 255.874589 
C 140.189441 246.889496 141.959308 237.991773 145.397754 229.69063 
C 148.8362 221.389487 153.876355 213.846362 160.229775 207.492942 
C 166.583195 201.139522 174.12632 196.099367 182.427463 192.660921 
C 190.728606 189.222475 199.626329 187.452608 208.611422 187.452608 
" style="fill:none;stroke:#b0b0b0;stroke-linecap:square;stroke-width:0.8;"/>
     </g>
     <g id="text_14">
      <!-- 2000 -->
      <g transform="translate(208.611422 322.216882)scale(0.1 -0.1)">
       <defs>
        <path d="M 1228 531 
L 3431 531 
L 3431 0 
L 469 0 
L 469 531 
Q 828 903 1448 1529 
Q 2069 2156 2228 2338 
Q 2531 2678 2651 2914 
Q 2772 3150 2772 3378 
Q 2772 3750 2511 3984 
Q 2250 4219 1831 4219 
Q 1534 4219 1204 4116 
Q 875 4013 500 3803 
L 500 4441 
Q 881 4594 1212 4672 
Q 1544 4750 1819 4750 
Q 2544 4750 2975 4387 
Q 3406 4025 3406 3419 
Q 3406 3131 3298 2873 
Q 3191 2616 2906 2266 
Q 2828 2175 2409 1742 
Q 1991 1309 1228 531 
z
" id="DejaVuSans-32" transform="scale(0.015625)"/>
       </defs>
       <use xlink:href="#DejaVuSans-32"/>
       <use x="63.623047" xlink:href="#DejaVuSans-30"/>
       <use x="127.246094" xlink:href="#DejaVuSans-30"/>
       <use x="190.869141" xlink:href="#DejaVuSans-30"/>
      </g>
     </g>
    </g>
    <g id="ytick_3">
     <g id="line2d_15">
      <path clip-path="url(#p19d1ca4bfc)" d="M 208.611422 153.241617 
C 222.08906 153.241617 235.435645 155.896418 247.887359 161.054087 
C 260.339073 166.211756 271.653762 173.771989 281.183891 183.302119 
C 290.714021 192.832248 298.274254 204.146937 303.431923 216.598651 
C 308.589592 229.050365 311.244393 242.39695 311.244393 255.874589 
C 311.244393 269.352227 308.589592 282.698812 303.431923 295.150526 
C 298.274254 307.60224 290.714021 318.916929 281.183891 328.447058 
C 271.653762 337.977188 260.339073 345.537421 247.887359 350.69509 
C 235.435645 355.852759 222.08906 358.50756 208.611422 358.50756 
C 195.133783 358.50756 181.787198 355.852759 169.335484 350.69509 
C 156.88377 345.537421 145.569081 337.977188 136.038952 328.447058 
C 126.508822 318.916929 118.948589 307.60224 113.79092 295.150526 
C 108.633251 282.698812 105.97845 269.352227 105.97845 255.874589 
C 105.97845 242.39695 108.633251 229.050365 113.79092 216.598651 
C 118.948589 204.146937 126.508822 192.832248 136.038952 183.302119 
C 145.569081 173.771989 156.88377 166.211756 169.335484 161.054087 
C 181.787198 155.896418 195.133783 153.241617 208.611421 153.241617 
" style="fill:none;stroke:#b0b0b0;stroke-linecap:square;stroke-width:0.8;"/>
     </g>
     <g id="text_15">
      <!-- 3000 -->
      <g transform="translate(208.611422 356.427872)scale(0.1 -0.1)">
       <defs>
        <path d="M 2597 2516 
Q 3050 2419 3304 2112 
Q 3559 1806 3559 1356 
Q 3559 666 3084 287 
Q 2609 -91 1734 -91 
Q 1441 -91 1130 -33 
Q 819 25 488 141 
L 488 750 
Q 750 597 1062 519 
Q 1375 441 1716 441 
Q 2309 441 2620 675 
Q 2931 909 2931 1356 
Q 2931 1769 2642 2001 
Q 2353 2234 1838 2234 
L 1294 2234 
L 1294 2753 
L 1863 2753 
Q 2328 2753 2575 2939 
Q 2822 3125 2822 3475 
Q 2822 3834 2567 4026 
Q 2313 4219 1838 4219 
Q 1578 4219 1281 4162 
Q 984 4106 628 3988 
L 628 4550 
Q 988 4650 1302 4700 
Q 1616 4750 1894 4750 
Q 2613 4750 3031 4423 
Q 3450 4097 3450 3541 
Q 3450 3153 3228 2886 
Q 3006 2619 2597 2516 
z
" id="DejaVuSans-33" transform="scale(0.015625)"/>
       </defs>
       <use xlink:href="#DejaVuSans-33"/>
       <use x="63.623047" xlink:href="#DejaVuSans-30"/>
       <use x="127.246094" xlink:href="#DejaVuSans-30"/>
       <use x="190.869141" xlink:href="#DejaVuSans-30"/>
      </g>
     </g>
    </g>
    <g id="ytick_4">
     <g id="line2d_16">
      <path clip-path="url(#p19d1ca4bfc)" d="M 208.611422 119.030627 
C 226.581606 119.030627 244.377053 122.570362 260.979338 129.447253 
C 277.581624 136.324145 292.667875 146.404456 305.374715 159.111295 
C 318.081554 171.818135 328.161865 186.904386 335.038757 203.506672 
C 341.915648 220.108957 345.455383 237.904404 345.455383 255.874589 
C 345.455383 273.844773 341.915648 291.64022 335.038757 308.242505 
C 328.161865 324.844791 318.081554 339.931042 305.374715 352.637882 
C 292.667875 365.344721 277.581624 375.425032 260.979338 382.301924 
C 244.377053 389.178815 226.581606 392.71855 208.611422 392.71855 
C 190.641237 392.71855 172.84579 389.178815 156.243505 382.301924 
C 139.641219 375.425032 124.554968 365.344721 111.848128 352.637882 
C 99.141289 339.931042 89.060978 324.844791 82.184086 308.242505 
C 75.307195 291.64022 71.76746 273.844773 71.76746 255.874589 
C 71.76746 237.904404 75.307195 220.108957 82.184086 203.506672 
C 89.060978 186.904386 99.141289 171.818135 111.848128 159.111295 
C 124.554968 146.404456 139.641219 136.324145 156.243505 129.447253 
C 172.84579 122.570362 190.641237 119.030627 208.611421 119.030627 
" style="fill:none;stroke:#b0b0b0;stroke-linecap:square;stroke-width:0.8;"/>
     </g>
     <g id="text_16">
      <!-- 4000 -->
      <g transform="translate(208.611422 390.638862)scale(0.1 -0.1)">
       <defs>
        <path d="M 2419 4116 
L 825 1625 
L 2419 1625 
L 2419 4116 
z
M 2253 4666 
L 3047 4666 
L 3047 1625 
L 3713 1625 
L 3713 1100 
L 3047 1100 
L 3047 0 
L 2419 0 
L 2419 1100 
L 313 1100 
L 313 1709 
L 2253 4666 
z
" id="DejaVuSans-34" transform="scale(0.015625)"/>
       </defs>
       <use xlink:href="#DejaVuSans-34"/>
       <use x="63.623047" xlink:href="#DejaVuSans-30"/>
       <use x="127.246094" xlink:href="#DejaVuSans-30"/>
       <use x="190.869141" xlink:href="#DejaVuSans-30"/>
      </g>
     </g>
    </g>
    <g id="ytick_5">
     <g id="line2d_17">
      <path clip-path="url(#p19d1ca4bfc)" d="M 208.611422 84.819637 
C 231.074152 84.819637 253.318461 89.244305 274.071318 97.84042 
C 294.824174 106.436534 313.681989 119.036923 329.565538 134.920472 
C 345.449087 150.804021 358.049476 169.661836 366.64559 190.414692 
C 375.241705 211.167549 379.666373 233.411858 379.666373 255.874589 
C 379.666373 278.337319 375.241705 300.581628 366.64559 321.334485 
C 358.049476 342.087341 345.449087 360.945156 329.565538 376.828705 
C 313.681989 392.712254 294.824174 405.312643 274.071318 413.908757 
C 253.318461 422.504872 231.074152 426.92954 208.611422 426.92954 
C 186.148691 426.92954 163.904382 422.504872 143.151525 413.908757 
C 122.398669 405.312643 103.540854 392.712254 87.657305 376.828705 
C 71.773756 360.945156 59.173367 342.087341 50.577253 321.334485 
C 41.981138 300.581628 37.55647 278.337319 37.55647 255.874589 
C 37.55647 233.411858 41.981138 211.167549 50.577253 190.414692 
C 59.173367 169.661836 71.773756 150.804021 87.657305 134.920472 
C 103.540854 119.036923 122.398669 106.436534 143.151525 97.84042 
C 163.904382 89.244305 186.148691 84.819637 208.611421 84.819637 
" style="fill:none;stroke:#b0b0b0;stroke-linecap:square;stroke-width:0.8;"/>
     </g>
     <g id="text_17">
      <!-- 5000 -->
      <g transform="translate(208.611422 424.849853)scale(0.1 -0.1)">
       <defs>
        <path d="M 691 4666 
L 3169 4666 
L 3169 4134 
L 1269 4134 
L 1269 2991 
Q 1406 3038 1543 3061 
Q 1681 3084 1819 3084 
Q 2600 3084 3056 2656 
Q 3513 2228 3513 1497 
Q 3513 744 3044 326 
Q 2575 -91 1722 -91 
Q 1428 -91 1123 -41 
Q 819 9 494 109 
L 494 744 
Q 775 591 1075 516 
Q 1375 441 1709 441 
Q 2250 441 2565 725 
Q 2881 1009 2881 1497 
Q 2881 1984 2565 2268 
Q 2250 2553 1709 2553 
Q 1456 2553 1204 2497 
Q 953 2441 691 2322 
L 691 4666 
z
" id="DejaVuSans-35" transform="scale(0.015625)"/>
       </defs>
       <use xlink:href="#DejaVuSans-35"/>
       <use x="63.623047" xlink:href="#DejaVuSans-30"/>
       <use x="127.246094" xlink:href="#DejaVuSans-30"/>
       <use x="190.869141" xlink:href="#DejaVuSans-30"/>
      </g>
     </g>
    </g>
   </g>
   <g id="line2d_18">
    <path clip-path="url(#p19d1ca4bfc)" d="M 208.611422 153.087668 
L 221.215447 152.0711 
L 233.471933 155.011529 
L 246.58872 155.736681 
L 258.231077 161.332234 
L 268.652942 168.889428 
L 278.053521 177.490662 
L 290.951675 182.927489 
L 296.131528 195.463821 
L 302.593368 206.549058 
L 303.455342 219.905034 
L 305.687757 231.947421 
L 308.169716 243.786023 
L 305.154836 255.874589 
L 303.313214 267.373468 
L 300.140538 278.434489 
L 296.082147 289.047859 
L 288.189366 297.640316 
L 283.78552 307.763522 
L 275.523281 315.153323 
L 268.048959 322.965699 
L 259.73271 329.936561 
L 249.725304 334.210548 
L 239.637437 337.683468 
L 229.623937 341.125714 
L 219.211339 343.172762 
L 208.611422 347.320566 
L 198.11872 342.289762 
L 187.517034 341.457883 
L 177.494421 337.923377 
L 168.944315 331.453946 
L 159.210047 327.444835 
L 151.113544 320.776275 
L 143.914593 313.190977 
L 137.463501 304.984452 
L 131.472009 296.360475 
L 127.554256 286.615516 
L 122.67935 277.054942 
L 118.5284 266.812648 
L 118.294407 255.874589 
L 117.407669 244.800448 
L 119.390879 233.8837 
L 123.091954 223.441332 
L 127.140207 213.115196 
L 132.831988 203.567823 
L 138.3194 193.601291 
L 145.283221 184.391827 
L 154.545873 177.54712 
L 163.300298 169.541455 
L 172.629735 160.99868 
L 184.369046 157.519403 
L 196.522856 156.316294 
L 208.611421 153.087668 
" style="fill:none;stroke:#1f77b4;stroke-dasharray:5.55,2.4;stroke-dashoffset:0;stroke-width:1.5;"/>
   </g>
   <g id="line2d_19">
    <path clip-path="url(#p19d1ca4bfc)" d="M 208.611422 149.717885 
L 222.222981 141.596593 
L 233.980077 150.892132 
L 244.896357 158.189201 
L 258.038602 159.574926 
L 269.692923 165.18876 
L 280.034566 172.997748 
L 283.302521 187.545843 
L 294.72337 194.087131 
L 301.696395 204.556893 
L 310.631576 214.499367 
L 327.877536 223.285062 
L 359.452507 233.356628 
L 382.497909 250.719489 
L 378.377314 271.008886 
L 352.832003 286.231912 
L 335.330505 298.715477 
L 313.097433 305.64852 
L 295.079236 310.461579 
L 282.384233 315.735404 
L 274.619692 323.868764 
L 265.325649 330.165202 
L 255.271123 334.878677 
L 245.696097 340.061902 
L 235.548644 344.086158 
L 224.702603 345.407114 
L 213.957805 345.96468 
L 203.303545 345.315813 
L 193.312998 340.996148 
L 181.904005 343.333611 
L 171.843944 339.341818 
L 162.647614 333.700391 
L 141.99504 343.136148 
L 140.553797 325.979775 
L 135.954368 314.830055 
L 130.735424 305.037579 
L 123.923085 296.217515 
L 120.426607 285.687902 
L 111.828296 276.246692 
L 106.315715 264.994051 
L 105.271212 252.810929 
L 99.591687 239.599831 
L 94.823496 224.78198 
L 91.722574 208.46923 
L 101.085844 196.595795 
L 109.10181 184.473975 
L 124.429328 178.863312 
L 132.565203 167.633299 
L 141.146559 155.71158 
L 152.138837 145.848267 
L 162.046152 130.512744 
L 177.537431 127.281887 
L 192.009689 116.492122 
L 208.611421 114.104244 
" style="fill:none;stroke:#d62728;stroke-linecap:square;stroke-width:2;"/>
   </g>
   <g id="line2d_20">
    <path clip-path="url(#p19d1ca4bfc)" d="M 208.611422 114.104244 
L 224.97613 125.113897 
L 241.171808 127.826678 
L 254.998413 137.511648 
L 268.32463 146.051674 
L 279.425817 157.207548 
L 290.618902 167.317331 
L 292.576885 185.255154 
L 297.767762 198.125787 
L 308.561135 207.559888 
L 307.240107 222.557413 
L 310.647568 235.056307 
L 317.013776 247.536877 
L 316.663328 261.036844 
L 314.343282 274.26833 
L 311.469719 287.325903 
L 306.112256 299.561772 
L 296.335725 309.14722 
L 289.443381 319.947357 
L 280.21405 328.82999 
L 266.824362 332.206056 
L 260.387884 344.84661 
L 247.249776 346.621548 
L 235.550164 350.256727 
L 222.595733 346.24497 
L 211.382323 351.317249 
L 199.361911 352.455055 
L 187.178731 351.727391 
L 176.55063 345.232601 
L 163.661109 344.587836 
L 152.074143 339.680478 
L 144.827929 328.893311 
L 134.824294 321.682565 
L 126.293972 312.651191 
L 121.975123 300.90084 
L 109.804165 292.479661 
L 111.885489 278.551919 
L 110.668584 266.274521 
L 103.909919 253.914824 
L 105.133027 240.952435 
L 108.314927 228.362653 
L 106.058674 213.452956 
L 109.235244 199.406737 
L 112.794751 184.351645 
" style="fill:none;stroke:#2ca02c;stroke-linecap:square;stroke-width:3;"/>
   </g>
   <g id="patch_3">
    <path d="M 208.611421 77.108479 
C 185.136071 77.108479 161.888989 81.732612 140.200593 90.716239 
C 118.512198 99.699867 98.804273 112.868281 82.204694 129.467861 
C 65.605114 146.06744 52.4367 165.775365 43.453072 187.46376 
C 34.469445 209.152156 29.845313 232.399238 29.845313 255.874589 
C 29.845313 279.349939 34.469445 302.597021 43.453072 324.285417 
C 52.4367 345.973812 65.605114 365.681737 82.204694 382.281316 
C 98.804273 398.880896 118.512198 412.04931 140.200593 421.032938 
C 161.888989 430.016565 185.136071 434.640698 208.611422 434.640698 
C 232.086772 434.640698 255.333854 430.016565 277.02225 421.032938 
C 298.710645 412.04931 318.41857 398.880896 335.018149 382.281316 
C 351.617729 365.681737 364.786143 345.973812 373.769771 324.285417 
C 382.753398 302.597021 387.377531 279.349939 387.377531 255.874589 
C 387.377531 232.399238 382.753398 209.152156 373.769771 187.46376 
C 364.786143 165.775365 351.617729 146.06744 335.018149 129.467861 
C 318.41857 112.868281 298.710645 99.699867 277.02225 90.716239 
C 255.333854 81.732612 232.086772 77.108479 208.611422 77.108479 
" style="fill:none;stroke:#000000;stroke-linecap:square;stroke-linejoin:miter;stroke-width:0.8;"/>
   </g>
   <g id="text_18">
    <!-- Totaal mannen en vrouwen, Totaal leeftijd, median excludes 2020 &amp; 2021 -->
    <g transform="translate(24.591109 35.355258)scale(0.1 -0.1)">
     <defs>
      <path d="M -19 4666 
L 3928 4666 
L 3928 4134 
L 2272 4134 
L 2272 0 
L 1638 0 
L 1638 4134 
L -19 4134 
L -19 4666 
z
" id="DejaVuSans-54" transform="scale(0.015625)"/>
      <path id="DejaVuSans-20" transform="scale(0.015625)"/>
      <path d="M 3328 2828 
Q 3544 3216 3844 3400 
Q 4144 3584 4550 3584 
Q 5097 3584 5394 3201 
Q 5691 2819 5691 2113 
L 5691 0 
L 5113 0 
L 5113 2094 
Q 5113 2597 4934 2840 
Q 4756 3084 4391 3084 
Q 3944 3084 3684 2787 
Q 3425 2491 3425 1978 
L 3425 0 
L 2847 0 
L 2847 2094 
Q 2847 2600 2669 2842 
Q 2491 3084 2119 3084 
Q 1678 3084 1418 2786 
Q 1159 2488 1159 1978 
L 1159 0 
L 581 0 
L 581 3500 
L 1159 3500 
L 1159 2956 
Q 1356 3278 1631 3431 
Q 1906 3584 2284 3584 
Q 2666 3584 2933 3390 
Q 3200 3197 3328 2828 
z
" id="DejaVuSans-6d" transform="scale(0.015625)"/>
      <path d="M 269 3500 
L 844 3500 
L 1563 769 
L 2278 3500 
L 2956 3500 
L 3675 769 
L 4391 3500 
L 4966 3500 
L 4050 0 
L 3372 0 
L 2619 2869 
L 1863 0 
L 1184 0 
L 269 3500 
z
" id="DejaVuSans-77" transform="scale(0.015625)"/>
      <path d="M 750 794 
L 1409 794 
L 1409 256 
L 897 -744 
L 494 -744 
L 750 256 
L 750 794 
z
" id="DejaVuSans-2c" transform="scale(0.015625)"/>
      <path d="M 2375 4863 
L 2375 4384 
L 1825 4384 
Q 1516 4384 1395 4259 
Q 1275 4134 1275 3809 
L 1275 3500 
L 2222 3500 
L 2222 3053 
L 1275 3053 
L 1275 0 
L 697 0 
L 697 3053 
L 147 3053 
L 147 3500 
L 697 3500 
L 697 3744 
Q 697 4328 969 4595 
Q 1241 4863 1831 4863 
L 2375 4863 
z
" id="DejaVuSans-66" transform="scale(0.015625)"/>
      <path d="M 603 3500 
L 1178 3500 
L 1178 0 
L 603 0 
L 603 3500 
z
M 603 4863 
L 1178 4863 
L 1178 4134 
L 603 4134 
L 603 4863 
z
" id="DejaVuSans-69" transform="scale(0.015625)"/>
      <path d="M 603 3500 
L 1178 3500 
L 1178 -63 
Q 1178 -731 923 -1031 
Q 669 -1331 103 -1331 
L -116 -1331 
L -116 -844 
L 38 -844 
Q 366 -844 484 -692 
Q 603 -541 603 -63 
L 603 3500 
z
M 603 4863 
L 1178 4863 
L 1178 4134 
L 603 4134 
L 603 4863 
z
" id="DejaVuSans-6a" transform="scale(0.015625)"/>
      <path d="M 2906 2969 
L 2906 4863 
L 3481 4863 
L 3481 0 
L 2906 0 
L 2906 525 
Q 2725 213 2448 61 
Q 2172 -91 1784 -91 
Q 1150 -91 751 415 
Q 353 922 353 1747 
Q 353 2572 751 3078 
Q 1150 3584 1784 3584 
Q 2172 3584 2448 3432 
Q 2725 3281 2906 2969 
z
M 947 1747 
Q 947 1113 1208 752 
Q 1469 391 1925 391 
Q 2381 391 2643 752 
Q 2906 1113 2906 1747 
Q 2906 2381 2643 2742 
Q 2381 3103 1925 3103 
Q 1469 3103 1208 2742 
Q 947 2381 947 1747 
z
" id="DejaVuSans-64" transform="scale(0.015625)"/>
      <path d="M 3513 3500 
L 2247 1797 
L 3578 0 
L 2900 0 
L 1881 1375 
L 863 0 
L 184 0 
L 1544 1831 
L 300 3500 
L 978 3500 
L 1906 2253 
L 2834 3500 
L 3513 3500 
z
" id="DejaVuSans-78" transform="scale(0.015625)"/>
      <path d="M 2834 3397 
L 2834 2853 
Q 2591 2978 2328 3040 
Q 2066 3103 1784 3103 
Q 1356 3103 1142 2972 
Q 928 2841 928 2578 
Q 928 2378 1081 2264 
Q 1234 2150 1697 2047 
L 1894 2003 
Q 2506 1872 2764 1633 
Q 3022 1394 3022 966 
Q 3022 478 2636 193 
Q 2250 -91 1575 -91 
Q 1294 -91 989 -36 
Q 684 19 347 128 
L 347 722 
Q 666 556 975 473 
Q 1284 391 1588 391 
Q 1994 391 2212 530 
Q 2431 669 2431 922 
Q 2431 1156 2273 1281 
Q 2116 1406 1581 1522 
L 1381 1569 
Q 847 1681 609 1914 
Q 372 2147 372 2553 
Q 372 3047 722 3315 
Q 1072 3584 1716 3584 
Q 2034 3584 2315 3537 
Q 2597 3491 2834 3397 
z
" id="DejaVuSans-73" transform="scale(0.015625)"/>
      <path d="M 1556 2509 
Q 1272 2256 1139 2004 
Q 1006 1753 1006 1478 
Q 1006 1022 1337 719 
Q 1669 416 2169 416 
Q 2466 416 2725 514 
Q 2984 613 3213 813 
L 1556 2509 
z
M 1997 2859 
L 3584 1234 
Q 3769 1513 3872 1830 
Q 3975 2147 3994 2503 
L 4575 2503 
Q 4538 2091 4375 1687 
Q 4213 1284 3922 891 
L 4794 0 
L 4006 0 
L 3559 459 
Q 3234 181 2878 45 
Q 2522 -91 2113 -91 
Q 1359 -91 881 339 
Q 403 769 403 1441 
Q 403 1841 612 2192 
Q 822 2544 1241 2853 
Q 1091 3050 1012 3245 
Q 934 3441 934 3628 
Q 934 4134 1281 4442 
Q 1628 4750 2203 4750 
Q 2463 4750 2720 4694 
Q 2978 4638 3244 4525 
L 3244 3956 
Q 2972 4103 2725 4179 
Q 2478 4256 2266 4256 
Q 1938 4256 1733 4082 
Q 1528 3909 1528 3634 
Q 1528 3475 1620 3314 
Q 1713 3153 1997 2859 
z
" id="DejaVuSans-26" transform="scale(0.015625)"/>
     </defs>
     <use xlink:href="#DejaVuSans-54"/>
     <use x="44.083984" xlink:href="#DejaVuSans-6f"/>
     <use x="105.265625" xlink:href="#DejaVuSans-74"/>
     <use x="144.474609" xlink:href="#DejaVuSans-61"/>
     <use x="205.753906" xlink:href="#DejaVuSans-61"/>
     <use x="267.033203" xlink:href="#DejaVuSans-6c"/>
     <use x="294.816406" xlink:href="#DejaVuSans-20"/>
     <use x="326.603516" xlink:href="#DejaVuSans-6d"/>
     <use x="424.015625" xlink:href="#DejaVuSans-61"/>
     <use x="485.294922" xlink:href="#DejaVuSans-6e"/>
     <use x="548.673828" xlink:href="#DejaVuSans-6e"/>
     <use x="612.052734" xlink:href="#DejaVuSans-65"/>
     <use x="673.576172" xlink:href="#DejaVuSans-6e"/>
     <use x="736.955078" xlink:href="#DejaVuSans-20"/>
     <use x="768.742188" xlink:href="#DejaVuSans-65"/>
     <use x="830.265625" xlink:href="#DejaVuSans-6e"/>
     <use x="893.644531" xlink:href="#DejaVuSans-20"/>
     <use x="925.431641" xlink:href="#DejaVuSans-76"/>
     <use x="984.611328" xlink:href="#DejaVuSans-72"/>
     <use x="1023.474609" xlink:href="#DejaVuSans-6f"/>
     <use x="1084.65625" xlink:href="#DejaVuSans-75"/>
     <use x="1148.035156" xlink:href="#DejaVuSans-77"/>
     <use x="1229.822266" xlink:href="#DejaVuSans-65"/>
     <use x="1291.345703" xlink:href="#DejaVuSans-6e"/>
     <use x="1354.724609" xlink:href="#DejaVuSans-2c"/>
     <use x="1386.511719" xlink:href="#DejaVuSans-20"/>
     <use x="1418.298828" xlink:href="#DejaVuSans-54"/>
     <use x="1462.382812" xlink:href="#DejaVuSans-6f"/>
     <use x="1523.564453" xlink:href="#DejaVuSans-74"/>
     <use x="1562.773438" xlink:href="#DejaVuSans-61"/>
     <use x="1624.052734" xlink:href="#DejaVuSans-61"/>
     <use x="1685.332031" xlink:href="#DejaVuSans-6c"/>
     <use x="1713.115234" xlink:href="#DejaVuSans-20"/>
     <use x="1744.902344" xlink:href="#DejaVuSans-6c"/>
     <use x="1772.685547" xlink:href="#DejaVuSans-65"/>
     <use x="1834.208984" xlink:href="#DejaVuSans-65"/>
     <use x="1895.732422" xlink:href="#DejaVuSans-66"/>
     <use x="1929.1875" xlink:href="#DejaVuSans-74"/>
     <use x="1968.396484" xlink:href="#DejaVuSans-69"/>
     <use x="1996.179688" xlink:href="#DejaVuSans-6a"/>
     <use x="2023.962891" xlink:href="#DejaVuSans-64"/>
     <use x="2087.439453" xlink:href="#DejaVuSans-2c"/>
     <use x="2119.226562" xlink:href="#DejaVuSans-20"/>
     <use x="2151.013672" xlink:href="#DejaVuSans-6d"/>
     <use x="2248.425781" xlink:href="#DejaVuSans-65"/>
     <use x="2309.949219" xlink:href="#DejaVuSans-64"/>
     <use x="2373.425781" xlink:href="#DejaVuSans-69"/>
     <use x="2401.208984" xlink:href="#DejaVuSans-61"/>
     <use x="2462.488281" xlink:href="#DejaVuSans-6e"/>
     <use x="2525.867188" xlink:href="#DejaVuSans-20"/>
     <use x="2557.654297" xlink:href="#DejaVuSans-65"/>
     <use x="2617.427734" xlink:href="#DejaVuSans-78"/>
     <use x="2674.857422" xlink:href="#DejaVuSans-63"/>
     <use x="2729.837891" xlink:href="#DejaVuSans-6c"/>
     <use x="2757.621094" xlink:href="#DejaVuSans-75"/>
     <use x="2821" xlink:href="#DejaVuSans-64"/>
     <use x="2884.476562" xlink:href="#DejaVuSans-65"/>
     <use x="2946" xlink:href="#DejaVuSans-73"/>
     <use x="2998.099609" xlink:href="#DejaVuSans-20"/>
     <use x="3029.886719" xlink:href="#DejaVuSans-32"/>
     <use x="3093.509766" xlink:href="#DejaVuSans-30"/>
     <use x="3157.132812" xlink:href="#DejaVuSans-32"/>
     <use x="3220.755859" xlink:href="#DejaVuSans-30"/>
     <use x="3284.378906" xlink:href="#DejaVuSans-20"/>
     <use x="3316.166016" xlink:href="#DejaVuSans-26"/>
     <use x="3394.144531" xlink:href="#DejaVuSans-20"/>
     <use x="3425.931641" xlink:href="#DejaVuSans-32"/>
     <use x="3489.554688" xlink:href="#DejaVuSans-30"/>
     <use x="3553.177734" xlink:href="#DejaVuSans-32"/>
     <use x="3616.800781" xlink:href="#DejaVuSans-31"/>
    </g>
   </g>
  </g>
  <g id="text_19">
   <!-- Difference with the median (since 2010) -->
   <g transform="translate(67.259546 17.837812)scale(0.14 -0.14)">
    <defs>
     <path d="M 3513 2113 
L 3513 0 
L 2938 0 
L 2938 2094 
Q 2938 2591 2744 2837 
Q 2550 3084 2163 3084 
Q 1697 3084 1428 2787 
Q 1159 2491 1159 1978 
L 1159 0 
L 581 0 
L 581 4863 
L 1159 4863 
L 1159 2956 
Q 1366 3272 1645 3428 
Q 1925 3584 2291 3584 
Q 2894 3584 3203 3211 
Q 3513 2838 3513 2113 
z
" id="DejaVuSans-68" transform="scale(0.015625)"/>
     <path d="M 1984 4856 
Q 1566 4138 1362 3434 
Q 1159 2731 1159 2009 
Q 1159 1288 1364 580 
Q 1569 -128 1984 -844 
L 1484 -844 
Q 1016 -109 783 600 
Q 550 1309 550 2009 
Q 550 2706 781 3412 
Q 1013 4119 1484 4856 
L 1984 4856 
z
" id="DejaVuSans-28" transform="scale(0.015625)"/>
     <path d="M 513 4856 
L 1013 4856 
Q 1481 4119 1714 3412 
Q 1947 2706 1947 2009 
Q 1947 1309 1714 600 
Q 1481 -109 1013 -844 
L 513 -844 
Q 928 -128 1133 580 
Q 1338 1288 1338 2009 
Q 1338 2731 1133 3434 
Q 928 4138 513 4856 
z
" id="DejaVuSans-29" transform="scale(0.015625)"/>
    </defs>
    <use xlink:href="#DejaVuSans-44"/>
    <use x="77.001953" xlink:href="#DejaVuSans-69"/>
    <use x="104.785156" xlink:href="#DejaVuSans-66"/>
    <use x="139.990234" xlink:href="#DejaVuSans-66"/>
    <use x="175.195312" xlink:href="#DejaVuSans-65"/>
    <use x="236.71875" xlink:href="#DejaVuSans-72"/>
    <use x="275.582031" xlink:href="#DejaVuSans-65"/>
    <use x="337.105469" xlink:href="#DejaVuSans-6e"/>
    <use x="400.484375" xlink:href="#DejaVuSans-63"/>
    <use x="455.464844" xlink:href="#DejaVuSans-65"/>
    <use x="516.988281" xlink:href="#DejaVuSans-20"/>
    <use x="548.775391" xlink:href="#DejaVuSans-77"/>
    <use x="630.5625" xlink:href="#DejaVuSans-69"/>
    <use x="658.345703" xlink:href="#DejaVuSans-74"/>
    <use x="697.554688" xlink:href="#DejaVuSans-68"/>
    <use x="760.933594" xlink:href="#DejaVuSans-20"/>
    <use x="792.720703" xlink:href="#DejaVuSans-74"/>
    <use x="831.929688" xlink:href="#DejaVuSans-68"/>
    <use x="895.308594" xlink:href="#DejaVuSans-65"/>
    <use x="956.832031" xlink:href="#DejaVuSans-20"/>
    <use x="988.619141" xlink:href="#DejaVuSans-6d"/>
    <use x="1086.03125" xlink:href="#DejaVuSans-65"/>
    <use x="1147.554688" xlink:href="#DejaVuSans-64"/>
    <use x="1211.03125" xlink:href="#DejaVuSans-69"/>
    <use x="1238.814453" xlink:href="#DejaVuSans-61"/>
    <use x="1300.09375" xlink:href="#DejaVuSans-6e"/>
    <use x="1363.472656" xlink:href="#DejaVuSans-20"/>
    <use x="1395.259766" xlink:href="#DejaVuSans-28"/>
    <use x="1434.273438" xlink:href="#DejaVuSans-73"/>
    <use x="1486.373047" xlink:href="#DejaVuSans-69"/>
    <use x="1514.15625" xlink:href="#DejaVuSans-6e"/>
    <use x="1577.535156" xlink:href="#DejaVuSans-63"/>
    <use x="1632.515625" xlink:href="#DejaVuSans-65"/>
    <use x="1694.039062" xlink:href="#DejaVuSans-20"/>
    <use x="1725.826172" xlink:href="#DejaVuSans-32"/>
    <use x="1789.449219" xlink:href="#DejaVuSans-30"/>
    <use x="1853.072266" xlink:href="#DejaVuSans-31"/>
    <use x="1916.695312" xlink:href="#DejaVuSans-30"/>
    <use x="1980.318359" xlink:href="#DejaVuSans-29"/>
   </g>
  </g>
  <g id="legend_1">
   <g id="patch_4">
    <path d="M 418.023921 455.67976 
L 491.811421 455.67976 
Q 493.811421 455.67976 493.811421 453.67976 
L 493.811421 381.289135 
Q 493.811421 379.289135 491.811421 379.289135 
L 418.023921 379.289135 
Q 416.023921 379.289135 416.023921 381.289135 
L 416.023921 453.67976 
Q 416.023921 455.67976 418.023921 455.67976 
z
" style="fill:#ffffff;opacity:0.8;stroke:#cccccc;stroke-linejoin:miter;"/>
   </g>
   <g id="line2d_21">
    <path d="M 420.023921 387.387573 
L 440.023921 387.387573 
" style="fill:none;stroke:#1f77b4;stroke-dasharray:5.55,2.4;stroke-dashoffset:0;stroke-width:1.5;"/>
   </g>
   <g id="line2d_22"/>
   <g id="text_20">
    <!-- Median -->
    <g transform="translate(448.023921 390.887573)scale(0.1 -0.1)">
     <use xlink:href="#DejaVuSans-4d"/>
     <use x="86.279297" xlink:href="#DejaVuSans-65"/>
     <use x="147.802734" xlink:href="#DejaVuSans-64"/>
     <use x="211.279297" xlink:href="#DejaVuSans-69"/>
     <use x="239.0625" xlink:href="#DejaVuSans-61"/>
     <use x="300.341797" xlink:href="#DejaVuSans-6e"/>
    </g>
   </g>
   <g id="line2d_23">
    <path d="M 420.023921 402.065698 
L 440.023921 402.065698 
" style="fill:none;stroke:#d62728;stroke-linecap:square;stroke-width:2;"/>
   </g>
   <g id="line2d_24"/>
   <g id="text_21">
    <!-- 2020 -->
    <g transform="translate(448.023921 405.565698)scale(0.1 -0.1)">
     <use xlink:href="#DejaVuSans-32"/>
     <use x="63.623047" xlink:href="#DejaVuSans-30"/>
     <use x="127.246094" xlink:href="#DejaVuSans-32"/>
     <use x="190.869141" xlink:href="#DejaVuSans-30"/>
    </g>
   </g>
   <g id="line2d_25">
    <path d="M 420.023921 416.743823 
L 440.023921 416.743823 
" style="fill:none;stroke:#2ca02c;stroke-linecap:square;stroke-width:3;"/>
   </g>
   <g id="line2d_26"/>
   <g id="text_22">
    <!-- 2021 -->
    <g transform="translate(448.023921 420.243823)scale(0.1 -0.1)">
     <use xlink:href="#DejaVuSans-32"/>
     <use x="63.623047" xlink:href="#DejaVuSans-30"/>
     <use x="127.246094" xlink:href="#DejaVuSans-32"/>
     <use x="190.869141" xlink:href="#DejaVuSans-31"/>
    </g>
   </g>
   <g id="patch_5">
    <path d="M 420.023921 434.921948 
L 440.023921 434.921948 
L 440.023921 427.921948 
L 420.023921 427.921948 
z
" style="fill:#1f77b4;fill-opacity:0.3;stroke:#1f77b4;stroke-linejoin:miter;stroke-opacity:0.3;"/>
   </g>
   <g id="text_23">
    <!-- SD -->
    <g transform="translate(448.023921 434.921948)scale(0.1 -0.1)">
     <use xlink:href="#DejaVuSans-53"/>
     <use x="63.476562" xlink:href="#DejaVuSans-44"/>
    </g>
   </g>
   <g id="patch_6">
    <path d="M 420.023921 449.600073 
L 440.023921 449.600073 
L 440.023921 442.600073 
L 420.023921 442.600073 
z
" style="fill:#1f77b4;fill-opacity:0.2;"/>
   </g>
   <g id="text_24">
    <!-- Min/Max -->
    <g transform="translate(448.023921 449.600073)scale(0.1 -0.1)">
     <defs>
      <path d="M 1625 4666 
L 2156 4666 
L 531 -594 
L 0 -594 
L 1625 4666 
z
" id="DejaVuSans-2f" transform="scale(0.015625)"/>
     </defs>
     <use xlink:href="#DejaVuSans-4d"/>
     <use x="86.279297" xlink:href="#DejaVuSans-69"/>
     <use x="114.0625" xlink:href="#DejaVuSans-6e"/>
     <use x="177.441406" xlink:href="#DejaVuSans-2f"/>
     <use x="211.132812" xlink:href="#DejaVuSans-4d"/>
     <use x="297.412109" xlink:href="#DejaVuSans-61"/>
     <use x="358.691406" xlink:href="#DejaVuSans-78"/>
    </g>
   </g>
  </g>
 </g>
 <defs>
  <clipPath id="p19d1ca4bfc">
   <path d="M 387.377531 255.874589 
C 387.377531 232.399238 382.753398 209.152156 373.769771 187.46376 
C 364.786143 165.775365 351.617729 146.06744 335.018149 129.467861 
C 318.41857 112.868281 298.710645 99.699867 277.02225 90.716239 
C 255.333854 81.732612 232.086772 77.108479 208.611422 77.108479 
C 185.136071 77.108479 161.888989 81.732612 140.200593 90.716239 
C 118.512198 99.699867 98.804273 112.868281 82.204694 129.467861 
C 65.605114 146.06744 52.4367 165.775365 43.453072 187.46376 
C 34.469445 209.152156 29.845313 232.399238 29.845313 255.874588 
C 29.845313 279.349939 34.469445 302.597021 43.453072 324.285417 
C 52.4367 345.973812 65.605114 365.681737 82.204694 382.281316 
C 98.804273 398.880896 118.512198 412.04931 140.200593 421.032938 
C 161.888989 430.016565 185.136071 434.640698 208.611422 434.640698 
C 232.086772 434.640698 255.333854 430.016565 277.02225 421.032938 
C 298.710645 412.04931 318.41857 398.880896 335.018149 382.281316 
C 351.617729 365.681737 364.786143 345.973812 373.769771 324.285417 
C 382.753398 302.597021 387.377531 279.349939 387.377531 255.874589 
M 208.611422 255.874589 
C 208.611422 255.874589 208.611422 255.874589 208.611422 255.874589 
C 208.611422 255.874589 208.611422 255.874589 208.611422 255.874589 
C 208.611422 255.874589 208.611422 255.874589 208.611422 255.874589 
C 208.611422 255.874589 208.611422 255.874589 208.611422 255.874589 
C 208.611422 255.874589 208.611422 255.874589 208.611422 255.874589 
C 208.611422 255.874589 208.611422 255.874589 208.611422 255.874589 
C 208.611422 255.874589 208.611422 255.874589 208.611422 255.874589 
C 208.611422 255.874589 208.611422 255.874589 208.611422 255.874589 
C 208.611422 255.874589 208.611422 255.874589 208.611422 255.874589 
C 208.611422 255.874589 208.611422 255.874589 208.611422 255.874589 
C 208.611422 255.874589 208.611422 255.874589 208.611422 255.874589 
C 208.611422 255.874589 208.611422 255.874589 208.611422 255.874589 
C 208.611422 255.874589 208.611422 255.874589 208.611422 255.874589 
C 208.611422 255.874589 208.611422 255.874589 208.611422 255.874589 
C 208.611422 255.874589 208.611422 255.874589 208.611422 255.874589 
C 208.611422 255.874589 208.611422 255.874589 208.611422 255.874589 
M 387.377531 255.874589 
z
"/>
  </clipPath>
 </defs>
</svg>
