<?xml version="1.0" encoding="utf-8" standalone="no"?>
<!DOCTYPE svg PUBLIC "-//W3C//DTD SVG 1.1//EN"
  "http://www.w3.org/Graphics/SVG/1.1/DTD/svg11.dtd">
<svg xmlns:xlink="http://www.w3.org/1999/xlink" width="640.256688pt" height="583.179062pt" viewBox="0 0 640.256688 583.179062" xmlns="http://www.w3.org/2000/svg" version="1.1">
 <metadata>
  <rdf:RDF xmlns:dc="http://purl.org/dc/elements/1.1/" xmlns:cc="http://creativecommons.org/ns#" xmlns:rdf="http://www.w3.org/1999/02/22-rdf-syntax-ns#">
   <cc:Work>
    <dc:type rdf:resource="http://purl.org/dc/dcmitype/StillImage"/>
    <dc:date>2026-06-02T06:44:49.147997</dc:date>
    <dc:format>image/svg+xml</dc:format>
    <dc:creator>
     <cc:Agent>
      <dc:title>Matplotlib v3.10.9, https://matplotlib.org/</dc:title>
     </cc:Agent>
    </dc:creator>
   </cc:Work>
  </rdf:RDF>
 </metadata>
 <defs>
  <style type="text/css">*{stroke-linejoin: round; stroke-linecap: butt}</style>
 </defs>
 <g id="figure_1">
  <g id="patch_1">
   <path d="M 0 583.179062 
L 640.256688 583.179062 
L 640.256688 0 
L 0 0 
z
" style="fill: #f7fafc"/>
  </g>
  <g id="axes_1">
   <g id="patch_2">
    <path d="M 482.824688 326.88 
C 482.824688 297.758744 477.088435 268.920655 465.944213 242.016122 
C 454.79999 215.111589 438.464525 190.663838 417.872687 170.072 
C 397.280849 149.480162 372.833098 133.144697 345.928565 122.000475 
C 319.024033 110.856253 290.185944 105.12 261.064688 105.12 
C 231.943431 105.12 203.105342 110.856253 176.20081 122.000475 
C 149.296277 133.144697 124.848526 149.480162 104.256688 170.072 
C 83.66485 190.663838 67.329385 215.111589 56.185162 242.016122 
C 45.04094 268.920655 39.304688 297.758744 39.304688 326.88 
C 39.304688 356.001256 45.04094 384.839345 56.185162 411.743878 
C 67.329385 438.648411 83.66485 463.096162 104.256688 483.688 
C 124.848526 504.279838 149.296277 520.615303 176.20081 531.759525 
C 203.105342 542.903747 231.943431 548.64 261.064687 548.64 
C 290.185944 548.64 319.024033 542.903747 345.928565 531.759525 
C 372.833098 520.615303 397.280849 504.279838 417.872687 483.688 
C 438.464525 463.096162 454.79999 438.648411 465.944213 411.743878 
C 477.088435 384.839345 482.824688 356.001256 482.824688 326.88 
M 261.064688 326.88 
C 261.064688 326.88 261.064688 326.88 261.064688 326.88 
C 261.064688 326.88 261.064688 326.88 261.064688 326.88 
C 261.064688 326.88 261.064688 326.88 261.064688 326.88 
C 261.064688 326.88 261.064688 326.88 261.064688 326.88 
C 261.064688 326.88 261.064688 326.88 261.064688 326.88 
C 261.064688 326.88 261.064688 326.88 261.064688 326.88 
C 261.064688 326.88 261.064688 326.88 261.064688 326.88 
C 261.064688 326.88 261.064688 326.88 261.064688 326.88 
C 261.064688 326.88 261.064688 326.88 261.064688 326.88 
C 261.064688 326.88 261.064688 326.88 261.064688 326.88 
C 261.064688 326.88 261.064688 326.88 261.064688 326.88 
C 261.064688 326.88 261.064688 326.88 261.064688 326.88 
C 261.064688 326.88 261.064688 326.88 261.064688 326.88 
C 261.064688 326.88 261.064688 326.88 261.064688 326.88 
C 261.064688 326.88 261.064688 326.88 261.064688 326.88 
C 261.064688 326.88 261.064688 326.88 261.064688 326.88 
z
" style="fill: #ffffff"/>
   </g>
   <g id="FillBetweenPolyCollection_1">
    <defs>
     <path id="mb4ad51e73b" d="M 261.064688 -359.910545 
L 261.064688 -398.49118 
L 278.075264 -396.393766 
L 294.043741 -390.100341 
L 309.687202 -384.506097 
L 324.786946 -377.711682 
L 338.312681 -368.212102 
L 351.609722 -358.503278 
L 363.295282 -346.867466 
L 373.177116 -333.684684 
L 382.15574 -319.852549 
L 385.074594 -303.329816 
L 388.60041 -287.733795 
L 392.509379 -272.259338 
L 394.407076 -256.299062 
L 390.692607 -240.559383 
L 384.19928 -225.949111 
L 376.382378 -212.564831 
L 366.623204 -200.897679 
L 358.202462 -189.249698 
L 348.796874 -178.575128 
L 337.776266 -169.70959 
L 326.582049 -161.380777 
L 314.527952 -154.433323 
L 301.79418 -148.904218 
L 288.619237 -144.505862 
L 274.928705 -142.118608 
L 261.064688 -140.096085 
L 247.243869 -142.474378 
L 233.791972 -145.649305 
L 219.878256 -147.699367 
L 208.340975 -155.842421 
L 196.90239 -163.343926 
L 184.895066 -170.321333 
L 176.387412 -181.281543 
L 169.730259 -193.255458 
L 161.615027 -204.103854 
L 156.350268 -216.586121 
L 150.846657 -229.132758 
L 146.100128 -242.339838 
L 143.172164 -256.299062 
L 142.843802 -270.653677 
L 143.941909 -285.167235 
L 146.408009 -299.782605 
L 151.870279 -313.608709 
L 158.683208 -326.967895 
L 166.921123 -339.702983 
L 176.425108 -351.837398 
L 186.57121 -364.221496 
L 198.964298 -374.621469 
L 212.604901 -384.077018 
L 227.768999 -391.384981 
L 244.491466 -392.791819 
L 261.064688 -398.49118 
L 261.064688 -359.910545 
L 261.064688 -359.910545 
L 248.885425 -356.604314 
L 237.051892 -353.722805 
L 226.420839 -347.647384 
L 216.82616 -340.588535 
L 207.533328 -333.852626 
L 198.709272 -326.683777 
L 191.648222 -317.796685 
L 185.506637 -308.453019 
L 179.863781 -298.916586 
L 175.220937 -288.855303 
L 171.803073 -278.300075 
L 171.335094 -267.194208 
L 170.281317 -256.299062 
L 172.964974 -245.601821 
L 174.076102 -234.858302 
L 178.222114 -224.881018 
L 184.418168 -216.071866 
L 189.589415 -206.963244 
L 196.388795 -199.001221 
L 202.555537 -190.255885 
L 211.152817 -183.989235 
L 219.890315 -177.84785 
L 230.091634 -174.629834 
L 239.838058 -170.179242 
L 250.149045 -166.40066 
L 261.064688 -163.360667 
L 272.060642 -165.739232 
L 282.838523 -167.95914 
L 293.449637 -170.906967 
L 303.452089 -175.536616 
L 313.776325 -179.933072 
L 321.716185 -187.837674 
L 330.35542 -194.91283 
L 337.747367 -203.368831 
L 342.775591 -213.413872 
L 348.17077 -223.264083 
L 351.313047 -234.05484 
L 351.778142 -245.284455 
L 353.140072 -256.299062 
L 355.928825 -267.817654 
L 355.530346 -279.582756 
L 352.707834 -291.054723 
L 348.430585 -302.152222 
L 343.003975 -312.857669 
L 335.670727 -322.394246 
L 326.924488 -330.63941 
L 317.819392 -338.522447 
L 307.506549 -344.786636 
L 296.304109 -349.217779 
L 285.316178 -354.691227 
L 273.419886 -358.053276 
L 261.064688 -359.910545 
z
" style="stroke: #cbd5e0; stroke-opacity: 0.35"/>
    </defs>
    <g clip-path="url(#p6944624ede)">
     <use xlink:href="#mb4ad51e73b" x="0" y="583.179062" style="fill: #cbd5e0; fill-opacity: 0.35; stroke: #cbd5e0; stroke-opacity: 0.35"/>
    </g>
   </g>
   <g id="FillBetweenPolyCollection_2">
    <defs>
     <path id="m9ce54c37a0" d="M 261.064688 -431.410546 
L 261.064688 -348.649775 
L 272.140321 -347.515112 
L 283.044337 -345.474005 
L 291.835237 -337.434333 
L 303.353951 -336.874522 
L 311.629973 -329.555526 
L 319.979328 -322.799945 
L 326.806644 -314.541353 
L 335.433731 -307.632307 
L 338.684965 -297.037327 
L 342.515967 -287.189458 
L 346.588954 -277.378901 
L 347.038435 -266.738165 
L 346.698216 -256.299062 
L 347.96108 -245.74793 
L 341.502619 -236.472893 
L 339.948395 -226.382418 
L 338.04904 -215.894557 
L 330.04467 -208.685618 
L 324.276891 -200.297937 
L 314.712589 -195.7431 
L 308.774127 -187.180007 
L 299.270308 -183.504335 
L 290.831524 -177.810366 
L 280.921188 -175.738075 
L 271.060765 -173.973957 
L 261.064688 -173.622784 
L 251.435252 -176.993523 
L 241.622707 -177.419847 
L 233.604894 -183.893536 
L 223.526586 -184.776185 
L 215.515132 -190.309139 
L 206.268189 -194.446601 
L 204.113623 -205.844822 
L 193.927416 -209.95755 
L 193.132917 -220.645719 
L 186.210093 -227.910459 
L 180.13453 -236.35157 
L 181.339764 -246.618704 
L 176.276087 -256.299062 
L 178.446013 -266.330786 
L 178.616833 -276.620633 
L 182.812998 -285.976014 
L 184.042928 -296.7232 
L 190.763516 -304.824458 
L 196.46112 -313.532829 
L 203.438717 -321.345337 
L 212.107315 -327.226061 
L 219.639272 -335.228598 
L 230.039465 -338.105852 
L 239.428786 -344.079365 
L 249.999238 -347.431235 
L 261.064688 -348.649775 
L 261.064687 -431.410546 
L 261.064687 -431.410546 
L 240.008253 -429.714402 
L 218.621924 -428.496123 
L 200.347533 -416.397042 
L 175.210023 -419.88146 
L 155.590349 -409.105022 
L 143.62761 -388.85812 
L 134.418928 -368.497415 
L 129.362986 -347.206183 
L 123.143741 -328.685559 
L 124.864876 -307.952838 
L 122.790202 -290.380662 
L 120.738756 -273.337715 
L 120.426297 -256.299062 
L 126.568196 -239.968232 
L 133.455098 -224.846124 
L 141.099831 -210.802394 
L 144.353716 -195.044419 
L 153.73545 -182.215039 
L 164.902451 -171.106755 
L 171.165932 -154.824345 
L 189.404534 -152.481407 
L 201.95003 -143.665493 
L 214.08492 -132.423596 
L 228.873702 -125.695099 
L 245.105591 -124.864075 
L 261.064688 -124.997135 
L 276.891386 -125.954473 
L 292.871485 -127.253814 
L 309.123072 -129.579517 
L 321.749977 -140.672904 
L 335.820675 -147.996317 
L 349.030437 -157.006257 
L 362.159942 -166.736482 
L 369.819418 -181.231092 
L 387.613795 -189.880967 
L 415.514009 -197.724161 
L 437.773819 -212.744173 
L 470.001863 -230.929496 
L 475.887822 -256.299062 
L 448.026135 -279.000292 
L 410.00407 -293.009323 
L 408.522314 -312.222364 
L 414.135616 -336.636883 
L 397.946841 -350.781991 
L 390.999126 -371.410931 
L 372.95488 -382.596981 
L 356.123585 -394.015651 
L 340.008572 -406.714068 
L 321.557131 -415.804526 
L 300.120522 -414.754814 
L 281.179057 -421.955796 
L 261.064688 -431.410546 
z
" style="stroke: #e2e8f0; stroke-opacity: 0.15"/>
    </defs>
    <g clip-path="url(#p6944624ede)">
     <use xlink:href="#m9ce54c37a0" x="0" y="583.179062" style="fill: #e2e8f0; fill-opacity: 0.15; stroke: #e2e8f0; stroke-opacity: 0.15"/>
    </g>
   </g>
   <g id="matplotlib.axis_1">
    <g id="xtick_1">
     <g id="line2d_1">
      <path d="M 261.064688 326.88 
L 261.064688 105.12 
" clip-path="url(#p6944624ede)" style="fill: none; stroke-dasharray: 2.22,0.96; stroke-dashoffset: 0; stroke: #e2e8f0; stroke-width: 0.6"/>
     </g>
     <g id="text_1">
      <!-- Jan -->
      <g style="fill: #4a5568" transform="translate(252.270938 85.379375) scale(0.1 -0.1)">
       <defs>
        <path id="DejaVuSans-Bold-4a" d="M 588 4666 
L 1791 4666 
L 1791 453 
Q 1791 -419 1317 -850 
Q 844 -1281 -116 -1281 
L -359 -1281 
L -359 -372 
L -172 -372 
Q 203 -372 395 -162 
Q 588 47 588 453 
L 588 4666 
z
" transform="scale(0.015625)"/>
        <path id="DejaVuSans-Bold-61" d="M 2106 1575 
Q 1756 1575 1579 1456 
Q 1403 1338 1403 1106 
Q 1403 894 1545 773 
Q 1688 653 1941 653 
Q 2256 653 2472 879 
Q 2688 1106 2688 1447 
L 2688 1575 
L 2106 1575 
z
M 3816 1997 
L 3816 0 
L 2688 0 
L 2688 519 
Q 2463 200 2181 54 
Q 1900 -91 1497 -91 
Q 953 -91 614 226 
Q 275 544 275 1050 
Q 275 1666 698 1953 
Q 1122 2241 2028 2241 
L 2688 2241 
L 2688 2328 
Q 2688 2594 2478 2717 
Q 2269 2841 1825 2841 
Q 1466 2841 1156 2769 
Q 847 2697 581 2553 
L 581 3406 
Q 941 3494 1303 3539 
Q 1666 3584 2028 3584 
Q 2975 3584 3395 3211 
Q 3816 2838 3816 1997 
z
" transform="scale(0.015625)"/>
        <path id="DejaVuSans-Bold-6e" d="M 4056 2131 
L 4056 0 
L 2931 0 
L 2931 347 
L 2931 1631 
Q 2931 2084 2911 2256 
Q 2891 2428 2841 2509 
Q 2775 2619 2662 2680 
Q 2550 2741 2406 2741 
Q 2056 2741 1856 2470 
Q 1656 2200 1656 1722 
L 1656 0 
L 538 0 
L 538 3500 
L 1656 3500 
L 1656 2988 
Q 1909 3294 2193 3439 
Q 2478 3584 2822 3584 
Q 3428 3584 3742 3212 
Q 4056 2841 4056 2131 
z
" transform="scale(0.015625)"/>
       </defs>
       <use xlink:href="#DejaVuSans-Bold-4a"/>
       <use xlink:href="#DejaVuSans-Bold-61" transform="translate(37.207031 0)"/>
       <use xlink:href="#DejaVuSans-Bold-6e" transform="translate(104.6875 0)"/>
      </g>
     </g>
    </g>
    <g id="xtick_2">
     <g id="line2d_2">
      <path d="M 261.064688 326.88 
L 371.944688 134.830206 
" clip-path="url(#p6944624ede)" style="fill: none; stroke-dasharray: 2.22,0.96; stroke-dashoffset: 0; stroke: #e2e8f0; stroke-width: 0.6"/>
     </g>
     <g id="text_2">
      <!-- Feb -->
      <g style="fill: #4a5568" transform="translate(373.00875 118.10401) scale(0.1 -0.1)">
       <defs>
        <path id="DejaVuSans-Bold-46" d="M 588 4666 
L 3834 4666 
L 3834 3756 
L 1791 3756 
L 1791 2888 
L 3713 2888 
L 3713 1978 
L 1791 1978 
L 1791 0 
L 588 0 
L 588 4666 
z
" transform="scale(0.015625)"/>
        <path id="DejaVuSans-Bold-65" d="M 4031 1759 
L 4031 1441 
L 1416 1441 
Q 1456 1047 1700 850 
Q 1944 653 2381 653 
Q 2734 653 3104 758 
Q 3475 863 3866 1075 
L 3866 213 
Q 3469 63 3072 -14 
Q 2675 -91 2278 -91 
Q 1328 -91 801 392 
Q 275 875 275 1747 
Q 275 2603 792 3093 
Q 1309 3584 2216 3584 
Q 3041 3584 3536 3087 
Q 4031 2591 4031 1759 
z
M 2881 2131 
Q 2881 2450 2695 2645 
Q 2509 2841 2209 2841 
Q 1884 2841 1681 2658 
Q 1478 2475 1428 2131 
L 2881 2131 
z
" transform="scale(0.015625)"/>
        <path id="DejaVuSans-Bold-62" d="M 2400 722 
Q 2759 722 2948 984 
Q 3138 1247 3138 1747 
Q 3138 2247 2948 2509 
Q 2759 2772 2400 2772 
Q 2041 2772 1848 2508 
Q 1656 2244 1656 1747 
Q 1656 1250 1848 986 
Q 2041 722 2400 722 
z
M 1656 2988 
Q 1888 3294 2169 3439 
Q 2450 3584 2816 3584 
Q 3463 3584 3878 3070 
Q 4294 2556 4294 1747 
Q 4294 938 3878 423 
Q 3463 -91 2816 -91 
Q 2450 -91 2169 54 
Q 1888 200 1656 506 
L 1656 0 
L 538 0 
L 538 4863 
L 1656 4863 
L 1656 2988 
z
" transform="scale(0.015625)"/>
       </defs>
       <use xlink:href="#DejaVuSans-Bold-46"/>
       <use xlink:href="#DejaVuSans-Bold-65" transform="translate(64.310547 0)"/>
       <use xlink:href="#DejaVuSans-Bold-62" transform="translate(132.132812 0)"/>
      </g>
     </g>
    </g>
    <g id="xtick_3">
     <g id="line2d_3">
      <path d="M 261.064688 326.88 
L 453.114481 216 
" clip-path="url(#p6944624ede)" style="fill: none; stroke-dasharray: 2.22,0.96; stroke-dashoffset: 0; stroke: #e2e8f0; stroke-width: 0.6"/>
     </g>
     <g id="text_3">
      <!-- Mar -->
      <g style="fill: #4a5568" transform="translate(461.784428 207.509375) scale(0.1 -0.1)">
       <defs>
        <path id="DejaVuSans-Bold-4d" d="M 588 4666 
L 2119 4666 
L 3181 2169 
L 4250 4666 
L 5778 4666 
L 5778 0 
L 4641 0 
L 4641 3413 
L 3566 897 
L 2803 897 
L 1728 3413 
L 1728 0 
L 588 0 
L 588 4666 
z
" transform="scale(0.015625)"/>
        <path id="DejaVuSans-Bold-72" d="M 3138 2547 
Q 2991 2616 2845 2648 
Q 2700 2681 2553 2681 
Q 2122 2681 1889 2404 
Q 1656 2128 1656 1613 
L 1656 0 
L 538 0 
L 538 3500 
L 1656 3500 
L 1656 2925 
Q 1872 3269 2151 3426 
Q 2431 3584 2822 3584 
Q 2878 3584 2943 3579 
Q 3009 3575 3134 3559 
L 3138 2547 
z
" transform="scale(0.015625)"/>
       </defs>
       <use xlink:href="#DejaVuSans-Bold-4d"/>
       <use xlink:href="#DejaVuSans-Bold-61" transform="translate(99.511719 0)"/>
       <use xlink:href="#DejaVuSans-Bold-72" transform="translate(166.992188 0)"/>
      </g>
     </g>
    </g>
    <g id="xtick_4">
     <g id="line2d_4">
      <path d="M 261.064688 326.88 
L 482.824688 326.88 
" clip-path="url(#p6944624ede)" style="fill: none; stroke-dasharray: 2.22,0.96; stroke-dashoffset: 0; stroke: #e2e8f0; stroke-width: 0.6"/>
     </g>
     <g id="text_4">
      <!-- Apr -->
      <g style="fill: #4a5568" transform="translate(495.410625 329.639375) scale(0.1 -0.1)">
       <defs>
        <path id="DejaVuSans-Bold-41" d="M 3419 850 
L 1538 850 
L 1241 0 
L 31 0 
L 1759 4666 
L 3194 4666 
L 4922 0 
L 3713 0 
L 3419 850 
z
M 1838 1716 
L 3116 1716 
L 2478 3572 
L 1838 1716 
z
" transform="scale(0.015625)"/>
        <path id="DejaVuSans-Bold-70" d="M 1656 506 
L 1656 -1331 
L 538 -1331 
L 538 3500 
L 1656 3500 
L 1656 2988 
Q 1888 3294 2169 3439 
Q 2450 3584 2816 3584 
Q 3463 3584 3878 3070 
Q 4294 2556 4294 1747 
Q 4294 938 3878 423 
Q 3463 -91 2816 -91 
Q 2450 -91 2169 54 
Q 1888 200 1656 506 
z
M 2400 2772 
Q 2041 2772 1848 2508 
Q 1656 2244 1656 1747 
Q 1656 1250 1848 986 
Q 2041 722 2400 722 
Q 2759 722 2948 984 
Q 3138 1247 3138 1747 
Q 3138 2247 2948 2509 
Q 2759 2772 2400 2772 
z
" transform="scale(0.015625)"/>
       </defs>
       <use xlink:href="#DejaVuSans-Bold-41"/>
       <use xlink:href="#DejaVuSans-Bold-70" transform="translate(77.392578 0)"/>
       <use xlink:href="#DejaVuSans-Bold-72" transform="translate(148.974609 0)"/>
      </g>
     </g>
    </g>
    <g id="xtick_5">
     <g id="line2d_5">
      <path d="M 261.064688 326.88 
L 453.114481 437.76 
" clip-path="url(#p6944624ede)" style="fill: none; stroke-dasharray: 2.22,0.96; stroke-dashoffset: 0; stroke: #e2e8f0; stroke-width: 0.6"/>
     </g>
     <g id="text_5">
      <!-- May -->
      <g style="fill: #4a5568" transform="translate(461.146928 451.69125) scale(0.1 -0.1)">
       <defs>
        <path id="DejaVuSans-Bold-79" d="M 78 3500 
L 1197 3500 
L 2138 1125 
L 2938 3500 
L 4056 3500 
L 2584 -331 
Q 2363 -916 2067 -1148 
Q 1772 -1381 1288 -1381 
L 641 -1381 
L 641 -647 
L 991 -647 
Q 1275 -647 1404 -556 
Q 1534 -466 1606 -231 
L 1638 -134 
L 78 3500 
z
" transform="scale(0.015625)"/>
       </defs>
       <use xlink:href="#DejaVuSans-Bold-4d"/>
       <use xlink:href="#DejaVuSans-Bold-61" transform="translate(99.511719 0)"/>
       <use xlink:href="#DejaVuSans-Bold-79" transform="translate(163.867188 0)"/>
      </g>
     </g>
    </g>
    <g id="xtick_6">
     <g id="line2d_6">
      <path d="M 261.064688 326.88 
L 371.944688 518.929794 
" clip-path="url(#p6944624ede)" style="fill: none; stroke-dasharray: 2.22,0.96; stroke-dashoffset: 0; stroke: #e2e8f0; stroke-width: 0.6"/>
     </g>
     <g id="text_6">
      <!-- Jun -->
      <g style="fill: #4a5568" transform="translate(374.215781 541.17474) scale(0.1 -0.1)">
       <defs>
        <path id="DejaVuSans-Bold-75" d="M 500 1363 
L 500 3500 
L 1625 3500 
L 1625 3150 
Q 1625 2866 1622 2436 
Q 1619 2006 1619 1863 
Q 1619 1441 1641 1255 
Q 1663 1069 1716 984 
Q 1784 875 1895 815 
Q 2006 756 2150 756 
Q 2500 756 2700 1025 
Q 2900 1294 2900 1772 
L 2900 3500 
L 4019 3500 
L 4019 0 
L 2900 0 
L 2900 506 
Q 2647 200 2364 54 
Q 2081 -91 1741 -91 
Q 1134 -91 817 281 
Q 500 653 500 1363 
z
" transform="scale(0.015625)"/>
       </defs>
       <use xlink:href="#DejaVuSans-Bold-4a"/>
       <use xlink:href="#DejaVuSans-Bold-75" transform="translate(37.207031 0)"/>
       <use xlink:href="#DejaVuSans-Bold-6e" transform="translate(108.398438 0)"/>
      </g>
     </g>
    </g>
    <g id="xtick_7">
     <g id="line2d_7">
      <path d="M 261.064688 326.88 
L 261.064688 548.64 
" clip-path="url(#p6944624ede)" style="fill: none; stroke-dasharray: 2.22,0.96; stroke-dashoffset: 0; stroke: #e2e8f0; stroke-width: 0.6"/>
     </g>
     <g id="text_7">
      <!-- Jul -->
      <g style="fill: #4a5568" transform="translate(253.931094 573.899375) scale(0.1 -0.1)">
       <defs>
        <path id="DejaVuSans-Bold-6c" d="M 538 4863 
L 1656 4863 
L 1656 0 
L 538 0 
L 538 4863 
z
" transform="scale(0.015625)"/>
       </defs>
       <use xlink:href="#DejaVuSans-Bold-4a"/>
       <use xlink:href="#DejaVuSans-Bold-75" transform="translate(37.207031 0)"/>
       <use xlink:href="#DejaVuSans-Bold-6c" transform="translate(108.398438 0)"/>
      </g>
     </g>
    </g>
    <g id="xtick_8">
     <g id="line2d_8">
      <path d="M 261.064688 326.88 
L 150.184688 518.929794 
" clip-path="url(#p6944624ede)" style="fill: none; stroke-dasharray: 2.22,0.96; stroke-dashoffset: 0; stroke: #e2e8f0; stroke-width: 0.6"/>
     </g>
     <g id="text_8">
      <!-- Aug -->
      <g style="fill: #4a5568" transform="translate(127.926875 541.096615) scale(0.1 -0.1)">
       <defs>
        <path id="DejaVuSans-Bold-67" d="M 2919 594 
Q 2688 288 2409 144 
Q 2131 0 1766 0 
Q 1125 0 706 504 
Q 288 1009 288 1791 
Q 288 2575 706 3076 
Q 1125 3578 1766 3578 
Q 2131 3578 2409 3434 
Q 2688 3291 2919 2981 
L 2919 3500 
L 4044 3500 
L 4044 353 
Q 4044 -491 3511 -936 
Q 2978 -1381 1966 -1381 
Q 1638 -1381 1331 -1331 
Q 1025 -1281 716 -1178 
L 716 -306 
Q 1009 -475 1290 -558 
Q 1572 -641 1856 -641 
Q 2406 -641 2662 -400 
Q 2919 -159 2919 353 
L 2919 594 
z
M 2181 2772 
Q 1834 2772 1640 2515 
Q 1447 2259 1447 1791 
Q 1447 1309 1634 1061 
Q 1822 813 2181 813 
Q 2531 813 2725 1069 
Q 2919 1325 2919 1791 
Q 2919 2259 2725 2515 
Q 2531 2772 2181 2772 
z
" transform="scale(0.015625)"/>
       </defs>
       <use xlink:href="#DejaVuSans-Bold-41"/>
       <use xlink:href="#DejaVuSans-Bold-75" transform="translate(77.392578 0)"/>
       <use xlink:href="#DejaVuSans-Bold-67" transform="translate(148.583984 0)"/>
      </g>
     </g>
    </g>
    <g id="xtick_9">
     <g id="line2d_9">
      <path d="M 261.064688 326.88 
L 69.014894 437.76 
" clip-path="url(#p6944624ede)" style="fill: none; stroke-dasharray: 2.22,0.96; stroke-dashoffset: 0; stroke: #e2e8f0; stroke-width: 0.6"/>
     </g>
     <g id="text_9">
      <!-- Sept -->
      <g style="fill: #4a5568" transform="translate(36.568385 451.769375) scale(0.1 -0.1)">
       <defs>
        <path id="DejaVuSans-Bold-53" d="M 3834 4519 
L 3834 3531 
Q 3450 3703 3084 3790 
Q 2719 3878 2394 3878 
Q 1963 3878 1756 3759 
Q 1550 3641 1550 3391 
Q 1550 3203 1689 3098 
Q 1828 2994 2194 2919 
L 2706 2816 
Q 3484 2659 3812 2340 
Q 4141 2022 4141 1434 
Q 4141 663 3683 286 
Q 3225 -91 2284 -91 
Q 1841 -91 1394 -6 
Q 947 78 500 244 
L 500 1259 
Q 947 1022 1364 901 
Q 1781 781 2169 781 
Q 2563 781 2772 912 
Q 2981 1044 2981 1288 
Q 2981 1506 2839 1625 
Q 2697 1744 2272 1838 
L 1806 1941 
Q 1106 2091 782 2419 
Q 459 2747 459 3303 
Q 459 4000 909 4375 
Q 1359 4750 2203 4750 
Q 2588 4750 2994 4692 
Q 3400 4634 3834 4519 
z
" transform="scale(0.015625)"/>
        <path id="DejaVuSans-Bold-74" d="M 1759 4494 
L 1759 3500 
L 2913 3500 
L 2913 2700 
L 1759 2700 
L 1759 1216 
Q 1759 972 1856 886 
Q 1953 800 2241 800 
L 2816 800 
L 2816 0 
L 1856 0 
Q 1194 0 917 276 
Q 641 553 641 1216 
L 641 2700 
L 84 2700 
L 84 3500 
L 641 3500 
L 641 4494 
L 1759 4494 
z
" transform="scale(0.015625)"/>
       </defs>
       <use xlink:href="#DejaVuSans-Bold-53"/>
       <use xlink:href="#DejaVuSans-Bold-65" transform="translate(72.021484 0)"/>
       <use xlink:href="#DejaVuSans-Bold-70" transform="translate(139.84375 0)"/>
       <use xlink:href="#DejaVuSans-Bold-74" transform="translate(211.425781 0)"/>
      </g>
     </g>
    </g>
    <g id="xtick_10">
     <g id="line2d_10">
      <path d="M 261.064688 326.88 
L 39.304688 326.88 
" clip-path="url(#p6944624ede)" style="fill: none; stroke-dasharray: 2.22,0.96; stroke-dashoffset: 0; stroke: #e2e8f0; stroke-width: 0.6"/>
     </g>
     <g id="text_10">
      <!-- Oct -->
      <g style="fill: #4a5568" transform="translate(7.2 329.639375) scale(0.1 -0.1)">
       <defs>
        <path id="DejaVuSans-Bold-4f" d="M 2719 3878 
Q 2169 3878 1866 3472 
Q 1563 3066 1563 2328 
Q 1563 1594 1866 1187 
Q 2169 781 2719 781 
Q 3272 781 3575 1187 
Q 3878 1594 3878 2328 
Q 3878 3066 3575 3472 
Q 3272 3878 2719 3878 
z
M 2719 4750 
Q 3844 4750 4481 4106 
Q 5119 3463 5119 2328 
Q 5119 1197 4481 553 
Q 3844 -91 2719 -91 
Q 1597 -91 958 553 
Q 319 1197 319 2328 
Q 319 3463 958 4106 
Q 1597 4750 2719 4750 
z
" transform="scale(0.015625)"/>
        <path id="DejaVuSans-Bold-63" d="M 3366 3391 
L 3366 2478 
Q 3138 2634 2908 2709 
Q 2678 2784 2431 2784 
Q 1963 2784 1702 2511 
Q 1441 2238 1441 1747 
Q 1441 1256 1702 982 
Q 1963 709 2431 709 
Q 2694 709 2930 787 
Q 3166 866 3366 1019 
L 3366 103 
Q 3103 6 2833 -42 
Q 2563 -91 2291 -91 
Q 1344 -91 809 395 
Q 275 881 275 1747 
Q 275 2613 809 3098 
Q 1344 3584 2291 3584 
Q 2566 3584 2833 3536 
Q 3100 3488 3366 3391 
z
" transform="scale(0.015625)"/>
       </defs>
       <use xlink:href="#DejaVuSans-Bold-4f"/>
       <use xlink:href="#DejaVuSans-Bold-63" transform="translate(85.009766 0)"/>
       <use xlink:href="#DejaVuSans-Bold-74" transform="translate(144.287109 0)"/>
      </g>
     </g>
    </g>
    <g id="xtick_11">
     <g id="line2d_11">
      <path d="M 261.064688 326.88 
L 69.014894 216 
" clip-path="url(#p6944624ede)" style="fill: none; stroke-dasharray: 2.22,0.96; stroke-dashoffset: 0; stroke: #e2e8f0; stroke-width: 0.6"/>
     </g>
     <g id="text_11">
      <!-- Nov -->
      <g style="fill: #4a5568" transform="translate(38.650416 207.509375) scale(0.1 -0.1)">
       <defs>
        <path id="DejaVuSans-Bold-4e" d="M 588 4666 
L 1931 4666 
L 3628 1466 
L 3628 4666 
L 4769 4666 
L 4769 0 
L 3425 0 
L 1728 3200 
L 1728 0 
L 588 0 
L 588 4666 
z
" transform="scale(0.015625)"/>
        <path id="DejaVuSans-Bold-6f" d="M 2203 2784 
Q 1831 2784 1636 2517 
Q 1441 2250 1441 1747 
Q 1441 1244 1636 976 
Q 1831 709 2203 709 
Q 2569 709 2762 976 
Q 2956 1244 2956 1747 
Q 2956 2250 2762 2517 
Q 2569 2784 2203 2784 
z
M 2203 3584 
Q 3106 3584 3614 3096 
Q 4122 2609 4122 1747 
Q 4122 884 3614 396 
Q 3106 -91 2203 -91 
Q 1297 -91 786 396 
Q 275 884 275 1747 
Q 275 2609 786 3096 
Q 1297 3584 2203 3584 
z
" transform="scale(0.015625)"/>
        <path id="DejaVuSans-Bold-76" d="M 97 3500 
L 1216 3500 
L 2088 1081 
L 2956 3500 
L 4078 3500 
L 2700 0 
L 1472 0 
L 97 3500 
z
" transform="scale(0.015625)"/>
       </defs>
       <use xlink:href="#DejaVuSans-Bold-4e"/>
       <use xlink:href="#DejaVuSans-Bold-6f" transform="translate(83.691406 0)"/>
       <use xlink:href="#DejaVuSans-Bold-76" transform="translate(152.392578 0)"/>
      </g>
     </g>
    </g>
    <g id="xtick_12">
     <g id="line2d_12">
      <path d="M 261.064688 326.88 
L 150.184687 134.830206 
" clip-path="url(#p6944624ede)" style="fill: none; stroke-dasharray: 2.22,0.96; stroke-dashoffset: 0; stroke: #e2e8f0; stroke-width: 0.6"/>
     </g>
     <g id="text_12">
      <!-- Dec -->
      <g style="fill: #4a5568" transform="translate(128.428437 118.10401) scale(0.1 -0.1)">
       <defs>
        <path id="DejaVuSans-Bold-44" d="M 1791 3756 
L 1791 909 
L 2222 909 
Q 2959 909 3348 1275 
Q 3738 1641 3738 2338 
Q 3738 3031 3350 3393 
Q 2963 3756 2222 3756 
L 1791 3756 
z
M 588 4666 
L 1856 4666 
Q 2919 4666 3439 4514 
Q 3959 4363 4331 4000 
Q 4659 3684 4818 3271 
Q 4978 2859 4978 2338 
Q 4978 1809 4818 1395 
Q 4659 981 4331 666 
Q 3956 303 3431 151 
Q 2906 0 1856 0 
L 588 0 
L 588 4666 
z
" transform="scale(0.015625)"/>
       </defs>
       <use xlink:href="#DejaVuSans-Bold-44"/>
       <use xlink:href="#DejaVuSans-Bold-65" transform="translate(83.007812 0)"/>
       <use xlink:href="#DejaVuSans-Bold-63" transform="translate(150.830078 0)"/>
      </g>
     </g>
    </g>
   </g>
   <g id="matplotlib.axis_2">
    <g id="ytick_1">
     <g id="line2d_13">
      <path d="M 261.064688 284.633562 
C 266.612439 284.633562 272.106245 285.726348 277.231699 287.849381 
C 282.357153 289.972414 287.014577 293.084405 290.93743 297.007258 
C 294.860283 300.93011 297.972274 305.587534 300.095306 310.712988 
C 302.218339 315.838442 303.311125 321.332249 303.311125 326.88 
C 303.311125 332.427751 302.218339 337.921558 300.095306 343.047012 
C 297.972274 348.172466 294.860283 352.82989 290.93743 356.752742 
C 287.014577 360.675595 282.357153 363.787586 277.231699 365.910619 
C 272.106245 368.033652 266.612439 369.126438 261.064688 369.126438 
C 255.516936 369.126438 250.02313 368.033652 244.897676 365.910619 
C 239.772222 363.787586 235.114798 360.675595 231.191945 356.752742 
C 227.269092 352.82989 224.157101 348.172466 222.034069 343.047012 
C 219.911036 337.921558 218.81825 332.427751 218.81825 326.88 
C 218.81825 321.332249 219.911036 315.838442 222.034069 310.712988 
C 224.157101 305.587534 227.269092 300.93011 231.191945 297.007258 
C 235.114798 293.084405 239.772222 289.972414 244.897676 287.849381 
C 250.02313 285.726348 255.516936 284.633562 261.064688 284.633562 
" clip-path="url(#p6944624ede)" style="fill: none; stroke-dasharray: 2.22,0.96; stroke-dashoffset: 0; stroke: #e2e8f0; stroke-width: 0.6"/>
     </g>
     <g id="text_13">
      <!-- 1000 -->
      <g style="fill: #4a5568" transform="translate(261.064688 367.04675) scale(0.1 -0.1)">
       <defs>
        <path id="DejaVuSans-31" d="M 794 531 
L 1825 531 
L 1825 4091 
L 703 3866 
L 703 4441 
L 1819 4666 
L 2450 4666 
L 2450 531 
L 3481 531 
L 3481 0 
L 794 0 
L 794 531 
z
" transform="scale(0.015625)"/>
        <path id="DejaVuSans-30" d="M 2034 4250 
Q 1547 4250 1301 3770 
Q 1056 3291 1056 2328 
Q 1056 1369 1301 889 
Q 1547 409 2034 409 
Q 2525 409 2770 889 
Q 3016 1369 3016 2328 
Q 3016 3291 2770 3770 
Q 2525 4250 2034 4250 
z
M 2034 4750 
Q 2819 4750 3233 4129 
Q 3647 3509 3647 2328 
Q 3647 1150 3233 529 
Q 2819 -91 2034 -91 
Q 1250 -91 836 529 
Q 422 1150 422 2328 
Q 422 3509 836 4129 
Q 1250 4750 2034 4750 
z
" transform="scale(0.015625)"/>
       </defs>
       <use xlink:href="#DejaVuSans-31"/>
       <use xlink:href="#DejaVuSans-30" transform="translate(63.623047 0)"/>
       <use xlink:href="#DejaVuSans-30" transform="translate(127.246094 0)"/>
       <use xlink:href="#DejaVuSans-30" transform="translate(190.869141 0)"/>
      </g>
     </g>
    </g>
    <g id="ytick_2">
     <g id="line2d_14">
      <path d="M 261.064688 242.387125 
C 272.16019 242.387125 283.147803 244.572697 293.398711 248.818762 
C 303.649619 253.064827 312.964467 259.28881 320.810172 267.134515 
C 328.655878 274.98022 334.87986 284.295069 339.125925 294.545977 
C 343.371991 304.796884 345.557563 315.784497 345.557563 326.88 
C 345.557563 337.975503 343.371991 348.963116 339.125925 359.214023 
C 334.87986 369.464931 328.655878 378.77978 320.810172 386.625485 
C 312.964467 394.47119 303.649619 400.695173 293.398711 404.941238 
C 283.147803 409.187303 272.16019 411.372875 261.064688 411.372875 
C 249.969185 411.372875 238.981572 409.187303 228.730664 404.941238 
C 218.479756 400.695173 209.164908 394.47119 201.319203 386.625485 
C 193.473497 378.77978 187.249515 369.464931 183.00345 359.214023 
C 178.757384 348.963116 176.571812 337.975503 176.571812 326.88 
C 176.571812 315.784497 178.757384 304.796884 183.00345 294.545977 
C 187.249515 284.295069 193.473497 274.98022 201.319203 267.134515 
C 209.164908 259.28881 218.479756 253.064827 228.730664 248.818762 
C 238.981572 244.572697 249.969185 242.387125 261.064688 242.387125 
" clip-path="url(#p6944624ede)" style="fill: none; stroke-dasharray: 2.22,0.96; stroke-dashoffset: 0; stroke: #e2e8f0; stroke-width: 0.6"/>
     </g>
     <g id="text_14">
      <!-- 2000 -->
      <g style="fill: #4a5568" transform="translate(261.064688 409.293188) scale(0.1 -0.1)">
       <defs>
        <path id="DejaVuSans-32" d="M 1228 531 
L 3431 531 
L 3431 0 
L 469 0 
L 469 531 
Q 828 903 1448 1529 
Q 2069 2156 2228 2338 
Q 2531 2678 2651 2914 
Q 2772 3150 2772 3378 
Q 2772 3750 2511 3984 
Q 2250 4219 1831 4219 
Q 1534 4219 1204 4116 
Q 875 4013 500 3803 
L 500 4441 
Q 881 4594 1212 4672 
Q 1544 4750 1819 4750 
Q 2544 4750 2975 4387 
Q 3406 4025 3406 3419 
Q 3406 3131 3298 2873 
Q 3191 2616 2906 2266 
Q 2828 2175 2409 1742 
Q 1991 1309 1228 531 
z
" transform="scale(0.015625)"/>
       </defs>
       <use xlink:href="#DejaVuSans-32"/>
       <use xlink:href="#DejaVuSans-30" transform="translate(63.623047 0)"/>
       <use xlink:href="#DejaVuSans-30" transform="translate(127.246094 0)"/>
       <use xlink:href="#DejaVuSans-30" transform="translate(190.869141 0)"/>
      </g>
     </g>
    </g>
    <g id="ytick_3">
     <g id="line2d_15">
      <path d="M 261.064688 200.140687 
C 277.707942 200.140687 294.189361 203.419045 309.565723 209.788143 
C 324.942084 216.157241 338.914357 225.493215 350.682915 237.261773 
C 362.451473 249.03033 371.787447 263.002603 378.156544 278.378965 
C 384.525642 293.755327 387.804 310.236746 387.804 326.88 
C 387.804 343.523254 384.525642 360.004673 378.156544 375.381035 
C 371.787447 390.757397 362.451473 404.72967 350.682915 416.498227 
C 338.914357 428.266785 324.942084 437.602759 309.565723 443.971857 
C 294.189361 450.340955 277.707942 453.619313 261.064688 453.619313 
C 244.421433 453.619313 227.940014 450.340955 212.563652 443.971857 
C 197.187291 437.602759 183.215018 428.266785 171.44646 416.498227 
C 159.677902 404.72967 150.341928 390.757397 143.972831 375.381035 
C 137.603733 360.004673 134.325375 343.523254 134.325375 326.88 
C 134.325375 310.236746 137.603733 293.755327 143.972831 278.378965 
C 150.341928 263.002603 159.677902 249.03033 171.44646 237.261773 
C 183.215018 225.493215 197.187291 216.157241 212.563652 209.788143 
C 227.940014 203.419045 244.421433 200.140687 261.064688 200.140687 
" clip-path="url(#p6944624ede)" style="fill: none; stroke-dasharray: 2.22,0.96; stroke-dashoffset: 0; stroke: #e2e8f0; stroke-width: 0.6"/>
     </g>
     <g id="text_15">
      <!-- 3000 -->
      <g style="fill: #4a5568" transform="translate(261.064688 451.539625) scale(0.1 -0.1)">
       <defs>
        <path id="DejaVuSans-33" d="M 2597 2516 
Q 3050 2419 3304 2112 
Q 3559 1806 3559 1356 
Q 3559 666 3084 287 
Q 2609 -91 1734 -91 
Q 1441 -91 1130 -33 
Q 819 25 488 141 
L 488 750 
Q 750 597 1062 519 
Q 1375 441 1716 441 
Q 2309 441 2620 675 
Q 2931 909 2931 1356 
Q 2931 1769 2642 2001 
Q 2353 2234 1838 2234 
L 1294 2234 
L 1294 2753 
L 1863 2753 
Q 2328 2753 2575 2939 
Q 2822 3125 2822 3475 
Q 2822 3834 2567 4026 
Q 2313 4219 1838 4219 
Q 1578 4219 1281 4162 
Q 984 4106 628 3988 
L 628 4550 
Q 988 4650 1302 4700 
Q 1616 4750 1894 4750 
Q 2613 4750 3031 4423 
Q 3450 4097 3450 3541 
Q 3450 3153 3228 2886 
Q 3006 2619 2597 2516 
z
" transform="scale(0.015625)"/>
       </defs>
       <use xlink:href="#DejaVuSans-33"/>
       <use xlink:href="#DejaVuSans-30" transform="translate(63.623047 0)"/>
       <use xlink:href="#DejaVuSans-30" transform="translate(127.246094 0)"/>
       <use xlink:href="#DejaVuSans-30" transform="translate(190.869141 0)"/>
      </g>
     </g>
    </g>
    <g id="ytick_4">
     <g id="line2d_16">
      <path d="M 261.064688 157.89425 
C 283.255693 157.89425 305.230919 162.265394 325.732734 170.757524 
C 346.23455 179.249654 364.864247 191.69762 380.555657 207.38903 
C 396.247068 223.08044 408.695033 241.710137 417.187163 262.211953 
C 425.679294 282.713769 430.050438 304.688995 430.050438 326.88 
C 430.050438 349.071005 425.679294 371.046231 417.187163 391.548047 
C 408.695033 412.049863 396.247068 430.67956 380.555657 446.37097 
C 364.864247 462.06238 346.23455 474.510346 325.732734 483.002476 
C 305.230919 491.494606 283.255693 495.86575 261.064688 495.86575 
C 238.873682 495.86575 216.898456 491.494606 196.396641 483.002476 
C 175.894825 474.510346 157.265128 462.06238 141.573718 446.37097 
C 125.882307 430.67956 113.434342 412.049863 104.942212 391.548047 
C 96.450081 371.046231 92.078937 349.071005 92.078937 326.88 
C 92.078937 304.688995 96.450081 282.713769 104.942212 262.211953 
C 113.434342 241.710137 125.882307 223.08044 141.573718 207.38903 
C 157.265128 191.69762 175.894825 179.249654 196.396641 170.757524 
C 216.898456 162.265394 238.873682 157.89425 261.064687 157.89425 
" clip-path="url(#p6944624ede)" style="fill: none; stroke-dasharray: 2.22,0.96; stroke-dashoffset: 0; stroke: #e2e8f0; stroke-width: 0.6"/>
     </g>
     <g id="text_16">
      <!-- 4000 -->
      <g style="fill: #4a5568" transform="translate(261.064688 493.786063) scale(0.1 -0.1)">
       <defs>
        <path id="DejaVuSans-34" d="M 2419 4116 
L 825 1625 
L 2419 1625 
L 2419 4116 
z
M 2253 4666 
L 3047 4666 
L 3047 1625 
L 3713 1625 
L 3713 1100 
L 3047 1100 
L 3047 0 
L 2419 0 
L 2419 1100 
L 313 1100 
L 313 1709 
L 2253 4666 
z
" transform="scale(0.015625)"/>
       </defs>
       <use xlink:href="#DejaVuSans-34"/>
       <use xlink:href="#DejaVuSans-30" transform="translate(63.623047 0)"/>
       <use xlink:href="#DejaVuSans-30" transform="translate(127.246094 0)"/>
       <use xlink:href="#DejaVuSans-30" transform="translate(190.869141 0)"/>
      </g>
     </g>
    </g>
    <g id="ytick_5">
     <g id="line2d_17">
      <path d="M 261.064688 115.647812 
C 288.803444 115.647812 316.272477 121.111742 341.899746 131.726905 
C 367.527016 142.342068 390.814137 157.902025 410.4284 177.516288 
C 430.042663 197.130551 445.60262 220.417672 456.217782 246.044941 
C 466.832945 271.672211 472.296875 299.141243 472.296875 326.88 
C 472.296875 354.618757 466.832945 382.087789 456.217782 407.715059 
C 445.60262 433.342328 430.042663 456.629449 410.4284 476.243712 
C 390.814137 495.857975 367.527016 511.417932 341.899746 522.033095 
C 316.272477 532.648258 288.803444 538.112188 261.064688 538.112188 
C 233.325931 538.112188 205.856898 532.648258 180.229629 522.033095 
C 154.602359 511.417932 131.315238 495.857975 111.700975 476.243712 
C 92.086712 456.629449 76.526755 433.342328 65.911593 407.715059 
C 55.29643 382.087789 49.8325 354.618757 49.8325 326.88 
C 49.8325 299.141243 55.29643 271.672211 65.911593 246.044941 
C 76.526755 220.417672 92.086712 197.130551 111.700975 177.516288 
C 131.315238 157.902025 154.602359 142.342068 180.229629 131.726905 
C 205.856898 121.111742 233.325931 115.647812 261.064687 115.647812 
" clip-path="url(#p6944624ede)" style="fill: none; stroke-dasharray: 2.22,0.96; stroke-dashoffset: 0; stroke: #e2e8f0; stroke-width: 0.6"/>
     </g>
     <g id="text_17">
      <!-- 5000 -->
      <g style="fill: #4a5568" transform="translate(261.064688 536.0325) scale(0.1 -0.1)">
       <defs>
        <path id="DejaVuSans-35" d="M 691 4666 
L 3169 4666 
L 3169 4134 
L 1269 4134 
L 1269 2991 
Q 1406 3038 1543 3061 
Q 1681 3084 1819 3084 
Q 2600 3084 3056 2656 
Q 3513 2228 3513 1497 
Q 3513 744 3044 326 
Q 2575 -91 1722 -91 
Q 1428 -91 1123 -41 
Q 819 9 494 109 
L 494 744 
Q 775 591 1075 516 
Q 1375 441 1709 441 
Q 2250 441 2565 725 
Q 2881 1009 2881 1497 
Q 2881 1984 2565 2268 
Q 2250 2553 1709 2553 
Q 1456 2553 1204 2497 
Q 953 2441 691 2322 
L 691 4666 
z
" transform="scale(0.015625)"/>
       </defs>
       <use xlink:href="#DejaVuSans-35"/>
       <use xlink:href="#DejaVuSans-30" transform="translate(63.623047 0)"/>
       <use xlink:href="#DejaVuSans-30" transform="translate(127.246094 0)"/>
       <use xlink:href="#DejaVuSans-30" transform="translate(190.869141 0)"/>
      </g>
     </g>
    </g>
   </g>
   <g id="line2d_18">
    <path d="M 261.064688 203.647142 
L 275.475742 208.19429 
L 288.766729 214.488398 
L 301.662637 219.832005 
L 314.407273 225.244196 
L 327.085144 231.232856 
L 338.412915 239.571899 
L 349.827396 248.243102 
L 356.259845 261.171527 
L 364.309009 272.6932 
L 367.164656 286.641589 
L 371.241273 299.723911 
L 371.740161 313.441565 
L 372.848761 326.88 
L 369.769055 340.0791 
L 367.303465 353.065507 
L 362.819535 365.470523 
L 355.929759 376.669031 
L 347.811188 386.756786 
L 340.245957 397.028483 
L 330.624865 405.397209 
L 320.509497 413.000674 
L 309.341985 418.864705 
L 297.707708 423.499704 
L 285.389911 425.571312 
L 273.499951 429.293606 
L 261.064688 432.031383 
L 248.588686 429.629113 
L 236.749574 425.530293 
L 225.530246 420.576622 
L 214.809579 415.011747 
L 203.731765 409.941078 
L 195.034346 401.412848 
L 186.310486 393.106443 
L 180.402611 382.557011 
L 173.194793 372.997678 
L 167.486569 362.369499 
L 163.029677 351.04346 
L 160.244742 339.121758 
L 157.476423 326.88 
L 158.818835 314.465106 
L 158.394549 301.574084 
L 161.916913 289.278209 
L 167.1348 277.581792 
L 173.101302 266.163259 
L 180.839895 255.807036 
L 189.207316 245.769794 
L 198.140065 235.717946 
L 209.312367 228.274192 
L 220.466738 219.832005 
L 232.998677 213.01172 
L 246.750386 208.99112 
L 261.064688 203.647142 
" clip-path="url(#p6944624ede)" style="fill: none; stroke-dasharray: 5.55,2.4; stroke-dashoffset: 0; stroke: #2d3748; stroke-width: 1.5"/>
   </g>
   <g id="line2d_19">
    <path d="M 261.064688 195.789304 
L 278.195001 185.799177 
L 292.982697 197.383545 
L 306.696184 206.559633 
L 323.183178 208.523104 
L 337.764571 215.761036 
L 350.655282 225.753124 
L 354.633927 243.984887 
L 368.776374 252.531991 
L 377.289363 265.880584 
L 388.179244 278.671807 
L 409.306749 290.341613 
L 448.026135 304.17877 
L 475.887822 326.88 
L 470.001863 352.249566 
L 437.773819 370.434889 
L 415.514009 385.454901 
L 387.613795 393.298096 
L 364.986647 398.61215 
L 348.878739 404.676461 
L 338.665046 414.472698 
L 326.629168 421.866549 
L 313.720121 427.206547 
L 301.34804 433.098472 
L 288.321879 437.466773 
L 274.604968 438.394241 
L 261.064688 438.326102 
L 247.728097 436.716705 
L 235.506015 430.575609 
L 221.021027 432.466454 
L 208.72338 426.608029 
L 197.660091 418.737417 
L 171.165932 428.354717 
L 170.752505 406.889612 
L 165.973834 392.516477 
L 160.364067 379.731763 
L 152.752657 367.957335 
L 149.452443 354.389947 
L 139.820734 341.601681 
L 134.240882 326.88 
L 134.326802 311.491235 
L 128.902008 294.304825 
L 124.864876 275.226225 
L 123.143741 254.493503 
L 136.281846 240.748623 
L 147.85824 226.58784 
L 167.636097 221.420922 
L 179.349074 208.494495 
L 191.760556 194.83201 
L 206.90912 184.083504 
L 221.543782 166.537382 
L 241.372975 164.704155 
L 261.064687 151.768516 
" clip-path="url(#p6944624ede)" style="fill: none; stroke: #0ea5e9; stroke-opacity: 0.7; stroke-width: 1.2; stroke-linecap: square"/>
   </g>
   <g id="line2d_20">
    <path d="M 261.064688 151.768516 
L 280.669832 165.417108 
L 300.120522 168.424249 
L 316.703354 180.172895 
L 332.822931 190.156089 
L 346.284113 203.418347 
L 359.984134 215.223027 
L 362.412917 237.093303 
L 369.019751 252.364 
L 382.414172 263.190877 
L 381.306052 281.278465 
L 386.008052 296.084226 
L 394.261089 310.707029 
L 394.774662 326.88 
L 392.751306 342.86965 
L 390.027898 358.666577 
L 384.347637 373.635056 
L 373.586034 385.935759 
L 365.960155 399.284114 
L 355.614206 410.643564 
L 339.645556 415.579465 
L 333.30081 431.532091 
L 317.685967 434.762834 
L 304.059564 440.248172 
L 288.089344 436.52334 
L 275.282236 443.97205 
L 261.064688 446.733143 
L 246.434667 447.369062 
L 232.998677 440.74828 
L 217.380694 442.065223 
L 202.990574 437.530979 
L 192.884347 425.656276 
L 179.878464 418.520303 
L 168.507349 408.878646 
L 161.627817 395.516316 
L 145.363715 387.604555 
L 145.760961 370.608935 
L 142.520261 356.098577 
L 132.229881 342.523378 
L 131.283631 326.88 
L 132.565389 311.27736 
L 126.72801 293.768983 
L 127.234943 276.125073 
L 129.465586 257.811463 
L 129.362986 235.97288 
L 134.418928 214.681647 
L 143.62761 194.320942 
L 155.590349 174.07404 
L 175.210023 163.297603 
L 200.347533 166.78202 
L 222.928884 172.156962 
L 242.320132 172.5047 
L 261.064688 181.84798 
" clip-path="url(#p6944624ede)" style="fill: none; stroke: #10b981; stroke-opacity: 0.7; stroke-width: 1.2; stroke-linecap: square"/>
   </g>
   <g id="line2d_21">
    <path d="M 261.064688 181.84798 
L 277.140906 194.480429 
L 293.336555 195.947886 
L 309.003226 200.476463 
L 325.558759 203.996814 
L 339.204493 213.674948 
L 355.781949 219.966314 
L 367.061338 232.975161 
L 373.504841 249.268166 
L 387.800832 260.36374 
L 403.505673 272.85926 
L 410.00407 290.169739 
L 410.533193 308.731238 
L 412.053455 326.88 
L 408.562088 344.789427 
L 393.760612 359.586608 
L 385.137659 373.934671 
L 378.149733 388.330972 
L 369.819418 401.947971 
L 357.764496 412.548555 
L 342.97929 419.342472 
L 332.220868 429.967525 
L 318.903206 437.08209 
L 306.186837 445.857329 
L 292.770382 455.51506 
L 276.860833 456.972959 
L 261.064688 452.478659 
L 245.344926 456.343882 
L 228.873702 457.483964 
L 214.08492 450.755466 
L 202.912042 437.680608 
L 189.404534 430.697656 
L 174.751797 424.307113 
L 164.902451 412.072307 
L 157.629481 398.276168 
L 151.199263 384.541823 
L 149.711072 369.110856 
L 137.351888 357.372467 
L 126.568196 343.210831 
L 121.313472 326.88 
L 122.038847 309.999207 
L 122.790202 292.7984 
L 130.237027 277.263613 
L 140.051869 263.367573 
L 150.814927 250.780085 
L 159.495104 236.897201 
L 165.45096 218.954412 
L 178.67711 207.520987 
L 189.993595 191.465347 
L 201.126534 168.836078 
L 218.621924 154.68294 
L 240.008253 153.46466 
L 261.064687 156.457871 
" clip-path="url(#p6944624ede)" style="fill: none; stroke: #6366f1; stroke-opacity: 0.7; stroke-width: 1.2; stroke-linecap: square"/>
   </g>
   <g id="line2d_22">
    <path d="M 261.064688 170.10347 
L 279.595368 174.266113 
L 299.867767 169.449719 
L 319.534723 172.707186 
L 340.008572 176.464995 
L 352.379786 194.587241 
L 362.029198 212.914627 
L 369.780823 230.565908 
L 383.97005 242.044554 
L 394.234899 256.986881 
L 395.763457 275.795495 
L 399.298154 292.808511 
L 405.919968 309.291385 
L 404.871561 326.88 
L 404.494062 344.295479 
L 393.719593 359.576498 
L 392.445364 376.706118 
L 382.227135 390.470958 
L 366.481677 399.644094 
L 362.159942 416.44258 
L 348.638233 425.730099 
L 332.676844 430.628119 
L 319.590358 438.391348 
L 306.845992 447.595378 
L 292.871485 455.925248 
L 276.891386 457.224589 
L 261.064688 455.773881 
L 245.105591 458.314988 
L 230.53178 450.756875 
L 216.871348 443.408261 
L 201.95003 439.513569 
L 190.004502 429.828452 
L 175.284074 423.706296 
L 165.977596 411.119812 
L 157.003655 398.708145 
L 144.353716 388.134643 
L 144.65493 371.028398 
L 133.455098 358.332939 
L 128.329609 342.996956 
L 126.383045 326.88 
L 120.738756 309.841347 
L 123.979748 293.091597 
L 134.463645 278.866558 
L 143.942235 265.409395 
L 147.755331 248.668198 
L 157.724277 235.328385 
L 167.299922 221.041459 
L 179.901044 209.294162 
L 193.861276 198.834598 
L 211.208608 195.420322 
L 225.234017 181.509256 
L 244.204263 188.021913 
L 261.064688 174.750578 
" clip-path="url(#p6944624ede)" style="fill: none; stroke-dasharray: 1.2,1.98; stroke-dashoffset: 0; stroke: #718096; stroke-width: 1.2"/>
   </g>
   <g id="line2d_23">
    <path d="M 261.064688 174.750578 
L 281.179057 161.223267 
L 298.897184 173.387527 
L 321.557131 167.374537 
L 339.164358 178.073511 
L 356.123585 189.163411 
L 372.95488 200.582081 
L 390.999126 211.768132 
L 397.877305 232.445069 
L 399.023041 254.47387 
L 403.584675 272.829298 
L 408.978599 290.422495 
L 400.509912 309.948284 
L 402.04105 326.88 
L 395.770872 343.236292 
L 392.981254 359.394513 
L 384.150132 373.560152 
L 379.870471 389.234086 
L 367.976707 400.676039 
L 358.776397 413.445021 
L 349.030437 426.172806 
L 335.820675 435.182745 
L 320.316775 439.775421 
L 306.531395 446.765855 
L 291.80991 451.618271 
L 276.860833 456.972959 
L 261.064688 458.181928 
L 245.950903 451.353211 
L 230.744095 449.89548 
L 216.856367 443.447762 
L 204.090016 435.436167 
L 192.308378 426.490711 
L 174.555695 424.528466 
L 165.21867 411.792162 
L 153.73545 400.964023 
L 149.067044 385.660898 
L 141.099831 372.376669 
L 135.752153 357.766766 
L 131.894374 342.564116 
L 120.426297 326.88 
L 123.296999 310.151974 
L 126.563935 293.728542 
L 131.224554 277.638133 
L 136.385948 261.443549 
L 144.904343 246.700304 
L 157.787521 235.384414 
L 167.776169 221.579031 
L 178.461121 207.208074 
L 191.623126 194.570158 
L 209.56072 191.0752 
L 226.336033 185.980309 
L 244.316293 188.944558 
L 261.064687 170.356949 
" clip-path="url(#p6944624ede)" style="fill: none; stroke: #4a5568; stroke-width: 1.5; stroke-linecap: square"/>
   </g>
   <g id="patch_3">
    <path d="M 261.064687 105.12 
C 231.943431 105.12 203.105342 110.856253 176.20081 122.000475 
C 149.296277 133.144697 124.848526 149.480162 104.256688 170.072 
C 83.66485 190.663838 67.329385 215.111589 56.185162 242.016122 
C 45.04094 268.920655 39.304688 297.758744 39.304688 326.88 
C 39.304688 356.001256 45.04094 384.839345 56.185162 411.743878 
C 67.329385 438.648411 83.66485 463.096162 104.256688 483.688 
C 124.848526 504.279838 149.296277 520.615303 176.20081 531.759525 
C 203.105342 542.903747 231.943431 548.64 261.064688 548.64 
C 290.185944 548.64 319.024033 542.903747 345.928565 531.759525 
C 372.833098 520.615303 397.280849 504.279838 417.872687 483.688 
C 438.464525 463.096162 454.79999 438.648411 465.944213 411.743878 
C 477.088435 384.839345 482.824688 356.001256 482.824688 326.88 
C 482.824688 297.758744 477.088435 268.920655 465.944213 242.016122 
C 454.79999 215.111589 438.464525 190.663838 417.872687 170.072 
C 397.280849 149.480162 372.833098 133.144697 345.928565 122.000475 
C 319.024033 110.856253 290.185944 105.12 261.064688 105.12 
" style="fill: none; stroke: #cbd5e0; stroke-linejoin: miter; stroke-linecap: square"/>
   </g>
   <g id="text_18">
    <!-- Demographic Filters: Totaal mannen en vrouwen | Totaal leeftijd -->
    <g style="fill: #718096" transform="translate(101.527969 54.768) scale(0.1 -0.1)">
     <defs>
      <path id="DejaVuSans-44" d="M 1259 4147 
L 1259 519 
L 2022 519 
Q 2988 519 3436 956 
Q 3884 1394 3884 2338 
Q 3884 3275 3436 3711 
Q 2988 4147 2022 4147 
L 1259 4147 
z
M 628 4666 
L 1925 4666 
Q 3281 4666 3915 4102 
Q 4550 3538 4550 2338 
Q 4550 1131 3912 565 
Q 3275 0 1925 0 
L 628 0 
L 628 4666 
z
" transform="scale(0.015625)"/>
      <path id="DejaVuSans-65" d="M 3597 1894 
L 3597 1613 
L 953 1613 
Q 991 1019 1311 708 
Q 1631 397 2203 397 
Q 2534 397 2845 478 
Q 3156 559 3463 722 
L 3463 178 
Q 3153 47 2828 -22 
Q 2503 -91 2169 -91 
Q 1331 -91 842 396 
Q 353 884 353 1716 
Q 353 2575 817 3079 
Q 1281 3584 2069 3584 
Q 2775 3584 3186 3129 
Q 3597 2675 3597 1894 
z
M 3022 2063 
Q 3016 2534 2758 2815 
Q 2500 3097 2075 3097 
Q 1594 3097 1305 2825 
Q 1016 2553 972 2059 
L 3022 2063 
z
" transform="scale(0.015625)"/>
      <path id="DejaVuSans-6d" d="M 3328 2828 
Q 3544 3216 3844 3400 
Q 4144 3584 4550 3584 
Q 5097 3584 5394 3201 
Q 5691 2819 5691 2113 
L 5691 0 
L 5113 0 
L 5113 2094 
Q 5113 2597 4934 2840 
Q 4756 3084 4391 3084 
Q 3944 3084 3684 2787 
Q 3425 2491 3425 1978 
L 3425 0 
L 2847 0 
L 2847 2094 
Q 2847 2600 2669 2842 
Q 2491 3084 2119 3084 
Q 1678 3084 1418 2786 
Q 1159 2488 1159 1978 
L 1159 0 
L 581 0 
L 581 3500 
L 1159 3500 
L 1159 2956 
Q 1356 3278 1631 3431 
Q 1906 3584 2284 3584 
Q 2666 3584 2933 3390 
Q 3200 3197 3328 2828 
z
" transform="scale(0.015625)"/>
      <path id="DejaVuSans-6f" d="M 1959 3097 
Q 1497 3097 1228 2736 
Q 959 2375 959 1747 
Q 959 1119 1226 758 
Q 1494 397 1959 397 
Q 2419 397 2687 759 
Q 2956 1122 2956 1747 
Q 2956 2369 2687 2733 
Q 2419 3097 1959 3097 
z
M 1959 3584 
Q 2709 3584 3137 3096 
Q 3566 2609 3566 1747 
Q 3566 888 3137 398 
Q 2709 -91 1959 -91 
Q 1206 -91 779 398 
Q 353 888 353 1747 
Q 353 2609 779 3096 
Q 1206 3584 1959 3584 
z
" transform="scale(0.015625)"/>
      <path id="DejaVuSans-67" d="M 2906 1791 
Q 2906 2416 2648 2759 
Q 2391 3103 1925 3103 
Q 1463 3103 1205 2759 
Q 947 2416 947 1791 
Q 947 1169 1205 825 
Q 1463 481 1925 481 
Q 2391 481 2648 825 
Q 2906 1169 2906 1791 
z
M 3481 434 
Q 3481 -459 3084 -895 
Q 2688 -1331 1869 -1331 
Q 1566 -1331 1297 -1286 
Q 1028 -1241 775 -1147 
L 775 -588 
Q 1028 -725 1275 -790 
Q 1522 -856 1778 -856 
Q 2344 -856 2625 -561 
Q 2906 -266 2906 331 
L 2906 616 
Q 2728 306 2450 153 
Q 2172 0 1784 0 
Q 1141 0 747 490 
Q 353 981 353 1791 
Q 353 2603 747 3093 
Q 1141 3584 1784 3584 
Q 2172 3584 2450 3431 
Q 2728 3278 2906 2969 
L 2906 3500 
L 3481 3500 
L 3481 434 
z
" transform="scale(0.015625)"/>
      <path id="DejaVuSans-72" d="M 2631 2963 
Q 2534 3019 2420 3045 
Q 2306 3072 2169 3072 
Q 1681 3072 1420 2755 
Q 1159 2438 1159 1844 
L 1159 0 
L 581 0 
L 581 3500 
L 1159 3500 
L 1159 2956 
Q 1341 3275 1631 3429 
Q 1922 3584 2338 3584 
Q 2397 3584 2469 3576 
Q 2541 3569 2628 3553 
L 2631 2963 
z
" transform="scale(0.015625)"/>
      <path id="DejaVuSans-61" d="M 2194 1759 
Q 1497 1759 1228 1600 
Q 959 1441 959 1056 
Q 959 750 1161 570 
Q 1363 391 1709 391 
Q 2188 391 2477 730 
Q 2766 1069 2766 1631 
L 2766 1759 
L 2194 1759 
z
M 3341 1997 
L 3341 0 
L 2766 0 
L 2766 531 
Q 2569 213 2275 61 
Q 1981 -91 1556 -91 
Q 1019 -91 701 211 
Q 384 513 384 1019 
Q 384 1609 779 1909 
Q 1175 2209 1959 2209 
L 2766 2209 
L 2766 2266 
Q 2766 2663 2505 2880 
Q 2244 3097 1772 3097 
Q 1472 3097 1187 3025 
Q 903 2953 641 2809 
L 641 3341 
Q 956 3463 1253 3523 
Q 1550 3584 1831 3584 
Q 2591 3584 2966 3190 
Q 3341 2797 3341 1997 
z
" transform="scale(0.015625)"/>
      <path id="DejaVuSans-70" d="M 1159 525 
L 1159 -1331 
L 581 -1331 
L 581 3500 
L 1159 3500 
L 1159 2969 
Q 1341 3281 1617 3432 
Q 1894 3584 2278 3584 
Q 2916 3584 3314 3078 
Q 3713 2572 3713 1747 
Q 3713 922 3314 415 
Q 2916 -91 2278 -91 
Q 1894 -91 1617 61 
Q 1341 213 1159 525 
z
M 3116 1747 
Q 3116 2381 2855 2742 
Q 2594 3103 2138 3103 
Q 1681 3103 1420 2742 
Q 1159 2381 1159 1747 
Q 1159 1113 1420 752 
Q 1681 391 2138 391 
Q 2594 391 2855 752 
Q 3116 1113 3116 1747 
z
" transform="scale(0.015625)"/>
      <path id="DejaVuSans-68" d="M 3513 2113 
L 3513 0 
L 2938 0 
L 2938 2094 
Q 2938 2591 2744 2837 
Q 2550 3084 2163 3084 
Q 1697 3084 1428 2787 
Q 1159 2491 1159 1978 
L 1159 0 
L 581 0 
L 581 4863 
L 1159 4863 
L 1159 2956 
Q 1366 3272 1645 3428 
Q 1925 3584 2291 3584 
Q 2894 3584 3203 3211 
Q 3513 2838 3513 2113 
z
" transform="scale(0.015625)"/>
      <path id="DejaVuSans-69" d="M 603 3500 
L 1178 3500 
L 1178 0 
L 603 0 
L 603 3500 
z
M 603 4863 
L 1178 4863 
L 1178 4134 
L 603 4134 
L 603 4863 
z
" transform="scale(0.015625)"/>
      <path id="DejaVuSans-63" d="M 3122 3366 
L 3122 2828 
Q 2878 2963 2633 3030 
Q 2388 3097 2138 3097 
Q 1578 3097 1268 2742 
Q 959 2388 959 1747 
Q 959 1106 1268 751 
Q 1578 397 2138 397 
Q 2388 397 2633 464 
Q 2878 531 3122 666 
L 3122 134 
Q 2881 22 2623 -34 
Q 2366 -91 2075 -91 
Q 1284 -91 818 406 
Q 353 903 353 1747 
Q 353 2603 823 3093 
Q 1294 3584 2113 3584 
Q 2378 3584 2631 3529 
Q 2884 3475 3122 3366 
z
" transform="scale(0.015625)"/>
      <path id="DejaVuSans-20" transform="scale(0.015625)"/>
      <path id="DejaVuSans-46" d="M 628 4666 
L 3309 4666 
L 3309 4134 
L 1259 4134 
L 1259 2759 
L 3109 2759 
L 3109 2228 
L 1259 2228 
L 1259 0 
L 628 0 
L 628 4666 
z
" transform="scale(0.015625)"/>
      <path id="DejaVuSans-6c" d="M 603 4863 
L 1178 4863 
L 1178 0 
L 603 0 
L 603 4863 
z
" transform="scale(0.015625)"/>
      <path id="DejaVuSans-74" d="M 1172 4494 
L 1172 3500 
L 2356 3500 
L 2356 3053 
L 1172 3053 
L 1172 1153 
Q 1172 725 1289 603 
Q 1406 481 1766 481 
L 2356 481 
L 2356 0 
L 1766 0 
Q 1100 0 847 248 
Q 594 497 594 1153 
L 594 3053 
L 172 3053 
L 172 3500 
L 594 3500 
L 594 4494 
L 1172 4494 
z
" transform="scale(0.015625)"/>
      <path id="DejaVuSans-73" d="M 2834 3397 
L 2834 2853 
Q 2591 2978 2328 3040 
Q 2066 3103 1784 3103 
Q 1356 3103 1142 2972 
Q 928 2841 928 2578 
Q 928 2378 1081 2264 
Q 1234 2150 1697 2047 
L 1894 2003 
Q 2506 1872 2764 1633 
Q 3022 1394 3022 966 
Q 3022 478 2636 193 
Q 2250 -91 1575 -91 
Q 1294 -91 989 -36 
Q 684 19 347 128 
L 347 722 
Q 666 556 975 473 
Q 1284 391 1588 391 
Q 1994 391 2212 530 
Q 2431 669 2431 922 
Q 2431 1156 2273 1281 
Q 2116 1406 1581 1522 
L 1381 1569 
Q 847 1681 609 1914 
Q 372 2147 372 2553 
Q 372 3047 722 3315 
Q 1072 3584 1716 3584 
Q 2034 3584 2315 3537 
Q 2597 3491 2834 3397 
z
" transform="scale(0.015625)"/>
      <path id="DejaVuSans-3a" d="M 750 794 
L 1409 794 
L 1409 0 
L 750 0 
L 750 794 
z
M 750 3309 
L 1409 3309 
L 1409 2516 
L 750 2516 
L 750 3309 
z
" transform="scale(0.015625)"/>
      <path id="DejaVuSans-54" d="M -19 4666 
L 3928 4666 
L 3928 4134 
L 2272 4134 
L 2272 0 
L 1638 0 
L 1638 4134 
L -19 4134 
L -19 4666 
z
" transform="scale(0.015625)"/>
      <path id="DejaVuSans-6e" d="M 3513 2113 
L 3513 0 
L 2938 0 
L 2938 2094 
Q 2938 2591 2744 2837 
Q 2550 3084 2163 3084 
Q 1697 3084 1428 2787 
Q 1159 2491 1159 1978 
L 1159 0 
L 581 0 
L 581 3500 
L 1159 3500 
L 1159 2956 
Q 1366 3272 1645 3428 
Q 1925 3584 2291 3584 
Q 2894 3584 3203 3211 
Q 3513 2838 3513 2113 
z
" transform="scale(0.015625)"/>
      <path id="DejaVuSans-76" d="M 191 3500 
L 800 3500 
L 1894 563 
L 2988 3500 
L 3597 3500 
L 2284 0 
L 1503 0 
L 191 3500 
z
" transform="scale(0.015625)"/>
      <path id="DejaVuSans-75" d="M 544 1381 
L 544 3500 
L 1119 3500 
L 1119 1403 
Q 1119 906 1312 657 
Q 1506 409 1894 409 
Q 2359 409 2629 706 
Q 2900 1003 2900 1516 
L 2900 3500 
L 3475 3500 
L 3475 0 
L 2900 0 
L 2900 538 
Q 2691 219 2414 64 
Q 2138 -91 1772 -91 
Q 1169 -91 856 284 
Q 544 659 544 1381 
z
M 1991 3584 
L 1991 3584 
z
" transform="scale(0.015625)"/>
      <path id="DejaVuSans-77" d="M 269 3500 
L 844 3500 
L 1563 769 
L 2278 3500 
L 2956 3500 
L 3675 769 
L 4391 3500 
L 4966 3500 
L 4050 0 
L 3372 0 
L 2619 2869 
L 1863 0 
L 1184 0 
L 269 3500 
z
" transform="scale(0.015625)"/>
      <path id="DejaVuSans-7c" d="M 1344 4891 
L 1344 -1509 
L 813 -1509 
L 813 4891 
L 1344 4891 
z
" transform="scale(0.015625)"/>
      <path id="DejaVuSans-66" d="M 2375 4863 
L 2375 4384 
L 1825 4384 
Q 1516 4384 1395 4259 
Q 1275 4134 1275 3809 
L 1275 3500 
L 2222 3500 
L 2222 3053 
L 1275 3053 
L 1275 0 
L 697 0 
L 697 3053 
L 147 3053 
L 147 3500 
L 697 3500 
L 697 3744 
Q 697 4328 969 4595 
Q 1241 4863 1831 4863 
L 2375 4863 
z
" transform="scale(0.015625)"/>
      <path id="DejaVuSans-6a" d="M 603 3500 
L 1178 3500 
L 1178 -63 
Q 1178 -731 923 -1031 
Q 669 -1331 103 -1331 
L -116 -1331 
L -116 -844 
L 38 -844 
Q 366 -844 484 -692 
Q 603 -541 603 -63 
L 603 3500 
z
M 603 4863 
L 1178 4863 
L 1178 4134 
L 603 4134 
L 603 4863 
z
" transform="scale(0.015625)"/>
      <path id="DejaVuSans-64" d="M 2906 2969 
L 2906 4863 
L 3481 4863 
L 3481 0 
L 2906 0 
L 2906 525 
Q 2725 213 2448 61 
Q 2172 -91 1784 -91 
Q 1150 -91 751 415 
Q 353 922 353 1747 
Q 353 2572 751 3078 
Q 1150 3584 1784 3584 
Q 2172 3584 2448 3432 
Q 2725 3281 2906 2969 
z
M 947 1747 
Q 947 1113 1208 752 
Q 1469 391 1925 391 
Q 2381 391 2643 752 
Q 2906 1113 2906 1747 
Q 2906 2381 2643 2742 
Q 2381 3103 1925 3103 
Q 1469 3103 1208 2742 
Q 947 2381 947 1747 
z
" transform="scale(0.015625)"/>
     </defs>
     <use xlink:href="#DejaVuSans-44"/>
     <use xlink:href="#DejaVuSans-65" transform="translate(77.001953 0)"/>
     <use xlink:href="#DejaVuSans-6d" transform="translate(138.525391 0)"/>
     <use xlink:href="#DejaVuSans-6f" transform="translate(235.9375 0)"/>
     <use xlink:href="#DejaVuSans-67" transform="translate(297.119141 0)"/>
     <use xlink:href="#DejaVuSans-72" transform="translate(360.595703 0)"/>
     <use xlink:href="#DejaVuSans-61" transform="translate(401.708984 0)"/>
     <use xlink:href="#DejaVuSans-70" transform="translate(462.988281 0)"/>
     <use xlink:href="#DejaVuSans-68" transform="translate(526.464844 0)"/>
     <use xlink:href="#DejaVuSans-69" transform="translate(589.84375 0)"/>
     <use xlink:href="#DejaVuSans-63" transform="translate(617.626953 0)"/>
     <use xlink:href="#DejaVuSans-20" transform="translate(672.607422 0)"/>
     <use xlink:href="#DejaVuSans-46" transform="translate(704.394531 0)"/>
     <use xlink:href="#DejaVuSans-69" transform="translate(754.664062 0)"/>
     <use xlink:href="#DejaVuSans-6c" transform="translate(782.447266 0)"/>
     <use xlink:href="#DejaVuSans-74" transform="translate(810.230469 0)"/>
     <use xlink:href="#DejaVuSans-65" transform="translate(849.439453 0)"/>
     <use xlink:href="#DejaVuSans-72" transform="translate(910.962891 0)"/>
     <use xlink:href="#DejaVuSans-73" transform="translate(952.076172 0)"/>
     <use xlink:href="#DejaVuSans-3a" transform="translate(1004.175781 0)"/>
     <use xlink:href="#DejaVuSans-20" transform="translate(1037.867188 0)"/>
     <use xlink:href="#DejaVuSans-54" transform="translate(1069.654297 0)"/>
     <use xlink:href="#DejaVuSans-6f" transform="translate(1113.738281 0)"/>
     <use xlink:href="#DejaVuSans-74" transform="translate(1174.919922 0)"/>
     <use xlink:href="#DejaVuSans-61" transform="translate(1214.128906 0)"/>
     <use xlink:href="#DejaVuSans-61" transform="translate(1275.408203 0)"/>
     <use xlink:href="#DejaVuSans-6c" transform="translate(1336.6875 0)"/>
     <use xlink:href="#DejaVuSans-20" transform="translate(1364.470703 0)"/>
     <use xlink:href="#DejaVuSans-6d" transform="translate(1396.257812 0)"/>
     <use xlink:href="#DejaVuSans-61" transform="translate(1493.669922 0)"/>
     <use xlink:href="#DejaVuSans-6e" transform="translate(1554.949219 0)"/>
     <use xlink:href="#DejaVuSans-6e" transform="translate(1618.328125 0)"/>
     <use xlink:href="#DejaVuSans-65" transform="translate(1681.707031 0)"/>
     <use xlink:href="#DejaVuSans-6e" transform="translate(1743.230469 0)"/>
     <use xlink:href="#DejaVuSans-20" transform="translate(1806.609375 0)"/>
     <use xlink:href="#DejaVuSans-65" transform="translate(1838.396484 0)"/>
     <use xlink:href="#DejaVuSans-6e" transform="translate(1899.919922 0)"/>
     <use xlink:href="#DejaVuSans-20" transform="translate(1963.298828 0)"/>
     <use xlink:href="#DejaVuSans-76" transform="translate(1995.085938 0)"/>
     <use xlink:href="#DejaVuSans-72" transform="translate(2054.265625 0)"/>
     <use xlink:href="#DejaVuSans-6f" transform="translate(2093.128906 0)"/>
     <use xlink:href="#DejaVuSans-75" transform="translate(2154.310547 0)"/>
     <use xlink:href="#DejaVuSans-77" transform="translate(2217.689453 0)"/>
     <use xlink:href="#DejaVuSans-65" transform="translate(2299.476562 0)"/>
     <use xlink:href="#DejaVuSans-6e" transform="translate(2361 0)"/>
     <use xlink:href="#DejaVuSans-20" transform="translate(2424.378906 0)"/>
     <use xlink:href="#DejaVuSans-7c" transform="translate(2456.166016 0)"/>
     <use xlink:href="#DejaVuSans-20" transform="translate(2489.857422 0)"/>
     <use xlink:href="#DejaVuSans-54" transform="translate(2521.644531 0)"/>
     <use xlink:href="#DejaVuSans-6f" transform="translate(2565.728516 0)"/>
     <use xlink:href="#DejaVuSans-74" transform="translate(2626.910156 0)"/>
     <use xlink:href="#DejaVuSans-61" transform="translate(2666.119141 0)"/>
     <use xlink:href="#DejaVuSans-61" transform="translate(2727.398438 0)"/>
     <use xlink:href="#DejaVuSans-6c" transform="translate(2788.677734 0)"/>
     <use xlink:href="#DejaVuSans-20" transform="translate(2816.460938 0)"/>
     <use xlink:href="#DejaVuSans-6c" transform="translate(2848.248047 0)"/>
     <use xlink:href="#DejaVuSans-65" transform="translate(2876.03125 0)"/>
     <use xlink:href="#DejaVuSans-65" transform="translate(2937.554688 0)"/>
     <use xlink:href="#DejaVuSans-66" transform="translate(2999.078125 0)"/>
     <use xlink:href="#DejaVuSans-74" transform="translate(3032.533203 0)"/>
     <use xlink:href="#DejaVuSans-69" transform="translate(3071.742188 0)"/>
     <use xlink:href="#DejaVuSans-6a" transform="translate(3099.525391 0)"/>
     <use xlink:href="#DejaVuSans-64" transform="translate(3127.308594 0)"/>
    </g>
   </g>
   <g id="legend_1">
    <g id="patch_4">
     <path d="M 451.46825 565.816 
L 631.056688 565.816 
Q 633.056688 565.816 633.056688 563.816 
L 633.056688 437.068031 
Q 633.056688 435.068031 631.056688 435.068031 
L 451.46825 435.068031 
Q 449.46825 435.068031 449.46825 437.068031 
L 449.46825 563.816 
Q 449.46825 565.816 451.46825 565.816 
z
" style="fill: #ffffff; opacity: 0.8; stroke: #e2e8f0; stroke-linejoin: miter"/>
    </g>
    <g id="patch_5">
     <path d="M 453.46825 446.286547 
L 473.46825 446.286547 
L 473.46825 439.286547 
L 453.46825 439.286547 
z
" style="fill: #cbd5e0; fill-opacity: 0.35; stroke: #cbd5e0; stroke-opacity: 0.35; stroke-linejoin: miter"/>
    </g>
    <g id="text_19">
     <!-- Standard Deviation Bounds -->
     <g style="fill: #2d3748" transform="translate(481.46825 446.286547) scale(0.095 -0.095)">
      <defs>
       <path id="DejaVuSans-53" d="M 3425 4513 
L 3425 3897 
Q 3066 4069 2747 4153 
Q 2428 4238 2131 4238 
Q 1616 4238 1336 4038 
Q 1056 3838 1056 3469 
Q 1056 3159 1242 3001 
Q 1428 2844 1947 2747 
L 2328 2669 
Q 3034 2534 3370 2195 
Q 3706 1856 3706 1288 
Q 3706 609 3251 259 
Q 2797 -91 1919 -91 
Q 1588 -91 1214 -16 
Q 841 59 441 206 
L 441 856 
Q 825 641 1194 531 
Q 1563 422 1919 422 
Q 2459 422 2753 634 
Q 3047 847 3047 1241 
Q 3047 1584 2836 1778 
Q 2625 1972 2144 2069 
L 1759 2144 
Q 1053 2284 737 2584 
Q 422 2884 422 3419 
Q 422 4038 858 4394 
Q 1294 4750 2059 4750 
Q 2388 4750 2728 4690 
Q 3069 4631 3425 4513 
z
" transform="scale(0.015625)"/>
       <path id="DejaVuSans-42" d="M 1259 2228 
L 1259 519 
L 2272 519 
Q 2781 519 3026 730 
Q 3272 941 3272 1375 
Q 3272 1813 3026 2020 
Q 2781 2228 2272 2228 
L 1259 2228 
z
M 1259 4147 
L 1259 2741 
L 2194 2741 
Q 2656 2741 2882 2914 
Q 3109 3088 3109 3444 
Q 3109 3797 2882 3972 
Q 2656 4147 2194 4147 
L 1259 4147 
z
M 628 4666 
L 2241 4666 
Q 2963 4666 3353 4366 
Q 3744 4066 3744 3513 
Q 3744 3084 3544 2831 
Q 3344 2578 2956 2516 
Q 3422 2416 3680 2098 
Q 3938 1781 3938 1306 
Q 3938 681 3513 340 
Q 3088 0 2303 0 
L 628 0 
L 628 4666 
z
" transform="scale(0.015625)"/>
      </defs>
      <use xlink:href="#DejaVuSans-53"/>
      <use xlink:href="#DejaVuSans-74" transform="translate(63.476562 0)"/>
      <use xlink:href="#DejaVuSans-61" transform="translate(102.685547 0)"/>
      <use xlink:href="#DejaVuSans-6e" transform="translate(163.964844 0)"/>
      <use xlink:href="#DejaVuSans-64" transform="translate(227.34375 0)"/>
      <use xlink:href="#DejaVuSans-61" transform="translate(290.820312 0)"/>
      <use xlink:href="#DejaVuSans-72" transform="translate(352.099609 0)"/>
      <use xlink:href="#DejaVuSans-64" transform="translate(391.462891 0)"/>
      <use xlink:href="#DejaVuSans-20" transform="translate(454.939453 0)"/>
      <use xlink:href="#DejaVuSans-44" transform="translate(486.726562 0)"/>
      <use xlink:href="#DejaVuSans-65" transform="translate(563.728516 0)"/>
      <use xlink:href="#DejaVuSans-76" transform="translate(625.251953 0)"/>
      <use xlink:href="#DejaVuSans-69" transform="translate(684.431641 0)"/>
      <use xlink:href="#DejaVuSans-61" transform="translate(712.214844 0)"/>
      <use xlink:href="#DejaVuSans-74" transform="translate(773.494141 0)"/>
      <use xlink:href="#DejaVuSans-69" transform="translate(812.703125 0)"/>
      <use xlink:href="#DejaVuSans-6f" transform="translate(840.486328 0)"/>
      <use xlink:href="#DejaVuSans-6e" transform="translate(901.667969 0)"/>
      <use xlink:href="#DejaVuSans-20" transform="translate(965.046875 0)"/>
      <use xlink:href="#DejaVuSans-42" transform="translate(996.833984 0)"/>
      <use xlink:href="#DejaVuSans-6f" transform="translate(1065.4375 0)"/>
      <use xlink:href="#DejaVuSans-75" transform="translate(1126.619141 0)"/>
      <use xlink:href="#DejaVuSans-6e" transform="translate(1189.998047 0)"/>
      <use xlink:href="#DejaVuSans-64" transform="translate(1253.376953 0)"/>
      <use xlink:href="#DejaVuSans-73" transform="translate(1316.853516 0)"/>
     </g>
    </g>
    <g id="patch_6">
     <path d="M 453.46825 460.480766 
L 473.46825 460.480766 
L 473.46825 453.480766 
L 453.46825 453.480766 
z
" style="fill: #e2e8f0; fill-opacity: 0.15; stroke: #e2e8f0; stroke-opacity: 0.15; stroke-linejoin: miter"/>
    </g>
    <g id="text_20">
     <!-- Historical Minimum / Maximum -->
     <g style="fill: #2d3748" transform="translate(481.46825 460.480766) scale(0.095 -0.095)">
      <defs>
       <path id="DejaVuSans-48" d="M 628 4666 
L 1259 4666 
L 1259 2753 
L 3553 2753 
L 3553 4666 
L 4184 4666 
L 4184 0 
L 3553 0 
L 3553 2222 
L 1259 2222 
L 1259 0 
L 628 0 
L 628 4666 
z
" transform="scale(0.015625)"/>
       <path id="DejaVuSans-4d" d="M 628 4666 
L 1569 4666 
L 2759 1491 
L 3956 4666 
L 4897 4666 
L 4897 0 
L 4281 0 
L 4281 4097 
L 3078 897 
L 2444 897 
L 1241 4097 
L 1241 0 
L 628 0 
L 628 4666 
z
" transform="scale(0.015625)"/>
       <path id="DejaVuSans-2f" d="M 1625 4666 
L 2156 4666 
L 531 -594 
L 0 -594 
L 1625 4666 
z
" transform="scale(0.015625)"/>
       <path id="DejaVuSans-78" d="M 3513 3500 
L 2247 1797 
L 3578 0 
L 2900 0 
L 1881 1375 
L 863 0 
L 184 0 
L 1544 1831 
L 300 3500 
L 978 3500 
L 1906 2253 
L 2834 3500 
L 3513 3500 
z
" transform="scale(0.015625)"/>
      </defs>
      <use xlink:href="#DejaVuSans-48"/>
      <use xlink:href="#DejaVuSans-69" transform="translate(75.195312 0)"/>
      <use xlink:href="#DejaVuSans-73" transform="translate(102.978516 0)"/>
      <use xlink:href="#DejaVuSans-74" transform="translate(155.078125 0)"/>
      <use xlink:href="#DejaVuSans-6f" transform="translate(194.287109 0)"/>
      <use xlink:href="#DejaVuSans-72" transform="translate(255.46875 0)"/>
      <use xlink:href="#DejaVuSans-69" transform="translate(296.582031 0)"/>
      <use xlink:href="#DejaVuSans-63" transform="translate(324.365234 0)"/>
      <use xlink:href="#DejaVuSans-61" transform="translate(379.345703 0)"/>
      <use xlink:href="#DejaVuSans-6c" transform="translate(440.625 0)"/>
      <use xlink:href="#DejaVuSans-20" transform="translate(468.408203 0)"/>
      <use xlink:href="#DejaVuSans-4d" transform="translate(500.195312 0)"/>
      <use xlink:href="#DejaVuSans-69" transform="translate(586.474609 0)"/>
      <use xlink:href="#DejaVuSans-6e" transform="translate(614.257812 0)"/>
      <use xlink:href="#DejaVuSans-69" transform="translate(677.636719 0)"/>
      <use xlink:href="#DejaVuSans-6d" transform="translate(705.419922 0)"/>
      <use xlink:href="#DejaVuSans-75" transform="translate(802.832031 0)"/>
      <use xlink:href="#DejaVuSans-6d" transform="translate(866.210938 0)"/>
      <use xlink:href="#DejaVuSans-20" transform="translate(963.623047 0)"/>
      <use xlink:href="#DejaVuSans-2f" transform="translate(995.410156 0)"/>
      <use xlink:href="#DejaVuSans-20" transform="translate(1029.101562 0)"/>
      <use xlink:href="#DejaVuSans-4d" transform="translate(1060.888672 0)"/>
      <use xlink:href="#DejaVuSans-61" transform="translate(1147.167969 0)"/>
      <use xlink:href="#DejaVuSans-78" transform="translate(1208.447266 0)"/>
      <use xlink:href="#DejaVuSans-69" transform="translate(1267.626953 0)"/>
      <use xlink:href="#DejaVuSans-6d" transform="translate(1295.410156 0)"/>
      <use xlink:href="#DejaVuSans-75" transform="translate(1392.822266 0)"/>
      <use xlink:href="#DejaVuSans-6d" transform="translate(1456.201172 0)"/>
     </g>
    </g>
    <g id="line2d_24">
     <path d="M 453.46825 471.174984 
L 463.46825 471.174984 
L 473.46825 471.174984 
" style="fill: none; stroke-dasharray: 5.55,2.4; stroke-dashoffset: 0; stroke: #2d3748; stroke-width: 1.5"/>
    </g>
    <g id="text_21">
     <!-- Historical Median Trend -->
     <g style="fill: #2d3748" transform="translate(481.46825 474.674984) scale(0.095 -0.095)">
      <use xlink:href="#DejaVuSans-48"/>
      <use xlink:href="#DejaVuSans-69" transform="translate(75.195312 0)"/>
      <use xlink:href="#DejaVuSans-73" transform="translate(102.978516 0)"/>
      <use xlink:href="#DejaVuSans-74" transform="translate(155.078125 0)"/>
      <use xlink:href="#DejaVuSans-6f" transform="translate(194.287109 0)"/>
      <use xlink:href="#DejaVuSans-72" transform="translate(255.46875 0)"/>
      <use xlink:href="#DejaVuSans-69" transform="translate(296.582031 0)"/>
      <use xlink:href="#DejaVuSans-63" transform="translate(324.365234 0)"/>
      <use xlink:href="#DejaVuSans-61" transform="translate(379.345703 0)"/>
      <use xlink:href="#DejaVuSans-6c" transform="translate(440.625 0)"/>
      <use xlink:href="#DejaVuSans-20" transform="translate(468.408203 0)"/>
      <use xlink:href="#DejaVuSans-4d" transform="translate(500.195312 0)"/>
      <use xlink:href="#DejaVuSans-65" transform="translate(586.474609 0)"/>
      <use xlink:href="#DejaVuSans-64" transform="translate(647.998047 0)"/>
      <use xlink:href="#DejaVuSans-69" transform="translate(711.474609 0)"/>
      <use xlink:href="#DejaVuSans-61" transform="translate(739.257812 0)"/>
      <use xlink:href="#DejaVuSans-6e" transform="translate(800.537109 0)"/>
      <use xlink:href="#DejaVuSans-20" transform="translate(863.916016 0)"/>
      <use xlink:href="#DejaVuSans-54" transform="translate(895.703125 0)"/>
      <use xlink:href="#DejaVuSans-72" transform="translate(942.037109 0)"/>
      <use xlink:href="#DejaVuSans-65" transform="translate(980.900391 0)"/>
      <use xlink:href="#DejaVuSans-6e" transform="translate(1042.423828 0)"/>
      <use xlink:href="#DejaVuSans-64" transform="translate(1105.802734 0)"/>
     </g>
    </g>
    <g id="line2d_25">
     <path d="M 453.46825 485.369203 
L 463.46825 485.369203 
L 473.46825 485.369203 
" style="fill: none; stroke: #0ea5e9; stroke-opacity: 0.7; stroke-width: 1.2; stroke-linecap: square"/>
    </g>
    <g id="text_22">
     <!-- 2020 Pandemic Outbreak -->
     <g style="fill: #2d3748" transform="translate(481.46825 488.869203) scale(0.095 -0.095)">
      <defs>
       <path id="DejaVuSans-50" d="M 1259 4147 
L 1259 2394 
L 2053 2394 
Q 2494 2394 2734 2622 
Q 2975 2850 2975 3272 
Q 2975 3691 2734 3919 
Q 2494 4147 2053 4147 
L 1259 4147 
z
M 628 4666 
L 2053 4666 
Q 2838 4666 3239 4311 
Q 3641 3956 3641 3272 
Q 3641 2581 3239 2228 
Q 2838 1875 2053 1875 
L 1259 1875 
L 1259 0 
L 628 0 
L 628 4666 
z
" transform="scale(0.015625)"/>
       <path id="DejaVuSans-4f" d="M 2522 4238 
Q 1834 4238 1429 3725 
Q 1025 3213 1025 2328 
Q 1025 1447 1429 934 
Q 1834 422 2522 422 
Q 3209 422 3611 934 
Q 4013 1447 4013 2328 
Q 4013 3213 3611 3725 
Q 3209 4238 2522 4238 
z
M 2522 4750 
Q 3503 4750 4090 4092 
Q 4678 3434 4678 2328 
Q 4678 1225 4090 567 
Q 3503 -91 2522 -91 
Q 1538 -91 948 565 
Q 359 1222 359 2328 
Q 359 3434 948 4092 
Q 1538 4750 2522 4750 
z
" transform="scale(0.015625)"/>
       <path id="DejaVuSans-62" d="M 3116 1747 
Q 3116 2381 2855 2742 
Q 2594 3103 2138 3103 
Q 1681 3103 1420 2742 
Q 1159 2381 1159 1747 
Q 1159 1113 1420 752 
Q 1681 391 2138 391 
Q 2594 391 2855 752 
Q 3116 1113 3116 1747 
z
M 1159 2969 
Q 1341 3281 1617 3432 
Q 1894 3584 2278 3584 
Q 2916 3584 3314 3078 
Q 3713 2572 3713 1747 
Q 3713 922 3314 415 
Q 2916 -91 2278 -91 
Q 1894 -91 1617 61 
Q 1341 213 1159 525 
L 1159 0 
L 581 0 
L 581 4863 
L 1159 4863 
L 1159 2969 
z
" transform="scale(0.015625)"/>
       <path id="DejaVuSans-6b" d="M 581 4863 
L 1159 4863 
L 1159 1991 
L 2875 3500 
L 3609 3500 
L 1753 1863 
L 3688 0 
L 2938 0 
L 1159 1709 
L 1159 0 
L 581 0 
L 581 4863 
z
" transform="scale(0.015625)"/>
      </defs>
      <use xlink:href="#DejaVuSans-32"/>
      <use xlink:href="#DejaVuSans-30" transform="translate(63.623047 0)"/>
      <use xlink:href="#DejaVuSans-32" transform="translate(127.246094 0)"/>
      <use xlink:href="#DejaVuSans-30" transform="translate(190.869141 0)"/>
      <use xlink:href="#DejaVuSans-20" transform="translate(254.492188 0)"/>
      <use xlink:href="#DejaVuSans-50" transform="translate(286.279297 0)"/>
      <use xlink:href="#DejaVuSans-61" transform="translate(342.082031 0)"/>
      <use xlink:href="#DejaVuSans-6e" transform="translate(403.361328 0)"/>
      <use xlink:href="#DejaVuSans-64" transform="translate(466.740234 0)"/>
      <use xlink:href="#DejaVuSans-65" transform="translate(530.216797 0)"/>
      <use xlink:href="#DejaVuSans-6d" transform="translate(591.740234 0)"/>
      <use xlink:href="#DejaVuSans-69" transform="translate(689.152344 0)"/>
      <use xlink:href="#DejaVuSans-63" transform="translate(716.935547 0)"/>
      <use xlink:href="#DejaVuSans-20" transform="translate(771.916016 0)"/>
      <use xlink:href="#DejaVuSans-4f" transform="translate(803.703125 0)"/>
      <use xlink:href="#DejaVuSans-75" transform="translate(882.414062 0)"/>
      <use xlink:href="#DejaVuSans-74" transform="translate(945.792969 0)"/>
      <use xlink:href="#DejaVuSans-62" transform="translate(985.001953 0)"/>
      <use xlink:href="#DejaVuSans-72" transform="translate(1048.478516 0)"/>
      <use xlink:href="#DejaVuSans-65" transform="translate(1087.341797 0)"/>
      <use xlink:href="#DejaVuSans-61" transform="translate(1148.865234 0)"/>
      <use xlink:href="#DejaVuSans-6b" transform="translate(1210.144531 0)"/>
     </g>
    </g>
    <g id="line2d_26">
     <path d="M 453.46825 499.563422 
L 463.46825 499.563422 
L 473.46825 499.563422 
" style="fill: none; stroke: #10b981; stroke-opacity: 0.7; stroke-width: 1.2; stroke-linecap: square"/>
    </g>
    <g id="text_23">
     <!-- 2021 Delta Wave -->
     <g style="fill: #2d3748" transform="translate(481.46825 503.063422) scale(0.095 -0.095)">
      <defs>
       <path id="DejaVuSans-57" d="M 213 4666 
L 850 4666 
L 1831 722 
L 2809 4666 
L 3519 4666 
L 4500 722 
L 5478 4666 
L 6119 4666 
L 4947 0 
L 4153 0 
L 3169 4050 
L 2175 0 
L 1381 0 
L 213 4666 
z
" transform="scale(0.015625)"/>
      </defs>
      <use xlink:href="#DejaVuSans-32"/>
      <use xlink:href="#DejaVuSans-30" transform="translate(63.623047 0)"/>
      <use xlink:href="#DejaVuSans-32" transform="translate(127.246094 0)"/>
      <use xlink:href="#DejaVuSans-31" transform="translate(190.869141 0)"/>
      <use xlink:href="#DejaVuSans-20" transform="translate(254.492188 0)"/>
      <use xlink:href="#DejaVuSans-44" transform="translate(286.279297 0)"/>
      <use xlink:href="#DejaVuSans-65" transform="translate(363.28125 0)"/>
      <use xlink:href="#DejaVuSans-6c" transform="translate(424.804688 0)"/>
      <use xlink:href="#DejaVuSans-74" transform="translate(452.587891 0)"/>
      <use xlink:href="#DejaVuSans-61" transform="translate(491.796875 0)"/>
      <use xlink:href="#DejaVuSans-20" transform="translate(553.076172 0)"/>
      <use xlink:href="#DejaVuSans-57" transform="translate(584.863281 0)"/>
      <use xlink:href="#DejaVuSans-61" transform="translate(677.365234 0)"/>
      <use xlink:href="#DejaVuSans-76" transform="translate(738.644531 0)"/>
      <use xlink:href="#DejaVuSans-65" transform="translate(797.824219 0)"/>
     </g>
    </g>
    <g id="line2d_27">
     <path d="M 453.46825 513.757641 
L 463.46825 513.757641 
L 473.46825 513.757641 
" style="fill: none; stroke: #6366f1; stroke-opacity: 0.7; stroke-width: 1.2; stroke-linecap: square"/>
    </g>
    <g id="text_24">
     <!-- 2022 Omicron Structural Shift -->
     <g style="fill: #2d3748" transform="translate(481.46825 517.257641) scale(0.095 -0.095)">
      <use xlink:href="#DejaVuSans-32"/>
      <use xlink:href="#DejaVuSans-30" transform="translate(63.623047 0)"/>
      <use xlink:href="#DejaVuSans-32" transform="translate(127.246094 0)"/>
      <use xlink:href="#DejaVuSans-32" transform="translate(190.869141 0)"/>
      <use xlink:href="#DejaVuSans-20" transform="translate(254.492188 0)"/>
      <use xlink:href="#DejaVuSans-4f" transform="translate(286.279297 0)"/>
      <use xlink:href="#DejaVuSans-6d" transform="translate(364.990234 0)"/>
      <use xlink:href="#DejaVuSans-69" transform="translate(462.402344 0)"/>
      <use xlink:href="#DejaVuSans-63" transform="translate(490.185547 0)"/>
      <use xlink:href="#DejaVuSans-72" transform="translate(545.166016 0)"/>
      <use xlink:href="#DejaVuSans-6f" transform="translate(584.029297 0)"/>
      <use xlink:href="#DejaVuSans-6e" transform="translate(645.210938 0)"/>
      <use xlink:href="#DejaVuSans-20" transform="translate(708.589844 0)"/>
      <use xlink:href="#DejaVuSans-53" transform="translate(740.376953 0)"/>
      <use xlink:href="#DejaVuSans-74" transform="translate(803.853516 0)"/>
      <use xlink:href="#DejaVuSans-72" transform="translate(843.0625 0)"/>
      <use xlink:href="#DejaVuSans-75" transform="translate(884.175781 0)"/>
      <use xlink:href="#DejaVuSans-63" transform="translate(947.554688 0)"/>
      <use xlink:href="#DejaVuSans-74" transform="translate(1002.535156 0)"/>
      <use xlink:href="#DejaVuSans-75" transform="translate(1041.744141 0)"/>
      <use xlink:href="#DejaVuSans-72" transform="translate(1105.123047 0)"/>
      <use xlink:href="#DejaVuSans-61" transform="translate(1146.236328 0)"/>
      <use xlink:href="#DejaVuSans-6c" transform="translate(1207.515625 0)"/>
      <use xlink:href="#DejaVuSans-20" transform="translate(1235.298828 0)"/>
      <use xlink:href="#DejaVuSans-53" transform="translate(1267.085938 0)"/>
      <use xlink:href="#DejaVuSans-68" transform="translate(1330.5625 0)"/>
      <use xlink:href="#DejaVuSans-69" transform="translate(1393.941406 0)"/>
      <use xlink:href="#DejaVuSans-66" transform="translate(1421.724609 0)"/>
      <use xlink:href="#DejaVuSans-74" transform="translate(1455.179688 0)"/>
     </g>
    </g>
    <g id="line2d_28">
     <path d="M 453.46825 527.951859 
L 463.46825 527.951859 
L 473.46825 527.951859 
" style="fill: none; stroke-dasharray: 1.2,1.98; stroke-dashoffset: 0; stroke: #718096; stroke-width: 1.2"/>
    </g>
    <g id="text_25">
     <!-- 2024 Trend -->
     <g style="fill: #2d3748" transform="translate(481.46825 531.451859) scale(0.095 -0.095)">
      <use xlink:href="#DejaVuSans-32"/>
      <use xlink:href="#DejaVuSans-30" transform="translate(63.623047 0)"/>
      <use xlink:href="#DejaVuSans-32" transform="translate(127.246094 0)"/>
      <use xlink:href="#DejaVuSans-34" transform="translate(190.869141 0)"/>
      <use xlink:href="#DejaVuSans-20" transform="translate(254.492188 0)"/>
      <use xlink:href="#DejaVuSans-54" transform="translate(286.279297 0)"/>
      <use xlink:href="#DejaVuSans-72" transform="translate(332.613281 0)"/>
      <use xlink:href="#DejaVuSans-65" transform="translate(371.476562 0)"/>
      <use xlink:href="#DejaVuSans-6e" transform="translate(433 0)"/>
      <use xlink:href="#DejaVuSans-64" transform="translate(496.378906 0)"/>
     </g>
    </g>
    <g id="line2d_29">
     <path d="M 453.46825 542.146078 
L 463.46825 542.146078 
L 473.46825 542.146078 
" style="fill: none; stroke: #4a5568; stroke-width: 1.5; stroke-linecap: square"/>
    </g>
    <g id="text_26">
     <!-- 2025 Trend -->
     <g style="fill: #2d3748" transform="translate(481.46825 545.646078) scale(0.095 -0.095)">
      <use xlink:href="#DejaVuSans-32"/>
      <use xlink:href="#DejaVuSans-30" transform="translate(63.623047 0)"/>
      <use xlink:href="#DejaVuSans-32" transform="translate(127.246094 0)"/>
      <use xlink:href="#DejaVuSans-35" transform="translate(190.869141 0)"/>
      <use xlink:href="#DejaVuSans-20" transform="translate(254.492188 0)"/>
      <use xlink:href="#DejaVuSans-54" transform="translate(286.279297 0)"/>
      <use xlink:href="#DejaVuSans-72" transform="translate(332.613281 0)"/>
      <use xlink:href="#DejaVuSans-65" transform="translate(371.476562 0)"/>
      <use xlink:href="#DejaVuSans-6e" transform="translate(433 0)"/>
      <use xlink:href="#DejaVuSans-64" transform="translate(496.378906 0)"/>
     </g>
    </g>
    <g id="line2d_30">
     <path d="M 453.46825 556.340297 
L 463.46825 556.340297 
L 473.46825 556.340297 
" style="fill: none; stroke: #ff3366; stroke-width: 3; stroke-linecap: square"/>
    </g>
    <g id="text_27">
     <!-- Current Tracker (2026) -->
     <g style="fill: #2d3748" transform="translate(481.46825 559.840297) scale(0.095 -0.095)">
      <defs>
       <path id="DejaVuSans-43" d="M 4122 4306 
L 4122 3641 
Q 3803 3938 3442 4084 
Q 3081 4231 2675 4231 
Q 1875 4231 1450 3742 
Q 1025 3253 1025 2328 
Q 1025 1406 1450 917 
Q 1875 428 2675 428 
Q 3081 428 3442 575 
Q 3803 722 4122 1019 
L 4122 359 
Q 3791 134 3420 21 
Q 3050 -91 2638 -91 
Q 1578 -91 968 557 
Q 359 1206 359 2328 
Q 359 3453 968 4101 
Q 1578 4750 2638 4750 
Q 3056 4750 3426 4639 
Q 3797 4528 4122 4306 
z
" transform="scale(0.015625)"/>
       <path id="DejaVuSans-28" d="M 1984 4856 
Q 1566 4138 1362 3434 
Q 1159 2731 1159 2009 
Q 1159 1288 1364 580 
Q 1569 -128 1984 -844 
L 1484 -844 
Q 1016 -109 783 600 
Q 550 1309 550 2009 
Q 550 2706 781 3412 
Q 1013 4119 1484 4856 
L 1984 4856 
z
" transform="scale(0.015625)"/>
       <path id="DejaVuSans-36" d="M 2113 2584 
Q 1688 2584 1439 2293 
Q 1191 2003 1191 1497 
Q 1191 994 1439 701 
Q 1688 409 2113 409 
Q 2538 409 2786 701 
Q 3034 994 3034 1497 
Q 3034 2003 2786 2293 
Q 2538 2584 2113 2584 
z
M 3366 4563 
L 3366 3988 
Q 3128 4100 2886 4159 
Q 2644 4219 2406 4219 
Q 1781 4219 1451 3797 
Q 1122 3375 1075 2522 
Q 1259 2794 1537 2939 
Q 1816 3084 2150 3084 
Q 2853 3084 3261 2657 
Q 3669 2231 3669 1497 
Q 3669 778 3244 343 
Q 2819 -91 2113 -91 
Q 1303 -91 875 529 
Q 447 1150 447 2328 
Q 447 3434 972 4092 
Q 1497 4750 2381 4750 
Q 2619 4750 2861 4703 
Q 3103 4656 3366 4563 
z
" transform="scale(0.015625)"/>
       <path id="DejaVuSans-29" d="M 513 4856 
L 1013 4856 
Q 1481 4119 1714 3412 
Q 1947 2706 1947 2009 
Q 1947 1309 1714 600 
Q 1481 -109 1013 -844 
L 513 -844 
Q 928 -128 1133 580 
Q 1338 1288 1338 2009 
Q 1338 2731 1133 3434 
Q 928 4138 513 4856 
z
" transform="scale(0.015625)"/>
      </defs>
      <use xlink:href="#DejaVuSans-43"/>
      <use xlink:href="#DejaVuSans-75" transform="translate(69.824219 0)"/>
      <use xlink:href="#DejaVuSans-72" transform="translate(133.203125 0)"/>
      <use xlink:href="#DejaVuSans-72" transform="translate(172.566406 0)"/>
      <use xlink:href="#DejaVuSans-65" transform="translate(211.429688 0)"/>
      <use xlink:href="#DejaVuSans-6e" transform="translate(272.953125 0)"/>
      <use xlink:href="#DejaVuSans-74" transform="translate(336.332031 0)"/>
      <use xlink:href="#DejaVuSans-20" transform="translate(375.541016 0)"/>
      <use xlink:href="#DejaVuSans-54" transform="translate(407.328125 0)"/>
      <use xlink:href="#DejaVuSans-72" transform="translate(453.662109 0)"/>
      <use xlink:href="#DejaVuSans-61" transform="translate(494.775391 0)"/>
      <use xlink:href="#DejaVuSans-63" transform="translate(556.054688 0)"/>
      <use xlink:href="#DejaVuSans-6b" transform="translate(611.035156 0)"/>
      <use xlink:href="#DejaVuSans-65" transform="translate(665.320312 0)"/>
      <use xlink:href="#DejaVuSans-72" transform="translate(726.84375 0)"/>
      <use xlink:href="#DejaVuSans-20" transform="translate(767.957031 0)"/>
      <use xlink:href="#DejaVuSans-28" transform="translate(799.744141 0)"/>
      <use xlink:href="#DejaVuSans-32" transform="translate(838.757812 0)"/>
      <use xlink:href="#DejaVuSans-30" transform="translate(902.380859 0)"/>
      <use xlink:href="#DejaVuSans-32" transform="translate(966.003906 0)"/>
      <use xlink:href="#DejaVuSans-36" transform="translate(1029.626953 0)"/>
      <use xlink:href="#DejaVuSans-29" transform="translate(1093.25 0)"/>
     </g>
    </g>
   </g>
   <g id="line2d_31">
    <path d="M 261.064688 170.356949 
L 281.91234 155.184135 
L 301.101215 164.445422 
L 318.620895 175.116753 
L 336.94584 182.300543 
L 356.315575 188.885266 
L 372.506647 201.088032 
L 386.002864 216.194434 
L 395.026317 234.412963 
L 395.244897 256.456793 
L 394.696927 276.199977 
L 399.503248 292.757959 
L 400.84542 309.907546 
L 400.773656 326.88 
L 397.825854 343.485812 
L 393.227367 359.455175 
L 386.915209 374.608807 
L 374.708255 386.524746 
L 373.226696 404.299844 
L 359.725055 414.285458 
" clip-path="url(#p6944624ede)" style="fill: none; stroke: #ff3366; stroke-width: 3; stroke-linecap: square"/>
   </g>
   <g id="line2d_32">
    <path d="M 359.725055 414.285458 
" clip-path="url(#p6944624ede)" style="fill: none; stroke: #ff3366; stroke-width: 1.5; stroke-linecap: square"/>
    <defs>
     <path id="md60a81d18e" d="M 0 4 
C 1.060812 4 2.078319 3.578535 2.828427 2.828427 
C 3.578535 2.078319 4 1.060812 4 0 
C 4 -1.060812 3.578535 -2.078319 2.828427 -2.828427 
C 2.078319 -3.578535 1.060812 -4 0 -4 
C -1.060812 -4 -2.078319 -3.578535 -2.828427 -2.828427 
C -3.578535 -2.078319 -4 -1.060812 -4 0 
C -4 1.060812 -3.578535 2.078319 -2.828427 2.828427 
C -2.078319 3.578535 -1.060812 4 0 4 
z
" style="stroke: #ffffff; stroke-width: 2"/>
    </defs>
    <g clip-path="url(#p6944624ede)">
     <use xlink:href="#md60a81d18e" x="359.725055" y="414.285458" style="fill: #ff3366; stroke: #ffffff; stroke-width: 2"/>
    </g>
   </g>
   <g id="text_28">
    <g id="patch_7">
     <path d="M 519.725055 427.27963 
L 586.010055 427.27963 
Q 589.610055 427.27963 589.610055 423.67963 
L 589.610055 404.891286 
Q 589.610055 401.291286 586.010055 401.291286 
L 519.725055 401.291286 
Q 516.125055 401.291286 516.125055 404.891286 
L 516.125055 423.67963 
Q 516.125055 427.27963 519.725055 427.27963 
z
" style="fill: #ffffff; opacity: 0.95; stroke: #ff3366; stroke-width: 1.2; stroke-linejoin: miter"/>
    </g>
    <!-- Week 20 -->
    <g style="fill: #ff3366" transform="translate(519.725055 411.72988) scale(0.09 -0.09)">
     <defs>
      <path id="DejaVuSans-Bold-57" d="M 191 4666 
L 1344 4666 
L 2150 1275 
L 2950 4666 
L 4109 4666 
L 4909 1275 
L 5716 4666 
L 6859 4666 
L 5759 0 
L 4372 0 
L 3525 3547 
L 2688 0 
L 1300 0 
L 191 4666 
z
" transform="scale(0.015625)"/>
      <path id="DejaVuSans-Bold-6b" d="M 538 4863 
L 1656 4863 
L 1656 2216 
L 2944 3500 
L 4244 3500 
L 2534 1894 
L 4378 0 
L 3022 0 
L 1656 1459 
L 1656 0 
L 538 0 
L 538 4863 
z
" transform="scale(0.015625)"/>
      <path id="DejaVuSans-Bold-20" transform="scale(0.015625)"/>
      <path id="DejaVuSans-Bold-32" d="M 1844 884 
L 3897 884 
L 3897 0 
L 506 0 
L 506 884 
L 2209 2388 
Q 2438 2594 2547 2791 
Q 2656 2988 2656 3200 
Q 2656 3528 2436 3728 
Q 2216 3928 1850 3928 
Q 1569 3928 1234 3808 
Q 900 3688 519 3450 
L 519 4475 
Q 925 4609 1322 4679 
Q 1719 4750 2100 4750 
Q 2938 4750 3402 4381 
Q 3866 4013 3866 3353 
Q 3866 2972 3669 2642 
Q 3472 2313 2841 1759 
L 1844 884 
z
" transform="scale(0.015625)"/>
      <path id="DejaVuSans-Bold-30" d="M 2944 2338 
Q 2944 3213 2780 3570 
Q 2616 3928 2228 3928 
Q 1841 3928 1675 3570 
Q 1509 3213 1509 2338 
Q 1509 1453 1675 1090 
Q 1841 728 2228 728 
Q 2613 728 2778 1090 
Q 2944 1453 2944 2338 
z
M 4147 2328 
Q 4147 1169 3647 539 
Q 3147 -91 2228 -91 
Q 1306 -91 806 539 
Q 306 1169 306 2328 
Q 306 3491 806 4120 
Q 1306 4750 2228 4750 
Q 3147 4750 3647 4120 
Q 4147 3491 4147 2328 
z
" transform="scale(0.015625)"/>
     </defs>
     <use xlink:href="#DejaVuSans-Bold-57"/>
     <use xlink:href="#DejaVuSans-Bold-65" transform="translate(106.677734 0)"/>
     <use xlink:href="#DejaVuSans-Bold-65" transform="translate(174.5 0)"/>
     <use xlink:href="#DejaVuSans-Bold-6b" transform="translate(242.322266 0)"/>
     <use xlink:href="#DejaVuSans-Bold-20" transform="translate(308.826172 0)"/>
     <use xlink:href="#DejaVuSans-Bold-32" transform="translate(343.640625 0)"/>
     <use xlink:href="#DejaVuSans-Bold-30" transform="translate(413.220703 0)"/>
    </g>
    <!-- 3,120 deaths -->
    <g style="fill: #ff3366" transform="translate(519.725055 421.807911) scale(0.09 -0.09)">
     <defs>
      <path id="DejaVuSans-Bold-33" d="M 2981 2516 
Q 3453 2394 3698 2092 
Q 3944 1791 3944 1325 
Q 3944 631 3412 270 
Q 2881 -91 1863 -91 
Q 1503 -91 1142 -33 
Q 781 25 428 141 
L 428 1069 
Q 766 900 1098 814 
Q 1431 728 1753 728 
Q 2231 728 2486 893 
Q 2741 1059 2741 1369 
Q 2741 1688 2480 1852 
Q 2219 2016 1709 2016 
L 1228 2016 
L 1228 2791 
L 1734 2791 
Q 2188 2791 2409 2933 
Q 2631 3075 2631 3366 
Q 2631 3634 2415 3781 
Q 2200 3928 1806 3928 
Q 1516 3928 1219 3862 
Q 922 3797 628 3669 
L 628 4550 
Q 984 4650 1334 4700 
Q 1684 4750 2022 4750 
Q 2931 4750 3382 4451 
Q 3834 4153 3834 3553 
Q 3834 3144 3618 2883 
Q 3403 2622 2981 2516 
z
" transform="scale(0.015625)"/>
      <path id="DejaVuSans-Bold-2c" d="M 653 1209 
L 1778 1209 
L 1778 256 
L 1006 -909 
L 341 -909 
L 653 256 
L 653 1209 
z
" transform="scale(0.015625)"/>
      <path id="DejaVuSans-Bold-31" d="M 750 831 
L 1813 831 
L 1813 3847 
L 722 3622 
L 722 4441 
L 1806 4666 
L 2950 4666 
L 2950 831 
L 4013 831 
L 4013 0 
L 750 0 
L 750 831 
z
" transform="scale(0.015625)"/>
      <path id="DejaVuSans-Bold-64" d="M 2919 2988 
L 2919 4863 
L 4044 4863 
L 4044 0 
L 2919 0 
L 2919 506 
Q 2688 197 2409 53 
Q 2131 -91 1766 -91 
Q 1119 -91 703 423 
Q 288 938 288 1747 
Q 288 2556 703 3070 
Q 1119 3584 1766 3584 
Q 2128 3584 2408 3439 
Q 2688 3294 2919 2988 
z
M 2181 722 
Q 2541 722 2730 984 
Q 2919 1247 2919 1747 
Q 2919 2247 2730 2509 
Q 2541 2772 2181 2772 
Q 1825 2772 1636 2509 
Q 1447 2247 1447 1747 
Q 1447 1247 1636 984 
Q 1825 722 2181 722 
z
" transform="scale(0.015625)"/>
      <path id="DejaVuSans-Bold-68" d="M 4056 2131 
L 4056 0 
L 2931 0 
L 2931 347 
L 2931 1625 
Q 2931 2084 2911 2256 
Q 2891 2428 2841 2509 
Q 2775 2619 2662 2680 
Q 2550 2741 2406 2741 
Q 2056 2741 1856 2470 
Q 1656 2200 1656 1722 
L 1656 0 
L 538 0 
L 538 4863 
L 1656 4863 
L 1656 2988 
Q 1909 3294 2193 3439 
Q 2478 3584 2822 3584 
Q 3428 3584 3742 3212 
Q 4056 2841 4056 2131 
z
" transform="scale(0.015625)"/>
      <path id="DejaVuSans-Bold-73" d="M 3272 3391 
L 3272 2541 
Q 2913 2691 2578 2766 
Q 2244 2841 1947 2841 
Q 1628 2841 1473 2761 
Q 1319 2681 1319 2516 
Q 1319 2381 1436 2309 
Q 1553 2238 1856 2203 
L 2053 2175 
Q 2913 2066 3209 1816 
Q 3506 1566 3506 1031 
Q 3506 472 3093 190 
Q 2681 -91 1863 -91 
Q 1516 -91 1145 -36 
Q 775 19 384 128 
L 384 978 
Q 719 816 1070 734 
Q 1422 653 1784 653 
Q 2113 653 2278 743 
Q 2444 834 2444 1013 
Q 2444 1163 2330 1236 
Q 2216 1309 1875 1350 
L 1678 1375 
Q 931 1469 631 1722 
Q 331 1975 331 2491 
Q 331 3047 712 3315 
Q 1094 3584 1881 3584 
Q 2191 3584 2531 3537 
Q 2872 3491 3272 3391 
z
" transform="scale(0.015625)"/>
     </defs>
     <use xlink:href="#DejaVuSans-Bold-33"/>
     <use xlink:href="#DejaVuSans-Bold-2c" transform="translate(69.580078 0)"/>
     <use xlink:href="#DejaVuSans-Bold-31" transform="translate(107.568359 0)"/>
     <use xlink:href="#DejaVuSans-Bold-32" transform="translate(177.148438 0)"/>
     <use xlink:href="#DejaVuSans-Bold-30" transform="translate(246.728516 0)"/>
     <use xlink:href="#DejaVuSans-Bold-20" transform="translate(316.308594 0)"/>
     <use xlink:href="#DejaVuSans-Bold-64" transform="translate(351.123047 0)"/>
     <use xlink:href="#DejaVuSans-Bold-65" transform="translate(422.705078 0)"/>
     <use xlink:href="#DejaVuSans-Bold-61" transform="translate(490.527344 0)"/>
     <use xlink:href="#DejaVuSans-Bold-74" transform="translate(558.007812 0)"/>
     <use xlink:href="#DejaVuSans-Bold-68" transform="translate(605.810547 0)"/>
     <use xlink:href="#DejaVuSans-Bold-73" transform="translate(677.001953 0)"/>
    </g>
   </g>
  </g>
  <g id="text_29">
   <!-- Historical Mortality Spread Context -->
   <g style="fill: #1a202c" transform="translate(92.190938 19.3575) scale(0.16 -0.16)">
    <defs>
     <path id="DejaVuSans-Bold-48" d="M 588 4666 
L 1791 4666 
L 1791 2888 
L 3566 2888 
L 3566 4666 
L 4769 4666 
L 4769 0 
L 3566 0 
L 3566 1978 
L 1791 1978 
L 1791 0 
L 588 0 
L 588 4666 
z
" transform="scale(0.015625)"/>
     <path id="DejaVuSans-Bold-69" d="M 538 3500 
L 1656 3500 
L 1656 0 
L 538 0 
L 538 3500 
z
M 538 4863 
L 1656 4863 
L 1656 3950 
L 538 3950 
L 538 4863 
z
" transform="scale(0.015625)"/>
     <path id="DejaVuSans-Bold-43" d="M 4288 256 
Q 3956 84 3597 -3 
Q 3238 -91 2847 -91 
Q 1681 -91 1000 561 
Q 319 1213 319 2328 
Q 319 3447 1000 4098 
Q 1681 4750 2847 4750 
Q 3238 4750 3597 4662 
Q 3956 4575 4288 4403 
L 4288 3438 
Q 3953 3666 3628 3772 
Q 3303 3878 2944 3878 
Q 2300 3878 1931 3465 
Q 1563 3053 1563 2328 
Q 1563 1606 1931 1193 
Q 2300 781 2944 781 
Q 3303 781 3628 887 
Q 3953 994 4288 1222 
L 4288 256 
z
" transform="scale(0.015625)"/>
     <path id="DejaVuSans-Bold-78" d="M 1422 1791 
L 159 3500 
L 1344 3500 
L 2059 2463 
L 2784 3500 
L 3969 3500 
L 2706 1797 
L 4031 0 
L 2847 0 
L 2059 1106 
L 1281 0 
L 97 0 
L 1422 1791 
z
" transform="scale(0.015625)"/>
    </defs>
    <use xlink:href="#DejaVuSans-Bold-48"/>
    <use xlink:href="#DejaVuSans-Bold-69" transform="translate(83.691406 0)"/>
    <use xlink:href="#DejaVuSans-Bold-73" transform="translate(117.96875 0)"/>
    <use xlink:href="#DejaVuSans-Bold-74" transform="translate(177.490234 0)"/>
    <use xlink:href="#DejaVuSans-Bold-6f" transform="translate(225.292969 0)"/>
    <use xlink:href="#DejaVuSans-Bold-72" transform="translate(293.994141 0)"/>
    <use xlink:href="#DejaVuSans-Bold-69" transform="translate(343.310547 0)"/>
    <use xlink:href="#DejaVuSans-Bold-63" transform="translate(377.587891 0)"/>
    <use xlink:href="#DejaVuSans-Bold-61" transform="translate(436.865234 0)"/>
    <use xlink:href="#DejaVuSans-Bold-6c" transform="translate(504.345703 0)"/>
    <use xlink:href="#DejaVuSans-Bold-20" transform="translate(538.623047 0)"/>
    <use xlink:href="#DejaVuSans-Bold-4d" transform="translate(573.4375 0)"/>
    <use xlink:href="#DejaVuSans-Bold-6f" transform="translate(672.949219 0)"/>
    <use xlink:href="#DejaVuSans-Bold-72" transform="translate(741.650391 0)"/>
    <use xlink:href="#DejaVuSans-Bold-74" transform="translate(790.966797 0)"/>
    <use xlink:href="#DejaVuSans-Bold-61" transform="translate(838.769531 0)"/>
    <use xlink:href="#DejaVuSans-Bold-6c" transform="translate(906.25 0)"/>
    <use xlink:href="#DejaVuSans-Bold-69" transform="translate(940.527344 0)"/>
    <use xlink:href="#DejaVuSans-Bold-74" transform="translate(974.804688 0)"/>
    <use xlink:href="#DejaVuSans-Bold-79" transform="translate(1022.607422 0)"/>
    <use xlink:href="#DejaVuSans-Bold-20" transform="translate(1087.792969 0)"/>
    <use xlink:href="#DejaVuSans-Bold-53" transform="translate(1122.607422 0)"/>
    <use xlink:href="#DejaVuSans-Bold-70" transform="translate(1194.628906 0)"/>
    <use xlink:href="#DejaVuSans-Bold-72" transform="translate(1266.210938 0)"/>
    <use xlink:href="#DejaVuSans-Bold-65" transform="translate(1315.527344 0)"/>
    <use xlink:href="#DejaVuSans-Bold-61" transform="translate(1383.349609 0)"/>
    <use xlink:href="#DejaVuSans-Bold-64" transform="translate(1450.830078 0)"/>
    <use xlink:href="#DejaVuSans-Bold-20" transform="translate(1522.412109 0)"/>
    <use xlink:href="#DejaVuSans-Bold-43" transform="translate(1557.226562 0)"/>
    <use xlink:href="#DejaVuSans-Bold-6f" transform="translate(1630.615234 0)"/>
    <use xlink:href="#DejaVuSans-Bold-6e" transform="translate(1699.316406 0)"/>
    <use xlink:href="#DejaVuSans-Bold-74" transform="translate(1770.507812 0)"/>
    <use xlink:href="#DejaVuSans-Bold-65" transform="translate(1818.310547 0)"/>
    <use xlink:href="#DejaVuSans-Bold-78" transform="translate(1886.132812 0)"/>
    <use xlink:href="#DejaVuSans-Bold-74" transform="translate(1950.634766 0)"/>
   </g>
  </g>
 </g>
 <defs>
  <clipPath id="p6944624ede">
   <path d="M 482.824688 326.88 
C 482.824688 297.758744 477.088435 268.920655 465.944213 242.016122 
C 454.79999 215.111589 438.464525 190.663838 417.872687 170.072 
C 397.280849 149.480162 372.833098 133.144697 345.928565 122.000475 
C 319.024033 110.856253 290.185944 105.12 261.064688 105.12 
C 231.943431 105.12 203.105342 110.856253 176.20081 122.000475 
C 149.296277 133.144697 124.848526 149.480162 104.256688 170.072 
C 83.66485 190.663838 67.329385 215.111589 56.185162 242.016122 
C 45.04094 268.920655 39.304688 297.758744 39.304688 326.88 
C 39.304688 356.001256 45.04094 384.839345 56.185162 411.743878 
C 67.329385 438.648411 83.66485 463.096162 104.256688 483.688 
C 124.848526 504.279838 149.296277 520.615303 176.20081 531.759525 
C 203.105342 542.903747 231.943431 548.64 261.064687 548.64 
C 290.185944 548.64 319.024033 542.903747 345.928565 531.759525 
C 372.833098 520.615303 397.280849 504.279838 417.872687 483.688 
C 438.464525 463.096162 454.79999 438.648411 465.944213 411.743878 
C 477.088435 384.839345 482.824688 356.001256 482.824688 326.88 
M 261.064688 326.88 
C 261.064688 326.88 261.064688 326.88 261.064688 326.88 
C 261.064688 326.88 261.064688 326.88 261.064688 326.88 
C 261.064688 326.88 261.064688 326.88 261.064688 326.88 
C 261.064688 326.88 261.064688 326.88 261.064688 326.88 
C 261.064688 326.88 261.064688 326.88 261.064688 326.88 
C 261.064688 326.88 261.064688 326.88 261.064688 326.88 
C 261.064688 326.88 261.064688 326.88 261.064688 326.88 
C 261.064688 326.88 261.064688 326.88 261.064688 326.88 
C 261.064688 326.88 261.064688 326.88 261.064688 326.88 
C 261.064688 326.88 261.064688 326.88 261.064688 326.88 
C 261.064688 326.88 261.064688 326.88 261.064688 326.88 
C 261.064688 326.88 261.064688 326.88 261.064688 326.88 
C 261.064688 326.88 261.064688 326.88 261.064688 326.88 
C 261.064688 326.88 261.064688 326.88 261.064688 326.88 
C 261.064688 326.88 261.064688 326.88 261.064688 326.88 
C 261.064688 326.88 261.064688 326.88 261.064688 326.88 
z
"/>
  </clipPath>
 </defs>
</svg>
