<?xml version="1.0" encoding="utf-8" standalone="no"?>
<!DOCTYPE svg PUBLIC "-//W3C//DTD SVG 1.1//EN"
  "http://www.w3.org/Graphics/SVG/1.1/DTD/svg11.dtd">
<svg xmlns:xlink="http://www.w3.org/1999/xlink" width="498.933531pt" height="460.67976pt" viewBox="0 0 498.933531 460.67976" xmlns="http://www.w3.org/2000/svg" version="1.1">
 <metadata>
  <rdf:RDF xmlns:dc="http://purl.org/dc/elements/1.1/" xmlns:cc="http://creativecommons.org/ns#" xmlns:rdf="http://www.w3.org/1999/02/22-rdf-syntax-ns#">
   <cc:Work>
    <dc:type rdf:resource="http://purl.org/dc/dcmitype/StillImage"/>
    <dc:date>2026-02-10T04:33:09.518521</dc:date>
    <dc:format>image/svg+xml</dc:format>
    <dc:creator>
     <cc:Agent>
      <dc:title>Matplotlib v3.10.8, https://matplotlib.org/</dc:title>
     </cc:Agent>
    </dc:creator>
   </cc:Work>
  </rdf:RDF>
 </metadata>
 <defs>
  <style type="text/css">*{stroke-linejoin: round; stroke-linecap: butt}</style>
 </defs>
 <g id="figure_1">
  <g id="patch_1">
   <path d="M 0 460.67976 
L 498.933531 460.67976 
L 498.933531 0 
L 0 0 
z
" style="fill: #ffffff"/>
  </g>
  <g id="axes_1">
   <g id="patch_2">
    <path d="M 387.62175 255.752479 
C 387.62175 232.261093 382.994459 208.998131 374.004695 187.294921 
C 365.014931 165.591711 351.837522 145.870324 335.226604 129.259406 
C 318.615686 112.648488 298.894299 99.471079 277.191089 90.481315 
C 255.487879 81.491551 232.224917 76.86426 208.733531 76.86426 
C 185.242146 76.86426 161.979184 81.491551 140.275974 90.481315 
C 118.572763 99.471079 98.851377 112.648488 82.240459 129.259406 
C 65.629541 145.870324 52.452131 165.591711 43.462367 187.294921 
C 34.472603 208.998131 29.845312 232.261093 29.845312 255.752479 
C 29.845312 279.243864 34.472603 302.506826 43.462367 324.210036 
C 52.452131 345.913247 65.629541 365.634633 82.240459 382.245551 
C 98.851377 398.856469 118.572763 412.033879 140.275974 421.023643 
C 161.979184 430.013407 185.242146 434.640697 208.733531 434.640697 
C 232.224917 434.640697 255.487879 430.013407 277.191089 421.023643 
C 298.894299 412.033879 318.615686 398.856469 335.226604 382.245551 
C 351.837522 365.634633 365.014931 345.913247 374.004695 324.210036 
C 382.994459 302.506826 387.62175 279.243864 387.62175 255.752479 
M 208.733531 255.752479 
C 208.733531 255.752479 208.733531 255.752479 208.733531 255.752479 
C 208.733531 255.752479 208.733531 255.752479 208.733531 255.752479 
C 208.733531 255.752479 208.733531 255.752479 208.733531 255.752479 
C 208.733531 255.752479 208.733531 255.752479 208.733531 255.752479 
C 208.733531 255.752479 208.733531 255.752479 208.733531 255.752479 
C 208.733531 255.752479 208.733531 255.752479 208.733531 255.752479 
C 208.733531 255.752479 208.733531 255.752479 208.733531 255.752479 
C 208.733531 255.752479 208.733531 255.752479 208.733531 255.752479 
C 208.733531 255.752479 208.733531 255.752479 208.733531 255.752479 
C 208.733531 255.752479 208.733531 255.752479 208.733531 255.752479 
C 208.733531 255.752479 208.733531 255.752479 208.733531 255.752479 
C 208.733531 255.752479 208.733531 255.752479 208.733531 255.752479 
C 208.733531 255.752479 208.733531 255.752479 208.733531 255.752479 
C 208.733531 255.752479 208.733531 255.752479 208.733531 255.752479 
C 208.733531 255.752479 208.733531 255.752479 208.733531 255.752479 
C 208.733531 255.752479 208.733531 255.752479 208.733531 255.752479 
z
" style="fill: #ffffff"/>
   </g>
   <g id="FillBetweenPolyCollection_1">
    <defs>
     <path id="m12e99d49bc" d="M 208.733531 -311.33247 
L 208.733531 -336.473682 
L 224.358166 -333.607726 
L 239.200429 -328.536345 
L 254.380494 -325.288431 
L 268.9094 -319.58282 
L 280.371087 -308.712198 
L 292.469139 -299.445243 
L 302.868704 -288.323767 
L 312.092255 -276.270657 
L 321.658449 -264.19485 
L 324.21361 -248.723098 
L 327.761826 -234.265121 
L 336.163232 -220.400048 
L 344.383687 -204.927281 
L 340.40429 -188.939557 
L 327.622755 -175.62372 
L 317.146777 -163.811561 
L 305.634572 -154.069692 
L 294.843678 -145.489739 
L 286.803342 -135.763464 
L 276.896634 -127.987044 
L 266.594842 -121.100701 
L 255.952917 -114.958259 
L 245.487291 -108.015582 
L 233.463059 -104.595642 
L 221.153455 -102.640011 
L 208.733531 -103.876173 
L 196.368626 -103.093127 
L 184.399044 -106.198386 
L 172.256101 -108.744203 
L 162.186559 -116.239435 
L 152.436475 -123.366915 
L 138.881703 -126.080867 
L 132.450123 -137.346079 
L 125.494302 -147.47139 
L 117.595334 -157.094265 
L 115.251614 -169.474267 
L 108.798105 -180.295411 
L 103.101254 -192.101201 
L 99.016827 -204.927281 
L 99.139585 -218.234396 
L 99.036317 -231.965216 
L 100.421028 -246.004795 
L 103.80132 -259.999954 
L 109.57362 -273.372426 
L 117.405384 -285.83696 
L 126.804693 -297.405823 
L 135.950536 -310.371654 
L 148.308591 -320.057385 
L 162.934224 -325.690131 
L 176.908207 -334.047697 
L 193.250992 -332.437464 
L 208.733531 -336.473682 
L 208.733531 -311.33247 
L 208.733531 -311.33247 
L 196.356175 -306.863982 
L 183.589027 -306.942545 
L 171.586266 -302.876571 
L 161.846639 -294.262791 
L 153.204673 -285.374721 
L 144.306782 -277.650048 
L 136.045336 -269.323403 
L 128.682978 -260.182189 
L 124.948989 -248.900801 
L 119.613653 -238.725993 
L 116.834871 -227.578267 
L 113.521755 -216.488084 
L 116.456588 -204.927281 
L 117.706646 -193.874616 
L 122.798744 -183.746259 
L 125.094988 -173.207366 
L 131.402655 -164.340906 
L 136.141448 -154.820584 
L 142.021061 -145.82519 
L 150.30944 -138.980114 
L 158.267377 -131.814435 
L 167.923793 -127.170821 
L 176.972861 -121.181275 
L 187.734367 -119.730322 
L 198.096327 -117.322019 
L 208.733531 -114.971702 
L 219.492676 -116.317754 
L 229.710039 -119.822246 
L 239.961176 -122.58675 
L 250.247939 -125.828186 
L 260.706123 -129.631984 
L 269.622473 -136.197874 
L 277.148662 -144.316764 
L 286.338689 -151.360309 
L 291.114304 -161.690516 
L 294.248213 -172.49584 
L 297.601698 -183.023245 
L 296.509468 -194.269353 
L 300.061535 -204.927281 
L 306.183805 -216.759887 
L 307.276385 -229.215913 
L 304.703654 -241.323948 
L 300.945156 -253.323675 
L 293.31 -263.306203 
L 287.127205 -274.378016 
L 280.28119 -285.687893 
L 269.304802 -292.679917 
L 258.425587 -299.607582 
L 246.275444 -303.91717 
L 234.19055 -308.210466 
L 221.787529 -312.436626 
L 208.733531 -311.33247 
z
" style="stroke: #1f77b4; stroke-opacity: 0.3"/>
    </defs>
    <g clip-path="url(#pa17960084d)">
     <use xlink:href="#m12e99d49bc" x="0" y="460.67976" style="fill: #1f77b4; fill-opacity: 0.3; stroke: #1f77b4; stroke-opacity: 0.3"/>
    </g>
   </g>
   <g id="FillBetweenPolyCollection_2">
    <path d="M 208.733531 115.540188 
L 208.733531 152.174666 
L 221.271463 152.493322 
L 233.521324 155.184449 
L 245.270807 159.4116 
L 257.513066 162.810841 
L 267.072823 171.233423 
L 276.633229 179.109564 
L 283.654702 189.378113 
L 294.059917 196.855927 
L 300.207512 207.74323 
L 298.653794 221.650221 
L 299.973893 233.263749 
L 304.43714 244.131957 
L 302.230943 255.752479 
L 301.649982 267.034578 
L 297.839039 277.715014 
L 292.960636 287.695606 
L 287.957068 297.332198 
L 282.256202 306.501514 
L 274.716827 314.208577 
L 268.714962 323.457518 
L 260.270416 330.416546 
L 249.401484 333.238788 
L 239.405171 336.626946 
L 229.757012 341.048094 
L 219.371406 343.363256 
L 208.733531 344.987707 
L 198.458544 340.374617 
L 188.268626 338.781864 
L 178.241819 336.152516 
L 169.433229 330.632948 
L 159.579411 326.964516 
L 151.757902 320.06467 
L 144.294741 312.840265 
L 138.384502 304.310908 
L 132.265596 295.885947 
L 128.42838 286.208205 
L 126.623775 275.990716 
L 119.242262 266.618686 
L 119.396822 255.752479 
L 116.052142 244.498921 
L 119.857931 233.846611 
L 124.253398 223.71339 
L 127.083868 212.89943 
L 130.867985 202.005772 
L 138.825673 193.819521 
L 144.602301 183.363284 
L 153.276615 175.409265 
L 162.076213 166.854386 
L 172.544115 160.328831 
L 184.115739 155.874171 
L 196.905063 158.336279 
L 208.733531 152.174666 
L 208.733531 115.540188 
L 208.733531 115.540188 
L 191.873581 116.898296 
L 174.749483 117.873776 
L 160.117123 127.561546 
L 139.989443 124.771562 
L 124.279912 133.400288 
L 114.701311 149.612043 
L 107.327891 165.914921 
L 103.279584 182.962874 
L 98.299816 197.792394 
L 99.677934 214.393146 
L 98.016736 228.463239 
L 96.374137 242.109578 
L 96.360738 255.752479 
L 101.041786 268.828624 
L 106.55615 280.936941 
L 112.708939 292.169803 
L 115.282706 304.799255 
L 122.878206 315.014131 
L 131.73614 323.966215 
L 136.751328 337.00359 
L 151.355031 338.879587 
L 161.400248 345.938516 
L 171.11669 354.939936 
L 182.958112 360.327465 
L 195.955035 360.992868 
L 208.733531 360.818673 
L 221.406016 360.119782 
L 234.201329 359.079396 
L 247.214024 357.217199 
L 257.324425 348.334691 
L 268.571659 342.442973 
L 279.100677 335.180567 
L 289.680805 327.465505 
L 295.813771 315.859628 
L 310.061782 308.933647 
L 332.401567 302.653578 
L 350.225064 290.627009 
L 376.030155 276.065967 
L 380.74306 255.752479 
L 358.434123 237.575536 
L 327.989742 226.358463 
L 326.803295 210.974524 
L 331.297883 191.425745 
L 318.335482 180.099714 
L 312.772427 163.58206 
L 298.301913 154.650676 
L 284.866692 145.454554 
L 271.944137 135.314732 
L 257.182007 128.004347 
L 240.005656 128.876483 
L 224.843244 123.077055 
L 208.733531 115.540188 
z
" clip-path="url(#pa17960084d)" style="fill: #1f77b4; fill-opacity: 0.2"/>
   </g>
   <g id="matplotlib.axis_1">
    <g id="xtick_1">
     <g id="line2d_1">
      <path d="M 208.733531 255.752479 
L 208.733531 76.86426 
" clip-path="url(#pa17960084d)" style="fill: none; stroke: #b0b0b0; stroke-width: 0.8; stroke-linecap: square"/>
     </g>
     <g id="text_1">
      <!-- Jan -->
      <g transform="translate(201.025719 65.623635) scale(0.1 -0.1)">
       <defs>
        <path id="DejaVuSans-4a" d="M 628 4666 
L 1259 4666 
L 1259 325 
Q 1259 -519 939 -900 
Q 619 -1281 -91 -1281 
L -331 -1281 
L -331 -750 
L -134 -750 
Q 284 -750 456 -515 
Q 628 -281 628 325 
L 628 4666 
z
" transform="scale(0.015625)"/>
        <path id="DejaVuSans-61" d="M 2194 1759 
Q 1497 1759 1228 1600 
Q 959 1441 959 1056 
Q 959 750 1161 570 
Q 1363 391 1709 391 
Q 2188 391 2477 730 
Q 2766 1069 2766 1631 
L 2766 1759 
L 2194 1759 
z
M 3341 1997 
L 3341 0 
L 2766 0 
L 2766 531 
Q 2569 213 2275 61 
Q 1981 -91 1556 -91 
Q 1019 -91 701 211 
Q 384 513 384 1019 
Q 384 1609 779 1909 
Q 1175 2209 1959 2209 
L 2766 2209 
L 2766 2266 
Q 2766 2663 2505 2880 
Q 2244 3097 1772 3097 
Q 1472 3097 1187 3025 
Q 903 2953 641 2809 
L 641 3341 
Q 956 3463 1253 3523 
Q 1550 3584 1831 3584 
Q 2591 3584 2966 3190 
Q 3341 2797 3341 1997 
z
" transform="scale(0.015625)"/>
        <path id="DejaVuSans-6e" d="M 3513 2113 
L 3513 0 
L 2938 0 
L 2938 2094 
Q 2938 2591 2744 2837 
Q 2550 3084 2163 3084 
Q 1697 3084 1428 2787 
Q 1159 2491 1159 1978 
L 1159 0 
L 581 0 
L 581 3500 
L 1159 3500 
L 1159 2956 
Q 1366 3272 1645 3428 
Q 1925 3584 2291 3584 
Q 2894 3584 3203 3211 
Q 3513 2838 3513 2113 
z
" transform="scale(0.015625)"/>
       </defs>
       <use xlink:href="#DejaVuSans-4a"/>
       <use xlink:href="#DejaVuSans-61" transform="translate(29.492188 0)"/>
       <use xlink:href="#DejaVuSans-6e" transform="translate(90.771484 0)"/>
      </g>
     </g>
    </g>
    <g id="xtick_2">
     <g id="line2d_2">
      <path d="M 208.733531 255.752479 
L 298.177641 100.830737 
" clip-path="url(#pa17960084d)" style="fill: none; stroke: #b0b0b0; stroke-width: 0.8; stroke-linecap: square"/>
     </g>
     <g id="text_2">
      <!-- Feb -->
      <g transform="translate(296.326078 91.465756) scale(0.1 -0.1)">
       <defs>
        <path id="DejaVuSans-46" d="M 628 4666 
L 3309 4666 
L 3309 4134 
L 1259 4134 
L 1259 2759 
L 3109 2759 
L 3109 2228 
L 1259 2228 
L 1259 0 
L 628 0 
L 628 4666 
z
" transform="scale(0.015625)"/>
        <path id="DejaVuSans-65" d="M 3597 1894 
L 3597 1613 
L 953 1613 
Q 991 1019 1311 708 
Q 1631 397 2203 397 
Q 2534 397 2845 478 
Q 3156 559 3463 722 
L 3463 178 
Q 3153 47 2828 -22 
Q 2503 -91 2169 -91 
Q 1331 -91 842 396 
Q 353 884 353 1716 
Q 353 2575 817 3079 
Q 1281 3584 2069 3584 
Q 2775 3584 3186 3129 
Q 3597 2675 3597 1894 
z
M 3022 2063 
Q 3016 2534 2758 2815 
Q 2500 3097 2075 3097 
Q 1594 3097 1305 2825 
Q 1016 2553 972 2059 
L 3022 2063 
z
" transform="scale(0.015625)"/>
        <path id="DejaVuSans-62" d="M 3116 1747 
Q 3116 2381 2855 2742 
Q 2594 3103 2138 3103 
Q 1681 3103 1420 2742 
Q 1159 2381 1159 1747 
Q 1159 1113 1420 752 
Q 1681 391 2138 391 
Q 2594 391 2855 752 
Q 3116 1113 3116 1747 
z
M 1159 2969 
Q 1341 3281 1617 3432 
Q 1894 3584 2278 3584 
Q 2916 3584 3314 3078 
Q 3713 2572 3713 1747 
Q 3713 922 3314 415 
Q 2916 -91 2278 -91 
Q 1894 -91 1617 61 
Q 1341 213 1159 525 
L 1159 0 
L 581 0 
L 581 4863 
L 1159 4863 
L 1159 2969 
z
" transform="scale(0.015625)"/>
       </defs>
       <use xlink:href="#DejaVuSans-46"/>
       <use xlink:href="#DejaVuSans-65" transform="translate(52.019531 0)"/>
       <use xlink:href="#DejaVuSans-62" transform="translate(113.542969 0)"/>
      </g>
     </g>
    </g>
    <g id="xtick_3">
     <g id="line2d_3">
      <path d="M 208.733531 255.752479 
L 363.655273 166.308369 
" clip-path="url(#pa17960084d)" style="fill: none; stroke: #b0b0b0; stroke-width: 0.8; stroke-linecap: square"/>
     </g>
     <g id="text_3">
      <!-- Mar -->
      <g transform="translate(366.346035 162.067744) scale(0.1 -0.1)">
       <defs>
        <path id="DejaVuSans-4d" d="M 628 4666 
L 1569 4666 
L 2759 1491 
L 3956 4666 
L 4897 4666 
L 4897 0 
L 4281 0 
L 4281 4097 
L 3078 897 
L 2444 897 
L 1241 4097 
L 1241 0 
L 628 0 
L 628 4666 
z
" transform="scale(0.015625)"/>
        <path id="DejaVuSans-72" d="M 2631 2963 
Q 2534 3019 2420 3045 
Q 2306 3072 2169 3072 
Q 1681 3072 1420 2755 
Q 1159 2438 1159 1844 
L 1159 0 
L 581 0 
L 581 3500 
L 1159 3500 
L 1159 2956 
Q 1341 3275 1631 3429 
Q 1922 3584 2338 3584 
Q 2397 3584 2469 3576 
Q 2541 3569 2628 3553 
L 2631 2963 
z
" transform="scale(0.015625)"/>
       </defs>
       <use xlink:href="#DejaVuSans-4d"/>
       <use xlink:href="#DejaVuSans-61" transform="translate(86.279297 0)"/>
       <use xlink:href="#DejaVuSans-72" transform="translate(147.558594 0)"/>
      </g>
     </g>
    </g>
    <g id="xtick_4">
     <g id="line2d_4">
      <path d="M 208.733531 255.752479 
L 387.62175 255.752479 
" clip-path="url(#pa17960084d)" style="fill: none; stroke: #b0b0b0; stroke-width: 0.8; stroke-linecap: square"/>
     </g>
     <g id="text_4">
      <!-- Apr -->
      <g transform="translate(392.97175 258.511854) scale(0.1 -0.1)">
       <defs>
        <path id="DejaVuSans-41" d="M 2188 4044 
L 1331 1722 
L 3047 1722 
L 2188 4044 
z
M 1831 4666 
L 2547 4666 
L 4325 0 
L 3669 0 
L 3244 1197 
L 1141 1197 
L 716 0 
L 50 0 
L 1831 4666 
z
" transform="scale(0.015625)"/>
        <path id="DejaVuSans-70" d="M 1159 525 
L 1159 -1331 
L 581 -1331 
L 581 3500 
L 1159 3500 
L 1159 2969 
Q 1341 3281 1617 3432 
Q 1894 3584 2278 3584 
Q 2916 3584 3314 3078 
Q 3713 2572 3713 1747 
Q 3713 922 3314 415 
Q 2916 -91 2278 -91 
Q 1894 -91 1617 61 
Q 1341 213 1159 525 
z
M 3116 1747 
Q 3116 2381 2855 2742 
Q 2594 3103 2138 3103 
Q 1681 3103 1420 2742 
Q 1159 2381 1159 1747 
Q 1159 1113 1420 752 
Q 1681 391 2138 391 
Q 2594 391 2855 752 
Q 3116 1113 3116 1747 
z
" transform="scale(0.015625)"/>
       </defs>
       <use xlink:href="#DejaVuSans-41"/>
       <use xlink:href="#DejaVuSans-70" transform="translate(68.408203 0)"/>
       <use xlink:href="#DejaVuSans-72" transform="translate(131.884766 0)"/>
      </g>
     </g>
    </g>
    <g id="xtick_5">
     <g id="line2d_5">
      <path d="M 208.733531 255.752479 
L 363.655273 345.196588 
" clip-path="url(#pa17960084d)" style="fill: none; stroke: #b0b0b0; stroke-width: 0.8; stroke-linecap: square"/>
     </g>
     <g id="text_5">
      <!-- May -->
      <g transform="translate(365.442129 354.955963) scale(0.1 -0.1)">
       <defs>
        <path id="DejaVuSans-79" d="M 2059 -325 
Q 1816 -950 1584 -1140 
Q 1353 -1331 966 -1331 
L 506 -1331 
L 506 -850 
L 844 -850 
Q 1081 -850 1212 -737 
Q 1344 -625 1503 -206 
L 1606 56 
L 191 3500 
L 800 3500 
L 1894 763 
L 2988 3500 
L 3597 3500 
L 2059 -325 
z
" transform="scale(0.015625)"/>
       </defs>
       <use xlink:href="#DejaVuSans-4d"/>
       <use xlink:href="#DejaVuSans-61" transform="translate(86.279297 0)"/>
       <use xlink:href="#DejaVuSans-79" transform="translate(147.558594 0)"/>
      </g>
     </g>
    </g>
    <g id="xtick_6">
     <g id="line2d_6">
      <path d="M 208.733531 255.752479 
L 298.177641 410.674221 
" clip-path="url(#pa17960084d)" style="fill: none; stroke: #b0b0b0; stroke-width: 0.8; stroke-linecap: square"/>
     </g>
     <g id="text_6">
      <!-- Jun -->
      <g transform="translate(297.365141 425.557951) scale(0.1 -0.1)">
       <defs>
        <path id="DejaVuSans-75" d="M 544 1381 
L 544 3500 
L 1119 3500 
L 1119 1403 
Q 1119 906 1312 657 
Q 1506 409 1894 409 
Q 2359 409 2629 706 
Q 2900 1003 2900 1516 
L 2900 3500 
L 3475 3500 
L 3475 0 
L 2900 0 
L 2900 538 
Q 2691 219 2414 64 
Q 2138 -91 1772 -91 
Q 1169 -91 856 284 
Q 544 659 544 1381 
z
M 1991 3584 
L 1991 3584 
z
" transform="scale(0.015625)"/>
       </defs>
       <use xlink:href="#DejaVuSans-4a"/>
       <use xlink:href="#DejaVuSans-75" transform="translate(29.492188 0)"/>
       <use xlink:href="#DejaVuSans-6e" transform="translate(92.871094 0)"/>
      </g>
     </g>
    </g>
    <g id="xtick_7">
     <g id="line2d_7">
      <path d="M 208.733531 255.752479 
L 208.733531 434.640697 
" clip-path="url(#pa17960084d)" style="fill: none; stroke: #b0b0b0; stroke-width: 0.8; stroke-linecap: square"/>
     </g>
     <g id="text_7">
      <!-- Jul -->
      <g transform="translate(202.700719 451.400072) scale(0.1 -0.1)">
       <defs>
        <path id="DejaVuSans-6c" d="M 603 4863 
L 1178 4863 
L 1178 0 
L 603 0 
L 603 4863 
z
" transform="scale(0.015625)"/>
       </defs>
       <use xlink:href="#DejaVuSans-4a"/>
       <use xlink:href="#DejaVuSans-75" transform="translate(29.492188 0)"/>
       <use xlink:href="#DejaVuSans-6c" transform="translate(92.871094 0)"/>
      </g>
     </g>
    </g>
    <g id="xtick_8">
     <g id="line2d_8">
      <path d="M 208.733531 255.752479 
L 119.289422 410.674221 
" clip-path="url(#pa17960084d)" style="fill: none; stroke: #b0b0b0; stroke-width: 0.8; stroke-linecap: square"/>
     </g>
     <g id="text_8">
      <!-- Aug -->
      <g transform="translate(102.526141 425.557951) scale(0.1 -0.1)">
       <defs>
        <path id="DejaVuSans-67" d="M 2906 1791 
Q 2906 2416 2648 2759 
Q 2391 3103 1925 3103 
Q 1463 3103 1205 2759 
Q 947 2416 947 1791 
Q 947 1169 1205 825 
Q 1463 481 1925 481 
Q 2391 481 2648 825 
Q 2906 1169 2906 1791 
z
M 3481 434 
Q 3481 -459 3084 -895 
Q 2688 -1331 1869 -1331 
Q 1566 -1331 1297 -1286 
Q 1028 -1241 775 -1147 
L 775 -588 
Q 1028 -725 1275 -790 
Q 1522 -856 1778 -856 
Q 2344 -856 2625 -561 
Q 2906 -266 2906 331 
L 2906 616 
Q 2728 306 2450 153 
Q 2172 0 1784 0 
Q 1141 0 747 490 
Q 353 981 353 1791 
Q 353 2603 747 3093 
Q 1141 3584 1784 3584 
Q 2172 3584 2450 3431 
Q 2728 3278 2906 2969 
L 2906 3500 
L 3481 3500 
L 3481 434 
z
" transform="scale(0.015625)"/>
       </defs>
       <use xlink:href="#DejaVuSans-41"/>
       <use xlink:href="#DejaVuSans-75" transform="translate(68.408203 0)"/>
       <use xlink:href="#DejaVuSans-67" transform="translate(131.787109 0)"/>
      </g>
     </g>
    </g>
    <g id="xtick_9">
     <g id="line2d_9">
      <path d="M 208.733531 255.752479 
L 53.811789 345.196588 
" clip-path="url(#pa17960084d)" style="fill: none; stroke: #b0b0b0; stroke-width: 0.8; stroke-linecap: square"/>
     </g>
     <g id="text_9">
      <!-- Sept -->
      <g transform="translate(30.302277 354.955963) scale(0.1 -0.1)">
       <defs>
        <path id="DejaVuSans-53" d="M 3425 4513 
L 3425 3897 
Q 3066 4069 2747 4153 
Q 2428 4238 2131 4238 
Q 1616 4238 1336 4038 
Q 1056 3838 1056 3469 
Q 1056 3159 1242 3001 
Q 1428 2844 1947 2747 
L 2328 2669 
Q 3034 2534 3370 2195 
Q 3706 1856 3706 1288 
Q 3706 609 3251 259 
Q 2797 -91 1919 -91 
Q 1588 -91 1214 -16 
Q 841 59 441 206 
L 441 856 
Q 825 641 1194 531 
Q 1563 422 1919 422 
Q 2459 422 2753 634 
Q 3047 847 3047 1241 
Q 3047 1584 2836 1778 
Q 2625 1972 2144 2069 
L 1759 2144 
Q 1053 2284 737 2584 
Q 422 2884 422 3419 
Q 422 4038 858 4394 
Q 1294 4750 2059 4750 
Q 2388 4750 2728 4690 
Q 3069 4631 3425 4513 
z
" transform="scale(0.015625)"/>
        <path id="DejaVuSans-74" d="M 1172 4494 
L 1172 3500 
L 2356 3500 
L 2356 3053 
L 1172 3053 
L 1172 1153 
Q 1172 725 1289 603 
Q 1406 481 1766 481 
L 2356 481 
L 2356 0 
L 1766 0 
Q 1100 0 847 248 
Q 594 497 594 1153 
L 594 3053 
L 172 3053 
L 172 3500 
L 594 3500 
L 594 4494 
L 1172 4494 
z
" transform="scale(0.015625)"/>
       </defs>
       <use xlink:href="#DejaVuSans-53"/>
       <use xlink:href="#DejaVuSans-65" transform="translate(63.476562 0)"/>
       <use xlink:href="#DejaVuSans-70" transform="translate(125 0)"/>
       <use xlink:href="#DejaVuSans-74" transform="translate(188.476562 0)"/>
      </g>
     </g>
    </g>
    <g id="xtick_10">
     <g id="line2d_10">
      <path d="M 208.733531 255.752479 
L 29.845313 255.752479 
" clip-path="url(#pa17960084d)" style="fill: none; stroke: #b0b0b0; stroke-width: 0.8; stroke-linecap: square"/>
     </g>
     <g id="text_10">
      <!-- Oct -->
      <g transform="translate(7.2 258.511854) scale(0.1 -0.1)">
       <defs>
        <path id="DejaVuSans-4f" d="M 2522 4238 
Q 1834 4238 1429 3725 
Q 1025 3213 1025 2328 
Q 1025 1447 1429 934 
Q 1834 422 2522 422 
Q 3209 422 3611 934 
Q 4013 1447 4013 2328 
Q 4013 3213 3611 3725 
Q 3209 4238 2522 4238 
z
M 2522 4750 
Q 3503 4750 4090 4092 
Q 4678 3434 4678 2328 
Q 4678 1225 4090 567 
Q 3503 -91 2522 -91 
Q 1538 -91 948 565 
Q 359 1222 359 2328 
Q 359 3434 948 4092 
Q 1538 4750 2522 4750 
z
" transform="scale(0.015625)"/>
        <path id="DejaVuSans-63" d="M 3122 3366 
L 3122 2828 
Q 2878 2963 2633 3030 
Q 2388 3097 2138 3097 
Q 1578 3097 1268 2742 
Q 959 2388 959 1747 
Q 959 1106 1268 751 
Q 1578 397 2138 397 
Q 2388 397 2633 464 
Q 2878 531 3122 666 
L 3122 134 
Q 2881 22 2623 -34 
Q 2366 -91 2075 -91 
Q 1284 -91 818 406 
Q 353 903 353 1747 
Q 353 2603 823 3093 
Q 1294 3584 2113 3584 
Q 2378 3584 2631 3529 
Q 2884 3475 3122 3366 
z
" transform="scale(0.015625)"/>
       </defs>
       <use xlink:href="#DejaVuSans-4f"/>
       <use xlink:href="#DejaVuSans-63" transform="translate(78.710938 0)"/>
       <use xlink:href="#DejaVuSans-74" transform="translate(133.691406 0)"/>
      </g>
     </g>
    </g>
    <g id="xtick_11">
     <g id="line2d_11">
      <path d="M 208.733531 255.752479 
L 53.811789 166.308369 
" clip-path="url(#pa17960084d)" style="fill: none; stroke: #b0b0b0; stroke-width: 0.8; stroke-linecap: square"/>
     </g>
     <g id="text_11">
      <!-- Nov -->
      <g transform="translate(31.928059 162.067744) scale(0.1 -0.1)">
       <defs>
        <path id="DejaVuSans-4e" d="M 628 4666 
L 1478 4666 
L 3547 763 
L 3547 4666 
L 4159 4666 
L 4159 0 
L 3309 0 
L 1241 3903 
L 1241 0 
L 628 0 
L 628 4666 
z
" transform="scale(0.015625)"/>
        <path id="DejaVuSans-6f" d="M 1959 3097 
Q 1497 3097 1228 2736 
Q 959 2375 959 1747 
Q 959 1119 1226 758 
Q 1494 397 1959 397 
Q 2419 397 2687 759 
Q 2956 1122 2956 1747 
Q 2956 2369 2687 2733 
Q 2419 3097 1959 3097 
z
M 1959 3584 
Q 2709 3584 3137 3096 
Q 3566 2609 3566 1747 
Q 3566 888 3137 398 
Q 2709 -91 1959 -91 
Q 1206 -91 779 398 
Q 353 888 353 1747 
Q 353 2609 779 3096 
Q 1206 3584 1959 3584 
z
" transform="scale(0.015625)"/>
        <path id="DejaVuSans-76" d="M 191 3500 
L 800 3500 
L 1894 563 
L 2988 3500 
L 3597 3500 
L 2284 0 
L 1503 0 
L 191 3500 
z
" transform="scale(0.015625)"/>
       </defs>
       <use xlink:href="#DejaVuSans-4e"/>
       <use xlink:href="#DejaVuSans-6f" transform="translate(74.804688 0)"/>
       <use xlink:href="#DejaVuSans-76" transform="translate(135.986328 0)"/>
      </g>
     </g>
    </g>
    <g id="xtick_12">
     <g id="line2d_12">
      <path d="M 208.733531 255.752479 
L 119.289422 100.830737 
" clip-path="url(#pa17960084d)" style="fill: none; stroke: #b0b0b0; stroke-width: 0.8; stroke-linecap: square"/>
     </g>
     <g id="text_12">
      <!-- Dec -->
      <g transform="translate(102.613641 91.465756) scale(0.1 -0.1)">
       <defs>
        <path id="DejaVuSans-44" d="M 1259 4147 
L 1259 519 
L 2022 519 
Q 2988 519 3436 956 
Q 3884 1394 3884 2338 
Q 3884 3275 3436 3711 
Q 2988 4147 2022 4147 
L 1259 4147 
z
M 628 4666 
L 1925 4666 
Q 3281 4666 3915 4102 
Q 4550 3538 4550 2338 
Q 4550 1131 3912 565 
Q 3275 0 1925 0 
L 628 0 
L 628 4666 
z
" transform="scale(0.015625)"/>
       </defs>
       <use xlink:href="#DejaVuSans-44"/>
       <use xlink:href="#DejaVuSans-65" transform="translate(77.001953 0)"/>
       <use xlink:href="#DejaVuSans-63" transform="translate(138.525391 0)"/>
      </g>
     </g>
    </g>
   </g>
   <g id="matplotlib.axis_2">
    <g id="ytick_1">
     <g id="line2d_13">
      <path d="M 208.733531 221.925629 
C 213.175632 221.925629 217.57454 222.800626 221.678506 224.500545 
C 225.782473 226.200463 229.511686 228.692244 232.652726 231.833284 
C 235.793766 234.974324 238.285547 238.703537 239.985465 242.807504 
C 241.685384 246.91147 242.560381 251.310378 242.560381 255.752479 
C 242.560381 260.19458 241.685384 264.593487 239.985465 268.697453 
C 238.285547 272.80142 235.793766 276.530633 232.652726 279.671673 
C 229.511686 282.812713 225.782473 285.304494 221.678506 287.004412 
C 217.57454 288.704331 213.175632 289.579328 208.733531 289.579328 
C 204.29143 289.579328 199.892523 288.704331 195.788557 287.004412 
C 191.68459 285.304494 187.955377 282.812713 184.814337 279.671673 
C 181.673297 276.530633 179.181516 272.80142 177.481598 268.697453 
C 175.781679 264.593487 174.906682 260.19458 174.906682 255.752479 
C 174.906682 251.310378 175.781679 246.91147 177.481598 242.807504 
C 179.181516 238.703537 181.673297 234.974324 184.814337 231.833284 
C 187.955377 228.692244 191.68459 226.200463 195.788557 224.500545 
C 199.892523 222.800626 204.29143 221.925629 208.733531 221.925629 
" clip-path="url(#pa17960084d)" style="fill: none; stroke: #b0b0b0; stroke-width: 0.8; stroke-linecap: square"/>
     </g>
     <g id="text_13">
      <!-- 1000 -->
      <g transform="translate(208.733531 287.499641) scale(0.1 -0.1)">
       <defs>
        <path id="DejaVuSans-31" d="M 794 531 
L 1825 531 
L 1825 4091 
L 703 3866 
L 703 4441 
L 1819 4666 
L 2450 4666 
L 2450 531 
L 3481 531 
L 3481 0 
L 794 0 
L 794 531 
z
" transform="scale(0.015625)"/>
        <path id="DejaVuSans-30" d="M 2034 4250 
Q 1547 4250 1301 3770 
Q 1056 3291 1056 2328 
Q 1056 1369 1301 889 
Q 1547 409 2034 409 
Q 2525 409 2770 889 
Q 3016 1369 3016 2328 
Q 3016 3291 2770 3770 
Q 2525 4250 2034 4250 
z
M 2034 4750 
Q 2819 4750 3233 4129 
Q 3647 3509 3647 2328 
Q 3647 1150 3233 529 
Q 2819 -91 2034 -91 
Q 1250 -91 836 529 
Q 422 1150 422 2328 
Q 422 3509 836 4129 
Q 1250 4750 2034 4750 
z
" transform="scale(0.015625)"/>
       </defs>
       <use xlink:href="#DejaVuSans-31"/>
       <use xlink:href="#DejaVuSans-30" transform="translate(63.623047 0)"/>
       <use xlink:href="#DejaVuSans-30" transform="translate(127.246094 0)"/>
       <use xlink:href="#DejaVuSans-30" transform="translate(190.869141 0)"/>
      </g>
     </g>
    </g>
    <g id="ytick_2">
     <g id="line2d_14">
      <path d="M 208.733531 188.09878 
C 217.617734 188.09878 226.415548 189.848774 234.623481 193.248611 
C 242.831414 196.648448 250.289841 201.63201 256.57192 207.91409 
C 262.854 214.196169 267.837562 221.654596 271.237399 229.862529 
C 274.637236 238.070462 276.38723 246.868276 276.38723 255.752479 
C 276.38723 264.636681 274.637236 273.434496 271.237399 281.642428 
C 267.837562 289.850361 262.854 297.308788 256.57192 303.590868 
C 250.289841 309.872948 242.831414 314.856509 234.623481 318.256346 
C 226.415548 321.656183 217.617734 323.406177 208.733531 323.406177 
C 199.849329 323.406177 191.051514 321.656183 182.843582 318.256346 
C 174.635649 314.856509 167.177222 309.872948 160.895142 303.590868 
C 154.613062 297.308788 149.629501 289.850361 146.229664 281.642428 
C 142.829827 273.434496 141.079833 264.636681 141.079833 255.752479 
C 141.079833 246.868276 142.829827 238.070462 146.229664 229.862529 
C 149.629501 221.654596 154.613062 214.196169 160.895142 207.91409 
C 167.177222 201.63201 174.635649 196.648448 182.843582 193.248611 
C 191.051514 189.848774 199.849329 188.09878 208.733531 188.09878 
" clip-path="url(#pa17960084d)" style="fill: none; stroke: #b0b0b0; stroke-width: 0.8; stroke-linecap: square"/>
     </g>
     <g id="text_14">
      <!-- 2000 -->
      <g transform="translate(208.733531 321.32649) scale(0.1 -0.1)">
       <defs>
        <path id="DejaVuSans-32" d="M 1228 531 
L 3431 531 
L 3431 0 
L 469 0 
L 469 531 
Q 828 903 1448 1529 
Q 2069 2156 2228 2338 
Q 2531 2678 2651 2914 
Q 2772 3150 2772 3378 
Q 2772 3750 2511 3984 
Q 2250 4219 1831 4219 
Q 1534 4219 1204 4116 
Q 875 4013 500 3803 
L 500 4441 
Q 881 4594 1212 4672 
Q 1544 4750 1819 4750 
Q 2544 4750 2975 4387 
Q 3406 4025 3406 3419 
Q 3406 3131 3298 2873 
Q 3191 2616 2906 2266 
Q 2828 2175 2409 1742 
Q 1991 1309 1228 531 
z
" transform="scale(0.015625)"/>
       </defs>
       <use xlink:href="#DejaVuSans-32"/>
       <use xlink:href="#DejaVuSans-30" transform="translate(63.623047 0)"/>
       <use xlink:href="#DejaVuSans-30" transform="translate(127.246094 0)"/>
       <use xlink:href="#DejaVuSans-30" transform="translate(190.869141 0)"/>
      </g>
     </g>
    </g>
    <g id="ytick_3">
     <g id="line2d_15">
      <path d="M 208.733531 154.271931 
C 222.059835 154.271931 235.256557 156.896922 247.568456 161.996677 
C 259.880355 167.096433 271.067996 174.571775 280.491115 183.994895 
C 289.914235 193.418014 297.389577 204.605655 302.489333 216.917554 
C 307.589088 229.229453 310.214079 242.426175 310.214079 255.752479 
C 310.214079 269.078782 307.589088 282.275504 302.489333 294.587403 
C 297.389577 306.899302 289.914235 318.086943 280.491115 327.510062 
C 271.067996 336.933182 259.880355 344.408524 247.568456 349.50828 
C 235.256557 354.608036 222.059835 357.233027 208.733531 357.233027 
C 195.407228 357.233027 182.210506 354.608036 169.898607 349.50828 
C 157.586708 344.408524 146.399067 336.933182 136.975948 327.510062 
C 127.552828 318.086943 120.077486 306.899302 114.97773 294.587403 
C 109.877974 282.275504 107.252983 269.078782 107.252983 255.752479 
C 107.252983 242.426175 109.877974 229.229453 114.97773 216.917554 
C 120.077486 204.605655 127.552828 193.418014 136.975948 183.994895 
C 146.399067 174.571775 157.586708 167.096433 169.898607 161.996677 
C 182.210506 156.896922 195.407228 154.271931 208.733531 154.271931 
" clip-path="url(#pa17960084d)" style="fill: none; stroke: #b0b0b0; stroke-width: 0.8; stroke-linecap: square"/>
     </g>
     <g id="text_15">
      <!-- 3000 -->
      <g transform="translate(208.733531 355.153339) scale(0.1 -0.1)">
       <defs>
        <path id="DejaVuSans-33" d="M 2597 2516 
Q 3050 2419 3304 2112 
Q 3559 1806 3559 1356 
Q 3559 666 3084 287 
Q 2609 -91 1734 -91 
Q 1441 -91 1130 -33 
Q 819 25 488 141 
L 488 750 
Q 750 597 1062 519 
Q 1375 441 1716 441 
Q 2309 441 2620 675 
Q 2931 909 2931 1356 
Q 2931 1769 2642 2001 
Q 2353 2234 1838 2234 
L 1294 2234 
L 1294 2753 
L 1863 2753 
Q 2328 2753 2575 2939 
Q 2822 3125 2822 3475 
Q 2822 3834 2567 4026 
Q 2313 4219 1838 4219 
Q 1578 4219 1281 4162 
Q 984 4106 628 3988 
L 628 4550 
Q 988 4650 1302 4700 
Q 1616 4750 1894 4750 
Q 2613 4750 3031 4423 
Q 3450 4097 3450 3541 
Q 3450 3153 3228 2886 
Q 3006 2619 2597 2516 
z
" transform="scale(0.015625)"/>
       </defs>
       <use xlink:href="#DejaVuSans-33"/>
       <use xlink:href="#DejaVuSans-30" transform="translate(63.623047 0)"/>
       <use xlink:href="#DejaVuSans-30" transform="translate(127.246094 0)"/>
       <use xlink:href="#DejaVuSans-30" transform="translate(190.869141 0)"/>
      </g>
     </g>
    </g>
    <g id="ytick_4">
     <g id="line2d_16">
      <path d="M 208.733531 120.445081 
C 226.501936 120.445081 244.097565 123.945069 260.513431 130.744744 
C 276.929296 137.544418 291.84615 147.511541 304.41031 160.0757 
C 316.974469 172.63986 326.941592 187.556714 333.741266 203.972579 
C 340.540941 220.388445 344.040929 237.984074 344.040929 255.752479 
C 344.040929 273.520883 340.540941 291.116513 333.741266 307.532378 
C 326.941592 323.948243 316.974469 338.865098 304.41031 351.429257 
C 291.84615 363.993416 276.929296 373.96054 260.513431 380.760214 
C 244.097565 387.559888 226.501936 391.059876 208.733531 391.059876 
C 190.965127 391.059876 173.369497 387.559888 156.953632 380.760214 
C 140.537767 373.96054 125.620912 363.993416 113.056753 351.429257 
C 100.492594 338.865098 90.52547 323.948243 83.725796 307.532378 
C 76.926122 291.116513 73.426134 273.520883 73.426134 255.752479 
C 73.426134 237.984074 76.926122 220.388445 83.725796 203.972579 
C 90.52547 187.556714 100.492594 172.63986 113.056753 160.0757 
C 125.620912 147.511541 140.537767 137.544418 156.953632 130.744744 
C 173.369497 123.945069 190.965127 120.445081 208.733531 120.445081 
" clip-path="url(#pa17960084d)" style="fill: none; stroke: #b0b0b0; stroke-width: 0.8; stroke-linecap: square"/>
     </g>
     <g id="text_16">
      <!-- 4000 -->
      <g transform="translate(208.733531 388.980189) scale(0.1 -0.1)">
       <defs>
        <path id="DejaVuSans-34" d="M 2419 4116 
L 825 1625 
L 2419 1625 
L 2419 4116 
z
M 2253 4666 
L 3047 4666 
L 3047 1625 
L 3713 1625 
L 3713 1100 
L 3047 1100 
L 3047 0 
L 2419 0 
L 2419 1100 
L 313 1100 
L 313 1709 
L 2253 4666 
z
" transform="scale(0.015625)"/>
       </defs>
       <use xlink:href="#DejaVuSans-34"/>
       <use xlink:href="#DejaVuSans-30" transform="translate(63.623047 0)"/>
       <use xlink:href="#DejaVuSans-30" transform="translate(127.246094 0)"/>
       <use xlink:href="#DejaVuSans-30" transform="translate(190.869141 0)"/>
      </g>
     </g>
    </g>
    <g id="ytick_5">
     <g id="line2d_17">
      <path d="M 208.733531 86.618232 
C 230.944037 86.618232 252.938574 90.993217 273.458405 99.49281 
C 293.978237 107.992402 312.624305 120.451307 328.329504 136.156506 
C 344.034703 151.861705 356.493608 170.507773 364.9932 191.027605 
C 373.492793 211.547436 377.867778 233.541973 377.867778 255.752479 
C 377.867778 277.962984 373.492793 299.957521 364.9932 320.477353 
C 356.493608 340.997184 344.034703 359.643252 328.329504 375.348452 
C 312.624305 391.053651 293.978237 403.512555 273.458405 412.012148 
C 252.938574 420.51174 230.944037 424.886725 208.733531 424.886725 
C 186.523026 424.886725 164.528489 420.51174 144.008657 412.012148 
C 123.488826 403.512555 104.842758 391.053651 89.137558 375.348452 
C 73.432359 359.643252 60.973455 340.997184 52.473862 320.477353 
C 43.97427 299.957521 39.599285 277.962984 39.599285 255.752479 
C 39.599285 233.541973 43.97427 211.547436 52.473862 191.027605 
C 60.973455 170.507773 73.432359 151.861705 89.137558 136.156506 
C 104.842758 120.451307 123.488826 107.992402 144.008657 99.49281 
C 164.528489 90.993217 186.523026 86.618232 208.733531 86.618232 
" clip-path="url(#pa17960084d)" style="fill: none; stroke: #b0b0b0; stroke-width: 0.8; stroke-linecap: square"/>
     </g>
     <g id="text_17">
      <!-- 5000 -->
      <g transform="translate(208.733531 422.807038) scale(0.1 -0.1)">
       <defs>
        <path id="DejaVuSans-35" d="M 691 4666 
L 3169 4666 
L 3169 4134 
L 1269 4134 
L 1269 2991 
Q 1406 3038 1543 3061 
Q 1681 3084 1819 3084 
Q 2600 3084 3056 2656 
Q 3513 2228 3513 1497 
Q 3513 744 3044 326 
Q 2575 -91 1722 -91 
Q 1428 -91 1123 -41 
Q 819 9 494 109 
L 494 744 
Q 775 591 1075 516 
Q 1375 441 1709 441 
Q 2250 441 2565 725 
Q 2881 1009 2881 1497 
Q 2881 1984 2565 2268 
Q 2250 2553 1709 2553 
Q 1456 2553 1204 2497 
Q 953 2441 691 2322 
L 691 4666 
z
" transform="scale(0.015625)"/>
       </defs>
       <use xlink:href="#DejaVuSans-35"/>
       <use xlink:href="#DejaVuSans-30" transform="translate(63.623047 0)"/>
       <use xlink:href="#DejaVuSans-30" transform="translate(127.246094 0)"/>
       <use xlink:href="#DejaVuSans-30" transform="translate(190.869141 0)"/>
      </g>
     </g>
    </g>
   </g>
   <g id="line2d_18">
    <path d="M 208.733531 137.341592 
L 223.006386 138.204941 
L 236.463964 143.24569 
L 249.325173 148.721115 
L 263.573173 151.264272 
L 275.018574 159.722016 
L 286.660042 167.791631 
L 293.301531 180.831769 
L 298.082645 194.079238 
L 308.054985 203.624558 
L 313.66159 215.958515 
L 320.4028 228.228476 
L 318.708731 242.399072 
L 317.622159 255.752479 
L 312.932934 268.404577 
L 313.16072 281.491469 
L 304.742309 292.163805 
L 298.994449 303.125063 
L 292.069432 313.275098 
L 281.363264 320.096807 
L 272.416135 327.635278 
L 263.123968 334.55063 
L 252.89135 339.888174 
L 242.074096 343.664321 
L 230.542256 344.233952 
L 220.207268 350.2472 
L 208.733531 348.996189 
L 197.247563 350.34794 
L 186.354089 346.549447 
L 173.635675 348.297919 
L 165.133776 338.824871 
L 155.063688 333.50667 
L 143.402224 329.496281 
L 135.837941 320.332336 
L 130.18593 309.969973 
L 124.433099 299.996758 
L 120.79006 289.105038 
L 116.589963 278.463829 
L 108.614125 267.909176 
L 106.00139 255.752479 
L 106.548942 243.345023 
L 104.289921 230.009441 
L 106.145993 216.846157 
L 113.395718 205.715334 
L 119.231303 193.973551 
L 126.849426 183.209492 
L 134.384821 171.830133 
L 143.524576 161.280998 
L 154.121832 151.698579 
L 168.255843 149.021587 
L 180.578096 141.521385 
L 195.196643 144.26617 
L 208.733531 137.341592 
" clip-path="url(#pa17960084d)" style="fill: none; stroke-dasharray: 5.55,2.4; stroke-dashoffset: 0; stroke: #1f77b4; stroke-width: 1.5"/>
   </g>
   <g id="line2d_19">
    <path d="M 208.733531 130.221041 
L 223.292474 133.520572 
L 239.228187 129.557224 
L 254.705268 131.988529 
L 270.843218 134.743313 
L 280.637606 148.998709 
L 288.320359 163.402795 
L 294.541113 177.254178 
L 305.889016 186.04101 
L 314.192671 197.612911 
L 315.626766 212.400934 
L 318.698594 225.704469 
L 324.290947 238.501759 
L 323.829558 252.340302 
L 323.964371 266.025083 
L 315.783728 278.285722 
L 315.31542 291.785432 
L 307.648725 302.872644 
L 295.4604 310.50301 
L 292.710268 323.892974 
L 282.38874 331.623656 
L 269.983525 335.984544 
L 260.01271 342.578255 
L 250.406356 350.355521 
L 239.813999 357.531971 
L 227.330687 359.228426 
L 214.847503 358.776939 
L 202.453234 361.579637 
L 190.662936 356.298606 
L 179.589418 351.190973 
L 167.674344 348.962479 
L 157.798393 341.995727 
L 145.882499 338.081763 
L 137.882216 328.735405 
L 130.115336 319.544941 
L 119.489524 312.092075 
L 118.735669 298.6247 
L 109.041331 289.456182 
L 103.967337 277.804957 
L 101.319521 265.328228 
L 95.5986 252.398441 
L 96.9232 239.061133 
L 104.152514 227.175662 
L 110.586106 215.947878 
L 112.191021 202.528644 
L 118.91624 191.306345 
L 125.19718 179.331939 
L 134.049111 169.091371 
L 144.04821 159.71617 
L 157.32815 155.59866 
L 166.9903 143.372403 
L 182.42613 146.885234 
L 204.660708 221.558447 
L 208.733531 133.975821 
" clip-path="url(#pa17960084d)" style="fill: none; stroke-dasharray: 1.5,2.475; stroke-dashoffset: 0; stroke: #ff7f0e; stroke-width: 1.5"/>
   </g>
   <g id="line2d_20">
    <path d="M 208.733531 133.975821 
L 224.540727 123.040673 
L 238.481314 132.647989 
L 256.307152 127.675976 
L 270.179026 136.037368 
L 283.604475 144.593889 
L 296.910613 153.434973 
L 311.288317 161.933538 
L 316.882565 178.152866 
L 317.984461 195.5225 
L 321.83347 209.883747 
L 326.399412 223.600217 
L 319.975109 239.146039 
L 321.564155 252.407463 
L 316.922486 265.397312 
L 315.154799 278.153337 
L 308.553912 289.499517 
L 305.694241 301.941587 
L 296.633158 311.24337 
L 289.899661 321.612388 
L 282.647923 331.890637 
L 272.651922 339.479909 
L 260.597578 343.568552 
L 250.119992 349.705435 
L 238.776666 354.135008 
L 227.300768 359.061959 
L 214.957719 360.634148 
L 202.789893 355.906707 
L 190.812527 355.46627 
L 179.619056 351.093917 
L 169.187984 345.526308 
L 159.484189 339.141341 
L 145.307768 338.834611 
L 137.340287 329.293639 
L 127.725006 321.484505 
L 123.150816 309.780707 
L 116.017716 299.91945 
L 110.964035 288.806159 
L 106.880268 277.191808 
L 96.804628 265.730721 
L 97.864004 252.465602 
L 99.198216 239.400754 
L 101.63996 226.489105 
L 104.222667 213.367127 
L 109.821152 201.222137 
L 119.246047 191.54299 
L 125.796186 179.879921 
L 132.856634 167.707663 
L 142.12069 156.85444 
L 155.891642 152.799891 
L 168.54507 147.558117 
L 182.847239 148.627899 
L 202.59229 204.192716 
L 208.733531 131.134366 
" clip-path="url(#pa17960084d)" style="fill: none; stroke: #ff7f0e; stroke-width: 1.5; stroke-linecap: square"/>
   </g>
   <g id="line2d_21">
    <path d="M 208.733531 131.134366 
L 233.106255 120.182994 
L 255.154601 130.820286 
L 274.273986 144.820692 
" clip-path="url(#pa17960084d)" style="fill: none; stroke: #2ca02c; stroke-width: 2; stroke-linecap: square"/>
   </g>
   <g id="patch_3">
    <path d="M 208.733531 76.86426 
C 185.242146 76.86426 161.979184 81.491551 140.275974 90.481315 
C 118.572763 99.471079 98.851377 112.648488 82.240459 129.259406 
C 65.629541 145.870324 52.452131 165.591711 43.462367 187.294921 
C 34.472603 208.998131 29.845312 232.261093 29.845312 255.752479 
C 29.845312 279.243864 34.472603 302.506826 43.462367 324.210036 
C 52.452131 345.913247 65.629541 365.634633 82.240459 382.245551 
C 98.851377 398.856469 118.572763 412.033879 140.275974 421.023643 
C 161.979184 430.013407 185.242146 434.640697 208.733531 434.640697 
C 232.224917 434.640697 255.487879 430.013407 277.191089 421.023643 
C 298.894299 412.033879 318.615686 398.856469 335.226604 382.245551 
C 351.837522 365.634633 365.014931 345.913247 374.004695 324.210036 
C 382.994459 302.506826 387.62175 279.243864 387.62175 255.752479 
C 387.62175 232.261093 382.994459 208.998131 374.004695 187.294921 
C 365.014931 165.591711 351.837522 145.870324 335.226604 129.259406 
C 318.615686 112.648488 298.894299 99.471079 277.191089 90.481315 
C 255.487879 81.491551 232.224917 76.86426 208.733531 76.86426 
" style="fill: none; stroke: #000000; stroke-width: 0.8; stroke-linejoin: miter; stroke-linecap: square"/>
   </g>
   <g id="text_18">
    <!-- Totaal mannen en vrouwen, Totaal leeftijd, median -->
    <g transform="translate(82.442125 35.086616) scale(0.1 -0.1)">
     <defs>
      <path id="DejaVuSans-54" d="M -19 4666 
L 3928 4666 
L 3928 4134 
L 2272 4134 
L 2272 0 
L 1638 0 
L 1638 4134 
L -19 4134 
L -19 4666 
z
" transform="scale(0.015625)"/>
      <path id="DejaVuSans-20" transform="scale(0.015625)"/>
      <path id="DejaVuSans-6d" d="M 3328 2828 
Q 3544 3216 3844 3400 
Q 4144 3584 4550 3584 
Q 5097 3584 5394 3201 
Q 5691 2819 5691 2113 
L 5691 0 
L 5113 0 
L 5113 2094 
Q 5113 2597 4934 2840 
Q 4756 3084 4391 3084 
Q 3944 3084 3684 2787 
Q 3425 2491 3425 1978 
L 3425 0 
L 2847 0 
L 2847 2094 
Q 2847 2600 2669 2842 
Q 2491 3084 2119 3084 
Q 1678 3084 1418 2786 
Q 1159 2488 1159 1978 
L 1159 0 
L 581 0 
L 581 3500 
L 1159 3500 
L 1159 2956 
Q 1356 3278 1631 3431 
Q 1906 3584 2284 3584 
Q 2666 3584 2933 3390 
Q 3200 3197 3328 2828 
z
" transform="scale(0.015625)"/>
      <path id="DejaVuSans-77" d="M 269 3500 
L 844 3500 
L 1563 769 
L 2278 3500 
L 2956 3500 
L 3675 769 
L 4391 3500 
L 4966 3500 
L 4050 0 
L 3372 0 
L 2619 2869 
L 1863 0 
L 1184 0 
L 269 3500 
z
" transform="scale(0.015625)"/>
      <path id="DejaVuSans-2c" d="M 750 794 
L 1409 794 
L 1409 256 
L 897 -744 
L 494 -744 
L 750 256 
L 750 794 
z
" transform="scale(0.015625)"/>
      <path id="DejaVuSans-66" d="M 2375 4863 
L 2375 4384 
L 1825 4384 
Q 1516 4384 1395 4259 
Q 1275 4134 1275 3809 
L 1275 3500 
L 2222 3500 
L 2222 3053 
L 1275 3053 
L 1275 0 
L 697 0 
L 697 3053 
L 147 3053 
L 147 3500 
L 697 3500 
L 697 3744 
Q 697 4328 969 4595 
Q 1241 4863 1831 4863 
L 2375 4863 
z
" transform="scale(0.015625)"/>
      <path id="DejaVuSans-69" d="M 603 3500 
L 1178 3500 
L 1178 0 
L 603 0 
L 603 3500 
z
M 603 4863 
L 1178 4863 
L 1178 4134 
L 603 4134 
L 603 4863 
z
" transform="scale(0.015625)"/>
      <path id="DejaVuSans-6a" d="M 603 3500 
L 1178 3500 
L 1178 -63 
Q 1178 -731 923 -1031 
Q 669 -1331 103 -1331 
L -116 -1331 
L -116 -844 
L 38 -844 
Q 366 -844 484 -692 
Q 603 -541 603 -63 
L 603 3500 
z
M 603 4863 
L 1178 4863 
L 1178 4134 
L 603 4134 
L 603 4863 
z
" transform="scale(0.015625)"/>
      <path id="DejaVuSans-64" d="M 2906 2969 
L 2906 4863 
L 3481 4863 
L 3481 0 
L 2906 0 
L 2906 525 
Q 2725 213 2448 61 
Q 2172 -91 1784 -91 
Q 1150 -91 751 415 
Q 353 922 353 1747 
Q 353 2572 751 3078 
Q 1150 3584 1784 3584 
Q 2172 3584 2448 3432 
Q 2725 3281 2906 2969 
z
M 947 1747 
Q 947 1113 1208 752 
Q 1469 391 1925 391 
Q 2381 391 2643 752 
Q 2906 1113 2906 1747 
Q 2906 2381 2643 2742 
Q 2381 3103 1925 3103 
Q 1469 3103 1208 2742 
Q 947 2381 947 1747 
z
" transform="scale(0.015625)"/>
     </defs>
     <use xlink:href="#DejaVuSans-54"/>
     <use xlink:href="#DejaVuSans-6f" transform="translate(44.083984 0)"/>
     <use xlink:href="#DejaVuSans-74" transform="translate(105.265625 0)"/>
     <use xlink:href="#DejaVuSans-61" transform="translate(144.474609 0)"/>
     <use xlink:href="#DejaVuSans-61" transform="translate(205.753906 0)"/>
     <use xlink:href="#DejaVuSans-6c" transform="translate(267.033203 0)"/>
     <use xlink:href="#DejaVuSans-20" transform="translate(294.816406 0)"/>
     <use xlink:href="#DejaVuSans-6d" transform="translate(326.603516 0)"/>
     <use xlink:href="#DejaVuSans-61" transform="translate(424.015625 0)"/>
     <use xlink:href="#DejaVuSans-6e" transform="translate(485.294922 0)"/>
     <use xlink:href="#DejaVuSans-6e" transform="translate(548.673828 0)"/>
     <use xlink:href="#DejaVuSans-65" transform="translate(612.052734 0)"/>
     <use xlink:href="#DejaVuSans-6e" transform="translate(673.576172 0)"/>
     <use xlink:href="#DejaVuSans-20" transform="translate(736.955078 0)"/>
     <use xlink:href="#DejaVuSans-65" transform="translate(768.742188 0)"/>
     <use xlink:href="#DejaVuSans-6e" transform="translate(830.265625 0)"/>
     <use xlink:href="#DejaVuSans-20" transform="translate(893.644531 0)"/>
     <use xlink:href="#DejaVuSans-76" transform="translate(925.431641 0)"/>
     <use xlink:href="#DejaVuSans-72" transform="translate(984.611328 0)"/>
     <use xlink:href="#DejaVuSans-6f" transform="translate(1023.474609 0)"/>
     <use xlink:href="#DejaVuSans-75" transform="translate(1084.65625 0)"/>
     <use xlink:href="#DejaVuSans-77" transform="translate(1148.035156 0)"/>
     <use xlink:href="#DejaVuSans-65" transform="translate(1229.822266 0)"/>
     <use xlink:href="#DejaVuSans-6e" transform="translate(1291.345703 0)"/>
     <use xlink:href="#DejaVuSans-2c" transform="translate(1354.724609 0)"/>
     <use xlink:href="#DejaVuSans-20" transform="translate(1386.511719 0)"/>
     <use xlink:href="#DejaVuSans-54" transform="translate(1418.298828 0)"/>
     <use xlink:href="#DejaVuSans-6f" transform="translate(1462.382812 0)"/>
     <use xlink:href="#DejaVuSans-74" transform="translate(1523.564453 0)"/>
     <use xlink:href="#DejaVuSans-61" transform="translate(1562.773438 0)"/>
     <use xlink:href="#DejaVuSans-61" transform="translate(1624.052734 0)"/>
     <use xlink:href="#DejaVuSans-6c" transform="translate(1685.332031 0)"/>
     <use xlink:href="#DejaVuSans-20" transform="translate(1713.115234 0)"/>
     <use xlink:href="#DejaVuSans-6c" transform="translate(1744.902344 0)"/>
     <use xlink:href="#DejaVuSans-65" transform="translate(1772.685547 0)"/>
     <use xlink:href="#DejaVuSans-65" transform="translate(1834.208984 0)"/>
     <use xlink:href="#DejaVuSans-66" transform="translate(1895.732422 0)"/>
     <use xlink:href="#DejaVuSans-74" transform="translate(1929.1875 0)"/>
     <use xlink:href="#DejaVuSans-69" transform="translate(1968.396484 0)"/>
     <use xlink:href="#DejaVuSans-6a" transform="translate(1996.179688 0)"/>
     <use xlink:href="#DejaVuSans-64" transform="translate(2023.962891 0)"/>
     <use xlink:href="#DejaVuSans-2c" transform="translate(2087.439453 0)"/>
     <use xlink:href="#DejaVuSans-20" transform="translate(2119.226562 0)"/>
     <use xlink:href="#DejaVuSans-6d" transform="translate(2151.013672 0)"/>
     <use xlink:href="#DejaVuSans-65" transform="translate(2248.425781 0)"/>
     <use xlink:href="#DejaVuSans-64" transform="translate(2309.949219 0)"/>
     <use xlink:href="#DejaVuSans-69" transform="translate(2373.425781 0)"/>
     <use xlink:href="#DejaVuSans-61" transform="translate(2401.208984 0)"/>
     <use xlink:href="#DejaVuSans-6e" transform="translate(2462.488281 0)"/>
    </g>
   </g>
  </g>
  <g id="text_19">
   <!-- Deaths per week in the Netherlands (since 2016) -->
   <g transform="translate(36.325719 17.837812) scale(0.14 -0.14)">
    <defs>
     <path id="DejaVuSans-68" d="M 3513 2113 
L 3513 0 
L 2938 0 
L 2938 2094 
Q 2938 2591 2744 2837 
Q 2550 3084 2163 3084 
Q 1697 3084 1428 2787 
Q 1159 2491 1159 1978 
L 1159 0 
L 581 0 
L 581 4863 
L 1159 4863 
L 1159 2956 
Q 1366 3272 1645 3428 
Q 1925 3584 2291 3584 
Q 2894 3584 3203 3211 
Q 3513 2838 3513 2113 
z
" transform="scale(0.015625)"/>
     <path id="DejaVuSans-73" d="M 2834 3397 
L 2834 2853 
Q 2591 2978 2328 3040 
Q 2066 3103 1784 3103 
Q 1356 3103 1142 2972 
Q 928 2841 928 2578 
Q 928 2378 1081 2264 
Q 1234 2150 1697 2047 
L 1894 2003 
Q 2506 1872 2764 1633 
Q 3022 1394 3022 966 
Q 3022 478 2636 193 
Q 2250 -91 1575 -91 
Q 1294 -91 989 -36 
Q 684 19 347 128 
L 347 722 
Q 666 556 975 473 
Q 1284 391 1588 391 
Q 1994 391 2212 530 
Q 2431 669 2431 922 
Q 2431 1156 2273 1281 
Q 2116 1406 1581 1522 
L 1381 1569 
Q 847 1681 609 1914 
Q 372 2147 372 2553 
Q 372 3047 722 3315 
Q 1072 3584 1716 3584 
Q 2034 3584 2315 3537 
Q 2597 3491 2834 3397 
z
" transform="scale(0.015625)"/>
     <path id="DejaVuSans-6b" d="M 581 4863 
L 1159 4863 
L 1159 1991 
L 2875 3500 
L 3609 3500 
L 1753 1863 
L 3688 0 
L 2938 0 
L 1159 1709 
L 1159 0 
L 581 0 
L 581 4863 
z
" transform="scale(0.015625)"/>
     <path id="DejaVuSans-28" d="M 1984 4856 
Q 1566 4138 1362 3434 
Q 1159 2731 1159 2009 
Q 1159 1288 1364 580 
Q 1569 -128 1984 -844 
L 1484 -844 
Q 1016 -109 783 600 
Q 550 1309 550 2009 
Q 550 2706 781 3412 
Q 1013 4119 1484 4856 
L 1984 4856 
z
" transform="scale(0.015625)"/>
     <path id="DejaVuSans-36" d="M 2113 2584 
Q 1688 2584 1439 2293 
Q 1191 2003 1191 1497 
Q 1191 994 1439 701 
Q 1688 409 2113 409 
Q 2538 409 2786 701 
Q 3034 994 3034 1497 
Q 3034 2003 2786 2293 
Q 2538 2584 2113 2584 
z
M 3366 4563 
L 3366 3988 
Q 3128 4100 2886 4159 
Q 2644 4219 2406 4219 
Q 1781 4219 1451 3797 
Q 1122 3375 1075 2522 
Q 1259 2794 1537 2939 
Q 1816 3084 2150 3084 
Q 2853 3084 3261 2657 
Q 3669 2231 3669 1497 
Q 3669 778 3244 343 
Q 2819 -91 2113 -91 
Q 1303 -91 875 529 
Q 447 1150 447 2328 
Q 447 3434 972 4092 
Q 1497 4750 2381 4750 
Q 2619 4750 2861 4703 
Q 3103 4656 3366 4563 
z
" transform="scale(0.015625)"/>
     <path id="DejaVuSans-29" d="M 513 4856 
L 1013 4856 
Q 1481 4119 1714 3412 
Q 1947 2706 1947 2009 
Q 1947 1309 1714 600 
Q 1481 -109 1013 -844 
L 513 -844 
Q 928 -128 1133 580 
Q 1338 1288 1338 2009 
Q 1338 2731 1133 3434 
Q 928 4138 513 4856 
z
" transform="scale(0.015625)"/>
    </defs>
    <use xlink:href="#DejaVuSans-44"/>
    <use xlink:href="#DejaVuSans-65" transform="translate(77.001953 0)"/>
    <use xlink:href="#DejaVuSans-61" transform="translate(138.525391 0)"/>
    <use xlink:href="#DejaVuSans-74" transform="translate(199.804688 0)"/>
    <use xlink:href="#DejaVuSans-68" transform="translate(239.013672 0)"/>
    <use xlink:href="#DejaVuSans-73" transform="translate(302.392578 0)"/>
    <use xlink:href="#DejaVuSans-20" transform="translate(354.492188 0)"/>
    <use xlink:href="#DejaVuSans-70" transform="translate(386.279297 0)"/>
    <use xlink:href="#DejaVuSans-65" transform="translate(449.755859 0)"/>
    <use xlink:href="#DejaVuSans-72" transform="translate(511.279297 0)"/>
    <use xlink:href="#DejaVuSans-20" transform="translate(552.392578 0)"/>
    <use xlink:href="#DejaVuSans-77" transform="translate(584.179688 0)"/>
    <use xlink:href="#DejaVuSans-65" transform="translate(665.966797 0)"/>
    <use xlink:href="#DejaVuSans-65" transform="translate(727.490234 0)"/>
    <use xlink:href="#DejaVuSans-6b" transform="translate(789.013672 0)"/>
    <use xlink:href="#DejaVuSans-20" transform="translate(846.923828 0)"/>
    <use xlink:href="#DejaVuSans-69" transform="translate(878.710938 0)"/>
    <use xlink:href="#DejaVuSans-6e" transform="translate(906.494141 0)"/>
    <use xlink:href="#DejaVuSans-20" transform="translate(969.873047 0)"/>
    <use xlink:href="#DejaVuSans-74" transform="translate(1001.660156 0)"/>
    <use xlink:href="#DejaVuSans-68" transform="translate(1040.869141 0)"/>
    <use xlink:href="#DejaVuSans-65" transform="translate(1104.248047 0)"/>
    <use xlink:href="#DejaVuSans-20" transform="translate(1165.771484 0)"/>
    <use xlink:href="#DejaVuSans-4e" transform="translate(1197.558594 0)"/>
    <use xlink:href="#DejaVuSans-65" transform="translate(1272.363281 0)"/>
    <use xlink:href="#DejaVuSans-74" transform="translate(1333.886719 0)"/>
    <use xlink:href="#DejaVuSans-68" transform="translate(1373.095703 0)"/>
    <use xlink:href="#DejaVuSans-65" transform="translate(1436.474609 0)"/>
    <use xlink:href="#DejaVuSans-72" transform="translate(1497.998047 0)"/>
    <use xlink:href="#DejaVuSans-6c" transform="translate(1539.111328 0)"/>
    <use xlink:href="#DejaVuSans-61" transform="translate(1566.894531 0)"/>
    <use xlink:href="#DejaVuSans-6e" transform="translate(1628.173828 0)"/>
    <use xlink:href="#DejaVuSans-64" transform="translate(1691.552734 0)"/>
    <use xlink:href="#DejaVuSans-73" transform="translate(1755.029297 0)"/>
    <use xlink:href="#DejaVuSans-20" transform="translate(1807.128906 0)"/>
    <use xlink:href="#DejaVuSans-28" transform="translate(1838.916016 0)"/>
    <use xlink:href="#DejaVuSans-73" transform="translate(1877.929688 0)"/>
    <use xlink:href="#DejaVuSans-69" transform="translate(1930.029297 0)"/>
    <use xlink:href="#DejaVuSans-6e" transform="translate(1957.8125 0)"/>
    <use xlink:href="#DejaVuSans-63" transform="translate(2021.191406 0)"/>
    <use xlink:href="#DejaVuSans-65" transform="translate(2076.171875 0)"/>
    <use xlink:href="#DejaVuSans-20" transform="translate(2137.695312 0)"/>
    <use xlink:href="#DejaVuSans-32" transform="translate(2169.482422 0)"/>
    <use xlink:href="#DejaVuSans-30" transform="translate(2233.105469 0)"/>
    <use xlink:href="#DejaVuSans-31" transform="translate(2296.728516 0)"/>
    <use xlink:href="#DejaVuSans-36" transform="translate(2360.351562 0)"/>
    <use xlink:href="#DejaVuSans-29" transform="translate(2423.974609 0)"/>
   </g>
  </g>
  <g id="legend_1">
   <g id="patch_4">
    <path d="M 418.146031 455.67976 
L 491.933531 455.67976 
Q 493.933531 455.67976 493.933531 453.67976 
L 493.933531 366.61101 
Q 493.933531 364.61101 491.933531 364.61101 
L 418.146031 364.61101 
Q 416.146031 364.61101 416.146031 366.61101 
L 416.146031 453.67976 
Q 416.146031 455.67976 418.146031 455.67976 
z
" style="fill: #ffffff; opacity: 0.8; stroke: #cccccc; stroke-linejoin: miter"/>
   </g>
   <g id="patch_5">
    <path d="M 420.146031 376.209448 
L 440.146031 376.209448 
L 440.146031 369.209448 
L 420.146031 369.209448 
z
" style="fill: #1f77b4; fill-opacity: 0.3; stroke: #1f77b4; stroke-opacity: 0.3; stroke-linejoin: miter"/>
   </g>
   <g id="text_20">
    <!-- SD -->
    <g transform="translate(448.146031 376.209448) scale(0.1 -0.1)">
     <use xlink:href="#DejaVuSans-53"/>
     <use xlink:href="#DejaVuSans-44" transform="translate(63.476562 0)"/>
    </g>
   </g>
   <g id="patch_6">
    <path d="M 420.146031 390.887573 
L 440.146031 390.887573 
L 440.146031 383.887573 
L 420.146031 383.887573 
z
" style="fill: #1f77b4; fill-opacity: 0.2"/>
   </g>
   <g id="text_21">
    <!-- Min/Max -->
    <g transform="translate(448.146031 390.887573) scale(0.1 -0.1)">
     <defs>
      <path id="DejaVuSans-2f" d="M 1625 4666 
L 2156 4666 
L 531 -594 
L 0 -594 
L 1625 4666 
z
" transform="scale(0.015625)"/>
      <path id="DejaVuSans-78" d="M 3513 3500 
L 2247 1797 
L 3578 0 
L 2900 0 
L 1881 1375 
L 863 0 
L 184 0 
L 1544 1831 
L 300 3500 
L 978 3500 
L 1906 2253 
L 2834 3500 
L 3513 3500 
z
" transform="scale(0.015625)"/>
     </defs>
     <use xlink:href="#DejaVuSans-4d"/>
     <use xlink:href="#DejaVuSans-69" transform="translate(86.279297 0)"/>
     <use xlink:href="#DejaVuSans-6e" transform="translate(114.0625 0)"/>
     <use xlink:href="#DejaVuSans-2f" transform="translate(177.441406 0)"/>
     <use xlink:href="#DejaVuSans-4d" transform="translate(211.132812 0)"/>
     <use xlink:href="#DejaVuSans-61" transform="translate(297.412109 0)"/>
     <use xlink:href="#DejaVuSans-78" transform="translate(358.691406 0)"/>
    </g>
   </g>
   <g id="line2d_22">
    <path d="M 420.146031 402.065697 
L 430.146031 402.065697 
L 440.146031 402.065697 
" style="fill: none; stroke-dasharray: 5.55,2.4; stroke-dashoffset: 0; stroke: #1f77b4; stroke-width: 1.5"/>
   </g>
   <g id="text_22">
    <!-- Median -->
    <g transform="translate(448.146031 405.565697) scale(0.1 -0.1)">
     <use xlink:href="#DejaVuSans-4d"/>
     <use xlink:href="#DejaVuSans-65" transform="translate(86.279297 0)"/>
     <use xlink:href="#DejaVuSans-64" transform="translate(147.802734 0)"/>
     <use xlink:href="#DejaVuSans-69" transform="translate(211.279297 0)"/>
     <use xlink:href="#DejaVuSans-61" transform="translate(239.0625 0)"/>
     <use xlink:href="#DejaVuSans-6e" transform="translate(300.341797 0)"/>
    </g>
   </g>
   <g id="line2d_23">
    <path d="M 420.146031 416.743823 
L 430.146031 416.743823 
L 440.146031 416.743823 
" style="fill: none; stroke-dasharray: 1.5,2.475; stroke-dashoffset: 0; stroke: #ff7f0e; stroke-width: 1.5"/>
   </g>
   <g id="text_23">
    <!-- 2024 -->
    <g transform="translate(448.146031 420.243823) scale(0.1 -0.1)">
     <use xlink:href="#DejaVuSans-32"/>
     <use xlink:href="#DejaVuSans-30" transform="translate(63.623047 0)"/>
     <use xlink:href="#DejaVuSans-32" transform="translate(127.246094 0)"/>
     <use xlink:href="#DejaVuSans-34" transform="translate(190.869141 0)"/>
    </g>
   </g>
   <g id="line2d_24">
    <path d="M 420.146031 431.421947 
L 430.146031 431.421947 
L 440.146031 431.421947 
" style="fill: none; stroke: #ff7f0e; stroke-width: 1.5; stroke-linecap: square"/>
   </g>
   <g id="text_24">
    <!-- 2025 -->
    <g transform="translate(448.146031 434.921947) scale(0.1 -0.1)">
     <use xlink:href="#DejaVuSans-32"/>
     <use xlink:href="#DejaVuSans-30" transform="translate(63.623047 0)"/>
     <use xlink:href="#DejaVuSans-32" transform="translate(127.246094 0)"/>
     <use xlink:href="#DejaVuSans-35" transform="translate(190.869141 0)"/>
    </g>
   </g>
   <g id="line2d_25">
    <path d="M 420.146031 446.100073 
L 430.146031 446.100073 
L 440.146031 446.100073 
" style="fill: none; stroke: #2ca02c; stroke-width: 2; stroke-linecap: square"/>
   </g>
   <g id="text_25">
    <!-- 2026 -->
    <g transform="translate(448.146031 449.600073) scale(0.1 -0.1)">
     <use xlink:href="#DejaVuSans-32"/>
     <use xlink:href="#DejaVuSans-30" transform="translate(63.623047 0)"/>
     <use xlink:href="#DejaVuSans-32" transform="translate(127.246094 0)"/>
     <use xlink:href="#DejaVuSans-36" transform="translate(190.869141 0)"/>
    </g>
   </g>
  </g>
 </g>
 <defs>
  <clipPath id="pa17960084d">
   <path d="M 387.62175 255.752479 
C 387.62175 232.261093 382.994459 208.998131 374.004695 187.294921 
C 365.014931 165.591711 351.837522 145.870324 335.226604 129.259406 
C 318.615686 112.648488 298.894299 99.471079 277.191089 90.481315 
C 255.487879 81.491551 232.224917 76.86426 208.733531 76.86426 
C 185.242146 76.86426 161.979184 81.491551 140.275974 90.481315 
C 118.572763 99.471079 98.851377 112.648488 82.240459 129.259406 
C 65.629541 145.870324 52.452131 165.591711 43.462367 187.294921 
C 34.472603 208.998131 29.845312 232.261093 29.845312 255.752479 
C 29.845312 279.243864 34.472603 302.506826 43.462367 324.210036 
C 52.452131 345.913247 65.629541 365.634633 82.240459 382.245551 
C 98.851377 398.856469 118.572763 412.033879 140.275974 421.023643 
C 161.979184 430.013407 185.242146 434.640697 208.733531 434.640697 
C 232.224917 434.640697 255.487879 430.013407 277.191089 421.023643 
C 298.894299 412.033879 318.615686 398.856469 335.226604 382.245551 
C 351.837522 365.634633 365.014931 345.913247 374.004695 324.210036 
C 382.994459 302.506826 387.62175 279.243864 387.62175 255.752479 
M 208.733531 255.752479 
C 208.733531 255.752479 208.733531 255.752479 208.733531 255.752479 
C 208.733531 255.752479 208.733531 255.752479 208.733531 255.752479 
C 208.733531 255.752479 208.733531 255.752479 208.733531 255.752479 
C 208.733531 255.752479 208.733531 255.752479 208.733531 255.752479 
C 208.733531 255.752479 208.733531 255.752479 208.733531 255.752479 
C 208.733531 255.752479 208.733531 255.752479 208.733531 255.752479 
C 208.733531 255.752479 208.733531 255.752479 208.733531 255.752479 
C 208.733531 255.752479 208.733531 255.752479 208.733531 255.752479 
C 208.733531 255.752479 208.733531 255.752479 208.733531 255.752479 
C 208.733531 255.752479 208.733531 255.752479 208.733531 255.752479 
C 208.733531 255.752479 208.733531 255.752479 208.733531 255.752479 
C 208.733531 255.752479 208.733531 255.752479 208.733531 255.752479 
C 208.733531 255.752479 208.733531 255.752479 208.733531 255.752479 
C 208.733531 255.752479 208.733531 255.752479 208.733531 255.752479 
C 208.733531 255.752479 208.733531 255.752479 208.733531 255.752479 
C 208.733531 255.752479 208.733531 255.752479 208.733531 255.752479 
z
"/>
  </clipPath>
 </defs>
</svg>
