<?xml version="1.0" encoding="utf-8" standalone="no"?>
<!DOCTYPE svg PUBLIC "-//W3C//DTD SVG 1.1//EN"
  "http://www.w3.org/Graphics/SVG/1.1/DTD/svg11.dtd">
<svg height="460.67976pt" version="1.1" viewBox="0 0 498.779021 460.67976" width="498.779021pt" xmlns="http://www.w3.org/2000/svg" xmlns:xlink="http://www.w3.org/1999/xlink">
 <metadata>
  <rdf:RDF xmlns:cc="http://creativecommons.org/ns#" xmlns:dc="http://purl.org/dc/elements/1.1/" xmlns:rdf="http://www.w3.org/1999/02/22-rdf-syntax-ns#">
   <cc:Work>
    <dc:type rdf:resource="http://purl.org/dc/dcmitype/StillImage"/>
    <dc:date>2021-11-08T15:44:41.737324</dc:date>
    <dc:format>image/svg+xml</dc:format>
    <dc:creator>
     <cc:Agent>
      <dc:title>Matplotlib v3.4.2, https://matplotlib.org/</dc:title>
     </cc:Agent>
    </dc:creator>
   </cc:Work>
  </rdf:RDF>
 </metadata>
 <defs>
  <style type="text/css">*{stroke-linecap:butt;stroke-linejoin:round;}</style>
 </defs>
 <g id="figure_1">
  <g id="patch_1">
   <path d="M 0 460.67976 
L 498.779021 460.67976 
L 498.779021 0 
L 0 0 
z
" style="fill:#ffffff;"/>
  </g>
  <g id="axes_1">
   <g id="patch_2">
    <path d="M 387.312731 255.906988 
C 387.312731 232.435893 382.689436 209.193024 373.707437 187.508559 
C 364.725438 165.824094 351.55941 146.119742 334.962839 129.523171 
C 318.366268 112.9266 298.661916 99.760572 276.977451 90.778573 
C 255.292986 81.796574 232.050117 77.173279 208.579022 77.173279 
C 185.107926 77.173279 161.865057 81.796574 140.180592 90.778573 
C 118.496127 99.760572 98.791775 112.9266 82.195204 129.523171 
C 65.598633 146.119742 52.432605 165.824094 43.450606 187.508559 
C 34.468607 209.193024 29.845313 232.435893 29.845313 255.906988 
C 29.845313 279.378084 34.468607 302.620953 43.450606 324.305418 
C 52.432605 345.989883 65.598633 365.694235 82.195204 382.290806 
C 98.791775 398.887377 118.496127 412.053405 140.180592 421.035404 
C 161.865057 430.017403 185.107926 434.640697 208.579022 434.640697 
C 232.050117 434.640697 255.292986 430.017403 276.977451 421.035404 
C 298.661916 412.053405 318.366268 398.887377 334.962839 382.290806 
C 351.55941 365.694235 364.725438 345.989883 373.707437 324.305418 
C 382.689436 302.620953 387.312731 279.378084 387.312731 255.906988 
M 208.579022 255.906988 
C 208.579022 255.906988 208.579022 255.906988 208.579022 255.906988 
C 208.579022 255.906988 208.579022 255.906988 208.579022 255.906988 
C 208.579022 255.906988 208.579022 255.906988 208.579022 255.906988 
C 208.579022 255.906988 208.579022 255.906988 208.579022 255.906988 
C 208.579022 255.906988 208.579022 255.906988 208.579022 255.906988 
C 208.579022 255.906988 208.579022 255.906988 208.579022 255.906988 
C 208.579022 255.906988 208.579022 255.906988 208.579022 255.906988 
C 208.579022 255.906988 208.579022 255.906988 208.579022 255.906988 
C 208.579022 255.906988 208.579022 255.906988 208.579022 255.906988 
C 208.579022 255.906988 208.579022 255.906988 208.579022 255.906988 
C 208.579022 255.906988 208.579022 255.906988 208.579022 255.906988 
C 208.579022 255.906988 208.579022 255.906988 208.579022 255.906988 
C 208.579022 255.906988 208.579022 255.906988 208.579022 255.906988 
C 208.579022 255.906988 208.579022 255.906988 208.579022 255.906988 
C 208.579022 255.906988 208.579022 255.906988 208.579022 255.906988 
C 208.579022 255.906988 208.579022 255.906988 208.579022 255.906988 
M 387.312731 255.906988 
z
" style="fill:#ffffff;"/>
   </g>
   <g id="matplotlib.axis_1">
    <g id="xtick_1">
     <g id="line2d_1">
      <path clip-path="url(#p65617e21de)" d="M 208.579022 255.906988 
L 208.579022 77.173279 
" style="fill:none;stroke:#b0b0b0;stroke-linecap:square;stroke-width:0.8;"/>
     </g>
     <g id="text_1">
      <!-- Jan -->
      <g transform="translate(200.871209 65.932654)scale(0.1 -0.1)">
       <defs>
        <path d="M 628 4666 
L 1259 4666 
L 1259 325 
Q 1259 -519 939 -900 
Q 619 -1281 -91 -1281 
L -331 -1281 
L -331 -750 
L -134 -750 
Q 284 -750 456 -515 
Q 628 -281 628 325 
L 628 4666 
z
" id="DejaVuSans-4a" transform="scale(0.015625)"/>
        <path d="M 2194 1759 
Q 1497 1759 1228 1600 
Q 959 1441 959 1056 
Q 959 750 1161 570 
Q 1363 391 1709 391 
Q 2188 391 2477 730 
Q 2766 1069 2766 1631 
L 2766 1759 
L 2194 1759 
z
M 3341 1997 
L 3341 0 
L 2766 0 
L 2766 531 
Q 2569 213 2275 61 
Q 1981 -91 1556 -91 
Q 1019 -91 701 211 
Q 384 513 384 1019 
Q 384 1609 779 1909 
Q 1175 2209 1959 2209 
L 2766 2209 
L 2766 2266 
Q 2766 2663 2505 2880 
Q 2244 3097 1772 3097 
Q 1472 3097 1187 3025 
Q 903 2953 641 2809 
L 641 3341 
Q 956 3463 1253 3523 
Q 1550 3584 1831 3584 
Q 2591 3584 2966 3190 
Q 3341 2797 3341 1997 
z
" id="DejaVuSans-61" transform="scale(0.015625)"/>
        <path d="M 3513 2113 
L 3513 0 
L 2938 0 
L 2938 2094 
Q 2938 2591 2744 2837 
Q 2550 3084 2163 3084 
Q 1697 3084 1428 2787 
Q 1159 2491 1159 1978 
L 1159 0 
L 581 0 
L 581 3500 
L 1159 3500 
L 1159 2956 
Q 1366 3272 1645 3428 
Q 1925 3584 2291 3584 
Q 2894 3584 3203 3211 
Q 3513 2838 3513 2113 
z
" id="DejaVuSans-6e" transform="scale(0.015625)"/>
       </defs>
       <use xlink:href="#DejaVuSans-4a"/>
       <use x="29.492188" xlink:href="#DejaVuSans-61"/>
       <use x="90.771484" xlink:href="#DejaVuSans-6e"/>
      </g>
     </g>
    </g>
    <g id="xtick_2">
     <g id="line2d_2">
      <path clip-path="url(#p65617e21de)" d="M 208.579022 255.906988 
L 297.945876 101.119056 
" style="fill:none;stroke:#b0b0b0;stroke-linecap:square;stroke-width:0.8;"/>
     </g>
     <g id="text_2">
      <!-- Feb -->
      <g transform="translate(296.094314 91.754075)scale(0.1 -0.1)">
       <defs>
        <path d="M 628 4666 
L 3309 4666 
L 3309 4134 
L 1259 4134 
L 1259 2759 
L 3109 2759 
L 3109 2228 
L 1259 2228 
L 1259 0 
L 628 0 
L 628 4666 
z
" id="DejaVuSans-46" transform="scale(0.015625)"/>
        <path d="M 3597 1894 
L 3597 1613 
L 953 1613 
Q 991 1019 1311 708 
Q 1631 397 2203 397 
Q 2534 397 2845 478 
Q 3156 559 3463 722 
L 3463 178 
Q 3153 47 2828 -22 
Q 2503 -91 2169 -91 
Q 1331 -91 842 396 
Q 353 884 353 1716 
Q 353 2575 817 3079 
Q 1281 3584 2069 3584 
Q 2775 3584 3186 3129 
Q 3597 2675 3597 1894 
z
M 3022 2063 
Q 3016 2534 2758 2815 
Q 2500 3097 2075 3097 
Q 1594 3097 1305 2825 
Q 1016 2553 972 2059 
L 3022 2063 
z
" id="DejaVuSans-65" transform="scale(0.015625)"/>
        <path d="M 3116 1747 
Q 3116 2381 2855 2742 
Q 2594 3103 2138 3103 
Q 1681 3103 1420 2742 
Q 1159 2381 1159 1747 
Q 1159 1113 1420 752 
Q 1681 391 2138 391 
Q 2594 391 2855 752 
Q 3116 1113 3116 1747 
z
M 1159 2969 
Q 1341 3281 1617 3432 
Q 1894 3584 2278 3584 
Q 2916 3584 3314 3078 
Q 3713 2572 3713 1747 
Q 3713 922 3314 415 
Q 2916 -91 2278 -91 
Q 1894 -91 1617 61 
Q 1341 213 1159 525 
L 1159 0 
L 581 0 
L 581 4863 
L 1159 4863 
L 1159 2969 
z
" id="DejaVuSans-62" transform="scale(0.015625)"/>
       </defs>
       <use xlink:href="#DejaVuSans-46"/>
       <use x="52.019531" xlink:href="#DejaVuSans-65"/>
       <use x="113.542969" xlink:href="#DejaVuSans-62"/>
      </g>
     </g>
    </g>
    <g id="xtick_3">
     <g id="line2d_3">
      <path clip-path="url(#p65617e21de)" d="M 208.579022 255.906988 
L 363.366954 166.540134 
" style="fill:none;stroke:#b0b0b0;stroke-linecap:square;stroke-width:0.8;"/>
     </g>
     <g id="text_3">
      <!-- Mar -->
      <g transform="translate(366.057716 162.299509)scale(0.1 -0.1)">
       <defs>
        <path d="M 628 4666 
L 1569 4666 
L 2759 1491 
L 3956 4666 
L 4897 4666 
L 4897 0 
L 4281 0 
L 4281 4097 
L 3078 897 
L 2444 897 
L 1241 4097 
L 1241 0 
L 628 0 
L 628 4666 
z
" id="DejaVuSans-4d" transform="scale(0.015625)"/>
        <path d="M 2631 2963 
Q 2534 3019 2420 3045 
Q 2306 3072 2169 3072 
Q 1681 3072 1420 2755 
Q 1159 2438 1159 1844 
L 1159 0 
L 581 0 
L 581 3500 
L 1159 3500 
L 1159 2956 
Q 1341 3275 1631 3429 
Q 1922 3584 2338 3584 
Q 2397 3584 2469 3576 
Q 2541 3569 2628 3553 
L 2631 2963 
z
" id="DejaVuSans-72" transform="scale(0.015625)"/>
       </defs>
       <use xlink:href="#DejaVuSans-4d"/>
       <use x="86.279297" xlink:href="#DejaVuSans-61"/>
       <use x="147.558594" xlink:href="#DejaVuSans-72"/>
      </g>
     </g>
    </g>
    <g id="xtick_4">
     <g id="line2d_4">
      <path clip-path="url(#p65617e21de)" d="M 208.579022 255.906988 
L 387.312731 255.906988 
" style="fill:none;stroke:#b0b0b0;stroke-linecap:square;stroke-width:0.8;"/>
     </g>
     <g id="text_4">
      <!-- Apr -->
      <g transform="translate(392.662731 258.666363)scale(0.1 -0.1)">
       <defs>
        <path d="M 2188 4044 
L 1331 1722 
L 3047 1722 
L 2188 4044 
z
M 1831 4666 
L 2547 4666 
L 4325 0 
L 3669 0 
L 3244 1197 
L 1141 1197 
L 716 0 
L 50 0 
L 1831 4666 
z
" id="DejaVuSans-41" transform="scale(0.015625)"/>
        <path d="M 1159 525 
L 1159 -1331 
L 581 -1331 
L 581 3500 
L 1159 3500 
L 1159 2969 
Q 1341 3281 1617 3432 
Q 1894 3584 2278 3584 
Q 2916 3584 3314 3078 
Q 3713 2572 3713 1747 
Q 3713 922 3314 415 
Q 2916 -91 2278 -91 
Q 1894 -91 1617 61 
Q 1341 213 1159 525 
z
M 3116 1747 
Q 3116 2381 2855 2742 
Q 2594 3103 2138 3103 
Q 1681 3103 1420 2742 
Q 1159 2381 1159 1747 
Q 1159 1113 1420 752 
Q 1681 391 2138 391 
Q 2594 391 2855 752 
Q 3116 1113 3116 1747 
z
" id="DejaVuSans-70" transform="scale(0.015625)"/>
       </defs>
       <use xlink:href="#DejaVuSans-41"/>
       <use x="68.408203" xlink:href="#DejaVuSans-70"/>
       <use x="131.884766" xlink:href="#DejaVuSans-72"/>
      </g>
     </g>
    </g>
    <g id="xtick_5">
     <g id="line2d_5">
      <path clip-path="url(#p65617e21de)" d="M 208.579022 255.906988 
L 363.366954 345.273843 
" style="fill:none;stroke:#b0b0b0;stroke-linecap:square;stroke-width:0.8;"/>
     </g>
     <g id="text_5">
      <!-- May -->
      <g transform="translate(365.15381 355.033218)scale(0.1 -0.1)">
       <defs>
        <path d="M 2059 -325 
Q 1816 -950 1584 -1140 
Q 1353 -1331 966 -1331 
L 506 -1331 
L 506 -850 
L 844 -850 
Q 1081 -850 1212 -737 
Q 1344 -625 1503 -206 
L 1606 56 
L 191 3500 
L 800 3500 
L 1894 763 
L 2988 3500 
L 3597 3500 
L 2059 -325 
z
" id="DejaVuSans-79" transform="scale(0.015625)"/>
       </defs>
       <use xlink:href="#DejaVuSans-4d"/>
       <use x="86.279297" xlink:href="#DejaVuSans-61"/>
       <use x="147.558594" xlink:href="#DejaVuSans-79"/>
      </g>
     </g>
    </g>
    <g id="xtick_6">
     <g id="line2d_6">
      <path clip-path="url(#p65617e21de)" d="M 208.579022 255.906988 
L 297.945876 410.694921 
" style="fill:none;stroke:#b0b0b0;stroke-linecap:square;stroke-width:0.8;"/>
     </g>
     <g id="text_6">
      <!-- Jun -->
      <g transform="translate(297.133376 425.578652)scale(0.1 -0.1)">
       <defs>
        <path d="M 544 1381 
L 544 3500 
L 1119 3500 
L 1119 1403 
Q 1119 906 1312 657 
Q 1506 409 1894 409 
Q 2359 409 2629 706 
Q 2900 1003 2900 1516 
L 2900 3500 
L 3475 3500 
L 3475 0 
L 2900 0 
L 2900 538 
Q 2691 219 2414 64 
Q 2138 -91 1772 -91 
Q 1169 -91 856 284 
Q 544 659 544 1381 
z
M 1991 3584 
L 1991 3584 
z
" id="DejaVuSans-75" transform="scale(0.015625)"/>
       </defs>
       <use xlink:href="#DejaVuSans-4a"/>
       <use x="29.492188" xlink:href="#DejaVuSans-75"/>
       <use x="92.871094" xlink:href="#DejaVuSans-6e"/>
      </g>
     </g>
    </g>
    <g id="xtick_7">
     <g id="line2d_7">
      <path clip-path="url(#p65617e21de)" d="M 208.579022 255.906988 
L 208.579022 434.640697 
" style="fill:none;stroke:#b0b0b0;stroke-linecap:square;stroke-width:0.8;"/>
     </g>
     <g id="text_7">
      <!-- Jul -->
      <g transform="translate(202.546209 451.400072)scale(0.1 -0.1)">
       <defs>
        <path d="M 603 4863 
L 1178 4863 
L 1178 0 
L 603 0 
L 603 4863 
z
" id="DejaVuSans-6c" transform="scale(0.015625)"/>
       </defs>
       <use xlink:href="#DejaVuSans-4a"/>
       <use x="29.492188" xlink:href="#DejaVuSans-75"/>
       <use x="92.871094" xlink:href="#DejaVuSans-6c"/>
      </g>
     </g>
    </g>
    <g id="xtick_8">
     <g id="line2d_8">
      <path clip-path="url(#p65617e21de)" d="M 208.579022 255.906988 
L 119.212167 410.694921 
" style="fill:none;stroke:#b0b0b0;stroke-linecap:square;stroke-width:0.8;"/>
     </g>
     <g id="text_8">
      <!-- Aug -->
      <g transform="translate(102.448886 425.578652)scale(0.1 -0.1)">
       <defs>
        <path d="M 2906 1791 
Q 2906 2416 2648 2759 
Q 2391 3103 1925 3103 
Q 1463 3103 1205 2759 
Q 947 2416 947 1791 
Q 947 1169 1205 825 
Q 1463 481 1925 481 
Q 2391 481 2648 825 
Q 2906 1169 2906 1791 
z
M 3481 434 
Q 3481 -459 3084 -895 
Q 2688 -1331 1869 -1331 
Q 1566 -1331 1297 -1286 
Q 1028 -1241 775 -1147 
L 775 -588 
Q 1028 -725 1275 -790 
Q 1522 -856 1778 -856 
Q 2344 -856 2625 -561 
Q 2906 -266 2906 331 
L 2906 616 
Q 2728 306 2450 153 
Q 2172 0 1784 0 
Q 1141 0 747 490 
Q 353 981 353 1791 
Q 353 2603 747 3093 
Q 1141 3584 1784 3584 
Q 2172 3584 2450 3431 
Q 2728 3278 2906 2969 
L 2906 3500 
L 3481 3500 
L 3481 434 
z
" id="DejaVuSans-67" transform="scale(0.015625)"/>
       </defs>
       <use xlink:href="#DejaVuSans-41"/>
       <use x="68.408203" xlink:href="#DejaVuSans-75"/>
       <use x="131.787109" xlink:href="#DejaVuSans-67"/>
      </g>
     </g>
    </g>
    <g id="xtick_9">
     <g id="line2d_9">
      <path clip-path="url(#p65617e21de)" d="M 208.579022 255.906988 
L 53.791089 345.273843 
" style="fill:none;stroke:#b0b0b0;stroke-linecap:square;stroke-width:0.8;"/>
     </g>
     <g id="text_9">
      <!-- Sept -->
      <g transform="translate(30.281577 355.033218)scale(0.1 -0.1)">
       <defs>
        <path d="M 3425 4513 
L 3425 3897 
Q 3066 4069 2747 4153 
Q 2428 4238 2131 4238 
Q 1616 4238 1336 4038 
Q 1056 3838 1056 3469 
Q 1056 3159 1242 3001 
Q 1428 2844 1947 2747 
L 2328 2669 
Q 3034 2534 3370 2195 
Q 3706 1856 3706 1288 
Q 3706 609 3251 259 
Q 2797 -91 1919 -91 
Q 1588 -91 1214 -16 
Q 841 59 441 206 
L 441 856 
Q 825 641 1194 531 
Q 1563 422 1919 422 
Q 2459 422 2753 634 
Q 3047 847 3047 1241 
Q 3047 1584 2836 1778 
Q 2625 1972 2144 2069 
L 1759 2144 
Q 1053 2284 737 2584 
Q 422 2884 422 3419 
Q 422 4038 858 4394 
Q 1294 4750 2059 4750 
Q 2388 4750 2728 4690 
Q 3069 4631 3425 4513 
z
" id="DejaVuSans-53" transform="scale(0.015625)"/>
        <path d="M 1172 4494 
L 1172 3500 
L 2356 3500 
L 2356 3053 
L 1172 3053 
L 1172 1153 
Q 1172 725 1289 603 
Q 1406 481 1766 481 
L 2356 481 
L 2356 0 
L 1766 0 
Q 1100 0 847 248 
Q 594 497 594 1153 
L 594 3053 
L 172 3053 
L 172 3500 
L 594 3500 
L 594 4494 
L 1172 4494 
z
" id="DejaVuSans-74" transform="scale(0.015625)"/>
       </defs>
       <use xlink:href="#DejaVuSans-53"/>
       <use x="63.476562" xlink:href="#DejaVuSans-65"/>
       <use x="125" xlink:href="#DejaVuSans-70"/>
       <use x="188.476562" xlink:href="#DejaVuSans-74"/>
      </g>
     </g>
    </g>
    <g id="xtick_10">
     <g id="line2d_10">
      <path clip-path="url(#p65617e21de)" d="M 208.579022 255.906988 
L 29.845313 255.906988 
" style="fill:none;stroke:#b0b0b0;stroke-linecap:square;stroke-width:0.8;"/>
     </g>
     <g id="text_10">
      <!-- Oct -->
      <g transform="translate(7.2 258.666363)scale(0.1 -0.1)">
       <defs>
        <path d="M 2522 4238 
Q 1834 4238 1429 3725 
Q 1025 3213 1025 2328 
Q 1025 1447 1429 934 
Q 1834 422 2522 422 
Q 3209 422 3611 934 
Q 4013 1447 4013 2328 
Q 4013 3213 3611 3725 
Q 3209 4238 2522 4238 
z
M 2522 4750 
Q 3503 4750 4090 4092 
Q 4678 3434 4678 2328 
Q 4678 1225 4090 567 
Q 3503 -91 2522 -91 
Q 1538 -91 948 565 
Q 359 1222 359 2328 
Q 359 3434 948 4092 
Q 1538 4750 2522 4750 
z
" id="DejaVuSans-4f" transform="scale(0.015625)"/>
        <path d="M 3122 3366 
L 3122 2828 
Q 2878 2963 2633 3030 
Q 2388 3097 2138 3097 
Q 1578 3097 1268 2742 
Q 959 2388 959 1747 
Q 959 1106 1268 751 
Q 1578 397 2138 397 
Q 2388 397 2633 464 
Q 2878 531 3122 666 
L 3122 134 
Q 2881 22 2623 -34 
Q 2366 -91 2075 -91 
Q 1284 -91 818 406 
Q 353 903 353 1747 
Q 353 2603 823 3093 
Q 1294 3584 2113 3584 
Q 2378 3584 2631 3529 
Q 2884 3475 3122 3366 
z
" id="DejaVuSans-63" transform="scale(0.015625)"/>
       </defs>
       <use xlink:href="#DejaVuSans-4f"/>
       <use x="78.710938" xlink:href="#DejaVuSans-63"/>
       <use x="133.691406" xlink:href="#DejaVuSans-74"/>
      </g>
     </g>
    </g>
    <g id="xtick_11">
     <g id="line2d_11">
      <path clip-path="url(#p65617e21de)" d="M 208.579022 255.906988 
L 53.791089 166.540134 
" style="fill:none;stroke:#b0b0b0;stroke-linecap:square;stroke-width:0.8;"/>
     </g>
     <g id="text_11">
      <!-- Nov -->
      <g transform="translate(31.907358 162.299509)scale(0.1 -0.1)">
       <defs>
        <path d="M 628 4666 
L 1478 4666 
L 3547 763 
L 3547 4666 
L 4159 4666 
L 4159 0 
L 3309 0 
L 1241 3903 
L 1241 0 
L 628 0 
L 628 4666 
z
" id="DejaVuSans-4e" transform="scale(0.015625)"/>
        <path d="M 1959 3097 
Q 1497 3097 1228 2736 
Q 959 2375 959 1747 
Q 959 1119 1226 758 
Q 1494 397 1959 397 
Q 2419 397 2687 759 
Q 2956 1122 2956 1747 
Q 2956 2369 2687 2733 
Q 2419 3097 1959 3097 
z
M 1959 3584 
Q 2709 3584 3137 3096 
Q 3566 2609 3566 1747 
Q 3566 888 3137 398 
Q 2709 -91 1959 -91 
Q 1206 -91 779 398 
Q 353 888 353 1747 
Q 353 2609 779 3096 
Q 1206 3584 1959 3584 
z
" id="DejaVuSans-6f" transform="scale(0.015625)"/>
        <path d="M 191 3500 
L 800 3500 
L 1894 563 
L 2988 3500 
L 3597 3500 
L 2284 0 
L 1503 0 
L 191 3500 
z
" id="DejaVuSans-76" transform="scale(0.015625)"/>
       </defs>
       <use xlink:href="#DejaVuSans-4e"/>
       <use x="74.804688" xlink:href="#DejaVuSans-6f"/>
       <use x="135.986328" xlink:href="#DejaVuSans-76"/>
      </g>
     </g>
    </g>
    <g id="xtick_12">
     <g id="line2d_12">
      <path clip-path="url(#p65617e21de)" d="M 208.579022 255.906988 
L 119.212167 101.119056 
" style="fill:none;stroke:#b0b0b0;stroke-linecap:square;stroke-width:0.8;"/>
     </g>
     <g id="text_12">
      <!-- Dec -->
      <g transform="translate(102.536386 91.754075)scale(0.1 -0.1)">
       <defs>
        <path d="M 1259 4147 
L 1259 519 
L 2022 519 
Q 2988 519 3436 956 
Q 3884 1394 3884 2338 
Q 3884 3275 3436 3711 
Q 2988 4147 2022 4147 
L 1259 4147 
z
M 628 4666 
L 1925 4666 
Q 3281 4666 3915 4102 
Q 4550 3538 4550 2338 
Q 4550 1131 3912 565 
Q 3275 0 1925 0 
L 628 0 
L 628 4666 
z
" id="DejaVuSans-44" transform="scale(0.015625)"/>
       </defs>
       <use xlink:href="#DejaVuSans-44"/>
       <use x="77.001953" xlink:href="#DejaVuSans-65"/>
       <use x="138.525391" xlink:href="#DejaVuSans-63"/>
      </g>
     </g>
    </g>
   </g>
   <g id="matplotlib.axis_2">
    <g id="ytick_1">
     <g id="line2d_13">
      <path clip-path="url(#p65617e21de)" d="M 208.579022 221.702199 
C 213.070753 221.702199 217.518809 222.586972 221.668628 224.305883 
C 225.818447 226.024795 229.589326 228.544416 232.76546 231.72055 
C 235.941594 234.896684 238.461215 238.667563 240.180127 242.817382 
C 241.899038 246.967201 242.783811 251.415257 242.783811 255.906988 
C 242.783811 260.39872 241.899038 264.846776 240.180127 268.996595 
C 238.461215 273.146414 235.941594 276.917293 232.76546 280.093427 
C 229.589326 283.269561 225.818447 285.789182 221.668628 287.508094 
C 217.518809 289.227005 213.070753 290.111778 208.579022 290.111778 
C 204.08729 290.111778 199.639234 289.227005 195.489415 287.508094 
C 191.339596 285.789182 187.568717 283.269561 184.392583 280.093427 
C 181.216449 276.917293 178.696828 273.146414 176.977916 268.996595 
C 175.259005 264.846776 174.374232 260.39872 174.374232 255.906988 
C 174.374232 251.415257 175.259005 246.967201 176.977916 242.817382 
C 178.696828 238.667563 181.216449 234.896684 184.392583 231.72055 
C 187.568717 228.544416 191.339596 226.024795 195.489415 224.305883 
C 199.639234 222.586972 204.08729 221.702199 208.579022 221.702199 
" style="fill:none;stroke:#b0b0b0;stroke-linecap:square;stroke-width:0.8;"/>
     </g>
     <g id="text_13">
      <!-- 1000 -->
      <g transform="translate(208.579022 288.032091)scale(0.1 -0.1)">
       <defs>
        <path d="M 794 531 
L 1825 531 
L 1825 4091 
L 703 3866 
L 703 4441 
L 1819 4666 
L 2450 4666 
L 2450 531 
L 3481 531 
L 3481 0 
L 794 0 
L 794 531 
z
" id="DejaVuSans-31" transform="scale(0.015625)"/>
        <path d="M 2034 4250 
Q 1547 4250 1301 3770 
Q 1056 3291 1056 2328 
Q 1056 1369 1301 889 
Q 1547 409 2034 409 
Q 2525 409 2770 889 
Q 3016 1369 3016 2328 
Q 3016 3291 2770 3770 
Q 2525 4250 2034 4250 
z
M 2034 4750 
Q 2819 4750 3233 4129 
Q 3647 3509 3647 2328 
Q 3647 1150 3233 529 
Q 2819 -91 2034 -91 
Q 1250 -91 836 529 
Q 422 1150 422 2328 
Q 422 3509 836 4129 
Q 1250 4750 2034 4750 
z
" id="DejaVuSans-30" transform="scale(0.015625)"/>
       </defs>
       <use xlink:href="#DejaVuSans-31"/>
       <use x="63.623047" xlink:href="#DejaVuSans-30"/>
       <use x="127.246094" xlink:href="#DejaVuSans-30"/>
       <use x="190.869141" xlink:href="#DejaVuSans-30"/>
      </g>
     </g>
    </g>
    <g id="ytick_2">
     <g id="line2d_14">
      <path clip-path="url(#p65617e21de)" d="M 208.579022 187.497409 
C 217.562485 187.497409 226.458596 189.266955 234.758234 192.704778 
C 243.057873 196.142601 250.599631 201.181843 256.951899 207.534111 
C 263.304167 213.886379 268.343409 221.428137 271.781232 229.727776 
C 275.219055 238.027414 276.988601 246.923525 276.988601 255.906988 
C 276.988601 264.890452 275.219055 273.786563 271.781232 282.086201 
C 268.343409 290.38584 263.304167 297.927598 256.951899 304.279866 
C 250.599631 310.632134 243.057873 315.671376 234.758234 319.109199 
C 226.458596 322.547022 217.562485 324.316568 208.579022 324.316568 
C 199.595558 324.316568 190.699447 322.547022 182.399809 319.109199 
C 174.10017 315.671376 166.558412 310.632134 160.206144 304.279866 
C 153.853876 297.927598 148.814634 290.38584 145.376811 282.086201 
C 141.938988 273.786563 140.169442 264.890452 140.169442 255.906988 
C 140.169442 246.923525 141.938988 238.027414 145.376811 229.727776 
C 148.814634 221.428137 153.853876 213.886379 160.206144 207.534111 
C 166.558412 201.181843 174.10017 196.142601 182.399809 192.704778 
C 190.699447 189.266955 199.595558 187.497409 208.579022 187.497409 
" style="fill:none;stroke:#b0b0b0;stroke-linecap:square;stroke-width:0.8;"/>
     </g>
     <g id="text_14">
      <!-- 2000 -->
      <g transform="translate(208.579022 322.236881)scale(0.1 -0.1)">
       <defs>
        <path d="M 1228 531 
L 3431 531 
L 3431 0 
L 469 0 
L 469 531 
Q 828 903 1448 1529 
Q 2069 2156 2228 2338 
Q 2531 2678 2651 2914 
Q 2772 3150 2772 3378 
Q 2772 3750 2511 3984 
Q 2250 4219 1831 4219 
Q 1534 4219 1204 4116 
Q 875 4013 500 3803 
L 500 4441 
Q 881 4594 1212 4672 
Q 1544 4750 1819 4750 
Q 2544 4750 2975 4387 
Q 3406 4025 3406 3419 
Q 3406 3131 3298 2873 
Q 3191 2616 2906 2266 
Q 2828 2175 2409 1742 
Q 1991 1309 1228 531 
z
" id="DejaVuSans-32" transform="scale(0.015625)"/>
       </defs>
       <use xlink:href="#DejaVuSans-32"/>
       <use x="63.623047" xlink:href="#DejaVuSans-30"/>
       <use x="127.246094" xlink:href="#DejaVuSans-30"/>
       <use x="190.869141" xlink:href="#DejaVuSans-30"/>
      </g>
     </g>
    </g>
    <g id="ytick_3">
     <g id="line2d_15">
      <path clip-path="url(#p65617e21de)" d="M 208.579022 153.292619 
C 222.054217 153.292619 235.398383 155.946939 247.847841 161.103673 
C 260.297298 166.260407 271.609936 173.81927 281.138338 183.347672 
C 290.66674 192.876074 298.225603 204.188712 303.382337 216.638169 
C 308.539071 229.087627 311.193391 242.431793 311.193391 255.906988 
C 311.193391 269.382184 308.539071 282.72635 303.382337 295.175808 
C 298.225603 307.625265 290.66674 318.937903 281.138338 328.466305 
C 271.609936 337.994707 260.297298 345.55357 247.847841 350.710304 
C 235.398383 355.867038 222.054217 358.521358 208.579022 358.521358 
C 195.103826 358.521358 181.75966 355.867038 169.310202 350.710304 
C 156.860745 345.55357 145.548107 337.994707 136.019705 328.466305 
C 126.491303 318.937903 118.93244 307.625265 113.775706 295.175808 
C 108.618972 282.72635 105.964652 269.382184 105.964652 255.906988 
C 105.964652 242.431793 108.618972 229.087627 113.775706 216.638169 
C 118.93244 204.188712 126.491303 192.876074 136.019705 183.347672 
C 145.548107 173.81927 156.860745 166.260407 169.310202 161.103673 
C 181.75966 155.946939 195.103826 153.292619 208.579022 153.292619 
" style="fill:none;stroke:#b0b0b0;stroke-linecap:square;stroke-width:0.8;"/>
     </g>
     <g id="text_15">
      <!-- 3000 -->
      <g transform="translate(208.579022 356.441671)scale(0.1 -0.1)">
       <defs>
        <path d="M 2597 2516 
Q 3050 2419 3304 2112 
Q 3559 1806 3559 1356 
Q 3559 666 3084 287 
Q 2609 -91 1734 -91 
Q 1441 -91 1130 -33 
Q 819 25 488 141 
L 488 750 
Q 750 597 1062 519 
Q 1375 441 1716 441 
Q 2309 441 2620 675 
Q 2931 909 2931 1356 
Q 2931 1769 2642 2001 
Q 2353 2234 1838 2234 
L 1294 2234 
L 1294 2753 
L 1863 2753 
Q 2328 2753 2575 2939 
Q 2822 3125 2822 3475 
Q 2822 3834 2567 4026 
Q 2313 4219 1838 4219 
Q 1578 4219 1281 4162 
Q 984 4106 628 3988 
L 628 4550 
Q 988 4650 1302 4700 
Q 1616 4750 1894 4750 
Q 2613 4750 3031 4423 
Q 3450 4097 3450 3541 
Q 3450 3153 3228 2886 
Q 3006 2619 2597 2516 
z
" id="DejaVuSans-33" transform="scale(0.015625)"/>
       </defs>
       <use xlink:href="#DejaVuSans-33"/>
       <use x="63.623047" xlink:href="#DejaVuSans-30"/>
       <use x="127.246094" xlink:href="#DejaVuSans-30"/>
       <use x="190.869141" xlink:href="#DejaVuSans-30"/>
      </g>
     </g>
    </g>
    <g id="ytick_4">
     <g id="line2d_16">
      <path clip-path="url(#p65617e21de)" d="M 208.579022 119.087829 
C 226.545949 119.087829 244.338171 122.626922 260.937447 129.502567 
C 277.536724 136.378213 292.620241 146.456697 305.324777 159.161233 
C 318.029313 171.865769 328.107797 186.949286 334.983443 203.548563 
C 341.859088 220.147839 345.398181 237.940061 345.398181 255.906988 
C 345.398181 273.873916 341.859088 291.666138 334.983443 308.265414 
C 328.107797 324.864691 318.029313 339.948208 305.324777 352.652744 
C 292.620241 365.35728 277.536724 375.435764 260.937447 382.31141 
C 244.338171 389.187055 226.545949 392.726148 208.579022 392.726148 
C 190.612094 392.726148 172.819872 389.187055 156.220596 382.31141 
C 139.621319 375.435764 124.537802 365.35728 111.833266 352.652744 
C 99.12873 339.948208 89.050246 324.864691 82.1746 308.265414 
C 75.298955 291.666138 71.759862 273.873916 71.759862 255.906988 
C 71.759862 237.940061 75.298955 220.147839 82.1746 203.548563 
C 89.050246 186.949286 99.12873 171.865769 111.833266 159.161233 
C 124.537802 146.456697 139.621319 136.378213 156.220596 129.502567 
C 172.819872 122.626922 190.612094 119.087829 208.579022 119.087829 
" style="fill:none;stroke:#b0b0b0;stroke-linecap:square;stroke-width:0.8;"/>
     </g>
     <g id="text_16">
      <!-- 4000 -->
      <g transform="translate(208.579022 390.64646)scale(0.1 -0.1)">
       <defs>
        <path d="M 2419 4116 
L 825 1625 
L 2419 1625 
L 2419 4116 
z
M 2253 4666 
L 3047 4666 
L 3047 1625 
L 3713 1625 
L 3713 1100 
L 3047 1100 
L 3047 0 
L 2419 0 
L 2419 1100 
L 313 1100 
L 313 1709 
L 2253 4666 
z
" id="DejaVuSans-34" transform="scale(0.015625)"/>
       </defs>
       <use xlink:href="#DejaVuSans-34"/>
       <use x="63.623047" xlink:href="#DejaVuSans-30"/>
       <use x="127.246094" xlink:href="#DejaVuSans-30"/>
       <use x="190.869141" xlink:href="#DejaVuSans-30"/>
      </g>
     </g>
    </g>
    <g id="ytick_5">
     <g id="line2d_17">
      <path clip-path="url(#p65617e21de)" d="M 208.579022 84.883039 
C 231.037681 84.883039 253.277958 89.306905 274.027053 97.901462 
C 294.776149 106.496019 313.630546 119.094124 329.511216 134.974794 
C 345.391886 150.855464 357.989991 169.709861 366.584548 190.458957 
C 375.179105 211.208052 379.602971 233.448329 379.602971 255.906988 
C 379.602971 278.365648 375.179105 300.605925 366.584548 321.35502 
C 357.989991 342.104116 345.391886 360.958513 329.511216 376.839183 
C 313.630546 392.719853 294.776149 405.317958 274.027053 413.912515 
C 253.277958 422.507072 231.037681 426.930938 208.579022 426.930938 
C 186.120362 426.930938 163.880085 422.507072 143.13099 413.912515 
C 122.381894 405.317958 103.527497 392.719853 87.646827 376.839183 
C 71.766157 360.958513 59.168052 342.104116 50.573495 321.35502 
C 41.978938 300.605925 37.555072 278.365648 37.555072 255.906988 
C 37.555072 233.448329 41.978938 211.208052 50.573495 190.458957 
C 59.168052 169.709861 71.766157 150.855464 87.646827 134.974794 
C 103.527497 119.094124 122.381894 106.496019 143.13099 97.901462 
C 163.880085 89.306905 186.120362 84.883039 208.579022 84.883039 
" style="fill:none;stroke:#b0b0b0;stroke-linecap:square;stroke-width:0.8;"/>
     </g>
     <g id="text_17">
      <!-- 5000 -->
      <g transform="translate(208.579022 424.85125)scale(0.1 -0.1)">
       <defs>
        <path d="M 691 4666 
L 3169 4666 
L 3169 4134 
L 1269 4134 
L 1269 2991 
Q 1406 3038 1543 3061 
Q 1681 3084 1819 3084 
Q 2600 3084 3056 2656 
Q 3513 2228 3513 1497 
Q 3513 744 3044 326 
Q 2575 -91 1722 -91 
Q 1428 -91 1123 -41 
Q 819 9 494 109 
L 494 744 
Q 775 591 1075 516 
Q 1375 441 1709 441 
Q 2250 441 2565 725 
Q 2881 1009 2881 1497 
Q 2881 1984 2565 2268 
Q 2250 2553 1709 2553 
Q 1456 2553 1204 2497 
Q 953 2441 691 2322 
L 691 4666 
z
" id="DejaVuSans-35" transform="scale(0.015625)"/>
       </defs>
       <use xlink:href="#DejaVuSans-35"/>
       <use x="63.623047" xlink:href="#DejaVuSans-30"/>
       <use x="127.246094" xlink:href="#DejaVuSans-30"/>
       <use x="190.869141" xlink:href="#DejaVuSans-30"/>
      </g>
     </g>
    </g>
   </g>
   <g id="line2d_18">
    <path clip-path="url(#p65617e21de)" d="M 208.579022 161.262335 
L 220.246919 159.813211 
L 231.875643 161.388879 
L 243.329138 164.278461 
L 254.009099 169.347207 
L 263.586867 176.214366 
L 274.356738 181.659295 
L 283.569192 189.471495 
L 286.188544 202.337003 
L 292.170692 212.034695 
L 294.482765 223.327996 
L 297.816605 233.9119 
L 296.387682 245.245087 
L 293.133262 255.906988 
L 296.285816 266.556521 
L 294.296253 277.034389 
L 290.772849 287.078996 
L 285.386441 296.218632 
L 284.218045 308.116837 
L 273.22572 313.178966 
L 264.94372 319.529581 
L 258.457206 328.168013 
L 248.350209 331.684655 
L 237.34945 331.768373 
L 229.329877 340.096521 
L 219.216186 343.511916 
L 208.579022 346.652296 
L 198.275815 340.761529 
L 188.581254 337.041122 
L 180.512086 329.913415 
L 172.19363 325.233559 
L 162.314917 322.932115 
L 152.690645 318.991925 
L 150.281781 307.553837 
L 140.568645 302.851162 
L 134.891146 294.581369 
L 127.888349 286.508924 
L 122.430048 277.140803 
L 123.758436 266.206072 
L 119.714977 255.906988 
L 122.230443 245.422373 
L 123.725272 234.992418 
L 125.137895 224.261943 
L 131.075005 215.229743 
L 137.021746 206.514568 
L 144.085939 198.771103 
L 150.921451 190.825045 
L 155.417077 178.888615 
L 163.562234 170.134665 
L 173.731871 164.022605 
L 185.413372 161.920252 
L 196.688486 157.979619 
L 208.579022 156.131616 
" style="fill:none;stroke:#1f77b4;stroke-dasharray:0.5,0.825;stroke-dashoffset:0;stroke-width:0.5;"/>
   </g>
   <g id="line2d_19">
    <path clip-path="url(#p65617e21de)" d="M 208.579022 156.131616 
L 220.201566 160.18672 
L 230.058409 168.76169 
L 240.357488 172.114059 
L 251.942651 173.284496 
L 260.555703 180.605765 
L 268.028468 188.802435 
L 276.451654 195.777083 
L 284.189895 203.716571 
L 290.777498 212.7659 
L 295.794029 222.830699 
L 297.783394 233.920085 
L 301.582858 244.614278 
L 297.237837 255.906988 
L 298.628738 266.841004 
L 298.049081 277.959377 
L 291.444472 287.333709 
L 285.598449 296.329902 
L 281.937896 306.542963 
L 273.891389 313.768697 
L 266.236592 320.988932 
L 256.708457 325.634514 
L 247.984607 330.988058 
L 238.768565 335.510271 
L 228.331217 336.044796 
L 219.030654 341.983924 
L 208.579022 345.694562 
L 198.218094 341.236905 
L 189.252485 334.317831 
L 179.092971 333.655313 
L 169.062166 331.200066 
L 162.80068 322.228365 
L 153.802061 317.737395 
L 147.619105 309.912762 
L 139.386346 303.667244 
L 132.256192 295.9643 
L 132.46178 284.77445 
L 127.312045 275.937499 
L 120.532673 266.597751 
L 123.956371 255.906988 
L 122.434176 245.44711 
L 123.858115 235.025161 
L 123.570775 223.667613 
L 128.228042 213.735541 
L 136.317997 206.028804 
L 139.682283 194.869804 
L 146.43042 185.75572 
L 154.523272 177.593716 
L 164.293438 171.52786 
L 173.222445 162.679359 
L 185.552529 162.484837 
L 196.935862 160.016943 
L 208.579022 155.686954 
" style="fill:none;stroke:#ff7f0e;stroke-dasharray:0.5,0.825;stroke-dashoffset:0;stroke-width:0.5;"/>
   </g>
   <g id="line2d_20">
    <path clip-path="url(#p65617e21de)" d="M 208.579022 155.686954 
L 220.011911 161.748669 
L 231.376313 163.414741 
L 242.40732 166.709095 
L 253.325582 170.649542 
L 267.531266 170.499918 
L 278.64363 176.820394 
L 286.283073 187.067206 
L 294.746142 196.43012 
L 297.955478 208.998605 
L 301.039082 220.841513 
L 302.134016 232.847753 
L 303.416449 244.39164 
L 304.523457 255.906988 
L 302.194055 267.273912 
L 301.10448 278.712466 
L 297.265202 289.54122 
L 287.59738 297.379022 
L 283.260946 307.456199 
L 273.532952 313.451149 
L 270.432757 325.725423 
L 258.282331 327.914663 
L 249.669557 334.198463 
L 239.605478 337.717032 
L 229.649121 341.391744 
L 219.13785 342.866764 
L 208.579022 346.173429 
L 198.477839 339.097715 
L 188.753154 336.343693 
L 177.540435 337.749014 
L 170.874282 327.747367 
L 162.742389 322.312815 
L 150.785359 321.142548 
L 143.701899 313.383103 
L 141.863545 301.957357 
L 131.650455 296.282215 
L 129.455469 285.914594 
L 129.205064 275.470912 
L 118.93677 266.791529 
L 122.280337 255.906988 
L 117.544598 244.853408 
L 120.038866 234.0838 
L 127.920331 225.317182 
L 128.44005 213.846812 
L 132.827398 203.619418 
L 138.709382 194.007889 
L 146.725286 186.088554 
L 155.51423 179.029365 
L 164.515979 171.951876 
L 173.270962 162.807287 
L 185.167799 160.923926 
L 196.197857 153.938927 
L 208.579022 155.105473 
" style="fill:none;stroke:#2ca02c;stroke-dasharray:0.5,0.825;stroke-dashoffset:0;stroke-width:0.5;"/>
   </g>
   <g id="line2d_21">
    <path clip-path="url(#p65617e21de)" d="M 208.579022 155.105473 
L 221.104488 152.750488 
L 233.226291 155.909087 
L 245.961172 157.338359 
L 259.318282 159.231404 
L 269.649194 167.431569 
L 277.37344 178.254142 
L 290.78914 183.075179 
L 297.81449 194.312192 
L 308.313577 203.562256 
L 305.772423 219.046393 
L 309.473617 231.038704 
L 312.720229 243.261957 
L 310.304067 255.906988 
L 312.448585 268.519037 
L 303.528873 279.310025 
L 295.794029 288.983278 
L 286.113325 296.60013 
L 283.232796 307.436768 
L 274.403442 314.222336 
L 265.261267 319.888018 
L 259.117844 329.125113 
L 249.542391 333.956168 
L 238.877727 335.79811 
L 229.36262 340.229364 
L 218.857491 340.557797 
L 208.579022 342.547721 
L 198.432486 339.471224 
L 188.212895 338.53561 
L 175.53912 343.026049 
L 169.062166 331.200066 
L 162.159473 323.157315 
L 153.189648 318.428667 
L 147.081449 310.389083 
L 140.005645 303.239772 
L 133.558526 295.280782 
L 134.668541 283.937537 
L 125.618291 276.354972 
L 128.138683 265.674214 
L 120.467483 255.906988 
L 120.159164 245.170874 
L 124.123802 235.090647 
L 122.899152 223.4129 
L 133.80082 216.660361 
L 138.119596 207.272359 
L 142.754601 197.591641 
L 150.399765 190.236184 
L 155.281063 178.691565 
L 167.281841 177.221785 
L 177.164431 173.07352 
L 185.765359 163.348319 
L 197.22859 162.427777 
L 208.579022 161.29654 
" style="fill:none;stroke:#d62728;stroke-dasharray:0.5,0.825;stroke-dashoffset:0;stroke-width:0.5;"/>
   </g>
   <g id="line2d_22">
    <path clip-path="url(#p65617e21de)" d="M 208.579022 161.29654 
L 220.201566 160.18672 
L 231.007955 164.90923 
L 241.449115 169.235676 
L 251.624735 173.890233 
L 264.0532 175.538766 
L 271.997813 184.321971 
L 279.063125 193.463522 
L 284.949945 203.191946 
L 292.261553 211.987008 
L 297.169256 222.309144 
L 296.986333 234.116543 
L 299.919043 244.816302 
L 301.171388 255.906988 
L 296.591414 266.593628 
L 295.226157 277.263589 
L 292.052131 287.564163 
L 285.144146 296.091466 
L 282.275696 306.77613 
L 275.657972 315.333753 
L 266.622186 321.424177 
L 257.369096 326.591614 
L 248.302522 331.593795 
L 238.028684 333.559367 
L 228.568603 337.007911 
L 218.816261 340.218243 
L 208.579022 346.652296 
L 197.98721 343.138407 
L 185.585272 349.196297 
L 176.327517 340.947217 
L 168.82373 331.654369 
L 159.225462 327.407964 
L 153.620605 317.942216 
L 145.135648 312.112913 
L 133.193348 307.941962 
L 128.924639 297.712833 
L 127.696457 286.581699 
L 122.430048 277.140803 
L 124.267767 266.144228 
L 118.312581 255.906988 
L 119.785655 245.125522 
L 120.703084 234.247515 
L 126.64105 224.832015 
L 128.409763 213.830916 
L 133.981547 204.41607 
L 137.429249 192.873791 
L 145.591188 184.808422 
L 154.523272 177.593716 
L 162.989986 169.044339 
L 171.014934 156.858629 
L 182.965835 151.990205 
L 196.366897 155.331098 
L 208.579022 144.570397 
" style="fill:none;stroke:#9467bd;stroke-dasharray:0.5,0.825;stroke-dashoffset:0;stroke-width:0.5;"/>
   </g>
   <g id="line2d_23">
    <path clip-path="url(#p65617e21de)" d="M 208.579022 144.570397 
L 222.451072 139.441999 
L 235.710609 143.629034 
L 248.513801 148.395583 
L 260.465031 154.816755 
L 271.101691 163.081503 
L 282.512471 170.11728 
L 293.90678 177.847638 
L 297.704575 191.957194 
L 305.091872 202.699506 
L 306.396653 216.236139 
L 309.280242 228.390329 
L 312.910469 240.332111 
L 305.643774 253.029373 
L 306.972245 264.678552 
L 305.411548 276.289491 
L 300.247388 286.898013 
L 291.152168 295.242304 
L 287.858153 305.955775 
L 280.851055 314.550041 
L 269.714951 318.882235 
L 263.788576 328.226614 
L 253.716971 332.334451 
L 245.532877 339.797323 
L 234.142767 339.620821 
L 223.989631 341.652763 
L 214.349962 353.151143 
L 203.336949 344.239372 
L 193.047402 342.326071 
L 183.125163 339.260973 
L 174.245029 333.849874 
L 164.328177 330.832408 
L 156.088434 324.665008 
L 148.562885 317.728752 
L 141.45979 310.368949 
L 135.981203 301.737873 
L 128.321875 294.139032 
L 123.261662 284.75088 
L 118.775472 274.809945 
L 115.159971 264.235114 
L 116.608545 253.1804 
L 116.832301 242.210793 
L 115.136736 230.373836 
L 119.066063 219.604176 
L 127.941966 211.451823 
L 136.350361 204.081134 
L 137.762787 191.123038 
L 147.820062 185.404483 
L 155.858959 177.635132 
L 164.15885 169.36255 
L 174.26584 163.529906 
L 187.754303 169.728588 
L 196.766135 156.730036 
L 208.579022 147.37519 
" style="fill:none;stroke:#8c564b;stroke-linecap:square;"/>
   </g>
   <g id="line2d_24">
    <path clip-path="url(#p65617e21de)" d="M 208.579022 147.37519 
L 221.257037 151.494138 
L 233.643764 154.215333 
L 247.404545 153.532497 
L 257.90356 161.926932 
L 267.570127 170.443618 
L 277.237348 178.407758 
L 293.554226 180.625526 
L 298.23674 194.020734 
L 304.012846 205.819454 
L 306.50801 218.767422 
L 309.141508 231.120562 
L 311.701567 243.385645 
L 311.535439 255.906988 
L 302.533609 267.315141 
L 299.9421 278.425965 
L 296.273759 289.165216 
L 291.988971 299.683907 
L 291.677793 313.265929 
L 276.963707 316.490534 
L 270.115209 325.366986 
L 260.691717 331.405262 
L 249.701349 334.259037 
L 240.357488 339.699918 
L 229.837394 342.155594 
L 219.335751 344.496623 
L 208.579022 348.020488 
L 197.74808 345.10782 
L 186.043674 347.336488 
L 177.746632 337.205319 
L 168.839625 331.624082 
L 158.875712 327.914663 
L 150.331719 321.654601 
L 139.426256 317.170993 
L 135.642397 306.251505 
L 130.317834 296.981628 
L 121.427979 288.959019 
L 125.551869 276.371344 
L 118.087885 266.894602 
L 116.80757 255.906988 
L 108.953882 243.810307 
L 117.448419 233.445312 
L 114.295985 220.150149 
L 125.865669 212.495672 
L 126.60625 199.32527 
L 134.280123 190.083908 
L 142.619849 181.454474 
L 151.278373 172.892667 
L 160.224124 163.774429 
L 170.6268 155.835204 
L 183.432422 153.883224 
L 194.853781 142.869467 
L 208.579022 133.864298 
" style="fill:none;stroke:#e377c2;stroke-linecap:square;"/>
   </g>
   <g id="line2d_25">
    <path clip-path="url(#p65617e21de)" d="M 208.579022 133.864298 
L 223.574125 132.411204 
L 237.122704 140.100717 
L 252.559449 139.940133 
L 265.390462 147.661832 
L 275.536646 158.902122 
L 286.083317 168.422724 
L 293.78465 180.421388 
L 297.307791 194.661941 
L 301.075023 207.361342 
L 299.503944 221.423714 
L 300.838793 233.166997 
L 305.351907 244.156633 
L 303.121061 255.906988 
L 303.993691 267.492427 
L 298.680087 278.114907 
L 297.425112 289.601866 
L 292.443274 299.922344 
L 287.455294 310.351348 
L 280.292052 319.43919 
L 271.453446 326.877542 
L 261.060897 331.940112 
L 250.289492 335.37965 
L 240.636459 340.435505 
L 230.082966 343.15192 
L 219.673831 347.280966 
L 208.579022 348.157307 
L 198.189233 341.474593 
L 186.690347 344.71283 
L 177.394885 338.132798 
L 168.680668 331.92695 
L 156.952089 330.701512 
L 150.966815 320.937727 
L 143.42027 313.632605 
L 136.064647 305.960047 
L 130.74185 296.759088 
L 122.003655 288.740694 
L 118.411534 278.131278 
L 117.952063 266.911094 
L 118.244171 255.906988 
L 114.760256 244.515328 
L 118.710432 233.756371 
L 122.995098 223.449288 
L 126.017103 212.575151 
L 129.843499 201.559781 
L 133.921686 189.766361 
L 142.415712 181.22405 
L 152.502497 174.666117 
L 160.462561 164.228732 
L 169.547302 152.988803 
L 183.375122 153.650748 
L 195.439238 147.691134 
L 208.579022 141.560376 
" style="fill:none;stroke:#7f7f7f;stroke-linecap:square;"/>
   </g>
   <g id="line2d_26">
    <path clip-path="url(#p65617e21de)" d="M 208.579022 141.560376 
L 222.427949 141.850805 
L 236.115858 144.185653 
L 248.872176 149.662671 
L 262.672288 152.840881 
L 276.838492 157.016073 
L 291.595036 162.201279 
L 303.078413 172.187833 
L 319.405533 179.408971 
L 332.51276 190.861545 
L 327.967955 210.628738 
L 322.492274 227.829893 
L 318.085181 242.610533 
L 312.561583 255.906988 
L 305.691461 267.698574 
L 300.240997 278.499636 
L 293.747178 288.20701 
L 288.687706 297.95127 
L 282.923146 307.223032 
L 275.299535 315.016205 
L 269.230612 324.368482 
L 262.518187 334.051361 
L 251.163758 337.045426 
L 239.593349 337.68505 
L 229.870136 342.288438 
L 219.37698 344.836177 
L 208.579022 349.149246 
L 197.566671 346.601858 
L 186.444775 345.709156 
L 175.017565 344.401277 
L 164.706728 339.498659 
L 155.242202 333.178712 
L 149.492487 322.601899 
L 141.704892 315.152297 
L 137.443996 305.007951 
L 129.439516 297.442605 
L 127.376637 286.702991 
L 118.710432 278.057606 
L 117.035267 267.022413 
L 112.600381 255.906988 
L 114.862122 244.527697 
L 117.614474 233.486241 
L 123.155008 223.509934 
L 123.321575 211.160428 
L 129.815349 201.540351 
L 137.890097 193.282066 
L 143.731266 182.709004 
L 152.094455 174.074967 
L 161.40041 166.015655 
L 171.985268 159.417192 
L 183.68618 154.912761 
L 196.618396 157.402378 
L 208.579022 151.171922 
" style="fill:none;stroke:#bcbd22;stroke-linecap:square;"/>
   </g>
   <g id="line2d_27">
    <path clip-path="url(#p65617e21de)" d="M 208.579022 151.171922 
L 222.028025 145.144479 
L 234.38048 151.226355 
L 247.137703 154.236102 
L 258.475807 160.836606 
L 270.426415 166.30557 
L 282.386156 172.595956 
L 291.019564 182.871041 
L 294.858741 196.352398 
L 304.648869 205.485643 
L 311.721081 216.790365 
L 309.639671 230.997776 
L 310.886637 243.484595 
L 307.704503 255.906988 
L 307.117588 267.871737 
L 309.407195 280.758901 
L 303.117914 291.760861 
L 293.563887 300.510487 
L 286.610794 309.768432 
L 280.804105 319.892829 
L 273.744325 329.46341 
L 261.624383 332.756462 
L 252.038025 338.711202 
L 240.684976 340.563433 
L 230.615039 345.310626 
L 220.271656 352.204498 
L 208.579022 349.115041 
L 197.195607 349.657844 
L 187.410693 341.790275 
L 172.118689 352.044983 
L 165.167705 338.620341 
L 157.496144 329.913313 
L 149.311031 322.80672 
L 141.576879 315.265707 
L 130.237599 309.982168 
L 131.256726 296.48886 
L 124.082487 287.952297 
L 122.895001 277.026203 
L 115.16772 267.249174 
L 115.644607 255.906988 
L 109.700901 243.901011 
L 112.964953 232.340237 
L 116.88653 221.132613 
L 122.079814 210.508702 
L 123.706801 197.323925 
L 130.234904 186.500157 
L 140.011423 178.510169 
L 149.413042 170.190268 
L 160.605623 164.501314 
L 170.238666 154.811779 
L 181.950803 147.872058 
L 196.094784 153.090042 
L 208.579022 149.769526 
" style="fill:none;stroke:#17becf;stroke-linecap:square;"/>
   </g>
   <g id="line2d_28">
    <path clip-path="url(#p65617e21de)" d="M 208.579022 149.769526 
L 222.188114 141.649705 
L 233.943079 150.943559 
L 244.85738 158.239306 
L 257.997244 159.624779 
L 269.649453 165.237596 
L 279.989221 173.045168 
L 283.256584 187.590627 
L 294.675363 194.130729 
L 301.647124 204.598594 
L 310.580686 214.539266 
L 327.82352 223.323368 
L 359.392768 233.393109 
L 382.433994 250.752824 
L 378.314145 271.038543 
L 352.773465 286.25881 
L 335.275138 298.740112 
L 313.046096 305.671899 
L 295.031165 310.484085 
L 282.338462 315.756954 
L 274.575328 323.888841 
L 265.28297 330.184138 
L 255.230266 334.896759 
L 245.656976 340.079044 
L 235.511362 344.10257 
L 224.667287 345.423287 
L 213.924436 345.980752 
L 203.272107 345.332003 
L 193.283371 341.01312 
L 181.876445 343.35016 
L 171.818208 339.35909 
L 162.623545 333.718686 
L 141.974714 343.152732 
L 140.533732 325.999469 
L 135.935136 314.851769 
L 130.717138 305.061068 
L 123.906034 296.242603 
L 120.410189 285.714899 
L 111.813438 276.2754 
L 106.301855 265.024798 
L 105.257541 252.843884 
L 99.579046 239.635181 
L 94.811719 224.820015 
L 91.711359 208.510222 
L 101.072932 196.638939 
L 109.087446 184.519316 
L 124.412185 178.90967 
L 132.546586 167.681692 
L 141.126386 155.762134 
L 152.116672 145.900609 
L 162.022191 130.567864 
L 177.510662 127.337593 
L 191.980298 116.549784 
L 208.579022 114.162339 
" style="fill:none;stroke:#d62728;stroke-linecap:square;stroke-width:2.5;"/>
   </g>
   <g id="line2d_29">
    <path clip-path="url(#p65617e21de)" d="M 208.579022 114.162339 
L 224.953226 125.171557 
L 241.157912 127.888494 
L 254.991444 137.578768 
L 268.323267 146.126749 
L 279.427589 157.291585 
L 290.622262 167.412688 
L 292.576358 185.356382 
L 297.763205 198.236643 
L 308.552023 207.686789 
L 307.221538 222.689859 
L 310.618442 235.199455 
L 316.971193 247.694762 
L 316.604866 261.202169 
L 314.267084 274.438446 
L 311.373612 287.499606 
L 305.995458 299.734871 
L 296.201004 309.312016 
L 289.286302 320.106709 
L 280.036456 328.978698 
L 266.635819 332.335437 
L 260.167938 344.966326 
L 247.02003 346.71831 
L 235.305942 350.33084 
L 222.354068 346.292739 
L 211.122022 351.338681 
L 199.09191 352.446736 
L 186.903649 351.686953 
L 176.285713 345.162937 
L 163.391853 344.47959 
L 151.812622 339.535707 
L 144.636807 328.672336 
L 134.604924 321.477712 
L 126.126561 312.394809 
L 121.843389 300.628451 
L 109.700241 292.163878 
L 111.893373 278.225151 
L 110.685926 265.952634 
L 104.041065 253.571485 
L 105.277066 240.618071 
L 108.604018 228.072956 
L 106.937185 213.396221 
L 108.854245 198.711717 
" style="fill:none;stroke:#2ca02c;stroke-linecap:square;stroke-width:3;"/>
   </g>
   <g id="patch_3">
    <path d="M 208.579022 77.173279 
C 185.107926 77.173279 161.865057 81.796574 140.180592 90.778573 
C 118.496127 99.760572 98.791775 112.9266 82.195204 129.523171 
C 65.598633 146.119742 52.432605 165.824094 43.450606 187.508559 
C 34.468607 209.193024 29.845313 232.435893 29.845313 255.906988 
C 29.845313 279.378084 34.468607 302.620953 43.450606 324.305418 
C 52.432605 345.989883 65.598633 365.694235 82.195204 382.290806 
C 98.791775 398.887377 118.496127 412.053405 140.180592 421.035404 
C 161.865057 430.017403 185.107926 434.640697 208.579022 434.640697 
C 232.050117 434.640697 255.292986 430.017403 276.977451 421.035404 
C 298.661916 412.053405 318.366268 398.887377 334.962839 382.290806 
C 351.55941 365.694235 364.725438 345.989883 373.707437 324.305418 
C 382.689436 302.620953 387.312731 279.378084 387.312731 255.906988 
C 387.312731 232.435893 382.689436 209.193024 373.707437 187.508559 
C 364.725438 165.824094 351.55941 146.119742 334.962839 129.523171 
C 318.366268 112.9266 298.661916 99.760572 276.977451 90.778573 
C 255.292986 81.796574 232.050117 77.173279 208.579022 77.173279 
" style="fill:none;stroke:#000000;stroke-linecap:square;stroke-linejoin:miter;stroke-width:0.8;"/>
   </g>
   <g id="text_18">
    <!-- Totaal mannen en vrouwen, Totaal leeftijd -->
    <g transform="translate(104.208709 35.426538)scale(0.1 -0.1)">
     <defs>
      <path d="M -19 4666 
L 3928 4666 
L 3928 4134 
L 2272 4134 
L 2272 0 
L 1638 0 
L 1638 4134 
L -19 4134 
L -19 4666 
z
" id="DejaVuSans-54" transform="scale(0.015625)"/>
      <path id="DejaVuSans-20" transform="scale(0.015625)"/>
      <path d="M 3328 2828 
Q 3544 3216 3844 3400 
Q 4144 3584 4550 3584 
Q 5097 3584 5394 3201 
Q 5691 2819 5691 2113 
L 5691 0 
L 5113 0 
L 5113 2094 
Q 5113 2597 4934 2840 
Q 4756 3084 4391 3084 
Q 3944 3084 3684 2787 
Q 3425 2491 3425 1978 
L 3425 0 
L 2847 0 
L 2847 2094 
Q 2847 2600 2669 2842 
Q 2491 3084 2119 3084 
Q 1678 3084 1418 2786 
Q 1159 2488 1159 1978 
L 1159 0 
L 581 0 
L 581 3500 
L 1159 3500 
L 1159 2956 
Q 1356 3278 1631 3431 
Q 1906 3584 2284 3584 
Q 2666 3584 2933 3390 
Q 3200 3197 3328 2828 
z
" id="DejaVuSans-6d" transform="scale(0.015625)"/>
      <path d="M 269 3500 
L 844 3500 
L 1563 769 
L 2278 3500 
L 2956 3500 
L 3675 769 
L 4391 3500 
L 4966 3500 
L 4050 0 
L 3372 0 
L 2619 2869 
L 1863 0 
L 1184 0 
L 269 3500 
z
" id="DejaVuSans-77" transform="scale(0.015625)"/>
      <path d="M 750 794 
L 1409 794 
L 1409 256 
L 897 -744 
L 494 -744 
L 750 256 
L 750 794 
z
" id="DejaVuSans-2c" transform="scale(0.015625)"/>
      <path d="M 2375 4863 
L 2375 4384 
L 1825 4384 
Q 1516 4384 1395 4259 
Q 1275 4134 1275 3809 
L 1275 3500 
L 2222 3500 
L 2222 3053 
L 1275 3053 
L 1275 0 
L 697 0 
L 697 3053 
L 147 3053 
L 147 3500 
L 697 3500 
L 697 3744 
Q 697 4328 969 4595 
Q 1241 4863 1831 4863 
L 2375 4863 
z
" id="DejaVuSans-66" transform="scale(0.015625)"/>
      <path d="M 603 3500 
L 1178 3500 
L 1178 0 
L 603 0 
L 603 3500 
z
M 603 4863 
L 1178 4863 
L 1178 4134 
L 603 4134 
L 603 4863 
z
" id="DejaVuSans-69" transform="scale(0.015625)"/>
      <path d="M 603 3500 
L 1178 3500 
L 1178 -63 
Q 1178 -731 923 -1031 
Q 669 -1331 103 -1331 
L -116 -1331 
L -116 -844 
L 38 -844 
Q 366 -844 484 -692 
Q 603 -541 603 -63 
L 603 3500 
z
M 603 4863 
L 1178 4863 
L 1178 4134 
L 603 4134 
L 603 4863 
z
" id="DejaVuSans-6a" transform="scale(0.015625)"/>
      <path d="M 2906 2969 
L 2906 4863 
L 3481 4863 
L 3481 0 
L 2906 0 
L 2906 525 
Q 2725 213 2448 61 
Q 2172 -91 1784 -91 
Q 1150 -91 751 415 
Q 353 922 353 1747 
Q 353 2572 751 3078 
Q 1150 3584 1784 3584 
Q 2172 3584 2448 3432 
Q 2725 3281 2906 2969 
z
M 947 1747 
Q 947 1113 1208 752 
Q 1469 391 1925 391 
Q 2381 391 2643 752 
Q 2906 1113 2906 1747 
Q 2906 2381 2643 2742 
Q 2381 3103 1925 3103 
Q 1469 3103 1208 2742 
Q 947 2381 947 1747 
z
" id="DejaVuSans-64" transform="scale(0.015625)"/>
     </defs>
     <use xlink:href="#DejaVuSans-54"/>
     <use x="44.083984" xlink:href="#DejaVuSans-6f"/>
     <use x="105.265625" xlink:href="#DejaVuSans-74"/>
     <use x="144.474609" xlink:href="#DejaVuSans-61"/>
     <use x="205.753906" xlink:href="#DejaVuSans-61"/>
     <use x="267.033203" xlink:href="#DejaVuSans-6c"/>
     <use x="294.816406" xlink:href="#DejaVuSans-20"/>
     <use x="326.603516" xlink:href="#DejaVuSans-6d"/>
     <use x="424.015625" xlink:href="#DejaVuSans-61"/>
     <use x="485.294922" xlink:href="#DejaVuSans-6e"/>
     <use x="548.673828" xlink:href="#DejaVuSans-6e"/>
     <use x="612.052734" xlink:href="#DejaVuSans-65"/>
     <use x="673.576172" xlink:href="#DejaVuSans-6e"/>
     <use x="736.955078" xlink:href="#DejaVuSans-20"/>
     <use x="768.742188" xlink:href="#DejaVuSans-65"/>
     <use x="830.265625" xlink:href="#DejaVuSans-6e"/>
     <use x="893.644531" xlink:href="#DejaVuSans-20"/>
     <use x="925.431641" xlink:href="#DejaVuSans-76"/>
     <use x="984.611328" xlink:href="#DejaVuSans-72"/>
     <use x="1023.474609" xlink:href="#DejaVuSans-6f"/>
     <use x="1084.65625" xlink:href="#DejaVuSans-75"/>
     <use x="1148.035156" xlink:href="#DejaVuSans-77"/>
     <use x="1229.822266" xlink:href="#DejaVuSans-65"/>
     <use x="1291.345703" xlink:href="#DejaVuSans-6e"/>
     <use x="1354.724609" xlink:href="#DejaVuSans-2c"/>
     <use x="1386.511719" xlink:href="#DejaVuSans-20"/>
     <use x="1418.298828" xlink:href="#DejaVuSans-54"/>
     <use x="1462.382812" xlink:href="#DejaVuSans-6f"/>
     <use x="1523.564453" xlink:href="#DejaVuSans-74"/>
     <use x="1562.773438" xlink:href="#DejaVuSans-61"/>
     <use x="1624.052734" xlink:href="#DejaVuSans-61"/>
     <use x="1685.332031" xlink:href="#DejaVuSans-6c"/>
     <use x="1713.115234" xlink:href="#DejaVuSans-20"/>
     <use x="1744.902344" xlink:href="#DejaVuSans-6c"/>
     <use x="1772.685547" xlink:href="#DejaVuSans-65"/>
     <use x="1834.208984" xlink:href="#DejaVuSans-65"/>
     <use x="1895.732422" xlink:href="#DejaVuSans-66"/>
     <use x="1929.1875" xlink:href="#DejaVuSans-74"/>
     <use x="1968.396484" xlink:href="#DejaVuSans-69"/>
     <use x="1996.179688" xlink:href="#DejaVuSans-6a"/>
     <use x="2023.962891" xlink:href="#DejaVuSans-64"/>
    </g>
   </g>
  </g>
  <g id="text_19">
   <!-- Deaths in the Netherlands per week (2010-2021) -->
   <g transform="translate(36.239022 17.837812)scale(0.14 -0.14)">
    <defs>
     <path d="M 3513 2113 
L 3513 0 
L 2938 0 
L 2938 2094 
Q 2938 2591 2744 2837 
Q 2550 3084 2163 3084 
Q 1697 3084 1428 2787 
Q 1159 2491 1159 1978 
L 1159 0 
L 581 0 
L 581 4863 
L 1159 4863 
L 1159 2956 
Q 1366 3272 1645 3428 
Q 1925 3584 2291 3584 
Q 2894 3584 3203 3211 
Q 3513 2838 3513 2113 
z
" id="DejaVuSans-68" transform="scale(0.015625)"/>
     <path d="M 2834 3397 
L 2834 2853 
Q 2591 2978 2328 3040 
Q 2066 3103 1784 3103 
Q 1356 3103 1142 2972 
Q 928 2841 928 2578 
Q 928 2378 1081 2264 
Q 1234 2150 1697 2047 
L 1894 2003 
Q 2506 1872 2764 1633 
Q 3022 1394 3022 966 
Q 3022 478 2636 193 
Q 2250 -91 1575 -91 
Q 1294 -91 989 -36 
Q 684 19 347 128 
L 347 722 
Q 666 556 975 473 
Q 1284 391 1588 391 
Q 1994 391 2212 530 
Q 2431 669 2431 922 
Q 2431 1156 2273 1281 
Q 2116 1406 1581 1522 
L 1381 1569 
Q 847 1681 609 1914 
Q 372 2147 372 2553 
Q 372 3047 722 3315 
Q 1072 3584 1716 3584 
Q 2034 3584 2315 3537 
Q 2597 3491 2834 3397 
z
" id="DejaVuSans-73" transform="scale(0.015625)"/>
     <path d="M 581 4863 
L 1159 4863 
L 1159 1991 
L 2875 3500 
L 3609 3500 
L 1753 1863 
L 3688 0 
L 2938 0 
L 1159 1709 
L 1159 0 
L 581 0 
L 581 4863 
z
" id="DejaVuSans-6b" transform="scale(0.015625)"/>
     <path d="M 1984 4856 
Q 1566 4138 1362 3434 
Q 1159 2731 1159 2009 
Q 1159 1288 1364 580 
Q 1569 -128 1984 -844 
L 1484 -844 
Q 1016 -109 783 600 
Q 550 1309 550 2009 
Q 550 2706 781 3412 
Q 1013 4119 1484 4856 
L 1984 4856 
z
" id="DejaVuSans-28" transform="scale(0.015625)"/>
     <path d="M 313 2009 
L 1997 2009 
L 1997 1497 
L 313 1497 
L 313 2009 
z
" id="DejaVuSans-2d" transform="scale(0.015625)"/>
     <path d="M 513 4856 
L 1013 4856 
Q 1481 4119 1714 3412 
Q 1947 2706 1947 2009 
Q 1947 1309 1714 600 
Q 1481 -109 1013 -844 
L 513 -844 
Q 928 -128 1133 580 
Q 1338 1288 1338 2009 
Q 1338 2731 1133 3434 
Q 928 4138 513 4856 
z
" id="DejaVuSans-29" transform="scale(0.015625)"/>
    </defs>
    <use xlink:href="#DejaVuSans-44"/>
    <use x="77.001953" xlink:href="#DejaVuSans-65"/>
    <use x="138.525391" xlink:href="#DejaVuSans-61"/>
    <use x="199.804688" xlink:href="#DejaVuSans-74"/>
    <use x="239.013672" xlink:href="#DejaVuSans-68"/>
    <use x="302.392578" xlink:href="#DejaVuSans-73"/>
    <use x="354.492188" xlink:href="#DejaVuSans-20"/>
    <use x="386.279297" xlink:href="#DejaVuSans-69"/>
    <use x="414.0625" xlink:href="#DejaVuSans-6e"/>
    <use x="477.441406" xlink:href="#DejaVuSans-20"/>
    <use x="509.228516" xlink:href="#DejaVuSans-74"/>
    <use x="548.4375" xlink:href="#DejaVuSans-68"/>
    <use x="611.816406" xlink:href="#DejaVuSans-65"/>
    <use x="673.339844" xlink:href="#DejaVuSans-20"/>
    <use x="705.126953" xlink:href="#DejaVuSans-4e"/>
    <use x="779.931641" xlink:href="#DejaVuSans-65"/>
    <use x="841.455078" xlink:href="#DejaVuSans-74"/>
    <use x="880.664062" xlink:href="#DejaVuSans-68"/>
    <use x="944.042969" xlink:href="#DejaVuSans-65"/>
    <use x="1005.566406" xlink:href="#DejaVuSans-72"/>
    <use x="1046.679688" xlink:href="#DejaVuSans-6c"/>
    <use x="1074.462891" xlink:href="#DejaVuSans-61"/>
    <use x="1135.742188" xlink:href="#DejaVuSans-6e"/>
    <use x="1199.121094" xlink:href="#DejaVuSans-64"/>
    <use x="1262.597656" xlink:href="#DejaVuSans-73"/>
    <use x="1314.697266" xlink:href="#DejaVuSans-20"/>
    <use x="1346.484375" xlink:href="#DejaVuSans-70"/>
    <use x="1409.960938" xlink:href="#DejaVuSans-65"/>
    <use x="1471.484375" xlink:href="#DejaVuSans-72"/>
    <use x="1512.597656" xlink:href="#DejaVuSans-20"/>
    <use x="1544.384766" xlink:href="#DejaVuSans-77"/>
    <use x="1626.171875" xlink:href="#DejaVuSans-65"/>
    <use x="1687.695312" xlink:href="#DejaVuSans-65"/>
    <use x="1749.21875" xlink:href="#DejaVuSans-6b"/>
    <use x="1807.128906" xlink:href="#DejaVuSans-20"/>
    <use x="1838.916016" xlink:href="#DejaVuSans-28"/>
    <use x="1877.929688" xlink:href="#DejaVuSans-32"/>
    <use x="1941.552734" xlink:href="#DejaVuSans-30"/>
    <use x="2005.175781" xlink:href="#DejaVuSans-31"/>
    <use x="2068.798828" xlink:href="#DejaVuSans-30"/>
    <use x="2132.421875" xlink:href="#DejaVuSans-2d"/>
    <use x="2168.505859" xlink:href="#DejaVuSans-32"/>
    <use x="2232.128906" xlink:href="#DejaVuSans-30"/>
    <use x="2295.751953" xlink:href="#DejaVuSans-32"/>
    <use x="2359.375" xlink:href="#DejaVuSans-31"/>
    <use x="2422.998047" xlink:href="#DejaVuSans-29"/>
   </g>
  </g>
  <g id="legend_1">
   <g id="patch_4">
    <path d="M 434.329022 455.67976 
L 491.779021 455.67976 
Q 493.779021 455.67976 493.779021 453.67976 
L 493.779021 278.54226 
Q 493.779021 276.54226 491.779021 276.54226 
L 434.329022 276.54226 
Q 432.329022 276.54226 432.329022 278.54226 
L 432.329022 453.67976 
Q 432.329022 455.67976 434.329022 455.67976 
z
" style="fill:#ffffff;opacity:0.8;stroke:#cccccc;stroke-linejoin:miter;"/>
   </g>
   <g id="line2d_30">
    <path d="M 436.329022 284.640697 
L 456.329022 284.640697 
" style="fill:none;stroke:#1f77b4;stroke-dasharray:0.5,0.825;stroke-dashoffset:0;stroke-width:0.5;"/>
   </g>
   <g id="line2d_31"/>
   <g id="text_20">
    <!-- 2010 -->
    <g transform="translate(464.329022 288.140697)scale(0.1 -0.1)">
     <use xlink:href="#DejaVuSans-32"/>
     <use x="63.623047" xlink:href="#DejaVuSans-30"/>
     <use x="127.246094" xlink:href="#DejaVuSans-31"/>
     <use x="190.869141" xlink:href="#DejaVuSans-30"/>
    </g>
   </g>
   <g id="line2d_32">
    <path d="M 436.329022 299.318823 
L 456.329022 299.318823 
" style="fill:none;stroke:#ff7f0e;stroke-dasharray:0.5,0.825;stroke-dashoffset:0;stroke-width:0.5;"/>
   </g>
   <g id="line2d_33"/>
   <g id="text_21">
    <!-- 2011 -->
    <g transform="translate(464.329022 302.818823)scale(0.1 -0.1)">
     <use xlink:href="#DejaVuSans-32"/>
     <use x="63.623047" xlink:href="#DejaVuSans-30"/>
     <use x="127.246094" xlink:href="#DejaVuSans-31"/>
     <use x="190.869141" xlink:href="#DejaVuSans-31"/>
    </g>
   </g>
   <g id="line2d_34">
    <path d="M 436.329022 313.996948 
L 456.329022 313.996948 
" style="fill:none;stroke:#2ca02c;stroke-dasharray:0.5,0.825;stroke-dashoffset:0;stroke-width:0.5;"/>
   </g>
   <g id="line2d_35"/>
   <g id="text_22">
    <!-- 2012 -->
    <g transform="translate(464.329022 317.496948)scale(0.1 -0.1)">
     <use xlink:href="#DejaVuSans-32"/>
     <use x="63.623047" xlink:href="#DejaVuSans-30"/>
     <use x="127.246094" xlink:href="#DejaVuSans-31"/>
     <use x="190.869141" xlink:href="#DejaVuSans-32"/>
    </g>
   </g>
   <g id="line2d_36">
    <path d="M 436.329022 328.675073 
L 456.329022 328.675073 
" style="fill:none;stroke:#d62728;stroke-dasharray:0.5,0.825;stroke-dashoffset:0;stroke-width:0.5;"/>
   </g>
   <g id="line2d_37"/>
   <g id="text_23">
    <!-- 2013 -->
    <g transform="translate(464.329022 332.175073)scale(0.1 -0.1)">
     <use xlink:href="#DejaVuSans-32"/>
     <use x="63.623047" xlink:href="#DejaVuSans-30"/>
     <use x="127.246094" xlink:href="#DejaVuSans-31"/>
     <use x="190.869141" xlink:href="#DejaVuSans-33"/>
    </g>
   </g>
   <g id="line2d_38">
    <path d="M 436.329022 343.353198 
L 456.329022 343.353198 
" style="fill:none;stroke:#9467bd;stroke-dasharray:0.5,0.825;stroke-dashoffset:0;stroke-width:0.5;"/>
   </g>
   <g id="line2d_39"/>
   <g id="text_24">
    <!-- 2014 -->
    <g transform="translate(464.329022 346.853198)scale(0.1 -0.1)">
     <use xlink:href="#DejaVuSans-32"/>
     <use x="63.623047" xlink:href="#DejaVuSans-30"/>
     <use x="127.246094" xlink:href="#DejaVuSans-31"/>
     <use x="190.869141" xlink:href="#DejaVuSans-34"/>
    </g>
   </g>
   <g id="line2d_40">
    <path d="M 436.329022 358.031323 
L 456.329022 358.031323 
" style="fill:none;stroke:#8c564b;stroke-linecap:square;"/>
   </g>
   <g id="line2d_41"/>
   <g id="text_25">
    <!-- 2015 -->
    <g transform="translate(464.329022 361.531323)scale(0.1 -0.1)">
     <use xlink:href="#DejaVuSans-32"/>
     <use x="63.623047" xlink:href="#DejaVuSans-30"/>
     <use x="127.246094" xlink:href="#DejaVuSans-31"/>
     <use x="190.869141" xlink:href="#DejaVuSans-35"/>
    </g>
   </g>
   <g id="line2d_42">
    <path d="M 436.329022 372.709448 
L 456.329022 372.709448 
" style="fill:none;stroke:#e377c2;stroke-linecap:square;"/>
   </g>
   <g id="line2d_43"/>
   <g id="text_26">
    <!-- 2016 -->
    <g transform="translate(464.329022 376.209448)scale(0.1 -0.1)">
     <defs>
      <path d="M 2113 2584 
Q 1688 2584 1439 2293 
Q 1191 2003 1191 1497 
Q 1191 994 1439 701 
Q 1688 409 2113 409 
Q 2538 409 2786 701 
Q 3034 994 3034 1497 
Q 3034 2003 2786 2293 
Q 2538 2584 2113 2584 
z
M 3366 4563 
L 3366 3988 
Q 3128 4100 2886 4159 
Q 2644 4219 2406 4219 
Q 1781 4219 1451 3797 
Q 1122 3375 1075 2522 
Q 1259 2794 1537 2939 
Q 1816 3084 2150 3084 
Q 2853 3084 3261 2657 
Q 3669 2231 3669 1497 
Q 3669 778 3244 343 
Q 2819 -91 2113 -91 
Q 1303 -91 875 529 
Q 447 1150 447 2328 
Q 447 3434 972 4092 
Q 1497 4750 2381 4750 
Q 2619 4750 2861 4703 
Q 3103 4656 3366 4563 
z
" id="DejaVuSans-36" transform="scale(0.015625)"/>
     </defs>
     <use xlink:href="#DejaVuSans-32"/>
     <use x="63.623047" xlink:href="#DejaVuSans-30"/>
     <use x="127.246094" xlink:href="#DejaVuSans-31"/>
     <use x="190.869141" xlink:href="#DejaVuSans-36"/>
    </g>
   </g>
   <g id="line2d_44">
    <path d="M 436.329022 387.387573 
L 456.329022 387.387573 
" style="fill:none;stroke:#7f7f7f;stroke-linecap:square;"/>
   </g>
   <g id="line2d_45"/>
   <g id="text_27">
    <!-- 2017 -->
    <g transform="translate(464.329022 390.887573)scale(0.1 -0.1)">
     <defs>
      <path d="M 525 4666 
L 3525 4666 
L 3525 4397 
L 1831 0 
L 1172 0 
L 2766 4134 
L 525 4134 
L 525 4666 
z
" id="DejaVuSans-37" transform="scale(0.015625)"/>
     </defs>
     <use xlink:href="#DejaVuSans-32"/>
     <use x="63.623047" xlink:href="#DejaVuSans-30"/>
     <use x="127.246094" xlink:href="#DejaVuSans-31"/>
     <use x="190.869141" xlink:href="#DejaVuSans-37"/>
    </g>
   </g>
   <g id="line2d_46">
    <path d="M 436.329022 402.065697 
L 456.329022 402.065697 
" style="fill:none;stroke:#bcbd22;stroke-linecap:square;"/>
   </g>
   <g id="line2d_47"/>
   <g id="text_28">
    <!-- 2018 -->
    <g transform="translate(464.329022 405.565697)scale(0.1 -0.1)">
     <defs>
      <path d="M 2034 2216 
Q 1584 2216 1326 1975 
Q 1069 1734 1069 1313 
Q 1069 891 1326 650 
Q 1584 409 2034 409 
Q 2484 409 2743 651 
Q 3003 894 3003 1313 
Q 3003 1734 2745 1975 
Q 2488 2216 2034 2216 
z
M 1403 2484 
Q 997 2584 770 2862 
Q 544 3141 544 3541 
Q 544 4100 942 4425 
Q 1341 4750 2034 4750 
Q 2731 4750 3128 4425 
Q 3525 4100 3525 3541 
Q 3525 3141 3298 2862 
Q 3072 2584 2669 2484 
Q 3125 2378 3379 2068 
Q 3634 1759 3634 1313 
Q 3634 634 3220 271 
Q 2806 -91 2034 -91 
Q 1263 -91 848 271 
Q 434 634 434 1313 
Q 434 1759 690 2068 
Q 947 2378 1403 2484 
z
M 1172 3481 
Q 1172 3119 1398 2916 
Q 1625 2713 2034 2713 
Q 2441 2713 2670 2916 
Q 2900 3119 2900 3481 
Q 2900 3844 2670 4047 
Q 2441 4250 2034 4250 
Q 1625 4250 1398 4047 
Q 1172 3844 1172 3481 
z
" id="DejaVuSans-38" transform="scale(0.015625)"/>
     </defs>
     <use xlink:href="#DejaVuSans-32"/>
     <use x="63.623047" xlink:href="#DejaVuSans-30"/>
     <use x="127.246094" xlink:href="#DejaVuSans-31"/>
     <use x="190.869141" xlink:href="#DejaVuSans-38"/>
    </g>
   </g>
   <g id="line2d_48">
    <path d="M 436.329022 416.743822 
L 456.329022 416.743822 
" style="fill:none;stroke:#17becf;stroke-linecap:square;"/>
   </g>
   <g id="line2d_49"/>
   <g id="text_29">
    <!-- 2019 -->
    <g transform="translate(464.329022 420.243822)scale(0.1 -0.1)">
     <defs>
      <path d="M 703 97 
L 703 672 
Q 941 559 1184 500 
Q 1428 441 1663 441 
Q 2288 441 2617 861 
Q 2947 1281 2994 2138 
Q 2813 1869 2534 1725 
Q 2256 1581 1919 1581 
Q 1219 1581 811 2004 
Q 403 2428 403 3163 
Q 403 3881 828 4315 
Q 1253 4750 1959 4750 
Q 2769 4750 3195 4129 
Q 3622 3509 3622 2328 
Q 3622 1225 3098 567 
Q 2575 -91 1691 -91 
Q 1453 -91 1209 -44 
Q 966 3 703 97 
z
M 1959 2075 
Q 2384 2075 2632 2365 
Q 2881 2656 2881 3163 
Q 2881 3666 2632 3958 
Q 2384 4250 1959 4250 
Q 1534 4250 1286 3958 
Q 1038 3666 1038 3163 
Q 1038 2656 1286 2365 
Q 1534 2075 1959 2075 
z
" id="DejaVuSans-39" transform="scale(0.015625)"/>
     </defs>
     <use xlink:href="#DejaVuSans-32"/>
     <use x="63.623047" xlink:href="#DejaVuSans-30"/>
     <use x="127.246094" xlink:href="#DejaVuSans-31"/>
     <use x="190.869141" xlink:href="#DejaVuSans-39"/>
    </g>
   </g>
   <g id="line2d_50">
    <path d="M 436.329022 431.421947 
L 456.329022 431.421947 
" style="fill:none;stroke:#d62728;stroke-linecap:square;stroke-width:2.5;"/>
   </g>
   <g id="line2d_51"/>
   <g id="text_30">
    <!-- 2020 -->
    <g transform="translate(464.329022 434.921947)scale(0.1 -0.1)">
     <use xlink:href="#DejaVuSans-32"/>
     <use x="63.623047" xlink:href="#DejaVuSans-30"/>
     <use x="127.246094" xlink:href="#DejaVuSans-32"/>
     <use x="190.869141" xlink:href="#DejaVuSans-30"/>
    </g>
   </g>
   <g id="line2d_52">
    <path d="M 436.329022 446.100073 
L 456.329022 446.100073 
" style="fill:none;stroke:#2ca02c;stroke-linecap:square;stroke-width:3;"/>
   </g>
   <g id="line2d_53"/>
   <g id="text_31">
    <!-- 2021 -->
    <g transform="translate(464.329022 449.600073)scale(0.1 -0.1)">
     <use xlink:href="#DejaVuSans-32"/>
     <use x="63.623047" xlink:href="#DejaVuSans-30"/>
     <use x="127.246094" xlink:href="#DejaVuSans-32"/>
     <use x="190.869141" xlink:href="#DejaVuSans-31"/>
    </g>
   </g>
  </g>
 </g>
 <defs>
  <clipPath id="p65617e21de">
   <path d="M 387.312731 255.906988 
C 387.312731 232.435893 382.689436 209.193024 373.707437 187.508559 
C 364.725438 165.824094 351.55941 146.119742 334.962839 129.523171 
C 318.366268 112.9266 298.661916 99.760572 276.977451 90.778573 
C 255.292986 81.796574 232.050117 77.173279 208.579022 77.173279 
C 185.107926 77.173279 161.865057 81.796574 140.180592 90.778573 
C 118.496127 99.760572 98.791775 112.9266 82.195204 129.523171 
C 65.598633 146.119742 52.432605 165.824094 43.450606 187.508559 
C 34.468607 209.193024 29.845313 232.435893 29.845313 255.906988 
C 29.845313 279.378084 34.468607 302.620953 43.450606 324.305418 
C 52.432605 345.989883 65.598633 365.694235 82.195204 382.290806 
C 98.791775 398.887377 118.496127 412.053405 140.180592 421.035404 
C 161.865057 430.017403 185.107926 434.640697 208.579022 434.640697 
C 232.050117 434.640697 255.292986 430.017403 276.977451 421.035404 
C 298.661916 412.053405 318.366268 398.887377 334.962839 382.290806 
C 351.55941 365.694235 364.725438 345.989883 373.707437 324.305418 
C 382.689436 302.620953 387.312731 279.378084 387.312731 255.906988 
M 208.579022 255.906988 
C 208.579022 255.906988 208.579022 255.906988 208.579022 255.906988 
C 208.579022 255.906988 208.579022 255.906988 208.579022 255.906988 
C 208.579022 255.906988 208.579022 255.906988 208.579022 255.906988 
C 208.579022 255.906988 208.579022 255.906988 208.579022 255.906988 
C 208.579022 255.906988 208.579022 255.906988 208.579022 255.906988 
C 208.579022 255.906988 208.579022 255.906988 208.579022 255.906988 
C 208.579022 255.906988 208.579022 255.906988 208.579022 255.906988 
C 208.579022 255.906988 208.579022 255.906988 208.579022 255.906988 
C 208.579022 255.906988 208.579022 255.906988 208.579022 255.906988 
C 208.579022 255.906988 208.579022 255.906988 208.579022 255.906988 
C 208.579022 255.906988 208.579022 255.906988 208.579022 255.906988 
C 208.579022 255.906988 208.579022 255.906988 208.579022 255.906988 
C 208.579022 255.906988 208.579022 255.906988 208.579022 255.906988 
C 208.579022 255.906988 208.579022 255.906988 208.579022 255.906988 
C 208.579022 255.906988 208.579022 255.906988 208.579022 255.906988 
C 208.579022 255.906988 208.579022 255.906988 208.579022 255.906988 
M 387.312731 255.906988 
z
"/>
  </clipPath>
 </defs>
</svg>
