<?xml version="1.0" encoding="utf-8" standalone="no"?>
<!DOCTYPE svg PUBLIC "-//W3C//DTD SVG 1.1//EN"
  "http://www.w3.org/Graphics/SVG/1.1/DTD/svg11.dtd">
<svg xmlns:xlink="http://www.w3.org/1999/xlink" width="498.934788pt" height="460.67976pt" viewBox="0 0 498.934788 460.67976" xmlns="http://www.w3.org/2000/svg" version="1.1">
 <metadata>
  <rdf:RDF xmlns:dc="http://purl.org/dc/elements/1.1/" xmlns:cc="http://creativecommons.org/ns#" xmlns:rdf="http://www.w3.org/1999/02/22-rdf-syntax-ns#">
   <cc:Work>
    <dc:type rdf:resource="http://purl.org/dc/dcmitype/StillImage"/>
    <dc:date>2023-02-14T02:50:10.087023</dc:date>
    <dc:format>image/svg+xml</dc:format>
    <dc:creator>
     <cc:Agent>
      <dc:title>Matplotlib v3.7.0, https://matplotlib.org/</dc:title>
     </cc:Agent>
    </dc:creator>
   </cc:Work>
  </rdf:RDF>
 </metadata>
 <defs>
  <style type="text/css">*{stroke-linejoin: round; stroke-linecap: butt}</style>
 </defs>
 <g id="figure_1">
  <g id="patch_1">
   <path d="M 0 460.67976 
L 498.934788 460.67976 
L 498.934788 0 
L 0 0 
z
" style="fill: #ffffff"/>
  </g>
  <g id="axes_1">
   <g id="patch_2">
    <path d="M 387.624264 255.751222 
C 387.624264 232.259671 382.996941 208.996546 374.007113 187.293183 
C 365.017286 165.58982 351.839784 145.868295 335.228749 129.257261 
C 318.617715 112.646226 298.89619 99.468724 277.192827 90.478897 
C 255.489464 81.489069 232.226339 76.861746 208.734788 76.861746 
C 185.243237 76.861746 161.980112 81.489069 140.27675 90.478897 
C 118.573387 99.468724 98.851862 112.646226 82.240827 129.257261 
C 65.629792 145.868295 52.45229 165.58982 43.462463 187.293183 
C 34.472636 208.996546 29.845313 232.259671 29.845313 255.751222 
C 29.845313 279.242773 34.472636 302.505898 43.462463 324.20926 
C 52.45229 345.912623 65.629792 365.634148 82.240827 382.245183 
C 98.851862 398.856218 118.573387 412.03372 140.27675 421.023547 
C 161.980112 430.013374 185.243237 434.640697 208.734788 434.640697 
C 232.226339 434.640697 255.489464 430.013374 277.192827 421.023547 
C 298.89619 412.03372 318.617715 398.856218 335.228749 382.245183 
C 351.839784 365.634148 365.017286 345.912623 374.007113 324.20926 
C 382.996941 302.505898 387.624264 279.242773 387.624264 255.751222 
M 208.734788 255.751222 
C 208.734788 255.751222 208.734788 255.751222 208.734788 255.751222 
C 208.734788 255.751222 208.734788 255.751222 208.734788 255.751222 
C 208.734788 255.751222 208.734788 255.751222 208.734788 255.751222 
C 208.734788 255.751222 208.734788 255.751222 208.734788 255.751222 
C 208.734788 255.751222 208.734788 255.751222 208.734788 255.751222 
C 208.734788 255.751222 208.734788 255.751222 208.734788 255.751222 
C 208.734788 255.751222 208.734788 255.751222 208.734788 255.751222 
C 208.734788 255.751222 208.734788 255.751222 208.734788 255.751222 
C 208.734788 255.751222 208.734788 255.751222 208.734788 255.751222 
C 208.734788 255.751222 208.734788 255.751222 208.734788 255.751222 
C 208.734788 255.751222 208.734788 255.751222 208.734788 255.751222 
C 208.734788 255.751222 208.734788 255.751222 208.734788 255.751222 
C 208.734788 255.751222 208.734788 255.751222 208.734788 255.751222 
C 208.734788 255.751222 208.734788 255.751222 208.734788 255.751222 
C 208.734788 255.751222 208.734788 255.751222 208.734788 255.751222 
C 208.734788 255.751222 208.734788 255.751222 208.734788 255.751222 
z
" style="fill: #ffffff"/>
   </g>
   <g id="PolyCollection_1">
    <defs>
     <path id="m672d3d5742" d="M 208.734788 -301.214001 
L 208.734788 -319.03523 
L 222.798581 -320.754293 
L 236.119601 -316.033092 
L 249.973298 -313.665553 
L 262.561648 -307.487051 
L 274.225179 -299.807749 
L 286.344132 -292.531378 
L 297.528491 -283.592894 
L 306.036641 -272.091158 
L 315.367239 -260.893566 
L 314.874248 -245.181926 
L 313.889775 -230.846915 
L 314.567043 -217.7789 
L 311.217916 -204.928538 
L 308.547875 -192.809035 
L 305.252054 -181.139169 
L 299.753224 -170.409799 
L 292.00485 -161.225038 
L 288.16883 -150.099178 
L 279.203689 -142.49854 
L 271.633573 -133.930487 
L 261.725996 -128.15752 
L 251.158399 -124.097101 
L 240.915216 -120.075723 
L 230.369783 -117.151912 
L 219.876033 -113.172134 
L 208.734788 -110.398256 
L 197.740964 -114.386253 
L 186.349102 -114.106239 
L 174.70324 -115.194721 
L 166.506334 -124.468941 
L 157.113988 -130.142898 
L 149.974791 -138.602213 
L 141.26509 -145.155601 
L 133.714741 -153.145939 
L 129.810958 -163.506116 
L 123.085877 -172.446191 
L 119.909826 -183.035151 
L 116.180591 -193.690424 
L 114.881722 -204.928538 
L 112.100585 -216.662055 
L 116.328418 -227.704663 
L 117.839771 -239.400471 
L 123.397999 -249.71674 
L 127.549247 -260.966871 
L 133.843431 -271.276491 
L 142.027498 -280.225503 
L 151.5629 -287.756317 
L 160.809929 -296.241727 
L 170.332835 -306.186166 
L 183.054638 -309.117002 
L 195.708693 -312.208084 
L 208.734788 -319.03523 
L 208.734788 -301.214001 
L 208.734788 -301.214001 
L 197.444922 -297.908948 
L 185.675519 -298.48367 
L 174.893052 -294.161864 
L 165.433934 -287.431423 
L 155.904012 -281.467131 
L 148.929829 -272.434382 
L 142.550459 -263.562737 
L 136.836876 -254.556084 
L 130.828758 -245.816777 
L 126.622663 -236.06956 
L 123.368037 -225.969552 
L 121.584959 -215.510443 
L 121.836016 -204.928538 
L 124.247575 -194.669933 
L 126.993019 -184.781002 
L 131.587717 -175.670513 
L 133.485519 -165.434675 
L 140.842385 -158.065796 
L 147.741409 -150.893119 
L 153.318661 -142.376662 
L 162.503703 -137.951249 
L 171.017444 -133.064143 
L 179.345821 -127.436201 
L 188.833765 -124.186912 
L 198.552937 -121.073446 
L 208.734788 -116.016143 
L 219.013509 -120.275653 
L 229.012907 -122.656974 
L 238.447693 -126.582046 
L 248.59887 -128.973875 
L 257.893356 -133.710057 
L 265.746586 -140.575521 
L 273.688705 -147.384389 
L 282.141899 -154.259268 
L 285.664096 -164.552923 
L 292.099921 -173.312314 
L 296.246374 -183.358869 
L 298.354039 -194.046791 
L 298.656956 -204.928538 
L 300.586426 -216.081346 
L 297.839865 -226.890967 
L 295.05169 -237.664221 
L 291.087153 -248.150393 
L 285.73744 -258.079631 
L 281.470619 -269.366861 
L 272.366581 -276.753985 
L 263.772031 -284.663751 
L 253.044777 -289.354167 
L 242.148495 -293.033242 
L 231.241312 -296.241096 
L 220.289288 -300.088402 
L 208.734788 -301.214001 
z
" style="stroke: #1f77b4; stroke-opacity: 0.3"/>
    </defs>
    <g clip-path="url(#p53b9b7eff8)">
     <use xlink:href="#m672d3d5742" x="0" y="460.67976" style="fill: #1f77b4; fill-opacity: 0.3; stroke: #1f77b4; stroke-opacity: 0.3"/>
    </g>
   </g>
   <g id="PolyCollection_2">
    <path d="M 208.734788 133.602171 
L 208.734788 161.05832 
L 220.177642 161.510843 
L 230.232895 168.529976 
L 240.54095 171.885267 
L 251.818016 173.662989 
L 260.756768 180.384373 
L 268.236045 188.588187 
L 276.666572 195.568913 
L 284.411557 203.51532 
L 291.004901 212.572536 
L 294.713397 223.143837 
L 297.219147 233.941786 
L 296.619974 245.080028 
L 293.362718 255.751222 
L 296.518019 266.410036 
L 294.526723 276.897035 
L 291.000248 286.950395 
L 285.366639 295.97072 
L 282.157595 306.431326 
L 273.437826 313.073112 
L 265.148608 319.429261 
L 256.906169 325.539515 
L 248.174715 330.897725 
L 237.53029 331.67872 
L 228.504198 335.958869 
L 218.98095 340.135954 
L 208.734788 342.467462 
L 198.624802 339.014449 
L 189.391408 334.230399 
L 180.643392 329.822145 
L 172.317687 325.138211 
L 162.916551 322.130398 
L 153.91009 317.635514 
L 150.386741 307.443081 
L 141.961169 301.841723 
L 134.982694 294.459307 
L 134.759894 283.806199 
L 129.291656 275.332195 
L 128.224345 265.526959 
L 124.038389 255.751222 
L 122.514867 245.282228 
L 124.205966 234.916738 
L 128.005804 225.134757 
L 133.891418 216.470391 
L 138.213957 207.074207 
L 144.1855 198.565542 
L 151.026969 190.612559 
L 155.818225 179.088345 
L 167.401617 176.997444 
L 177.292819 172.845564 
L 185.901243 163.111888 
L 198.038835 167.662126 
L 208.734788 161.05832 
L 208.734788 133.602171 
L 208.734788 133.602171 
L 194.997587 142.615188 
L 182.083363 147.622139 
L 169.669053 152.743343 
L 160.33775 163.538369 
L 149.517245 169.959799 
L 140.107433 178.286951 
L 130.322393 186.283902 
L 123.788601 197.117103 
L 122.160197 210.313371 
L 114.369584 219.96322 
L 113.037392 232.163932 
L 109.022826 243.643998 
L 112.672502 255.751222 
L 115.242079 267.103292 
L 118.48872 277.99488 
L 121.507793 288.832058 
L 129.010987 297.5935 
L 130.325091 309.873528 
L 139.521756 317.068618 
L 149.415145 322.709257 
L 155.351486 333.090287 
L 164.82426 339.415743 
L 172.242681 351.973001 
L 185.721 349.121832 
L 197.341453 349.583781 
L 208.734788 353.251361 
L 220.437613 352.132655 
L 230.79001 345.232775 
L 241.269335 341.537771 
L 252.231666 338.627599 
L 262.720962 333.963698 
L 273.956883 329.371748 
L 281.022816 319.792826 
L 291.90598 313.16015 
L 293.793718 300.393592 
L 303.356072 291.636341 
L 309.650834 280.624793 
L 312.694874 268.374262 
L 312.80797 255.751222 
L 318.336383 242.443179 
L 322.747316 227.649658 
L 328.227769 210.433512 
L 332.776535 190.649091 
L 319.657885 179.186536 
L 303.316536 171.959105 
L 291.823151 161.963848 
L 277.053747 156.774123 
L 265.59574 147.41173 
L 252.753544 139.683301 
L 237.303346 139.844025 
L 223.742959 132.147811 
L 208.734788 133.602171 
z
" clip-path="url(#p53b9b7eff8)" style="fill: #1f77b4; fill-opacity: 0.2"/>
   </g>
   <g id="matplotlib.axis_1">
    <g id="xtick_1">
     <g id="line2d_1">
      <path d="M 208.734788 255.751222 
L 208.734788 76.861746 
" clip-path="url(#p53b9b7eff8)" style="fill: none; stroke: #b0b0b0; stroke-width: 0.8; stroke-linecap: square"/>
     </g>
     <g id="text_1">
      <!-- Jan -->
      <g transform="translate(201.026976 65.621121) scale(0.1 -0.1)">
       <defs>
        <path id="DejaVuSans-4a" d="M 628 4666 
L 1259 4666 
L 1259 325 
Q 1259 -519 939 -900 
Q 619 -1281 -91 -1281 
L -331 -1281 
L -331 -750 
L -134 -750 
Q 284 -750 456 -515 
Q 628 -281 628 325 
L 628 4666 
z
" transform="scale(0.015625)"/>
        <path id="DejaVuSans-61" d="M 2194 1759 
Q 1497 1759 1228 1600 
Q 959 1441 959 1056 
Q 959 750 1161 570 
Q 1363 391 1709 391 
Q 2188 391 2477 730 
Q 2766 1069 2766 1631 
L 2766 1759 
L 2194 1759 
z
M 3341 1997 
L 3341 0 
L 2766 0 
L 2766 531 
Q 2569 213 2275 61 
Q 1981 -91 1556 -91 
Q 1019 -91 701 211 
Q 384 513 384 1019 
Q 384 1609 779 1909 
Q 1175 2209 1959 2209 
L 2766 2209 
L 2766 2266 
Q 2766 2663 2505 2880 
Q 2244 3097 1772 3097 
Q 1472 3097 1187 3025 
Q 903 2953 641 2809 
L 641 3341 
Q 956 3463 1253 3523 
Q 1550 3584 1831 3584 
Q 2591 3584 2966 3190 
Q 3341 2797 3341 1997 
z
" transform="scale(0.015625)"/>
        <path id="DejaVuSans-6e" d="M 3513 2113 
L 3513 0 
L 2938 0 
L 2938 2094 
Q 2938 2591 2744 2837 
Q 2550 3084 2163 3084 
Q 1697 3084 1428 2787 
Q 1159 2491 1159 1978 
L 1159 0 
L 581 0 
L 581 3500 
L 1159 3500 
L 1159 2956 
Q 1366 3272 1645 3428 
Q 1925 3584 2291 3584 
Q 2894 3584 3203 3211 
Q 3513 2838 3513 2113 
z
" transform="scale(0.015625)"/>
       </defs>
       <use xlink:href="#DejaVuSans-4a"/>
       <use xlink:href="#DejaVuSans-61" x="29.492188"/>
       <use xlink:href="#DejaVuSans-6e" x="90.771484"/>
      </g>
     </g>
    </g>
    <g id="xtick_2">
     <g id="line2d_2">
      <path d="M 208.734788 255.751222 
L 298.179526 100.828391 
" clip-path="url(#p53b9b7eff8)" style="fill: none; stroke: #b0b0b0; stroke-width: 0.8; stroke-linecap: square"/>
     </g>
     <g id="text_2">
      <!-- Feb -->
      <g transform="translate(296.327963 91.463411) scale(0.1 -0.1)">
       <defs>
        <path id="DejaVuSans-46" d="M 628 4666 
L 3309 4666 
L 3309 4134 
L 1259 4134 
L 1259 2759 
L 3109 2759 
L 3109 2228 
L 1259 2228 
L 1259 0 
L 628 0 
L 628 4666 
z
" transform="scale(0.015625)"/>
        <path id="DejaVuSans-65" d="M 3597 1894 
L 3597 1613 
L 953 1613 
Q 991 1019 1311 708 
Q 1631 397 2203 397 
Q 2534 397 2845 478 
Q 3156 559 3463 722 
L 3463 178 
Q 3153 47 2828 -22 
Q 2503 -91 2169 -91 
Q 1331 -91 842 396 
Q 353 884 353 1716 
Q 353 2575 817 3079 
Q 1281 3584 2069 3584 
Q 2775 3584 3186 3129 
Q 3597 2675 3597 1894 
z
M 3022 2063 
Q 3016 2534 2758 2815 
Q 2500 3097 2075 3097 
Q 1594 3097 1305 2825 
Q 1016 2553 972 2059 
L 3022 2063 
z
" transform="scale(0.015625)"/>
        <path id="DejaVuSans-62" d="M 3116 1747 
Q 3116 2381 2855 2742 
Q 2594 3103 2138 3103 
Q 1681 3103 1420 2742 
Q 1159 2381 1159 1747 
Q 1159 1113 1420 752 
Q 1681 391 2138 391 
Q 2594 391 2855 752 
Q 3116 1113 3116 1747 
z
M 1159 2969 
Q 1341 3281 1617 3432 
Q 1894 3584 2278 3584 
Q 2916 3584 3314 3078 
Q 3713 2572 3713 1747 
Q 3713 922 3314 415 
Q 2916 -91 2278 -91 
Q 1894 -91 1617 61 
Q 1341 213 1159 525 
L 1159 0 
L 581 0 
L 581 4863 
L 1159 4863 
L 1159 2969 
z
" transform="scale(0.015625)"/>
       </defs>
       <use xlink:href="#DejaVuSans-46"/>
       <use xlink:href="#DejaVuSans-65" x="52.019531"/>
       <use xlink:href="#DejaVuSans-62" x="113.542969"/>
      </g>
     </g>
    </g>
    <g id="xtick_3">
     <g id="line2d_3">
      <path d="M 208.734788 255.751222 
L 363.657619 166.306484 
" clip-path="url(#p53b9b7eff8)" style="fill: none; stroke: #b0b0b0; stroke-width: 0.8; stroke-linecap: square"/>
     </g>
     <g id="text_3">
      <!-- Mar -->
      <g transform="translate(366.34838 162.065859) scale(0.1 -0.1)">
       <defs>
        <path id="DejaVuSans-4d" d="M 628 4666 
L 1569 4666 
L 2759 1491 
L 3956 4666 
L 4897 4666 
L 4897 0 
L 4281 0 
L 4281 4097 
L 3078 897 
L 2444 897 
L 1241 4097 
L 1241 0 
L 628 0 
L 628 4666 
z
" transform="scale(0.015625)"/>
        <path id="DejaVuSans-72" d="M 2631 2963 
Q 2534 3019 2420 3045 
Q 2306 3072 2169 3072 
Q 1681 3072 1420 2755 
Q 1159 2438 1159 1844 
L 1159 0 
L 581 0 
L 581 3500 
L 1159 3500 
L 1159 2956 
Q 1341 3275 1631 3429 
Q 1922 3584 2338 3584 
Q 2397 3584 2469 3576 
Q 2541 3569 2628 3553 
L 2631 2963 
z
" transform="scale(0.015625)"/>
       </defs>
       <use xlink:href="#DejaVuSans-4d"/>
       <use xlink:href="#DejaVuSans-61" x="86.279297"/>
       <use xlink:href="#DejaVuSans-72" x="147.558594"/>
      </g>
     </g>
    </g>
    <g id="xtick_4">
     <g id="line2d_4">
      <path d="M 208.734788 255.751222 
L 387.624264 255.751222 
" clip-path="url(#p53b9b7eff8)" style="fill: none; stroke: #b0b0b0; stroke-width: 0.8; stroke-linecap: square"/>
     </g>
     <g id="text_4">
      <!-- Apr -->
      <g transform="translate(392.974264 258.510597) scale(0.1 -0.1)">
       <defs>
        <path id="DejaVuSans-41" d="M 2188 4044 
L 1331 1722 
L 3047 1722 
L 2188 4044 
z
M 1831 4666 
L 2547 4666 
L 4325 0 
L 3669 0 
L 3244 1197 
L 1141 1197 
L 716 0 
L 50 0 
L 1831 4666 
z
" transform="scale(0.015625)"/>
        <path id="DejaVuSans-70" d="M 1159 525 
L 1159 -1331 
L 581 -1331 
L 581 3500 
L 1159 3500 
L 1159 2969 
Q 1341 3281 1617 3432 
Q 1894 3584 2278 3584 
Q 2916 3584 3314 3078 
Q 3713 2572 3713 1747 
Q 3713 922 3314 415 
Q 2916 -91 2278 -91 
Q 1894 -91 1617 61 
Q 1341 213 1159 525 
z
M 3116 1747 
Q 3116 2381 2855 2742 
Q 2594 3103 2138 3103 
Q 1681 3103 1420 2742 
Q 1159 2381 1159 1747 
Q 1159 1113 1420 752 
Q 1681 391 2138 391 
Q 2594 391 2855 752 
Q 3116 1113 3116 1747 
z
" transform="scale(0.015625)"/>
       </defs>
       <use xlink:href="#DejaVuSans-41"/>
       <use xlink:href="#DejaVuSans-70" x="68.408203"/>
       <use xlink:href="#DejaVuSans-72" x="131.884766"/>
      </g>
     </g>
    </g>
    <g id="xtick_5">
     <g id="line2d_5">
      <path d="M 208.734788 255.751222 
L 363.657619 345.19596 
" clip-path="url(#p53b9b7eff8)" style="fill: none; stroke: #b0b0b0; stroke-width: 0.8; stroke-linecap: square"/>
     </g>
     <g id="text_5">
      <!-- May -->
      <g transform="translate(365.444474 354.955335) scale(0.1 -0.1)">
       <defs>
        <path id="DejaVuSans-79" d="M 2059 -325 
Q 1816 -950 1584 -1140 
Q 1353 -1331 966 -1331 
L 506 -1331 
L 506 -850 
L 844 -850 
Q 1081 -850 1212 -737 
Q 1344 -625 1503 -206 
L 1606 56 
L 191 3500 
L 800 3500 
L 1894 763 
L 2988 3500 
L 3597 3500 
L 2059 -325 
z
" transform="scale(0.015625)"/>
       </defs>
       <use xlink:href="#DejaVuSans-4d"/>
       <use xlink:href="#DejaVuSans-61" x="86.279297"/>
       <use xlink:href="#DejaVuSans-79" x="147.558594"/>
      </g>
     </g>
    </g>
    <g id="xtick_6">
     <g id="line2d_6">
      <path d="M 208.734788 255.751222 
L 298.179526 410.674052 
" clip-path="url(#p53b9b7eff8)" style="fill: none; stroke: #b0b0b0; stroke-width: 0.8; stroke-linecap: square"/>
     </g>
     <g id="text_6">
      <!-- Jun -->
      <g transform="translate(297.367026 425.557783) scale(0.1 -0.1)">
       <defs>
        <path id="DejaVuSans-75" d="M 544 1381 
L 544 3500 
L 1119 3500 
L 1119 1403 
Q 1119 906 1312 657 
Q 1506 409 1894 409 
Q 2359 409 2629 706 
Q 2900 1003 2900 1516 
L 2900 3500 
L 3475 3500 
L 3475 0 
L 2900 0 
L 2900 538 
Q 2691 219 2414 64 
Q 2138 -91 1772 -91 
Q 1169 -91 856 284 
Q 544 659 544 1381 
z
M 1991 3584 
L 1991 3584 
z
" transform="scale(0.015625)"/>
       </defs>
       <use xlink:href="#DejaVuSans-4a"/>
       <use xlink:href="#DejaVuSans-75" x="29.492188"/>
       <use xlink:href="#DejaVuSans-6e" x="92.871094"/>
      </g>
     </g>
    </g>
    <g id="xtick_7">
     <g id="line2d_7">
      <path d="M 208.734788 255.751222 
L 208.734788 434.640697 
" clip-path="url(#p53b9b7eff8)" style="fill: none; stroke: #b0b0b0; stroke-width: 0.8; stroke-linecap: square"/>
     </g>
     <g id="text_7">
      <!-- Jul -->
      <g transform="translate(202.701976 451.400072) scale(0.1 -0.1)">
       <defs>
        <path id="DejaVuSans-6c" d="M 603 4863 
L 1178 4863 
L 1178 0 
L 603 0 
L 603 4863 
z
" transform="scale(0.015625)"/>
       </defs>
       <use xlink:href="#DejaVuSans-4a"/>
       <use xlink:href="#DejaVuSans-75" x="29.492188"/>
       <use xlink:href="#DejaVuSans-6c" x="92.871094"/>
      </g>
     </g>
    </g>
    <g id="xtick_8">
     <g id="line2d_8">
      <path d="M 208.734788 255.751222 
L 119.29005 410.674052 
" clip-path="url(#p53b9b7eff8)" style="fill: none; stroke: #b0b0b0; stroke-width: 0.8; stroke-linecap: square"/>
     </g>
     <g id="text_8">
      <!-- Aug -->
      <g transform="translate(102.526769 425.557783) scale(0.1 -0.1)">
       <defs>
        <path id="DejaVuSans-67" d="M 2906 1791 
Q 2906 2416 2648 2759 
Q 2391 3103 1925 3103 
Q 1463 3103 1205 2759 
Q 947 2416 947 1791 
Q 947 1169 1205 825 
Q 1463 481 1925 481 
Q 2391 481 2648 825 
Q 2906 1169 2906 1791 
z
M 3481 434 
Q 3481 -459 3084 -895 
Q 2688 -1331 1869 -1331 
Q 1566 -1331 1297 -1286 
Q 1028 -1241 775 -1147 
L 775 -588 
Q 1028 -725 1275 -790 
Q 1522 -856 1778 -856 
Q 2344 -856 2625 -561 
Q 2906 -266 2906 331 
L 2906 616 
Q 2728 306 2450 153 
Q 2172 0 1784 0 
Q 1141 0 747 490 
Q 353 981 353 1791 
Q 353 2603 747 3093 
Q 1141 3584 1784 3584 
Q 2172 3584 2450 3431 
Q 2728 3278 2906 2969 
L 2906 3500 
L 3481 3500 
L 3481 434 
z
" transform="scale(0.015625)"/>
       </defs>
       <use xlink:href="#DejaVuSans-41"/>
       <use xlink:href="#DejaVuSans-75" x="68.408203"/>
       <use xlink:href="#DejaVuSans-67" x="131.787109"/>
      </g>
     </g>
    </g>
    <g id="xtick_9">
     <g id="line2d_9">
      <path d="M 208.734788 255.751222 
L 53.811958 345.19596 
" clip-path="url(#p53b9b7eff8)" style="fill: none; stroke: #b0b0b0; stroke-width: 0.8; stroke-linecap: square"/>
     </g>
     <g id="text_9">
      <!-- Sept -->
      <g transform="translate(30.302446 354.955335) scale(0.1 -0.1)">
       <defs>
        <path id="DejaVuSans-53" d="M 3425 4513 
L 3425 3897 
Q 3066 4069 2747 4153 
Q 2428 4238 2131 4238 
Q 1616 4238 1336 4038 
Q 1056 3838 1056 3469 
Q 1056 3159 1242 3001 
Q 1428 2844 1947 2747 
L 2328 2669 
Q 3034 2534 3370 2195 
Q 3706 1856 3706 1288 
Q 3706 609 3251 259 
Q 2797 -91 1919 -91 
Q 1588 -91 1214 -16 
Q 841 59 441 206 
L 441 856 
Q 825 641 1194 531 
Q 1563 422 1919 422 
Q 2459 422 2753 634 
Q 3047 847 3047 1241 
Q 3047 1584 2836 1778 
Q 2625 1972 2144 2069 
L 1759 2144 
Q 1053 2284 737 2584 
Q 422 2884 422 3419 
Q 422 4038 858 4394 
Q 1294 4750 2059 4750 
Q 2388 4750 2728 4690 
Q 3069 4631 3425 4513 
z
" transform="scale(0.015625)"/>
        <path id="DejaVuSans-74" d="M 1172 4494 
L 1172 3500 
L 2356 3500 
L 2356 3053 
L 1172 3053 
L 1172 1153 
Q 1172 725 1289 603 
Q 1406 481 1766 481 
L 2356 481 
L 2356 0 
L 1766 0 
Q 1100 0 847 248 
Q 594 497 594 1153 
L 594 3053 
L 172 3053 
L 172 3500 
L 594 3500 
L 594 4494 
L 1172 4494 
z
" transform="scale(0.015625)"/>
       </defs>
       <use xlink:href="#DejaVuSans-53"/>
       <use xlink:href="#DejaVuSans-65" x="63.476562"/>
       <use xlink:href="#DejaVuSans-70" x="125"/>
       <use xlink:href="#DejaVuSans-74" x="188.476562"/>
      </g>
     </g>
    </g>
    <g id="xtick_10">
     <g id="line2d_10">
      <path d="M 208.734788 255.751222 
L 29.845313 255.751222 
" clip-path="url(#p53b9b7eff8)" style="fill: none; stroke: #b0b0b0; stroke-width: 0.8; stroke-linecap: square"/>
     </g>
     <g id="text_10">
      <!-- Oct -->
      <g transform="translate(7.2 258.510597) scale(0.1 -0.1)">
       <defs>
        <path id="DejaVuSans-4f" d="M 2522 4238 
Q 1834 4238 1429 3725 
Q 1025 3213 1025 2328 
Q 1025 1447 1429 934 
Q 1834 422 2522 422 
Q 3209 422 3611 934 
Q 4013 1447 4013 2328 
Q 4013 3213 3611 3725 
Q 3209 4238 2522 4238 
z
M 2522 4750 
Q 3503 4750 4090 4092 
Q 4678 3434 4678 2328 
Q 4678 1225 4090 567 
Q 3503 -91 2522 -91 
Q 1538 -91 948 565 
Q 359 1222 359 2328 
Q 359 3434 948 4092 
Q 1538 4750 2522 4750 
z
" transform="scale(0.015625)"/>
        <path id="DejaVuSans-63" d="M 3122 3366 
L 3122 2828 
Q 2878 2963 2633 3030 
Q 2388 3097 2138 3097 
Q 1578 3097 1268 2742 
Q 959 2388 959 1747 
Q 959 1106 1268 751 
Q 1578 397 2138 397 
Q 2388 397 2633 464 
Q 2878 531 3122 666 
L 3122 134 
Q 2881 22 2623 -34 
Q 2366 -91 2075 -91 
Q 1284 -91 818 406 
Q 353 903 353 1747 
Q 353 2603 823 3093 
Q 1294 3584 2113 3584 
Q 2378 3584 2631 3529 
Q 2884 3475 3122 3366 
z
" transform="scale(0.015625)"/>
       </defs>
       <use xlink:href="#DejaVuSans-4f"/>
       <use xlink:href="#DejaVuSans-63" x="78.710938"/>
       <use xlink:href="#DejaVuSans-74" x="133.691406"/>
      </g>
     </g>
    </g>
    <g id="xtick_11">
     <g id="line2d_11">
      <path d="M 208.734788 255.751222 
L 53.811958 166.306484 
" clip-path="url(#p53b9b7eff8)" style="fill: none; stroke: #b0b0b0; stroke-width: 0.8; stroke-linecap: square"/>
     </g>
     <g id="text_11">
      <!-- Nov -->
      <g transform="translate(31.928227 162.065859) scale(0.1 -0.1)">
       <defs>
        <path id="DejaVuSans-4e" d="M 628 4666 
L 1478 4666 
L 3547 763 
L 3547 4666 
L 4159 4666 
L 4159 0 
L 3309 0 
L 1241 3903 
L 1241 0 
L 628 0 
L 628 4666 
z
" transform="scale(0.015625)"/>
        <path id="DejaVuSans-6f" d="M 1959 3097 
Q 1497 3097 1228 2736 
Q 959 2375 959 1747 
Q 959 1119 1226 758 
Q 1494 397 1959 397 
Q 2419 397 2687 759 
Q 2956 1122 2956 1747 
Q 2956 2369 2687 2733 
Q 2419 3097 1959 3097 
z
M 1959 3584 
Q 2709 3584 3137 3096 
Q 3566 2609 3566 1747 
Q 3566 888 3137 398 
Q 2709 -91 1959 -91 
Q 1206 -91 779 398 
Q 353 888 353 1747 
Q 353 2609 779 3096 
Q 1206 3584 1959 3584 
z
" transform="scale(0.015625)"/>
        <path id="DejaVuSans-76" d="M 191 3500 
L 800 3500 
L 1894 563 
L 2988 3500 
L 3597 3500 
L 2284 0 
L 1503 0 
L 191 3500 
z
" transform="scale(0.015625)"/>
       </defs>
       <use xlink:href="#DejaVuSans-4e"/>
       <use xlink:href="#DejaVuSans-6f" x="74.804688"/>
       <use xlink:href="#DejaVuSans-76" x="135.986328"/>
      </g>
     </g>
    </g>
    <g id="xtick_12">
     <g id="line2d_12">
      <path d="M 208.734788 255.751222 
L 119.29005 100.828391 
" clip-path="url(#p53b9b7eff8)" style="fill: none; stroke: #b0b0b0; stroke-width: 0.8; stroke-linecap: square"/>
     </g>
     <g id="text_12">
      <!-- Dec -->
      <g transform="translate(102.614269 91.463411) scale(0.1 -0.1)">
       <defs>
        <path id="DejaVuSans-44" d="M 1259 4147 
L 1259 519 
L 2022 519 
Q 2988 519 3436 956 
Q 3884 1394 3884 2338 
Q 3884 3275 3436 3711 
Q 2988 4147 2022 4147 
L 1259 4147 
z
M 628 4666 
L 1925 4666 
Q 3281 4666 3915 4102 
Q 4550 3538 4550 2338 
Q 4550 1131 3912 565 
Q 3275 0 1925 0 
L 628 0 
L 628 4666 
z
" transform="scale(0.015625)"/>
       </defs>
       <use xlink:href="#DejaVuSans-44"/>
       <use xlink:href="#DejaVuSans-65" x="77.001953"/>
       <use xlink:href="#DejaVuSans-63" x="138.525391"/>
      </g>
     </g>
    </g>
   </g>
   <g id="matplotlib.axis_2">
    <g id="ytick_1">
     <g id="line2d_13">
      <path d="M 208.734788 221.516622 
C 213.230435 221.516622 217.682366 222.402167 221.835802 224.122576 
C 225.989238 225.842986 229.763403 228.364802 232.942306 231.543704 
C 236.121208 234.722607 238.643024 238.496772 240.363434 242.650208 
C 242.083843 246.803644 242.969388 251.255575 242.969388 255.751222 
C 242.969388 260.246868 242.083843 264.6988 240.363434 268.852236 
C 238.643024 273.005672 236.121208 276.779837 232.942306 279.958739 
C 229.763403 283.137641 225.989238 285.659458 221.835802 287.379868 
C 217.682366 289.100277 213.230435 289.985821 208.734788 289.985821 
C 204.239142 289.985821 199.78721 289.100277 195.633774 287.379868 
C 191.480338 285.659458 187.706173 283.137641 184.527271 279.958739 
C 181.348369 276.779837 178.826552 273.005672 177.106142 268.852236 
C 175.385733 264.6988 174.500189 260.246868 174.500189 255.751222 
C 174.500189 251.255575 175.385733 246.803644 177.106142 242.650208 
C 178.826552 238.496772 181.348369 234.722607 184.527271 231.543704 
C 187.706173 228.364802 191.480338 225.842986 195.633774 224.122576 
C 199.78721 222.402167 204.239142 221.516622 208.734788 221.516622 
" clip-path="url(#p53b9b7eff8)" style="fill: none; stroke: #b0b0b0; stroke-width: 0.8; stroke-linecap: square"/>
     </g>
     <g id="text_13">
      <!-- 1000 -->
      <g transform="translate(208.734788 287.906134) scale(0.1 -0.1)">
       <defs>
        <path id="DejaVuSans-31" d="M 794 531 
L 1825 531 
L 1825 4091 
L 703 3866 
L 703 4441 
L 1819 4666 
L 2450 4666 
L 2450 531 
L 3481 531 
L 3481 0 
L 794 0 
L 794 531 
z
" transform="scale(0.015625)"/>
        <path id="DejaVuSans-30" d="M 2034 4250 
Q 1547 4250 1301 3770 
Q 1056 3291 1056 2328 
Q 1056 1369 1301 889 
Q 1547 409 2034 409 
Q 2525 409 2770 889 
Q 3016 1369 3016 2328 
Q 3016 3291 2770 3770 
Q 2525 4250 2034 4250 
z
M 2034 4750 
Q 2819 4750 3233 4129 
Q 3647 3509 3647 2328 
Q 3647 1150 3233 529 
Q 2819 -91 2034 -91 
Q 1250 -91 836 529 
Q 422 1150 422 2328 
Q 422 3509 836 4129 
Q 1250 4750 2034 4750 
z
" transform="scale(0.015625)"/>
       </defs>
       <use xlink:href="#DejaVuSans-31"/>
       <use xlink:href="#DejaVuSans-30" x="63.623047"/>
       <use xlink:href="#DejaVuSans-30" x="127.246094"/>
       <use xlink:href="#DejaVuSans-30" x="190.869141"/>
      </g>
     </g>
    </g>
    <g id="ytick_2">
     <g id="line2d_14">
      <path d="M 208.734788 187.282023 
C 217.726081 187.282023 226.629945 189.053112 234.936816 192.49393 
C 243.243688 195.934749 250.792019 200.978383 257.149823 207.336187 
C 263.507627 213.693991 268.551261 221.242322 271.99208 229.549194 
C 275.432898 237.856065 277.203987 246.759929 277.203987 255.751222 
C 277.203987 264.742515 275.432898 273.646378 271.99208 281.95325 
C 268.551261 290.260121 263.507627 297.808452 257.149823 304.166257 
C 250.792019 310.524061 243.243688 315.567694 234.936816 319.008513 
C 226.629945 322.449332 217.726081 324.220421 208.734788 324.220421 
C 199.743495 324.220421 190.839632 322.449332 182.53276 319.008513 
C 174.225889 315.567694 166.677558 310.524061 160.319753 304.166257 
C 153.961949 297.808452 148.918316 290.260121 145.477497 281.95325 
C 142.036678 273.646378 140.265589 264.742515 140.265589 255.751222 
C 140.265589 246.759929 142.036678 237.856065 145.477497 229.549194 
C 148.918316 221.242322 153.961949 213.693991 160.319753 207.336187 
C 166.677558 200.978383 174.225889 195.934749 182.53276 192.49393 
C 190.839632 189.053112 199.743495 187.282023 208.734788 187.282023 
" clip-path="url(#p53b9b7eff8)" style="fill: none; stroke: #b0b0b0; stroke-width: 0.8; stroke-linecap: square"/>
     </g>
     <g id="text_14">
      <!-- 2000 -->
      <g transform="translate(208.734788 322.140733) scale(0.1 -0.1)">
       <defs>
        <path id="DejaVuSans-32" d="M 1228 531 
L 3431 531 
L 3431 0 
L 469 0 
L 469 531 
Q 828 903 1448 1529 
Q 2069 2156 2228 2338 
Q 2531 2678 2651 2914 
Q 2772 3150 2772 3378 
Q 2772 3750 2511 3984 
Q 2250 4219 1831 4219 
Q 1534 4219 1204 4116 
Q 875 4013 500 3803 
L 500 4441 
Q 881 4594 1212 4672 
Q 1544 4750 1819 4750 
Q 2544 4750 2975 4387 
Q 3406 4025 3406 3419 
Q 3406 3131 3298 2873 
Q 3191 2616 2906 2266 
Q 2828 2175 2409 1742 
Q 1991 1309 1228 531 
z
" transform="scale(0.015625)"/>
       </defs>
       <use xlink:href="#DejaVuSans-32"/>
       <use xlink:href="#DejaVuSans-30" x="63.623047"/>
       <use xlink:href="#DejaVuSans-30" x="127.246094"/>
       <use xlink:href="#DejaVuSans-30" x="190.869141"/>
      </g>
     </g>
    </g>
    <g id="ytick_3">
     <g id="line2d_15">
      <path d="M 208.734788 153.047424 
C 222.221727 153.047424 235.577523 155.704057 248.03783 160.865285 
C 260.498137 166.026513 271.820634 173.591964 281.35734 183.12867 
C 290.894046 192.665376 298.459497 203.987873 303.620725 216.44818 
C 308.781953 228.908487 311.438586 242.264283 311.438586 255.751222 
C 311.438586 269.238161 308.781953 282.593957 303.620725 295.054264 
C 298.459497 307.514571 290.894046 318.837068 281.35734 328.373774 
C 271.820634 337.91048 260.498137 345.475931 248.03783 350.637159 
C 235.577523 355.798387 222.221727 358.45502 208.734788 358.45502 
C 195.247849 358.45502 181.892053 355.798387 169.431746 350.637159 
C 156.971439 345.475931 145.648942 337.91048 136.112236 328.373774 
C 126.57553 318.837068 119.010079 307.514571 113.848851 295.054264 
C 108.687623 282.593957 106.03099 269.238161 106.03099 255.751222 
C 106.03099 242.264283 108.687623 228.908487 113.848851 216.44818 
C 119.010079 203.987873 126.57553 192.665376 136.112236 183.12867 
C 145.648942 173.591964 156.971439 166.026513 169.431746 160.865285 
C 181.892053 155.704057 195.247849 153.047424 208.734788 153.047424 
" clip-path="url(#p53b9b7eff8)" style="fill: none; stroke: #b0b0b0; stroke-width: 0.8; stroke-linecap: square"/>
     </g>
     <g id="text_15">
      <!-- 3000 -->
      <g transform="translate(208.734788 356.375333) scale(0.1 -0.1)">
       <defs>
        <path id="DejaVuSans-33" d="M 2597 2516 
Q 3050 2419 3304 2112 
Q 3559 1806 3559 1356 
Q 3559 666 3084 287 
Q 2609 -91 1734 -91 
Q 1441 -91 1130 -33 
Q 819 25 488 141 
L 488 750 
Q 750 597 1062 519 
Q 1375 441 1716 441 
Q 2309 441 2620 675 
Q 2931 909 2931 1356 
Q 2931 1769 2642 2001 
Q 2353 2234 1838 2234 
L 1294 2234 
L 1294 2753 
L 1863 2753 
Q 2328 2753 2575 2939 
Q 2822 3125 2822 3475 
Q 2822 3834 2567 4026 
Q 2313 4219 1838 4219 
Q 1578 4219 1281 4162 
Q 984 4106 628 3988 
L 628 4550 
Q 988 4650 1302 4700 
Q 1616 4750 1894 4750 
Q 2613 4750 3031 4423 
Q 3450 4097 3450 3541 
Q 3450 3153 3228 2886 
Q 3006 2619 2597 2516 
z
" transform="scale(0.015625)"/>
       </defs>
       <use xlink:href="#DejaVuSans-33"/>
       <use xlink:href="#DejaVuSans-30" x="63.623047"/>
       <use xlink:href="#DejaVuSans-30" x="127.246094"/>
       <use xlink:href="#DejaVuSans-30" x="190.869141"/>
      </g>
     </g>
    </g>
    <g id="ytick_4">
     <g id="line2d_16">
      <path d="M 208.734788 118.812824 
C 226.717374 118.812824 244.525101 122.355002 261.138844 129.236639 
C 277.752587 136.118277 292.849249 146.205544 305.564858 158.921152 
C 318.280466 171.636761 328.367733 186.733423 335.249371 203.347166 
C 342.131008 219.960909 345.673186 237.768636 345.673186 255.751222 
C 345.673186 273.733807 342.131008 291.541535 335.249371 308.155278 
C 328.367733 324.769021 318.280466 339.865683 305.564858 352.581291 
C 292.849249 365.2969 277.752587 375.384167 261.138844 382.265805 
C 244.525101 389.147442 226.717374 392.689619 208.734788 392.689619 
C 190.752203 392.689619 172.944475 389.147442 156.330732 382.265805 
C 139.716989 375.384167 124.620327 365.2969 111.904719 352.581291 
C 99.18911 339.865683 89.101843 324.769021 82.220205 308.155278 
C 75.338568 291.541535 71.796391 273.733807 71.796391 255.751222 
C 71.796391 237.768636 75.338568 219.960909 82.220205 203.347166 
C 89.101843 186.733423 99.18911 171.636761 111.904719 158.921152 
C 124.620327 146.205544 139.716989 136.118277 156.330732 129.236639 
C 172.944475 122.355002 190.752203 118.812824 208.734788 118.812824 
" clip-path="url(#p53b9b7eff8)" style="fill: none; stroke: #b0b0b0; stroke-width: 0.8; stroke-linecap: square"/>
     </g>
     <g id="text_16">
      <!-- 4000 -->
      <g transform="translate(208.734788 390.609932) scale(0.1 -0.1)">
       <defs>
        <path id="DejaVuSans-34" d="M 2419 4116 
L 825 1625 
L 2419 1625 
L 2419 4116 
z
M 2253 4666 
L 3047 4666 
L 3047 1625 
L 3713 1625 
L 3713 1100 
L 3047 1100 
L 3047 0 
L 2419 0 
L 2419 1100 
L 313 1100 
L 313 1709 
L 2253 4666 
z
" transform="scale(0.015625)"/>
       </defs>
       <use xlink:href="#DejaVuSans-34"/>
       <use xlink:href="#DejaVuSans-30" x="63.623047"/>
       <use xlink:href="#DejaVuSans-30" x="127.246094"/>
       <use xlink:href="#DejaVuSans-30" x="190.869141"/>
      </g>
     </g>
    </g>
    <g id="ytick_5">
     <g id="line2d_17">
      <path d="M 208.734788 84.578225 
C 231.21302 84.578225 253.47268 89.005946 274.239858 97.607993 
C 295.007037 106.21004 313.877865 118.819125 329.772375 134.713635 
C 345.666885 150.608145 358.27597 169.478973 366.878017 190.246152 
C 375.480064 211.01333 379.907785 233.27299 379.907785 255.751222 
C 379.907785 278.229454 375.480064 300.489113 366.878017 321.256292 
C 358.27597 342.02347 345.666885 360.894298 329.772375 376.788809 
C 313.877865 392.683319 295.007037 405.292403 274.239858 413.89445 
C 253.47268 422.496497 231.21302 426.924219 208.734788 426.924219 
C 186.256556 426.924219 163.996897 422.496497 143.229718 413.89445 
C 122.46254 405.292403 103.591712 392.683319 87.697201 376.788809 
C 71.802691 360.894298 59.193607 342.02347 50.59156 321.256292 
C 41.989513 300.489113 37.561791 278.229454 37.561791 255.751222 
C 37.561791 233.27299 41.989513 211.01333 50.59156 190.246152 
C 59.193607 169.478973 71.802691 150.608145 87.697201 134.713635 
C 103.591712 118.819125 122.46254 106.21004 143.229718 97.607993 
C 163.996897 89.005946 186.256556 84.578225 208.734788 84.578225 
" clip-path="url(#p53b9b7eff8)" style="fill: none; stroke: #b0b0b0; stroke-width: 0.8; stroke-linecap: square"/>
     </g>
     <g id="text_17">
      <!-- 5000 -->
      <g transform="translate(208.734788 424.844531) scale(0.1 -0.1)">
       <defs>
        <path id="DejaVuSans-35" d="M 691 4666 
L 3169 4666 
L 3169 4134 
L 1269 4134 
L 1269 2991 
Q 1406 3038 1543 3061 
Q 1681 3084 1819 3084 
Q 2600 3084 3056 2656 
Q 3513 2228 3513 1497 
Q 3513 744 3044 326 
Q 2575 -91 1722 -91 
Q 1428 -91 1123 -41 
Q 819 9 494 109 
L 494 744 
Q 775 591 1075 516 
Q 1375 441 1709 441 
Q 2250 441 2565 725 
Q 2881 1009 2881 1497 
Q 2881 1984 2565 2268 
Q 2250 2553 1709 2553 
Q 1456 2553 1204 2497 
Q 953 2441 691 2322 
L 691 4666 
z
" transform="scale(0.015625)"/>
       </defs>
       <use xlink:href="#DejaVuSans-35"/>
       <use xlink:href="#DejaVuSans-30" x="63.623047"/>
       <use xlink:href="#DejaVuSans-30" x="127.246094"/>
       <use xlink:href="#DejaVuSans-30" x="190.869141"/>
      </g>
     </g>
    </g>
   </g>
   <g id="line2d_18">
    <path d="M 208.734788 152.893368 
L 221.347512 151.876098 
L 233.612456 154.818557 
L 246.738295 155.54421 
L 258.388686 161.143624 
L 268.817744 168.706033 
L 278.22481 177.313202 
L 291.131865 182.753782 
L 296.315293 195.298764 
L 302.781591 206.391652 
L 303.644161 219.756845 
L 305.878116 231.807542 
L 308.361788 243.654314 
L 305.344828 255.751222 
L 303.501934 267.258037 
L 300.327069 278.326691 
L 296.265877 288.947385 
L 288.367649 297.545772 
L 283.960764 307.675964 
L 275.692823 315.070865 
L 268.213343 322.888632 
L 259.891355 329.864304 
L 249.877044 334.141241 
L 239.782215 337.616558 
L 229.761804 341.061179 
L 219.342021 343.10964 
L 208.734788 347.260306 
L 198.234845 342.22603 
L 187.625843 341.393577 
L 177.596313 337.856632 
L 169.040307 331.382736 
L 159.299322 327.370859 
L 151.197232 320.697697 
L 143.993313 313.107164 
L 137.537769 304.894976 
L 131.542142 296.265048 
L 127.621685 286.513364 
L 122.743415 276.946192 
L 118.589601 266.696829 
L 118.355446 255.751222 
L 117.468096 244.669439 
L 119.452674 233.745157 
L 123.156303 223.295584 
L 127.20735 212.962321 
L 132.90306 203.408359 
L 138.394258 193.43495 
L 145.362885 184.21913 
L 154.631929 177.369699 
L 163.392395 169.35851 
L 172.728271 160.809839 
L 184.475683 157.328162 
L 196.63788 156.124222 
L 208.734788 152.893368 
" clip-path="url(#p53b9b7eff8)" style="fill: none; stroke-dasharray: 5.55,2.4; stroke-dashoffset: 0; stroke: #1f77b4; stroke-width: 1.5"/>
   </g>
   <g id="line2d_19">
    <path d="M 208.734788 149.52126 
L 222.355741 141.394363 
L 234.12095 150.696317 
L 245.044764 157.998422 
L 258.196078 159.385103 
L 269.858442 165.002811 
L 280.207222 172.817188 
L 283.477432 187.375323 
L 294.906162 193.921124 
L 301.883999 204.398112 
L 310.825347 214.347447 
L 328.083209 223.139205 
L 359.679969 233.217722 
L 382.741275 250.592565 
L 378.617836 270.895963 
L 353.054897 286.129495 
L 335.541321 298.621675 
L 313.292905 305.559503 
L 295.262274 310.375883 
L 282.55851 315.653347 
L 274.788611 323.79232 
L 265.488154 330.093104 
L 255.426689 334.809832 
L 245.845056 339.996633 
L 235.6906 344.023666 
L 224.837074 345.345534 
L 214.084861 345.903485 
L 203.423249 345.25417 
L 193.425807 340.931523 
L 182.008941 343.2706 
L 171.941938 339.276052 
L 162.739261 333.630732 
L 142.072434 343.073 
L 140.630197 325.904788 
L 136.027594 314.747373 
L 130.805048 304.94814 
L 123.988008 296.121989 
L 120.489117 285.58511 
L 111.884873 276.137384 
L 106.368487 264.876977 
L 105.323263 252.685448 
L 99.639819 239.465233 
L 94.868337 224.637156 
L 91.765276 208.313149 
L 101.135007 196.43152 
L 109.156505 184.301335 
L 124.4946 178.6868 
L 132.63609 167.449037 
L 141.223368 155.519091 
L 152.223232 145.648971 
L 162.137384 130.302865 
L 177.639353 127.069778 
L 192.093256 116.034608 
L 208.734788 113.848807 
" clip-path="url(#p53b9b7eff8)" style="fill: none; stroke-dasharray: 2,3.3; stroke-dashoffset: 0; stroke: #d62728; stroke-width: 2"/>
   </g>
   <g id="line2d_20">
    <path d="M 208.734788 113.848807 
L 224.621909 124.909008 
L 240.383868 127.345858 
L 253.821843 136.866429 
L 266.884419 144.956358 
L 277.792751 155.703491 
L 288.894627 165.269468 
L 290.862803 182.99215 
L 296.216682 195.36683 
L 307.070914 204.140442 
L 306.172944 218.797804 
L 309.983232 230.795722 
L 316.671118 242.645379 
L 317.087295 255.751222 
L 315.447659 268.70851 
L 313.240732 281.509624 
L 308.637706 293.639401 
L 299.916991 303.607334 
L 293.737324 314.424236 
L 285.353435 323.62942 
L 272.413165 327.62925 
L 267.27167 340.556536 
L 254.618108 343.174584 
L 243.575889 347.619653 
L 230.634345 344.601218 
L 220.256046 350.637316 
L 208.734788 352.87478 
L 196.879282 353.3901 
L 185.991365 348.024918 
L 173.335259 349.092109 
L 161.674157 345.417763 
L 153.484529 335.795042 
L 142.94515 330.012372 
L 133.730514 322.199211 
L 128.155653 311.370983 
L 114.975961 304.959651 
L 115.297871 291.18717 
L 112.671754 279.428633 
L 104.332897 268.427907 
L 103.566099 255.751222 
L 104.604777 243.107549 
L 99.87443 228.919553 
L 100.285225 214.621728 
L 102.092837 199.781208 
L 102.009695 182.084209 
L 106.106801 164.830759 
L 113.5691 148.331366 
L 123.263162 131.924193 
L 139.162057 123.191457 
L 159.532356 126.015071 
L 177.83126 130.370681 
L 193.540923 130.618486 
L 208.734788 138.155373 
" clip-path="url(#p53b9b7eff8)" style="fill: none; stroke-dasharray: 2,3.3; stroke-dashoffset: 0; stroke: #ff7f0e; stroke-width: 2"/>
   </g>
   <g id="line2d_21">
    <path d="M 208.734788 138.155373 
L 221.762227 148.460606 
L 234.886448 149.649767 
L 247.606288 153.255501 
L 261.013772 156.14194 
L 272.016852 164.071324 
L 285.421261 169.190088 
L 294.604048 179.677696 
L 299.823021 192.877554 
L 311.405706 201.865367 
L 324.066481 212.01168 
L 329.428517 226.002889 
L 329.89128 241.04016 
L 331.123481 255.751222 
L 328.19203 270.255957 
L 316.265555 282.255175 
L 309.277904 293.882196 
L 303.584892 305.532397 
L 296.836521 316.563458 
L 287.070308 325.150437 
L 275.09197 330.652996 
L 266.338191 339.204159 
L 255.556775 344.963065 
L 245.299734 352.16506 
L 234.427647 359.991248 
L 221.535269 361.172663 
L 208.734788 357.530686 
L 195.987953 360.730858 
L 182.607707 361.752957 
L 170.700932 356.038259 
L 161.658247 345.448076 
L 150.684093 339.852173 
L 138.881539 334.599241 
L 130.860518 324.741805 
L 125.225502 313.39352 
L 119.704825 302.477751 
L 118.530872 289.961055 
L 108.483539 280.460936 
L 100.016803 268.951975 
L 95.520968 255.751222 
L 96.312439 242.100677 
L 96.882847 228.182194 
L 102.910037 215.617188 
L 110.944301 204.426815 
L 119.42155 194.102745 
L 126.581148 182.969448 
L 131.45807 168.523839 
L 142.127207 159.253481 
L 151.380638 146.472019 
L 160.35786 128.191744 
L 174.488567 116.80884 
L 191.824289 116.48073 
L 208.734788 118.093898 
" clip-path="url(#p53b9b7eff8)" style="fill: none; stroke: #ff7f0e; stroke-width: 2; stroke-linecap: square"/>
   </g>
   <g id="line2d_22">
    <path d="M 208.734788 118.093898 
L 230.204422 125.638986 
L 248.90145 137.354308 
L 263.495992 153.233898 
L 283.101322 158.762868 
" clip-path="url(#p53b9b7eff8)" style="fill: none; stroke: #2ca02c; stroke-width: 3; stroke-linecap: square"/>
   </g>
   <g id="patch_3">
    <path d="M 208.734788 76.861746 
C 185.243237 76.861746 161.980112 81.489069 140.27675 90.478897 
C 118.573387 99.468724 98.851862 112.646226 82.240827 129.257261 
C 65.629792 145.868295 52.45229 165.58982 43.462463 187.293183 
C 34.472636 208.996546 29.845313 232.259671 29.845313 255.751222 
C 29.845313 279.242773 34.472636 302.505898 43.462463 324.20926 
C 52.45229 345.912623 65.629792 365.634148 82.240827 382.245183 
C 98.851862 398.856218 118.573387 412.03372 140.27675 421.023547 
C 161.980112 430.013374 185.243237 434.640697 208.734788 434.640697 
C 232.226339 434.640697 255.489464 430.013374 277.192827 421.023547 
C 298.89619 412.03372 318.617715 398.856218 335.228749 382.245183 
C 351.839784 365.634148 365.017286 345.912623 374.007113 324.20926 
C 382.996941 302.505898 387.624264 279.242773 387.624264 255.751222 
C 387.624264 232.259671 382.996941 208.996546 374.007113 187.293183 
C 365.017286 165.58982 351.839784 145.868295 335.228749 129.257261 
C 318.617715 112.646226 298.89619 99.468724 277.192827 90.478897 
C 255.489464 81.489069 232.226339 76.861746 208.734788 76.861746 
" style="fill: none; stroke: #000000; stroke-width: 0.8; stroke-linejoin: miter; stroke-linecap: square"/>
   </g>
   <g id="text_18">
    <!-- Totaal mannen en vrouwen, Totaal leeftijd, median excludes 2020-2023 -->
    <g transform="translate(29.987913 35.083851) scale(0.1 -0.1)">
     <defs>
      <path id="DejaVuSans-54" d="M -19 4666 
L 3928 4666 
L 3928 4134 
L 2272 4134 
L 2272 0 
L 1638 0 
L 1638 4134 
L -19 4134 
L -19 4666 
z
" transform="scale(0.015625)"/>
      <path id="DejaVuSans-20" transform="scale(0.015625)"/>
      <path id="DejaVuSans-6d" d="M 3328 2828 
Q 3544 3216 3844 3400 
Q 4144 3584 4550 3584 
Q 5097 3584 5394 3201 
Q 5691 2819 5691 2113 
L 5691 0 
L 5113 0 
L 5113 2094 
Q 5113 2597 4934 2840 
Q 4756 3084 4391 3084 
Q 3944 3084 3684 2787 
Q 3425 2491 3425 1978 
L 3425 0 
L 2847 0 
L 2847 2094 
Q 2847 2600 2669 2842 
Q 2491 3084 2119 3084 
Q 1678 3084 1418 2786 
Q 1159 2488 1159 1978 
L 1159 0 
L 581 0 
L 581 3500 
L 1159 3500 
L 1159 2956 
Q 1356 3278 1631 3431 
Q 1906 3584 2284 3584 
Q 2666 3584 2933 3390 
Q 3200 3197 3328 2828 
z
" transform="scale(0.015625)"/>
      <path id="DejaVuSans-77" d="M 269 3500 
L 844 3500 
L 1563 769 
L 2278 3500 
L 2956 3500 
L 3675 769 
L 4391 3500 
L 4966 3500 
L 4050 0 
L 3372 0 
L 2619 2869 
L 1863 0 
L 1184 0 
L 269 3500 
z
" transform="scale(0.015625)"/>
      <path id="DejaVuSans-2c" d="M 750 794 
L 1409 794 
L 1409 256 
L 897 -744 
L 494 -744 
L 750 256 
L 750 794 
z
" transform="scale(0.015625)"/>
      <path id="DejaVuSans-66" d="M 2375 4863 
L 2375 4384 
L 1825 4384 
Q 1516 4384 1395 4259 
Q 1275 4134 1275 3809 
L 1275 3500 
L 2222 3500 
L 2222 3053 
L 1275 3053 
L 1275 0 
L 697 0 
L 697 3053 
L 147 3053 
L 147 3500 
L 697 3500 
L 697 3744 
Q 697 4328 969 4595 
Q 1241 4863 1831 4863 
L 2375 4863 
z
" transform="scale(0.015625)"/>
      <path id="DejaVuSans-69" d="M 603 3500 
L 1178 3500 
L 1178 0 
L 603 0 
L 603 3500 
z
M 603 4863 
L 1178 4863 
L 1178 4134 
L 603 4134 
L 603 4863 
z
" transform="scale(0.015625)"/>
      <path id="DejaVuSans-6a" d="M 603 3500 
L 1178 3500 
L 1178 -63 
Q 1178 -731 923 -1031 
Q 669 -1331 103 -1331 
L -116 -1331 
L -116 -844 
L 38 -844 
Q 366 -844 484 -692 
Q 603 -541 603 -63 
L 603 3500 
z
M 603 4863 
L 1178 4863 
L 1178 4134 
L 603 4134 
L 603 4863 
z
" transform="scale(0.015625)"/>
      <path id="DejaVuSans-64" d="M 2906 2969 
L 2906 4863 
L 3481 4863 
L 3481 0 
L 2906 0 
L 2906 525 
Q 2725 213 2448 61 
Q 2172 -91 1784 -91 
Q 1150 -91 751 415 
Q 353 922 353 1747 
Q 353 2572 751 3078 
Q 1150 3584 1784 3584 
Q 2172 3584 2448 3432 
Q 2725 3281 2906 2969 
z
M 947 1747 
Q 947 1113 1208 752 
Q 1469 391 1925 391 
Q 2381 391 2643 752 
Q 2906 1113 2906 1747 
Q 2906 2381 2643 2742 
Q 2381 3103 1925 3103 
Q 1469 3103 1208 2742 
Q 947 2381 947 1747 
z
" transform="scale(0.015625)"/>
      <path id="DejaVuSans-78" d="M 3513 3500 
L 2247 1797 
L 3578 0 
L 2900 0 
L 1881 1375 
L 863 0 
L 184 0 
L 1544 1831 
L 300 3500 
L 978 3500 
L 1906 2253 
L 2834 3500 
L 3513 3500 
z
" transform="scale(0.015625)"/>
      <path id="DejaVuSans-73" d="M 2834 3397 
L 2834 2853 
Q 2591 2978 2328 3040 
Q 2066 3103 1784 3103 
Q 1356 3103 1142 2972 
Q 928 2841 928 2578 
Q 928 2378 1081 2264 
Q 1234 2150 1697 2047 
L 1894 2003 
Q 2506 1872 2764 1633 
Q 3022 1394 3022 966 
Q 3022 478 2636 193 
Q 2250 -91 1575 -91 
Q 1294 -91 989 -36 
Q 684 19 347 128 
L 347 722 
Q 666 556 975 473 
Q 1284 391 1588 391 
Q 1994 391 2212 530 
Q 2431 669 2431 922 
Q 2431 1156 2273 1281 
Q 2116 1406 1581 1522 
L 1381 1569 
Q 847 1681 609 1914 
Q 372 2147 372 2553 
Q 372 3047 722 3315 
Q 1072 3584 1716 3584 
Q 2034 3584 2315 3537 
Q 2597 3491 2834 3397 
z
" transform="scale(0.015625)"/>
      <path id="DejaVuSans-2d" d="M 313 2009 
L 1997 2009 
L 1997 1497 
L 313 1497 
L 313 2009 
z
" transform="scale(0.015625)"/>
     </defs>
     <use xlink:href="#DejaVuSans-54"/>
     <use xlink:href="#DejaVuSans-6f" x="44.083984"/>
     <use xlink:href="#DejaVuSans-74" x="105.265625"/>
     <use xlink:href="#DejaVuSans-61" x="144.474609"/>
     <use xlink:href="#DejaVuSans-61" x="205.753906"/>
     <use xlink:href="#DejaVuSans-6c" x="267.033203"/>
     <use xlink:href="#DejaVuSans-20" x="294.816406"/>
     <use xlink:href="#DejaVuSans-6d" x="326.603516"/>
     <use xlink:href="#DejaVuSans-61" x="424.015625"/>
     <use xlink:href="#DejaVuSans-6e" x="485.294922"/>
     <use xlink:href="#DejaVuSans-6e" x="548.673828"/>
     <use xlink:href="#DejaVuSans-65" x="612.052734"/>
     <use xlink:href="#DejaVuSans-6e" x="673.576172"/>
     <use xlink:href="#DejaVuSans-20" x="736.955078"/>
     <use xlink:href="#DejaVuSans-65" x="768.742188"/>
     <use xlink:href="#DejaVuSans-6e" x="830.265625"/>
     <use xlink:href="#DejaVuSans-20" x="893.644531"/>
     <use xlink:href="#DejaVuSans-76" x="925.431641"/>
     <use xlink:href="#DejaVuSans-72" x="984.611328"/>
     <use xlink:href="#DejaVuSans-6f" x="1023.474609"/>
     <use xlink:href="#DejaVuSans-75" x="1084.65625"/>
     <use xlink:href="#DejaVuSans-77" x="1148.035156"/>
     <use xlink:href="#DejaVuSans-65" x="1229.822266"/>
     <use xlink:href="#DejaVuSans-6e" x="1291.345703"/>
     <use xlink:href="#DejaVuSans-2c" x="1354.724609"/>
     <use xlink:href="#DejaVuSans-20" x="1386.511719"/>
     <use xlink:href="#DejaVuSans-54" x="1418.298828"/>
     <use xlink:href="#DejaVuSans-6f" x="1462.382812"/>
     <use xlink:href="#DejaVuSans-74" x="1523.564453"/>
     <use xlink:href="#DejaVuSans-61" x="1562.773438"/>
     <use xlink:href="#DejaVuSans-61" x="1624.052734"/>
     <use xlink:href="#DejaVuSans-6c" x="1685.332031"/>
     <use xlink:href="#DejaVuSans-20" x="1713.115234"/>
     <use xlink:href="#DejaVuSans-6c" x="1744.902344"/>
     <use xlink:href="#DejaVuSans-65" x="1772.685547"/>
     <use xlink:href="#DejaVuSans-65" x="1834.208984"/>
     <use xlink:href="#DejaVuSans-66" x="1895.732422"/>
     <use xlink:href="#DejaVuSans-74" x="1929.1875"/>
     <use xlink:href="#DejaVuSans-69" x="1968.396484"/>
     <use xlink:href="#DejaVuSans-6a" x="1996.179688"/>
     <use xlink:href="#DejaVuSans-64" x="2023.962891"/>
     <use xlink:href="#DejaVuSans-2c" x="2087.439453"/>
     <use xlink:href="#DejaVuSans-20" x="2119.226562"/>
     <use xlink:href="#DejaVuSans-6d" x="2151.013672"/>
     <use xlink:href="#DejaVuSans-65" x="2248.425781"/>
     <use xlink:href="#DejaVuSans-64" x="2309.949219"/>
     <use xlink:href="#DejaVuSans-69" x="2373.425781"/>
     <use xlink:href="#DejaVuSans-61" x="2401.208984"/>
     <use xlink:href="#DejaVuSans-6e" x="2462.488281"/>
     <use xlink:href="#DejaVuSans-20" x="2525.867188"/>
     <use xlink:href="#DejaVuSans-65" x="2557.654297"/>
     <use xlink:href="#DejaVuSans-78" x="2617.427734"/>
     <use xlink:href="#DejaVuSans-63" x="2674.857422"/>
     <use xlink:href="#DejaVuSans-6c" x="2729.837891"/>
     <use xlink:href="#DejaVuSans-75" x="2757.621094"/>
     <use xlink:href="#DejaVuSans-64" x="2821"/>
     <use xlink:href="#DejaVuSans-65" x="2884.476562"/>
     <use xlink:href="#DejaVuSans-73" x="2946"/>
     <use xlink:href="#DejaVuSans-20" x="2998.099609"/>
     <use xlink:href="#DejaVuSans-32" x="3029.886719"/>
     <use xlink:href="#DejaVuSans-30" x="3093.509766"/>
     <use xlink:href="#DejaVuSans-32" x="3157.132812"/>
     <use xlink:href="#DejaVuSans-30" x="3220.755859"/>
     <use xlink:href="#DejaVuSans-2d" x="3284.378906"/>
     <use xlink:href="#DejaVuSans-32" x="3320.462891"/>
     <use xlink:href="#DejaVuSans-30" x="3384.085938"/>
     <use xlink:href="#DejaVuSans-32" x="3447.708984"/>
     <use xlink:href="#DejaVuSans-33" x="3511.332031"/>
    </g>
   </g>
  </g>
  <g id="text_19">
   <!-- Deaths per week in the Netherlands (since 2010) -->
   <g transform="translate(36.326976 17.837812) scale(0.14 -0.14)">
    <defs>
     <path id="DejaVuSans-68" d="M 3513 2113 
L 3513 0 
L 2938 0 
L 2938 2094 
Q 2938 2591 2744 2837 
Q 2550 3084 2163 3084 
Q 1697 3084 1428 2787 
Q 1159 2491 1159 1978 
L 1159 0 
L 581 0 
L 581 4863 
L 1159 4863 
L 1159 2956 
Q 1366 3272 1645 3428 
Q 1925 3584 2291 3584 
Q 2894 3584 3203 3211 
Q 3513 2838 3513 2113 
z
" transform="scale(0.015625)"/>
     <path id="DejaVuSans-6b" d="M 581 4863 
L 1159 4863 
L 1159 1991 
L 2875 3500 
L 3609 3500 
L 1753 1863 
L 3688 0 
L 2938 0 
L 1159 1709 
L 1159 0 
L 581 0 
L 581 4863 
z
" transform="scale(0.015625)"/>
     <path id="DejaVuSans-28" d="M 1984 4856 
Q 1566 4138 1362 3434 
Q 1159 2731 1159 2009 
Q 1159 1288 1364 580 
Q 1569 -128 1984 -844 
L 1484 -844 
Q 1016 -109 783 600 
Q 550 1309 550 2009 
Q 550 2706 781 3412 
Q 1013 4119 1484 4856 
L 1984 4856 
z
" transform="scale(0.015625)"/>
     <path id="DejaVuSans-29" d="M 513 4856 
L 1013 4856 
Q 1481 4119 1714 3412 
Q 1947 2706 1947 2009 
Q 1947 1309 1714 600 
Q 1481 -109 1013 -844 
L 513 -844 
Q 928 -128 1133 580 
Q 1338 1288 1338 2009 
Q 1338 2731 1133 3434 
Q 928 4138 513 4856 
z
" transform="scale(0.015625)"/>
    </defs>
    <use xlink:href="#DejaVuSans-44"/>
    <use xlink:href="#DejaVuSans-65" x="77.001953"/>
    <use xlink:href="#DejaVuSans-61" x="138.525391"/>
    <use xlink:href="#DejaVuSans-74" x="199.804688"/>
    <use xlink:href="#DejaVuSans-68" x="239.013672"/>
    <use xlink:href="#DejaVuSans-73" x="302.392578"/>
    <use xlink:href="#DejaVuSans-20" x="354.492188"/>
    <use xlink:href="#DejaVuSans-70" x="386.279297"/>
    <use xlink:href="#DejaVuSans-65" x="449.755859"/>
    <use xlink:href="#DejaVuSans-72" x="511.279297"/>
    <use xlink:href="#DejaVuSans-20" x="552.392578"/>
    <use xlink:href="#DejaVuSans-77" x="584.179688"/>
    <use xlink:href="#DejaVuSans-65" x="665.966797"/>
    <use xlink:href="#DejaVuSans-65" x="727.490234"/>
    <use xlink:href="#DejaVuSans-6b" x="789.013672"/>
    <use xlink:href="#DejaVuSans-20" x="846.923828"/>
    <use xlink:href="#DejaVuSans-69" x="878.710938"/>
    <use xlink:href="#DejaVuSans-6e" x="906.494141"/>
    <use xlink:href="#DejaVuSans-20" x="969.873047"/>
    <use xlink:href="#DejaVuSans-74" x="1001.660156"/>
    <use xlink:href="#DejaVuSans-68" x="1040.869141"/>
    <use xlink:href="#DejaVuSans-65" x="1104.248047"/>
    <use xlink:href="#DejaVuSans-20" x="1165.771484"/>
    <use xlink:href="#DejaVuSans-4e" x="1197.558594"/>
    <use xlink:href="#DejaVuSans-65" x="1272.363281"/>
    <use xlink:href="#DejaVuSans-74" x="1333.886719"/>
    <use xlink:href="#DejaVuSans-68" x="1373.095703"/>
    <use xlink:href="#DejaVuSans-65" x="1436.474609"/>
    <use xlink:href="#DejaVuSans-72" x="1497.998047"/>
    <use xlink:href="#DejaVuSans-6c" x="1539.111328"/>
    <use xlink:href="#DejaVuSans-61" x="1566.894531"/>
    <use xlink:href="#DejaVuSans-6e" x="1628.173828"/>
    <use xlink:href="#DejaVuSans-64" x="1691.552734"/>
    <use xlink:href="#DejaVuSans-73" x="1755.029297"/>
    <use xlink:href="#DejaVuSans-20" x="1807.128906"/>
    <use xlink:href="#DejaVuSans-28" x="1838.916016"/>
    <use xlink:href="#DejaVuSans-73" x="1877.929688"/>
    <use xlink:href="#DejaVuSans-69" x="1930.029297"/>
    <use xlink:href="#DejaVuSans-6e" x="1957.8125"/>
    <use xlink:href="#DejaVuSans-63" x="2021.191406"/>
    <use xlink:href="#DejaVuSans-65" x="2076.171875"/>
    <use xlink:href="#DejaVuSans-20" x="2137.695312"/>
    <use xlink:href="#DejaVuSans-32" x="2169.482422"/>
    <use xlink:href="#DejaVuSans-30" x="2233.105469"/>
    <use xlink:href="#DejaVuSans-31" x="2296.728516"/>
    <use xlink:href="#DejaVuSans-30" x="2360.351562"/>
    <use xlink:href="#DejaVuSans-29" x="2423.974609"/>
   </g>
  </g>
  <g id="legend_1">
   <g id="patch_4">
    <path d="M 418.147288 455.67976 
L 491.934788 455.67976 
Q 493.934788 455.67976 493.934788 453.67976 
L 493.934788 351.932885 
Q 493.934788 349.932885 491.934788 349.932885 
L 418.147288 349.932885 
Q 416.147288 349.932885 416.147288 351.932885 
L 416.147288 453.67976 
Q 416.147288 455.67976 418.147288 455.67976 
z
" style="fill: #ffffff; opacity: 0.8; stroke: #cccccc; stroke-linejoin: miter"/>
   </g>
   <g id="patch_5">
    <path d="M 420.147288 361.531322 
L 440.147288 361.531322 
L 440.147288 354.531322 
L 420.147288 354.531322 
z
" style="fill: #1f77b4; fill-opacity: 0.3; stroke: #1f77b4; stroke-opacity: 0.3; stroke-linejoin: miter"/>
   </g>
   <g id="text_20">
    <!-- SD -->
    <g transform="translate(448.147288 361.531322) scale(0.1 -0.1)">
     <use xlink:href="#DejaVuSans-53"/>
     <use xlink:href="#DejaVuSans-44" x="63.476562"/>
    </g>
   </g>
   <g id="patch_6">
    <path d="M 420.147288 376.209448 
L 440.147288 376.209448 
L 440.147288 369.209448 
L 420.147288 369.209448 
z
" style="fill: #1f77b4; fill-opacity: 0.2"/>
   </g>
   <g id="text_21">
    <!-- Min/Max -->
    <g transform="translate(448.147288 376.209448) scale(0.1 -0.1)">
     <defs>
      <path id="DejaVuSans-2f" d="M 1625 4666 
L 2156 4666 
L 531 -594 
L 0 -594 
L 1625 4666 
z
" transform="scale(0.015625)"/>
     </defs>
     <use xlink:href="#DejaVuSans-4d"/>
     <use xlink:href="#DejaVuSans-69" x="86.279297"/>
     <use xlink:href="#DejaVuSans-6e" x="114.0625"/>
     <use xlink:href="#DejaVuSans-2f" x="177.441406"/>
     <use xlink:href="#DejaVuSans-4d" x="211.132812"/>
     <use xlink:href="#DejaVuSans-61" x="297.412109"/>
     <use xlink:href="#DejaVuSans-78" x="358.691406"/>
    </g>
   </g>
   <g id="line2d_23">
    <path d="M 420.147288 387.387573 
L 430.147288 387.387573 
L 440.147288 387.387573 
" style="fill: none; stroke-dasharray: 5.55,2.4; stroke-dashoffset: 0; stroke: #1f77b4; stroke-width: 1.5"/>
   </g>
   <g id="text_22">
    <!-- Median -->
    <g transform="translate(448.147288 390.887573) scale(0.1 -0.1)">
     <use xlink:href="#DejaVuSans-4d"/>
     <use xlink:href="#DejaVuSans-65" x="86.279297"/>
     <use xlink:href="#DejaVuSans-64" x="147.802734"/>
     <use xlink:href="#DejaVuSans-69" x="211.279297"/>
     <use xlink:href="#DejaVuSans-61" x="239.0625"/>
     <use xlink:href="#DejaVuSans-6e" x="300.341797"/>
    </g>
   </g>
   <g id="line2d_24">
    <path d="M 420.147288 402.065697 
L 430.147288 402.065697 
L 440.147288 402.065697 
" style="fill: none; stroke-dasharray: 2,3.3; stroke-dashoffset: 0; stroke: #d62728; stroke-width: 2"/>
   </g>
   <g id="text_23">
    <!-- 2020 -->
    <g transform="translate(448.147288 405.565697) scale(0.1 -0.1)">
     <use xlink:href="#DejaVuSans-32"/>
     <use xlink:href="#DejaVuSans-30" x="63.623047"/>
     <use xlink:href="#DejaVuSans-32" x="127.246094"/>
     <use xlink:href="#DejaVuSans-30" x="190.869141"/>
    </g>
   </g>
   <g id="line2d_25">
    <path d="M 420.147288 416.743823 
L 430.147288 416.743823 
L 440.147288 416.743823 
" style="fill: none; stroke-dasharray: 2,3.3; stroke-dashoffset: 0; stroke: #ff7f0e; stroke-width: 2"/>
   </g>
   <g id="text_24">
    <!-- 2021 -->
    <g transform="translate(448.147288 420.243823) scale(0.1 -0.1)">
     <use xlink:href="#DejaVuSans-32"/>
     <use xlink:href="#DejaVuSans-30" x="63.623047"/>
     <use xlink:href="#DejaVuSans-32" x="127.246094"/>
     <use xlink:href="#DejaVuSans-31" x="190.869141"/>
    </g>
   </g>
   <g id="line2d_26">
    <path d="M 420.147288 431.421947 
L 430.147288 431.421947 
L 440.147288 431.421947 
" style="fill: none; stroke: #ff7f0e; stroke-width: 2; stroke-linecap: square"/>
   </g>
   <g id="text_25">
    <!-- 2022 -->
    <g transform="translate(448.147288 434.921947) scale(0.1 -0.1)">
     <use xlink:href="#DejaVuSans-32"/>
     <use xlink:href="#DejaVuSans-30" x="63.623047"/>
     <use xlink:href="#DejaVuSans-32" x="127.246094"/>
     <use xlink:href="#DejaVuSans-32" x="190.869141"/>
    </g>
   </g>
   <g id="line2d_27">
    <path d="M 420.147288 446.100073 
L 430.147288 446.100073 
L 440.147288 446.100073 
" style="fill: none; stroke: #2ca02c; stroke-width: 3; stroke-linecap: square"/>
   </g>
   <g id="text_26">
    <!-- 2023 -->
    <g transform="translate(448.147288 449.600073) scale(0.1 -0.1)">
     <use xlink:href="#DejaVuSans-32"/>
     <use xlink:href="#DejaVuSans-30" x="63.623047"/>
     <use xlink:href="#DejaVuSans-32" x="127.246094"/>
     <use xlink:href="#DejaVuSans-33" x="190.869141"/>
    </g>
   </g>
  </g>
  <g id="legend_2">
   <g id="patch_7">
    <path d="M 418.147288 455.67976 
L 491.934788 455.67976 
Q 493.934788 455.67976 493.934788 453.67976 
L 493.934788 351.932885 
Q 493.934788 349.932885 491.934788 349.932885 
L 418.147288 349.932885 
Q 416.147288 349.932885 416.147288 351.932885 
L 416.147288 453.67976 
Q 416.147288 455.67976 418.147288 455.67976 
z
" style="fill: #ffffff; opacity: 0.8; stroke: #cccccc; stroke-linejoin: miter"/>
   </g>
   <g id="patch_8">
    <path d="M 420.147288 361.531322 
L 440.147288 361.531322 
L 440.147288 354.531322 
L 420.147288 354.531322 
z
" style="fill: #1f77b4; fill-opacity: 0.3; stroke: #1f77b4; stroke-opacity: 0.3; stroke-linejoin: miter"/>
   </g>
   <g id="text_27">
    <!-- SD -->
    <g transform="translate(448.147288 361.531322) scale(0.1 -0.1)">
     <use xlink:href="#DejaVuSans-53"/>
     <use xlink:href="#DejaVuSans-44" x="63.476562"/>
    </g>
   </g>
   <g id="patch_9">
    <path d="M 420.147288 376.209448 
L 440.147288 376.209448 
L 440.147288 369.209448 
L 420.147288 369.209448 
z
" style="fill: #1f77b4; fill-opacity: 0.2"/>
   </g>
   <g id="text_28">
    <!-- Min/Max -->
    <g transform="translate(448.147288 376.209448) scale(0.1 -0.1)">
     <use xlink:href="#DejaVuSans-4d"/>
     <use xlink:href="#DejaVuSans-69" x="86.279297"/>
     <use xlink:href="#DejaVuSans-6e" x="114.0625"/>
     <use xlink:href="#DejaVuSans-2f" x="177.441406"/>
     <use xlink:href="#DejaVuSans-4d" x="211.132812"/>
     <use xlink:href="#DejaVuSans-61" x="297.412109"/>
     <use xlink:href="#DejaVuSans-78" x="358.691406"/>
    </g>
   </g>
   <g id="line2d_28">
    <path d="M 420.147288 387.387573 
L 430.147288 387.387573 
L 440.147288 387.387573 
" style="fill: none; stroke-dasharray: 5.55,2.4; stroke-dashoffset: 0; stroke: #1f77b4; stroke-width: 1.5"/>
   </g>
   <g id="text_29">
    <!-- Median -->
    <g transform="translate(448.147288 390.887573) scale(0.1 -0.1)">
     <use xlink:href="#DejaVuSans-4d"/>
     <use xlink:href="#DejaVuSans-65" x="86.279297"/>
     <use xlink:href="#DejaVuSans-64" x="147.802734"/>
     <use xlink:href="#DejaVuSans-69" x="211.279297"/>
     <use xlink:href="#DejaVuSans-61" x="239.0625"/>
     <use xlink:href="#DejaVuSans-6e" x="300.341797"/>
    </g>
   </g>
   <g id="line2d_29">
    <path d="M 420.147288 402.065697 
L 430.147288 402.065697 
L 440.147288 402.065697 
" style="fill: none; stroke-dasharray: 2,3.3; stroke-dashoffset: 0; stroke: #d62728; stroke-width: 2"/>
   </g>
   <g id="text_30">
    <!-- 2020 -->
    <g transform="translate(448.147288 405.565697) scale(0.1 -0.1)">
     <use xlink:href="#DejaVuSans-32"/>
     <use xlink:href="#DejaVuSans-30" x="63.623047"/>
     <use xlink:href="#DejaVuSans-32" x="127.246094"/>
     <use xlink:href="#DejaVuSans-30" x="190.869141"/>
    </g>
   </g>
   <g id="line2d_30">
    <path d="M 420.147288 416.743823 
L 430.147288 416.743823 
L 440.147288 416.743823 
" style="fill: none; stroke-dasharray: 2,3.3; stroke-dashoffset: 0; stroke: #ff7f0e; stroke-width: 2"/>
   </g>
   <g id="text_31">
    <!-- 2021 -->
    <g transform="translate(448.147288 420.243823) scale(0.1 -0.1)">
     <use xlink:href="#DejaVuSans-32"/>
     <use xlink:href="#DejaVuSans-30" x="63.623047"/>
     <use xlink:href="#DejaVuSans-32" x="127.246094"/>
     <use xlink:href="#DejaVuSans-31" x="190.869141"/>
    </g>
   </g>
   <g id="line2d_31">
    <path d="M 420.147288 431.421947 
L 430.147288 431.421947 
L 440.147288 431.421947 
" style="fill: none; stroke: #ff7f0e; stroke-width: 2; stroke-linecap: square"/>
   </g>
   <g id="text_32">
    <!-- 2022 -->
    <g transform="translate(448.147288 434.921947) scale(0.1 -0.1)">
     <use xlink:href="#DejaVuSans-32"/>
     <use xlink:href="#DejaVuSans-30" x="63.623047"/>
     <use xlink:href="#DejaVuSans-32" x="127.246094"/>
     <use xlink:href="#DejaVuSans-32" x="190.869141"/>
    </g>
   </g>
   <g id="line2d_32">
    <path d="M 420.147288 446.100073 
L 430.147288 446.100073 
L 440.147288 446.100073 
" style="fill: none; stroke: #2ca02c; stroke-width: 3; stroke-linecap: square"/>
   </g>
   <g id="text_33">
    <!-- 2023 -->
    <g transform="translate(448.147288 449.600073) scale(0.1 -0.1)">
     <use xlink:href="#DejaVuSans-32"/>
     <use xlink:href="#DejaVuSans-30" x="63.623047"/>
     <use xlink:href="#DejaVuSans-32" x="127.246094"/>
     <use xlink:href="#DejaVuSans-33" x="190.869141"/>
    </g>
   </g>
  </g>
 </g>
 <defs>
  <clipPath id="p53b9b7eff8">
   <path d="M 387.624264 255.751222 
C 387.624264 232.259671 382.996941 208.996546 374.007113 187.293183 
C 365.017286 165.58982 351.839784 145.868295 335.228749 129.257261 
C 318.617715 112.646226 298.89619 99.468724 277.192827 90.478897 
C 255.489464 81.489069 232.226339 76.861746 208.734788 76.861746 
C 185.243237 76.861746 161.980112 81.489069 140.27675 90.478897 
C 118.573387 99.468724 98.851862 112.646226 82.240827 129.257261 
C 65.629792 145.868295 52.45229 165.58982 43.462463 187.293183 
C 34.472636 208.996546 29.845313 232.259671 29.845313 255.751222 
C 29.845313 279.242773 34.472636 302.505898 43.462463 324.20926 
C 52.45229 345.912623 65.629792 365.634148 82.240827 382.245183 
C 98.851862 398.856218 118.573387 412.03372 140.27675 421.023547 
C 161.980112 430.013374 185.243237 434.640697 208.734788 434.640697 
C 232.226339 434.640697 255.489464 430.013374 277.192827 421.023547 
C 298.89619 412.03372 318.617715 398.856218 335.228749 382.245183 
C 351.839784 365.634148 365.017286 345.912623 374.007113 324.20926 
C 382.996941 302.505898 387.624264 279.242773 387.624264 255.751222 
M 208.734788 255.751222 
C 208.734788 255.751222 208.734788 255.751222 208.734788 255.751222 
C 208.734788 255.751222 208.734788 255.751222 208.734788 255.751222 
C 208.734788 255.751222 208.734788 255.751222 208.734788 255.751222 
C 208.734788 255.751222 208.734788 255.751222 208.734788 255.751222 
C 208.734788 255.751222 208.734788 255.751222 208.734788 255.751222 
C 208.734788 255.751222 208.734788 255.751222 208.734788 255.751222 
C 208.734788 255.751222 208.734788 255.751222 208.734788 255.751222 
C 208.734788 255.751222 208.734788 255.751222 208.734788 255.751222 
C 208.734788 255.751222 208.734788 255.751222 208.734788 255.751222 
C 208.734788 255.751222 208.734788 255.751222 208.734788 255.751222 
C 208.734788 255.751222 208.734788 255.751222 208.734788 255.751222 
C 208.734788 255.751222 208.734788 255.751222 208.734788 255.751222 
C 208.734788 255.751222 208.734788 255.751222 208.734788 255.751222 
C 208.734788 255.751222 208.734788 255.751222 208.734788 255.751222 
C 208.734788 255.751222 208.734788 255.751222 208.734788 255.751222 
C 208.734788 255.751222 208.734788 255.751222 208.734788 255.751222 
z
"/>
  </clipPath>
 </defs>
</svg>
