<?xml version="1.0" encoding="utf-8" standalone="no"?>
<!DOCTYPE svg PUBLIC "-//W3C//DTD SVG 1.1//EN"
  "http://www.w3.org/Graphics/SVG/1.1/DTD/svg11.dtd">
<svg xmlns:xlink="http://www.w3.org/1999/xlink" width="498.576297pt" height="460.478822pt" viewBox="0 0 498.576297 460.478822" xmlns="http://www.w3.org/2000/svg" version="1.1">
 <metadata>
  <rdf:RDF xmlns:dc="http://purl.org/dc/elements/1.1/" xmlns:cc="http://creativecommons.org/ns#" xmlns:rdf="http://www.w3.org/1999/02/22-rdf-syntax-ns#">
   <cc:Work>
    <dc:type rdf:resource="http://purl.org/dc/dcmitype/StillImage"/>
    <dc:date>2022-11-25T03:03:48.909514</dc:date>
    <dc:format>image/svg+xml</dc:format>
    <dc:creator>
     <cc:Agent>
      <dc:title>Matplotlib v3.6.2, https://matplotlib.org/</dc:title>
     </cc:Agent>
    </dc:creator>
   </cc:Work>
  </rdf:RDF>
 </metadata>
 <defs>
  <style type="text/css">*{stroke-linejoin: round; stroke-linecap: butt}</style>
 </defs>
 <g id="figure_1">
  <g id="patch_1">
   <path d="M 0 460.478822 
L 498.576297 460.478822 
L 498.576297 0 
L 0 0 
z
" style="fill: #ffffff"/>
  </g>
  <g id="axes_1">
   <g id="patch_2">
    <path d="M 386.907281 255.908776 
C 386.907281 232.464302 382.28923 209.247796 373.317419 187.587926 
C 364.345607 165.928057 351.194512 146.246053 334.616766 129.668307 
C 318.039019 113.09056 298.357016 99.939466 276.697146 90.967654 
C 255.037277 81.995842 231.820771 77.377792 208.376297 77.377792 
C 184.931822 77.377792 161.715316 81.995842 140.055447 90.967654 
C 118.395577 99.939466 98.713574 113.09056 82.135827 129.668307 
C 65.558081 146.246053 52.406986 165.928057 43.435174 187.587926 
C 34.463363 209.247796 29.845313 232.464302 29.845313 255.908776 
C 29.845313 279.35325 34.463363 302.569756 43.435174 324.229626 
C 52.406986 345.889495 65.558081 365.571499 82.135827 382.149245 
C 98.713574 398.726992 118.395577 411.878086 140.055447 420.849898 
C 161.715316 429.82171 184.931822 434.43976 208.376296 434.43976 
C 231.820771 434.43976 255.037277 429.82171 276.697146 420.849898 
C 298.357016 411.878086 318.039019 398.726992 334.616766 382.149245 
C 351.194512 365.571499 364.345607 345.889495 373.317419 324.229626 
C 382.28923 302.569756 386.907281 279.35325 386.907281 255.908776 
M 208.376297 255.908776 
C 208.376297 255.908776 208.376297 255.908776 208.376297 255.908776 
C 208.376297 255.908776 208.376297 255.908776 208.376297 255.908776 
C 208.376297 255.908776 208.376297 255.908776 208.376297 255.908776 
C 208.376297 255.908776 208.376297 255.908776 208.376297 255.908776 
C 208.376297 255.908776 208.376297 255.908776 208.376297 255.908776 
C 208.376297 255.908776 208.376297 255.908776 208.376297 255.908776 
C 208.376297 255.908776 208.376297 255.908776 208.376297 255.908776 
C 208.376297 255.908776 208.376297 255.908776 208.376297 255.908776 
C 208.376297 255.908776 208.376297 255.908776 208.376297 255.908776 
C 208.376297 255.908776 208.376297 255.908776 208.376297 255.908776 
C 208.376297 255.908776 208.376297 255.908776 208.376297 255.908776 
C 208.376297 255.908776 208.376297 255.908776 208.376297 255.908776 
C 208.376297 255.908776 208.376297 255.908776 208.376297 255.908776 
C 208.376297 255.908776 208.376297 255.908776 208.376297 255.908776 
C 208.376297 255.908776 208.376297 255.908776 208.376297 255.908776 
C 208.376297 255.908776 208.376297 255.908776 208.376297 255.908776 
M 386.907281 255.908776 
z
" style="fill: #ffffff"/>
   </g>
   <g id="PolyCollection_1">
    <defs>
     <path id="m907812ccda" d="M 208.376297 -300.662555 
L 208.376297 -318.44807 
L 222.411906 -320.163689 
L 235.706231 -315.451949 
L 249.532165 -313.089154 
L 262.095288 -306.923034 
L 273.735446 -299.259121 
L 285.830112 -291.997331 
L 296.992058 -283.076761 
L 305.483157 -271.598073 
L 314.795058 -260.422921 
L 314.303054 -244.742767 
L 313.320554 -230.436483 
L 313.996466 -217.394657 
L 310.65405 -204.570046 
L 307.989359 -192.474831 
L 304.700143 -180.828351 
L 299.212333 -170.120482 
L 291.479487 -160.954128 
L 287.651153 -149.850564 
L 278.703979 -142.265157 
L 271.149033 -133.714274 
L 261.261311 -127.952876 
L 250.714891 -123.900594 
L 240.492235 -119.887275 
L 229.967936 -116.969323 
L 219.495214 -112.997521 
L 208.376297 -110.229201 
L 197.404504 -114.209206 
L 186.035471 -113.929754 
L 174.412947 -115.016055 
L 166.232468 -124.271689 
L 156.858944 -129.934276 
L 149.734054 -138.376638 
L 141.041807 -144.916894 
L 133.506589 -152.891219 
L 129.610628 -163.230635 
L 122.899024 -172.152793 
L 119.729338 -182.720534 
L 116.007577 -193.354453 
L 114.711311 -204.570046 
L 111.935747 -216.280049 
L 116.155108 -227.300528 
L 117.663431 -238.972898 
L 123.210521 -249.268494 
L 127.35345 -260.496079 
L 133.635021 -270.785039 
L 141.802687 -279.716117 
L 151.31898 -287.23184 
L 160.547478 -295.700246 
L 170.051301 -305.624756 
L 182.747609 -308.549718 
L 195.376305 -311.634606 
L 208.376296 -318.44807 
L 208.376296 -300.662555 
L 208.376296 -300.662555 
L 197.109056 -297.364125 
L 185.363238 -297.937695 
L 174.602378 -293.62455 
L 165.162216 -286.907597 
L 155.651393 -280.955257 
L 148.691186 -271.94061 
L 142.3246 -263.086743 
L 136.622466 -254.098139 
L 130.626389 -245.376346 
L 126.428723 -235.648662 
L 123.180619 -225.568895 
L 121.401114 -215.130746 
L 121.651668 -204.570046 
L 124.058394 -194.332 
L 126.798337 -184.462885 
L 131.383827 -175.370654 
L 133.277826 -165.155329 
L 140.619948 -157.801216 
L 147.505147 -150.642914 
L 153.071223 -142.143523 
L 162.237858 -137.726978 
L 170.734537 -132.849666 
L 179.046225 -127.233003 
L 188.515154 -123.990225 
L 198.214849 -120.882998 
L 208.376297 -115.835831 
L 218.634419 -120.086804 
L 228.613779 -122.463353 
L 238.029658 -126.380559 
L 248.160492 -128.767595 
L 257.436352 -133.494286 
L 265.273844 -140.345992 
L 273.200047 -147.141215 
L 281.6363 -154.002317 
L 285.151439 -164.275343 
L 291.574367 -173.01718 
L 295.712511 -183.043603 
L 297.815952 -193.710106 
L 298.118262 -204.570046 
L 300.043865 -215.700505 
L 297.302808 -226.488463 
L 294.520221 -237.240128 
L 290.563628 -247.705286 
L 285.224636 -257.614625 
L 280.966366 -268.879236 
L 271.880572 -276.251556 
L 263.303246 -284.145471 
L 252.597488 -288.826488 
L 241.723043 -292.49819 
L 230.837718 -295.699615 
L 219.907641 -299.539211 
L 208.376297 -300.662555 
z
" style="stroke: #1f77b4; stroke-opacity: 0.3"/>
    </defs>
    <g clip-path="url(#pf50f98c256)">
     <use xlink:href="#m907812ccda" x="0" y="460.478822" style="fill: #1f77b4; fill-opacity: 0.3; stroke: #1f77b4; stroke-opacity: 0.3"/>
    </g>
   </g>
   <g id="PolyCollection_2">
    <path d="M 208.376297 134.00451 
L 208.376297 161.405637 
L 219.796219 161.857253 
L 229.831321 168.86232 
L 240.118719 172.210887 
L 251.373187 173.985046 
L 260.294025 180.692961 
L 267.758314 188.880335 
L 276.171946 195.847071 
L 283.90141 203.777554 
L 290.481541 212.816619 
L 294.182606 223.366735 
L 296.683334 234.143046 
L 296.085362 245.258967 
L 292.834633 255.908776 
L 295.983611 266.54623 
L 293.996305 277.012213 
L 290.476898 287.045427 
L 284.854579 296.047675 
L 281.651965 306.487318 
L 272.949671 313.115794 
L 264.677064 319.459206 
L 256.451143 325.557215 
L 247.737187 330.904687 
L 237.114093 331.684117 
L 228.106088 335.955689 
L 218.601925 340.124402 
L 208.376297 342.451238 
L 198.286571 339.005145 
L 189.07168 334.230683 
L 180.341195 329.831263 
L 172.032175 325.156714 
L 162.649878 322.154929 
L 153.661466 317.669053 
L 150.145178 307.497045 
L 141.73649 301.906913 
L 134.772 294.539291 
L 134.549647 283.907531 
L 129.092367 275.450509 
L 128.027195 265.664923 
L 123.849628 255.908776 
L 122.329159 245.460762 
L 124.016869 235.116045 
L 127.809092 225.353666 
L 133.682911 216.706663 
L 137.996788 207.329309 
L 143.956364 198.837696 
L 150.784123 190.90065 
L 155.565777 179.39953 
L 167.125957 177.31282 
L 176.997337 173.16926 
L 185.588509 163.45509 
L 197.701778 167.996209 
L 208.376296 161.405637 
L 208.376296 134.00451 
L 208.376296 134.00451 
L 194.666624 142.999465 
L 181.77828 147.996382 
L 169.388848 153.107323 
L 160.076245 163.880716 
L 149.277424 170.289278 
L 139.886469 178.599742 
L 130.121039 186.580667 
L 123.600341 197.392159 
L 121.975199 210.561982 
L 114.200199 220.192493 
L 112.870676 232.368755 
L 108.864155 243.825814 
L 112.506518 255.908776 
L 115.070945 267.238097 
L 118.31108 278.107858 
L 121.324103 288.923318 
L 128.812261 297.667203 
L 130.123731 309.922622 
L 139.301966 317.103293 
L 149.175529 322.732628 
L 155.099973 333.092855 
L 164.553764 339.405635 
L 171.957319 351.937728 
L 185.408627 349.092273 
L 197.005793 349.553296 
L 208.376297 353.213526 
L 220.055669 352.097063 
L 230.38732 345.211009 
L 240.845645 341.523411 
L 251.786008 338.61907 
L 262.254283 333.964515 
L 273.467687 329.381768 
L 280.51946 319.822042 
L 291.380815 313.202658 
L 293.26477 300.461684 
L 302.807961 291.721982 
L 309.090108 280.732501 
L 312.128048 268.506519 
L 312.240918 255.908776 
L 317.758251 242.627402 
L 322.160345 227.863527 
L 327.629815 210.681882 
L 332.169465 190.937109 
L 319.077105 179.497525 
L 302.768504 172.284577 
L 291.298152 162.30935 
L 276.558345 157.130025 
L 265.1233 147.786394 
L 252.30684 140.073453 
L 236.887604 140.233855 
L 223.354392 132.553064 
L 208.376297 134.00451 
z
" clip-path="url(#pf50f98c256)" style="fill: #1f77b4; fill-opacity: 0.2"/>
   </g>
   <g id="matplotlib.axis_1">
    <g id="xtick_1">
     <g id="line2d_1">
      <path d="M 208.376297 255.908776 
L 208.376297 77.377792 
" clip-path="url(#pf50f98c256)" style="fill: none; stroke: #b0b0b0; stroke-width: 0.8; stroke-linecap: square"/>
     </g>
     <g id="text_1">
      <!-- Jan -->
      <g transform="translate(200.668484 66.137167) scale(0.1 -0.1)">
       <defs>
        <path id="DejaVuSans-4a" d="M 628 4666 
L 1259 4666 
L 1259 325 
Q 1259 -519 939 -900 
Q 619 -1281 -91 -1281 
L -331 -1281 
L -331 -750 
L -134 -750 
Q 284 -750 456 -515 
Q 628 -281 628 325 
L 628 4666 
z
" transform="scale(0.015625)"/>
        <path id="DejaVuSans-61" d="M 2194 1759 
Q 1497 1759 1228 1600 
Q 959 1441 959 1056 
Q 959 750 1161 570 
Q 1363 391 1709 391 
Q 2188 391 2477 730 
Q 2766 1069 2766 1631 
L 2766 1759 
L 2194 1759 
z
M 3341 1997 
L 3341 0 
L 2766 0 
L 2766 531 
Q 2569 213 2275 61 
Q 1981 -91 1556 -91 
Q 1019 -91 701 211 
Q 384 513 384 1019 
Q 384 1609 779 1909 
Q 1175 2209 1959 2209 
L 2766 2209 
L 2766 2266 
Q 2766 2663 2505 2880 
Q 2244 3097 1772 3097 
Q 1472 3097 1187 3025 
Q 903 2953 641 2809 
L 641 3341 
Q 956 3463 1253 3523 
Q 1550 3584 1831 3584 
Q 2591 3584 2966 3190 
Q 3341 2797 3341 1997 
z
" transform="scale(0.015625)"/>
        <path id="DejaVuSans-6e" d="M 3513 2113 
L 3513 0 
L 2938 0 
L 2938 2094 
Q 2938 2591 2744 2837 
Q 2550 3084 2163 3084 
Q 1697 3084 1428 2787 
Q 1159 2491 1159 1978 
L 1159 0 
L 581 0 
L 581 3500 
L 1159 3500 
L 1159 2956 
Q 1366 3272 1645 3428 
Q 1925 3584 2291 3584 
Q 2894 3584 3203 3211 
Q 3513 2838 3513 2113 
z
" transform="scale(0.015625)"/>
       </defs>
       <use xlink:href="#DejaVuSans-4a"/>
       <use xlink:href="#DejaVuSans-61" x="29.492188"/>
       <use xlink:href="#DejaVuSans-6e" x="90.771484"/>
      </g>
     </g>
    </g>
    <g id="xtick_2">
     <g id="line2d_2">
      <path d="M 208.376297 255.908776 
L 297.641789 101.296408 
" clip-path="url(#pf50f98c256)" style="fill: none; stroke: #b0b0b0; stroke-width: 0.8; stroke-linecap: square"/>
     </g>
     <g id="text_2">
      <!-- Feb -->
      <g transform="translate(295.790226 91.931428) scale(0.1 -0.1)">
       <defs>
        <path id="DejaVuSans-46" d="M 628 4666 
L 3309 4666 
L 3309 4134 
L 1259 4134 
L 1259 2759 
L 3109 2759 
L 3109 2228 
L 1259 2228 
L 1259 0 
L 628 0 
L 628 4666 
z
" transform="scale(0.015625)"/>
        <path id="DejaVuSans-65" d="M 3597 1894 
L 3597 1613 
L 953 1613 
Q 991 1019 1311 708 
Q 1631 397 2203 397 
Q 2534 397 2845 478 
Q 3156 559 3463 722 
L 3463 178 
Q 3153 47 2828 -22 
Q 2503 -91 2169 -91 
Q 1331 -91 842 396 
Q 353 884 353 1716 
Q 353 2575 817 3079 
Q 1281 3584 2069 3584 
Q 2775 3584 3186 3129 
Q 3597 2675 3597 1894 
z
M 3022 2063 
Q 3016 2534 2758 2815 
Q 2500 3097 2075 3097 
Q 1594 3097 1305 2825 
Q 1016 2553 972 2059 
L 3022 2063 
z
" transform="scale(0.015625)"/>
        <path id="DejaVuSans-62" d="M 3116 1747 
Q 3116 2381 2855 2742 
Q 2594 3103 2138 3103 
Q 1681 3103 1420 2742 
Q 1159 2381 1159 1747 
Q 1159 1113 1420 752 
Q 1681 391 2138 391 
Q 2594 391 2855 752 
Q 3116 1113 3116 1747 
z
M 1159 2969 
Q 1341 3281 1617 3432 
Q 1894 3584 2278 3584 
Q 2916 3584 3314 3078 
Q 3713 2572 3713 1747 
Q 3713 922 3314 415 
Q 2916 -91 2278 -91 
Q 1894 -91 1617 61 
Q 1341 213 1159 525 
L 1159 0 
L 581 0 
L 581 4863 
L 1159 4863 
L 1159 2969 
z
" transform="scale(0.015625)"/>
       </defs>
       <use xlink:href="#DejaVuSans-46"/>
       <use xlink:href="#DejaVuSans-65" x="52.019531"/>
       <use xlink:href="#DejaVuSans-62" x="113.542969"/>
      </g>
     </g>
    </g>
    <g id="xtick_3">
     <g id="line2d_3">
      <path d="M 208.376297 255.908776 
L 362.988664 166.643284 
" clip-path="url(#pf50f98c256)" style="fill: none; stroke: #b0b0b0; stroke-width: 0.8; stroke-linecap: square"/>
     </g>
     <g id="text_3">
      <!-- Mar -->
      <g transform="translate(365.679426 162.402659) scale(0.1 -0.1)">
       <defs>
        <path id="DejaVuSans-4d" d="M 628 4666 
L 1569 4666 
L 2759 1491 
L 3956 4666 
L 4897 4666 
L 4897 0 
L 4281 0 
L 4281 4097 
L 3078 897 
L 2444 897 
L 1241 4097 
L 1241 0 
L 628 0 
L 628 4666 
z
" transform="scale(0.015625)"/>
        <path id="DejaVuSans-72" d="M 2631 2963 
Q 2534 3019 2420 3045 
Q 2306 3072 2169 3072 
Q 1681 3072 1420 2755 
Q 1159 2438 1159 1844 
L 1159 0 
L 581 0 
L 581 3500 
L 1159 3500 
L 1159 2956 
Q 1341 3275 1631 3429 
Q 1922 3584 2338 3584 
Q 2397 3584 2469 3576 
Q 2541 3569 2628 3553 
L 2631 2963 
z
" transform="scale(0.015625)"/>
       </defs>
       <use xlink:href="#DejaVuSans-4d"/>
       <use xlink:href="#DejaVuSans-61" x="86.279297"/>
       <use xlink:href="#DejaVuSans-72" x="147.558594"/>
      </g>
     </g>
    </g>
    <g id="xtick_4">
     <g id="line2d_4">
      <path d="M 208.376297 255.908776 
L 386.907281 255.908776 
" clip-path="url(#pf50f98c256)" style="fill: none; stroke: #b0b0b0; stroke-width: 0.8; stroke-linecap: square"/>
     </g>
     <g id="text_4">
      <!-- Apr -->
      <g transform="translate(392.257281 258.668151) scale(0.1 -0.1)">
       <defs>
        <path id="DejaVuSans-41" d="M 2188 4044 
L 1331 1722 
L 3047 1722 
L 2188 4044 
z
M 1831 4666 
L 2547 4666 
L 4325 0 
L 3669 0 
L 3244 1197 
L 1141 1197 
L 716 0 
L 50 0 
L 1831 4666 
z
" transform="scale(0.015625)"/>
        <path id="DejaVuSans-70" d="M 1159 525 
L 1159 -1331 
L 581 -1331 
L 581 3500 
L 1159 3500 
L 1159 2969 
Q 1341 3281 1617 3432 
Q 1894 3584 2278 3584 
Q 2916 3584 3314 3078 
Q 3713 2572 3713 1747 
Q 3713 922 3314 415 
Q 2916 -91 2278 -91 
Q 1894 -91 1617 61 
Q 1341 213 1159 525 
z
M 3116 1747 
Q 3116 2381 2855 2742 
Q 2594 3103 2138 3103 
Q 1681 3103 1420 2742 
Q 1159 2381 1159 1747 
Q 1159 1113 1420 752 
Q 1681 391 2138 391 
Q 2594 391 2855 752 
Q 3116 1113 3116 1747 
z
" transform="scale(0.015625)"/>
       </defs>
       <use xlink:href="#DejaVuSans-41"/>
       <use xlink:href="#DejaVuSans-70" x="68.408203"/>
       <use xlink:href="#DejaVuSans-72" x="131.884766"/>
      </g>
     </g>
    </g>
    <g id="xtick_5">
     <g id="line2d_5">
      <path d="M 208.376297 255.908776 
L 362.988664 345.174268 
" clip-path="url(#pf50f98c256)" style="fill: none; stroke: #b0b0b0; stroke-width: 0.8; stroke-linecap: square"/>
     </g>
     <g id="text_5">
      <!-- May -->
      <g transform="translate(364.77552 354.933643) scale(0.1 -0.1)">
       <defs>
        <path id="DejaVuSans-79" d="M 2059 -325 
Q 1816 -950 1584 -1140 
Q 1353 -1331 966 -1331 
L 506 -1331 
L 506 -850 
L 844 -850 
Q 1081 -850 1212 -737 
Q 1344 -625 1503 -206 
L 1606 56 
L 191 3500 
L 800 3500 
L 1894 763 
L 2988 3500 
L 3597 3500 
L 2059 -325 
z
" transform="scale(0.015625)"/>
       </defs>
       <use xlink:href="#DejaVuSans-4d"/>
       <use xlink:href="#DejaVuSans-61" x="86.279297"/>
       <use xlink:href="#DejaVuSans-79" x="147.558594"/>
      </g>
     </g>
    </g>
    <g id="xtick_6">
     <g id="line2d_6">
      <path d="M 208.376297 255.908776 
L 297.641789 410.521144 
" clip-path="url(#pf50f98c256)" style="fill: none; stroke: #b0b0b0; stroke-width: 0.8; stroke-linecap: square"/>
     </g>
     <g id="text_6">
      <!-- Jun -->
      <g transform="translate(296.829289 425.404874) scale(0.1 -0.1)">
       <defs>
        <path id="DejaVuSans-75" d="M 544 1381 
L 544 3500 
L 1119 3500 
L 1119 1403 
Q 1119 906 1312 657 
Q 1506 409 1894 409 
Q 2359 409 2629 706 
Q 2900 1003 2900 1516 
L 2900 3500 
L 3475 3500 
L 3475 0 
L 2900 0 
L 2900 538 
Q 2691 219 2414 64 
Q 2138 -91 1772 -91 
Q 1169 -91 856 284 
Q 544 659 544 1381 
z
M 1991 3584 
L 1991 3584 
z
" transform="scale(0.015625)"/>
       </defs>
       <use xlink:href="#DejaVuSans-4a"/>
       <use xlink:href="#DejaVuSans-75" x="29.492188"/>
       <use xlink:href="#DejaVuSans-6e" x="92.871094"/>
      </g>
     </g>
    </g>
    <g id="xtick_7">
     <g id="line2d_7">
      <path d="M 208.376297 255.908776 
L 208.376297 434.43976 
" clip-path="url(#pf50f98c256)" style="fill: none; stroke: #b0b0b0; stroke-width: 0.8; stroke-linecap: square"/>
     </g>
     <g id="text_7">
      <!-- Jul -->
      <g transform="translate(202.343484 451.199135) scale(0.1 -0.1)">
       <defs>
        <path id="DejaVuSans-6c" d="M 603 4863 
L 1178 4863 
L 1178 0 
L 603 0 
L 603 4863 
z
" transform="scale(0.015625)"/>
       </defs>
       <use xlink:href="#DejaVuSans-4a"/>
       <use xlink:href="#DejaVuSans-75" x="29.492188"/>
       <use xlink:href="#DejaVuSans-6c" x="92.871094"/>
      </g>
     </g>
    </g>
    <g id="xtick_8">
     <g id="line2d_8">
      <path d="M 208.376297 255.908776 
L 119.110805 410.521144 
" clip-path="url(#pf50f98c256)" style="fill: none; stroke: #b0b0b0; stroke-width: 0.8; stroke-linecap: square"/>
     </g>
     <g id="text_8">
      <!-- Aug -->
      <g transform="translate(102.347523 425.404874) scale(0.1 -0.1)">
       <defs>
        <path id="DejaVuSans-67" d="M 2906 1791 
Q 2906 2416 2648 2759 
Q 2391 3103 1925 3103 
Q 1463 3103 1205 2759 
Q 947 2416 947 1791 
Q 947 1169 1205 825 
Q 1463 481 1925 481 
Q 2391 481 2648 825 
Q 2906 1169 2906 1791 
z
M 3481 434 
Q 3481 -459 3084 -895 
Q 2688 -1331 1869 -1331 
Q 1566 -1331 1297 -1286 
Q 1028 -1241 775 -1147 
L 775 -588 
Q 1028 -725 1275 -790 
Q 1522 -856 1778 -856 
Q 2344 -856 2625 -561 
Q 2906 -266 2906 331 
L 2906 616 
Q 2728 306 2450 153 
Q 2172 0 1784 0 
Q 1141 0 747 490 
Q 353 981 353 1791 
Q 353 2603 747 3093 
Q 1141 3584 1784 3584 
Q 2172 3584 2450 3431 
Q 2728 3278 2906 2969 
L 2906 3500 
L 3481 3500 
L 3481 434 
z
" transform="scale(0.015625)"/>
       </defs>
       <use xlink:href="#DejaVuSans-41"/>
       <use xlink:href="#DejaVuSans-75" x="68.408203"/>
       <use xlink:href="#DejaVuSans-67" x="131.787109"/>
      </g>
     </g>
    </g>
    <g id="xtick_9">
     <g id="line2d_9">
      <path d="M 208.376297 255.908776 
L 53.763929 345.174268 
" clip-path="url(#pf50f98c256)" style="fill: none; stroke: #b0b0b0; stroke-width: 0.8; stroke-linecap: square"/>
     </g>
     <g id="text_9">
      <!-- Sept -->
      <g transform="translate(30.254417 354.933643) scale(0.1 -0.1)">
       <defs>
        <path id="DejaVuSans-53" d="M 3425 4513 
L 3425 3897 
Q 3066 4069 2747 4153 
Q 2428 4238 2131 4238 
Q 1616 4238 1336 4038 
Q 1056 3838 1056 3469 
Q 1056 3159 1242 3001 
Q 1428 2844 1947 2747 
L 2328 2669 
Q 3034 2534 3370 2195 
Q 3706 1856 3706 1288 
Q 3706 609 3251 259 
Q 2797 -91 1919 -91 
Q 1588 -91 1214 -16 
Q 841 59 441 206 
L 441 856 
Q 825 641 1194 531 
Q 1563 422 1919 422 
Q 2459 422 2753 634 
Q 3047 847 3047 1241 
Q 3047 1584 2836 1778 
Q 2625 1972 2144 2069 
L 1759 2144 
Q 1053 2284 737 2584 
Q 422 2884 422 3419 
Q 422 4038 858 4394 
Q 1294 4750 2059 4750 
Q 2388 4750 2728 4690 
Q 3069 4631 3425 4513 
z
" transform="scale(0.015625)"/>
        <path id="DejaVuSans-74" d="M 1172 4494 
L 1172 3500 
L 2356 3500 
L 2356 3053 
L 1172 3053 
L 1172 1153 
Q 1172 725 1289 603 
Q 1406 481 1766 481 
L 2356 481 
L 2356 0 
L 1766 0 
Q 1100 0 847 248 
Q 594 497 594 1153 
L 594 3053 
L 172 3053 
L 172 3500 
L 594 3500 
L 594 4494 
L 1172 4494 
z
" transform="scale(0.015625)"/>
       </defs>
       <use xlink:href="#DejaVuSans-53"/>
       <use xlink:href="#DejaVuSans-65" x="63.476562"/>
       <use xlink:href="#DejaVuSans-70" x="125"/>
       <use xlink:href="#DejaVuSans-74" x="188.476562"/>
      </g>
     </g>
    </g>
    <g id="xtick_10">
     <g id="line2d_10">
      <path d="M 208.376297 255.908776 
L 29.845313 255.908776 
" clip-path="url(#pf50f98c256)" style="fill: none; stroke: #b0b0b0; stroke-width: 0.8; stroke-linecap: square"/>
     </g>
     <g id="text_10">
      <!-- Oct -->
      <g transform="translate(7.2 258.668151) scale(0.1 -0.1)">
       <defs>
        <path id="DejaVuSans-4f" d="M 2522 4238 
Q 1834 4238 1429 3725 
Q 1025 3213 1025 2328 
Q 1025 1447 1429 934 
Q 1834 422 2522 422 
Q 3209 422 3611 934 
Q 4013 1447 4013 2328 
Q 4013 3213 3611 3725 
Q 3209 4238 2522 4238 
z
M 2522 4750 
Q 3503 4750 4090 4092 
Q 4678 3434 4678 2328 
Q 4678 1225 4090 567 
Q 3503 -91 2522 -91 
Q 1538 -91 948 565 
Q 359 1222 359 2328 
Q 359 3434 948 4092 
Q 1538 4750 2522 4750 
z
" transform="scale(0.015625)"/>
        <path id="DejaVuSans-63" d="M 3122 3366 
L 3122 2828 
Q 2878 2963 2633 3030 
Q 2388 3097 2138 3097 
Q 1578 3097 1268 2742 
Q 959 2388 959 1747 
Q 959 1106 1268 751 
Q 1578 397 2138 397 
Q 2388 397 2633 464 
Q 2878 531 3122 666 
L 3122 134 
Q 2881 22 2623 -34 
Q 2366 -91 2075 -91 
Q 1284 -91 818 406 
Q 353 903 353 1747 
Q 353 2603 823 3093 
Q 1294 3584 2113 3584 
Q 2378 3584 2631 3529 
Q 2884 3475 3122 3366 
z
" transform="scale(0.015625)"/>
       </defs>
       <use xlink:href="#DejaVuSans-4f"/>
       <use xlink:href="#DejaVuSans-63" x="78.710938"/>
       <use xlink:href="#DejaVuSans-74" x="133.691406"/>
      </g>
     </g>
    </g>
    <g id="xtick_11">
     <g id="line2d_11">
      <path d="M 208.376297 255.908776 
L 53.763929 166.643284 
" clip-path="url(#pf50f98c256)" style="fill: none; stroke: #b0b0b0; stroke-width: 0.8; stroke-linecap: square"/>
     </g>
     <g id="text_11">
      <!-- Nov -->
      <g transform="translate(31.880198 162.402659) scale(0.1 -0.1)">
       <defs>
        <path id="DejaVuSans-4e" d="M 628 4666 
L 1478 4666 
L 3547 763 
L 3547 4666 
L 4159 4666 
L 4159 0 
L 3309 0 
L 1241 3903 
L 1241 0 
L 628 0 
L 628 4666 
z
" transform="scale(0.015625)"/>
        <path id="DejaVuSans-6f" d="M 1959 3097 
Q 1497 3097 1228 2736 
Q 959 2375 959 1747 
Q 959 1119 1226 758 
Q 1494 397 1959 397 
Q 2419 397 2687 759 
Q 2956 1122 2956 1747 
Q 2956 2369 2687 2733 
Q 2419 3097 1959 3097 
z
M 1959 3584 
Q 2709 3584 3137 3096 
Q 3566 2609 3566 1747 
Q 3566 888 3137 398 
Q 2709 -91 1959 -91 
Q 1206 -91 779 398 
Q 353 888 353 1747 
Q 353 2609 779 3096 
Q 1206 3584 1959 3584 
z
" transform="scale(0.015625)"/>
        <path id="DejaVuSans-76" d="M 191 3500 
L 800 3500 
L 1894 563 
L 2988 3500 
L 3597 3500 
L 2284 0 
L 1503 0 
L 191 3500 
z
" transform="scale(0.015625)"/>
       </defs>
       <use xlink:href="#DejaVuSans-4e"/>
       <use xlink:href="#DejaVuSans-6f" x="74.804688"/>
       <use xlink:href="#DejaVuSans-76" x="135.986328"/>
      </g>
     </g>
    </g>
    <g id="xtick_12">
     <g id="line2d_12">
      <path d="M 208.376297 255.908776 
L 119.110804 101.296408 
" clip-path="url(#pf50f98c256)" style="fill: none; stroke: #b0b0b0; stroke-width: 0.8; stroke-linecap: square"/>
     </g>
     <g id="text_12">
      <!-- Dec -->
      <g transform="translate(102.435023 91.931428) scale(0.1 -0.1)">
       <defs>
        <path id="DejaVuSans-44" d="M 1259 4147 
L 1259 519 
L 2022 519 
Q 2988 519 3436 956 
Q 3884 1394 3884 2338 
Q 3884 3275 3436 3711 
Q 2988 4147 2022 4147 
L 1259 4147 
z
M 628 4666 
L 1925 4666 
Q 3281 4666 3915 4102 
Q 4550 3538 4550 2338 
Q 4550 1131 3912 565 
Q 3275 0 1925 0 
L 628 0 
L 628 4666 
z
" transform="scale(0.015625)"/>
       </defs>
       <use xlink:href="#DejaVuSans-44"/>
       <use xlink:href="#DejaVuSans-65" x="77.001953"/>
       <use xlink:href="#DejaVuSans-63" x="138.525391"/>
      </g>
     </g>
    </g>
   </g>
   <g id="matplotlib.axis_2">
    <g id="ytick_1">
     <g id="line2d_13">
      <path d="M 208.376297 221.742782 
C 212.862934 221.742782 217.305944 222.626552 221.451056 224.343514 
C 225.596169 226.060475 229.362771 228.577239 232.535302 231.74977 
C 235.707834 234.922302 238.224597 238.688904 239.941559 242.834016 
C 241.658521 246.979128 242.54229 251.422139 242.54229 255.908776 
C 242.54229 260.395413 241.658521 264.838424 239.941559 268.983536 
C 238.224597 273.128648 235.707834 276.89525 232.535302 280.067782 
C 229.362771 283.240313 225.596169 285.757077 221.451056 287.474038 
C 217.305944 289.191 212.862934 290.07477 208.376297 290.07477 
C 203.889659 290.07477 199.446649 289.191 195.301537 287.474038 
C 191.156424 285.757077 187.389822 283.240313 184.217291 280.067782 
C 181.044759 276.89525 178.527996 273.128648 176.811034 268.983536 
C 175.094072 264.838424 174.210303 260.395413 174.210303 255.908776 
C 174.210303 251.422139 175.094072 246.979128 176.811034 242.834016 
C 178.527996 238.688904 181.044759 234.922302 184.217291 231.74977 
C 187.389822 228.577239 191.156424 226.060475 195.301537 224.343514 
C 199.446649 222.626552 203.889659 221.742782 208.376297 221.742782 
" clip-path="url(#pf50f98c256)" style="fill: none; stroke: #b0b0b0; stroke-width: 0.8; stroke-linecap: square"/>
     </g>
     <g id="text_13">
      <!-- 1000 -->
      <g transform="translate(208.376297 287.995082) scale(0.1 -0.1)">
       <defs>
        <path id="DejaVuSans-31" d="M 794 531 
L 1825 531 
L 1825 4091 
L 703 3866 
L 703 4441 
L 1819 4666 
L 2450 4666 
L 2450 531 
L 3481 531 
L 3481 0 
L 794 0 
L 794 531 
z
" transform="scale(0.015625)"/>
        <path id="DejaVuSans-30" d="M 2034 4250 
Q 1547 4250 1301 3770 
Q 1056 3291 1056 2328 
Q 1056 1369 1301 889 
Q 1547 409 2034 409 
Q 2525 409 2770 889 
Q 3016 1369 3016 2328 
Q 3016 3291 2770 3770 
Q 2525 4250 2034 4250 
z
M 2034 4750 
Q 2819 4750 3233 4129 
Q 3647 3509 3647 2328 
Q 3647 1150 3233 529 
Q 2819 -91 2034 -91 
Q 1250 -91 836 529 
Q 422 1150 422 2328 
Q 422 3509 836 4129 
Q 1250 4750 2034 4750 
z
" transform="scale(0.015625)"/>
       </defs>
       <use xlink:href="#DejaVuSans-31"/>
       <use xlink:href="#DejaVuSans-30" x="63.623047"/>
       <use xlink:href="#DejaVuSans-30" x="127.246094"/>
       <use xlink:href="#DejaVuSans-30" x="190.869141"/>
      </g>
     </g>
    </g>
    <g id="ytick_2">
     <g id="line2d_14">
      <path d="M 208.376297 187.576788 
C 217.349571 187.576788 226.235592 189.344328 234.525816 192.778251 
C 242.816041 196.212175 250.349245 201.245701 256.694308 207.590764 
C 263.039371 213.935827 268.072898 221.469032 271.506821 229.759256 
C 274.940745 238.049481 276.708284 246.935502 276.708284 255.908776 
C 276.708284 264.88205 274.940745 273.768071 271.506821 282.058296 
C 268.072898 290.34852 263.039371 297.881725 256.694308 304.226788 
C 250.349245 310.571851 242.816041 315.605377 234.525816 319.039301 
C 226.235592 322.473224 217.349571 324.240764 208.376297 324.240764 
C 199.403022 324.240764 190.517001 322.473224 182.226777 319.039301 
C 173.936552 315.605377 166.403348 310.571851 160.058285 304.226788 
C 153.713222 297.881725 148.679695 290.34852 145.245772 282.058296 
C 141.811848 273.768071 140.044309 264.88205 140.044309 255.908776 
C 140.044309 246.935502 141.811848 238.049481 145.245772 229.759256 
C 148.679695 221.469032 153.713222 213.935827 160.058285 207.590764 
C 166.403348 201.245701 173.936552 196.212175 182.226777 192.778251 
C 190.517001 189.344328 199.403022 187.576788 208.376297 187.576788 
" clip-path="url(#pf50f98c256)" style="fill: none; stroke: #b0b0b0; stroke-width: 0.8; stroke-linecap: square"/>
     </g>
     <g id="text_14">
      <!-- 2000 -->
      <g transform="translate(208.376297 322.161076) scale(0.1 -0.1)">
       <defs>
        <path id="DejaVuSans-32" d="M 1228 531 
L 3431 531 
L 3431 0 
L 469 0 
L 469 531 
Q 828 903 1448 1529 
Q 2069 2156 2228 2338 
Q 2531 2678 2651 2914 
Q 2772 3150 2772 3378 
Q 2772 3750 2511 3984 
Q 2250 4219 1831 4219 
Q 1534 4219 1204 4116 
Q 875 4013 500 3803 
L 500 4441 
Q 881 4594 1212 4672 
Q 1544 4750 1819 4750 
Q 2544 4750 2975 4387 
Q 3406 4025 3406 3419 
Q 3406 3131 3298 2873 
Q 3191 2616 2906 2266 
Q 2828 2175 2409 1742 
Q 1991 1309 1228 531 
z
" transform="scale(0.015625)"/>
       </defs>
       <use xlink:href="#DejaVuSans-32"/>
       <use xlink:href="#DejaVuSans-30" x="63.623047"/>
       <use xlink:href="#DejaVuSans-30" x="127.246094"/>
       <use xlink:href="#DejaVuSans-30" x="190.869141"/>
      </g>
     </g>
    </g>
    <g id="ytick_3">
     <g id="line2d_15">
      <path d="M 208.376297 153.410795 
C 221.836208 153.410795 235.165239 156.062104 247.600576 161.212989 
C 260.035913 166.363874 271.335719 173.914164 280.853314 183.431758 
C 290.370909 192.949353 297.921198 204.24916 303.072084 216.684497 
C 308.222969 229.119833 310.874278 242.448864 310.874278 255.908776 
C 310.874278 269.368688 308.222969 282.697719 303.072084 295.133055 
C 297.921198 307.568392 290.370909 318.868199 280.853314 328.385794 
C 271.335719 337.903388 260.035913 345.453678 247.600576 350.604563 
C 235.165239 355.755448 221.836208 358.406757 208.376297 358.406757 
C 194.916385 358.406757 181.587354 355.755448 169.152017 350.604563 
C 156.71668 345.453678 145.416874 337.903388 135.899279 328.385794 
C 126.381684 318.868199 118.831395 307.568392 113.680509 295.133055 
C 108.529624 282.697719 105.878315 269.368688 105.878315 255.908776 
C 105.878315 242.448864 108.529624 229.119833 113.680509 216.684497 
C 118.831395 204.24916 126.381684 192.949353 135.899279 183.431758 
C 145.416874 173.914164 156.71668 166.363874 169.152017 161.212989 
C 181.587354 156.062104 194.916385 153.410795 208.376296 153.410795 
" clip-path="url(#pf50f98c256)" style="fill: none; stroke: #b0b0b0; stroke-width: 0.8; stroke-linecap: square"/>
     </g>
     <g id="text_15">
      <!-- 3000 -->
      <g transform="translate(208.376297 356.32707) scale(0.1 -0.1)">
       <defs>
        <path id="DejaVuSans-33" d="M 2597 2516 
Q 3050 2419 3304 2112 
Q 3559 1806 3559 1356 
Q 3559 666 3084 287 
Q 2609 -91 1734 -91 
Q 1441 -91 1130 -33 
Q 819 25 488 141 
L 488 750 
Q 750 597 1062 519 
Q 1375 441 1716 441 
Q 2309 441 2620 675 
Q 2931 909 2931 1356 
Q 2931 1769 2642 2001 
Q 2353 2234 1838 2234 
L 1294 2234 
L 1294 2753 
L 1863 2753 
Q 2328 2753 2575 2939 
Q 2822 3125 2822 3475 
Q 2822 3834 2567 4026 
Q 2313 4219 1838 4219 
Q 1578 4219 1281 4162 
Q 984 4106 628 3988 
L 628 4550 
Q 988 4650 1302 4700 
Q 1616 4750 1894 4750 
Q 2613 4750 3031 4423 
Q 3450 4097 3450 3541 
Q 3450 3153 3228 2886 
Q 3006 2619 2597 2516 
z
" transform="scale(0.015625)"/>
       </defs>
       <use xlink:href="#DejaVuSans-33"/>
       <use xlink:href="#DejaVuSans-30" x="63.623047"/>
       <use xlink:href="#DejaVuSans-30" x="127.246094"/>
       <use xlink:href="#DejaVuSans-30" x="190.869141"/>
      </g>
     </g>
    </g>
    <g id="ytick_4">
     <g id="line2d_16">
      <path d="M 208.376297 119.244801 
C 226.322845 119.244801 244.094887 122.77988 260.675336 129.647726 
C 277.255785 136.515573 292.322194 146.582626 305.01232 159.272752 
C 317.702446 171.962879 327.769499 187.029288 334.637346 203.609737 
C 341.505193 220.190186 345.040272 237.962227 345.040272 255.908776 
C 345.040272 273.855325 341.505193 291.627366 334.637346 308.207815 
C 327.769499 324.788264 317.702446 339.854673 305.01232 352.5448 
C 292.322194 365.234926 277.255785 375.301979 260.675336 382.169826 
C 244.094887 389.037672 226.322845 392.572751 208.376297 392.572751 
C 190.429748 392.572751 172.657706 389.037672 156.077257 382.169826 
C 139.496808 375.301979 124.430399 365.234926 111.740273 352.5448 
C 99.050147 339.854673 88.983094 324.788264 82.115247 308.207815 
C 75.2474 291.627366 71.712321 273.855325 71.712321 255.908776 
C 71.712321 237.962227 75.2474 220.190186 82.115247 203.609737 
C 88.983094 187.029288 99.050147 171.962879 111.740273 159.272752 
C 124.430399 146.582626 139.496808 136.515573 156.077257 129.647726 
C 172.657706 122.77988 190.429748 119.244801 208.376296 119.244801 
" clip-path="url(#pf50f98c256)" style="fill: none; stroke: #b0b0b0; stroke-width: 0.8; stroke-linecap: square"/>
     </g>
     <g id="text_16">
      <!-- 4000 -->
      <g transform="translate(208.376297 390.493064) scale(0.1 -0.1)">
       <defs>
        <path id="DejaVuSans-34" d="M 2419 4116 
L 825 1625 
L 2419 1625 
L 2419 4116 
z
M 2253 4666 
L 3047 4666 
L 3047 1625 
L 3713 1625 
L 3713 1100 
L 3047 1100 
L 3047 0 
L 2419 0 
L 2419 1100 
L 313 1100 
L 313 1709 
L 2253 4666 
z
" transform="scale(0.015625)"/>
       </defs>
       <use xlink:href="#DejaVuSans-34"/>
       <use xlink:href="#DejaVuSans-30" x="63.623047"/>
       <use xlink:href="#DejaVuSans-30" x="127.246094"/>
       <use xlink:href="#DejaVuSans-30" x="190.869141"/>
      </g>
     </g>
    </g>
    <g id="ytick_5">
     <g id="line2d_17">
      <path d="M 208.376297 85.078807 
C 230.809482 85.078807 253.024534 89.497655 273.750095 98.082464 
C 294.475657 106.667273 313.308668 119.251089 329.171326 135.113746 
C 345.033984 150.976404 357.6178 169.809416 366.202608 190.534977 
C 374.787417 211.260538 379.206265 233.47559 379.206265 255.908776 
C 379.206265 278.341962 374.787417 300.557014 366.202608 321.282575 
C 357.6178 342.008136 345.033984 360.841148 329.171326 376.703806 
C 313.308668 392.566463 294.475657 405.150279 273.750095 413.735088 
C 253.024534 422.319897 230.809482 426.738745 208.376297 426.738745 
C 185.943111 426.738745 163.728059 422.319897 143.002498 413.735088 
C 122.276936 405.150279 103.443925 392.566463 87.581267 376.703806 
C 71.718609 360.841148 59.134793 342.008136 50.549985 321.282575 
C 41.965176 300.557014 37.546328 278.341962 37.546328 255.908776 
C 37.546328 233.47559 41.965176 211.260538 50.549985 190.534977 
C 59.134793 169.809416 71.718609 150.976404 87.581267 135.113746 
C 103.443925 119.251089 122.276936 106.667273 143.002498 98.082464 
C 163.728059 89.497655 185.943111 85.078807 208.376296 85.078807 
" clip-path="url(#pf50f98c256)" style="fill: none; stroke: #b0b0b0; stroke-width: 0.8; stroke-linecap: square"/>
     </g>
     <g id="text_17">
      <!-- 5000 -->
      <g transform="translate(208.376297 424.659057) scale(0.1 -0.1)">
       <defs>
        <path id="DejaVuSans-35" d="M 691 4666 
L 3169 4666 
L 3169 4134 
L 1269 4134 
L 1269 2991 
Q 1406 3038 1543 3061 
Q 1681 3084 1819 3084 
Q 2600 3084 3056 2656 
Q 3513 2228 3513 1497 
Q 3513 744 3044 326 
Q 2575 -91 1722 -91 
Q 1428 -91 1123 -41 
Q 819 9 494 109 
L 494 744 
Q 775 591 1075 516 
Q 1375 441 1709 441 
Q 2250 441 2565 725 
Q 2881 1009 2881 1497 
Q 2881 1984 2565 2268 
Q 2250 2553 1709 2553 
Q 1456 2553 1204 2497 
Q 953 2441 691 2322 
L 691 4666 
z
" transform="scale(0.015625)"/>
       </defs>
       <use xlink:href="#DejaVuSans-35"/>
       <use xlink:href="#DejaVuSans-30" x="63.623047"/>
       <use xlink:href="#DejaVuSans-30" x="127.246094"/>
       <use xlink:href="#DejaVuSans-30" x="190.869141"/>
      </g>
     </g>
    </g>
   </g>
   <g id="line2d_18">
    <path d="M 208.376297 153.257048 
L 220.963744 152.241816 
L 233.20411 155.178378 
L 246.303645 155.902577 
L 257.930689 161.49077 
L 268.338847 169.038025 
L 277.727061 177.627945 
L 290.608251 183.057621 
L 295.781291 195.577464 
L 302.234631 206.648122 
L 303.095472 219.986531 
L 305.32495 232.013079 
L 307.803646 243.83611 
L 304.792731 255.908776 
L 302.953531 267.392531 
L 299.785027 278.439005 
L 295.731975 289.038415 
L 287.849575 297.61957 
L 283.451521 307.729462 
L 275.200149 315.109543 
L 267.735657 322.911644 
L 259.430347 329.873337 
L 249.436104 334.141702 
L 239.361505 337.610055 
L 229.361175 341.047774 
L 218.962272 343.09213 
L 208.376297 347.234477 
L 197.897395 342.21029 
L 187.309654 341.379505 
L 177.300223 337.849648 
L 168.761363 331.388726 
L 159.039898 327.384889 
L 150.954044 320.7251 
L 143.764562 313.149778 
L 137.321955 304.954047 
L 131.338343 296.341413 
L 127.425743 286.609271 
L 122.557249 277.061272 
L 118.411758 266.832449 
L 118.178073 255.908776 
L 117.292501 244.849201 
L 119.273102 233.946811 
L 122.969309 223.518178 
L 127.012238 213.205624 
L 132.696534 203.670807 
L 138.176727 193.717384 
L 145.13139 184.520034 
L 154.381859 177.684328 
L 163.124769 169.689194 
L 172.441936 161.157654 
L 184.165806 157.682954 
L 196.303631 156.481427 
L 208.376296 153.257048 
" clip-path="url(#pf50f98c256)" style="fill: none; stroke-dasharray: 5.55,2.4; stroke-dashoffset: 0; stroke: #1f77b4; stroke-width: 1.5"/>
   </g>
   <g id="line2d_19">
    <path d="M 208.376297 149.891697 
L 221.969953 141.781086 
L 233.711585 151.064399 
L 244.613507 158.351871 
L 257.738467 159.735773 
L 269.37746 165.342223 
L 279.7055 173.14094 
L 282.969157 187.669901 
L 294.374985 194.202585 
L 301.338838 204.658577 
L 310.262268 214.587974 
L 327.485545 223.362113 
L 359.018986 233.420432 
L 382.034077 250.760457 
L 377.918902 271.023168 
L 352.40719 286.226172 
L 334.928711 298.693317 
L 312.724881 305.617242 
L 294.730383 310.42397 
L 282.052077 315.690858 
L 274.297749 323.813521 
L 265.015929 330.101678 
L 254.974628 334.808953 
L 245.412196 339.985361 
L 235.278089 344.004324 
L 224.446314 345.323543 
L 213.715648 345.880375 
L 203.075401 345.232362 
L 193.097995 340.918378 
L 181.704007 343.252767 
L 171.657178 339.266223 
L 162.472944 333.632217 
L 141.847533 343.055563 
L 140.408186 325.921755 
L 135.814806 314.7867 
L 130.602726 305.007104 
L 123.799347 296.198641 
L 120.307468 285.682877 
L 111.720467 276.254085 
L 106.215136 265.016244 
L 105.172007 252.849146 
L 99.499952 239.655424 
L 94.738032 224.857062 
L 91.641189 208.565768 
L 100.992144 196.70795 
L 108.997567 184.602074 
L 124.304924 178.99879 
L 132.430099 167.783547 
L 141.000168 155.877509 
L 151.977989 146.027169 
L 161.872272 130.711815 
L 177.343176 127.485208 
L 191.768114 116.472152 
L 208.376296 114.290732 
" clip-path="url(#pf50f98c256)" style="fill: none; stroke-dasharray: 2,3.3; stroke-dashoffset: 0; stroke: #d62728; stroke-width: 2"/>
   </g>
   <g id="line2d_20">
    <path d="M 208.376297 114.290732 
L 224.23158 125.328768 
L 239.961952 127.760735 
L 253.372997 137.262227 
L 266.409396 145.335943 
L 277.295868 156.061539 
L 288.375496 165.608346 
L 290.339728 183.295512 
L 295.682878 195.645394 
L 306.515358 204.401423 
L 305.619187 219.029412 
L 309.42184 231.003286 
L 316.096324 242.829197 
L 316.511667 255.908776 
L 314.875316 268.840098 
L 312.672813 281.615558 
L 308.079011 293.721028 
L 299.375772 303.668985 
L 293.208489 314.46421 
L 284.841401 323.650947 
L 271.927063 327.642762 
L 266.795871 340.544142 
L 254.167667 343.156943 
L 243.147576 347.593105 
L 230.231967 344.580719 
L 219.874466 350.60472 
L 208.376297 352.8377 
L 196.544549 353.351987 
L 185.67845 347.997557 
L 173.047707 349.06261 
L 161.409974 345.395627 
L 153.236758 335.792189 
L 142.7185 330.021108 
L 133.52233 322.223604 
L 127.95864 311.417076 
L 114.80536 305.018592 
L 115.126626 291.273711 
L 112.505771 279.538738 
L 104.183625 268.560057 
L 103.418364 255.908776 
L 104.45496 243.290441 
L 99.734092 229.130878 
L 100.144064 214.861705 
L 101.948054 200.050925 
L 101.865079 182.389391 
L 105.953974 165.170516 
L 113.401319 148.704188 
L 123.075954 132.329895 
L 138.942988 123.614659 
L 159.272465 126.432614 
L 177.534699 130.779495 
L 193.21288 131.026805 
L 208.376296 138.548587 
" clip-path="url(#pf50f98c256)" style="fill: none; stroke: #ff7f0e; stroke-width: 2; stroke-linecap: square"/>
   </g>
   <g id="line2d_21">
    <path d="M 208.376297 138.548587 
L 221.751707 148.879254 
L 235.214928 150.20493 
L 248.240057 154.030742 
L 261.934856 157.238054 
L 273.120416 165.52994 
L 286.703343 171.144566 
L 295.904712 182.106386 
L 301.000336 195.726532 
L 312.48178 205.379399 
L 324.931636 216.304718 
L 329.846609 230.877637 
L 329.799155 246.308773 
L 330.32546 261.452298 
L 326.743641 276.197022 
L 314.158404 287.94565 
L 306.434641 299.510992 
L 299.890571 311.104764 
L 292.312819 322.005811 
L 281.787624 330.202972 
L 269.198127 335.075307 
L 259.603442 343.185081 
L 248.088207 348.173445 
L 237.006247 354.68285 
L 225.207929 361.688414 
L 211.921958 361.798177 
L 199.166772 356.9973 
L 185.856155 358.946892 
L 172.103587 358.612796 
L 160.488437 351.641504 
L 152.360927 339.904629 
L 141.729682 333.059936 
L 130.343078 326.305446 
L 123.392287 315.263944 
L 118.863762 303.119793 
L 114.627204 291.305433 
L 115.113113 278.405437 
L 106.185257 267.440614 
L 99.326237 254.605096 
L 96.572326 240.577197 
L 99.699597 226.928141 
L 102.200523 212.892817 
L 110.084389 201.02462 
L 120.07201 191.039578 
L 130.509836 182.210622 
L 136.689295 168.797073 
" clip-path="url(#pf50f98c256)" style="fill: none; stroke: #2ca02c; stroke-width: 3; stroke-linecap: square"/>
   </g>
   <g id="patch_3">
    <path d="M 208.376296 77.377792 
C 184.931822 77.377792 161.715316 81.995842 140.055447 90.967654 
C 118.395577 99.939466 98.713574 113.09056 82.135827 129.668307 
C 65.558081 146.246053 52.406986 165.928057 43.435174 187.587926 
C 34.463363 209.247796 29.845313 232.464302 29.845313 255.908776 
C 29.845313 279.35325 34.463363 302.569756 43.435174 324.229626 
C 52.406986 345.889495 65.558081 365.571499 82.135827 382.149245 
C 98.713574 398.726992 118.395577 411.878086 140.055447 420.849898 
C 161.715316 429.82171 184.931822 434.43976 208.376297 434.43976 
C 231.820771 434.43976 255.037277 429.82171 276.697146 420.849898 
C 298.357016 411.878086 318.039019 398.726992 334.616766 382.149245 
C 351.194512 365.571499 364.345607 345.889495 373.317419 324.229626 
C 382.28923 302.569756 386.907281 279.35325 386.907281 255.908776 
C 386.907281 232.464302 382.28923 209.247796 373.317419 187.587926 
C 364.345607 165.928057 351.194512 146.246053 334.616766 129.668307 
C 318.039019 113.09056 298.357016 99.939466 276.697146 90.967654 
C 255.037277 81.995842 231.820771 77.377792 208.376297 77.377792 
" style="fill: none; stroke: #000000; stroke-width: 0.8; stroke-linejoin: miter; stroke-linecap: square"/>
   </g>
   <g id="text_18">
    <!-- Totaal mannen en vrouwen, Totaal leeftijd, median excludes 2020-2022 -->
    <g transform="translate(29.629422 35.671595) scale(0.1 -0.1)">
     <defs>
      <path id="DejaVuSans-54" d="M -19 4666 
L 3928 4666 
L 3928 4134 
L 2272 4134 
L 2272 0 
L 1638 0 
L 1638 4134 
L -19 4134 
L -19 4666 
z
" transform="scale(0.015625)"/>
      <path id="DejaVuSans-20" transform="scale(0.015625)"/>
      <path id="DejaVuSans-6d" d="M 3328 2828 
Q 3544 3216 3844 3400 
Q 4144 3584 4550 3584 
Q 5097 3584 5394 3201 
Q 5691 2819 5691 2113 
L 5691 0 
L 5113 0 
L 5113 2094 
Q 5113 2597 4934 2840 
Q 4756 3084 4391 3084 
Q 3944 3084 3684 2787 
Q 3425 2491 3425 1978 
L 3425 0 
L 2847 0 
L 2847 2094 
Q 2847 2600 2669 2842 
Q 2491 3084 2119 3084 
Q 1678 3084 1418 2786 
Q 1159 2488 1159 1978 
L 1159 0 
L 581 0 
L 581 3500 
L 1159 3500 
L 1159 2956 
Q 1356 3278 1631 3431 
Q 1906 3584 2284 3584 
Q 2666 3584 2933 3390 
Q 3200 3197 3328 2828 
z
" transform="scale(0.015625)"/>
      <path id="DejaVuSans-77" d="M 269 3500 
L 844 3500 
L 1563 769 
L 2278 3500 
L 2956 3500 
L 3675 769 
L 4391 3500 
L 4966 3500 
L 4050 0 
L 3372 0 
L 2619 2869 
L 1863 0 
L 1184 0 
L 269 3500 
z
" transform="scale(0.015625)"/>
      <path id="DejaVuSans-2c" d="M 750 794 
L 1409 794 
L 1409 256 
L 897 -744 
L 494 -744 
L 750 256 
L 750 794 
z
" transform="scale(0.015625)"/>
      <path id="DejaVuSans-66" d="M 2375 4863 
L 2375 4384 
L 1825 4384 
Q 1516 4384 1395 4259 
Q 1275 4134 1275 3809 
L 1275 3500 
L 2222 3500 
L 2222 3053 
L 1275 3053 
L 1275 0 
L 697 0 
L 697 3053 
L 147 3053 
L 147 3500 
L 697 3500 
L 697 3744 
Q 697 4328 969 4595 
Q 1241 4863 1831 4863 
L 2375 4863 
z
" transform="scale(0.015625)"/>
      <path id="DejaVuSans-69" d="M 603 3500 
L 1178 3500 
L 1178 0 
L 603 0 
L 603 3500 
z
M 603 4863 
L 1178 4863 
L 1178 4134 
L 603 4134 
L 603 4863 
z
" transform="scale(0.015625)"/>
      <path id="DejaVuSans-6a" d="M 603 3500 
L 1178 3500 
L 1178 -63 
Q 1178 -731 923 -1031 
Q 669 -1331 103 -1331 
L -116 -1331 
L -116 -844 
L 38 -844 
Q 366 -844 484 -692 
Q 603 -541 603 -63 
L 603 3500 
z
M 603 4863 
L 1178 4863 
L 1178 4134 
L 603 4134 
L 603 4863 
z
" transform="scale(0.015625)"/>
      <path id="DejaVuSans-64" d="M 2906 2969 
L 2906 4863 
L 3481 4863 
L 3481 0 
L 2906 0 
L 2906 525 
Q 2725 213 2448 61 
Q 2172 -91 1784 -91 
Q 1150 -91 751 415 
Q 353 922 353 1747 
Q 353 2572 751 3078 
Q 1150 3584 1784 3584 
Q 2172 3584 2448 3432 
Q 2725 3281 2906 2969 
z
M 947 1747 
Q 947 1113 1208 752 
Q 1469 391 1925 391 
Q 2381 391 2643 752 
Q 2906 1113 2906 1747 
Q 2906 2381 2643 2742 
Q 2381 3103 1925 3103 
Q 1469 3103 1208 2742 
Q 947 2381 947 1747 
z
" transform="scale(0.015625)"/>
      <path id="DejaVuSans-78" d="M 3513 3500 
L 2247 1797 
L 3578 0 
L 2900 0 
L 1881 1375 
L 863 0 
L 184 0 
L 1544 1831 
L 300 3500 
L 978 3500 
L 1906 2253 
L 2834 3500 
L 3513 3500 
z
" transform="scale(0.015625)"/>
      <path id="DejaVuSans-73" d="M 2834 3397 
L 2834 2853 
Q 2591 2978 2328 3040 
Q 2066 3103 1784 3103 
Q 1356 3103 1142 2972 
Q 928 2841 928 2578 
Q 928 2378 1081 2264 
Q 1234 2150 1697 2047 
L 1894 2003 
Q 2506 1872 2764 1633 
Q 3022 1394 3022 966 
Q 3022 478 2636 193 
Q 2250 -91 1575 -91 
Q 1294 -91 989 -36 
Q 684 19 347 128 
L 347 722 
Q 666 556 975 473 
Q 1284 391 1588 391 
Q 1994 391 2212 530 
Q 2431 669 2431 922 
Q 2431 1156 2273 1281 
Q 2116 1406 1581 1522 
L 1381 1569 
Q 847 1681 609 1914 
Q 372 2147 372 2553 
Q 372 3047 722 3315 
Q 1072 3584 1716 3584 
Q 2034 3584 2315 3537 
Q 2597 3491 2834 3397 
z
" transform="scale(0.015625)"/>
      <path id="DejaVuSans-2d" d="M 313 2009 
L 1997 2009 
L 1997 1497 
L 313 1497 
L 313 2009 
z
" transform="scale(0.015625)"/>
     </defs>
     <use xlink:href="#DejaVuSans-54"/>
     <use xlink:href="#DejaVuSans-6f" x="44.083984"/>
     <use xlink:href="#DejaVuSans-74" x="105.265625"/>
     <use xlink:href="#DejaVuSans-61" x="144.474609"/>
     <use xlink:href="#DejaVuSans-61" x="205.753906"/>
     <use xlink:href="#DejaVuSans-6c" x="267.033203"/>
     <use xlink:href="#DejaVuSans-20" x="294.816406"/>
     <use xlink:href="#DejaVuSans-6d" x="326.603516"/>
     <use xlink:href="#DejaVuSans-61" x="424.015625"/>
     <use xlink:href="#DejaVuSans-6e" x="485.294922"/>
     <use xlink:href="#DejaVuSans-6e" x="548.673828"/>
     <use xlink:href="#DejaVuSans-65" x="612.052734"/>
     <use xlink:href="#DejaVuSans-6e" x="673.576172"/>
     <use xlink:href="#DejaVuSans-20" x="736.955078"/>
     <use xlink:href="#DejaVuSans-65" x="768.742188"/>
     <use xlink:href="#DejaVuSans-6e" x="830.265625"/>
     <use xlink:href="#DejaVuSans-20" x="893.644531"/>
     <use xlink:href="#DejaVuSans-76" x="925.431641"/>
     <use xlink:href="#DejaVuSans-72" x="984.611328"/>
     <use xlink:href="#DejaVuSans-6f" x="1023.474609"/>
     <use xlink:href="#DejaVuSans-75" x="1084.65625"/>
     <use xlink:href="#DejaVuSans-77" x="1148.035156"/>
     <use xlink:href="#DejaVuSans-65" x="1229.822266"/>
     <use xlink:href="#DejaVuSans-6e" x="1291.345703"/>
     <use xlink:href="#DejaVuSans-2c" x="1354.724609"/>
     <use xlink:href="#DejaVuSans-20" x="1386.511719"/>
     <use xlink:href="#DejaVuSans-54" x="1418.298828"/>
     <use xlink:href="#DejaVuSans-6f" x="1462.382812"/>
     <use xlink:href="#DejaVuSans-74" x="1523.564453"/>
     <use xlink:href="#DejaVuSans-61" x="1562.773438"/>
     <use xlink:href="#DejaVuSans-61" x="1624.052734"/>
     <use xlink:href="#DejaVuSans-6c" x="1685.332031"/>
     <use xlink:href="#DejaVuSans-20" x="1713.115234"/>
     <use xlink:href="#DejaVuSans-6c" x="1744.902344"/>
     <use xlink:href="#DejaVuSans-65" x="1772.685547"/>
     <use xlink:href="#DejaVuSans-65" x="1834.208984"/>
     <use xlink:href="#DejaVuSans-66" x="1895.732422"/>
     <use xlink:href="#DejaVuSans-74" x="1929.1875"/>
     <use xlink:href="#DejaVuSans-69" x="1968.396484"/>
     <use xlink:href="#DejaVuSans-6a" x="1996.179688"/>
     <use xlink:href="#DejaVuSans-64" x="2023.962891"/>
     <use xlink:href="#DejaVuSans-2c" x="2087.439453"/>
     <use xlink:href="#DejaVuSans-20" x="2119.226562"/>
     <use xlink:href="#DejaVuSans-6d" x="2151.013672"/>
     <use xlink:href="#DejaVuSans-65" x="2248.425781"/>
     <use xlink:href="#DejaVuSans-64" x="2309.949219"/>
     <use xlink:href="#DejaVuSans-69" x="2373.425781"/>
     <use xlink:href="#DejaVuSans-61" x="2401.208984"/>
     <use xlink:href="#DejaVuSans-6e" x="2462.488281"/>
     <use xlink:href="#DejaVuSans-20" x="2525.867188"/>
     <use xlink:href="#DejaVuSans-65" x="2557.654297"/>
     <use xlink:href="#DejaVuSans-78" x="2617.427734"/>
     <use xlink:href="#DejaVuSans-63" x="2674.857422"/>
     <use xlink:href="#DejaVuSans-6c" x="2729.837891"/>
     <use xlink:href="#DejaVuSans-75" x="2757.621094"/>
     <use xlink:href="#DejaVuSans-64" x="2821"/>
     <use xlink:href="#DejaVuSans-65" x="2884.476562"/>
     <use xlink:href="#DejaVuSans-73" x="2946"/>
     <use xlink:href="#DejaVuSans-20" x="2998.099609"/>
     <use xlink:href="#DejaVuSans-32" x="3029.886719"/>
     <use xlink:href="#DejaVuSans-30" x="3093.509766"/>
     <use xlink:href="#DejaVuSans-32" x="3157.132812"/>
     <use xlink:href="#DejaVuSans-30" x="3220.755859"/>
     <use xlink:href="#DejaVuSans-2d" x="3284.378906"/>
     <use xlink:href="#DejaVuSans-32" x="3320.462891"/>
     <use xlink:href="#DejaVuSans-30" x="3384.085938"/>
     <use xlink:href="#DejaVuSans-32" x="3447.708984"/>
     <use xlink:href="#DejaVuSans-32" x="3511.332031"/>
    </g>
   </g>
  </g>
  <g id="text_19">
   <!-- Deaths per week in the Netherlands (since 2010) -->
   <g transform="translate(35.968484 17.837812) scale(0.14 -0.14)">
    <defs>
     <path id="DejaVuSans-68" d="M 3513 2113 
L 3513 0 
L 2938 0 
L 2938 2094 
Q 2938 2591 2744 2837 
Q 2550 3084 2163 3084 
Q 1697 3084 1428 2787 
Q 1159 2491 1159 1978 
L 1159 0 
L 581 0 
L 581 4863 
L 1159 4863 
L 1159 2956 
Q 1366 3272 1645 3428 
Q 1925 3584 2291 3584 
Q 2894 3584 3203 3211 
Q 3513 2838 3513 2113 
z
" transform="scale(0.015625)"/>
     <path id="DejaVuSans-6b" d="M 581 4863 
L 1159 4863 
L 1159 1991 
L 2875 3500 
L 3609 3500 
L 1753 1863 
L 3688 0 
L 2938 0 
L 1159 1709 
L 1159 0 
L 581 0 
L 581 4863 
z
" transform="scale(0.015625)"/>
     <path id="DejaVuSans-28" d="M 1984 4856 
Q 1566 4138 1362 3434 
Q 1159 2731 1159 2009 
Q 1159 1288 1364 580 
Q 1569 -128 1984 -844 
L 1484 -844 
Q 1016 -109 783 600 
Q 550 1309 550 2009 
Q 550 2706 781 3412 
Q 1013 4119 1484 4856 
L 1984 4856 
z
" transform="scale(0.015625)"/>
     <path id="DejaVuSans-29" d="M 513 4856 
L 1013 4856 
Q 1481 4119 1714 3412 
Q 1947 2706 1947 2009 
Q 1947 1309 1714 600 
Q 1481 -109 1013 -844 
L 513 -844 
Q 928 -128 1133 580 
Q 1338 1288 1338 2009 
Q 1338 2731 1133 3434 
Q 928 4138 513 4856 
z
" transform="scale(0.015625)"/>
    </defs>
    <use xlink:href="#DejaVuSans-44"/>
    <use xlink:href="#DejaVuSans-65" x="77.001953"/>
    <use xlink:href="#DejaVuSans-61" x="138.525391"/>
    <use xlink:href="#DejaVuSans-74" x="199.804688"/>
    <use xlink:href="#DejaVuSans-68" x="239.013672"/>
    <use xlink:href="#DejaVuSans-73" x="302.392578"/>
    <use xlink:href="#DejaVuSans-20" x="354.492188"/>
    <use xlink:href="#DejaVuSans-70" x="386.279297"/>
    <use xlink:href="#DejaVuSans-65" x="449.755859"/>
    <use xlink:href="#DejaVuSans-72" x="511.279297"/>
    <use xlink:href="#DejaVuSans-20" x="552.392578"/>
    <use xlink:href="#DejaVuSans-77" x="584.179688"/>
    <use xlink:href="#DejaVuSans-65" x="665.966797"/>
    <use xlink:href="#DejaVuSans-65" x="727.490234"/>
    <use xlink:href="#DejaVuSans-6b" x="789.013672"/>
    <use xlink:href="#DejaVuSans-20" x="846.923828"/>
    <use xlink:href="#DejaVuSans-69" x="878.710938"/>
    <use xlink:href="#DejaVuSans-6e" x="906.494141"/>
    <use xlink:href="#DejaVuSans-20" x="969.873047"/>
    <use xlink:href="#DejaVuSans-74" x="1001.660156"/>
    <use xlink:href="#DejaVuSans-68" x="1040.869141"/>
    <use xlink:href="#DejaVuSans-65" x="1104.248047"/>
    <use xlink:href="#DejaVuSans-20" x="1165.771484"/>
    <use xlink:href="#DejaVuSans-4e" x="1197.558594"/>
    <use xlink:href="#DejaVuSans-65" x="1272.363281"/>
    <use xlink:href="#DejaVuSans-74" x="1333.886719"/>
    <use xlink:href="#DejaVuSans-68" x="1373.095703"/>
    <use xlink:href="#DejaVuSans-65" x="1436.474609"/>
    <use xlink:href="#DejaVuSans-72" x="1497.998047"/>
    <use xlink:href="#DejaVuSans-6c" x="1539.111328"/>
    <use xlink:href="#DejaVuSans-61" x="1566.894531"/>
    <use xlink:href="#DejaVuSans-6e" x="1628.173828"/>
    <use xlink:href="#DejaVuSans-64" x="1691.552734"/>
    <use xlink:href="#DejaVuSans-73" x="1755.029297"/>
    <use xlink:href="#DejaVuSans-20" x="1807.128906"/>
    <use xlink:href="#DejaVuSans-28" x="1838.916016"/>
    <use xlink:href="#DejaVuSans-73" x="1877.929688"/>
    <use xlink:href="#DejaVuSans-69" x="1930.029297"/>
    <use xlink:href="#DejaVuSans-6e" x="1957.8125"/>
    <use xlink:href="#DejaVuSans-63" x="2021.191406"/>
    <use xlink:href="#DejaVuSans-65" x="2076.171875"/>
    <use xlink:href="#DejaVuSans-20" x="2137.695312"/>
    <use xlink:href="#DejaVuSans-32" x="2169.482422"/>
    <use xlink:href="#DejaVuSans-30" x="2233.105469"/>
    <use xlink:href="#DejaVuSans-31" x="2296.728516"/>
    <use xlink:href="#DejaVuSans-30" x="2360.351562"/>
    <use xlink:href="#DejaVuSans-29" x="2423.974609"/>
   </g>
  </g>
  <g id="legend_1">
   <g id="patch_4">
    <path d="M 417.788796 455.478822 
L 491.576297 455.478822 
Q 493.576297 455.478822 493.576297 453.478822 
L 493.576297 366.410072 
Q 493.576297 364.410072 491.576297 364.410072 
L 417.788796 364.410072 
Q 415.788796 364.410072 415.788796 366.410072 
L 415.788796 453.478822 
Q 415.788796 455.478822 417.788796 455.478822 
z
" style="fill: #ffffff; opacity: 0.8; stroke: #cccccc; stroke-linejoin: miter"/>
   </g>
   <g id="patch_5">
    <path d="M 419.788796 376.00851 
L 439.788796 376.00851 
L 439.788796 369.00851 
L 419.788796 369.00851 
z
" style="fill: #1f77b4; fill-opacity: 0.3; stroke: #1f77b4; stroke-opacity: 0.3; stroke-linejoin: miter"/>
   </g>
   <g id="text_20">
    <!-- SD -->
    <g transform="translate(447.788796 376.00851) scale(0.1 -0.1)">
     <use xlink:href="#DejaVuSans-53"/>
     <use xlink:href="#DejaVuSans-44" x="63.476562"/>
    </g>
   </g>
   <g id="patch_6">
    <path d="M 419.788796 390.686635 
L 439.788796 390.686635 
L 439.788796 383.686635 
L 419.788796 383.686635 
z
" style="fill: #1f77b4; fill-opacity: 0.2"/>
   </g>
   <g id="text_21">
    <!-- Min/Max -->
    <g transform="translate(447.788796 390.686635) scale(0.1 -0.1)">
     <defs>
      <path id="DejaVuSans-2f" d="M 1625 4666 
L 2156 4666 
L 531 -594 
L 0 -594 
L 1625 4666 
z
" transform="scale(0.015625)"/>
     </defs>
     <use xlink:href="#DejaVuSans-4d"/>
     <use xlink:href="#DejaVuSans-69" x="86.279297"/>
     <use xlink:href="#DejaVuSans-6e" x="114.0625"/>
     <use xlink:href="#DejaVuSans-2f" x="177.441406"/>
     <use xlink:href="#DejaVuSans-4d" x="211.132812"/>
     <use xlink:href="#DejaVuSans-61" x="297.412109"/>
     <use xlink:href="#DejaVuSans-78" x="358.691406"/>
    </g>
   </g>
   <g id="line2d_22">
    <path d="M 419.788796 401.86476 
L 429.788796 401.86476 
L 439.788796 401.86476 
" style="fill: none; stroke-dasharray: 5.55,2.4; stroke-dashoffset: 0; stroke: #1f77b4; stroke-width: 1.5"/>
   </g>
   <g id="text_22">
    <!-- Median -->
    <g transform="translate(447.788796 405.36476) scale(0.1 -0.1)">
     <use xlink:href="#DejaVuSans-4d"/>
     <use xlink:href="#DejaVuSans-65" x="86.279297"/>
     <use xlink:href="#DejaVuSans-64" x="147.802734"/>
     <use xlink:href="#DejaVuSans-69" x="211.279297"/>
     <use xlink:href="#DejaVuSans-61" x="239.0625"/>
     <use xlink:href="#DejaVuSans-6e" x="300.341797"/>
    </g>
   </g>
   <g id="line2d_23">
    <path d="M 419.788796 416.542885 
L 429.788796 416.542885 
L 439.788796 416.542885 
" style="fill: none; stroke-dasharray: 2,3.3; stroke-dashoffset: 0; stroke: #d62728; stroke-width: 2"/>
   </g>
   <g id="text_23">
    <!-- 2020 -->
    <g transform="translate(447.788796 420.042885) scale(0.1 -0.1)">
     <use xlink:href="#DejaVuSans-32"/>
     <use xlink:href="#DejaVuSans-30" x="63.623047"/>
     <use xlink:href="#DejaVuSans-32" x="127.246094"/>
     <use xlink:href="#DejaVuSans-30" x="190.869141"/>
    </g>
   </g>
   <g id="line2d_24">
    <path d="M 419.788796 431.22101 
L 429.788796 431.22101 
L 439.788796 431.22101 
" style="fill: none; stroke: #ff7f0e; stroke-width: 2; stroke-linecap: square"/>
   </g>
   <g id="text_24">
    <!-- 2021 -->
    <g transform="translate(447.788796 434.72101) scale(0.1 -0.1)">
     <use xlink:href="#DejaVuSans-32"/>
     <use xlink:href="#DejaVuSans-30" x="63.623047"/>
     <use xlink:href="#DejaVuSans-32" x="127.246094"/>
     <use xlink:href="#DejaVuSans-31" x="190.869141"/>
    </g>
   </g>
   <g id="line2d_25">
    <path d="M 419.788796 445.899135 
L 429.788796 445.899135 
L 439.788796 445.899135 
" style="fill: none; stroke: #2ca02c; stroke-width: 3; stroke-linecap: square"/>
   </g>
   <g id="text_25">
    <!-- 2022 -->
    <g transform="translate(447.788796 449.399135) scale(0.1 -0.1)">
     <use xlink:href="#DejaVuSans-32"/>
     <use xlink:href="#DejaVuSans-30" x="63.623047"/>
     <use xlink:href="#DejaVuSans-32" x="127.246094"/>
     <use xlink:href="#DejaVuSans-32" x="190.869141"/>
    </g>
   </g>
  </g>
 </g>
 <defs>
  <clipPath id="pf50f98c256">
   <path d="M 386.907281 255.908776 
C 386.907281 232.464302 382.28923 209.247796 373.317419 187.587926 
C 364.345607 165.928057 351.194512 146.246053 334.616766 129.668307 
C 318.039019 113.09056 298.357016 99.939466 276.697146 90.967654 
C 255.037277 81.995842 231.820771 77.377792 208.376297 77.377792 
C 184.931822 77.377792 161.715316 81.995842 140.055447 90.967654 
C 118.395577 99.939466 98.713574 113.09056 82.135827 129.668307 
C 65.558081 146.246053 52.406986 165.928057 43.435174 187.587926 
C 34.463363 209.247796 29.845313 232.464302 29.845313 255.908776 
C 29.845313 279.35325 34.463363 302.569756 43.435174 324.229626 
C 52.406986 345.889495 65.558081 365.571499 82.135827 382.149245 
C 98.713574 398.726992 118.395577 411.878086 140.055447 420.849898 
C 161.715316 429.82171 184.931822 434.43976 208.376296 434.43976 
C 231.820771 434.43976 255.037277 429.82171 276.697146 420.849898 
C 298.357016 411.878086 318.039019 398.726992 334.616766 382.149245 
C 351.194512 365.571499 364.345607 345.889495 373.317419 324.229626 
C 382.28923 302.569756 386.907281 279.35325 386.907281 255.908776 
M 208.376297 255.908776 
C 208.376297 255.908776 208.376297 255.908776 208.376297 255.908776 
C 208.376297 255.908776 208.376297 255.908776 208.376297 255.908776 
C 208.376297 255.908776 208.376297 255.908776 208.376297 255.908776 
C 208.376297 255.908776 208.376297 255.908776 208.376297 255.908776 
C 208.376297 255.908776 208.376297 255.908776 208.376297 255.908776 
C 208.376297 255.908776 208.376297 255.908776 208.376297 255.908776 
C 208.376297 255.908776 208.376297 255.908776 208.376297 255.908776 
C 208.376297 255.908776 208.376297 255.908776 208.376297 255.908776 
C 208.376297 255.908776 208.376297 255.908776 208.376297 255.908776 
C 208.376297 255.908776 208.376297 255.908776 208.376297 255.908776 
C 208.376297 255.908776 208.376297 255.908776 208.376297 255.908776 
C 208.376297 255.908776 208.376297 255.908776 208.376297 255.908776 
C 208.376297 255.908776 208.376297 255.908776 208.376297 255.908776 
C 208.376297 255.908776 208.376297 255.908776 208.376297 255.908776 
C 208.376297 255.908776 208.376297 255.908776 208.376297 255.908776 
C 208.376297 255.908776 208.376297 255.908776 208.376297 255.908776 
M 386.907281 255.908776 
z
"/>
  </clipPath>
 </defs>
</svg>
