<?xml version="1.0" encoding="utf-8" standalone="no"?>
<!DOCTYPE svg PUBLIC "-//W3C//DTD SVG 1.1//EN"
  "http://www.w3.org/Graphics/SVG/1.1/DTD/svg11.dtd">
<svg xmlns:xlink="http://www.w3.org/1999/xlink" width="498.933531pt" height="460.67976pt" viewBox="0 0 498.933531 460.67976" xmlns="http://www.w3.org/2000/svg" version="1.1">
 <metadata>
  <rdf:RDF xmlns:dc="http://purl.org/dc/elements/1.1/" xmlns:cc="http://creativecommons.org/ns#" xmlns:rdf="http://www.w3.org/1999/02/22-rdf-syntax-ns#">
   <cc:Work>
    <dc:type rdf:resource="http://purl.org/dc/dcmitype/StillImage"/>
    <dc:date>2024-07-09T02:35:20.930318</dc:date>
    <dc:format>image/svg+xml</dc:format>
    <dc:creator>
     <cc:Agent>
      <dc:title>Matplotlib v3.9.1, https://matplotlib.org/</dc:title>
     </cc:Agent>
    </dc:creator>
   </cc:Work>
  </rdf:RDF>
 </metadata>
 <defs>
  <style type="text/css">*{stroke-linejoin: round; stroke-linecap: butt}</style>
 </defs>
 <g id="figure_1">
  <g id="patch_1">
   <path d="M 0 460.67976 
L 498.933531 460.67976 
L 498.933531 0 
L 0 0 
z
" style="fill: #ffffff"/>
  </g>
  <g id="axes_1">
   <g id="patch_2">
    <path d="M 387.62175 255.752479 
C 387.62175 232.261093 382.994459 208.998131 374.004695 187.294921 
C 365.014931 165.591711 351.837522 145.870324 335.226604 129.259406 
C 318.615686 112.648488 298.894299 99.471079 277.191089 90.481315 
C 255.487879 81.491551 232.224917 76.86426 208.733531 76.86426 
C 185.242146 76.86426 161.979184 81.491551 140.275974 90.481315 
C 118.572763 99.471079 98.851377 112.648488 82.240459 129.259406 
C 65.629541 145.870324 52.452131 165.591711 43.462367 187.294921 
C 34.472603 208.998131 29.845313 232.261093 29.845313 255.752479 
C 29.845313 279.243864 34.472603 302.506826 43.462367 324.210036 
C 52.452131 345.913247 65.629541 365.634633 82.240459 382.245551 
C 98.851377 398.856469 118.572763 412.033879 140.275974 421.023643 
C 161.979184 430.013407 185.242146 434.640697 208.733531 434.640697 
C 232.224917 434.640697 255.487879 430.013407 277.191089 421.023643 
C 298.894299 412.033879 318.615686 398.856469 335.226604 382.245551 
C 351.837522 365.634633 365.014931 345.913247 374.004695 324.210036 
C 382.994459 302.506826 387.62175 279.243864 387.62175 255.752479 
M 208.733531 255.752479 
C 208.733531 255.752479 208.733531 255.752479 208.733531 255.752479 
C 208.733531 255.752479 208.733531 255.752479 208.733531 255.752479 
C 208.733531 255.752479 208.733531 255.752479 208.733531 255.752479 
C 208.733531 255.752479 208.733531 255.752479 208.733531 255.752479 
C 208.733531 255.752479 208.733531 255.752479 208.733531 255.752479 
C 208.733531 255.752479 208.733531 255.752479 208.733531 255.752479 
C 208.733531 255.752479 208.733531 255.752479 208.733531 255.752479 
C 208.733531 255.752479 208.733531 255.752479 208.733531 255.752479 
C 208.733531 255.752479 208.733531 255.752479 208.733531 255.752479 
C 208.733531 255.752479 208.733531 255.752479 208.733531 255.752479 
C 208.733531 255.752479 208.733531 255.752479 208.733531 255.752479 
C 208.733531 255.752479 208.733531 255.752479 208.733531 255.752479 
C 208.733531 255.752479 208.733531 255.752479 208.733531 255.752479 
C 208.733531 255.752479 208.733531 255.752479 208.733531 255.752479 
C 208.733531 255.752479 208.733531 255.752479 208.733531 255.752479 
C 208.733531 255.752479 208.733531 255.752479 208.733531 255.752479 
z
" style="fill: #ffffff"/>
   </g>
   <g id="matplotlib.axis_1">
    <g id="xtick_1">
     <g id="line2d_1">
      <path d="M 208.733531 255.752479 
L 208.733531 76.86426 
" clip-path="url(#p8b872b4033)" style="fill: none; stroke: #b0b0b0; stroke-width: 0.8; stroke-linecap: square"/>
     </g>
     <g id="text_1">
      <!-- Jan -->
      <g transform="translate(201.025719 65.623635) scale(0.1 -0.1)">
       <defs>
        <path id="DejaVuSans-4a" d="M 628 4666 
L 1259 4666 
L 1259 325 
Q 1259 -519 939 -900 
Q 619 -1281 -91 -1281 
L -331 -1281 
L -331 -750 
L -134 -750 
Q 284 -750 456 -515 
Q 628 -281 628 325 
L 628 4666 
z
" transform="scale(0.015625)"/>
        <path id="DejaVuSans-61" d="M 2194 1759 
Q 1497 1759 1228 1600 
Q 959 1441 959 1056 
Q 959 750 1161 570 
Q 1363 391 1709 391 
Q 2188 391 2477 730 
Q 2766 1069 2766 1631 
L 2766 1759 
L 2194 1759 
z
M 3341 1997 
L 3341 0 
L 2766 0 
L 2766 531 
Q 2569 213 2275 61 
Q 1981 -91 1556 -91 
Q 1019 -91 701 211 
Q 384 513 384 1019 
Q 384 1609 779 1909 
Q 1175 2209 1959 2209 
L 2766 2209 
L 2766 2266 
Q 2766 2663 2505 2880 
Q 2244 3097 1772 3097 
Q 1472 3097 1187 3025 
Q 903 2953 641 2809 
L 641 3341 
Q 956 3463 1253 3523 
Q 1550 3584 1831 3584 
Q 2591 3584 2966 3190 
Q 3341 2797 3341 1997 
z
" transform="scale(0.015625)"/>
        <path id="DejaVuSans-6e" d="M 3513 2113 
L 3513 0 
L 2938 0 
L 2938 2094 
Q 2938 2591 2744 2837 
Q 2550 3084 2163 3084 
Q 1697 3084 1428 2787 
Q 1159 2491 1159 1978 
L 1159 0 
L 581 0 
L 581 3500 
L 1159 3500 
L 1159 2956 
Q 1366 3272 1645 3428 
Q 1925 3584 2291 3584 
Q 2894 3584 3203 3211 
Q 3513 2838 3513 2113 
z
" transform="scale(0.015625)"/>
       </defs>
       <use xlink:href="#DejaVuSans-4a"/>
       <use xlink:href="#DejaVuSans-61" x="29.492188"/>
       <use xlink:href="#DejaVuSans-6e" x="90.771484"/>
      </g>
     </g>
    </g>
    <g id="xtick_2">
     <g id="line2d_2">
      <path d="M 208.733531 255.752479 
L 298.177641 100.830737 
" clip-path="url(#p8b872b4033)" style="fill: none; stroke: #b0b0b0; stroke-width: 0.8; stroke-linecap: square"/>
     </g>
     <g id="text_2">
      <!-- Feb -->
      <g transform="translate(296.326078 91.465756) scale(0.1 -0.1)">
       <defs>
        <path id="DejaVuSans-46" d="M 628 4666 
L 3309 4666 
L 3309 4134 
L 1259 4134 
L 1259 2759 
L 3109 2759 
L 3109 2228 
L 1259 2228 
L 1259 0 
L 628 0 
L 628 4666 
z
" transform="scale(0.015625)"/>
        <path id="DejaVuSans-65" d="M 3597 1894 
L 3597 1613 
L 953 1613 
Q 991 1019 1311 708 
Q 1631 397 2203 397 
Q 2534 397 2845 478 
Q 3156 559 3463 722 
L 3463 178 
Q 3153 47 2828 -22 
Q 2503 -91 2169 -91 
Q 1331 -91 842 396 
Q 353 884 353 1716 
Q 353 2575 817 3079 
Q 1281 3584 2069 3584 
Q 2775 3584 3186 3129 
Q 3597 2675 3597 1894 
z
M 3022 2063 
Q 3016 2534 2758 2815 
Q 2500 3097 2075 3097 
Q 1594 3097 1305 2825 
Q 1016 2553 972 2059 
L 3022 2063 
z
" transform="scale(0.015625)"/>
        <path id="DejaVuSans-62" d="M 3116 1747 
Q 3116 2381 2855 2742 
Q 2594 3103 2138 3103 
Q 1681 3103 1420 2742 
Q 1159 2381 1159 1747 
Q 1159 1113 1420 752 
Q 1681 391 2138 391 
Q 2594 391 2855 752 
Q 3116 1113 3116 1747 
z
M 1159 2969 
Q 1341 3281 1617 3432 
Q 1894 3584 2278 3584 
Q 2916 3584 3314 3078 
Q 3713 2572 3713 1747 
Q 3713 922 3314 415 
Q 2916 -91 2278 -91 
Q 1894 -91 1617 61 
Q 1341 213 1159 525 
L 1159 0 
L 581 0 
L 581 4863 
L 1159 4863 
L 1159 2969 
z
" transform="scale(0.015625)"/>
       </defs>
       <use xlink:href="#DejaVuSans-46"/>
       <use xlink:href="#DejaVuSans-65" x="52.019531"/>
       <use xlink:href="#DejaVuSans-62" x="113.542969"/>
      </g>
     </g>
    </g>
    <g id="xtick_3">
     <g id="line2d_3">
      <path d="M 208.733531 255.752479 
L 363.655273 166.308369 
" clip-path="url(#p8b872b4033)" style="fill: none; stroke: #b0b0b0; stroke-width: 0.8; stroke-linecap: square"/>
     </g>
     <g id="text_3">
      <!-- Mar -->
      <g transform="translate(366.346035 162.067744) scale(0.1 -0.1)">
       <defs>
        <path id="DejaVuSans-4d" d="M 628 4666 
L 1569 4666 
L 2759 1491 
L 3956 4666 
L 4897 4666 
L 4897 0 
L 4281 0 
L 4281 4097 
L 3078 897 
L 2444 897 
L 1241 4097 
L 1241 0 
L 628 0 
L 628 4666 
z
" transform="scale(0.015625)"/>
        <path id="DejaVuSans-72" d="M 2631 2963 
Q 2534 3019 2420 3045 
Q 2306 3072 2169 3072 
Q 1681 3072 1420 2755 
Q 1159 2438 1159 1844 
L 1159 0 
L 581 0 
L 581 3500 
L 1159 3500 
L 1159 2956 
Q 1341 3275 1631 3429 
Q 1922 3584 2338 3584 
Q 2397 3584 2469 3576 
Q 2541 3569 2628 3553 
L 2631 2963 
z
" transform="scale(0.015625)"/>
       </defs>
       <use xlink:href="#DejaVuSans-4d"/>
       <use xlink:href="#DejaVuSans-61" x="86.279297"/>
       <use xlink:href="#DejaVuSans-72" x="147.558594"/>
      </g>
     </g>
    </g>
    <g id="xtick_4">
     <g id="line2d_4">
      <path d="M 208.733531 255.752479 
L 387.62175 255.752479 
" clip-path="url(#p8b872b4033)" style="fill: none; stroke: #b0b0b0; stroke-width: 0.8; stroke-linecap: square"/>
     </g>
     <g id="text_4">
      <!-- Apr -->
      <g transform="translate(392.97175 258.511854) scale(0.1 -0.1)">
       <defs>
        <path id="DejaVuSans-41" d="M 2188 4044 
L 1331 1722 
L 3047 1722 
L 2188 4044 
z
M 1831 4666 
L 2547 4666 
L 4325 0 
L 3669 0 
L 3244 1197 
L 1141 1197 
L 716 0 
L 50 0 
L 1831 4666 
z
" transform="scale(0.015625)"/>
        <path id="DejaVuSans-70" d="M 1159 525 
L 1159 -1331 
L 581 -1331 
L 581 3500 
L 1159 3500 
L 1159 2969 
Q 1341 3281 1617 3432 
Q 1894 3584 2278 3584 
Q 2916 3584 3314 3078 
Q 3713 2572 3713 1747 
Q 3713 922 3314 415 
Q 2916 -91 2278 -91 
Q 1894 -91 1617 61 
Q 1341 213 1159 525 
z
M 3116 1747 
Q 3116 2381 2855 2742 
Q 2594 3103 2138 3103 
Q 1681 3103 1420 2742 
Q 1159 2381 1159 1747 
Q 1159 1113 1420 752 
Q 1681 391 2138 391 
Q 2594 391 2855 752 
Q 3116 1113 3116 1747 
z
" transform="scale(0.015625)"/>
       </defs>
       <use xlink:href="#DejaVuSans-41"/>
       <use xlink:href="#DejaVuSans-70" x="68.408203"/>
       <use xlink:href="#DejaVuSans-72" x="131.884766"/>
      </g>
     </g>
    </g>
    <g id="xtick_5">
     <g id="line2d_5">
      <path d="M 208.733531 255.752479 
L 363.655273 345.196588 
" clip-path="url(#p8b872b4033)" style="fill: none; stroke: #b0b0b0; stroke-width: 0.8; stroke-linecap: square"/>
     </g>
     <g id="text_5">
      <!-- May -->
      <g transform="translate(365.442129 354.955963) scale(0.1 -0.1)">
       <defs>
        <path id="DejaVuSans-79" d="M 2059 -325 
Q 1816 -950 1584 -1140 
Q 1353 -1331 966 -1331 
L 506 -1331 
L 506 -850 
L 844 -850 
Q 1081 -850 1212 -737 
Q 1344 -625 1503 -206 
L 1606 56 
L 191 3500 
L 800 3500 
L 1894 763 
L 2988 3500 
L 3597 3500 
L 2059 -325 
z
" transform="scale(0.015625)"/>
       </defs>
       <use xlink:href="#DejaVuSans-4d"/>
       <use xlink:href="#DejaVuSans-61" x="86.279297"/>
       <use xlink:href="#DejaVuSans-79" x="147.558594"/>
      </g>
     </g>
    </g>
    <g id="xtick_6">
     <g id="line2d_6">
      <path d="M 208.733531 255.752479 
L 298.177641 410.674221 
" clip-path="url(#p8b872b4033)" style="fill: none; stroke: #b0b0b0; stroke-width: 0.8; stroke-linecap: square"/>
     </g>
     <g id="text_6">
      <!-- Jun -->
      <g transform="translate(297.365141 425.557951) scale(0.1 -0.1)">
       <defs>
        <path id="DejaVuSans-75" d="M 544 1381 
L 544 3500 
L 1119 3500 
L 1119 1403 
Q 1119 906 1312 657 
Q 1506 409 1894 409 
Q 2359 409 2629 706 
Q 2900 1003 2900 1516 
L 2900 3500 
L 3475 3500 
L 3475 0 
L 2900 0 
L 2900 538 
Q 2691 219 2414 64 
Q 2138 -91 1772 -91 
Q 1169 -91 856 284 
Q 544 659 544 1381 
z
M 1991 3584 
L 1991 3584 
z
" transform="scale(0.015625)"/>
       </defs>
       <use xlink:href="#DejaVuSans-4a"/>
       <use xlink:href="#DejaVuSans-75" x="29.492188"/>
       <use xlink:href="#DejaVuSans-6e" x="92.871094"/>
      </g>
     </g>
    </g>
    <g id="xtick_7">
     <g id="line2d_7">
      <path d="M 208.733531 255.752479 
L 208.733531 434.640697 
" clip-path="url(#p8b872b4033)" style="fill: none; stroke: #b0b0b0; stroke-width: 0.8; stroke-linecap: square"/>
     </g>
     <g id="text_7">
      <!-- Jul -->
      <g transform="translate(202.700719 451.400073) scale(0.1 -0.1)">
       <defs>
        <path id="DejaVuSans-6c" d="M 603 4863 
L 1178 4863 
L 1178 0 
L 603 0 
L 603 4863 
z
" transform="scale(0.015625)"/>
       </defs>
       <use xlink:href="#DejaVuSans-4a"/>
       <use xlink:href="#DejaVuSans-75" x="29.492188"/>
       <use xlink:href="#DejaVuSans-6c" x="92.871094"/>
      </g>
     </g>
    </g>
    <g id="xtick_8">
     <g id="line2d_8">
      <path d="M 208.733531 255.752479 
L 119.289422 410.674221 
" clip-path="url(#p8b872b4033)" style="fill: none; stroke: #b0b0b0; stroke-width: 0.8; stroke-linecap: square"/>
     </g>
     <g id="text_8">
      <!-- Aug -->
      <g transform="translate(102.526141 425.557951) scale(0.1 -0.1)">
       <defs>
        <path id="DejaVuSans-67" d="M 2906 1791 
Q 2906 2416 2648 2759 
Q 2391 3103 1925 3103 
Q 1463 3103 1205 2759 
Q 947 2416 947 1791 
Q 947 1169 1205 825 
Q 1463 481 1925 481 
Q 2391 481 2648 825 
Q 2906 1169 2906 1791 
z
M 3481 434 
Q 3481 -459 3084 -895 
Q 2688 -1331 1869 -1331 
Q 1566 -1331 1297 -1286 
Q 1028 -1241 775 -1147 
L 775 -588 
Q 1028 -725 1275 -790 
Q 1522 -856 1778 -856 
Q 2344 -856 2625 -561 
Q 2906 -266 2906 331 
L 2906 616 
Q 2728 306 2450 153 
Q 2172 0 1784 0 
Q 1141 0 747 490 
Q 353 981 353 1791 
Q 353 2603 747 3093 
Q 1141 3584 1784 3584 
Q 2172 3584 2450 3431 
Q 2728 3278 2906 2969 
L 2906 3500 
L 3481 3500 
L 3481 434 
z
" transform="scale(0.015625)"/>
       </defs>
       <use xlink:href="#DejaVuSans-41"/>
       <use xlink:href="#DejaVuSans-75" x="68.408203"/>
       <use xlink:href="#DejaVuSans-67" x="131.787109"/>
      </g>
     </g>
    </g>
    <g id="xtick_9">
     <g id="line2d_9">
      <path d="M 208.733531 255.752479 
L 53.811789 345.196588 
" clip-path="url(#p8b872b4033)" style="fill: none; stroke: #b0b0b0; stroke-width: 0.8; stroke-linecap: square"/>
     </g>
     <g id="text_9">
      <!-- Sept -->
      <g transform="translate(30.302277 354.955963) scale(0.1 -0.1)">
       <defs>
        <path id="DejaVuSans-53" d="M 3425 4513 
L 3425 3897 
Q 3066 4069 2747 4153 
Q 2428 4238 2131 4238 
Q 1616 4238 1336 4038 
Q 1056 3838 1056 3469 
Q 1056 3159 1242 3001 
Q 1428 2844 1947 2747 
L 2328 2669 
Q 3034 2534 3370 2195 
Q 3706 1856 3706 1288 
Q 3706 609 3251 259 
Q 2797 -91 1919 -91 
Q 1588 -91 1214 -16 
Q 841 59 441 206 
L 441 856 
Q 825 641 1194 531 
Q 1563 422 1919 422 
Q 2459 422 2753 634 
Q 3047 847 3047 1241 
Q 3047 1584 2836 1778 
Q 2625 1972 2144 2069 
L 1759 2144 
Q 1053 2284 737 2584 
Q 422 2884 422 3419 
Q 422 4038 858 4394 
Q 1294 4750 2059 4750 
Q 2388 4750 2728 4690 
Q 3069 4631 3425 4513 
z
" transform="scale(0.015625)"/>
        <path id="DejaVuSans-74" d="M 1172 4494 
L 1172 3500 
L 2356 3500 
L 2356 3053 
L 1172 3053 
L 1172 1153 
Q 1172 725 1289 603 
Q 1406 481 1766 481 
L 2356 481 
L 2356 0 
L 1766 0 
Q 1100 0 847 248 
Q 594 497 594 1153 
L 594 3053 
L 172 3053 
L 172 3500 
L 594 3500 
L 594 4494 
L 1172 4494 
z
" transform="scale(0.015625)"/>
       </defs>
       <use xlink:href="#DejaVuSans-53"/>
       <use xlink:href="#DejaVuSans-65" x="63.476562"/>
       <use xlink:href="#DejaVuSans-70" x="125"/>
       <use xlink:href="#DejaVuSans-74" x="188.476562"/>
      </g>
     </g>
    </g>
    <g id="xtick_10">
     <g id="line2d_10">
      <path d="M 208.733531 255.752479 
L 29.845313 255.752479 
" clip-path="url(#p8b872b4033)" style="fill: none; stroke: #b0b0b0; stroke-width: 0.8; stroke-linecap: square"/>
     </g>
     <g id="text_10">
      <!-- Oct -->
      <g transform="translate(7.2 258.511854) scale(0.1 -0.1)">
       <defs>
        <path id="DejaVuSans-4f" d="M 2522 4238 
Q 1834 4238 1429 3725 
Q 1025 3213 1025 2328 
Q 1025 1447 1429 934 
Q 1834 422 2522 422 
Q 3209 422 3611 934 
Q 4013 1447 4013 2328 
Q 4013 3213 3611 3725 
Q 3209 4238 2522 4238 
z
M 2522 4750 
Q 3503 4750 4090 4092 
Q 4678 3434 4678 2328 
Q 4678 1225 4090 567 
Q 3503 -91 2522 -91 
Q 1538 -91 948 565 
Q 359 1222 359 2328 
Q 359 3434 948 4092 
Q 1538 4750 2522 4750 
z
" transform="scale(0.015625)"/>
        <path id="DejaVuSans-63" d="M 3122 3366 
L 3122 2828 
Q 2878 2963 2633 3030 
Q 2388 3097 2138 3097 
Q 1578 3097 1268 2742 
Q 959 2388 959 1747 
Q 959 1106 1268 751 
Q 1578 397 2138 397 
Q 2388 397 2633 464 
Q 2878 531 3122 666 
L 3122 134 
Q 2881 22 2623 -34 
Q 2366 -91 2075 -91 
Q 1284 -91 818 406 
Q 353 903 353 1747 
Q 353 2603 823 3093 
Q 1294 3584 2113 3584 
Q 2378 3584 2631 3529 
Q 2884 3475 3122 3366 
z
" transform="scale(0.015625)"/>
       </defs>
       <use xlink:href="#DejaVuSans-4f"/>
       <use xlink:href="#DejaVuSans-63" x="78.710938"/>
       <use xlink:href="#DejaVuSans-74" x="133.691406"/>
      </g>
     </g>
    </g>
    <g id="xtick_11">
     <g id="line2d_11">
      <path d="M 208.733531 255.752479 
L 53.811789 166.308369 
" clip-path="url(#p8b872b4033)" style="fill: none; stroke: #b0b0b0; stroke-width: 0.8; stroke-linecap: square"/>
     </g>
     <g id="text_11">
      <!-- Nov -->
      <g transform="translate(31.928059 162.067744) scale(0.1 -0.1)">
       <defs>
        <path id="DejaVuSans-4e" d="M 628 4666 
L 1478 4666 
L 3547 763 
L 3547 4666 
L 4159 4666 
L 4159 0 
L 3309 0 
L 1241 3903 
L 1241 0 
L 628 0 
L 628 4666 
z
" transform="scale(0.015625)"/>
        <path id="DejaVuSans-6f" d="M 1959 3097 
Q 1497 3097 1228 2736 
Q 959 2375 959 1747 
Q 959 1119 1226 758 
Q 1494 397 1959 397 
Q 2419 397 2687 759 
Q 2956 1122 2956 1747 
Q 2956 2369 2687 2733 
Q 2419 3097 1959 3097 
z
M 1959 3584 
Q 2709 3584 3137 3096 
Q 3566 2609 3566 1747 
Q 3566 888 3137 398 
Q 2709 -91 1959 -91 
Q 1206 -91 779 398 
Q 353 888 353 1747 
Q 353 2609 779 3096 
Q 1206 3584 1959 3584 
z
" transform="scale(0.015625)"/>
        <path id="DejaVuSans-76" d="M 191 3500 
L 800 3500 
L 1894 563 
L 2988 3500 
L 3597 3500 
L 2284 0 
L 1503 0 
L 191 3500 
z
" transform="scale(0.015625)"/>
       </defs>
       <use xlink:href="#DejaVuSans-4e"/>
       <use xlink:href="#DejaVuSans-6f" x="74.804688"/>
       <use xlink:href="#DejaVuSans-76" x="135.986328"/>
      </g>
     </g>
    </g>
    <g id="xtick_12">
     <g id="line2d_12">
      <path d="M 208.733531 255.752479 
L 119.289422 100.830737 
" clip-path="url(#p8b872b4033)" style="fill: none; stroke: #b0b0b0; stroke-width: 0.8; stroke-linecap: square"/>
     </g>
     <g id="text_12">
      <!-- Dec -->
      <g transform="translate(102.613641 91.465756) scale(0.1 -0.1)">
       <defs>
        <path id="DejaVuSans-44" d="M 1259 4147 
L 1259 519 
L 2022 519 
Q 2988 519 3436 956 
Q 3884 1394 3884 2338 
Q 3884 3275 3436 3711 
Q 2988 4147 2022 4147 
L 1259 4147 
z
M 628 4666 
L 1925 4666 
Q 3281 4666 3915 4102 
Q 4550 3538 4550 2338 
Q 4550 1131 3912 565 
Q 3275 0 1925 0 
L 628 0 
L 628 4666 
z
" transform="scale(0.015625)"/>
       </defs>
       <use xlink:href="#DejaVuSans-44"/>
       <use xlink:href="#DejaVuSans-65" x="77.001953"/>
       <use xlink:href="#DejaVuSans-63" x="138.525391"/>
      </g>
     </g>
    </g>
   </g>
   <g id="matplotlib.axis_2">
    <g id="ytick_1">
     <g id="line2d_13">
      <path d="M 208.733531 221.470227 
C 213.235435 221.470227 217.693564 222.357004 221.852781 224.079808 
C 226.011998 225.802612 229.791417 228.327939 232.974744 231.511266 
C 236.158071 234.694593 238.683398 238.474012 240.406202 242.633229 
C 242.129006 246.792446 243.015783 251.250575 243.015783 255.752479 
C 243.015783 260.254383 242.129006 264.712511 240.406202 268.871729 
C 238.683398 273.030946 236.158071 276.810365 232.974744 279.993691 
C 229.791417 283.177018 226.011998 285.702345 221.852781 287.42515 
C 217.693564 289.147954 213.235435 290.034731 208.733531 290.034731 
C 204.231627 290.034731 199.773499 289.147954 195.614281 287.42515 
C 191.455064 285.702345 187.675645 283.177018 184.492319 279.993691 
C 181.308992 276.810365 178.783665 273.030946 177.06086 268.871729 
C 175.338056 264.712511 174.451279 260.254383 174.451279 255.752479 
C 174.451279 251.250575 175.338056 246.792446 177.06086 242.633229 
C 178.783665 238.474012 181.308992 234.694593 184.492319 231.511266 
C 187.675645 228.327939 191.455064 225.802612 195.614281 224.079808 
C 199.773499 222.357004 204.231627 221.470227 208.733531 221.470227 
" clip-path="url(#p8b872b4033)" style="fill: none; stroke: #b0b0b0; stroke-width: 0.8; stroke-linecap: square"/>
     </g>
     <g id="text_13">
      <!-- 1000 -->
      <g transform="translate(208.733531 287.955043) scale(0.1 -0.1)">
       <defs>
        <path id="DejaVuSans-31" d="M 794 531 
L 1825 531 
L 1825 4091 
L 703 3866 
L 703 4441 
L 1819 4666 
L 2450 4666 
L 2450 531 
L 3481 531 
L 3481 0 
L 794 0 
L 794 531 
z
" transform="scale(0.015625)"/>
        <path id="DejaVuSans-30" d="M 2034 4250 
Q 1547 4250 1301 3770 
Q 1056 3291 1056 2328 
Q 1056 1369 1301 889 
Q 1547 409 2034 409 
Q 2525 409 2770 889 
Q 3016 1369 3016 2328 
Q 3016 3291 2770 3770 
Q 2525 4250 2034 4250 
z
M 2034 4750 
Q 2819 4750 3233 4129 
Q 3647 3509 3647 2328 
Q 3647 1150 3233 529 
Q 2819 -91 2034 -91 
Q 1250 -91 836 529 
Q 422 1150 422 2328 
Q 422 3509 836 4129 
Q 1250 4750 2034 4750 
z
" transform="scale(0.015625)"/>
       </defs>
       <use xlink:href="#DejaVuSans-31"/>
       <use xlink:href="#DejaVuSans-30" x="63.623047"/>
       <use xlink:href="#DejaVuSans-30" x="127.246094"/>
       <use xlink:href="#DejaVuSans-30" x="190.869141"/>
      </g>
     </g>
    </g>
    <g id="ytick_2">
     <g id="line2d_14">
      <path d="M 208.733531 187.187975 
C 217.737339 187.187975 226.653597 188.961529 234.972031 192.407137 
C 243.290465 195.852745 250.849303 200.903399 257.215957 207.270053 
C 263.582611 213.636707 268.633265 221.195545 272.078873 229.513979 
C 275.524481 237.832413 277.298035 246.748671 277.298035 255.752479 
C 277.298035 264.756287 275.524481 273.672544 272.078873 281.990978 
C 268.633265 290.309412 263.582611 297.86825 257.215957 304.234904 
C 250.849303 310.601558 243.290465 315.652212 234.972031 319.09782 
C 226.653597 322.543429 217.737339 324.316983 208.733531 324.316983 
C 199.729723 324.316983 190.813466 322.543429 182.495032 319.09782 
C 174.176598 315.652212 166.61776 310.601558 160.251106 304.234904 
C 153.884452 297.86825 148.833798 290.309412 145.38819 281.990978 
C 141.942581 273.672544 140.169027 264.756287 140.169027 255.752479 
C 140.169027 246.748671 141.942581 237.832413 145.38819 229.513979 
C 148.833798 221.195545 153.884452 213.636707 160.251106 207.270053 
C 166.61776 200.903399 174.176598 195.852745 182.495032 192.407137 
C 190.813466 188.961529 199.729723 187.187975 208.733531 187.187975 
" clip-path="url(#p8b872b4033)" style="fill: none; stroke: #b0b0b0; stroke-width: 0.8; stroke-linecap: square"/>
     </g>
     <g id="text_14">
      <!-- 2000 -->
      <g transform="translate(208.733531 322.237295) scale(0.1 -0.1)">
       <defs>
        <path id="DejaVuSans-32" d="M 1228 531 
L 3431 531 
L 3431 0 
L 469 0 
L 469 531 
Q 828 903 1448 1529 
Q 2069 2156 2228 2338 
Q 2531 2678 2651 2914 
Q 2772 3150 2772 3378 
Q 2772 3750 2511 3984 
Q 2250 4219 1831 4219 
Q 1534 4219 1204 4116 
Q 875 4013 500 3803 
L 500 4441 
Q 881 4594 1212 4672 
Q 1544 4750 1819 4750 
Q 2544 4750 2975 4387 
Q 3406 4025 3406 3419 
Q 3406 3131 3298 2873 
Q 3191 2616 2906 2266 
Q 2828 2175 2409 1742 
Q 1991 1309 1228 531 
z
" transform="scale(0.015625)"/>
       </defs>
       <use xlink:href="#DejaVuSans-32"/>
       <use xlink:href="#DejaVuSans-30" x="63.623047"/>
       <use xlink:href="#DejaVuSans-30" x="127.246094"/>
       <use xlink:href="#DejaVuSans-30" x="190.869141"/>
      </g>
     </g>
    </g>
    <g id="ytick_3">
     <g id="line2d_15">
      <path d="M 208.733531 152.905723 
C 222.239244 152.905723 235.61363 155.566054 248.091281 160.734466 
C 260.568932 165.902878 271.907189 173.478859 281.45717 183.02884 
C 291.007151 192.578821 298.583132 203.917078 303.751544 216.394729 
C 308.919956 228.87238 311.580287 242.246766 311.580287 255.752479 
C 311.580287 269.258191 308.919956 282.632577 303.751544 295.110228 
C 298.583132 307.587879 291.007151 318.926136 281.45717 328.476117 
C 271.907189 338.026098 260.568932 345.602079 248.091281 350.770491 
C 235.61363 355.938904 222.239244 358.599234 208.733531 358.599234 
C 195.227819 358.599234 181.853433 355.938904 169.375782 350.770491 
C 156.898131 345.602079 145.559874 338.026098 136.009893 328.476117 
C 126.459912 318.926136 118.883931 307.587879 113.715519 295.110228 
C 108.547106 282.632577 105.886776 269.258191 105.886776 255.752479 
C 105.886776 242.246766 108.547106 228.87238 113.715519 216.394729 
C 118.883931 203.917078 126.459912 192.578821 136.009893 183.02884 
C 145.559874 173.478859 156.898131 165.902878 169.375782 160.734466 
C 181.853433 155.566054 195.227819 152.905723 208.733531 152.905723 
" clip-path="url(#p8b872b4033)" style="fill: none; stroke: #b0b0b0; stroke-width: 0.8; stroke-linecap: square"/>
     </g>
     <g id="text_15">
      <!-- 3000 -->
      <g transform="translate(208.733531 356.519547) scale(0.1 -0.1)">
       <defs>
        <path id="DejaVuSans-33" d="M 2597 2516 
Q 3050 2419 3304 2112 
Q 3559 1806 3559 1356 
Q 3559 666 3084 287 
Q 2609 -91 1734 -91 
Q 1441 -91 1130 -33 
Q 819 25 488 141 
L 488 750 
Q 750 597 1062 519 
Q 1375 441 1716 441 
Q 2309 441 2620 675 
Q 2931 909 2931 1356 
Q 2931 1769 2642 2001 
Q 2353 2234 1838 2234 
L 1294 2234 
L 1294 2753 
L 1863 2753 
Q 2328 2753 2575 2939 
Q 2822 3125 2822 3475 
Q 2822 3834 2567 4026 
Q 2313 4219 1838 4219 
Q 1578 4219 1281 4162 
Q 984 4106 628 3988 
L 628 4550 
Q 988 4650 1302 4700 
Q 1616 4750 1894 4750 
Q 2613 4750 3031 4423 
Q 3450 4097 3450 3541 
Q 3450 3153 3228 2886 
Q 3006 2619 2597 2516 
z
" transform="scale(0.015625)"/>
       </defs>
       <use xlink:href="#DejaVuSans-33"/>
       <use xlink:href="#DejaVuSans-30" x="63.623047"/>
       <use xlink:href="#DejaVuSans-30" x="127.246094"/>
       <use xlink:href="#DejaVuSans-30" x="190.869141"/>
      </g>
     </g>
    </g>
    <g id="ytick_4">
     <g id="line2d_16">
      <path d="M 208.733531 118.623471 
C 226.741148 118.623471 244.573663 122.170579 261.210531 129.061795 
C 277.847399 135.953011 292.965075 146.05432 305.698383 158.787627 
C 318.43169 171.520935 328.532999 186.638611 335.424215 203.275479 
C 342.315431 219.912347 345.862539 237.744862 345.862539 255.752479 
C 345.862539 273.760095 342.315431 291.59261 335.424215 308.229478 
C 328.532999 324.866346 318.43169 339.984022 305.698383 352.71733 
C 292.965075 365.450638 277.847399 375.551946 261.210531 382.443162 
C 244.573663 389.334379 226.741148 392.881486 208.733531 392.881486 
C 190.725915 392.881486 172.8934 389.334379 156.256532 382.443162 
C 139.619664 375.551946 124.501988 365.450638 111.76868 352.71733 
C 99.035372 339.984022 88.934064 324.866346 82.042848 308.229478 
C 75.151631 291.59261 71.604524 273.760095 71.604524 255.752479 
C 71.604524 237.744862 75.151631 219.912347 82.042848 203.275479 
C 88.934064 186.638611 99.035372 171.520935 111.76868 158.787627 
C 124.501988 146.05432 139.619664 135.953011 156.256532 129.061795 
C 172.8934 122.170579 190.725915 118.623471 208.733531 118.623471 
" clip-path="url(#p8b872b4033)" style="fill: none; stroke: #b0b0b0; stroke-width: 0.8; stroke-linecap: square"/>
     </g>
     <g id="text_16">
      <!-- 4000 -->
      <g transform="translate(208.733531 390.801799) scale(0.1 -0.1)">
       <defs>
        <path id="DejaVuSans-34" d="M 2419 4116 
L 825 1625 
L 2419 1625 
L 2419 4116 
z
M 2253 4666 
L 3047 4666 
L 3047 1625 
L 3713 1625 
L 3713 1100 
L 3047 1100 
L 3047 0 
L 2419 0 
L 2419 1100 
L 313 1100 
L 313 1709 
L 2253 4666 
z
" transform="scale(0.015625)"/>
       </defs>
       <use xlink:href="#DejaVuSans-34"/>
       <use xlink:href="#DejaVuSans-30" x="63.623047"/>
       <use xlink:href="#DejaVuSans-30" x="127.246094"/>
       <use xlink:href="#DejaVuSans-30" x="190.869141"/>
      </g>
     </g>
    </g>
    <g id="ytick_5">
     <g id="line2d_17">
      <path d="M 208.733531 84.341219 
C 231.243052 84.341219 253.533695 88.775104 274.329781 97.389124 
C 295.125866 106.003145 314.022961 118.62978 329.939595 134.546415 
C 345.85623 150.463049 358.482865 169.360144 367.096886 190.156229 
C 375.710906 210.952315 380.144791 233.242958 380.144791 255.752479 
C 380.144791 278.261999 375.710906 300.552643 367.096886 321.348728 
C 358.482865 342.144813 345.85623 361.041908 329.939595 376.958543 
C 314.022961 392.875177 295.125866 405.501813 274.329781 414.115833 
C 253.533695 422.729854 231.243052 427.163738 208.733531 427.163738 
C 186.224011 427.163738 163.933367 422.729854 143.137282 414.115833 
C 122.341197 405.501813 103.444102 392.875177 87.527467 376.958543 
C 71.610833 361.041908 58.984197 342.144813 50.370177 321.348728 
C 41.756156 300.552643 37.322272 278.261999 37.322272 255.752479 
C 37.322272 233.242958 41.756156 210.952315 50.370177 190.156229 
C 58.984197 169.360144 71.610833 150.463049 87.527467 134.546415 
C 103.444102 118.62978 122.341197 106.003145 143.137282 97.389124 
C 163.933367 88.775104 186.224011 84.341219 208.733531 84.341219 
" clip-path="url(#p8b872b4033)" style="fill: none; stroke: #b0b0b0; stroke-width: 0.8; stroke-linecap: square"/>
     </g>
     <g id="text_17">
      <!-- 5000 -->
      <g transform="translate(208.733531 425.084051) scale(0.1 -0.1)">
       <defs>
        <path id="DejaVuSans-35" d="M 691 4666 
L 3169 4666 
L 3169 4134 
L 1269 4134 
L 1269 2991 
Q 1406 3038 1543 3061 
Q 1681 3084 1819 3084 
Q 2600 3084 3056 2656 
Q 3513 2228 3513 1497 
Q 3513 744 3044 326 
Q 2575 -91 1722 -91 
Q 1428 -91 1123 -41 
Q 819 9 494 109 
L 494 744 
Q 775 591 1075 516 
Q 1375 441 1709 441 
Q 2250 441 2565 725 
Q 2881 1009 2881 1497 
Q 2881 1984 2565 2268 
Q 2250 2553 1709 2553 
Q 1456 2553 1204 2497 
Q 953 2441 691 2322 
L 691 4666 
z
" transform="scale(0.015625)"/>
       </defs>
       <use xlink:href="#DejaVuSans-35"/>
       <use xlink:href="#DejaVuSans-30" x="63.623047"/>
       <use xlink:href="#DejaVuSans-30" x="127.246094"/>
       <use xlink:href="#DejaVuSans-30" x="190.869141"/>
      </g>
     </g>
    </g>
   </g>
   <g id="line2d_18">
    <path d="M 208.733531 160.92777 
L 220.382397 159.815437 
L 231.213258 164.548641 
L 241.678064 168.884886 
L 251.876729 173.549984 
L 264.33334 175.20225 
L 272.295944 184.005346 
L 279.377257 193.167599 
L 285.277409 202.918055 
L 292.605575 211.733034 
L 297.524392 222.078547 
L 297.341055 233.912686 
L 300.280407 244.636675 
L 301.535587 255.752479 
L 296.945242 266.463319 
L 295.576893 277.157445 
L 292.395678 287.481346 
L 285.47205 296.02796 
L 282.597103 306.736821 
L 275.964393 315.313824 
L 266.908143 321.418041 
L 257.634098 326.59718 
L 248.546992 331.61069 
L 238.249887 333.580713 
L 228.768383 337.037066 
L 218.993955 340.254669 
L 208.733531 346.703293 
L 198.117733 343.181446 
L 185.687709 349.253055 
L 176.408988 340.985294 
L 168.888207 331.6714 
L 159.268203 327.415379 
L 153.650653 317.928195 
L 145.14648 312.08569 
L 133.177135 307.905293 
L 128.89876 297.652999 
L 127.667796 286.496657 
L 122.389461 277.034381 
L 124.231341 266.012902 
L 118.262668 255.752479 
L 119.739078 244.946596 
L 120.658585 234.043954 
L 126.609999 224.607131 
L 128.382717 213.581118 
L 133.96712 204.144951 
L 137.422629 192.576532 
L 145.603052 184.492898 
L 154.555364 177.261853 
L 163.041253 168.693115 
L 171.084374 156.479809 
L 183.06234 151.600359 
L 196.493751 154.948819 
L 208.733531 144.163749 
" clip-path="url(#p8b872b4033)" style="fill: none; stroke: #1f77b4; stroke-width: 0.1; stroke-linecap: square"/>
   </g>
   <g id="line2d_19">
    <path d="M 208.733531 144.163749 
L 222.636997 139.023736 
L 235.926562 143.220254 
L 248.758749 147.997597 
L 260.737045 154.433311 
L 271.397793 162.716775 
L 282.834414 169.768486 
L 294.254528 177.516351 
L 298.060924 191.65786 
L 305.46495 202.4245 
L 306.772686 215.991789 
L 309.662805 228.173503 
L 313.301254 240.142329 
L 306.018102 252.868346 
L 307.349581 264.543907 
L 305.78535 276.18114 
L 300.609495 286.813687 
L 291.493678 295.176875 
L 288.192203 305.914608 
L 281.169236 314.528338 
L 270.007912 318.870343 
L 264.068116 328.235883 
L 253.973702 332.353023 
L 245.771075 339.832796 
L 234.35517 339.655895 
L 224.179041 341.692437 
L 214.517541 353.216857 
L 203.479588 344.284904 
L 193.166738 342.36727 
L 183.222028 339.295231 
L 174.321784 333.871878 
L 164.382473 330.847578 
L 156.124071 324.666212 
L 148.581479 317.714248 
L 141.462298 310.337777 
L 135.971304 301.687154 
L 128.29463 294.071104 
L 123.222958 284.661691 
L 118.726608 274.698244 
L 115.102919 264.099465 
L 116.554773 253.019715 
L 116.779036 242.025266 
L 115.079631 230.161503 
L 119.017857 219.367453 
L 127.913861 211.196638 
L 136.341298 203.809256 
L 137.756922 190.821815 
L 147.836974 185.090309 
L 155.894076 177.303363 
L 164.212763 169.012047 
L 174.342642 163.166194 
L 187.861652 169.378914 
L 196.893893 156.350925 
L 208.733531 146.974893 
" clip-path="url(#p8b872b4033)" style="fill: none; stroke: #ff7f0e; stroke-width: 0.2; stroke-linecap: square"/>
   </g>
   <g id="line2d_20">
    <path d="M 208.733531 146.974893 
L 221.440258 151.103169 
L 233.855036 153.830526 
L 247.646981 153.146145 
L 258.169773 161.55959 
L 267.858231 170.095563 
L 277.547346 178.077739 
L 293.901176 180.30053 
L 298.594294 193.726073 
L 304.38348 205.551513 
L 306.884295 218.528804 
L 309.523757 230.909919 
L 312.089613 243.202778 
L 311.92311 255.752479 
L 302.900894 267.186467 
L 300.303515 278.322453 
L 296.626867 289.086024 
L 292.332376 299.628537 
L 292.020493 313.241317 
L 277.273085 316.473225 
L 270.409077 325.369779 
L 260.964244 331.42173 
L 249.948986 334.281967 
L 240.583965 339.73517 
L 230.040046 342.196408 
L 219.514621 344.542738 
L 208.733531 348.074583 
L 197.878061 345.15532 
L 186.147149 347.389035 
L 177.831317 337.234922 
L 168.904139 331.641045 
L 158.917661 327.923226 
L 150.354319 321.648987 
L 139.424159 317.155225 
L 135.63173 306.211009 
L 130.295109 296.920138 
L 121.385121 288.879361 
L 125.518351 276.263178 
L 118.037463 266.764975 
L 116.754249 255.752479 
L 108.882776 243.628402 
L 117.39655 233.239935 
L 114.236976 219.914662 
L 125.832861 212.242851 
L 126.57512 199.042622 
L 134.266371 189.780332 
L 142.624984 181.131355 
L 151.303117 172.550159 
L 160.269127 163.411271 
L 170.695361 155.454066 
L 183.529983 153.497665 
L 194.977208 142.458966 
L 208.733531 133.433404 
" clip-path="url(#p8b872b4033)" style="fill: none; stroke: #2ca02c; stroke-width: 0.3; stroke-linecap: square"/>
   </g>
   <g id="line2d_21">
    <path d="M 208.733531 133.433404 
L 223.762593 131.977019 
L 237.341855 139.683946 
L 252.813559 139.522998 
L 265.67363 147.262184 
L 275.842792 158.52793 
L 286.413347 168.070092 
L 294.132121 180.09593 
L 297.663241 194.368732 
L 301.439004 207.096893 
L 299.864368 221.191111 
L 301.202239 232.960989 
L 305.725574 243.975512 
L 303.489676 255.752479 
L 304.364282 267.364154 
L 299.038645 278.01069 
L 297.780828 289.523664 
L 292.787707 299.867513 
L 287.788431 310.320136 
L 280.608967 319.428558 
L 271.750344 326.883756 
L 261.334261 331.957791 
L 250.538461 335.405118 
L 240.863568 340.472423 
L 230.286175 343.19499 
L 219.853467 347.333386 
L 208.733531 348.211712 
L 198.320214 341.513864 
L 186.795287 344.759435 
L 177.478774 338.164501 
L 168.744822 331.944599 
L 156.989682 330.716386 
L 150.990853 320.930489 
L 143.427218 313.608824 
L 136.054937 305.918891 
L 130.720085 296.697094 
L 121.962102 288.660541 
L 118.361846 278.027099 
L 117.901334 266.781504 
L 118.194104 255.752479 
L 114.702298 244.33502 
L 118.661421 233.551697 
L 122.95579 223.221272 
L 125.984639 212.322509 
L 129.8197 201.282194 
L 133.907122 189.462065 
L 142.420384 180.900409 
L 152.530012 174.327624 
L 160.508103 163.866602 
L 169.613419 152.601219 
L 183.472554 153.264663 
L 195.563991 147.291552 
L 208.733531 141.14691 
" clip-path="url(#p8b872b4033)" style="fill: none; stroke: #d62728; stroke-width: 0.4; stroke-linecap: square"/>
   </g>
   <g id="line2d_22">
    <path d="M 208.733531 141.14691 
L 222.613822 141.437997 
L 236.332729 143.778132 
L 249.117936 149.267555 
L 262.9493 152.452962 
L 277.147586 156.637609 
L 291.937549 161.834558 
L 303.446932 171.843728 
L 319.811027 179.08122 
L 332.947937 190.55973 
L 328.392839 210.371689 
L 322.904758 227.611799 
L 318.487685 242.425912 
L 312.951577 255.752479 
L 306.065897 267.570768 
L 300.60309 278.396291 
L 294.094565 288.125648 
L 289.023635 297.891976 
L 283.246019 307.184736 
L 275.605144 314.995558 
L 269.522477 324.369014 
L 262.794851 334.073822 
L 251.414708 337.074666 
L 239.818096 337.715739 
L 230.072863 342.329552 
L 219.555943 344.883061 
L 208.733531 349.205897 
L 197.696241 346.652741 
L 186.549159 345.758017 
L 175.09607 344.447176 
L 164.761882 339.533456 
L 155.275922 333.199196 
L 149.513186 322.59843 
L 141.707955 315.131958 
L 137.43741 304.964638 
L 129.414802 297.382159 
L 127.347251 286.618223 
L 118.661421 277.95326 
L 116.982462 266.893075 
L 112.537532 255.752479 
L 114.804395 244.347417 
L 117.56298 233.280956 
L 123.116062 223.282056 
L 123.283006 210.904583 
L 129.791486 201.262719 
L 137.884521 192.985732 
L 143.738918 182.388726 
L 152.121047 173.735136 
L 161.448077 165.657573 
L 172.056906 159.044166 
L 183.784316 154.529534 
L 196.745819 157.024789 
L 208.733531 150.780223 
" clip-path="url(#p8b872b4033)" style="fill: none; stroke: #9467bd; stroke-width: 0.5; stroke-linecap: square"/>
   </g>
   <g id="line2d_23">
    <path d="M 208.733531 150.780223 
L 222.212992 144.73913 
L 234.593422 150.83478 
L 247.379535 153.851343 
L 258.743316 160.466795 
L 270.720988 165.948144 
L 282.707813 172.252775 
L 291.360773 182.55113 
L 295.208645 196.063017 
L 305.020944 205.216946 
L 312.109173 216.547269 
L 310.023048 230.786855 
L 311.272838 243.301953 
L 308.083497 255.752479 
L 307.495254 267.744323 
L 309.790046 280.660672 
L 303.486522 291.687548 
L 293.910858 300.456988 
L 286.942019 309.7359 
L 281.12218 319.883225 
L 274.046412 329.47548 
L 261.899022 332.775989 
L 252.290955 338.744215 
L 240.912195 340.600641 
L 230.819453 345.358584 
L 220.452646 352.268069 
L 208.733531 349.171615 
L 197.324337 349.715647 
L 187.517264 341.830261 
L 172.190629 352.108193 
L 165.223903 338.653149 
L 157.534969 329.926402 
L 149.331319 322.803715 
L 141.579652 315.245624 
L 130.214692 309.95012 
L 131.236127 296.426254 
L 124.045642 287.870359 
L 122.855466 276.919521 
L 115.110686 267.12035 
L 115.588653 255.752479 
L 109.631486 243.719312 
L 112.90293 232.132357 
L 116.833388 220.899351 
L 122.038433 210.251381 
L 123.669105 197.036744 
L 130.211991 186.188464 
L 140.01065 178.180382 
L 149.433561 169.84164 
L 160.651489 164.139801 
L 170.306348 154.428323 
L 182.045009 147.472886 
L 196.221021 152.702687 
L 208.733531 149.374651 
" clip-path="url(#p8b872b4033)" style="fill: none; stroke: #8c564b; stroke-width: 0.6; stroke-linecap: square"/>
   </g>
   <g id="line2d_24">
    <path d="M 208.733531 149.374651 
L 222.373443 141.236442 
L 234.155029 150.551343 
L 245.094048 157.863612 
L 258.263669 159.252224 
L 269.942266 164.877751 
L 280.30545 172.703005 
L 283.580212 187.281404 
L 295.024851 193.836317 
L 302.012401 204.327888 
L 310.966195 214.291072 
L 328.248078 223.095068 
L 359.888819 233.187613 
L 382.982225 250.586641 
L 378.853047 270.918301 
L 353.254525 286.173037 
L 335.716571 298.682604 
L 313.437187 305.63009 
L 295.381459 310.453174 
L 282.660011 315.737984 
L 274.879297 323.888286 
L 265.565894 330.19784 
L 255.490425 334.921133 
L 245.895455 340.115155 
L 235.726864 344.147793 
L 224.858231 345.471501 
L 214.091051 346.030228 
L 203.414599 345.38001 
L 193.403241 341.051346 
L 181.970483 343.393679 
L 171.889467 339.39357 
L 162.673981 333.740393 
L 141.978388 343.195804 
L 140.534142 326.003694 
L 135.925133 314.830749 
L 130.695318 305.017876 
L 123.868789 296.17944 
L 120.365027 285.627894 
L 111.748807 276.167018 
L 106.224743 264.890937 
L 105.178064 252.682437 
L 99.486708 239.443821 
L 94.708585 224.595104 
L 91.601204 208.248375 
L 100.983978 196.350208 
L 109.016641 184.203138 
L 124.376086 178.580788 
L 132.528908 167.327382 
L 141.128139 155.38083 
L 152.143314 145.496972 
L 162.071266 130.129505 
L 177.594813 126.891918 
L 192.068835 115.841387 
L 208.733531 113.652544 
" clip-path="url(#p8b872b4033)" style="fill: none; stroke: #e377c2; stroke-width: 0.7; stroke-linecap: square"/>
   </g>
   <g id="line2d_25">
    <path d="M 208.733531 113.652544 
L 224.642766 124.72814 
L 240.426665 127.168383 
L 253.883345 136.702205 
L 266.964103 144.803395 
L 277.887618 155.565487 
L 289.004948 165.14478 
L 290.975863 182.89213 
L 296.337195 195.284036 
L 307.206535 204.069859 
L 306.307315 218.747624 
L 310.122907 230.762242 
L 316.820103 242.628393 
L 317.236859 255.752479 
L 315.59494 268.727803 
L 313.384942 281.546735 
L 308.775508 293.693396 
L 300.042654 303.675203 
L 293.854386 314.507162 
L 285.458827 323.725159 
L 272.500545 327.730557 
L 267.351893 340.675837 
L 254.680718 343.297529 
L 243.623129 347.748786 
L 230.663572 344.726149 
L 220.270826 350.770648 
L 208.733531 353.011227 
L 196.861523 353.527264 
L 185.95845 348.154615 
L 173.284728 349.223291 
L 161.607395 345.54383 
L 153.406367 335.907715 
L 142.852318 330.116996 
L 133.624855 322.292959 
L 128.042234 311.44966 
L 114.844197 305.029403 
L 115.166556 291.237752 
L 112.536783 279.462848 
L 104.186319 268.446809 
L 103.418453 255.752479 
L 104.458577 243.091207 
L 99.721646 228.883462 
L 100.133013 214.565735 
L 101.943141 199.704558 
L 101.859883 181.982926 
L 105.962692 164.70546 
L 113.435378 148.183101 
L 123.142933 131.75309 
L 139.063959 123.008198 
L 159.462612 125.835743 
L 177.786988 130.197415 
L 193.52265 130.479598 
L 208.733531 138.061508 
" clip-path="url(#p8b872b4033)" style="fill: none; stroke: #7f7f7f; stroke-width: 0.8; stroke-linecap: square"/>
   </g>
   <g id="line2d_26">
    <path d="M 208.733531 138.061508 
L 221.779104 148.312521 
L 234.921593 149.503337 
L 247.634824 153.178199 
L 261.069353 156.034902 
L 272.14263 163.88854 
L 285.594947 168.993875 
L 294.747977 179.55033 
L 299.976767 192.77182 
L 311.577716 201.775686 
L 324.321923 211.915584 
L 329.595259 225.962738 
L 330.024633 241.025073 
L 331.2583 255.752479 
L 328.425115 270.285668 
L 316.413974 282.293324 
L 309.416598 293.936529 
L 303.746016 305.618878 
L 296.986111 316.668836 
L 287.20375 325.271026 
L 275.205812 330.784173 
L 266.475539 339.406218 
L 255.668487 345.179565 
L 245.349373 352.300519 
L 234.462153 360.1376 
L 221.551829 361.32066 
L 208.733531 357.673614 
L 195.977217 360.810176 
L 182.611104 361.735332 
L 170.610264 356.275273 
L 161.543668 345.665252 
L 150.582559 339.998707 
L 138.692117 334.812892 
L 130.699543 324.88456 
L 124.797654 313.689231 
L 119.579644 302.544049 
L 118.372002 290.022087 
L 108.342738 280.496587 
L 99.591959 269.004665 
L 95.327842 255.752479 
L 95.916471 242.054007 
L 96.526183 228.095851 
L 102.569152 215.48964 
L 110.533726 204.213245 
L 119.267761 193.998716 
L 126.311575 182.732997 
L 131.144649 168.172735 
L 141.87744 158.894708 
L 151.060571 145.865835 
L 160.094758 127.502575 
L 174.291964 116.017548 
L 191.6466 115.028936 
L 208.733531 117.457874 
" clip-path="url(#p8b872b4033)" style="fill: none; stroke-dasharray: 1,1.65; stroke-dashoffset: 0; stroke: #d62728"/>
   </g>
   <g id="line2d_27">
    <path d="M 208.733531 117.457874 
L 224.741941 123.911365 
L 238.94169 133.193162 
L 250.625361 145.292801 
L 266.454286 145.774768 
L 275.979114 158.330434 
L 289.391415 164.708549 
L 297.237058 177.345196 
L 307.707332 187.435797 
L 323.719887 195.402984 
L 326.629844 211.040305 
L 327.764525 226.413974 
L 323.830755 241.777145 
L 320.939342 255.752479 
L 313.07655 268.422015 
L 316.314116 282.268711 
L 301.851745 291.067559 
L 300.376564 303.850453 
L 293.318325 314.137146 
L 283.55994 322.042892 
L 276.297012 332.015883 
L 264.917576 337.149119 
L 257.978592 349.581102 
L 247.732078 358.583194 
L 233.518661 356.309702 
L 220.737772 354.616298 
L 208.733531 351.297115 
L 196.547471 356.113719 
L 185.925633 348.287759 
L 173.041595 349.86438 
L 164.331725 340.353052 
L 152.296318 337.515898 
L 142.193051 330.861155 
L 134.266371 321.724626 
L 127.929379 311.527558 
L 118.60827 303.053865 
L 115.006283 291.298535 
L 108.675599 280.414544 
L 103.60777 268.517057 
L 101.84147 255.752479 
L 103.233415 242.942445 
L 104.281837 230.007448 
L 99.299597 214.249662 
L 103.400201 200.469282 
L 109.449379 187.221577 
L 120.743217 177.799863 
L 133.577116 170.918422 
L 139.618393 155.621915 
L 151.283616 146.290811 
L 164.580564 139.330671 
L 176.67941 125.703795 
L 194.406955 137.762509 
L 208.733531 128.736735 
" clip-path="url(#p8b872b4033)" style="fill: none; stroke: #ff7f0e; stroke-width: 2; stroke-linecap: square"/>
   </g>
   <g id="line2d_28">
    <path d="M 208.733531 128.736735 
L 224.647616 132.087694 
L 242.045993 128.464086 
L 258.790465 131.849803 
L 276.210595 135.665715 
L 286.543758 151.227644 
L 294.485685 166.946135 
L 300.70267 182.151793 
L 312.126218 192.798466 
L 320.098653 206.161209 
L 320.624032 222.246212 
L 322.632352 237.023867 
L 326.866385 251.617353 
L 324.789552 266.576227 
L 322.759909 281.368113 
L 312.694556 293.578959 
L 309.666015 307.907823 
L 299.814995 318.726049 
L 285.732699 325.065451 
L 279.652438 338.278421 
L 267.35216 344.850873 
L 253.275819 347.04398 
L 241.08391 351.462838 
L 229.095548 357.262805 
" clip-path="url(#p8b872b4033)" style="fill: none; stroke: #2ca02c; stroke-width: 3; stroke-linecap: square"/>
   </g>
   <g id="patch_3">
    <path d="M 208.733531 76.86426 
C 185.242146 76.86426 161.979184 81.491551 140.275974 90.481315 
C 118.572763 99.471079 98.851377 112.648488 82.240459 129.259406 
C 65.629541 145.870324 52.452131 165.591711 43.462367 187.294921 
C 34.472603 208.998131 29.845313 232.261093 29.845313 255.752479 
C 29.845313 279.243864 34.472603 302.506826 43.462367 324.210036 
C 52.452131 345.913247 65.629541 365.634633 82.240459 382.245551 
C 98.851377 398.856469 118.572763 412.033879 140.275974 421.023643 
C 161.979184 430.013407 185.242146 434.640697 208.733531 434.640697 
C 232.224917 434.640697 255.487879 430.013407 277.191089 421.023643 
C 298.894299 412.033879 318.615686 398.856469 335.226604 382.245551 
C 351.837522 365.634633 365.014931 345.913247 374.004695 324.210036 
C 382.994459 302.506826 387.62175 279.243864 387.62175 255.752479 
C 387.62175 232.261093 382.994459 208.998131 374.004695 187.294921 
C 365.014931 165.591711 351.837522 145.870324 335.226604 129.259406 
C 318.615686 112.648488 298.894299 99.471079 277.191089 90.481315 
C 255.487879 81.491551 232.224917 76.86426 208.733531 76.86426 
" style="fill: none; stroke: #000000; stroke-width: 0.8; stroke-linejoin: miter; stroke-linecap: square"/>
   </g>
   <g id="text_18">
    <!-- Totaal mannen en vrouwen, Totaal leeftijd -->
    <g transform="translate(104.363219 35.086616) scale(0.1 -0.1)">
     <defs>
      <path id="DejaVuSans-54" d="M -19 4666 
L 3928 4666 
L 3928 4134 
L 2272 4134 
L 2272 0 
L 1638 0 
L 1638 4134 
L -19 4134 
L -19 4666 
z
" transform="scale(0.015625)"/>
      <path id="DejaVuSans-20" transform="scale(0.015625)"/>
      <path id="DejaVuSans-6d" d="M 3328 2828 
Q 3544 3216 3844 3400 
Q 4144 3584 4550 3584 
Q 5097 3584 5394 3201 
Q 5691 2819 5691 2113 
L 5691 0 
L 5113 0 
L 5113 2094 
Q 5113 2597 4934 2840 
Q 4756 3084 4391 3084 
Q 3944 3084 3684 2787 
Q 3425 2491 3425 1978 
L 3425 0 
L 2847 0 
L 2847 2094 
Q 2847 2600 2669 2842 
Q 2491 3084 2119 3084 
Q 1678 3084 1418 2786 
Q 1159 2488 1159 1978 
L 1159 0 
L 581 0 
L 581 3500 
L 1159 3500 
L 1159 2956 
Q 1356 3278 1631 3431 
Q 1906 3584 2284 3584 
Q 2666 3584 2933 3390 
Q 3200 3197 3328 2828 
z
" transform="scale(0.015625)"/>
      <path id="DejaVuSans-77" d="M 269 3500 
L 844 3500 
L 1563 769 
L 2278 3500 
L 2956 3500 
L 3675 769 
L 4391 3500 
L 4966 3500 
L 4050 0 
L 3372 0 
L 2619 2869 
L 1863 0 
L 1184 0 
L 269 3500 
z
" transform="scale(0.015625)"/>
      <path id="DejaVuSans-2c" d="M 750 794 
L 1409 794 
L 1409 256 
L 897 -744 
L 494 -744 
L 750 256 
L 750 794 
z
" transform="scale(0.015625)"/>
      <path id="DejaVuSans-66" d="M 2375 4863 
L 2375 4384 
L 1825 4384 
Q 1516 4384 1395 4259 
Q 1275 4134 1275 3809 
L 1275 3500 
L 2222 3500 
L 2222 3053 
L 1275 3053 
L 1275 0 
L 697 0 
L 697 3053 
L 147 3053 
L 147 3500 
L 697 3500 
L 697 3744 
Q 697 4328 969 4595 
Q 1241 4863 1831 4863 
L 2375 4863 
z
" transform="scale(0.015625)"/>
      <path id="DejaVuSans-69" d="M 603 3500 
L 1178 3500 
L 1178 0 
L 603 0 
L 603 3500 
z
M 603 4863 
L 1178 4863 
L 1178 4134 
L 603 4134 
L 603 4863 
z
" transform="scale(0.015625)"/>
      <path id="DejaVuSans-6a" d="M 603 3500 
L 1178 3500 
L 1178 -63 
Q 1178 -731 923 -1031 
Q 669 -1331 103 -1331 
L -116 -1331 
L -116 -844 
L 38 -844 
Q 366 -844 484 -692 
Q 603 -541 603 -63 
L 603 3500 
z
M 603 4863 
L 1178 4863 
L 1178 4134 
L 603 4134 
L 603 4863 
z
" transform="scale(0.015625)"/>
      <path id="DejaVuSans-64" d="M 2906 2969 
L 2906 4863 
L 3481 4863 
L 3481 0 
L 2906 0 
L 2906 525 
Q 2725 213 2448 61 
Q 2172 -91 1784 -91 
Q 1150 -91 751 415 
Q 353 922 353 1747 
Q 353 2572 751 3078 
Q 1150 3584 1784 3584 
Q 2172 3584 2448 3432 
Q 2725 3281 2906 2969 
z
M 947 1747 
Q 947 1113 1208 752 
Q 1469 391 1925 391 
Q 2381 391 2643 752 
Q 2906 1113 2906 1747 
Q 2906 2381 2643 2742 
Q 2381 3103 1925 3103 
Q 1469 3103 1208 2742 
Q 947 2381 947 1747 
z
" transform="scale(0.015625)"/>
     </defs>
     <use xlink:href="#DejaVuSans-54"/>
     <use xlink:href="#DejaVuSans-6f" x="44.083984"/>
     <use xlink:href="#DejaVuSans-74" x="105.265625"/>
     <use xlink:href="#DejaVuSans-61" x="144.474609"/>
     <use xlink:href="#DejaVuSans-61" x="205.753906"/>
     <use xlink:href="#DejaVuSans-6c" x="267.033203"/>
     <use xlink:href="#DejaVuSans-20" x="294.816406"/>
     <use xlink:href="#DejaVuSans-6d" x="326.603516"/>
     <use xlink:href="#DejaVuSans-61" x="424.015625"/>
     <use xlink:href="#DejaVuSans-6e" x="485.294922"/>
     <use xlink:href="#DejaVuSans-6e" x="548.673828"/>
     <use xlink:href="#DejaVuSans-65" x="612.052734"/>
     <use xlink:href="#DejaVuSans-6e" x="673.576172"/>
     <use xlink:href="#DejaVuSans-20" x="736.955078"/>
     <use xlink:href="#DejaVuSans-65" x="768.742188"/>
     <use xlink:href="#DejaVuSans-6e" x="830.265625"/>
     <use xlink:href="#DejaVuSans-20" x="893.644531"/>
     <use xlink:href="#DejaVuSans-76" x="925.431641"/>
     <use xlink:href="#DejaVuSans-72" x="984.611328"/>
     <use xlink:href="#DejaVuSans-6f" x="1023.474609"/>
     <use xlink:href="#DejaVuSans-75" x="1084.65625"/>
     <use xlink:href="#DejaVuSans-77" x="1148.035156"/>
     <use xlink:href="#DejaVuSans-65" x="1229.822266"/>
     <use xlink:href="#DejaVuSans-6e" x="1291.345703"/>
     <use xlink:href="#DejaVuSans-2c" x="1354.724609"/>
     <use xlink:href="#DejaVuSans-20" x="1386.511719"/>
     <use xlink:href="#DejaVuSans-54" x="1418.298828"/>
     <use xlink:href="#DejaVuSans-6f" x="1462.382812"/>
     <use xlink:href="#DejaVuSans-74" x="1523.564453"/>
     <use xlink:href="#DejaVuSans-61" x="1562.773438"/>
     <use xlink:href="#DejaVuSans-61" x="1624.052734"/>
     <use xlink:href="#DejaVuSans-6c" x="1685.332031"/>
     <use xlink:href="#DejaVuSans-20" x="1713.115234"/>
     <use xlink:href="#DejaVuSans-6c" x="1744.902344"/>
     <use xlink:href="#DejaVuSans-65" x="1772.685547"/>
     <use xlink:href="#DejaVuSans-65" x="1834.208984"/>
     <use xlink:href="#DejaVuSans-66" x="1895.732422"/>
     <use xlink:href="#DejaVuSans-74" x="1929.1875"/>
     <use xlink:href="#DejaVuSans-69" x="1968.396484"/>
     <use xlink:href="#DejaVuSans-6a" x="1996.179688"/>
     <use xlink:href="#DejaVuSans-64" x="2023.962891"/>
    </g>
   </g>
  </g>
  <g id="text_19">
   <!-- Deaths in the Netherlands per week -->
   <g transform="translate(82.235875 17.837812) scale(0.14 -0.14)">
    <defs>
     <path id="DejaVuSans-68" d="M 3513 2113 
L 3513 0 
L 2938 0 
L 2938 2094 
Q 2938 2591 2744 2837 
Q 2550 3084 2163 3084 
Q 1697 3084 1428 2787 
Q 1159 2491 1159 1978 
L 1159 0 
L 581 0 
L 581 4863 
L 1159 4863 
L 1159 2956 
Q 1366 3272 1645 3428 
Q 1925 3584 2291 3584 
Q 2894 3584 3203 3211 
Q 3513 2838 3513 2113 
z
" transform="scale(0.015625)"/>
     <path id="DejaVuSans-73" d="M 2834 3397 
L 2834 2853 
Q 2591 2978 2328 3040 
Q 2066 3103 1784 3103 
Q 1356 3103 1142 2972 
Q 928 2841 928 2578 
Q 928 2378 1081 2264 
Q 1234 2150 1697 2047 
L 1894 2003 
Q 2506 1872 2764 1633 
Q 3022 1394 3022 966 
Q 3022 478 2636 193 
Q 2250 -91 1575 -91 
Q 1294 -91 989 -36 
Q 684 19 347 128 
L 347 722 
Q 666 556 975 473 
Q 1284 391 1588 391 
Q 1994 391 2212 530 
Q 2431 669 2431 922 
Q 2431 1156 2273 1281 
Q 2116 1406 1581 1522 
L 1381 1569 
Q 847 1681 609 1914 
Q 372 2147 372 2553 
Q 372 3047 722 3315 
Q 1072 3584 1716 3584 
Q 2034 3584 2315 3537 
Q 2597 3491 2834 3397 
z
" transform="scale(0.015625)"/>
     <path id="DejaVuSans-6b" d="M 581 4863 
L 1159 4863 
L 1159 1991 
L 2875 3500 
L 3609 3500 
L 1753 1863 
L 3688 0 
L 2938 0 
L 1159 1709 
L 1159 0 
L 581 0 
L 581 4863 
z
" transform="scale(0.015625)"/>
    </defs>
    <use xlink:href="#DejaVuSans-44"/>
    <use xlink:href="#DejaVuSans-65" x="77.001953"/>
    <use xlink:href="#DejaVuSans-61" x="138.525391"/>
    <use xlink:href="#DejaVuSans-74" x="199.804688"/>
    <use xlink:href="#DejaVuSans-68" x="239.013672"/>
    <use xlink:href="#DejaVuSans-73" x="302.392578"/>
    <use xlink:href="#DejaVuSans-20" x="354.492188"/>
    <use xlink:href="#DejaVuSans-69" x="386.279297"/>
    <use xlink:href="#DejaVuSans-6e" x="414.0625"/>
    <use xlink:href="#DejaVuSans-20" x="477.441406"/>
    <use xlink:href="#DejaVuSans-74" x="509.228516"/>
    <use xlink:href="#DejaVuSans-68" x="548.4375"/>
    <use xlink:href="#DejaVuSans-65" x="611.816406"/>
    <use xlink:href="#DejaVuSans-20" x="673.339844"/>
    <use xlink:href="#DejaVuSans-4e" x="705.126953"/>
    <use xlink:href="#DejaVuSans-65" x="779.931641"/>
    <use xlink:href="#DejaVuSans-74" x="841.455078"/>
    <use xlink:href="#DejaVuSans-68" x="880.664062"/>
    <use xlink:href="#DejaVuSans-65" x="944.042969"/>
    <use xlink:href="#DejaVuSans-72" x="1005.566406"/>
    <use xlink:href="#DejaVuSans-6c" x="1046.679688"/>
    <use xlink:href="#DejaVuSans-61" x="1074.462891"/>
    <use xlink:href="#DejaVuSans-6e" x="1135.742188"/>
    <use xlink:href="#DejaVuSans-64" x="1199.121094"/>
    <use xlink:href="#DejaVuSans-73" x="1262.597656"/>
    <use xlink:href="#DejaVuSans-20" x="1314.697266"/>
    <use xlink:href="#DejaVuSans-70" x="1346.484375"/>
    <use xlink:href="#DejaVuSans-65" x="1409.960938"/>
    <use xlink:href="#DejaVuSans-72" x="1471.484375"/>
    <use xlink:href="#DejaVuSans-20" x="1512.597656"/>
    <use xlink:href="#DejaVuSans-77" x="1544.384766"/>
    <use xlink:href="#DejaVuSans-65" x="1626.171875"/>
    <use xlink:href="#DejaVuSans-65" x="1687.695312"/>
    <use xlink:href="#DejaVuSans-6b" x="1749.21875"/>
   </g>
  </g>
  <g id="legend_1">
   <g id="patch_4">
    <path d="M 434.483531 455.67976 
L 491.933531 455.67976 
Q 493.933531 455.67976 493.933531 453.67976 
L 493.933531 293.220385 
Q 493.933531 291.220385 491.933531 291.220385 
L 434.483531 291.220385 
Q 432.483531 291.220385 432.483531 293.220385 
L 432.483531 453.67976 
Q 432.483531 455.67976 434.483531 455.67976 
z
" style="fill: #ffffff; opacity: 0.8; stroke: #cccccc; stroke-linejoin: miter"/>
   </g>
   <g id="line2d_29">
    <path d="M 436.483531 299.318823 
L 446.483531 299.318823 
L 456.483531 299.318823 
" style="fill: none; stroke: #1f77b4; stroke-width: 0.1; stroke-linecap: square"/>
   </g>
   <g id="text_20">
    <!-- 2014 -->
    <g transform="translate(464.483531 302.818823) scale(0.1 -0.1)">
     <use xlink:href="#DejaVuSans-32"/>
     <use xlink:href="#DejaVuSans-30" x="63.623047"/>
     <use xlink:href="#DejaVuSans-31" x="127.246094"/>
     <use xlink:href="#DejaVuSans-34" x="190.869141"/>
    </g>
   </g>
   <g id="line2d_30">
    <path d="M 436.483531 313.996948 
L 446.483531 313.996948 
L 456.483531 313.996948 
" style="fill: none; stroke: #ff7f0e; stroke-width: 0.2; stroke-linecap: square"/>
   </g>
   <g id="text_21">
    <!-- 2015 -->
    <g transform="translate(464.483531 317.496948) scale(0.1 -0.1)">
     <use xlink:href="#DejaVuSans-32"/>
     <use xlink:href="#DejaVuSans-30" x="63.623047"/>
     <use xlink:href="#DejaVuSans-31" x="127.246094"/>
     <use xlink:href="#DejaVuSans-35" x="190.869141"/>
    </g>
   </g>
   <g id="line2d_31">
    <path d="M 436.483531 328.675073 
L 446.483531 328.675073 
L 456.483531 328.675073 
" style="fill: none; stroke: #2ca02c; stroke-width: 0.3; stroke-linecap: square"/>
   </g>
   <g id="text_22">
    <!-- 2016 -->
    <g transform="translate(464.483531 332.175073) scale(0.1 -0.1)">
     <defs>
      <path id="DejaVuSans-36" d="M 2113 2584 
Q 1688 2584 1439 2293 
Q 1191 2003 1191 1497 
Q 1191 994 1439 701 
Q 1688 409 2113 409 
Q 2538 409 2786 701 
Q 3034 994 3034 1497 
Q 3034 2003 2786 2293 
Q 2538 2584 2113 2584 
z
M 3366 4563 
L 3366 3988 
Q 3128 4100 2886 4159 
Q 2644 4219 2406 4219 
Q 1781 4219 1451 3797 
Q 1122 3375 1075 2522 
Q 1259 2794 1537 2939 
Q 1816 3084 2150 3084 
Q 2853 3084 3261 2657 
Q 3669 2231 3669 1497 
Q 3669 778 3244 343 
Q 2819 -91 2113 -91 
Q 1303 -91 875 529 
Q 447 1150 447 2328 
Q 447 3434 972 4092 
Q 1497 4750 2381 4750 
Q 2619 4750 2861 4703 
Q 3103 4656 3366 4563 
z
" transform="scale(0.015625)"/>
     </defs>
     <use xlink:href="#DejaVuSans-32"/>
     <use xlink:href="#DejaVuSans-30" x="63.623047"/>
     <use xlink:href="#DejaVuSans-31" x="127.246094"/>
     <use xlink:href="#DejaVuSans-36" x="190.869141"/>
    </g>
   </g>
   <g id="line2d_32">
    <path d="M 436.483531 343.353198 
L 446.483531 343.353198 
L 456.483531 343.353198 
" style="fill: none; stroke: #d62728; stroke-width: 0.4; stroke-linecap: square"/>
   </g>
   <g id="text_23">
    <!-- 2017 -->
    <g transform="translate(464.483531 346.853198) scale(0.1 -0.1)">
     <defs>
      <path id="DejaVuSans-37" d="M 525 4666 
L 3525 4666 
L 3525 4397 
L 1831 0 
L 1172 0 
L 2766 4134 
L 525 4134 
L 525 4666 
z
" transform="scale(0.015625)"/>
     </defs>
     <use xlink:href="#DejaVuSans-32"/>
     <use xlink:href="#DejaVuSans-30" x="63.623047"/>
     <use xlink:href="#DejaVuSans-31" x="127.246094"/>
     <use xlink:href="#DejaVuSans-37" x="190.869141"/>
    </g>
   </g>
   <g id="line2d_33">
    <path d="M 436.483531 358.031323 
L 446.483531 358.031323 
L 456.483531 358.031323 
" style="fill: none; stroke: #9467bd; stroke-width: 0.5; stroke-linecap: square"/>
   </g>
   <g id="text_24">
    <!-- 2018 -->
    <g transform="translate(464.483531 361.531323) scale(0.1 -0.1)">
     <defs>
      <path id="DejaVuSans-38" d="M 2034 2216 
Q 1584 2216 1326 1975 
Q 1069 1734 1069 1313 
Q 1069 891 1326 650 
Q 1584 409 2034 409 
Q 2484 409 2743 651 
Q 3003 894 3003 1313 
Q 3003 1734 2745 1975 
Q 2488 2216 2034 2216 
z
M 1403 2484 
Q 997 2584 770 2862 
Q 544 3141 544 3541 
Q 544 4100 942 4425 
Q 1341 4750 2034 4750 
Q 2731 4750 3128 4425 
Q 3525 4100 3525 3541 
Q 3525 3141 3298 2862 
Q 3072 2584 2669 2484 
Q 3125 2378 3379 2068 
Q 3634 1759 3634 1313 
Q 3634 634 3220 271 
Q 2806 -91 2034 -91 
Q 1263 -91 848 271 
Q 434 634 434 1313 
Q 434 1759 690 2068 
Q 947 2378 1403 2484 
z
M 1172 3481 
Q 1172 3119 1398 2916 
Q 1625 2713 2034 2713 
Q 2441 2713 2670 2916 
Q 2900 3119 2900 3481 
Q 2900 3844 2670 4047 
Q 2441 4250 2034 4250 
Q 1625 4250 1398 4047 
Q 1172 3844 1172 3481 
z
" transform="scale(0.015625)"/>
     </defs>
     <use xlink:href="#DejaVuSans-32"/>
     <use xlink:href="#DejaVuSans-30" x="63.623047"/>
     <use xlink:href="#DejaVuSans-31" x="127.246094"/>
     <use xlink:href="#DejaVuSans-38" x="190.869141"/>
    </g>
   </g>
   <g id="line2d_34">
    <path d="M 436.483531 372.709448 
L 446.483531 372.709448 
L 456.483531 372.709448 
" style="fill: none; stroke: #8c564b; stroke-width: 0.6; stroke-linecap: square"/>
   </g>
   <g id="text_25">
    <!-- 2019 -->
    <g transform="translate(464.483531 376.209448) scale(0.1 -0.1)">
     <defs>
      <path id="DejaVuSans-39" d="M 703 97 
L 703 672 
Q 941 559 1184 500 
Q 1428 441 1663 441 
Q 2288 441 2617 861 
Q 2947 1281 2994 2138 
Q 2813 1869 2534 1725 
Q 2256 1581 1919 1581 
Q 1219 1581 811 2004 
Q 403 2428 403 3163 
Q 403 3881 828 4315 
Q 1253 4750 1959 4750 
Q 2769 4750 3195 4129 
Q 3622 3509 3622 2328 
Q 3622 1225 3098 567 
Q 2575 -91 1691 -91 
Q 1453 -91 1209 -44 
Q 966 3 703 97 
z
M 1959 2075 
Q 2384 2075 2632 2365 
Q 2881 2656 2881 3163 
Q 2881 3666 2632 3958 
Q 2384 4250 1959 4250 
Q 1534 4250 1286 3958 
Q 1038 3666 1038 3163 
Q 1038 2656 1286 2365 
Q 1534 2075 1959 2075 
z
" transform="scale(0.015625)"/>
     </defs>
     <use xlink:href="#DejaVuSans-32"/>
     <use xlink:href="#DejaVuSans-30" x="63.623047"/>
     <use xlink:href="#DejaVuSans-31" x="127.246094"/>
     <use xlink:href="#DejaVuSans-39" x="190.869141"/>
    </g>
   </g>
   <g id="line2d_35">
    <path d="M 436.483531 387.387573 
L 446.483531 387.387573 
L 456.483531 387.387573 
" style="fill: none; stroke: #e377c2; stroke-width: 0.7; stroke-linecap: square"/>
   </g>
   <g id="text_26">
    <!-- 2020 -->
    <g transform="translate(464.483531 390.887573) scale(0.1 -0.1)">
     <use xlink:href="#DejaVuSans-32"/>
     <use xlink:href="#DejaVuSans-30" x="63.623047"/>
     <use xlink:href="#DejaVuSans-32" x="127.246094"/>
     <use xlink:href="#DejaVuSans-30" x="190.869141"/>
    </g>
   </g>
   <g id="line2d_36">
    <path d="M 436.483531 402.065698 
L 446.483531 402.065698 
L 456.483531 402.065698 
" style="fill: none; stroke: #7f7f7f; stroke-width: 0.8; stroke-linecap: square"/>
   </g>
   <g id="text_27">
    <!-- 2021 -->
    <g transform="translate(464.483531 405.565698) scale(0.1 -0.1)">
     <use xlink:href="#DejaVuSans-32"/>
     <use xlink:href="#DejaVuSans-30" x="63.623047"/>
     <use xlink:href="#DejaVuSans-32" x="127.246094"/>
     <use xlink:href="#DejaVuSans-31" x="190.869141"/>
    </g>
   </g>
   <g id="line2d_37">
    <path d="M 436.483531 416.743823 
L 446.483531 416.743823 
L 456.483531 416.743823 
" style="fill: none; stroke-dasharray: 1,1.65; stroke-dashoffset: 0; stroke: #d62728"/>
   </g>
   <g id="text_28">
    <!-- 2022 -->
    <g transform="translate(464.483531 420.243823) scale(0.1 -0.1)">
     <use xlink:href="#DejaVuSans-32"/>
     <use xlink:href="#DejaVuSans-30" x="63.623047"/>
     <use xlink:href="#DejaVuSans-32" x="127.246094"/>
     <use xlink:href="#DejaVuSans-32" x="190.869141"/>
    </g>
   </g>
   <g id="line2d_38">
    <path d="M 436.483531 431.421948 
L 446.483531 431.421948 
L 456.483531 431.421948 
" style="fill: none; stroke: #ff7f0e; stroke-width: 2; stroke-linecap: square"/>
   </g>
   <g id="text_29">
    <!-- 2023 -->
    <g transform="translate(464.483531 434.921948) scale(0.1 -0.1)">
     <use xlink:href="#DejaVuSans-32"/>
     <use xlink:href="#DejaVuSans-30" x="63.623047"/>
     <use xlink:href="#DejaVuSans-32" x="127.246094"/>
     <use xlink:href="#DejaVuSans-33" x="190.869141"/>
    </g>
   </g>
   <g id="line2d_39">
    <path d="M 436.483531 446.100073 
L 446.483531 446.100073 
L 456.483531 446.100073 
" style="fill: none; stroke: #2ca02c; stroke-width: 3; stroke-linecap: square"/>
   </g>
   <g id="text_30">
    <!-- 2024 -->
    <g transform="translate(464.483531 449.600073) scale(0.1 -0.1)">
     <use xlink:href="#DejaVuSans-32"/>
     <use xlink:href="#DejaVuSans-30" x="63.623047"/>
     <use xlink:href="#DejaVuSans-32" x="127.246094"/>
     <use xlink:href="#DejaVuSans-34" x="190.869141"/>
    </g>
   </g>
  </g>
 </g>
 <defs>
  <clipPath id="p8b872b4033">
   <path d="M 387.62175 255.752479 
C 387.62175 232.261093 382.994459 208.998131 374.004695 187.294921 
C 365.014931 165.591711 351.837522 145.870324 335.226604 129.259406 
C 318.615686 112.648488 298.894299 99.471079 277.191089 90.481315 
C 255.487879 81.491551 232.224917 76.86426 208.733531 76.86426 
C 185.242146 76.86426 161.979184 81.491551 140.275974 90.481315 
C 118.572763 99.471079 98.851377 112.648488 82.240459 129.259406 
C 65.629541 145.870324 52.452131 165.591711 43.462367 187.294921 
C 34.472603 208.998131 29.845313 232.261093 29.845313 255.752479 
C 29.845313 279.243864 34.472603 302.506826 43.462367 324.210036 
C 52.452131 345.913247 65.629541 365.634633 82.240459 382.245551 
C 98.851377 398.856469 118.572763 412.033879 140.275974 421.023643 
C 161.979184 430.013407 185.242146 434.640697 208.733531 434.640697 
C 232.224917 434.640697 255.487879 430.013407 277.191089 421.023643 
C 298.894299 412.033879 318.615686 398.856469 335.226604 382.245551 
C 351.837522 365.634633 365.014931 345.913247 374.004695 324.210036 
C 382.994459 302.506826 387.62175 279.243864 387.62175 255.752479 
M 208.733531 255.752479 
C 208.733531 255.752479 208.733531 255.752479 208.733531 255.752479 
C 208.733531 255.752479 208.733531 255.752479 208.733531 255.752479 
C 208.733531 255.752479 208.733531 255.752479 208.733531 255.752479 
C 208.733531 255.752479 208.733531 255.752479 208.733531 255.752479 
C 208.733531 255.752479 208.733531 255.752479 208.733531 255.752479 
C 208.733531 255.752479 208.733531 255.752479 208.733531 255.752479 
C 208.733531 255.752479 208.733531 255.752479 208.733531 255.752479 
C 208.733531 255.752479 208.733531 255.752479 208.733531 255.752479 
C 208.733531 255.752479 208.733531 255.752479 208.733531 255.752479 
C 208.733531 255.752479 208.733531 255.752479 208.733531 255.752479 
C 208.733531 255.752479 208.733531 255.752479 208.733531 255.752479 
C 208.733531 255.752479 208.733531 255.752479 208.733531 255.752479 
C 208.733531 255.752479 208.733531 255.752479 208.733531 255.752479 
C 208.733531 255.752479 208.733531 255.752479 208.733531 255.752479 
C 208.733531 255.752479 208.733531 255.752479 208.733531 255.752479 
C 208.733531 255.752479 208.733531 255.752479 208.733531 255.752479 
z
"/>
  </clipPath>
 </defs>
</svg>
