<?xml version="1.0" encoding="utf-8" standalone="no"?>
<!DOCTYPE svg PUBLIC "-//W3C//DTD SVG 1.1//EN"
  "http://www.w3.org/Graphics/SVG/1.1/DTD/svg11.dtd">
<svg height="446.872pt" version="1.1" viewBox="0 0 415.229312 446.872" width="415.229312pt" xmlns="http://www.w3.org/2000/svg" xmlns:xlink="http://www.w3.org/1999/xlink">
 <metadata>
  <rdf:RDF xmlns:cc="http://creativecommons.org/ns#" xmlns:dc="http://purl.org/dc/elements/1.1/" xmlns:rdf="http://www.w3.org/1999/02/22-rdf-syntax-ns#">
   <cc:Work>
    <dc:type rdf:resource="http://purl.org/dc/dcmitype/StillImage"/>
    <dc:date>2021-11-08T15:47:46.337959</dc:date>
    <dc:format>image/svg+xml</dc:format>
    <dc:creator>
     <cc:Agent>
      <dc:title>Matplotlib v3.4.2, https://matplotlib.org/</dc:title>
     </cc:Agent>
    </dc:creator>
   </cc:Work>
  </rdf:RDF>
 </metadata>
 <defs>
  <style type="text/css">*{stroke-linecap:butt;stroke-linejoin:round;}</style>
 </defs>
 <g id="figure_1">
  <g id="patch_1">
   <path d="M 0 446.872 
L 415.229312 446.872 
L 415.229312 0 
L 0 0 
z
" style="fill:#ffffff;"/>
  </g>
  <g id="axes_1">
   <g id="patch_2">
    <path d="M 364.645312 242.676 
C 364.645312 220.693233 360.315187 198.924222 351.902746 178.614793 
C 343.490306 158.305365 331.159151 139.850488 315.614988 124.306325 
C 300.070824 108.762162 281.615947 96.431007 261.306519 88.018566 
C 240.997091 79.606126 219.228079 75.276 197.245312 75.276 
C 175.262546 75.276 153.493534 79.606126 133.184106 88.018566 
C 112.874678 96.431007 94.419801 108.762162 78.875637 124.306325 
C 63.331474 139.850488 51.000319 158.305365 42.587879 178.614793 
C 34.175438 198.924222 29.845312 220.693233 29.845312 242.676 
C 29.845312 264.658767 34.175438 286.427778 42.587879 306.737207 
C 51.000319 327.046635 63.331474 345.501512 78.875637 361.045675 
C 94.419801 376.589838 112.874678 388.920993 133.184106 397.333434 
C 153.493534 405.745874 175.262546 410.076 197.245312 410.076 
C 219.228079 410.076 240.997091 405.745874 261.306519 397.333434 
C 281.615947 388.920993 300.070824 376.589838 315.614988 361.045675 
C 331.159151 345.501512 343.490306 327.046635 351.902746 306.737207 
C 360.315187 286.427778 364.645312 264.658767 364.645312 242.676 
M 197.245312 242.676 
C 197.245312 242.676 197.245312 242.676 197.245312 242.676 
C 197.245312 242.676 197.245312 242.676 197.245312 242.676 
C 197.245312 242.676 197.245312 242.676 197.245312 242.676 
C 197.245312 242.676 197.245312 242.676 197.245312 242.676 
C 197.245312 242.676 197.245312 242.676 197.245312 242.676 
C 197.245312 242.676 197.245312 242.676 197.245312 242.676 
C 197.245312 242.676 197.245312 242.676 197.245312 242.676 
C 197.245312 242.676 197.245312 242.676 197.245312 242.676 
C 197.245312 242.676 197.245312 242.676 197.245312 242.676 
C 197.245312 242.676 197.245312 242.676 197.245312 242.676 
C 197.245312 242.676 197.245312 242.676 197.245312 242.676 
C 197.245312 242.676 197.245312 242.676 197.245312 242.676 
C 197.245312 242.676 197.245312 242.676 197.245312 242.676 
C 197.245312 242.676 197.245312 242.676 197.245312 242.676 
C 197.245312 242.676 197.245312 242.676 197.245312 242.676 
C 197.245312 242.676 197.245312 242.676 197.245312 242.676 
M 364.645312 242.676 
z
" style="fill:#ffffff;"/>
   </g>
   <g id="matplotlib.axis_1">
    <g id="xtick_1">
     <g id="line2d_1">
      <path clip-path="url(#p453b949695)" d="M 197.245312 242.676 
L 197.245312 75.276 
" style="fill:none;stroke:#b0b0b0;stroke-linecap:square;stroke-width:0.8;"/>
     </g>
     <g id="text_1">
      <!-- Jan -->
      <g transform="translate(189.5375 64.035375)scale(0.1 -0.1)">
       <defs>
        <path d="M 628 4666 
L 1259 4666 
L 1259 325 
Q 1259 -519 939 -900 
Q 619 -1281 -91 -1281 
L -331 -1281 
L -331 -750 
L -134 -750 
Q 284 -750 456 -515 
Q 628 -281 628 325 
L 628 4666 
z
" id="DejaVuSans-4a" transform="scale(0.015625)"/>
        <path d="M 2194 1759 
Q 1497 1759 1228 1600 
Q 959 1441 959 1056 
Q 959 750 1161 570 
Q 1363 391 1709 391 
Q 2188 391 2477 730 
Q 2766 1069 2766 1631 
L 2766 1759 
L 2194 1759 
z
M 3341 1997 
L 3341 0 
L 2766 0 
L 2766 531 
Q 2569 213 2275 61 
Q 1981 -91 1556 -91 
Q 1019 -91 701 211 
Q 384 513 384 1019 
Q 384 1609 779 1909 
Q 1175 2209 1959 2209 
L 2766 2209 
L 2766 2266 
Q 2766 2663 2505 2880 
Q 2244 3097 1772 3097 
Q 1472 3097 1187 3025 
Q 903 2953 641 2809 
L 641 3341 
Q 956 3463 1253 3523 
Q 1550 3584 1831 3584 
Q 2591 3584 2966 3190 
Q 3341 2797 3341 1997 
z
" id="DejaVuSans-61" transform="scale(0.015625)"/>
        <path d="M 3513 2113 
L 3513 0 
L 2938 0 
L 2938 2094 
Q 2938 2591 2744 2837 
Q 2550 3084 2163 3084 
Q 1697 3084 1428 2787 
Q 1159 2491 1159 1978 
L 1159 0 
L 581 0 
L 581 3500 
L 1159 3500 
L 1159 2956 
Q 1366 3272 1645 3428 
Q 1925 3584 2291 3584 
Q 2894 3584 3203 3211 
Q 3513 2838 3513 2113 
z
" id="DejaVuSans-6e" transform="scale(0.015625)"/>
       </defs>
       <use xlink:href="#DejaVuSans-4a"/>
       <use x="29.492188" xlink:href="#DejaVuSans-61"/>
       <use x="90.771484" xlink:href="#DejaVuSans-6e"/>
      </g>
     </g>
    </g>
    <g id="xtick_2">
     <g id="line2d_2">
      <path clip-path="url(#p453b949695)" d="M 197.245312 242.676 
L 280.945312 97.703347 
" style="fill:none;stroke:#b0b0b0;stroke-linecap:square;stroke-width:0.8;"/>
     </g>
     <g id="text_2">
      <!-- Feb -->
      <g transform="translate(279.09375 88.338367)scale(0.1 -0.1)">
       <defs>
        <path d="M 628 4666 
L 3309 4666 
L 3309 4134 
L 1259 4134 
L 1259 2759 
L 3109 2759 
L 3109 2228 
L 1259 2228 
L 1259 0 
L 628 0 
L 628 4666 
z
" id="DejaVuSans-46" transform="scale(0.015625)"/>
        <path d="M 3597 1894 
L 3597 1613 
L 953 1613 
Q 991 1019 1311 708 
Q 1631 397 2203 397 
Q 2534 397 2845 478 
Q 3156 559 3463 722 
L 3463 178 
Q 3153 47 2828 -22 
Q 2503 -91 2169 -91 
Q 1331 -91 842 396 
Q 353 884 353 1716 
Q 353 2575 817 3079 
Q 1281 3584 2069 3584 
Q 2775 3584 3186 3129 
Q 3597 2675 3597 1894 
z
M 3022 2063 
Q 3016 2534 2758 2815 
Q 2500 3097 2075 3097 
Q 1594 3097 1305 2825 
Q 1016 2553 972 2059 
L 3022 2063 
z
" id="DejaVuSans-65" transform="scale(0.015625)"/>
        <path d="M 3116 1747 
Q 3116 2381 2855 2742 
Q 2594 3103 2138 3103 
Q 1681 3103 1420 2742 
Q 1159 2381 1159 1747 
Q 1159 1113 1420 752 
Q 1681 391 2138 391 
Q 2594 391 2855 752 
Q 3116 1113 3116 1747 
z
M 1159 2969 
Q 1341 3281 1617 3432 
Q 1894 3584 2278 3584 
Q 2916 3584 3314 3078 
Q 3713 2572 3713 1747 
Q 3713 922 3314 415 
Q 2916 -91 2278 -91 
Q 1894 -91 1617 61 
Q 1341 213 1159 525 
L 1159 0 
L 581 0 
L 581 4863 
L 1159 4863 
L 1159 2969 
z
" id="DejaVuSans-62" transform="scale(0.015625)"/>
       </defs>
       <use xlink:href="#DejaVuSans-46"/>
       <use x="52.019531" xlink:href="#DejaVuSans-65"/>
       <use x="113.542969" xlink:href="#DejaVuSans-62"/>
      </g>
     </g>
    </g>
    <g id="xtick_3">
     <g id="line2d_3">
      <path clip-path="url(#p453b949695)" d="M 197.245312 242.676 
L 342.217965 158.976 
" style="fill:none;stroke:#b0b0b0;stroke-linecap:square;stroke-width:0.8;"/>
     </g>
     <g id="text_3">
      <!-- Mar -->
      <g transform="translate(344.908727 154.735375)scale(0.1 -0.1)">
       <defs>
        <path d="M 628 4666 
L 1569 4666 
L 2759 1491 
L 3956 4666 
L 4897 4666 
L 4897 0 
L 4281 0 
L 4281 4097 
L 3078 897 
L 2444 897 
L 1241 4097 
L 1241 0 
L 628 0 
L 628 4666 
z
" id="DejaVuSans-4d" transform="scale(0.015625)"/>
        <path d="M 2631 2963 
Q 2534 3019 2420 3045 
Q 2306 3072 2169 3072 
Q 1681 3072 1420 2755 
Q 1159 2438 1159 1844 
L 1159 0 
L 581 0 
L 581 3500 
L 1159 3500 
L 1159 2956 
Q 1341 3275 1631 3429 
Q 1922 3584 2338 3584 
Q 2397 3584 2469 3576 
Q 2541 3569 2628 3553 
L 2631 2963 
z
" id="DejaVuSans-72" transform="scale(0.015625)"/>
       </defs>
       <use xlink:href="#DejaVuSans-4d"/>
       <use x="86.279297" xlink:href="#DejaVuSans-61"/>
       <use x="147.558594" xlink:href="#DejaVuSans-72"/>
      </g>
     </g>
    </g>
    <g id="xtick_4">
     <g id="line2d_4">
      <path clip-path="url(#p453b949695)" d="M 197.245312 242.676 
L 364.645312 242.676 
" style="fill:none;stroke:#b0b0b0;stroke-linecap:square;stroke-width:0.8;"/>
     </g>
     <g id="text_4">
      <!-- Apr -->
      <g transform="translate(369.995312 245.435375)scale(0.1 -0.1)">
       <defs>
        <path d="M 2188 4044 
L 1331 1722 
L 3047 1722 
L 2188 4044 
z
M 1831 4666 
L 2547 4666 
L 4325 0 
L 3669 0 
L 3244 1197 
L 1141 1197 
L 716 0 
L 50 0 
L 1831 4666 
z
" id="DejaVuSans-41" transform="scale(0.015625)"/>
        <path d="M 1159 525 
L 1159 -1331 
L 581 -1331 
L 581 3500 
L 1159 3500 
L 1159 2969 
Q 1341 3281 1617 3432 
Q 1894 3584 2278 3584 
Q 2916 3584 3314 3078 
Q 3713 2572 3713 1747 
Q 3713 922 3314 415 
Q 2916 -91 2278 -91 
Q 1894 -91 1617 61 
Q 1341 213 1159 525 
z
M 3116 1747 
Q 3116 2381 2855 2742 
Q 2594 3103 2138 3103 
Q 1681 3103 1420 2742 
Q 1159 2381 1159 1747 
Q 1159 1113 1420 752 
Q 1681 391 2138 391 
Q 2594 391 2855 752 
Q 3116 1113 3116 1747 
z
" id="DejaVuSans-70" transform="scale(0.015625)"/>
       </defs>
       <use xlink:href="#DejaVuSans-41"/>
       <use x="68.408203" xlink:href="#DejaVuSans-70"/>
       <use x="131.884766" xlink:href="#DejaVuSans-72"/>
      </g>
     </g>
    </g>
    <g id="xtick_5">
     <g id="line2d_5">
      <path clip-path="url(#p453b949695)" d="M 197.245312 242.676 
L 342.217965 326.376 
" style="fill:none;stroke:#b0b0b0;stroke-linecap:square;stroke-width:0.8;"/>
     </g>
     <g id="text_5">
      <!-- May -->
      <g transform="translate(344.004821 336.135375)scale(0.1 -0.1)">
       <defs>
        <path d="M 2059 -325 
Q 1816 -950 1584 -1140 
Q 1353 -1331 966 -1331 
L 506 -1331 
L 506 -850 
L 844 -850 
Q 1081 -850 1212 -737 
Q 1344 -625 1503 -206 
L 1606 56 
L 191 3500 
L 800 3500 
L 1894 763 
L 2988 3500 
L 3597 3500 
L 2059 -325 
z
" id="DejaVuSans-79" transform="scale(0.015625)"/>
       </defs>
       <use xlink:href="#DejaVuSans-4d"/>
       <use x="86.279297" xlink:href="#DejaVuSans-61"/>
       <use x="147.558594" xlink:href="#DejaVuSans-79"/>
      </g>
     </g>
    </g>
    <g id="xtick_6">
     <g id="line2d_6">
      <path clip-path="url(#p453b949695)" d="M 197.245312 242.676 
L 280.945312 387.648653 
" style="fill:none;stroke:#b0b0b0;stroke-linecap:square;stroke-width:0.8;"/>
     </g>
     <g id="text_6">
      <!-- Jun -->
      <g transform="translate(280.132812 402.532383)scale(0.1 -0.1)">
       <defs>
        <path d="M 544 1381 
L 544 3500 
L 1119 3500 
L 1119 1403 
Q 1119 906 1312 657 
Q 1506 409 1894 409 
Q 2359 409 2629 706 
Q 2900 1003 2900 1516 
L 2900 3500 
L 3475 3500 
L 3475 0 
L 2900 0 
L 2900 538 
Q 2691 219 2414 64 
Q 2138 -91 1772 -91 
Q 1169 -91 856 284 
Q 544 659 544 1381 
z
M 1991 3584 
L 1991 3584 
z
" id="DejaVuSans-75" transform="scale(0.015625)"/>
       </defs>
       <use xlink:href="#DejaVuSans-4a"/>
       <use x="29.492188" xlink:href="#DejaVuSans-75"/>
       <use x="92.871094" xlink:href="#DejaVuSans-6e"/>
      </g>
     </g>
    </g>
    <g id="xtick_7">
     <g id="line2d_7">
      <path clip-path="url(#p453b949695)" d="M 197.245312 242.676 
L 197.245312 410.076 
" style="fill:none;stroke:#b0b0b0;stroke-linecap:square;stroke-width:0.8;"/>
     </g>
     <g id="text_7">
      <!-- Jul -->
      <g transform="translate(191.2125 426.835375)scale(0.1 -0.1)">
       <defs>
        <path d="M 603 4863 
L 1178 4863 
L 1178 0 
L 603 0 
L 603 4863 
z
" id="DejaVuSans-6c" transform="scale(0.015625)"/>
       </defs>
       <use xlink:href="#DejaVuSans-4a"/>
       <use x="29.492188" xlink:href="#DejaVuSans-75"/>
       <use x="92.871094" xlink:href="#DejaVuSans-6c"/>
      </g>
     </g>
    </g>
    <g id="xtick_8">
     <g id="line2d_8">
      <path clip-path="url(#p453b949695)" d="M 197.245312 242.676 
L 113.545313 387.648653 
" style="fill:none;stroke:#b0b0b0;stroke-linecap:square;stroke-width:0.8;"/>
     </g>
     <g id="text_8">
      <!-- Aug -->
      <g transform="translate(96.782031 402.532383)scale(0.1 -0.1)">
       <defs>
        <path d="M 2906 1791 
Q 2906 2416 2648 2759 
Q 2391 3103 1925 3103 
Q 1463 3103 1205 2759 
Q 947 2416 947 1791 
Q 947 1169 1205 825 
Q 1463 481 1925 481 
Q 2391 481 2648 825 
Q 2906 1169 2906 1791 
z
M 3481 434 
Q 3481 -459 3084 -895 
Q 2688 -1331 1869 -1331 
Q 1566 -1331 1297 -1286 
Q 1028 -1241 775 -1147 
L 775 -588 
Q 1028 -725 1275 -790 
Q 1522 -856 1778 -856 
Q 2344 -856 2625 -561 
Q 2906 -266 2906 331 
L 2906 616 
Q 2728 306 2450 153 
Q 2172 0 1784 0 
Q 1141 0 747 490 
Q 353 981 353 1791 
Q 353 2603 747 3093 
Q 1141 3584 1784 3584 
Q 2172 3584 2450 3431 
Q 2728 3278 2906 2969 
L 2906 3500 
L 3481 3500 
L 3481 434 
z
" id="DejaVuSans-67" transform="scale(0.015625)"/>
       </defs>
       <use xlink:href="#DejaVuSans-41"/>
       <use x="68.408203" xlink:href="#DejaVuSans-75"/>
       <use x="131.787109" xlink:href="#DejaVuSans-67"/>
      </g>
     </g>
    </g>
    <g id="xtick_9">
     <g id="line2d_9">
      <path clip-path="url(#p453b949695)" d="M 197.245312 242.676 
L 52.27266 326.376 
" style="fill:none;stroke:#b0b0b0;stroke-linecap:square;stroke-width:0.8;"/>
     </g>
     <g id="text_9">
      <!-- Sep -->
      <g transform="translate(30.723304 336.135375)scale(0.1 -0.1)">
       <defs>
        <path d="M 3425 4513 
L 3425 3897 
Q 3066 4069 2747 4153 
Q 2428 4238 2131 4238 
Q 1616 4238 1336 4038 
Q 1056 3838 1056 3469 
Q 1056 3159 1242 3001 
Q 1428 2844 1947 2747 
L 2328 2669 
Q 3034 2534 3370 2195 
Q 3706 1856 3706 1288 
Q 3706 609 3251 259 
Q 2797 -91 1919 -91 
Q 1588 -91 1214 -16 
Q 841 59 441 206 
L 441 856 
Q 825 641 1194 531 
Q 1563 422 1919 422 
Q 2459 422 2753 634 
Q 3047 847 3047 1241 
Q 3047 1584 2836 1778 
Q 2625 1972 2144 2069 
L 1759 2144 
Q 1053 2284 737 2584 
Q 422 2884 422 3419 
Q 422 4038 858 4394 
Q 1294 4750 2059 4750 
Q 2388 4750 2728 4690 
Q 3069 4631 3425 4513 
z
" id="DejaVuSans-53" transform="scale(0.015625)"/>
       </defs>
       <use xlink:href="#DejaVuSans-53"/>
       <use x="63.476562" xlink:href="#DejaVuSans-65"/>
       <use x="125" xlink:href="#DejaVuSans-70"/>
      </g>
     </g>
    </g>
    <g id="xtick_10">
     <g id="line2d_10">
      <path clip-path="url(#p453b949695)" d="M 197.245312 242.676 
L 29.845313 242.676 
" style="fill:none;stroke:#b0b0b0;stroke-linecap:square;stroke-width:0.8;"/>
     </g>
     <g id="text_10">
      <!-- Oct -->
      <g transform="translate(7.2 245.435375)scale(0.1 -0.1)">
       <defs>
        <path d="M 2522 4238 
Q 1834 4238 1429 3725 
Q 1025 3213 1025 2328 
Q 1025 1447 1429 934 
Q 1834 422 2522 422 
Q 3209 422 3611 934 
Q 4013 1447 4013 2328 
Q 4013 3213 3611 3725 
Q 3209 4238 2522 4238 
z
M 2522 4750 
Q 3503 4750 4090 4092 
Q 4678 3434 4678 2328 
Q 4678 1225 4090 567 
Q 3503 -91 2522 -91 
Q 1538 -91 948 565 
Q 359 1222 359 2328 
Q 359 3434 948 4092 
Q 1538 4750 2522 4750 
z
" id="DejaVuSans-4f" transform="scale(0.015625)"/>
        <path d="M 3122 3366 
L 3122 2828 
Q 2878 2963 2633 3030 
Q 2388 3097 2138 3097 
Q 1578 3097 1268 2742 
Q 959 2388 959 1747 
Q 959 1106 1268 751 
Q 1578 397 2138 397 
Q 2388 397 2633 464 
Q 2878 531 3122 666 
L 3122 134 
Q 2881 22 2623 -34 
Q 2366 -91 2075 -91 
Q 1284 -91 818 406 
Q 353 903 353 1747 
Q 353 2603 823 3093 
Q 1294 3584 2113 3584 
Q 2378 3584 2631 3529 
Q 2884 3475 3122 3366 
z
" id="DejaVuSans-63" transform="scale(0.015625)"/>
        <path d="M 1172 4494 
L 1172 3500 
L 2356 3500 
L 2356 3053 
L 1172 3053 
L 1172 1153 
Q 1172 725 1289 603 
Q 1406 481 1766 481 
L 2356 481 
L 2356 0 
L 1766 0 
Q 1100 0 847 248 
Q 594 497 594 1153 
L 594 3053 
L 172 3053 
L 172 3500 
L 594 3500 
L 594 4494 
L 1172 4494 
z
" id="DejaVuSans-74" transform="scale(0.015625)"/>
       </defs>
       <use xlink:href="#DejaVuSans-4f"/>
       <use x="78.710938" xlink:href="#DejaVuSans-63"/>
       <use x="133.691406" xlink:href="#DejaVuSans-74"/>
      </g>
     </g>
    </g>
    <g id="xtick_11">
     <g id="line2d_11">
      <path clip-path="url(#p453b949695)" d="M 197.245312 242.676 
L 52.27266 158.976 
" style="fill:none;stroke:#b0b0b0;stroke-linecap:square;stroke-width:0.8;"/>
     </g>
     <g id="text_11">
      <!-- Nov -->
      <g transform="translate(30.388929 154.735375)scale(0.1 -0.1)">
       <defs>
        <path d="M 628 4666 
L 1478 4666 
L 3547 763 
L 3547 4666 
L 4159 4666 
L 4159 0 
L 3309 0 
L 1241 3903 
L 1241 0 
L 628 0 
L 628 4666 
z
" id="DejaVuSans-4e" transform="scale(0.015625)"/>
        <path d="M 1959 3097 
Q 1497 3097 1228 2736 
Q 959 2375 959 1747 
Q 959 1119 1226 758 
Q 1494 397 1959 397 
Q 2419 397 2687 759 
Q 2956 1122 2956 1747 
Q 2956 2369 2687 2733 
Q 2419 3097 1959 3097 
z
M 1959 3584 
Q 2709 3584 3137 3096 
Q 3566 2609 3566 1747 
Q 3566 888 3137 398 
Q 2709 -91 1959 -91 
Q 1206 -91 779 398 
Q 353 888 353 1747 
Q 353 2609 779 3096 
Q 1206 3584 1959 3584 
z
" id="DejaVuSans-6f" transform="scale(0.015625)"/>
        <path d="M 191 3500 
L 800 3500 
L 1894 563 
L 2988 3500 
L 3597 3500 
L 2284 0 
L 1503 0 
L 191 3500 
z
" id="DejaVuSans-76" transform="scale(0.015625)"/>
       </defs>
       <use xlink:href="#DejaVuSans-4e"/>
       <use x="74.804688" xlink:href="#DejaVuSans-6f"/>
       <use x="135.986328" xlink:href="#DejaVuSans-76"/>
      </g>
     </g>
    </g>
    <g id="xtick_12">
     <g id="line2d_12">
      <path clip-path="url(#p453b949695)" d="M 197.245312 242.676 
L 113.545312 97.703347 
" style="fill:none;stroke:#b0b0b0;stroke-linecap:square;stroke-width:0.8;"/>
     </g>
     <g id="text_12">
      <!-- Dec -->
      <g transform="translate(96.869531 88.338367)scale(0.1 -0.1)">
       <defs>
        <path d="M 1259 4147 
L 1259 519 
L 2022 519 
Q 2988 519 3436 956 
Q 3884 1394 3884 2338 
Q 3884 3275 3436 3711 
Q 2988 4147 2022 4147 
L 1259 4147 
z
M 628 4666 
L 1925 4666 
Q 3281 4666 3915 4102 
Q 4550 3538 4550 2338 
Q 4550 1131 3912 565 
Q 3275 0 1925 0 
L 628 0 
L 628 4666 
z
" id="DejaVuSans-44" transform="scale(0.015625)"/>
       </defs>
       <use xlink:href="#DejaVuSans-44"/>
       <use x="77.001953" xlink:href="#DejaVuSans-65"/>
       <use x="138.525391" xlink:href="#DejaVuSans-63"/>
      </g>
     </g>
    </g>
   </g>
   <g id="matplotlib.axis_2">
    <g id="ytick_1">
     <g id="line2d_13">
      <path clip-path="url(#p453b949695)" d="M 197.245312 212.239636 
C 201.242179 212.239636 205.200181 213.026932 208.892805 214.556467 
C 212.585428 216.086001 215.94086 218.328029 218.767072 221.154241 
C 221.593283 223.980452 223.835311 227.335885 225.364846 231.028508 
C 226.894381 234.721131 227.681676 238.679133 227.681676 242.676 
C 227.681676 246.672867 226.894381 250.630869 225.364846 254.323492 
C 223.835311 258.016115 221.593283 261.371548 218.767072 264.197759 
C 215.94086 267.023971 212.585428 269.265999 208.892805 270.795533 
C 205.200181 272.325068 201.242179 273.112364 197.245312 273.112364 
C 193.248446 273.112364 189.290444 272.325068 185.59782 270.795533 
C 181.905197 269.265999 178.549765 267.023971 175.723553 264.197759 
C 172.897342 261.371548 170.655314 258.016115 169.125779 254.323492 
C 167.596244 250.630869 166.808949 246.672867 166.808949 242.676 
C 166.808949 238.679133 167.596244 234.721131 169.125779 231.028508 
C 170.655314 227.335885 172.897342 223.980452 175.723553 221.154241 
C 178.549765 218.328029 181.905197 216.086001 185.59782 214.556467 
C 189.290444 213.026932 193.248446 212.239636 197.245312 212.239636 
" style="fill:none;stroke:#b0b0b0;stroke-linecap:square;stroke-width:0.8;"/>
     </g>
     <g id="text_13">
      <!-- 1000 -->
      <g transform="translate(197.245312 271.032676)scale(0.1 -0.1)">
       <defs>
        <path d="M 794 531 
L 1825 531 
L 1825 4091 
L 703 3866 
L 703 4441 
L 1819 4666 
L 2450 4666 
L 2450 531 
L 3481 531 
L 3481 0 
L 794 0 
L 794 531 
z
" id="DejaVuSans-31" transform="scale(0.015625)"/>
        <path d="M 2034 4250 
Q 1547 4250 1301 3770 
Q 1056 3291 1056 2328 
Q 1056 1369 1301 889 
Q 1547 409 2034 409 
Q 2525 409 2770 889 
Q 3016 1369 3016 2328 
Q 3016 3291 2770 3770 
Q 2525 4250 2034 4250 
z
M 2034 4750 
Q 2819 4750 3233 4129 
Q 3647 3509 3647 2328 
Q 3647 1150 3233 529 
Q 2819 -91 2034 -91 
Q 1250 -91 836 529 
Q 422 1150 422 2328 
Q 422 3509 836 4129 
Q 1250 4750 2034 4750 
z
" id="DejaVuSans-30" transform="scale(0.015625)"/>
       </defs>
       <use xlink:href="#DejaVuSans-31"/>
       <use x="63.623047" xlink:href="#DejaVuSans-30"/>
       <use x="127.246094" xlink:href="#DejaVuSans-30"/>
       <use x="190.869141" xlink:href="#DejaVuSans-30"/>
      </g>
     </g>
    </g>
    <g id="ytick_2">
     <g id="line2d_14">
      <path clip-path="url(#p453b949695)" d="M 197.245312 181.803273 
C 205.239046 181.803273 213.15505 183.377864 220.540297 186.436933 
C 227.925543 189.496002 234.636408 193.980059 240.288831 199.632482 
C 245.941254 205.284905 250.42531 211.995769 253.484379 219.381016 
C 256.543449 226.766262 258.11804 234.682267 258.11804 242.676 
C 258.11804 250.669733 256.543449 258.585738 253.484379 265.970984 
C 250.42531 273.356231 245.941254 280.067095 240.288831 285.719518 
C 234.636408 291.371941 227.925543 295.855998 220.540297 298.915067 
C 213.15505 301.974136 205.239046 303.548727 197.245312 303.548727 
C 189.251579 303.548727 181.335575 301.974136 173.950328 298.915067 
C 166.565082 295.855998 159.854217 291.371941 154.201794 285.719518 
C 148.549371 280.067095 144.065315 273.356231 141.006246 265.970984 
C 137.947176 258.585738 136.372585 250.669733 136.372585 242.676 
C 136.372585 234.682267 137.947176 226.766262 141.006246 219.381016 
C 144.065315 211.995769 148.549371 205.284905 154.201794 199.632482 
C 159.854217 193.980059 166.565082 189.496002 173.950328 186.436933 
C 181.335575 183.377864 189.251579 181.803273 197.245312 181.803273 
" style="fill:none;stroke:#b0b0b0;stroke-linecap:square;stroke-width:0.8;"/>
     </g>
     <g id="text_14">
      <!-- 2000 -->
      <g transform="translate(197.245312 301.46904)scale(0.1 -0.1)">
       <defs>
        <path d="M 1228 531 
L 3431 531 
L 3431 0 
L 469 0 
L 469 531 
Q 828 903 1448 1529 
Q 2069 2156 2228 2338 
Q 2531 2678 2651 2914 
Q 2772 3150 2772 3378 
Q 2772 3750 2511 3984 
Q 2250 4219 1831 4219 
Q 1534 4219 1204 4116 
Q 875 4013 500 3803 
L 500 4441 
Q 881 4594 1212 4672 
Q 1544 4750 1819 4750 
Q 2544 4750 2975 4387 
Q 3406 4025 3406 3419 
Q 3406 3131 3298 2873 
Q 3191 2616 2906 2266 
Q 2828 2175 2409 1742 
Q 1991 1309 1228 531 
z
" id="DejaVuSans-32" transform="scale(0.015625)"/>
       </defs>
       <use xlink:href="#DejaVuSans-32"/>
       <use x="63.623047" xlink:href="#DejaVuSans-30"/>
       <use x="127.246094" xlink:href="#DejaVuSans-30"/>
       <use x="190.869141" xlink:href="#DejaVuSans-30"/>
      </g>
     </g>
    </g>
    <g id="ytick_3">
     <g id="line2d_15">
      <path clip-path="url(#p453b949695)" d="M 197.245312 151.366909 
C 209.235912 151.366909 221.109919 153.728796 232.187789 158.3174 
C 243.265659 162.906004 253.331955 169.632088 261.81059 178.110723 
C 270.289224 186.589357 277.015309 196.655654 281.603913 207.733524 
C 286.192517 218.811394 288.554403 230.6854 288.554403 242.676 
C 288.554403 254.6666 286.192517 266.540606 281.603913 277.618476 
C 277.015309 288.696346 270.289224 298.762643 261.81059 307.241277 
C 253.331955 315.719912 243.265659 322.445996 232.187789 327.0346 
C 221.109919 331.623204 209.235912 333.985091 197.245312 333.985091 
C 185.254713 333.985091 173.380706 331.623204 162.302836 327.0346 
C 151.224966 322.445996 141.15867 315.719912 132.680035 307.241277 
C 124.201401 298.762643 117.475316 288.696346 112.886712 277.618476 
C 108.298108 266.540606 105.936222 254.6666 105.936222 242.676 
C 105.936222 230.6854 108.298108 218.811394 112.886712 207.733524 
C 117.475316 196.655654 124.201401 186.589357 132.680035 178.110723 
C 141.15867 169.632088 151.224966 162.906004 162.302836 158.3174 
C 173.380706 153.728796 185.254713 151.366909 197.245312 151.366909 
" style="fill:none;stroke:#b0b0b0;stroke-linecap:square;stroke-width:0.8;"/>
     </g>
     <g id="text_15">
      <!-- 3000 -->
      <g transform="translate(197.245312 331.905403)scale(0.1 -0.1)">
       <defs>
        <path d="M 2597 2516 
Q 3050 2419 3304 2112 
Q 3559 1806 3559 1356 
Q 3559 666 3084 287 
Q 2609 -91 1734 -91 
Q 1441 -91 1130 -33 
Q 819 25 488 141 
L 488 750 
Q 750 597 1062 519 
Q 1375 441 1716 441 
Q 2309 441 2620 675 
Q 2931 909 2931 1356 
Q 2931 1769 2642 2001 
Q 2353 2234 1838 2234 
L 1294 2234 
L 1294 2753 
L 1863 2753 
Q 2328 2753 2575 2939 
Q 2822 3125 2822 3475 
Q 2822 3834 2567 4026 
Q 2313 4219 1838 4219 
Q 1578 4219 1281 4162 
Q 984 4106 628 3988 
L 628 4550 
Q 988 4650 1302 4700 
Q 1616 4750 1894 4750 
Q 2613 4750 3031 4423 
Q 3450 4097 3450 3541 
Q 3450 3153 3228 2886 
Q 3006 2619 2597 2516 
z
" id="DejaVuSans-33" transform="scale(0.015625)"/>
       </defs>
       <use xlink:href="#DejaVuSans-33"/>
       <use x="63.623047" xlink:href="#DejaVuSans-30"/>
       <use x="127.246094" xlink:href="#DejaVuSans-30"/>
       <use x="190.869141" xlink:href="#DejaVuSans-30"/>
      </g>
     </g>
    </g>
    <g id="ytick_4">
     <g id="line2d_16">
      <path clip-path="url(#p453b949695)" d="M 197.245312 120.930545 
C 213.232779 120.930545 229.064788 124.079728 243.835281 130.197866 
C 258.605774 136.316005 272.027503 145.284117 283.332349 156.588964 
C 294.637195 167.89381 303.605308 181.315538 309.723446 196.086032 
C 315.841585 210.856525 318.990767 226.688533 318.990767 242.676 
C 318.990767 258.663467 315.841585 274.495475 309.723446 289.265968 
C 303.605308 304.036462 294.637195 317.45819 283.332349 328.763036 
C 272.027503 340.067883 258.605774 349.035995 243.835281 355.154134 
C 229.064788 361.272272 213.232779 364.421455 197.245312 364.421455 
C 181.257846 364.421455 165.425837 361.272272 150.655344 355.154134 
C 135.884851 349.035995 122.463122 340.067883 111.158276 328.763036 
C 99.85343 317.45819 90.885317 304.036462 84.767179 289.265968 
C 78.64904 274.495475 75.499858 258.663467 75.499858 242.676 
C 75.499858 226.688533 78.64904 210.856525 84.767179 196.086032 
C 90.885317 181.315538 99.85343 167.89381 111.158276 156.588964 
C 122.463122 145.284117 135.884851 136.316005 150.655344 130.197866 
C 165.425837 124.079728 181.257846 120.930545 197.245312 120.930545 
" style="fill:none;stroke:#b0b0b0;stroke-linecap:square;stroke-width:0.8;"/>
     </g>
     <g id="text_16">
      <!-- 4000 -->
      <g transform="translate(197.245312 362.341767)scale(0.1 -0.1)">
       <defs>
        <path d="M 2419 4116 
L 825 1625 
L 2419 1625 
L 2419 4116 
z
M 2253 4666 
L 3047 4666 
L 3047 1625 
L 3713 1625 
L 3713 1100 
L 3047 1100 
L 3047 0 
L 2419 0 
L 2419 1100 
L 313 1100 
L 313 1709 
L 2253 4666 
z
" id="DejaVuSans-34" transform="scale(0.015625)"/>
       </defs>
       <use xlink:href="#DejaVuSans-34"/>
       <use x="63.623047" xlink:href="#DejaVuSans-30"/>
       <use x="127.246094" xlink:href="#DejaVuSans-30"/>
       <use x="190.869141" xlink:href="#DejaVuSans-30"/>
      </g>
     </g>
    </g>
    <g id="ytick_5">
     <g id="line2d_17">
      <path clip-path="url(#p453b949695)" d="M 197.245312 90.494182 
C 217.229646 90.494182 237.019657 94.43066 255.482773 102.078333 
C 273.945889 109.726006 290.723051 120.936147 304.854108 135.067204 
C 318.985166 149.198262 330.195306 165.975423 337.84298 184.438539 
C 345.490653 202.901656 349.427131 222.691667 349.427131 242.676 
C 349.427131 262.660333 345.490653 282.450344 337.84298 300.913461 
C 330.195306 319.376577 318.985166 336.153738 304.854108 350.284796 
C 290.723051 364.415853 273.945889 375.625994 255.482773 383.273667 
C 237.019657 390.92134 217.229646 394.857818 197.245312 394.857818 
C 177.260979 394.857818 157.470968 390.92134 139.007852 383.273667 
C 120.544736 375.625994 103.767574 364.415853 89.636517 350.284796 
C 75.505459 336.153738 64.295319 319.376577 56.647645 300.913461 
C 48.999972 282.450344 45.063494 262.660333 45.063494 242.676 
C 45.063494 222.691667 48.999972 202.901656 56.647645 184.438539 
C 64.295319 165.975423 75.505459 149.198262 89.636517 135.067204 
C 103.767574 120.936147 120.544736 109.726006 139.007852 102.078333 
C 157.470968 94.43066 177.260979 90.494182 197.245312 90.494182 
" style="fill:none;stroke:#b0b0b0;stroke-linecap:square;stroke-width:0.8;"/>
     </g>
     <g id="text_17">
      <!-- 5000 -->
      <g transform="translate(197.245312 392.778131)scale(0.1 -0.1)">
       <defs>
        <path d="M 691 4666 
L 3169 4666 
L 3169 4134 
L 1269 4134 
L 1269 2991 
Q 1406 3038 1543 3061 
Q 1681 3084 1819 3084 
Q 2600 3084 3056 2656 
Q 3513 2228 3513 1497 
Q 3513 744 3044 326 
Q 2575 -91 1722 -91 
Q 1428 -91 1123 -41 
Q 819 9 494 109 
L 494 744 
Q 775 591 1075 516 
Q 1375 441 1709 441 
Q 2250 441 2565 725 
Q 2881 1009 2881 1497 
Q 2881 1984 2565 2268 
Q 2250 2553 1709 2553 
Q 1456 2553 1204 2497 
Q 953 2441 691 2322 
L 691 4666 
z
" id="DejaVuSans-35" transform="scale(0.015625)"/>
       </defs>
       <use xlink:href="#DejaVuSans-35"/>
       <use x="63.623047" xlink:href="#DejaVuSans-30"/>
       <use x="127.246094" xlink:href="#DejaVuSans-30"/>
       <use x="190.869141" xlink:href="#DejaVuSans-30"/>
      </g>
     </g>
    </g>
   </g>
   <g id="line2d_18">
    <path clip-path="url(#p453b949695)" d="M 197.245312 158.458582 
L 207.627728 157.169111 
L 217.975288 158.571184 
L 228.166923 161.142414 
L 237.670246 165.652724 
L 246.192808 171.763311 
L 255.776135 176.608359 
L 263.97363 183.559869 
L 266.304403 195.007952 
L 271.627482 203.637226 
L 273.684828 213.686315 
L 276.651371 223.104165 
L 275.379876 233.188746 
L 272.484003 242.676 
L 275.289232 252.152248 
L 273.518865 261.475742 
L 270.383643 270.41371 
L 265.590669 278.54641 
L 264.550998 289.13376 
L 254.769724 293.638182 
L 247.400173 299.289134 
L 241.628294 306.975849 
L 232.63481 310.105054 
L 222.846032 310.179549 
L 215.709995 317.590163 
L 206.710554 320.629277 
L 197.245312 323.423673 
L 188.077236 318.181906 
L 179.450748 314.871385 
L 172.270581 308.528956 
L 164.86859 304.364691 
L 156.078239 302.316803 
L 147.514296 298.810713 
L 145.370823 288.632787 
L 136.727807 284.448218 
L 131.675813 277.089528 
L 125.444531 269.906445 
L 120.587585 261.570433 
L 121.769621 251.840408 
L 118.17164 242.676 
L 120.409971 233.3465 
L 122.997101 214.517367 
L 128.280105 206.480267 
L 133.571679 198.725264 
L 139.857592 191.834916 
L 145.940019 184.764295 
L 149.940351 174.142931 
L 157.188135 166.353426 
L 166.237359 160.914746 
L 176.63188 159.044015 
L 186.664787 155.537531 
L 197.245312 153.893127 
L 207.587373 157.50147 
L 216.358262 165.131714 
L 225.522667 168.114745 
L 235.831463 169.156232 
L 243.495595 175.670898 
L 250.145067 182.964521 
L 257.64025 189.170755 
L 264.525949 196.23553 
L 270.38778 204.287872 
L 274.851627 213.243807 
L 276.621819 223.111448 
L 280.002686 232.627436 
L 276.136367 242.676 
L 277.374029 252.405388 
L 276.858234 262.298823 
L 270.981271 270.640361 
L 265.779319 278.645421 
L 262.522058 287.733284 
L 255.362055 294.162941 
L 248.550606 300.587705 
L 240.07221 304.721472 
L 232.309487 309.485203 
L 224.108799 313.509192 
L 214.82136 313.984827 
L 206.545463 319.269626 
L 197.245312 322.571455 
L 188.025874 318.604909 
L 180.048028 312.448126 
L 171.007813 311.8586 
L 162.082127 309.673853 
L 156.510484 301.690587 
L 148.503265 297.694398 
L 143.001501 290.731824 
L 135.675765 285.17439 
L 129.331157 278.320098 
L 129.514096 268.363062 
L 124.93172 260.4997 
L 118.899248 252.188935 
L 121.945749 242.676 
L 120.591257 233.368513 
L 121.858318 224.094775 
L 121.602634 213.988516 
L 125.746799 205.150685 
L 132.945463 198.293019 
L 135.939098 188.363433 
L 141.943776 180.25347 
L 149.145019 172.990694 
L 157.838782 167.593128 
L 165.784058 159.719489 
L 176.755706 159.546398 
L 186.884909 157.350398 
L 197.245312 153.497455 
L 207.418613 158.891335 
L 217.53097 160.373852 
L 227.346664 163.305259 
L 237.062033 166.811577 
L 249.702642 166.678438 
L 259.59073 172.302571 
L 266.388517 181.420466 
L 273.919188 189.751845 
L 279.51882 211.473774 
L 280.493122 222.157258 
L 281.634267 232.429326 
L 282.619312 242.676 
L 280.546546 252.790601 
L 279.577012 262.968941 
L 276.160717 272.604665 
L 267.558023 279.578957 
L 263.699344 288.545906 
L 255.043108 293.880378 
L 252.284469 304.802365 
L 241.472685 306.750411 
L 233.808802 312.341909 
L 224.853508 315.472829 
L 215.994067 318.742689 
L 206.640849 320.055202 
L 197.245312 322.997564 
L 188.257002 316.701398 
L 179.60371 314.250794 
L 169.626324 315.501287 
L 163.694598 306.601546 
L 156.458615 301.765733 
L 145.818921 300.724397 
L 139.515863 293.819829 
L 137.880045 283.652886 
L 128.792156 278.602988 
L 126.838997 269.377593 
L 126.61618 260.084518 
L 117.479169 252.361363 
L 120.454367 242.676 
L 116.240377 232.84022 
L 118.459845 223.257126 
L 125.47299 215.456348 
L 125.93545 205.249697 
L 129.839432 196.14908 
L 135.073384 187.596477 
L 142.206156 180.549635 
L 158.036804 167.970429 
L 165.827229 159.833323 
L 176.413363 158.157457 
L 186.228212 151.942012 
L 197.245312 152.980036 
L 208.390818 150.884506 
L 219.177131 153.695114 
L 230.508979 154.96692 
L 242.394504 156.651403 
L 251.587233 163.948136 
L 258.46048 173.57836 
L 270.398139 177.868251 
L 276.649489 187.867254 
L 285.991865 196.098216 
L 283.730677 209.876428 
L 287.024101 220.547516 
L 289.913025 231.424103 
L 287.763058 242.676 
L 289.67131 253.898548 
L 281.734304 263.500666 
L 274.851627 272.108193 
L 266.23747 278.885878 
L 263.674296 288.528616 
L 255.817694 294.566602 
L 247.682735 299.608081 
L 242.216148 307.827503 
L 233.695646 312.126309 
L 224.205935 313.765319 
L 215.739131 317.708371 
L 206.391377 318.00062 
L 197.245312 319.771309 
L 188.216646 317.033757 
L 179.122973 316.201222 
L 167.845498 320.196939 
L 162.082127 309.673853 
L 155.93992 302.517192 
L 147.958323 298.30951 
L 142.52308 291.155668 
L 136.226835 284.794014 
L 130.49001 277.711886 
L 131.477732 267.618353 
L 123.424571 260.871179 
L 125.667285 251.367146 
L 118.84124 242.676 
L 118.566889 233.12271 
L 122.094734 224.153046 
L 121.005006 213.761866 
L 130.70561 207.75327 
L 134.548576 199.399568 
L 138.672931 190.785398 
L 145.475809 184.24031 
L 149.819322 173.967591 
L 160.497944 172.65974 
L 169.291745 168.9685 
L 176.945087 160.314748 
L 187.145386 159.495624 
L 207.587373 157.50147 
L 217.203195 161.703689 
L 226.494026 165.55348 
L 235.548574 169.695233 
L 246.607763 171.162144 
L 253.677099 178.977681 
L 259.964008 187.112084 
L 265.202263 195.768704 
L 271.708333 203.594792 
L 276.075342 212.779713 
L 275.912572 223.286262 
L 278.522178 232.807202 
L 279.636549 242.676 
L 275.561162 252.185266 
L 274.346319 261.679691 
L 271.521983 270.845425 
L 265.375068 278.433254 
L 262.822642 287.940762 
L 256.934009 295.555571 
L 248.893718 300.974998 
L 232.592377 310.024204 
L 223.450433 311.773224 
L 215.032593 314.841833 
L 206.35469 317.698475 
L 197.245312 323.423673 
L 187.820427 320.296918 
L 176.784841 325.687394 
L 168.547036 318.347137 
L 161.869959 310.078104 
L 153.329156 306.299536 
L 148.341801 297.876654 
L 140.791652 292.689579 
L 130.165065 288.978152 
L 126.366651 279.875991 
L 125.27378 269.971202 
L 120.587585 261.570433 
L 122.222837 251.785378 
L 116.923749 242.676 
L 118.23453 233.082354 
L 119.050884 223.402804 
L 124.33465 215.024633 
L 125.908499 205.235552 
L 130.866427 196.857963 
L 133.934286 186.587325 
L 141.197004 179.410538 
L 149.145019 172.990694 
L 156.678934 165.383223 
L 163.819753 154.540043 
L 174.453994 150.207985 
L 186.378628 153.180804 
L 197.245312 143.605636 
L 209.589045 139.042246 
L 221.387746 142.767986 
L 232.780378 147.009392 
L 243.414912 152.723127 
L 252.879705 160.077328 
L 263.033331 166.337956 
L 273.172301 173.216641 
L 276.551684 185.771712 
L 283.125103 195.330517 
L 284.286133 207.375786 
L 286.852031 218.190918 
L 290.082307 228.817045 
L 283.616201 240.115419 
L 284.798311 250.481179 
L 283.40956 260.812912 
L 278.814349 270.252667 
L 270.721172 277.677646 
L 267.790066 287.210788 
L 261.554957 294.858203 
L 251.645745 298.713108 
L 246.372294 307.027994 
L 237.410302 310.68326 
L 230.127871 317.323929 
L 219.992637 317.166873 
L 210.958097 318.97495 
L 202.380454 329.206525 
L 192.580772 321.276586 
L 183.42485 319.574078 
L 174.595768 316.84667 
L 166.69398 312.031725 
L 157.869693 309.346701 
L 150.537743 303.858779 
L 143.841302 297.686707 
L 137.520773 291.137752 
L 132.645775 283.457583 
L 125.830294 276.695925 
L 121.327578 268.342088 
L 117.335642 259.496371 
L 114.11847 250.086595 
L 115.40745 240.249806 
L 115.606555 230.488748 
L 114.097794 219.955898 
L 117.594218 210.372758 
L 125.492241 203.11857 
L 132.974262 196.559928 
L 134.231077 185.029457 
L 143.180318 179.94093 
L 150.33355 173.027547 
L 157.719021 165.666376 
L 166.712499 160.476329 
L 178.714905 165.992087 
L 186.733881 154.425618 
L 197.245312 146.101418 
L 208.52656 149.766572 
L 219.54861 152.187965 
L 231.793332 151.58036 
L 241.135645 159.049959 
L 249.737222 166.62834 
L 258.339382 173.715052 
L 272.858589 175.688482 
L 277.025219 187.607907 
L 282.164957 198.106733 
L 284.385222 209.628191 
L 289.006592 231.534163 
L 288.858767 242.676 
L 280.848691 252.827288 
L 278.542695 262.714005 
L 275.278504 272.270086 
L 271.465782 281.629907 
L 271.188887 293.715564 
L 258.095888 296.584906 
L 252.001906 304.483418 
L 243.616624 309.856442 
L 233.837091 312.395809 
L 225.522667 317.237255 
L 206.816946 321.505496 
L 197.245312 324.641127 
L 187.607642 322.049356 
L 177.19274 324.032486 
L 169.809803 315.017493 
L 161.884104 310.051154 
L 153.01794 306.750411 
L 145.41526 301.180036 
L 135.711278 297.190397 
L 132.344296 287.473937 
L 127.606353 279.225345 
L 119.695915 272.086607 
L 123.365467 260.885746 
L 116.723808 252.453081 
L 115.584549 242.676 
L 108.596121 231.912039 
L 116.154794 222.688982 
L 113.349671 210.85858 
L 123.644694 204.047416 
L 124.303684 192.328029 
L 131.132107 184.104811 
L 138.553025 176.426103 
L 146.257618 168.807572 
L 154.217794 160.693913 
L 163.474381 153.629371 
L 174.869176 151.892446 
L 185.032216 142.092102 
L 197.245312 134.079055 
L 210.588368 132.786052 
L 222.644267 139.628391 
L 236.380307 139.485499 
L 247.797696 146.35648 
L 256.82605 156.3584 
L 266.210768 164.830093 
L 273.063627 175.506835 
L 276.198614 188.178471 
L 279.550801 199.478748 
L 278.152812 211.991833 
L 279.340597 222.44133 
L 283.35649 232.22021 
L 281.371422 242.676 
L 282.147912 252.985042 
L 277.419721 262.437217 
L 276.30301 272.65863 
L 267.431591 291.12209 
L 261.057541 299.208702 
L 253.192706 305.827552 
L 243.94513 310.332366 
L 234.360437 313.392962 
L 225.770903 317.891801 
L 216.380114 320.308942 
L 207.117779 323.98308 
L 197.245312 324.762873 
L 188.000193 318.81641 
L 177.768168 321.697883 
L 161.742659 310.320655 
L 151.306247 309.230226 
L 145.980385 300.542141 
L 139.265262 294.041843 
L 132.720026 287.21459 
L 127.983654 279.027322 
L 120.208168 271.892335 
L 117.0118 262.451785 
L 116.60295 252.467756 
L 116.862876 242.676 
L 113.762792 232.539387 
L 117.277768 222.96577 
L 121.090382 213.794244 
L 123.779445 204.118138 
L 130.81316 183.822248 
L 138.371378 176.221066 
L 147.346877 170.385636 
L 154.429961 161.098164 
L 162.513814 151.096565 
L 174.818189 151.685582 
L 185.553171 146.382553 
L 197.245312 140.927236 
L 209.56847 141.185668 
L 221.748347 143.26328 
L 233.099271 148.136882 
L 245.37899 150.96494 
L 257.984468 154.680141 
L 271.115248 159.29408 
L 281.333473 168.180391 
L 295.861793 174.605958 
L 307.524964 184.796774 
L 303.480872 202.386167 
L 298.608461 217.692228 
L 294.686908 230.844448 
L 289.771858 242.676 
L 283.658635 253.168477 
L 278.808662 262.77956 
L 273.030283 271.417448 
L 268.528225 280.088159 
L 263.398761 288.338428 
L 256.615062 295.273008 
L 251.214768 303.594922 
L 245.241867 312.211014 
L 235.138384 314.875215 
L 224.842715 315.44437 
L 216.190733 319.540591 
L 206.853633 321.80764 
L 197.245312 325.645527 
L 187.44622 323.378791 
L 177.549651 322.584441 
L 167.381404 321.420654 
L 158.206538 317.05817 
L 149.784742 311.434506 
L 144.668487 302.022968 
L 137.738871 295.394107 
L 133.947409 286.367388 
L 126.824802 279.635535 
L 124.989195 270.079131 
L 117.277768 262.38623 
L 115.78716 252.56681 
L 111.840876 242.676 
L 113.853435 232.550393 
L 116.302554 222.725402 
L 121.232674 213.848209 
L 121.380889 202.859279 
L 127.159228 194.299069 
L 134.344361 186.95062 
L 139.541994 177.542418 
L 146.983791 169.859615 
L 155.264486 162.688217 
L 164.683184 156.816722 
L 175.094977 152.808556 
L 186.602419 155.023886 
L 197.245312 149.479855 
L 209.212606 144.11647 
L 220.204161 149.528291 
L 231.555888 152.206446 
L 241.644846 158.079757 
L 252.278826 162.946191 
L 262.920932 168.54355 
L 270.603176 177.686604 
L 274.019382 189.682686 
L 282.730908 197.809698 
L 289.023957 207.868951 
L 287.171861 220.511097 
L 288.281445 231.622212 
L 285.449894 242.676 
L 284.927641 253.322562 
L 286.964997 264.789916 
L 281.368622 274.579763 
L 272.867185 282.365421 
L 266.680132 290.603395 
L 261.51318 299.612363 
L 255.231193 308.128529 
L 244.446535 311.058777 
L 235.91633 316.357468 
L 225.814075 318.005635 
L 216.853567 322.229818 
L 207.649741 328.364175 
L 197.245312 325.615091 
L 187.116037 326.098092 
L 178.409151 319.097312 
L 164.801905 328.222234 
L 158.616728 316.276618 
L 151.790362 308.528865 
L 144.507023 302.205223 
L 137.624962 295.495022 
L 127.534958 290.793584 
L 128.441805 278.786866 
L 122.05797 271.190798 
L 121.001312 261.468458 
L 114.125365 252.768589 
L 114.549712 242.676 
L 109.260839 231.992751 
L 112.165282 221.705656 
L 115.654809 211.732804 
L 120.275937 202.279355 
L 121.723674 190.547177 
L 127.53256 180.91589 
L 136.231975 173.806179 
L 144.597795 166.402903 
L 154.557261 161.340714 
L 163.129008 152.718699 
L 173.55079 146.543545 
L 186.136494 151.186651 
L 197.245312 148.231964 
L 197.245312 148.231964 
" style="fill:none;stroke:#1f77b4;stroke-dasharray:0.5,0.825;stroke-dashoffset:0;stroke-width:0.5;"/>
   </g>
   <g id="line2d_19">
    <path clip-path="url(#p453b949695)" d="M 197.245312 148.231964 
L 209.355057 141.006724 
L 219.814949 149.276651 
L 229.526795 155.768607 
L 241.219007 157.00144 
L 251.587463 161.995879 
L 260.788074 168.943271 
L 263.695463 181.886221 
L 273.856207 187.705784 
L 280.059872 197.020378 
L 288.009202 205.865861 
L 303.35235 213.682198 
L 331.443536 222.64253 
L 351.946253 238.089682 
L 348.280298 256.140474 
L 325.553497 269.683887 
L 309.983005 280.790092 
L 290.202991 286.958187 
L 274.172809 291.240203 
L 262.878493 295.932147 
L 255.970643 303.168124 
L 247.702046 308.769852 
L 238.756874 312.963272 
L 230.238297 317.574612 
L 221.21045 321.154857 
L 211.561094 322.330067 
L 202.001809 322.826115 
L 192.523074 322.248839 
L 183.634822 318.405779 
L 173.484625 320.485341 
L 164.534529 316.933977 
L 156.352864 311.91499 
L 137.978966 320.309665 
L 136.69674 305.046218 
L 132.604784 295.126689 
L 127.961665 286.414653 
L 121.900957 278.56774 
L 118.790259 269.199899 
L 111.140632 260.800373 
L 106.236275 250.789278 
L 105.307015 239.950365 
L 100.254133 228.196897 
L 96.012035 215.013955 
L 93.253249 200.501052 
L 101.583435 189.937658 
L 108.71497 179.153284 
L 122.351344 174.161666 
L 129.589558 164.170703 
L 137.224101 153.564352 
L 147.00356 144.789295 
L 155.817763 131.145797 
L 169.599831 128.271413 
L 182.475312 118.672124 
L 197.245312 116.547709 
" style="fill:none;stroke:#d62728;stroke-linecap:square;stroke-width:1.5;"/>
   </g>
   <g id="line2d_20">
    <path clip-path="url(#p453b949695)" d="M 197.245312 116.547709 
L 211.81553 126.344014 
L 226.234906 128.76162 
L 238.544364 137.384292 
L 250.407387 144.990521 
L 260.288318 154.925299 
L 270.249646 163.931335 
L 271.988455 179.898128 
L 276.603854 191.359339 
L 286.204041 199.768339 
L 285.020139 213.118484 
L 288.042798 224.249867 
L 293.695651 235.368535 
L 293.369683 247.387797 
L 291.28946 259.165801 
L 288.714769 270.787981 
L 283.929139 281.675257 
L 275.213765 290.197264 
L 269.060872 299.802678 
L 260.830104 307.697219 
L 248.905849 310.684137 
L 243.150551 321.92345 
L 231.45118 323.482414 
L 221.027662 326.696943 
L 209.502728 323.103729 
L 199.508144 327.593747 
L 188.80342 328.579725 
L 177.957969 327.903649 
L 168.509838 322.0984 
L 157.036526 321.490339 
L 146.733007 317.091136 
L 140.34777 307.424609 
L 131.421124 301.022635 
L 123.876844 292.940418 
L 120.065559 282.470389 
L 109.260252 274.938379 
L 111.211761 262.535315 
L 110.137341 251.614892 
L 104.224561 240.597805 
L 105.324389 229.0715 
L 108.284802 217.908512 
L 106.801608 204.848749 
L 108.507461 191.782073 
" style="fill:none;stroke:#2ca02c;stroke-linecap:square;stroke-width:3;"/>
   </g>
   <g id="patch_3">
    <path d="M 197.245312 75.276 
C 175.262546 75.276 153.493534 79.606126 133.184106 88.018566 
C 112.874678 96.431007 94.419801 108.762162 78.875637 124.306325 
C 63.331474 139.850488 51.000319 158.305365 42.587879 178.614793 
C 34.175438 198.924222 29.845312 220.693233 29.845312 242.676 
C 29.845312 264.658767 34.175438 286.427778 42.587879 306.737207 
C 51.000319 327.046635 63.331474 345.501512 78.875637 361.045675 
C 94.419801 376.589838 112.874678 388.920993 133.184106 397.333434 
C 153.493534 405.745874 175.262546 410.076 197.245312 410.076 
C 219.228079 410.076 240.997091 405.745874 261.306519 397.333434 
C 281.615947 388.920993 300.070824 376.589838 315.614988 361.045675 
C 331.159151 345.501512 343.490306 327.046635 351.902746 306.737207 
C 360.315187 286.427778 364.645312 264.658767 364.645312 242.676 
C 364.645312 220.693233 360.315187 198.924222 351.902746 178.614793 
C 343.490306 158.305365 331.159151 139.850488 315.614988 124.306325 
C 300.070824 108.762162 281.615947 96.431007 261.306519 88.018566 
C 240.997091 79.606126 219.228079 75.276 197.245312 75.276 
" style="fill:none;stroke:#000000;stroke-linecap:square;stroke-linejoin:miter;stroke-width:0.8;"/>
   </g>
   <g id="text_18">
    <!-- 2021 -->
    <g transform="translate(174.340312 241.915091)scale(0.18 -0.18)">
     <use xlink:href="#DejaVuSans-32"/>
     <use x="63.623047" xlink:href="#DejaVuSans-30"/>
     <use x="127.246094" xlink:href="#DejaVuSans-32"/>
     <use x="190.869141" xlink:href="#DejaVuSans-31"/>
    </g>
   </g>
   <g id="text_19">
    <!-- Totaal mannen en vrouwen, Totaal leeftijd -->
    <g transform="translate(92.875 35.796)scale(0.1 -0.1)">
     <defs>
      <path d="M -19 4666 
L 3928 4666 
L 3928 4134 
L 2272 4134 
L 2272 0 
L 1638 0 
L 1638 4134 
L -19 4134 
L -19 4666 
z
" id="DejaVuSans-54" transform="scale(0.015625)"/>
      <path id="DejaVuSans-20" transform="scale(0.015625)"/>
      <path d="M 3328 2828 
Q 3544 3216 3844 3400 
Q 4144 3584 4550 3584 
Q 5097 3584 5394 3201 
Q 5691 2819 5691 2113 
L 5691 0 
L 5113 0 
L 5113 2094 
Q 5113 2597 4934 2840 
Q 4756 3084 4391 3084 
Q 3944 3084 3684 2787 
Q 3425 2491 3425 1978 
L 3425 0 
L 2847 0 
L 2847 2094 
Q 2847 2600 2669 2842 
Q 2491 3084 2119 3084 
Q 1678 3084 1418 2786 
Q 1159 2488 1159 1978 
L 1159 0 
L 581 0 
L 581 3500 
L 1159 3500 
L 1159 2956 
Q 1356 3278 1631 3431 
Q 1906 3584 2284 3584 
Q 2666 3584 2933 3390 
Q 3200 3197 3328 2828 
z
" id="DejaVuSans-6d" transform="scale(0.015625)"/>
      <path d="M 269 3500 
L 844 3500 
L 1563 769 
L 2278 3500 
L 2956 3500 
L 3675 769 
L 4391 3500 
L 4966 3500 
L 4050 0 
L 3372 0 
L 2619 2869 
L 1863 0 
L 1184 0 
L 269 3500 
z
" id="DejaVuSans-77" transform="scale(0.015625)"/>
      <path d="M 750 794 
L 1409 794 
L 1409 256 
L 897 -744 
L 494 -744 
L 750 256 
L 750 794 
z
" id="DejaVuSans-2c" transform="scale(0.015625)"/>
      <path d="M 2375 4863 
L 2375 4384 
L 1825 4384 
Q 1516 4384 1395 4259 
Q 1275 4134 1275 3809 
L 1275 3500 
L 2222 3500 
L 2222 3053 
L 1275 3053 
L 1275 0 
L 697 0 
L 697 3053 
L 147 3053 
L 147 3500 
L 697 3500 
L 697 3744 
Q 697 4328 969 4595 
Q 1241 4863 1831 4863 
L 2375 4863 
z
" id="DejaVuSans-66" transform="scale(0.015625)"/>
      <path d="M 603 3500 
L 1178 3500 
L 1178 0 
L 603 0 
L 603 3500 
z
M 603 4863 
L 1178 4863 
L 1178 4134 
L 603 4134 
L 603 4863 
z
" id="DejaVuSans-69" transform="scale(0.015625)"/>
      <path d="M 603 3500 
L 1178 3500 
L 1178 -63 
Q 1178 -731 923 -1031 
Q 669 -1331 103 -1331 
L -116 -1331 
L -116 -844 
L 38 -844 
Q 366 -844 484 -692 
Q 603 -541 603 -63 
L 603 3500 
z
M 603 4863 
L 1178 4863 
L 1178 4134 
L 603 4134 
L 603 4863 
z
" id="DejaVuSans-6a" transform="scale(0.015625)"/>
      <path d="M 2906 2969 
L 2906 4863 
L 3481 4863 
L 3481 0 
L 2906 0 
L 2906 525 
Q 2725 213 2448 61 
Q 2172 -91 1784 -91 
Q 1150 -91 751 415 
Q 353 922 353 1747 
Q 353 2572 751 3078 
Q 1150 3584 1784 3584 
Q 2172 3584 2448 3432 
Q 2725 3281 2906 2969 
z
M 947 1747 
Q 947 1113 1208 752 
Q 1469 391 1925 391 
Q 2381 391 2643 752 
Q 2906 1113 2906 1747 
Q 2906 2381 2643 2742 
Q 2381 3103 1925 3103 
Q 1469 3103 1208 2742 
Q 947 2381 947 1747 
z
" id="DejaVuSans-64" transform="scale(0.015625)"/>
     </defs>
     <use xlink:href="#DejaVuSans-54"/>
     <use x="44.083984" xlink:href="#DejaVuSans-6f"/>
     <use x="105.265625" xlink:href="#DejaVuSans-74"/>
     <use x="144.474609" xlink:href="#DejaVuSans-61"/>
     <use x="205.753906" xlink:href="#DejaVuSans-61"/>
     <use x="267.033203" xlink:href="#DejaVuSans-6c"/>
     <use x="294.816406" xlink:href="#DejaVuSans-20"/>
     <use x="326.603516" xlink:href="#DejaVuSans-6d"/>
     <use x="424.015625" xlink:href="#DejaVuSans-61"/>
     <use x="485.294922" xlink:href="#DejaVuSans-6e"/>
     <use x="548.673828" xlink:href="#DejaVuSans-6e"/>
     <use x="612.052734" xlink:href="#DejaVuSans-65"/>
     <use x="673.576172" xlink:href="#DejaVuSans-6e"/>
     <use x="736.955078" xlink:href="#DejaVuSans-20"/>
     <use x="768.742188" xlink:href="#DejaVuSans-65"/>
     <use x="830.265625" xlink:href="#DejaVuSans-6e"/>
     <use x="893.644531" xlink:href="#DejaVuSans-20"/>
     <use x="925.431641" xlink:href="#DejaVuSans-76"/>
     <use x="984.611328" xlink:href="#DejaVuSans-72"/>
     <use x="1023.474609" xlink:href="#DejaVuSans-6f"/>
     <use x="1084.65625" xlink:href="#DejaVuSans-75"/>
     <use x="1148.035156" xlink:href="#DejaVuSans-77"/>
     <use x="1229.822266" xlink:href="#DejaVuSans-65"/>
     <use x="1291.345703" xlink:href="#DejaVuSans-6e"/>
     <use x="1354.724609" xlink:href="#DejaVuSans-2c"/>
     <use x="1386.511719" xlink:href="#DejaVuSans-20"/>
     <use x="1418.298828" xlink:href="#DejaVuSans-54"/>
     <use x="1462.382812" xlink:href="#DejaVuSans-6f"/>
     <use x="1523.564453" xlink:href="#DejaVuSans-74"/>
     <use x="1562.773438" xlink:href="#DejaVuSans-61"/>
     <use x="1624.052734" xlink:href="#DejaVuSans-61"/>
     <use x="1685.332031" xlink:href="#DejaVuSans-6c"/>
     <use x="1713.115234" xlink:href="#DejaVuSans-20"/>
     <use x="1744.902344" xlink:href="#DejaVuSans-6c"/>
     <use x="1772.685547" xlink:href="#DejaVuSans-65"/>
     <use x="1834.208984" xlink:href="#DejaVuSans-65"/>
     <use x="1895.732422" xlink:href="#DejaVuSans-66"/>
     <use x="1929.1875" xlink:href="#DejaVuSans-74"/>
     <use x="1968.396484" xlink:href="#DejaVuSans-69"/>
     <use x="1996.179688" xlink:href="#DejaVuSans-6a"/>
     <use x="2023.962891" xlink:href="#DejaVuSans-64"/>
    </g>
   </g>
  </g>
  <g id="text_20">
   <!-- Deaths in the Netherlands per week -->
   <g transform="translate(70.531656 17.837812)scale(0.14 -0.14)">
    <defs>
     <path d="M 3513 2113 
L 3513 0 
L 2938 0 
L 2938 2094 
Q 2938 2591 2744 2837 
Q 2550 3084 2163 3084 
Q 1697 3084 1428 2787 
Q 1159 2491 1159 1978 
L 1159 0 
L 581 0 
L 581 4863 
L 1159 4863 
L 1159 2956 
Q 1366 3272 1645 3428 
Q 1925 3584 2291 3584 
Q 2894 3584 3203 3211 
Q 3513 2838 3513 2113 
z
" id="DejaVuSans-68" transform="scale(0.015625)"/>
     <path d="M 2834 3397 
L 2834 2853 
Q 2591 2978 2328 3040 
Q 2066 3103 1784 3103 
Q 1356 3103 1142 2972 
Q 928 2841 928 2578 
Q 928 2378 1081 2264 
Q 1234 2150 1697 2047 
L 1894 2003 
Q 2506 1872 2764 1633 
Q 3022 1394 3022 966 
Q 3022 478 2636 193 
Q 2250 -91 1575 -91 
Q 1294 -91 989 -36 
Q 684 19 347 128 
L 347 722 
Q 666 556 975 473 
Q 1284 391 1588 391 
Q 1994 391 2212 530 
Q 2431 669 2431 922 
Q 2431 1156 2273 1281 
Q 2116 1406 1581 1522 
L 1381 1569 
Q 847 1681 609 1914 
Q 372 2147 372 2553 
Q 372 3047 722 3315 
Q 1072 3584 1716 3584 
Q 2034 3584 2315 3537 
Q 2597 3491 2834 3397 
z
" id="DejaVuSans-73" transform="scale(0.015625)"/>
     <path d="M 581 4863 
L 1159 4863 
L 1159 1991 
L 2875 3500 
L 3609 3500 
L 1753 1863 
L 3688 0 
L 2938 0 
L 1159 1709 
L 1159 0 
L 581 0 
L 581 4863 
z
" id="DejaVuSans-6b" transform="scale(0.015625)"/>
    </defs>
    <use xlink:href="#DejaVuSans-44"/>
    <use x="77.001953" xlink:href="#DejaVuSans-65"/>
    <use x="138.525391" xlink:href="#DejaVuSans-61"/>
    <use x="199.804688" xlink:href="#DejaVuSans-74"/>
    <use x="239.013672" xlink:href="#DejaVuSans-68"/>
    <use x="302.392578" xlink:href="#DejaVuSans-73"/>
    <use x="354.492188" xlink:href="#DejaVuSans-20"/>
    <use x="386.279297" xlink:href="#DejaVuSans-69"/>
    <use x="414.0625" xlink:href="#DejaVuSans-6e"/>
    <use x="477.441406" xlink:href="#DejaVuSans-20"/>
    <use x="509.228516" xlink:href="#DejaVuSans-74"/>
    <use x="548.4375" xlink:href="#DejaVuSans-68"/>
    <use x="611.816406" xlink:href="#DejaVuSans-65"/>
    <use x="673.339844" xlink:href="#DejaVuSans-20"/>
    <use x="705.126953" xlink:href="#DejaVuSans-4e"/>
    <use x="779.931641" xlink:href="#DejaVuSans-65"/>
    <use x="841.455078" xlink:href="#DejaVuSans-74"/>
    <use x="880.664062" xlink:href="#DejaVuSans-68"/>
    <use x="944.042969" xlink:href="#DejaVuSans-65"/>
    <use x="1005.566406" xlink:href="#DejaVuSans-72"/>
    <use x="1046.679688" xlink:href="#DejaVuSans-6c"/>
    <use x="1074.462891" xlink:href="#DejaVuSans-61"/>
    <use x="1135.742188" xlink:href="#DejaVuSans-6e"/>
    <use x="1199.121094" xlink:href="#DejaVuSans-64"/>
    <use x="1262.597656" xlink:href="#DejaVuSans-73"/>
    <use x="1314.697266" xlink:href="#DejaVuSans-20"/>
    <use x="1346.484375" xlink:href="#DejaVuSans-70"/>
    <use x="1409.960938" xlink:href="#DejaVuSans-65"/>
    <use x="1471.484375" xlink:href="#DejaVuSans-72"/>
    <use x="1512.597656" xlink:href="#DejaVuSans-20"/>
    <use x="1544.384766" xlink:href="#DejaVuSans-77"/>
    <use x="1626.171875" xlink:href="#DejaVuSans-65"/>
    <use x="1687.695312" xlink:href="#DejaVuSans-65"/>
    <use x="1749.21875" xlink:href="#DejaVuSans-6b"/>
   </g>
  </g>
  <g id="legend_1">
   <g id="patch_4">
    <path d="M 321.7215 441.872 
L 408.229312 441.872 
Q 410.229312 441.872 410.229312 439.872 
L 410.229312 396.837625 
Q 410.229312 394.837625 408.229312 394.837625 
L 321.7215 394.837625 
Q 319.7215 394.837625 319.7215 396.837625 
L 319.7215 439.872 
Q 319.7215 441.872 321.7215 441.872 
z
" style="fill:#ffffff;opacity:0.8;stroke:#cccccc;stroke-linejoin:miter;"/>
   </g>
   <g id="line2d_21">
    <path d="M 323.7215 402.936062 
L 343.7215 402.936062 
" style="fill:none;stroke:#1f77b4;stroke-dasharray:0.5,0.825;stroke-dashoffset:0;stroke-width:0.5;"/>
   </g>
   <g id="line2d_22"/>
   <g id="text_21">
    <!-- 2011-2019 -->
    <g transform="translate(351.7215 406.436062)scale(0.1 -0.1)">
     <defs>
      <path d="M 313 2009 
L 1997 2009 
L 1997 1497 
L 313 1497 
L 313 2009 
z
" id="DejaVuSans-2d" transform="scale(0.015625)"/>
      <path d="M 703 97 
L 703 672 
Q 941 559 1184 500 
Q 1428 441 1663 441 
Q 2288 441 2617 861 
Q 2947 1281 2994 2138 
Q 2813 1869 2534 1725 
Q 2256 1581 1919 1581 
Q 1219 1581 811 2004 
Q 403 2428 403 3163 
Q 403 3881 828 4315 
Q 1253 4750 1959 4750 
Q 2769 4750 3195 4129 
Q 3622 3509 3622 2328 
Q 3622 1225 3098 567 
Q 2575 -91 1691 -91 
Q 1453 -91 1209 -44 
Q 966 3 703 97 
z
M 1959 2075 
Q 2384 2075 2632 2365 
Q 2881 2656 2881 3163 
Q 2881 3666 2632 3958 
Q 2384 4250 1959 4250 
Q 1534 4250 1286 3958 
Q 1038 3666 1038 3163 
Q 1038 2656 1286 2365 
Q 1534 2075 1959 2075 
z
" id="DejaVuSans-39" transform="scale(0.015625)"/>
     </defs>
     <use xlink:href="#DejaVuSans-32"/>
     <use x="63.623047" xlink:href="#DejaVuSans-30"/>
     <use x="127.246094" xlink:href="#DejaVuSans-31"/>
     <use x="190.869141" xlink:href="#DejaVuSans-31"/>
     <use x="254.492188" xlink:href="#DejaVuSans-2d"/>
     <use x="290.576172" xlink:href="#DejaVuSans-32"/>
     <use x="354.199219" xlink:href="#DejaVuSans-30"/>
     <use x="417.822266" xlink:href="#DejaVuSans-31"/>
     <use x="481.445312" xlink:href="#DejaVuSans-39"/>
    </g>
   </g>
   <g id="line2d_23">
    <path d="M 323.7215 417.614188 
L 343.7215 417.614188 
" style="fill:none;stroke:#d62728;stroke-linecap:square;stroke-width:1.5;"/>
   </g>
   <g id="line2d_24"/>
   <g id="text_22">
    <!-- 2020 -->
    <g transform="translate(351.7215 421.114188)scale(0.1 -0.1)">
     <use xlink:href="#DejaVuSans-32"/>
     <use x="63.623047" xlink:href="#DejaVuSans-30"/>
     <use x="127.246094" xlink:href="#DejaVuSans-32"/>
     <use x="190.869141" xlink:href="#DejaVuSans-30"/>
    </g>
   </g>
   <g id="line2d_25">
    <path d="M 323.7215 432.292313 
L 343.7215 432.292313 
" style="fill:none;stroke:#2ca02c;stroke-linecap:square;stroke-width:3;"/>
   </g>
   <g id="line2d_26"/>
   <g id="text_23">
    <!-- 2021 -->
    <g transform="translate(351.7215 435.792313)scale(0.1 -0.1)">
     <use xlink:href="#DejaVuSans-32"/>
     <use x="63.623047" xlink:href="#DejaVuSans-30"/>
     <use x="127.246094" xlink:href="#DejaVuSans-32"/>
     <use x="190.869141" xlink:href="#DejaVuSans-31"/>
    </g>
   </g>
  </g>
 </g>
 <defs>
  <clipPath id="p453b949695">
   <path d="M 364.645312 242.676 
C 364.645312 220.693233 360.315187 198.924222 351.902746 178.614793 
C 343.490306 158.305365 331.159151 139.850488 315.614988 124.306325 
C 300.070824 108.762162 281.615947 96.431007 261.306519 88.018566 
C 240.997091 79.606126 219.228079 75.276 197.245312 75.276 
C 175.262546 75.276 153.493534 79.606126 133.184106 88.018566 
C 112.874678 96.431007 94.419801 108.762162 78.875637 124.306325 
C 63.331474 139.850488 51.000319 158.305365 42.587879 178.614793 
C 34.175438 198.924222 29.845312 220.693233 29.845312 242.676 
C 29.845312 264.658767 34.175438 286.427778 42.587879 306.737207 
C 51.000319 327.046635 63.331474 345.501512 78.875637 361.045675 
C 94.419801 376.589838 112.874678 388.920993 133.184106 397.333434 
C 153.493534 405.745874 175.262546 410.076 197.245312 410.076 
C 219.228079 410.076 240.997091 405.745874 261.306519 397.333434 
C 281.615947 388.920993 300.070824 376.589838 315.614988 361.045675 
C 331.159151 345.501512 343.490306 327.046635 351.902746 306.737207 
C 360.315187 286.427778 364.645312 264.658767 364.645312 242.676 
M 197.245312 242.676 
C 197.245312 242.676 197.245312 242.676 197.245312 242.676 
C 197.245312 242.676 197.245312 242.676 197.245312 242.676 
C 197.245312 242.676 197.245312 242.676 197.245312 242.676 
C 197.245312 242.676 197.245312 242.676 197.245312 242.676 
C 197.245312 242.676 197.245312 242.676 197.245312 242.676 
C 197.245312 242.676 197.245312 242.676 197.245312 242.676 
C 197.245312 242.676 197.245312 242.676 197.245312 242.676 
C 197.245312 242.676 197.245312 242.676 197.245312 242.676 
C 197.245312 242.676 197.245312 242.676 197.245312 242.676 
C 197.245312 242.676 197.245312 242.676 197.245312 242.676 
C 197.245312 242.676 197.245312 242.676 197.245312 242.676 
C 197.245312 242.676 197.245312 242.676 197.245312 242.676 
C 197.245312 242.676 197.245312 242.676 197.245312 242.676 
C 197.245312 242.676 197.245312 242.676 197.245312 242.676 
C 197.245312 242.676 197.245312 242.676 197.245312 242.676 
C 197.245312 242.676 197.245312 242.676 197.245312 242.676 
M 364.645312 242.676 
z
"/>
  </clipPath>
 </defs>
</svg>
