<?xml version="1.0" encoding="utf-8" standalone="no"?>
<!DOCTYPE svg PUBLIC "-//W3C//DTD SVG 1.1//EN"
  "http://www.w3.org/Graphics/SVG/1.1/DTD/svg11.dtd">
<svg xmlns:xlink="http://www.w3.org/1999/xlink" width="498.576296pt" height="460.478822pt" viewBox="0 0 498.576296 460.478822" xmlns="http://www.w3.org/2000/svg" version="1.1">
 <metadata>
  <rdf:RDF xmlns:dc="http://purl.org/dc/elements/1.1/" xmlns:cc="http://creativecommons.org/ns#" xmlns:rdf="http://www.w3.org/1999/02/22-rdf-syntax-ns#">
   <cc:Work>
    <dc:type rdf:resource="http://purl.org/dc/dcmitype/StillImage"/>
    <dc:date>2023-01-31T02:47:54.415497</dc:date>
    <dc:format>image/svg+xml</dc:format>
    <dc:creator>
     <cc:Agent>
      <dc:title>Matplotlib v3.6.3, https://matplotlib.org/</dc:title>
     </cc:Agent>
    </dc:creator>
   </cc:Work>
  </rdf:RDF>
 </metadata>
 <defs>
  <style type="text/css">*{stroke-linejoin: round; stroke-linecap: butt}</style>
 </defs>
 <g id="figure_1">
  <g id="patch_1">
   <path d="M 0 460.478822 
L 498.576296 460.478822 
L 498.576296 0 
L 0 0 
z
" style="fill: #ffffff"/>
  </g>
  <g id="axes_1">
   <g id="patch_2">
    <path d="M 386.90728 255.908776 
C 386.90728 232.464302 382.28923 209.247796 373.317419 187.587926 
C 364.345607 165.928057 351.194512 146.246053 334.616766 129.668307 
C 318.039019 113.09056 298.357016 99.939466 276.697146 90.967654 
C 255.037277 81.995842 231.820771 77.377792 208.376296 77.377792 
C 184.931822 77.377792 161.715316 81.995842 140.055447 90.967654 
C 118.395577 99.939466 98.713574 113.09056 82.135827 129.668307 
C 65.558081 146.246053 52.406986 165.928057 43.435174 187.587926 
C 34.463363 209.247796 29.845312 232.464302 29.845312 255.908776 
C 29.845312 279.35325 34.463363 302.569756 43.435174 324.229626 
C 52.406986 345.889495 65.558081 365.571499 82.135827 382.149245 
C 98.713574 398.726992 118.395577 411.878086 140.055447 420.849898 
C 161.715316 429.82171 184.931822 434.43976 208.376296 434.43976 
C 231.820771 434.43976 255.037277 429.82171 276.697146 420.849898 
C 298.357016 411.878086 318.039019 398.726992 334.616766 382.149245 
C 351.194512 365.571499 364.345607 345.889495 373.317419 324.229626 
C 382.28923 302.569756 386.90728 279.35325 386.90728 255.908776 
M 208.376296 255.908776 
C 208.376296 255.908776 208.376296 255.908776 208.376296 255.908776 
C 208.376296 255.908776 208.376296 255.908776 208.376296 255.908776 
C 208.376296 255.908776 208.376296 255.908776 208.376296 255.908776 
C 208.376296 255.908776 208.376296 255.908776 208.376296 255.908776 
C 208.376296 255.908776 208.376296 255.908776 208.376296 255.908776 
C 208.376296 255.908776 208.376296 255.908776 208.376296 255.908776 
C 208.376296 255.908776 208.376296 255.908776 208.376296 255.908776 
C 208.376296 255.908776 208.376296 255.908776 208.376296 255.908776 
C 208.376296 255.908776 208.376296 255.908776 208.376296 255.908776 
C 208.376296 255.908776 208.376296 255.908776 208.376296 255.908776 
C 208.376296 255.908776 208.376296 255.908776 208.376296 255.908776 
C 208.376296 255.908776 208.376296 255.908776 208.376296 255.908776 
C 208.376296 255.908776 208.376296 255.908776 208.376296 255.908776 
C 208.376296 255.908776 208.376296 255.908776 208.376296 255.908776 
C 208.376296 255.908776 208.376296 255.908776 208.376296 255.908776 
C 208.376296 255.908776 208.376296 255.908776 208.376296 255.908776 
M 386.90728 255.908776 
z
" style="fill: #ffffff"/>
   </g>
   <g id="PolyCollection_1">
    <defs>
     <path id="m9be8e39428" d="M 208.376296 -317.051084 
L 208.376296 -338.470198 
L 224.621689 -338.362887 
L 240.120373 -333.360828 
L 256.120846 -330.462076 
L 270.916466 -323.730384 
L 284.359279 -314.650401 
L 298.807994 -306.646332 
L 311.494978 -295.925226 
L 321.009761 -282.315314 
L 332.367125 -269.645453 
L 334.658351 -252.462513 
L 335.462434 -235.893966 
L 336.19471 -220.090012 
L 334.059285 -204.570046 
L 331.024416 -189.677869 
L 323.962603 -176.080581 
L 317.087274 -163.341411 
L 308.957467 -151.780976 
L 303.406578 -138.975379 
L 292.74043 -129.829946 
L 282.450457 -120.957604 
L 271.346006 -113.342673 
L 259.077117 -107.967704 
L 247.209808 -102.174492 
L 234.97119 -96.670322 
L 221.87618 -93.388507 
L 208.376296 -92.560956 
L 195.005021 -94.447686 
L 181.14112 -94.072591 
L 167.594441 -97.037132 
L 157.805941 -108.216284 
L 146.376062 -114.7472 
L 136.063873 -122.946194 
L 126.569573 -132.095613 
L 118.563533 -142.576772 
L 113.167227 -154.600472 
L 107.543387 -166.329168 
L 101.467983 -178.219514 
L 95.35206 -190.84642 
L 92.410983 -204.570046 
L 90.877703 -218.836959 
L 94.062735 -232.745809 
L 97.81645 -246.499865 
L 105.133011 -258.756303 
L 111.567189 -271.392549 
L 119.150523 -283.617184 
L 127.413114 -295.958588 
L 138.722547 -305.480923 
L 149.465434 -316.815318 
L 160.272321 -331.409805 
L 175.361349 -338.516955 
L 191.87403 -340.478437 
L 208.376296 -338.470198 
L 208.376296 -317.051084 
L 208.376296 -317.051084 
L 195.703912 -308.936521 
L 182.839137 -308.178374 
L 170.194073 -305.248297 
L 159.115841 -298.428004 
L 148.131426 -291.84981 
L 139.803563 -281.972662 
L 131.698954 -272.500244 
L 125.126129 -262.033488 
L 119.073508 -251.439765 
L 114.412692 -240.205741 
L 111.876654 -228.355072 
L 108.610168 -216.683848 
L 110.103996 -204.570046 
L 112.018253 -192.870062 
L 114.505795 -181.433046 
L 118.731992 -170.572446 
L 122.43803 -159.466165 
L 130.065678 -150.51613 
L 138.466394 -142.635278 
L 145.710413 -133.834887 
L 155.079062 -127.355672 
L 164.821685 -121.583668 
L 174.344385 -114.835271 
L 185.566465 -112.026924 
L 196.757742 -108.882641 
L 208.376296 -101.91602 
L 220.134858 -107.729582 
L 231.341425 -111.396857 
L 242.438512 -114.755366 
L 254.21356 -117.234438 
L 265.136841 -122.338202 
L 274.584119 -129.836864 
L 283.156723 -138.32037 
L 292.894855 -146.231098 
L 296.516078 -158.310721 
L 304.525933 -168.105299 
L 309.282112 -179.698997 
L 310.424302 -192.179175 
L 311.138425 -204.570046 
L 314.303423 -217.431928 
L 311.331857 -229.946313 
L 309.106505 -242.771976 
L 305.073972 -255.320902 
L 298.528381 -266.797538 
L 293.487718 -279.972186 
L 282.870261 -288.65635 
L 272.677432 -297.726324 
L 260.21787 -303.345913 
L 247.45244 -307.60537 
L 234.692437 -311.338827 
L 221.859301 -315.612576 
L 208.376296 -317.051084 
z
" style="stroke: #1f77b4; stroke-opacity: 0.3"/>
    </defs>
    <g clip-path="url(#p3162cd17de)">
     <use xlink:href="#m9be8e39428" x="0" y="460.478822" style="fill: #1f77b4; fill-opacity: 0.3; stroke: #1f77b4; stroke-opacity: 0.3"/>
    </g>
   </g>
   <g id="PolyCollection_2">
    <path d="M 208.376296 114.381848 
L 208.376296 146.193674 
L 221.634459 146.717986 
L 233.284889 154.850643 
L 245.228227 158.738221 
L 258.294302 160.797963 
L 268.651108 168.585636 
L 277.316907 178.090914 
L 287.084863 186.179071 
L 296.058522 195.386106 
L 303.697842 205.88017 
L 307.994659 218.128514 
L 310.897924 230.639464 
L 310.203698 243.544691 
L 306.429706 255.908776 
L 310.085568 268.258517 
L 307.77837 280.409187 
L 303.692451 292.057425 
L 297.16512 302.508745 
L 293.446989 314.628835 
L 283.343905 322.324282 
L 273.739676 329.688779 
L 264.189645 336.768371 
L 254.073023 342.976614 
L 241.739953 343.881507 
L 231.28195 348.840664 
L 220.247922 353.680407 
L 208.376296 356.381789 
L 196.66245 352.380985 
L 185.964259 346.837988 
L 175.828446 341.730403 
L 166.181941 336.303403 
L 155.289397 332.818427 
L 144.854139 327.610469 
L 140.771843 315.801096 
L 131.009627 309.311132 
L 122.924078 300.75756 
L 122.665933 288.414429 
L 116.330207 278.596099 
L 115.093577 267.235349 
L 110.243555 255.908776 
L 108.47834 243.778968 
L 110.437717 231.769084 
L 114.840366 220.435277 
L 121.65968 210.396385 
L 126.667953 199.509579 
L 133.586829 189.651089 
L 141.513637 180.436435 
L 147.064984 167.084005 
L 160.48598 164.661401 
L 171.946335 159.850861 
L 181.920409 148.573022 
L 195.983525 153.845116 
L 208.376296 146.193674 
L 208.376296 114.381848 
L 208.376296 114.381848 
L 188.783095 94.54424 
L 168.697212 94.924402 
L 152.324792 108.113104 
L 141.923413 129.293385 
L 131.202005 144.102513 
L 118.840304 154.843532 
L 113.189701 171.580811 
L 104.894295 184.480308 
L 95.072204 196.442201 
L 85.763375 209.407829 
L 78.780024 223.966164 
L 78.119126 240.092692 
L 77.202095 255.908776 
L 82.411155 271.203713 
L 92.221064 284.538469 
L 103.862318 295.5457 
L 105.222509 310.04806 
L 111.618993 322.69552 
L 118.147955 335.844112 
L 127.44144 347.265343 
L 141.116367 353.351607 
L 153.831475 359.835251 
L 164.308702 372.105474 
L 178.104383 378.726759 
L 193.607287 377.542512 
L 208.376296 373.834661 
L 223.207461 378.054406 
L 238.145102 376.685569 
L 250.741951 367.617826 
L 262.626182 359.273297 
L 275.117975 352.600791 
L 285.260464 342.693061 
L 299.139061 336.317569 
L 310.454598 326.36834 
L 318.273539 313.587298 
L 324.869698 300.088896 
L 332.965878 286.61735 
L 346.784384 272.71456 
L 350.180884 255.908776 
L 348.753205 238.863933 
L 348.217029 221.441131 
L 346.825793 203.401808 
L 352.09618 180.478762 
L 336.896372 167.197773 
L 317.962611 158.823773 
L 304.645901 147.242856 
L 287.53346 141.229827 
L 274.257741 130.382172 
L 259.378243 121.427696 
L 241.477006 121.613917 
L 225.765383 112.696766 
L 208.376296 114.381848 
z
" clip-path="url(#p3162cd17de)" style="fill: #1f77b4; fill-opacity: 0.2"/>
   </g>
   <g id="matplotlib.axis_1">
    <g id="xtick_1">
     <g id="line2d_1">
      <path d="M 208.376296 255.908776 
L 208.376296 77.377792 
" clip-path="url(#p3162cd17de)" style="fill: none; stroke: #b0b0b0; stroke-width: 0.8; stroke-linecap: square"/>
     </g>
     <g id="text_1">
      <!-- Jan -->
      <g transform="translate(200.668484 66.137167) scale(0.1 -0.1)">
       <defs>
        <path id="DejaVuSans-4a" d="M 628 4666 
L 1259 4666 
L 1259 325 
Q 1259 -519 939 -900 
Q 619 -1281 -91 -1281 
L -331 -1281 
L -331 -750 
L -134 -750 
Q 284 -750 456 -515 
Q 628 -281 628 325 
L 628 4666 
z
" transform="scale(0.015625)"/>
        <path id="DejaVuSans-61" d="M 2194 1759 
Q 1497 1759 1228 1600 
Q 959 1441 959 1056 
Q 959 750 1161 570 
Q 1363 391 1709 391 
Q 2188 391 2477 730 
Q 2766 1069 2766 1631 
L 2766 1759 
L 2194 1759 
z
M 3341 1997 
L 3341 0 
L 2766 0 
L 2766 531 
Q 2569 213 2275 61 
Q 1981 -91 1556 -91 
Q 1019 -91 701 211 
Q 384 513 384 1019 
Q 384 1609 779 1909 
Q 1175 2209 1959 2209 
L 2766 2209 
L 2766 2266 
Q 2766 2663 2505 2880 
Q 2244 3097 1772 3097 
Q 1472 3097 1187 3025 
Q 903 2953 641 2809 
L 641 3341 
Q 956 3463 1253 3523 
Q 1550 3584 1831 3584 
Q 2591 3584 2966 3190 
Q 3341 2797 3341 1997 
z
" transform="scale(0.015625)"/>
        <path id="DejaVuSans-6e" d="M 3513 2113 
L 3513 0 
L 2938 0 
L 2938 2094 
Q 2938 2591 2744 2837 
Q 2550 3084 2163 3084 
Q 1697 3084 1428 2787 
Q 1159 2491 1159 1978 
L 1159 0 
L 581 0 
L 581 3500 
L 1159 3500 
L 1159 2956 
Q 1366 3272 1645 3428 
Q 1925 3584 2291 3584 
Q 2894 3584 3203 3211 
Q 3513 2838 3513 2113 
z
" transform="scale(0.015625)"/>
       </defs>
       <use xlink:href="#DejaVuSans-4a"/>
       <use xlink:href="#DejaVuSans-61" x="29.492188"/>
       <use xlink:href="#DejaVuSans-6e" x="90.771484"/>
      </g>
     </g>
    </g>
    <g id="xtick_2">
     <g id="line2d_2">
      <path d="M 208.376296 255.908776 
L 297.641788 101.296408 
" clip-path="url(#p3162cd17de)" style="fill: none; stroke: #b0b0b0; stroke-width: 0.8; stroke-linecap: square"/>
     </g>
     <g id="text_2">
      <!-- Feb -->
      <g transform="translate(295.790226 91.931428) scale(0.1 -0.1)">
       <defs>
        <path id="DejaVuSans-46" d="M 628 4666 
L 3309 4666 
L 3309 4134 
L 1259 4134 
L 1259 2759 
L 3109 2759 
L 3109 2228 
L 1259 2228 
L 1259 0 
L 628 0 
L 628 4666 
z
" transform="scale(0.015625)"/>
        <path id="DejaVuSans-65" d="M 3597 1894 
L 3597 1613 
L 953 1613 
Q 991 1019 1311 708 
Q 1631 397 2203 397 
Q 2534 397 2845 478 
Q 3156 559 3463 722 
L 3463 178 
Q 3153 47 2828 -22 
Q 2503 -91 2169 -91 
Q 1331 -91 842 396 
Q 353 884 353 1716 
Q 353 2575 817 3079 
Q 1281 3584 2069 3584 
Q 2775 3584 3186 3129 
Q 3597 2675 3597 1894 
z
M 3022 2063 
Q 3016 2534 2758 2815 
Q 2500 3097 2075 3097 
Q 1594 3097 1305 2825 
Q 1016 2553 972 2059 
L 3022 2063 
z
" transform="scale(0.015625)"/>
        <path id="DejaVuSans-62" d="M 3116 1747 
Q 3116 2381 2855 2742 
Q 2594 3103 2138 3103 
Q 1681 3103 1420 2742 
Q 1159 2381 1159 1747 
Q 1159 1113 1420 752 
Q 1681 391 2138 391 
Q 2594 391 2855 752 
Q 3116 1113 3116 1747 
z
M 1159 2969 
Q 1341 3281 1617 3432 
Q 1894 3584 2278 3584 
Q 2916 3584 3314 3078 
Q 3713 2572 3713 1747 
Q 3713 922 3314 415 
Q 2916 -91 2278 -91 
Q 1894 -91 1617 61 
Q 1341 213 1159 525 
L 1159 0 
L 581 0 
L 581 4863 
L 1159 4863 
L 1159 2969 
z
" transform="scale(0.015625)"/>
       </defs>
       <use xlink:href="#DejaVuSans-46"/>
       <use xlink:href="#DejaVuSans-65" x="52.019531"/>
       <use xlink:href="#DejaVuSans-62" x="113.542969"/>
      </g>
     </g>
    </g>
    <g id="xtick_3">
     <g id="line2d_3">
      <path d="M 208.376296 255.908776 
L 362.988664 166.643284 
" clip-path="url(#p3162cd17de)" style="fill: none; stroke: #b0b0b0; stroke-width: 0.8; stroke-linecap: square"/>
     </g>
     <g id="text_3">
      <!-- Mar -->
      <g transform="translate(365.679426 162.402659) scale(0.1 -0.1)">
       <defs>
        <path id="DejaVuSans-4d" d="M 628 4666 
L 1569 4666 
L 2759 1491 
L 3956 4666 
L 4897 4666 
L 4897 0 
L 4281 0 
L 4281 4097 
L 3078 897 
L 2444 897 
L 1241 4097 
L 1241 0 
L 628 0 
L 628 4666 
z
" transform="scale(0.015625)"/>
        <path id="DejaVuSans-72" d="M 2631 2963 
Q 2534 3019 2420 3045 
Q 2306 3072 2169 3072 
Q 1681 3072 1420 2755 
Q 1159 2438 1159 1844 
L 1159 0 
L 581 0 
L 581 3500 
L 1159 3500 
L 1159 2956 
Q 1341 3275 1631 3429 
Q 1922 3584 2338 3584 
Q 2397 3584 2469 3576 
Q 2541 3569 2628 3553 
L 2631 2963 
z
" transform="scale(0.015625)"/>
       </defs>
       <use xlink:href="#DejaVuSans-4d"/>
       <use xlink:href="#DejaVuSans-61" x="86.279297"/>
       <use xlink:href="#DejaVuSans-72" x="147.558594"/>
      </g>
     </g>
    </g>
    <g id="xtick_4">
     <g id="line2d_4">
      <path d="M 208.376296 255.908776 
L 386.90728 255.908776 
" clip-path="url(#p3162cd17de)" style="fill: none; stroke: #b0b0b0; stroke-width: 0.8; stroke-linecap: square"/>
     </g>
     <g id="text_4">
      <!-- Apr -->
      <g transform="translate(392.25728 258.668151) scale(0.1 -0.1)">
       <defs>
        <path id="DejaVuSans-41" d="M 2188 4044 
L 1331 1722 
L 3047 1722 
L 2188 4044 
z
M 1831 4666 
L 2547 4666 
L 4325 0 
L 3669 0 
L 3244 1197 
L 1141 1197 
L 716 0 
L 50 0 
L 1831 4666 
z
" transform="scale(0.015625)"/>
        <path id="DejaVuSans-70" d="M 1159 525 
L 1159 -1331 
L 581 -1331 
L 581 3500 
L 1159 3500 
L 1159 2969 
Q 1341 3281 1617 3432 
Q 1894 3584 2278 3584 
Q 2916 3584 3314 3078 
Q 3713 2572 3713 1747 
Q 3713 922 3314 415 
Q 2916 -91 2278 -91 
Q 1894 -91 1617 61 
Q 1341 213 1159 525 
z
M 3116 1747 
Q 3116 2381 2855 2742 
Q 2594 3103 2138 3103 
Q 1681 3103 1420 2742 
Q 1159 2381 1159 1747 
Q 1159 1113 1420 752 
Q 1681 391 2138 391 
Q 2594 391 2855 752 
Q 3116 1113 3116 1747 
z
" transform="scale(0.015625)"/>
       </defs>
       <use xlink:href="#DejaVuSans-41"/>
       <use xlink:href="#DejaVuSans-70" x="68.408203"/>
       <use xlink:href="#DejaVuSans-72" x="131.884766"/>
      </g>
     </g>
    </g>
    <g id="xtick_5">
     <g id="line2d_5">
      <path d="M 208.376296 255.908776 
L 362.988664 345.174268 
" clip-path="url(#p3162cd17de)" style="fill: none; stroke: #b0b0b0; stroke-width: 0.8; stroke-linecap: square"/>
     </g>
     <g id="text_5">
      <!-- May -->
      <g transform="translate(364.77552 354.933643) scale(0.1 -0.1)">
       <defs>
        <path id="DejaVuSans-79" d="M 2059 -325 
Q 1816 -950 1584 -1140 
Q 1353 -1331 966 -1331 
L 506 -1331 
L 506 -850 
L 844 -850 
Q 1081 -850 1212 -737 
Q 1344 -625 1503 -206 
L 1606 56 
L 191 3500 
L 800 3500 
L 1894 763 
L 2988 3500 
L 3597 3500 
L 2059 -325 
z
" transform="scale(0.015625)"/>
       </defs>
       <use xlink:href="#DejaVuSans-4d"/>
       <use xlink:href="#DejaVuSans-61" x="86.279297"/>
       <use xlink:href="#DejaVuSans-79" x="147.558594"/>
      </g>
     </g>
    </g>
    <g id="xtick_6">
     <g id="line2d_6">
      <path d="M 208.376296 255.908776 
L 297.641789 410.521144 
" clip-path="url(#p3162cd17de)" style="fill: none; stroke: #b0b0b0; stroke-width: 0.8; stroke-linecap: square"/>
     </g>
     <g id="text_6">
      <!-- Jun -->
      <g transform="translate(296.829289 425.404874) scale(0.1 -0.1)">
       <defs>
        <path id="DejaVuSans-75" d="M 544 1381 
L 544 3500 
L 1119 3500 
L 1119 1403 
Q 1119 906 1312 657 
Q 1506 409 1894 409 
Q 2359 409 2629 706 
Q 2900 1003 2900 1516 
L 2900 3500 
L 3475 3500 
L 3475 0 
L 2900 0 
L 2900 538 
Q 2691 219 2414 64 
Q 2138 -91 1772 -91 
Q 1169 -91 856 284 
Q 544 659 544 1381 
z
M 1991 3584 
L 1991 3584 
z
" transform="scale(0.015625)"/>
       </defs>
       <use xlink:href="#DejaVuSans-4a"/>
       <use xlink:href="#DejaVuSans-75" x="29.492188"/>
       <use xlink:href="#DejaVuSans-6e" x="92.871094"/>
      </g>
     </g>
    </g>
    <g id="xtick_7">
     <g id="line2d_7">
      <path d="M 208.376296 255.908776 
L 208.376296 434.43976 
" clip-path="url(#p3162cd17de)" style="fill: none; stroke: #b0b0b0; stroke-width: 0.8; stroke-linecap: square"/>
     </g>
     <g id="text_7">
      <!-- Jul -->
      <g transform="translate(202.343484 451.199135) scale(0.1 -0.1)">
       <defs>
        <path id="DejaVuSans-6c" d="M 603 4863 
L 1178 4863 
L 1178 0 
L 603 0 
L 603 4863 
z
" transform="scale(0.015625)"/>
       </defs>
       <use xlink:href="#DejaVuSans-4a"/>
       <use xlink:href="#DejaVuSans-75" x="29.492188"/>
       <use xlink:href="#DejaVuSans-6c" x="92.871094"/>
      </g>
     </g>
    </g>
    <g id="xtick_8">
     <g id="line2d_8">
      <path d="M 208.376296 255.908776 
L 119.110805 410.521144 
" clip-path="url(#p3162cd17de)" style="fill: none; stroke: #b0b0b0; stroke-width: 0.8; stroke-linecap: square"/>
     </g>
     <g id="text_8">
      <!-- Aug -->
      <g transform="translate(102.347523 425.404874) scale(0.1 -0.1)">
       <defs>
        <path id="DejaVuSans-67" d="M 2906 1791 
Q 2906 2416 2648 2759 
Q 2391 3103 1925 3103 
Q 1463 3103 1205 2759 
Q 947 2416 947 1791 
Q 947 1169 1205 825 
Q 1463 481 1925 481 
Q 2391 481 2648 825 
Q 2906 1169 2906 1791 
z
M 3481 434 
Q 3481 -459 3084 -895 
Q 2688 -1331 1869 -1331 
Q 1566 -1331 1297 -1286 
Q 1028 -1241 775 -1147 
L 775 -588 
Q 1028 -725 1275 -790 
Q 1522 -856 1778 -856 
Q 2344 -856 2625 -561 
Q 2906 -266 2906 331 
L 2906 616 
Q 2728 306 2450 153 
Q 2172 0 1784 0 
Q 1141 0 747 490 
Q 353 981 353 1791 
Q 353 2603 747 3093 
Q 1141 3584 1784 3584 
Q 2172 3584 2450 3431 
Q 2728 3278 2906 2969 
L 2906 3500 
L 3481 3500 
L 3481 434 
z
" transform="scale(0.015625)"/>
       </defs>
       <use xlink:href="#DejaVuSans-41"/>
       <use xlink:href="#DejaVuSans-75" x="68.408203"/>
       <use xlink:href="#DejaVuSans-67" x="131.787109"/>
      </g>
     </g>
    </g>
    <g id="xtick_9">
     <g id="line2d_9">
      <path d="M 208.376296 255.908776 
L 53.763929 345.174268 
" clip-path="url(#p3162cd17de)" style="fill: none; stroke: #b0b0b0; stroke-width: 0.8; stroke-linecap: square"/>
     </g>
     <g id="text_9">
      <!-- Sept -->
      <g transform="translate(30.254417 354.933643) scale(0.1 -0.1)">
       <defs>
        <path id="DejaVuSans-53" d="M 3425 4513 
L 3425 3897 
Q 3066 4069 2747 4153 
Q 2428 4238 2131 4238 
Q 1616 4238 1336 4038 
Q 1056 3838 1056 3469 
Q 1056 3159 1242 3001 
Q 1428 2844 1947 2747 
L 2328 2669 
Q 3034 2534 3370 2195 
Q 3706 1856 3706 1288 
Q 3706 609 3251 259 
Q 2797 -91 1919 -91 
Q 1588 -91 1214 -16 
Q 841 59 441 206 
L 441 856 
Q 825 641 1194 531 
Q 1563 422 1919 422 
Q 2459 422 2753 634 
Q 3047 847 3047 1241 
Q 3047 1584 2836 1778 
Q 2625 1972 2144 2069 
L 1759 2144 
Q 1053 2284 737 2584 
Q 422 2884 422 3419 
Q 422 4038 858 4394 
Q 1294 4750 2059 4750 
Q 2388 4750 2728 4690 
Q 3069 4631 3425 4513 
z
" transform="scale(0.015625)"/>
        <path id="DejaVuSans-74" d="M 1172 4494 
L 1172 3500 
L 2356 3500 
L 2356 3053 
L 1172 3053 
L 1172 1153 
Q 1172 725 1289 603 
Q 1406 481 1766 481 
L 2356 481 
L 2356 0 
L 1766 0 
Q 1100 0 847 248 
Q 594 497 594 1153 
L 594 3053 
L 172 3053 
L 172 3500 
L 594 3500 
L 594 4494 
L 1172 4494 
z
" transform="scale(0.015625)"/>
       </defs>
       <use xlink:href="#DejaVuSans-53"/>
       <use xlink:href="#DejaVuSans-65" x="63.476562"/>
       <use xlink:href="#DejaVuSans-70" x="125"/>
       <use xlink:href="#DejaVuSans-74" x="188.476562"/>
      </g>
     </g>
    </g>
    <g id="xtick_10">
     <g id="line2d_10">
      <path d="M 208.376296 255.908776 
L 29.845313 255.908776 
" clip-path="url(#p3162cd17de)" style="fill: none; stroke: #b0b0b0; stroke-width: 0.8; stroke-linecap: square"/>
     </g>
     <g id="text_10">
      <!-- Oct -->
      <g transform="translate(7.2 258.668151) scale(0.1 -0.1)">
       <defs>
        <path id="DejaVuSans-4f" d="M 2522 4238 
Q 1834 4238 1429 3725 
Q 1025 3213 1025 2328 
Q 1025 1447 1429 934 
Q 1834 422 2522 422 
Q 3209 422 3611 934 
Q 4013 1447 4013 2328 
Q 4013 3213 3611 3725 
Q 3209 4238 2522 4238 
z
M 2522 4750 
Q 3503 4750 4090 4092 
Q 4678 3434 4678 2328 
Q 4678 1225 4090 567 
Q 3503 -91 2522 -91 
Q 1538 -91 948 565 
Q 359 1222 359 2328 
Q 359 3434 948 4092 
Q 1538 4750 2522 4750 
z
" transform="scale(0.015625)"/>
        <path id="DejaVuSans-63" d="M 3122 3366 
L 3122 2828 
Q 2878 2963 2633 3030 
Q 2388 3097 2138 3097 
Q 1578 3097 1268 2742 
Q 959 2388 959 1747 
Q 959 1106 1268 751 
Q 1578 397 2138 397 
Q 2388 397 2633 464 
Q 2878 531 3122 666 
L 3122 134 
Q 2881 22 2623 -34 
Q 2366 -91 2075 -91 
Q 1284 -91 818 406 
Q 353 903 353 1747 
Q 353 2603 823 3093 
Q 1294 3584 2113 3584 
Q 2378 3584 2631 3529 
Q 2884 3475 3122 3366 
z
" transform="scale(0.015625)"/>
       </defs>
       <use xlink:href="#DejaVuSans-4f"/>
       <use xlink:href="#DejaVuSans-63" x="78.710938"/>
       <use xlink:href="#DejaVuSans-74" x="133.691406"/>
      </g>
     </g>
    </g>
    <g id="xtick_11">
     <g id="line2d_11">
      <path d="M 208.376296 255.908776 
L 53.763929 166.643284 
" clip-path="url(#p3162cd17de)" style="fill: none; stroke: #b0b0b0; stroke-width: 0.8; stroke-linecap: square"/>
     </g>
     <g id="text_11">
      <!-- Nov -->
      <g transform="translate(31.880198 162.402659) scale(0.1 -0.1)">
       <defs>
        <path id="DejaVuSans-4e" d="M 628 4666 
L 1478 4666 
L 3547 763 
L 3547 4666 
L 4159 4666 
L 4159 0 
L 3309 0 
L 1241 3903 
L 1241 0 
L 628 0 
L 628 4666 
z
" transform="scale(0.015625)"/>
        <path id="DejaVuSans-6f" d="M 1959 3097 
Q 1497 3097 1228 2736 
Q 959 2375 959 1747 
Q 959 1119 1226 758 
Q 1494 397 1959 397 
Q 2419 397 2687 759 
Q 2956 1122 2956 1747 
Q 2956 2369 2687 2733 
Q 2419 3097 1959 3097 
z
M 1959 3584 
Q 2709 3584 3137 3096 
Q 3566 2609 3566 1747 
Q 3566 888 3137 398 
Q 2709 -91 1959 -91 
Q 1206 -91 779 398 
Q 353 888 353 1747 
Q 353 2609 779 3096 
Q 1206 3584 1959 3584 
z
" transform="scale(0.015625)"/>
        <path id="DejaVuSans-76" d="M 191 3500 
L 800 3500 
L 1894 563 
L 2988 3500 
L 3597 3500 
L 2284 0 
L 1503 0 
L 191 3500 
z
" transform="scale(0.015625)"/>
       </defs>
       <use xlink:href="#DejaVuSans-4e"/>
       <use xlink:href="#DejaVuSans-6f" x="74.804688"/>
       <use xlink:href="#DejaVuSans-76" x="135.986328"/>
      </g>
     </g>
    </g>
    <g id="xtick_12">
     <g id="line2d_12">
      <path d="M 208.376296 255.908776 
L 119.110804 101.296408 
" clip-path="url(#p3162cd17de)" style="fill: none; stroke: #b0b0b0; stroke-width: 0.8; stroke-linecap: square"/>
     </g>
     <g id="text_12">
      <!-- Dec -->
      <g transform="translate(102.435023 91.931428) scale(0.1 -0.1)">
       <defs>
        <path id="DejaVuSans-44" d="M 1259 4147 
L 1259 519 
L 2022 519 
Q 2988 519 3436 956 
Q 3884 1394 3884 2338 
Q 3884 3275 3436 3711 
Q 2988 4147 2022 4147 
L 1259 4147 
z
M 628 4666 
L 1925 4666 
Q 3281 4666 3915 4102 
Q 4550 3538 4550 2338 
Q 4550 1131 3912 565 
Q 3275 0 1925 0 
L 628 0 
L 628 4666 
z
" transform="scale(0.015625)"/>
       </defs>
       <use xlink:href="#DejaVuSans-44"/>
       <use xlink:href="#DejaVuSans-65" x="77.001953"/>
       <use xlink:href="#DejaVuSans-63" x="138.525391"/>
      </g>
     </g>
    </g>
   </g>
   <g id="matplotlib.axis_2">
    <g id="ytick_1">
     <g id="line2d_13">
      <path d="M 208.376296 216.243157 
C 213.585138 216.243157 218.74333 217.269185 223.555672 219.262523 
C 228.368014 221.25586 232.740918 224.177741 236.424125 227.860948 
C 240.107332 231.544155 243.029213 235.917059 245.02255 240.729401 
C 247.015887 245.541743 248.041915 250.699935 248.041915 255.908776 
C 248.041915 261.117617 247.015887 266.275809 245.02255 271.088151 
C 243.029213 275.900493 240.107332 280.273397 236.424125 283.956604 
C 232.740918 287.639811 228.368014 290.561692 223.555672 292.555029 
C 218.74333 294.548367 213.585138 295.574395 208.376296 295.574395 
C 203.167455 295.574395 198.009263 294.548367 193.196921 292.555029 
C 188.384579 290.561692 184.011675 287.639811 180.328468 283.956604 
C 176.645261 280.273397 173.72338 275.900493 171.730043 271.088151 
C 169.736706 266.275809 168.710678 261.117617 168.710678 255.908776 
C 168.710678 250.699935 169.736706 245.541743 171.730043 240.729401 
C 173.72338 235.917059 176.645261 231.544155 180.328468 227.860948 
C 184.011675 224.177741 188.384579 221.25586 193.196921 219.262523 
C 198.009263 217.269185 203.167455 216.243157 208.376296 216.243157 
" clip-path="url(#p3162cd17de)" style="fill: none; stroke: #b0b0b0; stroke-width: 0.8; stroke-linecap: square"/>
     </g>
     <g id="text_13">
      <!-- 1000 -->
      <g transform="translate(208.376296 293.494707) scale(0.1 -0.1)">
       <defs>
        <path id="DejaVuSans-31" d="M 794 531 
L 1825 531 
L 1825 4091 
L 703 3866 
L 703 4441 
L 1819 4666 
L 2450 4666 
L 2450 531 
L 3481 531 
L 3481 0 
L 794 0 
L 794 531 
z
" transform="scale(0.015625)"/>
        <path id="DejaVuSans-30" d="M 2034 4250 
Q 1547 4250 1301 3770 
Q 1056 3291 1056 2328 
Q 1056 1369 1301 889 
Q 1547 409 2034 409 
Q 2525 409 2770 889 
Q 3016 1369 3016 2328 
Q 3016 3291 2770 3770 
Q 2525 4250 2034 4250 
z
M 2034 4750 
Q 2819 4750 3233 4129 
Q 3647 3509 3647 2328 
Q 3647 1150 3233 529 
Q 2819 -91 2034 -91 
Q 1250 -91 836 529 
Q 422 1150 422 2328 
Q 422 3509 836 4129 
Q 1250 4750 2034 4750 
z
" transform="scale(0.015625)"/>
       </defs>
       <use xlink:href="#DejaVuSans-31"/>
       <use xlink:href="#DejaVuSans-30" x="63.623047"/>
       <use xlink:href="#DejaVuSans-30" x="127.246094"/>
       <use xlink:href="#DejaVuSans-30" x="190.869141"/>
      </g>
     </g>
    </g>
    <g id="ytick_2">
     <g id="line2d_14">
      <path d="M 208.376296 176.577538 
C 218.793979 176.577538 229.110363 178.629595 238.735047 182.616269 
C 248.359731 186.602944 257.105539 192.446706 264.471953 199.81312 
C 271.838367 207.179534 277.682129 215.925342 281.668803 225.550026 
C 285.655478 235.174709 287.707534 245.491093 287.707534 255.908776 
C 287.707534 266.326459 285.655478 276.642843 281.668803 286.267526 
C 277.682129 295.89221 271.838367 304.638018 264.471953 312.004432 
C 257.105539 319.370846 248.359731 325.214608 238.735047 329.201283 
C 229.110363 333.187957 218.793979 335.240014 208.376296 335.240014 
C 197.958614 335.240014 187.64223 333.187957 178.017546 329.201283 
C 168.392862 325.214608 159.647054 319.370846 152.28064 312.004432 
C 144.914226 304.638018 139.070464 295.89221 135.08379 286.267526 
C 131.097115 276.642843 129.045059 266.326459 129.045059 255.908776 
C 129.045059 245.491093 131.097115 235.174709 135.08379 225.550026 
C 139.070464 215.925342 144.914226 207.179534 152.28064 199.81312 
C 159.647054 192.446706 168.392862 186.602944 178.017546 182.616269 
C 187.64223 178.629595 197.958614 176.577538 208.376296 176.577538 
" clip-path="url(#p3162cd17de)" style="fill: none; stroke: #b0b0b0; stroke-width: 0.8; stroke-linecap: square"/>
     </g>
     <g id="text_14">
      <!-- 2000 -->
      <g transform="translate(208.376296 333.160326) scale(0.1 -0.1)">
       <defs>
        <path id="DejaVuSans-32" d="M 1228 531 
L 3431 531 
L 3431 0 
L 469 0 
L 469 531 
Q 828 903 1448 1529 
Q 2069 2156 2228 2338 
Q 2531 2678 2651 2914 
Q 2772 3150 2772 3378 
Q 2772 3750 2511 3984 
Q 2250 4219 1831 4219 
Q 1534 4219 1204 4116 
Q 875 4013 500 3803 
L 500 4441 
Q 881 4594 1212 4672 
Q 1544 4750 1819 4750 
Q 2544 4750 2975 4387 
Q 3406 4025 3406 3419 
Q 3406 3131 3298 2873 
Q 3191 2616 2906 2266 
Q 2828 2175 2409 1742 
Q 1991 1309 1228 531 
z
" transform="scale(0.015625)"/>
       </defs>
       <use xlink:href="#DejaVuSans-32"/>
       <use xlink:href="#DejaVuSans-30" x="63.623047"/>
       <use xlink:href="#DejaVuSans-30" x="127.246094"/>
       <use xlink:href="#DejaVuSans-30" x="190.869141"/>
      </g>
     </g>
    </g>
    <g id="ytick_3">
     <g id="line2d_15">
      <path d="M 208.376296 136.911919 
C 224.002821 136.911919 239.477396 139.990004 253.914422 145.970016 
C 268.351448 151.950028 281.47016 160.715671 292.519781 171.765292 
C 303.569402 182.814913 312.335045 195.933625 318.315057 210.37065 
C 324.295069 224.807676 327.373153 240.282252 327.373153 255.908776 
C 327.373153 271.5353 324.295069 287.009876 318.315057 301.446902 
C 312.335045 315.883927 303.569402 329.002639 292.519781 340.05226 
C 281.47016 351.101881 268.351448 359.867524 253.914422 365.847536 
C 239.477396 371.827548 224.002821 374.905633 208.376296 374.905633 
C 192.749772 374.905633 177.275197 371.827548 162.838171 365.847536 
C 148.401145 359.867524 135.282433 351.101881 124.232812 340.05226 
C 113.183191 329.002639 104.417548 315.883927 98.437536 301.446902 
C 92.457524 287.009876 89.37944 271.5353 89.37944 255.908776 
C 89.37944 240.282252 92.457524 224.807676 98.437536 210.37065 
C 104.417548 195.933625 113.183191 182.814913 124.232812 171.765292 
C 135.282433 160.715671 148.401145 151.950028 162.838171 145.970016 
C 177.275197 139.990004 192.749772 136.911919 208.376296 136.911919 
" clip-path="url(#p3162cd17de)" style="fill: none; stroke: #b0b0b0; stroke-width: 0.8; stroke-linecap: square"/>
     </g>
     <g id="text_15">
      <!-- 3000 -->
      <g transform="translate(208.376296 372.825945) scale(0.1 -0.1)">
       <defs>
        <path id="DejaVuSans-33" d="M 2597 2516 
Q 3050 2419 3304 2112 
Q 3559 1806 3559 1356 
Q 3559 666 3084 287 
Q 2609 -91 1734 -91 
Q 1441 -91 1130 -33 
Q 819 25 488 141 
L 488 750 
Q 750 597 1062 519 
Q 1375 441 1716 441 
Q 2309 441 2620 675 
Q 2931 909 2931 1356 
Q 2931 1769 2642 2001 
Q 2353 2234 1838 2234 
L 1294 2234 
L 1294 2753 
L 1863 2753 
Q 2328 2753 2575 2939 
Q 2822 3125 2822 3475 
Q 2822 3834 2567 4026 
Q 2313 4219 1838 4219 
Q 1578 4219 1281 4162 
Q 984 4106 628 3988 
L 628 4550 
Q 988 4650 1302 4700 
Q 1616 4750 1894 4750 
Q 2613 4750 3031 4423 
Q 3450 4097 3450 3541 
Q 3450 3153 3228 2886 
Q 3006 2619 2597 2516 
z
" transform="scale(0.015625)"/>
       </defs>
       <use xlink:href="#DejaVuSans-33"/>
       <use xlink:href="#DejaVuSans-30" x="63.623047"/>
       <use xlink:href="#DejaVuSans-30" x="127.246094"/>
       <use xlink:href="#DejaVuSans-30" x="190.869141"/>
      </g>
     </g>
    </g>
    <g id="ytick_4">
     <g id="line2d_16">
      <path d="M 208.376296 97.2463 
C 229.211662 97.2463 249.84443 101.350413 269.093797 109.323762 
C 288.343165 117.297111 305.834781 128.984636 320.567609 143.717464 
C 335.300437 158.450292 346.987961 175.941908 354.96131 195.191275 
C 362.934659 214.440643 367.038772 235.073411 367.038772 255.908776 
C 367.038772 276.744141 362.934659 297.376909 354.96131 316.626277 
C 346.987961 335.875644 335.300437 353.36726 320.567609 368.100088 
C 305.834781 382.832916 288.343165 394.520441 269.093797 402.49379 
C 249.84443 410.467139 229.211662 414.571252 208.376296 414.571252 
C 187.540931 414.571252 166.908163 410.467139 147.658796 402.49379 
C 128.409428 394.520441 110.917812 382.832916 96.184984 368.100088 
C 81.452156 353.36726 69.764632 335.875644 61.791283 316.626277 
C 53.817934 297.376909 49.713821 276.744141 49.713821 255.908776 
C 49.713821 235.073411 53.817934 214.440643 61.791283 195.191275 
C 69.764632 175.941908 81.452156 158.450292 96.184984 143.717464 
C 110.917812 128.984636 128.409428 117.297111 147.658796 109.323762 
C 166.908163 101.350413 187.540931 97.2463 208.376296 97.2463 
" clip-path="url(#p3162cd17de)" style="fill: none; stroke: #b0b0b0; stroke-width: 0.8; stroke-linecap: square"/>
     </g>
     <g id="text_16">
      <!-- 4000 -->
      <g transform="translate(208.376296 412.491564) scale(0.1 -0.1)">
       <defs>
        <path id="DejaVuSans-34" d="M 2419 4116 
L 825 1625 
L 2419 1625 
L 2419 4116 
z
M 2253 4666 
L 3047 4666 
L 3047 1625 
L 3713 1625 
L 3713 1100 
L 3047 1100 
L 3047 0 
L 2419 0 
L 2419 1100 
L 313 1100 
L 313 1709 
L 2253 4666 
z
" transform="scale(0.015625)"/>
       </defs>
       <use xlink:href="#DejaVuSans-34"/>
       <use xlink:href="#DejaVuSans-30" x="63.623047"/>
       <use xlink:href="#DejaVuSans-30" x="127.246094"/>
       <use xlink:href="#DejaVuSans-30" x="190.869141"/>
      </g>
     </g>
    </g>
   </g>
   <g id="line2d_17">
    <path d="M 208.376296 134.452651 
L 223.07837 134.82631 
L 237.44265 137.981945 
L 253.09091 138.006031 
L 266.239154 145.660312 
L 279.196383 153.308167 
L 289.626791 164.195927 
L 303.978554 171.212567 
L 311.270703 184.885896 
L 319.046227 197.824716 
L 321.086722 213.16335 
L 324.993685 227.165171 
L 327.017425 241.503135 
L 320.986988 255.908776 
L 319.024014 269.343841 
L 314.672199 282.108363 
L 310.071587 294.476712 
L 301.274413 304.665469 
L 296.091166 316.453979 
L 286.164469 324.823083 
L 278.710975 335.300216 
L 268.313118 342.742253 
L 256.063844 346.769807 
L 244.356158 350.779875 
L 232.810259 355.041259 
L 220.711695 357.499919 
L 208.376296 362.728288 
L 196.093491 357.066778 
L 183.828423 355.503415 
L 172.213582 351.262019 
L 162.292466 343.714179 
L 151.053261 338.95553 
L 141.566243 331.321737 
L 133.141477 322.56101 
L 125.884493 312.848757 
L 118.709419 302.969584 
L 114.20987 291.621391 
L 108.473554 280.532591 
L 103.438159 268.650573 
L 103.619397 255.908776 
L 102.453749 243.04745 
L 104.160097 230.22179 
L 109.128814 218.269171 
L 112.633285 205.658967 
L 120.498206 195.25091 
L 126.401814 183.285722 
L 134.5696 172.598237 
L 145.690493 165.092711 
L 155.508926 155.178418 
L 165.940314 144.014286 
L 179.509288 138.790718 
L 194.214495 139.275844 
L 208.376296 134.452651 
" clip-path="url(#p3162cd17de)" style="fill: none; stroke-dasharray: 5.55,2.4; stroke-dashoffset: 0; stroke: #1f77b4; stroke-width: 1.5"/>
   </g>
   <g id="line2d_18">
    <path d="M 208.376296 91.494786 
L 226.78377 104.30959 
L 245.046225 107.133026 
L 260.616018 118.163952 
L 275.750857 127.537277 
L 288.3897 139.989348 
L 301.252792 151.072884 
L 303.533202 171.607114 
L 309.736427 185.94493 
L 322.312588 196.110397 
L 321.272162 213.093022 
L 325.686919 226.994304 
L 333.435781 240.723805 
L 333.91798 255.908776 
L 332.01823 270.921625 
L 329.461194 285.753523 
L 324.127938 299.807583 
L 314.023758 311.356841 
L 306.86374 323.88975 
L 297.149821 334.555256 
L 282.15669 339.189624 
L 276.199542 354.167711 
L 261.538603 357.201089 
L 248.744633 362.35133 
L 233.750027 358.854047 
L 221.725301 365.847718 
L 208.376296 368.440137 
L 194.640018 369.037207 
L 182.024828 362.820886 
L 167.360942 364.057378 
L 153.849908 359.800129 
L 144.361067 348.650847 
L 132.149708 341.950808 
L 121.473251 332.898156 
L 115.013986 320.352126 
L 99.743452 312.923691 
L 100.116431 296.966327 
L 97.073703 283.342401 
L 87.411959 270.596506 
L 86.523515 255.908776 
L 87.726971 241.259296 
L 82.246195 224.820498 
L 82.72216 208.254448 
L 84.816533 191.05961 
L 84.720202 170.555137 
L 89.467278 150.564578 
L 98.113405 131.4477 
L 109.345345 112.437674 
L 127.76646 102.319565 
L 151.368329 105.59112 
L 172.570194 110.63771 
L 190.772058 110.924828 
L 208.376296 119.657375 
" clip-path="url(#p3162cd17de)" style="fill: none; stroke-dasharray: 2,3.3; stroke-dashoffset: 0; stroke: #d62728; stroke-width: 2"/>
   </g>
   <g id="line2d_19">
    <path d="M 208.376296 119.657375 
L 223.470425 131.597444 
L 238.676688 132.975254 
L 253.414419 137.153007 
L 268.948883 140.497354 
L 281.697506 149.684665 
L 297.228407 155.615476 
L 307.867963 167.766851 
L 313.91488 183.060752 
L 327.335057 193.474402 
L 342.004353 205.230339 
L 348.217029 221.441131 
L 348.753205 238.863933 
L 350.180884 255.908776 
L 346.784384 272.71456 
L 332.965878 286.61735 
L 324.869698 300.088896 
L 318.273539 313.587298 
L 310.454598 326.36834 
L 299.139061 336.317569 
L 285.260464 342.693061 
L 275.117975 352.600791 
L 262.626182 359.273297 
L 250.741951 367.617826 
L 238.145102 376.685569 
L 223.207461 378.054406 
L 208.376296 373.834661 
L 193.607287 377.542512 
L 178.104383 378.726759 
L 164.308702 372.105474 
L 153.831475 359.835251 
L 141.116367 353.351607 
L 127.44144 347.265343 
L 118.147955 335.844112 
L 111.618993 322.69552 
L 105.222509 310.04806 
L 103.862318 295.5457 
L 92.221064 284.538469 
L 82.411155 271.203713 
L 77.202095 255.908776 
L 78.119126 240.092692 
L 78.780024 223.966164 
L 85.763375 209.407829 
L 95.072204 196.442201 
L 104.894295 184.480308 
L 113.189701 171.580811 
L 118.840304 154.843532 
L 131.202005 144.102513 
L 141.923413 129.293385 
L 152.324792 108.113104 
L 168.697212 94.924402 
L 188.783095 94.54424 
L 208.376296 97.087638 
" clip-path="url(#p3162cd17de)" style="fill: none; stroke: #ff7f0e; stroke-width: 2; stroke-linecap: square"/>
   </g>
   <g id="line2d_20">
    <path d="M 208.376296 97.087638 
L 239.50309 107.374538 
L 265.532089 125.526422 
" clip-path="url(#p3162cd17de)" style="fill: none; stroke: #2ca02c; stroke-width: 3; stroke-linecap: square"/>
   </g>
   <g id="patch_3">
    <path d="M 208.376296 77.377792 
C 184.931822 77.377792 161.715316 81.995842 140.055447 90.967654 
C 118.395577 99.939466 98.713574 113.09056 82.135827 129.668307 
C 65.558081 146.246053 52.406986 165.928057 43.435174 187.587926 
C 34.463363 209.247796 29.845312 232.464302 29.845312 255.908776 
C 29.845312 279.35325 34.463363 302.569756 43.435174 324.229626 
C 52.406986 345.889495 65.558081 365.571499 82.135827 382.149245 
C 98.713574 398.726992 118.395577 411.878086 140.055447 420.849898 
C 161.715316 429.82171 184.931822 434.43976 208.376296 434.43976 
C 231.820771 434.43976 255.037277 429.82171 276.697146 420.849898 
C 298.357016 411.878086 318.039019 398.726992 334.616766 382.149245 
C 351.194512 365.571499 364.345607 345.889495 373.317419 324.229626 
C 382.28923 302.569756 386.90728 279.35325 386.90728 255.908776 
C 386.90728 232.464302 382.28923 209.247796 373.317419 187.587926 
C 364.345607 165.928057 351.194512 146.246053 334.616766 129.668307 
C 318.039019 113.09056 298.357016 99.939466 276.697146 90.967654 
C 255.037277 81.995842 231.820771 77.377792 208.376296 77.377792 
" style="fill: none; stroke: #000000; stroke-width: 0.8; stroke-linejoin: miter; stroke-linecap: square"/>
   </g>
   <g id="text_17">
    <!-- Totaal mannen en vrouwen, Totaal leeftijd, median excludes 2020-2022 -->
    <g transform="translate(29.629421 35.671595) scale(0.1 -0.1)">
     <defs>
      <path id="DejaVuSans-54" d="M -19 4666 
L 3928 4666 
L 3928 4134 
L 2272 4134 
L 2272 0 
L 1638 0 
L 1638 4134 
L -19 4134 
L -19 4666 
z
" transform="scale(0.015625)"/>
      <path id="DejaVuSans-20" transform="scale(0.015625)"/>
      <path id="DejaVuSans-6d" d="M 3328 2828 
Q 3544 3216 3844 3400 
Q 4144 3584 4550 3584 
Q 5097 3584 5394 3201 
Q 5691 2819 5691 2113 
L 5691 0 
L 5113 0 
L 5113 2094 
Q 5113 2597 4934 2840 
Q 4756 3084 4391 3084 
Q 3944 3084 3684 2787 
Q 3425 2491 3425 1978 
L 3425 0 
L 2847 0 
L 2847 2094 
Q 2847 2600 2669 2842 
Q 2491 3084 2119 3084 
Q 1678 3084 1418 2786 
Q 1159 2488 1159 1978 
L 1159 0 
L 581 0 
L 581 3500 
L 1159 3500 
L 1159 2956 
Q 1356 3278 1631 3431 
Q 1906 3584 2284 3584 
Q 2666 3584 2933 3390 
Q 3200 3197 3328 2828 
z
" transform="scale(0.015625)"/>
      <path id="DejaVuSans-77" d="M 269 3500 
L 844 3500 
L 1563 769 
L 2278 3500 
L 2956 3500 
L 3675 769 
L 4391 3500 
L 4966 3500 
L 4050 0 
L 3372 0 
L 2619 2869 
L 1863 0 
L 1184 0 
L 269 3500 
z
" transform="scale(0.015625)"/>
      <path id="DejaVuSans-2c" d="M 750 794 
L 1409 794 
L 1409 256 
L 897 -744 
L 494 -744 
L 750 256 
L 750 794 
z
" transform="scale(0.015625)"/>
      <path id="DejaVuSans-66" d="M 2375 4863 
L 2375 4384 
L 1825 4384 
Q 1516 4384 1395 4259 
Q 1275 4134 1275 3809 
L 1275 3500 
L 2222 3500 
L 2222 3053 
L 1275 3053 
L 1275 0 
L 697 0 
L 697 3053 
L 147 3053 
L 147 3500 
L 697 3500 
L 697 3744 
Q 697 4328 969 4595 
Q 1241 4863 1831 4863 
L 2375 4863 
z
" transform="scale(0.015625)"/>
      <path id="DejaVuSans-69" d="M 603 3500 
L 1178 3500 
L 1178 0 
L 603 0 
L 603 3500 
z
M 603 4863 
L 1178 4863 
L 1178 4134 
L 603 4134 
L 603 4863 
z
" transform="scale(0.015625)"/>
      <path id="DejaVuSans-6a" d="M 603 3500 
L 1178 3500 
L 1178 -63 
Q 1178 -731 923 -1031 
Q 669 -1331 103 -1331 
L -116 -1331 
L -116 -844 
L 38 -844 
Q 366 -844 484 -692 
Q 603 -541 603 -63 
L 603 3500 
z
M 603 4863 
L 1178 4863 
L 1178 4134 
L 603 4134 
L 603 4863 
z
" transform="scale(0.015625)"/>
      <path id="DejaVuSans-64" d="M 2906 2969 
L 2906 4863 
L 3481 4863 
L 3481 0 
L 2906 0 
L 2906 525 
Q 2725 213 2448 61 
Q 2172 -91 1784 -91 
Q 1150 -91 751 415 
Q 353 922 353 1747 
Q 353 2572 751 3078 
Q 1150 3584 1784 3584 
Q 2172 3584 2448 3432 
Q 2725 3281 2906 2969 
z
M 947 1747 
Q 947 1113 1208 752 
Q 1469 391 1925 391 
Q 2381 391 2643 752 
Q 2906 1113 2906 1747 
Q 2906 2381 2643 2742 
Q 2381 3103 1925 3103 
Q 1469 3103 1208 2742 
Q 947 2381 947 1747 
z
" transform="scale(0.015625)"/>
      <path id="DejaVuSans-78" d="M 3513 3500 
L 2247 1797 
L 3578 0 
L 2900 0 
L 1881 1375 
L 863 0 
L 184 0 
L 1544 1831 
L 300 3500 
L 978 3500 
L 1906 2253 
L 2834 3500 
L 3513 3500 
z
" transform="scale(0.015625)"/>
      <path id="DejaVuSans-73" d="M 2834 3397 
L 2834 2853 
Q 2591 2978 2328 3040 
Q 2066 3103 1784 3103 
Q 1356 3103 1142 2972 
Q 928 2841 928 2578 
Q 928 2378 1081 2264 
Q 1234 2150 1697 2047 
L 1894 2003 
Q 2506 1872 2764 1633 
Q 3022 1394 3022 966 
Q 3022 478 2636 193 
Q 2250 -91 1575 -91 
Q 1294 -91 989 -36 
Q 684 19 347 128 
L 347 722 
Q 666 556 975 473 
Q 1284 391 1588 391 
Q 1994 391 2212 530 
Q 2431 669 2431 922 
Q 2431 1156 2273 1281 
Q 2116 1406 1581 1522 
L 1381 1569 
Q 847 1681 609 1914 
Q 372 2147 372 2553 
Q 372 3047 722 3315 
Q 1072 3584 1716 3584 
Q 2034 3584 2315 3537 
Q 2597 3491 2834 3397 
z
" transform="scale(0.015625)"/>
      <path id="DejaVuSans-2d" d="M 313 2009 
L 1997 2009 
L 1997 1497 
L 313 1497 
L 313 2009 
z
" transform="scale(0.015625)"/>
     </defs>
     <use xlink:href="#DejaVuSans-54"/>
     <use xlink:href="#DejaVuSans-6f" x="44.083984"/>
     <use xlink:href="#DejaVuSans-74" x="105.265625"/>
     <use xlink:href="#DejaVuSans-61" x="144.474609"/>
     <use xlink:href="#DejaVuSans-61" x="205.753906"/>
     <use xlink:href="#DejaVuSans-6c" x="267.033203"/>
     <use xlink:href="#DejaVuSans-20" x="294.816406"/>
     <use xlink:href="#DejaVuSans-6d" x="326.603516"/>
     <use xlink:href="#DejaVuSans-61" x="424.015625"/>
     <use xlink:href="#DejaVuSans-6e" x="485.294922"/>
     <use xlink:href="#DejaVuSans-6e" x="548.673828"/>
     <use xlink:href="#DejaVuSans-65" x="612.052734"/>
     <use xlink:href="#DejaVuSans-6e" x="673.576172"/>
     <use xlink:href="#DejaVuSans-20" x="736.955078"/>
     <use xlink:href="#DejaVuSans-65" x="768.742188"/>
     <use xlink:href="#DejaVuSans-6e" x="830.265625"/>
     <use xlink:href="#DejaVuSans-20" x="893.644531"/>
     <use xlink:href="#DejaVuSans-76" x="925.431641"/>
     <use xlink:href="#DejaVuSans-72" x="984.611328"/>
     <use xlink:href="#DejaVuSans-6f" x="1023.474609"/>
     <use xlink:href="#DejaVuSans-75" x="1084.65625"/>
     <use xlink:href="#DejaVuSans-77" x="1148.035156"/>
     <use xlink:href="#DejaVuSans-65" x="1229.822266"/>
     <use xlink:href="#DejaVuSans-6e" x="1291.345703"/>
     <use xlink:href="#DejaVuSans-2c" x="1354.724609"/>
     <use xlink:href="#DejaVuSans-20" x="1386.511719"/>
     <use xlink:href="#DejaVuSans-54" x="1418.298828"/>
     <use xlink:href="#DejaVuSans-6f" x="1462.382812"/>
     <use xlink:href="#DejaVuSans-74" x="1523.564453"/>
     <use xlink:href="#DejaVuSans-61" x="1562.773438"/>
     <use xlink:href="#DejaVuSans-61" x="1624.052734"/>
     <use xlink:href="#DejaVuSans-6c" x="1685.332031"/>
     <use xlink:href="#DejaVuSans-20" x="1713.115234"/>
     <use xlink:href="#DejaVuSans-6c" x="1744.902344"/>
     <use xlink:href="#DejaVuSans-65" x="1772.685547"/>
     <use xlink:href="#DejaVuSans-65" x="1834.208984"/>
     <use xlink:href="#DejaVuSans-66" x="1895.732422"/>
     <use xlink:href="#DejaVuSans-74" x="1929.1875"/>
     <use xlink:href="#DejaVuSans-69" x="1968.396484"/>
     <use xlink:href="#DejaVuSans-6a" x="1996.179688"/>
     <use xlink:href="#DejaVuSans-64" x="2023.962891"/>
     <use xlink:href="#DejaVuSans-2c" x="2087.439453"/>
     <use xlink:href="#DejaVuSans-20" x="2119.226562"/>
     <use xlink:href="#DejaVuSans-6d" x="2151.013672"/>
     <use xlink:href="#DejaVuSans-65" x="2248.425781"/>
     <use xlink:href="#DejaVuSans-64" x="2309.949219"/>
     <use xlink:href="#DejaVuSans-69" x="2373.425781"/>
     <use xlink:href="#DejaVuSans-61" x="2401.208984"/>
     <use xlink:href="#DejaVuSans-6e" x="2462.488281"/>
     <use xlink:href="#DejaVuSans-20" x="2525.867188"/>
     <use xlink:href="#DejaVuSans-65" x="2557.654297"/>
     <use xlink:href="#DejaVuSans-78" x="2617.427734"/>
     <use xlink:href="#DejaVuSans-63" x="2674.857422"/>
     <use xlink:href="#DejaVuSans-6c" x="2729.837891"/>
     <use xlink:href="#DejaVuSans-75" x="2757.621094"/>
     <use xlink:href="#DejaVuSans-64" x="2821"/>
     <use xlink:href="#DejaVuSans-65" x="2884.476562"/>
     <use xlink:href="#DejaVuSans-73" x="2946"/>
     <use xlink:href="#DejaVuSans-20" x="2998.099609"/>
     <use xlink:href="#DejaVuSans-32" x="3029.886719"/>
     <use xlink:href="#DejaVuSans-30" x="3093.509766"/>
     <use xlink:href="#DejaVuSans-32" x="3157.132812"/>
     <use xlink:href="#DejaVuSans-30" x="3220.755859"/>
     <use xlink:href="#DejaVuSans-2d" x="3284.378906"/>
     <use xlink:href="#DejaVuSans-32" x="3320.462891"/>
     <use xlink:href="#DejaVuSans-30" x="3384.085938"/>
     <use xlink:href="#DejaVuSans-32" x="3447.708984"/>
     <use xlink:href="#DejaVuSans-32" x="3511.332031"/>
    </g>
   </g>
  </g>
  <g id="text_18">
   <!-- Deaths per week in the Netherlands (since 2010) -->
   <g transform="translate(35.968484 17.837812) scale(0.14 -0.14)">
    <defs>
     <path id="DejaVuSans-68" d="M 3513 2113 
L 3513 0 
L 2938 0 
L 2938 2094 
Q 2938 2591 2744 2837 
Q 2550 3084 2163 3084 
Q 1697 3084 1428 2787 
Q 1159 2491 1159 1978 
L 1159 0 
L 581 0 
L 581 4863 
L 1159 4863 
L 1159 2956 
Q 1366 3272 1645 3428 
Q 1925 3584 2291 3584 
Q 2894 3584 3203 3211 
Q 3513 2838 3513 2113 
z
" transform="scale(0.015625)"/>
     <path id="DejaVuSans-6b" d="M 581 4863 
L 1159 4863 
L 1159 1991 
L 2875 3500 
L 3609 3500 
L 1753 1863 
L 3688 0 
L 2938 0 
L 1159 1709 
L 1159 0 
L 581 0 
L 581 4863 
z
" transform="scale(0.015625)"/>
     <path id="DejaVuSans-28" d="M 1984 4856 
Q 1566 4138 1362 3434 
Q 1159 2731 1159 2009 
Q 1159 1288 1364 580 
Q 1569 -128 1984 -844 
L 1484 -844 
Q 1016 -109 783 600 
Q 550 1309 550 2009 
Q 550 2706 781 3412 
Q 1013 4119 1484 4856 
L 1984 4856 
z
" transform="scale(0.015625)"/>
     <path id="DejaVuSans-29" d="M 513 4856 
L 1013 4856 
Q 1481 4119 1714 3412 
Q 1947 2706 1947 2009 
Q 1947 1309 1714 600 
Q 1481 -109 1013 -844 
L 513 -844 
Q 928 -128 1133 580 
Q 1338 1288 1338 2009 
Q 1338 2731 1133 3434 
Q 928 4138 513 4856 
z
" transform="scale(0.015625)"/>
    </defs>
    <use xlink:href="#DejaVuSans-44"/>
    <use xlink:href="#DejaVuSans-65" x="77.001953"/>
    <use xlink:href="#DejaVuSans-61" x="138.525391"/>
    <use xlink:href="#DejaVuSans-74" x="199.804688"/>
    <use xlink:href="#DejaVuSans-68" x="239.013672"/>
    <use xlink:href="#DejaVuSans-73" x="302.392578"/>
    <use xlink:href="#DejaVuSans-20" x="354.492188"/>
    <use xlink:href="#DejaVuSans-70" x="386.279297"/>
    <use xlink:href="#DejaVuSans-65" x="449.755859"/>
    <use xlink:href="#DejaVuSans-72" x="511.279297"/>
    <use xlink:href="#DejaVuSans-20" x="552.392578"/>
    <use xlink:href="#DejaVuSans-77" x="584.179688"/>
    <use xlink:href="#DejaVuSans-65" x="665.966797"/>
    <use xlink:href="#DejaVuSans-65" x="727.490234"/>
    <use xlink:href="#DejaVuSans-6b" x="789.013672"/>
    <use xlink:href="#DejaVuSans-20" x="846.923828"/>
    <use xlink:href="#DejaVuSans-69" x="878.710938"/>
    <use xlink:href="#DejaVuSans-6e" x="906.494141"/>
    <use xlink:href="#DejaVuSans-20" x="969.873047"/>
    <use xlink:href="#DejaVuSans-74" x="1001.660156"/>
    <use xlink:href="#DejaVuSans-68" x="1040.869141"/>
    <use xlink:href="#DejaVuSans-65" x="1104.248047"/>
    <use xlink:href="#DejaVuSans-20" x="1165.771484"/>
    <use xlink:href="#DejaVuSans-4e" x="1197.558594"/>
    <use xlink:href="#DejaVuSans-65" x="1272.363281"/>
    <use xlink:href="#DejaVuSans-74" x="1333.886719"/>
    <use xlink:href="#DejaVuSans-68" x="1373.095703"/>
    <use xlink:href="#DejaVuSans-65" x="1436.474609"/>
    <use xlink:href="#DejaVuSans-72" x="1497.998047"/>
    <use xlink:href="#DejaVuSans-6c" x="1539.111328"/>
    <use xlink:href="#DejaVuSans-61" x="1566.894531"/>
    <use xlink:href="#DejaVuSans-6e" x="1628.173828"/>
    <use xlink:href="#DejaVuSans-64" x="1691.552734"/>
    <use xlink:href="#DejaVuSans-73" x="1755.029297"/>
    <use xlink:href="#DejaVuSans-20" x="1807.128906"/>
    <use xlink:href="#DejaVuSans-28" x="1838.916016"/>
    <use xlink:href="#DejaVuSans-73" x="1877.929688"/>
    <use xlink:href="#DejaVuSans-69" x="1930.029297"/>
    <use xlink:href="#DejaVuSans-6e" x="1957.8125"/>
    <use xlink:href="#DejaVuSans-63" x="2021.191406"/>
    <use xlink:href="#DejaVuSans-65" x="2076.171875"/>
    <use xlink:href="#DejaVuSans-20" x="2137.695312"/>
    <use xlink:href="#DejaVuSans-32" x="2169.482422"/>
    <use xlink:href="#DejaVuSans-30" x="2233.105469"/>
    <use xlink:href="#DejaVuSans-31" x="2296.728516"/>
    <use xlink:href="#DejaVuSans-30" x="2360.351562"/>
    <use xlink:href="#DejaVuSans-29" x="2423.974609"/>
   </g>
  </g>
  <g id="legend_1">
   <g id="patch_4">
    <path d="M 417.788796 455.478822 
L 491.576297 455.478822 
Q 493.576297 455.478822 493.576297 453.478822 
L 493.576297 366.410072 
Q 493.576297 364.410072 491.576297 364.410072 
L 417.788796 364.410072 
Q 415.788796 364.410072 415.788796 366.410072 
L 415.788796 453.478822 
Q 415.788796 455.478822 417.788796 455.478822 
z
" style="fill: #ffffff; opacity: 0.8; stroke: #cccccc; stroke-linejoin: miter"/>
   </g>
   <g id="patch_5">
    <path d="M 419.788796 376.00851 
L 439.788796 376.00851 
L 439.788796 369.00851 
L 419.788796 369.00851 
z
" style="fill: #1f77b4; fill-opacity: 0.3; stroke: #1f77b4; stroke-opacity: 0.3; stroke-linejoin: miter"/>
   </g>
   <g id="text_19">
    <!-- SD -->
    <g transform="translate(447.788796 376.00851) scale(0.1 -0.1)">
     <use xlink:href="#DejaVuSans-53"/>
     <use xlink:href="#DejaVuSans-44" x="63.476562"/>
    </g>
   </g>
   <g id="patch_6">
    <path d="M 419.788796 390.686635 
L 439.788796 390.686635 
L 439.788796 383.686635 
L 419.788796 383.686635 
z
" style="fill: #1f77b4; fill-opacity: 0.2"/>
   </g>
   <g id="text_20">
    <!-- Min/Max -->
    <g transform="translate(447.788796 390.686635) scale(0.1 -0.1)">
     <defs>
      <path id="DejaVuSans-2f" d="M 1625 4666 
L 2156 4666 
L 531 -594 
L 0 -594 
L 1625 4666 
z
" transform="scale(0.015625)"/>
     </defs>
     <use xlink:href="#DejaVuSans-4d"/>
     <use xlink:href="#DejaVuSans-69" x="86.279297"/>
     <use xlink:href="#DejaVuSans-6e" x="114.0625"/>
     <use xlink:href="#DejaVuSans-2f" x="177.441406"/>
     <use xlink:href="#DejaVuSans-4d" x="211.132812"/>
     <use xlink:href="#DejaVuSans-61" x="297.412109"/>
     <use xlink:href="#DejaVuSans-78" x="358.691406"/>
    </g>
   </g>
   <g id="line2d_21">
    <path d="M 419.788796 401.86476 
L 429.788796 401.86476 
L 439.788796 401.86476 
" style="fill: none; stroke-dasharray: 5.55,2.4; stroke-dashoffset: 0; stroke: #1f77b4; stroke-width: 1.5"/>
   </g>
   <g id="text_21">
    <!-- Median -->
    <g transform="translate(447.788796 405.36476) scale(0.1 -0.1)">
     <use xlink:href="#DejaVuSans-4d"/>
     <use xlink:href="#DejaVuSans-65" x="86.279297"/>
     <use xlink:href="#DejaVuSans-64" x="147.802734"/>
     <use xlink:href="#DejaVuSans-69" x="211.279297"/>
     <use xlink:href="#DejaVuSans-61" x="239.0625"/>
     <use xlink:href="#DejaVuSans-6e" x="300.341797"/>
    </g>
   </g>
   <g id="line2d_22">
    <path d="M 419.788796 416.542885 
L 429.788796 416.542885 
L 439.788796 416.542885 
" style="fill: none; stroke-dasharray: 2,3.3; stroke-dashoffset: 0; stroke: #d62728; stroke-width: 2"/>
   </g>
   <g id="text_22">
    <!-- 2021 -->
    <g transform="translate(447.788796 420.042885) scale(0.1 -0.1)">
     <use xlink:href="#DejaVuSans-32"/>
     <use xlink:href="#DejaVuSans-30" x="63.623047"/>
     <use xlink:href="#DejaVuSans-32" x="127.246094"/>
     <use xlink:href="#DejaVuSans-31" x="190.869141"/>
    </g>
   </g>
   <g id="line2d_23">
    <path d="M 419.788796 431.22101 
L 429.788796 431.22101 
L 439.788796 431.22101 
" style="fill: none; stroke: #ff7f0e; stroke-width: 2; stroke-linecap: square"/>
   </g>
   <g id="text_23">
    <!-- 2022 -->
    <g transform="translate(447.788796 434.72101) scale(0.1 -0.1)">
     <use xlink:href="#DejaVuSans-32"/>
     <use xlink:href="#DejaVuSans-30" x="63.623047"/>
     <use xlink:href="#DejaVuSans-32" x="127.246094"/>
     <use xlink:href="#DejaVuSans-32" x="190.869141"/>
    </g>
   </g>
   <g id="line2d_24">
    <path d="M 419.788796 445.899135 
L 429.788796 445.899135 
L 439.788796 445.899135 
" style="fill: none; stroke: #2ca02c; stroke-width: 3; stroke-linecap: square"/>
   </g>
   <g id="text_24">
    <!-- 2023 -->
    <g transform="translate(447.788796 449.399135) scale(0.1 -0.1)">
     <use xlink:href="#DejaVuSans-32"/>
     <use xlink:href="#DejaVuSans-30" x="63.623047"/>
     <use xlink:href="#DejaVuSans-32" x="127.246094"/>
     <use xlink:href="#DejaVuSans-33" x="190.869141"/>
    </g>
   </g>
  </g>
  <g id="legend_2">
   <g id="patch_7">
    <path d="M 417.788796 455.478822 
L 491.576297 455.478822 
Q 493.576297 455.478822 493.576297 453.478822 
L 493.576297 366.410072 
Q 493.576297 364.410072 491.576297 364.410072 
L 417.788796 364.410072 
Q 415.788796 364.410072 415.788796 366.410072 
L 415.788796 453.478822 
Q 415.788796 455.478822 417.788796 455.478822 
z
" style="fill: #ffffff; opacity: 0.8; stroke: #cccccc; stroke-linejoin: miter"/>
   </g>
   <g id="patch_8">
    <path d="M 419.788796 376.00851 
L 439.788796 376.00851 
L 439.788796 369.00851 
L 419.788796 369.00851 
z
" style="fill: #1f77b4; fill-opacity: 0.3; stroke: #1f77b4; stroke-opacity: 0.3; stroke-linejoin: miter"/>
   </g>
   <g id="text_25">
    <!-- SD -->
    <g transform="translate(447.788796 376.00851) scale(0.1 -0.1)">
     <use xlink:href="#DejaVuSans-53"/>
     <use xlink:href="#DejaVuSans-44" x="63.476562"/>
    </g>
   </g>
   <g id="patch_9">
    <path d="M 419.788796 390.686635 
L 439.788796 390.686635 
L 439.788796 383.686635 
L 419.788796 383.686635 
z
" style="fill: #1f77b4; fill-opacity: 0.2"/>
   </g>
   <g id="text_26">
    <!-- Min/Max -->
    <g transform="translate(447.788796 390.686635) scale(0.1 -0.1)">
     <use xlink:href="#DejaVuSans-4d"/>
     <use xlink:href="#DejaVuSans-69" x="86.279297"/>
     <use xlink:href="#DejaVuSans-6e" x="114.0625"/>
     <use xlink:href="#DejaVuSans-2f" x="177.441406"/>
     <use xlink:href="#DejaVuSans-4d" x="211.132812"/>
     <use xlink:href="#DejaVuSans-61" x="297.412109"/>
     <use xlink:href="#DejaVuSans-78" x="358.691406"/>
    </g>
   </g>
   <g id="line2d_25">
    <path d="M 419.788796 401.86476 
L 429.788796 401.86476 
L 439.788796 401.86476 
" style="fill: none; stroke-dasharray: 5.55,2.4; stroke-dashoffset: 0; stroke: #1f77b4; stroke-width: 1.5"/>
   </g>
   <g id="text_27">
    <!-- Median -->
    <g transform="translate(447.788796 405.36476) scale(0.1 -0.1)">
     <use xlink:href="#DejaVuSans-4d"/>
     <use xlink:href="#DejaVuSans-65" x="86.279297"/>
     <use xlink:href="#DejaVuSans-64" x="147.802734"/>
     <use xlink:href="#DejaVuSans-69" x="211.279297"/>
     <use xlink:href="#DejaVuSans-61" x="239.0625"/>
     <use xlink:href="#DejaVuSans-6e" x="300.341797"/>
    </g>
   </g>
   <g id="line2d_26">
    <path d="M 419.788796 416.542885 
L 429.788796 416.542885 
L 439.788796 416.542885 
" style="fill: none; stroke-dasharray: 2,3.3; stroke-dashoffset: 0; stroke: #d62728; stroke-width: 2"/>
   </g>
   <g id="text_28">
    <!-- 2021 -->
    <g transform="translate(447.788796 420.042885) scale(0.1 -0.1)">
     <use xlink:href="#DejaVuSans-32"/>
     <use xlink:href="#DejaVuSans-30" x="63.623047"/>
     <use xlink:href="#DejaVuSans-32" x="127.246094"/>
     <use xlink:href="#DejaVuSans-31" x="190.869141"/>
    </g>
   </g>
   <g id="line2d_27">
    <path d="M 419.788796 431.22101 
L 429.788796 431.22101 
L 439.788796 431.22101 
" style="fill: none; stroke: #ff7f0e; stroke-width: 2; stroke-linecap: square"/>
   </g>
   <g id="text_29">
    <!-- 2022 -->
    <g transform="translate(447.788796 434.72101) scale(0.1 -0.1)">
     <use xlink:href="#DejaVuSans-32"/>
     <use xlink:href="#DejaVuSans-30" x="63.623047"/>
     <use xlink:href="#DejaVuSans-32" x="127.246094"/>
     <use xlink:href="#DejaVuSans-32" x="190.869141"/>
    </g>
   </g>
   <g id="line2d_28">
    <path d="M 419.788796 445.899135 
L 429.788796 445.899135 
L 439.788796 445.899135 
" style="fill: none; stroke: #2ca02c; stroke-width: 3; stroke-linecap: square"/>
   </g>
   <g id="text_30">
    <!-- 2023 -->
    <g transform="translate(447.788796 449.399135) scale(0.1 -0.1)">
     <use xlink:href="#DejaVuSans-32"/>
     <use xlink:href="#DejaVuSans-30" x="63.623047"/>
     <use xlink:href="#DejaVuSans-32" x="127.246094"/>
     <use xlink:href="#DejaVuSans-33" x="190.869141"/>
    </g>
   </g>
  </g>
 </g>
 <defs>
  <clipPath id="p3162cd17de">
   <path d="M 386.90728 255.908776 
C 386.90728 232.464302 382.28923 209.247796 373.317419 187.587926 
C 364.345607 165.928057 351.194512 146.246053 334.616766 129.668307 
C 318.039019 113.09056 298.357016 99.939466 276.697146 90.967654 
C 255.037277 81.995842 231.820771 77.377792 208.376296 77.377792 
C 184.931822 77.377792 161.715316 81.995842 140.055447 90.967654 
C 118.395577 99.939466 98.713574 113.09056 82.135827 129.668307 
C 65.558081 146.246053 52.406986 165.928057 43.435174 187.587926 
C 34.463363 209.247796 29.845312 232.464302 29.845312 255.908776 
C 29.845312 279.35325 34.463363 302.569756 43.435174 324.229626 
C 52.406986 345.889495 65.558081 365.571499 82.135827 382.149245 
C 98.713574 398.726992 118.395577 411.878086 140.055447 420.849898 
C 161.715316 429.82171 184.931822 434.43976 208.376296 434.43976 
C 231.820771 434.43976 255.037277 429.82171 276.697146 420.849898 
C 298.357016 411.878086 318.039019 398.726992 334.616766 382.149245 
C 351.194512 365.571499 364.345607 345.889495 373.317419 324.229626 
C 382.28923 302.569756 386.90728 279.35325 386.90728 255.908776 
M 208.376296 255.908776 
C 208.376296 255.908776 208.376296 255.908776 208.376296 255.908776 
C 208.376296 255.908776 208.376296 255.908776 208.376296 255.908776 
C 208.376296 255.908776 208.376296 255.908776 208.376296 255.908776 
C 208.376296 255.908776 208.376296 255.908776 208.376296 255.908776 
C 208.376296 255.908776 208.376296 255.908776 208.376296 255.908776 
C 208.376296 255.908776 208.376296 255.908776 208.376296 255.908776 
C 208.376296 255.908776 208.376296 255.908776 208.376296 255.908776 
C 208.376296 255.908776 208.376296 255.908776 208.376296 255.908776 
C 208.376296 255.908776 208.376296 255.908776 208.376296 255.908776 
C 208.376296 255.908776 208.376296 255.908776 208.376296 255.908776 
C 208.376296 255.908776 208.376296 255.908776 208.376296 255.908776 
C 208.376296 255.908776 208.376296 255.908776 208.376296 255.908776 
C 208.376296 255.908776 208.376296 255.908776 208.376296 255.908776 
C 208.376296 255.908776 208.376296 255.908776 208.376296 255.908776 
C 208.376296 255.908776 208.376296 255.908776 208.376296 255.908776 
C 208.376296 255.908776 208.376296 255.908776 208.376296 255.908776 
M 386.90728 255.908776 
z
"/>
  </clipPath>
 </defs>
</svg>
