<?xml version="1.0" encoding="utf-8" standalone="no"?>
<!DOCTYPE svg PUBLIC "-//W3C//DTD SVG 1.1//EN"
  "http://www.w3.org/Graphics/SVG/1.1/DTD/svg11.dtd">
<svg xmlns:xlink="http://www.w3.org/1999/xlink" width="498.933531pt" height="460.67976pt" viewBox="0 0 498.933531 460.67976" xmlns="http://www.w3.org/2000/svg" version="1.1">
 <metadata>
  <rdf:RDF xmlns:dc="http://purl.org/dc/elements/1.1/" xmlns:cc="http://creativecommons.org/ns#" xmlns:rdf="http://www.w3.org/1999/02/22-rdf-syntax-ns#">
   <cc:Work>
    <dc:type rdf:resource="http://purl.org/dc/dcmitype/StillImage"/>
    <dc:date>2025-02-04T02:46:33.690003</dc:date>
    <dc:format>image/svg+xml</dc:format>
    <dc:creator>
     <cc:Agent>
      <dc:title>Matplotlib v3.10.0, https://matplotlib.org/</dc:title>
     </cc:Agent>
    </dc:creator>
   </cc:Work>
  </rdf:RDF>
 </metadata>
 <defs>
  <style type="text/css">*{stroke-linejoin: round; stroke-linecap: butt}</style>
 </defs>
 <g id="figure_1">
  <g id="patch_1">
   <path d="M 0 460.67976 
L 498.933531 460.67976 
L 498.933531 0 
L 0 0 
z
" style="fill: #ffffff"/>
  </g>
  <g id="axes_1">
   <g id="patch_2">
    <path d="M 387.62175 255.752479 
C 387.62175 232.261093 382.994459 208.998131 374.004695 187.294921 
C 365.014931 165.591711 351.837522 145.870324 335.226604 129.259406 
C 318.615686 112.648488 298.894299 99.471079 277.191089 90.481315 
C 255.487879 81.491551 232.224917 76.86426 208.733531 76.86426 
C 185.242146 76.86426 161.979184 81.491551 140.275974 90.481315 
C 118.572763 99.471079 98.851377 112.648488 82.240459 129.259406 
C 65.629541 145.870324 52.452131 165.591711 43.462367 187.294921 
C 34.472603 208.998131 29.845313 232.261093 29.845313 255.752479 
C 29.845313 279.243864 34.472603 302.506826 43.462367 324.210036 
C 52.452131 345.913247 65.629541 365.634633 82.240459 382.245551 
C 98.851377 398.856469 118.572763 412.033879 140.275974 421.023643 
C 161.979184 430.013407 185.242146 434.640697 208.733531 434.640697 
C 232.224917 434.640697 255.487879 430.013407 277.191089 421.023643 
C 298.894299 412.033879 318.615686 398.856469 335.226604 382.245551 
C 351.837522 365.634633 365.014931 345.913247 374.004695 324.210036 
C 382.994459 302.506826 387.62175 279.243864 387.62175 255.752479 
M 208.733531 255.752479 
C 208.733531 255.752479 208.733531 255.752479 208.733531 255.752479 
C 208.733531 255.752479 208.733531 255.752479 208.733531 255.752479 
C 208.733531 255.752479 208.733531 255.752479 208.733531 255.752479 
C 208.733531 255.752479 208.733531 255.752479 208.733531 255.752479 
C 208.733531 255.752479 208.733531 255.752479 208.733531 255.752479 
C 208.733531 255.752479 208.733531 255.752479 208.733531 255.752479 
C 208.733531 255.752479 208.733531 255.752479 208.733531 255.752479 
C 208.733531 255.752479 208.733531 255.752479 208.733531 255.752479 
C 208.733531 255.752479 208.733531 255.752479 208.733531 255.752479 
C 208.733531 255.752479 208.733531 255.752479 208.733531 255.752479 
C 208.733531 255.752479 208.733531 255.752479 208.733531 255.752479 
C 208.733531 255.752479 208.733531 255.752479 208.733531 255.752479 
C 208.733531 255.752479 208.733531 255.752479 208.733531 255.752479 
C 208.733531 255.752479 208.733531 255.752479 208.733531 255.752479 
C 208.733531 255.752479 208.733531 255.752479 208.733531 255.752479 
C 208.733531 255.752479 208.733531 255.752479 208.733531 255.752479 
z
" style="fill: #ffffff"/>
   </g>
   <g id="FillBetweenPolyCollection_1">
    <defs>
     <path id="m8a4c6509d7" d="M 208.733531 -309.908054 
L 208.733531 -335.543914 
L 223.985062 -330.534941 
L 238.766909 -326.777485 
L 252.760364 -321.016498 
L 267.176869 -316.281758 
L 277.820261 -305.016689 
L 289.307346 -295.876317 
L 297.953682 -283.969437 
L 308.351419 -273.688544 
L 320.006936 -263.32807 
L 322.369079 -248.02356 
L 325.638335 -233.741727 
L 335.605619 -220.332342 
L 343.368766 -204.927281 
L 339.676921 -189.027875 
L 326.794966 -175.827751 
L 316.442649 -164.078601 
L 304.413285 -154.710673 
L 294.02607 -146.054093 
L 285.660461 -136.775968 
L 275.567631 -129.487177 
L 265.366307 -122.880541 
L 255.26802 -116.26322 
L 244.967232 -109.386866 
L 233.067177 -106.2018 
L 220.913097 -104.619532 
L 208.733531 -105.857783 
L 196.502484 -104.195542 
L 184.751374 -107.627846 
L 172.537083 -109.485092 
L 162.604252 -117.035282 
L 152.805382 -123.901369 
L 140.044668 -127.393583 
L 133.582632 -138.349394 
L 127.384658 -148.776208 
L 118.789916 -157.72123 
L 117.067499 -170.162941 
L 110.446083 -180.701601 
L 104.27979 -192.244301 
L 101.661721 -204.927281 
L 100.795298 -218.033356 
L 100.555417 -231.590792 
L 101.635959 -245.544033 
L 105.133141 -259.300961 
L 110.449401 -272.767918 
L 117.782748 -285.502644 
L 127.436671 -296.692467 
L 136.620477 -309.401077 
L 148.849951 -319.02591 
L 163.054744 -325.372343 
L 176.977358 -333.767141 
L 193.206518 -332.803742 
L 208.733531 -335.543914 
L 208.733531 -309.908054 
L 208.733531 -309.908054 
L 196.971399 -301.797157 
L 184.410302 -303.610503 
L 172.897794 -299.418356 
L 163.757279 -290.622371 
L 155.328149 -282.298335 
L 146.029292 -275.705736 
L 139.029421 -266.679735 
L 131.447356 -258.274077 
L 126.712774 -247.975096 
L 121.256339 -238.103004 
L 119.038357 -227.035156 
L 115.853332 -216.204979 
L 117.760374 -204.927281 
L 119.218815 -194.058227 
L 123.92661 -184.024253 
L 126.072315 -173.578017 
L 133.104856 -165.23429 
L 137.372149 -155.670076 
L 143.494324 -147.130387 
L 151.68835 -140.536583 
L 159.13427 -133.070346 
L 168.80632 -128.852336 
L 177.652909 -122.974416 
L 188.077526 -121.122574 
L 198.272006 -118.76887 
L 208.733531 -114.753058 
L 219.27834 -118.08297 
L 229.321367 -121.399148 
L 239.620973 -123.483791 
L 249.601099 -127.060636 
L 260.179884 -130.394372 
L 268.373668 -137.607483 
L 276.394486 -144.984906 
L 285.298609 -152.078224 
L 289.318392 -162.633084 
L 293.119633 -172.923854 
L 296.302674 -183.343426 
L 295.048515 -194.446745 
L 297.687853 -204.927281 
L 305.103471 -216.628711 
L 305.742068 -228.837738 
L 303.228021 -240.764314 
L 299.787657 -252.716173 
L 292.981486 -263.079446 
L 288.34103 -275.453371 
L 280.370225 -285.788392 
L 269.19265 -292.517437 
L 258.086378 -298.961275 
L 246.240414 -303.824804 
L 234.028356 -307.552418 
L 221.733352 -311.990438 
L 208.733531 -309.908054 
z
" style="stroke: #1f77b4; stroke-opacity: 0.3"/>
    </defs>
    <g clip-path="url(#p30c046cfde)">
     <use xlink:href="#m8a4c6509d7" x="0" y="460.67976" style="fill: #1f77b4; fill-opacity: 0.3; stroke: #1f77b4; stroke-opacity: 0.3"/>
    </g>
   </g>
   <g id="FillBetweenPolyCollection_2">
    <path d="M 208.733531 115.548142 
L 208.733531 152.180541 
L 221.270752 152.499179 
L 233.519918 155.190154 
L 245.268735 159.417065 
L 257.510299 162.816113 
L 267.069514 171.238217 
L 276.629377 179.113912 
L 283.650452 189.381878 
L 294.055077 196.859268 
L 300.202323 207.745953 
L 298.648693 221.652156 
L 299.968717 233.265025 
L 304.431711 244.132616 
L 302.225639 255.752479 
L 301.644712 267.033938 
L 297.833985 277.713768 
L 292.955858 287.693794 
L 287.952574 297.329839 
L 282.252031 306.498635 
L 274.713084 314.205262 
L 266.289111 320.719298 
L 259.844768 329.799888 
L 249.399177 333.234393 
L 239.403431 336.622358 
L 229.448216 339.795258 
L 219.118019 341.276431 
L 208.733531 344.982645 
L 198.459126 340.369817 
L 188.269787 338.777155 
L 178.243549 336.147955 
L 169.592651 330.329195 
L 159.851206 326.570753 
L 152.007864 319.78252 
L 144.956673 312.253845 
L 138.388492 304.308153 
L 133.557805 295.207743 
L 128.432935 286.206478 
L 126.628433 275.989568 
L 119.247339 266.61807 
L 119.40189 255.752479 
L 118.407881 244.784959 
L 119.862972 233.847853 
L 124.25819 223.715207 
L 127.0885 212.90186 
L 133.795326 204.02637 
L 142.931207 197.456706 
L 145.794733 184.709261 
L 156.450195 180.006989 
L 165.364179 173.119081 
L 174.621214 165.80569 
L 185.41231 161.134563 
L 198.165572 168.717503 
L 208.733531 152.180541 
L 208.733531 115.548142 
L 208.733531 115.548142 
L 191.874537 116.906172 
L 174.751411 117.881597 
L 160.119881 127.568817 
L 139.993343 124.778992 
L 124.284702 133.407228 
L 114.706645 149.618064 
L 107.333643 165.920017 
L 103.285566 182.967003 
L 98.30608 197.795681 
L 99.68412 214.395492 
L 98.023016 228.464787 
L 96.481245 242.122583 
L 96.840661 255.752479 
L 101.047895 268.827882 
L 106.660473 280.911228 
L 115.624057 291.064244 
L 115.288007 304.796473 
L 125.471951 313.223798 
L 131.740508 323.962345 
L 136.755412 336.998981 
L 151.358286 338.874872 
L 161.434371 345.873499 
L 171.118824 354.93431 
L 182.959574 360.321532 
L 195.951682 361.020476 
L 208.733531 358.918517 
L 221.405297 360.113862 
L 234.19179 359.040693 
L 247.211841 357.211444 
L 257.321668 348.329439 
L 266.569931 339.542969 
L 278.805095 334.846923 
L 289.57494 327.371717 
L 295.808831 315.856219 
L 310.056034 308.93063 
L 332.394552 302.650918 
L 350.217038 290.625031 
L 376.020665 276.064814 
L 380.733303 255.752479 
L 358.425632 237.576567 
L 327.982977 226.36013 
L 326.796598 210.977064 
L 331.290931 191.429394 
L 318.329265 180.104006 
L 302.183465 172.963061 
L 290.827616 163.087413 
L 281.826443 149.859115 
L 271.924832 135.351515 
L 255.52402 132.3761 
L 240.003882 128.88368 
L 224.52839 125.670111 
L 208.733531 115.548142 
z
" clip-path="url(#p30c046cfde)" style="fill: #1f77b4; fill-opacity: 0.2"/>
   </g>
   <g id="matplotlib.axis_1">
    <g id="xtick_1">
     <g id="line2d_1">
      <path d="M 208.733531 255.752479 
L 208.733531 76.86426 
" clip-path="url(#p30c046cfde)" style="fill: none; stroke: #b0b0b0; stroke-width: 0.8; stroke-linecap: square"/>
     </g>
     <g id="text_1">
      <!-- Jan -->
      <g transform="translate(201.025719 65.623635) scale(0.1 -0.1)">
       <defs>
        <path id="DejaVuSans-4a" d="M 628 4666 
L 1259 4666 
L 1259 325 
Q 1259 -519 939 -900 
Q 619 -1281 -91 -1281 
L -331 -1281 
L -331 -750 
L -134 -750 
Q 284 -750 456 -515 
Q 628 -281 628 325 
L 628 4666 
z
" transform="scale(0.015625)"/>
        <path id="DejaVuSans-61" d="M 2194 1759 
Q 1497 1759 1228 1600 
Q 959 1441 959 1056 
Q 959 750 1161 570 
Q 1363 391 1709 391 
Q 2188 391 2477 730 
Q 2766 1069 2766 1631 
L 2766 1759 
L 2194 1759 
z
M 3341 1997 
L 3341 0 
L 2766 0 
L 2766 531 
Q 2569 213 2275 61 
Q 1981 -91 1556 -91 
Q 1019 -91 701 211 
Q 384 513 384 1019 
Q 384 1609 779 1909 
Q 1175 2209 1959 2209 
L 2766 2209 
L 2766 2266 
Q 2766 2663 2505 2880 
Q 2244 3097 1772 3097 
Q 1472 3097 1187 3025 
Q 903 2953 641 2809 
L 641 3341 
Q 956 3463 1253 3523 
Q 1550 3584 1831 3584 
Q 2591 3584 2966 3190 
Q 3341 2797 3341 1997 
z
" transform="scale(0.015625)"/>
        <path id="DejaVuSans-6e" d="M 3513 2113 
L 3513 0 
L 2938 0 
L 2938 2094 
Q 2938 2591 2744 2837 
Q 2550 3084 2163 3084 
Q 1697 3084 1428 2787 
Q 1159 2491 1159 1978 
L 1159 0 
L 581 0 
L 581 3500 
L 1159 3500 
L 1159 2956 
Q 1366 3272 1645 3428 
Q 1925 3584 2291 3584 
Q 2894 3584 3203 3211 
Q 3513 2838 3513 2113 
z
" transform="scale(0.015625)"/>
       </defs>
       <use xlink:href="#DejaVuSans-4a"/>
       <use xlink:href="#DejaVuSans-61" transform="translate(29.492188 0)"/>
       <use xlink:href="#DejaVuSans-6e" transform="translate(90.771484 0)"/>
      </g>
     </g>
    </g>
    <g id="xtick_2">
     <g id="line2d_2">
      <path d="M 208.733531 255.752479 
L 298.177641 100.830737 
" clip-path="url(#p30c046cfde)" style="fill: none; stroke: #b0b0b0; stroke-width: 0.8; stroke-linecap: square"/>
     </g>
     <g id="text_2">
      <!-- Feb -->
      <g transform="translate(296.326078 91.465756) scale(0.1 -0.1)">
       <defs>
        <path id="DejaVuSans-46" d="M 628 4666 
L 3309 4666 
L 3309 4134 
L 1259 4134 
L 1259 2759 
L 3109 2759 
L 3109 2228 
L 1259 2228 
L 1259 0 
L 628 0 
L 628 4666 
z
" transform="scale(0.015625)"/>
        <path id="DejaVuSans-65" d="M 3597 1894 
L 3597 1613 
L 953 1613 
Q 991 1019 1311 708 
Q 1631 397 2203 397 
Q 2534 397 2845 478 
Q 3156 559 3463 722 
L 3463 178 
Q 3153 47 2828 -22 
Q 2503 -91 2169 -91 
Q 1331 -91 842 396 
Q 353 884 353 1716 
Q 353 2575 817 3079 
Q 1281 3584 2069 3584 
Q 2775 3584 3186 3129 
Q 3597 2675 3597 1894 
z
M 3022 2063 
Q 3016 2534 2758 2815 
Q 2500 3097 2075 3097 
Q 1594 3097 1305 2825 
Q 1016 2553 972 2059 
L 3022 2063 
z
" transform="scale(0.015625)"/>
        <path id="DejaVuSans-62" d="M 3116 1747 
Q 3116 2381 2855 2742 
Q 2594 3103 2138 3103 
Q 1681 3103 1420 2742 
Q 1159 2381 1159 1747 
Q 1159 1113 1420 752 
Q 1681 391 2138 391 
Q 2594 391 2855 752 
Q 3116 1113 3116 1747 
z
M 1159 2969 
Q 1341 3281 1617 3432 
Q 1894 3584 2278 3584 
Q 2916 3584 3314 3078 
Q 3713 2572 3713 1747 
Q 3713 922 3314 415 
Q 2916 -91 2278 -91 
Q 1894 -91 1617 61 
Q 1341 213 1159 525 
L 1159 0 
L 581 0 
L 581 4863 
L 1159 4863 
L 1159 2969 
z
" transform="scale(0.015625)"/>
       </defs>
       <use xlink:href="#DejaVuSans-46"/>
       <use xlink:href="#DejaVuSans-65" transform="translate(52.019531 0)"/>
       <use xlink:href="#DejaVuSans-62" transform="translate(113.542969 0)"/>
      </g>
     </g>
    </g>
    <g id="xtick_3">
     <g id="line2d_3">
      <path d="M 208.733531 255.752479 
L 363.655273 166.308369 
" clip-path="url(#p30c046cfde)" style="fill: none; stroke: #b0b0b0; stroke-width: 0.8; stroke-linecap: square"/>
     </g>
     <g id="text_3">
      <!-- Mar -->
      <g transform="translate(366.346035 162.067744) scale(0.1 -0.1)">
       <defs>
        <path id="DejaVuSans-4d" d="M 628 4666 
L 1569 4666 
L 2759 1491 
L 3956 4666 
L 4897 4666 
L 4897 0 
L 4281 0 
L 4281 4097 
L 3078 897 
L 2444 897 
L 1241 4097 
L 1241 0 
L 628 0 
L 628 4666 
z
" transform="scale(0.015625)"/>
        <path id="DejaVuSans-72" d="M 2631 2963 
Q 2534 3019 2420 3045 
Q 2306 3072 2169 3072 
Q 1681 3072 1420 2755 
Q 1159 2438 1159 1844 
L 1159 0 
L 581 0 
L 581 3500 
L 1159 3500 
L 1159 2956 
Q 1341 3275 1631 3429 
Q 1922 3584 2338 3584 
Q 2397 3584 2469 3576 
Q 2541 3569 2628 3553 
L 2631 2963 
z
" transform="scale(0.015625)"/>
       </defs>
       <use xlink:href="#DejaVuSans-4d"/>
       <use xlink:href="#DejaVuSans-61" transform="translate(86.279297 0)"/>
       <use xlink:href="#DejaVuSans-72" transform="translate(147.558594 0)"/>
      </g>
     </g>
    </g>
    <g id="xtick_4">
     <g id="line2d_4">
      <path d="M 208.733531 255.752479 
L 387.62175 255.752479 
" clip-path="url(#p30c046cfde)" style="fill: none; stroke: #b0b0b0; stroke-width: 0.8; stroke-linecap: square"/>
     </g>
     <g id="text_4">
      <!-- Apr -->
      <g transform="translate(392.97175 258.511854) scale(0.1 -0.1)">
       <defs>
        <path id="DejaVuSans-41" d="M 2188 4044 
L 1331 1722 
L 3047 1722 
L 2188 4044 
z
M 1831 4666 
L 2547 4666 
L 4325 0 
L 3669 0 
L 3244 1197 
L 1141 1197 
L 716 0 
L 50 0 
L 1831 4666 
z
" transform="scale(0.015625)"/>
        <path id="DejaVuSans-70" d="M 1159 525 
L 1159 -1331 
L 581 -1331 
L 581 3500 
L 1159 3500 
L 1159 2969 
Q 1341 3281 1617 3432 
Q 1894 3584 2278 3584 
Q 2916 3584 3314 3078 
Q 3713 2572 3713 1747 
Q 3713 922 3314 415 
Q 2916 -91 2278 -91 
Q 1894 -91 1617 61 
Q 1341 213 1159 525 
z
M 3116 1747 
Q 3116 2381 2855 2742 
Q 2594 3103 2138 3103 
Q 1681 3103 1420 2742 
Q 1159 2381 1159 1747 
Q 1159 1113 1420 752 
Q 1681 391 2138 391 
Q 2594 391 2855 752 
Q 3116 1113 3116 1747 
z
" transform="scale(0.015625)"/>
       </defs>
       <use xlink:href="#DejaVuSans-41"/>
       <use xlink:href="#DejaVuSans-70" transform="translate(68.408203 0)"/>
       <use xlink:href="#DejaVuSans-72" transform="translate(131.884766 0)"/>
      </g>
     </g>
    </g>
    <g id="xtick_5">
     <g id="line2d_5">
      <path d="M 208.733531 255.752479 
L 363.655273 345.196588 
" clip-path="url(#p30c046cfde)" style="fill: none; stroke: #b0b0b0; stroke-width: 0.8; stroke-linecap: square"/>
     </g>
     <g id="text_5">
      <!-- May -->
      <g transform="translate(365.442129 354.955963) scale(0.1 -0.1)">
       <defs>
        <path id="DejaVuSans-79" d="M 2059 -325 
Q 1816 -950 1584 -1140 
Q 1353 -1331 966 -1331 
L 506 -1331 
L 506 -850 
L 844 -850 
Q 1081 -850 1212 -737 
Q 1344 -625 1503 -206 
L 1606 56 
L 191 3500 
L 800 3500 
L 1894 763 
L 2988 3500 
L 3597 3500 
L 2059 -325 
z
" transform="scale(0.015625)"/>
       </defs>
       <use xlink:href="#DejaVuSans-4d"/>
       <use xlink:href="#DejaVuSans-61" transform="translate(86.279297 0)"/>
       <use xlink:href="#DejaVuSans-79" transform="translate(147.558594 0)"/>
      </g>
     </g>
    </g>
    <g id="xtick_6">
     <g id="line2d_6">
      <path d="M 208.733531 255.752479 
L 298.177641 410.674221 
" clip-path="url(#p30c046cfde)" style="fill: none; stroke: #b0b0b0; stroke-width: 0.8; stroke-linecap: square"/>
     </g>
     <g id="text_6">
      <!-- Jun -->
      <g transform="translate(297.365141 425.557951) scale(0.1 -0.1)">
       <defs>
        <path id="DejaVuSans-75" d="M 544 1381 
L 544 3500 
L 1119 3500 
L 1119 1403 
Q 1119 906 1312 657 
Q 1506 409 1894 409 
Q 2359 409 2629 706 
Q 2900 1003 2900 1516 
L 2900 3500 
L 3475 3500 
L 3475 0 
L 2900 0 
L 2900 538 
Q 2691 219 2414 64 
Q 2138 -91 1772 -91 
Q 1169 -91 856 284 
Q 544 659 544 1381 
z
M 1991 3584 
L 1991 3584 
z
" transform="scale(0.015625)"/>
       </defs>
       <use xlink:href="#DejaVuSans-4a"/>
       <use xlink:href="#DejaVuSans-75" transform="translate(29.492188 0)"/>
       <use xlink:href="#DejaVuSans-6e" transform="translate(92.871094 0)"/>
      </g>
     </g>
    </g>
    <g id="xtick_7">
     <g id="line2d_7">
      <path d="M 208.733531 255.752479 
L 208.733531 434.640697 
" clip-path="url(#p30c046cfde)" style="fill: none; stroke: #b0b0b0; stroke-width: 0.8; stroke-linecap: square"/>
     </g>
     <g id="text_7">
      <!-- Jul -->
      <g transform="translate(202.700719 451.400072) scale(0.1 -0.1)">
       <defs>
        <path id="DejaVuSans-6c" d="M 603 4863 
L 1178 4863 
L 1178 0 
L 603 0 
L 603 4863 
z
" transform="scale(0.015625)"/>
       </defs>
       <use xlink:href="#DejaVuSans-4a"/>
       <use xlink:href="#DejaVuSans-75" transform="translate(29.492188 0)"/>
       <use xlink:href="#DejaVuSans-6c" transform="translate(92.871094 0)"/>
      </g>
     </g>
    </g>
    <g id="xtick_8">
     <g id="line2d_8">
      <path d="M 208.733531 255.752479 
L 119.289422 410.674221 
" clip-path="url(#p30c046cfde)" style="fill: none; stroke: #b0b0b0; stroke-width: 0.8; stroke-linecap: square"/>
     </g>
     <g id="text_8">
      <!-- Aug -->
      <g transform="translate(102.526141 425.557951) scale(0.1 -0.1)">
       <defs>
        <path id="DejaVuSans-67" d="M 2906 1791 
Q 2906 2416 2648 2759 
Q 2391 3103 1925 3103 
Q 1463 3103 1205 2759 
Q 947 2416 947 1791 
Q 947 1169 1205 825 
Q 1463 481 1925 481 
Q 2391 481 2648 825 
Q 2906 1169 2906 1791 
z
M 3481 434 
Q 3481 -459 3084 -895 
Q 2688 -1331 1869 -1331 
Q 1566 -1331 1297 -1286 
Q 1028 -1241 775 -1147 
L 775 -588 
Q 1028 -725 1275 -790 
Q 1522 -856 1778 -856 
Q 2344 -856 2625 -561 
Q 2906 -266 2906 331 
L 2906 616 
Q 2728 306 2450 153 
Q 2172 0 1784 0 
Q 1141 0 747 490 
Q 353 981 353 1791 
Q 353 2603 747 3093 
Q 1141 3584 1784 3584 
Q 2172 3584 2450 3431 
Q 2728 3278 2906 2969 
L 2906 3500 
L 3481 3500 
L 3481 434 
z
" transform="scale(0.015625)"/>
       </defs>
       <use xlink:href="#DejaVuSans-41"/>
       <use xlink:href="#DejaVuSans-75" transform="translate(68.408203 0)"/>
       <use xlink:href="#DejaVuSans-67" transform="translate(131.787109 0)"/>
      </g>
     </g>
    </g>
    <g id="xtick_9">
     <g id="line2d_9">
      <path d="M 208.733531 255.752479 
L 53.811789 345.196588 
" clip-path="url(#p30c046cfde)" style="fill: none; stroke: #b0b0b0; stroke-width: 0.8; stroke-linecap: square"/>
     </g>
     <g id="text_9">
      <!-- Sept -->
      <g transform="translate(30.302277 354.955963) scale(0.1 -0.1)">
       <defs>
        <path id="DejaVuSans-53" d="M 3425 4513 
L 3425 3897 
Q 3066 4069 2747 4153 
Q 2428 4238 2131 4238 
Q 1616 4238 1336 4038 
Q 1056 3838 1056 3469 
Q 1056 3159 1242 3001 
Q 1428 2844 1947 2747 
L 2328 2669 
Q 3034 2534 3370 2195 
Q 3706 1856 3706 1288 
Q 3706 609 3251 259 
Q 2797 -91 1919 -91 
Q 1588 -91 1214 -16 
Q 841 59 441 206 
L 441 856 
Q 825 641 1194 531 
Q 1563 422 1919 422 
Q 2459 422 2753 634 
Q 3047 847 3047 1241 
Q 3047 1584 2836 1778 
Q 2625 1972 2144 2069 
L 1759 2144 
Q 1053 2284 737 2584 
Q 422 2884 422 3419 
Q 422 4038 858 4394 
Q 1294 4750 2059 4750 
Q 2388 4750 2728 4690 
Q 3069 4631 3425 4513 
z
" transform="scale(0.015625)"/>
        <path id="DejaVuSans-74" d="M 1172 4494 
L 1172 3500 
L 2356 3500 
L 2356 3053 
L 1172 3053 
L 1172 1153 
Q 1172 725 1289 603 
Q 1406 481 1766 481 
L 2356 481 
L 2356 0 
L 1766 0 
Q 1100 0 847 248 
Q 594 497 594 1153 
L 594 3053 
L 172 3053 
L 172 3500 
L 594 3500 
L 594 4494 
L 1172 4494 
z
" transform="scale(0.015625)"/>
       </defs>
       <use xlink:href="#DejaVuSans-53"/>
       <use xlink:href="#DejaVuSans-65" transform="translate(63.476562 0)"/>
       <use xlink:href="#DejaVuSans-70" transform="translate(125 0)"/>
       <use xlink:href="#DejaVuSans-74" transform="translate(188.476562 0)"/>
      </g>
     </g>
    </g>
    <g id="xtick_10">
     <g id="line2d_10">
      <path d="M 208.733531 255.752479 
L 29.845313 255.752479 
" clip-path="url(#p30c046cfde)" style="fill: none; stroke: #b0b0b0; stroke-width: 0.8; stroke-linecap: square"/>
     </g>
     <g id="text_10">
      <!-- Oct -->
      <g transform="translate(7.2 258.511854) scale(0.1 -0.1)">
       <defs>
        <path id="DejaVuSans-4f" d="M 2522 4238 
Q 1834 4238 1429 3725 
Q 1025 3213 1025 2328 
Q 1025 1447 1429 934 
Q 1834 422 2522 422 
Q 3209 422 3611 934 
Q 4013 1447 4013 2328 
Q 4013 3213 3611 3725 
Q 3209 4238 2522 4238 
z
M 2522 4750 
Q 3503 4750 4090 4092 
Q 4678 3434 4678 2328 
Q 4678 1225 4090 567 
Q 3503 -91 2522 -91 
Q 1538 -91 948 565 
Q 359 1222 359 2328 
Q 359 3434 948 4092 
Q 1538 4750 2522 4750 
z
" transform="scale(0.015625)"/>
        <path id="DejaVuSans-63" d="M 3122 3366 
L 3122 2828 
Q 2878 2963 2633 3030 
Q 2388 3097 2138 3097 
Q 1578 3097 1268 2742 
Q 959 2388 959 1747 
Q 959 1106 1268 751 
Q 1578 397 2138 397 
Q 2388 397 2633 464 
Q 2878 531 3122 666 
L 3122 134 
Q 2881 22 2623 -34 
Q 2366 -91 2075 -91 
Q 1284 -91 818 406 
Q 353 903 353 1747 
Q 353 2603 823 3093 
Q 1294 3584 2113 3584 
Q 2378 3584 2631 3529 
Q 2884 3475 3122 3366 
z
" transform="scale(0.015625)"/>
       </defs>
       <use xlink:href="#DejaVuSans-4f"/>
       <use xlink:href="#DejaVuSans-63" transform="translate(78.710938 0)"/>
       <use xlink:href="#DejaVuSans-74" transform="translate(133.691406 0)"/>
      </g>
     </g>
    </g>
    <g id="xtick_11">
     <g id="line2d_11">
      <path d="M 208.733531 255.752479 
L 53.811789 166.308369 
" clip-path="url(#p30c046cfde)" style="fill: none; stroke: #b0b0b0; stroke-width: 0.8; stroke-linecap: square"/>
     </g>
     <g id="text_11">
      <!-- Nov -->
      <g transform="translate(31.928059 162.067744) scale(0.1 -0.1)">
       <defs>
        <path id="DejaVuSans-4e" d="M 628 4666 
L 1478 4666 
L 3547 763 
L 3547 4666 
L 4159 4666 
L 4159 0 
L 3309 0 
L 1241 3903 
L 1241 0 
L 628 0 
L 628 4666 
z
" transform="scale(0.015625)"/>
        <path id="DejaVuSans-6f" d="M 1959 3097 
Q 1497 3097 1228 2736 
Q 959 2375 959 1747 
Q 959 1119 1226 758 
Q 1494 397 1959 397 
Q 2419 397 2687 759 
Q 2956 1122 2956 1747 
Q 2956 2369 2687 2733 
Q 2419 3097 1959 3097 
z
M 1959 3584 
Q 2709 3584 3137 3096 
Q 3566 2609 3566 1747 
Q 3566 888 3137 398 
Q 2709 -91 1959 -91 
Q 1206 -91 779 398 
Q 353 888 353 1747 
Q 353 2609 779 3096 
Q 1206 3584 1959 3584 
z
" transform="scale(0.015625)"/>
        <path id="DejaVuSans-76" d="M 191 3500 
L 800 3500 
L 1894 563 
L 2988 3500 
L 3597 3500 
L 2284 0 
L 1503 0 
L 191 3500 
z
" transform="scale(0.015625)"/>
       </defs>
       <use xlink:href="#DejaVuSans-4e"/>
       <use xlink:href="#DejaVuSans-6f" transform="translate(74.804688 0)"/>
       <use xlink:href="#DejaVuSans-76" transform="translate(135.986328 0)"/>
      </g>
     </g>
    </g>
    <g id="xtick_12">
     <g id="line2d_12">
      <path d="M 208.733531 255.752479 
L 119.289422 100.830737 
" clip-path="url(#p30c046cfde)" style="fill: none; stroke: #b0b0b0; stroke-width: 0.8; stroke-linecap: square"/>
     </g>
     <g id="text_12">
      <!-- Dec -->
      <g transform="translate(102.613641 91.465756) scale(0.1 -0.1)">
       <defs>
        <path id="DejaVuSans-44" d="M 1259 4147 
L 1259 519 
L 2022 519 
Q 2988 519 3436 956 
Q 3884 1394 3884 2338 
Q 3884 3275 3436 3711 
Q 2988 4147 2022 4147 
L 1259 4147 
z
M 628 4666 
L 1925 4666 
Q 3281 4666 3915 4102 
Q 4550 3538 4550 2338 
Q 4550 1131 3912 565 
Q 3275 0 1925 0 
L 628 0 
L 628 4666 
z
" transform="scale(0.015625)"/>
       </defs>
       <use xlink:href="#DejaVuSans-44"/>
       <use xlink:href="#DejaVuSans-65" transform="translate(77.001953 0)"/>
       <use xlink:href="#DejaVuSans-63" transform="translate(138.525391 0)"/>
      </g>
     </g>
    </g>
   </g>
   <g id="matplotlib.axis_2">
    <g id="ytick_1">
     <g id="line2d_13">
      <path d="M 208.733531 221.927548 
C 213.175381 221.927548 217.574038 222.802496 221.677772 224.502318 
C 225.781505 226.20214 229.510507 228.693779 232.651369 231.834641 
C 235.792231 234.975503 238.28387 238.704505 239.983692 242.808238 
C 241.683514 246.911972 242.558462 251.310629 242.558462 255.752479 
C 242.558462 260.194328 241.683514 264.592986 239.983692 268.696719 
C 238.28387 272.800453 235.792231 276.529455 232.651369 279.670316 
C 229.510507 282.811178 225.781505 285.302818 221.677772 287.00264 
C 217.574038 288.702462 213.175381 289.577409 208.733531 289.577409 
C 204.291682 289.577409 199.893024 288.702462 195.789291 287.00264 
C 191.685557 285.302818 187.956555 282.811178 184.815694 279.670316 
C 181.674832 276.529455 179.183192 272.800453 177.48337 268.696719 
C 175.783548 264.592986 174.908601 260.194328 174.908601 255.752479 
C 174.908601 251.310629 175.783548 246.911972 177.48337 242.808238 
C 179.183192 238.704505 181.674832 234.975503 184.815694 231.834641 
C 187.956555 228.693779 191.685557 226.20214 195.789291 224.502318 
C 199.893024 222.802496 204.291682 221.927548 208.733531 221.927548 
" clip-path="url(#p30c046cfde)" style="fill: none; stroke: #b0b0b0; stroke-width: 0.8; stroke-linecap: square"/>
     </g>
     <g id="text_13">
      <!-- 1000 -->
      <g transform="translate(208.733531 287.497722) scale(0.1 -0.1)">
       <defs>
        <path id="DejaVuSans-31" d="M 794 531 
L 1825 531 
L 1825 4091 
L 703 3866 
L 703 4441 
L 1819 4666 
L 2450 4666 
L 2450 531 
L 3481 531 
L 3481 0 
L 794 0 
L 794 531 
z
" transform="scale(0.015625)"/>
        <path id="DejaVuSans-30" d="M 2034 4250 
Q 1547 4250 1301 3770 
Q 1056 3291 1056 2328 
Q 1056 1369 1301 889 
Q 1547 409 2034 409 
Q 2525 409 2770 889 
Q 3016 1369 3016 2328 
Q 3016 3291 2770 3770 
Q 2525 4250 2034 4250 
z
M 2034 4750 
Q 2819 4750 3233 4129 
Q 3647 3509 3647 2328 
Q 3647 1150 3233 529 
Q 2819 -91 2034 -91 
Q 1250 -91 836 529 
Q 422 1150 422 2328 
Q 422 3509 836 4129 
Q 1250 4750 2034 4750 
z
" transform="scale(0.015625)"/>
       </defs>
       <use xlink:href="#DejaVuSans-31"/>
       <use xlink:href="#DejaVuSans-30" transform="translate(63.623047 0)"/>
       <use xlink:href="#DejaVuSans-30" transform="translate(127.246094 0)"/>
       <use xlink:href="#DejaVuSans-30" transform="translate(190.869141 0)"/>
      </g>
     </g>
    </g>
    <g id="ytick_2">
     <g id="line2d_14">
      <path d="M 208.733531 188.102618 
C 217.61723 188.102618 226.414545 189.852512 234.622012 193.252157 
C 242.829479 196.651801 250.287483 201.63508 256.569207 207.916803 
C 262.85093 214.198527 267.834209 221.656531 271.233853 229.863998 
C 274.633498 238.071465 276.383392 246.86878 276.383392 255.752479 
C 276.383392 264.636177 274.633498 273.433493 271.233853 281.64096 
C 267.834209 289.848427 262.85093 297.306431 256.569207 303.588154 
C 250.287483 309.869878 242.829479 314.853156 234.622012 318.252801 
C 226.414545 321.652445 217.61723 323.40234 208.733531 323.40234 
C 199.849833 323.40234 191.052517 321.652445 182.84505 318.252801 
C 174.637583 314.853156 167.179579 309.869878 160.897856 303.588154 
C 154.616132 297.306431 149.632854 289.848427 146.233209 281.64096 
C 142.833565 273.433493 141.08367 264.636177 141.08367 255.752479 
C 141.08367 246.86878 142.833565 238.071465 146.233209 229.863998 
C 149.632854 221.656531 154.616132 214.198527 160.897856 207.916803 
C 167.179579 201.63508 174.637583 196.651801 182.84505 193.252157 
C 191.052517 189.852512 199.849833 188.102618 208.733531 188.102618 
" clip-path="url(#p30c046cfde)" style="fill: none; stroke: #b0b0b0; stroke-width: 0.8; stroke-linecap: square"/>
     </g>
     <g id="text_14">
      <!-- 2000 -->
      <g transform="translate(208.733531 321.322652) scale(0.1 -0.1)">
       <defs>
        <path id="DejaVuSans-32" d="M 1228 531 
L 3431 531 
L 3431 0 
L 469 0 
L 469 531 
Q 828 903 1448 1529 
Q 2069 2156 2228 2338 
Q 2531 2678 2651 2914 
Q 2772 3150 2772 3378 
Q 2772 3750 2511 3984 
Q 2250 4219 1831 4219 
Q 1534 4219 1204 4116 
Q 875 4013 500 3803 
L 500 4441 
Q 881 4594 1212 4672 
Q 1544 4750 1819 4750 
Q 2544 4750 2975 4387 
Q 3406 4025 3406 3419 
Q 3406 3131 3298 2873 
Q 3191 2616 2906 2266 
Q 2828 2175 2409 1742 
Q 1991 1309 1228 531 
z
" transform="scale(0.015625)"/>
       </defs>
       <use xlink:href="#DejaVuSans-32"/>
       <use xlink:href="#DejaVuSans-30" transform="translate(63.623047 0)"/>
       <use xlink:href="#DejaVuSans-30" transform="translate(127.246094 0)"/>
       <use xlink:href="#DejaVuSans-30" transform="translate(190.869141 0)"/>
      </g>
     </g>
    </g>
    <g id="ytick_3">
     <g id="line2d_15">
      <path d="M 208.733531 154.277687 
C 222.059079 154.277687 235.255052 156.902529 247.566253 162.001996 
C 259.877454 167.101462 271.06446 174.57638 280.487045 183.998965 
C 289.90963 193.42155 297.384548 204.608556 302.484014 216.919757 
C 307.583481 229.230958 310.208323 242.426931 310.208323 255.752479 
C 310.208323 269.078026 307.583481 282.274 302.484014 294.5852 
C 297.384548 306.896401 289.90963 318.083407 280.487045 327.505992 
C 271.06446 336.928577 259.877454 344.403495 247.566253 349.502962 
C 235.255052 354.602428 222.059079 357.22727 208.733531 357.22727 
C 195.407984 357.22727 182.21201 354.602428 169.90081 349.502962 
C 157.589609 344.403495 146.402603 336.928577 136.980018 327.505992 
C 127.557433 318.083407 120.082515 306.896401 114.983048 294.5852 
C 109.883582 282.274 107.25874 269.078026 107.25874 255.752479 
C 107.25874 242.426931 109.883582 229.230958 114.983048 216.919757 
C 120.082515 204.608556 127.557433 193.42155 136.980018 183.998965 
C 146.402603 174.57638 157.589609 167.101462 169.90081 162.001996 
C 182.21201 156.902529 195.407984 154.277687 208.733531 154.277687 
" clip-path="url(#p30c046cfde)" style="fill: none; stroke: #b0b0b0; stroke-width: 0.8; stroke-linecap: square"/>
     </g>
     <g id="text_15">
      <!-- 3000 -->
      <g transform="translate(208.733531 355.147583) scale(0.1 -0.1)">
       <defs>
        <path id="DejaVuSans-33" d="M 2597 2516 
Q 3050 2419 3304 2112 
Q 3559 1806 3559 1356 
Q 3559 666 3084 287 
Q 2609 -91 1734 -91 
Q 1441 -91 1130 -33 
Q 819 25 488 141 
L 488 750 
Q 750 597 1062 519 
Q 1375 441 1716 441 
Q 2309 441 2620 675 
Q 2931 909 2931 1356 
Q 2931 1769 2642 2001 
Q 2353 2234 1838 2234 
L 1294 2234 
L 1294 2753 
L 1863 2753 
Q 2328 2753 2575 2939 
Q 2822 3125 2822 3475 
Q 2822 3834 2567 4026 
Q 2313 4219 1838 4219 
Q 1578 4219 1281 4162 
Q 984 4106 628 3988 
L 628 4550 
Q 988 4650 1302 4700 
Q 1616 4750 1894 4750 
Q 2613 4750 3031 4423 
Q 3450 4097 3450 3541 
Q 3450 3153 3228 2886 
Q 3006 2619 2597 2516 
z
" transform="scale(0.015625)"/>
       </defs>
       <use xlink:href="#DejaVuSans-33"/>
       <use xlink:href="#DejaVuSans-30" transform="translate(63.623047 0)"/>
       <use xlink:href="#DejaVuSans-30" transform="translate(127.246094 0)"/>
       <use xlink:href="#DejaVuSans-30" transform="translate(190.869141 0)"/>
      </g>
     </g>
    </g>
    <g id="ytick_4">
     <g id="line2d_16">
      <path d="M 208.733531 120.452757 
C 226.500928 120.452757 244.095559 123.952546 260.510493 130.751835 
C 276.925428 137.551123 291.841436 147.517681 304.404882 160.081128 
C 316.968329 172.644574 326.934887 187.560582 333.734175 203.975517 
C 340.533464 220.390451 344.033253 237.985082 344.033253 255.752479 
C 344.033253 273.519875 340.533464 291.114507 333.734175 307.529441 
C 326.934887 323.944375 316.968329 338.860383 304.404882 351.42383 
C 291.841436 363.987276 276.925428 373.953834 260.510493 380.753123 
C 244.095559 387.552411 226.500928 391.052201 208.733531 391.052201 
C 190.966135 391.052201 173.371503 387.552411 156.956569 380.753123 
C 140.541635 373.953834 125.625627 363.987276 113.06218 351.42383 
C 100.498734 338.860383 90.532176 323.944375 83.732887 307.529441 
C 76.933599 291.114507 73.433809 273.519875 73.433809 255.752479 
C 73.433809 237.985082 76.933599 220.390451 83.732887 203.975517 
C 90.532176 187.560582 100.498734 172.644574 113.06218 160.081128 
C 125.625627 147.517681 140.541635 137.551123 156.956569 130.751835 
C 173.371503 123.952546 190.966135 120.452757 208.733531 120.452757 
" clip-path="url(#p30c046cfde)" style="fill: none; stroke: #b0b0b0; stroke-width: 0.8; stroke-linecap: square"/>
     </g>
     <g id="text_16">
      <!-- 4000 -->
      <g transform="translate(208.733531 388.972513) scale(0.1 -0.1)">
       <defs>
        <path id="DejaVuSans-34" d="M 2419 4116 
L 825 1625 
L 2419 1625 
L 2419 4116 
z
M 2253 4666 
L 3047 4666 
L 3047 1625 
L 3713 1625 
L 3713 1100 
L 3047 1100 
L 3047 0 
L 2419 0 
L 2419 1100 
L 313 1100 
L 313 1709 
L 2253 4666 
z
" transform="scale(0.015625)"/>
       </defs>
       <use xlink:href="#DejaVuSans-34"/>
       <use xlink:href="#DejaVuSans-30" transform="translate(63.623047 0)"/>
       <use xlink:href="#DejaVuSans-30" transform="translate(127.246094 0)"/>
       <use xlink:href="#DejaVuSans-30" transform="translate(190.869141 0)"/>
      </g>
     </g>
    </g>
    <g id="ytick_5">
     <g id="line2d_17">
      <path d="M 208.733531 86.627826 
C 230.942777 86.627826 252.936066 91.002563 273.454734 99.501674 
C 293.973402 108.000784 312.618412 120.458982 328.32272 136.16329 
C 344.027028 151.867598 356.485226 170.512608 364.984336 191.031276 
C 373.483447 211.549944 377.858184 233.543233 377.858184 255.752479 
C 377.858184 277.961725 373.483447 299.955014 364.984336 320.473681 
C 356.485226 340.992349 344.027028 359.637359 328.32272 375.341667 
C 312.618412 391.045976 293.973402 403.504173 273.454734 412.003284 
C 252.936066 420.502394 230.942777 424.877131 208.733531 424.877131 
C 186.524285 424.877131 164.530996 420.502394 144.012329 412.003284 
C 123.493661 403.504173 104.848651 391.045976 89.144343 375.341667 
C 73.440034 359.637359 60.981837 340.992349 52.482726 320.473681 
C 43.983616 299.955014 39.608879 277.961725 39.608879 255.752479 
C 39.608879 233.543233 43.983616 211.549944 52.482726 191.031276 
C 60.981837 170.512608 73.440034 151.867598 89.144343 136.16329 
C 104.848651 120.458982 123.493661 108.000784 144.012329 99.501674 
C 164.530996 91.002563 186.524285 86.627826 208.733531 86.627826 
" clip-path="url(#p30c046cfde)" style="fill: none; stroke: #b0b0b0; stroke-width: 0.8; stroke-linecap: square"/>
     </g>
     <g id="text_17">
      <!-- 5000 -->
      <g transform="translate(208.733531 422.797444) scale(0.1 -0.1)">
       <defs>
        <path id="DejaVuSans-35" d="M 691 4666 
L 3169 4666 
L 3169 4134 
L 1269 4134 
L 1269 2991 
Q 1406 3038 1543 3061 
Q 1681 3084 1819 3084 
Q 2600 3084 3056 2656 
Q 3513 2228 3513 1497 
Q 3513 744 3044 326 
Q 2575 -91 1722 -91 
Q 1428 -91 1123 -41 
Q 819 9 494 109 
L 494 744 
Q 775 591 1075 516 
Q 1375 441 1709 441 
Q 2250 441 2565 725 
Q 2881 1009 2881 1497 
Q 2881 1984 2565 2268 
Q 2250 2553 1709 2553 
Q 1456 2553 1204 2497 
Q 953 2441 691 2322 
L 691 4666 
z
" transform="scale(0.015625)"/>
       </defs>
       <use xlink:href="#DejaVuSans-35"/>
       <use xlink:href="#DejaVuSans-30" transform="translate(63.623047 0)"/>
       <use xlink:href="#DejaVuSans-30" transform="translate(127.246094 0)"/>
       <use xlink:href="#DejaVuSans-30" transform="translate(190.869141 0)"/>
      </g>
     </g>
    </g>
   </g>
   <g id="line2d_18">
    <path d="M 208.733531 141.153614 
L 222.581554 141.703753 
L 236.017175 145.058384 
L 248.765127 150.197835 
L 261.589439 155.043961 
L 273.275879 162.246746 
L 284.973366 169.695495 
L 293.296734 180.836019 
L 297.701773 194.342136 
L 305.563461 204.932211 
L 310.619459 217.112243 
L 314.172899 229.764009 
L 316.200908 242.703577 
L 313.675378 255.752479 
L 308.931205 267.918679 
L 310.215433 280.765521 
L 301.416043 290.902319 
L 295.799602 301.448277 
L 291.424445 312.829895 
L 279.90334 318.803427 
L 271.279803 326.352625 
L 261.650954 332.416601 
L 251.301203 336.858402 
L 240.932728 340.654783 
L 230.447928 343.85125 
L 219.911024 347.807412 
L 208.733531 348.9909 
L 197.660006 346.951165 
L 186.646772 345.361983 
L 174.6512 345.6202 
L 165.576388 337.981545 
L 156.83449 330.941221 
L 146.927452 325.517121 
L 138.386568 318.07445 
L 131.930222 308.765976 
L 129.28986 297.447734 
L 122.281511 288.539405 
L 119.468868 277.754242 
L 114.009122 267.254104 
L 110.505933 255.752479 
L 108.737328 243.610741 
L 109.928255 231.399165 
L 111.433498 218.851443 
L 119.15162 208.736265 
L 122.632539 196.321255 
L 129.335267 185.411755 
L 137.75355 175.632642 
L 147.083004 166.43627 
L 158.015439 159.117227 
L 169.58353 152.522409 
L 181.292038 144.417965 
L 195.262645 144.809747 
L 208.733531 141.153614 
" clip-path="url(#p30c046cfde)" style="fill: none; stroke-dasharray: 5.55,2.4; stroke-dashoffset: 0; stroke: #1f77b4; stroke-width: 1.5"/>
   </g>
   <g id="line2d_19">
    <path d="M 208.733531 119.302709 
L 224.52839 125.670111 
L 238.538716 134.828089 
L 250.066529 146.766321 
L 265.684298 147.241859 
L 275.082065 159.630033 
L 288.315448 165.923065 
L 296.056431 178.39114 
L 306.387033 188.347134 
L 322.185982 196.208039 
L 325.05712 211.63676 
L 326.176665 226.805346 
L 322.295371 241.963575 
L 319.442529 255.752479 
L 311.684626 268.253005 
L 314.879003 281.914988 
L 300.609558 290.59646 
L 299.154056 303.208831 
L 292.189973 313.358301 
L 282.561764 321.158586 
L 275.395723 330.998538 
L 264.168087 336.063297 
L 257.321668 348.329439 
L 247.211841 357.211444 
L 233.18803 354.96828 
L 220.577637 353.297465 
L 208.733531 350.02256 
L 196.710031 354.774911 
L 186.229888 347.053349 
L 173.517721 348.608938 
L 164.92404 339.22449 
L 153.049184 336.425183 
L 143.080693 329.859213 
L 135.259755 320.844565 
L 129.007298 310.783524 
L 119.810531 302.42287 
L 116.256594 290.824355 
L 110.010361 280.085555 
L 105.010136 268.346779 
L 103.267398 255.752479 
L 104.640774 243.11333 
L 105.675211 230.350884 
L 100.759433 214.803305 
L 104.805336 201.206754 
L 110.773819 188.135771 
L 121.916998 178.839742 
L 134.579694 172.050099 
L 140.540381 156.957645 
L 152.049992 147.751017 
L 165.169559 140.883725 
L 177.107008 127.43863 
L 194.59807 139.336482 
L 208.733531 130.261986 
" clip-path="url(#p30c046cfde)" style="fill: none; stroke-dasharray: 1.5,2.475; stroke-dashoffset: 0; stroke: #ff7f0e; stroke-width: 1.5"/>
   </g>
   <g id="line2d_20">
    <path d="M 208.733531 130.261986 
L 223.291648 133.527506 
L 239.234402 129.531504 
L 254.679104 132.058966 
L 270.824249 134.78027 
L 280.614631 149.032819 
L 288.293762 163.433656 
L 294.511288 177.281462 
L 305.856023 186.064683 
L 314.157068 197.63254 
L 315.589358 212.416105 
L 318.659728 225.715089 
L 324.250938 238.507731 
L 323.789219 252.341498 
L 323.924143 266.021496 
L 315.777655 278.284444 
L 315.245288 291.761722 
L 307.612577 302.855424 
L 295.455481 310.499904 
L 292.600441 323.803858 
L 282.33744 331.570813 
L 269.959525 335.953107 
L 259.975399 342.51508 
L 250.376721 350.288245 
L 239.802357 357.493848 
L 227.329632 359.222557 
L 214.845152 358.73733 
L 202.451587 361.607399 
L 190.663962 356.292902 
L 179.591071 351.185559 
L 167.703945 348.895282 
L 157.818483 341.96171 
L 145.968165 337.969549 
L 137.933357 328.682726 
L 130.172327 319.498697 
L 119.494586 312.088879 
L 118.832386 298.578628 
L 109.143116 289.421771 
L 104.138778 277.76887 
L 101.392996 265.321677 
L 95.706448 252.401638 
L 97.029905 239.077063 
L 104.158447 227.177283 
L 110.7484 216.013698 
L 112.344606 202.613316 
L 119.058747 191.408597 
L 125.351662 179.473262 
L 134.274164 169.352515 
L 144.278634 160.058273 
L 157.609084 156.146008 
L 167.192892 143.917816 
L 182.681863 147.943525 
L 204.684943 221.761912 
L 208.733531 134.828352 
" clip-path="url(#p30c046cfde)" style="fill: none; stroke: #ff7f0e; stroke-width: 1.5; stroke-linecap: square"/>
   </g>
   <g id="line2d_21">
    <path d="M 208.733531 134.828352 
L 246.867398 129.184591 
" clip-path="url(#p30c046cfde)" style="fill: none; stroke: #2ca02c; stroke-width: 2; stroke-linecap: square"/>
   </g>
   <g id="patch_3">
    <path d="M 208.733531 76.86426 
C 185.242146 76.86426 161.979184 81.491551 140.275974 90.481315 
C 118.572763 99.471079 98.851377 112.648488 82.240459 129.259406 
C 65.629541 145.870324 52.452131 165.591711 43.462367 187.294921 
C 34.472603 208.998131 29.845313 232.261093 29.845313 255.752479 
C 29.845313 279.243864 34.472603 302.506826 43.462367 324.210036 
C 52.452131 345.913247 65.629541 365.634633 82.240459 382.245551 
C 98.851377 398.856469 118.572763 412.033879 140.275974 421.023643 
C 161.979184 430.013407 185.242146 434.640697 208.733531 434.640697 
C 232.224917 434.640697 255.487879 430.013407 277.191089 421.023643 
C 298.894299 412.033879 318.615686 398.856469 335.226604 382.245551 
C 351.837522 365.634633 365.014931 345.913247 374.004695 324.210036 
C 382.994459 302.506826 387.62175 279.243864 387.62175 255.752479 
C 387.62175 232.261093 382.994459 208.998131 374.004695 187.294921 
C 365.014931 165.591711 351.837522 145.870324 335.226604 129.259406 
C 318.615686 112.648488 298.894299 99.471079 277.191089 90.481315 
C 255.487879 81.491551 232.224917 76.86426 208.733531 76.86426 
" style="fill: none; stroke: #000000; stroke-width: 0.8; stroke-linejoin: miter; stroke-linecap: square"/>
   </g>
   <g id="text_18">
    <!-- Totaal mannen en vrouwen, Totaal leeftijd, median -->
    <g transform="translate(82.442125 35.086616) scale(0.1 -0.1)">
     <defs>
      <path id="DejaVuSans-54" d="M -19 4666 
L 3928 4666 
L 3928 4134 
L 2272 4134 
L 2272 0 
L 1638 0 
L 1638 4134 
L -19 4134 
L -19 4666 
z
" transform="scale(0.015625)"/>
      <path id="DejaVuSans-20" transform="scale(0.015625)"/>
      <path id="DejaVuSans-6d" d="M 3328 2828 
Q 3544 3216 3844 3400 
Q 4144 3584 4550 3584 
Q 5097 3584 5394 3201 
Q 5691 2819 5691 2113 
L 5691 0 
L 5113 0 
L 5113 2094 
Q 5113 2597 4934 2840 
Q 4756 3084 4391 3084 
Q 3944 3084 3684 2787 
Q 3425 2491 3425 1978 
L 3425 0 
L 2847 0 
L 2847 2094 
Q 2847 2600 2669 2842 
Q 2491 3084 2119 3084 
Q 1678 3084 1418 2786 
Q 1159 2488 1159 1978 
L 1159 0 
L 581 0 
L 581 3500 
L 1159 3500 
L 1159 2956 
Q 1356 3278 1631 3431 
Q 1906 3584 2284 3584 
Q 2666 3584 2933 3390 
Q 3200 3197 3328 2828 
z
" transform="scale(0.015625)"/>
      <path id="DejaVuSans-77" d="M 269 3500 
L 844 3500 
L 1563 769 
L 2278 3500 
L 2956 3500 
L 3675 769 
L 4391 3500 
L 4966 3500 
L 4050 0 
L 3372 0 
L 2619 2869 
L 1863 0 
L 1184 0 
L 269 3500 
z
" transform="scale(0.015625)"/>
      <path id="DejaVuSans-2c" d="M 750 794 
L 1409 794 
L 1409 256 
L 897 -744 
L 494 -744 
L 750 256 
L 750 794 
z
" transform="scale(0.015625)"/>
      <path id="DejaVuSans-66" d="M 2375 4863 
L 2375 4384 
L 1825 4384 
Q 1516 4384 1395 4259 
Q 1275 4134 1275 3809 
L 1275 3500 
L 2222 3500 
L 2222 3053 
L 1275 3053 
L 1275 0 
L 697 0 
L 697 3053 
L 147 3053 
L 147 3500 
L 697 3500 
L 697 3744 
Q 697 4328 969 4595 
Q 1241 4863 1831 4863 
L 2375 4863 
z
" transform="scale(0.015625)"/>
      <path id="DejaVuSans-69" d="M 603 3500 
L 1178 3500 
L 1178 0 
L 603 0 
L 603 3500 
z
M 603 4863 
L 1178 4863 
L 1178 4134 
L 603 4134 
L 603 4863 
z
" transform="scale(0.015625)"/>
      <path id="DejaVuSans-6a" d="M 603 3500 
L 1178 3500 
L 1178 -63 
Q 1178 -731 923 -1031 
Q 669 -1331 103 -1331 
L -116 -1331 
L -116 -844 
L 38 -844 
Q 366 -844 484 -692 
Q 603 -541 603 -63 
L 603 3500 
z
M 603 4863 
L 1178 4863 
L 1178 4134 
L 603 4134 
L 603 4863 
z
" transform="scale(0.015625)"/>
      <path id="DejaVuSans-64" d="M 2906 2969 
L 2906 4863 
L 3481 4863 
L 3481 0 
L 2906 0 
L 2906 525 
Q 2725 213 2448 61 
Q 2172 -91 1784 -91 
Q 1150 -91 751 415 
Q 353 922 353 1747 
Q 353 2572 751 3078 
Q 1150 3584 1784 3584 
Q 2172 3584 2448 3432 
Q 2725 3281 2906 2969 
z
M 947 1747 
Q 947 1113 1208 752 
Q 1469 391 1925 391 
Q 2381 391 2643 752 
Q 2906 1113 2906 1747 
Q 2906 2381 2643 2742 
Q 2381 3103 1925 3103 
Q 1469 3103 1208 2742 
Q 947 2381 947 1747 
z
" transform="scale(0.015625)"/>
     </defs>
     <use xlink:href="#DejaVuSans-54"/>
     <use xlink:href="#DejaVuSans-6f" transform="translate(44.083984 0)"/>
     <use xlink:href="#DejaVuSans-74" transform="translate(105.265625 0)"/>
     <use xlink:href="#DejaVuSans-61" transform="translate(144.474609 0)"/>
     <use xlink:href="#DejaVuSans-61" transform="translate(205.753906 0)"/>
     <use xlink:href="#DejaVuSans-6c" transform="translate(267.033203 0)"/>
     <use xlink:href="#DejaVuSans-20" transform="translate(294.816406 0)"/>
     <use xlink:href="#DejaVuSans-6d" transform="translate(326.603516 0)"/>
     <use xlink:href="#DejaVuSans-61" transform="translate(424.015625 0)"/>
     <use xlink:href="#DejaVuSans-6e" transform="translate(485.294922 0)"/>
     <use xlink:href="#DejaVuSans-6e" transform="translate(548.673828 0)"/>
     <use xlink:href="#DejaVuSans-65" transform="translate(612.052734 0)"/>
     <use xlink:href="#DejaVuSans-6e" transform="translate(673.576172 0)"/>
     <use xlink:href="#DejaVuSans-20" transform="translate(736.955078 0)"/>
     <use xlink:href="#DejaVuSans-65" transform="translate(768.742188 0)"/>
     <use xlink:href="#DejaVuSans-6e" transform="translate(830.265625 0)"/>
     <use xlink:href="#DejaVuSans-20" transform="translate(893.644531 0)"/>
     <use xlink:href="#DejaVuSans-76" transform="translate(925.431641 0)"/>
     <use xlink:href="#DejaVuSans-72" transform="translate(984.611328 0)"/>
     <use xlink:href="#DejaVuSans-6f" transform="translate(1023.474609 0)"/>
     <use xlink:href="#DejaVuSans-75" transform="translate(1084.65625 0)"/>
     <use xlink:href="#DejaVuSans-77" transform="translate(1148.035156 0)"/>
     <use xlink:href="#DejaVuSans-65" transform="translate(1229.822266 0)"/>
     <use xlink:href="#DejaVuSans-6e" transform="translate(1291.345703 0)"/>
     <use xlink:href="#DejaVuSans-2c" transform="translate(1354.724609 0)"/>
     <use xlink:href="#DejaVuSans-20" transform="translate(1386.511719 0)"/>
     <use xlink:href="#DejaVuSans-54" transform="translate(1418.298828 0)"/>
     <use xlink:href="#DejaVuSans-6f" transform="translate(1462.382812 0)"/>
     <use xlink:href="#DejaVuSans-74" transform="translate(1523.564453 0)"/>
     <use xlink:href="#DejaVuSans-61" transform="translate(1562.773438 0)"/>
     <use xlink:href="#DejaVuSans-61" transform="translate(1624.052734 0)"/>
     <use xlink:href="#DejaVuSans-6c" transform="translate(1685.332031 0)"/>
     <use xlink:href="#DejaVuSans-20" transform="translate(1713.115234 0)"/>
     <use xlink:href="#DejaVuSans-6c" transform="translate(1744.902344 0)"/>
     <use xlink:href="#DejaVuSans-65" transform="translate(1772.685547 0)"/>
     <use xlink:href="#DejaVuSans-65" transform="translate(1834.208984 0)"/>
     <use xlink:href="#DejaVuSans-66" transform="translate(1895.732422 0)"/>
     <use xlink:href="#DejaVuSans-74" transform="translate(1929.1875 0)"/>
     <use xlink:href="#DejaVuSans-69" transform="translate(1968.396484 0)"/>
     <use xlink:href="#DejaVuSans-6a" transform="translate(1996.179688 0)"/>
     <use xlink:href="#DejaVuSans-64" transform="translate(2023.962891 0)"/>
     <use xlink:href="#DejaVuSans-2c" transform="translate(2087.439453 0)"/>
     <use xlink:href="#DejaVuSans-20" transform="translate(2119.226562 0)"/>
     <use xlink:href="#DejaVuSans-6d" transform="translate(2151.013672 0)"/>
     <use xlink:href="#DejaVuSans-65" transform="translate(2248.425781 0)"/>
     <use xlink:href="#DejaVuSans-64" transform="translate(2309.949219 0)"/>
     <use xlink:href="#DejaVuSans-69" transform="translate(2373.425781 0)"/>
     <use xlink:href="#DejaVuSans-61" transform="translate(2401.208984 0)"/>
     <use xlink:href="#DejaVuSans-6e" transform="translate(2462.488281 0)"/>
    </g>
   </g>
  </g>
  <g id="text_19">
   <!-- Deaths per week in the Netherlands (since 2015) -->
   <g transform="translate(36.325719 17.837812) scale(0.14 -0.14)">
    <defs>
     <path id="DejaVuSans-68" d="M 3513 2113 
L 3513 0 
L 2938 0 
L 2938 2094 
Q 2938 2591 2744 2837 
Q 2550 3084 2163 3084 
Q 1697 3084 1428 2787 
Q 1159 2491 1159 1978 
L 1159 0 
L 581 0 
L 581 4863 
L 1159 4863 
L 1159 2956 
Q 1366 3272 1645 3428 
Q 1925 3584 2291 3584 
Q 2894 3584 3203 3211 
Q 3513 2838 3513 2113 
z
" transform="scale(0.015625)"/>
     <path id="DejaVuSans-73" d="M 2834 3397 
L 2834 2853 
Q 2591 2978 2328 3040 
Q 2066 3103 1784 3103 
Q 1356 3103 1142 2972 
Q 928 2841 928 2578 
Q 928 2378 1081 2264 
Q 1234 2150 1697 2047 
L 1894 2003 
Q 2506 1872 2764 1633 
Q 3022 1394 3022 966 
Q 3022 478 2636 193 
Q 2250 -91 1575 -91 
Q 1294 -91 989 -36 
Q 684 19 347 128 
L 347 722 
Q 666 556 975 473 
Q 1284 391 1588 391 
Q 1994 391 2212 530 
Q 2431 669 2431 922 
Q 2431 1156 2273 1281 
Q 2116 1406 1581 1522 
L 1381 1569 
Q 847 1681 609 1914 
Q 372 2147 372 2553 
Q 372 3047 722 3315 
Q 1072 3584 1716 3584 
Q 2034 3584 2315 3537 
Q 2597 3491 2834 3397 
z
" transform="scale(0.015625)"/>
     <path id="DejaVuSans-6b" d="M 581 4863 
L 1159 4863 
L 1159 1991 
L 2875 3500 
L 3609 3500 
L 1753 1863 
L 3688 0 
L 2938 0 
L 1159 1709 
L 1159 0 
L 581 0 
L 581 4863 
z
" transform="scale(0.015625)"/>
     <path id="DejaVuSans-28" d="M 1984 4856 
Q 1566 4138 1362 3434 
Q 1159 2731 1159 2009 
Q 1159 1288 1364 580 
Q 1569 -128 1984 -844 
L 1484 -844 
Q 1016 -109 783 600 
Q 550 1309 550 2009 
Q 550 2706 781 3412 
Q 1013 4119 1484 4856 
L 1984 4856 
z
" transform="scale(0.015625)"/>
     <path id="DejaVuSans-29" d="M 513 4856 
L 1013 4856 
Q 1481 4119 1714 3412 
Q 1947 2706 1947 2009 
Q 1947 1309 1714 600 
Q 1481 -109 1013 -844 
L 513 -844 
Q 928 -128 1133 580 
Q 1338 1288 1338 2009 
Q 1338 2731 1133 3434 
Q 928 4138 513 4856 
z
" transform="scale(0.015625)"/>
    </defs>
    <use xlink:href="#DejaVuSans-44"/>
    <use xlink:href="#DejaVuSans-65" transform="translate(77.001953 0)"/>
    <use xlink:href="#DejaVuSans-61" transform="translate(138.525391 0)"/>
    <use xlink:href="#DejaVuSans-74" transform="translate(199.804688 0)"/>
    <use xlink:href="#DejaVuSans-68" transform="translate(239.013672 0)"/>
    <use xlink:href="#DejaVuSans-73" transform="translate(302.392578 0)"/>
    <use xlink:href="#DejaVuSans-20" transform="translate(354.492188 0)"/>
    <use xlink:href="#DejaVuSans-70" transform="translate(386.279297 0)"/>
    <use xlink:href="#DejaVuSans-65" transform="translate(449.755859 0)"/>
    <use xlink:href="#DejaVuSans-72" transform="translate(511.279297 0)"/>
    <use xlink:href="#DejaVuSans-20" transform="translate(552.392578 0)"/>
    <use xlink:href="#DejaVuSans-77" transform="translate(584.179688 0)"/>
    <use xlink:href="#DejaVuSans-65" transform="translate(665.966797 0)"/>
    <use xlink:href="#DejaVuSans-65" transform="translate(727.490234 0)"/>
    <use xlink:href="#DejaVuSans-6b" transform="translate(789.013672 0)"/>
    <use xlink:href="#DejaVuSans-20" transform="translate(846.923828 0)"/>
    <use xlink:href="#DejaVuSans-69" transform="translate(878.710938 0)"/>
    <use xlink:href="#DejaVuSans-6e" transform="translate(906.494141 0)"/>
    <use xlink:href="#DejaVuSans-20" transform="translate(969.873047 0)"/>
    <use xlink:href="#DejaVuSans-74" transform="translate(1001.660156 0)"/>
    <use xlink:href="#DejaVuSans-68" transform="translate(1040.869141 0)"/>
    <use xlink:href="#DejaVuSans-65" transform="translate(1104.248047 0)"/>
    <use xlink:href="#DejaVuSans-20" transform="translate(1165.771484 0)"/>
    <use xlink:href="#DejaVuSans-4e" transform="translate(1197.558594 0)"/>
    <use xlink:href="#DejaVuSans-65" transform="translate(1272.363281 0)"/>
    <use xlink:href="#DejaVuSans-74" transform="translate(1333.886719 0)"/>
    <use xlink:href="#DejaVuSans-68" transform="translate(1373.095703 0)"/>
    <use xlink:href="#DejaVuSans-65" transform="translate(1436.474609 0)"/>
    <use xlink:href="#DejaVuSans-72" transform="translate(1497.998047 0)"/>
    <use xlink:href="#DejaVuSans-6c" transform="translate(1539.111328 0)"/>
    <use xlink:href="#DejaVuSans-61" transform="translate(1566.894531 0)"/>
    <use xlink:href="#DejaVuSans-6e" transform="translate(1628.173828 0)"/>
    <use xlink:href="#DejaVuSans-64" transform="translate(1691.552734 0)"/>
    <use xlink:href="#DejaVuSans-73" transform="translate(1755.029297 0)"/>
    <use xlink:href="#DejaVuSans-20" transform="translate(1807.128906 0)"/>
    <use xlink:href="#DejaVuSans-28" transform="translate(1838.916016 0)"/>
    <use xlink:href="#DejaVuSans-73" transform="translate(1877.929688 0)"/>
    <use xlink:href="#DejaVuSans-69" transform="translate(1930.029297 0)"/>
    <use xlink:href="#DejaVuSans-6e" transform="translate(1957.8125 0)"/>
    <use xlink:href="#DejaVuSans-63" transform="translate(2021.191406 0)"/>
    <use xlink:href="#DejaVuSans-65" transform="translate(2076.171875 0)"/>
    <use xlink:href="#DejaVuSans-20" transform="translate(2137.695312 0)"/>
    <use xlink:href="#DejaVuSans-32" transform="translate(2169.482422 0)"/>
    <use xlink:href="#DejaVuSans-30" transform="translate(2233.105469 0)"/>
    <use xlink:href="#DejaVuSans-31" transform="translate(2296.728516 0)"/>
    <use xlink:href="#DejaVuSans-35" transform="translate(2360.351562 0)"/>
    <use xlink:href="#DejaVuSans-29" transform="translate(2423.974609 0)"/>
   </g>
  </g>
  <g id="legend_1">
   <g id="patch_4">
    <path d="M 418.146031 455.67976 
L 491.933531 455.67976 
Q 493.933531 455.67976 493.933531 453.67976 
L 493.933531 366.61101 
Q 493.933531 364.61101 491.933531 364.61101 
L 418.146031 364.61101 
Q 416.146031 364.61101 416.146031 366.61101 
L 416.146031 453.67976 
Q 416.146031 455.67976 418.146031 455.67976 
z
" style="fill: #ffffff; opacity: 0.8; stroke: #cccccc; stroke-linejoin: miter"/>
   </g>
   <g id="patch_5">
    <path d="M 420.146031 376.209448 
L 440.146031 376.209448 
L 440.146031 369.209448 
L 420.146031 369.209448 
z
" style="fill: #1f77b4; fill-opacity: 0.3; stroke: #1f77b4; stroke-opacity: 0.3; stroke-linejoin: miter"/>
   </g>
   <g id="text_20">
    <!-- SD -->
    <g transform="translate(448.146031 376.209448) scale(0.1 -0.1)">
     <use xlink:href="#DejaVuSans-53"/>
     <use xlink:href="#DejaVuSans-44" transform="translate(63.476562 0)"/>
    </g>
   </g>
   <g id="patch_6">
    <path d="M 420.146031 390.887573 
L 440.146031 390.887573 
L 440.146031 383.887573 
L 420.146031 383.887573 
z
" style="fill: #1f77b4; fill-opacity: 0.2"/>
   </g>
   <g id="text_21">
    <!-- Min/Max -->
    <g transform="translate(448.146031 390.887573) scale(0.1 -0.1)">
     <defs>
      <path id="DejaVuSans-2f" d="M 1625 4666 
L 2156 4666 
L 531 -594 
L 0 -594 
L 1625 4666 
z
" transform="scale(0.015625)"/>
      <path id="DejaVuSans-78" d="M 3513 3500 
L 2247 1797 
L 3578 0 
L 2900 0 
L 1881 1375 
L 863 0 
L 184 0 
L 1544 1831 
L 300 3500 
L 978 3500 
L 1906 2253 
L 2834 3500 
L 3513 3500 
z
" transform="scale(0.015625)"/>
     </defs>
     <use xlink:href="#DejaVuSans-4d"/>
     <use xlink:href="#DejaVuSans-69" transform="translate(86.279297 0)"/>
     <use xlink:href="#DejaVuSans-6e" transform="translate(114.0625 0)"/>
     <use xlink:href="#DejaVuSans-2f" transform="translate(177.441406 0)"/>
     <use xlink:href="#DejaVuSans-4d" transform="translate(211.132812 0)"/>
     <use xlink:href="#DejaVuSans-61" transform="translate(297.412109 0)"/>
     <use xlink:href="#DejaVuSans-78" transform="translate(358.691406 0)"/>
    </g>
   </g>
   <g id="line2d_22">
    <path d="M 420.146031 402.065697 
L 430.146031 402.065697 
L 440.146031 402.065697 
" style="fill: none; stroke-dasharray: 5.55,2.4; stroke-dashoffset: 0; stroke: #1f77b4; stroke-width: 1.5"/>
   </g>
   <g id="text_22">
    <!-- Median -->
    <g transform="translate(448.146031 405.565697) scale(0.1 -0.1)">
     <use xlink:href="#DejaVuSans-4d"/>
     <use xlink:href="#DejaVuSans-65" transform="translate(86.279297 0)"/>
     <use xlink:href="#DejaVuSans-64" transform="translate(147.802734 0)"/>
     <use xlink:href="#DejaVuSans-69" transform="translate(211.279297 0)"/>
     <use xlink:href="#DejaVuSans-61" transform="translate(239.0625 0)"/>
     <use xlink:href="#DejaVuSans-6e" transform="translate(300.341797 0)"/>
    </g>
   </g>
   <g id="line2d_23">
    <path d="M 420.146031 416.743823 
L 430.146031 416.743823 
L 440.146031 416.743823 
" style="fill: none; stroke-dasharray: 1.5,2.475; stroke-dashoffset: 0; stroke: #ff7f0e; stroke-width: 1.5"/>
   </g>
   <g id="text_23">
    <!-- 2023 -->
    <g transform="translate(448.146031 420.243823) scale(0.1 -0.1)">
     <use xlink:href="#DejaVuSans-32"/>
     <use xlink:href="#DejaVuSans-30" transform="translate(63.623047 0)"/>
     <use xlink:href="#DejaVuSans-32" transform="translate(127.246094 0)"/>
     <use xlink:href="#DejaVuSans-33" transform="translate(190.869141 0)"/>
    </g>
   </g>
   <g id="line2d_24">
    <path d="M 420.146031 431.421947 
L 430.146031 431.421947 
L 440.146031 431.421947 
" style="fill: none; stroke: #ff7f0e; stroke-width: 1.5; stroke-linecap: square"/>
   </g>
   <g id="text_24">
    <!-- 2024 -->
    <g transform="translate(448.146031 434.921947) scale(0.1 -0.1)">
     <use xlink:href="#DejaVuSans-32"/>
     <use xlink:href="#DejaVuSans-30" transform="translate(63.623047 0)"/>
     <use xlink:href="#DejaVuSans-32" transform="translate(127.246094 0)"/>
     <use xlink:href="#DejaVuSans-34" transform="translate(190.869141 0)"/>
    </g>
   </g>
   <g id="line2d_25">
    <path d="M 420.146031 446.100073 
L 430.146031 446.100073 
L 440.146031 446.100073 
" style="fill: none; stroke: #2ca02c; stroke-width: 2; stroke-linecap: square"/>
   </g>
   <g id="text_25">
    <!-- 2025 -->
    <g transform="translate(448.146031 449.600073) scale(0.1 -0.1)">
     <use xlink:href="#DejaVuSans-32"/>
     <use xlink:href="#DejaVuSans-30" transform="translate(63.623047 0)"/>
     <use xlink:href="#DejaVuSans-32" transform="translate(127.246094 0)"/>
     <use xlink:href="#DejaVuSans-35" transform="translate(190.869141 0)"/>
    </g>
   </g>
  </g>
 </g>
 <defs>
  <clipPath id="p30c046cfde">
   <path d="M 387.62175 255.752479 
C 387.62175 232.261093 382.994459 208.998131 374.004695 187.294921 
C 365.014931 165.591711 351.837522 145.870324 335.226604 129.259406 
C 318.615686 112.648488 298.894299 99.471079 277.191089 90.481315 
C 255.487879 81.491551 232.224917 76.86426 208.733531 76.86426 
C 185.242146 76.86426 161.979184 81.491551 140.275974 90.481315 
C 118.572763 99.471079 98.851377 112.648488 82.240459 129.259406 
C 65.629541 145.870324 52.452131 165.591711 43.462367 187.294921 
C 34.472603 208.998131 29.845313 232.261093 29.845313 255.752479 
C 29.845313 279.243864 34.472603 302.506826 43.462367 324.210036 
C 52.452131 345.913247 65.629541 365.634633 82.240459 382.245551 
C 98.851377 398.856469 118.572763 412.033879 140.275974 421.023643 
C 161.979184 430.013407 185.242146 434.640697 208.733531 434.640697 
C 232.224917 434.640697 255.487879 430.013407 277.191089 421.023643 
C 298.894299 412.033879 318.615686 398.856469 335.226604 382.245551 
C 351.837522 365.634633 365.014931 345.913247 374.004695 324.210036 
C 382.994459 302.506826 387.62175 279.243864 387.62175 255.752479 
M 208.733531 255.752479 
C 208.733531 255.752479 208.733531 255.752479 208.733531 255.752479 
C 208.733531 255.752479 208.733531 255.752479 208.733531 255.752479 
C 208.733531 255.752479 208.733531 255.752479 208.733531 255.752479 
C 208.733531 255.752479 208.733531 255.752479 208.733531 255.752479 
C 208.733531 255.752479 208.733531 255.752479 208.733531 255.752479 
C 208.733531 255.752479 208.733531 255.752479 208.733531 255.752479 
C 208.733531 255.752479 208.733531 255.752479 208.733531 255.752479 
C 208.733531 255.752479 208.733531 255.752479 208.733531 255.752479 
C 208.733531 255.752479 208.733531 255.752479 208.733531 255.752479 
C 208.733531 255.752479 208.733531 255.752479 208.733531 255.752479 
C 208.733531 255.752479 208.733531 255.752479 208.733531 255.752479 
C 208.733531 255.752479 208.733531 255.752479 208.733531 255.752479 
C 208.733531 255.752479 208.733531 255.752479 208.733531 255.752479 
C 208.733531 255.752479 208.733531 255.752479 208.733531 255.752479 
C 208.733531 255.752479 208.733531 255.752479 208.733531 255.752479 
C 208.733531 255.752479 208.733531 255.752479 208.733531 255.752479 
z
"/>
  </clipPath>
 </defs>
</svg>
