<?xml version="1.0" encoding="utf-8" standalone="no"?>
<!DOCTYPE svg PUBLIC "-//W3C//DTD SVG 1.1//EN"
  "http://www.w3.org/Graphics/SVG/1.1/DTD/svg11.dtd">
<svg xmlns:xlink="http://www.w3.org/1999/xlink" width="388.780625pt" height="434.999062pt" viewBox="0 0 388.780625 434.999062" xmlns="http://www.w3.org/2000/svg" version="1.1">
 <metadata>
  <rdf:RDF xmlns:dc="http://purl.org/dc/elements/1.1/" xmlns:cc="http://creativecommons.org/ns#" xmlns:rdf="http://www.w3.org/1999/02/22-rdf-syntax-ns#">
   <cc:Work>
    <dc:type rdf:resource="http://purl.org/dc/dcmitype/StillImage"/>
    <dc:date>2024-01-05T07:43:22.152569</dc:date>
    <dc:format>image/svg+xml</dc:format>
    <dc:creator>
     <cc:Agent>
      <dc:title>Matplotlib v3.8.2, https://matplotlib.org/</dc:title>
     </cc:Agent>
    </dc:creator>
   </cc:Work>
  </rdf:RDF>
 </metadata>
 <defs>
  <style type="text/css">*{stroke-linejoin: round; stroke-linecap: butt}</style>
 </defs>
 <g id="figure_1">
  <g id="patch_1">
   <path d="M 0 434.999062 
L 388.780625 434.999062 
L 388.780625 -0 
L 0 -0 
z
" style="fill: #ffffff"/>
  </g>
  <g id="axes_1">
   <g id="patch_2">
    <path d="M 359.872813 242.64 
C 359.872813 220.799058 355.570623 199.170491 347.212456 178.992092 
C 338.85429 158.813692 326.602691 140.477879 311.158812 125.034 
C 295.714934 109.590122 277.379121 97.338523 257.200721 88.980356 
C 237.022321 80.622189 215.393755 76.32 193.552813 76.32 
C 171.71187 76.32 150.083304 80.622189 129.904904 88.980356 
C 109.726504 97.338523 91.390691 109.590122 75.946813 125.034 
C 60.502934 140.477879 48.251335 158.813692 39.893169 178.992092 
C 31.535002 199.170491 27.232813 220.799058 27.232813 242.64 
C 27.232813 264.480942 31.535002 286.109509 39.893169 306.287908 
C 48.251335 326.466308 60.502934 344.802121 75.946813 360.246 
C 91.390691 375.689878 109.726504 387.941477 129.904904 396.299644 
C 150.083304 404.657811 171.71187 408.96 193.552812 408.96 
C 215.393755 408.96 237.022321 404.657811 257.200721 396.299644 
C 277.379121 387.941477 295.714934 375.689878 311.158812 360.246 
C 326.602691 344.802121 338.85429 326.466308 347.212456 306.287908 
C 355.570623 286.109509 359.872813 264.480942 359.872813 242.64 
M 193.552813 242.64 
C 193.552813 242.64 193.552813 242.64 193.552813 242.64 
C 193.552813 242.64 193.552813 242.64 193.552813 242.64 
C 193.552813 242.64 193.552813 242.64 193.552813 242.64 
C 193.552813 242.64 193.552813 242.64 193.552813 242.64 
C 193.552813 242.64 193.552813 242.64 193.552813 242.64 
C 193.552813 242.64 193.552813 242.64 193.552813 242.64 
C 193.552813 242.64 193.552813 242.64 193.552813 242.64 
C 193.552813 242.64 193.552813 242.64 193.552813 242.64 
C 193.552813 242.64 193.552813 242.64 193.552813 242.64 
C 193.552813 242.64 193.552813 242.64 193.552813 242.64 
C 193.552813 242.64 193.552813 242.64 193.552813 242.64 
C 193.552813 242.64 193.552813 242.64 193.552813 242.64 
C 193.552813 242.64 193.552813 242.64 193.552813 242.64 
C 193.552813 242.64 193.552813 242.64 193.552813 242.64 
C 193.552813 242.64 193.552813 242.64 193.552813 242.64 
C 193.552813 242.64 193.552813 242.64 193.552813 242.64 
z
" style="fill: #ffffff"/>
   </g>
   <g id="PolyCollection_1">
    <defs>
     <path id="m97425036cf" d="M 193.552813 -192.359063 
L 193.552813 -192.359063 
L 303.809178 -205.491609 
L 300.247632 -218.141504 
L 294.901709 -230.004797 
L 289.517095 -241.614104 
L 282.829013 -252.491108 
L 274.238451 -261.893832 
L 266.47803 -272.074629 
L 256.019772 -279.418018 
L 244.9833 -285.648629 
L 234.564001 -293.481608 
L 221.383728 -294.210346 
L 209.069992 -296.30401 
L 196.860053 -303.915501 
L 183.219373 -308.272314 
L 169.9729 -304.381739 
L 159.591566 -292.813051 
L 150.17092 -283.426831 
L 143.219383 -272.089079 
L 135.370496 -264.063282 
L 129.111625 -254.918117 
L 123.494833 -245.842052 
L 117.10656 -237.50811 
L 114.12926 -227.345292 
L 110.301247 -217.781645 
L 107.748678 -207.780161 
L 105.683907 -197.57363 
L 105.662658 -187.143234 
L 107.237428 -176.84608 
L 108.470823 -166.377522 
L 110.562862 -155.801827 
L 118.413885 -147.98212 
L 124.710023 -139.803761 
L 128.784324 -129.482267 
L 138.006515 -123.903488 
L 147.075983 -118.738043 
L 155.849009 -113.210804 
L 165.801433 -110.273243 
L 175.508301 -106.633788 
L 185.41664 -101.093203 
L 196.315272 -99.178637 
L 207.516674 -98.819331 
L 219.028616 -99.126654 
L 230.801519 -100.513784 
L 242.390933 -103.771781 
L 253.496652 -108.816528 
L 264.596543 -114.700175 
L 274.462947 -122.630823 
L 284.305202 -131.232728 
L 292.641299 -141.500478 
L 299.552114 -152.98595 
L 304.499081 -165.549272 
L 305.787297 -178.990904 
L 304.588527 -192.359062 
L 280.964586 -192.359062 
L 280.964586 -192.359062 
L 277.121384 -182.405278 
L 276.503584 -172.31429 
L 273.649475 -162.607405 
L 265.830038 -155.261742 
L 259.865581 -147.694052 
L 253.512005 -140.686315 
L 246.478491 -134.50527 
L 238.979279 -129.049102 
L 231.169215 -124.126813 
L 223.254856 -119.121823 
L 214.321818 -116.351865 
L 205.373087 -113.178579 
L 195.871758 -114.138797 
L 186.702627 -115.518505 
L 177.754664 -117.305733 
L 169.258845 -120.499926 
L 160.868181 -123.747107 
L 153.22201 -128.473577 
L 146.764266 -134.69659 
L 140.258192 -140.621018 
L 134.302249 -147.126566 
L 129.585169 -154.579864 
L 123.717906 -161.59665 
L 121.445971 -170.339751 
L 118.379021 -178.848496 
L 112.856249 -187.570137 
L 116.341643 -196.941148 
L 118.589442 -205.831811 
L 120.678903 -214.612614 
L 122.225954 -223.778683 
L 125.6973 -232.434431 
L 130.633992 -240.391944 
L 136.788044 -247.465903 
L 142.24983 -255.585152 
L 151.928787 -258.29306 
L 159.82936 -263.151723 
L 168.623266 -266.09818 
L 178.132326 -265.618204 
L 186.896436 -267.025608 
L 195.966181 -273.764325 
L 205.993447 -275.695156 
L 216.161822 -275.100024 
L 226.226713 -272.924101 
L 235.527268 -268.496368 
L 245.72897 -265.075934 
L 253.958434 -258.389286 
L 261.67592 -251.067461 
L 267.029744 -241.8495 
L 271.145718 -232.184732 
L 274.867635 -222.563202 
L 279.767474 -213.192543 
L 280.351051 -202.69753 
L 193.552813 -192.359063 
z
" style="stroke: #1f77b4; stroke-opacity: 0.3"/>
    </defs>
    <g clip-path="url(#p0e60fc3707)">
     <use xlink:href="#m97425036cf" x="0" y="434.999062" style="fill: #1f77b4; fill-opacity: 0.3; stroke: #1f77b4; stroke-opacity: 0.3"/>
    </g>
   </g>
   <g id="PolyCollection_2">
    <path d="M 193.552813 242.64 
L 193.552813 242.64 
L 279.110173 232.449332 
L 277.516324 222.350502 
L 270.176334 214.17843 
L 266.161428 205.372589 
L 263.517659 195.51513 
L 256.67428 188.242008 
L 248.662009 182.399373 
L 241.695155 175.544977 
L 233.948079 169.36718 
L 225.326141 164.295528 
L 215.607174 161.928855 
L 205.796031 160.626337 
L 195.939927 162.120333 
L 186.715183 165.940284 
L 176.979445 163.903786 
L 167.803343 166.475632 
L 159.123239 170.365042 
L 151.515119 176.050737 
L 142.403508 179.603305 
L 137.117374 187.852871 
L 132.024045 195.668299 
L 127.114992 203.401919 
L 122.883486 211.510024 
L 122.885444 221.060261 
L 119.572119 229.343862 
L 116.342105 238.057942 
L 114.787318 247.314327 
L 118.437728 256.140015 
L 123.21316 264.119664 
L 127.587173 271.697993 
L 132.157507 278.899979 
L 135.218093 287.173331 
L 139.575948 295.040363 
L 148.860961 297.718494 
L 154.142475 305.067435 
L 160.958589 311.062169 
L 170.497011 310.836767 
L 178.217795 315.493098 
L 187.000084 316.143895 
L 195.83654 319.67235 
L 205.221124 320.802533 
L 214.433021 319.054162 
L 223.078359 315.442048 
L 230.684574 309.993162 
L 239.007465 305.989242 
L 246.517355 300.536276 
L 253.535904 294.333344 
L 263.853532 289.991098 
L 265.551737 279.594479 
L 269.183499 270.732785 
L 277.940229 263.031933 
L 273.728039 252.189606 
L 279.714936 242.64 
L 322.671397 242.64 
L 322.671397 242.64 
L 321.455808 257.874422 
L 320.663819 273.355944 
L 311.904616 286.601412 
L 314.742689 304.842439 
L 307.103589 319.122203 
L 292.470642 327.887245 
L 277.762019 334.690252 
L 262.343153 338.511726 
L 249.002309 343.219631 
L 233.919223 342.172696 
L 221.231611 343.93459 
L 208.799345 344.771966 
L 196.606398 345.64041 
L 184.68215 342.14485 
L 174.201176 334.575123 
L 164.43127 328.778625 
L 152.116753 329.623053 
L 144.08203 321.003552 
L 133.865539 316.198937 
L 121.829517 312.268474 
L 119.619251 299.08165 
L 114.106376 289.560951 
L 104.154262 282.020236 
L 98.694085 271.607069 
L 98.907807 259.650019 
L 101.105195 248.12629 
L 97.093846 236.915657 
L 97.405505 225.35998 
L 103.818363 215.237735 
L 109.570628 205.645684 
L 112.818925 194.958682 
L 121.154375 187.37028 
L 125.204468 176.287905 
L 132.157945 166.976614 
L 137.297466 153.529447 
L 141.171632 132.680822 
L 150.573845 115.512492 
L 161.586681 90.776346 
L 179.487543 84.865705 
L 197.667953 103.832313 
L 210.25271 130.772378 
L 224.203941 130.467736 
L 241.458656 124.51709 
L 252.762106 135.240487 
L 260.581626 149.223279 
L 270.508043 158.519171 
L 277.345086 170.427937 
L 287.984687 179.035347 
L 296.479682 189.811311 
L 306.356419 200.739449 
L 310.126746 214.470304 
L 321.765126 227.368736 
L 193.552813 242.64 
z
" clip-path="url(#p0e60fc3707)" style="fill: #1f77b4; fill-opacity: 0.2"/>
   </g>
   <g id="matplotlib.axis_1">
    <g id="xtick_1">
     <g id="line2d_1">
      <path d="M 193.552813 242.64 
L 359.872813 242.64 
" clip-path="url(#p0e60fc3707)" style="fill: none; stroke: #b0b0b0; stroke-width: 0.8; stroke-linecap: square"/>
     </g>
     <g id="text_1">
      <!-- Jan -->
      <g transform="translate(366.165 245.399375) scale(0.1 -0.1)">
       <defs>
        <path id="DejaVuSans-4a" d="M 628 4666 
L 1259 4666 
L 1259 325 
Q 1259 -519 939 -900 
Q 619 -1281 -91 -1281 
L -331 -1281 
L -331 -750 
L -134 -750 
Q 284 -750 456 -515 
Q 628 -281 628 325 
L 628 4666 
z
" transform="scale(0.015625)"/>
        <path id="DejaVuSans-61" d="M 2194 1759 
Q 1497 1759 1228 1600 
Q 959 1441 959 1056 
Q 959 750 1161 570 
Q 1363 391 1709 391 
Q 2188 391 2477 730 
Q 2766 1069 2766 1631 
L 2766 1759 
L 2194 1759 
z
M 3341 1997 
L 3341 0 
L 2766 0 
L 2766 531 
Q 2569 213 2275 61 
Q 1981 -91 1556 -91 
Q 1019 -91 701 211 
Q 384 513 384 1019 
Q 384 1609 779 1909 
Q 1175 2209 1959 2209 
L 2766 2209 
L 2766 2266 
Q 2766 2663 2505 2880 
Q 2244 3097 1772 3097 
Q 1472 3097 1187 3025 
Q 903 2953 641 2809 
L 641 3341 
Q 956 3463 1253 3523 
Q 1550 3584 1831 3584 
Q 2591 3584 2966 3190 
Q 3341 2797 3341 1997 
z
" transform="scale(0.015625)"/>
        <path id="DejaVuSans-6e" d="M 3513 2113 
L 3513 0 
L 2938 0 
L 2938 2094 
Q 2938 2591 2744 2837 
Q 2550 3084 2163 3084 
Q 1697 3084 1428 2787 
Q 1159 2491 1159 1978 
L 1159 0 
L 581 0 
L 581 3500 
L 1159 3500 
L 1159 2956 
Q 1366 3272 1645 3428 
Q 1925 3584 2291 3584 
Q 2894 3584 3203 3211 
Q 3513 2838 3513 2113 
z
" transform="scale(0.015625)"/>
       </defs>
       <use xlink:href="#DejaVuSans-4a"/>
       <use xlink:href="#DejaVuSans-61" x="29.492188"/>
       <use xlink:href="#DejaVuSans-6e" x="90.771484"/>
      </g>
     </g>
    </g>
    <g id="xtick_2">
     <g id="line2d_2">
      <path d="M 193.552813 242.64 
L 337.590158 159.48 
" clip-path="url(#p0e60fc3707)" style="fill: none; stroke: #b0b0b0; stroke-width: 0.8; stroke-linecap: square"/>
     </g>
     <g id="text_2">
      <!-- Feb -->
      <g transform="translate(340.862951 155.239375) scale(0.1 -0.1)">
       <defs>
        <path id="DejaVuSans-46" d="M 628 4666 
L 3309 4666 
L 3309 4134 
L 1259 4134 
L 1259 2759 
L 3109 2759 
L 3109 2228 
L 1259 2228 
L 1259 0 
L 628 0 
L 628 4666 
z
" transform="scale(0.015625)"/>
        <path id="DejaVuSans-65" d="M 3597 1894 
L 3597 1613 
L 953 1613 
Q 991 1019 1311 708 
Q 1631 397 2203 397 
Q 2534 397 2845 478 
Q 3156 559 3463 722 
L 3463 178 
Q 3153 47 2828 -22 
Q 2503 -91 2169 -91 
Q 1331 -91 842 396 
Q 353 884 353 1716 
Q 353 2575 817 3079 
Q 1281 3584 2069 3584 
Q 2775 3584 3186 3129 
Q 3597 2675 3597 1894 
z
M 3022 2063 
Q 3016 2534 2758 2815 
Q 2500 3097 2075 3097 
Q 1594 3097 1305 2825 
Q 1016 2553 972 2059 
L 3022 2063 
z
" transform="scale(0.015625)"/>
        <path id="DejaVuSans-62" d="M 3116 1747 
Q 3116 2381 2855 2742 
Q 2594 3103 2138 3103 
Q 1681 3103 1420 2742 
Q 1159 2381 1159 1747 
Q 1159 1113 1420 752 
Q 1681 391 2138 391 
Q 2594 391 2855 752 
Q 3116 1113 3116 1747 
z
M 1159 2969 
Q 1341 3281 1617 3432 
Q 1894 3584 2278 3584 
Q 2916 3584 3314 3078 
Q 3713 2572 3713 1747 
Q 3713 922 3314 415 
Q 2916 -91 2278 -91 
Q 1894 -91 1617 61 
Q 1341 213 1159 525 
L 1159 0 
L 581 0 
L 581 4863 
L 1159 4863 
L 1159 2969 
z
" transform="scale(0.015625)"/>
       </defs>
       <use xlink:href="#DejaVuSans-46"/>
       <use xlink:href="#DejaVuSans-65" x="52.019531"/>
       <use xlink:href="#DejaVuSans-62" x="113.542969"/>
      </g>
     </g>
    </g>
    <g id="xtick_3">
     <g id="line2d_3">
      <path d="M 193.552813 242.64 
L 276.712813 98.602655 
" clip-path="url(#p0e60fc3707)" style="fill: none; stroke: #b0b0b0; stroke-width: 0.8; stroke-linecap: square"/>
     </g>
     <g id="text_3">
      <!-- Mar -->
      <g transform="translate(274.279219 89.237674) scale(0.1 -0.1)">
       <defs>
        <path id="DejaVuSans-4d" d="M 628 4666 
L 1569 4666 
L 2759 1491 
L 3956 4666 
L 4897 4666 
L 4897 0 
L 4281 0 
L 4281 4097 
L 3078 897 
L 2444 897 
L 1241 4097 
L 1241 0 
L 628 0 
L 628 4666 
z
" transform="scale(0.015625)"/>
        <path id="DejaVuSans-72" d="M 2631 2963 
Q 2534 3019 2420 3045 
Q 2306 3072 2169 3072 
Q 1681 3072 1420 2755 
Q 1159 2438 1159 1844 
L 1159 0 
L 581 0 
L 581 3500 
L 1159 3500 
L 1159 2956 
Q 1341 3275 1631 3429 
Q 1922 3584 2338 3584 
Q 2397 3584 2469 3576 
Q 2541 3569 2628 3553 
L 2631 2963 
z
" transform="scale(0.015625)"/>
       </defs>
       <use xlink:href="#DejaVuSans-4d"/>
       <use xlink:href="#DejaVuSans-61" x="86.279297"/>
       <use xlink:href="#DejaVuSans-72" x="147.558594"/>
      </g>
     </g>
    </g>
    <g id="xtick_4">
     <g id="line2d_4">
      <path d="M 193.552813 242.64 
L 193.552813 76.32 
" clip-path="url(#p0e60fc3707)" style="fill: none; stroke: #b0b0b0; stroke-width: 0.8; stroke-linecap: square"/>
     </g>
     <g id="text_4">
      <!-- Apr -->
      <g transform="translate(184.902813 65.079375) scale(0.1 -0.1)">
       <defs>
        <path id="DejaVuSans-41" d="M 2188 4044 
L 1331 1722 
L 3047 1722 
L 2188 4044 
z
M 1831 4666 
L 2547 4666 
L 4325 0 
L 3669 0 
L 3244 1197 
L 1141 1197 
L 716 0 
L 50 0 
L 1831 4666 
z
" transform="scale(0.015625)"/>
        <path id="DejaVuSans-70" d="M 1159 525 
L 1159 -1331 
L 581 -1331 
L 581 3500 
L 1159 3500 
L 1159 2969 
Q 1341 3281 1617 3432 
Q 1894 3584 2278 3584 
Q 2916 3584 3314 3078 
Q 3713 2572 3713 1747 
Q 3713 922 3314 415 
Q 2916 -91 2278 -91 
Q 1894 -91 1617 61 
Q 1341 213 1159 525 
z
M 3116 1747 
Q 3116 2381 2855 2742 
Q 2594 3103 2138 3103 
Q 1681 3103 1420 2742 
Q 1159 2381 1159 1747 
Q 1159 1113 1420 752 
Q 1681 391 2138 391 
Q 2594 391 2855 752 
Q 3116 1113 3116 1747 
z
" transform="scale(0.015625)"/>
       </defs>
       <use xlink:href="#DejaVuSans-41"/>
       <use xlink:href="#DejaVuSans-70" x="68.408203"/>
       <use xlink:href="#DejaVuSans-72" x="131.884766"/>
      </g>
     </g>
    </g>
    <g id="xtick_5">
     <g id="line2d_5">
      <path d="M 193.552813 242.64 
L 110.392813 98.602655 
" clip-path="url(#p0e60fc3707)" style="fill: none; stroke: #b0b0b0; stroke-width: 0.8; stroke-linecap: square"/>
     </g>
     <g id="text_5">
      <!-- May -->
      <g transform="translate(93.055313 89.237674) scale(0.1 -0.1)">
       <defs>
        <path id="DejaVuSans-79" d="M 2059 -325 
Q 1816 -950 1584 -1140 
Q 1353 -1331 966 -1331 
L 506 -1331 
L 506 -850 
L 844 -850 
Q 1081 -850 1212 -737 
Q 1344 -625 1503 -206 
L 1606 56 
L 191 3500 
L 800 3500 
L 1894 763 
L 2988 3500 
L 3597 3500 
L 2059 -325 
z
" transform="scale(0.015625)"/>
       </defs>
       <use xlink:href="#DejaVuSans-4d"/>
       <use xlink:href="#DejaVuSans-61" x="86.279297"/>
       <use xlink:href="#DejaVuSans-79" x="147.558594"/>
      </g>
     </g>
    </g>
    <g id="xtick_6">
     <g id="line2d_6">
      <path d="M 193.552813 242.64 
L 49.515467 159.48 
" clip-path="url(#p0e60fc3707)" style="fill: none; stroke: #b0b0b0; stroke-width: 0.8; stroke-linecap: square"/>
     </g>
     <g id="text_6">
      <!-- Jun -->
      <g transform="translate(29.578612 155.239375) scale(0.1 -0.1)">
       <defs>
        <path id="DejaVuSans-75" d="M 544 1381 
L 544 3500 
L 1119 3500 
L 1119 1403 
Q 1119 906 1312 657 
Q 1506 409 1894 409 
Q 2359 409 2629 706 
Q 2900 1003 2900 1516 
L 2900 3500 
L 3475 3500 
L 3475 0 
L 2900 0 
L 2900 538 
Q 2691 219 2414 64 
Q 2138 -91 1772 -91 
Q 1169 -91 856 284 
Q 544 659 544 1381 
z
M 1991 3584 
L 1991 3584 
z
" transform="scale(0.015625)"/>
       </defs>
       <use xlink:href="#DejaVuSans-4a"/>
       <use xlink:href="#DejaVuSans-75" x="29.492188"/>
       <use xlink:href="#DejaVuSans-6e" x="92.871094"/>
      </g>
     </g>
    </g>
    <g id="xtick_7">
     <g id="line2d_7">
      <path d="M 193.552813 242.64 
L 27.232813 242.64 
" clip-path="url(#p0e60fc3707)" style="fill: none; stroke: #b0b0b0; stroke-width: 0.8; stroke-linecap: square"/>
     </g>
     <g id="text_7">
      <!-- Jul -->
      <g transform="translate(7.2 245.399375) scale(0.1 -0.1)">
       <defs>
        <path id="DejaVuSans-6c" d="M 603 4863 
L 1178 4863 
L 1178 0 
L 603 0 
L 603 4863 
z
" transform="scale(0.015625)"/>
       </defs>
       <use xlink:href="#DejaVuSans-4a"/>
       <use xlink:href="#DejaVuSans-75" x="29.492188"/>
       <use xlink:href="#DejaVuSans-6c" x="92.871094"/>
      </g>
     </g>
    </g>
    <g id="xtick_8">
     <g id="line2d_8">
      <path d="M 193.552813 242.64 
L 49.515467 325.8 
" clip-path="url(#p0e60fc3707)" style="fill: none; stroke: #b0b0b0; stroke-width: 0.8; stroke-linecap: square"/>
     </g>
     <g id="text_8">
      <!-- Aug -->
      <g transform="translate(27.62783 335.559375) scale(0.1 -0.1)">
       <defs>
        <path id="DejaVuSans-67" d="M 2906 1791 
Q 2906 2416 2648 2759 
Q 2391 3103 1925 3103 
Q 1463 3103 1205 2759 
Q 947 2416 947 1791 
Q 947 1169 1205 825 
Q 1463 481 1925 481 
Q 2391 481 2648 825 
Q 2906 1169 2906 1791 
z
M 3481 434 
Q 3481 -459 3084 -895 
Q 2688 -1331 1869 -1331 
Q 1566 -1331 1297 -1286 
Q 1028 -1241 775 -1147 
L 775 -588 
Q 1028 -725 1275 -790 
Q 1522 -856 1778 -856 
Q 2344 -856 2625 -561 
Q 2906 -266 2906 331 
L 2906 616 
Q 2728 306 2450 153 
Q 2172 0 1784 0 
Q 1141 0 747 490 
Q 353 981 353 1791 
Q 353 2603 747 3093 
Q 1141 3584 1784 3584 
Q 2172 3584 2450 3431 
Q 2728 3278 2906 2969 
L 2906 3500 
L 3481 3500 
L 3481 434 
z
" transform="scale(0.015625)"/>
       </defs>
       <use xlink:href="#DejaVuSans-41"/>
       <use xlink:href="#DejaVuSans-75" x="68.408203"/>
       <use xlink:href="#DejaVuSans-67" x="131.787109"/>
      </g>
     </g>
    </g>
    <g id="xtick_9">
     <g id="line2d_9">
      <path d="M 193.552813 242.64 
L 110.392812 386.677345 
" clip-path="url(#p0e60fc3707)" style="fill: none; stroke: #b0b0b0; stroke-width: 0.8; stroke-linecap: square"/>
     </g>
     <g id="text_9">
      <!-- Sep -->
      <g transform="translate(93.967812 401.561076) scale(0.1 -0.1)">
       <defs>
        <path id="DejaVuSans-53" d="M 3425 4513 
L 3425 3897 
Q 3066 4069 2747 4153 
Q 2428 4238 2131 4238 
Q 1616 4238 1336 4038 
Q 1056 3838 1056 3469 
Q 1056 3159 1242 3001 
Q 1428 2844 1947 2747 
L 2328 2669 
Q 3034 2534 3370 2195 
Q 3706 1856 3706 1288 
Q 3706 609 3251 259 
Q 2797 -91 1919 -91 
Q 1588 -91 1214 -16 
Q 841 59 441 206 
L 441 856 
Q 825 641 1194 531 
Q 1563 422 1919 422 
Q 2459 422 2753 634 
Q 3047 847 3047 1241 
Q 3047 1584 2836 1778 
Q 2625 1972 2144 2069 
L 1759 2144 
Q 1053 2284 737 2584 
Q 422 2884 422 3419 
Q 422 4038 858 4394 
Q 1294 4750 2059 4750 
Q 2388 4750 2728 4690 
Q 3069 4631 3425 4513 
z
" transform="scale(0.015625)"/>
       </defs>
       <use xlink:href="#DejaVuSans-53"/>
       <use xlink:href="#DejaVuSans-65" x="63.476562"/>
       <use xlink:href="#DejaVuSans-70" x="125"/>
      </g>
     </g>
    </g>
    <g id="xtick_10">
     <g id="line2d_10">
      <path d="M 193.552813 242.64 
L 193.552812 408.96 
" clip-path="url(#p0e60fc3707)" style="fill: none; stroke: #b0b0b0; stroke-width: 0.8; stroke-linecap: square"/>
     </g>
     <g id="text_10">
      <!-- Oct -->
      <g transform="translate(184.9075 425.719375) scale(0.1 -0.1)">
       <defs>
        <path id="DejaVuSans-4f" d="M 2522 4238 
Q 1834 4238 1429 3725 
Q 1025 3213 1025 2328 
Q 1025 1447 1429 934 
Q 1834 422 2522 422 
Q 3209 422 3611 934 
Q 4013 1447 4013 2328 
Q 4013 3213 3611 3725 
Q 3209 4238 2522 4238 
z
M 2522 4750 
Q 3503 4750 4090 4092 
Q 4678 3434 4678 2328 
Q 4678 1225 4090 567 
Q 3503 -91 2522 -91 
Q 1538 -91 948 565 
Q 359 1222 359 2328 
Q 359 3434 948 4092 
Q 1538 4750 2522 4750 
z
" transform="scale(0.015625)"/>
        <path id="DejaVuSans-63" d="M 3122 3366 
L 3122 2828 
Q 2878 2963 2633 3030 
Q 2388 3097 2138 3097 
Q 1578 3097 1268 2742 
Q 959 2388 959 1747 
Q 959 1106 1268 751 
Q 1578 397 2138 397 
Q 2388 397 2633 464 
Q 2878 531 3122 666 
L 3122 134 
Q 2881 22 2623 -34 
Q 2366 -91 2075 -91 
Q 1284 -91 818 406 
Q 353 903 353 1747 
Q 353 2603 823 3093 
Q 1294 3584 2113 3584 
Q 2378 3584 2631 3529 
Q 2884 3475 3122 3366 
z
" transform="scale(0.015625)"/>
        <path id="DejaVuSans-74" d="M 1172 4494 
L 1172 3500 
L 2356 3500 
L 2356 3053 
L 1172 3053 
L 1172 1153 
Q 1172 725 1289 603 
Q 1406 481 1766 481 
L 2356 481 
L 2356 0 
L 1766 0 
Q 1100 0 847 248 
Q 594 497 594 1153 
L 594 3053 
L 172 3053 
L 172 3500 
L 594 3500 
L 594 4494 
L 1172 4494 
z
" transform="scale(0.015625)"/>
       </defs>
       <use xlink:href="#DejaVuSans-4f"/>
       <use xlink:href="#DejaVuSans-63" x="78.710938"/>
       <use xlink:href="#DejaVuSans-74" x="133.691406"/>
      </g>
     </g>
    </g>
    <g id="xtick_11">
     <g id="line2d_11">
      <path d="M 193.552813 242.64 
L 276.712812 386.677345 
" clip-path="url(#p0e60fc3707)" style="fill: none; stroke: #b0b0b0; stroke-width: 0.8; stroke-linecap: square"/>
     </g>
     <g id="text_11">
      <!-- Nov -->
      <g transform="translate(273.953437 401.561076) scale(0.1 -0.1)">
       <defs>
        <path id="DejaVuSans-4e" d="M 628 4666 
L 1478 4666 
L 3547 763 
L 3547 4666 
L 4159 4666 
L 4159 0 
L 3309 0 
L 1241 3903 
L 1241 0 
L 628 0 
L 628 4666 
z
" transform="scale(0.015625)"/>
        <path id="DejaVuSans-6f" d="M 1959 3097 
Q 1497 3097 1228 2736 
Q 959 2375 959 1747 
Q 959 1119 1226 758 
Q 1494 397 1959 397 
Q 2419 397 2687 759 
Q 2956 1122 2956 1747 
Q 2956 2369 2687 2733 
Q 2419 3097 1959 3097 
z
M 1959 3584 
Q 2709 3584 3137 3096 
Q 3566 2609 3566 1747 
Q 3566 888 3137 398 
Q 2709 -91 1959 -91 
Q 1206 -91 779 398 
Q 353 888 353 1747 
Q 353 2609 779 3096 
Q 1206 3584 1959 3584 
z
" transform="scale(0.015625)"/>
        <path id="DejaVuSans-76" d="M 191 3500 
L 800 3500 
L 1894 563 
L 2988 3500 
L 3597 3500 
L 2284 0 
L 1503 0 
L 191 3500 
z
" transform="scale(0.015625)"/>
       </defs>
       <use xlink:href="#DejaVuSans-4e"/>
       <use xlink:href="#DejaVuSans-6f" x="74.804688"/>
       <use xlink:href="#DejaVuSans-76" x="135.986328"/>
      </g>
     </g>
    </g>
    <g id="xtick_12">
     <g id="line2d_12">
      <path d="M 193.552813 242.64 
L 337.590158 325.8 
" clip-path="url(#p0e60fc3707)" style="fill: none; stroke: #b0b0b0; stroke-width: 0.8; stroke-linecap: square"/>
     </g>
     <g id="text_12">
      <!-- Dec -->
      <g transform="translate(340.038732 335.559375) scale(0.1 -0.1)">
       <defs>
        <path id="DejaVuSans-44" d="M 1259 4147 
L 1259 519 
L 2022 519 
Q 2988 519 3436 956 
Q 3884 1394 3884 2338 
Q 3884 3275 3436 3711 
Q 2988 4147 2022 4147 
L 1259 4147 
z
M 628 4666 
L 1925 4666 
Q 3281 4666 3915 4102 
Q 4550 3538 4550 2338 
Q 4550 1131 3912 565 
Q 3275 0 1925 0 
L 628 0 
L 628 4666 
z
" transform="scale(0.015625)"/>
       </defs>
       <use xlink:href="#DejaVuSans-44"/>
       <use xlink:href="#DejaVuSans-65" x="77.001953"/>
       <use xlink:href="#DejaVuSans-63" x="138.525391"/>
      </g>
     </g>
    </g>
   </g>
   <g id="matplotlib.axis_2">
    <g id="ytick_1">
     <g id="line2d_13">
      <path d="M 193.552813 242.64 
C 193.552813 242.64 193.552813 242.64 193.552813 242.64 
C 193.552813 242.64 193.552813 242.64 193.552813 242.64 
C 193.552813 242.64 193.552813 242.64 193.552813 242.64 
C 193.552813 242.64 193.552813 242.64 193.552813 242.64 
C 193.552813 242.64 193.552813 242.64 193.552813 242.64 
C 193.552813 242.64 193.552813 242.64 193.552813 242.64 
C 193.552813 242.64 193.552813 242.64 193.552813 242.64 
C 193.552813 242.64 193.552813 242.64 193.552813 242.64 
C 193.552813 242.64 193.552813 242.64 193.552813 242.64 
C 193.552813 242.64 193.552813 242.64 193.552813 242.64 
C 193.552813 242.64 193.552813 242.64 193.552813 242.64 
C 193.552813 242.64 193.552813 242.64 193.552813 242.64 
C 193.552813 242.64 193.552813 242.64 193.552813 242.64 
C 193.552813 242.64 193.552813 242.64 193.552813 242.64 
C 193.552813 242.64 193.552813 242.64 193.552813 242.64 
C 193.552813 242.64 193.552813 242.64 193.552813 242.64 
" clip-path="url(#p0e60fc3707)" style="fill: none; stroke: #b0b0b0; stroke-width: 0.8; stroke-linecap: square"/>
     </g>
     <g id="text_13">
      <!-- 0 -->
      <g transform="translate(193.552813 240.560312) scale(0.1 -0.1)">
       <defs>
        <path id="DejaVuSans-30" d="M 2034 4250 
Q 1547 4250 1301 3770 
Q 1056 3291 1056 2328 
Q 1056 1369 1301 889 
Q 1547 409 2034 409 
Q 2525 409 2770 889 
Q 3016 1369 3016 2328 
Q 3016 3291 2770 3770 
Q 2525 4250 2034 4250 
z
M 2034 4750 
Q 2819 4750 3233 4129 
Q 3647 3509 3647 2328 
Q 3647 1150 3233 529 
Q 2819 -91 2034 -91 
Q 1250 -91 836 529 
Q 422 1150 422 2328 
Q 422 3509 836 4129 
Q 1250 4750 2034 4750 
z
" transform="scale(0.015625)"/>
       </defs>
       <use xlink:href="#DejaVuSans-30"/>
      </g>
     </g>
    </g>
    <g id="ytick_2">
     <g id="line2d_14">
      <path d="M 212.243078 242.64 
C 212.243078 240.185617 211.759618 237.755099 210.820366 235.487545 
C 209.881114 233.219991 208.504337 231.159498 206.768826 229.423987 
C 205.033315 227.688476 202.972822 226.311698 200.705267 225.372446 
C 198.437713 224.433194 196.007196 223.949735 193.552813 223.949735 
C 191.098429 223.949735 188.667912 224.433194 186.400358 225.372446 
C 184.132803 226.311698 182.07231 227.688476 180.336799 229.423987 
C 178.601288 231.159498 177.224511 233.219991 176.285259 235.487545 
C 175.346007 237.755099 174.862547 240.185617 174.862547 242.64 
C 174.862547 245.094383 175.346007 247.524901 176.285259 249.792455 
C 177.224511 252.060009 178.601288 254.120502 180.336799 255.856013 
C 182.07231 257.591524 184.132803 258.968302 186.400358 259.907554 
C 188.667912 260.846806 191.098429 261.330265 193.552813 261.330265 
C 196.007196 261.330265 198.437713 260.846806 200.705267 259.907554 
C 202.972822 258.968302 205.033315 257.591524 206.768826 255.856013 
C 208.504337 254.120502 209.881114 252.060009 210.820366 249.792455 
C 211.759618 247.524901 212.243078 245.094383 212.243078 242.64 
" clip-path="url(#p0e60fc3707)" style="fill: none; stroke: #b0b0b0; stroke-width: 0.8; stroke-linecap: square"/>
     </g>
     <g id="text_14">
      <!-- 600 -->
      <g transform="translate(210.820366 233.407858) scale(0.1 -0.1)">
       <defs>
        <path id="DejaVuSans-36" d="M 2113 2584 
Q 1688 2584 1439 2293 
Q 1191 2003 1191 1497 
Q 1191 994 1439 701 
Q 1688 409 2113 409 
Q 2538 409 2786 701 
Q 3034 994 3034 1497 
Q 3034 2003 2786 2293 
Q 2538 2584 2113 2584 
z
M 3366 4563 
L 3366 3988 
Q 3128 4100 2886 4159 
Q 2644 4219 2406 4219 
Q 1781 4219 1451 3797 
Q 1122 3375 1075 2522 
Q 1259 2794 1537 2939 
Q 1816 3084 2150 3084 
Q 2853 3084 3261 2657 
Q 3669 2231 3669 1497 
Q 3669 778 3244 343 
Q 2819 -91 2113 -91 
Q 1303 -91 875 529 
Q 447 1150 447 2328 
Q 447 3434 972 4092 
Q 1497 4750 2381 4750 
Q 2619 4750 2861 4703 
Q 3103 4656 3366 4563 
z
" transform="scale(0.015625)"/>
       </defs>
       <use xlink:href="#DejaVuSans-36"/>
       <use xlink:href="#DejaVuSans-30" x="63.623047"/>
       <use xlink:href="#DejaVuSans-30" x="127.246094"/>
      </g>
     </g>
    </g>
    <g id="ytick_3">
     <g id="line2d_15">
      <path d="M 230.933343 242.64 
C 230.933343 237.731234 229.966424 232.870199 228.08792 228.33509 
C 226.209416 223.799981 223.455861 219.678995 219.984839 216.207973 
C 216.513817 212.736951 212.392831 209.983396 207.857722 208.104893 
C 203.322614 206.226389 198.461579 205.259469 193.552813 205.259469 
C 188.644046 205.259469 183.783011 206.226389 179.247903 208.104893 
C 174.712794 209.983396 170.591808 212.736951 167.120786 216.207973 
C 163.649764 219.678995 160.896209 223.799981 159.017705 228.33509 
C 157.139201 232.870199 156.172282 237.731234 156.172282 242.64 
C 156.172282 247.548766 157.139201 252.409801 159.017705 256.94491 
C 160.896209 261.480019 163.649764 265.601005 167.120786 269.072027 
C 170.591808 272.543049 174.712794 275.296604 179.247903 277.175107 
C 183.783011 279.053611 188.644046 280.020531 193.552813 280.020531 
C 198.461579 280.020531 203.322614 279.053611 207.857722 277.175107 
C 212.392831 275.296604 216.513817 272.543049 219.984839 269.072027 
C 223.455861 265.601005 226.209416 261.480019 228.08792 256.94491 
C 229.966424 252.409801 230.933343 247.548766 230.933343 242.64 
" clip-path="url(#p0e60fc3707)" style="fill: none; stroke: #b0b0b0; stroke-width: 0.8; stroke-linecap: square"/>
     </g>
     <g id="text_15">
      <!-- 1200 -->
      <g transform="translate(228.08792 226.255403) scale(0.1 -0.1)">
       <defs>
        <path id="DejaVuSans-31" d="M 794 531 
L 1825 531 
L 1825 4091 
L 703 3866 
L 703 4441 
L 1819 4666 
L 2450 4666 
L 2450 531 
L 3481 531 
L 3481 0 
L 794 0 
L 794 531 
z
" transform="scale(0.015625)"/>
        <path id="DejaVuSans-32" d="M 1228 531 
L 3431 531 
L 3431 0 
L 469 0 
L 469 531 
Q 828 903 1448 1529 
Q 2069 2156 2228 2338 
Q 2531 2678 2651 2914 
Q 2772 3150 2772 3378 
Q 2772 3750 2511 3984 
Q 2250 4219 1831 4219 
Q 1534 4219 1204 4116 
Q 875 4013 500 3803 
L 500 4441 
Q 881 4594 1212 4672 
Q 1544 4750 1819 4750 
Q 2544 4750 2975 4387 
Q 3406 4025 3406 3419 
Q 3406 3131 3298 2873 
Q 3191 2616 2906 2266 
Q 2828 2175 2409 1742 
Q 1991 1309 1228 531 
z
" transform="scale(0.015625)"/>
       </defs>
       <use xlink:href="#DejaVuSans-31"/>
       <use xlink:href="#DejaVuSans-32" x="63.623047"/>
       <use xlink:href="#DejaVuSans-30" x="127.246094"/>
       <use xlink:href="#DejaVuSans-30" x="190.869141"/>
      </g>
     </g>
    </g>
    <g id="ytick_4">
     <g id="line2d_16">
      <path d="M 249.623609 242.64 
C 249.623609 235.27685 248.173229 227.985298 245.355474 221.182635 
C 242.537718 214.379972 238.407386 208.198493 233.200853 202.99196 
C 227.99432 197.785427 221.81284 193.655094 215.010177 190.837339 
C 208.207514 188.019583 200.915962 186.569204 193.552813 186.569204 
C 186.189663 186.569204 178.898111 188.019583 172.095448 190.837339 
C 165.292785 193.655094 159.111305 197.785427 153.904772 202.99196 
C 148.698239 208.198493 144.567907 214.379972 141.750151 221.182635 
C 138.932396 227.985298 137.482016 235.27685 137.482016 242.64 
C 137.482016 250.00315 138.932396 257.294702 141.750151 264.097365 
C 144.567907 270.900028 148.698239 277.081507 153.904772 282.28804 
C 159.111305 287.494573 165.292785 291.624906 172.095448 294.442661 
C 178.898111 297.260417 186.189663 298.710796 193.552813 298.710796 
C 200.915962 298.710796 208.207514 297.260417 215.010177 294.442661 
C 221.81284 291.624906 227.99432 287.494573 233.200853 282.28804 
C 238.407386 277.081507 242.537718 270.900028 245.355474 264.097365 
C 248.173229 257.294702 249.623609 250.00315 249.623609 242.64 
" clip-path="url(#p0e60fc3707)" style="fill: none; stroke: #b0b0b0; stroke-width: 0.8; stroke-linecap: square"/>
     </g>
     <g id="text_16">
      <!-- 1800 -->
      <g transform="translate(245.355474 219.102948) scale(0.1 -0.1)">
       <defs>
        <path id="DejaVuSans-38" d="M 2034 2216 
Q 1584 2216 1326 1975 
Q 1069 1734 1069 1313 
Q 1069 891 1326 650 
Q 1584 409 2034 409 
Q 2484 409 2743 651 
Q 3003 894 3003 1313 
Q 3003 1734 2745 1975 
Q 2488 2216 2034 2216 
z
M 1403 2484 
Q 997 2584 770 2862 
Q 544 3141 544 3541 
Q 544 4100 942 4425 
Q 1341 4750 2034 4750 
Q 2731 4750 3128 4425 
Q 3525 4100 3525 3541 
Q 3525 3141 3298 2862 
Q 3072 2584 2669 2484 
Q 3125 2378 3379 2068 
Q 3634 1759 3634 1313 
Q 3634 634 3220 271 
Q 2806 -91 2034 -91 
Q 1263 -91 848 271 
Q 434 634 434 1313 
Q 434 1759 690 2068 
Q 947 2378 1403 2484 
z
M 1172 3481 
Q 1172 3119 1398 2916 
Q 1625 2713 2034 2713 
Q 2441 2713 2670 2916 
Q 2900 3119 2900 3481 
Q 2900 3844 2670 4047 
Q 2441 4250 2034 4250 
Q 1625 4250 1398 4047 
Q 1172 3844 1172 3481 
z
" transform="scale(0.015625)"/>
       </defs>
       <use xlink:href="#DejaVuSans-31"/>
       <use xlink:href="#DejaVuSans-38" x="63.623047"/>
       <use xlink:href="#DejaVuSans-30" x="127.246094"/>
       <use xlink:href="#DejaVuSans-30" x="190.869141"/>
      </g>
     </g>
    </g>
    <g id="ytick_5">
     <g id="line2d_17">
      <path d="M 268.313874 242.64 
C 268.313874 232.822467 266.380035 223.100398 262.623027 214.03018 
C 258.86602 204.959963 253.35891 196.71799 246.416866 189.775946 
C 239.474822 182.833902 231.23285 177.326792 222.162632 173.569785 
C 213.092415 169.812778 203.370345 167.878938 193.552813 167.878938 
C 183.73528 167.878938 174.01321 169.812778 164.942993 173.569785 
C 155.872775 177.326792 147.630803 182.833902 140.688759 189.775946 
C 133.746715 196.71799 128.239605 204.959963 124.482598 214.03018 
C 120.72559 223.100398 118.791751 232.822467 118.791751 242.64 
C 118.791751 252.457533 120.72559 262.179602 124.482598 271.24982 
C 128.239605 280.320037 133.746715 288.56201 140.688759 295.504054 
C 147.630803 302.446098 155.872775 307.953208 164.942993 311.710215 
C 174.01321 315.467222 183.73528 317.401062 193.552813 317.401062 
C 203.370345 317.401062 213.092415 315.467222 222.162632 311.710215 
C 231.23285 307.953208 239.474822 302.446098 246.416866 295.504054 
C 253.35891 288.56201 258.86602 280.320037 262.623027 271.24982 
C 266.380035 262.179602 268.313874 252.457533 268.313874 242.64 
" clip-path="url(#p0e60fc3707)" style="fill: none; stroke: #b0b0b0; stroke-width: 0.8; stroke-linecap: square"/>
     </g>
     <g id="text_17">
      <!-- 2400 -->
      <g transform="translate(262.623027 211.950493) scale(0.1 -0.1)">
       <defs>
        <path id="DejaVuSans-34" d="M 2419 4116 
L 825 1625 
L 2419 1625 
L 2419 4116 
z
M 2253 4666 
L 3047 4666 
L 3047 1625 
L 3713 1625 
L 3713 1100 
L 3047 1100 
L 3047 0 
L 2419 0 
L 2419 1100 
L 313 1100 
L 313 1709 
L 2253 4666 
z
" transform="scale(0.015625)"/>
       </defs>
       <use xlink:href="#DejaVuSans-32"/>
       <use xlink:href="#DejaVuSans-34" x="63.623047"/>
       <use xlink:href="#DejaVuSans-30" x="127.246094"/>
       <use xlink:href="#DejaVuSans-30" x="190.869141"/>
      </g>
     </g>
    </g>
    <g id="ytick_6">
     <g id="line2d_18">
      <path d="M 287.00414 242.64 
C 287.00414 230.368084 284.58684 218.215497 279.890581 206.877725 
C 275.194322 195.539953 268.310435 185.237488 259.63288 176.559933 
C 250.955325 167.882378 240.652859 160.99849 229.315087 156.302231 
C 217.977315 151.605972 205.824728 149.188673 193.552813 149.188673 
C 181.280897 149.188673 169.12831 151.605972 157.790538 156.302231 
C 146.452766 160.99849 136.1503 167.882378 127.472745 176.559933 
C 118.79519 185.237488 111.911303 195.539953 107.215044 206.877725 
C 102.518785 218.215497 100.101485 230.368084 100.101485 242.64 
C 100.101485 254.911916 102.518785 267.064503 107.215044 278.402275 
C 111.911303 289.740047 118.79519 300.042512 127.472745 308.720067 
C 136.1503 317.397622 146.452766 324.28151 157.790538 328.977769 
C 169.12831 333.674028 181.280897 336.091327 193.552812 336.091327 
C 205.824728 336.091327 217.977315 333.674028 229.315087 328.977769 
C 240.652859 324.28151 250.955325 317.397622 259.63288 308.720067 
C 268.310435 300.042512 275.194322 289.740047 279.890581 278.402275 
C 284.58684 267.064503 287.00414 254.911916 287.00414 242.64 
" clip-path="url(#p0e60fc3707)" style="fill: none; stroke: #b0b0b0; stroke-width: 0.8; stroke-linecap: square"/>
     </g>
     <g id="text_18">
      <!-- 3000 -->
      <g transform="translate(279.890581 204.798038) scale(0.1 -0.1)">
       <defs>
        <path id="DejaVuSans-33" d="M 2597 2516 
Q 3050 2419 3304 2112 
Q 3559 1806 3559 1356 
Q 3559 666 3084 287 
Q 2609 -91 1734 -91 
Q 1441 -91 1130 -33 
Q 819 25 488 141 
L 488 750 
Q 750 597 1062 519 
Q 1375 441 1716 441 
Q 2309 441 2620 675 
Q 2931 909 2931 1356 
Q 2931 1769 2642 2001 
Q 2353 2234 1838 2234 
L 1294 2234 
L 1294 2753 
L 1863 2753 
Q 2328 2753 2575 2939 
Q 2822 3125 2822 3475 
Q 2822 3834 2567 4026 
Q 2313 4219 1838 4219 
Q 1578 4219 1281 4162 
Q 984 4106 628 3988 
L 628 4550 
Q 988 4650 1302 4700 
Q 1616 4750 1894 4750 
Q 2613 4750 3031 4423 
Q 3450 4097 3450 3541 
Q 3450 3153 3228 2886 
Q 3006 2619 2597 2516 
z
" transform="scale(0.015625)"/>
       </defs>
       <use xlink:href="#DejaVuSans-33"/>
       <use xlink:href="#DejaVuSans-30" x="63.623047"/>
       <use xlink:href="#DejaVuSans-30" x="127.246094"/>
       <use xlink:href="#DejaVuSans-30" x="190.869141"/>
      </g>
     </g>
    </g>
    <g id="ytick_7">
     <g id="line2d_19">
      <path d="M 305.694405 242.64 
C 305.694405 227.913701 302.793646 213.330597 297.158135 199.72527 
C 291.522624 186.119944 283.261959 173.756985 272.848893 163.343919 
C 262.435827 152.930853 250.072868 144.670188 236.467542 139.034678 
C 222.862216 133.399167 208.279112 130.498407 193.552813 130.498407 
C 178.826513 130.498407 164.243409 133.399167 150.638083 139.034678 
C 137.032757 144.670188 124.669798 152.930853 114.256732 163.343919 
C 103.843666 173.756985 95.583001 186.119944 89.94749 199.72527 
C 84.311979 213.330597 81.41122 227.913701 81.41122 242.64 
C 81.41122 257.366299 84.311979 271.949403 89.94749 285.55473 
C 95.583001 299.160056 103.843666 311.523015 114.256732 321.936081 
C 124.669798 332.349147 137.032757 340.609812 150.638083 346.245322 
C 164.243409 351.880833 178.826513 354.781593 193.552812 354.781593 
C 208.279112 354.781593 222.862216 351.880833 236.467542 346.245322 
C 250.072868 340.609812 262.435827 332.349147 272.848893 321.936081 
C 283.261959 311.523015 291.522624 299.160056 297.158135 285.55473 
C 302.793646 271.949403 305.694405 257.366299 305.694405 242.64 
" clip-path="url(#p0e60fc3707)" style="fill: none; stroke: #b0b0b0; stroke-width: 0.8; stroke-linecap: square"/>
     </g>
     <g id="text_19">
      <!-- 3600 -->
      <g transform="translate(297.158135 197.645583) scale(0.1 -0.1)">
       <use xlink:href="#DejaVuSans-33"/>
       <use xlink:href="#DejaVuSans-36" x="63.623047"/>
       <use xlink:href="#DejaVuSans-30" x="127.246094"/>
       <use xlink:href="#DejaVuSans-30" x="190.869141"/>
      </g>
     </g>
    </g>
    <g id="ytick_8">
     <g id="line2d_20">
      <path d="M 324.384671 242.64 
C 324.384671 225.459318 321.000451 208.445696 314.425689 192.572815 
C 307.850926 176.699935 298.213484 162.276483 286.064907 150.127906 
C 273.91633 137.979329 259.492878 128.341886 243.619997 121.767124 
C 227.747116 115.192361 210.733495 111.808142 193.552813 111.808142 
C 176.37213 111.808142 159.358509 115.192361 143.485628 121.767124 
C 127.612747 128.341886 113.189295 137.979329 101.040718 150.127906 
C 88.892141 162.276483 79.254699 176.699935 72.679936 192.572815 
C 66.105174 208.445696 62.720954 225.459318 62.720954 242.64 
C 62.720954 259.820682 66.105174 276.834304 72.679936 292.707185 
C 79.254699 308.580065 88.892141 323.003517 101.040718 335.152094 
C 113.189295 347.300671 127.612747 356.938114 143.485628 363.512876 
C 159.358509 370.087639 176.37213 373.471858 193.552812 373.471858 
C 210.733495 373.471858 227.747116 370.087639 243.619997 363.512876 
C 259.492878 356.938114 273.91633 347.300671 286.064907 335.152094 
C 298.213484 323.003517 307.850926 308.580065 314.425689 292.707185 
C 321.000451 276.834304 324.384671 259.820682 324.384671 242.64 
" clip-path="url(#p0e60fc3707)" style="fill: none; stroke: #b0b0b0; stroke-width: 0.8; stroke-linecap: square"/>
     </g>
     <g id="text_20">
      <!-- 4200 -->
      <g transform="translate(314.425689 190.493128) scale(0.1 -0.1)">
       <use xlink:href="#DejaVuSans-34"/>
       <use xlink:href="#DejaVuSans-32" x="63.623047"/>
       <use xlink:href="#DejaVuSans-30" x="127.246094"/>
       <use xlink:href="#DejaVuSans-30" x="190.869141"/>
      </g>
     </g>
    </g>
    <g id="ytick_9">
     <g id="line2d_21">
      <path d="M 343.074936 242.64 
C 343.074936 223.004935 339.207257 203.560795 331.693242 185.42036 
C 324.179228 167.279925 313.165008 150.79598 299.28092 136.911892 
C 285.396832 123.027804 268.912887 112.013584 250.772452 104.49957 
C 232.632017 96.985556 213.187878 93.117876 193.552813 93.117876 
C 173.917747 93.117876 154.473608 96.985556 136.333173 104.49957 
C 118.192738 112.013584 101.708793 123.027804 87.824705 136.911892 
C 73.940617 150.79598 62.926397 167.279925 55.412383 185.42036 
C 47.898368 203.560795 44.030689 223.004935 44.030689 242.64 
C 44.030689 262.275065 47.898368 281.719205 55.412383 299.85964 
C 62.926397 318.000075 73.940617 334.48402 87.824705 348.368108 
C 101.708793 362.252196 118.192738 373.266416 136.333173 380.78043 
C 154.473608 388.294444 173.917747 392.162124 193.552812 392.162124 
C 213.187878 392.162124 232.632017 388.294444 250.772452 380.78043 
C 268.912887 373.266416 285.396832 362.252196 299.28092 348.368108 
C 313.165008 334.48402 324.179228 318.000075 331.693242 299.85964 
C 339.207257 281.719205 343.074936 262.275065 343.074936 242.64 
" clip-path="url(#p0e60fc3707)" style="fill: none; stroke: #b0b0b0; stroke-width: 0.8; stroke-linecap: square"/>
     </g>
     <g id="text_21">
      <!-- 4800 -->
      <g transform="translate(331.693242 183.340673) scale(0.1 -0.1)">
       <use xlink:href="#DejaVuSans-34"/>
       <use xlink:href="#DejaVuSans-38" x="63.623047"/>
       <use xlink:href="#DejaVuSans-30" x="127.246094"/>
       <use xlink:href="#DejaVuSans-30" x="190.869141"/>
      </g>
     </g>
    </g>
   </g>
   <g id="line2d_22">
    <path d="M 193.552813 242.64 
L 289.534189 231.207736 
L 289.143438 219.540849 
L 285.594482 208.451406 
L 281.653114 197.421259 
L 275.299037 187.579775 
L 268.66146 177.911474 
L 260.794022 169.137702 
L 251.864793 161.371755 
L 240.2495 157.937056 
L 230.442185 151.680741 
L 218.546661 151.171376 
L 207.525352 149.042138 
L 196.356241 148.077653 
L 185.536853 152.722614 
L 175.202123 155.460142 
L 165.758151 160.426157 
L 156.403704 164.656164 
L 149.087309 172.204996 
L 139.753794 176.337781 
L 133.854177 184.684982 
L 126.378749 191.358622 
L 121.616505 200.15452 
L 119.576652 210.053357 
L 115.49695 218.804032 
L 113.930823 228.329984 
L 112.424043 237.825425 
L 109.812001 247.609586 
L 114.237416 256.894914 
L 116.509889 266.166646 
L 117.752192 276.030321 
L 126.471267 282.258264 
L 130.21656 290.991554 
L 136.603309 297.92618 
L 143.600787 304.201163 
L 150.716935 310.493617 
L 159.123239 314.914958 
L 167.623765 319.335542 
L 176.908865 321.711521 
L 186.170275 325.452113 
L 196.029466 326.179933 
L 206.246759 327.672949 
L 215.820656 324.132414 
L 224.916389 319.974134 
L 234.624842 317.140399 
L 244.346525 313.430184 
L 251.98412 306.512072 
L 261.016093 300.77976 
L 268.11653 292.862443 
L 275.805626 284.857434 
L 283.988425 276.232029 
L 286.569728 265.117223 
L 286.441009 253.703838 
L 290.212636 242.64 
" clip-path="url(#p0e60fc3707)" style="fill: none; stroke-dasharray: 5.55,2.4; stroke-dashoffset: 0; stroke: #1f77b4; stroke-width: 1.5"/>
   </g>
   <g id="line2d_23">
    <path d="M 290.212636 242.64 
L 297.549232 229.767263 
L 288.926717 218.661741 
L 282.034423 208.37595 
L 280.393871 196.027725 
L 274.823879 185.137191 
L 267.190571 175.547164 
L 253.545329 172.66162 
L 246.8876 162.213411 
L 236.728866 156.019833 
L 226.911836 148.111386 
L 217.692019 132.680748 
L 206.441597 104.370743 
L 188.768653 84.312265 
L 169.845556 89.26996 
L 156.916526 113.541675 
L 146.159363 130.440759 
L 140.932543 151.335772 
L 137.503257 168.291683 
L 133.387683 180.485081 
L 126.377822 188.483563 
L 121.239675 197.769829 
L 117.689679 207.645239 
L 113.757671 217.163225 
L 111.018089 227.118163 
L 110.886747 237.446806 
L 111.527869 247.601595 
L 113.340529 257.532175 
L 118.479838 266.417009 
L 117.863414 277.341546 
L 122.885071 286.262102 
L 129.362084 294.144883 
L 123.861475 314.302214 
L 139.832337 313.555441 
L 150.840337 316.356221 
L 160.743436 319.812144 
L 170.043301 324.755419 
L 180.410103 326.375218 
L 190.623694 332.648281 
L 202.015691 335.769901 
L 213.52413 334.633766 
L 226.733286 337.36347 
L 241.244036 338.877996 
L 256.805165 338.504741 
L 266.120899 327.686313 
L 275.81183 317.938397 
L 278.218852 302.840611 
L 286.891689 293.019728 
L 296.001332 282.586665 
L 302.698937 270.350585 
L 314.362557 257.879004 
L 314.011248 242.919905 
L 320.64766 227.207891 
" clip-path="url(#p0e60fc3707)" style="fill: none; stroke-dasharray: 0.5,0.825; stroke-dashoffset: 0; stroke: #ff7f0e; stroke-width: 0.5"/>
   </g>
   <g id="line2d_24">
    <path d="M 193.552813 242.64 
L 321.693466 226.778676 
L 309.862452 213.39822 
L 305.767015 199.185626 
L 295.489504 187.925085 
L 286.495787 176.878809 
L 275.318816 168.141357 
L 265.142395 159.134201 
L 248.729699 159.435605 
L 236.701073 156.075591 
L 227.181362 147.347637 
L 213.884784 150.023519 
L 202.359281 148.165312 
L 190.564712 143.75133 
L 178.4919 145.206003 
L 166.849484 148.543264 
L 155.444115 152.42148 
L 145.007776 158.406924 
L 137.14697 167.819078 
L 128.18796 175.113392 
L 121.042625 184.182329 
L 119.307442 196.570882 
L 108.411861 203.365492 
L 107.971114 215.315709 
L 105.691293 226.116382 
L 110.451499 237.419463 
L 106.739453 247.891241 
L 106.663829 258.771768 
L 108.234515 269.661894 
L 114.946838 278.678717 
L 116.258314 290.352696 
L 121.684465 300.305195 
L 131.853501 306.084172 
L 139.04233 314.598315 
L 147.841874 321.531181 
L 158.695897 324.628236 
L 167.033878 335.266911 
L 179.453742 332.468409 
L 190.624707 332.617147 
L 202.213026 337.941484 
L 213.854562 336.155833 
L 225.106186 332.718433 
L 238.851176 334.04935 
L 251.675668 330.730519 
L 264.685308 326.00387 
L 280.591125 322.313276 
L 295.228221 314.934887 
L 308.465168 304.66403 
L 321.105572 292.375296 
L 325.584902 276.160993 
L 318.812955 258.44038 
L 311.051964 242.913029 
L 307.381556 228.818688 
" clip-path="url(#p0e60fc3707)" style="fill: none; stroke-dasharray: 0.5,0.825; stroke-dashoffset: 0; stroke: #2ca02c; stroke-width: 0.5"/>
   </g>
   <g id="line2d_25">
    <path d="M 193.552813 242.64 
L 299.682334 229.503227 
L 288.926717 218.661741 
L 286.275498 206.733615 
L 281.381949 195.49737 
L 277.087059 183.535892 
L 268.52609 174.330346 
L 262.101207 162.681601 
L 251.260432 155.619366 
L 238.493706 152.479196 
L 228.674121 143.117643 
L 217.638585 132.924156 
L 204.050609 130.020962 
L 190.199667 131.670472 
L 176.54564 132.615006 
L 163.643384 137.245662 
L 154.341096 149.810193 
L 144.696689 157.867142 
L 134.859233 164.784452 
L 125.783088 172.628986 
L 119.393563 182.852857 
L 116.157639 194.616435 
L 109.684732 203.952653 
L 106.131286 214.728294 
L 101.344138 225.298838 
L 96.05722 236.515195 
L 97.100434 248.474294 
L 102.498548 259.545092 
L 101.879445 271.674663 
L 103.393798 283.975474 
L 110.426767 293.95242 
L 121.58728 300.383173 
L 128.704469 309.322259 
L 135.600156 319.142267 
L 146.061537 324.603813 
L 157.294308 327.924966 
L 168.3714 330.595137 
L 179.936752 329.39104 
L 190.497046 336.540026 
L 202.593602 342.129537 
L 215.414202 343.339992 
L 227.691009 340.097574 
L 240.179006 336.72883 
L 250.37185 328.754463 
L 258.963166 319.297794 
L 266.414082 309.335871 
L 275.096236 300.620319 
L 287.110988 293.138095 
L 293.186174 281.488981 
L 302.8499 270.388912 
L 317.205867 258.237661 
L 324.322017 242.943864 
L 321.420744 227.114022 
" clip-path="url(#p0e60fc3707)" style="fill: none; stroke-dasharray: 1,1.65; stroke-dashoffset: 0; stroke: #d62728"/>
   </g>
   <g id="line2d_26">
    <path d="M 193.552813 242.64 
L 318.292166 227.193921 
L 310.554608 213.212867 
L 300.445487 201.229557 
L 288.042228 191.900255 
L 285.667207 177.43357 
L 272.996402 170.217599 
L 265.480566 158.685569 
L 252.846113 153.157431 
L 242.275092 144.792473 
L 232.75962 131.37916 
L 218.043417 130.812479 
L 203.825204 131.78324 
L 190.309488 137.370305 
L 177.918483 141.921978 
L 167.424536 150.808633 
L 154.309861 149.924862 
L 148.32237 164.298576 
L 136.879131 167.591918 
L 128.519856 175.572541 
L 122.809539 185.713099 
L 114.813978 193.886978 
L 111.966521 205.10435 
L 101.797822 213.450636 
L 95.354322 224.283521 
L 99.625813 236.846781 
L 103.294593 248.206936 
L 108.306602 258.575279 
L 106.042715 270.478966 
L 114.937926 278.808587 
L 115.846879 290.753477 
L 125.988739 297.008608 
L 130.753399 307.404042 
L 138.700048 315.276799 
L 148.431397 320.792585 
L 158.838828 324.65503 
L 168.285533 331.445277 
L 179.614751 332.430486 
L 190.672096 336.140412 
L 202.413972 338.267138 
L 214.304852 337.396707 
L 225.595345 333.570103 
L 237.040467 329.974983 
L 252.226682 331.187754 
L 263.7376 324.560033 
L 274.469711 316.4055 
L 280.327979 304.066869 
L 283.870752 291.139709 
L 296.407965 282.486298 
L 301.914661 269.894099 
L 304.999001 256.440029 
L 313.014759 242.64 
" clip-path="url(#p0e60fc3707)" style="fill: none; stroke-dasharray: 2,3.3; stroke-dashoffset: 0; stroke: #9467bd; stroke-width: 2"/>
   </g>
   <g id="patch_3">
    <path d="M 359.872813 242.64 
C 359.872813 220.799058 355.570623 199.170491 347.212456 178.992092 
C 338.85429 158.813692 326.602691 140.477879 311.158812 125.034 
C 295.714934 109.590122 277.379121 97.338523 257.200721 88.980356 
C 237.022321 80.622189 215.393755 76.32 193.552813 76.32 
C 171.71187 76.32 150.083304 80.622189 129.904904 88.980356 
C 109.726504 97.338523 91.390691 109.590122 75.946813 125.034 
C 60.502934 140.477879 48.251335 158.813692 39.893169 178.992092 
C 31.535002 199.170491 27.232813 220.799058 27.232813 242.64 
C 27.232813 264.480942 31.535002 286.109509 39.893169 306.287908 
C 48.251335 326.466308 60.502934 344.802121 75.946813 360.246 
C 91.390691 375.689878 109.726504 387.941477 129.904904 396.299644 
C 150.083304 404.657811 171.71187 408.96 193.552812 408.96 
C 215.393755 408.96 237.022321 404.657811 257.200721 396.299644 
C 277.379121 387.941477 295.714934 375.689878 311.158812 360.246 
C 326.602691 344.802121 338.85429 326.466308 347.212456 306.287908 
C 355.570623 286.109509 359.872813 264.480942 359.872813 242.64 
" style="fill: none; stroke: #000000; stroke-width: 0.8; stroke-linejoin: miter; stroke-linecap: square"/>
   </g>
   <g id="text_22">
    <!-- Totaal mannen en vrouwen, Totaal leeftijd, median -->
    <g transform="translate(67.261406 37.056) scale(0.1 -0.1)">
     <defs>
      <path id="DejaVuSans-54" d="M -19 4666 
L 3928 4666 
L 3928 4134 
L 2272 4134 
L 2272 0 
L 1638 0 
L 1638 4134 
L -19 4134 
L -19 4666 
z
" transform="scale(0.015625)"/>
      <path id="DejaVuSans-20" transform="scale(0.015625)"/>
      <path id="DejaVuSans-6d" d="M 3328 2828 
Q 3544 3216 3844 3400 
Q 4144 3584 4550 3584 
Q 5097 3584 5394 3201 
Q 5691 2819 5691 2113 
L 5691 0 
L 5113 0 
L 5113 2094 
Q 5113 2597 4934 2840 
Q 4756 3084 4391 3084 
Q 3944 3084 3684 2787 
Q 3425 2491 3425 1978 
L 3425 0 
L 2847 0 
L 2847 2094 
Q 2847 2600 2669 2842 
Q 2491 3084 2119 3084 
Q 1678 3084 1418 2786 
Q 1159 2488 1159 1978 
L 1159 0 
L 581 0 
L 581 3500 
L 1159 3500 
L 1159 2956 
Q 1356 3278 1631 3431 
Q 1906 3584 2284 3584 
Q 2666 3584 2933 3390 
Q 3200 3197 3328 2828 
z
" transform="scale(0.015625)"/>
      <path id="DejaVuSans-77" d="M 269 3500 
L 844 3500 
L 1563 769 
L 2278 3500 
L 2956 3500 
L 3675 769 
L 4391 3500 
L 4966 3500 
L 4050 0 
L 3372 0 
L 2619 2869 
L 1863 0 
L 1184 0 
L 269 3500 
z
" transform="scale(0.015625)"/>
      <path id="DejaVuSans-2c" d="M 750 794 
L 1409 794 
L 1409 256 
L 897 -744 
L 494 -744 
L 750 256 
L 750 794 
z
" transform="scale(0.015625)"/>
      <path id="DejaVuSans-66" d="M 2375 4863 
L 2375 4384 
L 1825 4384 
Q 1516 4384 1395 4259 
Q 1275 4134 1275 3809 
L 1275 3500 
L 2222 3500 
L 2222 3053 
L 1275 3053 
L 1275 0 
L 697 0 
L 697 3053 
L 147 3053 
L 147 3500 
L 697 3500 
L 697 3744 
Q 697 4328 969 4595 
Q 1241 4863 1831 4863 
L 2375 4863 
z
" transform="scale(0.015625)"/>
      <path id="DejaVuSans-69" d="M 603 3500 
L 1178 3500 
L 1178 0 
L 603 0 
L 603 3500 
z
M 603 4863 
L 1178 4863 
L 1178 4134 
L 603 4134 
L 603 4863 
z
" transform="scale(0.015625)"/>
      <path id="DejaVuSans-6a" d="M 603 3500 
L 1178 3500 
L 1178 -63 
Q 1178 -731 923 -1031 
Q 669 -1331 103 -1331 
L -116 -1331 
L -116 -844 
L 38 -844 
Q 366 -844 484 -692 
Q 603 -541 603 -63 
L 603 3500 
z
M 603 4863 
L 1178 4863 
L 1178 4134 
L 603 4134 
L 603 4863 
z
" transform="scale(0.015625)"/>
      <path id="DejaVuSans-64" d="M 2906 2969 
L 2906 4863 
L 3481 4863 
L 3481 0 
L 2906 0 
L 2906 525 
Q 2725 213 2448 61 
Q 2172 -91 1784 -91 
Q 1150 -91 751 415 
Q 353 922 353 1747 
Q 353 2572 751 3078 
Q 1150 3584 1784 3584 
Q 2172 3584 2448 3432 
Q 2725 3281 2906 2969 
z
M 947 1747 
Q 947 1113 1208 752 
Q 1469 391 1925 391 
Q 2381 391 2643 752 
Q 2906 1113 2906 1747 
Q 2906 2381 2643 2742 
Q 2381 3103 1925 3103 
Q 1469 3103 1208 2742 
Q 947 2381 947 1747 
z
" transform="scale(0.015625)"/>
     </defs>
     <use xlink:href="#DejaVuSans-54"/>
     <use xlink:href="#DejaVuSans-6f" x="44.083984"/>
     <use xlink:href="#DejaVuSans-74" x="105.265625"/>
     <use xlink:href="#DejaVuSans-61" x="144.474609"/>
     <use xlink:href="#DejaVuSans-61" x="205.753906"/>
     <use xlink:href="#DejaVuSans-6c" x="267.033203"/>
     <use xlink:href="#DejaVuSans-20" x="294.816406"/>
     <use xlink:href="#DejaVuSans-6d" x="326.603516"/>
     <use xlink:href="#DejaVuSans-61" x="424.015625"/>
     <use xlink:href="#DejaVuSans-6e" x="485.294922"/>
     <use xlink:href="#DejaVuSans-6e" x="548.673828"/>
     <use xlink:href="#DejaVuSans-65" x="612.052734"/>
     <use xlink:href="#DejaVuSans-6e" x="673.576172"/>
     <use xlink:href="#DejaVuSans-20" x="736.955078"/>
     <use xlink:href="#DejaVuSans-65" x="768.742188"/>
     <use xlink:href="#DejaVuSans-6e" x="830.265625"/>
     <use xlink:href="#DejaVuSans-20" x="893.644531"/>
     <use xlink:href="#DejaVuSans-76" x="925.431641"/>
     <use xlink:href="#DejaVuSans-72" x="984.611328"/>
     <use xlink:href="#DejaVuSans-6f" x="1023.474609"/>
     <use xlink:href="#DejaVuSans-75" x="1084.65625"/>
     <use xlink:href="#DejaVuSans-77" x="1148.035156"/>
     <use xlink:href="#DejaVuSans-65" x="1229.822266"/>
     <use xlink:href="#DejaVuSans-6e" x="1291.345703"/>
     <use xlink:href="#DejaVuSans-2c" x="1354.724609"/>
     <use xlink:href="#DejaVuSans-20" x="1386.511719"/>
     <use xlink:href="#DejaVuSans-54" x="1418.298828"/>
     <use xlink:href="#DejaVuSans-6f" x="1462.382812"/>
     <use xlink:href="#DejaVuSans-74" x="1523.564453"/>
     <use xlink:href="#DejaVuSans-61" x="1562.773438"/>
     <use xlink:href="#DejaVuSans-61" x="1624.052734"/>
     <use xlink:href="#DejaVuSans-6c" x="1685.332031"/>
     <use xlink:href="#DejaVuSans-20" x="1713.115234"/>
     <use xlink:href="#DejaVuSans-6c" x="1744.902344"/>
     <use xlink:href="#DejaVuSans-65" x="1772.685547"/>
     <use xlink:href="#DejaVuSans-65" x="1834.208984"/>
     <use xlink:href="#DejaVuSans-66" x="1895.732422"/>
     <use xlink:href="#DejaVuSans-74" x="1929.1875"/>
     <use xlink:href="#DejaVuSans-69" x="1968.396484"/>
     <use xlink:href="#DejaVuSans-6a" x="1996.179688"/>
     <use xlink:href="#DejaVuSans-64" x="2023.962891"/>
     <use xlink:href="#DejaVuSans-2c" x="2087.439453"/>
     <use xlink:href="#DejaVuSans-20" x="2119.226562"/>
     <use xlink:href="#DejaVuSans-6d" x="2151.013672"/>
     <use xlink:href="#DejaVuSans-65" x="2248.425781"/>
     <use xlink:href="#DejaVuSans-64" x="2309.949219"/>
     <use xlink:href="#DejaVuSans-69" x="2373.425781"/>
     <use xlink:href="#DejaVuSans-61" x="2401.208984"/>
     <use xlink:href="#DejaVuSans-6e" x="2462.488281"/>
    </g>
   </g>
   <g id="legend_1">
    <g id="patch_4">
     <path d="M 279.085312 403.96 
L 352.872813 403.96 
Q 354.872813 403.96 354.872813 401.96 
L 354.872813 300.213125 
Q 354.872813 298.213125 352.872813 298.213125 
L 279.085312 298.213125 
Q 277.085312 298.213125 277.085312 300.213125 
L 277.085312 401.96 
Q 277.085312 403.96 279.085312 403.96 
z
" style="fill: #ffffff; opacity: 0.8; stroke: #cccccc; stroke-linejoin: miter"/>
    </g>
    <g id="line2d_27">
     <path d="M 281.085312 306.311563 
L 291.085312 306.311563 
L 301.085312 306.311563 
" style="fill: none; stroke-dasharray: 5.55,2.4; stroke-dashoffset: 0; stroke: #1f77b4; stroke-width: 1.5"/>
    </g>
    <g id="text_23">
     <!-- Median -->
     <g transform="translate(309.085312 309.811563) scale(0.1 -0.1)">
      <use xlink:href="#DejaVuSans-4d"/>
      <use xlink:href="#DejaVuSans-65" x="86.279297"/>
      <use xlink:href="#DejaVuSans-64" x="147.802734"/>
      <use xlink:href="#DejaVuSans-69" x="211.279297"/>
      <use xlink:href="#DejaVuSans-61" x="239.0625"/>
      <use xlink:href="#DejaVuSans-6e" x="300.341797"/>
     </g>
    </g>
    <g id="patch_5">
     <path d="M 281.085312 324.489688 
L 301.085312 324.489688 
L 301.085312 317.489688 
L 281.085312 317.489688 
z
" style="fill: #1f77b4; fill-opacity: 0.3; stroke: #1f77b4; stroke-opacity: 0.3; stroke-linejoin: miter"/>
    </g>
    <g id="text_24">
     <!-- SD -->
     <g transform="translate(309.085312 324.489688) scale(0.1 -0.1)">
      <use xlink:href="#DejaVuSans-53"/>
      <use xlink:href="#DejaVuSans-44" x="63.476562"/>
     </g>
    </g>
    <g id="patch_6">
     <path d="M 281.085312 339.167813 
L 301.085312 339.167813 
L 301.085312 332.167813 
L 281.085312 332.167813 
z
" style="fill: #1f77b4; fill-opacity: 0.2"/>
    </g>
    <g id="text_25">
     <!-- Min/Max -->
     <g transform="translate(309.085312 339.167813) scale(0.1 -0.1)">
      <defs>
       <path id="DejaVuSans-2f" d="M 1625 4666 
L 2156 4666 
L 531 -594 
L 0 -594 
L 1625 4666 
z
" transform="scale(0.015625)"/>
       <path id="DejaVuSans-78" d="M 3513 3500 
L 2247 1797 
L 3578 0 
L 2900 0 
L 1881 1375 
L 863 0 
L 184 0 
L 1544 1831 
L 300 3500 
L 978 3500 
L 1906 2253 
L 2834 3500 
L 3513 3500 
z
" transform="scale(0.015625)"/>
      </defs>
      <use xlink:href="#DejaVuSans-4d"/>
      <use xlink:href="#DejaVuSans-69" x="86.279297"/>
      <use xlink:href="#DejaVuSans-6e" x="114.0625"/>
      <use xlink:href="#DejaVuSans-2f" x="177.441406"/>
      <use xlink:href="#DejaVuSans-4d" x="211.132812"/>
      <use xlink:href="#DejaVuSans-61" x="297.412109"/>
      <use xlink:href="#DejaVuSans-78" x="358.691406"/>
     </g>
    </g>
    <g id="line2d_28">
     <path d="M 281.085312 350.345937 
L 291.085312 350.345937 
L 301.085312 350.345937 
" style="fill: none; stroke-dasharray: 0.5,0.825; stroke-dashoffset: 0; stroke: #ff7f0e; stroke-width: 0.5"/>
    </g>
    <g id="text_26">
     <!-- 2020 -->
     <g transform="translate(309.085312 353.845937) scale(0.1 -0.1)">
      <use xlink:href="#DejaVuSans-32"/>
      <use xlink:href="#DejaVuSans-30" x="63.623047"/>
      <use xlink:href="#DejaVuSans-32" x="127.246094"/>
      <use xlink:href="#DejaVuSans-30" x="190.869141"/>
     </g>
    </g>
    <g id="line2d_29">
     <path d="M 281.085312 365.024063 
L 291.085312 365.024063 
L 301.085312 365.024063 
" style="fill: none; stroke-dasharray: 0.5,0.825; stroke-dashoffset: 0; stroke: #2ca02c; stroke-width: 0.5"/>
    </g>
    <g id="text_27">
     <!-- 2021 -->
     <g transform="translate(309.085312 368.524063) scale(0.1 -0.1)">
      <use xlink:href="#DejaVuSans-32"/>
      <use xlink:href="#DejaVuSans-30" x="63.623047"/>
      <use xlink:href="#DejaVuSans-32" x="127.246094"/>
      <use xlink:href="#DejaVuSans-31" x="190.869141"/>
     </g>
    </g>
    <g id="line2d_30">
     <path d="M 281.085312 379.702188 
L 291.085312 379.702188 
L 301.085312 379.702188 
" style="fill: none; stroke-dasharray: 1,1.65; stroke-dashoffset: 0; stroke: #d62728"/>
    </g>
    <g id="text_28">
     <!-- 2022 -->
     <g transform="translate(309.085312 383.202188) scale(0.1 -0.1)">
      <use xlink:href="#DejaVuSans-32"/>
      <use xlink:href="#DejaVuSans-30" x="63.623047"/>
      <use xlink:href="#DejaVuSans-32" x="127.246094"/>
      <use xlink:href="#DejaVuSans-32" x="190.869141"/>
     </g>
    </g>
    <g id="line2d_31">
     <path d="M 281.085312 394.380313 
L 291.085312 394.380313 
L 301.085312 394.380313 
" style="fill: none; stroke-dasharray: 2,3.3; stroke-dashoffset: 0; stroke: #9467bd; stroke-width: 2"/>
    </g>
    <g id="text_29">
     <!-- 2023 -->
     <g transform="translate(309.085312 397.880313) scale(0.1 -0.1)">
      <use xlink:href="#DejaVuSans-32"/>
      <use xlink:href="#DejaVuSans-30" x="63.623047"/>
      <use xlink:href="#DejaVuSans-32" x="127.246094"/>
      <use xlink:href="#DejaVuSans-33" x="190.869141"/>
     </g>
    </g>
   </g>
  </g>
  <g id="text_30">
   <!-- Deaths per week in the Netherlands (since 2010) -->
   <g transform="translate(13.945 17.837812) scale(0.14 -0.14)">
    <defs>
     <path id="DejaVuSans-68" d="M 3513 2113 
L 3513 0 
L 2938 0 
L 2938 2094 
Q 2938 2591 2744 2837 
Q 2550 3084 2163 3084 
Q 1697 3084 1428 2787 
Q 1159 2491 1159 1978 
L 1159 0 
L 581 0 
L 581 4863 
L 1159 4863 
L 1159 2956 
Q 1366 3272 1645 3428 
Q 1925 3584 2291 3584 
Q 2894 3584 3203 3211 
Q 3513 2838 3513 2113 
z
" transform="scale(0.015625)"/>
     <path id="DejaVuSans-73" d="M 2834 3397 
L 2834 2853 
Q 2591 2978 2328 3040 
Q 2066 3103 1784 3103 
Q 1356 3103 1142 2972 
Q 928 2841 928 2578 
Q 928 2378 1081 2264 
Q 1234 2150 1697 2047 
L 1894 2003 
Q 2506 1872 2764 1633 
Q 3022 1394 3022 966 
Q 3022 478 2636 193 
Q 2250 -91 1575 -91 
Q 1294 -91 989 -36 
Q 684 19 347 128 
L 347 722 
Q 666 556 975 473 
Q 1284 391 1588 391 
Q 1994 391 2212 530 
Q 2431 669 2431 922 
Q 2431 1156 2273 1281 
Q 2116 1406 1581 1522 
L 1381 1569 
Q 847 1681 609 1914 
Q 372 2147 372 2553 
Q 372 3047 722 3315 
Q 1072 3584 1716 3584 
Q 2034 3584 2315 3537 
Q 2597 3491 2834 3397 
z
" transform="scale(0.015625)"/>
     <path id="DejaVuSans-6b" d="M 581 4863 
L 1159 4863 
L 1159 1991 
L 2875 3500 
L 3609 3500 
L 1753 1863 
L 3688 0 
L 2938 0 
L 1159 1709 
L 1159 0 
L 581 0 
L 581 4863 
z
" transform="scale(0.015625)"/>
     <path id="DejaVuSans-28" d="M 1984 4856 
Q 1566 4138 1362 3434 
Q 1159 2731 1159 2009 
Q 1159 1288 1364 580 
Q 1569 -128 1984 -844 
L 1484 -844 
Q 1016 -109 783 600 
Q 550 1309 550 2009 
Q 550 2706 781 3412 
Q 1013 4119 1484 4856 
L 1984 4856 
z
" transform="scale(0.015625)"/>
     <path id="DejaVuSans-29" d="M 513 4856 
L 1013 4856 
Q 1481 4119 1714 3412 
Q 1947 2706 1947 2009 
Q 1947 1309 1714 600 
Q 1481 -109 1013 -844 
L 513 -844 
Q 928 -128 1133 580 
Q 1338 1288 1338 2009 
Q 1338 2731 1133 3434 
Q 928 4138 513 4856 
z
" transform="scale(0.015625)"/>
    </defs>
    <use xlink:href="#DejaVuSans-44"/>
    <use xlink:href="#DejaVuSans-65" x="77.001953"/>
    <use xlink:href="#DejaVuSans-61" x="138.525391"/>
    <use xlink:href="#DejaVuSans-74" x="199.804688"/>
    <use xlink:href="#DejaVuSans-68" x="239.013672"/>
    <use xlink:href="#DejaVuSans-73" x="302.392578"/>
    <use xlink:href="#DejaVuSans-20" x="354.492188"/>
    <use xlink:href="#DejaVuSans-70" x="386.279297"/>
    <use xlink:href="#DejaVuSans-65" x="449.755859"/>
    <use xlink:href="#DejaVuSans-72" x="511.279297"/>
    <use xlink:href="#DejaVuSans-20" x="552.392578"/>
    <use xlink:href="#DejaVuSans-77" x="584.179688"/>
    <use xlink:href="#DejaVuSans-65" x="665.966797"/>
    <use xlink:href="#DejaVuSans-65" x="727.490234"/>
    <use xlink:href="#DejaVuSans-6b" x="789.013672"/>
    <use xlink:href="#DejaVuSans-20" x="846.923828"/>
    <use xlink:href="#DejaVuSans-69" x="878.710938"/>
    <use xlink:href="#DejaVuSans-6e" x="906.494141"/>
    <use xlink:href="#DejaVuSans-20" x="969.873047"/>
    <use xlink:href="#DejaVuSans-74" x="1001.660156"/>
    <use xlink:href="#DejaVuSans-68" x="1040.869141"/>
    <use xlink:href="#DejaVuSans-65" x="1104.248047"/>
    <use xlink:href="#DejaVuSans-20" x="1165.771484"/>
    <use xlink:href="#DejaVuSans-4e" x="1197.558594"/>
    <use xlink:href="#DejaVuSans-65" x="1272.363281"/>
    <use xlink:href="#DejaVuSans-74" x="1333.886719"/>
    <use xlink:href="#DejaVuSans-68" x="1373.095703"/>
    <use xlink:href="#DejaVuSans-65" x="1436.474609"/>
    <use xlink:href="#DejaVuSans-72" x="1497.998047"/>
    <use xlink:href="#DejaVuSans-6c" x="1539.111328"/>
    <use xlink:href="#DejaVuSans-61" x="1566.894531"/>
    <use xlink:href="#DejaVuSans-6e" x="1628.173828"/>
    <use xlink:href="#DejaVuSans-64" x="1691.552734"/>
    <use xlink:href="#DejaVuSans-73" x="1755.029297"/>
    <use xlink:href="#DejaVuSans-20" x="1807.128906"/>
    <use xlink:href="#DejaVuSans-28" x="1838.916016"/>
    <use xlink:href="#DejaVuSans-73" x="1877.929688"/>
    <use xlink:href="#DejaVuSans-69" x="1930.029297"/>
    <use xlink:href="#DejaVuSans-6e" x="1957.8125"/>
    <use xlink:href="#DejaVuSans-63" x="2021.191406"/>
    <use xlink:href="#DejaVuSans-65" x="2076.171875"/>
    <use xlink:href="#DejaVuSans-20" x="2137.695312"/>
    <use xlink:href="#DejaVuSans-32" x="2169.482422"/>
    <use xlink:href="#DejaVuSans-30" x="2233.105469"/>
    <use xlink:href="#DejaVuSans-31" x="2296.728516"/>
    <use xlink:href="#DejaVuSans-30" x="2360.351562"/>
    <use xlink:href="#DejaVuSans-29" x="2423.974609"/>
   </g>
  </g>
 </g>
 <defs>
  <clipPath id="p0e60fc3707">
   <path d="M 359.872813 242.64 
C 359.872813 220.799058 355.570623 199.170491 347.212456 178.992092 
C 338.85429 158.813692 326.602691 140.477879 311.158812 125.034 
C 295.714934 109.590122 277.379121 97.338523 257.200721 88.980356 
C 237.022321 80.622189 215.393755 76.32 193.552813 76.32 
C 171.71187 76.32 150.083304 80.622189 129.904904 88.980356 
C 109.726504 97.338523 91.390691 109.590122 75.946813 125.034 
C 60.502934 140.477879 48.251335 158.813692 39.893169 178.992092 
C 31.535002 199.170491 27.232813 220.799058 27.232813 242.64 
C 27.232813 264.480942 31.535002 286.109509 39.893169 306.287908 
C 48.251335 326.466308 60.502934 344.802121 75.946813 360.246 
C 91.390691 375.689878 109.726504 387.941477 129.904904 396.299644 
C 150.083304 404.657811 171.71187 408.96 193.552812 408.96 
C 215.393755 408.96 237.022321 404.657811 257.200721 396.299644 
C 277.379121 387.941477 295.714934 375.689878 311.158812 360.246 
C 326.602691 344.802121 338.85429 326.466308 347.212456 306.287908 
C 355.570623 286.109509 359.872813 264.480942 359.872813 242.64 
M 193.552813 242.64 
C 193.552813 242.64 193.552813 242.64 193.552813 242.64 
C 193.552813 242.64 193.552813 242.64 193.552813 242.64 
C 193.552813 242.64 193.552813 242.64 193.552813 242.64 
C 193.552813 242.64 193.552813 242.64 193.552813 242.64 
C 193.552813 242.64 193.552813 242.64 193.552813 242.64 
C 193.552813 242.64 193.552813 242.64 193.552813 242.64 
C 193.552813 242.64 193.552813 242.64 193.552813 242.64 
C 193.552813 242.64 193.552813 242.64 193.552813 242.64 
C 193.552813 242.64 193.552813 242.64 193.552813 242.64 
C 193.552813 242.64 193.552813 242.64 193.552813 242.64 
C 193.552813 242.64 193.552813 242.64 193.552813 242.64 
C 193.552813 242.64 193.552813 242.64 193.552813 242.64 
C 193.552813 242.64 193.552813 242.64 193.552813 242.64 
C 193.552813 242.64 193.552813 242.64 193.552813 242.64 
C 193.552813 242.64 193.552813 242.64 193.552813 242.64 
C 193.552813 242.64 193.552813 242.64 193.552813 242.64 
z
"/>
  </clipPath>
 </defs>
</svg>
