<?xml version="1.0" encoding="utf-8" standalone="no"?>
<!DOCTYPE svg PUBLIC "-//W3C//DTD SVG 1.1//EN"
  "http://www.w3.org/Graphics/SVG/1.1/DTD/svg11.dtd">
<svg xmlns:xlink="http://www.w3.org/1999/xlink" width="415.229312pt" height="446.872pt" viewBox="0 0 415.229312 446.872" xmlns="http://www.w3.org/2000/svg" version="1.1">
 <metadata>
  <rdf:RDF xmlns:dc="http://purl.org/dc/elements/1.1/" xmlns:cc="http://creativecommons.org/ns#" xmlns:rdf="http://www.w3.org/1999/02/22-rdf-syntax-ns#">
   <cc:Work>
    <dc:type rdf:resource="http://purl.org/dc/dcmitype/StillImage"/>
    <dc:date>2022-03-08T02:37:58.484044</dc:date>
    <dc:format>image/svg+xml</dc:format>
    <dc:creator>
     <cc:Agent>
      <dc:title>Matplotlib v3.5.1, https://matplotlib.org/</dc:title>
     </cc:Agent>
    </dc:creator>
   </cc:Work>
  </rdf:RDF>
 </metadata>
 <defs>
  <style type="text/css">*{stroke-linejoin: round; stroke-linecap: butt}</style>
 </defs>
 <g id="figure_1">
  <g id="patch_1">
   <path d="M 0 446.872 
L 415.229312 446.872 
L 415.229312 0 
L 0 0 
z
" style="fill: #ffffff"/>
  </g>
  <g id="axes_1">
   <g id="patch_2">
    <path d="M 364.645312 246.024 
C 364.645312 224.041233 360.315187 202.272222 351.902746 181.962793 
C 343.490306 161.653365 331.159151 143.198488 315.614988 127.654325 
C 300.070824 112.110162 281.615947 99.779007 261.306519 91.366566 
C 240.997091 82.954126 219.228079 78.624 197.245313 78.624 
C 175.262546 78.624 153.493534 82.954126 133.184106 91.366566 
C 112.874678 99.779007 94.419801 112.110162 78.875637 127.654325 
C 63.331474 143.198488 51.000319 161.653365 42.587879 181.962793 
C 34.175438 202.272222 29.845312 224.041233 29.845312 246.024 
C 29.845312 268.006767 34.175438 289.775778 42.587879 310.085207 
C 51.000319 330.394635 63.331474 348.849512 78.875637 364.393675 
C 94.419801 379.937838 112.874678 392.268993 133.184106 400.681434 
C 153.493534 409.093874 175.262546 413.424 197.245312 413.424 
C 219.228079 413.424 240.997091 409.093874 261.306519 400.681434 
C 281.615947 392.268993 300.070824 379.937838 315.614988 364.393675 
C 331.159151 348.849512 343.490306 330.394635 351.902746 310.085207 
C 360.315187 289.775778 364.645312 268.006767 364.645312 246.024 
M 197.245312 246.024 
C 197.245312 246.024 197.245312 246.024 197.245312 246.024 
C 197.245312 246.024 197.245312 246.024 197.245312 246.024 
C 197.245312 246.024 197.245312 246.024 197.245312 246.024 
C 197.245312 246.024 197.245312 246.024 197.245312 246.024 
C 197.245312 246.024 197.245312 246.024 197.245312 246.024 
C 197.245312 246.024 197.245312 246.024 197.245312 246.024 
C 197.245312 246.024 197.245312 246.024 197.245312 246.024 
C 197.245312 246.024 197.245312 246.024 197.245312 246.024 
C 197.245312 246.024 197.245312 246.024 197.245312 246.024 
C 197.245312 246.024 197.245312 246.024 197.245312 246.024 
C 197.245312 246.024 197.245312 246.024 197.245312 246.024 
C 197.245312 246.024 197.245312 246.024 197.245312 246.024 
C 197.245312 246.024 197.245312 246.024 197.245312 246.024 
C 197.245312 246.024 197.245312 246.024 197.245312 246.024 
C 197.245312 246.024 197.245312 246.024 197.245312 246.024 
C 197.245312 246.024 197.245312 246.024 197.245312 246.024 
M 364.645312 246.024 
z
" style="fill: #ffffff"/>
   </g>
   <g id="matplotlib.axis_1">
    <g id="xtick_1">
     <g id="line2d_1">
      <path d="M 197.245312 246.024 
L 197.245312 78.624 
" clip-path="url(#p991823c459)" style="fill: none; stroke: #b0b0b0; stroke-width: 0.8; stroke-linecap: square"/>
     </g>
     <g id="text_1">
      <!-- Jan -->
      <g transform="translate(189.5375 67.383375)scale(0.1 -0.1)">
       <defs>
        <path id="DejaVuSans-4a" d="M 628 4666 
L 1259 4666 
L 1259 325 
Q 1259 -519 939 -900 
Q 619 -1281 -91 -1281 
L -331 -1281 
L -331 -750 
L -134 -750 
Q 284 -750 456 -515 
Q 628 -281 628 325 
L 628 4666 
z
" transform="scale(0.015625)"/>
        <path id="DejaVuSans-61" d="M 2194 1759 
Q 1497 1759 1228 1600 
Q 959 1441 959 1056 
Q 959 750 1161 570 
Q 1363 391 1709 391 
Q 2188 391 2477 730 
Q 2766 1069 2766 1631 
L 2766 1759 
L 2194 1759 
z
M 3341 1997 
L 3341 0 
L 2766 0 
L 2766 531 
Q 2569 213 2275 61 
Q 1981 -91 1556 -91 
Q 1019 -91 701 211 
Q 384 513 384 1019 
Q 384 1609 779 1909 
Q 1175 2209 1959 2209 
L 2766 2209 
L 2766 2266 
Q 2766 2663 2505 2880 
Q 2244 3097 1772 3097 
Q 1472 3097 1187 3025 
Q 903 2953 641 2809 
L 641 3341 
Q 956 3463 1253 3523 
Q 1550 3584 1831 3584 
Q 2591 3584 2966 3190 
Q 3341 2797 3341 1997 
z
" transform="scale(0.015625)"/>
        <path id="DejaVuSans-6e" d="M 3513 2113 
L 3513 0 
L 2938 0 
L 2938 2094 
Q 2938 2591 2744 2837 
Q 2550 3084 2163 3084 
Q 1697 3084 1428 2787 
Q 1159 2491 1159 1978 
L 1159 0 
L 581 0 
L 581 3500 
L 1159 3500 
L 1159 2956 
Q 1366 3272 1645 3428 
Q 1925 3584 2291 3584 
Q 2894 3584 3203 3211 
Q 3513 2838 3513 2113 
z
" transform="scale(0.015625)"/>
       </defs>
       <use xlink:href="#DejaVuSans-4a"/>
       <use xlink:href="#DejaVuSans-61" x="29.492188"/>
       <use xlink:href="#DejaVuSans-6e" x="90.771484"/>
      </g>
     </g>
    </g>
    <g id="xtick_2">
     <g id="line2d_2">
      <path d="M 197.245312 246.024 
L 280.945312 101.051347 
" clip-path="url(#p991823c459)" style="fill: none; stroke: #b0b0b0; stroke-width: 0.8; stroke-linecap: square"/>
     </g>
     <g id="text_2">
      <!-- Feb -->
      <g transform="translate(279.09375 91.686367)scale(0.1 -0.1)">
       <defs>
        <path id="DejaVuSans-46" d="M 628 4666 
L 3309 4666 
L 3309 4134 
L 1259 4134 
L 1259 2759 
L 3109 2759 
L 3109 2228 
L 1259 2228 
L 1259 0 
L 628 0 
L 628 4666 
z
" transform="scale(0.015625)"/>
        <path id="DejaVuSans-65" d="M 3597 1894 
L 3597 1613 
L 953 1613 
Q 991 1019 1311 708 
Q 1631 397 2203 397 
Q 2534 397 2845 478 
Q 3156 559 3463 722 
L 3463 178 
Q 3153 47 2828 -22 
Q 2503 -91 2169 -91 
Q 1331 -91 842 396 
Q 353 884 353 1716 
Q 353 2575 817 3079 
Q 1281 3584 2069 3584 
Q 2775 3584 3186 3129 
Q 3597 2675 3597 1894 
z
M 3022 2063 
Q 3016 2534 2758 2815 
Q 2500 3097 2075 3097 
Q 1594 3097 1305 2825 
Q 1016 2553 972 2059 
L 3022 2063 
z
" transform="scale(0.015625)"/>
        <path id="DejaVuSans-62" d="M 3116 1747 
Q 3116 2381 2855 2742 
Q 2594 3103 2138 3103 
Q 1681 3103 1420 2742 
Q 1159 2381 1159 1747 
Q 1159 1113 1420 752 
Q 1681 391 2138 391 
Q 2594 391 2855 752 
Q 3116 1113 3116 1747 
z
M 1159 2969 
Q 1341 3281 1617 3432 
Q 1894 3584 2278 3584 
Q 2916 3584 3314 3078 
Q 3713 2572 3713 1747 
Q 3713 922 3314 415 
Q 2916 -91 2278 -91 
Q 1894 -91 1617 61 
Q 1341 213 1159 525 
L 1159 0 
L 581 0 
L 581 4863 
L 1159 4863 
L 1159 2969 
z
" transform="scale(0.015625)"/>
       </defs>
       <use xlink:href="#DejaVuSans-46"/>
       <use xlink:href="#DejaVuSans-65" x="52.019531"/>
       <use xlink:href="#DejaVuSans-62" x="113.542969"/>
      </g>
     </g>
    </g>
    <g id="xtick_3">
     <g id="line2d_3">
      <path d="M 197.245312 246.024 
L 342.217965 162.324 
" clip-path="url(#p991823c459)" style="fill: none; stroke: #b0b0b0; stroke-width: 0.8; stroke-linecap: square"/>
     </g>
     <g id="text_3">
      <!-- Mar -->
      <g transform="translate(344.908727 158.083375)scale(0.1 -0.1)">
       <defs>
        <path id="DejaVuSans-4d" d="M 628 4666 
L 1569 4666 
L 2759 1491 
L 3956 4666 
L 4897 4666 
L 4897 0 
L 4281 0 
L 4281 4097 
L 3078 897 
L 2444 897 
L 1241 4097 
L 1241 0 
L 628 0 
L 628 4666 
z
" transform="scale(0.015625)"/>
        <path id="DejaVuSans-72" d="M 2631 2963 
Q 2534 3019 2420 3045 
Q 2306 3072 2169 3072 
Q 1681 3072 1420 2755 
Q 1159 2438 1159 1844 
L 1159 0 
L 581 0 
L 581 3500 
L 1159 3500 
L 1159 2956 
Q 1341 3275 1631 3429 
Q 1922 3584 2338 3584 
Q 2397 3584 2469 3576 
Q 2541 3569 2628 3553 
L 2631 2963 
z
" transform="scale(0.015625)"/>
       </defs>
       <use xlink:href="#DejaVuSans-4d"/>
       <use xlink:href="#DejaVuSans-61" x="86.279297"/>
       <use xlink:href="#DejaVuSans-72" x="147.558594"/>
      </g>
     </g>
    </g>
    <g id="xtick_4">
     <g id="line2d_4">
      <path d="M 197.245312 246.024 
L 364.645312 246.024 
" clip-path="url(#p991823c459)" style="fill: none; stroke: #b0b0b0; stroke-width: 0.8; stroke-linecap: square"/>
     </g>
     <g id="text_4">
      <!-- Apr -->
      <g transform="translate(369.995313 248.783375)scale(0.1 -0.1)">
       <defs>
        <path id="DejaVuSans-41" d="M 2188 4044 
L 1331 1722 
L 3047 1722 
L 2188 4044 
z
M 1831 4666 
L 2547 4666 
L 4325 0 
L 3669 0 
L 3244 1197 
L 1141 1197 
L 716 0 
L 50 0 
L 1831 4666 
z
" transform="scale(0.015625)"/>
        <path id="DejaVuSans-70" d="M 1159 525 
L 1159 -1331 
L 581 -1331 
L 581 3500 
L 1159 3500 
L 1159 2969 
Q 1341 3281 1617 3432 
Q 1894 3584 2278 3584 
Q 2916 3584 3314 3078 
Q 3713 2572 3713 1747 
Q 3713 922 3314 415 
Q 2916 -91 2278 -91 
Q 1894 -91 1617 61 
Q 1341 213 1159 525 
z
M 3116 1747 
Q 3116 2381 2855 2742 
Q 2594 3103 2138 3103 
Q 1681 3103 1420 2742 
Q 1159 2381 1159 1747 
Q 1159 1113 1420 752 
Q 1681 391 2138 391 
Q 2594 391 2855 752 
Q 3116 1113 3116 1747 
z
" transform="scale(0.015625)"/>
       </defs>
       <use xlink:href="#DejaVuSans-41"/>
       <use xlink:href="#DejaVuSans-70" x="68.408203"/>
       <use xlink:href="#DejaVuSans-72" x="131.884766"/>
      </g>
     </g>
    </g>
    <g id="xtick_5">
     <g id="line2d_5">
      <path d="M 197.245312 246.024 
L 342.217965 329.724 
" clip-path="url(#p991823c459)" style="fill: none; stroke: #b0b0b0; stroke-width: 0.8; stroke-linecap: square"/>
     </g>
     <g id="text_5">
      <!-- May -->
      <g transform="translate(344.004821 339.483375)scale(0.1 -0.1)">
       <defs>
        <path id="DejaVuSans-79" d="M 2059 -325 
Q 1816 -950 1584 -1140 
Q 1353 -1331 966 -1331 
L 506 -1331 
L 506 -850 
L 844 -850 
Q 1081 -850 1212 -737 
Q 1344 -625 1503 -206 
L 1606 56 
L 191 3500 
L 800 3500 
L 1894 763 
L 2988 3500 
L 3597 3500 
L 2059 -325 
z
" transform="scale(0.015625)"/>
       </defs>
       <use xlink:href="#DejaVuSans-4d"/>
       <use xlink:href="#DejaVuSans-61" x="86.279297"/>
       <use xlink:href="#DejaVuSans-79" x="147.558594"/>
      </g>
     </g>
    </g>
    <g id="xtick_6">
     <g id="line2d_6">
      <path d="M 197.245312 246.024 
L 280.945313 390.996653 
" clip-path="url(#p991823c459)" style="fill: none; stroke: #b0b0b0; stroke-width: 0.8; stroke-linecap: square"/>
     </g>
     <g id="text_6">
      <!-- Jun -->
      <g transform="translate(280.132813 405.880383)scale(0.1 -0.1)">
       <defs>
        <path id="DejaVuSans-75" d="M 544 1381 
L 544 3500 
L 1119 3500 
L 1119 1403 
Q 1119 906 1312 657 
Q 1506 409 1894 409 
Q 2359 409 2629 706 
Q 2900 1003 2900 1516 
L 2900 3500 
L 3475 3500 
L 3475 0 
L 2900 0 
L 2900 538 
Q 2691 219 2414 64 
Q 2138 -91 1772 -91 
Q 1169 -91 856 284 
Q 544 659 544 1381 
z
M 1991 3584 
L 1991 3584 
z
" transform="scale(0.015625)"/>
       </defs>
       <use xlink:href="#DejaVuSans-4a"/>
       <use xlink:href="#DejaVuSans-75" x="29.492188"/>
       <use xlink:href="#DejaVuSans-6e" x="92.871094"/>
      </g>
     </g>
    </g>
    <g id="xtick_7">
     <g id="line2d_7">
      <path d="M 197.245312 246.024 
L 197.245312 413.424 
" clip-path="url(#p991823c459)" style="fill: none; stroke: #b0b0b0; stroke-width: 0.8; stroke-linecap: square"/>
     </g>
     <g id="text_7">
      <!-- Jul -->
      <g transform="translate(191.2125 430.183375)scale(0.1 -0.1)">
       <defs>
        <path id="DejaVuSans-6c" d="M 603 4863 
L 1178 4863 
L 1178 0 
L 603 0 
L 603 4863 
z
" transform="scale(0.015625)"/>
       </defs>
       <use xlink:href="#DejaVuSans-4a"/>
       <use xlink:href="#DejaVuSans-75" x="29.492188"/>
       <use xlink:href="#DejaVuSans-6c" x="92.871094"/>
      </g>
     </g>
    </g>
    <g id="xtick_8">
     <g id="line2d_8">
      <path d="M 197.245312 246.024 
L 113.545313 390.996653 
" clip-path="url(#p991823c459)" style="fill: none; stroke: #b0b0b0; stroke-width: 0.8; stroke-linecap: square"/>
     </g>
     <g id="text_8">
      <!-- Aug -->
      <g transform="translate(96.782031 405.880383)scale(0.1 -0.1)">
       <defs>
        <path id="DejaVuSans-67" d="M 2906 1791 
Q 2906 2416 2648 2759 
Q 2391 3103 1925 3103 
Q 1463 3103 1205 2759 
Q 947 2416 947 1791 
Q 947 1169 1205 825 
Q 1463 481 1925 481 
Q 2391 481 2648 825 
Q 2906 1169 2906 1791 
z
M 3481 434 
Q 3481 -459 3084 -895 
Q 2688 -1331 1869 -1331 
Q 1566 -1331 1297 -1286 
Q 1028 -1241 775 -1147 
L 775 -588 
Q 1028 -725 1275 -790 
Q 1522 -856 1778 -856 
Q 2344 -856 2625 -561 
Q 2906 -266 2906 331 
L 2906 616 
Q 2728 306 2450 153 
Q 2172 0 1784 0 
Q 1141 0 747 490 
Q 353 981 353 1791 
Q 353 2603 747 3093 
Q 1141 3584 1784 3584 
Q 2172 3584 2450 3431 
Q 2728 3278 2906 2969 
L 2906 3500 
L 3481 3500 
L 3481 434 
z
" transform="scale(0.015625)"/>
       </defs>
       <use xlink:href="#DejaVuSans-41"/>
       <use xlink:href="#DejaVuSans-75" x="68.408203"/>
       <use xlink:href="#DejaVuSans-67" x="131.787109"/>
      </g>
     </g>
    </g>
    <g id="xtick_9">
     <g id="line2d_9">
      <path d="M 197.245312 246.024 
L 52.27266 329.724 
" clip-path="url(#p991823c459)" style="fill: none; stroke: #b0b0b0; stroke-width: 0.8; stroke-linecap: square"/>
     </g>
     <g id="text_9">
      <!-- Sep -->
      <g transform="translate(30.723304 339.483375)scale(0.1 -0.1)">
       <defs>
        <path id="DejaVuSans-53" d="M 3425 4513 
L 3425 3897 
Q 3066 4069 2747 4153 
Q 2428 4238 2131 4238 
Q 1616 4238 1336 4038 
Q 1056 3838 1056 3469 
Q 1056 3159 1242 3001 
Q 1428 2844 1947 2747 
L 2328 2669 
Q 3034 2534 3370 2195 
Q 3706 1856 3706 1288 
Q 3706 609 3251 259 
Q 2797 -91 1919 -91 
Q 1588 -91 1214 -16 
Q 841 59 441 206 
L 441 856 
Q 825 641 1194 531 
Q 1563 422 1919 422 
Q 2459 422 2753 634 
Q 3047 847 3047 1241 
Q 3047 1584 2836 1778 
Q 2625 1972 2144 2069 
L 1759 2144 
Q 1053 2284 737 2584 
Q 422 2884 422 3419 
Q 422 4038 858 4394 
Q 1294 4750 2059 4750 
Q 2388 4750 2728 4690 
Q 3069 4631 3425 4513 
z
" transform="scale(0.015625)"/>
       </defs>
       <use xlink:href="#DejaVuSans-53"/>
       <use xlink:href="#DejaVuSans-65" x="63.476562"/>
       <use xlink:href="#DejaVuSans-70" x="125"/>
      </g>
     </g>
    </g>
    <g id="xtick_10">
     <g id="line2d_10">
      <path d="M 197.245312 246.024 
L 29.845312 246.024 
" clip-path="url(#p991823c459)" style="fill: none; stroke: #b0b0b0; stroke-width: 0.8; stroke-linecap: square"/>
     </g>
     <g id="text_10">
      <!-- Oct -->
      <g transform="translate(7.2 248.783375)scale(0.1 -0.1)">
       <defs>
        <path id="DejaVuSans-4f" d="M 2522 4238 
Q 1834 4238 1429 3725 
Q 1025 3213 1025 2328 
Q 1025 1447 1429 934 
Q 1834 422 2522 422 
Q 3209 422 3611 934 
Q 4013 1447 4013 2328 
Q 4013 3213 3611 3725 
Q 3209 4238 2522 4238 
z
M 2522 4750 
Q 3503 4750 4090 4092 
Q 4678 3434 4678 2328 
Q 4678 1225 4090 567 
Q 3503 -91 2522 -91 
Q 1538 -91 948 565 
Q 359 1222 359 2328 
Q 359 3434 948 4092 
Q 1538 4750 2522 4750 
z
" transform="scale(0.015625)"/>
        <path id="DejaVuSans-63" d="M 3122 3366 
L 3122 2828 
Q 2878 2963 2633 3030 
Q 2388 3097 2138 3097 
Q 1578 3097 1268 2742 
Q 959 2388 959 1747 
Q 959 1106 1268 751 
Q 1578 397 2138 397 
Q 2388 397 2633 464 
Q 2878 531 3122 666 
L 3122 134 
Q 2881 22 2623 -34 
Q 2366 -91 2075 -91 
Q 1284 -91 818 406 
Q 353 903 353 1747 
Q 353 2603 823 3093 
Q 1294 3584 2113 3584 
Q 2378 3584 2631 3529 
Q 2884 3475 3122 3366 
z
" transform="scale(0.015625)"/>
        <path id="DejaVuSans-74" d="M 1172 4494 
L 1172 3500 
L 2356 3500 
L 2356 3053 
L 1172 3053 
L 1172 1153 
Q 1172 725 1289 603 
Q 1406 481 1766 481 
L 2356 481 
L 2356 0 
L 1766 0 
Q 1100 0 847 248 
Q 594 497 594 1153 
L 594 3053 
L 172 3053 
L 172 3500 
L 594 3500 
L 594 4494 
L 1172 4494 
z
" transform="scale(0.015625)"/>
       </defs>
       <use xlink:href="#DejaVuSans-4f"/>
       <use xlink:href="#DejaVuSans-63" x="78.710938"/>
       <use xlink:href="#DejaVuSans-74" x="133.691406"/>
      </g>
     </g>
    </g>
    <g id="xtick_11">
     <g id="line2d_11">
      <path d="M 197.245312 246.024 
L 52.27266 162.324 
" clip-path="url(#p991823c459)" style="fill: none; stroke: #b0b0b0; stroke-width: 0.8; stroke-linecap: square"/>
     </g>
     <g id="text_11">
      <!-- Nov -->
      <g transform="translate(30.388929 158.083375)scale(0.1 -0.1)">
       <defs>
        <path id="DejaVuSans-4e" d="M 628 4666 
L 1478 4666 
L 3547 763 
L 3547 4666 
L 4159 4666 
L 4159 0 
L 3309 0 
L 1241 3903 
L 1241 0 
L 628 0 
L 628 4666 
z
" transform="scale(0.015625)"/>
        <path id="DejaVuSans-6f" d="M 1959 3097 
Q 1497 3097 1228 2736 
Q 959 2375 959 1747 
Q 959 1119 1226 758 
Q 1494 397 1959 397 
Q 2419 397 2687 759 
Q 2956 1122 2956 1747 
Q 2956 2369 2687 2733 
Q 2419 3097 1959 3097 
z
M 1959 3584 
Q 2709 3584 3137 3096 
Q 3566 2609 3566 1747 
Q 3566 888 3137 398 
Q 2709 -91 1959 -91 
Q 1206 -91 779 398 
Q 353 888 353 1747 
Q 353 2609 779 3096 
Q 1206 3584 1959 3584 
z
" transform="scale(0.015625)"/>
        <path id="DejaVuSans-76" d="M 191 3500 
L 800 3500 
L 1894 563 
L 2988 3500 
L 3597 3500 
L 2284 0 
L 1503 0 
L 191 3500 
z
" transform="scale(0.015625)"/>
       </defs>
       <use xlink:href="#DejaVuSans-4e"/>
       <use xlink:href="#DejaVuSans-6f" x="74.804688"/>
       <use xlink:href="#DejaVuSans-76" x="135.986328"/>
      </g>
     </g>
    </g>
    <g id="xtick_12">
     <g id="line2d_12">
      <path d="M 197.245312 246.024 
L 113.545312 101.051347 
" clip-path="url(#p991823c459)" style="fill: none; stroke: #b0b0b0; stroke-width: 0.8; stroke-linecap: square"/>
     </g>
     <g id="text_12">
      <!-- Dec -->
      <g transform="translate(96.869531 91.686367)scale(0.1 -0.1)">
       <defs>
        <path id="DejaVuSans-44" d="M 1259 4147 
L 1259 519 
L 2022 519 
Q 2988 519 3436 956 
Q 3884 1394 3884 2338 
Q 3884 3275 3436 3711 
Q 2988 4147 2022 4147 
L 1259 4147 
z
M 628 4666 
L 1925 4666 
Q 3281 4666 3915 4102 
Q 4550 3538 4550 2338 
Q 4550 1131 3912 565 
Q 3275 0 1925 0 
L 628 0 
L 628 4666 
z
" transform="scale(0.015625)"/>
       </defs>
       <use xlink:href="#DejaVuSans-44"/>
       <use xlink:href="#DejaVuSans-65" x="77.001953"/>
       <use xlink:href="#DejaVuSans-63" x="138.525391"/>
      </g>
     </g>
    </g>
   </g>
   <g id="matplotlib.axis_2">
    <g id="ytick_1">
     <g id="line2d_13">
      <path d="M 197.245312 215.587636 
C 201.242179 215.587636 205.200181 216.374932 208.892805 217.904467 
C 212.585428 219.434001 215.94086 221.676029 218.767072 224.502241 
C 221.593283 227.328452 223.835311 230.683885 225.364846 234.376508 
C 226.894381 238.069131 227.681676 242.027133 227.681676 246.024 
C 227.681676 250.020867 226.894381 253.978869 225.364846 257.671492 
C 223.835311 261.364115 221.593283 264.719548 218.767072 267.545759 
C 215.94086 270.371971 212.585428 272.613999 208.892805 274.143533 
C 205.200181 275.673068 201.242179 276.460364 197.245312 276.460364 
C 193.248446 276.460364 189.290444 275.673068 185.59782 274.143533 
C 181.905197 272.613999 178.549765 270.371971 175.723553 267.545759 
C 172.897342 264.719548 170.655314 261.364115 169.125779 257.671492 
C 167.596244 253.978869 166.808949 250.020867 166.808949 246.024 
C 166.808949 242.027133 167.596244 238.069131 169.125779 234.376508 
C 170.655314 230.683885 172.897342 227.328452 175.723553 224.502241 
C 178.549765 221.676029 181.905197 219.434001 185.59782 217.904467 
C 189.290444 216.374932 193.248446 215.587636 197.245312 215.587636 
" clip-path="url(#p991823c459)" style="fill: none; stroke: #b0b0b0; stroke-width: 0.8; stroke-linecap: square"/>
     </g>
     <g id="text_13">
      <!-- 1000 -->
      <g transform="translate(197.245312 274.380676)scale(0.1 -0.1)">
       <defs>
        <path id="DejaVuSans-31" d="M 794 531 
L 1825 531 
L 1825 4091 
L 703 3866 
L 703 4441 
L 1819 4666 
L 2450 4666 
L 2450 531 
L 3481 531 
L 3481 0 
L 794 0 
L 794 531 
z
" transform="scale(0.015625)"/>
        <path id="DejaVuSans-30" d="M 2034 4250 
Q 1547 4250 1301 3770 
Q 1056 3291 1056 2328 
Q 1056 1369 1301 889 
Q 1547 409 2034 409 
Q 2525 409 2770 889 
Q 3016 1369 3016 2328 
Q 3016 3291 2770 3770 
Q 2525 4250 2034 4250 
z
M 2034 4750 
Q 2819 4750 3233 4129 
Q 3647 3509 3647 2328 
Q 3647 1150 3233 529 
Q 2819 -91 2034 -91 
Q 1250 -91 836 529 
Q 422 1150 422 2328 
Q 422 3509 836 4129 
Q 1250 4750 2034 4750 
z
" transform="scale(0.015625)"/>
       </defs>
       <use xlink:href="#DejaVuSans-31"/>
       <use xlink:href="#DejaVuSans-30" x="63.623047"/>
       <use xlink:href="#DejaVuSans-30" x="127.246094"/>
       <use xlink:href="#DejaVuSans-30" x="190.869141"/>
      </g>
     </g>
    </g>
    <g id="ytick_2">
     <g id="line2d_14">
      <path d="M 197.245312 185.151273 
C 205.239046 185.151273 213.15505 186.725864 220.540297 189.784933 
C 227.925543 192.844002 234.636408 197.328059 240.288831 202.980482 
C 245.941254 208.632905 250.42531 215.343769 253.484379 222.729016 
C 256.543449 230.114262 258.11804 238.030267 258.11804 246.024 
C 258.11804 254.017733 256.543449 261.933738 253.484379 269.318984 
C 250.42531 276.704231 245.941254 283.415095 240.288831 289.067518 
C 234.636408 294.719941 227.925543 299.203998 220.540297 302.263067 
C 213.15505 305.322136 205.239046 306.896727 197.245312 306.896727 
C 189.251579 306.896727 181.335575 305.322136 173.950328 302.263067 
C 166.565082 299.203998 159.854217 294.719941 154.201794 289.067518 
C 148.549371 283.415095 144.065315 276.704231 141.006246 269.318984 
C 137.947176 261.933738 136.372585 254.017733 136.372585 246.024 
C 136.372585 238.030267 137.947176 230.114262 141.006246 222.729016 
C 144.065315 215.343769 148.549371 208.632905 154.201794 202.980482 
C 159.854217 197.328059 166.565082 192.844002 173.950328 189.784933 
C 181.335575 186.725864 189.251579 185.151273 197.245312 185.151273 
" clip-path="url(#p991823c459)" style="fill: none; stroke: #b0b0b0; stroke-width: 0.8; stroke-linecap: square"/>
     </g>
     <g id="text_14">
      <!-- 2000 -->
      <g transform="translate(197.245312 304.81704)scale(0.1 -0.1)">
       <defs>
        <path id="DejaVuSans-32" d="M 1228 531 
L 3431 531 
L 3431 0 
L 469 0 
L 469 531 
Q 828 903 1448 1529 
Q 2069 2156 2228 2338 
Q 2531 2678 2651 2914 
Q 2772 3150 2772 3378 
Q 2772 3750 2511 3984 
Q 2250 4219 1831 4219 
Q 1534 4219 1204 4116 
Q 875 4013 500 3803 
L 500 4441 
Q 881 4594 1212 4672 
Q 1544 4750 1819 4750 
Q 2544 4750 2975 4387 
Q 3406 4025 3406 3419 
Q 3406 3131 3298 2873 
Q 3191 2616 2906 2266 
Q 2828 2175 2409 1742 
Q 1991 1309 1228 531 
z
" transform="scale(0.015625)"/>
       </defs>
       <use xlink:href="#DejaVuSans-32"/>
       <use xlink:href="#DejaVuSans-30" x="63.623047"/>
       <use xlink:href="#DejaVuSans-30" x="127.246094"/>
       <use xlink:href="#DejaVuSans-30" x="190.869141"/>
      </g>
     </g>
    </g>
    <g id="ytick_3">
     <g id="line2d_15">
      <path d="M 197.245312 154.714909 
C 209.235912 154.714909 221.109919 157.076796 232.187789 161.6654 
C 243.265659 166.254004 253.331955 172.980088 261.81059 181.458723 
C 270.289224 189.937357 277.015309 200.003654 281.603913 211.081524 
C 286.192517 222.159394 288.554403 234.0334 288.554403 246.024 
C 288.554403 258.0146 286.192517 269.888606 281.603913 280.966476 
C 277.015309 292.044346 270.289224 302.110643 261.81059 310.589277 
C 253.331955 319.067912 243.265659 325.793996 232.187789 330.3826 
C 221.109919 334.971204 209.235912 337.333091 197.245312 337.333091 
C 185.254713 337.333091 173.380706 334.971204 162.302836 330.3826 
C 151.224966 325.793996 141.15867 319.067912 132.680035 310.589277 
C 124.201401 302.110643 117.475316 292.044346 112.886712 280.966476 
C 108.298108 269.888606 105.936222 258.0146 105.936222 246.024 
C 105.936222 234.0334 108.298108 222.159394 112.886712 211.081524 
C 117.475316 200.003654 124.201401 189.937357 132.680035 181.458723 
C 141.15867 172.980088 151.224966 166.254004 162.302836 161.6654 
C 173.380706 157.076796 185.254713 154.714909 197.245312 154.714909 
" clip-path="url(#p991823c459)" style="fill: none; stroke: #b0b0b0; stroke-width: 0.8; stroke-linecap: square"/>
     </g>
     <g id="text_15">
      <!-- 3000 -->
      <g transform="translate(197.245312 335.253403)scale(0.1 -0.1)">
       <defs>
        <path id="DejaVuSans-33" d="M 2597 2516 
Q 3050 2419 3304 2112 
Q 3559 1806 3559 1356 
Q 3559 666 3084 287 
Q 2609 -91 1734 -91 
Q 1441 -91 1130 -33 
Q 819 25 488 141 
L 488 750 
Q 750 597 1062 519 
Q 1375 441 1716 441 
Q 2309 441 2620 675 
Q 2931 909 2931 1356 
Q 2931 1769 2642 2001 
Q 2353 2234 1838 2234 
L 1294 2234 
L 1294 2753 
L 1863 2753 
Q 2328 2753 2575 2939 
Q 2822 3125 2822 3475 
Q 2822 3834 2567 4026 
Q 2313 4219 1838 4219 
Q 1578 4219 1281 4162 
Q 984 4106 628 3988 
L 628 4550 
Q 988 4650 1302 4700 
Q 1616 4750 1894 4750 
Q 2613 4750 3031 4423 
Q 3450 4097 3450 3541 
Q 3450 3153 3228 2886 
Q 3006 2619 2597 2516 
z
" transform="scale(0.015625)"/>
       </defs>
       <use xlink:href="#DejaVuSans-33"/>
       <use xlink:href="#DejaVuSans-30" x="63.623047"/>
       <use xlink:href="#DejaVuSans-30" x="127.246094"/>
       <use xlink:href="#DejaVuSans-30" x="190.869141"/>
      </g>
     </g>
    </g>
    <g id="ytick_4">
     <g id="line2d_16">
      <path d="M 197.245312 124.278545 
C 213.232779 124.278545 229.064788 127.427728 243.835281 133.545866 
C 258.605774 139.664005 272.027503 148.632117 283.332349 159.936964 
C 294.637195 171.24181 303.605308 184.663538 309.723446 199.434032 
C 315.841585 214.204525 318.990767 230.036533 318.990767 246.024 
C 318.990767 262.011467 315.841585 277.843475 309.723446 292.613968 
C 303.605308 307.384462 294.637195 320.80619 283.332349 332.111036 
C 272.027503 343.415883 258.605774 352.383995 243.835281 358.502134 
C 229.064788 364.620272 213.232779 367.769455 197.245312 367.769455 
C 181.257846 367.769455 165.425837 364.620272 150.655344 358.502134 
C 135.884851 352.383995 122.463122 343.415883 111.158276 332.111036 
C 99.85343 320.80619 90.885317 307.384462 84.767179 292.613968 
C 78.64904 277.843475 75.499858 262.011467 75.499858 246.024 
C 75.499858 230.036533 78.64904 214.204525 84.767179 199.434032 
C 90.885317 184.663538 99.85343 171.24181 111.158276 159.936964 
C 122.463122 148.632117 135.884851 139.664005 150.655344 133.545866 
C 165.425837 127.427728 181.257846 124.278545 197.245312 124.278545 
" clip-path="url(#p991823c459)" style="fill: none; stroke: #b0b0b0; stroke-width: 0.8; stroke-linecap: square"/>
     </g>
     <g id="text_16">
      <!-- 4000 -->
      <g transform="translate(197.245312 365.689767)scale(0.1 -0.1)">
       <defs>
        <path id="DejaVuSans-34" d="M 2419 4116 
L 825 1625 
L 2419 1625 
L 2419 4116 
z
M 2253 4666 
L 3047 4666 
L 3047 1625 
L 3713 1625 
L 3713 1100 
L 3047 1100 
L 3047 0 
L 2419 0 
L 2419 1100 
L 313 1100 
L 313 1709 
L 2253 4666 
z
" transform="scale(0.015625)"/>
       </defs>
       <use xlink:href="#DejaVuSans-34"/>
       <use xlink:href="#DejaVuSans-30" x="63.623047"/>
       <use xlink:href="#DejaVuSans-30" x="127.246094"/>
       <use xlink:href="#DejaVuSans-30" x="190.869141"/>
      </g>
     </g>
    </g>
    <g id="ytick_5">
     <g id="line2d_17">
      <path d="M 197.245312 93.842182 
C 217.229646 93.842182 237.019657 97.77866 255.482773 105.426333 
C 273.945889 113.074006 290.723051 124.284147 304.854108 138.415204 
C 318.985166 152.546262 330.195306 169.323423 337.84298 187.786539 
C 345.490653 206.249656 349.427131 226.039667 349.427131 246.024 
C 349.427131 266.008333 345.490653 285.798344 337.84298 304.261461 
C 330.195306 322.724577 318.985166 339.501738 304.854108 353.632796 
C 290.723051 367.763853 273.945889 378.973994 255.482773 386.621667 
C 237.019657 394.26934 217.229646 398.205818 197.245312 398.205818 
C 177.260979 398.205818 157.470968 394.26934 139.007852 386.621667 
C 120.544736 378.973994 103.767574 367.763853 89.636517 353.632796 
C 75.505459 339.501738 64.295319 322.724577 56.647645 304.261461 
C 48.999972 285.798344 45.063494 266.008333 45.063494 246.024 
C 45.063494 226.039667 48.999972 206.249656 56.647645 187.786539 
C 64.295319 169.323423 75.505459 152.546262 89.636517 138.415204 
C 103.767574 124.284147 120.544736 113.074006 139.007852 105.426333 
C 157.470968 97.77866 177.260979 93.842182 197.245312 93.842182 
" clip-path="url(#p991823c459)" style="fill: none; stroke: #b0b0b0; stroke-width: 0.8; stroke-linecap: square"/>
     </g>
     <g id="text_17">
      <!-- 5000 -->
      <g transform="translate(197.245312 396.126131)scale(0.1 -0.1)">
       <defs>
        <path id="DejaVuSans-35" d="M 691 4666 
L 3169 4666 
L 3169 4134 
L 1269 4134 
L 1269 2991 
Q 1406 3038 1543 3061 
Q 1681 3084 1819 3084 
Q 2600 3084 3056 2656 
Q 3513 2228 3513 1497 
Q 3513 744 3044 326 
Q 2575 -91 1722 -91 
Q 1428 -91 1123 -41 
Q 819 9 494 109 
L 494 744 
Q 775 591 1075 516 
Q 1375 441 1709 441 
Q 2250 441 2565 725 
Q 2881 1009 2881 1497 
Q 2881 1984 2565 2268 
Q 2250 2553 1709 2553 
Q 1456 2553 1204 2497 
Q 953 2441 691 2322 
L 691 4666 
z
" transform="scale(0.015625)"/>
       </defs>
       <use xlink:href="#DejaVuSans-35"/>
       <use xlink:href="#DejaVuSans-30" x="63.623047"/>
       <use xlink:href="#DejaVuSans-30" x="127.246094"/>
       <use xlink:href="#DejaVuSans-30" x="190.869141"/>
      </g>
     </g>
    </g>
   </g>
   <g id="line2d_18">
    <path d="M 197.245312 161.806582 
L 207.627728 160.517111 
L 217.975288 161.919184 
L 228.166923 164.490414 
L 237.670246 169.000724 
L 246.192808 175.111311 
L 255.776135 179.956359 
L 263.97363 186.907869 
L 266.304403 198.355952 
L 271.627482 206.985226 
L 273.684828 217.034315 
L 276.651371 226.452165 
L 275.379876 236.536746 
L 272.484003 246.024 
L 275.289232 255.500248 
L 273.518865 264.823742 
L 270.383643 273.76171 
L 265.590669 281.89441 
L 264.550998 292.48176 
L 254.769724 296.986182 
L 247.400173 302.637134 
L 241.628294 310.323849 
L 232.63481 313.453054 
L 222.846032 313.527549 
L 215.709995 320.938163 
L 206.710554 323.977277 
L 197.245312 326.771673 
L 188.077236 321.529906 
L 179.450748 318.219385 
L 172.270581 311.876956 
L 164.86859 307.712691 
L 156.078239 305.664803 
L 147.514296 302.158713 
L 145.370823 291.980787 
L 136.727807 287.796218 
L 131.675813 280.437528 
L 125.444531 273.254445 
L 120.587585 264.918433 
L 121.769621 255.188408 
L 118.17164 246.024 
L 120.409971 236.6945 
L 122.997101 217.865367 
L 128.280105 209.828267 
L 133.571679 202.073264 
L 139.857592 195.182916 
L 145.940019 188.112295 
L 149.940351 177.490931 
L 157.188135 169.701426 
L 166.237359 164.262746 
L 176.63188 162.392015 
L 186.664787 158.885531 
L 197.245312 157.241127 
L 207.587373 160.84947 
L 216.358262 168.479714 
L 225.522667 171.462745 
L 235.831463 172.504232 
L 243.495595 179.018898 
L 250.145067 186.312521 
L 257.64025 192.518755 
L 264.525949 199.58353 
L 270.38778 207.635872 
L 274.851627 216.591807 
L 276.621819 226.459448 
L 280.002686 235.975436 
L 276.136367 246.024 
L 277.374029 255.753388 
L 276.858234 265.646823 
L 270.981271 273.988361 
L 265.779319 281.993421 
L 262.522058 291.081284 
L 255.362055 297.510941 
L 248.550606 303.935705 
L 240.07221 308.069472 
L 232.309487 312.833203 
L 224.108799 316.857192 
L 214.82136 317.332827 
L 206.545463 322.617626 
L 197.245312 325.919455 
L 188.025874 321.952909 
L 180.048028 315.796126 
L 171.007813 315.2066 
L 162.082127 313.021853 
L 156.510484 305.038587 
L 148.503265 301.042398 
L 143.001501 294.079824 
L 135.675765 288.52239 
L 129.331157 281.668098 
L 129.514096 271.711062 
L 124.93172 263.8477 
L 118.899248 255.536935 
L 121.945749 246.024 
L 120.591257 236.716513 
L 121.858318 227.442775 
L 121.602634 217.336516 
L 125.746799 208.498685 
L 132.945463 201.641019 
L 135.939098 191.711433 
L 141.943776 183.60147 
L 149.145019 176.338694 
L 157.838782 170.941128 
L 165.784058 163.067489 
L 176.755706 162.894398 
L 186.884909 160.698398 
L 197.245312 156.845455 
L 207.418613 162.239335 
L 217.53097 163.721852 
L 227.346664 166.653259 
L 237.062033 170.159577 
L 249.702642 170.026438 
L 259.59073 175.650571 
L 266.388517 184.768466 
L 273.919188 193.099845 
L 279.51882 214.821774 
L 280.493122 225.505258 
L 281.634267 235.777326 
L 282.619312 246.024 
L 280.546546 256.138601 
L 279.577012 266.316941 
L 276.160717 275.952665 
L 267.558023 282.926957 
L 263.699344 291.893906 
L 255.043108 297.228378 
L 252.284469 308.150365 
L 241.472685 310.098411 
L 233.808802 315.689909 
L 224.853508 318.820829 
L 215.994067 322.090689 
L 206.640849 323.403202 
L 197.245312 326.345564 
L 188.257002 320.049398 
L 179.60371 317.598794 
L 169.626324 318.849287 
L 163.694598 309.949546 
L 156.458615 305.113733 
L 145.818921 304.072397 
L 139.515863 297.167829 
L 137.880045 287.000886 
L 128.792156 281.950988 
L 126.838997 272.725593 
L 126.61618 263.432518 
L 117.479169 255.709363 
L 120.454367 246.024 
L 116.240377 236.18822 
L 118.459845 226.605126 
L 125.47299 218.804348 
L 125.93545 208.597697 
L 129.839432 199.49708 
L 135.073384 190.944477 
L 142.206156 183.897635 
L 158.036804 171.318429 
L 165.827229 163.181323 
L 176.413363 161.505457 
L 186.228212 155.290012 
L 197.245312 156.328036 
L 208.390818 154.232506 
L 219.177131 157.043114 
L 230.508979 158.31492 
L 242.394504 159.999403 
L 251.587233 167.296136 
L 258.46048 176.92636 
L 270.398139 181.216251 
L 276.649489 191.215254 
L 285.991865 199.446216 
L 283.730677 213.224428 
L 287.024101 223.895516 
L 289.913025 234.772103 
L 287.763058 246.024 
L 289.67131 257.246548 
L 281.734304 266.848666 
L 274.851627 275.456193 
L 266.23747 282.233878 
L 263.674296 291.876616 
L 255.817694 297.914602 
L 247.682735 302.956081 
L 242.216148 311.175503 
L 233.695646 315.474309 
L 224.205935 317.113319 
L 215.739131 321.056371 
L 206.391377 321.34862 
L 197.245312 323.119309 
L 188.216646 320.381757 
L 179.122973 319.549222 
L 167.845498 323.544939 
L 162.082127 313.021853 
L 155.93992 305.865192 
L 147.958323 301.65751 
L 142.52308 294.503668 
L 136.226835 288.142014 
L 130.49001 281.059886 
L 131.477732 270.966353 
L 123.424571 264.219179 
L 125.667285 254.715146 
L 118.84124 246.024 
L 118.566889 236.47071 
L 122.094734 227.501046 
L 121.005006 217.109866 
L 130.70561 211.10127 
L 134.548576 202.747568 
L 138.672931 194.133398 
L 145.475809 187.58831 
L 149.819322 177.315591 
L 160.497944 176.00774 
L 169.291745 172.3165 
L 176.945087 163.662748 
L 187.145386 162.843624 
L 207.587373 160.84947 
L 217.203195 165.051689 
L 226.494026 168.90148 
L 235.548574 173.043233 
L 246.607763 174.510144 
L 253.677099 182.325681 
L 259.964008 190.460084 
L 265.202263 199.116704 
L 271.708333 206.942792 
L 276.075342 216.127713 
L 275.912572 226.634262 
L 278.522178 236.155202 
L 279.636549 246.024 
L 275.561162 255.533266 
L 274.346319 265.027691 
L 271.521983 274.193425 
L 265.375068 281.781254 
L 262.822642 291.288762 
L 256.934009 298.903571 
L 248.893718 304.322998 
L 232.592377 313.372204 
L 223.450433 315.121224 
L 215.032593 318.189833 
L 206.35469 321.046475 
L 197.245312 326.771673 
L 187.820427 323.644918 
L 176.784841 329.035394 
L 168.547036 321.695137 
L 161.869959 313.426104 
L 153.329156 309.647536 
L 148.341801 301.224654 
L 140.791652 296.037579 
L 130.165065 292.326152 
L 126.366651 283.223991 
L 125.27378 273.319202 
L 120.587585 264.918433 
L 122.222837 255.133378 
L 116.923749 246.024 
L 118.23453 236.430354 
L 119.050884 226.750804 
L 124.33465 218.372633 
L 125.908499 208.583552 
L 130.866427 200.205963 
L 133.934286 189.935325 
L 141.197004 182.758538 
L 149.145019 176.338694 
L 156.678934 168.731223 
L 163.819753 157.888043 
L 174.453994 153.555985 
L 186.378628 156.528804 
L 197.245312 146.953636 
L 209.589045 142.390246 
L 221.387746 146.115986 
L 232.780378 150.357392 
L 243.414912 156.071127 
L 252.879705 163.425328 
L 263.033331 169.685956 
L 273.172301 176.564641 
L 276.551684 189.119712 
L 283.125103 198.678517 
L 284.286133 210.723786 
L 286.852031 221.538918 
L 290.082307 232.165045 
L 283.616201 243.463419 
L 284.798311 253.829179 
L 283.40956 264.160912 
L 278.814349 273.600667 
L 270.721172 281.025646 
L 267.790066 290.558788 
L 261.554957 298.206203 
L 251.645745 302.061108 
L 246.372294 310.375994 
L 237.410302 314.03126 
L 230.127871 320.671929 
L 219.992637 320.514873 
L 210.958097 322.32295 
L 202.380454 332.554525 
L 192.580772 324.624586 
L 183.42485 322.922078 
L 174.595768 320.19467 
L 166.69398 315.379725 
L 157.869693 312.694701 
L 150.537743 307.206779 
L 143.841302 301.034707 
L 137.520773 294.485752 
L 132.645775 286.805583 
L 125.830294 280.043925 
L 121.327578 271.690088 
L 117.335642 262.844371 
L 114.11847 253.434595 
L 115.40745 243.597806 
L 115.606555 233.836748 
L 114.097794 223.303898 
L 117.594218 213.720758 
L 125.492241 206.46657 
L 132.974262 199.907928 
L 134.231077 188.377457 
L 143.180318 183.28893 
L 150.33355 176.375547 
L 157.719021 169.014376 
L 166.712499 163.824329 
L 178.714905 169.340087 
L 186.733881 157.773618 
L 197.245312 149.449418 
L 208.52656 153.114572 
L 219.54861 155.535965 
L 231.793332 154.92836 
L 241.135645 162.397959 
L 249.737222 169.97634 
L 258.339382 177.063052 
L 272.858589 179.036482 
L 277.025219 190.955907 
L 282.164957 201.454733 
L 284.385222 212.976191 
L 289.006592 234.882163 
L 288.858767 246.024 
L 280.848691 256.175288 
L 278.542695 266.062005 
L 275.278504 275.618086 
L 271.465782 284.977907 
L 271.188887 297.063564 
L 258.095888 299.932906 
L 252.001906 307.831418 
L 243.616624 313.204442 
L 233.837091 315.743809 
L 225.522667 320.585255 
L 206.816946 324.853496 
L 197.245312 327.989127 
L 187.607642 325.397356 
L 177.19274 327.380486 
L 169.809803 318.365493 
L 161.884104 313.399154 
L 153.01794 310.098411 
L 145.41526 304.528036 
L 135.711278 300.538397 
L 132.344296 290.821937 
L 127.606353 282.573345 
L 119.695915 275.434607 
L 123.365467 264.233746 
L 116.723808 255.801081 
L 115.584549 246.024 
L 108.596121 235.260039 
L 116.154794 226.036982 
L 113.349671 214.20658 
L 123.644694 207.395416 
L 124.303684 195.676029 
L 131.132107 187.452811 
L 138.553025 179.774103 
L 146.257618 172.155572 
L 154.217794 164.041913 
L 163.474381 156.977371 
L 174.869176 155.240446 
L 185.032216 145.440102 
L 197.245312 137.427055 
L 210.588368 136.134052 
L 222.644267 142.976391 
L 236.380307 142.833499 
L 247.797696 149.70448 
L 256.82605 159.7064 
L 266.210768 168.178093 
L 273.063627 178.854835 
L 276.198614 191.526471 
L 279.550801 202.826748 
L 278.152812 215.339833 
L 279.340597 225.78933 
L 283.35649 235.56821 
L 281.371422 246.024 
L 282.147912 256.333042 
L 277.419721 265.785217 
L 276.30301 276.00663 
L 267.431591 294.47009 
L 261.057541 302.556702 
L 253.192706 309.175552 
L 243.94513 313.680366 
L 234.360437 316.740962 
L 225.770903 321.239801 
L 216.380114 323.656942 
L 207.117779 327.33108 
L 197.245312 328.110873 
L 188.000193 322.16441 
L 177.768168 325.045883 
L 161.742659 313.668655 
L 151.306247 312.578226 
L 145.980385 303.890141 
L 139.265262 297.389843 
L 132.720026 290.56259 
L 127.983654 282.375322 
L 120.208168 275.240335 
L 117.0118 265.799785 
L 116.60295 255.815756 
L 116.862876 246.024 
L 113.762792 235.887387 
L 117.277768 226.31377 
L 121.090382 217.142244 
L 123.779445 207.466138 
L 130.81316 187.170248 
L 138.371378 179.569066 
L 147.346877 173.733636 
L 154.429961 164.446164 
L 162.513814 154.444565 
L 174.818189 155.033582 
L 185.553171 149.730553 
L 197.245312 144.275236 
L 209.56847 144.533668 
L 221.748347 146.61128 
L 233.099271 151.484882 
L 245.37899 154.31294 
L 257.984468 158.028141 
L 271.115248 162.64208 
L 281.333473 171.528391 
L 295.861793 177.953958 
L 307.524964 188.144774 
L 303.480872 205.734167 
L 298.608461 221.040228 
L 294.686908 234.192448 
L 289.771858 246.024 
L 283.658635 256.516477 
L 278.808662 266.12756 
L 273.030283 274.765448 
L 268.528225 283.436159 
L 263.398761 291.686428 
L 256.615062 298.621008 
L 251.214768 306.942922 
L 245.241867 315.559014 
L 235.138384 318.223215 
L 224.842715 318.79237 
L 216.190733 322.888591 
L 206.853633 325.15564 
L 197.245312 328.993527 
L 187.44622 326.726791 
L 177.549651 325.932441 
L 167.381404 324.768654 
L 158.206538 320.40617 
L 149.784742 314.782506 
L 144.668487 305.370968 
L 137.738871 298.742107 
L 133.947409 289.715388 
L 126.824802 282.983535 
L 124.989195 273.427131 
L 117.277768 265.73423 
L 115.78716 255.91481 
L 111.840876 246.024 
L 113.853435 235.898393 
L 116.302554 226.073402 
L 121.232674 217.196209 
L 121.380889 206.207279 
L 127.159228 197.647069 
L 134.344361 190.29862 
L 139.541994 180.890418 
L 146.983791 173.207615 
L 155.264486 166.036217 
L 164.683184 160.164722 
L 175.094977 156.156556 
L 186.602419 158.371886 
L 197.245312 152.827855 
L 209.212606 147.46447 
L 220.204161 152.876291 
L 231.555888 155.554446 
L 241.644846 161.427757 
L 252.278826 166.294191 
L 262.920932 171.89155 
L 270.603176 181.034604 
L 274.019382 193.030686 
L 282.730908 201.157698 
L 289.023957 211.216951 
L 287.171861 223.859097 
L 288.281445 234.970212 
L 285.449894 246.024 
L 284.927641 256.670562 
L 286.964997 268.137916 
L 281.368622 277.927763 
L 272.867185 285.713421 
L 266.680132 293.951395 
L 261.51318 302.960363 
L 255.231193 311.476529 
L 244.446535 314.406777 
L 235.91633 319.705468 
L 225.814075 321.353635 
L 216.853567 325.577818 
L 207.649741 331.712175 
L 197.245312 328.963091 
L 187.116037 329.446092 
L 178.409151 322.445312 
L 164.801905 331.570234 
L 158.616728 319.624618 
L 151.790362 311.876865 
L 144.507023 305.553223 
L 137.624962 298.843022 
L 127.534958 294.141584 
L 128.441805 282.134866 
L 122.05797 274.538798 
L 121.001312 264.816458 
L 114.125365 256.116589 
L 114.549712 246.024 
L 109.260839 235.340751 
L 112.165282 225.053656 
L 115.654809 215.080804 
L 120.275937 205.627355 
L 121.723674 193.895177 
L 127.53256 184.26389 
L 136.231975 177.154179 
L 144.597795 169.750903 
L 154.557261 164.688714 
L 163.129008 156.066699 
L 173.55079 149.891545 
L 186.136494 154.534651 
L 197.245312 151.579964 
L 209.355057 144.354724 
L 219.814949 152.624651 
L 229.526795 159.116607 
L 241.219007 160.34944 
L 251.587463 165.343879 
L 260.788074 172.291271 
L 263.695463 185.234221 
L 273.856207 191.053784 
L 280.059872 200.368378 
L 288.009202 209.213861 
L 303.35235 217.030198 
L 331.443536 225.99053 
L 351.946253 241.437682 
L 348.280298 259.488474 
L 325.553497 273.031887 
L 309.983005 284.138092 
L 290.202991 290.306187 
L 274.172809 294.588203 
L 262.878493 299.280147 
L 255.970643 306.516124 
L 247.702046 312.117852 
L 238.756874 316.311272 
L 230.238297 320.922612 
L 221.21045 324.502857 
L 211.561094 325.678067 
L 202.001809 326.174115 
L 192.523074 325.596839 
L 183.634822 321.753779 
L 173.484625 323.833341 
L 164.534529 320.281977 
L 156.352864 315.26299 
L 137.978966 323.657665 
L 136.69674 308.394218 
L 132.604784 298.474689 
L 127.961665 289.762653 
L 121.900957 281.91574 
L 118.790259 272.547899 
L 111.140632 264.148373 
L 106.236275 254.137278 
L 105.307015 243.298365 
L 100.254133 231.544897 
L 96.012035 218.361955 
L 93.253249 203.849052 
L 101.583435 193.285658 
L 108.71497 182.501284 
L 122.351344 177.509666 
L 137.224101 156.912352 
L 147.00356 148.137295 
L 155.817763 134.493797 
L 169.599831 131.619413 
L 182.475312 122.020124 
L 197.245312 119.895709 
L 197.245312 119.895709 
" clip-path="url(#p991823c459)" style="fill: none; stroke-dasharray: 0.5,0.825; stroke-dashoffset: 0; stroke: #1f77b4; stroke-width: 0.5"/>
   </g>
   <g id="line2d_19">
    <path d="M 197.245312 119.895709 
L 211.377138 129.637945 
L 225.375729 131.894415 
L 237.351667 140.272235 
L 248.929255 147.548475 
L 258.624192 157.101341 
L 268.451086 165.649297 
L 270.307011 181.296983 
L 275.021328 192.339093 
L 284.698262 200.125151 
L 283.844511 213.181256 
L 287.230964 223.844529 
L 293.266829 234.364877 
L 293.545967 246.024 
L 292.148895 257.547381 
L 290.186158 268.931861 
L 286.178107 279.75176 
L 278.176347 288.499884 
L 272.842097 298.204692 
L 265.340547 306.351114 
L 253.878929 309.950139 
L 249.270397 321.395346 
L 238.038003 323.747978 
L 228.23168 327.728337 
L 216.729741 325.075435 
L 207.491987 330.412954 
L 197.245312 332.4024 
L 186.708811 332.799895 
L 177.02521 328.060181 
L 165.805643 328.923594 
L 155.391786 325.769232 
L 148.142209 317.162127 
L 138.734673 312.068859 
L 130.516995 305.140131 
L 125.606213 295.4729 
L 113.969622 289.730454 
L 114.203426 277.517633 
L 111.869763 267.067183 
L 104.426527 257.294241 
L 103.805676 246.024 
L 104.728672 234.790446 
L 100.521819 222.1838 
L 100.913309 209.49009 
L 102.515846 196.306141 
L 102.461273 180.599301 
L 106.254223 165.412929 
L 112.678365 150.567649 
L 121.394849 136.135633 
L 135.518787 128.413931 
L 153.685236 131.165517 
L 170.003532 135.499751 
L 183.847227 135.680835 
L 197.245312 141.718582 
" clip-path="url(#p991823c459)" style="fill: none; stroke: #ff7f0e; stroke-width: 1.5; stroke-linecap: square"/>
   </g>
   <g id="line2d_20">
    <path d="M 197.245312 141.718582 
L 211.107107 151.156834 
L 224.938863 153.282888 
L 238.197805 157.957769 
L 251.785418 162.844259 
L 262.491526 172.446383 
L 275.190359 180.338566 
L 285.032283 191.576336 
" clip-path="url(#p991823c459)" style="fill: none; stroke: #2ca02c; stroke-width: 3; stroke-linecap: square"/>
   </g>
   <g id="patch_3">
    <path d="M 197.245312 78.624 
C 175.262546 78.624 153.493534 82.954126 133.184106 91.366566 
C 112.874678 99.779007 94.419801 112.110162 78.875637 127.654325 
C 63.331474 143.198488 51.000319 161.653365 42.587879 181.962793 
C 34.175438 202.272222 29.845312 224.041233 29.845312 246.024 
C 29.845312 268.006767 34.175438 289.775778 42.587879 310.085207 
C 51.000319 330.394635 63.331474 348.849512 78.875637 364.393675 
C 94.419801 379.937838 112.874678 392.268993 133.184106 400.681434 
C 153.493534 409.093874 175.262546 413.424 197.245312 413.424 
C 219.228079 413.424 240.997091 409.093874 261.306519 400.681434 
C 281.615947 392.268993 300.070824 379.937838 315.614988 364.393675 
C 331.159151 348.849512 343.490306 330.394635 351.902746 310.085207 
C 360.315187 289.775778 364.645312 268.006767 364.645312 246.024 
C 364.645312 224.041233 360.315187 202.272222 351.902746 181.962793 
C 343.490306 161.653365 331.159151 143.198488 315.614988 127.654325 
C 300.070824 112.110162 281.615947 99.779007 261.306519 91.366566 
C 240.997091 82.954126 219.228079 78.624 197.245312 78.624 
" style="fill: none; stroke: #000000; stroke-width: 0.8; stroke-linejoin: miter; stroke-linecap: square"/>
   </g>
   <g id="text_18">
    <!-- 2022 -->
    <g transform="translate(174.340312 245.263091)scale(0.18 -0.18)">
     <use xlink:href="#DejaVuSans-32"/>
     <use xlink:href="#DejaVuSans-30" x="63.623047"/>
     <use xlink:href="#DejaVuSans-32" x="127.246094"/>
     <use xlink:href="#DejaVuSans-32" x="190.869141"/>
    </g>
   </g>
   <g id="text_19">
    <!-- Totaal mannen en vrouwen, Totaal leeftijd -->
    <g transform="translate(92.875 39.144)scale(0.1 -0.1)">
     <defs>
      <path id="DejaVuSans-54" d="M -19 4666 
L 3928 4666 
L 3928 4134 
L 2272 4134 
L 2272 0 
L 1638 0 
L 1638 4134 
L -19 4134 
L -19 4666 
z
" transform="scale(0.015625)"/>
      <path id="DejaVuSans-20" transform="scale(0.015625)"/>
      <path id="DejaVuSans-6d" d="M 3328 2828 
Q 3544 3216 3844 3400 
Q 4144 3584 4550 3584 
Q 5097 3584 5394 3201 
Q 5691 2819 5691 2113 
L 5691 0 
L 5113 0 
L 5113 2094 
Q 5113 2597 4934 2840 
Q 4756 3084 4391 3084 
Q 3944 3084 3684 2787 
Q 3425 2491 3425 1978 
L 3425 0 
L 2847 0 
L 2847 2094 
Q 2847 2600 2669 2842 
Q 2491 3084 2119 3084 
Q 1678 3084 1418 2786 
Q 1159 2488 1159 1978 
L 1159 0 
L 581 0 
L 581 3500 
L 1159 3500 
L 1159 2956 
Q 1356 3278 1631 3431 
Q 1906 3584 2284 3584 
Q 2666 3584 2933 3390 
Q 3200 3197 3328 2828 
z
" transform="scale(0.015625)"/>
      <path id="DejaVuSans-77" d="M 269 3500 
L 844 3500 
L 1563 769 
L 2278 3500 
L 2956 3500 
L 3675 769 
L 4391 3500 
L 4966 3500 
L 4050 0 
L 3372 0 
L 2619 2869 
L 1863 0 
L 1184 0 
L 269 3500 
z
" transform="scale(0.015625)"/>
      <path id="DejaVuSans-2c" d="M 750 794 
L 1409 794 
L 1409 256 
L 897 -744 
L 494 -744 
L 750 256 
L 750 794 
z
" transform="scale(0.015625)"/>
      <path id="DejaVuSans-66" d="M 2375 4863 
L 2375 4384 
L 1825 4384 
Q 1516 4384 1395 4259 
Q 1275 4134 1275 3809 
L 1275 3500 
L 2222 3500 
L 2222 3053 
L 1275 3053 
L 1275 0 
L 697 0 
L 697 3053 
L 147 3053 
L 147 3500 
L 697 3500 
L 697 3744 
Q 697 4328 969 4595 
Q 1241 4863 1831 4863 
L 2375 4863 
z
" transform="scale(0.015625)"/>
      <path id="DejaVuSans-69" d="M 603 3500 
L 1178 3500 
L 1178 0 
L 603 0 
L 603 3500 
z
M 603 4863 
L 1178 4863 
L 1178 4134 
L 603 4134 
L 603 4863 
z
" transform="scale(0.015625)"/>
      <path id="DejaVuSans-6a" d="M 603 3500 
L 1178 3500 
L 1178 -63 
Q 1178 -731 923 -1031 
Q 669 -1331 103 -1331 
L -116 -1331 
L -116 -844 
L 38 -844 
Q 366 -844 484 -692 
Q 603 -541 603 -63 
L 603 3500 
z
M 603 4863 
L 1178 4863 
L 1178 4134 
L 603 4134 
L 603 4863 
z
" transform="scale(0.015625)"/>
      <path id="DejaVuSans-64" d="M 2906 2969 
L 2906 4863 
L 3481 4863 
L 3481 0 
L 2906 0 
L 2906 525 
Q 2725 213 2448 61 
Q 2172 -91 1784 -91 
Q 1150 -91 751 415 
Q 353 922 353 1747 
Q 353 2572 751 3078 
Q 1150 3584 1784 3584 
Q 2172 3584 2448 3432 
Q 2725 3281 2906 2969 
z
M 947 1747 
Q 947 1113 1208 752 
Q 1469 391 1925 391 
Q 2381 391 2643 752 
Q 2906 1113 2906 1747 
Q 2906 2381 2643 2742 
Q 2381 3103 1925 3103 
Q 1469 3103 1208 2742 
Q 947 2381 947 1747 
z
" transform="scale(0.015625)"/>
     </defs>
     <use xlink:href="#DejaVuSans-54"/>
     <use xlink:href="#DejaVuSans-6f" x="44.083984"/>
     <use xlink:href="#DejaVuSans-74" x="105.265625"/>
     <use xlink:href="#DejaVuSans-61" x="144.474609"/>
     <use xlink:href="#DejaVuSans-61" x="205.753906"/>
     <use xlink:href="#DejaVuSans-6c" x="267.033203"/>
     <use xlink:href="#DejaVuSans-20" x="294.816406"/>
     <use xlink:href="#DejaVuSans-6d" x="326.603516"/>
     <use xlink:href="#DejaVuSans-61" x="424.015625"/>
     <use xlink:href="#DejaVuSans-6e" x="485.294922"/>
     <use xlink:href="#DejaVuSans-6e" x="548.673828"/>
     <use xlink:href="#DejaVuSans-65" x="612.052734"/>
     <use xlink:href="#DejaVuSans-6e" x="673.576172"/>
     <use xlink:href="#DejaVuSans-20" x="736.955078"/>
     <use xlink:href="#DejaVuSans-65" x="768.742188"/>
     <use xlink:href="#DejaVuSans-6e" x="830.265625"/>
     <use xlink:href="#DejaVuSans-20" x="893.644531"/>
     <use xlink:href="#DejaVuSans-76" x="925.431641"/>
     <use xlink:href="#DejaVuSans-72" x="984.611328"/>
     <use xlink:href="#DejaVuSans-6f" x="1023.474609"/>
     <use xlink:href="#DejaVuSans-75" x="1084.65625"/>
     <use xlink:href="#DejaVuSans-77" x="1148.035156"/>
     <use xlink:href="#DejaVuSans-65" x="1229.822266"/>
     <use xlink:href="#DejaVuSans-6e" x="1291.345703"/>
     <use xlink:href="#DejaVuSans-2c" x="1354.724609"/>
     <use xlink:href="#DejaVuSans-20" x="1386.511719"/>
     <use xlink:href="#DejaVuSans-54" x="1418.298828"/>
     <use xlink:href="#DejaVuSans-6f" x="1462.382812"/>
     <use xlink:href="#DejaVuSans-74" x="1523.564453"/>
     <use xlink:href="#DejaVuSans-61" x="1562.773438"/>
     <use xlink:href="#DejaVuSans-61" x="1624.052734"/>
     <use xlink:href="#DejaVuSans-6c" x="1685.332031"/>
     <use xlink:href="#DejaVuSans-20" x="1713.115234"/>
     <use xlink:href="#DejaVuSans-6c" x="1744.902344"/>
     <use xlink:href="#DejaVuSans-65" x="1772.685547"/>
     <use xlink:href="#DejaVuSans-65" x="1834.208984"/>
     <use xlink:href="#DejaVuSans-66" x="1895.732422"/>
     <use xlink:href="#DejaVuSans-74" x="1929.1875"/>
     <use xlink:href="#DejaVuSans-69" x="1968.396484"/>
     <use xlink:href="#DejaVuSans-6a" x="1996.179688"/>
     <use xlink:href="#DejaVuSans-64" x="2023.962891"/>
    </g>
   </g>
  </g>
  <g id="text_20">
   <!-- Deaths per week in the Netherlands (since 2010) -->
   <g transform="translate(24.6215 17.837812)scale(0.14 -0.14)">
    <defs>
     <path id="DejaVuSans-68" d="M 3513 2113 
L 3513 0 
L 2938 0 
L 2938 2094 
Q 2938 2591 2744 2837 
Q 2550 3084 2163 3084 
Q 1697 3084 1428 2787 
Q 1159 2491 1159 1978 
L 1159 0 
L 581 0 
L 581 4863 
L 1159 4863 
L 1159 2956 
Q 1366 3272 1645 3428 
Q 1925 3584 2291 3584 
Q 2894 3584 3203 3211 
Q 3513 2838 3513 2113 
z
" transform="scale(0.015625)"/>
     <path id="DejaVuSans-73" d="M 2834 3397 
L 2834 2853 
Q 2591 2978 2328 3040 
Q 2066 3103 1784 3103 
Q 1356 3103 1142 2972 
Q 928 2841 928 2578 
Q 928 2378 1081 2264 
Q 1234 2150 1697 2047 
L 1894 2003 
Q 2506 1872 2764 1633 
Q 3022 1394 3022 966 
Q 3022 478 2636 193 
Q 2250 -91 1575 -91 
Q 1294 -91 989 -36 
Q 684 19 347 128 
L 347 722 
Q 666 556 975 473 
Q 1284 391 1588 391 
Q 1994 391 2212 530 
Q 2431 669 2431 922 
Q 2431 1156 2273 1281 
Q 2116 1406 1581 1522 
L 1381 1569 
Q 847 1681 609 1914 
Q 372 2147 372 2553 
Q 372 3047 722 3315 
Q 1072 3584 1716 3584 
Q 2034 3584 2315 3537 
Q 2597 3491 2834 3397 
z
" transform="scale(0.015625)"/>
     <path id="DejaVuSans-6b" d="M 581 4863 
L 1159 4863 
L 1159 1991 
L 2875 3500 
L 3609 3500 
L 1753 1863 
L 3688 0 
L 2938 0 
L 1159 1709 
L 1159 0 
L 581 0 
L 581 4863 
z
" transform="scale(0.015625)"/>
     <path id="DejaVuSans-28" d="M 1984 4856 
Q 1566 4138 1362 3434 
Q 1159 2731 1159 2009 
Q 1159 1288 1364 580 
Q 1569 -128 1984 -844 
L 1484 -844 
Q 1016 -109 783 600 
Q 550 1309 550 2009 
Q 550 2706 781 3412 
Q 1013 4119 1484 4856 
L 1984 4856 
z
" transform="scale(0.015625)"/>
     <path id="DejaVuSans-29" d="M 513 4856 
L 1013 4856 
Q 1481 4119 1714 3412 
Q 1947 2706 1947 2009 
Q 1947 1309 1714 600 
Q 1481 -109 1013 -844 
L 513 -844 
Q 928 -128 1133 580 
Q 1338 1288 1338 2009 
Q 1338 2731 1133 3434 
Q 928 4138 513 4856 
z
" transform="scale(0.015625)"/>
    </defs>
    <use xlink:href="#DejaVuSans-44"/>
    <use xlink:href="#DejaVuSans-65" x="77.001953"/>
    <use xlink:href="#DejaVuSans-61" x="138.525391"/>
    <use xlink:href="#DejaVuSans-74" x="199.804688"/>
    <use xlink:href="#DejaVuSans-68" x="239.013672"/>
    <use xlink:href="#DejaVuSans-73" x="302.392578"/>
    <use xlink:href="#DejaVuSans-20" x="354.492188"/>
    <use xlink:href="#DejaVuSans-70" x="386.279297"/>
    <use xlink:href="#DejaVuSans-65" x="449.755859"/>
    <use xlink:href="#DejaVuSans-72" x="511.279297"/>
    <use xlink:href="#DejaVuSans-20" x="552.392578"/>
    <use xlink:href="#DejaVuSans-77" x="584.179688"/>
    <use xlink:href="#DejaVuSans-65" x="665.966797"/>
    <use xlink:href="#DejaVuSans-65" x="727.490234"/>
    <use xlink:href="#DejaVuSans-6b" x="789.013672"/>
    <use xlink:href="#DejaVuSans-20" x="846.923828"/>
    <use xlink:href="#DejaVuSans-69" x="878.710938"/>
    <use xlink:href="#DejaVuSans-6e" x="906.494141"/>
    <use xlink:href="#DejaVuSans-20" x="969.873047"/>
    <use xlink:href="#DejaVuSans-74" x="1001.660156"/>
    <use xlink:href="#DejaVuSans-68" x="1040.869141"/>
    <use xlink:href="#DejaVuSans-65" x="1104.248047"/>
    <use xlink:href="#DejaVuSans-20" x="1165.771484"/>
    <use xlink:href="#DejaVuSans-4e" x="1197.558594"/>
    <use xlink:href="#DejaVuSans-65" x="1272.363281"/>
    <use xlink:href="#DejaVuSans-74" x="1333.886719"/>
    <use xlink:href="#DejaVuSans-68" x="1373.095703"/>
    <use xlink:href="#DejaVuSans-65" x="1436.474609"/>
    <use xlink:href="#DejaVuSans-72" x="1497.998047"/>
    <use xlink:href="#DejaVuSans-6c" x="1539.111328"/>
    <use xlink:href="#DejaVuSans-61" x="1566.894531"/>
    <use xlink:href="#DejaVuSans-6e" x="1628.173828"/>
    <use xlink:href="#DejaVuSans-64" x="1691.552734"/>
    <use xlink:href="#DejaVuSans-73" x="1755.029297"/>
    <use xlink:href="#DejaVuSans-20" x="1807.128906"/>
    <use xlink:href="#DejaVuSans-28" x="1838.916016"/>
    <use xlink:href="#DejaVuSans-73" x="1877.929688"/>
    <use xlink:href="#DejaVuSans-69" x="1930.029297"/>
    <use xlink:href="#DejaVuSans-6e" x="1957.8125"/>
    <use xlink:href="#DejaVuSans-63" x="2021.191406"/>
    <use xlink:href="#DejaVuSans-65" x="2076.171875"/>
    <use xlink:href="#DejaVuSans-20" x="2137.695312"/>
    <use xlink:href="#DejaVuSans-32" x="2169.482422"/>
    <use xlink:href="#DejaVuSans-30" x="2233.105469"/>
    <use xlink:href="#DejaVuSans-31" x="2296.728516"/>
    <use xlink:href="#DejaVuSans-30" x="2360.351562"/>
    <use xlink:href="#DejaVuSans-29" x="2423.974609"/>
   </g>
  </g>
  <g id="legend_1">
   <g id="patch_4">
    <path d="M 321.7215 441.872 
L 408.229312 441.872 
Q 410.229312 441.872 410.229312 439.872 
L 410.229312 396.837625 
Q 410.229312 394.837625 408.229312 394.837625 
L 321.7215 394.837625 
Q 319.7215 394.837625 319.7215 396.837625 
L 319.7215 439.872 
Q 319.7215 441.872 321.7215 441.872 
z
" style="fill: #ffffff; opacity: 0.8; stroke: #cccccc; stroke-linejoin: miter"/>
   </g>
   <g id="line2d_21">
    <path d="M 323.7215 402.936062 
L 333.7215 402.936062 
L 343.7215 402.936062 
" style="fill: none; stroke-dasharray: 0.5,0.825; stroke-dashoffset: 0; stroke: #1f77b4; stroke-width: 0.5"/>
   </g>
   <g id="text_21">
    <!-- 2010-2019 -->
    <g transform="translate(351.7215 406.436062)scale(0.1 -0.1)">
     <defs>
      <path id="DejaVuSans-2d" d="M 313 2009 
L 1997 2009 
L 1997 1497 
L 313 1497 
L 313 2009 
z
" transform="scale(0.015625)"/>
      <path id="DejaVuSans-39" d="M 703 97 
L 703 672 
Q 941 559 1184 500 
Q 1428 441 1663 441 
Q 2288 441 2617 861 
Q 2947 1281 2994 2138 
Q 2813 1869 2534 1725 
Q 2256 1581 1919 1581 
Q 1219 1581 811 2004 
Q 403 2428 403 3163 
Q 403 3881 828 4315 
Q 1253 4750 1959 4750 
Q 2769 4750 3195 4129 
Q 3622 3509 3622 2328 
Q 3622 1225 3098 567 
Q 2575 -91 1691 -91 
Q 1453 -91 1209 -44 
Q 966 3 703 97 
z
M 1959 2075 
Q 2384 2075 2632 2365 
Q 2881 2656 2881 3163 
Q 2881 3666 2632 3958 
Q 2384 4250 1959 4250 
Q 1534 4250 1286 3958 
Q 1038 3666 1038 3163 
Q 1038 2656 1286 2365 
Q 1534 2075 1959 2075 
z
" transform="scale(0.015625)"/>
     </defs>
     <use xlink:href="#DejaVuSans-32"/>
     <use xlink:href="#DejaVuSans-30" x="63.623047"/>
     <use xlink:href="#DejaVuSans-31" x="127.246094"/>
     <use xlink:href="#DejaVuSans-30" x="190.869141"/>
     <use xlink:href="#DejaVuSans-2d" x="254.492188"/>
     <use xlink:href="#DejaVuSans-32" x="290.576172"/>
     <use xlink:href="#DejaVuSans-30" x="354.199219"/>
     <use xlink:href="#DejaVuSans-31" x="417.822266"/>
     <use xlink:href="#DejaVuSans-39" x="481.445312"/>
    </g>
   </g>
   <g id="line2d_22">
    <path d="M 323.7215 417.614188 
L 333.7215 417.614188 
L 343.7215 417.614188 
" style="fill: none; stroke: #ff7f0e; stroke-width: 1.5; stroke-linecap: square"/>
   </g>
   <g id="text_22">
    <!-- 2021 -->
    <g transform="translate(351.7215 421.114188)scale(0.1 -0.1)">
     <use xlink:href="#DejaVuSans-32"/>
     <use xlink:href="#DejaVuSans-30" x="63.623047"/>
     <use xlink:href="#DejaVuSans-32" x="127.246094"/>
     <use xlink:href="#DejaVuSans-31" x="190.869141"/>
    </g>
   </g>
   <g id="line2d_23">
    <path d="M 323.7215 432.292313 
L 333.7215 432.292313 
L 343.7215 432.292313 
" style="fill: none; stroke: #2ca02c; stroke-width: 3; stroke-linecap: square"/>
   </g>
   <g id="text_23">
    <!-- 2022 -->
    <g transform="translate(351.7215 435.792313)scale(0.1 -0.1)">
     <use xlink:href="#DejaVuSans-32"/>
     <use xlink:href="#DejaVuSans-30" x="63.623047"/>
     <use xlink:href="#DejaVuSans-32" x="127.246094"/>
     <use xlink:href="#DejaVuSans-32" x="190.869141"/>
    </g>
   </g>
  </g>
 </g>
 <defs>
  <clipPath id="p991823c459">
   <path d="M 364.645312 246.024 
C 364.645312 224.041233 360.315187 202.272222 351.902746 181.962793 
C 343.490306 161.653365 331.159151 143.198488 315.614988 127.654325 
C 300.070824 112.110162 281.615947 99.779007 261.306519 91.366566 
C 240.997091 82.954126 219.228079 78.624 197.245313 78.624 
C 175.262546 78.624 153.493534 82.954126 133.184106 91.366566 
C 112.874678 99.779007 94.419801 112.110162 78.875637 127.654325 
C 63.331474 143.198488 51.000319 161.653365 42.587879 181.962793 
C 34.175438 202.272222 29.845312 224.041233 29.845312 246.024 
C 29.845312 268.006767 34.175438 289.775778 42.587879 310.085207 
C 51.000319 330.394635 63.331474 348.849512 78.875637 364.393675 
C 94.419801 379.937838 112.874678 392.268993 133.184106 400.681434 
C 153.493534 409.093874 175.262546 413.424 197.245312 413.424 
C 219.228079 413.424 240.997091 409.093874 261.306519 400.681434 
C 281.615947 392.268993 300.070824 379.937838 315.614988 364.393675 
C 331.159151 348.849512 343.490306 330.394635 351.902746 310.085207 
C 360.315187 289.775778 364.645312 268.006767 364.645312 246.024 
M 197.245312 246.024 
C 197.245312 246.024 197.245312 246.024 197.245312 246.024 
C 197.245312 246.024 197.245312 246.024 197.245312 246.024 
C 197.245312 246.024 197.245312 246.024 197.245312 246.024 
C 197.245312 246.024 197.245312 246.024 197.245312 246.024 
C 197.245312 246.024 197.245312 246.024 197.245312 246.024 
C 197.245312 246.024 197.245312 246.024 197.245312 246.024 
C 197.245312 246.024 197.245312 246.024 197.245312 246.024 
C 197.245312 246.024 197.245312 246.024 197.245312 246.024 
C 197.245312 246.024 197.245312 246.024 197.245312 246.024 
C 197.245312 246.024 197.245312 246.024 197.245312 246.024 
C 197.245312 246.024 197.245312 246.024 197.245312 246.024 
C 197.245312 246.024 197.245312 246.024 197.245312 246.024 
C 197.245312 246.024 197.245312 246.024 197.245312 246.024 
C 197.245312 246.024 197.245312 246.024 197.245312 246.024 
C 197.245312 246.024 197.245312 246.024 197.245312 246.024 
C 197.245312 246.024 197.245312 246.024 197.245312 246.024 
M 364.645312 246.024 
z
"/>
  </clipPath>
 </defs>
</svg>
